G04 #@! TF.GenerationSoftware,KiCad,Pcbnew,(5.0.0)*
G04 #@! TF.CreationDate,2018-08-29T10:59:05+02:00*
G04 #@! TF.ProjectId,1u_mute,31755F6D7574652E6B696361645F7063,rev?*
G04 #@! TF.SameCoordinates,Original*
G04 #@! TF.FileFunction,Copper,L1,Top,Signal*
G04 #@! TF.FilePolarity,Positive*
%FSLAX46Y46*%
G04 Gerber Fmt 4.6, Leading zero omitted, Abs format (unit mm)*
G04 Created by KiCad (PCBNEW (5.0.0)) date 08/29/18 10:59:05*
%MOMM*%
%LPD*%
G01*
G04 APERTURE LIST*
G04 #@! TA.AperFunction,ComponentPad*
%ADD10C,1.648460*%
G04 #@! TD*
G04 #@! TA.AperFunction,ComponentPad*
%ADD11C,1.879600*%
G04 #@! TD*
G04 #@! TA.AperFunction,Conductor*
%ADD12C,0.250000*%
G04 #@! TD*
G04 #@! TA.AperFunction,Conductor*
%ADD13C,0.254000*%
G04 #@! TD*
G04 APERTURE END LIST*
D10*
G04 #@! TO.P,J_OUT_1,P$3_SLEEVE*
G04 #@! TO.N,GND*
X12999860Y-17500000D03*
G04 #@! TO.P,J_OUT_1,P$2_SWITCH*
G04 #@! TO.N,N/C*
X9997580Y-17500000D03*
G04 #@! TO.P,J_OUT_1,P$1_TIP*
G04 #@! TO.N,Net-(J_OUT_1-PadP$1_TIP)*
X1501280Y-17500000D03*
G04 #@! TD*
G04 #@! TO.P,J_IN_1,P$1_TIP*
G04 #@! TO.N,Net-(J_IN_1-PadP$1_TIP)*
X1501280Y-4500000D03*
G04 #@! TO.P,J_IN_1,P$2_SWITCH*
G04 #@! TO.N,N/C*
X9997580Y-4500000D03*
G04 #@! TO.P,J_IN_1,P$3_SLEEVE*
G04 #@! TO.N,GND*
X12999860Y-4500000D03*
G04 #@! TD*
D11*
G04 #@! TO.P,SW1,1*
G04 #@! TO.N,Net-(J_OUT_1-PadP$1_TIP)*
X21500000Y-15700000D03*
G04 #@! TO.P,SW1,2*
G04 #@! TO.N,Net-(J_IN_1-PadP$1_TIP)*
X21500000Y-11000000D03*
G04 #@! TO.P,SW1,3*
G04 #@! TO.N,Net-(J_OUT_1-PadP$1_TIP)*
X21500000Y-6300000D03*
G04 #@! TD*
D12*
G04 #@! TO.N,Net-(J_IN_1-PadP$1_TIP)*
X20560201Y-10060201D02*
X21500000Y-11000000D01*
X12000000Y-1500000D02*
X20560201Y-10060201D01*
X4501280Y-1500000D02*
X12000000Y-1500000D01*
X1501280Y-4500000D02*
X4501280Y-1500000D01*
G04 #@! TO.N,Net-(J_OUT_1-PadP$1_TIP)*
X21500000Y-6300000D02*
X23000000Y-7800000D01*
X23000000Y-14200000D02*
X21500000Y-15700000D01*
X23000000Y-7800000D02*
X23000000Y-14200000D01*
X20560201Y-16639799D02*
X21500000Y-15700000D01*
X17774999Y-19425001D02*
X20560201Y-16639799D01*
X3426281Y-19425001D02*
X17774999Y-19425001D01*
X1501280Y-17500000D02*
X3426281Y-19425001D01*
G04 #@! TD*
D13*
G04 #@! TO.N,GND*
G36*
X12528259Y-3103061D02*
X12231279Y-3226074D01*
X12154170Y-3474705D01*
X12999860Y-4320395D01*
X13014003Y-4306253D01*
X13193608Y-4485858D01*
X13179465Y-4500000D01*
X14025155Y-5345690D01*
X14273786Y-5268581D01*
X14385204Y-4960006D01*
X19979898Y-10554701D01*
X19925200Y-10686753D01*
X19925200Y-11313247D01*
X20164949Y-11892052D01*
X20607948Y-12335051D01*
X21186753Y-12574800D01*
X21813247Y-12574800D01*
X22240001Y-12398033D01*
X22240001Y-13885196D01*
X21945300Y-14179898D01*
X21813247Y-14125200D01*
X21186753Y-14125200D01*
X20607948Y-14364949D01*
X20164949Y-14807948D01*
X19925200Y-15386753D01*
X19925200Y-16013247D01*
X19979898Y-16145299D01*
X17460198Y-18665001D01*
X13802222Y-18665001D01*
X13845550Y-18525295D01*
X12999860Y-17679605D01*
X12154170Y-18525295D01*
X12197498Y-18665001D01*
X10896241Y-18665001D01*
X11234655Y-18326587D01*
X11456810Y-17790259D01*
X11456810Y-17277435D01*
X11528783Y-17277435D01*
X11555590Y-17857334D01*
X11725934Y-18268581D01*
X11974565Y-18345690D01*
X12820255Y-17500000D01*
X13179465Y-17500000D01*
X14025155Y-18345690D01*
X14273786Y-18268581D01*
X14470937Y-17722565D01*
X14444130Y-17142666D01*
X14273786Y-16731419D01*
X14025155Y-16654310D01*
X13179465Y-17500000D01*
X12820255Y-17500000D01*
X11974565Y-16654310D01*
X11725934Y-16731419D01*
X11528783Y-17277435D01*
X11456810Y-17277435D01*
X11456810Y-17209741D01*
X11234655Y-16673413D01*
X11035947Y-16474705D01*
X12154170Y-16474705D01*
X12999860Y-17320395D01*
X13845550Y-16474705D01*
X13768441Y-16226074D01*
X13222425Y-16028923D01*
X12642526Y-16055730D01*
X12231279Y-16226074D01*
X12154170Y-16474705D01*
X11035947Y-16474705D01*
X10824167Y-16262925D01*
X10287839Y-16040770D01*
X9707321Y-16040770D01*
X9170993Y-16262925D01*
X8760505Y-16673413D01*
X8668634Y-16895209D01*
X8394741Y-16233974D01*
X7766026Y-15605259D01*
X6944569Y-15265000D01*
X6055431Y-15265000D01*
X5233974Y-15605259D01*
X4605259Y-16233974D01*
X4265000Y-17055431D01*
X4265000Y-17944569D01*
X4563413Y-18665001D01*
X3741083Y-18665001D01*
X2932928Y-17856847D01*
X2960510Y-17790259D01*
X2960510Y-17209741D01*
X2738355Y-16673413D01*
X2327867Y-16262925D01*
X1791539Y-16040770D01*
X1211021Y-16040770D01*
X735000Y-16237945D01*
X735000Y-5762055D01*
X1211021Y-5959230D01*
X1791539Y-5959230D01*
X2327867Y-5737075D01*
X2738355Y-5326587D01*
X2960510Y-4790259D01*
X2960510Y-4209741D01*
X2932928Y-4143153D01*
X3020650Y-4055431D01*
X4265000Y-4055431D01*
X4265000Y-4944569D01*
X4605259Y-5766026D01*
X5233974Y-6394741D01*
X6055431Y-6735000D01*
X6944569Y-6735000D01*
X7766026Y-6394741D01*
X8394741Y-5766026D01*
X8668634Y-5104791D01*
X8760505Y-5326587D01*
X9170993Y-5737075D01*
X9707321Y-5959230D01*
X10287839Y-5959230D01*
X10824167Y-5737075D01*
X11035947Y-5525295D01*
X12154170Y-5525295D01*
X12231279Y-5773926D01*
X12777295Y-5971077D01*
X13357194Y-5944270D01*
X13768441Y-5773926D01*
X13845550Y-5525295D01*
X12999860Y-4679605D01*
X12154170Y-5525295D01*
X11035947Y-5525295D01*
X11234655Y-5326587D01*
X11456810Y-4790259D01*
X11456810Y-4277435D01*
X11528783Y-4277435D01*
X11555590Y-4857334D01*
X11725934Y-5268581D01*
X11974565Y-5345690D01*
X12820255Y-4500000D01*
X11974565Y-3654310D01*
X11725934Y-3731419D01*
X11528783Y-4277435D01*
X11456810Y-4277435D01*
X11456810Y-4209741D01*
X11234655Y-3673413D01*
X10824167Y-3262925D01*
X10287839Y-3040770D01*
X9707321Y-3040770D01*
X9170993Y-3262925D01*
X8760505Y-3673413D01*
X8668634Y-3895209D01*
X8394741Y-3233974D01*
X7766026Y-2605259D01*
X6944569Y-2265000D01*
X6055431Y-2265000D01*
X5233974Y-2605259D01*
X4605259Y-3233974D01*
X4265000Y-4055431D01*
X3020650Y-4055431D01*
X4816082Y-2260000D01*
X11685199Y-2260000D01*
X12528259Y-3103061D01*
X12528259Y-3103061D01*
G37*
X12528259Y-3103061D02*
X12231279Y-3226074D01*
X12154170Y-3474705D01*
X12999860Y-4320395D01*
X13014003Y-4306253D01*
X13193608Y-4485858D01*
X13179465Y-4500000D01*
X14025155Y-5345690D01*
X14273786Y-5268581D01*
X14385204Y-4960006D01*
X19979898Y-10554701D01*
X19925200Y-10686753D01*
X19925200Y-11313247D01*
X20164949Y-11892052D01*
X20607948Y-12335051D01*
X21186753Y-12574800D01*
X21813247Y-12574800D01*
X22240001Y-12398033D01*
X22240001Y-13885196D01*
X21945300Y-14179898D01*
X21813247Y-14125200D01*
X21186753Y-14125200D01*
X20607948Y-14364949D01*
X20164949Y-14807948D01*
X19925200Y-15386753D01*
X19925200Y-16013247D01*
X19979898Y-16145299D01*
X17460198Y-18665001D01*
X13802222Y-18665001D01*
X13845550Y-18525295D01*
X12999860Y-17679605D01*
X12154170Y-18525295D01*
X12197498Y-18665001D01*
X10896241Y-18665001D01*
X11234655Y-18326587D01*
X11456810Y-17790259D01*
X11456810Y-17277435D01*
X11528783Y-17277435D01*
X11555590Y-17857334D01*
X11725934Y-18268581D01*
X11974565Y-18345690D01*
X12820255Y-17500000D01*
X13179465Y-17500000D01*
X14025155Y-18345690D01*
X14273786Y-18268581D01*
X14470937Y-17722565D01*
X14444130Y-17142666D01*
X14273786Y-16731419D01*
X14025155Y-16654310D01*
X13179465Y-17500000D01*
X12820255Y-17500000D01*
X11974565Y-16654310D01*
X11725934Y-16731419D01*
X11528783Y-17277435D01*
X11456810Y-17277435D01*
X11456810Y-17209741D01*
X11234655Y-16673413D01*
X11035947Y-16474705D01*
X12154170Y-16474705D01*
X12999860Y-17320395D01*
X13845550Y-16474705D01*
X13768441Y-16226074D01*
X13222425Y-16028923D01*
X12642526Y-16055730D01*
X12231279Y-16226074D01*
X12154170Y-16474705D01*
X11035947Y-16474705D01*
X10824167Y-16262925D01*
X10287839Y-16040770D01*
X9707321Y-16040770D01*
X9170993Y-16262925D01*
X8760505Y-16673413D01*
X8668634Y-16895209D01*
X8394741Y-16233974D01*
X7766026Y-15605259D01*
X6944569Y-15265000D01*
X6055431Y-15265000D01*
X5233974Y-15605259D01*
X4605259Y-16233974D01*
X4265000Y-17055431D01*
X4265000Y-17944569D01*
X4563413Y-18665001D01*
X3741083Y-18665001D01*
X2932928Y-17856847D01*
X2960510Y-17790259D01*
X2960510Y-17209741D01*
X2738355Y-16673413D01*
X2327867Y-16262925D01*
X1791539Y-16040770D01*
X1211021Y-16040770D01*
X735000Y-16237945D01*
X735000Y-5762055D01*
X1211021Y-5959230D01*
X1791539Y-5959230D01*
X2327867Y-5737075D01*
X2738355Y-5326587D01*
X2960510Y-4790259D01*
X2960510Y-4209741D01*
X2932928Y-4143153D01*
X3020650Y-4055431D01*
X4265000Y-4055431D01*
X4265000Y-4944569D01*
X4605259Y-5766026D01*
X5233974Y-6394741D01*
X6055431Y-6735000D01*
X6944569Y-6735000D01*
X7766026Y-6394741D01*
X8394741Y-5766026D01*
X8668634Y-5104791D01*
X8760505Y-5326587D01*
X9170993Y-5737075D01*
X9707321Y-5959230D01*
X10287839Y-5959230D01*
X10824167Y-5737075D01*
X11035947Y-5525295D01*
X12154170Y-5525295D01*
X12231279Y-5773926D01*
X12777295Y-5971077D01*
X13357194Y-5944270D01*
X13768441Y-5773926D01*
X13845550Y-5525295D01*
X12999860Y-4679605D01*
X12154170Y-5525295D01*
X11035947Y-5525295D01*
X11234655Y-5326587D01*
X11456810Y-4790259D01*
X11456810Y-4277435D01*
X11528783Y-4277435D01*
X11555590Y-4857334D01*
X11725934Y-5268581D01*
X11974565Y-5345690D01*
X12820255Y-4500000D01*
X11974565Y-3654310D01*
X11725934Y-3731419D01*
X11528783Y-4277435D01*
X11456810Y-4277435D01*
X11456810Y-4209741D01*
X11234655Y-3673413D01*
X10824167Y-3262925D01*
X10287839Y-3040770D01*
X9707321Y-3040770D01*
X9170993Y-3262925D01*
X8760505Y-3673413D01*
X8668634Y-3895209D01*
X8394741Y-3233974D01*
X7766026Y-2605259D01*
X6944569Y-2265000D01*
X6055431Y-2265000D01*
X5233974Y-2605259D01*
X4605259Y-3233974D01*
X4265000Y-4055431D01*
X3020650Y-4055431D01*
X4816082Y-2260000D01*
X11685199Y-2260000D01*
X12528259Y-3103061D01*
G04 #@! TD*
M02*
