G04 #@! TF.GenerationSoftware,KiCad,Pcbnew,(5.0.2)-1*
G04 #@! TF.CreationDate,2019-04-04T16:09:54+02:00*
G04 #@! TF.ProjectId,Corona_mainBoard,436f726f-6e61-45f6-9d61-696e426f6172,1*
G04 #@! TF.SameCoordinates,Original*
G04 #@! TF.FileFunction,Paste,Top*
G04 #@! TF.FilePolarity,Positive*
%FSLAX46Y46*%
G04 Gerber Fmt 4.6, Leading zero omitted, Abs format (unit mm)*
G04 Created by KiCad (PCBNEW (5.0.2)-1) date 04/04/2019 16:09:54*
%MOMM*%
%LPD*%
G01*
G04 APERTURE LIST*
%ADD10C,0.100000*%
%ADD11C,1.150000*%
%ADD12C,0.600000*%
G04 APERTURE END LIST*
D10*
G04 #@! TO.C,R10*
G36*
X5624505Y-51051204D02*
X5648773Y-51054804D01*
X5672572Y-51060765D01*
X5695671Y-51069030D01*
X5717850Y-51079520D01*
X5738893Y-51092132D01*
X5758599Y-51106747D01*
X5776777Y-51123223D01*
X5793253Y-51141401D01*
X5807868Y-51161107D01*
X5820480Y-51182150D01*
X5830970Y-51204329D01*
X5839235Y-51227428D01*
X5845196Y-51251227D01*
X5848796Y-51275495D01*
X5850000Y-51299999D01*
X5850000Y-52200001D01*
X5848796Y-52224505D01*
X5845196Y-52248773D01*
X5839235Y-52272572D01*
X5830970Y-52295671D01*
X5820480Y-52317850D01*
X5807868Y-52338893D01*
X5793253Y-52358599D01*
X5776777Y-52376777D01*
X5758599Y-52393253D01*
X5738893Y-52407868D01*
X5717850Y-52420480D01*
X5695671Y-52430970D01*
X5672572Y-52439235D01*
X5648773Y-52445196D01*
X5624505Y-52448796D01*
X5600001Y-52450000D01*
X4949999Y-52450000D01*
X4925495Y-52448796D01*
X4901227Y-52445196D01*
X4877428Y-52439235D01*
X4854329Y-52430970D01*
X4832150Y-52420480D01*
X4811107Y-52407868D01*
X4791401Y-52393253D01*
X4773223Y-52376777D01*
X4756747Y-52358599D01*
X4742132Y-52338893D01*
X4729520Y-52317850D01*
X4719030Y-52295671D01*
X4710765Y-52272572D01*
X4704804Y-52248773D01*
X4701204Y-52224505D01*
X4700000Y-52200001D01*
X4700000Y-51299999D01*
X4701204Y-51275495D01*
X4704804Y-51251227D01*
X4710765Y-51227428D01*
X4719030Y-51204329D01*
X4729520Y-51182150D01*
X4742132Y-51161107D01*
X4756747Y-51141401D01*
X4773223Y-51123223D01*
X4791401Y-51106747D01*
X4811107Y-51092132D01*
X4832150Y-51079520D01*
X4854329Y-51069030D01*
X4877428Y-51060765D01*
X4901227Y-51054804D01*
X4925495Y-51051204D01*
X4949999Y-51050000D01*
X5600001Y-51050000D01*
X5624505Y-51051204D01*
X5624505Y-51051204D01*
G37*
D11*
X5275000Y-51750000D03*
D10*
G36*
X3574505Y-51051204D02*
X3598773Y-51054804D01*
X3622572Y-51060765D01*
X3645671Y-51069030D01*
X3667850Y-51079520D01*
X3688893Y-51092132D01*
X3708599Y-51106747D01*
X3726777Y-51123223D01*
X3743253Y-51141401D01*
X3757868Y-51161107D01*
X3770480Y-51182150D01*
X3780970Y-51204329D01*
X3789235Y-51227428D01*
X3795196Y-51251227D01*
X3798796Y-51275495D01*
X3800000Y-51299999D01*
X3800000Y-52200001D01*
X3798796Y-52224505D01*
X3795196Y-52248773D01*
X3789235Y-52272572D01*
X3780970Y-52295671D01*
X3770480Y-52317850D01*
X3757868Y-52338893D01*
X3743253Y-52358599D01*
X3726777Y-52376777D01*
X3708599Y-52393253D01*
X3688893Y-52407868D01*
X3667850Y-52420480D01*
X3645671Y-52430970D01*
X3622572Y-52439235D01*
X3598773Y-52445196D01*
X3574505Y-52448796D01*
X3550001Y-52450000D01*
X2899999Y-52450000D01*
X2875495Y-52448796D01*
X2851227Y-52445196D01*
X2827428Y-52439235D01*
X2804329Y-52430970D01*
X2782150Y-52420480D01*
X2761107Y-52407868D01*
X2741401Y-52393253D01*
X2723223Y-52376777D01*
X2706747Y-52358599D01*
X2692132Y-52338893D01*
X2679520Y-52317850D01*
X2669030Y-52295671D01*
X2660765Y-52272572D01*
X2654804Y-52248773D01*
X2651204Y-52224505D01*
X2650000Y-52200001D01*
X2650000Y-51299999D01*
X2651204Y-51275495D01*
X2654804Y-51251227D01*
X2660765Y-51227428D01*
X2669030Y-51204329D01*
X2679520Y-51182150D01*
X2692132Y-51161107D01*
X2706747Y-51141401D01*
X2723223Y-51123223D01*
X2741401Y-51106747D01*
X2761107Y-51092132D01*
X2782150Y-51079520D01*
X2804329Y-51069030D01*
X2827428Y-51060765D01*
X2851227Y-51054804D01*
X2875495Y-51051204D01*
X2899999Y-51050000D01*
X3550001Y-51050000D01*
X3574505Y-51051204D01*
X3574505Y-51051204D01*
G37*
D11*
X3225000Y-51750000D03*
G04 #@! TD*
D10*
G04 #@! TO.C,R11*
G36*
X8574505Y-51051204D02*
X8598773Y-51054804D01*
X8622572Y-51060765D01*
X8645671Y-51069030D01*
X8667850Y-51079520D01*
X8688893Y-51092132D01*
X8708599Y-51106747D01*
X8726777Y-51123223D01*
X8743253Y-51141401D01*
X8757868Y-51161107D01*
X8770480Y-51182150D01*
X8780970Y-51204329D01*
X8789235Y-51227428D01*
X8795196Y-51251227D01*
X8798796Y-51275495D01*
X8800000Y-51299999D01*
X8800000Y-52200001D01*
X8798796Y-52224505D01*
X8795196Y-52248773D01*
X8789235Y-52272572D01*
X8780970Y-52295671D01*
X8770480Y-52317850D01*
X8757868Y-52338893D01*
X8743253Y-52358599D01*
X8726777Y-52376777D01*
X8708599Y-52393253D01*
X8688893Y-52407868D01*
X8667850Y-52420480D01*
X8645671Y-52430970D01*
X8622572Y-52439235D01*
X8598773Y-52445196D01*
X8574505Y-52448796D01*
X8550001Y-52450000D01*
X7899999Y-52450000D01*
X7875495Y-52448796D01*
X7851227Y-52445196D01*
X7827428Y-52439235D01*
X7804329Y-52430970D01*
X7782150Y-52420480D01*
X7761107Y-52407868D01*
X7741401Y-52393253D01*
X7723223Y-52376777D01*
X7706747Y-52358599D01*
X7692132Y-52338893D01*
X7679520Y-52317850D01*
X7669030Y-52295671D01*
X7660765Y-52272572D01*
X7654804Y-52248773D01*
X7651204Y-52224505D01*
X7650000Y-52200001D01*
X7650000Y-51299999D01*
X7651204Y-51275495D01*
X7654804Y-51251227D01*
X7660765Y-51227428D01*
X7669030Y-51204329D01*
X7679520Y-51182150D01*
X7692132Y-51161107D01*
X7706747Y-51141401D01*
X7723223Y-51123223D01*
X7741401Y-51106747D01*
X7761107Y-51092132D01*
X7782150Y-51079520D01*
X7804329Y-51069030D01*
X7827428Y-51060765D01*
X7851227Y-51054804D01*
X7875495Y-51051204D01*
X7899999Y-51050000D01*
X8550001Y-51050000D01*
X8574505Y-51051204D01*
X8574505Y-51051204D01*
G37*
D11*
X8225000Y-51750000D03*
D10*
G36*
X10624505Y-51051204D02*
X10648773Y-51054804D01*
X10672572Y-51060765D01*
X10695671Y-51069030D01*
X10717850Y-51079520D01*
X10738893Y-51092132D01*
X10758599Y-51106747D01*
X10776777Y-51123223D01*
X10793253Y-51141401D01*
X10807868Y-51161107D01*
X10820480Y-51182150D01*
X10830970Y-51204329D01*
X10839235Y-51227428D01*
X10845196Y-51251227D01*
X10848796Y-51275495D01*
X10850000Y-51299999D01*
X10850000Y-52200001D01*
X10848796Y-52224505D01*
X10845196Y-52248773D01*
X10839235Y-52272572D01*
X10830970Y-52295671D01*
X10820480Y-52317850D01*
X10807868Y-52338893D01*
X10793253Y-52358599D01*
X10776777Y-52376777D01*
X10758599Y-52393253D01*
X10738893Y-52407868D01*
X10717850Y-52420480D01*
X10695671Y-52430970D01*
X10672572Y-52439235D01*
X10648773Y-52445196D01*
X10624505Y-52448796D01*
X10600001Y-52450000D01*
X9949999Y-52450000D01*
X9925495Y-52448796D01*
X9901227Y-52445196D01*
X9877428Y-52439235D01*
X9854329Y-52430970D01*
X9832150Y-52420480D01*
X9811107Y-52407868D01*
X9791401Y-52393253D01*
X9773223Y-52376777D01*
X9756747Y-52358599D01*
X9742132Y-52338893D01*
X9729520Y-52317850D01*
X9719030Y-52295671D01*
X9710765Y-52272572D01*
X9704804Y-52248773D01*
X9701204Y-52224505D01*
X9700000Y-52200001D01*
X9700000Y-51299999D01*
X9701204Y-51275495D01*
X9704804Y-51251227D01*
X9710765Y-51227428D01*
X9719030Y-51204329D01*
X9729520Y-51182150D01*
X9742132Y-51161107D01*
X9756747Y-51141401D01*
X9773223Y-51123223D01*
X9791401Y-51106747D01*
X9811107Y-51092132D01*
X9832150Y-51079520D01*
X9854329Y-51069030D01*
X9877428Y-51060765D01*
X9901227Y-51054804D01*
X9925495Y-51051204D01*
X9949999Y-51050000D01*
X10600001Y-51050000D01*
X10624505Y-51051204D01*
X10624505Y-51051204D01*
G37*
D11*
X10275000Y-51750000D03*
G04 #@! TD*
D10*
G04 #@! TO.C,R12*
G36*
X3599505Y-54551204D02*
X3623773Y-54554804D01*
X3647572Y-54560765D01*
X3670671Y-54569030D01*
X3692850Y-54579520D01*
X3713893Y-54592132D01*
X3733599Y-54606747D01*
X3751777Y-54623223D01*
X3768253Y-54641401D01*
X3782868Y-54661107D01*
X3795480Y-54682150D01*
X3805970Y-54704329D01*
X3814235Y-54727428D01*
X3820196Y-54751227D01*
X3823796Y-54775495D01*
X3825000Y-54799999D01*
X3825000Y-55700001D01*
X3823796Y-55724505D01*
X3820196Y-55748773D01*
X3814235Y-55772572D01*
X3805970Y-55795671D01*
X3795480Y-55817850D01*
X3782868Y-55838893D01*
X3768253Y-55858599D01*
X3751777Y-55876777D01*
X3733599Y-55893253D01*
X3713893Y-55907868D01*
X3692850Y-55920480D01*
X3670671Y-55930970D01*
X3647572Y-55939235D01*
X3623773Y-55945196D01*
X3599505Y-55948796D01*
X3575001Y-55950000D01*
X2924999Y-55950000D01*
X2900495Y-55948796D01*
X2876227Y-55945196D01*
X2852428Y-55939235D01*
X2829329Y-55930970D01*
X2807150Y-55920480D01*
X2786107Y-55907868D01*
X2766401Y-55893253D01*
X2748223Y-55876777D01*
X2731747Y-55858599D01*
X2717132Y-55838893D01*
X2704520Y-55817850D01*
X2694030Y-55795671D01*
X2685765Y-55772572D01*
X2679804Y-55748773D01*
X2676204Y-55724505D01*
X2675000Y-55700001D01*
X2675000Y-54799999D01*
X2676204Y-54775495D01*
X2679804Y-54751227D01*
X2685765Y-54727428D01*
X2694030Y-54704329D01*
X2704520Y-54682150D01*
X2717132Y-54661107D01*
X2731747Y-54641401D01*
X2748223Y-54623223D01*
X2766401Y-54606747D01*
X2786107Y-54592132D01*
X2807150Y-54579520D01*
X2829329Y-54569030D01*
X2852428Y-54560765D01*
X2876227Y-54554804D01*
X2900495Y-54551204D01*
X2924999Y-54550000D01*
X3575001Y-54550000D01*
X3599505Y-54551204D01*
X3599505Y-54551204D01*
G37*
D11*
X3250000Y-55250000D03*
D10*
G36*
X5649505Y-54551204D02*
X5673773Y-54554804D01*
X5697572Y-54560765D01*
X5720671Y-54569030D01*
X5742850Y-54579520D01*
X5763893Y-54592132D01*
X5783599Y-54606747D01*
X5801777Y-54623223D01*
X5818253Y-54641401D01*
X5832868Y-54661107D01*
X5845480Y-54682150D01*
X5855970Y-54704329D01*
X5864235Y-54727428D01*
X5870196Y-54751227D01*
X5873796Y-54775495D01*
X5875000Y-54799999D01*
X5875000Y-55700001D01*
X5873796Y-55724505D01*
X5870196Y-55748773D01*
X5864235Y-55772572D01*
X5855970Y-55795671D01*
X5845480Y-55817850D01*
X5832868Y-55838893D01*
X5818253Y-55858599D01*
X5801777Y-55876777D01*
X5783599Y-55893253D01*
X5763893Y-55907868D01*
X5742850Y-55920480D01*
X5720671Y-55930970D01*
X5697572Y-55939235D01*
X5673773Y-55945196D01*
X5649505Y-55948796D01*
X5625001Y-55950000D01*
X4974999Y-55950000D01*
X4950495Y-55948796D01*
X4926227Y-55945196D01*
X4902428Y-55939235D01*
X4879329Y-55930970D01*
X4857150Y-55920480D01*
X4836107Y-55907868D01*
X4816401Y-55893253D01*
X4798223Y-55876777D01*
X4781747Y-55858599D01*
X4767132Y-55838893D01*
X4754520Y-55817850D01*
X4744030Y-55795671D01*
X4735765Y-55772572D01*
X4729804Y-55748773D01*
X4726204Y-55724505D01*
X4725000Y-55700001D01*
X4725000Y-54799999D01*
X4726204Y-54775495D01*
X4729804Y-54751227D01*
X4735765Y-54727428D01*
X4744030Y-54704329D01*
X4754520Y-54682150D01*
X4767132Y-54661107D01*
X4781747Y-54641401D01*
X4798223Y-54623223D01*
X4816401Y-54606747D01*
X4836107Y-54592132D01*
X4857150Y-54579520D01*
X4879329Y-54569030D01*
X4902428Y-54560765D01*
X4926227Y-54554804D01*
X4950495Y-54551204D01*
X4974999Y-54550000D01*
X5625001Y-54550000D01*
X5649505Y-54551204D01*
X5649505Y-54551204D01*
G37*
D11*
X5300000Y-55250000D03*
G04 #@! TD*
D10*
G04 #@! TO.C,R13*
G36*
X8574505Y-54801204D02*
X8598773Y-54804804D01*
X8622572Y-54810765D01*
X8645671Y-54819030D01*
X8667850Y-54829520D01*
X8688893Y-54842132D01*
X8708599Y-54856747D01*
X8726777Y-54873223D01*
X8743253Y-54891401D01*
X8757868Y-54911107D01*
X8770480Y-54932150D01*
X8780970Y-54954329D01*
X8789235Y-54977428D01*
X8795196Y-55001227D01*
X8798796Y-55025495D01*
X8800000Y-55049999D01*
X8800000Y-55950001D01*
X8798796Y-55974505D01*
X8795196Y-55998773D01*
X8789235Y-56022572D01*
X8780970Y-56045671D01*
X8770480Y-56067850D01*
X8757868Y-56088893D01*
X8743253Y-56108599D01*
X8726777Y-56126777D01*
X8708599Y-56143253D01*
X8688893Y-56157868D01*
X8667850Y-56170480D01*
X8645671Y-56180970D01*
X8622572Y-56189235D01*
X8598773Y-56195196D01*
X8574505Y-56198796D01*
X8550001Y-56200000D01*
X7899999Y-56200000D01*
X7875495Y-56198796D01*
X7851227Y-56195196D01*
X7827428Y-56189235D01*
X7804329Y-56180970D01*
X7782150Y-56170480D01*
X7761107Y-56157868D01*
X7741401Y-56143253D01*
X7723223Y-56126777D01*
X7706747Y-56108599D01*
X7692132Y-56088893D01*
X7679520Y-56067850D01*
X7669030Y-56045671D01*
X7660765Y-56022572D01*
X7654804Y-55998773D01*
X7651204Y-55974505D01*
X7650000Y-55950001D01*
X7650000Y-55049999D01*
X7651204Y-55025495D01*
X7654804Y-55001227D01*
X7660765Y-54977428D01*
X7669030Y-54954329D01*
X7679520Y-54932150D01*
X7692132Y-54911107D01*
X7706747Y-54891401D01*
X7723223Y-54873223D01*
X7741401Y-54856747D01*
X7761107Y-54842132D01*
X7782150Y-54829520D01*
X7804329Y-54819030D01*
X7827428Y-54810765D01*
X7851227Y-54804804D01*
X7875495Y-54801204D01*
X7899999Y-54800000D01*
X8550001Y-54800000D01*
X8574505Y-54801204D01*
X8574505Y-54801204D01*
G37*
D11*
X8225000Y-55500000D03*
D10*
G36*
X10624505Y-54801204D02*
X10648773Y-54804804D01*
X10672572Y-54810765D01*
X10695671Y-54819030D01*
X10717850Y-54829520D01*
X10738893Y-54842132D01*
X10758599Y-54856747D01*
X10776777Y-54873223D01*
X10793253Y-54891401D01*
X10807868Y-54911107D01*
X10820480Y-54932150D01*
X10830970Y-54954329D01*
X10839235Y-54977428D01*
X10845196Y-55001227D01*
X10848796Y-55025495D01*
X10850000Y-55049999D01*
X10850000Y-55950001D01*
X10848796Y-55974505D01*
X10845196Y-55998773D01*
X10839235Y-56022572D01*
X10830970Y-56045671D01*
X10820480Y-56067850D01*
X10807868Y-56088893D01*
X10793253Y-56108599D01*
X10776777Y-56126777D01*
X10758599Y-56143253D01*
X10738893Y-56157868D01*
X10717850Y-56170480D01*
X10695671Y-56180970D01*
X10672572Y-56189235D01*
X10648773Y-56195196D01*
X10624505Y-56198796D01*
X10600001Y-56200000D01*
X9949999Y-56200000D01*
X9925495Y-56198796D01*
X9901227Y-56195196D01*
X9877428Y-56189235D01*
X9854329Y-56180970D01*
X9832150Y-56170480D01*
X9811107Y-56157868D01*
X9791401Y-56143253D01*
X9773223Y-56126777D01*
X9756747Y-56108599D01*
X9742132Y-56088893D01*
X9729520Y-56067850D01*
X9719030Y-56045671D01*
X9710765Y-56022572D01*
X9704804Y-55998773D01*
X9701204Y-55974505D01*
X9700000Y-55950001D01*
X9700000Y-55049999D01*
X9701204Y-55025495D01*
X9704804Y-55001227D01*
X9710765Y-54977428D01*
X9719030Y-54954329D01*
X9729520Y-54932150D01*
X9742132Y-54911107D01*
X9756747Y-54891401D01*
X9773223Y-54873223D01*
X9791401Y-54856747D01*
X9811107Y-54842132D01*
X9832150Y-54829520D01*
X9854329Y-54819030D01*
X9877428Y-54810765D01*
X9901227Y-54804804D01*
X9925495Y-54801204D01*
X9949999Y-54800000D01*
X10600001Y-54800000D01*
X10624505Y-54801204D01*
X10624505Y-54801204D01*
G37*
D11*
X10275000Y-55500000D03*
G04 #@! TD*
D10*
G04 #@! TO.C,R15*
G36*
X5624505Y-44051204D02*
X5648773Y-44054804D01*
X5672572Y-44060765D01*
X5695671Y-44069030D01*
X5717850Y-44079520D01*
X5738893Y-44092132D01*
X5758599Y-44106747D01*
X5776777Y-44123223D01*
X5793253Y-44141401D01*
X5807868Y-44161107D01*
X5820480Y-44182150D01*
X5830970Y-44204329D01*
X5839235Y-44227428D01*
X5845196Y-44251227D01*
X5848796Y-44275495D01*
X5850000Y-44299999D01*
X5850000Y-45200001D01*
X5848796Y-45224505D01*
X5845196Y-45248773D01*
X5839235Y-45272572D01*
X5830970Y-45295671D01*
X5820480Y-45317850D01*
X5807868Y-45338893D01*
X5793253Y-45358599D01*
X5776777Y-45376777D01*
X5758599Y-45393253D01*
X5738893Y-45407868D01*
X5717850Y-45420480D01*
X5695671Y-45430970D01*
X5672572Y-45439235D01*
X5648773Y-45445196D01*
X5624505Y-45448796D01*
X5600001Y-45450000D01*
X4949999Y-45450000D01*
X4925495Y-45448796D01*
X4901227Y-45445196D01*
X4877428Y-45439235D01*
X4854329Y-45430970D01*
X4832150Y-45420480D01*
X4811107Y-45407868D01*
X4791401Y-45393253D01*
X4773223Y-45376777D01*
X4756747Y-45358599D01*
X4742132Y-45338893D01*
X4729520Y-45317850D01*
X4719030Y-45295671D01*
X4710765Y-45272572D01*
X4704804Y-45248773D01*
X4701204Y-45224505D01*
X4700000Y-45200001D01*
X4700000Y-44299999D01*
X4701204Y-44275495D01*
X4704804Y-44251227D01*
X4710765Y-44227428D01*
X4719030Y-44204329D01*
X4729520Y-44182150D01*
X4742132Y-44161107D01*
X4756747Y-44141401D01*
X4773223Y-44123223D01*
X4791401Y-44106747D01*
X4811107Y-44092132D01*
X4832150Y-44079520D01*
X4854329Y-44069030D01*
X4877428Y-44060765D01*
X4901227Y-44054804D01*
X4925495Y-44051204D01*
X4949999Y-44050000D01*
X5600001Y-44050000D01*
X5624505Y-44051204D01*
X5624505Y-44051204D01*
G37*
D11*
X5275000Y-44750000D03*
D10*
G36*
X3574505Y-44051204D02*
X3598773Y-44054804D01*
X3622572Y-44060765D01*
X3645671Y-44069030D01*
X3667850Y-44079520D01*
X3688893Y-44092132D01*
X3708599Y-44106747D01*
X3726777Y-44123223D01*
X3743253Y-44141401D01*
X3757868Y-44161107D01*
X3770480Y-44182150D01*
X3780970Y-44204329D01*
X3789235Y-44227428D01*
X3795196Y-44251227D01*
X3798796Y-44275495D01*
X3800000Y-44299999D01*
X3800000Y-45200001D01*
X3798796Y-45224505D01*
X3795196Y-45248773D01*
X3789235Y-45272572D01*
X3780970Y-45295671D01*
X3770480Y-45317850D01*
X3757868Y-45338893D01*
X3743253Y-45358599D01*
X3726777Y-45376777D01*
X3708599Y-45393253D01*
X3688893Y-45407868D01*
X3667850Y-45420480D01*
X3645671Y-45430970D01*
X3622572Y-45439235D01*
X3598773Y-45445196D01*
X3574505Y-45448796D01*
X3550001Y-45450000D01*
X2899999Y-45450000D01*
X2875495Y-45448796D01*
X2851227Y-45445196D01*
X2827428Y-45439235D01*
X2804329Y-45430970D01*
X2782150Y-45420480D01*
X2761107Y-45407868D01*
X2741401Y-45393253D01*
X2723223Y-45376777D01*
X2706747Y-45358599D01*
X2692132Y-45338893D01*
X2679520Y-45317850D01*
X2669030Y-45295671D01*
X2660765Y-45272572D01*
X2654804Y-45248773D01*
X2651204Y-45224505D01*
X2650000Y-45200001D01*
X2650000Y-44299999D01*
X2651204Y-44275495D01*
X2654804Y-44251227D01*
X2660765Y-44227428D01*
X2669030Y-44204329D01*
X2679520Y-44182150D01*
X2692132Y-44161107D01*
X2706747Y-44141401D01*
X2723223Y-44123223D01*
X2741401Y-44106747D01*
X2761107Y-44092132D01*
X2782150Y-44079520D01*
X2804329Y-44069030D01*
X2827428Y-44060765D01*
X2851227Y-44054804D01*
X2875495Y-44051204D01*
X2899999Y-44050000D01*
X3550001Y-44050000D01*
X3574505Y-44051204D01*
X3574505Y-44051204D01*
G37*
D11*
X3225000Y-44750000D03*
G04 #@! TD*
D10*
G04 #@! TO.C,R16*
G36*
X10624505Y-44051204D02*
X10648773Y-44054804D01*
X10672572Y-44060765D01*
X10695671Y-44069030D01*
X10717850Y-44079520D01*
X10738893Y-44092132D01*
X10758599Y-44106747D01*
X10776777Y-44123223D01*
X10793253Y-44141401D01*
X10807868Y-44161107D01*
X10820480Y-44182150D01*
X10830970Y-44204329D01*
X10839235Y-44227428D01*
X10845196Y-44251227D01*
X10848796Y-44275495D01*
X10850000Y-44299999D01*
X10850000Y-45200001D01*
X10848796Y-45224505D01*
X10845196Y-45248773D01*
X10839235Y-45272572D01*
X10830970Y-45295671D01*
X10820480Y-45317850D01*
X10807868Y-45338893D01*
X10793253Y-45358599D01*
X10776777Y-45376777D01*
X10758599Y-45393253D01*
X10738893Y-45407868D01*
X10717850Y-45420480D01*
X10695671Y-45430970D01*
X10672572Y-45439235D01*
X10648773Y-45445196D01*
X10624505Y-45448796D01*
X10600001Y-45450000D01*
X9949999Y-45450000D01*
X9925495Y-45448796D01*
X9901227Y-45445196D01*
X9877428Y-45439235D01*
X9854329Y-45430970D01*
X9832150Y-45420480D01*
X9811107Y-45407868D01*
X9791401Y-45393253D01*
X9773223Y-45376777D01*
X9756747Y-45358599D01*
X9742132Y-45338893D01*
X9729520Y-45317850D01*
X9719030Y-45295671D01*
X9710765Y-45272572D01*
X9704804Y-45248773D01*
X9701204Y-45224505D01*
X9700000Y-45200001D01*
X9700000Y-44299999D01*
X9701204Y-44275495D01*
X9704804Y-44251227D01*
X9710765Y-44227428D01*
X9719030Y-44204329D01*
X9729520Y-44182150D01*
X9742132Y-44161107D01*
X9756747Y-44141401D01*
X9773223Y-44123223D01*
X9791401Y-44106747D01*
X9811107Y-44092132D01*
X9832150Y-44079520D01*
X9854329Y-44069030D01*
X9877428Y-44060765D01*
X9901227Y-44054804D01*
X9925495Y-44051204D01*
X9949999Y-44050000D01*
X10600001Y-44050000D01*
X10624505Y-44051204D01*
X10624505Y-44051204D01*
G37*
D11*
X10275000Y-44750000D03*
D10*
G36*
X8574505Y-44051204D02*
X8598773Y-44054804D01*
X8622572Y-44060765D01*
X8645671Y-44069030D01*
X8667850Y-44079520D01*
X8688893Y-44092132D01*
X8708599Y-44106747D01*
X8726777Y-44123223D01*
X8743253Y-44141401D01*
X8757868Y-44161107D01*
X8770480Y-44182150D01*
X8780970Y-44204329D01*
X8789235Y-44227428D01*
X8795196Y-44251227D01*
X8798796Y-44275495D01*
X8800000Y-44299999D01*
X8800000Y-45200001D01*
X8798796Y-45224505D01*
X8795196Y-45248773D01*
X8789235Y-45272572D01*
X8780970Y-45295671D01*
X8770480Y-45317850D01*
X8757868Y-45338893D01*
X8743253Y-45358599D01*
X8726777Y-45376777D01*
X8708599Y-45393253D01*
X8688893Y-45407868D01*
X8667850Y-45420480D01*
X8645671Y-45430970D01*
X8622572Y-45439235D01*
X8598773Y-45445196D01*
X8574505Y-45448796D01*
X8550001Y-45450000D01*
X7899999Y-45450000D01*
X7875495Y-45448796D01*
X7851227Y-45445196D01*
X7827428Y-45439235D01*
X7804329Y-45430970D01*
X7782150Y-45420480D01*
X7761107Y-45407868D01*
X7741401Y-45393253D01*
X7723223Y-45376777D01*
X7706747Y-45358599D01*
X7692132Y-45338893D01*
X7679520Y-45317850D01*
X7669030Y-45295671D01*
X7660765Y-45272572D01*
X7654804Y-45248773D01*
X7651204Y-45224505D01*
X7650000Y-45200001D01*
X7650000Y-44299999D01*
X7651204Y-44275495D01*
X7654804Y-44251227D01*
X7660765Y-44227428D01*
X7669030Y-44204329D01*
X7679520Y-44182150D01*
X7692132Y-44161107D01*
X7706747Y-44141401D01*
X7723223Y-44123223D01*
X7741401Y-44106747D01*
X7761107Y-44092132D01*
X7782150Y-44079520D01*
X7804329Y-44069030D01*
X7827428Y-44060765D01*
X7851227Y-44054804D01*
X7875495Y-44051204D01*
X7899999Y-44050000D01*
X8550001Y-44050000D01*
X8574505Y-44051204D01*
X8574505Y-44051204D01*
G37*
D11*
X8225000Y-44750000D03*
G04 #@! TD*
D10*
G04 #@! TO.C,R17*
G36*
X15374505Y-44051204D02*
X15398773Y-44054804D01*
X15422572Y-44060765D01*
X15445671Y-44069030D01*
X15467850Y-44079520D01*
X15488893Y-44092132D01*
X15508599Y-44106747D01*
X15526777Y-44123223D01*
X15543253Y-44141401D01*
X15557868Y-44161107D01*
X15570480Y-44182150D01*
X15580970Y-44204329D01*
X15589235Y-44227428D01*
X15595196Y-44251227D01*
X15598796Y-44275495D01*
X15600000Y-44299999D01*
X15600000Y-45200001D01*
X15598796Y-45224505D01*
X15595196Y-45248773D01*
X15589235Y-45272572D01*
X15580970Y-45295671D01*
X15570480Y-45317850D01*
X15557868Y-45338893D01*
X15543253Y-45358599D01*
X15526777Y-45376777D01*
X15508599Y-45393253D01*
X15488893Y-45407868D01*
X15467850Y-45420480D01*
X15445671Y-45430970D01*
X15422572Y-45439235D01*
X15398773Y-45445196D01*
X15374505Y-45448796D01*
X15350001Y-45450000D01*
X14699999Y-45450000D01*
X14675495Y-45448796D01*
X14651227Y-45445196D01*
X14627428Y-45439235D01*
X14604329Y-45430970D01*
X14582150Y-45420480D01*
X14561107Y-45407868D01*
X14541401Y-45393253D01*
X14523223Y-45376777D01*
X14506747Y-45358599D01*
X14492132Y-45338893D01*
X14479520Y-45317850D01*
X14469030Y-45295671D01*
X14460765Y-45272572D01*
X14454804Y-45248773D01*
X14451204Y-45224505D01*
X14450000Y-45200001D01*
X14450000Y-44299999D01*
X14451204Y-44275495D01*
X14454804Y-44251227D01*
X14460765Y-44227428D01*
X14469030Y-44204329D01*
X14479520Y-44182150D01*
X14492132Y-44161107D01*
X14506747Y-44141401D01*
X14523223Y-44123223D01*
X14541401Y-44106747D01*
X14561107Y-44092132D01*
X14582150Y-44079520D01*
X14604329Y-44069030D01*
X14627428Y-44060765D01*
X14651227Y-44054804D01*
X14675495Y-44051204D01*
X14699999Y-44050000D01*
X15350001Y-44050000D01*
X15374505Y-44051204D01*
X15374505Y-44051204D01*
G37*
D11*
X15025000Y-44750000D03*
D10*
G36*
X13324505Y-44051204D02*
X13348773Y-44054804D01*
X13372572Y-44060765D01*
X13395671Y-44069030D01*
X13417850Y-44079520D01*
X13438893Y-44092132D01*
X13458599Y-44106747D01*
X13476777Y-44123223D01*
X13493253Y-44141401D01*
X13507868Y-44161107D01*
X13520480Y-44182150D01*
X13530970Y-44204329D01*
X13539235Y-44227428D01*
X13545196Y-44251227D01*
X13548796Y-44275495D01*
X13550000Y-44299999D01*
X13550000Y-45200001D01*
X13548796Y-45224505D01*
X13545196Y-45248773D01*
X13539235Y-45272572D01*
X13530970Y-45295671D01*
X13520480Y-45317850D01*
X13507868Y-45338893D01*
X13493253Y-45358599D01*
X13476777Y-45376777D01*
X13458599Y-45393253D01*
X13438893Y-45407868D01*
X13417850Y-45420480D01*
X13395671Y-45430970D01*
X13372572Y-45439235D01*
X13348773Y-45445196D01*
X13324505Y-45448796D01*
X13300001Y-45450000D01*
X12649999Y-45450000D01*
X12625495Y-45448796D01*
X12601227Y-45445196D01*
X12577428Y-45439235D01*
X12554329Y-45430970D01*
X12532150Y-45420480D01*
X12511107Y-45407868D01*
X12491401Y-45393253D01*
X12473223Y-45376777D01*
X12456747Y-45358599D01*
X12442132Y-45338893D01*
X12429520Y-45317850D01*
X12419030Y-45295671D01*
X12410765Y-45272572D01*
X12404804Y-45248773D01*
X12401204Y-45224505D01*
X12400000Y-45200001D01*
X12400000Y-44299999D01*
X12401204Y-44275495D01*
X12404804Y-44251227D01*
X12410765Y-44227428D01*
X12419030Y-44204329D01*
X12429520Y-44182150D01*
X12442132Y-44161107D01*
X12456747Y-44141401D01*
X12473223Y-44123223D01*
X12491401Y-44106747D01*
X12511107Y-44092132D01*
X12532150Y-44079520D01*
X12554329Y-44069030D01*
X12577428Y-44060765D01*
X12601227Y-44054804D01*
X12625495Y-44051204D01*
X12649999Y-44050000D01*
X13300001Y-44050000D01*
X13324505Y-44051204D01*
X13324505Y-44051204D01*
G37*
D11*
X12975000Y-44750000D03*
G04 #@! TD*
D10*
G04 #@! TO.C,R18*
G36*
X3574505Y-47551204D02*
X3598773Y-47554804D01*
X3622572Y-47560765D01*
X3645671Y-47569030D01*
X3667850Y-47579520D01*
X3688893Y-47592132D01*
X3708599Y-47606747D01*
X3726777Y-47623223D01*
X3743253Y-47641401D01*
X3757868Y-47661107D01*
X3770480Y-47682150D01*
X3780970Y-47704329D01*
X3789235Y-47727428D01*
X3795196Y-47751227D01*
X3798796Y-47775495D01*
X3800000Y-47799999D01*
X3800000Y-48700001D01*
X3798796Y-48724505D01*
X3795196Y-48748773D01*
X3789235Y-48772572D01*
X3780970Y-48795671D01*
X3770480Y-48817850D01*
X3757868Y-48838893D01*
X3743253Y-48858599D01*
X3726777Y-48876777D01*
X3708599Y-48893253D01*
X3688893Y-48907868D01*
X3667850Y-48920480D01*
X3645671Y-48930970D01*
X3622572Y-48939235D01*
X3598773Y-48945196D01*
X3574505Y-48948796D01*
X3550001Y-48950000D01*
X2899999Y-48950000D01*
X2875495Y-48948796D01*
X2851227Y-48945196D01*
X2827428Y-48939235D01*
X2804329Y-48930970D01*
X2782150Y-48920480D01*
X2761107Y-48907868D01*
X2741401Y-48893253D01*
X2723223Y-48876777D01*
X2706747Y-48858599D01*
X2692132Y-48838893D01*
X2679520Y-48817850D01*
X2669030Y-48795671D01*
X2660765Y-48772572D01*
X2654804Y-48748773D01*
X2651204Y-48724505D01*
X2650000Y-48700001D01*
X2650000Y-47799999D01*
X2651204Y-47775495D01*
X2654804Y-47751227D01*
X2660765Y-47727428D01*
X2669030Y-47704329D01*
X2679520Y-47682150D01*
X2692132Y-47661107D01*
X2706747Y-47641401D01*
X2723223Y-47623223D01*
X2741401Y-47606747D01*
X2761107Y-47592132D01*
X2782150Y-47579520D01*
X2804329Y-47569030D01*
X2827428Y-47560765D01*
X2851227Y-47554804D01*
X2875495Y-47551204D01*
X2899999Y-47550000D01*
X3550001Y-47550000D01*
X3574505Y-47551204D01*
X3574505Y-47551204D01*
G37*
D11*
X3225000Y-48250000D03*
D10*
G36*
X5624505Y-47551204D02*
X5648773Y-47554804D01*
X5672572Y-47560765D01*
X5695671Y-47569030D01*
X5717850Y-47579520D01*
X5738893Y-47592132D01*
X5758599Y-47606747D01*
X5776777Y-47623223D01*
X5793253Y-47641401D01*
X5807868Y-47661107D01*
X5820480Y-47682150D01*
X5830970Y-47704329D01*
X5839235Y-47727428D01*
X5845196Y-47751227D01*
X5848796Y-47775495D01*
X5850000Y-47799999D01*
X5850000Y-48700001D01*
X5848796Y-48724505D01*
X5845196Y-48748773D01*
X5839235Y-48772572D01*
X5830970Y-48795671D01*
X5820480Y-48817850D01*
X5807868Y-48838893D01*
X5793253Y-48858599D01*
X5776777Y-48876777D01*
X5758599Y-48893253D01*
X5738893Y-48907868D01*
X5717850Y-48920480D01*
X5695671Y-48930970D01*
X5672572Y-48939235D01*
X5648773Y-48945196D01*
X5624505Y-48948796D01*
X5600001Y-48950000D01*
X4949999Y-48950000D01*
X4925495Y-48948796D01*
X4901227Y-48945196D01*
X4877428Y-48939235D01*
X4854329Y-48930970D01*
X4832150Y-48920480D01*
X4811107Y-48907868D01*
X4791401Y-48893253D01*
X4773223Y-48876777D01*
X4756747Y-48858599D01*
X4742132Y-48838893D01*
X4729520Y-48817850D01*
X4719030Y-48795671D01*
X4710765Y-48772572D01*
X4704804Y-48748773D01*
X4701204Y-48724505D01*
X4700000Y-48700001D01*
X4700000Y-47799999D01*
X4701204Y-47775495D01*
X4704804Y-47751227D01*
X4710765Y-47727428D01*
X4719030Y-47704329D01*
X4729520Y-47682150D01*
X4742132Y-47661107D01*
X4756747Y-47641401D01*
X4773223Y-47623223D01*
X4791401Y-47606747D01*
X4811107Y-47592132D01*
X4832150Y-47579520D01*
X4854329Y-47569030D01*
X4877428Y-47560765D01*
X4901227Y-47554804D01*
X4925495Y-47551204D01*
X4949999Y-47550000D01*
X5600001Y-47550000D01*
X5624505Y-47551204D01*
X5624505Y-47551204D01*
G37*
D11*
X5275000Y-48250000D03*
G04 #@! TD*
D10*
G04 #@! TO.C,R19*
G36*
X10624505Y-47551204D02*
X10648773Y-47554804D01*
X10672572Y-47560765D01*
X10695671Y-47569030D01*
X10717850Y-47579520D01*
X10738893Y-47592132D01*
X10758599Y-47606747D01*
X10776777Y-47623223D01*
X10793253Y-47641401D01*
X10807868Y-47661107D01*
X10820480Y-47682150D01*
X10830970Y-47704329D01*
X10839235Y-47727428D01*
X10845196Y-47751227D01*
X10848796Y-47775495D01*
X10850000Y-47799999D01*
X10850000Y-48700001D01*
X10848796Y-48724505D01*
X10845196Y-48748773D01*
X10839235Y-48772572D01*
X10830970Y-48795671D01*
X10820480Y-48817850D01*
X10807868Y-48838893D01*
X10793253Y-48858599D01*
X10776777Y-48876777D01*
X10758599Y-48893253D01*
X10738893Y-48907868D01*
X10717850Y-48920480D01*
X10695671Y-48930970D01*
X10672572Y-48939235D01*
X10648773Y-48945196D01*
X10624505Y-48948796D01*
X10600001Y-48950000D01*
X9949999Y-48950000D01*
X9925495Y-48948796D01*
X9901227Y-48945196D01*
X9877428Y-48939235D01*
X9854329Y-48930970D01*
X9832150Y-48920480D01*
X9811107Y-48907868D01*
X9791401Y-48893253D01*
X9773223Y-48876777D01*
X9756747Y-48858599D01*
X9742132Y-48838893D01*
X9729520Y-48817850D01*
X9719030Y-48795671D01*
X9710765Y-48772572D01*
X9704804Y-48748773D01*
X9701204Y-48724505D01*
X9700000Y-48700001D01*
X9700000Y-47799999D01*
X9701204Y-47775495D01*
X9704804Y-47751227D01*
X9710765Y-47727428D01*
X9719030Y-47704329D01*
X9729520Y-47682150D01*
X9742132Y-47661107D01*
X9756747Y-47641401D01*
X9773223Y-47623223D01*
X9791401Y-47606747D01*
X9811107Y-47592132D01*
X9832150Y-47579520D01*
X9854329Y-47569030D01*
X9877428Y-47560765D01*
X9901227Y-47554804D01*
X9925495Y-47551204D01*
X9949999Y-47550000D01*
X10600001Y-47550000D01*
X10624505Y-47551204D01*
X10624505Y-47551204D01*
G37*
D11*
X10275000Y-48250000D03*
D10*
G36*
X8574505Y-47551204D02*
X8598773Y-47554804D01*
X8622572Y-47560765D01*
X8645671Y-47569030D01*
X8667850Y-47579520D01*
X8688893Y-47592132D01*
X8708599Y-47606747D01*
X8726777Y-47623223D01*
X8743253Y-47641401D01*
X8757868Y-47661107D01*
X8770480Y-47682150D01*
X8780970Y-47704329D01*
X8789235Y-47727428D01*
X8795196Y-47751227D01*
X8798796Y-47775495D01*
X8800000Y-47799999D01*
X8800000Y-48700001D01*
X8798796Y-48724505D01*
X8795196Y-48748773D01*
X8789235Y-48772572D01*
X8780970Y-48795671D01*
X8770480Y-48817850D01*
X8757868Y-48838893D01*
X8743253Y-48858599D01*
X8726777Y-48876777D01*
X8708599Y-48893253D01*
X8688893Y-48907868D01*
X8667850Y-48920480D01*
X8645671Y-48930970D01*
X8622572Y-48939235D01*
X8598773Y-48945196D01*
X8574505Y-48948796D01*
X8550001Y-48950000D01*
X7899999Y-48950000D01*
X7875495Y-48948796D01*
X7851227Y-48945196D01*
X7827428Y-48939235D01*
X7804329Y-48930970D01*
X7782150Y-48920480D01*
X7761107Y-48907868D01*
X7741401Y-48893253D01*
X7723223Y-48876777D01*
X7706747Y-48858599D01*
X7692132Y-48838893D01*
X7679520Y-48817850D01*
X7669030Y-48795671D01*
X7660765Y-48772572D01*
X7654804Y-48748773D01*
X7651204Y-48724505D01*
X7650000Y-48700001D01*
X7650000Y-47799999D01*
X7651204Y-47775495D01*
X7654804Y-47751227D01*
X7660765Y-47727428D01*
X7669030Y-47704329D01*
X7679520Y-47682150D01*
X7692132Y-47661107D01*
X7706747Y-47641401D01*
X7723223Y-47623223D01*
X7741401Y-47606747D01*
X7761107Y-47592132D01*
X7782150Y-47579520D01*
X7804329Y-47569030D01*
X7827428Y-47560765D01*
X7851227Y-47554804D01*
X7875495Y-47551204D01*
X7899999Y-47550000D01*
X8550001Y-47550000D01*
X8574505Y-47551204D01*
X8574505Y-47551204D01*
G37*
D11*
X8225000Y-48250000D03*
G04 #@! TD*
D10*
G04 #@! TO.C,R30*
G36*
X9399505Y-22801204D02*
X9423773Y-22804804D01*
X9447572Y-22810765D01*
X9470671Y-22819030D01*
X9492850Y-22829520D01*
X9513893Y-22842132D01*
X9533599Y-22856747D01*
X9551777Y-22873223D01*
X9568253Y-22891401D01*
X9582868Y-22911107D01*
X9595480Y-22932150D01*
X9605970Y-22954329D01*
X9614235Y-22977428D01*
X9620196Y-23001227D01*
X9623796Y-23025495D01*
X9625000Y-23049999D01*
X9625000Y-23950001D01*
X9623796Y-23974505D01*
X9620196Y-23998773D01*
X9614235Y-24022572D01*
X9605970Y-24045671D01*
X9595480Y-24067850D01*
X9582868Y-24088893D01*
X9568253Y-24108599D01*
X9551777Y-24126777D01*
X9533599Y-24143253D01*
X9513893Y-24157868D01*
X9492850Y-24170480D01*
X9470671Y-24180970D01*
X9447572Y-24189235D01*
X9423773Y-24195196D01*
X9399505Y-24198796D01*
X9375001Y-24200000D01*
X8724999Y-24200000D01*
X8700495Y-24198796D01*
X8676227Y-24195196D01*
X8652428Y-24189235D01*
X8629329Y-24180970D01*
X8607150Y-24170480D01*
X8586107Y-24157868D01*
X8566401Y-24143253D01*
X8548223Y-24126777D01*
X8531747Y-24108599D01*
X8517132Y-24088893D01*
X8504520Y-24067850D01*
X8494030Y-24045671D01*
X8485765Y-24022572D01*
X8479804Y-23998773D01*
X8476204Y-23974505D01*
X8475000Y-23950001D01*
X8475000Y-23049999D01*
X8476204Y-23025495D01*
X8479804Y-23001227D01*
X8485765Y-22977428D01*
X8494030Y-22954329D01*
X8504520Y-22932150D01*
X8517132Y-22911107D01*
X8531747Y-22891401D01*
X8548223Y-22873223D01*
X8566401Y-22856747D01*
X8586107Y-22842132D01*
X8607150Y-22829520D01*
X8629329Y-22819030D01*
X8652428Y-22810765D01*
X8676227Y-22804804D01*
X8700495Y-22801204D01*
X8724999Y-22800000D01*
X9375001Y-22800000D01*
X9399505Y-22801204D01*
X9399505Y-22801204D01*
G37*
D11*
X9050000Y-23500000D03*
D10*
G36*
X7349505Y-22801204D02*
X7373773Y-22804804D01*
X7397572Y-22810765D01*
X7420671Y-22819030D01*
X7442850Y-22829520D01*
X7463893Y-22842132D01*
X7483599Y-22856747D01*
X7501777Y-22873223D01*
X7518253Y-22891401D01*
X7532868Y-22911107D01*
X7545480Y-22932150D01*
X7555970Y-22954329D01*
X7564235Y-22977428D01*
X7570196Y-23001227D01*
X7573796Y-23025495D01*
X7575000Y-23049999D01*
X7575000Y-23950001D01*
X7573796Y-23974505D01*
X7570196Y-23998773D01*
X7564235Y-24022572D01*
X7555970Y-24045671D01*
X7545480Y-24067850D01*
X7532868Y-24088893D01*
X7518253Y-24108599D01*
X7501777Y-24126777D01*
X7483599Y-24143253D01*
X7463893Y-24157868D01*
X7442850Y-24170480D01*
X7420671Y-24180970D01*
X7397572Y-24189235D01*
X7373773Y-24195196D01*
X7349505Y-24198796D01*
X7325001Y-24200000D01*
X6674999Y-24200000D01*
X6650495Y-24198796D01*
X6626227Y-24195196D01*
X6602428Y-24189235D01*
X6579329Y-24180970D01*
X6557150Y-24170480D01*
X6536107Y-24157868D01*
X6516401Y-24143253D01*
X6498223Y-24126777D01*
X6481747Y-24108599D01*
X6467132Y-24088893D01*
X6454520Y-24067850D01*
X6444030Y-24045671D01*
X6435765Y-24022572D01*
X6429804Y-23998773D01*
X6426204Y-23974505D01*
X6425000Y-23950001D01*
X6425000Y-23049999D01*
X6426204Y-23025495D01*
X6429804Y-23001227D01*
X6435765Y-22977428D01*
X6444030Y-22954329D01*
X6454520Y-22932150D01*
X6467132Y-22911107D01*
X6481747Y-22891401D01*
X6498223Y-22873223D01*
X6516401Y-22856747D01*
X6536107Y-22842132D01*
X6557150Y-22829520D01*
X6579329Y-22819030D01*
X6602428Y-22810765D01*
X6626227Y-22804804D01*
X6650495Y-22801204D01*
X6674999Y-22800000D01*
X7325001Y-22800000D01*
X7349505Y-22801204D01*
X7349505Y-22801204D01*
G37*
D11*
X7000000Y-23500000D03*
G04 #@! TD*
D10*
G04 #@! TO.C,R31*
G36*
X7324505Y-26301204D02*
X7348773Y-26304804D01*
X7372572Y-26310765D01*
X7395671Y-26319030D01*
X7417850Y-26329520D01*
X7438893Y-26342132D01*
X7458599Y-26356747D01*
X7476777Y-26373223D01*
X7493253Y-26391401D01*
X7507868Y-26411107D01*
X7520480Y-26432150D01*
X7530970Y-26454329D01*
X7539235Y-26477428D01*
X7545196Y-26501227D01*
X7548796Y-26525495D01*
X7550000Y-26549999D01*
X7550000Y-27450001D01*
X7548796Y-27474505D01*
X7545196Y-27498773D01*
X7539235Y-27522572D01*
X7530970Y-27545671D01*
X7520480Y-27567850D01*
X7507868Y-27588893D01*
X7493253Y-27608599D01*
X7476777Y-27626777D01*
X7458599Y-27643253D01*
X7438893Y-27657868D01*
X7417850Y-27670480D01*
X7395671Y-27680970D01*
X7372572Y-27689235D01*
X7348773Y-27695196D01*
X7324505Y-27698796D01*
X7300001Y-27700000D01*
X6649999Y-27700000D01*
X6625495Y-27698796D01*
X6601227Y-27695196D01*
X6577428Y-27689235D01*
X6554329Y-27680970D01*
X6532150Y-27670480D01*
X6511107Y-27657868D01*
X6491401Y-27643253D01*
X6473223Y-27626777D01*
X6456747Y-27608599D01*
X6442132Y-27588893D01*
X6429520Y-27567850D01*
X6419030Y-27545671D01*
X6410765Y-27522572D01*
X6404804Y-27498773D01*
X6401204Y-27474505D01*
X6400000Y-27450001D01*
X6400000Y-26549999D01*
X6401204Y-26525495D01*
X6404804Y-26501227D01*
X6410765Y-26477428D01*
X6419030Y-26454329D01*
X6429520Y-26432150D01*
X6442132Y-26411107D01*
X6456747Y-26391401D01*
X6473223Y-26373223D01*
X6491401Y-26356747D01*
X6511107Y-26342132D01*
X6532150Y-26329520D01*
X6554329Y-26319030D01*
X6577428Y-26310765D01*
X6601227Y-26304804D01*
X6625495Y-26301204D01*
X6649999Y-26300000D01*
X7300001Y-26300000D01*
X7324505Y-26301204D01*
X7324505Y-26301204D01*
G37*
D11*
X6975000Y-27000000D03*
D10*
G36*
X9374505Y-26301204D02*
X9398773Y-26304804D01*
X9422572Y-26310765D01*
X9445671Y-26319030D01*
X9467850Y-26329520D01*
X9488893Y-26342132D01*
X9508599Y-26356747D01*
X9526777Y-26373223D01*
X9543253Y-26391401D01*
X9557868Y-26411107D01*
X9570480Y-26432150D01*
X9580970Y-26454329D01*
X9589235Y-26477428D01*
X9595196Y-26501227D01*
X9598796Y-26525495D01*
X9600000Y-26549999D01*
X9600000Y-27450001D01*
X9598796Y-27474505D01*
X9595196Y-27498773D01*
X9589235Y-27522572D01*
X9580970Y-27545671D01*
X9570480Y-27567850D01*
X9557868Y-27588893D01*
X9543253Y-27608599D01*
X9526777Y-27626777D01*
X9508599Y-27643253D01*
X9488893Y-27657868D01*
X9467850Y-27670480D01*
X9445671Y-27680970D01*
X9422572Y-27689235D01*
X9398773Y-27695196D01*
X9374505Y-27698796D01*
X9350001Y-27700000D01*
X8699999Y-27700000D01*
X8675495Y-27698796D01*
X8651227Y-27695196D01*
X8627428Y-27689235D01*
X8604329Y-27680970D01*
X8582150Y-27670480D01*
X8561107Y-27657868D01*
X8541401Y-27643253D01*
X8523223Y-27626777D01*
X8506747Y-27608599D01*
X8492132Y-27588893D01*
X8479520Y-27567850D01*
X8469030Y-27545671D01*
X8460765Y-27522572D01*
X8454804Y-27498773D01*
X8451204Y-27474505D01*
X8450000Y-27450001D01*
X8450000Y-26549999D01*
X8451204Y-26525495D01*
X8454804Y-26501227D01*
X8460765Y-26477428D01*
X8469030Y-26454329D01*
X8479520Y-26432150D01*
X8492132Y-26411107D01*
X8506747Y-26391401D01*
X8523223Y-26373223D01*
X8541401Y-26356747D01*
X8561107Y-26342132D01*
X8582150Y-26329520D01*
X8604329Y-26319030D01*
X8627428Y-26310765D01*
X8651227Y-26304804D01*
X8675495Y-26301204D01*
X8699999Y-26300000D01*
X9350001Y-26300000D01*
X9374505Y-26301204D01*
X9374505Y-26301204D01*
G37*
D11*
X9025000Y-27000000D03*
G04 #@! TD*
D10*
G04 #@! TO.C,R32*
G36*
X12324505Y-26301204D02*
X12348773Y-26304804D01*
X12372572Y-26310765D01*
X12395671Y-26319030D01*
X12417850Y-26329520D01*
X12438893Y-26342132D01*
X12458599Y-26356747D01*
X12476777Y-26373223D01*
X12493253Y-26391401D01*
X12507868Y-26411107D01*
X12520480Y-26432150D01*
X12530970Y-26454329D01*
X12539235Y-26477428D01*
X12545196Y-26501227D01*
X12548796Y-26525495D01*
X12550000Y-26549999D01*
X12550000Y-27450001D01*
X12548796Y-27474505D01*
X12545196Y-27498773D01*
X12539235Y-27522572D01*
X12530970Y-27545671D01*
X12520480Y-27567850D01*
X12507868Y-27588893D01*
X12493253Y-27608599D01*
X12476777Y-27626777D01*
X12458599Y-27643253D01*
X12438893Y-27657868D01*
X12417850Y-27670480D01*
X12395671Y-27680970D01*
X12372572Y-27689235D01*
X12348773Y-27695196D01*
X12324505Y-27698796D01*
X12300001Y-27700000D01*
X11649999Y-27700000D01*
X11625495Y-27698796D01*
X11601227Y-27695196D01*
X11577428Y-27689235D01*
X11554329Y-27680970D01*
X11532150Y-27670480D01*
X11511107Y-27657868D01*
X11491401Y-27643253D01*
X11473223Y-27626777D01*
X11456747Y-27608599D01*
X11442132Y-27588893D01*
X11429520Y-27567850D01*
X11419030Y-27545671D01*
X11410765Y-27522572D01*
X11404804Y-27498773D01*
X11401204Y-27474505D01*
X11400000Y-27450001D01*
X11400000Y-26549999D01*
X11401204Y-26525495D01*
X11404804Y-26501227D01*
X11410765Y-26477428D01*
X11419030Y-26454329D01*
X11429520Y-26432150D01*
X11442132Y-26411107D01*
X11456747Y-26391401D01*
X11473223Y-26373223D01*
X11491401Y-26356747D01*
X11511107Y-26342132D01*
X11532150Y-26329520D01*
X11554329Y-26319030D01*
X11577428Y-26310765D01*
X11601227Y-26304804D01*
X11625495Y-26301204D01*
X11649999Y-26300000D01*
X12300001Y-26300000D01*
X12324505Y-26301204D01*
X12324505Y-26301204D01*
G37*
D11*
X11975000Y-27000000D03*
D10*
G36*
X14374505Y-26301204D02*
X14398773Y-26304804D01*
X14422572Y-26310765D01*
X14445671Y-26319030D01*
X14467850Y-26329520D01*
X14488893Y-26342132D01*
X14508599Y-26356747D01*
X14526777Y-26373223D01*
X14543253Y-26391401D01*
X14557868Y-26411107D01*
X14570480Y-26432150D01*
X14580970Y-26454329D01*
X14589235Y-26477428D01*
X14595196Y-26501227D01*
X14598796Y-26525495D01*
X14600000Y-26549999D01*
X14600000Y-27450001D01*
X14598796Y-27474505D01*
X14595196Y-27498773D01*
X14589235Y-27522572D01*
X14580970Y-27545671D01*
X14570480Y-27567850D01*
X14557868Y-27588893D01*
X14543253Y-27608599D01*
X14526777Y-27626777D01*
X14508599Y-27643253D01*
X14488893Y-27657868D01*
X14467850Y-27670480D01*
X14445671Y-27680970D01*
X14422572Y-27689235D01*
X14398773Y-27695196D01*
X14374505Y-27698796D01*
X14350001Y-27700000D01*
X13699999Y-27700000D01*
X13675495Y-27698796D01*
X13651227Y-27695196D01*
X13627428Y-27689235D01*
X13604329Y-27680970D01*
X13582150Y-27670480D01*
X13561107Y-27657868D01*
X13541401Y-27643253D01*
X13523223Y-27626777D01*
X13506747Y-27608599D01*
X13492132Y-27588893D01*
X13479520Y-27567850D01*
X13469030Y-27545671D01*
X13460765Y-27522572D01*
X13454804Y-27498773D01*
X13451204Y-27474505D01*
X13450000Y-27450001D01*
X13450000Y-26549999D01*
X13451204Y-26525495D01*
X13454804Y-26501227D01*
X13460765Y-26477428D01*
X13469030Y-26454329D01*
X13479520Y-26432150D01*
X13492132Y-26411107D01*
X13506747Y-26391401D01*
X13523223Y-26373223D01*
X13541401Y-26356747D01*
X13561107Y-26342132D01*
X13582150Y-26329520D01*
X13604329Y-26319030D01*
X13627428Y-26310765D01*
X13651227Y-26304804D01*
X13675495Y-26301204D01*
X13699999Y-26300000D01*
X14350001Y-26300000D01*
X14374505Y-26301204D01*
X14374505Y-26301204D01*
G37*
D11*
X14025000Y-27000000D03*
G04 #@! TD*
D10*
G04 #@! TO.C,R33*
G36*
X29574505Y-29051204D02*
X29598773Y-29054804D01*
X29622572Y-29060765D01*
X29645671Y-29069030D01*
X29667850Y-29079520D01*
X29688893Y-29092132D01*
X29708599Y-29106747D01*
X29726777Y-29123223D01*
X29743253Y-29141401D01*
X29757868Y-29161107D01*
X29770480Y-29182150D01*
X29780970Y-29204329D01*
X29789235Y-29227428D01*
X29795196Y-29251227D01*
X29798796Y-29275495D01*
X29800000Y-29299999D01*
X29800000Y-30200001D01*
X29798796Y-30224505D01*
X29795196Y-30248773D01*
X29789235Y-30272572D01*
X29780970Y-30295671D01*
X29770480Y-30317850D01*
X29757868Y-30338893D01*
X29743253Y-30358599D01*
X29726777Y-30376777D01*
X29708599Y-30393253D01*
X29688893Y-30407868D01*
X29667850Y-30420480D01*
X29645671Y-30430970D01*
X29622572Y-30439235D01*
X29598773Y-30445196D01*
X29574505Y-30448796D01*
X29550001Y-30450000D01*
X28899999Y-30450000D01*
X28875495Y-30448796D01*
X28851227Y-30445196D01*
X28827428Y-30439235D01*
X28804329Y-30430970D01*
X28782150Y-30420480D01*
X28761107Y-30407868D01*
X28741401Y-30393253D01*
X28723223Y-30376777D01*
X28706747Y-30358599D01*
X28692132Y-30338893D01*
X28679520Y-30317850D01*
X28669030Y-30295671D01*
X28660765Y-30272572D01*
X28654804Y-30248773D01*
X28651204Y-30224505D01*
X28650000Y-30200001D01*
X28650000Y-29299999D01*
X28651204Y-29275495D01*
X28654804Y-29251227D01*
X28660765Y-29227428D01*
X28669030Y-29204329D01*
X28679520Y-29182150D01*
X28692132Y-29161107D01*
X28706747Y-29141401D01*
X28723223Y-29123223D01*
X28741401Y-29106747D01*
X28761107Y-29092132D01*
X28782150Y-29079520D01*
X28804329Y-29069030D01*
X28827428Y-29060765D01*
X28851227Y-29054804D01*
X28875495Y-29051204D01*
X28899999Y-29050000D01*
X29550001Y-29050000D01*
X29574505Y-29051204D01*
X29574505Y-29051204D01*
G37*
D11*
X29225000Y-29750000D03*
D10*
G36*
X31624505Y-29051204D02*
X31648773Y-29054804D01*
X31672572Y-29060765D01*
X31695671Y-29069030D01*
X31717850Y-29079520D01*
X31738893Y-29092132D01*
X31758599Y-29106747D01*
X31776777Y-29123223D01*
X31793253Y-29141401D01*
X31807868Y-29161107D01*
X31820480Y-29182150D01*
X31830970Y-29204329D01*
X31839235Y-29227428D01*
X31845196Y-29251227D01*
X31848796Y-29275495D01*
X31850000Y-29299999D01*
X31850000Y-30200001D01*
X31848796Y-30224505D01*
X31845196Y-30248773D01*
X31839235Y-30272572D01*
X31830970Y-30295671D01*
X31820480Y-30317850D01*
X31807868Y-30338893D01*
X31793253Y-30358599D01*
X31776777Y-30376777D01*
X31758599Y-30393253D01*
X31738893Y-30407868D01*
X31717850Y-30420480D01*
X31695671Y-30430970D01*
X31672572Y-30439235D01*
X31648773Y-30445196D01*
X31624505Y-30448796D01*
X31600001Y-30450000D01*
X30949999Y-30450000D01*
X30925495Y-30448796D01*
X30901227Y-30445196D01*
X30877428Y-30439235D01*
X30854329Y-30430970D01*
X30832150Y-30420480D01*
X30811107Y-30407868D01*
X30791401Y-30393253D01*
X30773223Y-30376777D01*
X30756747Y-30358599D01*
X30742132Y-30338893D01*
X30729520Y-30317850D01*
X30719030Y-30295671D01*
X30710765Y-30272572D01*
X30704804Y-30248773D01*
X30701204Y-30224505D01*
X30700000Y-30200001D01*
X30700000Y-29299999D01*
X30701204Y-29275495D01*
X30704804Y-29251227D01*
X30710765Y-29227428D01*
X30719030Y-29204329D01*
X30729520Y-29182150D01*
X30742132Y-29161107D01*
X30756747Y-29141401D01*
X30773223Y-29123223D01*
X30791401Y-29106747D01*
X30811107Y-29092132D01*
X30832150Y-29079520D01*
X30854329Y-29069030D01*
X30877428Y-29060765D01*
X30901227Y-29054804D01*
X30925495Y-29051204D01*
X30949999Y-29050000D01*
X31600001Y-29050000D01*
X31624505Y-29051204D01*
X31624505Y-29051204D01*
G37*
D11*
X31275000Y-29750000D03*
G04 #@! TD*
D10*
G04 #@! TO.C,R34*
G36*
X7324505Y-29801204D02*
X7348773Y-29804804D01*
X7372572Y-29810765D01*
X7395671Y-29819030D01*
X7417850Y-29829520D01*
X7438893Y-29842132D01*
X7458599Y-29856747D01*
X7476777Y-29873223D01*
X7493253Y-29891401D01*
X7507868Y-29911107D01*
X7520480Y-29932150D01*
X7530970Y-29954329D01*
X7539235Y-29977428D01*
X7545196Y-30001227D01*
X7548796Y-30025495D01*
X7550000Y-30049999D01*
X7550000Y-30950001D01*
X7548796Y-30974505D01*
X7545196Y-30998773D01*
X7539235Y-31022572D01*
X7530970Y-31045671D01*
X7520480Y-31067850D01*
X7507868Y-31088893D01*
X7493253Y-31108599D01*
X7476777Y-31126777D01*
X7458599Y-31143253D01*
X7438893Y-31157868D01*
X7417850Y-31170480D01*
X7395671Y-31180970D01*
X7372572Y-31189235D01*
X7348773Y-31195196D01*
X7324505Y-31198796D01*
X7300001Y-31200000D01*
X6649999Y-31200000D01*
X6625495Y-31198796D01*
X6601227Y-31195196D01*
X6577428Y-31189235D01*
X6554329Y-31180970D01*
X6532150Y-31170480D01*
X6511107Y-31157868D01*
X6491401Y-31143253D01*
X6473223Y-31126777D01*
X6456747Y-31108599D01*
X6442132Y-31088893D01*
X6429520Y-31067850D01*
X6419030Y-31045671D01*
X6410765Y-31022572D01*
X6404804Y-30998773D01*
X6401204Y-30974505D01*
X6400000Y-30950001D01*
X6400000Y-30049999D01*
X6401204Y-30025495D01*
X6404804Y-30001227D01*
X6410765Y-29977428D01*
X6419030Y-29954329D01*
X6429520Y-29932150D01*
X6442132Y-29911107D01*
X6456747Y-29891401D01*
X6473223Y-29873223D01*
X6491401Y-29856747D01*
X6511107Y-29842132D01*
X6532150Y-29829520D01*
X6554329Y-29819030D01*
X6577428Y-29810765D01*
X6601227Y-29804804D01*
X6625495Y-29801204D01*
X6649999Y-29800000D01*
X7300001Y-29800000D01*
X7324505Y-29801204D01*
X7324505Y-29801204D01*
G37*
D11*
X6975000Y-30500000D03*
D10*
G36*
X9374505Y-29801204D02*
X9398773Y-29804804D01*
X9422572Y-29810765D01*
X9445671Y-29819030D01*
X9467850Y-29829520D01*
X9488893Y-29842132D01*
X9508599Y-29856747D01*
X9526777Y-29873223D01*
X9543253Y-29891401D01*
X9557868Y-29911107D01*
X9570480Y-29932150D01*
X9580970Y-29954329D01*
X9589235Y-29977428D01*
X9595196Y-30001227D01*
X9598796Y-30025495D01*
X9600000Y-30049999D01*
X9600000Y-30950001D01*
X9598796Y-30974505D01*
X9595196Y-30998773D01*
X9589235Y-31022572D01*
X9580970Y-31045671D01*
X9570480Y-31067850D01*
X9557868Y-31088893D01*
X9543253Y-31108599D01*
X9526777Y-31126777D01*
X9508599Y-31143253D01*
X9488893Y-31157868D01*
X9467850Y-31170480D01*
X9445671Y-31180970D01*
X9422572Y-31189235D01*
X9398773Y-31195196D01*
X9374505Y-31198796D01*
X9350001Y-31200000D01*
X8699999Y-31200000D01*
X8675495Y-31198796D01*
X8651227Y-31195196D01*
X8627428Y-31189235D01*
X8604329Y-31180970D01*
X8582150Y-31170480D01*
X8561107Y-31157868D01*
X8541401Y-31143253D01*
X8523223Y-31126777D01*
X8506747Y-31108599D01*
X8492132Y-31088893D01*
X8479520Y-31067850D01*
X8469030Y-31045671D01*
X8460765Y-31022572D01*
X8454804Y-30998773D01*
X8451204Y-30974505D01*
X8450000Y-30950001D01*
X8450000Y-30049999D01*
X8451204Y-30025495D01*
X8454804Y-30001227D01*
X8460765Y-29977428D01*
X8469030Y-29954329D01*
X8479520Y-29932150D01*
X8492132Y-29911107D01*
X8506747Y-29891401D01*
X8523223Y-29873223D01*
X8541401Y-29856747D01*
X8561107Y-29842132D01*
X8582150Y-29829520D01*
X8604329Y-29819030D01*
X8627428Y-29810765D01*
X8651227Y-29804804D01*
X8675495Y-29801204D01*
X8699999Y-29800000D01*
X9350001Y-29800000D01*
X9374505Y-29801204D01*
X9374505Y-29801204D01*
G37*
D11*
X9025000Y-30500000D03*
G04 #@! TD*
D10*
G04 #@! TO.C,R35*
G36*
X12324505Y-29801204D02*
X12348773Y-29804804D01*
X12372572Y-29810765D01*
X12395671Y-29819030D01*
X12417850Y-29829520D01*
X12438893Y-29842132D01*
X12458599Y-29856747D01*
X12476777Y-29873223D01*
X12493253Y-29891401D01*
X12507868Y-29911107D01*
X12520480Y-29932150D01*
X12530970Y-29954329D01*
X12539235Y-29977428D01*
X12545196Y-30001227D01*
X12548796Y-30025495D01*
X12550000Y-30049999D01*
X12550000Y-30950001D01*
X12548796Y-30974505D01*
X12545196Y-30998773D01*
X12539235Y-31022572D01*
X12530970Y-31045671D01*
X12520480Y-31067850D01*
X12507868Y-31088893D01*
X12493253Y-31108599D01*
X12476777Y-31126777D01*
X12458599Y-31143253D01*
X12438893Y-31157868D01*
X12417850Y-31170480D01*
X12395671Y-31180970D01*
X12372572Y-31189235D01*
X12348773Y-31195196D01*
X12324505Y-31198796D01*
X12300001Y-31200000D01*
X11649999Y-31200000D01*
X11625495Y-31198796D01*
X11601227Y-31195196D01*
X11577428Y-31189235D01*
X11554329Y-31180970D01*
X11532150Y-31170480D01*
X11511107Y-31157868D01*
X11491401Y-31143253D01*
X11473223Y-31126777D01*
X11456747Y-31108599D01*
X11442132Y-31088893D01*
X11429520Y-31067850D01*
X11419030Y-31045671D01*
X11410765Y-31022572D01*
X11404804Y-30998773D01*
X11401204Y-30974505D01*
X11400000Y-30950001D01*
X11400000Y-30049999D01*
X11401204Y-30025495D01*
X11404804Y-30001227D01*
X11410765Y-29977428D01*
X11419030Y-29954329D01*
X11429520Y-29932150D01*
X11442132Y-29911107D01*
X11456747Y-29891401D01*
X11473223Y-29873223D01*
X11491401Y-29856747D01*
X11511107Y-29842132D01*
X11532150Y-29829520D01*
X11554329Y-29819030D01*
X11577428Y-29810765D01*
X11601227Y-29804804D01*
X11625495Y-29801204D01*
X11649999Y-29800000D01*
X12300001Y-29800000D01*
X12324505Y-29801204D01*
X12324505Y-29801204D01*
G37*
D11*
X11975000Y-30500000D03*
D10*
G36*
X14374505Y-29801204D02*
X14398773Y-29804804D01*
X14422572Y-29810765D01*
X14445671Y-29819030D01*
X14467850Y-29829520D01*
X14488893Y-29842132D01*
X14508599Y-29856747D01*
X14526777Y-29873223D01*
X14543253Y-29891401D01*
X14557868Y-29911107D01*
X14570480Y-29932150D01*
X14580970Y-29954329D01*
X14589235Y-29977428D01*
X14595196Y-30001227D01*
X14598796Y-30025495D01*
X14600000Y-30049999D01*
X14600000Y-30950001D01*
X14598796Y-30974505D01*
X14595196Y-30998773D01*
X14589235Y-31022572D01*
X14580970Y-31045671D01*
X14570480Y-31067850D01*
X14557868Y-31088893D01*
X14543253Y-31108599D01*
X14526777Y-31126777D01*
X14508599Y-31143253D01*
X14488893Y-31157868D01*
X14467850Y-31170480D01*
X14445671Y-31180970D01*
X14422572Y-31189235D01*
X14398773Y-31195196D01*
X14374505Y-31198796D01*
X14350001Y-31200000D01*
X13699999Y-31200000D01*
X13675495Y-31198796D01*
X13651227Y-31195196D01*
X13627428Y-31189235D01*
X13604329Y-31180970D01*
X13582150Y-31170480D01*
X13561107Y-31157868D01*
X13541401Y-31143253D01*
X13523223Y-31126777D01*
X13506747Y-31108599D01*
X13492132Y-31088893D01*
X13479520Y-31067850D01*
X13469030Y-31045671D01*
X13460765Y-31022572D01*
X13454804Y-30998773D01*
X13451204Y-30974505D01*
X13450000Y-30950001D01*
X13450000Y-30049999D01*
X13451204Y-30025495D01*
X13454804Y-30001227D01*
X13460765Y-29977428D01*
X13469030Y-29954329D01*
X13479520Y-29932150D01*
X13492132Y-29911107D01*
X13506747Y-29891401D01*
X13523223Y-29873223D01*
X13541401Y-29856747D01*
X13561107Y-29842132D01*
X13582150Y-29829520D01*
X13604329Y-29819030D01*
X13627428Y-29810765D01*
X13651227Y-29804804D01*
X13675495Y-29801204D01*
X13699999Y-29800000D01*
X14350001Y-29800000D01*
X14374505Y-29801204D01*
X14374505Y-29801204D01*
G37*
D11*
X14025000Y-30500000D03*
G04 #@! TD*
D10*
G04 #@! TO.C,R40*
G36*
X19349505Y-82801204D02*
X19373773Y-82804804D01*
X19397572Y-82810765D01*
X19420671Y-82819030D01*
X19442850Y-82829520D01*
X19463893Y-82842132D01*
X19483599Y-82856747D01*
X19501777Y-82873223D01*
X19518253Y-82891401D01*
X19532868Y-82911107D01*
X19545480Y-82932150D01*
X19555970Y-82954329D01*
X19564235Y-82977428D01*
X19570196Y-83001227D01*
X19573796Y-83025495D01*
X19575000Y-83049999D01*
X19575000Y-83950001D01*
X19573796Y-83974505D01*
X19570196Y-83998773D01*
X19564235Y-84022572D01*
X19555970Y-84045671D01*
X19545480Y-84067850D01*
X19532868Y-84088893D01*
X19518253Y-84108599D01*
X19501777Y-84126777D01*
X19483599Y-84143253D01*
X19463893Y-84157868D01*
X19442850Y-84170480D01*
X19420671Y-84180970D01*
X19397572Y-84189235D01*
X19373773Y-84195196D01*
X19349505Y-84198796D01*
X19325001Y-84200000D01*
X18674999Y-84200000D01*
X18650495Y-84198796D01*
X18626227Y-84195196D01*
X18602428Y-84189235D01*
X18579329Y-84180970D01*
X18557150Y-84170480D01*
X18536107Y-84157868D01*
X18516401Y-84143253D01*
X18498223Y-84126777D01*
X18481747Y-84108599D01*
X18467132Y-84088893D01*
X18454520Y-84067850D01*
X18444030Y-84045671D01*
X18435765Y-84022572D01*
X18429804Y-83998773D01*
X18426204Y-83974505D01*
X18425000Y-83950001D01*
X18425000Y-83049999D01*
X18426204Y-83025495D01*
X18429804Y-83001227D01*
X18435765Y-82977428D01*
X18444030Y-82954329D01*
X18454520Y-82932150D01*
X18467132Y-82911107D01*
X18481747Y-82891401D01*
X18498223Y-82873223D01*
X18516401Y-82856747D01*
X18536107Y-82842132D01*
X18557150Y-82829520D01*
X18579329Y-82819030D01*
X18602428Y-82810765D01*
X18626227Y-82804804D01*
X18650495Y-82801204D01*
X18674999Y-82800000D01*
X19325001Y-82800000D01*
X19349505Y-82801204D01*
X19349505Y-82801204D01*
G37*
D11*
X19000000Y-83500000D03*
D10*
G36*
X21399505Y-82801204D02*
X21423773Y-82804804D01*
X21447572Y-82810765D01*
X21470671Y-82819030D01*
X21492850Y-82829520D01*
X21513893Y-82842132D01*
X21533599Y-82856747D01*
X21551777Y-82873223D01*
X21568253Y-82891401D01*
X21582868Y-82911107D01*
X21595480Y-82932150D01*
X21605970Y-82954329D01*
X21614235Y-82977428D01*
X21620196Y-83001227D01*
X21623796Y-83025495D01*
X21625000Y-83049999D01*
X21625000Y-83950001D01*
X21623796Y-83974505D01*
X21620196Y-83998773D01*
X21614235Y-84022572D01*
X21605970Y-84045671D01*
X21595480Y-84067850D01*
X21582868Y-84088893D01*
X21568253Y-84108599D01*
X21551777Y-84126777D01*
X21533599Y-84143253D01*
X21513893Y-84157868D01*
X21492850Y-84170480D01*
X21470671Y-84180970D01*
X21447572Y-84189235D01*
X21423773Y-84195196D01*
X21399505Y-84198796D01*
X21375001Y-84200000D01*
X20724999Y-84200000D01*
X20700495Y-84198796D01*
X20676227Y-84195196D01*
X20652428Y-84189235D01*
X20629329Y-84180970D01*
X20607150Y-84170480D01*
X20586107Y-84157868D01*
X20566401Y-84143253D01*
X20548223Y-84126777D01*
X20531747Y-84108599D01*
X20517132Y-84088893D01*
X20504520Y-84067850D01*
X20494030Y-84045671D01*
X20485765Y-84022572D01*
X20479804Y-83998773D01*
X20476204Y-83974505D01*
X20475000Y-83950001D01*
X20475000Y-83049999D01*
X20476204Y-83025495D01*
X20479804Y-83001227D01*
X20485765Y-82977428D01*
X20494030Y-82954329D01*
X20504520Y-82932150D01*
X20517132Y-82911107D01*
X20531747Y-82891401D01*
X20548223Y-82873223D01*
X20566401Y-82856747D01*
X20586107Y-82842132D01*
X20607150Y-82829520D01*
X20629329Y-82819030D01*
X20652428Y-82810765D01*
X20676227Y-82804804D01*
X20700495Y-82801204D01*
X20724999Y-82800000D01*
X21375001Y-82800000D01*
X21399505Y-82801204D01*
X21399505Y-82801204D01*
G37*
D11*
X21050000Y-83500000D03*
G04 #@! TD*
D10*
G04 #@! TO.C,R41*
G36*
X24074505Y-82801204D02*
X24098773Y-82804804D01*
X24122572Y-82810765D01*
X24145671Y-82819030D01*
X24167850Y-82829520D01*
X24188893Y-82842132D01*
X24208599Y-82856747D01*
X24226777Y-82873223D01*
X24243253Y-82891401D01*
X24257868Y-82911107D01*
X24270480Y-82932150D01*
X24280970Y-82954329D01*
X24289235Y-82977428D01*
X24295196Y-83001227D01*
X24298796Y-83025495D01*
X24300000Y-83049999D01*
X24300000Y-83950001D01*
X24298796Y-83974505D01*
X24295196Y-83998773D01*
X24289235Y-84022572D01*
X24280970Y-84045671D01*
X24270480Y-84067850D01*
X24257868Y-84088893D01*
X24243253Y-84108599D01*
X24226777Y-84126777D01*
X24208599Y-84143253D01*
X24188893Y-84157868D01*
X24167850Y-84170480D01*
X24145671Y-84180970D01*
X24122572Y-84189235D01*
X24098773Y-84195196D01*
X24074505Y-84198796D01*
X24050001Y-84200000D01*
X23399999Y-84200000D01*
X23375495Y-84198796D01*
X23351227Y-84195196D01*
X23327428Y-84189235D01*
X23304329Y-84180970D01*
X23282150Y-84170480D01*
X23261107Y-84157868D01*
X23241401Y-84143253D01*
X23223223Y-84126777D01*
X23206747Y-84108599D01*
X23192132Y-84088893D01*
X23179520Y-84067850D01*
X23169030Y-84045671D01*
X23160765Y-84022572D01*
X23154804Y-83998773D01*
X23151204Y-83974505D01*
X23150000Y-83950001D01*
X23150000Y-83049999D01*
X23151204Y-83025495D01*
X23154804Y-83001227D01*
X23160765Y-82977428D01*
X23169030Y-82954329D01*
X23179520Y-82932150D01*
X23192132Y-82911107D01*
X23206747Y-82891401D01*
X23223223Y-82873223D01*
X23241401Y-82856747D01*
X23261107Y-82842132D01*
X23282150Y-82829520D01*
X23304329Y-82819030D01*
X23327428Y-82810765D01*
X23351227Y-82804804D01*
X23375495Y-82801204D01*
X23399999Y-82800000D01*
X24050001Y-82800000D01*
X24074505Y-82801204D01*
X24074505Y-82801204D01*
G37*
D11*
X23725000Y-83500000D03*
D10*
G36*
X26124505Y-82801204D02*
X26148773Y-82804804D01*
X26172572Y-82810765D01*
X26195671Y-82819030D01*
X26217850Y-82829520D01*
X26238893Y-82842132D01*
X26258599Y-82856747D01*
X26276777Y-82873223D01*
X26293253Y-82891401D01*
X26307868Y-82911107D01*
X26320480Y-82932150D01*
X26330970Y-82954329D01*
X26339235Y-82977428D01*
X26345196Y-83001227D01*
X26348796Y-83025495D01*
X26350000Y-83049999D01*
X26350000Y-83950001D01*
X26348796Y-83974505D01*
X26345196Y-83998773D01*
X26339235Y-84022572D01*
X26330970Y-84045671D01*
X26320480Y-84067850D01*
X26307868Y-84088893D01*
X26293253Y-84108599D01*
X26276777Y-84126777D01*
X26258599Y-84143253D01*
X26238893Y-84157868D01*
X26217850Y-84170480D01*
X26195671Y-84180970D01*
X26172572Y-84189235D01*
X26148773Y-84195196D01*
X26124505Y-84198796D01*
X26100001Y-84200000D01*
X25449999Y-84200000D01*
X25425495Y-84198796D01*
X25401227Y-84195196D01*
X25377428Y-84189235D01*
X25354329Y-84180970D01*
X25332150Y-84170480D01*
X25311107Y-84157868D01*
X25291401Y-84143253D01*
X25273223Y-84126777D01*
X25256747Y-84108599D01*
X25242132Y-84088893D01*
X25229520Y-84067850D01*
X25219030Y-84045671D01*
X25210765Y-84022572D01*
X25204804Y-83998773D01*
X25201204Y-83974505D01*
X25200000Y-83950001D01*
X25200000Y-83049999D01*
X25201204Y-83025495D01*
X25204804Y-83001227D01*
X25210765Y-82977428D01*
X25219030Y-82954329D01*
X25229520Y-82932150D01*
X25242132Y-82911107D01*
X25256747Y-82891401D01*
X25273223Y-82873223D01*
X25291401Y-82856747D01*
X25311107Y-82842132D01*
X25332150Y-82829520D01*
X25354329Y-82819030D01*
X25377428Y-82810765D01*
X25401227Y-82804804D01*
X25425495Y-82801204D01*
X25449999Y-82800000D01*
X26100001Y-82800000D01*
X26124505Y-82801204D01*
X26124505Y-82801204D01*
G37*
D11*
X25775000Y-83500000D03*
G04 #@! TD*
D10*
G04 #@! TO.C,R42*
G36*
X30874505Y-82801204D02*
X30898773Y-82804804D01*
X30922572Y-82810765D01*
X30945671Y-82819030D01*
X30967850Y-82829520D01*
X30988893Y-82842132D01*
X31008599Y-82856747D01*
X31026777Y-82873223D01*
X31043253Y-82891401D01*
X31057868Y-82911107D01*
X31070480Y-82932150D01*
X31080970Y-82954329D01*
X31089235Y-82977428D01*
X31095196Y-83001227D01*
X31098796Y-83025495D01*
X31100000Y-83049999D01*
X31100000Y-83950001D01*
X31098796Y-83974505D01*
X31095196Y-83998773D01*
X31089235Y-84022572D01*
X31080970Y-84045671D01*
X31070480Y-84067850D01*
X31057868Y-84088893D01*
X31043253Y-84108599D01*
X31026777Y-84126777D01*
X31008599Y-84143253D01*
X30988893Y-84157868D01*
X30967850Y-84170480D01*
X30945671Y-84180970D01*
X30922572Y-84189235D01*
X30898773Y-84195196D01*
X30874505Y-84198796D01*
X30850001Y-84200000D01*
X30199999Y-84200000D01*
X30175495Y-84198796D01*
X30151227Y-84195196D01*
X30127428Y-84189235D01*
X30104329Y-84180970D01*
X30082150Y-84170480D01*
X30061107Y-84157868D01*
X30041401Y-84143253D01*
X30023223Y-84126777D01*
X30006747Y-84108599D01*
X29992132Y-84088893D01*
X29979520Y-84067850D01*
X29969030Y-84045671D01*
X29960765Y-84022572D01*
X29954804Y-83998773D01*
X29951204Y-83974505D01*
X29950000Y-83950001D01*
X29950000Y-83049999D01*
X29951204Y-83025495D01*
X29954804Y-83001227D01*
X29960765Y-82977428D01*
X29969030Y-82954329D01*
X29979520Y-82932150D01*
X29992132Y-82911107D01*
X30006747Y-82891401D01*
X30023223Y-82873223D01*
X30041401Y-82856747D01*
X30061107Y-82842132D01*
X30082150Y-82829520D01*
X30104329Y-82819030D01*
X30127428Y-82810765D01*
X30151227Y-82804804D01*
X30175495Y-82801204D01*
X30199999Y-82800000D01*
X30850001Y-82800000D01*
X30874505Y-82801204D01*
X30874505Y-82801204D01*
G37*
D11*
X30525000Y-83500000D03*
D10*
G36*
X28824505Y-82801204D02*
X28848773Y-82804804D01*
X28872572Y-82810765D01*
X28895671Y-82819030D01*
X28917850Y-82829520D01*
X28938893Y-82842132D01*
X28958599Y-82856747D01*
X28976777Y-82873223D01*
X28993253Y-82891401D01*
X29007868Y-82911107D01*
X29020480Y-82932150D01*
X29030970Y-82954329D01*
X29039235Y-82977428D01*
X29045196Y-83001227D01*
X29048796Y-83025495D01*
X29050000Y-83049999D01*
X29050000Y-83950001D01*
X29048796Y-83974505D01*
X29045196Y-83998773D01*
X29039235Y-84022572D01*
X29030970Y-84045671D01*
X29020480Y-84067850D01*
X29007868Y-84088893D01*
X28993253Y-84108599D01*
X28976777Y-84126777D01*
X28958599Y-84143253D01*
X28938893Y-84157868D01*
X28917850Y-84170480D01*
X28895671Y-84180970D01*
X28872572Y-84189235D01*
X28848773Y-84195196D01*
X28824505Y-84198796D01*
X28800001Y-84200000D01*
X28149999Y-84200000D01*
X28125495Y-84198796D01*
X28101227Y-84195196D01*
X28077428Y-84189235D01*
X28054329Y-84180970D01*
X28032150Y-84170480D01*
X28011107Y-84157868D01*
X27991401Y-84143253D01*
X27973223Y-84126777D01*
X27956747Y-84108599D01*
X27942132Y-84088893D01*
X27929520Y-84067850D01*
X27919030Y-84045671D01*
X27910765Y-84022572D01*
X27904804Y-83998773D01*
X27901204Y-83974505D01*
X27900000Y-83950001D01*
X27900000Y-83049999D01*
X27901204Y-83025495D01*
X27904804Y-83001227D01*
X27910765Y-82977428D01*
X27919030Y-82954329D01*
X27929520Y-82932150D01*
X27942132Y-82911107D01*
X27956747Y-82891401D01*
X27973223Y-82873223D01*
X27991401Y-82856747D01*
X28011107Y-82842132D01*
X28032150Y-82829520D01*
X28054329Y-82819030D01*
X28077428Y-82810765D01*
X28101227Y-82804804D01*
X28125495Y-82801204D01*
X28149999Y-82800000D01*
X28800001Y-82800000D01*
X28824505Y-82801204D01*
X28824505Y-82801204D01*
G37*
D11*
X28475000Y-83500000D03*
G04 #@! TD*
D10*
G04 #@! TO.C,R43*
G36*
X19349505Y-86301204D02*
X19373773Y-86304804D01*
X19397572Y-86310765D01*
X19420671Y-86319030D01*
X19442850Y-86329520D01*
X19463893Y-86342132D01*
X19483599Y-86356747D01*
X19501777Y-86373223D01*
X19518253Y-86391401D01*
X19532868Y-86411107D01*
X19545480Y-86432150D01*
X19555970Y-86454329D01*
X19564235Y-86477428D01*
X19570196Y-86501227D01*
X19573796Y-86525495D01*
X19575000Y-86549999D01*
X19575000Y-87450001D01*
X19573796Y-87474505D01*
X19570196Y-87498773D01*
X19564235Y-87522572D01*
X19555970Y-87545671D01*
X19545480Y-87567850D01*
X19532868Y-87588893D01*
X19518253Y-87608599D01*
X19501777Y-87626777D01*
X19483599Y-87643253D01*
X19463893Y-87657868D01*
X19442850Y-87670480D01*
X19420671Y-87680970D01*
X19397572Y-87689235D01*
X19373773Y-87695196D01*
X19349505Y-87698796D01*
X19325001Y-87700000D01*
X18674999Y-87700000D01*
X18650495Y-87698796D01*
X18626227Y-87695196D01*
X18602428Y-87689235D01*
X18579329Y-87680970D01*
X18557150Y-87670480D01*
X18536107Y-87657868D01*
X18516401Y-87643253D01*
X18498223Y-87626777D01*
X18481747Y-87608599D01*
X18467132Y-87588893D01*
X18454520Y-87567850D01*
X18444030Y-87545671D01*
X18435765Y-87522572D01*
X18429804Y-87498773D01*
X18426204Y-87474505D01*
X18425000Y-87450001D01*
X18425000Y-86549999D01*
X18426204Y-86525495D01*
X18429804Y-86501227D01*
X18435765Y-86477428D01*
X18444030Y-86454329D01*
X18454520Y-86432150D01*
X18467132Y-86411107D01*
X18481747Y-86391401D01*
X18498223Y-86373223D01*
X18516401Y-86356747D01*
X18536107Y-86342132D01*
X18557150Y-86329520D01*
X18579329Y-86319030D01*
X18602428Y-86310765D01*
X18626227Y-86304804D01*
X18650495Y-86301204D01*
X18674999Y-86300000D01*
X19325001Y-86300000D01*
X19349505Y-86301204D01*
X19349505Y-86301204D01*
G37*
D11*
X19000000Y-87000000D03*
D10*
G36*
X21399505Y-86301204D02*
X21423773Y-86304804D01*
X21447572Y-86310765D01*
X21470671Y-86319030D01*
X21492850Y-86329520D01*
X21513893Y-86342132D01*
X21533599Y-86356747D01*
X21551777Y-86373223D01*
X21568253Y-86391401D01*
X21582868Y-86411107D01*
X21595480Y-86432150D01*
X21605970Y-86454329D01*
X21614235Y-86477428D01*
X21620196Y-86501227D01*
X21623796Y-86525495D01*
X21625000Y-86549999D01*
X21625000Y-87450001D01*
X21623796Y-87474505D01*
X21620196Y-87498773D01*
X21614235Y-87522572D01*
X21605970Y-87545671D01*
X21595480Y-87567850D01*
X21582868Y-87588893D01*
X21568253Y-87608599D01*
X21551777Y-87626777D01*
X21533599Y-87643253D01*
X21513893Y-87657868D01*
X21492850Y-87670480D01*
X21470671Y-87680970D01*
X21447572Y-87689235D01*
X21423773Y-87695196D01*
X21399505Y-87698796D01*
X21375001Y-87700000D01*
X20724999Y-87700000D01*
X20700495Y-87698796D01*
X20676227Y-87695196D01*
X20652428Y-87689235D01*
X20629329Y-87680970D01*
X20607150Y-87670480D01*
X20586107Y-87657868D01*
X20566401Y-87643253D01*
X20548223Y-87626777D01*
X20531747Y-87608599D01*
X20517132Y-87588893D01*
X20504520Y-87567850D01*
X20494030Y-87545671D01*
X20485765Y-87522572D01*
X20479804Y-87498773D01*
X20476204Y-87474505D01*
X20475000Y-87450001D01*
X20475000Y-86549999D01*
X20476204Y-86525495D01*
X20479804Y-86501227D01*
X20485765Y-86477428D01*
X20494030Y-86454329D01*
X20504520Y-86432150D01*
X20517132Y-86411107D01*
X20531747Y-86391401D01*
X20548223Y-86373223D01*
X20566401Y-86356747D01*
X20586107Y-86342132D01*
X20607150Y-86329520D01*
X20629329Y-86319030D01*
X20652428Y-86310765D01*
X20676227Y-86304804D01*
X20700495Y-86301204D01*
X20724999Y-86300000D01*
X21375001Y-86300000D01*
X21399505Y-86301204D01*
X21399505Y-86301204D01*
G37*
D11*
X21050000Y-87000000D03*
G04 #@! TD*
D10*
G04 #@! TO.C,R14*
G36*
X5624505Y-58051204D02*
X5648773Y-58054804D01*
X5672572Y-58060765D01*
X5695671Y-58069030D01*
X5717850Y-58079520D01*
X5738893Y-58092132D01*
X5758599Y-58106747D01*
X5776777Y-58123223D01*
X5793253Y-58141401D01*
X5807868Y-58161107D01*
X5820480Y-58182150D01*
X5830970Y-58204329D01*
X5839235Y-58227428D01*
X5845196Y-58251227D01*
X5848796Y-58275495D01*
X5850000Y-58299999D01*
X5850000Y-59200001D01*
X5848796Y-59224505D01*
X5845196Y-59248773D01*
X5839235Y-59272572D01*
X5830970Y-59295671D01*
X5820480Y-59317850D01*
X5807868Y-59338893D01*
X5793253Y-59358599D01*
X5776777Y-59376777D01*
X5758599Y-59393253D01*
X5738893Y-59407868D01*
X5717850Y-59420480D01*
X5695671Y-59430970D01*
X5672572Y-59439235D01*
X5648773Y-59445196D01*
X5624505Y-59448796D01*
X5600001Y-59450000D01*
X4949999Y-59450000D01*
X4925495Y-59448796D01*
X4901227Y-59445196D01*
X4877428Y-59439235D01*
X4854329Y-59430970D01*
X4832150Y-59420480D01*
X4811107Y-59407868D01*
X4791401Y-59393253D01*
X4773223Y-59376777D01*
X4756747Y-59358599D01*
X4742132Y-59338893D01*
X4729520Y-59317850D01*
X4719030Y-59295671D01*
X4710765Y-59272572D01*
X4704804Y-59248773D01*
X4701204Y-59224505D01*
X4700000Y-59200001D01*
X4700000Y-58299999D01*
X4701204Y-58275495D01*
X4704804Y-58251227D01*
X4710765Y-58227428D01*
X4719030Y-58204329D01*
X4729520Y-58182150D01*
X4742132Y-58161107D01*
X4756747Y-58141401D01*
X4773223Y-58123223D01*
X4791401Y-58106747D01*
X4811107Y-58092132D01*
X4832150Y-58079520D01*
X4854329Y-58069030D01*
X4877428Y-58060765D01*
X4901227Y-58054804D01*
X4925495Y-58051204D01*
X4949999Y-58050000D01*
X5600001Y-58050000D01*
X5624505Y-58051204D01*
X5624505Y-58051204D01*
G37*
D11*
X5275000Y-58750000D03*
D10*
G36*
X3574505Y-58051204D02*
X3598773Y-58054804D01*
X3622572Y-58060765D01*
X3645671Y-58069030D01*
X3667850Y-58079520D01*
X3688893Y-58092132D01*
X3708599Y-58106747D01*
X3726777Y-58123223D01*
X3743253Y-58141401D01*
X3757868Y-58161107D01*
X3770480Y-58182150D01*
X3780970Y-58204329D01*
X3789235Y-58227428D01*
X3795196Y-58251227D01*
X3798796Y-58275495D01*
X3800000Y-58299999D01*
X3800000Y-59200001D01*
X3798796Y-59224505D01*
X3795196Y-59248773D01*
X3789235Y-59272572D01*
X3780970Y-59295671D01*
X3770480Y-59317850D01*
X3757868Y-59338893D01*
X3743253Y-59358599D01*
X3726777Y-59376777D01*
X3708599Y-59393253D01*
X3688893Y-59407868D01*
X3667850Y-59420480D01*
X3645671Y-59430970D01*
X3622572Y-59439235D01*
X3598773Y-59445196D01*
X3574505Y-59448796D01*
X3550001Y-59450000D01*
X2899999Y-59450000D01*
X2875495Y-59448796D01*
X2851227Y-59445196D01*
X2827428Y-59439235D01*
X2804329Y-59430970D01*
X2782150Y-59420480D01*
X2761107Y-59407868D01*
X2741401Y-59393253D01*
X2723223Y-59376777D01*
X2706747Y-59358599D01*
X2692132Y-59338893D01*
X2679520Y-59317850D01*
X2669030Y-59295671D01*
X2660765Y-59272572D01*
X2654804Y-59248773D01*
X2651204Y-59224505D01*
X2650000Y-59200001D01*
X2650000Y-58299999D01*
X2651204Y-58275495D01*
X2654804Y-58251227D01*
X2660765Y-58227428D01*
X2669030Y-58204329D01*
X2679520Y-58182150D01*
X2692132Y-58161107D01*
X2706747Y-58141401D01*
X2723223Y-58123223D01*
X2741401Y-58106747D01*
X2761107Y-58092132D01*
X2782150Y-58079520D01*
X2804329Y-58069030D01*
X2827428Y-58060765D01*
X2851227Y-58054804D01*
X2875495Y-58051204D01*
X2899999Y-58050000D01*
X3550001Y-58050000D01*
X3574505Y-58051204D01*
X3574505Y-58051204D01*
G37*
D11*
X3225000Y-58750000D03*
G04 #@! TD*
D10*
G04 #@! TO.C,R45*
G36*
X20124505Y-44051204D02*
X20148773Y-44054804D01*
X20172572Y-44060765D01*
X20195671Y-44069030D01*
X20217850Y-44079520D01*
X20238893Y-44092132D01*
X20258599Y-44106747D01*
X20276777Y-44123223D01*
X20293253Y-44141401D01*
X20307868Y-44161107D01*
X20320480Y-44182150D01*
X20330970Y-44204329D01*
X20339235Y-44227428D01*
X20345196Y-44251227D01*
X20348796Y-44275495D01*
X20350000Y-44299999D01*
X20350000Y-45200001D01*
X20348796Y-45224505D01*
X20345196Y-45248773D01*
X20339235Y-45272572D01*
X20330970Y-45295671D01*
X20320480Y-45317850D01*
X20307868Y-45338893D01*
X20293253Y-45358599D01*
X20276777Y-45376777D01*
X20258599Y-45393253D01*
X20238893Y-45407868D01*
X20217850Y-45420480D01*
X20195671Y-45430970D01*
X20172572Y-45439235D01*
X20148773Y-45445196D01*
X20124505Y-45448796D01*
X20100001Y-45450000D01*
X19449999Y-45450000D01*
X19425495Y-45448796D01*
X19401227Y-45445196D01*
X19377428Y-45439235D01*
X19354329Y-45430970D01*
X19332150Y-45420480D01*
X19311107Y-45407868D01*
X19291401Y-45393253D01*
X19273223Y-45376777D01*
X19256747Y-45358599D01*
X19242132Y-45338893D01*
X19229520Y-45317850D01*
X19219030Y-45295671D01*
X19210765Y-45272572D01*
X19204804Y-45248773D01*
X19201204Y-45224505D01*
X19200000Y-45200001D01*
X19200000Y-44299999D01*
X19201204Y-44275495D01*
X19204804Y-44251227D01*
X19210765Y-44227428D01*
X19219030Y-44204329D01*
X19229520Y-44182150D01*
X19242132Y-44161107D01*
X19256747Y-44141401D01*
X19273223Y-44123223D01*
X19291401Y-44106747D01*
X19311107Y-44092132D01*
X19332150Y-44079520D01*
X19354329Y-44069030D01*
X19377428Y-44060765D01*
X19401227Y-44054804D01*
X19425495Y-44051204D01*
X19449999Y-44050000D01*
X20100001Y-44050000D01*
X20124505Y-44051204D01*
X20124505Y-44051204D01*
G37*
D11*
X19775000Y-44750000D03*
D10*
G36*
X18074505Y-44051204D02*
X18098773Y-44054804D01*
X18122572Y-44060765D01*
X18145671Y-44069030D01*
X18167850Y-44079520D01*
X18188893Y-44092132D01*
X18208599Y-44106747D01*
X18226777Y-44123223D01*
X18243253Y-44141401D01*
X18257868Y-44161107D01*
X18270480Y-44182150D01*
X18280970Y-44204329D01*
X18289235Y-44227428D01*
X18295196Y-44251227D01*
X18298796Y-44275495D01*
X18300000Y-44299999D01*
X18300000Y-45200001D01*
X18298796Y-45224505D01*
X18295196Y-45248773D01*
X18289235Y-45272572D01*
X18280970Y-45295671D01*
X18270480Y-45317850D01*
X18257868Y-45338893D01*
X18243253Y-45358599D01*
X18226777Y-45376777D01*
X18208599Y-45393253D01*
X18188893Y-45407868D01*
X18167850Y-45420480D01*
X18145671Y-45430970D01*
X18122572Y-45439235D01*
X18098773Y-45445196D01*
X18074505Y-45448796D01*
X18050001Y-45450000D01*
X17399999Y-45450000D01*
X17375495Y-45448796D01*
X17351227Y-45445196D01*
X17327428Y-45439235D01*
X17304329Y-45430970D01*
X17282150Y-45420480D01*
X17261107Y-45407868D01*
X17241401Y-45393253D01*
X17223223Y-45376777D01*
X17206747Y-45358599D01*
X17192132Y-45338893D01*
X17179520Y-45317850D01*
X17169030Y-45295671D01*
X17160765Y-45272572D01*
X17154804Y-45248773D01*
X17151204Y-45224505D01*
X17150000Y-45200001D01*
X17150000Y-44299999D01*
X17151204Y-44275495D01*
X17154804Y-44251227D01*
X17160765Y-44227428D01*
X17169030Y-44204329D01*
X17179520Y-44182150D01*
X17192132Y-44161107D01*
X17206747Y-44141401D01*
X17223223Y-44123223D01*
X17241401Y-44106747D01*
X17261107Y-44092132D01*
X17282150Y-44079520D01*
X17304329Y-44069030D01*
X17327428Y-44060765D01*
X17351227Y-44054804D01*
X17375495Y-44051204D01*
X17399999Y-44050000D01*
X18050001Y-44050000D01*
X18074505Y-44051204D01*
X18074505Y-44051204D01*
G37*
D11*
X17725000Y-44750000D03*
G04 #@! TD*
D10*
G04 #@! TO.C,R46*
G36*
X24074505Y-86301204D02*
X24098773Y-86304804D01*
X24122572Y-86310765D01*
X24145671Y-86319030D01*
X24167850Y-86329520D01*
X24188893Y-86342132D01*
X24208599Y-86356747D01*
X24226777Y-86373223D01*
X24243253Y-86391401D01*
X24257868Y-86411107D01*
X24270480Y-86432150D01*
X24280970Y-86454329D01*
X24289235Y-86477428D01*
X24295196Y-86501227D01*
X24298796Y-86525495D01*
X24300000Y-86549999D01*
X24300000Y-87450001D01*
X24298796Y-87474505D01*
X24295196Y-87498773D01*
X24289235Y-87522572D01*
X24280970Y-87545671D01*
X24270480Y-87567850D01*
X24257868Y-87588893D01*
X24243253Y-87608599D01*
X24226777Y-87626777D01*
X24208599Y-87643253D01*
X24188893Y-87657868D01*
X24167850Y-87670480D01*
X24145671Y-87680970D01*
X24122572Y-87689235D01*
X24098773Y-87695196D01*
X24074505Y-87698796D01*
X24050001Y-87700000D01*
X23399999Y-87700000D01*
X23375495Y-87698796D01*
X23351227Y-87695196D01*
X23327428Y-87689235D01*
X23304329Y-87680970D01*
X23282150Y-87670480D01*
X23261107Y-87657868D01*
X23241401Y-87643253D01*
X23223223Y-87626777D01*
X23206747Y-87608599D01*
X23192132Y-87588893D01*
X23179520Y-87567850D01*
X23169030Y-87545671D01*
X23160765Y-87522572D01*
X23154804Y-87498773D01*
X23151204Y-87474505D01*
X23150000Y-87450001D01*
X23150000Y-86549999D01*
X23151204Y-86525495D01*
X23154804Y-86501227D01*
X23160765Y-86477428D01*
X23169030Y-86454329D01*
X23179520Y-86432150D01*
X23192132Y-86411107D01*
X23206747Y-86391401D01*
X23223223Y-86373223D01*
X23241401Y-86356747D01*
X23261107Y-86342132D01*
X23282150Y-86329520D01*
X23304329Y-86319030D01*
X23327428Y-86310765D01*
X23351227Y-86304804D01*
X23375495Y-86301204D01*
X23399999Y-86300000D01*
X24050001Y-86300000D01*
X24074505Y-86301204D01*
X24074505Y-86301204D01*
G37*
D11*
X23725000Y-87000000D03*
D10*
G36*
X26124505Y-86301204D02*
X26148773Y-86304804D01*
X26172572Y-86310765D01*
X26195671Y-86319030D01*
X26217850Y-86329520D01*
X26238893Y-86342132D01*
X26258599Y-86356747D01*
X26276777Y-86373223D01*
X26293253Y-86391401D01*
X26307868Y-86411107D01*
X26320480Y-86432150D01*
X26330970Y-86454329D01*
X26339235Y-86477428D01*
X26345196Y-86501227D01*
X26348796Y-86525495D01*
X26350000Y-86549999D01*
X26350000Y-87450001D01*
X26348796Y-87474505D01*
X26345196Y-87498773D01*
X26339235Y-87522572D01*
X26330970Y-87545671D01*
X26320480Y-87567850D01*
X26307868Y-87588893D01*
X26293253Y-87608599D01*
X26276777Y-87626777D01*
X26258599Y-87643253D01*
X26238893Y-87657868D01*
X26217850Y-87670480D01*
X26195671Y-87680970D01*
X26172572Y-87689235D01*
X26148773Y-87695196D01*
X26124505Y-87698796D01*
X26100001Y-87700000D01*
X25449999Y-87700000D01*
X25425495Y-87698796D01*
X25401227Y-87695196D01*
X25377428Y-87689235D01*
X25354329Y-87680970D01*
X25332150Y-87670480D01*
X25311107Y-87657868D01*
X25291401Y-87643253D01*
X25273223Y-87626777D01*
X25256747Y-87608599D01*
X25242132Y-87588893D01*
X25229520Y-87567850D01*
X25219030Y-87545671D01*
X25210765Y-87522572D01*
X25204804Y-87498773D01*
X25201204Y-87474505D01*
X25200000Y-87450001D01*
X25200000Y-86549999D01*
X25201204Y-86525495D01*
X25204804Y-86501227D01*
X25210765Y-86477428D01*
X25219030Y-86454329D01*
X25229520Y-86432150D01*
X25242132Y-86411107D01*
X25256747Y-86391401D01*
X25273223Y-86373223D01*
X25291401Y-86356747D01*
X25311107Y-86342132D01*
X25332150Y-86329520D01*
X25354329Y-86319030D01*
X25377428Y-86310765D01*
X25401227Y-86304804D01*
X25425495Y-86301204D01*
X25449999Y-86300000D01*
X26100001Y-86300000D01*
X26124505Y-86301204D01*
X26124505Y-86301204D01*
G37*
D11*
X25775000Y-87000000D03*
G04 #@! TD*
D10*
G04 #@! TO.C,R47*
G36*
X28824505Y-86301204D02*
X28848773Y-86304804D01*
X28872572Y-86310765D01*
X28895671Y-86319030D01*
X28917850Y-86329520D01*
X28938893Y-86342132D01*
X28958599Y-86356747D01*
X28976777Y-86373223D01*
X28993253Y-86391401D01*
X29007868Y-86411107D01*
X29020480Y-86432150D01*
X29030970Y-86454329D01*
X29039235Y-86477428D01*
X29045196Y-86501227D01*
X29048796Y-86525495D01*
X29050000Y-86549999D01*
X29050000Y-87450001D01*
X29048796Y-87474505D01*
X29045196Y-87498773D01*
X29039235Y-87522572D01*
X29030970Y-87545671D01*
X29020480Y-87567850D01*
X29007868Y-87588893D01*
X28993253Y-87608599D01*
X28976777Y-87626777D01*
X28958599Y-87643253D01*
X28938893Y-87657868D01*
X28917850Y-87670480D01*
X28895671Y-87680970D01*
X28872572Y-87689235D01*
X28848773Y-87695196D01*
X28824505Y-87698796D01*
X28800001Y-87700000D01*
X28149999Y-87700000D01*
X28125495Y-87698796D01*
X28101227Y-87695196D01*
X28077428Y-87689235D01*
X28054329Y-87680970D01*
X28032150Y-87670480D01*
X28011107Y-87657868D01*
X27991401Y-87643253D01*
X27973223Y-87626777D01*
X27956747Y-87608599D01*
X27942132Y-87588893D01*
X27929520Y-87567850D01*
X27919030Y-87545671D01*
X27910765Y-87522572D01*
X27904804Y-87498773D01*
X27901204Y-87474505D01*
X27900000Y-87450001D01*
X27900000Y-86549999D01*
X27901204Y-86525495D01*
X27904804Y-86501227D01*
X27910765Y-86477428D01*
X27919030Y-86454329D01*
X27929520Y-86432150D01*
X27942132Y-86411107D01*
X27956747Y-86391401D01*
X27973223Y-86373223D01*
X27991401Y-86356747D01*
X28011107Y-86342132D01*
X28032150Y-86329520D01*
X28054329Y-86319030D01*
X28077428Y-86310765D01*
X28101227Y-86304804D01*
X28125495Y-86301204D01*
X28149999Y-86300000D01*
X28800001Y-86300000D01*
X28824505Y-86301204D01*
X28824505Y-86301204D01*
G37*
D11*
X28475000Y-87000000D03*
D10*
G36*
X30874505Y-86301204D02*
X30898773Y-86304804D01*
X30922572Y-86310765D01*
X30945671Y-86319030D01*
X30967850Y-86329520D01*
X30988893Y-86342132D01*
X31008599Y-86356747D01*
X31026777Y-86373223D01*
X31043253Y-86391401D01*
X31057868Y-86411107D01*
X31070480Y-86432150D01*
X31080970Y-86454329D01*
X31089235Y-86477428D01*
X31095196Y-86501227D01*
X31098796Y-86525495D01*
X31100000Y-86549999D01*
X31100000Y-87450001D01*
X31098796Y-87474505D01*
X31095196Y-87498773D01*
X31089235Y-87522572D01*
X31080970Y-87545671D01*
X31070480Y-87567850D01*
X31057868Y-87588893D01*
X31043253Y-87608599D01*
X31026777Y-87626777D01*
X31008599Y-87643253D01*
X30988893Y-87657868D01*
X30967850Y-87670480D01*
X30945671Y-87680970D01*
X30922572Y-87689235D01*
X30898773Y-87695196D01*
X30874505Y-87698796D01*
X30850001Y-87700000D01*
X30199999Y-87700000D01*
X30175495Y-87698796D01*
X30151227Y-87695196D01*
X30127428Y-87689235D01*
X30104329Y-87680970D01*
X30082150Y-87670480D01*
X30061107Y-87657868D01*
X30041401Y-87643253D01*
X30023223Y-87626777D01*
X30006747Y-87608599D01*
X29992132Y-87588893D01*
X29979520Y-87567850D01*
X29969030Y-87545671D01*
X29960765Y-87522572D01*
X29954804Y-87498773D01*
X29951204Y-87474505D01*
X29950000Y-87450001D01*
X29950000Y-86549999D01*
X29951204Y-86525495D01*
X29954804Y-86501227D01*
X29960765Y-86477428D01*
X29969030Y-86454329D01*
X29979520Y-86432150D01*
X29992132Y-86411107D01*
X30006747Y-86391401D01*
X30023223Y-86373223D01*
X30041401Y-86356747D01*
X30061107Y-86342132D01*
X30082150Y-86329520D01*
X30104329Y-86319030D01*
X30127428Y-86310765D01*
X30151227Y-86304804D01*
X30175495Y-86301204D01*
X30199999Y-86300000D01*
X30850001Y-86300000D01*
X30874505Y-86301204D01*
X30874505Y-86301204D01*
G37*
D11*
X30525000Y-87000000D03*
G04 #@! TD*
D10*
G04 #@! TO.C,R50*
G36*
X22849505Y-44051204D02*
X22873773Y-44054804D01*
X22897572Y-44060765D01*
X22920671Y-44069030D01*
X22942850Y-44079520D01*
X22963893Y-44092132D01*
X22983599Y-44106747D01*
X23001777Y-44123223D01*
X23018253Y-44141401D01*
X23032868Y-44161107D01*
X23045480Y-44182150D01*
X23055970Y-44204329D01*
X23064235Y-44227428D01*
X23070196Y-44251227D01*
X23073796Y-44275495D01*
X23075000Y-44299999D01*
X23075000Y-45200001D01*
X23073796Y-45224505D01*
X23070196Y-45248773D01*
X23064235Y-45272572D01*
X23055970Y-45295671D01*
X23045480Y-45317850D01*
X23032868Y-45338893D01*
X23018253Y-45358599D01*
X23001777Y-45376777D01*
X22983599Y-45393253D01*
X22963893Y-45407868D01*
X22942850Y-45420480D01*
X22920671Y-45430970D01*
X22897572Y-45439235D01*
X22873773Y-45445196D01*
X22849505Y-45448796D01*
X22825001Y-45450000D01*
X22174999Y-45450000D01*
X22150495Y-45448796D01*
X22126227Y-45445196D01*
X22102428Y-45439235D01*
X22079329Y-45430970D01*
X22057150Y-45420480D01*
X22036107Y-45407868D01*
X22016401Y-45393253D01*
X21998223Y-45376777D01*
X21981747Y-45358599D01*
X21967132Y-45338893D01*
X21954520Y-45317850D01*
X21944030Y-45295671D01*
X21935765Y-45272572D01*
X21929804Y-45248773D01*
X21926204Y-45224505D01*
X21925000Y-45200001D01*
X21925000Y-44299999D01*
X21926204Y-44275495D01*
X21929804Y-44251227D01*
X21935765Y-44227428D01*
X21944030Y-44204329D01*
X21954520Y-44182150D01*
X21967132Y-44161107D01*
X21981747Y-44141401D01*
X21998223Y-44123223D01*
X22016401Y-44106747D01*
X22036107Y-44092132D01*
X22057150Y-44079520D01*
X22079329Y-44069030D01*
X22102428Y-44060765D01*
X22126227Y-44054804D01*
X22150495Y-44051204D01*
X22174999Y-44050000D01*
X22825001Y-44050000D01*
X22849505Y-44051204D01*
X22849505Y-44051204D01*
G37*
D11*
X22500000Y-44750000D03*
D10*
G36*
X24899505Y-44051204D02*
X24923773Y-44054804D01*
X24947572Y-44060765D01*
X24970671Y-44069030D01*
X24992850Y-44079520D01*
X25013893Y-44092132D01*
X25033599Y-44106747D01*
X25051777Y-44123223D01*
X25068253Y-44141401D01*
X25082868Y-44161107D01*
X25095480Y-44182150D01*
X25105970Y-44204329D01*
X25114235Y-44227428D01*
X25120196Y-44251227D01*
X25123796Y-44275495D01*
X25125000Y-44299999D01*
X25125000Y-45200001D01*
X25123796Y-45224505D01*
X25120196Y-45248773D01*
X25114235Y-45272572D01*
X25105970Y-45295671D01*
X25095480Y-45317850D01*
X25082868Y-45338893D01*
X25068253Y-45358599D01*
X25051777Y-45376777D01*
X25033599Y-45393253D01*
X25013893Y-45407868D01*
X24992850Y-45420480D01*
X24970671Y-45430970D01*
X24947572Y-45439235D01*
X24923773Y-45445196D01*
X24899505Y-45448796D01*
X24875001Y-45450000D01*
X24224999Y-45450000D01*
X24200495Y-45448796D01*
X24176227Y-45445196D01*
X24152428Y-45439235D01*
X24129329Y-45430970D01*
X24107150Y-45420480D01*
X24086107Y-45407868D01*
X24066401Y-45393253D01*
X24048223Y-45376777D01*
X24031747Y-45358599D01*
X24017132Y-45338893D01*
X24004520Y-45317850D01*
X23994030Y-45295671D01*
X23985765Y-45272572D01*
X23979804Y-45248773D01*
X23976204Y-45224505D01*
X23975000Y-45200001D01*
X23975000Y-44299999D01*
X23976204Y-44275495D01*
X23979804Y-44251227D01*
X23985765Y-44227428D01*
X23994030Y-44204329D01*
X24004520Y-44182150D01*
X24017132Y-44161107D01*
X24031747Y-44141401D01*
X24048223Y-44123223D01*
X24066401Y-44106747D01*
X24086107Y-44092132D01*
X24107150Y-44079520D01*
X24129329Y-44069030D01*
X24152428Y-44060765D01*
X24176227Y-44054804D01*
X24200495Y-44051204D01*
X24224999Y-44050000D01*
X24875001Y-44050000D01*
X24899505Y-44051204D01*
X24899505Y-44051204D01*
G37*
D11*
X24550000Y-44750000D03*
G04 #@! TD*
D10*
G04 #@! TO.C,R51*
G36*
X29899505Y-44051204D02*
X29923773Y-44054804D01*
X29947572Y-44060765D01*
X29970671Y-44069030D01*
X29992850Y-44079520D01*
X30013893Y-44092132D01*
X30033599Y-44106747D01*
X30051777Y-44123223D01*
X30068253Y-44141401D01*
X30082868Y-44161107D01*
X30095480Y-44182150D01*
X30105970Y-44204329D01*
X30114235Y-44227428D01*
X30120196Y-44251227D01*
X30123796Y-44275495D01*
X30125000Y-44299999D01*
X30125000Y-45200001D01*
X30123796Y-45224505D01*
X30120196Y-45248773D01*
X30114235Y-45272572D01*
X30105970Y-45295671D01*
X30095480Y-45317850D01*
X30082868Y-45338893D01*
X30068253Y-45358599D01*
X30051777Y-45376777D01*
X30033599Y-45393253D01*
X30013893Y-45407868D01*
X29992850Y-45420480D01*
X29970671Y-45430970D01*
X29947572Y-45439235D01*
X29923773Y-45445196D01*
X29899505Y-45448796D01*
X29875001Y-45450000D01*
X29224999Y-45450000D01*
X29200495Y-45448796D01*
X29176227Y-45445196D01*
X29152428Y-45439235D01*
X29129329Y-45430970D01*
X29107150Y-45420480D01*
X29086107Y-45407868D01*
X29066401Y-45393253D01*
X29048223Y-45376777D01*
X29031747Y-45358599D01*
X29017132Y-45338893D01*
X29004520Y-45317850D01*
X28994030Y-45295671D01*
X28985765Y-45272572D01*
X28979804Y-45248773D01*
X28976204Y-45224505D01*
X28975000Y-45200001D01*
X28975000Y-44299999D01*
X28976204Y-44275495D01*
X28979804Y-44251227D01*
X28985765Y-44227428D01*
X28994030Y-44204329D01*
X29004520Y-44182150D01*
X29017132Y-44161107D01*
X29031747Y-44141401D01*
X29048223Y-44123223D01*
X29066401Y-44106747D01*
X29086107Y-44092132D01*
X29107150Y-44079520D01*
X29129329Y-44069030D01*
X29152428Y-44060765D01*
X29176227Y-44054804D01*
X29200495Y-44051204D01*
X29224999Y-44050000D01*
X29875001Y-44050000D01*
X29899505Y-44051204D01*
X29899505Y-44051204D01*
G37*
D11*
X29550000Y-44750000D03*
D10*
G36*
X27849505Y-44051204D02*
X27873773Y-44054804D01*
X27897572Y-44060765D01*
X27920671Y-44069030D01*
X27942850Y-44079520D01*
X27963893Y-44092132D01*
X27983599Y-44106747D01*
X28001777Y-44123223D01*
X28018253Y-44141401D01*
X28032868Y-44161107D01*
X28045480Y-44182150D01*
X28055970Y-44204329D01*
X28064235Y-44227428D01*
X28070196Y-44251227D01*
X28073796Y-44275495D01*
X28075000Y-44299999D01*
X28075000Y-45200001D01*
X28073796Y-45224505D01*
X28070196Y-45248773D01*
X28064235Y-45272572D01*
X28055970Y-45295671D01*
X28045480Y-45317850D01*
X28032868Y-45338893D01*
X28018253Y-45358599D01*
X28001777Y-45376777D01*
X27983599Y-45393253D01*
X27963893Y-45407868D01*
X27942850Y-45420480D01*
X27920671Y-45430970D01*
X27897572Y-45439235D01*
X27873773Y-45445196D01*
X27849505Y-45448796D01*
X27825001Y-45450000D01*
X27174999Y-45450000D01*
X27150495Y-45448796D01*
X27126227Y-45445196D01*
X27102428Y-45439235D01*
X27079329Y-45430970D01*
X27057150Y-45420480D01*
X27036107Y-45407868D01*
X27016401Y-45393253D01*
X26998223Y-45376777D01*
X26981747Y-45358599D01*
X26967132Y-45338893D01*
X26954520Y-45317850D01*
X26944030Y-45295671D01*
X26935765Y-45272572D01*
X26929804Y-45248773D01*
X26926204Y-45224505D01*
X26925000Y-45200001D01*
X26925000Y-44299999D01*
X26926204Y-44275495D01*
X26929804Y-44251227D01*
X26935765Y-44227428D01*
X26944030Y-44204329D01*
X26954520Y-44182150D01*
X26967132Y-44161107D01*
X26981747Y-44141401D01*
X26998223Y-44123223D01*
X27016401Y-44106747D01*
X27036107Y-44092132D01*
X27057150Y-44079520D01*
X27079329Y-44069030D01*
X27102428Y-44060765D01*
X27126227Y-44054804D01*
X27150495Y-44051204D01*
X27174999Y-44050000D01*
X27825001Y-44050000D01*
X27849505Y-44051204D01*
X27849505Y-44051204D01*
G37*
D11*
X27500000Y-44750000D03*
G04 #@! TD*
D10*
G04 #@! TO.C,R52*
G36*
X32824505Y-44051204D02*
X32848773Y-44054804D01*
X32872572Y-44060765D01*
X32895671Y-44069030D01*
X32917850Y-44079520D01*
X32938893Y-44092132D01*
X32958599Y-44106747D01*
X32976777Y-44123223D01*
X32993253Y-44141401D01*
X33007868Y-44161107D01*
X33020480Y-44182150D01*
X33030970Y-44204329D01*
X33039235Y-44227428D01*
X33045196Y-44251227D01*
X33048796Y-44275495D01*
X33050000Y-44299999D01*
X33050000Y-45200001D01*
X33048796Y-45224505D01*
X33045196Y-45248773D01*
X33039235Y-45272572D01*
X33030970Y-45295671D01*
X33020480Y-45317850D01*
X33007868Y-45338893D01*
X32993253Y-45358599D01*
X32976777Y-45376777D01*
X32958599Y-45393253D01*
X32938893Y-45407868D01*
X32917850Y-45420480D01*
X32895671Y-45430970D01*
X32872572Y-45439235D01*
X32848773Y-45445196D01*
X32824505Y-45448796D01*
X32800001Y-45450000D01*
X32149999Y-45450000D01*
X32125495Y-45448796D01*
X32101227Y-45445196D01*
X32077428Y-45439235D01*
X32054329Y-45430970D01*
X32032150Y-45420480D01*
X32011107Y-45407868D01*
X31991401Y-45393253D01*
X31973223Y-45376777D01*
X31956747Y-45358599D01*
X31942132Y-45338893D01*
X31929520Y-45317850D01*
X31919030Y-45295671D01*
X31910765Y-45272572D01*
X31904804Y-45248773D01*
X31901204Y-45224505D01*
X31900000Y-45200001D01*
X31900000Y-44299999D01*
X31901204Y-44275495D01*
X31904804Y-44251227D01*
X31910765Y-44227428D01*
X31919030Y-44204329D01*
X31929520Y-44182150D01*
X31942132Y-44161107D01*
X31956747Y-44141401D01*
X31973223Y-44123223D01*
X31991401Y-44106747D01*
X32011107Y-44092132D01*
X32032150Y-44079520D01*
X32054329Y-44069030D01*
X32077428Y-44060765D01*
X32101227Y-44054804D01*
X32125495Y-44051204D01*
X32149999Y-44050000D01*
X32800001Y-44050000D01*
X32824505Y-44051204D01*
X32824505Y-44051204D01*
G37*
D11*
X32475000Y-44750000D03*
D10*
G36*
X34874505Y-44051204D02*
X34898773Y-44054804D01*
X34922572Y-44060765D01*
X34945671Y-44069030D01*
X34967850Y-44079520D01*
X34988893Y-44092132D01*
X35008599Y-44106747D01*
X35026777Y-44123223D01*
X35043253Y-44141401D01*
X35057868Y-44161107D01*
X35070480Y-44182150D01*
X35080970Y-44204329D01*
X35089235Y-44227428D01*
X35095196Y-44251227D01*
X35098796Y-44275495D01*
X35100000Y-44299999D01*
X35100000Y-45200001D01*
X35098796Y-45224505D01*
X35095196Y-45248773D01*
X35089235Y-45272572D01*
X35080970Y-45295671D01*
X35070480Y-45317850D01*
X35057868Y-45338893D01*
X35043253Y-45358599D01*
X35026777Y-45376777D01*
X35008599Y-45393253D01*
X34988893Y-45407868D01*
X34967850Y-45420480D01*
X34945671Y-45430970D01*
X34922572Y-45439235D01*
X34898773Y-45445196D01*
X34874505Y-45448796D01*
X34850001Y-45450000D01*
X34199999Y-45450000D01*
X34175495Y-45448796D01*
X34151227Y-45445196D01*
X34127428Y-45439235D01*
X34104329Y-45430970D01*
X34082150Y-45420480D01*
X34061107Y-45407868D01*
X34041401Y-45393253D01*
X34023223Y-45376777D01*
X34006747Y-45358599D01*
X33992132Y-45338893D01*
X33979520Y-45317850D01*
X33969030Y-45295671D01*
X33960765Y-45272572D01*
X33954804Y-45248773D01*
X33951204Y-45224505D01*
X33950000Y-45200001D01*
X33950000Y-44299999D01*
X33951204Y-44275495D01*
X33954804Y-44251227D01*
X33960765Y-44227428D01*
X33969030Y-44204329D01*
X33979520Y-44182150D01*
X33992132Y-44161107D01*
X34006747Y-44141401D01*
X34023223Y-44123223D01*
X34041401Y-44106747D01*
X34061107Y-44092132D01*
X34082150Y-44079520D01*
X34104329Y-44069030D01*
X34127428Y-44060765D01*
X34151227Y-44054804D01*
X34175495Y-44051204D01*
X34199999Y-44050000D01*
X34850001Y-44050000D01*
X34874505Y-44051204D01*
X34874505Y-44051204D01*
G37*
D11*
X34525000Y-44750000D03*
G04 #@! TD*
D10*
G04 #@! TO.C,R53*
G36*
X32824505Y-47551204D02*
X32848773Y-47554804D01*
X32872572Y-47560765D01*
X32895671Y-47569030D01*
X32917850Y-47579520D01*
X32938893Y-47592132D01*
X32958599Y-47606747D01*
X32976777Y-47623223D01*
X32993253Y-47641401D01*
X33007868Y-47661107D01*
X33020480Y-47682150D01*
X33030970Y-47704329D01*
X33039235Y-47727428D01*
X33045196Y-47751227D01*
X33048796Y-47775495D01*
X33050000Y-47799999D01*
X33050000Y-48700001D01*
X33048796Y-48724505D01*
X33045196Y-48748773D01*
X33039235Y-48772572D01*
X33030970Y-48795671D01*
X33020480Y-48817850D01*
X33007868Y-48838893D01*
X32993253Y-48858599D01*
X32976777Y-48876777D01*
X32958599Y-48893253D01*
X32938893Y-48907868D01*
X32917850Y-48920480D01*
X32895671Y-48930970D01*
X32872572Y-48939235D01*
X32848773Y-48945196D01*
X32824505Y-48948796D01*
X32800001Y-48950000D01*
X32149999Y-48950000D01*
X32125495Y-48948796D01*
X32101227Y-48945196D01*
X32077428Y-48939235D01*
X32054329Y-48930970D01*
X32032150Y-48920480D01*
X32011107Y-48907868D01*
X31991401Y-48893253D01*
X31973223Y-48876777D01*
X31956747Y-48858599D01*
X31942132Y-48838893D01*
X31929520Y-48817850D01*
X31919030Y-48795671D01*
X31910765Y-48772572D01*
X31904804Y-48748773D01*
X31901204Y-48724505D01*
X31900000Y-48700001D01*
X31900000Y-47799999D01*
X31901204Y-47775495D01*
X31904804Y-47751227D01*
X31910765Y-47727428D01*
X31919030Y-47704329D01*
X31929520Y-47682150D01*
X31942132Y-47661107D01*
X31956747Y-47641401D01*
X31973223Y-47623223D01*
X31991401Y-47606747D01*
X32011107Y-47592132D01*
X32032150Y-47579520D01*
X32054329Y-47569030D01*
X32077428Y-47560765D01*
X32101227Y-47554804D01*
X32125495Y-47551204D01*
X32149999Y-47550000D01*
X32800001Y-47550000D01*
X32824505Y-47551204D01*
X32824505Y-47551204D01*
G37*
D11*
X32475000Y-48250000D03*
D10*
G36*
X34874505Y-47551204D02*
X34898773Y-47554804D01*
X34922572Y-47560765D01*
X34945671Y-47569030D01*
X34967850Y-47579520D01*
X34988893Y-47592132D01*
X35008599Y-47606747D01*
X35026777Y-47623223D01*
X35043253Y-47641401D01*
X35057868Y-47661107D01*
X35070480Y-47682150D01*
X35080970Y-47704329D01*
X35089235Y-47727428D01*
X35095196Y-47751227D01*
X35098796Y-47775495D01*
X35100000Y-47799999D01*
X35100000Y-48700001D01*
X35098796Y-48724505D01*
X35095196Y-48748773D01*
X35089235Y-48772572D01*
X35080970Y-48795671D01*
X35070480Y-48817850D01*
X35057868Y-48838893D01*
X35043253Y-48858599D01*
X35026777Y-48876777D01*
X35008599Y-48893253D01*
X34988893Y-48907868D01*
X34967850Y-48920480D01*
X34945671Y-48930970D01*
X34922572Y-48939235D01*
X34898773Y-48945196D01*
X34874505Y-48948796D01*
X34850001Y-48950000D01*
X34199999Y-48950000D01*
X34175495Y-48948796D01*
X34151227Y-48945196D01*
X34127428Y-48939235D01*
X34104329Y-48930970D01*
X34082150Y-48920480D01*
X34061107Y-48907868D01*
X34041401Y-48893253D01*
X34023223Y-48876777D01*
X34006747Y-48858599D01*
X33992132Y-48838893D01*
X33979520Y-48817850D01*
X33969030Y-48795671D01*
X33960765Y-48772572D01*
X33954804Y-48748773D01*
X33951204Y-48724505D01*
X33950000Y-48700001D01*
X33950000Y-47799999D01*
X33951204Y-47775495D01*
X33954804Y-47751227D01*
X33960765Y-47727428D01*
X33969030Y-47704329D01*
X33979520Y-47682150D01*
X33992132Y-47661107D01*
X34006747Y-47641401D01*
X34023223Y-47623223D01*
X34041401Y-47606747D01*
X34061107Y-47592132D01*
X34082150Y-47579520D01*
X34104329Y-47569030D01*
X34127428Y-47560765D01*
X34151227Y-47554804D01*
X34175495Y-47551204D01*
X34199999Y-47550000D01*
X34850001Y-47550000D01*
X34874505Y-47551204D01*
X34874505Y-47551204D01*
G37*
D11*
X34525000Y-48250000D03*
G04 #@! TD*
D10*
G04 #@! TO.C,R.pwr.1*
G36*
X17349505Y-93051204D02*
X17373773Y-93054804D01*
X17397572Y-93060765D01*
X17420671Y-93069030D01*
X17442850Y-93079520D01*
X17463893Y-93092132D01*
X17483599Y-93106747D01*
X17501777Y-93123223D01*
X17518253Y-93141401D01*
X17532868Y-93161107D01*
X17545480Y-93182150D01*
X17555970Y-93204329D01*
X17564235Y-93227428D01*
X17570196Y-93251227D01*
X17573796Y-93275495D01*
X17575000Y-93299999D01*
X17575000Y-94200001D01*
X17573796Y-94224505D01*
X17570196Y-94248773D01*
X17564235Y-94272572D01*
X17555970Y-94295671D01*
X17545480Y-94317850D01*
X17532868Y-94338893D01*
X17518253Y-94358599D01*
X17501777Y-94376777D01*
X17483599Y-94393253D01*
X17463893Y-94407868D01*
X17442850Y-94420480D01*
X17420671Y-94430970D01*
X17397572Y-94439235D01*
X17373773Y-94445196D01*
X17349505Y-94448796D01*
X17325001Y-94450000D01*
X16674999Y-94450000D01*
X16650495Y-94448796D01*
X16626227Y-94445196D01*
X16602428Y-94439235D01*
X16579329Y-94430970D01*
X16557150Y-94420480D01*
X16536107Y-94407868D01*
X16516401Y-94393253D01*
X16498223Y-94376777D01*
X16481747Y-94358599D01*
X16467132Y-94338893D01*
X16454520Y-94317850D01*
X16444030Y-94295671D01*
X16435765Y-94272572D01*
X16429804Y-94248773D01*
X16426204Y-94224505D01*
X16425000Y-94200001D01*
X16425000Y-93299999D01*
X16426204Y-93275495D01*
X16429804Y-93251227D01*
X16435765Y-93227428D01*
X16444030Y-93204329D01*
X16454520Y-93182150D01*
X16467132Y-93161107D01*
X16481747Y-93141401D01*
X16498223Y-93123223D01*
X16516401Y-93106747D01*
X16536107Y-93092132D01*
X16557150Y-93079520D01*
X16579329Y-93069030D01*
X16602428Y-93060765D01*
X16626227Y-93054804D01*
X16650495Y-93051204D01*
X16674999Y-93050000D01*
X17325001Y-93050000D01*
X17349505Y-93051204D01*
X17349505Y-93051204D01*
G37*
D11*
X17000000Y-93750000D03*
D10*
G36*
X19399505Y-93051204D02*
X19423773Y-93054804D01*
X19447572Y-93060765D01*
X19470671Y-93069030D01*
X19492850Y-93079520D01*
X19513893Y-93092132D01*
X19533599Y-93106747D01*
X19551777Y-93123223D01*
X19568253Y-93141401D01*
X19582868Y-93161107D01*
X19595480Y-93182150D01*
X19605970Y-93204329D01*
X19614235Y-93227428D01*
X19620196Y-93251227D01*
X19623796Y-93275495D01*
X19625000Y-93299999D01*
X19625000Y-94200001D01*
X19623796Y-94224505D01*
X19620196Y-94248773D01*
X19614235Y-94272572D01*
X19605970Y-94295671D01*
X19595480Y-94317850D01*
X19582868Y-94338893D01*
X19568253Y-94358599D01*
X19551777Y-94376777D01*
X19533599Y-94393253D01*
X19513893Y-94407868D01*
X19492850Y-94420480D01*
X19470671Y-94430970D01*
X19447572Y-94439235D01*
X19423773Y-94445196D01*
X19399505Y-94448796D01*
X19375001Y-94450000D01*
X18724999Y-94450000D01*
X18700495Y-94448796D01*
X18676227Y-94445196D01*
X18652428Y-94439235D01*
X18629329Y-94430970D01*
X18607150Y-94420480D01*
X18586107Y-94407868D01*
X18566401Y-94393253D01*
X18548223Y-94376777D01*
X18531747Y-94358599D01*
X18517132Y-94338893D01*
X18504520Y-94317850D01*
X18494030Y-94295671D01*
X18485765Y-94272572D01*
X18479804Y-94248773D01*
X18476204Y-94224505D01*
X18475000Y-94200001D01*
X18475000Y-93299999D01*
X18476204Y-93275495D01*
X18479804Y-93251227D01*
X18485765Y-93227428D01*
X18494030Y-93204329D01*
X18504520Y-93182150D01*
X18517132Y-93161107D01*
X18531747Y-93141401D01*
X18548223Y-93123223D01*
X18566401Y-93106747D01*
X18586107Y-93092132D01*
X18607150Y-93079520D01*
X18629329Y-93069030D01*
X18652428Y-93060765D01*
X18676227Y-93054804D01*
X18700495Y-93051204D01*
X18724999Y-93050000D01*
X19375001Y-93050000D01*
X19399505Y-93051204D01*
X19399505Y-93051204D01*
G37*
D11*
X19050000Y-93750000D03*
G04 #@! TD*
D10*
G04 #@! TO.C,R.pwr.2*
G36*
X21849505Y-93051204D02*
X21873773Y-93054804D01*
X21897572Y-93060765D01*
X21920671Y-93069030D01*
X21942850Y-93079520D01*
X21963893Y-93092132D01*
X21983599Y-93106747D01*
X22001777Y-93123223D01*
X22018253Y-93141401D01*
X22032868Y-93161107D01*
X22045480Y-93182150D01*
X22055970Y-93204329D01*
X22064235Y-93227428D01*
X22070196Y-93251227D01*
X22073796Y-93275495D01*
X22075000Y-93299999D01*
X22075000Y-94200001D01*
X22073796Y-94224505D01*
X22070196Y-94248773D01*
X22064235Y-94272572D01*
X22055970Y-94295671D01*
X22045480Y-94317850D01*
X22032868Y-94338893D01*
X22018253Y-94358599D01*
X22001777Y-94376777D01*
X21983599Y-94393253D01*
X21963893Y-94407868D01*
X21942850Y-94420480D01*
X21920671Y-94430970D01*
X21897572Y-94439235D01*
X21873773Y-94445196D01*
X21849505Y-94448796D01*
X21825001Y-94450000D01*
X21174999Y-94450000D01*
X21150495Y-94448796D01*
X21126227Y-94445196D01*
X21102428Y-94439235D01*
X21079329Y-94430970D01*
X21057150Y-94420480D01*
X21036107Y-94407868D01*
X21016401Y-94393253D01*
X20998223Y-94376777D01*
X20981747Y-94358599D01*
X20967132Y-94338893D01*
X20954520Y-94317850D01*
X20944030Y-94295671D01*
X20935765Y-94272572D01*
X20929804Y-94248773D01*
X20926204Y-94224505D01*
X20925000Y-94200001D01*
X20925000Y-93299999D01*
X20926204Y-93275495D01*
X20929804Y-93251227D01*
X20935765Y-93227428D01*
X20944030Y-93204329D01*
X20954520Y-93182150D01*
X20967132Y-93161107D01*
X20981747Y-93141401D01*
X20998223Y-93123223D01*
X21016401Y-93106747D01*
X21036107Y-93092132D01*
X21057150Y-93079520D01*
X21079329Y-93069030D01*
X21102428Y-93060765D01*
X21126227Y-93054804D01*
X21150495Y-93051204D01*
X21174999Y-93050000D01*
X21825001Y-93050000D01*
X21849505Y-93051204D01*
X21849505Y-93051204D01*
G37*
D11*
X21500000Y-93750000D03*
D10*
G36*
X23899505Y-93051204D02*
X23923773Y-93054804D01*
X23947572Y-93060765D01*
X23970671Y-93069030D01*
X23992850Y-93079520D01*
X24013893Y-93092132D01*
X24033599Y-93106747D01*
X24051777Y-93123223D01*
X24068253Y-93141401D01*
X24082868Y-93161107D01*
X24095480Y-93182150D01*
X24105970Y-93204329D01*
X24114235Y-93227428D01*
X24120196Y-93251227D01*
X24123796Y-93275495D01*
X24125000Y-93299999D01*
X24125000Y-94200001D01*
X24123796Y-94224505D01*
X24120196Y-94248773D01*
X24114235Y-94272572D01*
X24105970Y-94295671D01*
X24095480Y-94317850D01*
X24082868Y-94338893D01*
X24068253Y-94358599D01*
X24051777Y-94376777D01*
X24033599Y-94393253D01*
X24013893Y-94407868D01*
X23992850Y-94420480D01*
X23970671Y-94430970D01*
X23947572Y-94439235D01*
X23923773Y-94445196D01*
X23899505Y-94448796D01*
X23875001Y-94450000D01*
X23224999Y-94450000D01*
X23200495Y-94448796D01*
X23176227Y-94445196D01*
X23152428Y-94439235D01*
X23129329Y-94430970D01*
X23107150Y-94420480D01*
X23086107Y-94407868D01*
X23066401Y-94393253D01*
X23048223Y-94376777D01*
X23031747Y-94358599D01*
X23017132Y-94338893D01*
X23004520Y-94317850D01*
X22994030Y-94295671D01*
X22985765Y-94272572D01*
X22979804Y-94248773D01*
X22976204Y-94224505D01*
X22975000Y-94200001D01*
X22975000Y-93299999D01*
X22976204Y-93275495D01*
X22979804Y-93251227D01*
X22985765Y-93227428D01*
X22994030Y-93204329D01*
X23004520Y-93182150D01*
X23017132Y-93161107D01*
X23031747Y-93141401D01*
X23048223Y-93123223D01*
X23066401Y-93106747D01*
X23086107Y-93092132D01*
X23107150Y-93079520D01*
X23129329Y-93069030D01*
X23152428Y-93060765D01*
X23176227Y-93054804D01*
X23200495Y-93051204D01*
X23224999Y-93050000D01*
X23875001Y-93050000D01*
X23899505Y-93051204D01*
X23899505Y-93051204D01*
G37*
D11*
X23550000Y-93750000D03*
G04 #@! TD*
D10*
G04 #@! TO.C,U1*
G36*
X22314703Y-50890722D02*
X22329264Y-50892882D01*
X22343543Y-50896459D01*
X22357403Y-50901418D01*
X22370710Y-50907712D01*
X22383336Y-50915280D01*
X22395159Y-50924048D01*
X22406066Y-50933934D01*
X22415952Y-50944841D01*
X22424720Y-50956664D01*
X22432288Y-50969290D01*
X22438582Y-50982597D01*
X22443541Y-50996457D01*
X22447118Y-51010736D01*
X22449278Y-51025297D01*
X22450000Y-51040000D01*
X22450000Y-51340000D01*
X22449278Y-51354703D01*
X22447118Y-51369264D01*
X22443541Y-51383543D01*
X22438582Y-51397403D01*
X22432288Y-51410710D01*
X22424720Y-51423336D01*
X22415952Y-51435159D01*
X22406066Y-51446066D01*
X22395159Y-51455952D01*
X22383336Y-51464720D01*
X22370710Y-51472288D01*
X22357403Y-51478582D01*
X22343543Y-51483541D01*
X22329264Y-51487118D01*
X22314703Y-51489278D01*
X22300000Y-51490000D01*
X20650000Y-51490000D01*
X20635297Y-51489278D01*
X20620736Y-51487118D01*
X20606457Y-51483541D01*
X20592597Y-51478582D01*
X20579290Y-51472288D01*
X20566664Y-51464720D01*
X20554841Y-51455952D01*
X20543934Y-51446066D01*
X20534048Y-51435159D01*
X20525280Y-51423336D01*
X20517712Y-51410710D01*
X20511418Y-51397403D01*
X20506459Y-51383543D01*
X20502882Y-51369264D01*
X20500722Y-51354703D01*
X20500000Y-51340000D01*
X20500000Y-51040000D01*
X20500722Y-51025297D01*
X20502882Y-51010736D01*
X20506459Y-50996457D01*
X20511418Y-50982597D01*
X20517712Y-50969290D01*
X20525280Y-50956664D01*
X20534048Y-50944841D01*
X20543934Y-50933934D01*
X20554841Y-50924048D01*
X20566664Y-50915280D01*
X20579290Y-50907712D01*
X20592597Y-50901418D01*
X20606457Y-50896459D01*
X20620736Y-50892882D01*
X20635297Y-50890722D01*
X20650000Y-50890000D01*
X22300000Y-50890000D01*
X22314703Y-50890722D01*
X22314703Y-50890722D01*
G37*
D12*
X21475000Y-51190000D03*
D10*
G36*
X22314703Y-52160722D02*
X22329264Y-52162882D01*
X22343543Y-52166459D01*
X22357403Y-52171418D01*
X22370710Y-52177712D01*
X22383336Y-52185280D01*
X22395159Y-52194048D01*
X22406066Y-52203934D01*
X22415952Y-52214841D01*
X22424720Y-52226664D01*
X22432288Y-52239290D01*
X22438582Y-52252597D01*
X22443541Y-52266457D01*
X22447118Y-52280736D01*
X22449278Y-52295297D01*
X22450000Y-52310000D01*
X22450000Y-52610000D01*
X22449278Y-52624703D01*
X22447118Y-52639264D01*
X22443541Y-52653543D01*
X22438582Y-52667403D01*
X22432288Y-52680710D01*
X22424720Y-52693336D01*
X22415952Y-52705159D01*
X22406066Y-52716066D01*
X22395159Y-52725952D01*
X22383336Y-52734720D01*
X22370710Y-52742288D01*
X22357403Y-52748582D01*
X22343543Y-52753541D01*
X22329264Y-52757118D01*
X22314703Y-52759278D01*
X22300000Y-52760000D01*
X20650000Y-52760000D01*
X20635297Y-52759278D01*
X20620736Y-52757118D01*
X20606457Y-52753541D01*
X20592597Y-52748582D01*
X20579290Y-52742288D01*
X20566664Y-52734720D01*
X20554841Y-52725952D01*
X20543934Y-52716066D01*
X20534048Y-52705159D01*
X20525280Y-52693336D01*
X20517712Y-52680710D01*
X20511418Y-52667403D01*
X20506459Y-52653543D01*
X20502882Y-52639264D01*
X20500722Y-52624703D01*
X20500000Y-52610000D01*
X20500000Y-52310000D01*
X20500722Y-52295297D01*
X20502882Y-52280736D01*
X20506459Y-52266457D01*
X20511418Y-52252597D01*
X20517712Y-52239290D01*
X20525280Y-52226664D01*
X20534048Y-52214841D01*
X20543934Y-52203934D01*
X20554841Y-52194048D01*
X20566664Y-52185280D01*
X20579290Y-52177712D01*
X20592597Y-52171418D01*
X20606457Y-52166459D01*
X20620736Y-52162882D01*
X20635297Y-52160722D01*
X20650000Y-52160000D01*
X22300000Y-52160000D01*
X22314703Y-52160722D01*
X22314703Y-52160722D01*
G37*
D12*
X21475000Y-52460000D03*
D10*
G36*
X22314703Y-53430722D02*
X22329264Y-53432882D01*
X22343543Y-53436459D01*
X22357403Y-53441418D01*
X22370710Y-53447712D01*
X22383336Y-53455280D01*
X22395159Y-53464048D01*
X22406066Y-53473934D01*
X22415952Y-53484841D01*
X22424720Y-53496664D01*
X22432288Y-53509290D01*
X22438582Y-53522597D01*
X22443541Y-53536457D01*
X22447118Y-53550736D01*
X22449278Y-53565297D01*
X22450000Y-53580000D01*
X22450000Y-53880000D01*
X22449278Y-53894703D01*
X22447118Y-53909264D01*
X22443541Y-53923543D01*
X22438582Y-53937403D01*
X22432288Y-53950710D01*
X22424720Y-53963336D01*
X22415952Y-53975159D01*
X22406066Y-53986066D01*
X22395159Y-53995952D01*
X22383336Y-54004720D01*
X22370710Y-54012288D01*
X22357403Y-54018582D01*
X22343543Y-54023541D01*
X22329264Y-54027118D01*
X22314703Y-54029278D01*
X22300000Y-54030000D01*
X20650000Y-54030000D01*
X20635297Y-54029278D01*
X20620736Y-54027118D01*
X20606457Y-54023541D01*
X20592597Y-54018582D01*
X20579290Y-54012288D01*
X20566664Y-54004720D01*
X20554841Y-53995952D01*
X20543934Y-53986066D01*
X20534048Y-53975159D01*
X20525280Y-53963336D01*
X20517712Y-53950710D01*
X20511418Y-53937403D01*
X20506459Y-53923543D01*
X20502882Y-53909264D01*
X20500722Y-53894703D01*
X20500000Y-53880000D01*
X20500000Y-53580000D01*
X20500722Y-53565297D01*
X20502882Y-53550736D01*
X20506459Y-53536457D01*
X20511418Y-53522597D01*
X20517712Y-53509290D01*
X20525280Y-53496664D01*
X20534048Y-53484841D01*
X20543934Y-53473934D01*
X20554841Y-53464048D01*
X20566664Y-53455280D01*
X20579290Y-53447712D01*
X20592597Y-53441418D01*
X20606457Y-53436459D01*
X20620736Y-53432882D01*
X20635297Y-53430722D01*
X20650000Y-53430000D01*
X22300000Y-53430000D01*
X22314703Y-53430722D01*
X22314703Y-53430722D01*
G37*
D12*
X21475000Y-53730000D03*
D10*
G36*
X22314703Y-54700722D02*
X22329264Y-54702882D01*
X22343543Y-54706459D01*
X22357403Y-54711418D01*
X22370710Y-54717712D01*
X22383336Y-54725280D01*
X22395159Y-54734048D01*
X22406066Y-54743934D01*
X22415952Y-54754841D01*
X22424720Y-54766664D01*
X22432288Y-54779290D01*
X22438582Y-54792597D01*
X22443541Y-54806457D01*
X22447118Y-54820736D01*
X22449278Y-54835297D01*
X22450000Y-54850000D01*
X22450000Y-55150000D01*
X22449278Y-55164703D01*
X22447118Y-55179264D01*
X22443541Y-55193543D01*
X22438582Y-55207403D01*
X22432288Y-55220710D01*
X22424720Y-55233336D01*
X22415952Y-55245159D01*
X22406066Y-55256066D01*
X22395159Y-55265952D01*
X22383336Y-55274720D01*
X22370710Y-55282288D01*
X22357403Y-55288582D01*
X22343543Y-55293541D01*
X22329264Y-55297118D01*
X22314703Y-55299278D01*
X22300000Y-55300000D01*
X20650000Y-55300000D01*
X20635297Y-55299278D01*
X20620736Y-55297118D01*
X20606457Y-55293541D01*
X20592597Y-55288582D01*
X20579290Y-55282288D01*
X20566664Y-55274720D01*
X20554841Y-55265952D01*
X20543934Y-55256066D01*
X20534048Y-55245159D01*
X20525280Y-55233336D01*
X20517712Y-55220710D01*
X20511418Y-55207403D01*
X20506459Y-55193543D01*
X20502882Y-55179264D01*
X20500722Y-55164703D01*
X20500000Y-55150000D01*
X20500000Y-54850000D01*
X20500722Y-54835297D01*
X20502882Y-54820736D01*
X20506459Y-54806457D01*
X20511418Y-54792597D01*
X20517712Y-54779290D01*
X20525280Y-54766664D01*
X20534048Y-54754841D01*
X20543934Y-54743934D01*
X20554841Y-54734048D01*
X20566664Y-54725280D01*
X20579290Y-54717712D01*
X20592597Y-54711418D01*
X20606457Y-54706459D01*
X20620736Y-54702882D01*
X20635297Y-54700722D01*
X20650000Y-54700000D01*
X22300000Y-54700000D01*
X22314703Y-54700722D01*
X22314703Y-54700722D01*
G37*
D12*
X21475000Y-55000000D03*
D10*
G36*
X22314703Y-55970722D02*
X22329264Y-55972882D01*
X22343543Y-55976459D01*
X22357403Y-55981418D01*
X22370710Y-55987712D01*
X22383336Y-55995280D01*
X22395159Y-56004048D01*
X22406066Y-56013934D01*
X22415952Y-56024841D01*
X22424720Y-56036664D01*
X22432288Y-56049290D01*
X22438582Y-56062597D01*
X22443541Y-56076457D01*
X22447118Y-56090736D01*
X22449278Y-56105297D01*
X22450000Y-56120000D01*
X22450000Y-56420000D01*
X22449278Y-56434703D01*
X22447118Y-56449264D01*
X22443541Y-56463543D01*
X22438582Y-56477403D01*
X22432288Y-56490710D01*
X22424720Y-56503336D01*
X22415952Y-56515159D01*
X22406066Y-56526066D01*
X22395159Y-56535952D01*
X22383336Y-56544720D01*
X22370710Y-56552288D01*
X22357403Y-56558582D01*
X22343543Y-56563541D01*
X22329264Y-56567118D01*
X22314703Y-56569278D01*
X22300000Y-56570000D01*
X20650000Y-56570000D01*
X20635297Y-56569278D01*
X20620736Y-56567118D01*
X20606457Y-56563541D01*
X20592597Y-56558582D01*
X20579290Y-56552288D01*
X20566664Y-56544720D01*
X20554841Y-56535952D01*
X20543934Y-56526066D01*
X20534048Y-56515159D01*
X20525280Y-56503336D01*
X20517712Y-56490710D01*
X20511418Y-56477403D01*
X20506459Y-56463543D01*
X20502882Y-56449264D01*
X20500722Y-56434703D01*
X20500000Y-56420000D01*
X20500000Y-56120000D01*
X20500722Y-56105297D01*
X20502882Y-56090736D01*
X20506459Y-56076457D01*
X20511418Y-56062597D01*
X20517712Y-56049290D01*
X20525280Y-56036664D01*
X20534048Y-56024841D01*
X20543934Y-56013934D01*
X20554841Y-56004048D01*
X20566664Y-55995280D01*
X20579290Y-55987712D01*
X20592597Y-55981418D01*
X20606457Y-55976459D01*
X20620736Y-55972882D01*
X20635297Y-55970722D01*
X20650000Y-55970000D01*
X22300000Y-55970000D01*
X22314703Y-55970722D01*
X22314703Y-55970722D01*
G37*
D12*
X21475000Y-56270000D03*
D10*
G36*
X22314703Y-57240722D02*
X22329264Y-57242882D01*
X22343543Y-57246459D01*
X22357403Y-57251418D01*
X22370710Y-57257712D01*
X22383336Y-57265280D01*
X22395159Y-57274048D01*
X22406066Y-57283934D01*
X22415952Y-57294841D01*
X22424720Y-57306664D01*
X22432288Y-57319290D01*
X22438582Y-57332597D01*
X22443541Y-57346457D01*
X22447118Y-57360736D01*
X22449278Y-57375297D01*
X22450000Y-57390000D01*
X22450000Y-57690000D01*
X22449278Y-57704703D01*
X22447118Y-57719264D01*
X22443541Y-57733543D01*
X22438582Y-57747403D01*
X22432288Y-57760710D01*
X22424720Y-57773336D01*
X22415952Y-57785159D01*
X22406066Y-57796066D01*
X22395159Y-57805952D01*
X22383336Y-57814720D01*
X22370710Y-57822288D01*
X22357403Y-57828582D01*
X22343543Y-57833541D01*
X22329264Y-57837118D01*
X22314703Y-57839278D01*
X22300000Y-57840000D01*
X20650000Y-57840000D01*
X20635297Y-57839278D01*
X20620736Y-57837118D01*
X20606457Y-57833541D01*
X20592597Y-57828582D01*
X20579290Y-57822288D01*
X20566664Y-57814720D01*
X20554841Y-57805952D01*
X20543934Y-57796066D01*
X20534048Y-57785159D01*
X20525280Y-57773336D01*
X20517712Y-57760710D01*
X20511418Y-57747403D01*
X20506459Y-57733543D01*
X20502882Y-57719264D01*
X20500722Y-57704703D01*
X20500000Y-57690000D01*
X20500000Y-57390000D01*
X20500722Y-57375297D01*
X20502882Y-57360736D01*
X20506459Y-57346457D01*
X20511418Y-57332597D01*
X20517712Y-57319290D01*
X20525280Y-57306664D01*
X20534048Y-57294841D01*
X20543934Y-57283934D01*
X20554841Y-57274048D01*
X20566664Y-57265280D01*
X20579290Y-57257712D01*
X20592597Y-57251418D01*
X20606457Y-57246459D01*
X20620736Y-57242882D01*
X20635297Y-57240722D01*
X20650000Y-57240000D01*
X22300000Y-57240000D01*
X22314703Y-57240722D01*
X22314703Y-57240722D01*
G37*
D12*
X21475000Y-57540000D03*
D10*
G36*
X22314703Y-58510722D02*
X22329264Y-58512882D01*
X22343543Y-58516459D01*
X22357403Y-58521418D01*
X22370710Y-58527712D01*
X22383336Y-58535280D01*
X22395159Y-58544048D01*
X22406066Y-58553934D01*
X22415952Y-58564841D01*
X22424720Y-58576664D01*
X22432288Y-58589290D01*
X22438582Y-58602597D01*
X22443541Y-58616457D01*
X22447118Y-58630736D01*
X22449278Y-58645297D01*
X22450000Y-58660000D01*
X22450000Y-58960000D01*
X22449278Y-58974703D01*
X22447118Y-58989264D01*
X22443541Y-59003543D01*
X22438582Y-59017403D01*
X22432288Y-59030710D01*
X22424720Y-59043336D01*
X22415952Y-59055159D01*
X22406066Y-59066066D01*
X22395159Y-59075952D01*
X22383336Y-59084720D01*
X22370710Y-59092288D01*
X22357403Y-59098582D01*
X22343543Y-59103541D01*
X22329264Y-59107118D01*
X22314703Y-59109278D01*
X22300000Y-59110000D01*
X20650000Y-59110000D01*
X20635297Y-59109278D01*
X20620736Y-59107118D01*
X20606457Y-59103541D01*
X20592597Y-59098582D01*
X20579290Y-59092288D01*
X20566664Y-59084720D01*
X20554841Y-59075952D01*
X20543934Y-59066066D01*
X20534048Y-59055159D01*
X20525280Y-59043336D01*
X20517712Y-59030710D01*
X20511418Y-59017403D01*
X20506459Y-59003543D01*
X20502882Y-58989264D01*
X20500722Y-58974703D01*
X20500000Y-58960000D01*
X20500000Y-58660000D01*
X20500722Y-58645297D01*
X20502882Y-58630736D01*
X20506459Y-58616457D01*
X20511418Y-58602597D01*
X20517712Y-58589290D01*
X20525280Y-58576664D01*
X20534048Y-58564841D01*
X20543934Y-58553934D01*
X20554841Y-58544048D01*
X20566664Y-58535280D01*
X20579290Y-58527712D01*
X20592597Y-58521418D01*
X20606457Y-58516459D01*
X20620736Y-58512882D01*
X20635297Y-58510722D01*
X20650000Y-58510000D01*
X22300000Y-58510000D01*
X22314703Y-58510722D01*
X22314703Y-58510722D01*
G37*
D12*
X21475000Y-58810000D03*
D10*
G36*
X17364703Y-58510722D02*
X17379264Y-58512882D01*
X17393543Y-58516459D01*
X17407403Y-58521418D01*
X17420710Y-58527712D01*
X17433336Y-58535280D01*
X17445159Y-58544048D01*
X17456066Y-58553934D01*
X17465952Y-58564841D01*
X17474720Y-58576664D01*
X17482288Y-58589290D01*
X17488582Y-58602597D01*
X17493541Y-58616457D01*
X17497118Y-58630736D01*
X17499278Y-58645297D01*
X17500000Y-58660000D01*
X17500000Y-58960000D01*
X17499278Y-58974703D01*
X17497118Y-58989264D01*
X17493541Y-59003543D01*
X17488582Y-59017403D01*
X17482288Y-59030710D01*
X17474720Y-59043336D01*
X17465952Y-59055159D01*
X17456066Y-59066066D01*
X17445159Y-59075952D01*
X17433336Y-59084720D01*
X17420710Y-59092288D01*
X17407403Y-59098582D01*
X17393543Y-59103541D01*
X17379264Y-59107118D01*
X17364703Y-59109278D01*
X17350000Y-59110000D01*
X15700000Y-59110000D01*
X15685297Y-59109278D01*
X15670736Y-59107118D01*
X15656457Y-59103541D01*
X15642597Y-59098582D01*
X15629290Y-59092288D01*
X15616664Y-59084720D01*
X15604841Y-59075952D01*
X15593934Y-59066066D01*
X15584048Y-59055159D01*
X15575280Y-59043336D01*
X15567712Y-59030710D01*
X15561418Y-59017403D01*
X15556459Y-59003543D01*
X15552882Y-58989264D01*
X15550722Y-58974703D01*
X15550000Y-58960000D01*
X15550000Y-58660000D01*
X15550722Y-58645297D01*
X15552882Y-58630736D01*
X15556459Y-58616457D01*
X15561418Y-58602597D01*
X15567712Y-58589290D01*
X15575280Y-58576664D01*
X15584048Y-58564841D01*
X15593934Y-58553934D01*
X15604841Y-58544048D01*
X15616664Y-58535280D01*
X15629290Y-58527712D01*
X15642597Y-58521418D01*
X15656457Y-58516459D01*
X15670736Y-58512882D01*
X15685297Y-58510722D01*
X15700000Y-58510000D01*
X17350000Y-58510000D01*
X17364703Y-58510722D01*
X17364703Y-58510722D01*
G37*
D12*
X16525000Y-58810000D03*
D10*
G36*
X17364703Y-57240722D02*
X17379264Y-57242882D01*
X17393543Y-57246459D01*
X17407403Y-57251418D01*
X17420710Y-57257712D01*
X17433336Y-57265280D01*
X17445159Y-57274048D01*
X17456066Y-57283934D01*
X17465952Y-57294841D01*
X17474720Y-57306664D01*
X17482288Y-57319290D01*
X17488582Y-57332597D01*
X17493541Y-57346457D01*
X17497118Y-57360736D01*
X17499278Y-57375297D01*
X17500000Y-57390000D01*
X17500000Y-57690000D01*
X17499278Y-57704703D01*
X17497118Y-57719264D01*
X17493541Y-57733543D01*
X17488582Y-57747403D01*
X17482288Y-57760710D01*
X17474720Y-57773336D01*
X17465952Y-57785159D01*
X17456066Y-57796066D01*
X17445159Y-57805952D01*
X17433336Y-57814720D01*
X17420710Y-57822288D01*
X17407403Y-57828582D01*
X17393543Y-57833541D01*
X17379264Y-57837118D01*
X17364703Y-57839278D01*
X17350000Y-57840000D01*
X15700000Y-57840000D01*
X15685297Y-57839278D01*
X15670736Y-57837118D01*
X15656457Y-57833541D01*
X15642597Y-57828582D01*
X15629290Y-57822288D01*
X15616664Y-57814720D01*
X15604841Y-57805952D01*
X15593934Y-57796066D01*
X15584048Y-57785159D01*
X15575280Y-57773336D01*
X15567712Y-57760710D01*
X15561418Y-57747403D01*
X15556459Y-57733543D01*
X15552882Y-57719264D01*
X15550722Y-57704703D01*
X15550000Y-57690000D01*
X15550000Y-57390000D01*
X15550722Y-57375297D01*
X15552882Y-57360736D01*
X15556459Y-57346457D01*
X15561418Y-57332597D01*
X15567712Y-57319290D01*
X15575280Y-57306664D01*
X15584048Y-57294841D01*
X15593934Y-57283934D01*
X15604841Y-57274048D01*
X15616664Y-57265280D01*
X15629290Y-57257712D01*
X15642597Y-57251418D01*
X15656457Y-57246459D01*
X15670736Y-57242882D01*
X15685297Y-57240722D01*
X15700000Y-57240000D01*
X17350000Y-57240000D01*
X17364703Y-57240722D01*
X17364703Y-57240722D01*
G37*
D12*
X16525000Y-57540000D03*
D10*
G36*
X17364703Y-55970722D02*
X17379264Y-55972882D01*
X17393543Y-55976459D01*
X17407403Y-55981418D01*
X17420710Y-55987712D01*
X17433336Y-55995280D01*
X17445159Y-56004048D01*
X17456066Y-56013934D01*
X17465952Y-56024841D01*
X17474720Y-56036664D01*
X17482288Y-56049290D01*
X17488582Y-56062597D01*
X17493541Y-56076457D01*
X17497118Y-56090736D01*
X17499278Y-56105297D01*
X17500000Y-56120000D01*
X17500000Y-56420000D01*
X17499278Y-56434703D01*
X17497118Y-56449264D01*
X17493541Y-56463543D01*
X17488582Y-56477403D01*
X17482288Y-56490710D01*
X17474720Y-56503336D01*
X17465952Y-56515159D01*
X17456066Y-56526066D01*
X17445159Y-56535952D01*
X17433336Y-56544720D01*
X17420710Y-56552288D01*
X17407403Y-56558582D01*
X17393543Y-56563541D01*
X17379264Y-56567118D01*
X17364703Y-56569278D01*
X17350000Y-56570000D01*
X15700000Y-56570000D01*
X15685297Y-56569278D01*
X15670736Y-56567118D01*
X15656457Y-56563541D01*
X15642597Y-56558582D01*
X15629290Y-56552288D01*
X15616664Y-56544720D01*
X15604841Y-56535952D01*
X15593934Y-56526066D01*
X15584048Y-56515159D01*
X15575280Y-56503336D01*
X15567712Y-56490710D01*
X15561418Y-56477403D01*
X15556459Y-56463543D01*
X15552882Y-56449264D01*
X15550722Y-56434703D01*
X15550000Y-56420000D01*
X15550000Y-56120000D01*
X15550722Y-56105297D01*
X15552882Y-56090736D01*
X15556459Y-56076457D01*
X15561418Y-56062597D01*
X15567712Y-56049290D01*
X15575280Y-56036664D01*
X15584048Y-56024841D01*
X15593934Y-56013934D01*
X15604841Y-56004048D01*
X15616664Y-55995280D01*
X15629290Y-55987712D01*
X15642597Y-55981418D01*
X15656457Y-55976459D01*
X15670736Y-55972882D01*
X15685297Y-55970722D01*
X15700000Y-55970000D01*
X17350000Y-55970000D01*
X17364703Y-55970722D01*
X17364703Y-55970722D01*
G37*
D12*
X16525000Y-56270000D03*
D10*
G36*
X17364703Y-54700722D02*
X17379264Y-54702882D01*
X17393543Y-54706459D01*
X17407403Y-54711418D01*
X17420710Y-54717712D01*
X17433336Y-54725280D01*
X17445159Y-54734048D01*
X17456066Y-54743934D01*
X17465952Y-54754841D01*
X17474720Y-54766664D01*
X17482288Y-54779290D01*
X17488582Y-54792597D01*
X17493541Y-54806457D01*
X17497118Y-54820736D01*
X17499278Y-54835297D01*
X17500000Y-54850000D01*
X17500000Y-55150000D01*
X17499278Y-55164703D01*
X17497118Y-55179264D01*
X17493541Y-55193543D01*
X17488582Y-55207403D01*
X17482288Y-55220710D01*
X17474720Y-55233336D01*
X17465952Y-55245159D01*
X17456066Y-55256066D01*
X17445159Y-55265952D01*
X17433336Y-55274720D01*
X17420710Y-55282288D01*
X17407403Y-55288582D01*
X17393543Y-55293541D01*
X17379264Y-55297118D01*
X17364703Y-55299278D01*
X17350000Y-55300000D01*
X15700000Y-55300000D01*
X15685297Y-55299278D01*
X15670736Y-55297118D01*
X15656457Y-55293541D01*
X15642597Y-55288582D01*
X15629290Y-55282288D01*
X15616664Y-55274720D01*
X15604841Y-55265952D01*
X15593934Y-55256066D01*
X15584048Y-55245159D01*
X15575280Y-55233336D01*
X15567712Y-55220710D01*
X15561418Y-55207403D01*
X15556459Y-55193543D01*
X15552882Y-55179264D01*
X15550722Y-55164703D01*
X15550000Y-55150000D01*
X15550000Y-54850000D01*
X15550722Y-54835297D01*
X15552882Y-54820736D01*
X15556459Y-54806457D01*
X15561418Y-54792597D01*
X15567712Y-54779290D01*
X15575280Y-54766664D01*
X15584048Y-54754841D01*
X15593934Y-54743934D01*
X15604841Y-54734048D01*
X15616664Y-54725280D01*
X15629290Y-54717712D01*
X15642597Y-54711418D01*
X15656457Y-54706459D01*
X15670736Y-54702882D01*
X15685297Y-54700722D01*
X15700000Y-54700000D01*
X17350000Y-54700000D01*
X17364703Y-54700722D01*
X17364703Y-54700722D01*
G37*
D12*
X16525000Y-55000000D03*
D10*
G36*
X17364703Y-53430722D02*
X17379264Y-53432882D01*
X17393543Y-53436459D01*
X17407403Y-53441418D01*
X17420710Y-53447712D01*
X17433336Y-53455280D01*
X17445159Y-53464048D01*
X17456066Y-53473934D01*
X17465952Y-53484841D01*
X17474720Y-53496664D01*
X17482288Y-53509290D01*
X17488582Y-53522597D01*
X17493541Y-53536457D01*
X17497118Y-53550736D01*
X17499278Y-53565297D01*
X17500000Y-53580000D01*
X17500000Y-53880000D01*
X17499278Y-53894703D01*
X17497118Y-53909264D01*
X17493541Y-53923543D01*
X17488582Y-53937403D01*
X17482288Y-53950710D01*
X17474720Y-53963336D01*
X17465952Y-53975159D01*
X17456066Y-53986066D01*
X17445159Y-53995952D01*
X17433336Y-54004720D01*
X17420710Y-54012288D01*
X17407403Y-54018582D01*
X17393543Y-54023541D01*
X17379264Y-54027118D01*
X17364703Y-54029278D01*
X17350000Y-54030000D01*
X15700000Y-54030000D01*
X15685297Y-54029278D01*
X15670736Y-54027118D01*
X15656457Y-54023541D01*
X15642597Y-54018582D01*
X15629290Y-54012288D01*
X15616664Y-54004720D01*
X15604841Y-53995952D01*
X15593934Y-53986066D01*
X15584048Y-53975159D01*
X15575280Y-53963336D01*
X15567712Y-53950710D01*
X15561418Y-53937403D01*
X15556459Y-53923543D01*
X15552882Y-53909264D01*
X15550722Y-53894703D01*
X15550000Y-53880000D01*
X15550000Y-53580000D01*
X15550722Y-53565297D01*
X15552882Y-53550736D01*
X15556459Y-53536457D01*
X15561418Y-53522597D01*
X15567712Y-53509290D01*
X15575280Y-53496664D01*
X15584048Y-53484841D01*
X15593934Y-53473934D01*
X15604841Y-53464048D01*
X15616664Y-53455280D01*
X15629290Y-53447712D01*
X15642597Y-53441418D01*
X15656457Y-53436459D01*
X15670736Y-53432882D01*
X15685297Y-53430722D01*
X15700000Y-53430000D01*
X17350000Y-53430000D01*
X17364703Y-53430722D01*
X17364703Y-53430722D01*
G37*
D12*
X16525000Y-53730000D03*
D10*
G36*
X17364703Y-52160722D02*
X17379264Y-52162882D01*
X17393543Y-52166459D01*
X17407403Y-52171418D01*
X17420710Y-52177712D01*
X17433336Y-52185280D01*
X17445159Y-52194048D01*
X17456066Y-52203934D01*
X17465952Y-52214841D01*
X17474720Y-52226664D01*
X17482288Y-52239290D01*
X17488582Y-52252597D01*
X17493541Y-52266457D01*
X17497118Y-52280736D01*
X17499278Y-52295297D01*
X17500000Y-52310000D01*
X17500000Y-52610000D01*
X17499278Y-52624703D01*
X17497118Y-52639264D01*
X17493541Y-52653543D01*
X17488582Y-52667403D01*
X17482288Y-52680710D01*
X17474720Y-52693336D01*
X17465952Y-52705159D01*
X17456066Y-52716066D01*
X17445159Y-52725952D01*
X17433336Y-52734720D01*
X17420710Y-52742288D01*
X17407403Y-52748582D01*
X17393543Y-52753541D01*
X17379264Y-52757118D01*
X17364703Y-52759278D01*
X17350000Y-52760000D01*
X15700000Y-52760000D01*
X15685297Y-52759278D01*
X15670736Y-52757118D01*
X15656457Y-52753541D01*
X15642597Y-52748582D01*
X15629290Y-52742288D01*
X15616664Y-52734720D01*
X15604841Y-52725952D01*
X15593934Y-52716066D01*
X15584048Y-52705159D01*
X15575280Y-52693336D01*
X15567712Y-52680710D01*
X15561418Y-52667403D01*
X15556459Y-52653543D01*
X15552882Y-52639264D01*
X15550722Y-52624703D01*
X15550000Y-52610000D01*
X15550000Y-52310000D01*
X15550722Y-52295297D01*
X15552882Y-52280736D01*
X15556459Y-52266457D01*
X15561418Y-52252597D01*
X15567712Y-52239290D01*
X15575280Y-52226664D01*
X15584048Y-52214841D01*
X15593934Y-52203934D01*
X15604841Y-52194048D01*
X15616664Y-52185280D01*
X15629290Y-52177712D01*
X15642597Y-52171418D01*
X15656457Y-52166459D01*
X15670736Y-52162882D01*
X15685297Y-52160722D01*
X15700000Y-52160000D01*
X17350000Y-52160000D01*
X17364703Y-52160722D01*
X17364703Y-52160722D01*
G37*
D12*
X16525000Y-52460000D03*
D10*
G36*
X17364703Y-50890722D02*
X17379264Y-50892882D01*
X17393543Y-50896459D01*
X17407403Y-50901418D01*
X17420710Y-50907712D01*
X17433336Y-50915280D01*
X17445159Y-50924048D01*
X17456066Y-50933934D01*
X17465952Y-50944841D01*
X17474720Y-50956664D01*
X17482288Y-50969290D01*
X17488582Y-50982597D01*
X17493541Y-50996457D01*
X17497118Y-51010736D01*
X17499278Y-51025297D01*
X17500000Y-51040000D01*
X17500000Y-51340000D01*
X17499278Y-51354703D01*
X17497118Y-51369264D01*
X17493541Y-51383543D01*
X17488582Y-51397403D01*
X17482288Y-51410710D01*
X17474720Y-51423336D01*
X17465952Y-51435159D01*
X17456066Y-51446066D01*
X17445159Y-51455952D01*
X17433336Y-51464720D01*
X17420710Y-51472288D01*
X17407403Y-51478582D01*
X17393543Y-51483541D01*
X17379264Y-51487118D01*
X17364703Y-51489278D01*
X17350000Y-51490000D01*
X15700000Y-51490000D01*
X15685297Y-51489278D01*
X15670736Y-51487118D01*
X15656457Y-51483541D01*
X15642597Y-51478582D01*
X15629290Y-51472288D01*
X15616664Y-51464720D01*
X15604841Y-51455952D01*
X15593934Y-51446066D01*
X15584048Y-51435159D01*
X15575280Y-51423336D01*
X15567712Y-51410710D01*
X15561418Y-51397403D01*
X15556459Y-51383543D01*
X15552882Y-51369264D01*
X15550722Y-51354703D01*
X15550000Y-51340000D01*
X15550000Y-51040000D01*
X15550722Y-51025297D01*
X15552882Y-51010736D01*
X15556459Y-50996457D01*
X15561418Y-50982597D01*
X15567712Y-50969290D01*
X15575280Y-50956664D01*
X15584048Y-50944841D01*
X15593934Y-50933934D01*
X15604841Y-50924048D01*
X15616664Y-50915280D01*
X15629290Y-50907712D01*
X15642597Y-50901418D01*
X15656457Y-50896459D01*
X15670736Y-50892882D01*
X15685297Y-50890722D01*
X15700000Y-50890000D01*
X17350000Y-50890000D01*
X17364703Y-50890722D01*
X17364703Y-50890722D01*
G37*
D12*
X16525000Y-51190000D03*
G04 #@! TD*
D10*
G04 #@! TO.C,U5*
G36*
X4864703Y-73140722D02*
X4879264Y-73142882D01*
X4893543Y-73146459D01*
X4907403Y-73151418D01*
X4920710Y-73157712D01*
X4933336Y-73165280D01*
X4945159Y-73174048D01*
X4956066Y-73183934D01*
X4965952Y-73194841D01*
X4974720Y-73206664D01*
X4982288Y-73219290D01*
X4988582Y-73232597D01*
X4993541Y-73246457D01*
X4997118Y-73260736D01*
X4999278Y-73275297D01*
X5000000Y-73290000D01*
X5000000Y-73590000D01*
X4999278Y-73604703D01*
X4997118Y-73619264D01*
X4993541Y-73633543D01*
X4988582Y-73647403D01*
X4982288Y-73660710D01*
X4974720Y-73673336D01*
X4965952Y-73685159D01*
X4956066Y-73696066D01*
X4945159Y-73705952D01*
X4933336Y-73714720D01*
X4920710Y-73722288D01*
X4907403Y-73728582D01*
X4893543Y-73733541D01*
X4879264Y-73737118D01*
X4864703Y-73739278D01*
X4850000Y-73740000D01*
X3200000Y-73740000D01*
X3185297Y-73739278D01*
X3170736Y-73737118D01*
X3156457Y-73733541D01*
X3142597Y-73728582D01*
X3129290Y-73722288D01*
X3116664Y-73714720D01*
X3104841Y-73705952D01*
X3093934Y-73696066D01*
X3084048Y-73685159D01*
X3075280Y-73673336D01*
X3067712Y-73660710D01*
X3061418Y-73647403D01*
X3056459Y-73633543D01*
X3052882Y-73619264D01*
X3050722Y-73604703D01*
X3050000Y-73590000D01*
X3050000Y-73290000D01*
X3050722Y-73275297D01*
X3052882Y-73260736D01*
X3056459Y-73246457D01*
X3061418Y-73232597D01*
X3067712Y-73219290D01*
X3075280Y-73206664D01*
X3084048Y-73194841D01*
X3093934Y-73183934D01*
X3104841Y-73174048D01*
X3116664Y-73165280D01*
X3129290Y-73157712D01*
X3142597Y-73151418D01*
X3156457Y-73146459D01*
X3170736Y-73142882D01*
X3185297Y-73140722D01*
X3200000Y-73140000D01*
X4850000Y-73140000D01*
X4864703Y-73140722D01*
X4864703Y-73140722D01*
G37*
D12*
X4025000Y-73440000D03*
D10*
G36*
X4864703Y-74410722D02*
X4879264Y-74412882D01*
X4893543Y-74416459D01*
X4907403Y-74421418D01*
X4920710Y-74427712D01*
X4933336Y-74435280D01*
X4945159Y-74444048D01*
X4956066Y-74453934D01*
X4965952Y-74464841D01*
X4974720Y-74476664D01*
X4982288Y-74489290D01*
X4988582Y-74502597D01*
X4993541Y-74516457D01*
X4997118Y-74530736D01*
X4999278Y-74545297D01*
X5000000Y-74560000D01*
X5000000Y-74860000D01*
X4999278Y-74874703D01*
X4997118Y-74889264D01*
X4993541Y-74903543D01*
X4988582Y-74917403D01*
X4982288Y-74930710D01*
X4974720Y-74943336D01*
X4965952Y-74955159D01*
X4956066Y-74966066D01*
X4945159Y-74975952D01*
X4933336Y-74984720D01*
X4920710Y-74992288D01*
X4907403Y-74998582D01*
X4893543Y-75003541D01*
X4879264Y-75007118D01*
X4864703Y-75009278D01*
X4850000Y-75010000D01*
X3200000Y-75010000D01*
X3185297Y-75009278D01*
X3170736Y-75007118D01*
X3156457Y-75003541D01*
X3142597Y-74998582D01*
X3129290Y-74992288D01*
X3116664Y-74984720D01*
X3104841Y-74975952D01*
X3093934Y-74966066D01*
X3084048Y-74955159D01*
X3075280Y-74943336D01*
X3067712Y-74930710D01*
X3061418Y-74917403D01*
X3056459Y-74903543D01*
X3052882Y-74889264D01*
X3050722Y-74874703D01*
X3050000Y-74860000D01*
X3050000Y-74560000D01*
X3050722Y-74545297D01*
X3052882Y-74530736D01*
X3056459Y-74516457D01*
X3061418Y-74502597D01*
X3067712Y-74489290D01*
X3075280Y-74476664D01*
X3084048Y-74464841D01*
X3093934Y-74453934D01*
X3104841Y-74444048D01*
X3116664Y-74435280D01*
X3129290Y-74427712D01*
X3142597Y-74421418D01*
X3156457Y-74416459D01*
X3170736Y-74412882D01*
X3185297Y-74410722D01*
X3200000Y-74410000D01*
X4850000Y-74410000D01*
X4864703Y-74410722D01*
X4864703Y-74410722D01*
G37*
D12*
X4025000Y-74710000D03*
D10*
G36*
X4864703Y-75680722D02*
X4879264Y-75682882D01*
X4893543Y-75686459D01*
X4907403Y-75691418D01*
X4920710Y-75697712D01*
X4933336Y-75705280D01*
X4945159Y-75714048D01*
X4956066Y-75723934D01*
X4965952Y-75734841D01*
X4974720Y-75746664D01*
X4982288Y-75759290D01*
X4988582Y-75772597D01*
X4993541Y-75786457D01*
X4997118Y-75800736D01*
X4999278Y-75815297D01*
X5000000Y-75830000D01*
X5000000Y-76130000D01*
X4999278Y-76144703D01*
X4997118Y-76159264D01*
X4993541Y-76173543D01*
X4988582Y-76187403D01*
X4982288Y-76200710D01*
X4974720Y-76213336D01*
X4965952Y-76225159D01*
X4956066Y-76236066D01*
X4945159Y-76245952D01*
X4933336Y-76254720D01*
X4920710Y-76262288D01*
X4907403Y-76268582D01*
X4893543Y-76273541D01*
X4879264Y-76277118D01*
X4864703Y-76279278D01*
X4850000Y-76280000D01*
X3200000Y-76280000D01*
X3185297Y-76279278D01*
X3170736Y-76277118D01*
X3156457Y-76273541D01*
X3142597Y-76268582D01*
X3129290Y-76262288D01*
X3116664Y-76254720D01*
X3104841Y-76245952D01*
X3093934Y-76236066D01*
X3084048Y-76225159D01*
X3075280Y-76213336D01*
X3067712Y-76200710D01*
X3061418Y-76187403D01*
X3056459Y-76173543D01*
X3052882Y-76159264D01*
X3050722Y-76144703D01*
X3050000Y-76130000D01*
X3050000Y-75830000D01*
X3050722Y-75815297D01*
X3052882Y-75800736D01*
X3056459Y-75786457D01*
X3061418Y-75772597D01*
X3067712Y-75759290D01*
X3075280Y-75746664D01*
X3084048Y-75734841D01*
X3093934Y-75723934D01*
X3104841Y-75714048D01*
X3116664Y-75705280D01*
X3129290Y-75697712D01*
X3142597Y-75691418D01*
X3156457Y-75686459D01*
X3170736Y-75682882D01*
X3185297Y-75680722D01*
X3200000Y-75680000D01*
X4850000Y-75680000D01*
X4864703Y-75680722D01*
X4864703Y-75680722D01*
G37*
D12*
X4025000Y-75980000D03*
D10*
G36*
X4864703Y-76950722D02*
X4879264Y-76952882D01*
X4893543Y-76956459D01*
X4907403Y-76961418D01*
X4920710Y-76967712D01*
X4933336Y-76975280D01*
X4945159Y-76984048D01*
X4956066Y-76993934D01*
X4965952Y-77004841D01*
X4974720Y-77016664D01*
X4982288Y-77029290D01*
X4988582Y-77042597D01*
X4993541Y-77056457D01*
X4997118Y-77070736D01*
X4999278Y-77085297D01*
X5000000Y-77100000D01*
X5000000Y-77400000D01*
X4999278Y-77414703D01*
X4997118Y-77429264D01*
X4993541Y-77443543D01*
X4988582Y-77457403D01*
X4982288Y-77470710D01*
X4974720Y-77483336D01*
X4965952Y-77495159D01*
X4956066Y-77506066D01*
X4945159Y-77515952D01*
X4933336Y-77524720D01*
X4920710Y-77532288D01*
X4907403Y-77538582D01*
X4893543Y-77543541D01*
X4879264Y-77547118D01*
X4864703Y-77549278D01*
X4850000Y-77550000D01*
X3200000Y-77550000D01*
X3185297Y-77549278D01*
X3170736Y-77547118D01*
X3156457Y-77543541D01*
X3142597Y-77538582D01*
X3129290Y-77532288D01*
X3116664Y-77524720D01*
X3104841Y-77515952D01*
X3093934Y-77506066D01*
X3084048Y-77495159D01*
X3075280Y-77483336D01*
X3067712Y-77470710D01*
X3061418Y-77457403D01*
X3056459Y-77443543D01*
X3052882Y-77429264D01*
X3050722Y-77414703D01*
X3050000Y-77400000D01*
X3050000Y-77100000D01*
X3050722Y-77085297D01*
X3052882Y-77070736D01*
X3056459Y-77056457D01*
X3061418Y-77042597D01*
X3067712Y-77029290D01*
X3075280Y-77016664D01*
X3084048Y-77004841D01*
X3093934Y-76993934D01*
X3104841Y-76984048D01*
X3116664Y-76975280D01*
X3129290Y-76967712D01*
X3142597Y-76961418D01*
X3156457Y-76956459D01*
X3170736Y-76952882D01*
X3185297Y-76950722D01*
X3200000Y-76950000D01*
X4850000Y-76950000D01*
X4864703Y-76950722D01*
X4864703Y-76950722D01*
G37*
D12*
X4025000Y-77250000D03*
D10*
G36*
X4864703Y-78220722D02*
X4879264Y-78222882D01*
X4893543Y-78226459D01*
X4907403Y-78231418D01*
X4920710Y-78237712D01*
X4933336Y-78245280D01*
X4945159Y-78254048D01*
X4956066Y-78263934D01*
X4965952Y-78274841D01*
X4974720Y-78286664D01*
X4982288Y-78299290D01*
X4988582Y-78312597D01*
X4993541Y-78326457D01*
X4997118Y-78340736D01*
X4999278Y-78355297D01*
X5000000Y-78370000D01*
X5000000Y-78670000D01*
X4999278Y-78684703D01*
X4997118Y-78699264D01*
X4993541Y-78713543D01*
X4988582Y-78727403D01*
X4982288Y-78740710D01*
X4974720Y-78753336D01*
X4965952Y-78765159D01*
X4956066Y-78776066D01*
X4945159Y-78785952D01*
X4933336Y-78794720D01*
X4920710Y-78802288D01*
X4907403Y-78808582D01*
X4893543Y-78813541D01*
X4879264Y-78817118D01*
X4864703Y-78819278D01*
X4850000Y-78820000D01*
X3200000Y-78820000D01*
X3185297Y-78819278D01*
X3170736Y-78817118D01*
X3156457Y-78813541D01*
X3142597Y-78808582D01*
X3129290Y-78802288D01*
X3116664Y-78794720D01*
X3104841Y-78785952D01*
X3093934Y-78776066D01*
X3084048Y-78765159D01*
X3075280Y-78753336D01*
X3067712Y-78740710D01*
X3061418Y-78727403D01*
X3056459Y-78713543D01*
X3052882Y-78699264D01*
X3050722Y-78684703D01*
X3050000Y-78670000D01*
X3050000Y-78370000D01*
X3050722Y-78355297D01*
X3052882Y-78340736D01*
X3056459Y-78326457D01*
X3061418Y-78312597D01*
X3067712Y-78299290D01*
X3075280Y-78286664D01*
X3084048Y-78274841D01*
X3093934Y-78263934D01*
X3104841Y-78254048D01*
X3116664Y-78245280D01*
X3129290Y-78237712D01*
X3142597Y-78231418D01*
X3156457Y-78226459D01*
X3170736Y-78222882D01*
X3185297Y-78220722D01*
X3200000Y-78220000D01*
X4850000Y-78220000D01*
X4864703Y-78220722D01*
X4864703Y-78220722D01*
G37*
D12*
X4025000Y-78520000D03*
D10*
G36*
X4864703Y-79490722D02*
X4879264Y-79492882D01*
X4893543Y-79496459D01*
X4907403Y-79501418D01*
X4920710Y-79507712D01*
X4933336Y-79515280D01*
X4945159Y-79524048D01*
X4956066Y-79533934D01*
X4965952Y-79544841D01*
X4974720Y-79556664D01*
X4982288Y-79569290D01*
X4988582Y-79582597D01*
X4993541Y-79596457D01*
X4997118Y-79610736D01*
X4999278Y-79625297D01*
X5000000Y-79640000D01*
X5000000Y-79940000D01*
X4999278Y-79954703D01*
X4997118Y-79969264D01*
X4993541Y-79983543D01*
X4988582Y-79997403D01*
X4982288Y-80010710D01*
X4974720Y-80023336D01*
X4965952Y-80035159D01*
X4956066Y-80046066D01*
X4945159Y-80055952D01*
X4933336Y-80064720D01*
X4920710Y-80072288D01*
X4907403Y-80078582D01*
X4893543Y-80083541D01*
X4879264Y-80087118D01*
X4864703Y-80089278D01*
X4850000Y-80090000D01*
X3200000Y-80090000D01*
X3185297Y-80089278D01*
X3170736Y-80087118D01*
X3156457Y-80083541D01*
X3142597Y-80078582D01*
X3129290Y-80072288D01*
X3116664Y-80064720D01*
X3104841Y-80055952D01*
X3093934Y-80046066D01*
X3084048Y-80035159D01*
X3075280Y-80023336D01*
X3067712Y-80010710D01*
X3061418Y-79997403D01*
X3056459Y-79983543D01*
X3052882Y-79969264D01*
X3050722Y-79954703D01*
X3050000Y-79940000D01*
X3050000Y-79640000D01*
X3050722Y-79625297D01*
X3052882Y-79610736D01*
X3056459Y-79596457D01*
X3061418Y-79582597D01*
X3067712Y-79569290D01*
X3075280Y-79556664D01*
X3084048Y-79544841D01*
X3093934Y-79533934D01*
X3104841Y-79524048D01*
X3116664Y-79515280D01*
X3129290Y-79507712D01*
X3142597Y-79501418D01*
X3156457Y-79496459D01*
X3170736Y-79492882D01*
X3185297Y-79490722D01*
X3200000Y-79490000D01*
X4850000Y-79490000D01*
X4864703Y-79490722D01*
X4864703Y-79490722D01*
G37*
D12*
X4025000Y-79790000D03*
D10*
G36*
X4864703Y-80760722D02*
X4879264Y-80762882D01*
X4893543Y-80766459D01*
X4907403Y-80771418D01*
X4920710Y-80777712D01*
X4933336Y-80785280D01*
X4945159Y-80794048D01*
X4956066Y-80803934D01*
X4965952Y-80814841D01*
X4974720Y-80826664D01*
X4982288Y-80839290D01*
X4988582Y-80852597D01*
X4993541Y-80866457D01*
X4997118Y-80880736D01*
X4999278Y-80895297D01*
X5000000Y-80910000D01*
X5000000Y-81210000D01*
X4999278Y-81224703D01*
X4997118Y-81239264D01*
X4993541Y-81253543D01*
X4988582Y-81267403D01*
X4982288Y-81280710D01*
X4974720Y-81293336D01*
X4965952Y-81305159D01*
X4956066Y-81316066D01*
X4945159Y-81325952D01*
X4933336Y-81334720D01*
X4920710Y-81342288D01*
X4907403Y-81348582D01*
X4893543Y-81353541D01*
X4879264Y-81357118D01*
X4864703Y-81359278D01*
X4850000Y-81360000D01*
X3200000Y-81360000D01*
X3185297Y-81359278D01*
X3170736Y-81357118D01*
X3156457Y-81353541D01*
X3142597Y-81348582D01*
X3129290Y-81342288D01*
X3116664Y-81334720D01*
X3104841Y-81325952D01*
X3093934Y-81316066D01*
X3084048Y-81305159D01*
X3075280Y-81293336D01*
X3067712Y-81280710D01*
X3061418Y-81267403D01*
X3056459Y-81253543D01*
X3052882Y-81239264D01*
X3050722Y-81224703D01*
X3050000Y-81210000D01*
X3050000Y-80910000D01*
X3050722Y-80895297D01*
X3052882Y-80880736D01*
X3056459Y-80866457D01*
X3061418Y-80852597D01*
X3067712Y-80839290D01*
X3075280Y-80826664D01*
X3084048Y-80814841D01*
X3093934Y-80803934D01*
X3104841Y-80794048D01*
X3116664Y-80785280D01*
X3129290Y-80777712D01*
X3142597Y-80771418D01*
X3156457Y-80766459D01*
X3170736Y-80762882D01*
X3185297Y-80760722D01*
X3200000Y-80760000D01*
X4850000Y-80760000D01*
X4864703Y-80760722D01*
X4864703Y-80760722D01*
G37*
D12*
X4025000Y-81060000D03*
D10*
G36*
X9814703Y-80760722D02*
X9829264Y-80762882D01*
X9843543Y-80766459D01*
X9857403Y-80771418D01*
X9870710Y-80777712D01*
X9883336Y-80785280D01*
X9895159Y-80794048D01*
X9906066Y-80803934D01*
X9915952Y-80814841D01*
X9924720Y-80826664D01*
X9932288Y-80839290D01*
X9938582Y-80852597D01*
X9943541Y-80866457D01*
X9947118Y-80880736D01*
X9949278Y-80895297D01*
X9950000Y-80910000D01*
X9950000Y-81210000D01*
X9949278Y-81224703D01*
X9947118Y-81239264D01*
X9943541Y-81253543D01*
X9938582Y-81267403D01*
X9932288Y-81280710D01*
X9924720Y-81293336D01*
X9915952Y-81305159D01*
X9906066Y-81316066D01*
X9895159Y-81325952D01*
X9883336Y-81334720D01*
X9870710Y-81342288D01*
X9857403Y-81348582D01*
X9843543Y-81353541D01*
X9829264Y-81357118D01*
X9814703Y-81359278D01*
X9800000Y-81360000D01*
X8150000Y-81360000D01*
X8135297Y-81359278D01*
X8120736Y-81357118D01*
X8106457Y-81353541D01*
X8092597Y-81348582D01*
X8079290Y-81342288D01*
X8066664Y-81334720D01*
X8054841Y-81325952D01*
X8043934Y-81316066D01*
X8034048Y-81305159D01*
X8025280Y-81293336D01*
X8017712Y-81280710D01*
X8011418Y-81267403D01*
X8006459Y-81253543D01*
X8002882Y-81239264D01*
X8000722Y-81224703D01*
X8000000Y-81210000D01*
X8000000Y-80910000D01*
X8000722Y-80895297D01*
X8002882Y-80880736D01*
X8006459Y-80866457D01*
X8011418Y-80852597D01*
X8017712Y-80839290D01*
X8025280Y-80826664D01*
X8034048Y-80814841D01*
X8043934Y-80803934D01*
X8054841Y-80794048D01*
X8066664Y-80785280D01*
X8079290Y-80777712D01*
X8092597Y-80771418D01*
X8106457Y-80766459D01*
X8120736Y-80762882D01*
X8135297Y-80760722D01*
X8150000Y-80760000D01*
X9800000Y-80760000D01*
X9814703Y-80760722D01*
X9814703Y-80760722D01*
G37*
D12*
X8975000Y-81060000D03*
D10*
G36*
X9814703Y-79490722D02*
X9829264Y-79492882D01*
X9843543Y-79496459D01*
X9857403Y-79501418D01*
X9870710Y-79507712D01*
X9883336Y-79515280D01*
X9895159Y-79524048D01*
X9906066Y-79533934D01*
X9915952Y-79544841D01*
X9924720Y-79556664D01*
X9932288Y-79569290D01*
X9938582Y-79582597D01*
X9943541Y-79596457D01*
X9947118Y-79610736D01*
X9949278Y-79625297D01*
X9950000Y-79640000D01*
X9950000Y-79940000D01*
X9949278Y-79954703D01*
X9947118Y-79969264D01*
X9943541Y-79983543D01*
X9938582Y-79997403D01*
X9932288Y-80010710D01*
X9924720Y-80023336D01*
X9915952Y-80035159D01*
X9906066Y-80046066D01*
X9895159Y-80055952D01*
X9883336Y-80064720D01*
X9870710Y-80072288D01*
X9857403Y-80078582D01*
X9843543Y-80083541D01*
X9829264Y-80087118D01*
X9814703Y-80089278D01*
X9800000Y-80090000D01*
X8150000Y-80090000D01*
X8135297Y-80089278D01*
X8120736Y-80087118D01*
X8106457Y-80083541D01*
X8092597Y-80078582D01*
X8079290Y-80072288D01*
X8066664Y-80064720D01*
X8054841Y-80055952D01*
X8043934Y-80046066D01*
X8034048Y-80035159D01*
X8025280Y-80023336D01*
X8017712Y-80010710D01*
X8011418Y-79997403D01*
X8006459Y-79983543D01*
X8002882Y-79969264D01*
X8000722Y-79954703D01*
X8000000Y-79940000D01*
X8000000Y-79640000D01*
X8000722Y-79625297D01*
X8002882Y-79610736D01*
X8006459Y-79596457D01*
X8011418Y-79582597D01*
X8017712Y-79569290D01*
X8025280Y-79556664D01*
X8034048Y-79544841D01*
X8043934Y-79533934D01*
X8054841Y-79524048D01*
X8066664Y-79515280D01*
X8079290Y-79507712D01*
X8092597Y-79501418D01*
X8106457Y-79496459D01*
X8120736Y-79492882D01*
X8135297Y-79490722D01*
X8150000Y-79490000D01*
X9800000Y-79490000D01*
X9814703Y-79490722D01*
X9814703Y-79490722D01*
G37*
D12*
X8975000Y-79790000D03*
D10*
G36*
X9814703Y-78220722D02*
X9829264Y-78222882D01*
X9843543Y-78226459D01*
X9857403Y-78231418D01*
X9870710Y-78237712D01*
X9883336Y-78245280D01*
X9895159Y-78254048D01*
X9906066Y-78263934D01*
X9915952Y-78274841D01*
X9924720Y-78286664D01*
X9932288Y-78299290D01*
X9938582Y-78312597D01*
X9943541Y-78326457D01*
X9947118Y-78340736D01*
X9949278Y-78355297D01*
X9950000Y-78370000D01*
X9950000Y-78670000D01*
X9949278Y-78684703D01*
X9947118Y-78699264D01*
X9943541Y-78713543D01*
X9938582Y-78727403D01*
X9932288Y-78740710D01*
X9924720Y-78753336D01*
X9915952Y-78765159D01*
X9906066Y-78776066D01*
X9895159Y-78785952D01*
X9883336Y-78794720D01*
X9870710Y-78802288D01*
X9857403Y-78808582D01*
X9843543Y-78813541D01*
X9829264Y-78817118D01*
X9814703Y-78819278D01*
X9800000Y-78820000D01*
X8150000Y-78820000D01*
X8135297Y-78819278D01*
X8120736Y-78817118D01*
X8106457Y-78813541D01*
X8092597Y-78808582D01*
X8079290Y-78802288D01*
X8066664Y-78794720D01*
X8054841Y-78785952D01*
X8043934Y-78776066D01*
X8034048Y-78765159D01*
X8025280Y-78753336D01*
X8017712Y-78740710D01*
X8011418Y-78727403D01*
X8006459Y-78713543D01*
X8002882Y-78699264D01*
X8000722Y-78684703D01*
X8000000Y-78670000D01*
X8000000Y-78370000D01*
X8000722Y-78355297D01*
X8002882Y-78340736D01*
X8006459Y-78326457D01*
X8011418Y-78312597D01*
X8017712Y-78299290D01*
X8025280Y-78286664D01*
X8034048Y-78274841D01*
X8043934Y-78263934D01*
X8054841Y-78254048D01*
X8066664Y-78245280D01*
X8079290Y-78237712D01*
X8092597Y-78231418D01*
X8106457Y-78226459D01*
X8120736Y-78222882D01*
X8135297Y-78220722D01*
X8150000Y-78220000D01*
X9800000Y-78220000D01*
X9814703Y-78220722D01*
X9814703Y-78220722D01*
G37*
D12*
X8975000Y-78520000D03*
D10*
G36*
X9814703Y-76950722D02*
X9829264Y-76952882D01*
X9843543Y-76956459D01*
X9857403Y-76961418D01*
X9870710Y-76967712D01*
X9883336Y-76975280D01*
X9895159Y-76984048D01*
X9906066Y-76993934D01*
X9915952Y-77004841D01*
X9924720Y-77016664D01*
X9932288Y-77029290D01*
X9938582Y-77042597D01*
X9943541Y-77056457D01*
X9947118Y-77070736D01*
X9949278Y-77085297D01*
X9950000Y-77100000D01*
X9950000Y-77400000D01*
X9949278Y-77414703D01*
X9947118Y-77429264D01*
X9943541Y-77443543D01*
X9938582Y-77457403D01*
X9932288Y-77470710D01*
X9924720Y-77483336D01*
X9915952Y-77495159D01*
X9906066Y-77506066D01*
X9895159Y-77515952D01*
X9883336Y-77524720D01*
X9870710Y-77532288D01*
X9857403Y-77538582D01*
X9843543Y-77543541D01*
X9829264Y-77547118D01*
X9814703Y-77549278D01*
X9800000Y-77550000D01*
X8150000Y-77550000D01*
X8135297Y-77549278D01*
X8120736Y-77547118D01*
X8106457Y-77543541D01*
X8092597Y-77538582D01*
X8079290Y-77532288D01*
X8066664Y-77524720D01*
X8054841Y-77515952D01*
X8043934Y-77506066D01*
X8034048Y-77495159D01*
X8025280Y-77483336D01*
X8017712Y-77470710D01*
X8011418Y-77457403D01*
X8006459Y-77443543D01*
X8002882Y-77429264D01*
X8000722Y-77414703D01*
X8000000Y-77400000D01*
X8000000Y-77100000D01*
X8000722Y-77085297D01*
X8002882Y-77070736D01*
X8006459Y-77056457D01*
X8011418Y-77042597D01*
X8017712Y-77029290D01*
X8025280Y-77016664D01*
X8034048Y-77004841D01*
X8043934Y-76993934D01*
X8054841Y-76984048D01*
X8066664Y-76975280D01*
X8079290Y-76967712D01*
X8092597Y-76961418D01*
X8106457Y-76956459D01*
X8120736Y-76952882D01*
X8135297Y-76950722D01*
X8150000Y-76950000D01*
X9800000Y-76950000D01*
X9814703Y-76950722D01*
X9814703Y-76950722D01*
G37*
D12*
X8975000Y-77250000D03*
D10*
G36*
X9814703Y-75680722D02*
X9829264Y-75682882D01*
X9843543Y-75686459D01*
X9857403Y-75691418D01*
X9870710Y-75697712D01*
X9883336Y-75705280D01*
X9895159Y-75714048D01*
X9906066Y-75723934D01*
X9915952Y-75734841D01*
X9924720Y-75746664D01*
X9932288Y-75759290D01*
X9938582Y-75772597D01*
X9943541Y-75786457D01*
X9947118Y-75800736D01*
X9949278Y-75815297D01*
X9950000Y-75830000D01*
X9950000Y-76130000D01*
X9949278Y-76144703D01*
X9947118Y-76159264D01*
X9943541Y-76173543D01*
X9938582Y-76187403D01*
X9932288Y-76200710D01*
X9924720Y-76213336D01*
X9915952Y-76225159D01*
X9906066Y-76236066D01*
X9895159Y-76245952D01*
X9883336Y-76254720D01*
X9870710Y-76262288D01*
X9857403Y-76268582D01*
X9843543Y-76273541D01*
X9829264Y-76277118D01*
X9814703Y-76279278D01*
X9800000Y-76280000D01*
X8150000Y-76280000D01*
X8135297Y-76279278D01*
X8120736Y-76277118D01*
X8106457Y-76273541D01*
X8092597Y-76268582D01*
X8079290Y-76262288D01*
X8066664Y-76254720D01*
X8054841Y-76245952D01*
X8043934Y-76236066D01*
X8034048Y-76225159D01*
X8025280Y-76213336D01*
X8017712Y-76200710D01*
X8011418Y-76187403D01*
X8006459Y-76173543D01*
X8002882Y-76159264D01*
X8000722Y-76144703D01*
X8000000Y-76130000D01*
X8000000Y-75830000D01*
X8000722Y-75815297D01*
X8002882Y-75800736D01*
X8006459Y-75786457D01*
X8011418Y-75772597D01*
X8017712Y-75759290D01*
X8025280Y-75746664D01*
X8034048Y-75734841D01*
X8043934Y-75723934D01*
X8054841Y-75714048D01*
X8066664Y-75705280D01*
X8079290Y-75697712D01*
X8092597Y-75691418D01*
X8106457Y-75686459D01*
X8120736Y-75682882D01*
X8135297Y-75680722D01*
X8150000Y-75680000D01*
X9800000Y-75680000D01*
X9814703Y-75680722D01*
X9814703Y-75680722D01*
G37*
D12*
X8975000Y-75980000D03*
D10*
G36*
X9814703Y-74410722D02*
X9829264Y-74412882D01*
X9843543Y-74416459D01*
X9857403Y-74421418D01*
X9870710Y-74427712D01*
X9883336Y-74435280D01*
X9895159Y-74444048D01*
X9906066Y-74453934D01*
X9915952Y-74464841D01*
X9924720Y-74476664D01*
X9932288Y-74489290D01*
X9938582Y-74502597D01*
X9943541Y-74516457D01*
X9947118Y-74530736D01*
X9949278Y-74545297D01*
X9950000Y-74560000D01*
X9950000Y-74860000D01*
X9949278Y-74874703D01*
X9947118Y-74889264D01*
X9943541Y-74903543D01*
X9938582Y-74917403D01*
X9932288Y-74930710D01*
X9924720Y-74943336D01*
X9915952Y-74955159D01*
X9906066Y-74966066D01*
X9895159Y-74975952D01*
X9883336Y-74984720D01*
X9870710Y-74992288D01*
X9857403Y-74998582D01*
X9843543Y-75003541D01*
X9829264Y-75007118D01*
X9814703Y-75009278D01*
X9800000Y-75010000D01*
X8150000Y-75010000D01*
X8135297Y-75009278D01*
X8120736Y-75007118D01*
X8106457Y-75003541D01*
X8092597Y-74998582D01*
X8079290Y-74992288D01*
X8066664Y-74984720D01*
X8054841Y-74975952D01*
X8043934Y-74966066D01*
X8034048Y-74955159D01*
X8025280Y-74943336D01*
X8017712Y-74930710D01*
X8011418Y-74917403D01*
X8006459Y-74903543D01*
X8002882Y-74889264D01*
X8000722Y-74874703D01*
X8000000Y-74860000D01*
X8000000Y-74560000D01*
X8000722Y-74545297D01*
X8002882Y-74530736D01*
X8006459Y-74516457D01*
X8011418Y-74502597D01*
X8017712Y-74489290D01*
X8025280Y-74476664D01*
X8034048Y-74464841D01*
X8043934Y-74453934D01*
X8054841Y-74444048D01*
X8066664Y-74435280D01*
X8079290Y-74427712D01*
X8092597Y-74421418D01*
X8106457Y-74416459D01*
X8120736Y-74412882D01*
X8135297Y-74410722D01*
X8150000Y-74410000D01*
X9800000Y-74410000D01*
X9814703Y-74410722D01*
X9814703Y-74410722D01*
G37*
D12*
X8975000Y-74710000D03*
D10*
G36*
X9814703Y-73140722D02*
X9829264Y-73142882D01*
X9843543Y-73146459D01*
X9857403Y-73151418D01*
X9870710Y-73157712D01*
X9883336Y-73165280D01*
X9895159Y-73174048D01*
X9906066Y-73183934D01*
X9915952Y-73194841D01*
X9924720Y-73206664D01*
X9932288Y-73219290D01*
X9938582Y-73232597D01*
X9943541Y-73246457D01*
X9947118Y-73260736D01*
X9949278Y-73275297D01*
X9950000Y-73290000D01*
X9950000Y-73590000D01*
X9949278Y-73604703D01*
X9947118Y-73619264D01*
X9943541Y-73633543D01*
X9938582Y-73647403D01*
X9932288Y-73660710D01*
X9924720Y-73673336D01*
X9915952Y-73685159D01*
X9906066Y-73696066D01*
X9895159Y-73705952D01*
X9883336Y-73714720D01*
X9870710Y-73722288D01*
X9857403Y-73728582D01*
X9843543Y-73733541D01*
X9829264Y-73737118D01*
X9814703Y-73739278D01*
X9800000Y-73740000D01*
X8150000Y-73740000D01*
X8135297Y-73739278D01*
X8120736Y-73737118D01*
X8106457Y-73733541D01*
X8092597Y-73728582D01*
X8079290Y-73722288D01*
X8066664Y-73714720D01*
X8054841Y-73705952D01*
X8043934Y-73696066D01*
X8034048Y-73685159D01*
X8025280Y-73673336D01*
X8017712Y-73660710D01*
X8011418Y-73647403D01*
X8006459Y-73633543D01*
X8002882Y-73619264D01*
X8000722Y-73604703D01*
X8000000Y-73590000D01*
X8000000Y-73290000D01*
X8000722Y-73275297D01*
X8002882Y-73260736D01*
X8006459Y-73246457D01*
X8011418Y-73232597D01*
X8017712Y-73219290D01*
X8025280Y-73206664D01*
X8034048Y-73194841D01*
X8043934Y-73183934D01*
X8054841Y-73174048D01*
X8066664Y-73165280D01*
X8079290Y-73157712D01*
X8092597Y-73151418D01*
X8106457Y-73146459D01*
X8120736Y-73142882D01*
X8135297Y-73140722D01*
X8150000Y-73140000D01*
X9800000Y-73140000D01*
X9814703Y-73140722D01*
X9814703Y-73140722D01*
G37*
D12*
X8975000Y-73440000D03*
G04 #@! TD*
M02*
