G04 #@! TF.GenerationSoftware,KiCad,Pcbnew,(5.0.2)-1*
G04 #@! TF.CreationDate,2019-04-05T22:24:37+02:00*
G04 #@! TF.ProjectId,Corona_mainBoard,436f726f-6e61-45f6-9d61-696e426f6172,1*
G04 #@! TF.SameCoordinates,Original*
G04 #@! TF.FileFunction,Soldermask,Bot*
G04 #@! TF.FilePolarity,Negative*
%FSLAX46Y46*%
G04 Gerber Fmt 4.6, Leading zero omitted, Abs format (unit mm)*
G04 Created by KiCad (PCBNEW (5.0.2)-1) date 5-4-2019 22:24:37*
%MOMM*%
%LPD*%
G01*
G04 APERTURE LIST*
%ADD10C,0.100000*%
G04 APERTURE END LIST*
D10*
G36*
X3425770Y-104885372D02*
X3541689Y-104908429D01*
X3723678Y-104983811D01*
X3887463Y-105093249D01*
X4026751Y-105232537D01*
X4136189Y-105396322D01*
X4211571Y-105578311D01*
X4250000Y-105771509D01*
X4250000Y-105968491D01*
X4211571Y-106161689D01*
X4136189Y-106343678D01*
X4026751Y-106507463D01*
X3887463Y-106646751D01*
X3723678Y-106756189D01*
X3541689Y-106831571D01*
X3425770Y-106854628D01*
X3348493Y-106870000D01*
X3151507Y-106870000D01*
X3074230Y-106854628D01*
X2958311Y-106831571D01*
X2776322Y-106756189D01*
X2612537Y-106646751D01*
X2473249Y-106507463D01*
X2363811Y-106343678D01*
X2288429Y-106161689D01*
X2250000Y-105968491D01*
X2250000Y-105771509D01*
X2288429Y-105578311D01*
X2363811Y-105396322D01*
X2473249Y-105232537D01*
X2612537Y-105093249D01*
X2776322Y-104983811D01*
X2958311Y-104908429D01*
X3074230Y-104885372D01*
X3151507Y-104870000D01*
X3348493Y-104870000D01*
X3425770Y-104885372D01*
X3425770Y-104885372D01*
G37*
G36*
X7425770Y-104765372D02*
X7541689Y-104788429D01*
X7723678Y-104863811D01*
X7887463Y-104973249D01*
X8026751Y-105112537D01*
X8136189Y-105276322D01*
X8211571Y-105458311D01*
X8250000Y-105651509D01*
X8250000Y-105848491D01*
X8211571Y-106041689D01*
X8136189Y-106223678D01*
X8026751Y-106387463D01*
X7887463Y-106526751D01*
X7723678Y-106636189D01*
X7541689Y-106711571D01*
X7425770Y-106734628D01*
X7348493Y-106750000D01*
X7151507Y-106750000D01*
X7074230Y-106734628D01*
X6958311Y-106711571D01*
X6776322Y-106636189D01*
X6612537Y-106526751D01*
X6473249Y-106387463D01*
X6363811Y-106223678D01*
X6288429Y-106041689D01*
X6250000Y-105848491D01*
X6250000Y-105651509D01*
X6288429Y-105458311D01*
X6363811Y-105276322D01*
X6473249Y-105112537D01*
X6612537Y-104973249D01*
X6776322Y-104863811D01*
X6958311Y-104788429D01*
X7074230Y-104765372D01*
X7151507Y-104750000D01*
X7348493Y-104750000D01*
X7425770Y-104765372D01*
X7425770Y-104765372D01*
G37*
G36*
X33513286Y-104981838D02*
X33574142Y-105000298D01*
X33630226Y-105030276D01*
X33679382Y-105070618D01*
X33719724Y-105119774D01*
X33749702Y-105175858D01*
X33768162Y-105236714D01*
X33775000Y-105306141D01*
X33775000Y-106193859D01*
X33768162Y-106263286D01*
X33749702Y-106324142D01*
X33719724Y-106380226D01*
X33679382Y-106429382D01*
X33630226Y-106469724D01*
X33574142Y-106499702D01*
X33513286Y-106518162D01*
X33443859Y-106525000D01*
X32556141Y-106525000D01*
X32486714Y-106518162D01*
X32425858Y-106499702D01*
X32369774Y-106469724D01*
X32320618Y-106429382D01*
X32280276Y-106380226D01*
X32250298Y-106324142D01*
X32231838Y-106263286D01*
X32225000Y-106193859D01*
X32225000Y-105306141D01*
X32231838Y-105236714D01*
X32250298Y-105175858D01*
X32280276Y-105119774D01*
X32320618Y-105070618D01*
X32369774Y-105030276D01*
X32425858Y-105000298D01*
X32486714Y-104981838D01*
X32556141Y-104975000D01*
X33443859Y-104975000D01*
X33513286Y-104981838D01*
X33513286Y-104981838D01*
G37*
G36*
X29426059Y-105004782D02*
X29567099Y-105063203D01*
X29694037Y-105148020D01*
X29801980Y-105255963D01*
X29886797Y-105382901D01*
X29945218Y-105523941D01*
X29975000Y-105673668D01*
X29975000Y-105826332D01*
X29945218Y-105976059D01*
X29886797Y-106117099D01*
X29801980Y-106244037D01*
X29694037Y-106351980D01*
X29567099Y-106436797D01*
X29426059Y-106495218D01*
X29276332Y-106525000D01*
X29123668Y-106525000D01*
X28973941Y-106495218D01*
X28832901Y-106436797D01*
X28705963Y-106351980D01*
X28598020Y-106244037D01*
X28513203Y-106117099D01*
X28454782Y-105976059D01*
X28425000Y-105826332D01*
X28425000Y-105673668D01*
X28454782Y-105523941D01*
X28513203Y-105382901D01*
X28598020Y-105255963D01*
X28705963Y-105148020D01*
X28832901Y-105063203D01*
X28973941Y-105004782D01*
X29123668Y-104975000D01*
X29276332Y-104975000D01*
X29426059Y-105004782D01*
X29426059Y-105004782D01*
G37*
G36*
X18675770Y-102265372D02*
X18791689Y-102288429D01*
X18973678Y-102363811D01*
X19137463Y-102473249D01*
X19276751Y-102612537D01*
X19386189Y-102776322D01*
X19461571Y-102958311D01*
X19500000Y-103151509D01*
X19500000Y-103348491D01*
X19461571Y-103541689D01*
X19386189Y-103723678D01*
X19276751Y-103887463D01*
X19137463Y-104026751D01*
X18973678Y-104136189D01*
X18791689Y-104211571D01*
X18675770Y-104234628D01*
X18598493Y-104250000D01*
X18401507Y-104250000D01*
X18324230Y-104234628D01*
X18208311Y-104211571D01*
X18026322Y-104136189D01*
X17862537Y-104026751D01*
X17723249Y-103887463D01*
X17613811Y-103723678D01*
X17538429Y-103541689D01*
X17500000Y-103348491D01*
X17500000Y-103151509D01*
X17538429Y-102958311D01*
X17613811Y-102776322D01*
X17723249Y-102612537D01*
X17862537Y-102473249D01*
X18026322Y-102363811D01*
X18208311Y-102288429D01*
X18324230Y-102265372D01*
X18401507Y-102250000D01*
X18598493Y-102250000D01*
X18675770Y-102265372D01*
X18675770Y-102265372D01*
G37*
G36*
X22675770Y-102265372D02*
X22791689Y-102288429D01*
X22973678Y-102363811D01*
X23137463Y-102473249D01*
X23276751Y-102612537D01*
X23386189Y-102776322D01*
X23461571Y-102958311D01*
X23500000Y-103151509D01*
X23500000Y-103348491D01*
X23461571Y-103541689D01*
X23386189Y-103723678D01*
X23276751Y-103887463D01*
X23137463Y-104026751D01*
X22973678Y-104136189D01*
X22791689Y-104211571D01*
X22675770Y-104234628D01*
X22598493Y-104250000D01*
X22401507Y-104250000D01*
X22324230Y-104234628D01*
X22208311Y-104211571D01*
X22026322Y-104136189D01*
X21862537Y-104026751D01*
X21723249Y-103887463D01*
X21613811Y-103723678D01*
X21538429Y-103541689D01*
X21500000Y-103348491D01*
X21500000Y-103151509D01*
X21538429Y-102958311D01*
X21613811Y-102776322D01*
X21723249Y-102612537D01*
X21862537Y-102473249D01*
X22026322Y-102363811D01*
X22208311Y-102288429D01*
X22324230Y-102265372D01*
X22401507Y-102250000D01*
X22598493Y-102250000D01*
X22675770Y-102265372D01*
X22675770Y-102265372D01*
G37*
G36*
X14233352Y-102480743D02*
X14378941Y-102541048D01*
X14509973Y-102628601D01*
X14621399Y-102740027D01*
X14708952Y-102871059D01*
X14769257Y-103016648D01*
X14800000Y-103171205D01*
X14800000Y-103328795D01*
X14769257Y-103483352D01*
X14708952Y-103628941D01*
X14621399Y-103759973D01*
X14509973Y-103871399D01*
X14378941Y-103958952D01*
X14233352Y-104019257D01*
X14078795Y-104050000D01*
X13921205Y-104050000D01*
X13766648Y-104019257D01*
X13621059Y-103958952D01*
X13490027Y-103871399D01*
X13378601Y-103759973D01*
X13291048Y-103628941D01*
X13230743Y-103483352D01*
X13200000Y-103328795D01*
X13200000Y-103171205D01*
X13230743Y-103016648D01*
X13291048Y-102871059D01*
X13378601Y-102740027D01*
X13490027Y-102628601D01*
X13621059Y-102541048D01*
X13766648Y-102480743D01*
X13921205Y-102450000D01*
X14078795Y-102450000D01*
X14233352Y-102480743D01*
X14233352Y-102480743D01*
G37*
G36*
X12800000Y-104050000D02*
X11200000Y-104050000D01*
X11200000Y-102450000D01*
X12800000Y-102450000D01*
X12800000Y-104050000D01*
X12800000Y-104050000D01*
G37*
G36*
X18675770Y-97265372D02*
X18791689Y-97288429D01*
X18973678Y-97363811D01*
X19137463Y-97473249D01*
X19276751Y-97612537D01*
X19386189Y-97776322D01*
X19461571Y-97958311D01*
X19500000Y-98151509D01*
X19500000Y-98348491D01*
X19461571Y-98541689D01*
X19386189Y-98723678D01*
X19276751Y-98887463D01*
X19137463Y-99026751D01*
X18973678Y-99136189D01*
X18791689Y-99211571D01*
X18675770Y-99234628D01*
X18598493Y-99250000D01*
X18401507Y-99250000D01*
X18324230Y-99234628D01*
X18208311Y-99211571D01*
X18026322Y-99136189D01*
X17862537Y-99026751D01*
X17723249Y-98887463D01*
X17613811Y-98723678D01*
X17538429Y-98541689D01*
X17500000Y-98348491D01*
X17500000Y-98151509D01*
X17538429Y-97958311D01*
X17613811Y-97776322D01*
X17723249Y-97612537D01*
X17862537Y-97473249D01*
X18026322Y-97363811D01*
X18208311Y-97288429D01*
X18324230Y-97265372D01*
X18401507Y-97250000D01*
X18598493Y-97250000D01*
X18675770Y-97265372D01*
X18675770Y-97265372D01*
G37*
G36*
X3446030Y-97264469D02*
X3446033Y-97264470D01*
X3446034Y-97264470D01*
X3634535Y-97321651D01*
X3634537Y-97321652D01*
X3808260Y-97414509D01*
X3960528Y-97539472D01*
X4085491Y-97691740D01*
X4085492Y-97691742D01*
X4178349Y-97865465D01*
X4206513Y-97958311D01*
X4235531Y-98053970D01*
X4254838Y-98250000D01*
X4235531Y-98446030D01*
X4235530Y-98446033D01*
X4235530Y-98446034D01*
X4182334Y-98621399D01*
X4178348Y-98634537D01*
X4085491Y-98808260D01*
X3960528Y-98960528D01*
X3808260Y-99085491D01*
X3713411Y-99136189D01*
X3634535Y-99178349D01*
X3446034Y-99235530D01*
X3446033Y-99235530D01*
X3446030Y-99235531D01*
X3299124Y-99250000D01*
X3200876Y-99250000D01*
X3053970Y-99235531D01*
X3053967Y-99235530D01*
X3053966Y-99235530D01*
X2865465Y-99178349D01*
X2786589Y-99136189D01*
X2691740Y-99085491D01*
X2539472Y-98960528D01*
X2414509Y-98808260D01*
X2321652Y-98634537D01*
X2317667Y-98621399D01*
X2264470Y-98446034D01*
X2264470Y-98446033D01*
X2264469Y-98446030D01*
X2245162Y-98250000D01*
X2264469Y-98053970D01*
X2293487Y-97958311D01*
X2321651Y-97865465D01*
X2414508Y-97691742D01*
X2414509Y-97691740D01*
X2539472Y-97539472D01*
X2691740Y-97414509D01*
X2865463Y-97321652D01*
X2865465Y-97321651D01*
X3053966Y-97264470D01*
X3053967Y-97264470D01*
X3053970Y-97264469D01*
X3200876Y-97250000D01*
X3299124Y-97250000D01*
X3446030Y-97264469D01*
X3446030Y-97264469D01*
G37*
G36*
X22675770Y-97265372D02*
X22791689Y-97288429D01*
X22973678Y-97363811D01*
X23137463Y-97473249D01*
X23276751Y-97612537D01*
X23386189Y-97776322D01*
X23461571Y-97958311D01*
X23500000Y-98151509D01*
X23500000Y-98348491D01*
X23461571Y-98541689D01*
X23386189Y-98723678D01*
X23276751Y-98887463D01*
X23137463Y-99026751D01*
X22973678Y-99136189D01*
X22791689Y-99211571D01*
X22675770Y-99234628D01*
X22598493Y-99250000D01*
X22401507Y-99250000D01*
X22324230Y-99234628D01*
X22208311Y-99211571D01*
X22026322Y-99136189D01*
X21862537Y-99026751D01*
X21723249Y-98887463D01*
X21613811Y-98723678D01*
X21538429Y-98541689D01*
X21500000Y-98348491D01*
X21500000Y-98151509D01*
X21538429Y-97958311D01*
X21613811Y-97776322D01*
X21723249Y-97612537D01*
X21862537Y-97473249D01*
X22026322Y-97363811D01*
X22208311Y-97288429D01*
X22324230Y-97265372D01*
X22401507Y-97250000D01*
X22598493Y-97250000D01*
X22675770Y-97265372D01*
X22675770Y-97265372D01*
G37*
G36*
X7446030Y-97144469D02*
X7446033Y-97144470D01*
X7446034Y-97144470D01*
X7634535Y-97201651D01*
X7634537Y-97201652D01*
X7808260Y-97294509D01*
X7960528Y-97419472D01*
X8085491Y-97571740D01*
X8085492Y-97571742D01*
X8178349Y-97745465D01*
X8235530Y-97933966D01*
X8235531Y-97933970D01*
X8254838Y-98130000D01*
X8235531Y-98326030D01*
X8235530Y-98326033D01*
X8235530Y-98326034D01*
X8179733Y-98509973D01*
X8178348Y-98514537D01*
X8085491Y-98688260D01*
X7960528Y-98840528D01*
X7808260Y-98965491D01*
X7808258Y-98965492D01*
X7634535Y-99058349D01*
X7446034Y-99115530D01*
X7446033Y-99115530D01*
X7446030Y-99115531D01*
X7299124Y-99130000D01*
X7200876Y-99130000D01*
X7053970Y-99115531D01*
X7053967Y-99115530D01*
X7053966Y-99115530D01*
X6865465Y-99058349D01*
X6691742Y-98965492D01*
X6691740Y-98965491D01*
X6539472Y-98840528D01*
X6414509Y-98688260D01*
X6321652Y-98514537D01*
X6320268Y-98509973D01*
X6264470Y-98326034D01*
X6264470Y-98326033D01*
X6264469Y-98326030D01*
X6245162Y-98130000D01*
X6264469Y-97933970D01*
X6264470Y-97933966D01*
X6321651Y-97745465D01*
X6414508Y-97571742D01*
X6414509Y-97571740D01*
X6539472Y-97419472D01*
X6691740Y-97294509D01*
X6865463Y-97201652D01*
X6865465Y-97201651D01*
X7053966Y-97144470D01*
X7053967Y-97144470D01*
X7053970Y-97144469D01*
X7200876Y-97130000D01*
X7299124Y-97130000D01*
X7446030Y-97144469D01*
X7446030Y-97144469D01*
G37*
G36*
X14233352Y-97230743D02*
X14378941Y-97291048D01*
X14509973Y-97378601D01*
X14621399Y-97490027D01*
X14708952Y-97621059D01*
X14769257Y-97766648D01*
X14800000Y-97921205D01*
X14800000Y-98078795D01*
X14769257Y-98233352D01*
X14708952Y-98378941D01*
X14621399Y-98509973D01*
X14509973Y-98621399D01*
X14378941Y-98708952D01*
X14233352Y-98769257D01*
X14078795Y-98800000D01*
X13921205Y-98800000D01*
X13766648Y-98769257D01*
X13621059Y-98708952D01*
X13490027Y-98621399D01*
X13378601Y-98509973D01*
X13291048Y-98378941D01*
X13230743Y-98233352D01*
X13200000Y-98078795D01*
X13200000Y-97921205D01*
X13230743Y-97766648D01*
X13291048Y-97621059D01*
X13378601Y-97490027D01*
X13490027Y-97378601D01*
X13621059Y-97291048D01*
X13766648Y-97230743D01*
X13921205Y-97200000D01*
X14078795Y-97200000D01*
X14233352Y-97230743D01*
X14233352Y-97230743D01*
G37*
G36*
X12800000Y-98800000D02*
X11200000Y-98800000D01*
X11200000Y-97200000D01*
X12800000Y-97200000D01*
X12800000Y-98800000D01*
X12800000Y-98800000D01*
G37*
G36*
X3594845Y-88968810D02*
X3839896Y-89043145D01*
X4065736Y-89163860D01*
X4263687Y-89326313D01*
X4426140Y-89524264D01*
X4546855Y-89750104D01*
X4621190Y-89995155D01*
X4646290Y-90250000D01*
X4621190Y-90504845D01*
X4546855Y-90749896D01*
X4426140Y-90975736D01*
X4263687Y-91173687D01*
X4065736Y-91336140D01*
X3839896Y-91456855D01*
X3594845Y-91531190D01*
X3403864Y-91550000D01*
X3276136Y-91550000D01*
X3085155Y-91531190D01*
X2840104Y-91456855D01*
X2614264Y-91336140D01*
X2416313Y-91173687D01*
X2253860Y-90975736D01*
X2133145Y-90749896D01*
X2058810Y-90504845D01*
X2033710Y-90250000D01*
X2058810Y-89995155D01*
X2133145Y-89750104D01*
X2253860Y-89524264D01*
X2416313Y-89326313D01*
X2614264Y-89163860D01*
X2840104Y-89043145D01*
X3085155Y-88968810D01*
X3276136Y-88950000D01*
X3403864Y-88950000D01*
X3594845Y-88968810D01*
X3594845Y-88968810D01*
G37*
G36*
X14800000Y-91550000D02*
X12200000Y-91550000D01*
X12200000Y-88950000D01*
X14800000Y-88950000D01*
X14800000Y-91550000D01*
X14800000Y-91550000D01*
G37*
G36*
X28786059Y-90004782D02*
X28927099Y-90063203D01*
X29054037Y-90148020D01*
X29161980Y-90255963D01*
X29246797Y-90382901D01*
X29305218Y-90523941D01*
X29335000Y-90673668D01*
X29335000Y-90826332D01*
X29305218Y-90976059D01*
X29246797Y-91117099D01*
X29161980Y-91244037D01*
X29054037Y-91351980D01*
X28927099Y-91436797D01*
X28786059Y-91495218D01*
X28636332Y-91525000D01*
X28483668Y-91525000D01*
X28333941Y-91495218D01*
X28192901Y-91436797D01*
X28065963Y-91351980D01*
X27958020Y-91244037D01*
X27873203Y-91117099D01*
X27814782Y-90976059D01*
X27785000Y-90826332D01*
X27785000Y-90673668D01*
X27814782Y-90523941D01*
X27873203Y-90382901D01*
X27958020Y-90255963D01*
X28065963Y-90148020D01*
X28192901Y-90063203D01*
X28333941Y-90004782D01*
X28483668Y-89975000D01*
X28636332Y-89975000D01*
X28786059Y-90004782D01*
X28786059Y-90004782D01*
G37*
G36*
X33866059Y-90004782D02*
X34007099Y-90063203D01*
X34134037Y-90148020D01*
X34241980Y-90255963D01*
X34326797Y-90382901D01*
X34385218Y-90523941D01*
X34415000Y-90673668D01*
X34415000Y-90826332D01*
X34385218Y-90976059D01*
X34326797Y-91117099D01*
X34241980Y-91244037D01*
X34134037Y-91351980D01*
X34007099Y-91436797D01*
X33866059Y-91495218D01*
X33716332Y-91525000D01*
X33563668Y-91525000D01*
X33413941Y-91495218D01*
X33272901Y-91436797D01*
X33145963Y-91351980D01*
X33038020Y-91244037D01*
X32953203Y-91117099D01*
X32894782Y-90976059D01*
X32865000Y-90826332D01*
X32865000Y-90673668D01*
X32894782Y-90523941D01*
X32953203Y-90382901D01*
X33038020Y-90255963D01*
X33145963Y-90148020D01*
X33272901Y-90063203D01*
X33413941Y-90004782D01*
X33563668Y-89975000D01*
X33716332Y-89975000D01*
X33866059Y-90004782D01*
X33866059Y-90004782D01*
G37*
G36*
X3594845Y-84718810D02*
X3839896Y-84793145D01*
X4065736Y-84913860D01*
X4263687Y-85076313D01*
X4426140Y-85274264D01*
X4546855Y-85500104D01*
X4621190Y-85745155D01*
X4646290Y-86000000D01*
X4621190Y-86254845D01*
X4546855Y-86499896D01*
X4426140Y-86725736D01*
X4263687Y-86923687D01*
X4065736Y-87086140D01*
X3839896Y-87206855D01*
X3594845Y-87281190D01*
X3403864Y-87300000D01*
X3276136Y-87300000D01*
X3085155Y-87281190D01*
X2840104Y-87206855D01*
X2614264Y-87086140D01*
X2416313Y-86923687D01*
X2253860Y-86725736D01*
X2133145Y-86499896D01*
X2058810Y-86254845D01*
X2033710Y-86000000D01*
X2058810Y-85745155D01*
X2133145Y-85500104D01*
X2253860Y-85274264D01*
X2416313Y-85076313D01*
X2614264Y-84913860D01*
X2840104Y-84793145D01*
X3085155Y-84718810D01*
X3276136Y-84700000D01*
X3403864Y-84700000D01*
X3594845Y-84718810D01*
X3594845Y-84718810D01*
G37*
G36*
X14800000Y-87300000D02*
X12200000Y-87300000D01*
X12200000Y-84700000D01*
X14800000Y-84700000D01*
X14800000Y-87300000D01*
X14800000Y-87300000D01*
G37*
G36*
X35425770Y-80015372D02*
X35541689Y-80038429D01*
X35723678Y-80113811D01*
X35887463Y-80223249D01*
X36026751Y-80362537D01*
X36136189Y-80526322D01*
X36211571Y-80708311D01*
X36250000Y-80901509D01*
X36250000Y-81098491D01*
X36211571Y-81291689D01*
X36136189Y-81473678D01*
X36026751Y-81637463D01*
X35887463Y-81776751D01*
X35723678Y-81886189D01*
X35541689Y-81961571D01*
X35425770Y-81984628D01*
X35348493Y-82000000D01*
X35151507Y-82000000D01*
X35074230Y-81984628D01*
X34958311Y-81961571D01*
X34776322Y-81886189D01*
X34612537Y-81776751D01*
X34473249Y-81637463D01*
X34363811Y-81473678D01*
X34288429Y-81291689D01*
X34250000Y-81098491D01*
X34250000Y-80901509D01*
X34288429Y-80708311D01*
X34363811Y-80526322D01*
X34473249Y-80362537D01*
X34612537Y-80223249D01*
X34776322Y-80113811D01*
X34958311Y-80038429D01*
X35074230Y-80015372D01*
X35151507Y-80000000D01*
X35348493Y-80000000D01*
X35425770Y-80015372D01*
X35425770Y-80015372D01*
G37*
G36*
X14128503Y-77491789D02*
X14328991Y-77552607D01*
X14513764Y-77651369D01*
X14675718Y-77784282D01*
X14808631Y-77946236D01*
X14907393Y-78131009D01*
X14968211Y-78331497D01*
X14988746Y-78540000D01*
X14968211Y-78748503D01*
X14907393Y-78948991D01*
X14808631Y-79133764D01*
X14675718Y-79295718D01*
X14513764Y-79428631D01*
X14328991Y-79527393D01*
X14128503Y-79588211D01*
X13972251Y-79603600D01*
X13867749Y-79603600D01*
X13711497Y-79588211D01*
X13511009Y-79527393D01*
X13326236Y-79428631D01*
X13164282Y-79295718D01*
X13031369Y-79133764D01*
X12932607Y-78948991D01*
X12871789Y-78748503D01*
X12851254Y-78540000D01*
X12871789Y-78331497D01*
X12932607Y-78131009D01*
X13031369Y-77946236D01*
X13164282Y-77784282D01*
X13326236Y-77651369D01*
X13511009Y-77552607D01*
X13711497Y-77491789D01*
X13867749Y-77476400D01*
X13972251Y-77476400D01*
X14128503Y-77491789D01*
X14128503Y-77491789D01*
G37*
G36*
X19208503Y-77491789D02*
X19408991Y-77552607D01*
X19593764Y-77651369D01*
X19755718Y-77784282D01*
X19888631Y-77946236D01*
X19987393Y-78131009D01*
X20048211Y-78331497D01*
X20068746Y-78540000D01*
X20048211Y-78748503D01*
X19987393Y-78948991D01*
X19888631Y-79133764D01*
X19755718Y-79295718D01*
X19593764Y-79428631D01*
X19408991Y-79527393D01*
X19208503Y-79588211D01*
X19052251Y-79603600D01*
X18947749Y-79603600D01*
X18791497Y-79588211D01*
X18591009Y-79527393D01*
X18406236Y-79428631D01*
X18244282Y-79295718D01*
X18111369Y-79133764D01*
X18012607Y-78948991D01*
X17951789Y-78748503D01*
X17931254Y-78540000D01*
X17951789Y-78331497D01*
X18012607Y-78131009D01*
X18111369Y-77946236D01*
X18244282Y-77784282D01*
X18406236Y-77651369D01*
X18591009Y-77552607D01*
X18791497Y-77491789D01*
X18947749Y-77476400D01*
X19052251Y-77476400D01*
X19208503Y-77491789D01*
X19208503Y-77491789D01*
G37*
G36*
X21748503Y-77491789D02*
X21948991Y-77552607D01*
X22133764Y-77651369D01*
X22295718Y-77784282D01*
X22428631Y-77946236D01*
X22527393Y-78131009D01*
X22588211Y-78331497D01*
X22608746Y-78540000D01*
X22588211Y-78748503D01*
X22527393Y-78948991D01*
X22428631Y-79133764D01*
X22295718Y-79295718D01*
X22133764Y-79428631D01*
X21948991Y-79527393D01*
X21748503Y-79588211D01*
X21592251Y-79603600D01*
X21487749Y-79603600D01*
X21331497Y-79588211D01*
X21131009Y-79527393D01*
X20946236Y-79428631D01*
X20784282Y-79295718D01*
X20651369Y-79133764D01*
X20552607Y-78948991D01*
X20491789Y-78748503D01*
X20471254Y-78540000D01*
X20491789Y-78331497D01*
X20552607Y-78131009D01*
X20651369Y-77946236D01*
X20784282Y-77784282D01*
X20946236Y-77651369D01*
X21131009Y-77552607D01*
X21331497Y-77491789D01*
X21487749Y-77476400D01*
X21592251Y-77476400D01*
X21748503Y-77491789D01*
X21748503Y-77491789D01*
G37*
G36*
X25143600Y-79603600D02*
X23016400Y-79603600D01*
X23016400Y-77476400D01*
X25143600Y-77476400D01*
X25143600Y-79603600D01*
X25143600Y-79603600D01*
G37*
G36*
X16668503Y-77491789D02*
X16868991Y-77552607D01*
X17053764Y-77651369D01*
X17215718Y-77784282D01*
X17348631Y-77946236D01*
X17447393Y-78131009D01*
X17508211Y-78331497D01*
X17528746Y-78540000D01*
X17508211Y-78748503D01*
X17447393Y-78948991D01*
X17348631Y-79133764D01*
X17215718Y-79295718D01*
X17053764Y-79428631D01*
X16868991Y-79527393D01*
X16668503Y-79588211D01*
X16512251Y-79603600D01*
X16407749Y-79603600D01*
X16251497Y-79588211D01*
X16051009Y-79527393D01*
X15866236Y-79428631D01*
X15704282Y-79295718D01*
X15571369Y-79133764D01*
X15472607Y-78948991D01*
X15411789Y-78748503D01*
X15391254Y-78540000D01*
X15411789Y-78331497D01*
X15472607Y-78131009D01*
X15571369Y-77946236D01*
X15704282Y-77784282D01*
X15866236Y-77651369D01*
X16051009Y-77552607D01*
X16251497Y-77491789D01*
X16407749Y-77476400D01*
X16512251Y-77476400D01*
X16668503Y-77491789D01*
X16668503Y-77491789D01*
G37*
G36*
X21748503Y-74951789D02*
X21948991Y-75012607D01*
X22133764Y-75111369D01*
X22295718Y-75244282D01*
X22428631Y-75406236D01*
X22527393Y-75591009D01*
X22588211Y-75791497D01*
X22608746Y-76000000D01*
X22588211Y-76208503D01*
X22527393Y-76408991D01*
X22428631Y-76593764D01*
X22295718Y-76755718D01*
X22133764Y-76888631D01*
X21948991Y-76987393D01*
X21748503Y-77048211D01*
X21592251Y-77063600D01*
X21487749Y-77063600D01*
X21331497Y-77048211D01*
X21131009Y-76987393D01*
X20946236Y-76888631D01*
X20784282Y-76755718D01*
X20651369Y-76593764D01*
X20552607Y-76408991D01*
X20491789Y-76208503D01*
X20471254Y-76000000D01*
X20491789Y-75791497D01*
X20552607Y-75591009D01*
X20651369Y-75406236D01*
X20784282Y-75244282D01*
X20946236Y-75111369D01*
X21131009Y-75012607D01*
X21331497Y-74951789D01*
X21487749Y-74936400D01*
X21592251Y-74936400D01*
X21748503Y-74951789D01*
X21748503Y-74951789D01*
G37*
G36*
X19208503Y-74951789D02*
X19408991Y-75012607D01*
X19593764Y-75111369D01*
X19755718Y-75244282D01*
X19888631Y-75406236D01*
X19987393Y-75591009D01*
X20048211Y-75791497D01*
X20068746Y-76000000D01*
X20048211Y-76208503D01*
X19987393Y-76408991D01*
X19888631Y-76593764D01*
X19755718Y-76755718D01*
X19593764Y-76888631D01*
X19408991Y-76987393D01*
X19208503Y-77048211D01*
X19052251Y-77063600D01*
X18947749Y-77063600D01*
X18791497Y-77048211D01*
X18591009Y-76987393D01*
X18406236Y-76888631D01*
X18244282Y-76755718D01*
X18111369Y-76593764D01*
X18012607Y-76408991D01*
X17951789Y-76208503D01*
X17931254Y-76000000D01*
X17951789Y-75791497D01*
X18012607Y-75591009D01*
X18111369Y-75406236D01*
X18244282Y-75244282D01*
X18406236Y-75111369D01*
X18591009Y-75012607D01*
X18791497Y-74951789D01*
X18947749Y-74936400D01*
X19052251Y-74936400D01*
X19208503Y-74951789D01*
X19208503Y-74951789D01*
G37*
G36*
X16668503Y-74951789D02*
X16868991Y-75012607D01*
X17053764Y-75111369D01*
X17215718Y-75244282D01*
X17348631Y-75406236D01*
X17447393Y-75591009D01*
X17508211Y-75791497D01*
X17528746Y-76000000D01*
X17508211Y-76208503D01*
X17447393Y-76408991D01*
X17348631Y-76593764D01*
X17215718Y-76755718D01*
X17053764Y-76888631D01*
X16868991Y-76987393D01*
X16668503Y-77048211D01*
X16512251Y-77063600D01*
X16407749Y-77063600D01*
X16251497Y-77048211D01*
X16051009Y-76987393D01*
X15866236Y-76888631D01*
X15704282Y-76755718D01*
X15571369Y-76593764D01*
X15472607Y-76408991D01*
X15411789Y-76208503D01*
X15391254Y-76000000D01*
X15411789Y-75791497D01*
X15472607Y-75591009D01*
X15571369Y-75406236D01*
X15704282Y-75244282D01*
X15866236Y-75111369D01*
X16051009Y-75012607D01*
X16251497Y-74951789D01*
X16407749Y-74936400D01*
X16512251Y-74936400D01*
X16668503Y-74951789D01*
X16668503Y-74951789D01*
G37*
G36*
X14128503Y-74951789D02*
X14328991Y-75012607D01*
X14513764Y-75111369D01*
X14675718Y-75244282D01*
X14808631Y-75406236D01*
X14907393Y-75591009D01*
X14968211Y-75791497D01*
X14988746Y-76000000D01*
X14968211Y-76208503D01*
X14907393Y-76408991D01*
X14808631Y-76593764D01*
X14675718Y-76755718D01*
X14513764Y-76888631D01*
X14328991Y-76987393D01*
X14128503Y-77048211D01*
X13972251Y-77063600D01*
X13867749Y-77063600D01*
X13711497Y-77048211D01*
X13511009Y-76987393D01*
X13326236Y-76888631D01*
X13164282Y-76755718D01*
X13031369Y-76593764D01*
X12932607Y-76408991D01*
X12871789Y-76208503D01*
X12851254Y-76000000D01*
X12871789Y-75791497D01*
X12932607Y-75591009D01*
X13031369Y-75406236D01*
X13164282Y-75244282D01*
X13326236Y-75111369D01*
X13511009Y-75012607D01*
X13711497Y-74951789D01*
X13867749Y-74936400D01*
X13972251Y-74936400D01*
X14128503Y-74951789D01*
X14128503Y-74951789D01*
G37*
G36*
X24288503Y-74951789D02*
X24488991Y-75012607D01*
X24673764Y-75111369D01*
X24835718Y-75244282D01*
X24968631Y-75406236D01*
X25067393Y-75591009D01*
X25128211Y-75791497D01*
X25148746Y-76000000D01*
X25128211Y-76208503D01*
X25067393Y-76408991D01*
X24968631Y-76593764D01*
X24835718Y-76755718D01*
X24673764Y-76888631D01*
X24488991Y-76987393D01*
X24288503Y-77048211D01*
X24132251Y-77063600D01*
X24027749Y-77063600D01*
X23871497Y-77048211D01*
X23671009Y-76987393D01*
X23486236Y-76888631D01*
X23324282Y-76755718D01*
X23191369Y-76593764D01*
X23092607Y-76408991D01*
X23031789Y-76208503D01*
X23011254Y-76000000D01*
X23031789Y-75791497D01*
X23092607Y-75591009D01*
X23191369Y-75406236D01*
X23324282Y-75244282D01*
X23486236Y-75111369D01*
X23671009Y-75012607D01*
X23871497Y-74951789D01*
X24027749Y-74936400D01*
X24132251Y-74936400D01*
X24288503Y-74951789D01*
X24288503Y-74951789D01*
G37*
G36*
X35425770Y-75015372D02*
X35541689Y-75038429D01*
X35723678Y-75113811D01*
X35887463Y-75223249D01*
X36026751Y-75362537D01*
X36136189Y-75526322D01*
X36211571Y-75708311D01*
X36250000Y-75901509D01*
X36250000Y-76098491D01*
X36211571Y-76291689D01*
X36136189Y-76473678D01*
X36026751Y-76637463D01*
X35887463Y-76776751D01*
X35723678Y-76886189D01*
X35541689Y-76961571D01*
X35425770Y-76984628D01*
X35348493Y-77000000D01*
X35151507Y-77000000D01*
X35074230Y-76984628D01*
X34958311Y-76961571D01*
X34776322Y-76886189D01*
X34612537Y-76776751D01*
X34473249Y-76637463D01*
X34363811Y-76473678D01*
X34288429Y-76291689D01*
X34250000Y-76098491D01*
X34250000Y-75901509D01*
X34288429Y-75708311D01*
X34363811Y-75526322D01*
X34473249Y-75362537D01*
X34612537Y-75223249D01*
X34776322Y-75113811D01*
X34958311Y-75038429D01*
X35074230Y-75015372D01*
X35151507Y-75000000D01*
X35348493Y-75000000D01*
X35425770Y-75015372D01*
X35425770Y-75015372D01*
G37*
G36*
X35425770Y-71515372D02*
X35541689Y-71538429D01*
X35723678Y-71613811D01*
X35887463Y-71723249D01*
X36026751Y-71862537D01*
X36136189Y-72026322D01*
X36211571Y-72208311D01*
X36250000Y-72401509D01*
X36250000Y-72598491D01*
X36211571Y-72791689D01*
X36136189Y-72973678D01*
X36026751Y-73137463D01*
X35887463Y-73276751D01*
X35723678Y-73386189D01*
X35541689Y-73461571D01*
X35425770Y-73484628D01*
X35348493Y-73500000D01*
X35151507Y-73500000D01*
X35074230Y-73484628D01*
X34958311Y-73461571D01*
X34776322Y-73386189D01*
X34612537Y-73276751D01*
X34473249Y-73137463D01*
X34363811Y-72973678D01*
X34288429Y-72791689D01*
X34250000Y-72598491D01*
X34250000Y-72401509D01*
X34288429Y-72208311D01*
X34363811Y-72026322D01*
X34473249Y-71862537D01*
X34612537Y-71723249D01*
X34776322Y-71613811D01*
X34958311Y-71538429D01*
X35074230Y-71515372D01*
X35151507Y-71500000D01*
X35348493Y-71500000D01*
X35425770Y-71515372D01*
X35425770Y-71515372D01*
G37*
G36*
X19409122Y-67246115D02*
X19525041Y-67269173D01*
X19852620Y-67404861D01*
X20142407Y-67598491D01*
X20147436Y-67601851D01*
X20398149Y-67852564D01*
X20398151Y-67852567D01*
X20588515Y-68137466D01*
X20595140Y-68147382D01*
X20730827Y-68474960D01*
X20800000Y-68822714D01*
X20800000Y-69177286D01*
X20730827Y-69525040D01*
X20595140Y-69852618D01*
X20398149Y-70147436D01*
X20147436Y-70398149D01*
X20147433Y-70398151D01*
X19852620Y-70595139D01*
X19525041Y-70730827D01*
X19409122Y-70753885D01*
X19177286Y-70800000D01*
X18822714Y-70800000D01*
X18590878Y-70753885D01*
X18474959Y-70730827D01*
X18147380Y-70595139D01*
X17852567Y-70398151D01*
X17852564Y-70398149D01*
X17601851Y-70147436D01*
X17404860Y-69852618D01*
X17269173Y-69525040D01*
X17200000Y-69177286D01*
X17200000Y-68822714D01*
X17269173Y-68474960D01*
X17404860Y-68147382D01*
X17411486Y-68137466D01*
X17601849Y-67852567D01*
X17601851Y-67852564D01*
X17852564Y-67601851D01*
X17857593Y-67598491D01*
X18147380Y-67404861D01*
X18474959Y-67269173D01*
X18590878Y-67246115D01*
X18822714Y-67200000D01*
X19177286Y-67200000D01*
X19409122Y-67246115D01*
X19409122Y-67246115D01*
G37*
G36*
X35425770Y-66515372D02*
X35541689Y-66538429D01*
X35723678Y-66613811D01*
X35887463Y-66723249D01*
X36026751Y-66862537D01*
X36136189Y-67026322D01*
X36211571Y-67208311D01*
X36250000Y-67401509D01*
X36250000Y-67598491D01*
X36211571Y-67791689D01*
X36136189Y-67973678D01*
X36026751Y-68137463D01*
X35887463Y-68276751D01*
X35723678Y-68386189D01*
X35541689Y-68461571D01*
X35425770Y-68484628D01*
X35348493Y-68500000D01*
X35151507Y-68500000D01*
X35074230Y-68484628D01*
X34958311Y-68461571D01*
X34776322Y-68386189D01*
X34612537Y-68276751D01*
X34473249Y-68137463D01*
X34363811Y-67973678D01*
X34288429Y-67791689D01*
X34250000Y-67598491D01*
X34250000Y-67401509D01*
X34288429Y-67208311D01*
X34363811Y-67026322D01*
X34473249Y-66862537D01*
X34612537Y-66723249D01*
X34776322Y-66613811D01*
X34958311Y-66538429D01*
X35074230Y-66515372D01*
X35151507Y-66500000D01*
X35348493Y-66500000D01*
X35425770Y-66515372D01*
X35425770Y-66515372D01*
G37*
G36*
X8550000Y-65050000D02*
X6450000Y-65050000D01*
X6450000Y-62950000D01*
X8550000Y-62950000D01*
X8550000Y-65050000D01*
X8550000Y-65050000D01*
G37*
G36*
X12708707Y-62957597D02*
X12785836Y-62965193D01*
X12917787Y-63005220D01*
X12983763Y-63025233D01*
X13166172Y-63122733D01*
X13326054Y-63253946D01*
X13457267Y-63413828D01*
X13554767Y-63596237D01*
X13554767Y-63596238D01*
X13614807Y-63794164D01*
X13635080Y-64000000D01*
X13614807Y-64205836D01*
X13574780Y-64337787D01*
X13554767Y-64403763D01*
X13457267Y-64586172D01*
X13326054Y-64746054D01*
X13166172Y-64877267D01*
X12983763Y-64974767D01*
X12917787Y-64994780D01*
X12785836Y-65034807D01*
X12708707Y-65042404D01*
X12631580Y-65050000D01*
X12528420Y-65050000D01*
X12451293Y-65042404D01*
X12374164Y-65034807D01*
X12242213Y-64994780D01*
X12176237Y-64974767D01*
X11993828Y-64877267D01*
X11833946Y-64746054D01*
X11702733Y-64586172D01*
X11605233Y-64403763D01*
X11585220Y-64337787D01*
X11545193Y-64205836D01*
X11524920Y-64000000D01*
X11545193Y-63794164D01*
X11605233Y-63596238D01*
X11605233Y-63596237D01*
X11702733Y-63413828D01*
X11833946Y-63253946D01*
X11993828Y-63122733D01*
X12176237Y-63025233D01*
X12242213Y-63005220D01*
X12374164Y-62965193D01*
X12451293Y-62957597D01*
X12528420Y-62950000D01*
X12631580Y-62950000D01*
X12708707Y-62957597D01*
X12708707Y-62957597D01*
G37*
G36*
X15248707Y-62957597D02*
X15325836Y-62965193D01*
X15457787Y-63005220D01*
X15523763Y-63025233D01*
X15706172Y-63122733D01*
X15866054Y-63253946D01*
X15997267Y-63413828D01*
X16094767Y-63596237D01*
X16094767Y-63596238D01*
X16154807Y-63794164D01*
X16175080Y-64000000D01*
X16154807Y-64205836D01*
X16114780Y-64337787D01*
X16094767Y-64403763D01*
X15997267Y-64586172D01*
X15866054Y-64746054D01*
X15706172Y-64877267D01*
X15523763Y-64974767D01*
X15457787Y-64994780D01*
X15325836Y-65034807D01*
X15248707Y-65042404D01*
X15171580Y-65050000D01*
X15068420Y-65050000D01*
X14991293Y-65042404D01*
X14914164Y-65034807D01*
X14782213Y-64994780D01*
X14716237Y-64974767D01*
X14533828Y-64877267D01*
X14373946Y-64746054D01*
X14242733Y-64586172D01*
X14145233Y-64403763D01*
X14125220Y-64337787D01*
X14085193Y-64205836D01*
X14064920Y-64000000D01*
X14085193Y-63794164D01*
X14145233Y-63596238D01*
X14145233Y-63596237D01*
X14242733Y-63413828D01*
X14373946Y-63253946D01*
X14533828Y-63122733D01*
X14716237Y-63025233D01*
X14782213Y-63005220D01*
X14914164Y-62965193D01*
X14991293Y-62957597D01*
X15068420Y-62950000D01*
X15171580Y-62950000D01*
X15248707Y-62957597D01*
X15248707Y-62957597D01*
G37*
G36*
X17788707Y-62957597D02*
X17865836Y-62965193D01*
X17997787Y-63005220D01*
X18063763Y-63025233D01*
X18246172Y-63122733D01*
X18406054Y-63253946D01*
X18537267Y-63413828D01*
X18634767Y-63596237D01*
X18634767Y-63596238D01*
X18694807Y-63794164D01*
X18715080Y-64000000D01*
X18694807Y-64205836D01*
X18654780Y-64337787D01*
X18634767Y-64403763D01*
X18537267Y-64586172D01*
X18406054Y-64746054D01*
X18246172Y-64877267D01*
X18063763Y-64974767D01*
X17997787Y-64994780D01*
X17865836Y-65034807D01*
X17788707Y-65042404D01*
X17711580Y-65050000D01*
X17608420Y-65050000D01*
X17531293Y-65042404D01*
X17454164Y-65034807D01*
X17322213Y-64994780D01*
X17256237Y-64974767D01*
X17073828Y-64877267D01*
X16913946Y-64746054D01*
X16782733Y-64586172D01*
X16685233Y-64403763D01*
X16665220Y-64337787D01*
X16625193Y-64205836D01*
X16604920Y-64000000D01*
X16625193Y-63794164D01*
X16685233Y-63596238D01*
X16685233Y-63596237D01*
X16782733Y-63413828D01*
X16913946Y-63253946D01*
X17073828Y-63122733D01*
X17256237Y-63025233D01*
X17322213Y-63005220D01*
X17454164Y-62965193D01*
X17531293Y-62957597D01*
X17608420Y-62950000D01*
X17711580Y-62950000D01*
X17788707Y-62957597D01*
X17788707Y-62957597D01*
G37*
G36*
X20328707Y-62957597D02*
X20405836Y-62965193D01*
X20537787Y-63005220D01*
X20603763Y-63025233D01*
X20786172Y-63122733D01*
X20946054Y-63253946D01*
X21077267Y-63413828D01*
X21174767Y-63596237D01*
X21174767Y-63596238D01*
X21234807Y-63794164D01*
X21255080Y-64000000D01*
X21234807Y-64205836D01*
X21194780Y-64337787D01*
X21174767Y-64403763D01*
X21077267Y-64586172D01*
X20946054Y-64746054D01*
X20786172Y-64877267D01*
X20603763Y-64974767D01*
X20537787Y-64994780D01*
X20405836Y-65034807D01*
X20328707Y-65042404D01*
X20251580Y-65050000D01*
X20148420Y-65050000D01*
X20071293Y-65042404D01*
X19994164Y-65034807D01*
X19862213Y-64994780D01*
X19796237Y-64974767D01*
X19613828Y-64877267D01*
X19453946Y-64746054D01*
X19322733Y-64586172D01*
X19225233Y-64403763D01*
X19205220Y-64337787D01*
X19165193Y-64205836D01*
X19144920Y-64000000D01*
X19165193Y-63794164D01*
X19225233Y-63596238D01*
X19225233Y-63596237D01*
X19322733Y-63413828D01*
X19453946Y-63253946D01*
X19613828Y-63122733D01*
X19796237Y-63025233D01*
X19862213Y-63005220D01*
X19994164Y-62965193D01*
X20071293Y-62957597D01*
X20148420Y-62950000D01*
X20251580Y-62950000D01*
X20328707Y-62957597D01*
X20328707Y-62957597D01*
G37*
G36*
X25408707Y-62957597D02*
X25485836Y-62965193D01*
X25617787Y-63005220D01*
X25683763Y-63025233D01*
X25866172Y-63122733D01*
X26026054Y-63253946D01*
X26157267Y-63413828D01*
X26254767Y-63596237D01*
X26254767Y-63596238D01*
X26314807Y-63794164D01*
X26335080Y-64000000D01*
X26314807Y-64205836D01*
X26274780Y-64337787D01*
X26254767Y-64403763D01*
X26157267Y-64586172D01*
X26026054Y-64746054D01*
X25866172Y-64877267D01*
X25683763Y-64974767D01*
X25617787Y-64994780D01*
X25485836Y-65034807D01*
X25408707Y-65042404D01*
X25331580Y-65050000D01*
X25228420Y-65050000D01*
X25151293Y-65042404D01*
X25074164Y-65034807D01*
X24942213Y-64994780D01*
X24876237Y-64974767D01*
X24693828Y-64877267D01*
X24533946Y-64746054D01*
X24402733Y-64586172D01*
X24305233Y-64403763D01*
X24285220Y-64337787D01*
X24245193Y-64205836D01*
X24224920Y-64000000D01*
X24245193Y-63794164D01*
X24305233Y-63596238D01*
X24305233Y-63596237D01*
X24402733Y-63413828D01*
X24533946Y-63253946D01*
X24693828Y-63122733D01*
X24876237Y-63025233D01*
X24942213Y-63005220D01*
X25074164Y-62965193D01*
X25151293Y-62957597D01*
X25228420Y-62950000D01*
X25331580Y-62950000D01*
X25408707Y-62957597D01*
X25408707Y-62957597D01*
G37*
G36*
X22868707Y-62957597D02*
X22945836Y-62965193D01*
X23077787Y-63005220D01*
X23143763Y-63025233D01*
X23326172Y-63122733D01*
X23486054Y-63253946D01*
X23617267Y-63413828D01*
X23714767Y-63596237D01*
X23714767Y-63596238D01*
X23774807Y-63794164D01*
X23795080Y-64000000D01*
X23774807Y-64205836D01*
X23734780Y-64337787D01*
X23714767Y-64403763D01*
X23617267Y-64586172D01*
X23486054Y-64746054D01*
X23326172Y-64877267D01*
X23143763Y-64974767D01*
X23077787Y-64994780D01*
X22945836Y-65034807D01*
X22868707Y-65042404D01*
X22791580Y-65050000D01*
X22688420Y-65050000D01*
X22611293Y-65042404D01*
X22534164Y-65034807D01*
X22402213Y-64994780D01*
X22336237Y-64974767D01*
X22153828Y-64877267D01*
X21993946Y-64746054D01*
X21862733Y-64586172D01*
X21765233Y-64403763D01*
X21745220Y-64337787D01*
X21705193Y-64205836D01*
X21684920Y-64000000D01*
X21705193Y-63794164D01*
X21765233Y-63596238D01*
X21765233Y-63596237D01*
X21862733Y-63413828D01*
X21993946Y-63253946D01*
X22153828Y-63122733D01*
X22336237Y-63025233D01*
X22402213Y-63005220D01*
X22534164Y-62965193D01*
X22611293Y-62957597D01*
X22688420Y-62950000D01*
X22791580Y-62950000D01*
X22868707Y-62957597D01*
X22868707Y-62957597D01*
G37*
G36*
X10168707Y-62957597D02*
X10245836Y-62965193D01*
X10377787Y-63005220D01*
X10443763Y-63025233D01*
X10626172Y-63122733D01*
X10786054Y-63253946D01*
X10917267Y-63413828D01*
X11014767Y-63596237D01*
X11014767Y-63596238D01*
X11074807Y-63794164D01*
X11095080Y-64000000D01*
X11074807Y-64205836D01*
X11034780Y-64337787D01*
X11014767Y-64403763D01*
X10917267Y-64586172D01*
X10786054Y-64746054D01*
X10626172Y-64877267D01*
X10443763Y-64974767D01*
X10377787Y-64994780D01*
X10245836Y-65034807D01*
X10168707Y-65042404D01*
X10091580Y-65050000D01*
X9988420Y-65050000D01*
X9911293Y-65042404D01*
X9834164Y-65034807D01*
X9702213Y-64994780D01*
X9636237Y-64974767D01*
X9453828Y-64877267D01*
X9293946Y-64746054D01*
X9162733Y-64586172D01*
X9065233Y-64403763D01*
X9045220Y-64337787D01*
X9005193Y-64205836D01*
X8984920Y-64000000D01*
X9005193Y-63794164D01*
X9065233Y-63596238D01*
X9065233Y-63596237D01*
X9162733Y-63413828D01*
X9293946Y-63253946D01*
X9453828Y-63122733D01*
X9636237Y-63025233D01*
X9702213Y-63005220D01*
X9834164Y-62965193D01*
X9911293Y-62957597D01*
X9988420Y-62950000D01*
X10091580Y-62950000D01*
X10168707Y-62957597D01*
X10168707Y-62957597D01*
G37*
G36*
X27948707Y-62957597D02*
X28025836Y-62965193D01*
X28157787Y-63005220D01*
X28223763Y-63025233D01*
X28406172Y-63122733D01*
X28566054Y-63253946D01*
X28697267Y-63413828D01*
X28794767Y-63596237D01*
X28794767Y-63596238D01*
X28854807Y-63794164D01*
X28875080Y-64000000D01*
X28854807Y-64205836D01*
X28814780Y-64337787D01*
X28794767Y-64403763D01*
X28697267Y-64586172D01*
X28566054Y-64746054D01*
X28406172Y-64877267D01*
X28223763Y-64974767D01*
X28157787Y-64994780D01*
X28025836Y-65034807D01*
X27948707Y-65042404D01*
X27871580Y-65050000D01*
X27768420Y-65050000D01*
X27691293Y-65042404D01*
X27614164Y-65034807D01*
X27482213Y-64994780D01*
X27416237Y-64974767D01*
X27233828Y-64877267D01*
X27073946Y-64746054D01*
X26942733Y-64586172D01*
X26845233Y-64403763D01*
X26825220Y-64337787D01*
X26785193Y-64205836D01*
X26764920Y-64000000D01*
X26785193Y-63794164D01*
X26845233Y-63596238D01*
X26845233Y-63596237D01*
X26942733Y-63413828D01*
X27073946Y-63253946D01*
X27233828Y-63122733D01*
X27416237Y-63025233D01*
X27482213Y-63005220D01*
X27614164Y-62965193D01*
X27691293Y-62957597D01*
X27768420Y-62950000D01*
X27871580Y-62950000D01*
X27948707Y-62957597D01*
X27948707Y-62957597D01*
G37*
G36*
X30488707Y-62957597D02*
X30565836Y-62965193D01*
X30697787Y-63005220D01*
X30763763Y-63025233D01*
X30946172Y-63122733D01*
X31106054Y-63253946D01*
X31237267Y-63413828D01*
X31334767Y-63596237D01*
X31334767Y-63596238D01*
X31394807Y-63794164D01*
X31415080Y-64000000D01*
X31394807Y-64205836D01*
X31354780Y-64337787D01*
X31334767Y-64403763D01*
X31237267Y-64586172D01*
X31106054Y-64746054D01*
X30946172Y-64877267D01*
X30763763Y-64974767D01*
X30697787Y-64994780D01*
X30565836Y-65034807D01*
X30488707Y-65042404D01*
X30411580Y-65050000D01*
X30308420Y-65050000D01*
X30231293Y-65042404D01*
X30154164Y-65034807D01*
X30022213Y-64994780D01*
X29956237Y-64974767D01*
X29773828Y-64877267D01*
X29613946Y-64746054D01*
X29482733Y-64586172D01*
X29385233Y-64403763D01*
X29365220Y-64337787D01*
X29325193Y-64205836D01*
X29304920Y-64000000D01*
X29325193Y-63794164D01*
X29385233Y-63596238D01*
X29385233Y-63596237D01*
X29482733Y-63413828D01*
X29613946Y-63253946D01*
X29773828Y-63122733D01*
X29956237Y-63025233D01*
X30022213Y-63005220D01*
X30154164Y-62965193D01*
X30231293Y-62957597D01*
X30308420Y-62950000D01*
X30411580Y-62950000D01*
X30488707Y-62957597D01*
X30488707Y-62957597D01*
G37*
G36*
X35733352Y-59480743D02*
X35878941Y-59541048D01*
X36009973Y-59628601D01*
X36121399Y-59740027D01*
X36208952Y-59871059D01*
X36269257Y-60016648D01*
X36300000Y-60171205D01*
X36300000Y-60328795D01*
X36269257Y-60483352D01*
X36208952Y-60628941D01*
X36121399Y-60759973D01*
X36009973Y-60871399D01*
X35878941Y-60958952D01*
X35733352Y-61019257D01*
X35578795Y-61050000D01*
X35421205Y-61050000D01*
X35266648Y-61019257D01*
X35121059Y-60958952D01*
X34990027Y-60871399D01*
X34878601Y-60759973D01*
X34791048Y-60628941D01*
X34730743Y-60483352D01*
X34700000Y-60328795D01*
X34700000Y-60171205D01*
X34730743Y-60016648D01*
X34791048Y-59871059D01*
X34878601Y-59740027D01*
X34990027Y-59628601D01*
X35121059Y-59541048D01*
X35266648Y-59480743D01*
X35421205Y-59450000D01*
X35578795Y-59450000D01*
X35733352Y-59480743D01*
X35733352Y-59480743D01*
G37*
G36*
X34300000Y-61050000D02*
X32700000Y-61050000D01*
X32700000Y-59450000D01*
X34300000Y-59450000D01*
X34300000Y-61050000D01*
X34300000Y-61050000D01*
G37*
G36*
X35733352Y-54230743D02*
X35878941Y-54291048D01*
X36009973Y-54378601D01*
X36121399Y-54490027D01*
X36208952Y-54621059D01*
X36269257Y-54766648D01*
X36300000Y-54921205D01*
X36300000Y-55078795D01*
X36269257Y-55233352D01*
X36208952Y-55378941D01*
X36121399Y-55509973D01*
X36009973Y-55621399D01*
X35878941Y-55708952D01*
X35733352Y-55769257D01*
X35578795Y-55800000D01*
X35421205Y-55800000D01*
X35266648Y-55769257D01*
X35121059Y-55708952D01*
X34990027Y-55621399D01*
X34878601Y-55509973D01*
X34791048Y-55378941D01*
X34730743Y-55233352D01*
X34700000Y-55078795D01*
X34700000Y-54921205D01*
X34730743Y-54766648D01*
X34791048Y-54621059D01*
X34878601Y-54490027D01*
X34990027Y-54378601D01*
X35121059Y-54291048D01*
X35266648Y-54230743D01*
X35421205Y-54200000D01*
X35578795Y-54200000D01*
X35733352Y-54230743D01*
X35733352Y-54230743D01*
G37*
G36*
X34300000Y-55800000D02*
X32700000Y-55800000D01*
X32700000Y-54200000D01*
X34300000Y-54200000D01*
X34300000Y-55800000D01*
X34300000Y-55800000D01*
G37*
G36*
X4500000Y-42250000D02*
X2500000Y-42250000D01*
X2500000Y-40250000D01*
X4500000Y-40250000D01*
X4500000Y-42250000D01*
X4500000Y-42250000D01*
G37*
G36*
X11316030Y-40264469D02*
X11316033Y-40264470D01*
X11316034Y-40264470D01*
X11504535Y-40321651D01*
X11504537Y-40321652D01*
X11678260Y-40414509D01*
X11830528Y-40539472D01*
X11955491Y-40691740D01*
X12048348Y-40865463D01*
X12105531Y-41053970D01*
X12124838Y-41250000D01*
X12105531Y-41446030D01*
X12048348Y-41634537D01*
X11955491Y-41808260D01*
X11830528Y-41960528D01*
X11678260Y-42085491D01*
X11678258Y-42085492D01*
X11504535Y-42178349D01*
X11316034Y-42235530D01*
X11316033Y-42235530D01*
X11316030Y-42235531D01*
X11169124Y-42250000D01*
X11070876Y-42250000D01*
X10923970Y-42235531D01*
X10923967Y-42235530D01*
X10923966Y-42235530D01*
X10735465Y-42178349D01*
X10561742Y-42085492D01*
X10561740Y-42085491D01*
X10409472Y-41960528D01*
X10284509Y-41808260D01*
X10191652Y-41634537D01*
X10134469Y-41446030D01*
X10115162Y-41250000D01*
X10134469Y-41053970D01*
X10191652Y-40865463D01*
X10284509Y-40691740D01*
X10409472Y-40539472D01*
X10561740Y-40414509D01*
X10735463Y-40321652D01*
X10735465Y-40321651D01*
X10923966Y-40264470D01*
X10923967Y-40264470D01*
X10923970Y-40264469D01*
X11070876Y-40250000D01*
X11169124Y-40250000D01*
X11316030Y-40264469D01*
X11316030Y-40264469D01*
G37*
G36*
X16000000Y-42250000D02*
X14000000Y-42250000D01*
X14000000Y-40250000D01*
X16000000Y-40250000D01*
X16000000Y-42250000D01*
X16000000Y-42250000D01*
G37*
G36*
X22816030Y-40264469D02*
X22816033Y-40264470D01*
X22816034Y-40264470D01*
X23004535Y-40321651D01*
X23004537Y-40321652D01*
X23178260Y-40414509D01*
X23330528Y-40539472D01*
X23455491Y-40691740D01*
X23548348Y-40865463D01*
X23605531Y-41053970D01*
X23624838Y-41250000D01*
X23605531Y-41446030D01*
X23548348Y-41634537D01*
X23455491Y-41808260D01*
X23330528Y-41960528D01*
X23178260Y-42085491D01*
X23178258Y-42085492D01*
X23004535Y-42178349D01*
X22816034Y-42235530D01*
X22816033Y-42235530D01*
X22816030Y-42235531D01*
X22669124Y-42250000D01*
X22570876Y-42250000D01*
X22423970Y-42235531D01*
X22423967Y-42235530D01*
X22423966Y-42235530D01*
X22235465Y-42178349D01*
X22061742Y-42085492D01*
X22061740Y-42085491D01*
X21909472Y-41960528D01*
X21784509Y-41808260D01*
X21691652Y-41634537D01*
X21634469Y-41446030D01*
X21615162Y-41250000D01*
X21634469Y-41053970D01*
X21691652Y-40865463D01*
X21784509Y-40691740D01*
X21909472Y-40539472D01*
X22061740Y-40414509D01*
X22235463Y-40321652D01*
X22235465Y-40321651D01*
X22423966Y-40264470D01*
X22423967Y-40264470D01*
X22423970Y-40264469D01*
X22570876Y-40250000D01*
X22669124Y-40250000D01*
X22816030Y-40264469D01*
X22816030Y-40264469D01*
G37*
G36*
X34316030Y-40264469D02*
X34316033Y-40264470D01*
X34316034Y-40264470D01*
X34504535Y-40321651D01*
X34504537Y-40321652D01*
X34678260Y-40414509D01*
X34830528Y-40539472D01*
X34955491Y-40691740D01*
X35048348Y-40865463D01*
X35105531Y-41053970D01*
X35124838Y-41250000D01*
X35105531Y-41446030D01*
X35048348Y-41634537D01*
X34955491Y-41808260D01*
X34830528Y-41960528D01*
X34678260Y-42085491D01*
X34678258Y-42085492D01*
X34504535Y-42178349D01*
X34316034Y-42235530D01*
X34316033Y-42235530D01*
X34316030Y-42235531D01*
X34169124Y-42250000D01*
X34070876Y-42250000D01*
X33923970Y-42235531D01*
X33923967Y-42235530D01*
X33923966Y-42235530D01*
X33735465Y-42178349D01*
X33561742Y-42085492D01*
X33561740Y-42085491D01*
X33409472Y-41960528D01*
X33284509Y-41808260D01*
X33191652Y-41634537D01*
X33134469Y-41446030D01*
X33115162Y-41250000D01*
X33134469Y-41053970D01*
X33191652Y-40865463D01*
X33284509Y-40691740D01*
X33409472Y-40539472D01*
X33561740Y-40414509D01*
X33735463Y-40321652D01*
X33735465Y-40321651D01*
X33923966Y-40264470D01*
X33923967Y-40264470D01*
X33923970Y-40264469D01*
X34070876Y-40250000D01*
X34169124Y-40250000D01*
X34316030Y-40264469D01*
X34316030Y-40264469D01*
G37*
G36*
X27500000Y-42250000D02*
X25500000Y-42250000D01*
X25500000Y-40250000D01*
X27500000Y-40250000D01*
X27500000Y-42250000D01*
X27500000Y-42250000D01*
G37*
G36*
X16675770Y-37015372D02*
X16791689Y-37038429D01*
X16973678Y-37113811D01*
X17137463Y-37223249D01*
X17276751Y-37362537D01*
X17386189Y-37526322D01*
X17461571Y-37708311D01*
X17500000Y-37901509D01*
X17500000Y-38098491D01*
X17461571Y-38291689D01*
X17386189Y-38473678D01*
X17276751Y-38637463D01*
X17137463Y-38776751D01*
X16973678Y-38886189D01*
X16791689Y-38961571D01*
X16675770Y-38984628D01*
X16598493Y-39000000D01*
X16401507Y-39000000D01*
X16324230Y-38984628D01*
X16208311Y-38961571D01*
X16026322Y-38886189D01*
X15862537Y-38776751D01*
X15723249Y-38637463D01*
X15613811Y-38473678D01*
X15538429Y-38291689D01*
X15500000Y-38098491D01*
X15500000Y-37901509D01*
X15538429Y-37708311D01*
X15613811Y-37526322D01*
X15723249Y-37362537D01*
X15862537Y-37223249D01*
X16026322Y-37113811D01*
X16208311Y-37038429D01*
X16324230Y-37015372D01*
X16401507Y-37000000D01*
X16598493Y-37000000D01*
X16675770Y-37015372D01*
X16675770Y-37015372D01*
G37*
G36*
X21675770Y-37015372D02*
X21791689Y-37038429D01*
X21973678Y-37113811D01*
X22137463Y-37223249D01*
X22276751Y-37362537D01*
X22386189Y-37526322D01*
X22461571Y-37708311D01*
X22500000Y-37901509D01*
X22500000Y-38098491D01*
X22461571Y-38291689D01*
X22386189Y-38473678D01*
X22276751Y-38637463D01*
X22137463Y-38776751D01*
X21973678Y-38886189D01*
X21791689Y-38961571D01*
X21675770Y-38984628D01*
X21598493Y-39000000D01*
X21401507Y-39000000D01*
X21324230Y-38984628D01*
X21208311Y-38961571D01*
X21026322Y-38886189D01*
X20862537Y-38776751D01*
X20723249Y-38637463D01*
X20613811Y-38473678D01*
X20538429Y-38291689D01*
X20500000Y-38098491D01*
X20500000Y-37901509D01*
X20538429Y-37708311D01*
X20613811Y-37526322D01*
X20723249Y-37362537D01*
X20862537Y-37223249D01*
X21026322Y-37113811D01*
X21208311Y-37038429D01*
X21324230Y-37015372D01*
X21401507Y-37000000D01*
X21598493Y-37000000D01*
X21675770Y-37015372D01*
X21675770Y-37015372D01*
G37*
G36*
X33450000Y-35476409D02*
X33439923Y-35477402D01*
X33416474Y-35484515D01*
X33394863Y-35496066D01*
X33375921Y-35511612D01*
X33360375Y-35530554D01*
X33348824Y-35552165D01*
X33341711Y-35575614D01*
X33339309Y-35600000D01*
X33341711Y-35624386D01*
X33348824Y-35647835D01*
X33354069Y-35658925D01*
X33398053Y-35741211D01*
X33398053Y-35741212D01*
X33439509Y-35877875D01*
X33453507Y-36020000D01*
X33439509Y-36162125D01*
X33411872Y-36253234D01*
X33398053Y-36298789D01*
X33330731Y-36424738D01*
X33240132Y-36535132D01*
X33211812Y-36558374D01*
X33194485Y-36575701D01*
X33180871Y-36596075D01*
X33171493Y-36618714D01*
X33166713Y-36642748D01*
X33166713Y-36667252D01*
X33171493Y-36691286D01*
X33180871Y-36713925D01*
X33194485Y-36734299D01*
X33211812Y-36751626D01*
X33240132Y-36774868D01*
X33330731Y-36885262D01*
X33398053Y-37011211D01*
X33398053Y-37011212D01*
X33439509Y-37147875D01*
X33453507Y-37290000D01*
X33439509Y-37432125D01*
X33411872Y-37523234D01*
X33398053Y-37568789D01*
X33330731Y-37694738D01*
X33240132Y-37805132D01*
X33129738Y-37895731D01*
X33003789Y-37963053D01*
X32964404Y-37975000D01*
X32867125Y-38004509D01*
X32796113Y-38011503D01*
X32760608Y-38015000D01*
X32239392Y-38015000D01*
X32203887Y-38011503D01*
X32132875Y-38004509D01*
X32035596Y-37975000D01*
X31996211Y-37963053D01*
X31870262Y-37895731D01*
X31759868Y-37805132D01*
X31669269Y-37694738D01*
X31601947Y-37568789D01*
X31588128Y-37523234D01*
X31560491Y-37432125D01*
X31546493Y-37290000D01*
X31560491Y-37147875D01*
X31601947Y-37011212D01*
X31601947Y-37011211D01*
X31669269Y-36885262D01*
X31759868Y-36774868D01*
X31788188Y-36751626D01*
X31805515Y-36734299D01*
X31819129Y-36713925D01*
X31828507Y-36691286D01*
X31833287Y-36667252D01*
X31833287Y-36642748D01*
X31828507Y-36618714D01*
X31819129Y-36596075D01*
X31805515Y-36575701D01*
X31788188Y-36558374D01*
X31759868Y-36535132D01*
X31669269Y-36424738D01*
X31601947Y-36298789D01*
X31588128Y-36253234D01*
X31560491Y-36162125D01*
X31546493Y-36020000D01*
X31560491Y-35877875D01*
X31601947Y-35741212D01*
X31601947Y-35741211D01*
X31645931Y-35658925D01*
X31655308Y-35636287D01*
X31660089Y-35612253D01*
X31660089Y-35587749D01*
X31655309Y-35563715D01*
X31645932Y-35541076D01*
X31632318Y-35520702D01*
X31614991Y-35503374D01*
X31594616Y-35489760D01*
X31571978Y-35480383D01*
X31550000Y-35476011D01*
X31550000Y-34025000D01*
X33450000Y-34025000D01*
X33450000Y-35476409D01*
X33450000Y-35476409D01*
G37*
G36*
X28296113Y-33988497D02*
X28367125Y-33995491D01*
X28458234Y-34023128D01*
X28503789Y-34036947D01*
X28629738Y-34104269D01*
X28740132Y-34194868D01*
X28830731Y-34305262D01*
X28898053Y-34431211D01*
X28898053Y-34431212D01*
X28939509Y-34567875D01*
X28953507Y-34710000D01*
X28939509Y-34852125D01*
X28911872Y-34943234D01*
X28898053Y-34988789D01*
X28830731Y-35114738D01*
X28740132Y-35225132D01*
X28711812Y-35248374D01*
X28694485Y-35265701D01*
X28680871Y-35286075D01*
X28671493Y-35308714D01*
X28666713Y-35332748D01*
X28666713Y-35357252D01*
X28671493Y-35381286D01*
X28680871Y-35403925D01*
X28694485Y-35424299D01*
X28711812Y-35441626D01*
X28740132Y-35464868D01*
X28830731Y-35575262D01*
X28898053Y-35701211D01*
X28910187Y-35741212D01*
X28939509Y-35837875D01*
X28953507Y-35980000D01*
X28939509Y-36122125D01*
X28927375Y-36162125D01*
X28898053Y-36258789D01*
X28854069Y-36341075D01*
X28844692Y-36363713D01*
X28839911Y-36387747D01*
X28839911Y-36412251D01*
X28844691Y-36436285D01*
X28854068Y-36458924D01*
X28867682Y-36479298D01*
X28885009Y-36496626D01*
X28905384Y-36510240D01*
X28928022Y-36519617D01*
X28950000Y-36523989D01*
X28950000Y-37975000D01*
X27050000Y-37975000D01*
X27050000Y-36523591D01*
X27060077Y-36522598D01*
X27083526Y-36515485D01*
X27105137Y-36503934D01*
X27124079Y-36488388D01*
X27139625Y-36469446D01*
X27151176Y-36447835D01*
X27158289Y-36424386D01*
X27160691Y-36400000D01*
X27158289Y-36375614D01*
X27151176Y-36352165D01*
X27145931Y-36341075D01*
X27101947Y-36258789D01*
X27072625Y-36162125D01*
X27060491Y-36122125D01*
X27046493Y-35980000D01*
X27060491Y-35837875D01*
X27089813Y-35741212D01*
X27101947Y-35701211D01*
X27169269Y-35575262D01*
X27259868Y-35464868D01*
X27288188Y-35441626D01*
X27305515Y-35424299D01*
X27319129Y-35403925D01*
X27328507Y-35381286D01*
X27333287Y-35357252D01*
X27333287Y-35332748D01*
X27328507Y-35308714D01*
X27319129Y-35286075D01*
X27305515Y-35265701D01*
X27288188Y-35248374D01*
X27259868Y-35225132D01*
X27169269Y-35114738D01*
X27101947Y-34988789D01*
X27088128Y-34943234D01*
X27060491Y-34852125D01*
X27046493Y-34710000D01*
X27060491Y-34567875D01*
X27101947Y-34431212D01*
X27101947Y-34431211D01*
X27169269Y-34305262D01*
X27259868Y-34194868D01*
X27370262Y-34104269D01*
X27496211Y-34036947D01*
X27541766Y-34023128D01*
X27632875Y-33995491D01*
X27703887Y-33988497D01*
X27739392Y-33985000D01*
X28260608Y-33985000D01*
X28296113Y-33988497D01*
X28296113Y-33988497D01*
G37*
G36*
X6296113Y-33988497D02*
X6367125Y-33995491D01*
X6458234Y-34023128D01*
X6503789Y-34036947D01*
X6629738Y-34104269D01*
X6740132Y-34194868D01*
X6830731Y-34305262D01*
X6898053Y-34431211D01*
X6898053Y-34431212D01*
X6939509Y-34567875D01*
X6953507Y-34710000D01*
X6939509Y-34852125D01*
X6911872Y-34943234D01*
X6898053Y-34988789D01*
X6830731Y-35114738D01*
X6740132Y-35225132D01*
X6711812Y-35248374D01*
X6694485Y-35265701D01*
X6680871Y-35286075D01*
X6671493Y-35308714D01*
X6666713Y-35332748D01*
X6666713Y-35357252D01*
X6671493Y-35381286D01*
X6680871Y-35403925D01*
X6694485Y-35424299D01*
X6711812Y-35441626D01*
X6740132Y-35464868D01*
X6830731Y-35575262D01*
X6898053Y-35701211D01*
X6910187Y-35741212D01*
X6939509Y-35837875D01*
X6953507Y-35980000D01*
X6939509Y-36122125D01*
X6927375Y-36162125D01*
X6898053Y-36258789D01*
X6854069Y-36341075D01*
X6844692Y-36363713D01*
X6839911Y-36387747D01*
X6839911Y-36412251D01*
X6844691Y-36436285D01*
X6854068Y-36458924D01*
X6867682Y-36479298D01*
X6885009Y-36496626D01*
X6905384Y-36510240D01*
X6928022Y-36519617D01*
X6950000Y-36523989D01*
X6950000Y-37975000D01*
X5050000Y-37975000D01*
X5050000Y-36523591D01*
X5060077Y-36522598D01*
X5083526Y-36515485D01*
X5105137Y-36503934D01*
X5124079Y-36488388D01*
X5139625Y-36469446D01*
X5151176Y-36447835D01*
X5158289Y-36424386D01*
X5160691Y-36400000D01*
X5158289Y-36375614D01*
X5151176Y-36352165D01*
X5145931Y-36341075D01*
X5101947Y-36258789D01*
X5072625Y-36162125D01*
X5060491Y-36122125D01*
X5046493Y-35980000D01*
X5060491Y-35837875D01*
X5089813Y-35741212D01*
X5101947Y-35701211D01*
X5169269Y-35575262D01*
X5259868Y-35464868D01*
X5288188Y-35441626D01*
X5305515Y-35424299D01*
X5319129Y-35403925D01*
X5328507Y-35381286D01*
X5333287Y-35357252D01*
X5333287Y-35332748D01*
X5328507Y-35308714D01*
X5319129Y-35286075D01*
X5305515Y-35265701D01*
X5288188Y-35248374D01*
X5259868Y-35225132D01*
X5169269Y-35114738D01*
X5101947Y-34988789D01*
X5088128Y-34943234D01*
X5060491Y-34852125D01*
X5046493Y-34710000D01*
X5060491Y-34567875D01*
X5101947Y-34431212D01*
X5101947Y-34431211D01*
X5169269Y-34305262D01*
X5259868Y-34194868D01*
X5370262Y-34104269D01*
X5496211Y-34036947D01*
X5541766Y-34023128D01*
X5632875Y-33995491D01*
X5703887Y-33988497D01*
X5739392Y-33985000D01*
X6260608Y-33985000D01*
X6296113Y-33988497D01*
X6296113Y-33988497D01*
G37*
G36*
X11450000Y-35436409D02*
X11439923Y-35437402D01*
X11416474Y-35444515D01*
X11394863Y-35456066D01*
X11375921Y-35471612D01*
X11360375Y-35490554D01*
X11348824Y-35512165D01*
X11341711Y-35535614D01*
X11339309Y-35560000D01*
X11341711Y-35584386D01*
X11348824Y-35607835D01*
X11354069Y-35618925D01*
X11398053Y-35701211D01*
X11410187Y-35741212D01*
X11439509Y-35837875D01*
X11453507Y-35980000D01*
X11439509Y-36122125D01*
X11427375Y-36162125D01*
X11398053Y-36258789D01*
X11330731Y-36384738D01*
X11240132Y-36495132D01*
X11211812Y-36518374D01*
X11194485Y-36535701D01*
X11180871Y-36556075D01*
X11171493Y-36578714D01*
X11166713Y-36602748D01*
X11166713Y-36627252D01*
X11171493Y-36651286D01*
X11180871Y-36673925D01*
X11194485Y-36694299D01*
X11211812Y-36711626D01*
X11240132Y-36734868D01*
X11330731Y-36845262D01*
X11398053Y-36971211D01*
X11410187Y-37011212D01*
X11439509Y-37107875D01*
X11453507Y-37250000D01*
X11439509Y-37392125D01*
X11427375Y-37432125D01*
X11398053Y-37528789D01*
X11330731Y-37654738D01*
X11240132Y-37765132D01*
X11129738Y-37855731D01*
X11003789Y-37923053D01*
X10958234Y-37936872D01*
X10867125Y-37964509D01*
X10796113Y-37971503D01*
X10760608Y-37975000D01*
X10239392Y-37975000D01*
X10203887Y-37971503D01*
X10132875Y-37964509D01*
X10041766Y-37936872D01*
X9996211Y-37923053D01*
X9870262Y-37855731D01*
X9759868Y-37765132D01*
X9669269Y-37654738D01*
X9601947Y-37528789D01*
X9572625Y-37432125D01*
X9560491Y-37392125D01*
X9546493Y-37250000D01*
X9560491Y-37107875D01*
X9589813Y-37011212D01*
X9601947Y-36971211D01*
X9669269Y-36845262D01*
X9759868Y-36734868D01*
X9788188Y-36711626D01*
X9805515Y-36694299D01*
X9819129Y-36673925D01*
X9828507Y-36651286D01*
X9833287Y-36627252D01*
X9833287Y-36602748D01*
X9828507Y-36578714D01*
X9819129Y-36556075D01*
X9805515Y-36535701D01*
X9788188Y-36518374D01*
X9759868Y-36495132D01*
X9669269Y-36384738D01*
X9601947Y-36258789D01*
X9572625Y-36162125D01*
X9560491Y-36122125D01*
X9546493Y-35980000D01*
X9560491Y-35837875D01*
X9589813Y-35741212D01*
X9601947Y-35701211D01*
X9645931Y-35618925D01*
X9655308Y-35596287D01*
X9660089Y-35572253D01*
X9660089Y-35547749D01*
X9655309Y-35523715D01*
X9645932Y-35501076D01*
X9632318Y-35480702D01*
X9614991Y-35463374D01*
X9594616Y-35449760D01*
X9571978Y-35440383D01*
X9550000Y-35436011D01*
X9550000Y-33985000D01*
X11450000Y-33985000D01*
X11450000Y-35436409D01*
X11450000Y-35436409D01*
G37*
G36*
X16675770Y-33515372D02*
X16791689Y-33538429D01*
X16973678Y-33613811D01*
X17137463Y-33723249D01*
X17276751Y-33862537D01*
X17386189Y-34026322D01*
X17461571Y-34208311D01*
X17500000Y-34401509D01*
X17500000Y-34598491D01*
X17461571Y-34791689D01*
X17386189Y-34973678D01*
X17276751Y-35137463D01*
X17137463Y-35276751D01*
X16973678Y-35386189D01*
X16791689Y-35461571D01*
X16676340Y-35484515D01*
X16598493Y-35500000D01*
X16401507Y-35500000D01*
X16323660Y-35484515D01*
X16208311Y-35461571D01*
X16026322Y-35386189D01*
X15862537Y-35276751D01*
X15723249Y-35137463D01*
X15613811Y-34973678D01*
X15538429Y-34791689D01*
X15500000Y-34598491D01*
X15500000Y-34401509D01*
X15538429Y-34208311D01*
X15613811Y-34026322D01*
X15723249Y-33862537D01*
X15862537Y-33723249D01*
X16026322Y-33613811D01*
X16208311Y-33538429D01*
X16324230Y-33515372D01*
X16401507Y-33500000D01*
X16598493Y-33500000D01*
X16675770Y-33515372D01*
X16675770Y-33515372D01*
G37*
G36*
X21675770Y-33515372D02*
X21791689Y-33538429D01*
X21973678Y-33613811D01*
X22137463Y-33723249D01*
X22276751Y-33862537D01*
X22386189Y-34026322D01*
X22461571Y-34208311D01*
X22500000Y-34401509D01*
X22500000Y-34598491D01*
X22461571Y-34791689D01*
X22386189Y-34973678D01*
X22276751Y-35137463D01*
X22137463Y-35276751D01*
X21973678Y-35386189D01*
X21791689Y-35461571D01*
X21676340Y-35484515D01*
X21598493Y-35500000D01*
X21401507Y-35500000D01*
X21323660Y-35484515D01*
X21208311Y-35461571D01*
X21026322Y-35386189D01*
X20862537Y-35276751D01*
X20723249Y-35137463D01*
X20613811Y-34973678D01*
X20538429Y-34791689D01*
X20500000Y-34598491D01*
X20500000Y-34401509D01*
X20538429Y-34208311D01*
X20613811Y-34026322D01*
X20723249Y-33862537D01*
X20862537Y-33723249D01*
X21026322Y-33613811D01*
X21208311Y-33538429D01*
X21324230Y-33515372D01*
X21401507Y-33500000D01*
X21598493Y-33500000D01*
X21675770Y-33515372D01*
X21675770Y-33515372D01*
G37*
G36*
X19409122Y-27746115D02*
X19525041Y-27769173D01*
X19852620Y-27904861D01*
X20143511Y-28099228D01*
X20147436Y-28101851D01*
X20398149Y-28352564D01*
X20398151Y-28352567D01*
X20595139Y-28647380D01*
X20730827Y-28974959D01*
X20800000Y-29322716D01*
X20800000Y-29677284D01*
X20730827Y-30025041D01*
X20595139Y-30352620D01*
X20463254Y-30550000D01*
X20398149Y-30647436D01*
X20147436Y-30898149D01*
X20147433Y-30898151D01*
X19852620Y-31095139D01*
X19525041Y-31230827D01*
X19409122Y-31253885D01*
X19177286Y-31300000D01*
X18822714Y-31300000D01*
X18590878Y-31253885D01*
X18474959Y-31230827D01*
X18147380Y-31095139D01*
X17852567Y-30898151D01*
X17852564Y-30898149D01*
X17601851Y-30647436D01*
X17536746Y-30550000D01*
X17404861Y-30352620D01*
X17269173Y-30025041D01*
X17200000Y-29677284D01*
X17200000Y-29322716D01*
X17269173Y-28974959D01*
X17404861Y-28647380D01*
X17601849Y-28352567D01*
X17601851Y-28352564D01*
X17852564Y-28101851D01*
X17856489Y-28099228D01*
X18147380Y-27904861D01*
X18474959Y-27769173D01*
X18590878Y-27746115D01*
X18822714Y-27700000D01*
X19177286Y-27700000D01*
X19409122Y-27746115D01*
X19409122Y-27746115D01*
G37*
G36*
X25050000Y-30550000D02*
X23450000Y-30550000D01*
X23450000Y-28950000D01*
X25050000Y-28950000D01*
X25050000Y-30550000D01*
X25050000Y-30550000D01*
G37*
G36*
X26483352Y-28980743D02*
X26628941Y-29041048D01*
X26759973Y-29128601D01*
X26871399Y-29240027D01*
X26958952Y-29371059D01*
X27019257Y-29516648D01*
X27050000Y-29671205D01*
X27050000Y-29828795D01*
X27019257Y-29983352D01*
X26958952Y-30128941D01*
X26871399Y-30259973D01*
X26759973Y-30371399D01*
X26628941Y-30458952D01*
X26483352Y-30519257D01*
X26328795Y-30550000D01*
X26171205Y-30550000D01*
X26016648Y-30519257D01*
X25871059Y-30458952D01*
X25740027Y-30371399D01*
X25628601Y-30259973D01*
X25541048Y-30128941D01*
X25480743Y-29983352D01*
X25450000Y-29828795D01*
X25450000Y-29671205D01*
X25480743Y-29516648D01*
X25541048Y-29371059D01*
X25628601Y-29240027D01*
X25740027Y-29128601D01*
X25871059Y-29041048D01*
X26016648Y-28980743D01*
X26171205Y-28950000D01*
X26328795Y-28950000D01*
X26483352Y-28980743D01*
X26483352Y-28980743D01*
G37*
G36*
X2128707Y-23317597D02*
X2205836Y-23325193D01*
X2337787Y-23365220D01*
X2403763Y-23385233D01*
X2586172Y-23482733D01*
X2746054Y-23613946D01*
X2877267Y-23773828D01*
X2974767Y-23956237D01*
X2974767Y-23956238D01*
X3034807Y-24154164D01*
X3055080Y-24360000D01*
X3034807Y-24565836D01*
X2994780Y-24697787D01*
X2974767Y-24763763D01*
X2877267Y-24946172D01*
X2746054Y-25106054D01*
X2586172Y-25237267D01*
X2403763Y-25334767D01*
X2337787Y-25354780D01*
X2205836Y-25394807D01*
X2128707Y-25402404D01*
X2051580Y-25410000D01*
X1948420Y-25410000D01*
X1871293Y-25402404D01*
X1794164Y-25394807D01*
X1662213Y-25354780D01*
X1596237Y-25334767D01*
X1413828Y-25237267D01*
X1253946Y-25106054D01*
X1122733Y-24946172D01*
X1025233Y-24763763D01*
X1005220Y-24697787D01*
X965193Y-24565836D01*
X944920Y-24360000D01*
X965193Y-24154164D01*
X1025233Y-23956238D01*
X1025233Y-23956237D01*
X1122733Y-23773828D01*
X1253946Y-23613946D01*
X1413828Y-23482733D01*
X1596237Y-23385233D01*
X1662213Y-23365220D01*
X1794164Y-23325193D01*
X1871293Y-23317597D01*
X1948420Y-23310000D01*
X2051580Y-23310000D01*
X2128707Y-23317597D01*
X2128707Y-23317597D01*
G37*
G36*
X36128707Y-23317597D02*
X36205836Y-23325193D01*
X36337787Y-23365220D01*
X36403763Y-23385233D01*
X36586172Y-23482733D01*
X36746054Y-23613946D01*
X36877267Y-23773828D01*
X36974767Y-23956237D01*
X36974767Y-23956238D01*
X37034807Y-24154164D01*
X37055080Y-24360000D01*
X37034807Y-24565836D01*
X36994780Y-24697787D01*
X36974767Y-24763763D01*
X36877267Y-24946172D01*
X36746054Y-25106054D01*
X36586172Y-25237267D01*
X36403763Y-25334767D01*
X36337787Y-25354780D01*
X36205836Y-25394807D01*
X36128707Y-25402403D01*
X36051580Y-25410000D01*
X35948420Y-25410000D01*
X35871293Y-25402404D01*
X35794164Y-25394807D01*
X35662213Y-25354780D01*
X35596237Y-25334767D01*
X35413828Y-25237267D01*
X35253946Y-25106054D01*
X35122733Y-24946172D01*
X35025233Y-24763763D01*
X35005220Y-24697787D01*
X34965193Y-24565836D01*
X34944920Y-24360000D01*
X34965193Y-24154164D01*
X35025233Y-23956238D01*
X35025233Y-23956237D01*
X35122733Y-23773828D01*
X35253946Y-23613946D01*
X35413828Y-23482733D01*
X35596237Y-23385233D01*
X35662213Y-23365220D01*
X35794164Y-23325193D01*
X35871293Y-23317596D01*
X35948420Y-23310000D01*
X36051580Y-23310000D01*
X36128707Y-23317597D01*
X36128707Y-23317597D01*
G37*
G36*
X36128707Y-20777597D02*
X36205836Y-20785193D01*
X36337787Y-20825220D01*
X36403763Y-20845233D01*
X36586172Y-20942733D01*
X36746054Y-21073946D01*
X36877267Y-21233828D01*
X36974767Y-21416237D01*
X36974767Y-21416238D01*
X37034807Y-21614164D01*
X37055080Y-21820000D01*
X37034807Y-22025836D01*
X36994780Y-22157787D01*
X36974767Y-22223763D01*
X36877267Y-22406172D01*
X36746054Y-22566054D01*
X36586172Y-22697267D01*
X36403763Y-22794767D01*
X36337787Y-22814780D01*
X36205836Y-22854807D01*
X36128707Y-22862403D01*
X36051580Y-22870000D01*
X35948420Y-22870000D01*
X35871293Y-22862403D01*
X35794164Y-22854807D01*
X35662213Y-22814780D01*
X35596237Y-22794767D01*
X35413828Y-22697267D01*
X35253946Y-22566054D01*
X35122733Y-22406172D01*
X35025233Y-22223763D01*
X35005220Y-22157787D01*
X34965193Y-22025836D01*
X34944920Y-21820000D01*
X34965193Y-21614164D01*
X35025233Y-21416238D01*
X35025233Y-21416237D01*
X35122733Y-21233828D01*
X35253946Y-21073946D01*
X35413828Y-20942733D01*
X35596237Y-20845233D01*
X35662213Y-20825220D01*
X35794164Y-20785193D01*
X35871293Y-20777597D01*
X35948420Y-20770000D01*
X36051580Y-20770000D01*
X36128707Y-20777597D01*
X36128707Y-20777597D01*
G37*
G36*
X2128707Y-20777597D02*
X2205836Y-20785193D01*
X2337787Y-20825220D01*
X2403763Y-20845233D01*
X2586172Y-20942733D01*
X2746054Y-21073946D01*
X2877267Y-21233828D01*
X2974767Y-21416237D01*
X2974767Y-21416238D01*
X3034807Y-21614164D01*
X3055080Y-21820000D01*
X3034807Y-22025836D01*
X2994780Y-22157787D01*
X2974767Y-22223763D01*
X2877267Y-22406172D01*
X2746054Y-22566054D01*
X2586172Y-22697267D01*
X2403763Y-22794767D01*
X2337787Y-22814780D01*
X2205836Y-22854807D01*
X2128707Y-22862403D01*
X2051580Y-22870000D01*
X1948420Y-22870000D01*
X1871293Y-22862403D01*
X1794164Y-22854807D01*
X1662213Y-22814780D01*
X1596237Y-22794767D01*
X1413828Y-22697267D01*
X1253946Y-22566054D01*
X1122733Y-22406172D01*
X1025233Y-22223763D01*
X1005220Y-22157787D01*
X965193Y-22025836D01*
X944920Y-21820000D01*
X965193Y-21614164D01*
X1025233Y-21416238D01*
X1025233Y-21416237D01*
X1122733Y-21233828D01*
X1253946Y-21073946D01*
X1413828Y-20942733D01*
X1596237Y-20845233D01*
X1662213Y-20825220D01*
X1794164Y-20785193D01*
X1871293Y-20777597D01*
X1948420Y-20770000D01*
X2051580Y-20770000D01*
X2128707Y-20777597D01*
X2128707Y-20777597D01*
G37*
G36*
X36128707Y-18237596D02*
X36205836Y-18245193D01*
X36337787Y-18285220D01*
X36403763Y-18305233D01*
X36586172Y-18402733D01*
X36746054Y-18533946D01*
X36877267Y-18693828D01*
X36974767Y-18876237D01*
X36974767Y-18876238D01*
X37034807Y-19074164D01*
X37055080Y-19280000D01*
X37034807Y-19485836D01*
X36994780Y-19617787D01*
X36974767Y-19683763D01*
X36877267Y-19866172D01*
X36746054Y-20026054D01*
X36586172Y-20157267D01*
X36403763Y-20254767D01*
X36337787Y-20274780D01*
X36205836Y-20314807D01*
X36128707Y-20322403D01*
X36051580Y-20330000D01*
X35948420Y-20330000D01*
X35871293Y-20322403D01*
X35794164Y-20314807D01*
X35662213Y-20274780D01*
X35596237Y-20254767D01*
X35413828Y-20157267D01*
X35253946Y-20026054D01*
X35122733Y-19866172D01*
X35025233Y-19683763D01*
X35005220Y-19617787D01*
X34965193Y-19485836D01*
X34944920Y-19280000D01*
X34965193Y-19074164D01*
X35025233Y-18876238D01*
X35025233Y-18876237D01*
X35122733Y-18693828D01*
X35253946Y-18533946D01*
X35413828Y-18402733D01*
X35596237Y-18305233D01*
X35662213Y-18285220D01*
X35794164Y-18245193D01*
X35871293Y-18237596D01*
X35948420Y-18230000D01*
X36051580Y-18230000D01*
X36128707Y-18237596D01*
X36128707Y-18237596D01*
G37*
G36*
X2128707Y-18237596D02*
X2205836Y-18245193D01*
X2337787Y-18285220D01*
X2403763Y-18305233D01*
X2586172Y-18402733D01*
X2746054Y-18533946D01*
X2877267Y-18693828D01*
X2974767Y-18876237D01*
X2974767Y-18876238D01*
X3034807Y-19074164D01*
X3055080Y-19280000D01*
X3034807Y-19485836D01*
X2994780Y-19617787D01*
X2974767Y-19683763D01*
X2877267Y-19866172D01*
X2746054Y-20026054D01*
X2586172Y-20157267D01*
X2403763Y-20254767D01*
X2337787Y-20274780D01*
X2205836Y-20314807D01*
X2128707Y-20322403D01*
X2051580Y-20330000D01*
X1948420Y-20330000D01*
X1871293Y-20322403D01*
X1794164Y-20314807D01*
X1662213Y-20274780D01*
X1596237Y-20254767D01*
X1413828Y-20157267D01*
X1253946Y-20026054D01*
X1122733Y-19866172D01*
X1025233Y-19683763D01*
X1005220Y-19617787D01*
X965193Y-19485836D01*
X944920Y-19280000D01*
X965193Y-19074164D01*
X1025233Y-18876238D01*
X1025233Y-18876237D01*
X1122733Y-18693828D01*
X1253946Y-18533946D01*
X1413828Y-18402733D01*
X1596237Y-18305233D01*
X1662213Y-18285220D01*
X1794164Y-18245193D01*
X1871293Y-18237596D01*
X1948420Y-18230000D01*
X2051580Y-18230000D01*
X2128707Y-18237596D01*
X2128707Y-18237596D01*
G37*
G36*
X36128707Y-15697596D02*
X36205836Y-15705193D01*
X36337787Y-15745220D01*
X36403763Y-15765233D01*
X36586172Y-15862733D01*
X36746054Y-15993946D01*
X36877267Y-16153828D01*
X36974767Y-16336237D01*
X36974767Y-16336238D01*
X37034807Y-16534164D01*
X37055080Y-16740000D01*
X37034807Y-16945836D01*
X36994780Y-17077787D01*
X36974767Y-17143763D01*
X36877267Y-17326172D01*
X36746054Y-17486054D01*
X36586172Y-17617267D01*
X36403763Y-17714767D01*
X36337787Y-17734780D01*
X36205836Y-17774807D01*
X36128707Y-17782404D01*
X36051580Y-17790000D01*
X35948420Y-17790000D01*
X35871293Y-17782404D01*
X35794164Y-17774807D01*
X35662213Y-17734780D01*
X35596237Y-17714767D01*
X35413828Y-17617267D01*
X35253946Y-17486054D01*
X35122733Y-17326172D01*
X35025233Y-17143763D01*
X35005220Y-17077787D01*
X34965193Y-16945836D01*
X34944920Y-16740000D01*
X34965193Y-16534164D01*
X35025233Y-16336238D01*
X35025233Y-16336237D01*
X35122733Y-16153828D01*
X35253946Y-15993946D01*
X35413828Y-15862733D01*
X35596237Y-15765233D01*
X35662213Y-15745220D01*
X35794164Y-15705193D01*
X35871293Y-15697596D01*
X35948420Y-15690000D01*
X36051580Y-15690000D01*
X36128707Y-15697596D01*
X36128707Y-15697596D01*
G37*
G36*
X2128707Y-15697596D02*
X2205836Y-15705193D01*
X2337787Y-15745220D01*
X2403763Y-15765233D01*
X2586172Y-15862733D01*
X2746054Y-15993946D01*
X2877267Y-16153828D01*
X2974767Y-16336237D01*
X2974767Y-16336238D01*
X3034807Y-16534164D01*
X3055080Y-16740000D01*
X3034807Y-16945836D01*
X2994780Y-17077787D01*
X2974767Y-17143763D01*
X2877267Y-17326172D01*
X2746054Y-17486054D01*
X2586172Y-17617267D01*
X2403763Y-17714767D01*
X2337787Y-17734780D01*
X2205836Y-17774807D01*
X2128707Y-17782404D01*
X2051580Y-17790000D01*
X1948420Y-17790000D01*
X1871293Y-17782404D01*
X1794164Y-17774807D01*
X1662213Y-17734780D01*
X1596237Y-17714767D01*
X1413828Y-17617267D01*
X1253946Y-17486054D01*
X1122733Y-17326172D01*
X1025233Y-17143763D01*
X1005220Y-17077787D01*
X965193Y-16945836D01*
X944920Y-16740000D01*
X965193Y-16534164D01*
X1025233Y-16336238D01*
X1025233Y-16336237D01*
X1122733Y-16153828D01*
X1253946Y-15993946D01*
X1413828Y-15862733D01*
X1596237Y-15765233D01*
X1662213Y-15745220D01*
X1794164Y-15705193D01*
X1871293Y-15697596D01*
X1948420Y-15690000D01*
X2051580Y-15690000D01*
X2128707Y-15697596D01*
X2128707Y-15697596D01*
G37*
G36*
X2128707Y-13157596D02*
X2205836Y-13165193D01*
X2337787Y-13205220D01*
X2403763Y-13225233D01*
X2586172Y-13322733D01*
X2746054Y-13453946D01*
X2877267Y-13613828D01*
X2974767Y-13796237D01*
X2974767Y-13796238D01*
X3034807Y-13994164D01*
X3055080Y-14200000D01*
X3034807Y-14405836D01*
X2994780Y-14537787D01*
X2974767Y-14603763D01*
X2877267Y-14786172D01*
X2746054Y-14946054D01*
X2586172Y-15077267D01*
X2403763Y-15174767D01*
X2337787Y-15194780D01*
X2205836Y-15234807D01*
X2128707Y-15242404D01*
X2051580Y-15250000D01*
X1948420Y-15250000D01*
X1871293Y-15242404D01*
X1794164Y-15234807D01*
X1662213Y-15194780D01*
X1596237Y-15174767D01*
X1413828Y-15077267D01*
X1253946Y-14946054D01*
X1122733Y-14786172D01*
X1025233Y-14603763D01*
X1005220Y-14537787D01*
X965193Y-14405836D01*
X944920Y-14200000D01*
X965193Y-13994164D01*
X1025233Y-13796238D01*
X1025233Y-13796237D01*
X1122733Y-13613828D01*
X1253946Y-13453946D01*
X1413828Y-13322733D01*
X1596237Y-13225233D01*
X1662213Y-13205220D01*
X1794164Y-13165193D01*
X1871293Y-13157597D01*
X1948420Y-13150000D01*
X2051580Y-13150000D01*
X2128707Y-13157596D01*
X2128707Y-13157596D01*
G37*
G36*
X36128707Y-13157596D02*
X36205836Y-13165193D01*
X36337787Y-13205220D01*
X36403763Y-13225233D01*
X36586172Y-13322733D01*
X36746054Y-13453946D01*
X36877267Y-13613828D01*
X36974767Y-13796237D01*
X36974767Y-13796238D01*
X37034807Y-13994164D01*
X37055080Y-14200000D01*
X37034807Y-14405836D01*
X36994780Y-14537787D01*
X36974767Y-14603763D01*
X36877267Y-14786172D01*
X36746054Y-14946054D01*
X36586172Y-15077267D01*
X36403763Y-15174767D01*
X36337787Y-15194780D01*
X36205836Y-15234807D01*
X36128707Y-15242404D01*
X36051580Y-15250000D01*
X35948420Y-15250000D01*
X35871293Y-15242404D01*
X35794164Y-15234807D01*
X35662213Y-15194780D01*
X35596237Y-15174767D01*
X35413828Y-15077267D01*
X35253946Y-14946054D01*
X35122733Y-14786172D01*
X35025233Y-14603763D01*
X35005220Y-14537787D01*
X34965193Y-14405836D01*
X34944920Y-14200000D01*
X34965193Y-13994164D01*
X35025233Y-13796238D01*
X35025233Y-13796237D01*
X35122733Y-13613828D01*
X35253946Y-13453946D01*
X35413828Y-13322733D01*
X35596237Y-13225233D01*
X35662213Y-13205220D01*
X35794164Y-13165193D01*
X35871293Y-13157597D01*
X35948420Y-13150000D01*
X36051580Y-13150000D01*
X36128707Y-13157596D01*
X36128707Y-13157596D01*
G37*
G36*
X2128707Y-10617597D02*
X2205836Y-10625193D01*
X2337787Y-10665220D01*
X2403763Y-10685233D01*
X2586172Y-10782733D01*
X2746054Y-10913946D01*
X2877267Y-11073828D01*
X2974767Y-11256237D01*
X2974767Y-11256238D01*
X3034807Y-11454164D01*
X3055080Y-11660000D01*
X3034807Y-11865836D01*
X2994780Y-11997787D01*
X2974767Y-12063763D01*
X2877267Y-12246172D01*
X2746054Y-12406054D01*
X2586172Y-12537267D01*
X2403763Y-12634767D01*
X2337787Y-12654780D01*
X2205836Y-12694807D01*
X2128707Y-12702404D01*
X2051580Y-12710000D01*
X1948420Y-12710000D01*
X1871293Y-12702404D01*
X1794164Y-12694807D01*
X1662213Y-12654780D01*
X1596237Y-12634767D01*
X1413828Y-12537267D01*
X1253946Y-12406054D01*
X1122733Y-12246172D01*
X1025233Y-12063763D01*
X1005220Y-11997787D01*
X965193Y-11865836D01*
X944920Y-11660000D01*
X965193Y-11454164D01*
X1025233Y-11256238D01*
X1025233Y-11256237D01*
X1122733Y-11073828D01*
X1253946Y-10913946D01*
X1413828Y-10782733D01*
X1596237Y-10685233D01*
X1662213Y-10665220D01*
X1794164Y-10625193D01*
X1871293Y-10617597D01*
X1948420Y-10610000D01*
X2051580Y-10610000D01*
X2128707Y-10617597D01*
X2128707Y-10617597D01*
G37*
G36*
X36128707Y-10617597D02*
X36205836Y-10625193D01*
X36337787Y-10665220D01*
X36403763Y-10685233D01*
X36586172Y-10782733D01*
X36746054Y-10913946D01*
X36877267Y-11073828D01*
X36974767Y-11256237D01*
X36974767Y-11256238D01*
X37034807Y-11454164D01*
X37055080Y-11660000D01*
X37034807Y-11865836D01*
X36994780Y-11997787D01*
X36974767Y-12063763D01*
X36877267Y-12246172D01*
X36746054Y-12406054D01*
X36586172Y-12537267D01*
X36403763Y-12634767D01*
X36337787Y-12654780D01*
X36205836Y-12694807D01*
X36128707Y-12702404D01*
X36051580Y-12710000D01*
X35948420Y-12710000D01*
X35871293Y-12702404D01*
X35794164Y-12694807D01*
X35662213Y-12654780D01*
X35596237Y-12634767D01*
X35413828Y-12537267D01*
X35253946Y-12406054D01*
X35122733Y-12246172D01*
X35025233Y-12063763D01*
X35005220Y-11997787D01*
X34965193Y-11865836D01*
X34944920Y-11660000D01*
X34965193Y-11454164D01*
X35025233Y-11256238D01*
X35025233Y-11256237D01*
X35122733Y-11073828D01*
X35253946Y-10913946D01*
X35413828Y-10782733D01*
X35596237Y-10685233D01*
X35662213Y-10665220D01*
X35794164Y-10625193D01*
X35871293Y-10617597D01*
X35948420Y-10610000D01*
X36051580Y-10610000D01*
X36128707Y-10617597D01*
X36128707Y-10617597D01*
G37*
G36*
X2128707Y-8077596D02*
X2205836Y-8085193D01*
X2337787Y-8125220D01*
X2403763Y-8145233D01*
X2586172Y-8242733D01*
X2746054Y-8373946D01*
X2877267Y-8533828D01*
X2974767Y-8716237D01*
X2974767Y-8716238D01*
X3034807Y-8914164D01*
X3055080Y-9120000D01*
X3034807Y-9325836D01*
X2994780Y-9457787D01*
X2974767Y-9523763D01*
X2877267Y-9706172D01*
X2746054Y-9866054D01*
X2586172Y-9997267D01*
X2403763Y-10094767D01*
X2337787Y-10114780D01*
X2205836Y-10154807D01*
X2128707Y-10162404D01*
X2051580Y-10170000D01*
X1948420Y-10170000D01*
X1871293Y-10162404D01*
X1794164Y-10154807D01*
X1662213Y-10114780D01*
X1596237Y-10094767D01*
X1413828Y-9997267D01*
X1253946Y-9866054D01*
X1122733Y-9706172D01*
X1025233Y-9523763D01*
X1005220Y-9457787D01*
X965193Y-9325836D01*
X944920Y-9120000D01*
X965193Y-8914164D01*
X1025233Y-8716238D01*
X1025233Y-8716237D01*
X1122733Y-8533828D01*
X1253946Y-8373946D01*
X1413828Y-8242733D01*
X1596237Y-8145233D01*
X1662213Y-8125220D01*
X1794164Y-8085193D01*
X1871293Y-8077596D01*
X1948420Y-8070000D01*
X2051580Y-8070000D01*
X2128707Y-8077596D01*
X2128707Y-8077596D01*
G37*
G36*
X36128707Y-8077596D02*
X36205836Y-8085193D01*
X36337787Y-8125220D01*
X36403763Y-8145233D01*
X36586172Y-8242733D01*
X36746054Y-8373946D01*
X36877267Y-8533828D01*
X36974767Y-8716237D01*
X36974767Y-8716238D01*
X37034807Y-8914164D01*
X37055080Y-9120000D01*
X37034807Y-9325836D01*
X36994780Y-9457787D01*
X36974767Y-9523763D01*
X36877267Y-9706172D01*
X36746054Y-9866054D01*
X36586172Y-9997267D01*
X36403763Y-10094767D01*
X36337787Y-10114780D01*
X36205836Y-10154807D01*
X36128707Y-10162404D01*
X36051580Y-10170000D01*
X35948420Y-10170000D01*
X35871293Y-10162404D01*
X35794164Y-10154807D01*
X35662213Y-10114780D01*
X35596237Y-10094767D01*
X35413828Y-9997267D01*
X35253946Y-9866054D01*
X35122733Y-9706172D01*
X35025233Y-9523763D01*
X35005220Y-9457787D01*
X34965193Y-9325836D01*
X34944920Y-9120000D01*
X34965193Y-8914164D01*
X35025233Y-8716238D01*
X35025233Y-8716237D01*
X35122733Y-8533828D01*
X35253946Y-8373946D01*
X35413828Y-8242733D01*
X35596237Y-8145233D01*
X35662213Y-8125220D01*
X35794164Y-8085193D01*
X35871293Y-8077596D01*
X35948420Y-8070000D01*
X36051580Y-8070000D01*
X36128707Y-8077596D01*
X36128707Y-8077596D01*
G37*
G36*
X2128707Y-5537596D02*
X2205836Y-5545193D01*
X2337787Y-5585220D01*
X2403763Y-5605233D01*
X2586172Y-5702733D01*
X2746054Y-5833946D01*
X2877267Y-5993828D01*
X2974767Y-6176237D01*
X2974767Y-6176238D01*
X3034807Y-6374164D01*
X3055080Y-6580000D01*
X3034807Y-6785836D01*
X2994780Y-6917787D01*
X2974767Y-6983763D01*
X2877267Y-7166172D01*
X2746054Y-7326054D01*
X2586172Y-7457267D01*
X2403763Y-7554767D01*
X2337787Y-7574780D01*
X2205836Y-7614807D01*
X2128707Y-7622403D01*
X2051580Y-7630000D01*
X1948420Y-7630000D01*
X1871293Y-7622403D01*
X1794164Y-7614807D01*
X1662213Y-7574780D01*
X1596237Y-7554767D01*
X1413828Y-7457267D01*
X1253946Y-7326054D01*
X1122733Y-7166172D01*
X1025233Y-6983763D01*
X1005220Y-6917787D01*
X965193Y-6785836D01*
X944920Y-6580000D01*
X965193Y-6374164D01*
X1025233Y-6176238D01*
X1025233Y-6176237D01*
X1122733Y-5993828D01*
X1253946Y-5833946D01*
X1413828Y-5702733D01*
X1596237Y-5605233D01*
X1662213Y-5585220D01*
X1794164Y-5545193D01*
X1871293Y-5537596D01*
X1948420Y-5530000D01*
X2051580Y-5530000D01*
X2128707Y-5537596D01*
X2128707Y-5537596D01*
G37*
G36*
X36128707Y-5537596D02*
X36205836Y-5545193D01*
X36337787Y-5585220D01*
X36403763Y-5605233D01*
X36586172Y-5702733D01*
X36746054Y-5833946D01*
X36877267Y-5993828D01*
X36974767Y-6176237D01*
X36974767Y-6176238D01*
X37034807Y-6374164D01*
X37055080Y-6580000D01*
X37034807Y-6785836D01*
X36994780Y-6917787D01*
X36974767Y-6983763D01*
X36877267Y-7166172D01*
X36746054Y-7326054D01*
X36586172Y-7457267D01*
X36403763Y-7554767D01*
X36337787Y-7574780D01*
X36205836Y-7614807D01*
X36128707Y-7622403D01*
X36051580Y-7630000D01*
X35948420Y-7630000D01*
X35871293Y-7622403D01*
X35794164Y-7614807D01*
X35662213Y-7574780D01*
X35596237Y-7554767D01*
X35413828Y-7457267D01*
X35253946Y-7326054D01*
X35122733Y-7166172D01*
X35025233Y-6983763D01*
X35005220Y-6917787D01*
X34965193Y-6785836D01*
X34944920Y-6580000D01*
X34965193Y-6374164D01*
X35025233Y-6176238D01*
X35025233Y-6176237D01*
X35122733Y-5993828D01*
X35253946Y-5833946D01*
X35413828Y-5702733D01*
X35596237Y-5605233D01*
X35662213Y-5585220D01*
X35794164Y-5545193D01*
X35871293Y-5537597D01*
X35948420Y-5530000D01*
X36051580Y-5530000D01*
X36128707Y-5537596D01*
X36128707Y-5537596D01*
G37*
G36*
X7909122Y-1746115D02*
X8025041Y-1769173D01*
X8352620Y-1904861D01*
X8643511Y-2099228D01*
X8647436Y-2101851D01*
X8898149Y-2352564D01*
X8898151Y-2352567D01*
X9030072Y-2550000D01*
X9095140Y-2647382D01*
X9230827Y-2974960D01*
X9294278Y-3293946D01*
X9300000Y-3322716D01*
X9300000Y-3677284D01*
X9230827Y-4025041D01*
X9139371Y-4245834D01*
X9095140Y-4352618D01*
X8898149Y-4647436D01*
X8647436Y-4898149D01*
X8647433Y-4898151D01*
X8352620Y-5095139D01*
X8025041Y-5230827D01*
X7909122Y-5253885D01*
X7677286Y-5300000D01*
X7322714Y-5300000D01*
X7090878Y-5253885D01*
X6974959Y-5230827D01*
X6647380Y-5095139D01*
X6352567Y-4898151D01*
X6352564Y-4898149D01*
X6101851Y-4647436D01*
X5904860Y-4352618D01*
X5860629Y-4245834D01*
X5769173Y-4025041D01*
X5700000Y-3677284D01*
X5700000Y-3322716D01*
X5705723Y-3293946D01*
X5769173Y-2974960D01*
X5904860Y-2647382D01*
X5969929Y-2550000D01*
X6101849Y-2352567D01*
X6101851Y-2352564D01*
X6352564Y-2101851D01*
X6356489Y-2099228D01*
X6647380Y-1904861D01*
X6974959Y-1769173D01*
X7090878Y-1746115D01*
X7322714Y-1700000D01*
X7677286Y-1700000D01*
X7909122Y-1746115D01*
X7909122Y-1746115D01*
G37*
G36*
X30909122Y-1746115D02*
X31025041Y-1769173D01*
X31352620Y-1904861D01*
X31643511Y-2099228D01*
X31647436Y-2101851D01*
X31898149Y-2352564D01*
X31898151Y-2352567D01*
X32030072Y-2550000D01*
X32095140Y-2647382D01*
X32230827Y-2974960D01*
X32294278Y-3293946D01*
X32300000Y-3322716D01*
X32300000Y-3677284D01*
X32230827Y-4025041D01*
X32139371Y-4245834D01*
X32095140Y-4352618D01*
X31898149Y-4647436D01*
X31647436Y-4898149D01*
X31647433Y-4898151D01*
X31352620Y-5095139D01*
X31025041Y-5230827D01*
X30909122Y-5253885D01*
X30677286Y-5300000D01*
X30322714Y-5300000D01*
X30090878Y-5253885D01*
X29974959Y-5230827D01*
X29647380Y-5095139D01*
X29352567Y-4898151D01*
X29352564Y-4898149D01*
X29101851Y-4647436D01*
X28904860Y-4352618D01*
X28860629Y-4245834D01*
X28769173Y-4025041D01*
X28700000Y-3677284D01*
X28700000Y-3322716D01*
X28705723Y-3293946D01*
X28769173Y-2974960D01*
X28904860Y-2647382D01*
X28969929Y-2550000D01*
X29101849Y-2352567D01*
X29101851Y-2352564D01*
X29352564Y-2101851D01*
X29356489Y-2099228D01*
X29647380Y-1904861D01*
X29974959Y-1769173D01*
X30090878Y-1746115D01*
X30322714Y-1700000D01*
X30677286Y-1700000D01*
X30909122Y-1746115D01*
X30909122Y-1746115D01*
G37*
G36*
X2128707Y-2997597D02*
X2205836Y-3005193D01*
X2337787Y-3045220D01*
X2403763Y-3065233D01*
X2586172Y-3162733D01*
X2746054Y-3293946D01*
X2877267Y-3453828D01*
X2974767Y-3636237D01*
X2974767Y-3636238D01*
X3034807Y-3834164D01*
X3055080Y-4040000D01*
X3034807Y-4245836D01*
X2994780Y-4377787D01*
X2974767Y-4443763D01*
X2877267Y-4626172D01*
X2746054Y-4786054D01*
X2586172Y-4917267D01*
X2403763Y-5014767D01*
X2337787Y-5034780D01*
X2205836Y-5074807D01*
X2128707Y-5082404D01*
X2051580Y-5090000D01*
X1948420Y-5090000D01*
X1871293Y-5082404D01*
X1794164Y-5074807D01*
X1662213Y-5034780D01*
X1596237Y-5014767D01*
X1413828Y-4917267D01*
X1253946Y-4786054D01*
X1122733Y-4626172D01*
X1025233Y-4443763D01*
X1005220Y-4377787D01*
X965193Y-4245836D01*
X944920Y-4040000D01*
X965193Y-3834164D01*
X1025233Y-3636238D01*
X1025233Y-3636237D01*
X1122733Y-3453828D01*
X1253946Y-3293946D01*
X1413828Y-3162733D01*
X1596237Y-3065233D01*
X1662213Y-3045220D01*
X1794164Y-3005193D01*
X1871293Y-2997597D01*
X1948420Y-2990000D01*
X2051580Y-2990000D01*
X2128707Y-2997597D01*
X2128707Y-2997597D01*
G37*
G36*
X36128707Y-2997597D02*
X36205836Y-3005193D01*
X36337787Y-3045220D01*
X36403763Y-3065233D01*
X36586172Y-3162733D01*
X36746054Y-3293946D01*
X36877267Y-3453828D01*
X36974767Y-3636237D01*
X36974767Y-3636238D01*
X37034807Y-3834164D01*
X37055080Y-4040000D01*
X37034807Y-4245836D01*
X36994780Y-4377787D01*
X36974767Y-4443763D01*
X36877267Y-4626172D01*
X36746054Y-4786054D01*
X36586172Y-4917267D01*
X36403763Y-5014767D01*
X36337787Y-5034780D01*
X36205836Y-5074807D01*
X36128707Y-5082404D01*
X36051580Y-5090000D01*
X35948420Y-5090000D01*
X35871293Y-5082404D01*
X35794164Y-5074807D01*
X35662213Y-5034780D01*
X35596237Y-5014767D01*
X35413828Y-4917267D01*
X35253946Y-4786054D01*
X35122733Y-4626172D01*
X35025233Y-4443763D01*
X35005220Y-4377787D01*
X34965193Y-4245836D01*
X34944920Y-4040000D01*
X34965193Y-3834164D01*
X35025233Y-3636238D01*
X35025233Y-3636237D01*
X35122733Y-3453828D01*
X35253946Y-3293946D01*
X35413828Y-3162733D01*
X35596237Y-3065233D01*
X35662213Y-3045220D01*
X35794164Y-3005193D01*
X35871293Y-2997596D01*
X35948420Y-2990000D01*
X36051580Y-2990000D01*
X36128707Y-2997597D01*
X36128707Y-2997597D01*
G37*
G36*
X37050000Y-2550000D02*
X34950000Y-2550000D01*
X34950000Y-450000D01*
X37050000Y-450000D01*
X37050000Y-2550000D01*
X37050000Y-2550000D01*
G37*
G36*
X3050000Y-2550000D02*
X950000Y-2550000D01*
X950000Y-450000D01*
X3050000Y-450000D01*
X3050000Y-2550000D01*
X3050000Y-2550000D01*
G37*
M02*
