M48
INCH,TZ
T1C0.0157
T2C0.0217
T3C0.0236
T4C0.0295
T5C0.0315
T6C0.0394
T7C0.0400
T8C0.0433
%
G90
G05
T1
X0.1667Y-1.9682
X0.2077Y-2.0893
X0.2206Y-3.0068
X0.269Y-2.1045
X0.2929Y-2.6934
X0.3057Y-2.8269
X0.3114Y-1.5003
X0.3954Y-1.1126
X0.4164Y-1.2704
X0.424Y-1.061
X0.4298Y-3.0118
X0.4348Y-2.9369
X0.5354Y-2.083
X0.5705Y-2.2251
X0.5903Y-1.1034
X0.6138Y-1.7094
X0.6322Y-1.9311
X0.7083Y-2.1402
X0.7271Y-1.9515
X0.7505Y-1.9971
X0.7622Y-2.1096
X0.7785Y-1.5623
X0.7868Y-2.2874
X0.8026Y-1.9502
X0.8438Y-1.951
X0.8858Y-1.7043
X0.9748Y-1.8137
X0.9957Y-3.6913
X0.9963Y-1.6757
X1.008Y-2.9299
X1.0168Y-1.7524
X1.123Y-1.5725
T2
X1.1244Y-3.5728
X1.1496Y-4.1634
X1.2992Y-4.1634
X1.3244Y-3.5728
T3
X1.3189Y-2.372
X1.3976Y-2.372
X0.9547Y-1.1713
X1.0335Y-1.1713
X1.3189Y-2.1654
X1.3976Y-2.1654
X0.4724Y-4.065
X0.5512Y-4.065
X0.4724Y-3.8583
X0.5512Y-3.8583
T4
X1.2795Y-1.3681
X1.2795Y-1.4181
X1.2795Y-1.4681
X1.1024Y-1.3665
X1.1024Y-1.4165
X1.1024Y-1.4665
X0.4134Y-1.3665
X0.4134Y-1.4165
X0.4134Y-1.4665
X0.2362Y-1.3665
X0.2362Y-1.4165
X0.2362Y-1.4665
T5
X0.8858Y-3.8681
X0.8858Y-4.065
X0.6496Y-1.3583
X0.8465Y-1.3583
X0.2854Y-3.8634
X0.2854Y-4.1634
X1.0433Y-1.624
X1.3433Y-1.624
X1.3878Y-2.9921
X1.3878Y-3.189
X0.6496Y-1.4961
X0.8465Y-1.4961
X0.5906Y-1.624
X0.8906Y-1.624
X0.128Y-3.8681
X0.128Y-4.1681
X0.7283Y-3.8681
X0.7283Y-4.065
X0.1378Y-1.624
X0.4378Y-1.624
X1.3878Y-2.6575
X1.3878Y-2.8543
T6
X0.2953Y-2.5197
X0.3953Y-2.5197
X0.4953Y-2.5197
X0.5953Y-2.5197
X0.6953Y-2.5197
X0.7953Y-2.5197
X0.8953Y-2.5197
X0.9953Y-2.5197
X1.0953Y-2.5197
X1.1953Y-2.5197
X1.4173Y-0.0591
X1.4173Y-0.1591
X1.4173Y-0.2591
X1.4173Y-0.3591
X1.4173Y-0.4591
X1.4173Y-0.5591
X1.4173Y-0.6591
X1.4173Y-0.7591
X1.4173Y-0.8591
X1.4173Y-0.9591
X0.0787Y-0.0591
X0.0787Y-0.1591
X0.0787Y-0.2591
X0.0787Y-0.3591
X0.0787Y-0.4591
X0.0787Y-0.5591
X0.0787Y-0.6591
X0.0787Y-0.7591
X0.0787Y-0.8591
X0.0787Y-0.9591
T7
X0.548Y-2.9921
X0.548Y-3.0921
X0.648Y-2.9921
X0.648Y-3.0921
X0.748Y-2.9921
X0.748Y-3.0921
X0.848Y-2.9921
X0.848Y-3.0921
X0.948Y-2.9921
X0.948Y-3.0921
T8
X0.1315Y-3.5531
X0.5315Y-3.5531
X0.1315Y-3.3858
X0.5315Y-3.3858
T0
M30
