M48
;DRILL file {KiCad (5.0.2)-1} date 12-2-2019 12:33:05
;FORMAT={-:-/ absolute / inch / decimal}
FMAT,2
INCH,TZ
T1C0.0354
T2C0.0393
T3C0.0394
T4C0.0433
T5C0.0826
%
G90
G05
T1
X15.4921Y-0.5118
X15.5921Y-0.5118
X19.4291Y-0.5118
X19.5291Y-0.5118
X4.8425Y-0.5118
X4.9425Y-0.5118
X2.874Y-0.2756
X2.974Y-0.2756
X11.5551Y-0.5118
X11.6551Y-0.5118
X17.4606Y-0.5118
X17.5606Y-0.5118
X9.5866Y-0.5118
X9.6866Y-0.5118
X4.8425Y-0.2756
X4.9425Y-0.2756
X19.4291Y-0.2756
X19.5291Y-0.2756
X0.9055Y-0.2756
X1.0055Y-0.2756
X13.5236Y-0.5118
X13.6236Y-0.5118
X13.5236Y-0.2756
X13.6236Y-0.2756
X0.9055Y-0.5118
X1.0055Y-0.5118
X9.5866Y-0.2756
X9.6866Y-0.2756
X17.4606Y-0.2756
X17.5606Y-0.2756
X15.4921Y-0.2756
X15.5921Y-0.2756
X2.874Y-0.5118
X2.974Y-0.5118
X11.5551Y-0.2756
X11.6551Y-0.2756
T2
X3.6598Y-0.2937
X3.6598Y-0.3937
X3.6598Y-0.4937
X3.8598Y-0.2937
X3.8598Y-0.3937
X3.8598Y-0.4937
X5.6283Y-0.2937
X5.6283Y-0.3937
X5.6283Y-0.4937
X5.8283Y-0.2937
X5.8283Y-0.3937
X5.8283Y-0.4937
X12.3409Y-0.2937
X12.3409Y-0.3937
X12.3409Y-0.4937
X12.5409Y-0.2937
X12.5409Y-0.3937
X12.5409Y-0.4937
X14.3094Y-0.2937
X14.3094Y-0.3937
X14.3094Y-0.4937
X14.5094Y-0.2937
X14.5094Y-0.3937
X14.5094Y-0.4937
X18.2465Y-0.2937
X18.2465Y-0.3937
X18.2465Y-0.4937
X18.4465Y-0.2937
X18.4465Y-0.3937
X18.4465Y-0.4937
X16.278Y-0.2937
X16.278Y-0.3937
X16.278Y-0.4937
X16.478Y-0.2937
X16.478Y-0.3937
X16.478Y-0.4937
X10.3724Y-0.2937
X10.3724Y-0.3937
X10.3724Y-0.4937
X10.5724Y-0.2937
X10.5724Y-0.3937
X10.5724Y-0.4937
X1.6913Y-0.2937
X1.6913Y-0.3937
X1.6913Y-0.4937
X1.8913Y-0.2937
X1.8913Y-0.3937
X1.8913Y-0.4937
X20.215Y-0.2937
X20.215Y-0.3937
X20.215Y-0.4937
X20.415Y-0.2937
X20.415Y-0.3937
X20.415Y-0.4937
T3
X0.1756Y-0.1772
X0.1756Y-0.2772
X0.1756Y-0.3772
X0.1756Y-0.4772
X0.1756Y-0.5772
X0.1756Y-0.6772
X0.2756Y-0.1772
X0.2756Y-0.2772
X0.2756Y-0.3772
X0.2756Y-0.4772
X0.2756Y-0.5772
X0.2756Y-0.6772
X14.7622Y-0.1772
X14.7622Y-0.2772
X14.7622Y-0.3772
X14.7622Y-0.4772
X14.7622Y-0.5772
X14.7622Y-0.6772
X14.8622Y-0.1772
X14.8622Y-0.2772
X14.8622Y-0.3772
X14.8622Y-0.4772
X14.8622Y-0.5772
X14.8622Y-0.6772
X2.1441Y-0.1772
X2.1441Y-0.2772
X2.1441Y-0.3772
X2.1441Y-0.4772
X2.1441Y-0.5772
X2.1441Y-0.6772
X2.2441Y-0.1772
X2.2441Y-0.2772
X2.2441Y-0.3772
X2.2441Y-0.4772
X2.2441Y-0.5772
X2.2441Y-0.6772
X10.8252Y-0.1772
X10.8252Y-0.2772
X10.8252Y-0.3772
X10.8252Y-0.4772
X10.8252Y-0.5772
X10.8252Y-0.6772
X10.9252Y-0.1772
X10.9252Y-0.2772
X10.9252Y-0.3772
X10.9252Y-0.4772
X10.9252Y-0.5772
X10.9252Y-0.6772
X7.7362Y-0.3937
X7.7362Y-0.4937
X8.5236Y-0.3937
X8.5236Y-0.4937
X4.1126Y-0.1772
X4.1126Y-0.2772
X4.1126Y-0.3772
X4.1126Y-0.4772
X4.1126Y-0.5772
X4.1126Y-0.6772
X4.2126Y-0.1772
X4.2126Y-0.2772
X4.2126Y-0.3772
X4.2126Y-0.4772
X4.2126Y-0.5772
X4.2126Y-0.6772
X18.6992Y-0.1772
X18.6992Y-0.2772
X18.6992Y-0.3772
X18.6992Y-0.4772
X18.6992Y-0.5772
X18.6992Y-0.6772
X18.7992Y-0.1772
X18.7992Y-0.2772
X18.7992Y-0.3772
X18.7992Y-0.4772
X18.7992Y-0.5772
X18.7992Y-0.6772
X6.9488Y-0.3937
X6.9488Y-0.4937
X16.7307Y-0.1772
X16.7307Y-0.2772
X16.7307Y-0.3772
X16.7307Y-0.4772
X16.7307Y-0.5772
X16.7307Y-0.6772
X16.8307Y-0.1772
X16.8307Y-0.2772
X16.8307Y-0.3772
X16.8307Y-0.4772
X16.8307Y-0.5772
X16.8307Y-0.6772
X8.8567Y-0.1772
X8.8567Y-0.2772
X8.8567Y-0.3772
X8.8567Y-0.4772
X8.8567Y-0.5772
X8.8567Y-0.6772
X8.9567Y-0.1772
X8.9567Y-0.2772
X8.9567Y-0.3772
X8.9567Y-0.4772
X8.9567Y-0.5772
X8.9567Y-0.6772
X12.7937Y-0.1772
X12.7937Y-0.2772
X12.7937Y-0.3772
X12.7937Y-0.4772
X12.7937Y-0.5772
X12.7937Y-0.6772
X12.8937Y-0.1772
X12.8937Y-0.2772
X12.8937Y-0.3772
X12.8937Y-0.4772
X12.8937Y-0.5772
X12.8937Y-0.6772
T4
X11.7126Y-0.6102
X11.8308Y-0.6102
X12.1653Y-0.6102
X11.7126Y-0.1772
X11.8308Y-0.1772
X12.1653Y-0.1772
X9.0749Y-0.6102
X9.4094Y-0.6102
X9.5276Y-0.6102
X0.3938Y-0.6102
X0.7283Y-0.6102
X0.8465Y-0.6102
X17.6181Y-0.6102
X17.7363Y-0.6102
X18.0708Y-0.6102
X13.0119Y-0.6102
X13.3464Y-0.6102
X13.4646Y-0.6102
X4.3308Y-0.1772
X4.6653Y-0.1772
X4.7835Y-0.1772
X17.6181Y-0.1772
X17.7363Y-0.1772
X18.0708Y-0.1772
X11.0434Y-0.6102
X11.3779Y-0.6102
X11.4961Y-0.6102
X2.3623Y-0.1772
X2.6968Y-0.1772
X2.815Y-0.1772
X9.0749Y-0.1772
X9.4094Y-0.1772
X9.5276Y-0.1772
X1.063Y-0.6102
X1.1812Y-0.6102
X1.5157Y-0.6102
X4.9999Y-0.6102
X5.1181Y-0.6102
X5.4526Y-0.6102
X16.9489Y-0.1772
X17.2834Y-0.1772
X17.4016Y-0.1772
X7.3229Y-0.6692
X7.4213Y-0.6692
X7.5197Y-0.6692
X0.3938Y-0.1772
X0.7283Y-0.1772
X0.8465Y-0.1772
X6.5355Y-0.6692
X6.6339Y-0.6692
X6.7323Y-0.6692
X13.6811Y-0.6102
X13.7993Y-0.6102
X14.1338Y-0.6102
X3.0315Y-0.6102
X3.1497Y-0.6102
X3.4842Y-0.6102
X11.0434Y-0.1772
X11.3779Y-0.1772
X11.4961Y-0.1772
X18.9174Y-0.6102
X19.2519Y-0.6102
X19.3701Y-0.6102
X4.3308Y-0.6102
X4.6653Y-0.6102
X4.7835Y-0.6102
X3.0315Y-0.1772
X3.1497Y-0.1772
X3.4842Y-0.1772
X14.9804Y-0.1772
X15.3149Y-0.1772
X15.4331Y-0.1772
X19.5866Y-0.6102
X19.7048Y-0.6102
X20.0393Y-0.6102
X8.1103Y-0.6692
X8.2087Y-0.6692
X8.3071Y-0.6692
X15.6496Y-0.1772
X15.7678Y-0.1772
X16.1023Y-0.1772
X14.9804Y-0.6102
X15.3149Y-0.6102
X15.4331Y-0.6102
X2.3623Y-0.6102
X2.6968Y-0.6102
X2.815Y-0.6102
X13.6811Y-0.1772
X13.7993Y-0.1772
X14.1338Y-0.1772
X18.9174Y-0.1772
X19.2519Y-0.1772
X19.3701Y-0.1772
X16.9489Y-0.6102
X17.2834Y-0.6102
X17.4016Y-0.6102
X9.7441Y-0.1772
X9.8623Y-0.1772
X10.1968Y-0.1772
X15.6496Y-0.6102
X15.7678Y-0.6102
X16.1023Y-0.6102
X9.7441Y-0.6102
X9.8623Y-0.6102
X10.1968Y-0.6102
X1.063Y-0.1772
X1.1812Y-0.1772
X1.5157Y-0.1772
X19.5866Y-0.1772
X19.7048Y-0.1772
X20.0393Y-0.1772
X4.9999Y-0.1772
X5.1181Y-0.1772
X5.4526Y-0.1772
X13.0119Y-0.1772
X13.3464Y-0.1772
X13.4646Y-0.1772
T5
X7.2442Y-0.3937
X7.5984Y-0.3937
X6.4568Y-0.3937
X6.811Y-0.3937
X8.0316Y-0.3937
X8.3858Y-0.3937
T0
M30
