G04 #@! TF.GenerationSoftware,KiCad,Pcbnew,(5.0.0)*
G04 #@! TF.CreationDate,2018-08-30T22:21:11+02:00*
G04 #@! TF.ProjectId,1u_lpg_panel,31755F6C70675F70616E656C2E6B6963,rev?*
G04 #@! TF.SameCoordinates,Original*
G04 #@! TF.FileFunction,Legend,Top*
G04 #@! TF.FilePolarity,Positive*
%FSLAX46Y46*%
G04 Gerber Fmt 4.6, Leading zero omitted, Abs format (unit mm)*
G04 Created by KiCad (PCBNEW (5.0.0)) date 08/30/18 22:21:11*
%MOMM*%
%LPD*%
G01*
G04 APERTURE LIST*
%ADD10C,0.010000*%
G04 APERTURE END LIST*
D10*
G04 #@! TO.C,G\002A\002A\002A*
G36*
X21719192Y-30662933D02*
X21787588Y-30666869D01*
X21846346Y-30674439D01*
X21883833Y-30683616D01*
X21985078Y-30725054D01*
X22073042Y-30777167D01*
X22154620Y-30844230D01*
X22175371Y-30864379D01*
X22255307Y-30957339D01*
X22315278Y-31056836D01*
X22355763Y-31164035D01*
X22377246Y-31280101D01*
X22381250Y-31362292D01*
X22372068Y-31484861D01*
X22344203Y-31597793D01*
X22297171Y-31702253D01*
X22230492Y-31799405D01*
X22175371Y-31860205D01*
X22092013Y-31933656D01*
X22005504Y-31989006D01*
X21910717Y-32029228D01*
X21856216Y-32045213D01*
X21765942Y-32060905D01*
X21667427Y-32065492D01*
X21569888Y-32058987D01*
X21494530Y-32044719D01*
X21380363Y-32004150D01*
X21276305Y-31945563D01*
X21184124Y-31870394D01*
X21105584Y-31780076D01*
X21043572Y-31678291D01*
X21008299Y-31595642D01*
X20986119Y-31512006D01*
X20975478Y-31420318D01*
X20973979Y-31362292D01*
X21276214Y-31362292D01*
X21279146Y-31452616D01*
X21288941Y-31529760D01*
X21307099Y-31601018D01*
X21335121Y-31673685D01*
X21344491Y-31694319D01*
X21393551Y-31782864D01*
X21449704Y-31854750D01*
X21511575Y-31909249D01*
X21577785Y-31945635D01*
X21646958Y-31963183D01*
X21717716Y-31961165D01*
X21788682Y-31938856D01*
X21798838Y-31933929D01*
X21863067Y-31890587D01*
X21922878Y-31829345D01*
X21976125Y-31753348D01*
X22020663Y-31665740D01*
X22054348Y-31569667D01*
X22058822Y-31552792D01*
X22070567Y-31486133D01*
X22076571Y-31407008D01*
X22076820Y-31323326D01*
X22071301Y-31242998D01*
X22059999Y-31173935D01*
X22059492Y-31171792D01*
X22029768Y-31077877D01*
X21988093Y-30990019D01*
X21936851Y-30911660D01*
X21878425Y-30846243D01*
X21815199Y-30797210D01*
X21790829Y-30783793D01*
X21722977Y-30761547D01*
X21653871Y-30759302D01*
X21585323Y-30776116D01*
X21519145Y-30811047D01*
X21457147Y-30863153D01*
X21401142Y-30931492D01*
X21355285Y-31010291D01*
X21321264Y-31085979D01*
X21298052Y-31154858D01*
X21283969Y-31224416D01*
X21277332Y-31302140D01*
X21276214Y-31362292D01*
X20973979Y-31362292D01*
X20978720Y-31263513D01*
X20994035Y-31176394D01*
X21021566Y-31093406D01*
X21042876Y-31046039D01*
X21104440Y-30943201D01*
X21182012Y-30854101D01*
X21275272Y-30779011D01*
X21383894Y-30718206D01*
X21471083Y-30683543D01*
X21517104Y-30672935D01*
X21577857Y-30665965D01*
X21647251Y-30662631D01*
X21719192Y-30662933D01*
X21719192Y-30662933D01*
G37*
X21719192Y-30662933D02*
X21787588Y-30666869D01*
X21846346Y-30674439D01*
X21883833Y-30683616D01*
X21985078Y-30725054D01*
X22073042Y-30777167D01*
X22154620Y-30844230D01*
X22175371Y-30864379D01*
X22255307Y-30957339D01*
X22315278Y-31056836D01*
X22355763Y-31164035D01*
X22377246Y-31280101D01*
X22381250Y-31362292D01*
X22372068Y-31484861D01*
X22344203Y-31597793D01*
X22297171Y-31702253D01*
X22230492Y-31799405D01*
X22175371Y-31860205D01*
X22092013Y-31933656D01*
X22005504Y-31989006D01*
X21910717Y-32029228D01*
X21856216Y-32045213D01*
X21765942Y-32060905D01*
X21667427Y-32065492D01*
X21569888Y-32058987D01*
X21494530Y-32044719D01*
X21380363Y-32004150D01*
X21276305Y-31945563D01*
X21184124Y-31870394D01*
X21105584Y-31780076D01*
X21043572Y-31678291D01*
X21008299Y-31595642D01*
X20986119Y-31512006D01*
X20975478Y-31420318D01*
X20973979Y-31362292D01*
X21276214Y-31362292D01*
X21279146Y-31452616D01*
X21288941Y-31529760D01*
X21307099Y-31601018D01*
X21335121Y-31673685D01*
X21344491Y-31694319D01*
X21393551Y-31782864D01*
X21449704Y-31854750D01*
X21511575Y-31909249D01*
X21577785Y-31945635D01*
X21646958Y-31963183D01*
X21717716Y-31961165D01*
X21788682Y-31938856D01*
X21798838Y-31933929D01*
X21863067Y-31890587D01*
X21922878Y-31829345D01*
X21976125Y-31753348D01*
X22020663Y-31665740D01*
X22054348Y-31569667D01*
X22058822Y-31552792D01*
X22070567Y-31486133D01*
X22076571Y-31407008D01*
X22076820Y-31323326D01*
X22071301Y-31242998D01*
X22059999Y-31173935D01*
X22059492Y-31171792D01*
X22029768Y-31077877D01*
X21988093Y-30990019D01*
X21936851Y-30911660D01*
X21878425Y-30846243D01*
X21815199Y-30797210D01*
X21790829Y-30783793D01*
X21722977Y-30761547D01*
X21653871Y-30759302D01*
X21585323Y-30776116D01*
X21519145Y-30811047D01*
X21457147Y-30863153D01*
X21401142Y-30931492D01*
X21355285Y-31010291D01*
X21321264Y-31085979D01*
X21298052Y-31154858D01*
X21283969Y-31224416D01*
X21277332Y-31302140D01*
X21276214Y-31362292D01*
X20973979Y-31362292D01*
X20978720Y-31263513D01*
X20994035Y-31176394D01*
X21021566Y-31093406D01*
X21042876Y-31046039D01*
X21104440Y-30943201D01*
X21182012Y-30854101D01*
X21275272Y-30779011D01*
X21383894Y-30718206D01*
X21471083Y-30683543D01*
X21517104Y-30672935D01*
X21577857Y-30665965D01*
X21647251Y-30662631D01*
X21719192Y-30662933D01*
G36*
X24940734Y-30665383D02*
X25025592Y-30680619D01*
X25067666Y-30693095D01*
X25179642Y-30743250D01*
X25279117Y-30809471D01*
X25364715Y-30890133D01*
X25435062Y-30983610D01*
X25488783Y-31088278D01*
X25524504Y-31202512D01*
X25532125Y-31242138D01*
X25541566Y-31319569D01*
X25542730Y-31383706D01*
X25541062Y-31402785D01*
X25533560Y-31462834D01*
X25023146Y-31462834D01*
X24897659Y-31462695D01*
X24792036Y-31462259D01*
X24704978Y-31461493D01*
X24635184Y-31460366D01*
X24581354Y-31458847D01*
X24542187Y-31456903D01*
X24516384Y-31454503D01*
X24502644Y-31451617D01*
X24500033Y-31450134D01*
X24490253Y-31430343D01*
X24487333Y-31409917D01*
X24487681Y-31396208D01*
X24490067Y-31385099D01*
X24496505Y-31376315D01*
X24509007Y-31369584D01*
X24529587Y-31364633D01*
X24560258Y-31361188D01*
X24603033Y-31358975D01*
X24659925Y-31357723D01*
X24732949Y-31357158D01*
X24824116Y-31357006D01*
X24877294Y-31357000D01*
X25241855Y-31357000D01*
X25235326Y-31279762D01*
X25217930Y-31172180D01*
X25185300Y-31068478D01*
X25139413Y-30973470D01*
X25082243Y-30891968D01*
X25070983Y-30879188D01*
X25004499Y-30818536D01*
X24935652Y-30778787D01*
X24865392Y-30759939D01*
X24794671Y-30761990D01*
X24724438Y-30784938D01*
X24655644Y-30828780D01*
X24600992Y-30880301D01*
X24541246Y-30960092D01*
X24493542Y-31054540D01*
X24459101Y-31160110D01*
X24439144Y-31273269D01*
X24434416Y-31362292D01*
X24441816Y-31473215D01*
X24463150Y-31579194D01*
X24497117Y-31677599D01*
X24542417Y-31765804D01*
X24597752Y-31841178D01*
X24661821Y-31901096D01*
X24718154Y-31935970D01*
X24755804Y-31952466D01*
X24789786Y-31961332D01*
X24829787Y-31964558D01*
X24857750Y-31964651D01*
X24950530Y-31954071D01*
X25045411Y-31925768D01*
X25137136Y-31881867D01*
X25220450Y-31824490D01*
X25235002Y-31812148D01*
X25272545Y-31787373D01*
X25307909Y-31780334D01*
X25331558Y-31781688D01*
X25341946Y-31789859D01*
X25344520Y-31811007D01*
X25344583Y-31821809D01*
X25343003Y-31845010D01*
X25335779Y-31863225D01*
X25319184Y-31882025D01*
X25289491Y-31906982D01*
X25285461Y-31910187D01*
X25218022Y-31956749D01*
X25139796Y-31999780D01*
X25061072Y-32033792D01*
X25040030Y-32041053D01*
X24998384Y-32050234D01*
X24941935Y-32056926D01*
X24876916Y-32060968D01*
X24809563Y-32062201D01*
X24746111Y-32060465D01*
X24692792Y-32055599D01*
X24666364Y-32050642D01*
X24561163Y-32014400D01*
X24460086Y-31961487D01*
X24368674Y-31895253D01*
X24302498Y-31830740D01*
X24275237Y-31795370D01*
X24244590Y-31748706D01*
X24215724Y-31698818D01*
X24205845Y-31679792D01*
X24159515Y-31564625D01*
X24134150Y-31447478D01*
X24129747Y-31329261D01*
X24146304Y-31210884D01*
X24183816Y-31093259D01*
X24207958Y-31039958D01*
X24269594Y-30938721D01*
X24346821Y-30850291D01*
X24437387Y-30776443D01*
X24539039Y-30718951D01*
X24649525Y-30679588D01*
X24672541Y-30674035D01*
X24756502Y-30661719D01*
X24848469Y-30658959D01*
X24940734Y-30665383D01*
X24940734Y-30665383D01*
G37*
X24940734Y-30665383D02*
X25025592Y-30680619D01*
X25067666Y-30693095D01*
X25179642Y-30743250D01*
X25279117Y-30809471D01*
X25364715Y-30890133D01*
X25435062Y-30983610D01*
X25488783Y-31088278D01*
X25524504Y-31202512D01*
X25532125Y-31242138D01*
X25541566Y-31319569D01*
X25542730Y-31383706D01*
X25541062Y-31402785D01*
X25533560Y-31462834D01*
X25023146Y-31462834D01*
X24897659Y-31462695D01*
X24792036Y-31462259D01*
X24704978Y-31461493D01*
X24635184Y-31460366D01*
X24581354Y-31458847D01*
X24542187Y-31456903D01*
X24516384Y-31454503D01*
X24502644Y-31451617D01*
X24500033Y-31450134D01*
X24490253Y-31430343D01*
X24487333Y-31409917D01*
X24487681Y-31396208D01*
X24490067Y-31385099D01*
X24496505Y-31376315D01*
X24509007Y-31369584D01*
X24529587Y-31364633D01*
X24560258Y-31361188D01*
X24603033Y-31358975D01*
X24659925Y-31357723D01*
X24732949Y-31357158D01*
X24824116Y-31357006D01*
X24877294Y-31357000D01*
X25241855Y-31357000D01*
X25235326Y-31279762D01*
X25217930Y-31172180D01*
X25185300Y-31068478D01*
X25139413Y-30973470D01*
X25082243Y-30891968D01*
X25070983Y-30879188D01*
X25004499Y-30818536D01*
X24935652Y-30778787D01*
X24865392Y-30759939D01*
X24794671Y-30761990D01*
X24724438Y-30784938D01*
X24655644Y-30828780D01*
X24600992Y-30880301D01*
X24541246Y-30960092D01*
X24493542Y-31054540D01*
X24459101Y-31160110D01*
X24439144Y-31273269D01*
X24434416Y-31362292D01*
X24441816Y-31473215D01*
X24463150Y-31579194D01*
X24497117Y-31677599D01*
X24542417Y-31765804D01*
X24597752Y-31841178D01*
X24661821Y-31901096D01*
X24718154Y-31935970D01*
X24755804Y-31952466D01*
X24789786Y-31961332D01*
X24829787Y-31964558D01*
X24857750Y-31964651D01*
X24950530Y-31954071D01*
X25045411Y-31925768D01*
X25137136Y-31881867D01*
X25220450Y-31824490D01*
X25235002Y-31812148D01*
X25272545Y-31787373D01*
X25307909Y-31780334D01*
X25331558Y-31781688D01*
X25341946Y-31789859D01*
X25344520Y-31811007D01*
X25344583Y-31821809D01*
X25343003Y-31845010D01*
X25335779Y-31863225D01*
X25319184Y-31882025D01*
X25289491Y-31906982D01*
X25285461Y-31910187D01*
X25218022Y-31956749D01*
X25139796Y-31999780D01*
X25061072Y-32033792D01*
X25040030Y-32041053D01*
X24998384Y-32050234D01*
X24941935Y-32056926D01*
X24876916Y-32060968D01*
X24809563Y-32062201D01*
X24746111Y-32060465D01*
X24692792Y-32055599D01*
X24666364Y-32050642D01*
X24561163Y-32014400D01*
X24460086Y-31961487D01*
X24368674Y-31895253D01*
X24302498Y-31830740D01*
X24275237Y-31795370D01*
X24244590Y-31748706D01*
X24215724Y-31698818D01*
X24205845Y-31679792D01*
X24159515Y-31564625D01*
X24134150Y-31447478D01*
X24129747Y-31329261D01*
X24146304Y-31210884D01*
X24183816Y-31093259D01*
X24207958Y-31039958D01*
X24269594Y-30938721D01*
X24346821Y-30850291D01*
X24437387Y-30776443D01*
X24539039Y-30718951D01*
X24649525Y-30679588D01*
X24672541Y-30674035D01*
X24756502Y-30661719D01*
X24848469Y-30658959D01*
X24940734Y-30665383D01*
G36*
X20300000Y-29838790D02*
X20346057Y-29856320D01*
X20385903Y-29888626D01*
X20399309Y-29906003D01*
X20405614Y-29915854D01*
X20410706Y-29926081D01*
X20414716Y-29938920D01*
X20417771Y-29956608D01*
X20420003Y-29981384D01*
X20421540Y-30015484D01*
X20422512Y-30061146D01*
X20423048Y-30120607D01*
X20423278Y-30196105D01*
X20423332Y-30289876D01*
X20423333Y-30321136D01*
X20423333Y-30700309D01*
X20767291Y-30706125D01*
X20770722Y-30742057D01*
X20769174Y-30771348D01*
X20760139Y-30786874D01*
X20745097Y-30789974D01*
X20712938Y-30792624D01*
X20667712Y-30794618D01*
X20613465Y-30795746D01*
X20583978Y-30795921D01*
X20421831Y-30796084D01*
X20426125Y-31153271D01*
X20427507Y-31257857D01*
X20429153Y-31344030D01*
X20431441Y-31414541D01*
X20434755Y-31472142D01*
X20439475Y-31519586D01*
X20445982Y-31559625D01*
X20454659Y-31595012D01*
X20465887Y-31628498D01*
X20480046Y-31662836D01*
X20497519Y-31700779D01*
X20503838Y-31714058D01*
X20539845Y-31776306D01*
X20585122Y-31834727D01*
X20635121Y-31884394D01*
X20685296Y-31920375D01*
X20701832Y-31928724D01*
X20741568Y-31942857D01*
X20787398Y-31954435D01*
X20805611Y-31957640D01*
X20862541Y-31965833D01*
X20862541Y-32050209D01*
X20788458Y-32052183D01*
X20739462Y-32050956D01*
X20688546Y-32045753D01*
X20655281Y-32039599D01*
X20544134Y-32001823D01*
X20441332Y-31946255D01*
X20349449Y-31874943D01*
X20271061Y-31789932D01*
X20208741Y-31693269D01*
X20201400Y-31678832D01*
X20188813Y-31653598D01*
X20177873Y-31631475D01*
X20168461Y-31610857D01*
X20160454Y-31590138D01*
X20153730Y-31567713D01*
X20148168Y-31541974D01*
X20143648Y-31511317D01*
X20140047Y-31474135D01*
X20137243Y-31428823D01*
X20135116Y-31373774D01*
X20133544Y-31307383D01*
X20132406Y-31228043D01*
X20131579Y-31134149D01*
X20130943Y-31024095D01*
X20130376Y-30896275D01*
X20129757Y-30749083D01*
X20129676Y-30730523D01*
X20129061Y-30580231D01*
X20128651Y-30449682D01*
X20128466Y-30337454D01*
X20128528Y-30242124D01*
X20128858Y-30162268D01*
X20129475Y-30096465D01*
X20130400Y-30043291D01*
X20131656Y-30001323D01*
X20133262Y-29969139D01*
X20135238Y-29945317D01*
X20137607Y-29928433D01*
X20140388Y-29917065D01*
X20141604Y-29913783D01*
X20168534Y-29873534D01*
X20206841Y-29847530D01*
X20252129Y-29835904D01*
X20300000Y-29838790D01*
X20300000Y-29838790D01*
G37*
X20300000Y-29838790D02*
X20346057Y-29856320D01*
X20385903Y-29888626D01*
X20399309Y-29906003D01*
X20405614Y-29915854D01*
X20410706Y-29926081D01*
X20414716Y-29938920D01*
X20417771Y-29956608D01*
X20420003Y-29981384D01*
X20421540Y-30015484D01*
X20422512Y-30061146D01*
X20423048Y-30120607D01*
X20423278Y-30196105D01*
X20423332Y-30289876D01*
X20423333Y-30321136D01*
X20423333Y-30700309D01*
X20767291Y-30706125D01*
X20770722Y-30742057D01*
X20769174Y-30771348D01*
X20760139Y-30786874D01*
X20745097Y-30789974D01*
X20712938Y-30792624D01*
X20667712Y-30794618D01*
X20613465Y-30795746D01*
X20583978Y-30795921D01*
X20421831Y-30796084D01*
X20426125Y-31153271D01*
X20427507Y-31257857D01*
X20429153Y-31344030D01*
X20431441Y-31414541D01*
X20434755Y-31472142D01*
X20439475Y-31519586D01*
X20445982Y-31559625D01*
X20454659Y-31595012D01*
X20465887Y-31628498D01*
X20480046Y-31662836D01*
X20497519Y-31700779D01*
X20503838Y-31714058D01*
X20539845Y-31776306D01*
X20585122Y-31834727D01*
X20635121Y-31884394D01*
X20685296Y-31920375D01*
X20701832Y-31928724D01*
X20741568Y-31942857D01*
X20787398Y-31954435D01*
X20805611Y-31957640D01*
X20862541Y-31965833D01*
X20862541Y-32050209D01*
X20788458Y-32052183D01*
X20739462Y-32050956D01*
X20688546Y-32045753D01*
X20655281Y-32039599D01*
X20544134Y-32001823D01*
X20441332Y-31946255D01*
X20349449Y-31874943D01*
X20271061Y-31789932D01*
X20208741Y-31693269D01*
X20201400Y-31678832D01*
X20188813Y-31653598D01*
X20177873Y-31631475D01*
X20168461Y-31610857D01*
X20160454Y-31590138D01*
X20153730Y-31567713D01*
X20148168Y-31541974D01*
X20143648Y-31511317D01*
X20140047Y-31474135D01*
X20137243Y-31428823D01*
X20135116Y-31373774D01*
X20133544Y-31307383D01*
X20132406Y-31228043D01*
X20131579Y-31134149D01*
X20130943Y-31024095D01*
X20130376Y-30896275D01*
X20129757Y-30749083D01*
X20129676Y-30730523D01*
X20129061Y-30580231D01*
X20128651Y-30449682D01*
X20128466Y-30337454D01*
X20128528Y-30242124D01*
X20128858Y-30162268D01*
X20129475Y-30096465D01*
X20130400Y-30043291D01*
X20131656Y-30001323D01*
X20133262Y-29969139D01*
X20135238Y-29945317D01*
X20137607Y-29928433D01*
X20140388Y-29917065D01*
X20141604Y-29913783D01*
X20168534Y-29873534D01*
X20206841Y-29847530D01*
X20252129Y-29835904D01*
X20300000Y-29838790D01*
G36*
X23267931Y-30665370D02*
X23368958Y-30684981D01*
X23464883Y-30721037D01*
X23553454Y-30772463D01*
X23632422Y-30838187D01*
X23699536Y-30917134D01*
X23752545Y-31008230D01*
X23789200Y-31110401D01*
X23790013Y-31113584D01*
X23794152Y-31135335D01*
X23797504Y-31165812D01*
X23800132Y-31206959D01*
X23802099Y-31260720D01*
X23803471Y-31329042D01*
X23804309Y-31413870D01*
X23804678Y-31517149D01*
X23804708Y-31563375D01*
X23804632Y-31665854D01*
X23804341Y-31749342D01*
X23803739Y-31816015D01*
X23802731Y-31868051D01*
X23801221Y-31907624D01*
X23799113Y-31936910D01*
X23796312Y-31958087D01*
X23792722Y-31973328D01*
X23788249Y-31984812D01*
X23786008Y-31989175D01*
X23754647Y-32026536D01*
X23709451Y-32048524D01*
X23651620Y-32055500D01*
X23615463Y-32053235D01*
X23589179Y-32043573D01*
X23561704Y-32022214D01*
X23558490Y-32019292D01*
X23518958Y-31983083D01*
X23512643Y-31561563D01*
X23510850Y-31448506D01*
X23508987Y-31354233D01*
X23506787Y-31276361D01*
X23503984Y-31212507D01*
X23500314Y-31160290D01*
X23495509Y-31117327D01*
X23489305Y-31081236D01*
X23481435Y-31049634D01*
X23471633Y-31020139D01*
X23459635Y-30990368D01*
X23445324Y-30958272D01*
X23415311Y-30906277D01*
X23375219Y-30855590D01*
X23330751Y-30812570D01*
X23289668Y-30784608D01*
X23235656Y-30767827D01*
X23170982Y-30765211D01*
X23100114Y-30776119D01*
X23027520Y-30799914D01*
X22965979Y-30830874D01*
X22910416Y-30864056D01*
X22910416Y-31957120D01*
X22886286Y-31992927D01*
X22863942Y-32019744D01*
X22839949Y-32039734D01*
X22836015Y-32041961D01*
X22794436Y-32053571D01*
X22745360Y-32053844D01*
X22698832Y-32043287D01*
X22679592Y-32034062D01*
X22666054Y-32025646D01*
X22654523Y-32017083D01*
X22644837Y-32006703D01*
X22636837Y-31992839D01*
X22630360Y-31973820D01*
X22625247Y-31947979D01*
X22621336Y-31913646D01*
X22618467Y-31869154D01*
X22616479Y-31812833D01*
X22615211Y-31743015D01*
X22614502Y-31658031D01*
X22614192Y-31556212D01*
X22614119Y-31435890D01*
X22614122Y-31354694D01*
X22614157Y-31228402D01*
X22614281Y-31121537D01*
X22614553Y-31032357D01*
X22615030Y-30959121D01*
X22615772Y-30900090D01*
X22616835Y-30853523D01*
X22618280Y-30817680D01*
X22620162Y-30790819D01*
X22622542Y-30771200D01*
X22625477Y-30757082D01*
X22629025Y-30746726D01*
X22633245Y-30738390D01*
X22634821Y-30735743D01*
X22668614Y-30697317D01*
X22713481Y-30675914D01*
X22770904Y-30670886D01*
X22781633Y-30671581D01*
X22819353Y-30676767D01*
X22844742Y-30687091D01*
X22866592Y-30706344D01*
X22869384Y-30709422D01*
X22898879Y-30742433D01*
X22956736Y-30715945D01*
X23059569Y-30679778D01*
X23164051Y-30663278D01*
X23267931Y-30665370D01*
X23267931Y-30665370D01*
G37*
X23267931Y-30665370D02*
X23368958Y-30684981D01*
X23464883Y-30721037D01*
X23553454Y-30772463D01*
X23632422Y-30838187D01*
X23699536Y-30917134D01*
X23752545Y-31008230D01*
X23789200Y-31110401D01*
X23790013Y-31113584D01*
X23794152Y-31135335D01*
X23797504Y-31165812D01*
X23800132Y-31206959D01*
X23802099Y-31260720D01*
X23803471Y-31329042D01*
X23804309Y-31413870D01*
X23804678Y-31517149D01*
X23804708Y-31563375D01*
X23804632Y-31665854D01*
X23804341Y-31749342D01*
X23803739Y-31816015D01*
X23802731Y-31868051D01*
X23801221Y-31907624D01*
X23799113Y-31936910D01*
X23796312Y-31958087D01*
X23792722Y-31973328D01*
X23788249Y-31984812D01*
X23786008Y-31989175D01*
X23754647Y-32026536D01*
X23709451Y-32048524D01*
X23651620Y-32055500D01*
X23615463Y-32053235D01*
X23589179Y-32043573D01*
X23561704Y-32022214D01*
X23558490Y-32019292D01*
X23518958Y-31983083D01*
X23512643Y-31561563D01*
X23510850Y-31448506D01*
X23508987Y-31354233D01*
X23506787Y-31276361D01*
X23503984Y-31212507D01*
X23500314Y-31160290D01*
X23495509Y-31117327D01*
X23489305Y-31081236D01*
X23481435Y-31049634D01*
X23471633Y-31020139D01*
X23459635Y-30990368D01*
X23445324Y-30958272D01*
X23415311Y-30906277D01*
X23375219Y-30855590D01*
X23330751Y-30812570D01*
X23289668Y-30784608D01*
X23235656Y-30767827D01*
X23170982Y-30765211D01*
X23100114Y-30776119D01*
X23027520Y-30799914D01*
X22965979Y-30830874D01*
X22910416Y-30864056D01*
X22910416Y-31957120D01*
X22886286Y-31992927D01*
X22863942Y-32019744D01*
X22839949Y-32039734D01*
X22836015Y-32041961D01*
X22794436Y-32053571D01*
X22745360Y-32053844D01*
X22698832Y-32043287D01*
X22679592Y-32034062D01*
X22666054Y-32025646D01*
X22654523Y-32017083D01*
X22644837Y-32006703D01*
X22636837Y-31992839D01*
X22630360Y-31973820D01*
X22625247Y-31947979D01*
X22621336Y-31913646D01*
X22618467Y-31869154D01*
X22616479Y-31812833D01*
X22615211Y-31743015D01*
X22614502Y-31658031D01*
X22614192Y-31556212D01*
X22614119Y-31435890D01*
X22614122Y-31354694D01*
X22614157Y-31228402D01*
X22614281Y-31121537D01*
X22614553Y-31032357D01*
X22615030Y-30959121D01*
X22615772Y-30900090D01*
X22616835Y-30853523D01*
X22618280Y-30817680D01*
X22620162Y-30790819D01*
X22622542Y-30771200D01*
X22625477Y-30757082D01*
X22629025Y-30746726D01*
X22633245Y-30738390D01*
X22634821Y-30735743D01*
X22668614Y-30697317D01*
X22713481Y-30675914D01*
X22770904Y-30670886D01*
X22781633Y-30671581D01*
X22819353Y-30676767D01*
X22844742Y-30687091D01*
X22866592Y-30706344D01*
X22869384Y-30709422D01*
X22898879Y-30742433D01*
X22956736Y-30715945D01*
X23059569Y-30679778D01*
X23164051Y-30663278D01*
X23267931Y-30665370D01*
G36*
X13835295Y-27634681D02*
X13927583Y-27646843D01*
X14014329Y-27671881D01*
X14092244Y-27706102D01*
X14141053Y-27733446D01*
X14187886Y-27764613D01*
X14229173Y-27796670D01*
X14261342Y-27826683D01*
X14280823Y-27851719D01*
X14285000Y-27864455D01*
X14278734Y-27898647D01*
X14260695Y-27916019D01*
X14232022Y-27916524D01*
X14193853Y-27900115D01*
X14151254Y-27869979D01*
X14058359Y-27807908D01*
X13953344Y-27763174D01*
X13873808Y-27742409D01*
X13790238Y-27731600D01*
X13718045Y-27736511D01*
X13653262Y-27758283D01*
X13591926Y-27798053D01*
X13550981Y-27835138D01*
X13506623Y-27888649D01*
X13463825Y-27956944D01*
X13425950Y-28033716D01*
X13396362Y-28112658D01*
X13388578Y-28139667D01*
X13377767Y-28198603D01*
X13371617Y-28270751D01*
X13370121Y-28348858D01*
X13373275Y-28425672D01*
X13381071Y-28493939D01*
X13388881Y-28531250D01*
X13423649Y-28634147D01*
X13469058Y-28725451D01*
X13523547Y-28803240D01*
X13585555Y-28865595D01*
X13653521Y-28910593D01*
X13716221Y-28934111D01*
X13780046Y-28940956D01*
X13853927Y-28934188D01*
X13933035Y-28915246D01*
X14012541Y-28885568D01*
X14087619Y-28846592D01*
X14145628Y-28806196D01*
X14194317Y-28771819D01*
X14233209Y-28754723D01*
X14261694Y-28754905D01*
X14279161Y-28772364D01*
X14285000Y-28806462D01*
X14276398Y-28825663D01*
X14253051Y-28852157D01*
X14218644Y-28882830D01*
X14176862Y-28914566D01*
X14131390Y-28944249D01*
X14103199Y-28960131D01*
X13994980Y-29005560D01*
X13880226Y-29031285D01*
X13767369Y-29037809D01*
X13720036Y-29036721D01*
X13678148Y-29035014D01*
X13648011Y-29032975D01*
X13639416Y-29031939D01*
X13567209Y-29013624D01*
X13488360Y-28983223D01*
X13410545Y-28944239D01*
X13341437Y-28900175D01*
X13327287Y-28889458D01*
X13248363Y-28814973D01*
X13180029Y-28725618D01*
X13125407Y-28626331D01*
X13087619Y-28522048D01*
X13082768Y-28502795D01*
X13072779Y-28438666D01*
X13068828Y-28362871D01*
X13070628Y-28282557D01*
X13077888Y-28204870D01*
X13090321Y-28136956D01*
X13098720Y-28107917D01*
X13145545Y-28001238D01*
X13209028Y-27903124D01*
X13286455Y-27816958D01*
X13375112Y-27746127D01*
X13402773Y-27728797D01*
X13479839Y-27687999D01*
X13553148Y-27660192D01*
X13630409Y-27643149D01*
X13719332Y-27634648D01*
X13730987Y-27634103D01*
X13835295Y-27634681D01*
X13835295Y-27634681D01*
G37*
X13835295Y-27634681D02*
X13927583Y-27646843D01*
X14014329Y-27671881D01*
X14092244Y-27706102D01*
X14141053Y-27733446D01*
X14187886Y-27764613D01*
X14229173Y-27796670D01*
X14261342Y-27826683D01*
X14280823Y-27851719D01*
X14285000Y-27864455D01*
X14278734Y-27898647D01*
X14260695Y-27916019D01*
X14232022Y-27916524D01*
X14193853Y-27900115D01*
X14151254Y-27869979D01*
X14058359Y-27807908D01*
X13953344Y-27763174D01*
X13873808Y-27742409D01*
X13790238Y-27731600D01*
X13718045Y-27736511D01*
X13653262Y-27758283D01*
X13591926Y-27798053D01*
X13550981Y-27835138D01*
X13506623Y-27888649D01*
X13463825Y-27956944D01*
X13425950Y-28033716D01*
X13396362Y-28112658D01*
X13388578Y-28139667D01*
X13377767Y-28198603D01*
X13371617Y-28270751D01*
X13370121Y-28348858D01*
X13373275Y-28425672D01*
X13381071Y-28493939D01*
X13388881Y-28531250D01*
X13423649Y-28634147D01*
X13469058Y-28725451D01*
X13523547Y-28803240D01*
X13585555Y-28865595D01*
X13653521Y-28910593D01*
X13716221Y-28934111D01*
X13780046Y-28940956D01*
X13853927Y-28934188D01*
X13933035Y-28915246D01*
X14012541Y-28885568D01*
X14087619Y-28846592D01*
X14145628Y-28806196D01*
X14194317Y-28771819D01*
X14233209Y-28754723D01*
X14261694Y-28754905D01*
X14279161Y-28772364D01*
X14285000Y-28806462D01*
X14276398Y-28825663D01*
X14253051Y-28852157D01*
X14218644Y-28882830D01*
X14176862Y-28914566D01*
X14131390Y-28944249D01*
X14103199Y-28960131D01*
X13994980Y-29005560D01*
X13880226Y-29031285D01*
X13767369Y-29037809D01*
X13720036Y-29036721D01*
X13678148Y-29035014D01*
X13648011Y-29032975D01*
X13639416Y-29031939D01*
X13567209Y-29013624D01*
X13488360Y-28983223D01*
X13410545Y-28944239D01*
X13341437Y-28900175D01*
X13327287Y-28889458D01*
X13248363Y-28814973D01*
X13180029Y-28725618D01*
X13125407Y-28626331D01*
X13087619Y-28522048D01*
X13082768Y-28502795D01*
X13072779Y-28438666D01*
X13068828Y-28362871D01*
X13070628Y-28282557D01*
X13077888Y-28204870D01*
X13090321Y-28136956D01*
X13098720Y-28107917D01*
X13145545Y-28001238D01*
X13209028Y-27903124D01*
X13286455Y-27816958D01*
X13375112Y-27746127D01*
X13402773Y-27728797D01*
X13479839Y-27687999D01*
X13553148Y-27660192D01*
X13630409Y-27643149D01*
X13719332Y-27634648D01*
X13730987Y-27634103D01*
X13835295Y-27634681D01*
G36*
X14795834Y-27635799D02*
X14813721Y-27639392D01*
X14829411Y-27644004D01*
X14843698Y-27651224D01*
X14857375Y-27662638D01*
X14871235Y-27679833D01*
X14886071Y-27704397D01*
X14902676Y-27737916D01*
X14921845Y-27781978D01*
X14944370Y-27838170D01*
X14971044Y-27908079D01*
X15002661Y-27993292D01*
X15040014Y-28095395D01*
X15078750Y-28201828D01*
X15114722Y-28300414D01*
X15148624Y-28392714D01*
X15179757Y-28476865D01*
X15207420Y-28551003D01*
X15230912Y-28613265D01*
X15249534Y-28661787D01*
X15262585Y-28694705D01*
X15269366Y-28710155D01*
X15270085Y-28711107D01*
X15274753Y-28701466D01*
X15285893Y-28673750D01*
X15302816Y-28629801D01*
X15324833Y-28571462D01*
X15351253Y-28500575D01*
X15381390Y-28418984D01*
X15414553Y-28328531D01*
X15450053Y-28231059D01*
X15464963Y-28189938D01*
X15501556Y-28089369D01*
X15536424Y-27994467D01*
X15568833Y-27907167D01*
X15598048Y-27829403D01*
X15623335Y-27763111D01*
X15643960Y-27710226D01*
X15659188Y-27672683D01*
X15668286Y-27652417D01*
X15669950Y-27649687D01*
X15694378Y-27634532D01*
X15721526Y-27635949D01*
X15743428Y-27652516D01*
X15749208Y-27663828D01*
X15750145Y-27672734D01*
X15748215Y-27687767D01*
X15742935Y-27710376D01*
X15733824Y-27742009D01*
X15720398Y-27784112D01*
X15702176Y-27838134D01*
X15678674Y-27905524D01*
X15649411Y-27987727D01*
X15613904Y-28086194D01*
X15571672Y-28202370D01*
X15549988Y-28261786D01*
X15499500Y-28400029D01*
X15455759Y-28519762D01*
X15418217Y-28622345D01*
X15386328Y-28709139D01*
X15359543Y-28781504D01*
X15337316Y-28840801D01*
X15319099Y-28888390D01*
X15304345Y-28925631D01*
X15292507Y-28953884D01*
X15283037Y-28974511D01*
X15275389Y-28988871D01*
X15269014Y-28998324D01*
X15263365Y-29004231D01*
X15257896Y-29007953D01*
X15252059Y-29010850D01*
X15247778Y-29012949D01*
X15211150Y-29024144D01*
X15165287Y-29028004D01*
X15120252Y-29024399D01*
X15089380Y-29014993D01*
X15067837Y-28997351D01*
X15046049Y-28969477D01*
X15040189Y-28959586D01*
X15032310Y-28941800D01*
X15018017Y-28906096D01*
X14998059Y-28854469D01*
X14973189Y-28788920D01*
X14944156Y-28711444D01*
X14911711Y-28624039D01*
X14876604Y-28528705D01*
X14839588Y-28427438D01*
X14820537Y-28375038D01*
X14775103Y-28249650D01*
X14736538Y-28142489D01*
X14704427Y-28051910D01*
X14678351Y-27976268D01*
X14657893Y-27913918D01*
X14642637Y-27863214D01*
X14632164Y-27822511D01*
X14626058Y-27790164D01*
X14623901Y-27764528D01*
X14625276Y-27743957D01*
X14629766Y-27726806D01*
X14636953Y-27711431D01*
X14646420Y-27696185D01*
X14647824Y-27694086D01*
X14682821Y-27659720D01*
X14729369Y-27638759D01*
X14780801Y-27633827D01*
X14795834Y-27635799D01*
X14795834Y-27635799D01*
G37*
X14795834Y-27635799D02*
X14813721Y-27639392D01*
X14829411Y-27644004D01*
X14843698Y-27651224D01*
X14857375Y-27662638D01*
X14871235Y-27679833D01*
X14886071Y-27704397D01*
X14902676Y-27737916D01*
X14921845Y-27781978D01*
X14944370Y-27838170D01*
X14971044Y-27908079D01*
X15002661Y-27993292D01*
X15040014Y-28095395D01*
X15078750Y-28201828D01*
X15114722Y-28300414D01*
X15148624Y-28392714D01*
X15179757Y-28476865D01*
X15207420Y-28551003D01*
X15230912Y-28613265D01*
X15249534Y-28661787D01*
X15262585Y-28694705D01*
X15269366Y-28710155D01*
X15270085Y-28711107D01*
X15274753Y-28701466D01*
X15285893Y-28673750D01*
X15302816Y-28629801D01*
X15324833Y-28571462D01*
X15351253Y-28500575D01*
X15381390Y-28418984D01*
X15414553Y-28328531D01*
X15450053Y-28231059D01*
X15464963Y-28189938D01*
X15501556Y-28089369D01*
X15536424Y-27994467D01*
X15568833Y-27907167D01*
X15598048Y-27829403D01*
X15623335Y-27763111D01*
X15643960Y-27710226D01*
X15659188Y-27672683D01*
X15668286Y-27652417D01*
X15669950Y-27649687D01*
X15694378Y-27634532D01*
X15721526Y-27635949D01*
X15743428Y-27652516D01*
X15749208Y-27663828D01*
X15750145Y-27672734D01*
X15748215Y-27687767D01*
X15742935Y-27710376D01*
X15733824Y-27742009D01*
X15720398Y-27784112D01*
X15702176Y-27838134D01*
X15678674Y-27905524D01*
X15649411Y-27987727D01*
X15613904Y-28086194D01*
X15571672Y-28202370D01*
X15549988Y-28261786D01*
X15499500Y-28400029D01*
X15455759Y-28519762D01*
X15418217Y-28622345D01*
X15386328Y-28709139D01*
X15359543Y-28781504D01*
X15337316Y-28840801D01*
X15319099Y-28888390D01*
X15304345Y-28925631D01*
X15292507Y-28953884D01*
X15283037Y-28974511D01*
X15275389Y-28988871D01*
X15269014Y-28998324D01*
X15263365Y-29004231D01*
X15257896Y-29007953D01*
X15252059Y-29010850D01*
X15247778Y-29012949D01*
X15211150Y-29024144D01*
X15165287Y-29028004D01*
X15120252Y-29024399D01*
X15089380Y-29014993D01*
X15067837Y-28997351D01*
X15046049Y-28969477D01*
X15040189Y-28959586D01*
X15032310Y-28941800D01*
X15018017Y-28906096D01*
X14998059Y-28854469D01*
X14973189Y-28788920D01*
X14944156Y-28711444D01*
X14911711Y-28624039D01*
X14876604Y-28528705D01*
X14839588Y-28427438D01*
X14820537Y-28375038D01*
X14775103Y-28249650D01*
X14736538Y-28142489D01*
X14704427Y-28051910D01*
X14678351Y-27976268D01*
X14657893Y-27913918D01*
X14642637Y-27863214D01*
X14632164Y-27822511D01*
X14626058Y-27790164D01*
X14623901Y-27764528D01*
X14625276Y-27743957D01*
X14629766Y-27726806D01*
X14636953Y-27711431D01*
X14646420Y-27696185D01*
X14647824Y-27694086D01*
X14682821Y-27659720D01*
X14729369Y-27638759D01*
X14780801Y-27633827D01*
X14795834Y-27635799D01*
G36*
X25175229Y-8314283D02*
X25243447Y-8327515D01*
X25353509Y-8366309D01*
X25454819Y-8423157D01*
X25545356Y-8496044D01*
X25623101Y-8582956D01*
X25686036Y-8681880D01*
X25732140Y-8790803D01*
X25742376Y-8825084D01*
X25753041Y-8880932D01*
X25759468Y-8949295D01*
X25761537Y-9022650D01*
X25759128Y-9093478D01*
X25752121Y-9154256D01*
X25747939Y-9174334D01*
X25708563Y-9290966D01*
X25651541Y-9396956D01*
X25578288Y-9490748D01*
X25490219Y-9570783D01*
X25388749Y-9635504D01*
X25290028Y-9678367D01*
X25248307Y-9691431D01*
X25207564Y-9700169D01*
X25160956Y-9705617D01*
X25101638Y-9708811D01*
X25085291Y-9709341D01*
X25030954Y-9710083D01*
X24980176Y-9709229D01*
X24939072Y-9706971D01*
X24915851Y-9703998D01*
X24798480Y-9668550D01*
X24691528Y-9615667D01*
X24596502Y-9546920D01*
X24514913Y-9463884D01*
X24448269Y-9368133D01*
X24398078Y-9261238D01*
X24365851Y-9144775D01*
X24362769Y-9127255D01*
X24355990Y-9043253D01*
X24656212Y-9043253D01*
X24667697Y-9146947D01*
X24691292Y-9246234D01*
X24725978Y-9338659D01*
X24770732Y-9421769D01*
X24824534Y-9493107D01*
X24886364Y-9550220D01*
X24955199Y-9590652D01*
X24994810Y-9604655D01*
X25058875Y-9613203D01*
X25124598Y-9603128D01*
X25180541Y-9581507D01*
X25244812Y-9540069D01*
X25304614Y-9480165D01*
X25358039Y-9404340D01*
X25403179Y-9315137D01*
X25426342Y-9253709D01*
X25437758Y-9217145D01*
X25445651Y-9184574D01*
X25450678Y-9150532D01*
X25453499Y-9109558D01*
X25454773Y-9056190D01*
X25455071Y-9015584D01*
X25454884Y-8950935D01*
X25453332Y-8902050D01*
X25449855Y-8863544D01*
X25443894Y-8830030D01*
X25434887Y-8796120D01*
X25430900Y-8783123D01*
X25394892Y-8685879D01*
X25352399Y-8604954D01*
X25301029Y-8535898D01*
X25293233Y-8527188D01*
X25228067Y-8467583D01*
X25160139Y-8427634D01*
X25090715Y-8407656D01*
X25021064Y-8407964D01*
X24952452Y-8428873D01*
X24934364Y-8438040D01*
X24864992Y-8487557D01*
X24802237Y-8554649D01*
X24748143Y-8636227D01*
X24704751Y-8729199D01*
X24674105Y-8830475D01*
X24673658Y-8832464D01*
X24657859Y-8937607D01*
X24656212Y-9043253D01*
X24355990Y-9043253D01*
X24353034Y-9006628D01*
X24362794Y-8889468D01*
X24390821Y-8777694D01*
X24435887Y-8673226D01*
X24496762Y-8577982D01*
X24572220Y-8493880D01*
X24661031Y-8422841D01*
X24761968Y-8366782D01*
X24873801Y-8327622D01*
X24874783Y-8327370D01*
X24969937Y-8310910D01*
X25073178Y-8306549D01*
X25175229Y-8314283D01*
X25175229Y-8314283D01*
G37*
X25175229Y-8314283D02*
X25243447Y-8327515D01*
X25353509Y-8366309D01*
X25454819Y-8423157D01*
X25545356Y-8496044D01*
X25623101Y-8582956D01*
X25686036Y-8681880D01*
X25732140Y-8790803D01*
X25742376Y-8825084D01*
X25753041Y-8880932D01*
X25759468Y-8949295D01*
X25761537Y-9022650D01*
X25759128Y-9093478D01*
X25752121Y-9154256D01*
X25747939Y-9174334D01*
X25708563Y-9290966D01*
X25651541Y-9396956D01*
X25578288Y-9490748D01*
X25490219Y-9570783D01*
X25388749Y-9635504D01*
X25290028Y-9678367D01*
X25248307Y-9691431D01*
X25207564Y-9700169D01*
X25160956Y-9705617D01*
X25101638Y-9708811D01*
X25085291Y-9709341D01*
X25030954Y-9710083D01*
X24980176Y-9709229D01*
X24939072Y-9706971D01*
X24915851Y-9703998D01*
X24798480Y-9668550D01*
X24691528Y-9615667D01*
X24596502Y-9546920D01*
X24514913Y-9463884D01*
X24448269Y-9368133D01*
X24398078Y-9261238D01*
X24365851Y-9144775D01*
X24362769Y-9127255D01*
X24355990Y-9043253D01*
X24656212Y-9043253D01*
X24667697Y-9146947D01*
X24691292Y-9246234D01*
X24725978Y-9338659D01*
X24770732Y-9421769D01*
X24824534Y-9493107D01*
X24886364Y-9550220D01*
X24955199Y-9590652D01*
X24994810Y-9604655D01*
X25058875Y-9613203D01*
X25124598Y-9603128D01*
X25180541Y-9581507D01*
X25244812Y-9540069D01*
X25304614Y-9480165D01*
X25358039Y-9404340D01*
X25403179Y-9315137D01*
X25426342Y-9253709D01*
X25437758Y-9217145D01*
X25445651Y-9184574D01*
X25450678Y-9150532D01*
X25453499Y-9109558D01*
X25454773Y-9056190D01*
X25455071Y-9015584D01*
X25454884Y-8950935D01*
X25453332Y-8902050D01*
X25449855Y-8863544D01*
X25443894Y-8830030D01*
X25434887Y-8796120D01*
X25430900Y-8783123D01*
X25394892Y-8685879D01*
X25352399Y-8604954D01*
X25301029Y-8535898D01*
X25293233Y-8527188D01*
X25228067Y-8467583D01*
X25160139Y-8427634D01*
X25090715Y-8407656D01*
X25021064Y-8407964D01*
X24952452Y-8428873D01*
X24934364Y-8438040D01*
X24864992Y-8487557D01*
X24802237Y-8554649D01*
X24748143Y-8636227D01*
X24704751Y-8729199D01*
X24674105Y-8830475D01*
X24673658Y-8832464D01*
X24657859Y-8937607D01*
X24656212Y-9043253D01*
X24355990Y-9043253D01*
X24353034Y-9006628D01*
X24362794Y-8889468D01*
X24390821Y-8777694D01*
X24435887Y-8673226D01*
X24496762Y-8577982D01*
X24572220Y-8493880D01*
X24661031Y-8422841D01*
X24761968Y-8366782D01*
X24873801Y-8327622D01*
X24874783Y-8327370D01*
X24969937Y-8310910D01*
X25073178Y-8306549D01*
X25175229Y-8314283D01*
G36*
X27089467Y-8326076D02*
X27136053Y-8350968D01*
X27172227Y-8391926D01*
X27178129Y-8402502D01*
X27182181Y-8411806D01*
X27185599Y-8423682D01*
X27188436Y-8439887D01*
X27190746Y-8462177D01*
X27192582Y-8492308D01*
X27193998Y-8532038D01*
X27195046Y-8583122D01*
X27195781Y-8647317D01*
X27196254Y-8726380D01*
X27196521Y-8822067D01*
X27196634Y-8936134D01*
X27196650Y-9012249D01*
X27196435Y-9160393D01*
X27195782Y-9287929D01*
X27194694Y-9394766D01*
X27193171Y-9480816D01*
X27191215Y-9545989D01*
X27188828Y-9590197D01*
X27186012Y-9613350D01*
X27185378Y-9615499D01*
X27157462Y-9662178D01*
X27116451Y-9693568D01*
X27065231Y-9708251D01*
X27006692Y-9704812D01*
X27004238Y-9704278D01*
X26964078Y-9688885D01*
X26934281Y-9665911D01*
X26910021Y-9637779D01*
X26858493Y-9659946D01*
X26765342Y-9691357D01*
X26666034Y-9709522D01*
X26566869Y-9713866D01*
X26474146Y-9703818D01*
X26446559Y-9697387D01*
X26345773Y-9660005D01*
X26253150Y-9605479D01*
X26171214Y-9536300D01*
X26102486Y-9454958D01*
X26049489Y-9363943D01*
X26016509Y-9272725D01*
X26012373Y-9246267D01*
X26008803Y-9202721D01*
X26005807Y-9144968D01*
X26003393Y-9075886D01*
X26001567Y-8998354D01*
X26000339Y-8915252D01*
X25999715Y-8829459D01*
X25999704Y-8743854D01*
X26000313Y-8661316D01*
X26001550Y-8584725D01*
X26003422Y-8516959D01*
X26005939Y-8460899D01*
X26009106Y-8419423D01*
X26012933Y-8395410D01*
X26014135Y-8392187D01*
X26043737Y-8356007D01*
X26085949Y-8331200D01*
X26134576Y-8319424D01*
X26183422Y-8322339D01*
X26219779Y-8337156D01*
X26236909Y-8347973D01*
X26251080Y-8358253D01*
X26262600Y-8370014D01*
X26271776Y-8385270D01*
X26278915Y-8406039D01*
X26284325Y-8434337D01*
X26288312Y-8472180D01*
X26291184Y-8521583D01*
X26293248Y-8584565D01*
X26294812Y-8663139D01*
X26296183Y-8759324D01*
X26297289Y-8845757D01*
X26298698Y-8952684D01*
X26300014Y-9040686D01*
X26301372Y-9112003D01*
X26302906Y-9168875D01*
X26304752Y-9213542D01*
X26307044Y-9248243D01*
X26309918Y-9275219D01*
X26313508Y-9296711D01*
X26317950Y-9314958D01*
X26323378Y-9332199D01*
X26327261Y-9343263D01*
X26344408Y-9386768D01*
X26363792Y-9429507D01*
X26377673Y-9455910D01*
X26410639Y-9501919D01*
X26452237Y-9545222D01*
X26496933Y-9580958D01*
X26539197Y-9604268D01*
X26551086Y-9608251D01*
X26606086Y-9614384D01*
X26671735Y-9607673D01*
X26742692Y-9589143D01*
X26813618Y-9559821D01*
X26819986Y-9556600D01*
X26895041Y-9518011D01*
X26900333Y-8962050D01*
X26901533Y-8834486D01*
X26902657Y-8726385D01*
X26903928Y-8636042D01*
X26905568Y-8561755D01*
X26907799Y-8501821D01*
X26910845Y-8454539D01*
X26914927Y-8418203D01*
X26920269Y-8391113D01*
X26927092Y-8371565D01*
X26935620Y-8357856D01*
X26946074Y-8348284D01*
X26958678Y-8341146D01*
X26973653Y-8334738D01*
X26982798Y-8330985D01*
X27036903Y-8318873D01*
X27089467Y-8326076D01*
X27089467Y-8326076D01*
G37*
X27089467Y-8326076D02*
X27136053Y-8350968D01*
X27172227Y-8391926D01*
X27178129Y-8402502D01*
X27182181Y-8411806D01*
X27185599Y-8423682D01*
X27188436Y-8439887D01*
X27190746Y-8462177D01*
X27192582Y-8492308D01*
X27193998Y-8532038D01*
X27195046Y-8583122D01*
X27195781Y-8647317D01*
X27196254Y-8726380D01*
X27196521Y-8822067D01*
X27196634Y-8936134D01*
X27196650Y-9012249D01*
X27196435Y-9160393D01*
X27195782Y-9287929D01*
X27194694Y-9394766D01*
X27193171Y-9480816D01*
X27191215Y-9545989D01*
X27188828Y-9590197D01*
X27186012Y-9613350D01*
X27185378Y-9615499D01*
X27157462Y-9662178D01*
X27116451Y-9693568D01*
X27065231Y-9708251D01*
X27006692Y-9704812D01*
X27004238Y-9704278D01*
X26964078Y-9688885D01*
X26934281Y-9665911D01*
X26910021Y-9637779D01*
X26858493Y-9659946D01*
X26765342Y-9691357D01*
X26666034Y-9709522D01*
X26566869Y-9713866D01*
X26474146Y-9703818D01*
X26446559Y-9697387D01*
X26345773Y-9660005D01*
X26253150Y-9605479D01*
X26171214Y-9536300D01*
X26102486Y-9454958D01*
X26049489Y-9363943D01*
X26016509Y-9272725D01*
X26012373Y-9246267D01*
X26008803Y-9202721D01*
X26005807Y-9144968D01*
X26003393Y-9075886D01*
X26001567Y-8998354D01*
X26000339Y-8915252D01*
X25999715Y-8829459D01*
X25999704Y-8743854D01*
X26000313Y-8661316D01*
X26001550Y-8584725D01*
X26003422Y-8516959D01*
X26005939Y-8460899D01*
X26009106Y-8419423D01*
X26012933Y-8395410D01*
X26014135Y-8392187D01*
X26043737Y-8356007D01*
X26085949Y-8331200D01*
X26134576Y-8319424D01*
X26183422Y-8322339D01*
X26219779Y-8337156D01*
X26236909Y-8347973D01*
X26251080Y-8358253D01*
X26262600Y-8370014D01*
X26271776Y-8385270D01*
X26278915Y-8406039D01*
X26284325Y-8434337D01*
X26288312Y-8472180D01*
X26291184Y-8521583D01*
X26293248Y-8584565D01*
X26294812Y-8663139D01*
X26296183Y-8759324D01*
X26297289Y-8845757D01*
X26298698Y-8952684D01*
X26300014Y-9040686D01*
X26301372Y-9112003D01*
X26302906Y-9168875D01*
X26304752Y-9213542D01*
X26307044Y-9248243D01*
X26309918Y-9275219D01*
X26313508Y-9296711D01*
X26317950Y-9314958D01*
X26323378Y-9332199D01*
X26327261Y-9343263D01*
X26344408Y-9386768D01*
X26363792Y-9429507D01*
X26377673Y-9455910D01*
X26410639Y-9501919D01*
X26452237Y-9545222D01*
X26496933Y-9580958D01*
X26539197Y-9604268D01*
X26551086Y-9608251D01*
X26606086Y-9614384D01*
X26671735Y-9607673D01*
X26742692Y-9589143D01*
X26813618Y-9559821D01*
X26819986Y-9556600D01*
X26895041Y-9518011D01*
X26900333Y-8962050D01*
X26901533Y-8834486D01*
X26902657Y-8726385D01*
X26903928Y-8636042D01*
X26905568Y-8561755D01*
X26907799Y-8501821D01*
X26910845Y-8454539D01*
X26914927Y-8418203D01*
X26920269Y-8391113D01*
X26927092Y-8371565D01*
X26935620Y-8357856D01*
X26946074Y-8348284D01*
X26958678Y-8341146D01*
X26973653Y-8334738D01*
X26982798Y-8330985D01*
X27036903Y-8318873D01*
X27089467Y-8326076D01*
G36*
X13726493Y-8320643D02*
X13752391Y-8333711D01*
X13766357Y-8343980D01*
X13778231Y-8353835D01*
X13788184Y-8364984D01*
X13796384Y-8379137D01*
X13803001Y-8398002D01*
X13808205Y-8423289D01*
X13812166Y-8456705D01*
X13815053Y-8499962D01*
X13817036Y-8554766D01*
X13818284Y-8622828D01*
X13818967Y-8705856D01*
X13819255Y-8805559D01*
X13819317Y-8923647D01*
X13819316Y-9007986D01*
X13819302Y-9139542D01*
X13819144Y-9251608D01*
X13818679Y-9345861D01*
X13817743Y-9423977D01*
X13816174Y-9487633D01*
X13813809Y-9538505D01*
X13810485Y-9578270D01*
X13806039Y-9608604D01*
X13800308Y-9631185D01*
X13793130Y-9647689D01*
X13784342Y-9659792D01*
X13773780Y-9669171D01*
X13761281Y-9677502D01*
X13753824Y-9682062D01*
X13707258Y-9699537D01*
X13654739Y-9702430D01*
X13605234Y-9690703D01*
X13589659Y-9682762D01*
X13575816Y-9674337D01*
X13564034Y-9666150D01*
X13554147Y-9656526D01*
X13545990Y-9643787D01*
X13539396Y-9626256D01*
X13534199Y-9602258D01*
X13530233Y-9570116D01*
X13527333Y-9528153D01*
X13525331Y-9474692D01*
X13524063Y-9408058D01*
X13523361Y-9326574D01*
X13523061Y-9228562D01*
X13522995Y-9112347D01*
X13523000Y-9009771D01*
X13523007Y-8877848D01*
X13523137Y-8765425D01*
X13523553Y-8670835D01*
X13524416Y-8592410D01*
X13525889Y-8528484D01*
X13528135Y-8477390D01*
X13531315Y-8437460D01*
X13535593Y-8407028D01*
X13541131Y-8384428D01*
X13548091Y-8367991D01*
X13556635Y-8356051D01*
X13566926Y-8346941D01*
X13579126Y-8338994D01*
X13588908Y-8333219D01*
X13632342Y-8316842D01*
X13680976Y-8312658D01*
X13726493Y-8320643D01*
X13726493Y-8320643D01*
G37*
X13726493Y-8320643D02*
X13752391Y-8333711D01*
X13766357Y-8343980D01*
X13778231Y-8353835D01*
X13788184Y-8364984D01*
X13796384Y-8379137D01*
X13803001Y-8398002D01*
X13808205Y-8423289D01*
X13812166Y-8456705D01*
X13815053Y-8499962D01*
X13817036Y-8554766D01*
X13818284Y-8622828D01*
X13818967Y-8705856D01*
X13819255Y-8805559D01*
X13819317Y-8923647D01*
X13819316Y-9007986D01*
X13819302Y-9139542D01*
X13819144Y-9251608D01*
X13818679Y-9345861D01*
X13817743Y-9423977D01*
X13816174Y-9487633D01*
X13813809Y-9538505D01*
X13810485Y-9578270D01*
X13806039Y-9608604D01*
X13800308Y-9631185D01*
X13793130Y-9647689D01*
X13784342Y-9659792D01*
X13773780Y-9669171D01*
X13761281Y-9677502D01*
X13753824Y-9682062D01*
X13707258Y-9699537D01*
X13654739Y-9702430D01*
X13605234Y-9690703D01*
X13589659Y-9682762D01*
X13575816Y-9674337D01*
X13564034Y-9666150D01*
X13554147Y-9656526D01*
X13545990Y-9643787D01*
X13539396Y-9626256D01*
X13534199Y-9602258D01*
X13530233Y-9570116D01*
X13527333Y-9528153D01*
X13525331Y-9474692D01*
X13524063Y-9408058D01*
X13523361Y-9326574D01*
X13523061Y-9228562D01*
X13522995Y-9112347D01*
X13523000Y-9009771D01*
X13523007Y-8877848D01*
X13523137Y-8765425D01*
X13523553Y-8670835D01*
X13524416Y-8592410D01*
X13525889Y-8528484D01*
X13528135Y-8477390D01*
X13531315Y-8437460D01*
X13535593Y-8407028D01*
X13541131Y-8384428D01*
X13548091Y-8367991D01*
X13556635Y-8356051D01*
X13566926Y-8346941D01*
X13579126Y-8338994D01*
X13588908Y-8333219D01*
X13632342Y-8316842D01*
X13680976Y-8312658D01*
X13726493Y-8320643D01*
G36*
X14856330Y-8328186D02*
X14957051Y-8363574D01*
X15051066Y-8416335D01*
X15120399Y-8471607D01*
X15185116Y-8540285D01*
X15234852Y-8614481D01*
X15274308Y-8701342D01*
X15277929Y-8711167D01*
X15305756Y-8788042D01*
X15309551Y-9181397D01*
X15310490Y-9283347D01*
X15311081Y-9366397D01*
X15311232Y-9432813D01*
X15310854Y-9484859D01*
X15309853Y-9524803D01*
X15308140Y-9554908D01*
X15305622Y-9577441D01*
X15302208Y-9594667D01*
X15297808Y-9608851D01*
X15292330Y-9622258D01*
X15291735Y-9623608D01*
X15263620Y-9666446D01*
X15224016Y-9692377D01*
X15171699Y-9702020D01*
X15138923Y-9700789D01*
X15098629Y-9692871D01*
X15067852Y-9675147D01*
X15053954Y-9662442D01*
X15020541Y-9629049D01*
X15014279Y-9208545D01*
X15012500Y-9095674D01*
X15010649Y-9001579D01*
X15008457Y-8923872D01*
X15005657Y-8860162D01*
X15001981Y-8808062D01*
X14997162Y-8765181D01*
X14990930Y-8729130D01*
X14983019Y-8697520D01*
X14973160Y-8667962D01*
X14961086Y-8638066D01*
X14946699Y-8605817D01*
X14920190Y-8559586D01*
X14884163Y-8512384D01*
X14843872Y-8470068D01*
X14804572Y-8438492D01*
X14788178Y-8429141D01*
X14739634Y-8415781D01*
X14679348Y-8413886D01*
X14612769Y-8422569D01*
X14545342Y-8440942D01*
X14482514Y-8468116D01*
X14456979Y-8483120D01*
X14412000Y-8512313D01*
X14412000Y-9605120D01*
X14387869Y-9640927D01*
X14365525Y-9667744D01*
X14341532Y-9687734D01*
X14337599Y-9689961D01*
X14297323Y-9701249D01*
X14249293Y-9702070D01*
X14203900Y-9692858D01*
X14183611Y-9683543D01*
X14169576Y-9674878D01*
X14157619Y-9666223D01*
X14147576Y-9655906D01*
X14139278Y-9642257D01*
X14132559Y-9623605D01*
X14127253Y-9598280D01*
X14123193Y-9564612D01*
X14120212Y-9520929D01*
X14118144Y-9465561D01*
X14116822Y-9396838D01*
X14116080Y-9313088D01*
X14115751Y-9212642D01*
X14115667Y-9093828D01*
X14115666Y-9002320D01*
X14115666Y-8415464D01*
X14139796Y-8379657D01*
X14168597Y-8345610D01*
X14201882Y-8326344D01*
X14245413Y-8319386D01*
X14278635Y-8320076D01*
X14316409Y-8323905D01*
X14341186Y-8331768D01*
X14361123Y-8346983D01*
X14371269Y-8357760D01*
X14401475Y-8391567D01*
X14445171Y-8369275D01*
X14543323Y-8330716D01*
X14646526Y-8311312D01*
X14751842Y-8310617D01*
X14856330Y-8328186D01*
X14856330Y-8328186D01*
G37*
X14856330Y-8328186D02*
X14957051Y-8363574D01*
X15051066Y-8416335D01*
X15120399Y-8471607D01*
X15185116Y-8540285D01*
X15234852Y-8614481D01*
X15274308Y-8701342D01*
X15277929Y-8711167D01*
X15305756Y-8788042D01*
X15309551Y-9181397D01*
X15310490Y-9283347D01*
X15311081Y-9366397D01*
X15311232Y-9432813D01*
X15310854Y-9484859D01*
X15309853Y-9524803D01*
X15308140Y-9554908D01*
X15305622Y-9577441D01*
X15302208Y-9594667D01*
X15297808Y-9608851D01*
X15292330Y-9622258D01*
X15291735Y-9623608D01*
X15263620Y-9666446D01*
X15224016Y-9692377D01*
X15171699Y-9702020D01*
X15138923Y-9700789D01*
X15098629Y-9692871D01*
X15067852Y-9675147D01*
X15053954Y-9662442D01*
X15020541Y-9629049D01*
X15014279Y-9208545D01*
X15012500Y-9095674D01*
X15010649Y-9001579D01*
X15008457Y-8923872D01*
X15005657Y-8860162D01*
X15001981Y-8808062D01*
X14997162Y-8765181D01*
X14990930Y-8729130D01*
X14983019Y-8697520D01*
X14973160Y-8667962D01*
X14961086Y-8638066D01*
X14946699Y-8605817D01*
X14920190Y-8559586D01*
X14884163Y-8512384D01*
X14843872Y-8470068D01*
X14804572Y-8438492D01*
X14788178Y-8429141D01*
X14739634Y-8415781D01*
X14679348Y-8413886D01*
X14612769Y-8422569D01*
X14545342Y-8440942D01*
X14482514Y-8468116D01*
X14456979Y-8483120D01*
X14412000Y-8512313D01*
X14412000Y-9605120D01*
X14387869Y-9640927D01*
X14365525Y-9667744D01*
X14341532Y-9687734D01*
X14337599Y-9689961D01*
X14297323Y-9701249D01*
X14249293Y-9702070D01*
X14203900Y-9692858D01*
X14183611Y-9683543D01*
X14169576Y-9674878D01*
X14157619Y-9666223D01*
X14147576Y-9655906D01*
X14139278Y-9642257D01*
X14132559Y-9623605D01*
X14127253Y-9598280D01*
X14123193Y-9564612D01*
X14120212Y-9520929D01*
X14118144Y-9465561D01*
X14116822Y-9396838D01*
X14116080Y-9313088D01*
X14115751Y-9212642D01*
X14115667Y-9093828D01*
X14115666Y-9002320D01*
X14115666Y-8415464D01*
X14139796Y-8379657D01*
X14168597Y-8345610D01*
X14201882Y-8326344D01*
X14245413Y-8319386D01*
X14278635Y-8320076D01*
X14316409Y-8323905D01*
X14341186Y-8331768D01*
X14361123Y-8346983D01*
X14371269Y-8357760D01*
X14401475Y-8391567D01*
X14445171Y-8369275D01*
X14543323Y-8330716D01*
X14646526Y-8311312D01*
X14751842Y-8310617D01*
X14856330Y-8328186D01*
G36*
X27687494Y-7488428D02*
X27732539Y-7509190D01*
X27770128Y-7544833D01*
X27778807Y-7557633D01*
X27784353Y-7567683D01*
X27788831Y-7579252D01*
X27792354Y-7594579D01*
X27795036Y-7615901D01*
X27796992Y-7645456D01*
X27798336Y-7685482D01*
X27799182Y-7738218D01*
X27799645Y-7805901D01*
X27799839Y-7890770D01*
X27799877Y-7970217D01*
X27799916Y-8348309D01*
X27971895Y-8351217D01*
X28143875Y-8354125D01*
X28147285Y-8383869D01*
X28148414Y-8405210D01*
X28144365Y-8420829D01*
X28132414Y-8431611D01*
X28109834Y-8438442D01*
X28073900Y-8442206D01*
X28021886Y-8443790D01*
X27961911Y-8444084D01*
X27798414Y-8444084D01*
X27802708Y-8801271D01*
X27804098Y-8906176D01*
X27805760Y-8992653D01*
X27808081Y-9063442D01*
X27811448Y-9121283D01*
X27816246Y-9168914D01*
X27822863Y-9209074D01*
X27831685Y-9244503D01*
X27843098Y-9277940D01*
X27857490Y-9312123D01*
X27875246Y-9349793D01*
X27882100Y-9363845D01*
X27916306Y-9422603D01*
X27958802Y-9478905D01*
X28004956Y-9527466D01*
X28050137Y-9563002D01*
X28063302Y-9570589D01*
X28092719Y-9582238D01*
X28133362Y-9593998D01*
X28168851Y-9601818D01*
X28210878Y-9611430D01*
X28234975Y-9623340D01*
X28244348Y-9640983D01*
X28242205Y-9667791D01*
X28239860Y-9677879D01*
X28234906Y-9691505D01*
X28225242Y-9699094D01*
X28205727Y-9702286D01*
X28171218Y-9702718D01*
X28162194Y-9702618D01*
X28113119Y-9699719D01*
X28061565Y-9693171D01*
X28030722Y-9687129D01*
X27921022Y-9650016D01*
X27818899Y-9594755D01*
X27727151Y-9523575D01*
X27648576Y-9438707D01*
X27585972Y-9342380D01*
X27577582Y-9325966D01*
X27565089Y-9300942D01*
X27554229Y-9278992D01*
X27544881Y-9258515D01*
X27536927Y-9237912D01*
X27530246Y-9215581D01*
X27524719Y-9189922D01*
X27520225Y-9159333D01*
X27516646Y-9122216D01*
X27513861Y-9076967D01*
X27511750Y-9021988D01*
X27510194Y-8955678D01*
X27509073Y-8876435D01*
X27508267Y-8782659D01*
X27507656Y-8672749D01*
X27507121Y-8545105D01*
X27506542Y-8398127D01*
X27506448Y-8375292D01*
X27505858Y-8227267D01*
X27505423Y-8098925D01*
X27505170Y-7988782D01*
X27505127Y-7895355D01*
X27505323Y-7817160D01*
X27505786Y-7752713D01*
X27506543Y-7700531D01*
X27507622Y-7659131D01*
X27509052Y-7627028D01*
X27510860Y-7602740D01*
X27513074Y-7584782D01*
X27515723Y-7571672D01*
X27518834Y-7561925D01*
X27521909Y-7555084D01*
X27552203Y-7515876D01*
X27592869Y-7491727D01*
X27639452Y-7482593D01*
X27687494Y-7488428D01*
X27687494Y-7488428D01*
G37*
X27687494Y-7488428D02*
X27732539Y-7509190D01*
X27770128Y-7544833D01*
X27778807Y-7557633D01*
X27784353Y-7567683D01*
X27788831Y-7579252D01*
X27792354Y-7594579D01*
X27795036Y-7615901D01*
X27796992Y-7645456D01*
X27798336Y-7685482D01*
X27799182Y-7738218D01*
X27799645Y-7805901D01*
X27799839Y-7890770D01*
X27799877Y-7970217D01*
X27799916Y-8348309D01*
X27971895Y-8351217D01*
X28143875Y-8354125D01*
X28147285Y-8383869D01*
X28148414Y-8405210D01*
X28144365Y-8420829D01*
X28132414Y-8431611D01*
X28109834Y-8438442D01*
X28073900Y-8442206D01*
X28021886Y-8443790D01*
X27961911Y-8444084D01*
X27798414Y-8444084D01*
X27802708Y-8801271D01*
X27804098Y-8906176D01*
X27805760Y-8992653D01*
X27808081Y-9063442D01*
X27811448Y-9121283D01*
X27816246Y-9168914D01*
X27822863Y-9209074D01*
X27831685Y-9244503D01*
X27843098Y-9277940D01*
X27857490Y-9312123D01*
X27875246Y-9349793D01*
X27882100Y-9363845D01*
X27916306Y-9422603D01*
X27958802Y-9478905D01*
X28004956Y-9527466D01*
X28050137Y-9563002D01*
X28063302Y-9570589D01*
X28092719Y-9582238D01*
X28133362Y-9593998D01*
X28168851Y-9601818D01*
X28210878Y-9611430D01*
X28234975Y-9623340D01*
X28244348Y-9640983D01*
X28242205Y-9667791D01*
X28239860Y-9677879D01*
X28234906Y-9691505D01*
X28225242Y-9699094D01*
X28205727Y-9702286D01*
X28171218Y-9702718D01*
X28162194Y-9702618D01*
X28113119Y-9699719D01*
X28061565Y-9693171D01*
X28030722Y-9687129D01*
X27921022Y-9650016D01*
X27818899Y-9594755D01*
X27727151Y-9523575D01*
X27648576Y-9438707D01*
X27585972Y-9342380D01*
X27577582Y-9325966D01*
X27565089Y-9300942D01*
X27554229Y-9278992D01*
X27544881Y-9258515D01*
X27536927Y-9237912D01*
X27530246Y-9215581D01*
X27524719Y-9189922D01*
X27520225Y-9159333D01*
X27516646Y-9122216D01*
X27513861Y-9076967D01*
X27511750Y-9021988D01*
X27510194Y-8955678D01*
X27509073Y-8876435D01*
X27508267Y-8782659D01*
X27507656Y-8672749D01*
X27507121Y-8545105D01*
X27506542Y-8398127D01*
X27506448Y-8375292D01*
X27505858Y-8227267D01*
X27505423Y-8098925D01*
X27505170Y-7988782D01*
X27505127Y-7895355D01*
X27505323Y-7817160D01*
X27505786Y-7752713D01*
X27506543Y-7700531D01*
X27507622Y-7659131D01*
X27509052Y-7627028D01*
X27510860Y-7602740D01*
X27513074Y-7584782D01*
X27515723Y-7571672D01*
X27518834Y-7561925D01*
X27521909Y-7555084D01*
X27552203Y-7515876D01*
X27592869Y-7491727D01*
X27639452Y-7482593D01*
X27687494Y-7488428D01*
G36*
X13732474Y-7631655D02*
X13755050Y-7641704D01*
X13799393Y-7674132D01*
X13827148Y-7717406D01*
X13839531Y-7773756D01*
X13840460Y-7798335D01*
X13832420Y-7859435D01*
X13808436Y-7906619D01*
X13768570Y-7939817D01*
X13712885Y-7958960D01*
X13689869Y-7962306D01*
X13652868Y-7962876D01*
X13618704Y-7958320D01*
X13612958Y-7956713D01*
X13562829Y-7930180D01*
X13526691Y-7888850D01*
X13506137Y-7835083D01*
X13501872Y-7792128D01*
X13511127Y-7734367D01*
X13536671Y-7686269D01*
X13575041Y-7649890D01*
X13622774Y-7627290D01*
X13676406Y-7620525D01*
X13732474Y-7631655D01*
X13732474Y-7631655D01*
G37*
X13732474Y-7631655D02*
X13755050Y-7641704D01*
X13799393Y-7674132D01*
X13827148Y-7717406D01*
X13839531Y-7773756D01*
X13840460Y-7798335D01*
X13832420Y-7859435D01*
X13808436Y-7906619D01*
X13768570Y-7939817D01*
X13712885Y-7958960D01*
X13689869Y-7962306D01*
X13652868Y-7962876D01*
X13618704Y-7958320D01*
X13612958Y-7956713D01*
X13562829Y-7930180D01*
X13526691Y-7888850D01*
X13506137Y-7835083D01*
X13501872Y-7792128D01*
X13511127Y-7734367D01*
X13536671Y-7686269D01*
X13575041Y-7649890D01*
X13622774Y-7627290D01*
X13676406Y-7620525D01*
X13732474Y-7631655D01*
G04 #@! TD*
M02*
