G04 #@! TF.GenerationSoftware,KiCad,Pcbnew,(5.0.0)*
G04 #@! TF.CreationDate,2018-08-29T14:30:19+02:00*
G04 #@! TF.ProjectId,1u_lpg_panel,31755F6C70675F70616E656C2E6B6963,rev?*
G04 #@! TF.SameCoordinates,Original*
G04 #@! TF.FileFunction,Soldermask,Top*
G04 #@! TF.FilePolarity,Negative*
%FSLAX46Y46*%
G04 Gerber Fmt 4.6, Leading zero omitted, Abs format (unit mm)*
G04 Created by KiCad (PCBNEW (5.0.0)) date 08/29/18 14:30:19*
%MOMM*%
%LPD*%
G01*
G04 APERTURE LIST*
%ADD10C,0.010000*%
%ADD11C,0.100000*%
%ADD12C,4.600000*%
%ADD13C,3.400000*%
%ADD14C,7.500000*%
%ADD15C,8.500000*%
G04 APERTURE END LIST*
D10*
G04 #@! TO.C,G\002A\002A\002A*
G36*
X20117997Y-11035633D02*
X20217957Y-11040357D01*
X20308400Y-11049403D01*
X20397848Y-11063731D01*
X20494822Y-11084300D01*
X20540000Y-11095069D01*
X20767523Y-11164075D01*
X20984765Y-11256669D01*
X21190118Y-11371260D01*
X21381972Y-11506258D01*
X21558720Y-11660076D01*
X21718754Y-11831122D01*
X21860466Y-12017809D01*
X21982248Y-12218546D01*
X22082492Y-12431744D01*
X22159591Y-12655814D01*
X22174324Y-12710454D01*
X22192011Y-12785566D01*
X22208561Y-12866468D01*
X22222743Y-12946027D01*
X22233326Y-13017110D01*
X22239082Y-13072583D01*
X22239767Y-13090000D01*
X22240000Y-13133333D01*
X32493333Y-13133333D01*
X32493333Y-13413333D01*
X25533333Y-13413333D01*
X25533333Y-16035093D01*
X25610000Y-16066260D01*
X25679687Y-16096187D01*
X25766795Y-16136049D01*
X25865385Y-16182921D01*
X25969517Y-16233879D01*
X26073251Y-16285996D01*
X26170648Y-16336349D01*
X26255767Y-16382012D01*
X26290122Y-16401180D01*
X26496836Y-16524487D01*
X26711842Y-16663899D01*
X26927549Y-16814101D01*
X27136364Y-16969778D01*
X27330694Y-17125617D01*
X27359149Y-17149544D01*
X27432560Y-17214100D01*
X27519170Y-17294183D01*
X27614511Y-17385346D01*
X27714114Y-17483143D01*
X27813510Y-17583125D01*
X27908231Y-17680846D01*
X27993809Y-17771859D01*
X28065776Y-17851715D01*
X28072992Y-17860000D01*
X28337814Y-18185291D01*
X28581435Y-18525665D01*
X28803240Y-18879744D01*
X29002612Y-19246152D01*
X29178935Y-19623512D01*
X29331594Y-20010448D01*
X29459972Y-20405582D01*
X29563452Y-20807539D01*
X29641419Y-21214941D01*
X29672277Y-21433333D01*
X29706998Y-21797540D01*
X29722621Y-22170800D01*
X29719147Y-22545496D01*
X29696575Y-22914011D01*
X29672494Y-23140000D01*
X29607232Y-23554579D01*
X29516423Y-23962833D01*
X29400679Y-24363610D01*
X29260613Y-24755754D01*
X29096838Y-25138114D01*
X28909967Y-25509534D01*
X28700612Y-25868862D01*
X28469387Y-26214943D01*
X28216904Y-26546625D01*
X27943777Y-26862753D01*
X27650618Y-27162174D01*
X27426592Y-27367546D01*
X27100223Y-27636045D01*
X26759518Y-27882805D01*
X26405663Y-28107284D01*
X26039845Y-28308937D01*
X25663250Y-28487222D01*
X25277064Y-28641594D01*
X24882475Y-28771511D01*
X24480667Y-28876428D01*
X24072828Y-28955803D01*
X23905172Y-28980699D01*
X23738809Y-29000047D01*
X23555601Y-29015815D01*
X23361760Y-29027812D01*
X23163496Y-29035847D01*
X22967019Y-29039727D01*
X22778539Y-29039260D01*
X22604268Y-29034256D01*
X22460000Y-29025328D01*
X22030206Y-28976923D01*
X21609227Y-28903458D01*
X21197417Y-28805069D01*
X20795128Y-28681887D01*
X20402714Y-28534047D01*
X20020526Y-28361682D01*
X19648918Y-28164926D01*
X19288243Y-27943911D01*
X18938854Y-27698771D01*
X18926574Y-27689560D01*
X18597741Y-27425886D01*
X18287219Y-27143405D01*
X17995708Y-26843195D01*
X17723909Y-26526334D01*
X17472520Y-26193897D01*
X17242244Y-25846964D01*
X17033780Y-25486610D01*
X16847830Y-25113913D01*
X16685092Y-24729950D01*
X16546268Y-24335798D01*
X16432057Y-23932535D01*
X16401948Y-23806667D01*
X16321440Y-23396632D01*
X16266585Y-22983430D01*
X16237179Y-22568516D01*
X16233022Y-22153344D01*
X16253912Y-21739371D01*
X16299647Y-21328052D01*
X16370025Y-20920843D01*
X16464844Y-20519199D01*
X16583904Y-20124576D01*
X16727002Y-19738429D01*
X16893936Y-19362214D01*
X17063226Y-19035411D01*
X17281437Y-18668978D01*
X17518894Y-18320360D01*
X17774643Y-17990012D01*
X18047732Y-17678389D01*
X18337206Y-17385946D01*
X18642111Y-17113138D01*
X18961494Y-16860419D01*
X19294402Y-16628246D01*
X19639880Y-16417073D01*
X19996974Y-16227355D01*
X20364732Y-16059546D01*
X20742200Y-15914103D01*
X21128423Y-15791479D01*
X21522448Y-15692130D01*
X21923322Y-15616511D01*
X22330090Y-15565077D01*
X22741800Y-15538283D01*
X23157497Y-15536583D01*
X23576227Y-15560433D01*
X23997038Y-15610288D01*
X24180000Y-15640119D01*
X24309101Y-15665215D01*
X24454875Y-15697428D01*
X24608966Y-15734662D01*
X24763021Y-15774826D01*
X24908686Y-15815825D01*
X25030531Y-15853266D01*
X25100383Y-15875724D01*
X25161155Y-15894959D01*
X25208408Y-15909592D01*
X25237701Y-15918240D01*
X25245053Y-15920000D01*
X25246230Y-15906974D01*
X25247287Y-15869125D01*
X25248217Y-15808297D01*
X25249012Y-15726333D01*
X25249665Y-15625078D01*
X25250169Y-15506374D01*
X25250516Y-15372065D01*
X25250698Y-15223994D01*
X25250709Y-15064006D01*
X25250541Y-14893944D01*
X25250187Y-14715652D01*
X25250068Y-14670000D01*
X25246666Y-13420000D01*
X23749603Y-13416609D01*
X23509403Y-13416119D01*
X23294626Y-13415803D01*
X23104029Y-13415673D01*
X22936370Y-13415739D01*
X22790406Y-13416013D01*
X22664895Y-13416505D01*
X22558592Y-13417227D01*
X22470256Y-13418190D01*
X22398644Y-13419405D01*
X22342513Y-13420882D01*
X22300620Y-13422633D01*
X22271722Y-13424669D01*
X22254576Y-13427000D01*
X22247940Y-13429639D01*
X22247800Y-13429942D01*
X22244149Y-13449841D01*
X22238267Y-13489431D01*
X22231132Y-13541932D01*
X22227094Y-13573333D01*
X22184427Y-13807749D01*
X22117373Y-14033754D01*
X22027317Y-14249794D01*
X21915642Y-14454313D01*
X21783734Y-14645755D01*
X21632975Y-14822565D01*
X21464750Y-14983189D01*
X21280443Y-15126069D01*
X21081439Y-15249652D01*
X20869120Y-15352382D01*
X20644872Y-15432703D01*
X20549106Y-15458971D01*
X20430854Y-15486160D01*
X20322950Y-15505077D01*
X20215592Y-15516880D01*
X20098979Y-15522729D01*
X20000000Y-15523906D01*
X19870082Y-15521748D01*
X19756739Y-15514501D01*
X19650169Y-15501006D01*
X19540571Y-15480104D01*
X19450893Y-15458971D01*
X19224592Y-15389824D01*
X19010260Y-15298164D01*
X18804089Y-15182284D01*
X18738370Y-15139234D01*
X18609050Y-15051555D01*
X18579730Y-15082444D01*
X18568093Y-15095199D01*
X18539440Y-15126841D01*
X18494603Y-15176446D01*
X18434417Y-15243089D01*
X18359715Y-15325847D01*
X18271330Y-15423795D01*
X18170096Y-15536008D01*
X18056846Y-15661564D01*
X17932414Y-15799537D01*
X17797633Y-15949004D01*
X17653338Y-16109040D01*
X17500360Y-16278721D01*
X17339535Y-16457123D01*
X17171695Y-16643321D01*
X16997674Y-16836391D01*
X16818305Y-17035410D01*
X16639937Y-17233333D01*
X16456009Y-17437424D01*
X16276528Y-17636565D01*
X16102334Y-17829825D01*
X15934266Y-18016271D01*
X15773164Y-18194974D01*
X15619869Y-18365001D01*
X15475219Y-18525422D01*
X15340055Y-18675306D01*
X15215217Y-18813722D01*
X15101544Y-18939737D01*
X14999876Y-19052422D01*
X14911054Y-19150845D01*
X14835916Y-19234074D01*
X14775303Y-19301179D01*
X14730054Y-19351228D01*
X14701010Y-19383291D01*
X14689154Y-19396283D01*
X14648845Y-19439233D01*
X14641089Y-22896878D01*
X14640278Y-23256115D01*
X14639508Y-23589649D01*
X14638771Y-23898443D01*
X14638059Y-24183461D01*
X14637362Y-24445666D01*
X14636673Y-24686023D01*
X14635981Y-24905494D01*
X14635278Y-25105042D01*
X14634557Y-25285632D01*
X14633806Y-25448227D01*
X14633019Y-25593790D01*
X14632186Y-25723285D01*
X14631299Y-25837676D01*
X14630348Y-25937925D01*
X14629325Y-26024997D01*
X14628221Y-26099854D01*
X14627028Y-26163461D01*
X14625736Y-26216781D01*
X14624338Y-26260777D01*
X14622823Y-26296413D01*
X14621184Y-26324652D01*
X14619411Y-26346458D01*
X14617496Y-26362795D01*
X14615430Y-26374625D01*
X14613204Y-26382913D01*
X14610810Y-26388621D01*
X14609302Y-26391190D01*
X14581740Y-26421467D01*
X14551768Y-26440595D01*
X14534738Y-26441999D01*
X14491577Y-26443332D01*
X14422821Y-26444590D01*
X14329005Y-26445773D01*
X14210664Y-26446878D01*
X14068334Y-26447904D01*
X13902551Y-26448847D01*
X13713850Y-26449706D01*
X13502766Y-26450480D01*
X13269836Y-26451165D01*
X13015594Y-26451760D01*
X12740576Y-26452264D01*
X12445318Y-26452672D01*
X12130355Y-26452985D01*
X11796223Y-26453200D01*
X11443457Y-26453314D01*
X11217798Y-26453333D01*
X7917333Y-26453333D01*
X7872000Y-26408000D01*
X7835104Y-26357751D01*
X7824876Y-26307480D01*
X7841314Y-26257211D01*
X7872000Y-26218666D01*
X7917333Y-26173333D01*
X11132000Y-26173333D01*
X11422878Y-26173320D01*
X11706695Y-26173279D01*
X11982302Y-26173214D01*
X12248546Y-26173125D01*
X12504278Y-26173012D01*
X12748347Y-26172878D01*
X12979602Y-26172724D01*
X13196894Y-26172550D01*
X13399070Y-26172358D01*
X13584981Y-26172149D01*
X13753475Y-26171925D01*
X13903404Y-26171685D01*
X14033615Y-26171433D01*
X14142958Y-26171168D01*
X14230283Y-26170893D01*
X14294439Y-26170607D01*
X14334276Y-26170313D01*
X14348642Y-26170012D01*
X14348671Y-26170000D01*
X14348880Y-26156557D01*
X14349149Y-26117565D01*
X14349474Y-26054144D01*
X14349852Y-25967410D01*
X14350279Y-25858483D01*
X14350753Y-25728480D01*
X14351269Y-25578520D01*
X14351823Y-25409721D01*
X14352414Y-25223201D01*
X14353037Y-25020078D01*
X14353688Y-24801471D01*
X14354365Y-24568498D01*
X14355063Y-24322277D01*
X14355780Y-24063926D01*
X14356511Y-23794563D01*
X14357254Y-23515307D01*
X14358005Y-23227277D01*
X14358761Y-22931589D01*
X14359192Y-22760000D01*
X14359985Y-22460169D01*
X14360843Y-22167213D01*
X14361761Y-21882259D01*
X14362731Y-21606435D01*
X14363748Y-21340868D01*
X14364805Y-21086685D01*
X14365896Y-20845013D01*
X14367013Y-20616980D01*
X14368152Y-20403713D01*
X14369305Y-20206338D01*
X14370465Y-20025984D01*
X14371627Y-19863777D01*
X14372783Y-19720845D01*
X14373928Y-19598315D01*
X14375056Y-19497314D01*
X14376158Y-19418969D01*
X14377230Y-19364407D01*
X14378264Y-19334757D01*
X14378822Y-19329458D01*
X14388680Y-19317448D01*
X14415609Y-19286546D01*
X14458804Y-19237650D01*
X14517459Y-19171656D01*
X14590770Y-19089461D01*
X14677931Y-18991962D01*
X14778138Y-18880055D01*
X14890586Y-18754638D01*
X15014469Y-18616607D01*
X15148983Y-18466858D01*
X15293322Y-18306289D01*
X15446682Y-18135797D01*
X15608258Y-17956278D01*
X15777244Y-17768629D01*
X15952836Y-17573747D01*
X16134228Y-17372528D01*
X16320616Y-17165870D01*
X16394148Y-17084369D01*
X18398360Y-14863155D01*
X18304451Y-14754911D01*
X18156748Y-14564895D01*
X18030374Y-14360762D01*
X17926488Y-14145091D01*
X17846253Y-13920464D01*
X17790829Y-13689460D01*
X17772905Y-13573333D01*
X17765503Y-13516682D01*
X17758827Y-13469280D01*
X17753856Y-13437904D01*
X17752221Y-13430000D01*
X17747161Y-13428520D01*
X17732394Y-13427124D01*
X17707248Y-13425812D01*
X17671048Y-13424579D01*
X17623121Y-13423424D01*
X17562795Y-13422346D01*
X17489396Y-13421341D01*
X17402250Y-13420407D01*
X17300685Y-13419543D01*
X17184027Y-13418746D01*
X17051603Y-13418013D01*
X16902739Y-13417344D01*
X16736762Y-13416735D01*
X16552999Y-13416185D01*
X16350777Y-13415690D01*
X16129422Y-13415250D01*
X15888261Y-13414861D01*
X15626621Y-13414522D01*
X15343829Y-13414231D01*
X15039210Y-13413985D01*
X14712093Y-13413781D01*
X14361803Y-13413619D01*
X13987668Y-13413495D01*
X13589013Y-13413408D01*
X13165167Y-13413355D01*
X12715455Y-13413334D01*
X12627085Y-13413333D01*
X7506666Y-13413333D01*
X7506666Y-13133333D01*
X17760000Y-13133333D01*
X17760232Y-13090000D01*
X17763510Y-13043521D01*
X17772149Y-12978336D01*
X17784920Y-12901579D01*
X17800593Y-12820384D01*
X17817938Y-12741883D01*
X17825675Y-12710454D01*
X17896769Y-12484827D01*
X17991296Y-12269462D01*
X18107616Y-12065997D01*
X18244084Y-11876071D01*
X18399059Y-11701321D01*
X18570898Y-11543387D01*
X18757957Y-11403906D01*
X18958595Y-11284518D01*
X19171168Y-11186861D01*
X19394034Y-11112573D01*
X19439636Y-11100679D01*
X19545983Y-11075604D01*
X19638492Y-11057505D01*
X19725810Y-11045358D01*
X19816581Y-11038138D01*
X19919454Y-11034820D01*
X20000000Y-11034271D01*
X20117997Y-11035633D01*
X20117997Y-11035633D01*
G37*
X20117997Y-11035633D02*
X20217957Y-11040357D01*
X20308400Y-11049403D01*
X20397848Y-11063731D01*
X20494822Y-11084300D01*
X20540000Y-11095069D01*
X20767523Y-11164075D01*
X20984765Y-11256669D01*
X21190118Y-11371260D01*
X21381972Y-11506258D01*
X21558720Y-11660076D01*
X21718754Y-11831122D01*
X21860466Y-12017809D01*
X21982248Y-12218546D01*
X22082492Y-12431744D01*
X22159591Y-12655814D01*
X22174324Y-12710454D01*
X22192011Y-12785566D01*
X22208561Y-12866468D01*
X22222743Y-12946027D01*
X22233326Y-13017110D01*
X22239082Y-13072583D01*
X22239767Y-13090000D01*
X22240000Y-13133333D01*
X32493333Y-13133333D01*
X32493333Y-13413333D01*
X25533333Y-13413333D01*
X25533333Y-16035093D01*
X25610000Y-16066260D01*
X25679687Y-16096187D01*
X25766795Y-16136049D01*
X25865385Y-16182921D01*
X25969517Y-16233879D01*
X26073251Y-16285996D01*
X26170648Y-16336349D01*
X26255767Y-16382012D01*
X26290122Y-16401180D01*
X26496836Y-16524487D01*
X26711842Y-16663899D01*
X26927549Y-16814101D01*
X27136364Y-16969778D01*
X27330694Y-17125617D01*
X27359149Y-17149544D01*
X27432560Y-17214100D01*
X27519170Y-17294183D01*
X27614511Y-17385346D01*
X27714114Y-17483143D01*
X27813510Y-17583125D01*
X27908231Y-17680846D01*
X27993809Y-17771859D01*
X28065776Y-17851715D01*
X28072992Y-17860000D01*
X28337814Y-18185291D01*
X28581435Y-18525665D01*
X28803240Y-18879744D01*
X29002612Y-19246152D01*
X29178935Y-19623512D01*
X29331594Y-20010448D01*
X29459972Y-20405582D01*
X29563452Y-20807539D01*
X29641419Y-21214941D01*
X29672277Y-21433333D01*
X29706998Y-21797540D01*
X29722621Y-22170800D01*
X29719147Y-22545496D01*
X29696575Y-22914011D01*
X29672494Y-23140000D01*
X29607232Y-23554579D01*
X29516423Y-23962833D01*
X29400679Y-24363610D01*
X29260613Y-24755754D01*
X29096838Y-25138114D01*
X28909967Y-25509534D01*
X28700612Y-25868862D01*
X28469387Y-26214943D01*
X28216904Y-26546625D01*
X27943777Y-26862753D01*
X27650618Y-27162174D01*
X27426592Y-27367546D01*
X27100223Y-27636045D01*
X26759518Y-27882805D01*
X26405663Y-28107284D01*
X26039845Y-28308937D01*
X25663250Y-28487222D01*
X25277064Y-28641594D01*
X24882475Y-28771511D01*
X24480667Y-28876428D01*
X24072828Y-28955803D01*
X23905172Y-28980699D01*
X23738809Y-29000047D01*
X23555601Y-29015815D01*
X23361760Y-29027812D01*
X23163496Y-29035847D01*
X22967019Y-29039727D01*
X22778539Y-29039260D01*
X22604268Y-29034256D01*
X22460000Y-29025328D01*
X22030206Y-28976923D01*
X21609227Y-28903458D01*
X21197417Y-28805069D01*
X20795128Y-28681887D01*
X20402714Y-28534047D01*
X20020526Y-28361682D01*
X19648918Y-28164926D01*
X19288243Y-27943911D01*
X18938854Y-27698771D01*
X18926574Y-27689560D01*
X18597741Y-27425886D01*
X18287219Y-27143405D01*
X17995708Y-26843195D01*
X17723909Y-26526334D01*
X17472520Y-26193897D01*
X17242244Y-25846964D01*
X17033780Y-25486610D01*
X16847830Y-25113913D01*
X16685092Y-24729950D01*
X16546268Y-24335798D01*
X16432057Y-23932535D01*
X16401948Y-23806667D01*
X16321440Y-23396632D01*
X16266585Y-22983430D01*
X16237179Y-22568516D01*
X16233022Y-22153344D01*
X16253912Y-21739371D01*
X16299647Y-21328052D01*
X16370025Y-20920843D01*
X16464844Y-20519199D01*
X16583904Y-20124576D01*
X16727002Y-19738429D01*
X16893936Y-19362214D01*
X17063226Y-19035411D01*
X17281437Y-18668978D01*
X17518894Y-18320360D01*
X17774643Y-17990012D01*
X18047732Y-17678389D01*
X18337206Y-17385946D01*
X18642111Y-17113138D01*
X18961494Y-16860419D01*
X19294402Y-16628246D01*
X19639880Y-16417073D01*
X19996974Y-16227355D01*
X20364732Y-16059546D01*
X20742200Y-15914103D01*
X21128423Y-15791479D01*
X21522448Y-15692130D01*
X21923322Y-15616511D01*
X22330090Y-15565077D01*
X22741800Y-15538283D01*
X23157497Y-15536583D01*
X23576227Y-15560433D01*
X23997038Y-15610288D01*
X24180000Y-15640119D01*
X24309101Y-15665215D01*
X24454875Y-15697428D01*
X24608966Y-15734662D01*
X24763021Y-15774826D01*
X24908686Y-15815825D01*
X25030531Y-15853266D01*
X25100383Y-15875724D01*
X25161155Y-15894959D01*
X25208408Y-15909592D01*
X25237701Y-15918240D01*
X25245053Y-15920000D01*
X25246230Y-15906974D01*
X25247287Y-15869125D01*
X25248217Y-15808297D01*
X25249012Y-15726333D01*
X25249665Y-15625078D01*
X25250169Y-15506374D01*
X25250516Y-15372065D01*
X25250698Y-15223994D01*
X25250709Y-15064006D01*
X25250541Y-14893944D01*
X25250187Y-14715652D01*
X25250068Y-14670000D01*
X25246666Y-13420000D01*
X23749603Y-13416609D01*
X23509403Y-13416119D01*
X23294626Y-13415803D01*
X23104029Y-13415673D01*
X22936370Y-13415739D01*
X22790406Y-13416013D01*
X22664895Y-13416505D01*
X22558592Y-13417227D01*
X22470256Y-13418190D01*
X22398644Y-13419405D01*
X22342513Y-13420882D01*
X22300620Y-13422633D01*
X22271722Y-13424669D01*
X22254576Y-13427000D01*
X22247940Y-13429639D01*
X22247800Y-13429942D01*
X22244149Y-13449841D01*
X22238267Y-13489431D01*
X22231132Y-13541932D01*
X22227094Y-13573333D01*
X22184427Y-13807749D01*
X22117373Y-14033754D01*
X22027317Y-14249794D01*
X21915642Y-14454313D01*
X21783734Y-14645755D01*
X21632975Y-14822565D01*
X21464750Y-14983189D01*
X21280443Y-15126069D01*
X21081439Y-15249652D01*
X20869120Y-15352382D01*
X20644872Y-15432703D01*
X20549106Y-15458971D01*
X20430854Y-15486160D01*
X20322950Y-15505077D01*
X20215592Y-15516880D01*
X20098979Y-15522729D01*
X20000000Y-15523906D01*
X19870082Y-15521748D01*
X19756739Y-15514501D01*
X19650169Y-15501006D01*
X19540571Y-15480104D01*
X19450893Y-15458971D01*
X19224592Y-15389824D01*
X19010260Y-15298164D01*
X18804089Y-15182284D01*
X18738370Y-15139234D01*
X18609050Y-15051555D01*
X18579730Y-15082444D01*
X18568093Y-15095199D01*
X18539440Y-15126841D01*
X18494603Y-15176446D01*
X18434417Y-15243089D01*
X18359715Y-15325847D01*
X18271330Y-15423795D01*
X18170096Y-15536008D01*
X18056846Y-15661564D01*
X17932414Y-15799537D01*
X17797633Y-15949004D01*
X17653338Y-16109040D01*
X17500360Y-16278721D01*
X17339535Y-16457123D01*
X17171695Y-16643321D01*
X16997674Y-16836391D01*
X16818305Y-17035410D01*
X16639937Y-17233333D01*
X16456009Y-17437424D01*
X16276528Y-17636565D01*
X16102334Y-17829825D01*
X15934266Y-18016271D01*
X15773164Y-18194974D01*
X15619869Y-18365001D01*
X15475219Y-18525422D01*
X15340055Y-18675306D01*
X15215217Y-18813722D01*
X15101544Y-18939737D01*
X14999876Y-19052422D01*
X14911054Y-19150845D01*
X14835916Y-19234074D01*
X14775303Y-19301179D01*
X14730054Y-19351228D01*
X14701010Y-19383291D01*
X14689154Y-19396283D01*
X14648845Y-19439233D01*
X14641089Y-22896878D01*
X14640278Y-23256115D01*
X14639508Y-23589649D01*
X14638771Y-23898443D01*
X14638059Y-24183461D01*
X14637362Y-24445666D01*
X14636673Y-24686023D01*
X14635981Y-24905494D01*
X14635278Y-25105042D01*
X14634557Y-25285632D01*
X14633806Y-25448227D01*
X14633019Y-25593790D01*
X14632186Y-25723285D01*
X14631299Y-25837676D01*
X14630348Y-25937925D01*
X14629325Y-26024997D01*
X14628221Y-26099854D01*
X14627028Y-26163461D01*
X14625736Y-26216781D01*
X14624338Y-26260777D01*
X14622823Y-26296413D01*
X14621184Y-26324652D01*
X14619411Y-26346458D01*
X14617496Y-26362795D01*
X14615430Y-26374625D01*
X14613204Y-26382913D01*
X14610810Y-26388621D01*
X14609302Y-26391190D01*
X14581740Y-26421467D01*
X14551768Y-26440595D01*
X14534738Y-26441999D01*
X14491577Y-26443332D01*
X14422821Y-26444590D01*
X14329005Y-26445773D01*
X14210664Y-26446878D01*
X14068334Y-26447904D01*
X13902551Y-26448847D01*
X13713850Y-26449706D01*
X13502766Y-26450480D01*
X13269836Y-26451165D01*
X13015594Y-26451760D01*
X12740576Y-26452264D01*
X12445318Y-26452672D01*
X12130355Y-26452985D01*
X11796223Y-26453200D01*
X11443457Y-26453314D01*
X11217798Y-26453333D01*
X7917333Y-26453333D01*
X7872000Y-26408000D01*
X7835104Y-26357751D01*
X7824876Y-26307480D01*
X7841314Y-26257211D01*
X7872000Y-26218666D01*
X7917333Y-26173333D01*
X11132000Y-26173333D01*
X11422878Y-26173320D01*
X11706695Y-26173279D01*
X11982302Y-26173214D01*
X12248546Y-26173125D01*
X12504278Y-26173012D01*
X12748347Y-26172878D01*
X12979602Y-26172724D01*
X13196894Y-26172550D01*
X13399070Y-26172358D01*
X13584981Y-26172149D01*
X13753475Y-26171925D01*
X13903404Y-26171685D01*
X14033615Y-26171433D01*
X14142958Y-26171168D01*
X14230283Y-26170893D01*
X14294439Y-26170607D01*
X14334276Y-26170313D01*
X14348642Y-26170012D01*
X14348671Y-26170000D01*
X14348880Y-26156557D01*
X14349149Y-26117565D01*
X14349474Y-26054144D01*
X14349852Y-25967410D01*
X14350279Y-25858483D01*
X14350753Y-25728480D01*
X14351269Y-25578520D01*
X14351823Y-25409721D01*
X14352414Y-25223201D01*
X14353037Y-25020078D01*
X14353688Y-24801471D01*
X14354365Y-24568498D01*
X14355063Y-24322277D01*
X14355780Y-24063926D01*
X14356511Y-23794563D01*
X14357254Y-23515307D01*
X14358005Y-23227277D01*
X14358761Y-22931589D01*
X14359192Y-22760000D01*
X14359985Y-22460169D01*
X14360843Y-22167213D01*
X14361761Y-21882259D01*
X14362731Y-21606435D01*
X14363748Y-21340868D01*
X14364805Y-21086685D01*
X14365896Y-20845013D01*
X14367013Y-20616980D01*
X14368152Y-20403713D01*
X14369305Y-20206338D01*
X14370465Y-20025984D01*
X14371627Y-19863777D01*
X14372783Y-19720845D01*
X14373928Y-19598315D01*
X14375056Y-19497314D01*
X14376158Y-19418969D01*
X14377230Y-19364407D01*
X14378264Y-19334757D01*
X14378822Y-19329458D01*
X14388680Y-19317448D01*
X14415609Y-19286546D01*
X14458804Y-19237650D01*
X14517459Y-19171656D01*
X14590770Y-19089461D01*
X14677931Y-18991962D01*
X14778138Y-18880055D01*
X14890586Y-18754638D01*
X15014469Y-18616607D01*
X15148983Y-18466858D01*
X15293322Y-18306289D01*
X15446682Y-18135797D01*
X15608258Y-17956278D01*
X15777244Y-17768629D01*
X15952836Y-17573747D01*
X16134228Y-17372528D01*
X16320616Y-17165870D01*
X16394148Y-17084369D01*
X18398360Y-14863155D01*
X18304451Y-14754911D01*
X18156748Y-14564895D01*
X18030374Y-14360762D01*
X17926488Y-14145091D01*
X17846253Y-13920464D01*
X17790829Y-13689460D01*
X17772905Y-13573333D01*
X17765503Y-13516682D01*
X17758827Y-13469280D01*
X17753856Y-13437904D01*
X17752221Y-13430000D01*
X17747161Y-13428520D01*
X17732394Y-13427124D01*
X17707248Y-13425812D01*
X17671048Y-13424579D01*
X17623121Y-13423424D01*
X17562795Y-13422346D01*
X17489396Y-13421341D01*
X17402250Y-13420407D01*
X17300685Y-13419543D01*
X17184027Y-13418746D01*
X17051603Y-13418013D01*
X16902739Y-13417344D01*
X16736762Y-13416735D01*
X16552999Y-13416185D01*
X16350777Y-13415690D01*
X16129422Y-13415250D01*
X15888261Y-13414861D01*
X15626621Y-13414522D01*
X15343829Y-13414231D01*
X15039210Y-13413985D01*
X14712093Y-13413781D01*
X14361803Y-13413619D01*
X13987668Y-13413495D01*
X13589013Y-13413408D01*
X13165167Y-13413355D01*
X12715455Y-13413334D01*
X12627085Y-13413333D01*
X7506666Y-13413333D01*
X7506666Y-13133333D01*
X17760000Y-13133333D01*
X17760232Y-13090000D01*
X17763510Y-13043521D01*
X17772149Y-12978336D01*
X17784920Y-12901579D01*
X17800593Y-12820384D01*
X17817938Y-12741883D01*
X17825675Y-12710454D01*
X17896769Y-12484827D01*
X17991296Y-12269462D01*
X18107616Y-12065997D01*
X18244084Y-11876071D01*
X18399059Y-11701321D01*
X18570898Y-11543387D01*
X18757957Y-11403906D01*
X18958595Y-11284518D01*
X19171168Y-11186861D01*
X19394034Y-11112573D01*
X19439636Y-11100679D01*
X19545983Y-11075604D01*
X19638492Y-11057505D01*
X19725810Y-11045358D01*
X19816581Y-11038138D01*
X19919454Y-11034820D01*
X20000000Y-11034271D01*
X20117997Y-11035633D01*
G36*
X37260697Y-1360468D02*
X37300104Y-1377688D01*
X37357704Y-1405737D01*
X37555621Y-1508905D01*
X37738477Y-1614040D01*
X37904761Y-1719984D01*
X38052963Y-1825580D01*
X38181572Y-1929671D01*
X38289077Y-2031100D01*
X38373968Y-2128708D01*
X38434735Y-2221340D01*
X38442855Y-2237113D01*
X38480703Y-2338228D01*
X38494372Y-2436951D01*
X38483715Y-2530363D01*
X38460718Y-2593058D01*
X38406586Y-2673964D01*
X38326998Y-2747712D01*
X38222218Y-2814186D01*
X38092508Y-2873273D01*
X37938133Y-2924856D01*
X37759355Y-2968820D01*
X37556440Y-3005051D01*
X37497909Y-3013444D01*
X37375819Y-3030114D01*
X37368295Y-3191724D01*
X37366196Y-3242186D01*
X37363508Y-3315182D01*
X37360368Y-3406585D01*
X37356909Y-3512273D01*
X37353267Y-3628120D01*
X37349576Y-3750002D01*
X37345972Y-3873794D01*
X37345795Y-3880000D01*
X37341669Y-4013416D01*
X37337344Y-4131512D01*
X37332925Y-4232331D01*
X37328514Y-4313915D01*
X37324215Y-4374306D01*
X37320132Y-4411548D01*
X37317110Y-4423333D01*
X37292723Y-4437169D01*
X37281700Y-4438027D01*
X37263216Y-4431596D01*
X37225272Y-4414962D01*
X37172124Y-4390111D01*
X37108031Y-4359027D01*
X37045823Y-4328027D01*
X36890782Y-4247819D01*
X36757089Y-4173950D01*
X36640947Y-4103886D01*
X36538558Y-4035091D01*
X36446125Y-3965030D01*
X36359849Y-3891166D01*
X36285370Y-3820380D01*
X36211274Y-3742603D01*
X36157014Y-3674472D01*
X36120053Y-3611127D01*
X36097851Y-3547707D01*
X36087870Y-3479354D01*
X36087068Y-3453114D01*
X36253333Y-3453114D01*
X36264758Y-3509323D01*
X36297787Y-3576100D01*
X36350551Y-3651358D01*
X36421181Y-3733011D01*
X36507807Y-3818975D01*
X36608560Y-3907161D01*
X36721572Y-3995485D01*
X36771939Y-4031906D01*
X36808582Y-4056601D01*
X36858605Y-4088661D01*
X36917754Y-4125537D01*
X36981775Y-4164682D01*
X37046414Y-4203546D01*
X37107417Y-4239582D01*
X37160530Y-4270243D01*
X37201499Y-4292979D01*
X37226069Y-4305243D01*
X37230665Y-4306667D01*
X37234386Y-4293951D01*
X37236436Y-4258175D01*
X37236766Y-4202897D01*
X37235331Y-4131674D01*
X37233625Y-4083333D01*
X37230836Y-4008896D01*
X37227612Y-3914047D01*
X37224146Y-3805032D01*
X37220632Y-3688098D01*
X37217263Y-3569492D01*
X37214431Y-3463234D01*
X37211605Y-3362991D01*
X37208544Y-3271518D01*
X37205397Y-3192177D01*
X37202316Y-3128326D01*
X37199452Y-3083325D01*
X37196955Y-3060534D01*
X37196248Y-3058471D01*
X37179132Y-3056427D01*
X37140631Y-3059523D01*
X37085351Y-3066930D01*
X37017900Y-3077819D01*
X36942882Y-3091363D01*
X36864903Y-3106733D01*
X36788570Y-3123100D01*
X36718489Y-3139638D01*
X36663709Y-3154229D01*
X36534488Y-3196022D01*
X36430908Y-3240002D01*
X36351988Y-3286887D01*
X36296741Y-3337393D01*
X36264185Y-3392236D01*
X36253335Y-3452133D01*
X36253333Y-3453114D01*
X36087068Y-3453114D01*
X36086666Y-3440000D01*
X36092108Y-3358835D01*
X36110912Y-3292617D01*
X36146794Y-3232664D01*
X36201136Y-3172572D01*
X36276673Y-3112459D01*
X36375913Y-3055701D01*
X36495995Y-3003313D01*
X36634059Y-2956309D01*
X36787244Y-2915704D01*
X36952689Y-2882512D01*
X37068611Y-2864973D01*
X37197223Y-2847978D01*
X37197022Y-2827654D01*
X37369127Y-2827654D01*
X37427896Y-2819198D01*
X37464074Y-2813318D01*
X37518909Y-2803591D01*
X37584903Y-2791378D01*
X37653333Y-2778279D01*
X37815612Y-2742242D01*
X37955354Y-2701889D01*
X38071902Y-2657567D01*
X38164599Y-2609625D01*
X38232789Y-2558412D01*
X38275814Y-2504275D01*
X38293019Y-2447563D01*
X38293333Y-2438643D01*
X38288965Y-2392377D01*
X38274092Y-2347545D01*
X38246058Y-2299480D01*
X38202205Y-2243515D01*
X38148433Y-2184037D01*
X38030956Y-2071609D01*
X37890348Y-1958744D01*
X37729988Y-1847899D01*
X37553254Y-1741536D01*
X37501408Y-1712954D01*
X37386666Y-1650914D01*
X37386666Y-2036670D01*
X37386338Y-2148593D01*
X37385415Y-2263567D01*
X37383987Y-2375494D01*
X37382145Y-2478276D01*
X37379980Y-2565817D01*
X37377896Y-2625040D01*
X37369127Y-2827654D01*
X37197022Y-2827654D01*
X37189943Y-2113949D01*
X37188410Y-1954959D01*
X37187252Y-1820516D01*
X37186512Y-1708504D01*
X37186237Y-1616807D01*
X37186468Y-1543307D01*
X37187252Y-1485888D01*
X37188632Y-1442434D01*
X37190652Y-1410826D01*
X37193358Y-1388950D01*
X37196792Y-1374687D01*
X37201000Y-1365921D01*
X37205702Y-1360800D01*
X37218388Y-1353470D01*
X37235089Y-1352877D01*
X37260697Y-1360468D01*
X37260697Y-1360468D01*
G37*
X37260697Y-1360468D02*
X37300104Y-1377688D01*
X37357704Y-1405737D01*
X37555621Y-1508905D01*
X37738477Y-1614040D01*
X37904761Y-1719984D01*
X38052963Y-1825580D01*
X38181572Y-1929671D01*
X38289077Y-2031100D01*
X38373968Y-2128708D01*
X38434735Y-2221340D01*
X38442855Y-2237113D01*
X38480703Y-2338228D01*
X38494372Y-2436951D01*
X38483715Y-2530363D01*
X38460718Y-2593058D01*
X38406586Y-2673964D01*
X38326998Y-2747712D01*
X38222218Y-2814186D01*
X38092508Y-2873273D01*
X37938133Y-2924856D01*
X37759355Y-2968820D01*
X37556440Y-3005051D01*
X37497909Y-3013444D01*
X37375819Y-3030114D01*
X37368295Y-3191724D01*
X37366196Y-3242186D01*
X37363508Y-3315182D01*
X37360368Y-3406585D01*
X37356909Y-3512273D01*
X37353267Y-3628120D01*
X37349576Y-3750002D01*
X37345972Y-3873794D01*
X37345795Y-3880000D01*
X37341669Y-4013416D01*
X37337344Y-4131512D01*
X37332925Y-4232331D01*
X37328514Y-4313915D01*
X37324215Y-4374306D01*
X37320132Y-4411548D01*
X37317110Y-4423333D01*
X37292723Y-4437169D01*
X37281700Y-4438027D01*
X37263216Y-4431596D01*
X37225272Y-4414962D01*
X37172124Y-4390111D01*
X37108031Y-4359027D01*
X37045823Y-4328027D01*
X36890782Y-4247819D01*
X36757089Y-4173950D01*
X36640947Y-4103886D01*
X36538558Y-4035091D01*
X36446125Y-3965030D01*
X36359849Y-3891166D01*
X36285370Y-3820380D01*
X36211274Y-3742603D01*
X36157014Y-3674472D01*
X36120053Y-3611127D01*
X36097851Y-3547707D01*
X36087870Y-3479354D01*
X36087068Y-3453114D01*
X36253333Y-3453114D01*
X36264758Y-3509323D01*
X36297787Y-3576100D01*
X36350551Y-3651358D01*
X36421181Y-3733011D01*
X36507807Y-3818975D01*
X36608560Y-3907161D01*
X36721572Y-3995485D01*
X36771939Y-4031906D01*
X36808582Y-4056601D01*
X36858605Y-4088661D01*
X36917754Y-4125537D01*
X36981775Y-4164682D01*
X37046414Y-4203546D01*
X37107417Y-4239582D01*
X37160530Y-4270243D01*
X37201499Y-4292979D01*
X37226069Y-4305243D01*
X37230665Y-4306667D01*
X37234386Y-4293951D01*
X37236436Y-4258175D01*
X37236766Y-4202897D01*
X37235331Y-4131674D01*
X37233625Y-4083333D01*
X37230836Y-4008896D01*
X37227612Y-3914047D01*
X37224146Y-3805032D01*
X37220632Y-3688098D01*
X37217263Y-3569492D01*
X37214431Y-3463234D01*
X37211605Y-3362991D01*
X37208544Y-3271518D01*
X37205397Y-3192177D01*
X37202316Y-3128326D01*
X37199452Y-3083325D01*
X37196955Y-3060534D01*
X37196248Y-3058471D01*
X37179132Y-3056427D01*
X37140631Y-3059523D01*
X37085351Y-3066930D01*
X37017900Y-3077819D01*
X36942882Y-3091363D01*
X36864903Y-3106733D01*
X36788570Y-3123100D01*
X36718489Y-3139638D01*
X36663709Y-3154229D01*
X36534488Y-3196022D01*
X36430908Y-3240002D01*
X36351988Y-3286887D01*
X36296741Y-3337393D01*
X36264185Y-3392236D01*
X36253335Y-3452133D01*
X36253333Y-3453114D01*
X36087068Y-3453114D01*
X36086666Y-3440000D01*
X36092108Y-3358835D01*
X36110912Y-3292617D01*
X36146794Y-3232664D01*
X36201136Y-3172572D01*
X36276673Y-3112459D01*
X36375913Y-3055701D01*
X36495995Y-3003313D01*
X36634059Y-2956309D01*
X36787244Y-2915704D01*
X36952689Y-2882512D01*
X37068611Y-2864973D01*
X37197223Y-2847978D01*
X37197022Y-2827654D01*
X37369127Y-2827654D01*
X37427896Y-2819198D01*
X37464074Y-2813318D01*
X37518909Y-2803591D01*
X37584903Y-2791378D01*
X37653333Y-2778279D01*
X37815612Y-2742242D01*
X37955354Y-2701889D01*
X38071902Y-2657567D01*
X38164599Y-2609625D01*
X38232789Y-2558412D01*
X38275814Y-2504275D01*
X38293019Y-2447563D01*
X38293333Y-2438643D01*
X38288965Y-2392377D01*
X38274092Y-2347545D01*
X38246058Y-2299480D01*
X38202205Y-2243515D01*
X38148433Y-2184037D01*
X38030956Y-2071609D01*
X37890348Y-1958744D01*
X37729988Y-1847899D01*
X37553254Y-1741536D01*
X37501408Y-1712954D01*
X37386666Y-1650914D01*
X37386666Y-2036670D01*
X37386338Y-2148593D01*
X37385415Y-2263567D01*
X37383987Y-2375494D01*
X37382145Y-2478276D01*
X37379980Y-2565817D01*
X37377896Y-2625040D01*
X37369127Y-2827654D01*
X37197022Y-2827654D01*
X37189943Y-2113949D01*
X37188410Y-1954959D01*
X37187252Y-1820516D01*
X37186512Y-1708504D01*
X37186237Y-1616807D01*
X37186468Y-1543307D01*
X37187252Y-1485888D01*
X37188632Y-1442434D01*
X37190652Y-1410826D01*
X37193358Y-1388950D01*
X37196792Y-1374687D01*
X37201000Y-1365921D01*
X37205702Y-1360800D01*
X37218388Y-1353470D01*
X37235089Y-1352877D01*
X37260697Y-1360468D01*
G36*
X22024190Y-1602905D02*
X22139968Y-1613484D01*
X22200000Y-1623735D01*
X22369545Y-1669326D01*
X22523978Y-1733200D01*
X22668708Y-1817308D01*
X22737347Y-1865635D01*
X22784475Y-1905420D01*
X22812598Y-1939716D01*
X22824221Y-1971572D01*
X22821892Y-2003872D01*
X22800732Y-2044386D01*
X22764732Y-2065226D01*
X22717247Y-2066210D01*
X22661634Y-2047159D01*
X22610632Y-2015197D01*
X22543597Y-1970934D01*
X22460530Y-1925395D01*
X22371366Y-1883367D01*
X22286043Y-1849638D01*
X22233333Y-1833378D01*
X22136549Y-1813513D01*
X22031926Y-1800624D01*
X21929907Y-1795568D01*
X21840935Y-1799200D01*
X21830806Y-1800363D01*
X21692710Y-1830881D01*
X21560966Y-1885964D01*
X21437536Y-1963872D01*
X21324385Y-2062867D01*
X21223474Y-2181210D01*
X21136766Y-2317163D01*
X21066224Y-2468987D01*
X21061209Y-2482111D01*
X21017293Y-2620150D01*
X20989777Y-2760646D01*
X20977392Y-2893333D01*
X20978954Y-3072723D01*
X21002454Y-3246360D01*
X21046649Y-3411833D01*
X21110295Y-3566732D01*
X21192148Y-3708646D01*
X21290965Y-3835163D01*
X21405503Y-3943873D01*
X21534518Y-4032364D01*
X21576485Y-4054925D01*
X21671589Y-4095693D01*
X21768260Y-4121041D01*
X21875584Y-4132959D01*
X21940000Y-4134510D01*
X22082521Y-4127229D01*
X22214881Y-4103783D01*
X22346917Y-4062018D01*
X22430000Y-4027305D01*
X22493333Y-3998752D01*
X22493333Y-3512047D01*
X22493377Y-3378925D01*
X22493774Y-3269738D01*
X22494920Y-3181755D01*
X22497212Y-3112245D01*
X22501046Y-3058476D01*
X22506818Y-3017717D01*
X22514925Y-2987236D01*
X22525764Y-2964303D01*
X22539730Y-2946185D01*
X22557221Y-2930152D01*
X22578632Y-2913472D01*
X22580408Y-2912118D01*
X22640289Y-2882172D01*
X22707563Y-2873913D01*
X22774155Y-2887306D01*
X22820992Y-2913186D01*
X22842917Y-2930616D01*
X22860742Y-2948003D01*
X22874892Y-2968179D01*
X22885791Y-2993973D01*
X22893862Y-3028215D01*
X22899531Y-3073737D01*
X22903219Y-3133367D01*
X22905353Y-3209936D01*
X22906356Y-3306274D01*
X22906651Y-3425212D01*
X22906666Y-3485003D01*
X22906666Y-3930862D01*
X22838836Y-3991847D01*
X22690198Y-4107788D01*
X22527681Y-4201481D01*
X22353476Y-4271958D01*
X22169775Y-4318251D01*
X22066666Y-4332929D01*
X22002173Y-4339428D01*
X21953690Y-4343066D01*
X21911966Y-4343817D01*
X21867755Y-4341656D01*
X21811809Y-4336556D01*
X21769042Y-4332106D01*
X21588457Y-4299973D01*
X21415904Y-4243518D01*
X21253303Y-4164377D01*
X21102572Y-4064186D01*
X20965634Y-3944579D01*
X20844406Y-3807193D01*
X20740809Y-3653663D01*
X20656764Y-3485623D01*
X20604338Y-3340000D01*
X20591568Y-3295967D01*
X20582213Y-3257540D01*
X20575745Y-3219271D01*
X20571637Y-3175713D01*
X20569361Y-3121420D01*
X20568391Y-3050945D01*
X20568197Y-2966667D01*
X20568421Y-2876573D01*
X20569446Y-2807714D01*
X20571805Y-2754663D01*
X20576031Y-2711987D01*
X20582656Y-2674259D01*
X20592212Y-2636049D01*
X20604802Y-2593333D01*
X20674719Y-2407217D01*
X20765552Y-2237327D01*
X20876392Y-2084565D01*
X21006332Y-1949835D01*
X21154462Y-1834037D01*
X21319875Y-1738077D01*
X21501660Y-1662856D01*
X21560000Y-1644246D01*
X21659085Y-1621911D01*
X21775187Y-1607392D01*
X21899742Y-1600966D01*
X22024190Y-1602905D01*
X22024190Y-1602905D01*
G37*
X22024190Y-1602905D02*
X22139968Y-1613484D01*
X22200000Y-1623735D01*
X22369545Y-1669326D01*
X22523978Y-1733200D01*
X22668708Y-1817308D01*
X22737347Y-1865635D01*
X22784475Y-1905420D01*
X22812598Y-1939716D01*
X22824221Y-1971572D01*
X22821892Y-2003872D01*
X22800732Y-2044386D01*
X22764732Y-2065226D01*
X22717247Y-2066210D01*
X22661634Y-2047159D01*
X22610632Y-2015197D01*
X22543597Y-1970934D01*
X22460530Y-1925395D01*
X22371366Y-1883367D01*
X22286043Y-1849638D01*
X22233333Y-1833378D01*
X22136549Y-1813513D01*
X22031926Y-1800624D01*
X21929907Y-1795568D01*
X21840935Y-1799200D01*
X21830806Y-1800363D01*
X21692710Y-1830881D01*
X21560966Y-1885964D01*
X21437536Y-1963872D01*
X21324385Y-2062867D01*
X21223474Y-2181210D01*
X21136766Y-2317163D01*
X21066224Y-2468987D01*
X21061209Y-2482111D01*
X21017293Y-2620150D01*
X20989777Y-2760646D01*
X20977392Y-2893333D01*
X20978954Y-3072723D01*
X21002454Y-3246360D01*
X21046649Y-3411833D01*
X21110295Y-3566732D01*
X21192148Y-3708646D01*
X21290965Y-3835163D01*
X21405503Y-3943873D01*
X21534518Y-4032364D01*
X21576485Y-4054925D01*
X21671589Y-4095693D01*
X21768260Y-4121041D01*
X21875584Y-4132959D01*
X21940000Y-4134510D01*
X22082521Y-4127229D01*
X22214881Y-4103783D01*
X22346917Y-4062018D01*
X22430000Y-4027305D01*
X22493333Y-3998752D01*
X22493333Y-3512047D01*
X22493377Y-3378925D01*
X22493774Y-3269738D01*
X22494920Y-3181755D01*
X22497212Y-3112245D01*
X22501046Y-3058476D01*
X22506818Y-3017717D01*
X22514925Y-2987236D01*
X22525764Y-2964303D01*
X22539730Y-2946185D01*
X22557221Y-2930152D01*
X22578632Y-2913472D01*
X22580408Y-2912118D01*
X22640289Y-2882172D01*
X22707563Y-2873913D01*
X22774155Y-2887306D01*
X22820992Y-2913186D01*
X22842917Y-2930616D01*
X22860742Y-2948003D01*
X22874892Y-2968179D01*
X22885791Y-2993973D01*
X22893862Y-3028215D01*
X22899531Y-3073737D01*
X22903219Y-3133367D01*
X22905353Y-3209936D01*
X22906356Y-3306274D01*
X22906651Y-3425212D01*
X22906666Y-3485003D01*
X22906666Y-3930862D01*
X22838836Y-3991847D01*
X22690198Y-4107788D01*
X22527681Y-4201481D01*
X22353476Y-4271958D01*
X22169775Y-4318251D01*
X22066666Y-4332929D01*
X22002173Y-4339428D01*
X21953690Y-4343066D01*
X21911966Y-4343817D01*
X21867755Y-4341656D01*
X21811809Y-4336556D01*
X21769042Y-4332106D01*
X21588457Y-4299973D01*
X21415904Y-4243518D01*
X21253303Y-4164377D01*
X21102572Y-4064186D01*
X20965634Y-3944579D01*
X20844406Y-3807193D01*
X20740809Y-3653663D01*
X20656764Y-3485623D01*
X20604338Y-3340000D01*
X20591568Y-3295967D01*
X20582213Y-3257540D01*
X20575745Y-3219271D01*
X20571637Y-3175713D01*
X20569361Y-3121420D01*
X20568391Y-3050945D01*
X20568197Y-2966667D01*
X20568421Y-2876573D01*
X20569446Y-2807714D01*
X20571805Y-2754663D01*
X20576031Y-2711987D01*
X20582656Y-2674259D01*
X20592212Y-2636049D01*
X20604802Y-2593333D01*
X20674719Y-2407217D01*
X20765552Y-2237327D01*
X20876392Y-2084565D01*
X21006332Y-1949835D01*
X21154462Y-1834037D01*
X21319875Y-1738077D01*
X21501660Y-1662856D01*
X21560000Y-1644246D01*
X21659085Y-1621911D01*
X21775187Y-1607392D01*
X21899742Y-1600966D01*
X22024190Y-1602905D01*
G36*
X17015982Y-1651537D02*
X17075150Y-1680857D01*
X17122484Y-1729518D01*
X17127867Y-1737923D01*
X17132313Y-1746105D01*
X17136219Y-1756159D01*
X17139627Y-1769793D01*
X17142578Y-1788713D01*
X17145112Y-1814628D01*
X17147272Y-1849245D01*
X17149099Y-1894270D01*
X17150634Y-1951412D01*
X17151918Y-2022377D01*
X17152992Y-2108873D01*
X17153898Y-2212607D01*
X17154678Y-2335287D01*
X17155372Y-2478620D01*
X17156021Y-2644312D01*
X17156668Y-2834073D01*
X17157018Y-2943333D01*
X17160704Y-4106667D01*
X18238487Y-4106667D01*
X18259243Y-4136300D01*
X18277614Y-4181771D01*
X18275078Y-4228909D01*
X18253333Y-4266667D01*
X18246593Y-4272670D01*
X18237908Y-4277699D01*
X18225020Y-4281838D01*
X18205669Y-4285174D01*
X18177596Y-4287793D01*
X18138541Y-4289783D01*
X18086247Y-4291229D01*
X18018454Y-4292218D01*
X17932902Y-4292837D01*
X17827333Y-4293171D01*
X17699488Y-4293308D01*
X17556428Y-4293333D01*
X16886190Y-4293333D01*
X16839564Y-4261650D01*
X16824986Y-4252226D01*
X16812145Y-4243891D01*
X16800931Y-4234991D01*
X16791234Y-4223869D01*
X16782945Y-4208869D01*
X16775955Y-4188335D01*
X16770152Y-4160612D01*
X16765427Y-4124044D01*
X16761671Y-4076975D01*
X16758774Y-4017749D01*
X16756625Y-3944709D01*
X16755116Y-3856201D01*
X16754136Y-3750568D01*
X16753575Y-3626155D01*
X16753324Y-3481305D01*
X16753272Y-3314363D01*
X16753311Y-3123673D01*
X16753333Y-2961312D01*
X16753352Y-2755362D01*
X16753432Y-2574405D01*
X16753606Y-2416766D01*
X16753909Y-2280772D01*
X16754372Y-2164749D01*
X16755031Y-2067023D01*
X16755919Y-1985919D01*
X16757070Y-1919764D01*
X16758516Y-1866883D01*
X16760292Y-1825604D01*
X16762431Y-1794251D01*
X16764966Y-1771151D01*
X16767933Y-1754629D01*
X16771363Y-1743013D01*
X16775291Y-1734627D01*
X16778046Y-1730235D01*
X16826012Y-1680906D01*
X16885559Y-1651433D01*
X16950834Y-1641686D01*
X17015982Y-1651537D01*
X17015982Y-1651537D01*
G37*
X17015982Y-1651537D02*
X17075150Y-1680857D01*
X17122484Y-1729518D01*
X17127867Y-1737923D01*
X17132313Y-1746105D01*
X17136219Y-1756159D01*
X17139627Y-1769793D01*
X17142578Y-1788713D01*
X17145112Y-1814628D01*
X17147272Y-1849245D01*
X17149099Y-1894270D01*
X17150634Y-1951412D01*
X17151918Y-2022377D01*
X17152992Y-2108873D01*
X17153898Y-2212607D01*
X17154678Y-2335287D01*
X17155372Y-2478620D01*
X17156021Y-2644312D01*
X17156668Y-2834073D01*
X17157018Y-2943333D01*
X17160704Y-4106667D01*
X18238487Y-4106667D01*
X18259243Y-4136300D01*
X18277614Y-4181771D01*
X18275078Y-4228909D01*
X18253333Y-4266667D01*
X18246593Y-4272670D01*
X18237908Y-4277699D01*
X18225020Y-4281838D01*
X18205669Y-4285174D01*
X18177596Y-4287793D01*
X18138541Y-4289783D01*
X18086247Y-4291229D01*
X18018454Y-4292218D01*
X17932902Y-4292837D01*
X17827333Y-4293171D01*
X17699488Y-4293308D01*
X17556428Y-4293333D01*
X16886190Y-4293333D01*
X16839564Y-4261650D01*
X16824986Y-4252226D01*
X16812145Y-4243891D01*
X16800931Y-4234991D01*
X16791234Y-4223869D01*
X16782945Y-4208869D01*
X16775955Y-4188335D01*
X16770152Y-4160612D01*
X16765427Y-4124044D01*
X16761671Y-4076975D01*
X16758774Y-4017749D01*
X16756625Y-3944709D01*
X16755116Y-3856201D01*
X16754136Y-3750568D01*
X16753575Y-3626155D01*
X16753324Y-3481305D01*
X16753272Y-3314363D01*
X16753311Y-3123673D01*
X16753333Y-2961312D01*
X16753352Y-2755362D01*
X16753432Y-2574405D01*
X16753606Y-2416766D01*
X16753909Y-2280772D01*
X16754372Y-2164749D01*
X16755031Y-2067023D01*
X16755919Y-1985919D01*
X16757070Y-1919764D01*
X16758516Y-1866883D01*
X16760292Y-1825604D01*
X16762431Y-1794251D01*
X16764966Y-1771151D01*
X16767933Y-1754629D01*
X16771363Y-1743013D01*
X16775291Y-1734627D01*
X16778046Y-1730235D01*
X16826012Y-1680906D01*
X16885559Y-1651433D01*
X16950834Y-1641686D01*
X17015982Y-1651537D01*
G36*
X19247626Y-1640114D02*
X19351941Y-1640555D01*
X19435978Y-1641466D01*
X19502932Y-1642994D01*
X19555996Y-1645282D01*
X19598365Y-1648477D01*
X19633233Y-1652724D01*
X19663793Y-1658167D01*
X19693240Y-1664951D01*
X19698540Y-1666293D01*
X19826353Y-1708860D01*
X19940945Y-1769129D01*
X20048456Y-1850665D01*
X20100624Y-1899672D01*
X20155961Y-1957368D01*
X20197350Y-2007954D01*
X20231677Y-2060959D01*
X20265828Y-2125916D01*
X20269448Y-2133333D01*
X20310693Y-2224016D01*
X20338702Y-2302376D01*
X20355625Y-2377872D01*
X20363611Y-2459962D01*
X20364869Y-2553333D01*
X20351538Y-2707734D01*
X20314862Y-2849875D01*
X20254123Y-2981450D01*
X20168601Y-3104157D01*
X20099552Y-3179795D01*
X20004050Y-3265041D01*
X19905605Y-3330825D01*
X19794339Y-3383437D01*
X19757794Y-3397298D01*
X19728066Y-3407770D01*
X19701035Y-3415996D01*
X19672963Y-3422297D01*
X19640114Y-3426993D01*
X19598750Y-3430407D01*
X19545134Y-3432860D01*
X19475530Y-3434674D01*
X19386200Y-3436170D01*
X19291117Y-3437442D01*
X18922235Y-3442176D01*
X18913333Y-4155456D01*
X18875977Y-4204408D01*
X18821817Y-4256966D01*
X18759177Y-4287235D01*
X18692706Y-4294270D01*
X18627053Y-4277128D01*
X18598334Y-4260814D01*
X18582795Y-4250680D01*
X18569115Y-4241600D01*
X18557174Y-4231905D01*
X18546855Y-4219929D01*
X18538040Y-4204004D01*
X18530611Y-4182463D01*
X18524450Y-4153637D01*
X18519440Y-4115860D01*
X18515462Y-4067464D01*
X18512398Y-4006781D01*
X18510131Y-3932144D01*
X18508542Y-3841886D01*
X18507514Y-3734338D01*
X18506929Y-3607834D01*
X18506669Y-3460706D01*
X18506615Y-3291287D01*
X18506624Y-3240000D01*
X18920000Y-3240000D01*
X19236666Y-3239707D01*
X19338748Y-3239419D01*
X19417919Y-3238596D01*
X19477935Y-3236978D01*
X19522550Y-3234307D01*
X19555519Y-3230325D01*
X19580597Y-3224772D01*
X19601539Y-3217391D01*
X19609204Y-3214049D01*
X19698066Y-3159568D01*
X19775590Y-3083967D01*
X19840787Y-2990699D01*
X19892670Y-2883221D01*
X19930253Y-2764985D01*
X19952547Y-2639448D01*
X19958567Y-2510063D01*
X19947325Y-2380285D01*
X19917834Y-2253568D01*
X19898951Y-2200000D01*
X19849961Y-2100791D01*
X19785755Y-2009430D01*
X19711316Y-1931811D01*
X19631625Y-1873827D01*
X19616173Y-1865450D01*
X19595162Y-1855270D01*
X19574482Y-1847434D01*
X19550307Y-1841574D01*
X19518813Y-1837321D01*
X19476174Y-1834309D01*
X19418565Y-1832169D01*
X19342161Y-1830532D01*
X19243138Y-1829032D01*
X19236666Y-1828942D01*
X18920000Y-1824551D01*
X18920000Y-3240000D01*
X18506624Y-3240000D01*
X18506651Y-3097908D01*
X18506666Y-2964443D01*
X18506687Y-2760504D01*
X18506773Y-2581525D01*
X18506958Y-2425801D01*
X18507277Y-2291627D01*
X18507765Y-2177295D01*
X18508456Y-2081100D01*
X18509385Y-2001336D01*
X18510587Y-1936298D01*
X18512095Y-1884279D01*
X18513944Y-1843573D01*
X18516170Y-1812475D01*
X18518806Y-1789279D01*
X18521888Y-1772278D01*
X18525450Y-1759767D01*
X18529525Y-1750040D01*
X18531354Y-1746458D01*
X18560075Y-1706660D01*
X18596783Y-1672266D01*
X18599993Y-1670000D01*
X18612100Y-1662112D01*
X18624806Y-1655745D01*
X18640928Y-1650734D01*
X18663285Y-1646918D01*
X18694695Y-1644134D01*
X18737976Y-1642220D01*
X18795947Y-1641012D01*
X18871425Y-1640348D01*
X18967230Y-1640065D01*
X19086178Y-1640001D01*
X19119838Y-1640000D01*
X19247626Y-1640114D01*
X19247626Y-1640114D01*
G37*
X19247626Y-1640114D02*
X19351941Y-1640555D01*
X19435978Y-1641466D01*
X19502932Y-1642994D01*
X19555996Y-1645282D01*
X19598365Y-1648477D01*
X19633233Y-1652724D01*
X19663793Y-1658167D01*
X19693240Y-1664951D01*
X19698540Y-1666293D01*
X19826353Y-1708860D01*
X19940945Y-1769129D01*
X20048456Y-1850665D01*
X20100624Y-1899672D01*
X20155961Y-1957368D01*
X20197350Y-2007954D01*
X20231677Y-2060959D01*
X20265828Y-2125916D01*
X20269448Y-2133333D01*
X20310693Y-2224016D01*
X20338702Y-2302376D01*
X20355625Y-2377872D01*
X20363611Y-2459962D01*
X20364869Y-2553333D01*
X20351538Y-2707734D01*
X20314862Y-2849875D01*
X20254123Y-2981450D01*
X20168601Y-3104157D01*
X20099552Y-3179795D01*
X20004050Y-3265041D01*
X19905605Y-3330825D01*
X19794339Y-3383437D01*
X19757794Y-3397298D01*
X19728066Y-3407770D01*
X19701035Y-3415996D01*
X19672963Y-3422297D01*
X19640114Y-3426993D01*
X19598750Y-3430407D01*
X19545134Y-3432860D01*
X19475530Y-3434674D01*
X19386200Y-3436170D01*
X19291117Y-3437442D01*
X18922235Y-3442176D01*
X18913333Y-4155456D01*
X18875977Y-4204408D01*
X18821817Y-4256966D01*
X18759177Y-4287235D01*
X18692706Y-4294270D01*
X18627053Y-4277128D01*
X18598334Y-4260814D01*
X18582795Y-4250680D01*
X18569115Y-4241600D01*
X18557174Y-4231905D01*
X18546855Y-4219929D01*
X18538040Y-4204004D01*
X18530611Y-4182463D01*
X18524450Y-4153637D01*
X18519440Y-4115860D01*
X18515462Y-4067464D01*
X18512398Y-4006781D01*
X18510131Y-3932144D01*
X18508542Y-3841886D01*
X18507514Y-3734338D01*
X18506929Y-3607834D01*
X18506669Y-3460706D01*
X18506615Y-3291287D01*
X18506624Y-3240000D01*
X18920000Y-3240000D01*
X19236666Y-3239707D01*
X19338748Y-3239419D01*
X19417919Y-3238596D01*
X19477935Y-3236978D01*
X19522550Y-3234307D01*
X19555519Y-3230325D01*
X19580597Y-3224772D01*
X19601539Y-3217391D01*
X19609204Y-3214049D01*
X19698066Y-3159568D01*
X19775590Y-3083967D01*
X19840787Y-2990699D01*
X19892670Y-2883221D01*
X19930253Y-2764985D01*
X19952547Y-2639448D01*
X19958567Y-2510063D01*
X19947325Y-2380285D01*
X19917834Y-2253568D01*
X19898951Y-2200000D01*
X19849961Y-2100791D01*
X19785755Y-2009430D01*
X19711316Y-1931811D01*
X19631625Y-1873827D01*
X19616173Y-1865450D01*
X19595162Y-1855270D01*
X19574482Y-1847434D01*
X19550307Y-1841574D01*
X19518813Y-1837321D01*
X19476174Y-1834309D01*
X19418565Y-1832169D01*
X19342161Y-1830532D01*
X19243138Y-1829032D01*
X19236666Y-1828942D01*
X18920000Y-1824551D01*
X18920000Y-3240000D01*
X18506624Y-3240000D01*
X18506651Y-3097908D01*
X18506666Y-2964443D01*
X18506687Y-2760504D01*
X18506773Y-2581525D01*
X18506958Y-2425801D01*
X18507277Y-2291627D01*
X18507765Y-2177295D01*
X18508456Y-2081100D01*
X18509385Y-2001336D01*
X18510587Y-1936298D01*
X18512095Y-1884279D01*
X18513944Y-1843573D01*
X18516170Y-1812475D01*
X18518806Y-1789279D01*
X18521888Y-1772278D01*
X18525450Y-1759767D01*
X18529525Y-1750040D01*
X18531354Y-1746458D01*
X18560075Y-1706660D01*
X18596783Y-1672266D01*
X18599993Y-1670000D01*
X18612100Y-1662112D01*
X18624806Y-1655745D01*
X18640928Y-1650734D01*
X18663285Y-1646918D01*
X18694695Y-1644134D01*
X18737976Y-1642220D01*
X18795947Y-1641012D01*
X18871425Y-1640348D01*
X18967230Y-1640065D01*
X19086178Y-1640001D01*
X19119838Y-1640000D01*
X19247626Y-1640114D01*
G04 #@! TD*
D11*
G04 #@! TO.C,MH2*
G36*
X9325439Y-34311074D02*
X9548708Y-34344193D01*
X9767655Y-34399036D01*
X9980172Y-34475076D01*
X10184212Y-34571580D01*
X10377812Y-34687619D01*
X10559105Y-34822075D01*
X10726346Y-34973653D01*
X10877924Y-35140894D01*
X11012380Y-35322187D01*
X11128419Y-35515787D01*
X11224923Y-35719827D01*
X11300963Y-35932344D01*
X11355806Y-36151291D01*
X11388925Y-36374560D01*
X11400000Y-36599999D01*
X11400000Y-36600001D01*
X11388925Y-36825440D01*
X11355806Y-37048709D01*
X11300963Y-37267656D01*
X11224923Y-37480173D01*
X11128419Y-37684213D01*
X11012380Y-37877813D01*
X10877924Y-38059106D01*
X10726346Y-38226347D01*
X10559105Y-38377925D01*
X10377812Y-38512381D01*
X10184212Y-38628420D01*
X9980172Y-38724924D01*
X9767655Y-38800964D01*
X9548708Y-38855807D01*
X9325439Y-38888926D01*
X9100000Y-38900001D01*
X5900000Y-38900001D01*
X5674561Y-38888926D01*
X5451292Y-38855807D01*
X5232345Y-38800964D01*
X5019828Y-38724924D01*
X4815788Y-38628420D01*
X4622188Y-38512381D01*
X4440895Y-38377925D01*
X4273654Y-38226347D01*
X4122076Y-38059106D01*
X3987620Y-37877813D01*
X3871581Y-37684213D01*
X3775077Y-37480173D01*
X3699037Y-37267656D01*
X3644194Y-37048709D01*
X3611075Y-36825440D01*
X3600000Y-36600001D01*
X3600000Y-36599999D01*
X3611075Y-36374560D01*
X3644194Y-36151291D01*
X3699037Y-35932344D01*
X3775077Y-35719827D01*
X3871581Y-35515787D01*
X3987620Y-35322187D01*
X4122076Y-35140894D01*
X4273654Y-34973653D01*
X4440895Y-34822075D01*
X4622188Y-34687619D01*
X4815788Y-34571580D01*
X5019828Y-34475076D01*
X5232345Y-34399036D01*
X5451292Y-34344193D01*
X5674561Y-34311074D01*
X5900000Y-34299999D01*
X9100000Y-34299999D01*
X9325439Y-34311074D01*
X9325439Y-34311074D01*
G37*
D12*
X7500000Y-36600000D03*
G04 #@! TD*
D11*
G04 #@! TO.C,MH1*
G36*
X9325439Y-711074D02*
X9548708Y-744193D01*
X9767655Y-799036D01*
X9980172Y-875076D01*
X10184212Y-971580D01*
X10377812Y-1087619D01*
X10559105Y-1222075D01*
X10726346Y-1373653D01*
X10877924Y-1540894D01*
X11012380Y-1722187D01*
X11128419Y-1915787D01*
X11224923Y-2119827D01*
X11300963Y-2332344D01*
X11355806Y-2551291D01*
X11388925Y-2774560D01*
X11400000Y-2999999D01*
X11400000Y-3000001D01*
X11388925Y-3225440D01*
X11355806Y-3448709D01*
X11300963Y-3667656D01*
X11224923Y-3880173D01*
X11128419Y-4084213D01*
X11012380Y-4277813D01*
X10877924Y-4459106D01*
X10726346Y-4626347D01*
X10559105Y-4777925D01*
X10377812Y-4912381D01*
X10184212Y-5028420D01*
X9980172Y-5124924D01*
X9767655Y-5200964D01*
X9548708Y-5255807D01*
X9325439Y-5288926D01*
X9100000Y-5300001D01*
X5900000Y-5300001D01*
X5674561Y-5288926D01*
X5451292Y-5255807D01*
X5232345Y-5200964D01*
X5019828Y-5124924D01*
X4815788Y-5028420D01*
X4622188Y-4912381D01*
X4440895Y-4777925D01*
X4273654Y-4626347D01*
X4122076Y-4459106D01*
X3987620Y-4277813D01*
X3871581Y-4084213D01*
X3775077Y-3880173D01*
X3699037Y-3667656D01*
X3644194Y-3448709D01*
X3611075Y-3225440D01*
X3600000Y-3000001D01*
X3600000Y-2999999D01*
X3611075Y-2774560D01*
X3644194Y-2551291D01*
X3699037Y-2332344D01*
X3775077Y-2119827D01*
X3871581Y-1915787D01*
X3987620Y-1722187D01*
X4122076Y-1540894D01*
X4273654Y-1373653D01*
X4440895Y-1222075D01*
X4622188Y-1087619D01*
X4815788Y-971580D01*
X5019828Y-875076D01*
X5232345Y-799036D01*
X5451292Y-744193D01*
X5674561Y-711074D01*
X5900000Y-699999D01*
X9100000Y-699999D01*
X9325439Y-711074D01*
X9325439Y-711074D01*
G37*
D12*
X7500000Y-3000000D03*
G04 #@! TD*
D13*
G04 #@! TO.C,MH7*
X20000000Y-13300000D03*
G04 #@! TD*
D14*
G04 #@! TO.C,MH3*
X7500000Y-13300000D03*
G04 #@! TD*
G04 #@! TO.C,MH4*
X7500000Y-26300000D03*
G04 #@! TD*
G04 #@! TO.C,MH5*
X32500000Y-13300000D03*
G04 #@! TD*
D15*
G04 #@! TO.C,MH6*
X23000000Y-22300000D03*
G04 #@! TD*
M02*
