G04 #@! TF.GenerationSoftware,KiCad,Pcbnew,(5.0.0)*
G04 #@! TF.CreationDate,2018-08-29T20:32:06+02:00*
G04 #@! TF.ProjectId,1u_mult_panel,31755F6D756C745F70616E656C2E6B69,rev?*
G04 #@! TF.SameCoordinates,Original*
G04 #@! TF.FileFunction,Legend,Bot*
G04 #@! TF.FilePolarity,Positive*
%FSLAX46Y46*%
G04 Gerber Fmt 4.6, Leading zero omitted, Abs format (unit mm)*
G04 Created by KiCad (PCBNEW (5.0.0)) date 08/29/18 20:32:06*
%MOMM*%
%LPD*%
G01*
G04 APERTURE LIST*
%ADD10C,0.150000*%
G04 APERTURE END LIST*
D10*
X28428571Y-36127380D02*
X29000000Y-36127380D01*
X28714285Y-36127380D02*
X28714285Y-35127380D01*
X28809523Y-35270238D01*
X28904761Y-35365476D01*
X29000000Y-35413095D01*
X28000000Y-35127380D02*
X28000000Y-35936904D01*
X27952380Y-36032142D01*
X27904761Y-36079761D01*
X27809523Y-36127380D01*
X27619047Y-36127380D01*
X27523809Y-36079761D01*
X27476190Y-36032142D01*
X27428571Y-35936904D01*
X27428571Y-35127380D01*
X26190476Y-36127380D02*
X26190476Y-35460714D01*
X26190476Y-35555952D02*
X26142857Y-35508333D01*
X26047619Y-35460714D01*
X25904761Y-35460714D01*
X25809523Y-35508333D01*
X25761904Y-35603571D01*
X25761904Y-36127380D01*
X25761904Y-35603571D02*
X25714285Y-35508333D01*
X25619047Y-35460714D01*
X25476190Y-35460714D01*
X25380952Y-35508333D01*
X25333333Y-35603571D01*
X25333333Y-36127380D01*
X24428571Y-35460714D02*
X24428571Y-36127380D01*
X24857142Y-35460714D02*
X24857142Y-35984523D01*
X24809523Y-36079761D01*
X24714285Y-36127380D01*
X24571428Y-36127380D01*
X24476190Y-36079761D01*
X24428571Y-36032142D01*
X23809523Y-36127380D02*
X23904761Y-36079761D01*
X23952380Y-35984523D01*
X23952380Y-35127380D01*
X23571428Y-35460714D02*
X23190476Y-35460714D01*
X23428571Y-35127380D02*
X23428571Y-35984523D01*
X23380952Y-36079761D01*
X23285714Y-36127380D01*
X23190476Y-36127380D01*
X22095238Y-35460714D02*
X22095238Y-36460714D01*
X22095238Y-35508333D02*
X22000000Y-35460714D01*
X21809523Y-35460714D01*
X21714285Y-35508333D01*
X21666666Y-35555952D01*
X21619047Y-35651190D01*
X21619047Y-35936904D01*
X21666666Y-36032142D01*
X21714285Y-36079761D01*
X21809523Y-36127380D01*
X22000000Y-36127380D01*
X22095238Y-36079761D01*
X20761904Y-36127380D02*
X20761904Y-35603571D01*
X20809523Y-35508333D01*
X20904761Y-35460714D01*
X21095238Y-35460714D01*
X21190476Y-35508333D01*
X20761904Y-36079761D02*
X20857142Y-36127380D01*
X21095238Y-36127380D01*
X21190476Y-36079761D01*
X21238095Y-35984523D01*
X21238095Y-35889285D01*
X21190476Y-35794047D01*
X21095238Y-35746428D01*
X20857142Y-35746428D01*
X20761904Y-35698809D01*
X20285714Y-35460714D02*
X20285714Y-36127380D01*
X20285714Y-35555952D02*
X20238095Y-35508333D01*
X20142857Y-35460714D01*
X20000000Y-35460714D01*
X19904761Y-35508333D01*
X19857142Y-35603571D01*
X19857142Y-36127380D01*
X19000000Y-36079761D02*
X19095238Y-36127380D01*
X19285714Y-36127380D01*
X19380952Y-36079761D01*
X19428571Y-35984523D01*
X19428571Y-35603571D01*
X19380952Y-35508333D01*
X19285714Y-35460714D01*
X19095238Y-35460714D01*
X19000000Y-35508333D01*
X18952380Y-35603571D01*
X18952380Y-35698809D01*
X19428571Y-35794047D01*
X18380952Y-36127380D02*
X18476190Y-36079761D01*
X18523809Y-35984523D01*
X18523809Y-35127380D01*
X17238095Y-35746428D02*
X16476190Y-35746428D01*
X15238095Y-36127380D02*
X15238095Y-35460714D01*
X15238095Y-35651190D02*
X15190476Y-35555952D01*
X15142857Y-35508333D01*
X15047619Y-35460714D01*
X14952380Y-35460714D01*
X14238095Y-36079761D02*
X14333333Y-36127380D01*
X14523809Y-36127380D01*
X14619047Y-36079761D01*
X14666666Y-35984523D01*
X14666666Y-35603571D01*
X14619047Y-35508333D01*
X14523809Y-35460714D01*
X14333333Y-35460714D01*
X14238095Y-35508333D01*
X14190476Y-35603571D01*
X14190476Y-35698809D01*
X14666666Y-35794047D01*
X13857142Y-35460714D02*
X13619047Y-36127380D01*
X13380952Y-35460714D01*
X13000000Y-36032142D02*
X12952380Y-36079761D01*
X13000000Y-36127380D01*
X13047619Y-36079761D01*
X13000000Y-36032142D01*
X13000000Y-36127380D01*
X12000000Y-36127380D02*
X12571428Y-36127380D01*
X12285714Y-36127380D02*
X12285714Y-35127380D01*
X12380952Y-35270238D01*
X12476190Y-35365476D01*
X12571428Y-35413095D01*
X29095238Y-37777380D02*
X29095238Y-36777380D01*
X29095238Y-37158333D02*
X29000000Y-37110714D01*
X28809523Y-37110714D01*
X28714285Y-37158333D01*
X28666666Y-37205952D01*
X28619047Y-37301190D01*
X28619047Y-37586904D01*
X28666666Y-37682142D01*
X28714285Y-37729761D01*
X28809523Y-37777380D01*
X29000000Y-37777380D01*
X29095238Y-37729761D01*
X28285714Y-37110714D02*
X28047619Y-37777380D01*
X27809523Y-37110714D02*
X28047619Y-37777380D01*
X28142857Y-38015476D01*
X28190476Y-38063095D01*
X28285714Y-38110714D01*
X26095238Y-37682142D02*
X26142857Y-37729761D01*
X26285714Y-37777380D01*
X26380952Y-37777380D01*
X26523809Y-37729761D01*
X26619047Y-37634523D01*
X26666666Y-37539285D01*
X26714285Y-37348809D01*
X26714285Y-37205952D01*
X26666666Y-37015476D01*
X26619047Y-36920238D01*
X26523809Y-36825000D01*
X26380952Y-36777380D01*
X26285714Y-36777380D01*
X26142857Y-36825000D01*
X26095238Y-36872619D01*
X25523809Y-37777380D02*
X25619047Y-37729761D01*
X25666666Y-37682142D01*
X25714285Y-37586904D01*
X25714285Y-37301190D01*
X25666666Y-37205952D01*
X25619047Y-37158333D01*
X25523809Y-37110714D01*
X25380952Y-37110714D01*
X25285714Y-37158333D01*
X25238095Y-37205952D01*
X25190476Y-37301190D01*
X25190476Y-37586904D01*
X25238095Y-37682142D01*
X25285714Y-37729761D01*
X25380952Y-37777380D01*
X25523809Y-37777380D01*
X24761904Y-37777380D02*
X24761904Y-37110714D01*
X24761904Y-37301190D02*
X24714285Y-37205952D01*
X24666666Y-37158333D01*
X24571428Y-37110714D01*
X24476190Y-37110714D01*
X24142857Y-37777380D02*
X24142857Y-37110714D01*
X24142857Y-36777380D02*
X24190476Y-36825000D01*
X24142857Y-36872619D01*
X24095238Y-36825000D01*
X24142857Y-36777380D01*
X24142857Y-36872619D01*
X23523809Y-37777380D02*
X23619047Y-37729761D01*
X23666666Y-37682142D01*
X23714285Y-37586904D01*
X23714285Y-37301190D01*
X23666666Y-37205952D01*
X23619047Y-37158333D01*
X23523809Y-37110714D01*
X23380952Y-37110714D01*
X23285714Y-37158333D01*
X23238095Y-37205952D01*
X23190476Y-37301190D01*
X23190476Y-37586904D01*
X23238095Y-37682142D01*
X23285714Y-37729761D01*
X23380952Y-37777380D01*
X23523809Y-37777380D01*
X22619047Y-37777380D02*
X22714285Y-37729761D01*
X22761904Y-37634523D01*
X22761904Y-36777380D01*
X22238095Y-37777380D02*
X22238095Y-37110714D01*
X22238095Y-36777380D02*
X22285714Y-36825000D01*
X22238095Y-36872619D01*
X22190476Y-36825000D01*
X22238095Y-36777380D01*
X22238095Y-36872619D01*
X21809523Y-37729761D02*
X21714285Y-37777380D01*
X21523809Y-37777380D01*
X21428571Y-37729761D01*
X21380952Y-37634523D01*
X21380952Y-37586904D01*
X21428571Y-37491666D01*
X21523809Y-37444047D01*
X21666666Y-37444047D01*
X21761904Y-37396428D01*
X21809523Y-37301190D01*
X21809523Y-37253571D01*
X21761904Y-37158333D01*
X21666666Y-37110714D01*
X21523809Y-37110714D01*
X21428571Y-37158333D01*
X20190476Y-37777380D02*
X20190476Y-36777380D01*
X19714285Y-37110714D02*
X19714285Y-37777380D01*
X19714285Y-37205952D02*
X19666666Y-37158333D01*
X19571428Y-37110714D01*
X19428571Y-37110714D01*
X19333333Y-37158333D01*
X19285714Y-37253571D01*
X19285714Y-37777380D01*
X18857142Y-37729761D02*
X18761904Y-37777380D01*
X18571428Y-37777380D01*
X18476190Y-37729761D01*
X18428571Y-37634523D01*
X18428571Y-37586904D01*
X18476190Y-37491666D01*
X18571428Y-37444047D01*
X18714285Y-37444047D01*
X18809523Y-37396428D01*
X18857142Y-37301190D01*
X18857142Y-37253571D01*
X18809523Y-37158333D01*
X18714285Y-37110714D01*
X18571428Y-37110714D01*
X18476190Y-37158333D01*
X18142857Y-37110714D02*
X17761904Y-37110714D01*
X18000000Y-36777380D02*
X18000000Y-37634523D01*
X17952380Y-37729761D01*
X17857142Y-37777380D01*
X17761904Y-37777380D01*
X17428571Y-37777380D02*
X17428571Y-37110714D01*
X17428571Y-37301190D02*
X17380952Y-37205952D01*
X17333333Y-37158333D01*
X17238095Y-37110714D01*
X17142857Y-37110714D01*
X16380952Y-37110714D02*
X16380952Y-37777380D01*
X16809523Y-37110714D02*
X16809523Y-37634523D01*
X16761904Y-37729761D01*
X16666666Y-37777380D01*
X16523809Y-37777380D01*
X16428571Y-37729761D01*
X16380952Y-37682142D01*
X15904761Y-37777380D02*
X15904761Y-37110714D01*
X15904761Y-37205952D02*
X15857142Y-37158333D01*
X15761904Y-37110714D01*
X15619047Y-37110714D01*
X15523809Y-37158333D01*
X15476190Y-37253571D01*
X15476190Y-37777380D01*
X15476190Y-37253571D02*
X15428571Y-37158333D01*
X15333333Y-37110714D01*
X15190476Y-37110714D01*
X15095238Y-37158333D01*
X15047619Y-37253571D01*
X15047619Y-37777380D01*
X14190476Y-37729761D02*
X14285714Y-37777380D01*
X14476190Y-37777380D01*
X14571428Y-37729761D01*
X14619047Y-37634523D01*
X14619047Y-37253571D01*
X14571428Y-37158333D01*
X14476190Y-37110714D01*
X14285714Y-37110714D01*
X14190476Y-37158333D01*
X14142857Y-37253571D01*
X14142857Y-37348809D01*
X14619047Y-37444047D01*
X13714285Y-37110714D02*
X13714285Y-37777380D01*
X13714285Y-37205952D02*
X13666666Y-37158333D01*
X13571428Y-37110714D01*
X13428571Y-37110714D01*
X13333333Y-37158333D01*
X13285714Y-37253571D01*
X13285714Y-37777380D01*
X12952380Y-37110714D02*
X12571428Y-37110714D01*
X12809523Y-36777380D02*
X12809523Y-37634523D01*
X12761904Y-37729761D01*
X12666666Y-37777380D01*
X12571428Y-37777380D01*
X12285714Y-37729761D02*
X12190476Y-37777380D01*
X12000000Y-37777380D01*
X11904761Y-37729761D01*
X11857142Y-37634523D01*
X11857142Y-37586904D01*
X11904761Y-37491666D01*
X12000000Y-37444047D01*
X12142857Y-37444047D01*
X12238095Y-37396428D01*
X12285714Y-37301190D01*
X12285714Y-37253571D01*
X12238095Y-37158333D01*
X12142857Y-37110714D01*
X12000000Y-37110714D01*
X11904761Y-37158333D01*
M02*
