G04 #@! TF.GenerationSoftware,KiCad,Pcbnew,(5.0.0)*
G04 #@! TF.CreationDate,2018-08-29T20:32:06+02:00*
G04 #@! TF.ProjectId,1u_mult_panel,31755F6D756C745F70616E656C2E6B69,rev?*
G04 #@! TF.SameCoordinates,Original*
G04 #@! TF.FileFunction,Soldermask,Top*
G04 #@! TF.FilePolarity,Negative*
%FSLAX46Y46*%
G04 Gerber Fmt 4.6, Leading zero omitted, Abs format (unit mm)*
G04 Created by KiCad (PCBNEW (5.0.0)) date 08/29/18 20:32:06*
%MOMM*%
%LPD*%
G01*
G04 APERTURE LIST*
%ADD10C,0.010000*%
%ADD11C,0.100000*%
%ADD12C,4.600000*%
%ADD13C,7.500000*%
G04 APERTURE END LIST*
D10*
G04 #@! TO.C,G\002A\002A\002A*
G36*
X15009030Y-21282979D02*
X15033780Y-21302387D01*
X15073412Y-21333997D01*
X15127189Y-21377205D01*
X15194373Y-21431409D01*
X15274225Y-21496006D01*
X15366009Y-21570392D01*
X15468985Y-21653965D01*
X15582416Y-21746121D01*
X15705565Y-21846258D01*
X15837692Y-21953772D01*
X15978061Y-22068060D01*
X16125933Y-22188520D01*
X16280570Y-22314548D01*
X16441235Y-22445541D01*
X16607189Y-22580896D01*
X16777694Y-22720010D01*
X16952014Y-22862280D01*
X17129408Y-23007103D01*
X17309141Y-23153876D01*
X17490474Y-23301996D01*
X17672668Y-23450860D01*
X17854986Y-23599864D01*
X18036691Y-23748407D01*
X18217043Y-23895884D01*
X18395306Y-24041693D01*
X18570741Y-24185230D01*
X18742610Y-24325893D01*
X18910175Y-24463078D01*
X19072699Y-24596183D01*
X19229444Y-24724605D01*
X19379671Y-24847739D01*
X19522643Y-24964984D01*
X19657621Y-25075737D01*
X19783868Y-25179393D01*
X19900647Y-25275351D01*
X20007218Y-25363007D01*
X20102844Y-25441758D01*
X20186787Y-25511001D01*
X20258309Y-25570133D01*
X20316673Y-25618551D01*
X20361139Y-25655653D01*
X20390971Y-25680833D01*
X20405431Y-25693491D01*
X20406745Y-25694917D01*
X20398829Y-25704137D01*
X20376998Y-25724882D01*
X20343586Y-25755109D01*
X20300924Y-25792775D01*
X20251344Y-25835838D01*
X20197178Y-25882254D01*
X20140759Y-25929981D01*
X20090584Y-25971869D01*
X20028072Y-26023038D01*
X19964266Y-26074085D01*
X19901436Y-26123307D01*
X19841854Y-26168997D01*
X19787793Y-26209452D01*
X19741523Y-26242966D01*
X19705316Y-26267834D01*
X19681445Y-26282351D01*
X19672827Y-26285387D01*
X19663724Y-26278505D01*
X19638908Y-26258735D01*
X19599033Y-26226614D01*
X19544755Y-26182674D01*
X19476727Y-26127451D01*
X19395604Y-26061478D01*
X19302041Y-25985291D01*
X19196693Y-25899423D01*
X19080214Y-25804409D01*
X18953258Y-25700783D01*
X18816481Y-25589080D01*
X18670536Y-25469834D01*
X18516078Y-25343580D01*
X18353763Y-25210851D01*
X18184244Y-25072182D01*
X18008176Y-24928108D01*
X17826214Y-24779163D01*
X17639012Y-24625882D01*
X17447225Y-24468797D01*
X17335530Y-24377292D01*
X17141440Y-24218300D01*
X16951570Y-24062824D01*
X16766575Y-23911398D01*
X16587107Y-23764554D01*
X16413821Y-23622826D01*
X16247371Y-23486748D01*
X16088411Y-23356853D01*
X15937595Y-23233674D01*
X15795576Y-23117744D01*
X15663008Y-23009597D01*
X15540545Y-22909766D01*
X15428842Y-22818785D01*
X15328551Y-22737186D01*
X15240328Y-22665503D01*
X15164825Y-22604270D01*
X15102697Y-22554019D01*
X15054597Y-22515284D01*
X15021180Y-22488599D01*
X15003099Y-22474496D01*
X14999901Y-22472292D01*
X14990939Y-22478915D01*
X14966265Y-22498427D01*
X14926533Y-22530296D01*
X14872397Y-22573988D01*
X14804510Y-22628970D01*
X14723526Y-22694708D01*
X14630100Y-22770670D01*
X14524884Y-22856321D01*
X14408534Y-22951128D01*
X14281703Y-23054559D01*
X14145044Y-23166079D01*
X13999212Y-23285156D01*
X13844860Y-23411255D01*
X13682643Y-23543845D01*
X13513214Y-23682390D01*
X13337228Y-23826359D01*
X13155337Y-23975217D01*
X12968196Y-24128432D01*
X12776459Y-24285469D01*
X12664381Y-24377292D01*
X12470268Y-24536316D01*
X12280365Y-24691844D01*
X12095327Y-24843341D01*
X11915808Y-24990273D01*
X11742463Y-25132105D01*
X11575946Y-25268304D01*
X11416911Y-25398335D01*
X11266015Y-25521663D01*
X11123910Y-25637753D01*
X10991252Y-25746073D01*
X10868695Y-25846086D01*
X10756895Y-25937259D01*
X10656504Y-26019058D01*
X10568179Y-26090947D01*
X10492573Y-26152393D01*
X10430341Y-26202861D01*
X10382138Y-26241817D01*
X10348618Y-26268726D01*
X10330436Y-26283054D01*
X10327184Y-26285387D01*
X10315097Y-26280299D01*
X10289348Y-26264255D01*
X10252964Y-26239313D01*
X10208976Y-26207534D01*
X10173050Y-26180628D01*
X10117424Y-26137735D01*
X10056212Y-26089468D01*
X9991493Y-26037567D01*
X9925346Y-25983774D01*
X9859849Y-25929829D01*
X9797080Y-25877474D01*
X9739119Y-25828449D01*
X9688043Y-25784497D01*
X9645930Y-25747358D01*
X9614860Y-25718774D01*
X9596911Y-25700485D01*
X9593262Y-25694917D01*
X9601290Y-25687499D01*
X9624989Y-25667314D01*
X9663621Y-25634964D01*
X9716449Y-25591052D01*
X9782733Y-25536183D01*
X9861737Y-25470958D01*
X9952722Y-25395980D01*
X10054951Y-25311854D01*
X10167685Y-25219182D01*
X10290187Y-25118566D01*
X10421718Y-25010611D01*
X10561541Y-24895918D01*
X10708918Y-24775092D01*
X10863111Y-24648736D01*
X11023382Y-24517451D01*
X11188993Y-24381842D01*
X11359206Y-24242512D01*
X11533283Y-24100063D01*
X11710486Y-23955098D01*
X11890077Y-23808221D01*
X12071319Y-23660035D01*
X12253473Y-23511143D01*
X12435802Y-23362148D01*
X12617567Y-23213653D01*
X12798031Y-23066260D01*
X12976456Y-22920574D01*
X13152103Y-22777197D01*
X13324236Y-22636732D01*
X13492115Y-22499783D01*
X13655003Y-22366952D01*
X13812162Y-22238842D01*
X13962855Y-22116057D01*
X14106342Y-21999199D01*
X14241887Y-21888872D01*
X14368751Y-21785679D01*
X14486196Y-21690223D01*
X14593485Y-21603106D01*
X14689880Y-21524932D01*
X14774642Y-21456305D01*
X14847034Y-21397826D01*
X14906317Y-21350100D01*
X14951754Y-21313728D01*
X14982608Y-21289315D01*
X14998139Y-21277464D01*
X14999900Y-21276375D01*
X15009030Y-21282979D01*
X15009030Y-21282979D01*
G37*
X15009030Y-21282979D02*
X15033780Y-21302387D01*
X15073412Y-21333997D01*
X15127189Y-21377205D01*
X15194373Y-21431409D01*
X15274225Y-21496006D01*
X15366009Y-21570392D01*
X15468985Y-21653965D01*
X15582416Y-21746121D01*
X15705565Y-21846258D01*
X15837692Y-21953772D01*
X15978061Y-22068060D01*
X16125933Y-22188520D01*
X16280570Y-22314548D01*
X16441235Y-22445541D01*
X16607189Y-22580896D01*
X16777694Y-22720010D01*
X16952014Y-22862280D01*
X17129408Y-23007103D01*
X17309141Y-23153876D01*
X17490474Y-23301996D01*
X17672668Y-23450860D01*
X17854986Y-23599864D01*
X18036691Y-23748407D01*
X18217043Y-23895884D01*
X18395306Y-24041693D01*
X18570741Y-24185230D01*
X18742610Y-24325893D01*
X18910175Y-24463078D01*
X19072699Y-24596183D01*
X19229444Y-24724605D01*
X19379671Y-24847739D01*
X19522643Y-24964984D01*
X19657621Y-25075737D01*
X19783868Y-25179393D01*
X19900647Y-25275351D01*
X20007218Y-25363007D01*
X20102844Y-25441758D01*
X20186787Y-25511001D01*
X20258309Y-25570133D01*
X20316673Y-25618551D01*
X20361139Y-25655653D01*
X20390971Y-25680833D01*
X20405431Y-25693491D01*
X20406745Y-25694917D01*
X20398829Y-25704137D01*
X20376998Y-25724882D01*
X20343586Y-25755109D01*
X20300924Y-25792775D01*
X20251344Y-25835838D01*
X20197178Y-25882254D01*
X20140759Y-25929981D01*
X20090584Y-25971869D01*
X20028072Y-26023038D01*
X19964266Y-26074085D01*
X19901436Y-26123307D01*
X19841854Y-26168997D01*
X19787793Y-26209452D01*
X19741523Y-26242966D01*
X19705316Y-26267834D01*
X19681445Y-26282351D01*
X19672827Y-26285387D01*
X19663724Y-26278505D01*
X19638908Y-26258735D01*
X19599033Y-26226614D01*
X19544755Y-26182674D01*
X19476727Y-26127451D01*
X19395604Y-26061478D01*
X19302041Y-25985291D01*
X19196693Y-25899423D01*
X19080214Y-25804409D01*
X18953258Y-25700783D01*
X18816481Y-25589080D01*
X18670536Y-25469834D01*
X18516078Y-25343580D01*
X18353763Y-25210851D01*
X18184244Y-25072182D01*
X18008176Y-24928108D01*
X17826214Y-24779163D01*
X17639012Y-24625882D01*
X17447225Y-24468797D01*
X17335530Y-24377292D01*
X17141440Y-24218300D01*
X16951570Y-24062824D01*
X16766575Y-23911398D01*
X16587107Y-23764554D01*
X16413821Y-23622826D01*
X16247371Y-23486748D01*
X16088411Y-23356853D01*
X15937595Y-23233674D01*
X15795576Y-23117744D01*
X15663008Y-23009597D01*
X15540545Y-22909766D01*
X15428842Y-22818785D01*
X15328551Y-22737186D01*
X15240328Y-22665503D01*
X15164825Y-22604270D01*
X15102697Y-22554019D01*
X15054597Y-22515284D01*
X15021180Y-22488599D01*
X15003099Y-22474496D01*
X14999901Y-22472292D01*
X14990939Y-22478915D01*
X14966265Y-22498427D01*
X14926533Y-22530296D01*
X14872397Y-22573988D01*
X14804510Y-22628970D01*
X14723526Y-22694708D01*
X14630100Y-22770670D01*
X14524884Y-22856321D01*
X14408534Y-22951128D01*
X14281703Y-23054559D01*
X14145044Y-23166079D01*
X13999212Y-23285156D01*
X13844860Y-23411255D01*
X13682643Y-23543845D01*
X13513214Y-23682390D01*
X13337228Y-23826359D01*
X13155337Y-23975217D01*
X12968196Y-24128432D01*
X12776459Y-24285469D01*
X12664381Y-24377292D01*
X12470268Y-24536316D01*
X12280365Y-24691844D01*
X12095327Y-24843341D01*
X11915808Y-24990273D01*
X11742463Y-25132105D01*
X11575946Y-25268304D01*
X11416911Y-25398335D01*
X11266015Y-25521663D01*
X11123910Y-25637753D01*
X10991252Y-25746073D01*
X10868695Y-25846086D01*
X10756895Y-25937259D01*
X10656504Y-26019058D01*
X10568179Y-26090947D01*
X10492573Y-26152393D01*
X10430341Y-26202861D01*
X10382138Y-26241817D01*
X10348618Y-26268726D01*
X10330436Y-26283054D01*
X10327184Y-26285387D01*
X10315097Y-26280299D01*
X10289348Y-26264255D01*
X10252964Y-26239313D01*
X10208976Y-26207534D01*
X10173050Y-26180628D01*
X10117424Y-26137735D01*
X10056212Y-26089468D01*
X9991493Y-26037567D01*
X9925346Y-25983774D01*
X9859849Y-25929829D01*
X9797080Y-25877474D01*
X9739119Y-25828449D01*
X9688043Y-25784497D01*
X9645930Y-25747358D01*
X9614860Y-25718774D01*
X9596911Y-25700485D01*
X9593262Y-25694917D01*
X9601290Y-25687499D01*
X9624989Y-25667314D01*
X9663621Y-25634964D01*
X9716449Y-25591052D01*
X9782733Y-25536183D01*
X9861737Y-25470958D01*
X9952722Y-25395980D01*
X10054951Y-25311854D01*
X10167685Y-25219182D01*
X10290187Y-25118566D01*
X10421718Y-25010611D01*
X10561541Y-24895918D01*
X10708918Y-24775092D01*
X10863111Y-24648736D01*
X11023382Y-24517451D01*
X11188993Y-24381842D01*
X11359206Y-24242512D01*
X11533283Y-24100063D01*
X11710486Y-23955098D01*
X11890077Y-23808221D01*
X12071319Y-23660035D01*
X12253473Y-23511143D01*
X12435802Y-23362148D01*
X12617567Y-23213653D01*
X12798031Y-23066260D01*
X12976456Y-22920574D01*
X13152103Y-22777197D01*
X13324236Y-22636732D01*
X13492115Y-22499783D01*
X13655003Y-22366952D01*
X13812162Y-22238842D01*
X13962855Y-22116057D01*
X14106342Y-21999199D01*
X14241887Y-21888872D01*
X14368751Y-21785679D01*
X14486196Y-21690223D01*
X14593485Y-21603106D01*
X14689880Y-21524932D01*
X14774642Y-21456305D01*
X14847034Y-21397826D01*
X14906317Y-21350100D01*
X14951754Y-21313728D01*
X14982608Y-21289315D01*
X14998139Y-21277464D01*
X14999900Y-21276375D01*
X15009030Y-21282979D01*
G36*
X20924292Y-14426443D02*
X20948552Y-14449393D01*
X20982571Y-14485351D01*
X21024767Y-14532438D01*
X21073554Y-14588778D01*
X21127349Y-14652494D01*
X21184568Y-14721709D01*
X21243628Y-14794546D01*
X21302944Y-14869128D01*
X21360933Y-14943578D01*
X21416010Y-15016019D01*
X21418429Y-15019247D01*
X21450938Y-15063229D01*
X21477947Y-15100857D01*
X21497340Y-15129094D01*
X21507001Y-15144904D01*
X21507600Y-15147164D01*
X21481053Y-15168484D01*
X21439709Y-15201972D01*
X21384285Y-15247039D01*
X21315498Y-15303098D01*
X21234065Y-15369558D01*
X21140704Y-15445832D01*
X21036132Y-15531330D01*
X20921065Y-15625465D01*
X20796222Y-15727646D01*
X20662319Y-15837286D01*
X20520074Y-15953795D01*
X20370204Y-16076586D01*
X20213425Y-16205069D01*
X20050456Y-16338655D01*
X19882014Y-16476756D01*
X19708815Y-16618783D01*
X19531576Y-16764147D01*
X19351016Y-16912260D01*
X19167851Y-17062532D01*
X18982799Y-17214376D01*
X18796576Y-17367202D01*
X18609900Y-17520422D01*
X18423489Y-17673447D01*
X18238058Y-17825687D01*
X18054326Y-17976556D01*
X17873010Y-18125463D01*
X17694827Y-18271820D01*
X17520493Y-18415038D01*
X17350728Y-18554529D01*
X17186246Y-18689704D01*
X17027767Y-18819974D01*
X16876006Y-18944750D01*
X16731682Y-19063443D01*
X16595511Y-19175466D01*
X16468210Y-19280229D01*
X16350497Y-19377143D01*
X16243090Y-19465620D01*
X16146704Y-19545071D01*
X16062058Y-19614907D01*
X15989869Y-19674539D01*
X15930853Y-19723380D01*
X15885728Y-19760839D01*
X15855212Y-19786329D01*
X15840021Y-19799260D01*
X15838376Y-19800829D01*
X15846697Y-19808081D01*
X15870805Y-19828256D01*
X15910110Y-19860867D01*
X15964021Y-19905430D01*
X16031946Y-19961458D01*
X16113295Y-20028467D01*
X16207477Y-20105972D01*
X16313900Y-20193487D01*
X16431973Y-20290526D01*
X16561105Y-20396605D01*
X16700706Y-20511238D01*
X16850184Y-20633939D01*
X17008947Y-20764224D01*
X17176406Y-20901607D01*
X17351968Y-21045603D01*
X17535043Y-21195727D01*
X17725039Y-21351492D01*
X17921366Y-21512414D01*
X18123432Y-21678008D01*
X18330647Y-21847788D01*
X18542419Y-22021269D01*
X18667125Y-22123412D01*
X18881315Y-22298840D01*
X19091321Y-22470848D01*
X19296551Y-22638949D01*
X19496413Y-22802658D01*
X19690314Y-22961491D01*
X19877662Y-23114960D01*
X20057863Y-23262582D01*
X20230326Y-23403869D01*
X20394458Y-23538337D01*
X20549666Y-23665501D01*
X20695358Y-23784874D01*
X20830941Y-23895972D01*
X20955823Y-23998308D01*
X21069412Y-24091397D01*
X21171114Y-24174755D01*
X21260337Y-24247894D01*
X21336489Y-24310330D01*
X21398977Y-24361578D01*
X21447209Y-24401151D01*
X21480592Y-24428564D01*
X21498533Y-24443332D01*
X21501628Y-24445911D01*
X21498786Y-24457132D01*
X21483865Y-24482531D01*
X21458431Y-24520103D01*
X21424051Y-24567845D01*
X21382293Y-24623753D01*
X21334722Y-24685824D01*
X21282905Y-24752054D01*
X21228410Y-24820439D01*
X21172802Y-24888976D01*
X21117649Y-24955661D01*
X21064517Y-25018491D01*
X21014973Y-25075461D01*
X20973022Y-25121935D01*
X20910792Y-25189246D01*
X17958042Y-22769991D01*
X17739127Y-22590641D01*
X17524401Y-22414745D01*
X17314441Y-22242778D01*
X17109826Y-22075211D01*
X16911135Y-21912517D01*
X16718945Y-21755170D01*
X16533835Y-21603643D01*
X16356383Y-21458408D01*
X16187169Y-21319940D01*
X16026769Y-21188709D01*
X15875762Y-21065191D01*
X15734728Y-20949857D01*
X15604243Y-20843180D01*
X15484887Y-20745635D01*
X15377237Y-20657693D01*
X15281873Y-20579828D01*
X15199371Y-20512512D01*
X15130312Y-20456219D01*
X15075273Y-20411422D01*
X15034832Y-20378594D01*
X15009568Y-20358207D01*
X15000059Y-20350735D01*
X15000000Y-20350708D01*
X14991516Y-20357336D01*
X14967239Y-20376909D01*
X14927750Y-20408953D01*
X14873625Y-20452997D01*
X14805444Y-20508565D01*
X14723785Y-20575187D01*
X14629227Y-20652387D01*
X14522348Y-20739694D01*
X14403726Y-20836634D01*
X14273940Y-20942734D01*
X14133569Y-21057520D01*
X13983190Y-21180521D01*
X13823383Y-21311262D01*
X13654726Y-21449271D01*
X13477798Y-21594074D01*
X13293176Y-21745199D01*
X13101439Y-21902172D01*
X12903166Y-22064520D01*
X12698936Y-22231771D01*
X12489326Y-22403450D01*
X12274916Y-22579085D01*
X12056283Y-22758202D01*
X12043350Y-22768798D01*
X11824501Y-22948099D01*
X11609848Y-23123945D01*
X11399972Y-23295863D01*
X11195448Y-23463381D01*
X10996856Y-23626025D01*
X10804773Y-23783322D01*
X10619778Y-23934799D01*
X10442449Y-24079983D01*
X10273363Y-24218401D01*
X10113099Y-24349580D01*
X9962235Y-24473048D01*
X9821349Y-24588330D01*
X9691019Y-24694953D01*
X9571823Y-24792446D01*
X9464340Y-24880334D01*
X9369146Y-24958145D01*
X9286821Y-25025405D01*
X9217943Y-25081642D01*
X9163088Y-25126382D01*
X9122837Y-25159153D01*
X9097766Y-25179481D01*
X9088454Y-25186893D01*
X9088409Y-25186917D01*
X9080448Y-25179474D01*
X9061204Y-25159108D01*
X9033402Y-25128765D01*
X8999768Y-25091390D01*
X8992936Y-25083729D01*
X8938635Y-25021705D01*
X8881713Y-24954810D01*
X8823675Y-24884987D01*
X8766026Y-24814178D01*
X8710271Y-24744326D01*
X8657916Y-24677374D01*
X8610464Y-24615263D01*
X8569423Y-24559936D01*
X8536296Y-24513336D01*
X8512590Y-24477405D01*
X8499808Y-24454086D01*
X8498558Y-24445716D01*
X8507302Y-24438481D01*
X8531830Y-24418321D01*
X8571549Y-24385721D01*
X8625867Y-24341167D01*
X8694191Y-24285143D01*
X8775929Y-24218136D01*
X8870488Y-24140631D01*
X8977275Y-24053113D01*
X9095699Y-23956067D01*
X9225167Y-23849980D01*
X9365085Y-23735336D01*
X9514863Y-23612622D01*
X9673907Y-23482322D01*
X9841624Y-23344922D01*
X10017423Y-23200907D01*
X10200711Y-23050763D01*
X10390896Y-22894975D01*
X10587384Y-22734030D01*
X10789583Y-22568411D01*
X10996902Y-22398605D01*
X11208746Y-22225097D01*
X11332875Y-22123434D01*
X11547021Y-21948031D01*
X11756952Y-21776047D01*
X11962078Y-21607967D01*
X12161807Y-21444278D01*
X12355548Y-21285463D01*
X12542711Y-21132009D01*
X12722704Y-20984401D01*
X12894936Y-20843123D01*
X13058816Y-20708663D01*
X13213752Y-20581503D01*
X13359155Y-20462131D01*
X13494432Y-20351032D01*
X13618992Y-20248689D01*
X13732245Y-20155590D01*
X13833600Y-20072220D01*
X13922465Y-19999063D01*
X13998249Y-19936605D01*
X14060361Y-19885331D01*
X14108209Y-19845727D01*
X14141204Y-19818278D01*
X14158754Y-19803470D01*
X14161623Y-19800864D01*
X14153692Y-19793880D01*
X14130107Y-19774068D01*
X14091586Y-19742016D01*
X14038844Y-19698313D01*
X13972599Y-19643548D01*
X13893568Y-19578310D01*
X13802468Y-19503186D01*
X13700017Y-19418766D01*
X13586931Y-19325638D01*
X13463927Y-19224390D01*
X13331723Y-19115613D01*
X13191035Y-18999893D01*
X13042580Y-18877820D01*
X12887077Y-18749982D01*
X12725241Y-18616968D01*
X12557790Y-18479366D01*
X12385440Y-18337766D01*
X12208910Y-18192755D01*
X12028915Y-18044922D01*
X11846174Y-17894857D01*
X11661402Y-17743147D01*
X11475318Y-17590381D01*
X11288638Y-17437149D01*
X11102079Y-17284037D01*
X10916359Y-17131636D01*
X10732194Y-16980533D01*
X10550301Y-16831318D01*
X10371398Y-16684578D01*
X10196202Y-16540903D01*
X10025430Y-16400881D01*
X9859798Y-16265101D01*
X9700024Y-16134151D01*
X9546825Y-16008621D01*
X9400918Y-15889098D01*
X9263020Y-15776171D01*
X9133848Y-15670429D01*
X9014119Y-15572460D01*
X8904550Y-15482854D01*
X8805859Y-15402198D01*
X8718762Y-15331082D01*
X8643976Y-15270093D01*
X8582219Y-15219821D01*
X8534208Y-15180855D01*
X8500659Y-15153782D01*
X8492400Y-15147172D01*
X8496921Y-15138032D01*
X8512139Y-15115081D01*
X8535939Y-15081356D01*
X8566203Y-15039893D01*
X8581572Y-15019247D01*
X8636489Y-14946928D01*
X8694388Y-14872518D01*
X8753684Y-14797894D01*
X8812794Y-14724932D01*
X8870134Y-14655509D01*
X8924120Y-14591503D01*
X8973170Y-14534788D01*
X9015697Y-14487243D01*
X9050121Y-14450745D01*
X9074855Y-14427169D01*
X9088317Y-14418392D01*
X9088632Y-14418375D01*
X9097770Y-14425007D01*
X9122694Y-14444588D01*
X9162822Y-14476644D01*
X9217575Y-14520702D01*
X9286372Y-14576287D01*
X9368630Y-14642927D01*
X9463771Y-14720147D01*
X9571212Y-14807474D01*
X9690373Y-14904435D01*
X9820674Y-15010556D01*
X9961533Y-15125364D01*
X10112369Y-15248384D01*
X10272602Y-15379143D01*
X10441650Y-15517168D01*
X10618934Y-15661985D01*
X10803871Y-15813121D01*
X10995882Y-15970101D01*
X11194385Y-16132452D01*
X11398800Y-16299701D01*
X11608545Y-16471375D01*
X11823041Y-16646998D01*
X12041705Y-16826099D01*
X12051299Y-16833959D01*
X14999923Y-19249542D01*
X17948632Y-16833959D01*
X18167469Y-16654719D01*
X18382162Y-16478936D01*
X18592130Y-16307082D01*
X18796793Y-16139632D01*
X18995569Y-15977059D01*
X19187878Y-15819837D01*
X19373139Y-15668438D01*
X19550771Y-15523338D01*
X19720194Y-15385008D01*
X19880826Y-15253924D01*
X20032086Y-15130557D01*
X20173394Y-15015383D01*
X20304169Y-14908875D01*
X20423830Y-14811505D01*
X20531797Y-14723748D01*
X20627487Y-14646078D01*
X20710321Y-14578967D01*
X20779718Y-14522890D01*
X20835097Y-14478320D01*
X20875876Y-14445731D01*
X20901476Y-14425596D01*
X20911314Y-14418388D01*
X20911376Y-14418375D01*
X20924292Y-14426443D01*
X20924292Y-14426443D01*
G37*
X20924292Y-14426443D02*
X20948552Y-14449393D01*
X20982571Y-14485351D01*
X21024767Y-14532438D01*
X21073554Y-14588778D01*
X21127349Y-14652494D01*
X21184568Y-14721709D01*
X21243628Y-14794546D01*
X21302944Y-14869128D01*
X21360933Y-14943578D01*
X21416010Y-15016019D01*
X21418429Y-15019247D01*
X21450938Y-15063229D01*
X21477947Y-15100857D01*
X21497340Y-15129094D01*
X21507001Y-15144904D01*
X21507600Y-15147164D01*
X21481053Y-15168484D01*
X21439709Y-15201972D01*
X21384285Y-15247039D01*
X21315498Y-15303098D01*
X21234065Y-15369558D01*
X21140704Y-15445832D01*
X21036132Y-15531330D01*
X20921065Y-15625465D01*
X20796222Y-15727646D01*
X20662319Y-15837286D01*
X20520074Y-15953795D01*
X20370204Y-16076586D01*
X20213425Y-16205069D01*
X20050456Y-16338655D01*
X19882014Y-16476756D01*
X19708815Y-16618783D01*
X19531576Y-16764147D01*
X19351016Y-16912260D01*
X19167851Y-17062532D01*
X18982799Y-17214376D01*
X18796576Y-17367202D01*
X18609900Y-17520422D01*
X18423489Y-17673447D01*
X18238058Y-17825687D01*
X18054326Y-17976556D01*
X17873010Y-18125463D01*
X17694827Y-18271820D01*
X17520493Y-18415038D01*
X17350728Y-18554529D01*
X17186246Y-18689704D01*
X17027767Y-18819974D01*
X16876006Y-18944750D01*
X16731682Y-19063443D01*
X16595511Y-19175466D01*
X16468210Y-19280229D01*
X16350497Y-19377143D01*
X16243090Y-19465620D01*
X16146704Y-19545071D01*
X16062058Y-19614907D01*
X15989869Y-19674539D01*
X15930853Y-19723380D01*
X15885728Y-19760839D01*
X15855212Y-19786329D01*
X15840021Y-19799260D01*
X15838376Y-19800829D01*
X15846697Y-19808081D01*
X15870805Y-19828256D01*
X15910110Y-19860867D01*
X15964021Y-19905430D01*
X16031946Y-19961458D01*
X16113295Y-20028467D01*
X16207477Y-20105972D01*
X16313900Y-20193487D01*
X16431973Y-20290526D01*
X16561105Y-20396605D01*
X16700706Y-20511238D01*
X16850184Y-20633939D01*
X17008947Y-20764224D01*
X17176406Y-20901607D01*
X17351968Y-21045603D01*
X17535043Y-21195727D01*
X17725039Y-21351492D01*
X17921366Y-21512414D01*
X18123432Y-21678008D01*
X18330647Y-21847788D01*
X18542419Y-22021269D01*
X18667125Y-22123412D01*
X18881315Y-22298840D01*
X19091321Y-22470848D01*
X19296551Y-22638949D01*
X19496413Y-22802658D01*
X19690314Y-22961491D01*
X19877662Y-23114960D01*
X20057863Y-23262582D01*
X20230326Y-23403869D01*
X20394458Y-23538337D01*
X20549666Y-23665501D01*
X20695358Y-23784874D01*
X20830941Y-23895972D01*
X20955823Y-23998308D01*
X21069412Y-24091397D01*
X21171114Y-24174755D01*
X21260337Y-24247894D01*
X21336489Y-24310330D01*
X21398977Y-24361578D01*
X21447209Y-24401151D01*
X21480592Y-24428564D01*
X21498533Y-24443332D01*
X21501628Y-24445911D01*
X21498786Y-24457132D01*
X21483865Y-24482531D01*
X21458431Y-24520103D01*
X21424051Y-24567845D01*
X21382293Y-24623753D01*
X21334722Y-24685824D01*
X21282905Y-24752054D01*
X21228410Y-24820439D01*
X21172802Y-24888976D01*
X21117649Y-24955661D01*
X21064517Y-25018491D01*
X21014973Y-25075461D01*
X20973022Y-25121935D01*
X20910792Y-25189246D01*
X17958042Y-22769991D01*
X17739127Y-22590641D01*
X17524401Y-22414745D01*
X17314441Y-22242778D01*
X17109826Y-22075211D01*
X16911135Y-21912517D01*
X16718945Y-21755170D01*
X16533835Y-21603643D01*
X16356383Y-21458408D01*
X16187169Y-21319940D01*
X16026769Y-21188709D01*
X15875762Y-21065191D01*
X15734728Y-20949857D01*
X15604243Y-20843180D01*
X15484887Y-20745635D01*
X15377237Y-20657693D01*
X15281873Y-20579828D01*
X15199371Y-20512512D01*
X15130312Y-20456219D01*
X15075273Y-20411422D01*
X15034832Y-20378594D01*
X15009568Y-20358207D01*
X15000059Y-20350735D01*
X15000000Y-20350708D01*
X14991516Y-20357336D01*
X14967239Y-20376909D01*
X14927750Y-20408953D01*
X14873625Y-20452997D01*
X14805444Y-20508565D01*
X14723785Y-20575187D01*
X14629227Y-20652387D01*
X14522348Y-20739694D01*
X14403726Y-20836634D01*
X14273940Y-20942734D01*
X14133569Y-21057520D01*
X13983190Y-21180521D01*
X13823383Y-21311262D01*
X13654726Y-21449271D01*
X13477798Y-21594074D01*
X13293176Y-21745199D01*
X13101439Y-21902172D01*
X12903166Y-22064520D01*
X12698936Y-22231771D01*
X12489326Y-22403450D01*
X12274916Y-22579085D01*
X12056283Y-22758202D01*
X12043350Y-22768798D01*
X11824501Y-22948099D01*
X11609848Y-23123945D01*
X11399972Y-23295863D01*
X11195448Y-23463381D01*
X10996856Y-23626025D01*
X10804773Y-23783322D01*
X10619778Y-23934799D01*
X10442449Y-24079983D01*
X10273363Y-24218401D01*
X10113099Y-24349580D01*
X9962235Y-24473048D01*
X9821349Y-24588330D01*
X9691019Y-24694953D01*
X9571823Y-24792446D01*
X9464340Y-24880334D01*
X9369146Y-24958145D01*
X9286821Y-25025405D01*
X9217943Y-25081642D01*
X9163088Y-25126382D01*
X9122837Y-25159153D01*
X9097766Y-25179481D01*
X9088454Y-25186893D01*
X9088409Y-25186917D01*
X9080448Y-25179474D01*
X9061204Y-25159108D01*
X9033402Y-25128765D01*
X8999768Y-25091390D01*
X8992936Y-25083729D01*
X8938635Y-25021705D01*
X8881713Y-24954810D01*
X8823675Y-24884987D01*
X8766026Y-24814178D01*
X8710271Y-24744326D01*
X8657916Y-24677374D01*
X8610464Y-24615263D01*
X8569423Y-24559936D01*
X8536296Y-24513336D01*
X8512590Y-24477405D01*
X8499808Y-24454086D01*
X8498558Y-24445716D01*
X8507302Y-24438481D01*
X8531830Y-24418321D01*
X8571549Y-24385721D01*
X8625867Y-24341167D01*
X8694191Y-24285143D01*
X8775929Y-24218136D01*
X8870488Y-24140631D01*
X8977275Y-24053113D01*
X9095699Y-23956067D01*
X9225167Y-23849980D01*
X9365085Y-23735336D01*
X9514863Y-23612622D01*
X9673907Y-23482322D01*
X9841624Y-23344922D01*
X10017423Y-23200907D01*
X10200711Y-23050763D01*
X10390896Y-22894975D01*
X10587384Y-22734030D01*
X10789583Y-22568411D01*
X10996902Y-22398605D01*
X11208746Y-22225097D01*
X11332875Y-22123434D01*
X11547021Y-21948031D01*
X11756952Y-21776047D01*
X11962078Y-21607967D01*
X12161807Y-21444278D01*
X12355548Y-21285463D01*
X12542711Y-21132009D01*
X12722704Y-20984401D01*
X12894936Y-20843123D01*
X13058816Y-20708663D01*
X13213752Y-20581503D01*
X13359155Y-20462131D01*
X13494432Y-20351032D01*
X13618992Y-20248689D01*
X13732245Y-20155590D01*
X13833600Y-20072220D01*
X13922465Y-19999063D01*
X13998249Y-19936605D01*
X14060361Y-19885331D01*
X14108209Y-19845727D01*
X14141204Y-19818278D01*
X14158754Y-19803470D01*
X14161623Y-19800864D01*
X14153692Y-19793880D01*
X14130107Y-19774068D01*
X14091586Y-19742016D01*
X14038844Y-19698313D01*
X13972599Y-19643548D01*
X13893568Y-19578310D01*
X13802468Y-19503186D01*
X13700017Y-19418766D01*
X13586931Y-19325638D01*
X13463927Y-19224390D01*
X13331723Y-19115613D01*
X13191035Y-18999893D01*
X13042580Y-18877820D01*
X12887077Y-18749982D01*
X12725241Y-18616968D01*
X12557790Y-18479366D01*
X12385440Y-18337766D01*
X12208910Y-18192755D01*
X12028915Y-18044922D01*
X11846174Y-17894857D01*
X11661402Y-17743147D01*
X11475318Y-17590381D01*
X11288638Y-17437149D01*
X11102079Y-17284037D01*
X10916359Y-17131636D01*
X10732194Y-16980533D01*
X10550301Y-16831318D01*
X10371398Y-16684578D01*
X10196202Y-16540903D01*
X10025430Y-16400881D01*
X9859798Y-16265101D01*
X9700024Y-16134151D01*
X9546825Y-16008621D01*
X9400918Y-15889098D01*
X9263020Y-15776171D01*
X9133848Y-15670429D01*
X9014119Y-15572460D01*
X8904550Y-15482854D01*
X8805859Y-15402198D01*
X8718762Y-15331082D01*
X8643976Y-15270093D01*
X8582219Y-15219821D01*
X8534208Y-15180855D01*
X8500659Y-15153782D01*
X8492400Y-15147172D01*
X8496921Y-15138032D01*
X8512139Y-15115081D01*
X8535939Y-15081356D01*
X8566203Y-15039893D01*
X8581572Y-15019247D01*
X8636489Y-14946928D01*
X8694388Y-14872518D01*
X8753684Y-14797894D01*
X8812794Y-14724932D01*
X8870134Y-14655509D01*
X8924120Y-14591503D01*
X8973170Y-14534788D01*
X9015697Y-14487243D01*
X9050121Y-14450745D01*
X9074855Y-14427169D01*
X9088317Y-14418392D01*
X9088632Y-14418375D01*
X9097770Y-14425007D01*
X9122694Y-14444588D01*
X9162822Y-14476644D01*
X9217575Y-14520702D01*
X9286372Y-14576287D01*
X9368630Y-14642927D01*
X9463771Y-14720147D01*
X9571212Y-14807474D01*
X9690373Y-14904435D01*
X9820674Y-15010556D01*
X9961533Y-15125364D01*
X10112369Y-15248384D01*
X10272602Y-15379143D01*
X10441650Y-15517168D01*
X10618934Y-15661985D01*
X10803871Y-15813121D01*
X10995882Y-15970101D01*
X11194385Y-16132452D01*
X11398800Y-16299701D01*
X11608545Y-16471375D01*
X11823041Y-16646998D01*
X12041705Y-16826099D01*
X12051299Y-16833959D01*
X14999923Y-19249542D01*
X17948632Y-16833959D01*
X18167469Y-16654719D01*
X18382162Y-16478936D01*
X18592130Y-16307082D01*
X18796793Y-16139632D01*
X18995569Y-15977059D01*
X19187878Y-15819837D01*
X19373139Y-15668438D01*
X19550771Y-15523338D01*
X19720194Y-15385008D01*
X19880826Y-15253924D01*
X20032086Y-15130557D01*
X20173394Y-15015383D01*
X20304169Y-14908875D01*
X20423830Y-14811505D01*
X20531797Y-14723748D01*
X20627487Y-14646078D01*
X20710321Y-14578967D01*
X20779718Y-14522890D01*
X20835097Y-14478320D01*
X20875876Y-14445731D01*
X20901476Y-14425596D01*
X20911314Y-14418388D01*
X20911376Y-14418375D01*
X20924292Y-14426443D01*
G36*
X8118212Y-15761646D02*
X8143119Y-15781407D01*
X8183123Y-15813550D01*
X8237589Y-15857556D01*
X8305879Y-15912905D01*
X8387358Y-15979079D01*
X8481391Y-16055559D01*
X8587340Y-16141826D01*
X8704570Y-16237360D01*
X8832444Y-16341644D01*
X8970328Y-16454158D01*
X9117584Y-16574384D01*
X9273576Y-16701801D01*
X9437669Y-16835893D01*
X9609227Y-16976139D01*
X9787613Y-17122020D01*
X9972191Y-17273019D01*
X10162326Y-17428615D01*
X10357381Y-17588291D01*
X10556720Y-17751526D01*
X10586847Y-17776201D01*
X13051280Y-19794709D01*
X13028161Y-19817443D01*
X13018926Y-19825199D01*
X12994091Y-19845730D01*
X12954430Y-19878401D01*
X12900721Y-19922575D01*
X12833738Y-19977619D01*
X12754257Y-20042894D01*
X12663054Y-20117767D01*
X12560904Y-20201602D01*
X12448583Y-20293762D01*
X12326866Y-20393612D01*
X12196530Y-20500518D01*
X12058350Y-20613842D01*
X11913101Y-20732949D01*
X11761559Y-20857204D01*
X11604500Y-20985972D01*
X11442699Y-21118616D01*
X11276932Y-21254500D01*
X11107975Y-21392990D01*
X10936603Y-21533450D01*
X10763592Y-21675244D01*
X10589717Y-21817736D01*
X10415755Y-21960291D01*
X10242480Y-22102273D01*
X10070669Y-22243046D01*
X9901097Y-22381976D01*
X9734539Y-22518426D01*
X9571772Y-22651760D01*
X9413571Y-22781344D01*
X9260711Y-22906540D01*
X9113968Y-23026715D01*
X8974119Y-23141232D01*
X8841937Y-23249455D01*
X8718200Y-23350750D01*
X8603683Y-23444480D01*
X8499161Y-23530009D01*
X8405410Y-23606702D01*
X8323205Y-23673924D01*
X8253323Y-23731039D01*
X8196539Y-23777411D01*
X8153628Y-23812405D01*
X8125366Y-23835384D01*
X8113748Y-23844752D01*
X8102739Y-23843553D01*
X8086168Y-23825373D01*
X8062854Y-23788911D01*
X8062236Y-23787860D01*
X8005767Y-23688727D01*
X7944523Y-23576190D01*
X7881764Y-23456427D01*
X7820750Y-23335617D01*
X7784928Y-23262278D01*
X7754112Y-23197704D01*
X7731887Y-23149473D01*
X7717308Y-23115032D01*
X7709429Y-23091826D01*
X7707306Y-23077302D01*
X7709994Y-23068906D01*
X7712469Y-23066486D01*
X7728796Y-23053597D01*
X7760184Y-23028318D01*
X7805775Y-22991352D01*
X7864713Y-22943403D01*
X7936142Y-22885174D01*
X8019205Y-22817368D01*
X8113045Y-22740687D01*
X8216806Y-22655836D01*
X8329631Y-22563517D01*
X8450663Y-22464433D01*
X8579046Y-22359287D01*
X8713923Y-22248784D01*
X8854438Y-22133625D01*
X8999734Y-22014513D01*
X9148954Y-21892153D01*
X9301241Y-21767247D01*
X9455740Y-21640498D01*
X9611593Y-21512609D01*
X9767944Y-21384284D01*
X9923937Y-21256226D01*
X10078714Y-21129137D01*
X10231418Y-21003721D01*
X10381194Y-20880681D01*
X10527185Y-20760720D01*
X10668534Y-20644542D01*
X10804385Y-20532848D01*
X10933880Y-20426343D01*
X11056163Y-20325730D01*
X11170378Y-20231712D01*
X11275669Y-20144991D01*
X11371177Y-20066271D01*
X11456047Y-19996256D01*
X11529423Y-19935647D01*
X11590446Y-19885149D01*
X11638262Y-19845465D01*
X11672013Y-19817297D01*
X11690843Y-19801348D01*
X11694687Y-19797833D01*
X11686433Y-19790547D01*
X11662504Y-19770436D01*
X11623607Y-19738082D01*
X11570447Y-19694066D01*
X11503731Y-19638968D01*
X11424166Y-19573368D01*
X11332457Y-19497848D01*
X11229312Y-19412987D01*
X11115437Y-19319366D01*
X10991537Y-19217566D01*
X10858320Y-19108168D01*
X10716492Y-18991751D01*
X10566760Y-18868897D01*
X10409829Y-18740186D01*
X10246406Y-18606199D01*
X10077198Y-18467516D01*
X9902910Y-18324717D01*
X9724250Y-18178384D01*
X9713625Y-18169683D01*
X9534512Y-18022994D01*
X9359606Y-17879729D01*
X9189621Y-17740474D01*
X9025272Y-17605814D01*
X8867272Y-17476336D01*
X8716336Y-17352624D01*
X8573178Y-17235266D01*
X8438512Y-17124845D01*
X8313052Y-17021950D01*
X8197513Y-16927164D01*
X8092608Y-16841074D01*
X7999052Y-16764267D01*
X7917558Y-16697326D01*
X7848841Y-16640839D01*
X7793616Y-16595391D01*
X7752595Y-16561568D01*
X7726494Y-16539955D01*
X7716027Y-16531139D01*
X7715937Y-16531055D01*
X7710994Y-16525011D01*
X7708734Y-16516998D01*
X7710032Y-16504859D01*
X7715762Y-16486439D01*
X7726799Y-16459580D01*
X7744018Y-16422127D01*
X7768294Y-16371923D01*
X7800500Y-16306812D01*
X7834667Y-16238331D01*
X7895806Y-16117269D01*
X7949869Y-16012862D01*
X7996616Y-15925532D01*
X8035809Y-15855703D01*
X8067208Y-15803795D01*
X8090573Y-15770231D01*
X8105664Y-15755434D01*
X8109038Y-15754784D01*
X8118212Y-15761646D01*
X8118212Y-15761646D01*
G37*
X8118212Y-15761646D02*
X8143119Y-15781407D01*
X8183123Y-15813550D01*
X8237589Y-15857556D01*
X8305879Y-15912905D01*
X8387358Y-15979079D01*
X8481391Y-16055559D01*
X8587340Y-16141826D01*
X8704570Y-16237360D01*
X8832444Y-16341644D01*
X8970328Y-16454158D01*
X9117584Y-16574384D01*
X9273576Y-16701801D01*
X9437669Y-16835893D01*
X9609227Y-16976139D01*
X9787613Y-17122020D01*
X9972191Y-17273019D01*
X10162326Y-17428615D01*
X10357381Y-17588291D01*
X10556720Y-17751526D01*
X10586847Y-17776201D01*
X13051280Y-19794709D01*
X13028161Y-19817443D01*
X13018926Y-19825199D01*
X12994091Y-19845730D01*
X12954430Y-19878401D01*
X12900721Y-19922575D01*
X12833738Y-19977619D01*
X12754257Y-20042894D01*
X12663054Y-20117767D01*
X12560904Y-20201602D01*
X12448583Y-20293762D01*
X12326866Y-20393612D01*
X12196530Y-20500518D01*
X12058350Y-20613842D01*
X11913101Y-20732949D01*
X11761559Y-20857204D01*
X11604500Y-20985972D01*
X11442699Y-21118616D01*
X11276932Y-21254500D01*
X11107975Y-21392990D01*
X10936603Y-21533450D01*
X10763592Y-21675244D01*
X10589717Y-21817736D01*
X10415755Y-21960291D01*
X10242480Y-22102273D01*
X10070669Y-22243046D01*
X9901097Y-22381976D01*
X9734539Y-22518426D01*
X9571772Y-22651760D01*
X9413571Y-22781344D01*
X9260711Y-22906540D01*
X9113968Y-23026715D01*
X8974119Y-23141232D01*
X8841937Y-23249455D01*
X8718200Y-23350750D01*
X8603683Y-23444480D01*
X8499161Y-23530009D01*
X8405410Y-23606702D01*
X8323205Y-23673924D01*
X8253323Y-23731039D01*
X8196539Y-23777411D01*
X8153628Y-23812405D01*
X8125366Y-23835384D01*
X8113748Y-23844752D01*
X8102739Y-23843553D01*
X8086168Y-23825373D01*
X8062854Y-23788911D01*
X8062236Y-23787860D01*
X8005767Y-23688727D01*
X7944523Y-23576190D01*
X7881764Y-23456427D01*
X7820750Y-23335617D01*
X7784928Y-23262278D01*
X7754112Y-23197704D01*
X7731887Y-23149473D01*
X7717308Y-23115032D01*
X7709429Y-23091826D01*
X7707306Y-23077302D01*
X7709994Y-23068906D01*
X7712469Y-23066486D01*
X7728796Y-23053597D01*
X7760184Y-23028318D01*
X7805775Y-22991352D01*
X7864713Y-22943403D01*
X7936142Y-22885174D01*
X8019205Y-22817368D01*
X8113045Y-22740687D01*
X8216806Y-22655836D01*
X8329631Y-22563517D01*
X8450663Y-22464433D01*
X8579046Y-22359287D01*
X8713923Y-22248784D01*
X8854438Y-22133625D01*
X8999734Y-22014513D01*
X9148954Y-21892153D01*
X9301241Y-21767247D01*
X9455740Y-21640498D01*
X9611593Y-21512609D01*
X9767944Y-21384284D01*
X9923937Y-21256226D01*
X10078714Y-21129137D01*
X10231418Y-21003721D01*
X10381194Y-20880681D01*
X10527185Y-20760720D01*
X10668534Y-20644542D01*
X10804385Y-20532848D01*
X10933880Y-20426343D01*
X11056163Y-20325730D01*
X11170378Y-20231712D01*
X11275669Y-20144991D01*
X11371177Y-20066271D01*
X11456047Y-19996256D01*
X11529423Y-19935647D01*
X11590446Y-19885149D01*
X11638262Y-19845465D01*
X11672013Y-19817297D01*
X11690843Y-19801348D01*
X11694687Y-19797833D01*
X11686433Y-19790547D01*
X11662504Y-19770436D01*
X11623607Y-19738082D01*
X11570447Y-19694066D01*
X11503731Y-19638968D01*
X11424166Y-19573368D01*
X11332457Y-19497848D01*
X11229312Y-19412987D01*
X11115437Y-19319366D01*
X10991537Y-19217566D01*
X10858320Y-19108168D01*
X10716492Y-18991751D01*
X10566760Y-18868897D01*
X10409829Y-18740186D01*
X10246406Y-18606199D01*
X10077198Y-18467516D01*
X9902910Y-18324717D01*
X9724250Y-18178384D01*
X9713625Y-18169683D01*
X9534512Y-18022994D01*
X9359606Y-17879729D01*
X9189621Y-17740474D01*
X9025272Y-17605814D01*
X8867272Y-17476336D01*
X8716336Y-17352624D01*
X8573178Y-17235266D01*
X8438512Y-17124845D01*
X8313052Y-17021950D01*
X8197513Y-16927164D01*
X8092608Y-16841074D01*
X7999052Y-16764267D01*
X7917558Y-16697326D01*
X7848841Y-16640839D01*
X7793616Y-16595391D01*
X7752595Y-16561568D01*
X7726494Y-16539955D01*
X7716027Y-16531139D01*
X7715937Y-16531055D01*
X7710994Y-16525011D01*
X7708734Y-16516998D01*
X7710032Y-16504859D01*
X7715762Y-16486439D01*
X7726799Y-16459580D01*
X7744018Y-16422127D01*
X7768294Y-16371923D01*
X7800500Y-16306812D01*
X7834667Y-16238331D01*
X7895806Y-16117269D01*
X7949869Y-16012862D01*
X7996616Y-15925532D01*
X8035809Y-15855703D01*
X8067208Y-15803795D01*
X8090573Y-15770231D01*
X8105664Y-15755434D01*
X8109038Y-15754784D01*
X8118212Y-15761646D01*
G36*
X21919268Y-15777309D02*
X21940448Y-15812008D01*
X21968329Y-15860730D01*
X22001574Y-15920995D01*
X22038846Y-15990326D01*
X22078806Y-16066246D01*
X22120117Y-16146276D01*
X22161443Y-16227939D01*
X22187711Y-16280787D01*
X22223364Y-16353293D01*
X22250462Y-16409246D01*
X22269922Y-16451024D01*
X22282655Y-16481004D01*
X22289577Y-16501565D01*
X22291601Y-16515084D01*
X22289641Y-16523940D01*
X22284611Y-16530510D01*
X22283940Y-16531166D01*
X22274180Y-16539400D01*
X22248755Y-16560456D01*
X22208379Y-16593748D01*
X22153768Y-16638691D01*
X22085634Y-16694699D01*
X22004692Y-16761186D01*
X21911655Y-16837566D01*
X21807239Y-16923254D01*
X21692156Y-17017664D01*
X21567122Y-17120211D01*
X21432850Y-17230308D01*
X21290054Y-17347370D01*
X21139449Y-17470811D01*
X20981748Y-17600045D01*
X20817666Y-17734487D01*
X20647916Y-17873550D01*
X20473213Y-18016650D01*
X20294270Y-18163201D01*
X20286375Y-18169666D01*
X20107480Y-18316190D01*
X19932917Y-18459213D01*
X19763390Y-18598155D01*
X19599608Y-18732435D01*
X19442277Y-18861473D01*
X19292102Y-18984688D01*
X19149791Y-19101500D01*
X19016049Y-19211328D01*
X18891583Y-19313591D01*
X18777099Y-19407710D01*
X18673304Y-19493102D01*
X18580905Y-19569189D01*
X18500607Y-19635388D01*
X18433117Y-19691121D01*
X18379141Y-19735805D01*
X18339386Y-19768862D01*
X18314558Y-19789709D01*
X18305364Y-19797766D01*
X18305325Y-19797829D01*
X18313255Y-19804853D01*
X18336704Y-19824586D01*
X18374814Y-19856325D01*
X18426729Y-19899368D01*
X18491592Y-19953010D01*
X18568548Y-20016550D01*
X18656739Y-20089283D01*
X18755309Y-20170508D01*
X18863401Y-20259520D01*
X18980158Y-20355617D01*
X19104725Y-20458096D01*
X19236244Y-20566253D01*
X19373859Y-20679386D01*
X19516713Y-20796791D01*
X19663951Y-20917766D01*
X19814714Y-21041607D01*
X19968147Y-21167611D01*
X20123393Y-21295075D01*
X20279596Y-21423296D01*
X20435898Y-21551572D01*
X20591444Y-21679198D01*
X20745377Y-21805472D01*
X20896839Y-21929690D01*
X21044976Y-22051151D01*
X21188929Y-22169150D01*
X21327843Y-22282984D01*
X21460861Y-22391951D01*
X21587126Y-22495347D01*
X21705782Y-22592470D01*
X21815972Y-22682615D01*
X21916839Y-22765081D01*
X22007528Y-22839164D01*
X22087181Y-22904161D01*
X22154942Y-22959369D01*
X22209954Y-23004084D01*
X22251361Y-23037605D01*
X22278307Y-23059226D01*
X22288157Y-23066945D01*
X22292290Y-23072711D01*
X22292705Y-23082827D01*
X22288514Y-23099473D01*
X22278829Y-23124831D01*
X22262763Y-23161082D01*
X22239430Y-23210406D01*
X22207940Y-23274984D01*
X22182647Y-23326237D01*
X22145618Y-23400157D01*
X22106792Y-23476060D01*
X22067573Y-23551349D01*
X22029364Y-23623428D01*
X21993566Y-23689700D01*
X21961585Y-23747569D01*
X21934823Y-23794439D01*
X21914682Y-23827713D01*
X21902567Y-23844795D01*
X21902204Y-23845171D01*
X21893506Y-23839168D01*
X21869077Y-23820253D01*
X21829551Y-23788941D01*
X21775560Y-23745749D01*
X21707738Y-23691190D01*
X21626716Y-23625779D01*
X21533128Y-23550032D01*
X21427607Y-23464463D01*
X21310786Y-23369588D01*
X21183297Y-23265921D01*
X21045774Y-23153978D01*
X20898849Y-23034273D01*
X20743155Y-22907321D01*
X20579326Y-22773638D01*
X20407993Y-22633738D01*
X20229791Y-22488135D01*
X20045351Y-22337346D01*
X19855307Y-22181886D01*
X19660292Y-22022268D01*
X19460939Y-21859008D01*
X19423612Y-21828430D01*
X19223543Y-21664491D01*
X19027759Y-21504001D01*
X18836891Y-21347479D01*
X18651568Y-21195445D01*
X18472423Y-21048416D01*
X18300084Y-20906913D01*
X18135183Y-20771455D01*
X17978351Y-20642560D01*
X17830217Y-20520747D01*
X17691412Y-20406535D01*
X17562566Y-20300443D01*
X17444311Y-20202991D01*
X17337276Y-20114697D01*
X17242093Y-20036081D01*
X17159391Y-19967660D01*
X17089801Y-19909955D01*
X17033954Y-19863484D01*
X16992480Y-19828767D01*
X16966010Y-19806321D01*
X16955174Y-19796667D01*
X16954933Y-19796326D01*
X16963205Y-19789075D01*
X16987223Y-19768936D01*
X17026355Y-19736426D01*
X17079967Y-19692067D01*
X17147427Y-19636377D01*
X17228104Y-19569876D01*
X17321365Y-19493084D01*
X17426578Y-19406520D01*
X17543109Y-19310703D01*
X17670328Y-19206153D01*
X17807601Y-19093390D01*
X17954296Y-18972933D01*
X18109782Y-18845301D01*
X18273425Y-18711015D01*
X18444593Y-18570593D01*
X18622654Y-18424556D01*
X18806975Y-18273422D01*
X18996925Y-18117711D01*
X19191871Y-17957943D01*
X19391180Y-17794638D01*
X19425059Y-17766883D01*
X19669719Y-17566475D01*
X19898517Y-17379115D01*
X20111940Y-17204408D01*
X20310477Y-17041959D01*
X20494615Y-16891374D01*
X20664842Y-16752257D01*
X20821645Y-16624214D01*
X20965513Y-16506851D01*
X21096934Y-16399772D01*
X21216395Y-16302583D01*
X21324384Y-16214889D01*
X21421389Y-16136295D01*
X21507897Y-16066406D01*
X21584397Y-16004828D01*
X21651376Y-15951166D01*
X21709323Y-15905025D01*
X21758724Y-15866011D01*
X21800068Y-15833728D01*
X21833842Y-15807782D01*
X21860535Y-15787779D01*
X21880634Y-15773322D01*
X21894628Y-15764018D01*
X21903003Y-15759473D01*
X21906126Y-15759108D01*
X21919268Y-15777309D01*
X21919268Y-15777309D01*
G37*
X21919268Y-15777309D02*
X21940448Y-15812008D01*
X21968329Y-15860730D01*
X22001574Y-15920995D01*
X22038846Y-15990326D01*
X22078806Y-16066246D01*
X22120117Y-16146276D01*
X22161443Y-16227939D01*
X22187711Y-16280787D01*
X22223364Y-16353293D01*
X22250462Y-16409246D01*
X22269922Y-16451024D01*
X22282655Y-16481004D01*
X22289577Y-16501565D01*
X22291601Y-16515084D01*
X22289641Y-16523940D01*
X22284611Y-16530510D01*
X22283940Y-16531166D01*
X22274180Y-16539400D01*
X22248755Y-16560456D01*
X22208379Y-16593748D01*
X22153768Y-16638691D01*
X22085634Y-16694699D01*
X22004692Y-16761186D01*
X21911655Y-16837566D01*
X21807239Y-16923254D01*
X21692156Y-17017664D01*
X21567122Y-17120211D01*
X21432850Y-17230308D01*
X21290054Y-17347370D01*
X21139449Y-17470811D01*
X20981748Y-17600045D01*
X20817666Y-17734487D01*
X20647916Y-17873550D01*
X20473213Y-18016650D01*
X20294270Y-18163201D01*
X20286375Y-18169666D01*
X20107480Y-18316190D01*
X19932917Y-18459213D01*
X19763390Y-18598155D01*
X19599608Y-18732435D01*
X19442277Y-18861473D01*
X19292102Y-18984688D01*
X19149791Y-19101500D01*
X19016049Y-19211328D01*
X18891583Y-19313591D01*
X18777099Y-19407710D01*
X18673304Y-19493102D01*
X18580905Y-19569189D01*
X18500607Y-19635388D01*
X18433117Y-19691121D01*
X18379141Y-19735805D01*
X18339386Y-19768862D01*
X18314558Y-19789709D01*
X18305364Y-19797766D01*
X18305325Y-19797829D01*
X18313255Y-19804853D01*
X18336704Y-19824586D01*
X18374814Y-19856325D01*
X18426729Y-19899368D01*
X18491592Y-19953010D01*
X18568548Y-20016550D01*
X18656739Y-20089283D01*
X18755309Y-20170508D01*
X18863401Y-20259520D01*
X18980158Y-20355617D01*
X19104725Y-20458096D01*
X19236244Y-20566253D01*
X19373859Y-20679386D01*
X19516713Y-20796791D01*
X19663951Y-20917766D01*
X19814714Y-21041607D01*
X19968147Y-21167611D01*
X20123393Y-21295075D01*
X20279596Y-21423296D01*
X20435898Y-21551572D01*
X20591444Y-21679198D01*
X20745377Y-21805472D01*
X20896839Y-21929690D01*
X21044976Y-22051151D01*
X21188929Y-22169150D01*
X21327843Y-22282984D01*
X21460861Y-22391951D01*
X21587126Y-22495347D01*
X21705782Y-22592470D01*
X21815972Y-22682615D01*
X21916839Y-22765081D01*
X22007528Y-22839164D01*
X22087181Y-22904161D01*
X22154942Y-22959369D01*
X22209954Y-23004084D01*
X22251361Y-23037605D01*
X22278307Y-23059226D01*
X22288157Y-23066945D01*
X22292290Y-23072711D01*
X22292705Y-23082827D01*
X22288514Y-23099473D01*
X22278829Y-23124831D01*
X22262763Y-23161082D01*
X22239430Y-23210406D01*
X22207940Y-23274984D01*
X22182647Y-23326237D01*
X22145618Y-23400157D01*
X22106792Y-23476060D01*
X22067573Y-23551349D01*
X22029364Y-23623428D01*
X21993566Y-23689700D01*
X21961585Y-23747569D01*
X21934823Y-23794439D01*
X21914682Y-23827713D01*
X21902567Y-23844795D01*
X21902204Y-23845171D01*
X21893506Y-23839168D01*
X21869077Y-23820253D01*
X21829551Y-23788941D01*
X21775560Y-23745749D01*
X21707738Y-23691190D01*
X21626716Y-23625779D01*
X21533128Y-23550032D01*
X21427607Y-23464463D01*
X21310786Y-23369588D01*
X21183297Y-23265921D01*
X21045774Y-23153978D01*
X20898849Y-23034273D01*
X20743155Y-22907321D01*
X20579326Y-22773638D01*
X20407993Y-22633738D01*
X20229791Y-22488135D01*
X20045351Y-22337346D01*
X19855307Y-22181886D01*
X19660292Y-22022268D01*
X19460939Y-21859008D01*
X19423612Y-21828430D01*
X19223543Y-21664491D01*
X19027759Y-21504001D01*
X18836891Y-21347479D01*
X18651568Y-21195445D01*
X18472423Y-21048416D01*
X18300084Y-20906913D01*
X18135183Y-20771455D01*
X17978351Y-20642560D01*
X17830217Y-20520747D01*
X17691412Y-20406535D01*
X17562566Y-20300443D01*
X17444311Y-20202991D01*
X17337276Y-20114697D01*
X17242093Y-20036081D01*
X17159391Y-19967660D01*
X17089801Y-19909955D01*
X17033954Y-19863484D01*
X16992480Y-19828767D01*
X16966010Y-19806321D01*
X16955174Y-19796667D01*
X16954933Y-19796326D01*
X16963205Y-19789075D01*
X16987223Y-19768936D01*
X17026355Y-19736426D01*
X17079967Y-19692067D01*
X17147427Y-19636377D01*
X17228104Y-19569876D01*
X17321365Y-19493084D01*
X17426578Y-19406520D01*
X17543109Y-19310703D01*
X17670328Y-19206153D01*
X17807601Y-19093390D01*
X17954296Y-18972933D01*
X18109782Y-18845301D01*
X18273425Y-18711015D01*
X18444593Y-18570593D01*
X18622654Y-18424556D01*
X18806975Y-18273422D01*
X18996925Y-18117711D01*
X19191871Y-17957943D01*
X19391180Y-17794638D01*
X19425059Y-17766883D01*
X19669719Y-17566475D01*
X19898517Y-17379115D01*
X20111940Y-17204408D01*
X20310477Y-17041959D01*
X20494615Y-16891374D01*
X20664842Y-16752257D01*
X20821645Y-16624214D01*
X20965513Y-16506851D01*
X21096934Y-16399772D01*
X21216395Y-16302583D01*
X21324384Y-16214889D01*
X21421389Y-16136295D01*
X21507897Y-16066406D01*
X21584397Y-16004828D01*
X21651376Y-15951166D01*
X21709323Y-15905025D01*
X21758724Y-15866011D01*
X21800068Y-15833728D01*
X21833842Y-15807782D01*
X21860535Y-15787779D01*
X21880634Y-15773322D01*
X21894628Y-15764018D01*
X21903003Y-15759473D01*
X21906126Y-15759108D01*
X21919268Y-15777309D01*
G36*
X19680720Y-13313737D02*
X19697797Y-13322532D01*
X19723051Y-13339376D01*
X19759108Y-13365703D01*
X19808592Y-13402951D01*
X19826944Y-13416845D01*
X19894676Y-13469185D01*
X19973480Y-13531791D01*
X20058663Y-13600805D01*
X20145534Y-13672367D01*
X20229401Y-13742618D01*
X20305573Y-13807698D01*
X20359542Y-13854980D01*
X20411542Y-13901255D01*
X17709090Y-16115086D01*
X17499725Y-16286580D01*
X17294564Y-16454598D01*
X17094212Y-16618646D01*
X16899275Y-16778228D01*
X16710358Y-16932851D01*
X16528065Y-17082020D01*
X16353003Y-17225240D01*
X16185775Y-17362018D01*
X16026987Y-17491858D01*
X15877245Y-17614266D01*
X15737152Y-17728748D01*
X15607315Y-17834809D01*
X15488338Y-17931955D01*
X15380826Y-18019692D01*
X15285385Y-18097524D01*
X15202620Y-18164957D01*
X15133135Y-18221498D01*
X15077536Y-18266651D01*
X15036427Y-18299922D01*
X15010415Y-18320817D01*
X15000103Y-18328841D01*
X14999955Y-18328917D01*
X14991349Y-18322290D01*
X14966977Y-18302740D01*
X14927445Y-18270761D01*
X14873357Y-18226848D01*
X14805320Y-18171494D01*
X14723938Y-18105195D01*
X14629816Y-18028445D01*
X14523559Y-17941738D01*
X14405773Y-17845568D01*
X14277062Y-17740431D01*
X14138031Y-17626821D01*
X13989286Y-17505232D01*
X13831432Y-17376158D01*
X13665073Y-17240094D01*
X13490816Y-17097535D01*
X13309264Y-16948975D01*
X13121023Y-16794909D01*
X12926698Y-16635830D01*
X12726894Y-16472233D01*
X12522217Y-16304614D01*
X12313271Y-16133465D01*
X12290850Y-16115099D01*
X9588428Y-13901281D01*
X9640443Y-13854993D01*
X9706689Y-13797117D01*
X9784517Y-13730872D01*
X9869237Y-13660117D01*
X9956158Y-13588712D01*
X10040587Y-13520517D01*
X10117833Y-13459390D01*
X10173056Y-13416845D01*
X10227204Y-13375945D01*
X10267116Y-13346408D01*
X10295418Y-13326796D01*
X10314733Y-13315674D01*
X10327686Y-13311607D01*
X10336900Y-13313157D01*
X10345001Y-13318889D01*
X10347681Y-13321277D01*
X10357630Y-13329577D01*
X10383295Y-13350744D01*
X10424017Y-13384238D01*
X10479136Y-13429517D01*
X10547991Y-13486040D01*
X10629922Y-13553265D01*
X10724268Y-13630652D01*
X10830370Y-13717658D01*
X10947566Y-13813744D01*
X11075197Y-13918366D01*
X11212601Y-14030985D01*
X11359119Y-14151058D01*
X11514091Y-14278045D01*
X11676856Y-14411404D01*
X11846753Y-14550593D01*
X12023122Y-14695073D01*
X12205303Y-14844301D01*
X12392636Y-14997735D01*
X12584460Y-15154836D01*
X12684857Y-15237054D01*
X14999923Y-17132897D01*
X17315066Y-15237049D01*
X17508951Y-15078273D01*
X17698685Y-14922882D01*
X17883608Y-14771420D01*
X18063059Y-14624427D01*
X18236379Y-14482445D01*
X18402906Y-14346014D01*
X18561980Y-14215676D01*
X18712941Y-14091973D01*
X18855129Y-13975446D01*
X18987884Y-13866635D01*
X19110544Y-13766082D01*
X19222449Y-13674329D01*
X19322940Y-13591917D01*
X19411356Y-13519387D01*
X19487036Y-13457280D01*
X19549320Y-13406138D01*
X19597548Y-13366501D01*
X19631059Y-13338912D01*
X19649193Y-13323911D01*
X19652319Y-13321272D01*
X19660606Y-13314542D01*
X19669198Y-13311552D01*
X19680720Y-13313737D01*
X19680720Y-13313737D01*
G37*
X19680720Y-13313737D02*
X19697797Y-13322532D01*
X19723051Y-13339376D01*
X19759108Y-13365703D01*
X19808592Y-13402951D01*
X19826944Y-13416845D01*
X19894676Y-13469185D01*
X19973480Y-13531791D01*
X20058663Y-13600805D01*
X20145534Y-13672367D01*
X20229401Y-13742618D01*
X20305573Y-13807698D01*
X20359542Y-13854980D01*
X20411542Y-13901255D01*
X17709090Y-16115086D01*
X17499725Y-16286580D01*
X17294564Y-16454598D01*
X17094212Y-16618646D01*
X16899275Y-16778228D01*
X16710358Y-16932851D01*
X16528065Y-17082020D01*
X16353003Y-17225240D01*
X16185775Y-17362018D01*
X16026987Y-17491858D01*
X15877245Y-17614266D01*
X15737152Y-17728748D01*
X15607315Y-17834809D01*
X15488338Y-17931955D01*
X15380826Y-18019692D01*
X15285385Y-18097524D01*
X15202620Y-18164957D01*
X15133135Y-18221498D01*
X15077536Y-18266651D01*
X15036427Y-18299922D01*
X15010415Y-18320817D01*
X15000103Y-18328841D01*
X14999955Y-18328917D01*
X14991349Y-18322290D01*
X14966977Y-18302740D01*
X14927445Y-18270761D01*
X14873357Y-18226848D01*
X14805320Y-18171494D01*
X14723938Y-18105195D01*
X14629816Y-18028445D01*
X14523559Y-17941738D01*
X14405773Y-17845568D01*
X14277062Y-17740431D01*
X14138031Y-17626821D01*
X13989286Y-17505232D01*
X13831432Y-17376158D01*
X13665073Y-17240094D01*
X13490816Y-17097535D01*
X13309264Y-16948975D01*
X13121023Y-16794909D01*
X12926698Y-16635830D01*
X12726894Y-16472233D01*
X12522217Y-16304614D01*
X12313271Y-16133465D01*
X12290850Y-16115099D01*
X9588428Y-13901281D01*
X9640443Y-13854993D01*
X9706689Y-13797117D01*
X9784517Y-13730872D01*
X9869237Y-13660117D01*
X9956158Y-13588712D01*
X10040587Y-13520517D01*
X10117833Y-13459390D01*
X10173056Y-13416845D01*
X10227204Y-13375945D01*
X10267116Y-13346408D01*
X10295418Y-13326796D01*
X10314733Y-13315674D01*
X10327686Y-13311607D01*
X10336900Y-13313157D01*
X10345001Y-13318889D01*
X10347681Y-13321277D01*
X10357630Y-13329577D01*
X10383295Y-13350744D01*
X10424017Y-13384238D01*
X10479136Y-13429517D01*
X10547991Y-13486040D01*
X10629922Y-13553265D01*
X10724268Y-13630652D01*
X10830370Y-13717658D01*
X10947566Y-13813744D01*
X11075197Y-13918366D01*
X11212601Y-14030985D01*
X11359119Y-14151058D01*
X11514091Y-14278045D01*
X11676856Y-14411404D01*
X11846753Y-14550593D01*
X12023122Y-14695073D01*
X12205303Y-14844301D01*
X12392636Y-14997735D01*
X12584460Y-15154836D01*
X12684857Y-15237054D01*
X14999923Y-17132897D01*
X17315066Y-15237049D01*
X17508951Y-15078273D01*
X17698685Y-14922882D01*
X17883608Y-14771420D01*
X18063059Y-14624427D01*
X18236379Y-14482445D01*
X18402906Y-14346014D01*
X18561980Y-14215676D01*
X18712941Y-14091973D01*
X18855129Y-13975446D01*
X18987884Y-13866635D01*
X19110544Y-13766082D01*
X19222449Y-13674329D01*
X19322940Y-13591917D01*
X19411356Y-13519387D01*
X19487036Y-13457280D01*
X19549320Y-13406138D01*
X19597548Y-13366501D01*
X19631059Y-13338912D01*
X19649193Y-13323911D01*
X19652319Y-13321272D01*
X19660606Y-13314542D01*
X19669198Y-13311552D01*
X19680720Y-13313737D01*
G36*
X26994460Y-1358076D02*
X27023712Y-1371494D01*
X27065428Y-1391913D01*
X27116562Y-1417744D01*
X27174067Y-1447396D01*
X27234898Y-1479279D01*
X27296006Y-1511804D01*
X27354348Y-1543379D01*
X27406874Y-1572415D01*
X27450541Y-1597321D01*
X27467167Y-1607167D01*
X27597637Y-1688115D01*
X27711641Y-1764159D01*
X27812549Y-1837781D01*
X27903732Y-1911466D01*
X27988559Y-1987695D01*
X28005049Y-2003457D01*
X28091830Y-2094500D01*
X28158861Y-2181502D01*
X28206853Y-2265839D01*
X28236519Y-2348887D01*
X28248569Y-2432025D01*
X28248208Y-2474115D01*
X28243020Y-2526567D01*
X28232921Y-2567587D01*
X28215451Y-2606766D01*
X28213032Y-2611268D01*
X28174581Y-2666760D01*
X28120617Y-2723420D01*
X28056019Y-2776744D01*
X27985666Y-2822227D01*
X27982762Y-2823841D01*
X27908133Y-2859567D01*
X27815856Y-2894732D01*
X27709446Y-2928387D01*
X27592418Y-2959581D01*
X27468288Y-2987365D01*
X27340571Y-3010791D01*
X27232428Y-3026489D01*
X27129981Y-3039465D01*
X27124323Y-3114462D01*
X27122573Y-3145536D01*
X27120588Y-3194007D01*
X27118487Y-3256110D01*
X27116391Y-3328076D01*
X27114417Y-3406141D01*
X27112911Y-3475209D01*
X27109958Y-3610513D01*
X27106669Y-3741051D01*
X27103112Y-3865182D01*
X27099354Y-3981263D01*
X27095465Y-4087650D01*
X27091512Y-4182701D01*
X27087564Y-4264773D01*
X27083689Y-4332223D01*
X27079955Y-4383409D01*
X27076430Y-4416688D01*
X27073237Y-4430354D01*
X27054516Y-4441010D01*
X27039892Y-4443021D01*
X27024267Y-4438314D01*
X26992713Y-4425420D01*
X26948205Y-4405677D01*
X26893714Y-4380424D01*
X26832216Y-4350999D01*
X26795125Y-4332852D01*
X26653275Y-4261066D01*
X26528892Y-4193926D01*
X26419281Y-4129647D01*
X26321743Y-4066442D01*
X26233581Y-4002524D01*
X26152098Y-3936106D01*
X26074597Y-3865402D01*
X26043629Y-3835042D01*
X25979760Y-3768633D01*
X25930642Y-3710982D01*
X25893867Y-3658458D01*
X25867023Y-3607429D01*
X25847703Y-3554262D01*
X25841086Y-3529750D01*
X25830144Y-3444937D01*
X25831174Y-3436458D01*
X26008675Y-3436458D01*
X26011380Y-3498327D01*
X26034761Y-3564701D01*
X26049794Y-3592280D01*
X26095366Y-3657374D01*
X26157658Y-3729229D01*
X26234237Y-3805602D01*
X26322667Y-3884251D01*
X26420513Y-3962931D01*
X26525342Y-4039400D01*
X26562883Y-4064994D01*
X26602953Y-4091147D01*
X26651749Y-4121948D01*
X26706179Y-4155560D01*
X26763152Y-4190143D01*
X26819577Y-4223860D01*
X26872360Y-4254872D01*
X26918411Y-4281342D01*
X26954639Y-4301432D01*
X26977951Y-4313302D01*
X26984609Y-4315733D01*
X26987950Y-4306082D01*
X26989616Y-4278525D01*
X26989536Y-4236259D01*
X26987640Y-4182483D01*
X26987599Y-4181646D01*
X26985943Y-4142607D01*
X26983854Y-4085308D01*
X26981424Y-4012649D01*
X26978741Y-3927531D01*
X26975895Y-3832852D01*
X26972977Y-3731514D01*
X26970076Y-3626417D01*
X26968124Y-3552923D01*
X26955226Y-3059137D01*
X26917509Y-3064251D01*
X26741604Y-3090976D01*
X26583241Y-3121006D01*
X26443091Y-3154161D01*
X26321824Y-3190258D01*
X26220111Y-3229115D01*
X26138623Y-3270550D01*
X26124229Y-3279506D01*
X26065138Y-3326885D01*
X26026608Y-3379256D01*
X26008675Y-3436458D01*
X25831174Y-3436458D01*
X25840004Y-3363834D01*
X25870586Y-3286676D01*
X25921814Y-3213696D01*
X25959457Y-3174771D01*
X26033384Y-3116865D01*
X26126855Y-3063281D01*
X26240187Y-3013883D01*
X26373697Y-2968532D01*
X26527704Y-2927092D01*
X26535834Y-2925147D01*
X26578567Y-2915725D01*
X26632259Y-2904989D01*
X26692436Y-2893712D01*
X26754625Y-2882666D01*
X26814352Y-2872621D01*
X26867145Y-2864352D01*
X26908530Y-2858628D01*
X26934034Y-2856223D01*
X26935387Y-2856196D01*
X26938017Y-2852341D01*
X26940205Y-2839989D01*
X26940566Y-2835448D01*
X27130781Y-2835448D01*
X27164036Y-2830070D01*
X27187247Y-2826309D01*
X27225989Y-2820024D01*
X27274903Y-2812085D01*
X27328627Y-2803361D01*
X27329590Y-2803205D01*
X27464151Y-2778042D01*
X27589099Y-2748098D01*
X27702664Y-2714073D01*
X27803075Y-2676665D01*
X27888564Y-2636574D01*
X27957359Y-2594498D01*
X28007692Y-2551138D01*
X28026194Y-2528000D01*
X28041076Y-2501429D01*
X28047459Y-2474281D01*
X28047328Y-2437168D01*
X28046878Y-2430272D01*
X28042691Y-2395660D01*
X28033678Y-2365871D01*
X28016882Y-2333618D01*
X27992436Y-2296121D01*
X27928211Y-2215003D01*
X27843554Y-2129634D01*
X27738718Y-2040237D01*
X27613961Y-1947034D01*
X27510238Y-1876578D01*
X27459501Y-1844090D01*
X27404482Y-1810137D01*
X27348086Y-1776366D01*
X27293215Y-1744426D01*
X27242772Y-1715963D01*
X27199662Y-1692625D01*
X27166787Y-1676060D01*
X27147052Y-1667916D01*
X27142627Y-1667981D01*
X27142195Y-1679788D01*
X27141617Y-1710811D01*
X27140916Y-1759100D01*
X27140114Y-1822705D01*
X27139235Y-1899676D01*
X27138300Y-1988062D01*
X27137333Y-2085914D01*
X27136357Y-2191282D01*
X27135789Y-2255745D01*
X27130781Y-2835448D01*
X26940566Y-2835448D01*
X26941962Y-2817888D01*
X26943298Y-2784782D01*
X26944225Y-2739420D01*
X26944752Y-2680548D01*
X26944890Y-2606911D01*
X26944650Y-2517258D01*
X26944043Y-2410333D01*
X26943080Y-2284885D01*
X26941770Y-2139659D01*
X26941611Y-2123012D01*
X26940266Y-1980304D01*
X26939185Y-1857264D01*
X26938392Y-1752393D01*
X26937908Y-1664195D01*
X26937756Y-1591170D01*
X26937958Y-1531822D01*
X26938538Y-1484652D01*
X26939517Y-1448163D01*
X26940918Y-1420858D01*
X26942764Y-1401237D01*
X26945077Y-1387803D01*
X26947880Y-1379060D01*
X26951196Y-1373508D01*
X26952917Y-1371596D01*
X26970601Y-1357397D01*
X26980718Y-1353250D01*
X26994460Y-1358076D01*
X26994460Y-1358076D01*
G37*
X26994460Y-1358076D02*
X27023712Y-1371494D01*
X27065428Y-1391913D01*
X27116562Y-1417744D01*
X27174067Y-1447396D01*
X27234898Y-1479279D01*
X27296006Y-1511804D01*
X27354348Y-1543379D01*
X27406874Y-1572415D01*
X27450541Y-1597321D01*
X27467167Y-1607167D01*
X27597637Y-1688115D01*
X27711641Y-1764159D01*
X27812549Y-1837781D01*
X27903732Y-1911466D01*
X27988559Y-1987695D01*
X28005049Y-2003457D01*
X28091830Y-2094500D01*
X28158861Y-2181502D01*
X28206853Y-2265839D01*
X28236519Y-2348887D01*
X28248569Y-2432025D01*
X28248208Y-2474115D01*
X28243020Y-2526567D01*
X28232921Y-2567587D01*
X28215451Y-2606766D01*
X28213032Y-2611268D01*
X28174581Y-2666760D01*
X28120617Y-2723420D01*
X28056019Y-2776744D01*
X27985666Y-2822227D01*
X27982762Y-2823841D01*
X27908133Y-2859567D01*
X27815856Y-2894732D01*
X27709446Y-2928387D01*
X27592418Y-2959581D01*
X27468288Y-2987365D01*
X27340571Y-3010791D01*
X27232428Y-3026489D01*
X27129981Y-3039465D01*
X27124323Y-3114462D01*
X27122573Y-3145536D01*
X27120588Y-3194007D01*
X27118487Y-3256110D01*
X27116391Y-3328076D01*
X27114417Y-3406141D01*
X27112911Y-3475209D01*
X27109958Y-3610513D01*
X27106669Y-3741051D01*
X27103112Y-3865182D01*
X27099354Y-3981263D01*
X27095465Y-4087650D01*
X27091512Y-4182701D01*
X27087564Y-4264773D01*
X27083689Y-4332223D01*
X27079955Y-4383409D01*
X27076430Y-4416688D01*
X27073237Y-4430354D01*
X27054516Y-4441010D01*
X27039892Y-4443021D01*
X27024267Y-4438314D01*
X26992713Y-4425420D01*
X26948205Y-4405677D01*
X26893714Y-4380424D01*
X26832216Y-4350999D01*
X26795125Y-4332852D01*
X26653275Y-4261066D01*
X26528892Y-4193926D01*
X26419281Y-4129647D01*
X26321743Y-4066442D01*
X26233581Y-4002524D01*
X26152098Y-3936106D01*
X26074597Y-3865402D01*
X26043629Y-3835042D01*
X25979760Y-3768633D01*
X25930642Y-3710982D01*
X25893867Y-3658458D01*
X25867023Y-3607429D01*
X25847703Y-3554262D01*
X25841086Y-3529750D01*
X25830144Y-3444937D01*
X25831174Y-3436458D01*
X26008675Y-3436458D01*
X26011380Y-3498327D01*
X26034761Y-3564701D01*
X26049794Y-3592280D01*
X26095366Y-3657374D01*
X26157658Y-3729229D01*
X26234237Y-3805602D01*
X26322667Y-3884251D01*
X26420513Y-3962931D01*
X26525342Y-4039400D01*
X26562883Y-4064994D01*
X26602953Y-4091147D01*
X26651749Y-4121948D01*
X26706179Y-4155560D01*
X26763152Y-4190143D01*
X26819577Y-4223860D01*
X26872360Y-4254872D01*
X26918411Y-4281342D01*
X26954639Y-4301432D01*
X26977951Y-4313302D01*
X26984609Y-4315733D01*
X26987950Y-4306082D01*
X26989616Y-4278525D01*
X26989536Y-4236259D01*
X26987640Y-4182483D01*
X26987599Y-4181646D01*
X26985943Y-4142607D01*
X26983854Y-4085308D01*
X26981424Y-4012649D01*
X26978741Y-3927531D01*
X26975895Y-3832852D01*
X26972977Y-3731514D01*
X26970076Y-3626417D01*
X26968124Y-3552923D01*
X26955226Y-3059137D01*
X26917509Y-3064251D01*
X26741604Y-3090976D01*
X26583241Y-3121006D01*
X26443091Y-3154161D01*
X26321824Y-3190258D01*
X26220111Y-3229115D01*
X26138623Y-3270550D01*
X26124229Y-3279506D01*
X26065138Y-3326885D01*
X26026608Y-3379256D01*
X26008675Y-3436458D01*
X25831174Y-3436458D01*
X25840004Y-3363834D01*
X25870586Y-3286676D01*
X25921814Y-3213696D01*
X25959457Y-3174771D01*
X26033384Y-3116865D01*
X26126855Y-3063281D01*
X26240187Y-3013883D01*
X26373697Y-2968532D01*
X26527704Y-2927092D01*
X26535834Y-2925147D01*
X26578567Y-2915725D01*
X26632259Y-2904989D01*
X26692436Y-2893712D01*
X26754625Y-2882666D01*
X26814352Y-2872621D01*
X26867145Y-2864352D01*
X26908530Y-2858628D01*
X26934034Y-2856223D01*
X26935387Y-2856196D01*
X26938017Y-2852341D01*
X26940205Y-2839989D01*
X26940566Y-2835448D01*
X27130781Y-2835448D01*
X27164036Y-2830070D01*
X27187247Y-2826309D01*
X27225989Y-2820024D01*
X27274903Y-2812085D01*
X27328627Y-2803361D01*
X27329590Y-2803205D01*
X27464151Y-2778042D01*
X27589099Y-2748098D01*
X27702664Y-2714073D01*
X27803075Y-2676665D01*
X27888564Y-2636574D01*
X27957359Y-2594498D01*
X28007692Y-2551138D01*
X28026194Y-2528000D01*
X28041076Y-2501429D01*
X28047459Y-2474281D01*
X28047328Y-2437168D01*
X28046878Y-2430272D01*
X28042691Y-2395660D01*
X28033678Y-2365871D01*
X28016882Y-2333618D01*
X27992436Y-2296121D01*
X27928211Y-2215003D01*
X27843554Y-2129634D01*
X27738718Y-2040237D01*
X27613961Y-1947034D01*
X27510238Y-1876578D01*
X27459501Y-1844090D01*
X27404482Y-1810137D01*
X27348086Y-1776366D01*
X27293215Y-1744426D01*
X27242772Y-1715963D01*
X27199662Y-1692625D01*
X27166787Y-1676060D01*
X27147052Y-1667916D01*
X27142627Y-1667981D01*
X27142195Y-1679788D01*
X27141617Y-1710811D01*
X27140916Y-1759100D01*
X27140114Y-1822705D01*
X27139235Y-1899676D01*
X27138300Y-1988062D01*
X27137333Y-2085914D01*
X27136357Y-2191282D01*
X27135789Y-2255745D01*
X27130781Y-2835448D01*
X26940566Y-2835448D01*
X26941962Y-2817888D01*
X26943298Y-2784782D01*
X26944225Y-2739420D01*
X26944752Y-2680548D01*
X26944890Y-2606911D01*
X26944650Y-2517258D01*
X26944043Y-2410333D01*
X26943080Y-2284885D01*
X26941770Y-2139659D01*
X26941611Y-2123012D01*
X26940266Y-1980304D01*
X26939185Y-1857264D01*
X26938392Y-1752393D01*
X26937908Y-1664195D01*
X26937756Y-1591170D01*
X26937958Y-1531822D01*
X26938538Y-1484652D01*
X26939517Y-1448163D01*
X26940918Y-1420858D01*
X26942764Y-1401237D01*
X26945077Y-1387803D01*
X26947880Y-1379060D01*
X26951196Y-1373508D01*
X26952917Y-1371596D01*
X26970601Y-1357397D01*
X26980718Y-1353250D01*
X26994460Y-1358076D01*
G36*
X17976868Y-1651836D02*
X18019401Y-1663882D01*
X18064753Y-1693359D01*
X18102356Y-1738126D01*
X18127882Y-1792588D01*
X18132612Y-1810313D01*
X18135144Y-1828722D01*
X18137271Y-1859658D01*
X18139004Y-1904098D01*
X18140351Y-1963016D01*
X18141323Y-2037389D01*
X18141929Y-2128191D01*
X18142180Y-2236398D01*
X18142084Y-2362986D01*
X18141652Y-2508929D01*
X18141025Y-2649709D01*
X18137092Y-3432875D01*
X18108462Y-3538709D01*
X18058114Y-3686587D01*
X17990776Y-3822158D01*
X17907215Y-3944639D01*
X17808197Y-4053246D01*
X17694488Y-4147194D01*
X17566854Y-4225699D01*
X17426061Y-4287977D01*
X17352507Y-4312331D01*
X17272776Y-4330209D01*
X17180014Y-4341617D01*
X17081414Y-4346321D01*
X16984173Y-4344085D01*
X16895485Y-4334676D01*
X16861662Y-4328342D01*
X16716530Y-4286176D01*
X16581373Y-4225827D01*
X16457300Y-4148334D01*
X16345424Y-4054736D01*
X16246854Y-3946071D01*
X16162703Y-3823380D01*
X16094082Y-3687700D01*
X16051099Y-3570459D01*
X16021581Y-3475209D01*
X16015153Y-1806183D01*
X16038025Y-1758935D01*
X16072398Y-1709371D01*
X16117678Y-1674971D01*
X16170177Y-1655569D01*
X16226212Y-1650995D01*
X16282097Y-1661081D01*
X16334146Y-1685658D01*
X16378674Y-1724559D01*
X16411270Y-1775987D01*
X16413768Y-1788740D01*
X16416067Y-1815942D01*
X16418182Y-1858336D01*
X16420128Y-1916664D01*
X16421920Y-1991671D01*
X16423574Y-2084099D01*
X16425105Y-2194693D01*
X16426528Y-2324195D01*
X16427858Y-2473349D01*
X16429111Y-2642898D01*
X16429157Y-2649709D01*
X16430200Y-2803402D01*
X16431154Y-2937422D01*
X16432065Y-3053264D01*
X16432982Y-3152420D01*
X16433952Y-3236384D01*
X16435023Y-3306651D01*
X16436242Y-3364713D01*
X16437657Y-3412064D01*
X16439315Y-3450199D01*
X16441265Y-3480610D01*
X16443553Y-3504791D01*
X16446228Y-3524236D01*
X16449337Y-3540438D01*
X16452927Y-3554892D01*
X16457047Y-3569090D01*
X16458629Y-3574296D01*
X16496219Y-3683067D01*
X16538596Y-3776804D01*
X16582613Y-3852623D01*
X16631177Y-3922108D01*
X16678985Y-3977287D01*
X16731655Y-4024039D01*
X16778488Y-4057616D01*
X16875292Y-4111140D01*
X16972838Y-4143529D01*
X17071046Y-4154776D01*
X17169831Y-4144875D01*
X17269110Y-4113819D01*
X17302955Y-4098444D01*
X17394332Y-4042291D01*
X17478138Y-3967994D01*
X17552556Y-3877780D01*
X17615769Y-3773873D01*
X17665962Y-3658501D01*
X17668934Y-3650071D01*
X17678567Y-3622305D01*
X17686989Y-3597077D01*
X17694293Y-3572815D01*
X17700570Y-3547949D01*
X17705914Y-3520904D01*
X17710417Y-3490110D01*
X17714169Y-3453993D01*
X17717265Y-3410983D01*
X17719796Y-3359506D01*
X17721854Y-3297990D01*
X17723532Y-3224863D01*
X17724922Y-3138554D01*
X17726116Y-3037489D01*
X17727206Y-2920097D01*
X17728285Y-2784806D01*
X17729445Y-2630043D01*
X17729541Y-2617171D01*
X17735792Y-1780299D01*
X17764198Y-1737390D01*
X17804218Y-1694997D01*
X17856634Y-1665561D01*
X17915999Y-1650651D01*
X17976868Y-1651836D01*
X17976868Y-1651836D01*
G37*
X17976868Y-1651836D02*
X18019401Y-1663882D01*
X18064753Y-1693359D01*
X18102356Y-1738126D01*
X18127882Y-1792588D01*
X18132612Y-1810313D01*
X18135144Y-1828722D01*
X18137271Y-1859658D01*
X18139004Y-1904098D01*
X18140351Y-1963016D01*
X18141323Y-2037389D01*
X18141929Y-2128191D01*
X18142180Y-2236398D01*
X18142084Y-2362986D01*
X18141652Y-2508929D01*
X18141025Y-2649709D01*
X18137092Y-3432875D01*
X18108462Y-3538709D01*
X18058114Y-3686587D01*
X17990776Y-3822158D01*
X17907215Y-3944639D01*
X17808197Y-4053246D01*
X17694488Y-4147194D01*
X17566854Y-4225699D01*
X17426061Y-4287977D01*
X17352507Y-4312331D01*
X17272776Y-4330209D01*
X17180014Y-4341617D01*
X17081414Y-4346321D01*
X16984173Y-4344085D01*
X16895485Y-4334676D01*
X16861662Y-4328342D01*
X16716530Y-4286176D01*
X16581373Y-4225827D01*
X16457300Y-4148334D01*
X16345424Y-4054736D01*
X16246854Y-3946071D01*
X16162703Y-3823380D01*
X16094082Y-3687700D01*
X16051099Y-3570459D01*
X16021581Y-3475209D01*
X16015153Y-1806183D01*
X16038025Y-1758935D01*
X16072398Y-1709371D01*
X16117678Y-1674971D01*
X16170177Y-1655569D01*
X16226212Y-1650995D01*
X16282097Y-1661081D01*
X16334146Y-1685658D01*
X16378674Y-1724559D01*
X16411270Y-1775987D01*
X16413768Y-1788740D01*
X16416067Y-1815942D01*
X16418182Y-1858336D01*
X16420128Y-1916664D01*
X16421920Y-1991671D01*
X16423574Y-2084099D01*
X16425105Y-2194693D01*
X16426528Y-2324195D01*
X16427858Y-2473349D01*
X16429111Y-2642898D01*
X16429157Y-2649709D01*
X16430200Y-2803402D01*
X16431154Y-2937422D01*
X16432065Y-3053264D01*
X16432982Y-3152420D01*
X16433952Y-3236384D01*
X16435023Y-3306651D01*
X16436242Y-3364713D01*
X16437657Y-3412064D01*
X16439315Y-3450199D01*
X16441265Y-3480610D01*
X16443553Y-3504791D01*
X16446228Y-3524236D01*
X16449337Y-3540438D01*
X16452927Y-3554892D01*
X16457047Y-3569090D01*
X16458629Y-3574296D01*
X16496219Y-3683067D01*
X16538596Y-3776804D01*
X16582613Y-3852623D01*
X16631177Y-3922108D01*
X16678985Y-3977287D01*
X16731655Y-4024039D01*
X16778488Y-4057616D01*
X16875292Y-4111140D01*
X16972838Y-4143529D01*
X17071046Y-4154776D01*
X17169831Y-4144875D01*
X17269110Y-4113819D01*
X17302955Y-4098444D01*
X17394332Y-4042291D01*
X17478138Y-3967994D01*
X17552556Y-3877780D01*
X17615769Y-3773873D01*
X17665962Y-3658501D01*
X17668934Y-3650071D01*
X17678567Y-3622305D01*
X17686989Y-3597077D01*
X17694293Y-3572815D01*
X17700570Y-3547949D01*
X17705914Y-3520904D01*
X17710417Y-3490110D01*
X17714169Y-3453993D01*
X17717265Y-3410983D01*
X17719796Y-3359506D01*
X17721854Y-3297990D01*
X17723532Y-3224863D01*
X17724922Y-3138554D01*
X17726116Y-3037489D01*
X17727206Y-2920097D01*
X17728285Y-2784806D01*
X17729445Y-2630043D01*
X17729541Y-2617171D01*
X17735792Y-1780299D01*
X17764198Y-1737390D01*
X17804218Y-1694997D01*
X17856634Y-1665561D01*
X17915999Y-1650651D01*
X17976868Y-1651836D01*
G36*
X15619152Y-1660531D02*
X15670463Y-1685331D01*
X15713306Y-1723571D01*
X15743777Y-1774331D01*
X15750951Y-1795433D01*
X15752692Y-1812264D01*
X15754288Y-1848567D01*
X15755739Y-1902646D01*
X15757044Y-1972809D01*
X15758204Y-2057359D01*
X15759219Y-2154603D01*
X15760089Y-2262845D01*
X15760814Y-2380393D01*
X15761393Y-2505550D01*
X15761828Y-2636622D01*
X15762117Y-2771915D01*
X15762261Y-2909735D01*
X15762259Y-3048386D01*
X15762113Y-3186175D01*
X15761821Y-3321406D01*
X15761384Y-3452385D01*
X15760802Y-3577418D01*
X15760075Y-3694810D01*
X15759202Y-3802866D01*
X15758184Y-3899893D01*
X15757021Y-3984195D01*
X15755713Y-4054078D01*
X15754260Y-4107847D01*
X15752662Y-4143808D01*
X15750951Y-4160151D01*
X15725989Y-4214656D01*
X15687265Y-4256826D01*
X15638637Y-4286052D01*
X15583964Y-4301725D01*
X15527104Y-4303238D01*
X15471916Y-4289981D01*
X15422259Y-4261346D01*
X15382948Y-4218183D01*
X15354542Y-4175264D01*
X15349250Y-3187591D01*
X15343959Y-2199918D01*
X15148662Y-2535938D01*
X15094611Y-2629004D01*
X15033032Y-2735140D01*
X14966977Y-2849084D01*
X14899495Y-2965572D01*
X14833635Y-3079341D01*
X14772448Y-3185127D01*
X14742420Y-3237084D01*
X14695386Y-3318152D01*
X14650878Y-3394214D01*
X14610171Y-3463140D01*
X14574539Y-3522798D01*
X14545258Y-3571058D01*
X14523602Y-3605788D01*
X14510847Y-3624859D01*
X14509091Y-3627051D01*
X14461872Y-3664803D01*
X14406001Y-3686346D01*
X14346336Y-3691547D01*
X14287734Y-3680268D01*
X14235053Y-3652375D01*
X14215446Y-3635255D01*
X14205727Y-3621647D01*
X14186410Y-3591168D01*
X14158389Y-3545329D01*
X14122556Y-3485641D01*
X14079806Y-3413618D01*
X14031033Y-3330770D01*
X13977129Y-3238609D01*
X13918990Y-3138648D01*
X13857507Y-3032397D01*
X13797404Y-2928035D01*
X13407209Y-2248939D01*
X13396625Y-4265541D01*
X13371640Y-4285770D01*
X13335043Y-4303253D01*
X13293107Y-4305446D01*
X13254075Y-4292703D01*
X13237394Y-4280023D01*
X13211417Y-4254046D01*
X13211417Y-1804433D01*
X13233866Y-1758060D01*
X13269106Y-1708524D01*
X13318486Y-1672901D01*
X13378343Y-1653652D01*
X13391785Y-1651932D01*
X13447492Y-1653891D01*
X13501134Y-1668580D01*
X13545194Y-1693579D01*
X13557983Y-1705412D01*
X13566491Y-1718029D01*
X13584710Y-1747606D01*
X13611821Y-1792743D01*
X13647003Y-1852040D01*
X13689434Y-1924098D01*
X13738294Y-2007517D01*
X13792763Y-2100896D01*
X13852019Y-2202836D01*
X13915242Y-2311937D01*
X13981611Y-2426800D01*
X14021651Y-2496250D01*
X14089249Y-2613514D01*
X14153974Y-2725624D01*
X14215026Y-2831207D01*
X14271605Y-2928890D01*
X14322914Y-3017297D01*
X14368152Y-3095054D01*
X14406521Y-3160789D01*
X14437223Y-3213125D01*
X14459457Y-3250691D01*
X14472425Y-3272110D01*
X14475435Y-3276650D01*
X14480179Y-3274712D01*
X14490058Y-3263118D01*
X14505577Y-3241029D01*
X14527242Y-3207605D01*
X14555560Y-3162005D01*
X14591036Y-3103391D01*
X14634178Y-3030922D01*
X14685492Y-2943758D01*
X14745482Y-2841059D01*
X14814657Y-2721985D01*
X14893521Y-2585696D01*
X14931466Y-2519983D01*
X14999766Y-2401853D01*
X15065607Y-2288404D01*
X15128144Y-2181063D01*
X15186535Y-2081258D01*
X15239938Y-1990415D01*
X15287511Y-1909960D01*
X15328409Y-1841321D01*
X15361792Y-1785925D01*
X15386817Y-1745199D01*
X15402640Y-1720569D01*
X15407293Y-1714194D01*
X15453444Y-1676003D01*
X15506739Y-1654944D01*
X15563276Y-1650094D01*
X15619152Y-1660531D01*
X15619152Y-1660531D01*
G37*
X15619152Y-1660531D02*
X15670463Y-1685331D01*
X15713306Y-1723571D01*
X15743777Y-1774331D01*
X15750951Y-1795433D01*
X15752692Y-1812264D01*
X15754288Y-1848567D01*
X15755739Y-1902646D01*
X15757044Y-1972809D01*
X15758204Y-2057359D01*
X15759219Y-2154603D01*
X15760089Y-2262845D01*
X15760814Y-2380393D01*
X15761393Y-2505550D01*
X15761828Y-2636622D01*
X15762117Y-2771915D01*
X15762261Y-2909735D01*
X15762259Y-3048386D01*
X15762113Y-3186175D01*
X15761821Y-3321406D01*
X15761384Y-3452385D01*
X15760802Y-3577418D01*
X15760075Y-3694810D01*
X15759202Y-3802866D01*
X15758184Y-3899893D01*
X15757021Y-3984195D01*
X15755713Y-4054078D01*
X15754260Y-4107847D01*
X15752662Y-4143808D01*
X15750951Y-4160151D01*
X15725989Y-4214656D01*
X15687265Y-4256826D01*
X15638637Y-4286052D01*
X15583964Y-4301725D01*
X15527104Y-4303238D01*
X15471916Y-4289981D01*
X15422259Y-4261346D01*
X15382948Y-4218183D01*
X15354542Y-4175264D01*
X15349250Y-3187591D01*
X15343959Y-2199918D01*
X15148662Y-2535938D01*
X15094611Y-2629004D01*
X15033032Y-2735140D01*
X14966977Y-2849084D01*
X14899495Y-2965572D01*
X14833635Y-3079341D01*
X14772448Y-3185127D01*
X14742420Y-3237084D01*
X14695386Y-3318152D01*
X14650878Y-3394214D01*
X14610171Y-3463140D01*
X14574539Y-3522798D01*
X14545258Y-3571058D01*
X14523602Y-3605788D01*
X14510847Y-3624859D01*
X14509091Y-3627051D01*
X14461872Y-3664803D01*
X14406001Y-3686346D01*
X14346336Y-3691547D01*
X14287734Y-3680268D01*
X14235053Y-3652375D01*
X14215446Y-3635255D01*
X14205727Y-3621647D01*
X14186410Y-3591168D01*
X14158389Y-3545329D01*
X14122556Y-3485641D01*
X14079806Y-3413618D01*
X14031033Y-3330770D01*
X13977129Y-3238609D01*
X13918990Y-3138648D01*
X13857507Y-3032397D01*
X13797404Y-2928035D01*
X13407209Y-2248939D01*
X13396625Y-4265541D01*
X13371640Y-4285770D01*
X13335043Y-4303253D01*
X13293107Y-4305446D01*
X13254075Y-4292703D01*
X13237394Y-4280023D01*
X13211417Y-4254046D01*
X13211417Y-1804433D01*
X13233866Y-1758060D01*
X13269106Y-1708524D01*
X13318486Y-1672901D01*
X13378343Y-1653652D01*
X13391785Y-1651932D01*
X13447492Y-1653891D01*
X13501134Y-1668580D01*
X13545194Y-1693579D01*
X13557983Y-1705412D01*
X13566491Y-1718029D01*
X13584710Y-1747606D01*
X13611821Y-1792743D01*
X13647003Y-1852040D01*
X13689434Y-1924098D01*
X13738294Y-2007517D01*
X13792763Y-2100896D01*
X13852019Y-2202836D01*
X13915242Y-2311937D01*
X13981611Y-2426800D01*
X14021651Y-2496250D01*
X14089249Y-2613514D01*
X14153974Y-2725624D01*
X14215026Y-2831207D01*
X14271605Y-2928890D01*
X14322914Y-3017297D01*
X14368152Y-3095054D01*
X14406521Y-3160789D01*
X14437223Y-3213125D01*
X14459457Y-3250691D01*
X14472425Y-3272110D01*
X14475435Y-3276650D01*
X14480179Y-3274712D01*
X14490058Y-3263118D01*
X14505577Y-3241029D01*
X14527242Y-3207605D01*
X14555560Y-3162005D01*
X14591036Y-3103391D01*
X14634178Y-3030922D01*
X14685492Y-2943758D01*
X14745482Y-2841059D01*
X14814657Y-2721985D01*
X14893521Y-2585696D01*
X14931466Y-2519983D01*
X14999766Y-2401853D01*
X15065607Y-2288404D01*
X15128144Y-2181063D01*
X15186535Y-2081258D01*
X15239938Y-1990415D01*
X15287511Y-1909960D01*
X15328409Y-1841321D01*
X15361792Y-1785925D01*
X15386817Y-1745199D01*
X15402640Y-1720569D01*
X15407293Y-1714194D01*
X15453444Y-1676003D01*
X15506739Y-1654944D01*
X15563276Y-1650094D01*
X15619152Y-1660531D01*
G36*
X18658899Y-1659812D02*
X18709392Y-1682807D01*
X18752479Y-1718912D01*
X18784606Y-1767653D01*
X18798558Y-1808546D01*
X18800537Y-1828074D01*
X18802331Y-1868512D01*
X18803936Y-1929605D01*
X18805352Y-2011096D01*
X18806575Y-2112731D01*
X18807602Y-2234253D01*
X18808432Y-2375406D01*
X18809062Y-2535936D01*
X18809490Y-2715585D01*
X18809713Y-2914100D01*
X18809741Y-2985729D01*
X18810000Y-4115500D01*
X19338301Y-4115500D01*
X19442500Y-4115629D01*
X19540559Y-4115997D01*
X19630386Y-4116581D01*
X19709887Y-4117354D01*
X19776970Y-4118291D01*
X19829541Y-4119368D01*
X19865507Y-4120558D01*
X19882775Y-4121837D01*
X19883734Y-4122074D01*
X19902315Y-4137808D01*
X19919470Y-4165514D01*
X19930309Y-4196280D01*
X19931834Y-4209727D01*
X19923603Y-4248153D01*
X19902215Y-4280277D01*
X19882543Y-4294250D01*
X19865848Y-4297025D01*
X19830244Y-4299439D01*
X19777989Y-4301498D01*
X19711337Y-4303206D01*
X19632545Y-4304570D01*
X19543869Y-4305594D01*
X19447563Y-4306283D01*
X19345884Y-4306643D01*
X19241088Y-4306679D01*
X19135431Y-4306395D01*
X19031167Y-4305798D01*
X18930554Y-4304892D01*
X18835846Y-4303683D01*
X18749300Y-4302176D01*
X18673171Y-4300376D01*
X18609715Y-4298289D01*
X18561187Y-4295918D01*
X18529845Y-4293271D01*
X18518959Y-4291100D01*
X18488903Y-4273715D01*
X18459176Y-4250678D01*
X18457568Y-4249189D01*
X18448336Y-4240818D01*
X18440095Y-4233220D01*
X18432790Y-4225211D01*
X18426363Y-4215607D01*
X18420760Y-4203220D01*
X18415922Y-4186867D01*
X18411796Y-4165362D01*
X18408323Y-4137519D01*
X18405449Y-4102155D01*
X18403116Y-4058082D01*
X18401269Y-4004116D01*
X18399852Y-3939073D01*
X18398809Y-3861766D01*
X18398083Y-3771010D01*
X18397617Y-3665620D01*
X18397357Y-3544412D01*
X18397246Y-3406199D01*
X18397227Y-3249796D01*
X18397245Y-3074019D01*
X18397250Y-2976182D01*
X18397250Y-1804433D01*
X18419699Y-1758060D01*
X18453925Y-1708402D01*
X18498512Y-1674222D01*
X18549905Y-1655046D01*
X18604552Y-1650401D01*
X18658899Y-1659812D01*
X18658899Y-1659812D01*
G37*
X18658899Y-1659812D02*
X18709392Y-1682807D01*
X18752479Y-1718912D01*
X18784606Y-1767653D01*
X18798558Y-1808546D01*
X18800537Y-1828074D01*
X18802331Y-1868512D01*
X18803936Y-1929605D01*
X18805352Y-2011096D01*
X18806575Y-2112731D01*
X18807602Y-2234253D01*
X18808432Y-2375406D01*
X18809062Y-2535936D01*
X18809490Y-2715585D01*
X18809713Y-2914100D01*
X18809741Y-2985729D01*
X18810000Y-4115500D01*
X19338301Y-4115500D01*
X19442500Y-4115629D01*
X19540559Y-4115997D01*
X19630386Y-4116581D01*
X19709887Y-4117354D01*
X19776970Y-4118291D01*
X19829541Y-4119368D01*
X19865507Y-4120558D01*
X19882775Y-4121837D01*
X19883734Y-4122074D01*
X19902315Y-4137808D01*
X19919470Y-4165514D01*
X19930309Y-4196280D01*
X19931834Y-4209727D01*
X19923603Y-4248153D01*
X19902215Y-4280277D01*
X19882543Y-4294250D01*
X19865848Y-4297025D01*
X19830244Y-4299439D01*
X19777989Y-4301498D01*
X19711337Y-4303206D01*
X19632545Y-4304570D01*
X19543869Y-4305594D01*
X19447563Y-4306283D01*
X19345884Y-4306643D01*
X19241088Y-4306679D01*
X19135431Y-4306395D01*
X19031167Y-4305798D01*
X18930554Y-4304892D01*
X18835846Y-4303683D01*
X18749300Y-4302176D01*
X18673171Y-4300376D01*
X18609715Y-4298289D01*
X18561187Y-4295918D01*
X18529845Y-4293271D01*
X18518959Y-4291100D01*
X18488903Y-4273715D01*
X18459176Y-4250678D01*
X18457568Y-4249189D01*
X18448336Y-4240818D01*
X18440095Y-4233220D01*
X18432790Y-4225211D01*
X18426363Y-4215607D01*
X18420760Y-4203220D01*
X18415922Y-4186867D01*
X18411796Y-4165362D01*
X18408323Y-4137519D01*
X18405449Y-4102155D01*
X18403116Y-4058082D01*
X18401269Y-4004116D01*
X18399852Y-3939073D01*
X18398809Y-3861766D01*
X18398083Y-3771010D01*
X18397617Y-3665620D01*
X18397357Y-3544412D01*
X18397246Y-3406199D01*
X18397227Y-3249796D01*
X18397245Y-3074019D01*
X18397250Y-2976182D01*
X18397250Y-1804433D01*
X18419699Y-1758060D01*
X18453925Y-1708402D01*
X18498512Y-1674222D01*
X18549905Y-1655046D01*
X18604552Y-1650401D01*
X18658899Y-1659812D01*
G36*
X21419645Y-1674091D02*
X21439060Y-1695951D01*
X21447110Y-1722651D01*
X21448137Y-1744834D01*
X21444957Y-1779075D01*
X21432770Y-1802620D01*
X21419645Y-1815576D01*
X21391153Y-1840084D01*
X20672667Y-1840084D01*
X20672434Y-2991021D01*
X20672385Y-3172205D01*
X20672302Y-3333436D01*
X20672164Y-3475929D01*
X20671951Y-3600896D01*
X20671644Y-3709551D01*
X20671222Y-3803109D01*
X20670664Y-3882783D01*
X20669951Y-3949787D01*
X20669063Y-4005334D01*
X20667979Y-4050639D01*
X20666679Y-4086916D01*
X20665143Y-4115377D01*
X20663351Y-4137237D01*
X20661283Y-4153710D01*
X20658917Y-4166010D01*
X20656236Y-4175349D01*
X20653217Y-4182943D01*
X20652602Y-4184292D01*
X20621850Y-4233056D01*
X20581272Y-4272574D01*
X20542332Y-4294744D01*
X20499990Y-4303958D01*
X20450860Y-4304924D01*
X20404987Y-4297979D01*
X20381625Y-4289357D01*
X20326568Y-4250685D01*
X20287443Y-4199268D01*
X20279920Y-4184292D01*
X20276844Y-4176877D01*
X20274108Y-4167917D01*
X20271692Y-4156199D01*
X20269575Y-4140508D01*
X20267737Y-4119631D01*
X20266159Y-4092355D01*
X20264819Y-4057466D01*
X20263699Y-4013749D01*
X20262778Y-3959992D01*
X20262035Y-3894981D01*
X20261452Y-3817503D01*
X20261006Y-3726342D01*
X20260680Y-3620287D01*
X20260452Y-3498123D01*
X20260302Y-3358637D01*
X20260210Y-3200615D01*
X20260156Y-3022844D01*
X20260149Y-2991021D01*
X20259917Y-1840084D01*
X19899602Y-1840083D01*
X19539288Y-1840083D01*
X19513311Y-1814106D01*
X19493611Y-1785434D01*
X19487361Y-1748248D01*
X19487334Y-1744834D01*
X19492717Y-1706617D01*
X19511278Y-1677639D01*
X19513311Y-1675561D01*
X19539288Y-1649583D01*
X21391153Y-1649583D01*
X21419645Y-1674091D01*
X21419645Y-1674091D01*
G37*
X21419645Y-1674091D02*
X21439060Y-1695951D01*
X21447110Y-1722651D01*
X21448137Y-1744834D01*
X21444957Y-1779075D01*
X21432770Y-1802620D01*
X21419645Y-1815576D01*
X21391153Y-1840084D01*
X20672667Y-1840084D01*
X20672434Y-2991021D01*
X20672385Y-3172205D01*
X20672302Y-3333436D01*
X20672164Y-3475929D01*
X20671951Y-3600896D01*
X20671644Y-3709551D01*
X20671222Y-3803109D01*
X20670664Y-3882783D01*
X20669951Y-3949787D01*
X20669063Y-4005334D01*
X20667979Y-4050639D01*
X20666679Y-4086916D01*
X20665143Y-4115377D01*
X20663351Y-4137237D01*
X20661283Y-4153710D01*
X20658917Y-4166010D01*
X20656236Y-4175349D01*
X20653217Y-4182943D01*
X20652602Y-4184292D01*
X20621850Y-4233056D01*
X20581272Y-4272574D01*
X20542332Y-4294744D01*
X20499990Y-4303958D01*
X20450860Y-4304924D01*
X20404987Y-4297979D01*
X20381625Y-4289357D01*
X20326568Y-4250685D01*
X20287443Y-4199268D01*
X20279920Y-4184292D01*
X20276844Y-4176877D01*
X20274108Y-4167917D01*
X20271692Y-4156199D01*
X20269575Y-4140508D01*
X20267737Y-4119631D01*
X20266159Y-4092355D01*
X20264819Y-4057466D01*
X20263699Y-4013749D01*
X20262778Y-3959992D01*
X20262035Y-3894981D01*
X20261452Y-3817503D01*
X20261006Y-3726342D01*
X20260680Y-3620287D01*
X20260452Y-3498123D01*
X20260302Y-3358637D01*
X20260210Y-3200615D01*
X20260156Y-3022844D01*
X20260149Y-2991021D01*
X20259917Y-1840084D01*
X19899602Y-1840083D01*
X19539288Y-1840083D01*
X19513311Y-1814106D01*
X19493611Y-1785434D01*
X19487361Y-1748248D01*
X19487334Y-1744834D01*
X19492717Y-1706617D01*
X19511278Y-1677639D01*
X19513311Y-1675561D01*
X19539288Y-1649583D01*
X21391153Y-1649583D01*
X21419645Y-1674091D01*
G04 #@! TD*
D11*
G04 #@! TO.C,MH1*
G36*
X9325439Y-711074D02*
X9548708Y-744193D01*
X9767655Y-799036D01*
X9980172Y-875076D01*
X10184212Y-971580D01*
X10377812Y-1087619D01*
X10559105Y-1222075D01*
X10726346Y-1373653D01*
X10877924Y-1540894D01*
X11012380Y-1722187D01*
X11128419Y-1915787D01*
X11224923Y-2119827D01*
X11300963Y-2332344D01*
X11355806Y-2551291D01*
X11388925Y-2774560D01*
X11400000Y-2999999D01*
X11400000Y-3000001D01*
X11388925Y-3225440D01*
X11355806Y-3448709D01*
X11300963Y-3667656D01*
X11224923Y-3880173D01*
X11128419Y-4084213D01*
X11012380Y-4277813D01*
X10877924Y-4459106D01*
X10726346Y-4626347D01*
X10559105Y-4777925D01*
X10377812Y-4912381D01*
X10184212Y-5028420D01*
X9980172Y-5124924D01*
X9767655Y-5200964D01*
X9548708Y-5255807D01*
X9325439Y-5288926D01*
X9100000Y-5300001D01*
X5900000Y-5300001D01*
X5674561Y-5288926D01*
X5451292Y-5255807D01*
X5232345Y-5200964D01*
X5019828Y-5124924D01*
X4815788Y-5028420D01*
X4622188Y-4912381D01*
X4440895Y-4777925D01*
X4273654Y-4626347D01*
X4122076Y-4459106D01*
X3987620Y-4277813D01*
X3871581Y-4084213D01*
X3775077Y-3880173D01*
X3699037Y-3667656D01*
X3644194Y-3448709D01*
X3611075Y-3225440D01*
X3600000Y-3000001D01*
X3600000Y-2999999D01*
X3611075Y-2774560D01*
X3644194Y-2551291D01*
X3699037Y-2332344D01*
X3775077Y-2119827D01*
X3871581Y-1915787D01*
X3987620Y-1722187D01*
X4122076Y-1540894D01*
X4273654Y-1373653D01*
X4440895Y-1222075D01*
X4622188Y-1087619D01*
X4815788Y-971580D01*
X5019828Y-875076D01*
X5232345Y-799036D01*
X5451292Y-744193D01*
X5674561Y-711074D01*
X5900000Y-699999D01*
X9100000Y-699999D01*
X9325439Y-711074D01*
X9325439Y-711074D01*
G37*
D12*
X7500000Y-3000000D03*
G04 #@! TD*
D11*
G04 #@! TO.C,MH2*
G36*
X9325439Y-34311074D02*
X9548708Y-34344193D01*
X9767655Y-34399036D01*
X9980172Y-34475076D01*
X10184212Y-34571580D01*
X10377812Y-34687619D01*
X10559105Y-34822075D01*
X10726346Y-34973653D01*
X10877924Y-35140894D01*
X11012380Y-35322187D01*
X11128419Y-35515787D01*
X11224923Y-35719827D01*
X11300963Y-35932344D01*
X11355806Y-36151291D01*
X11388925Y-36374560D01*
X11400000Y-36599999D01*
X11400000Y-36600001D01*
X11388925Y-36825440D01*
X11355806Y-37048709D01*
X11300963Y-37267656D01*
X11224923Y-37480173D01*
X11128419Y-37684213D01*
X11012380Y-37877813D01*
X10877924Y-38059106D01*
X10726346Y-38226347D01*
X10559105Y-38377925D01*
X10377812Y-38512381D01*
X10184212Y-38628420D01*
X9980172Y-38724924D01*
X9767655Y-38800964D01*
X9548708Y-38855807D01*
X9325439Y-38888926D01*
X9100000Y-38900001D01*
X5900000Y-38900001D01*
X5674561Y-38888926D01*
X5451292Y-38855807D01*
X5232345Y-38800964D01*
X5019828Y-38724924D01*
X4815788Y-38628420D01*
X4622188Y-38512381D01*
X4440895Y-38377925D01*
X4273654Y-38226347D01*
X4122076Y-38059106D01*
X3987620Y-37877813D01*
X3871581Y-37684213D01*
X3775077Y-37480173D01*
X3699037Y-37267656D01*
X3644194Y-37048709D01*
X3611075Y-36825440D01*
X3600000Y-36600001D01*
X3600000Y-36599999D01*
X3611075Y-36374560D01*
X3644194Y-36151291D01*
X3699037Y-35932344D01*
X3775077Y-35719827D01*
X3871581Y-35515787D01*
X3987620Y-35322187D01*
X4122076Y-35140894D01*
X4273654Y-34973653D01*
X4440895Y-34822075D01*
X4622188Y-34687619D01*
X4815788Y-34571580D01*
X5019828Y-34475076D01*
X5232345Y-34399036D01*
X5451292Y-34344193D01*
X5674561Y-34311074D01*
X5900000Y-34299999D01*
X9100000Y-34299999D01*
X9325439Y-34311074D01*
X9325439Y-34311074D01*
G37*
D12*
X7500000Y-36600000D03*
G04 #@! TD*
D13*
G04 #@! TO.C,MH3*
X7000000Y-13300000D03*
G04 #@! TD*
G04 #@! TO.C,MH4*
X7000000Y-26300000D03*
G04 #@! TD*
G04 #@! TO.C,MH5*
X23000000Y-13300000D03*
G04 #@! TD*
G04 #@! TO.C,MH6*
X23000000Y-26300000D03*
G04 #@! TD*
M02*
