G04 #@! TF.GenerationSoftware,KiCad,Pcbnew,(5.0.0)*
G04 #@! TF.CreationDate,2018-11-17T16:39:48+01:00*
G04 #@! TF.ProjectId,Corona_panel_16hp,436F726F6E615F70616E656C5F313668,1*
G04 #@! TF.SameCoordinates,Original*
G04 #@! TF.FileFunction,Copper,L2,Bot,Signal*
G04 #@! TF.FilePolarity,Positive*
%FSLAX46Y46*%
G04 Gerber Fmt 4.6, Leading zero omitted, Abs format (unit mm)*
G04 Created by KiCad (PCBNEW (5.0.0)) date 11/17/18 16:39:48*
%MOMM*%
%LPD*%
G01*
G04 APERTURE LIST*
G04 #@! TA.AperFunction,Conductor*
%ADD10C,0.100000*%
G04 #@! TD*
G04 #@! TA.AperFunction,WasherPad*
%ADD11C,4.200000*%
G04 #@! TD*
G04 #@! TA.AperFunction,WasherPad*
%ADD12C,7.500000*%
G04 #@! TD*
G04 #@! TA.AperFunction,WasherPad*
%ADD13C,8.100000*%
G04 #@! TD*
G04 #@! TA.AperFunction,WasherPad*
%ADD14C,7.100000*%
G04 #@! TD*
G04 #@! TA.AperFunction,WasherPad*
%ADD15C,24.500000*%
G04 #@! TD*
G04 #@! TA.AperFunction,NonConductor*
%ADD16C,0.254000*%
G04 #@! TD*
G04 APERTURE END LIST*
D10*
G04 #@! TO.N,*
G04 #@! TO.C,MH1*
G36*
X73805836Y-123410111D02*
X74009690Y-123440350D01*
X74209598Y-123490424D01*
X74403635Y-123559852D01*
X74589933Y-123647964D01*
X74766697Y-123753913D01*
X74932226Y-123876677D01*
X75084924Y-124015075D01*
X75223322Y-124167773D01*
X75346086Y-124333302D01*
X75452035Y-124510066D01*
X75540147Y-124696364D01*
X75609575Y-124890401D01*
X75659649Y-125090309D01*
X75689888Y-125294163D01*
X75700000Y-125499999D01*
X75700000Y-125500001D01*
X75689888Y-125705837D01*
X75659649Y-125909691D01*
X75609575Y-126109599D01*
X75540147Y-126303636D01*
X75452035Y-126489934D01*
X75346086Y-126666698D01*
X75223322Y-126832227D01*
X75084924Y-126984925D01*
X74932226Y-127123323D01*
X74766697Y-127246087D01*
X74589933Y-127352036D01*
X74403635Y-127440148D01*
X74209598Y-127509576D01*
X74009690Y-127559650D01*
X73805836Y-127589889D01*
X73600000Y-127600001D01*
X70400000Y-127600001D01*
X70194164Y-127589889D01*
X69990310Y-127559650D01*
X69790402Y-127509576D01*
X69596365Y-127440148D01*
X69410067Y-127352036D01*
X69233303Y-127246087D01*
X69067774Y-127123323D01*
X68915076Y-126984925D01*
X68776678Y-126832227D01*
X68653914Y-126666698D01*
X68547965Y-126489934D01*
X68459853Y-126303636D01*
X68390425Y-126109599D01*
X68340351Y-125909691D01*
X68310112Y-125705837D01*
X68300000Y-125500001D01*
X68300000Y-125499999D01*
X68310112Y-125294163D01*
X68340351Y-125090309D01*
X68390425Y-124890401D01*
X68459853Y-124696364D01*
X68547965Y-124510066D01*
X68653914Y-124333302D01*
X68776678Y-124167773D01*
X68915076Y-124015075D01*
X69067774Y-123876677D01*
X69233303Y-123753913D01*
X69410067Y-123647964D01*
X69596365Y-123559852D01*
X69790402Y-123490424D01*
X69990310Y-123440350D01*
X70194164Y-123410111D01*
X70400000Y-123399999D01*
X73600000Y-123399999D01*
X73805836Y-123410111D01*
X73805836Y-123410111D01*
G37*
D11*
G04 #@! TD*
G04 #@! TO.P,MH1,*
G04 #@! TO.N,*
X72000000Y-125500000D03*
D10*
G04 #@! TO.N,*
G04 #@! TO.C,MH1*
G36*
X8805836Y-123410111D02*
X9009690Y-123440350D01*
X9209598Y-123490424D01*
X9403635Y-123559852D01*
X9589933Y-123647964D01*
X9766697Y-123753913D01*
X9932226Y-123876677D01*
X10084924Y-124015075D01*
X10223322Y-124167773D01*
X10346086Y-124333302D01*
X10452035Y-124510066D01*
X10540147Y-124696364D01*
X10609575Y-124890401D01*
X10659649Y-125090309D01*
X10689888Y-125294163D01*
X10700000Y-125499999D01*
X10700000Y-125500001D01*
X10689888Y-125705837D01*
X10659649Y-125909691D01*
X10609575Y-126109599D01*
X10540147Y-126303636D01*
X10452035Y-126489934D01*
X10346086Y-126666698D01*
X10223322Y-126832227D01*
X10084924Y-126984925D01*
X9932226Y-127123323D01*
X9766697Y-127246087D01*
X9589933Y-127352036D01*
X9403635Y-127440148D01*
X9209598Y-127509576D01*
X9009690Y-127559650D01*
X8805836Y-127589889D01*
X8600000Y-127600001D01*
X5400000Y-127600001D01*
X5194164Y-127589889D01*
X4990310Y-127559650D01*
X4790402Y-127509576D01*
X4596365Y-127440148D01*
X4410067Y-127352036D01*
X4233303Y-127246087D01*
X4067774Y-127123323D01*
X3915076Y-126984925D01*
X3776678Y-126832227D01*
X3653914Y-126666698D01*
X3547965Y-126489934D01*
X3459853Y-126303636D01*
X3390425Y-126109599D01*
X3340351Y-125909691D01*
X3310112Y-125705837D01*
X3300000Y-125500001D01*
X3300000Y-125499999D01*
X3310112Y-125294163D01*
X3340351Y-125090309D01*
X3390425Y-124890401D01*
X3459853Y-124696364D01*
X3547965Y-124510066D01*
X3653914Y-124333302D01*
X3776678Y-124167773D01*
X3915076Y-124015075D01*
X4067774Y-123876677D01*
X4233303Y-123753913D01*
X4410067Y-123647964D01*
X4596365Y-123559852D01*
X4790402Y-123490424D01*
X4990310Y-123440350D01*
X5194164Y-123410111D01*
X5400000Y-123399999D01*
X8600000Y-123399999D01*
X8805836Y-123410111D01*
X8805836Y-123410111D01*
G37*
D11*
G04 #@! TD*
G04 #@! TO.P,MH1,*
G04 #@! TO.N,*
X7000000Y-125500000D03*
D12*
G04 #@! TO.P,MH5,*
G04 #@! TO.N,*
X54000000Y-97000000D03*
G04 #@! TD*
G04 #@! TO.P,MH5,*
G04 #@! TO.N,*
X40000000Y-97000000D03*
G04 #@! TD*
G04 #@! TO.P,MH5,*
G04 #@! TO.N,*
X26000000Y-97000000D03*
G04 #@! TD*
D13*
G04 #@! TO.P,MH6,*
G04 #@! TO.N,*
X40000000Y-73000000D03*
G04 #@! TD*
D14*
G04 #@! TO.P,MH3,*
G04 #@! TO.N,*
X26000000Y-113000000D03*
G04 #@! TD*
G04 #@! TO.P,MH3,*
G04 #@! TO.N,*
X70000000Y-113000000D03*
G04 #@! TD*
G04 #@! TO.P,MH3,*
G04 #@! TO.N,*
X54000000Y-113000000D03*
G04 #@! TD*
G04 #@! TO.P,MH3,*
G04 #@! TO.N,*
X40000000Y-113000000D03*
G04 #@! TD*
D13*
G04 #@! TO.P,MH6,*
G04 #@! TO.N,*
X70000000Y-97000000D03*
G04 #@! TD*
G04 #@! TO.P,MH6,*
G04 #@! TO.N,*
X10000000Y-97000000D03*
G04 #@! TD*
G04 #@! TO.P,MH6,*
G04 #@! TO.N,*
X16000000Y-56000000D03*
G04 #@! TD*
D10*
G04 #@! TO.N,*
G04 #@! TO.C,MH1*
G36*
X73805836Y-910111D02*
X74009690Y-940350D01*
X74209598Y-990424D01*
X74403635Y-1059852D01*
X74589933Y-1147964D01*
X74766697Y-1253913D01*
X74932226Y-1376677D01*
X75084924Y-1515075D01*
X75223322Y-1667773D01*
X75346086Y-1833302D01*
X75452035Y-2010066D01*
X75540147Y-2196364D01*
X75609575Y-2390401D01*
X75659649Y-2590309D01*
X75689888Y-2794163D01*
X75700000Y-2999999D01*
X75700000Y-3000001D01*
X75689888Y-3205837D01*
X75659649Y-3409691D01*
X75609575Y-3609599D01*
X75540147Y-3803636D01*
X75452035Y-3989934D01*
X75346086Y-4166698D01*
X75223322Y-4332227D01*
X75084924Y-4484925D01*
X74932226Y-4623323D01*
X74766697Y-4746087D01*
X74589933Y-4852036D01*
X74403635Y-4940148D01*
X74209598Y-5009576D01*
X74009690Y-5059650D01*
X73805836Y-5089889D01*
X73600000Y-5100001D01*
X70400000Y-5100001D01*
X70194164Y-5089889D01*
X69990310Y-5059650D01*
X69790402Y-5009576D01*
X69596365Y-4940148D01*
X69410067Y-4852036D01*
X69233303Y-4746087D01*
X69067774Y-4623323D01*
X68915076Y-4484925D01*
X68776678Y-4332227D01*
X68653914Y-4166698D01*
X68547965Y-3989934D01*
X68459853Y-3803636D01*
X68390425Y-3609599D01*
X68340351Y-3409691D01*
X68310112Y-3205837D01*
X68300000Y-3000001D01*
X68300000Y-2999999D01*
X68310112Y-2794163D01*
X68340351Y-2590309D01*
X68390425Y-2390401D01*
X68459853Y-2196364D01*
X68547965Y-2010066D01*
X68653914Y-1833302D01*
X68776678Y-1667773D01*
X68915076Y-1515075D01*
X69067774Y-1376677D01*
X69233303Y-1253913D01*
X69410067Y-1147964D01*
X69596365Y-1059852D01*
X69790402Y-990424D01*
X69990310Y-940350D01*
X70194164Y-910111D01*
X70400000Y-899999D01*
X73600000Y-899999D01*
X73805836Y-910111D01*
X73805836Y-910111D01*
G37*
D11*
G04 #@! TD*
G04 #@! TO.P,MH1,*
G04 #@! TO.N,*
X72000000Y-3000000D03*
D10*
G04 #@! TO.N,*
G04 #@! TO.C,MH1*
G36*
X8805836Y-910111D02*
X9009690Y-940350D01*
X9209598Y-990424D01*
X9403635Y-1059852D01*
X9589933Y-1147964D01*
X9766697Y-1253913D01*
X9932226Y-1376677D01*
X10084924Y-1515075D01*
X10223322Y-1667773D01*
X10346086Y-1833302D01*
X10452035Y-2010066D01*
X10540147Y-2196364D01*
X10609575Y-2390401D01*
X10659649Y-2590309D01*
X10689888Y-2794163D01*
X10700000Y-2999999D01*
X10700000Y-3000001D01*
X10689888Y-3205837D01*
X10659649Y-3409691D01*
X10609575Y-3609599D01*
X10540147Y-3803636D01*
X10452035Y-3989934D01*
X10346086Y-4166698D01*
X10223322Y-4332227D01*
X10084924Y-4484925D01*
X9932226Y-4623323D01*
X9766697Y-4746087D01*
X9589933Y-4852036D01*
X9403635Y-4940148D01*
X9209598Y-5009576D01*
X9009690Y-5059650D01*
X8805836Y-5089889D01*
X8600000Y-5100001D01*
X5400000Y-5100001D01*
X5194164Y-5089889D01*
X4990310Y-5059650D01*
X4790402Y-5009576D01*
X4596365Y-4940148D01*
X4410067Y-4852036D01*
X4233303Y-4746087D01*
X4067774Y-4623323D01*
X3915076Y-4484925D01*
X3776678Y-4332227D01*
X3653914Y-4166698D01*
X3547965Y-3989934D01*
X3459853Y-3803636D01*
X3390425Y-3609599D01*
X3340351Y-3409691D01*
X3310112Y-3205837D01*
X3300000Y-3000001D01*
X3300000Y-2999999D01*
X3310112Y-2794163D01*
X3340351Y-2590309D01*
X3390425Y-2390401D01*
X3459853Y-2196364D01*
X3547965Y-2010066D01*
X3653914Y-1833302D01*
X3776678Y-1667773D01*
X3915076Y-1515075D01*
X4067774Y-1376677D01*
X4233303Y-1253913D01*
X4410067Y-1147964D01*
X4596365Y-1059852D01*
X4790402Y-990424D01*
X4990310Y-940350D01*
X5194164Y-910111D01*
X5400000Y-899999D01*
X8600000Y-899999D01*
X8805836Y-910111D01*
X8805836Y-910111D01*
G37*
D11*
G04 #@! TD*
G04 #@! TO.P,MH1,*
G04 #@! TO.N,*
X7000000Y-3000000D03*
D13*
G04 #@! TO.P,MH6,*
G04 #@! TO.N,*
X64000000Y-56000000D03*
G04 #@! TD*
D14*
G04 #@! TO.P,MH3,*
G04 #@! TO.N,*
X10000000Y-113000000D03*
G04 #@! TD*
D12*
G04 #@! TO.P,MH5,*
G04 #@! TO.N,*
X40000000Y-51500000D03*
G04 #@! TD*
D15*
G04 #@! TO.P,REF\002A\002A,*
G04 #@! TO.N,*
X40000000Y-26500000D03*
G04 #@! TD*
D16*
G36*
X2665000Y-773690D02*
X2665000Y-2714250D01*
X2702033Y-2751283D01*
X2652560Y-2999999D01*
X2652560Y-3000001D01*
X2702033Y-3248717D01*
X2665000Y-3285750D01*
X2665000Y-5226310D01*
X2761673Y-5459699D01*
X2940302Y-5638327D01*
X3173691Y-5735000D01*
X5337455Y-5735000D01*
X5400000Y-5747441D01*
X8600000Y-5747441D01*
X8662545Y-5735000D01*
X10826309Y-5735000D01*
X11059698Y-5638327D01*
X11238327Y-5459699D01*
X11335000Y-5226310D01*
X11335000Y-3285750D01*
X11297967Y-3248717D01*
X11347440Y-3000001D01*
X11347440Y-2999999D01*
X11297967Y-2751283D01*
X11335000Y-2714250D01*
X11335000Y-773690D01*
X11318974Y-735000D01*
X67681026Y-735000D01*
X67665000Y-773690D01*
X67665000Y-2714250D01*
X67702033Y-2751283D01*
X67652560Y-2999999D01*
X67652560Y-3000001D01*
X67702033Y-3248717D01*
X67665000Y-3285750D01*
X67665000Y-5226310D01*
X67761673Y-5459699D01*
X67940302Y-5638327D01*
X68173691Y-5735000D01*
X70337455Y-5735000D01*
X70400000Y-5747441D01*
X73600000Y-5747441D01*
X73662545Y-5735000D01*
X75826309Y-5735000D01*
X76059698Y-5638327D01*
X76238327Y-5459699D01*
X76335000Y-5226310D01*
X76335000Y-3285750D01*
X76297967Y-3248717D01*
X76347440Y-3000001D01*
X76347440Y-2999999D01*
X76297967Y-2751283D01*
X76335000Y-2714250D01*
X76335000Y-773690D01*
X76318974Y-735000D01*
X79265000Y-735000D01*
X79265001Y-127765000D01*
X76318974Y-127765000D01*
X76335000Y-127726310D01*
X76335000Y-125785750D01*
X76297967Y-125748717D01*
X76347440Y-125500001D01*
X76347440Y-125499999D01*
X76297967Y-125251283D01*
X76335000Y-125214250D01*
X76335000Y-123273690D01*
X76238327Y-123040301D01*
X76059698Y-122861673D01*
X75826309Y-122765000D01*
X73662545Y-122765000D01*
X73600000Y-122752559D01*
X70400000Y-122752559D01*
X70337455Y-122765000D01*
X68173691Y-122765000D01*
X67940302Y-122861673D01*
X67761673Y-123040301D01*
X67665000Y-123273690D01*
X67665000Y-125214250D01*
X67702033Y-125251283D01*
X67652560Y-125499999D01*
X67652560Y-125500001D01*
X67702033Y-125748717D01*
X67665000Y-125785750D01*
X67665000Y-127726310D01*
X67681026Y-127765000D01*
X11318974Y-127765000D01*
X11335000Y-127726310D01*
X11335000Y-125785750D01*
X11297967Y-125748717D01*
X11347440Y-125500001D01*
X11347440Y-125499999D01*
X11297967Y-125251283D01*
X11335000Y-125214250D01*
X11335000Y-123273690D01*
X11238327Y-123040301D01*
X11059698Y-122861673D01*
X10826309Y-122765000D01*
X8662545Y-122765000D01*
X8600000Y-122752559D01*
X5400000Y-122752559D01*
X5337455Y-122765000D01*
X3173691Y-122765000D01*
X2940302Y-122861673D01*
X2761673Y-123040301D01*
X2665000Y-123273690D01*
X2665000Y-125214250D01*
X2702033Y-125251283D01*
X2652560Y-125499999D01*
X2652560Y-125500001D01*
X2702033Y-125748717D01*
X2665000Y-125785750D01*
X2665000Y-127726310D01*
X2681026Y-127765000D01*
X735000Y-127765000D01*
X735000Y-113792645D01*
X5807279Y-113792645D01*
X5815000Y-113811798D01*
X5815000Y-113832448D01*
X6125959Y-114583171D01*
X6429763Y-115336793D01*
X6451750Y-115369698D01*
X6452128Y-115370612D01*
X6452827Y-115371311D01*
X6474814Y-115404217D01*
X6522313Y-115440797D01*
X7559203Y-116477687D01*
X7595783Y-116525186D01*
X7614785Y-116533269D01*
X7629388Y-116547872D01*
X8380103Y-116858828D01*
X9127823Y-117176901D01*
X9148473Y-117177097D01*
X9167552Y-117185000D01*
X9980123Y-117185000D01*
X10792645Y-117192721D01*
X10811798Y-117185000D01*
X10832448Y-117185000D01*
X11583171Y-116874041D01*
X12336793Y-116570237D01*
X12369698Y-116548250D01*
X12370612Y-116547872D01*
X12371311Y-116547173D01*
X12404217Y-116525186D01*
X12440797Y-116477687D01*
X13477687Y-115440797D01*
X13525186Y-115404217D01*
X13533269Y-115385215D01*
X13547872Y-115370612D01*
X13858828Y-114619897D01*
X14176901Y-113872177D01*
X14177097Y-113851527D01*
X14185000Y-113832448D01*
X14185000Y-113792645D01*
X21807279Y-113792645D01*
X21815000Y-113811798D01*
X21815000Y-113832448D01*
X22125959Y-114583171D01*
X22429763Y-115336793D01*
X22451750Y-115369698D01*
X22452128Y-115370612D01*
X22452827Y-115371311D01*
X22474814Y-115404217D01*
X22522313Y-115440797D01*
X23559203Y-116477687D01*
X23595783Y-116525186D01*
X23614785Y-116533269D01*
X23629388Y-116547872D01*
X24380103Y-116858828D01*
X25127823Y-117176901D01*
X25148473Y-117177097D01*
X25167552Y-117185000D01*
X25980123Y-117185000D01*
X26792645Y-117192721D01*
X26811798Y-117185000D01*
X26832448Y-117185000D01*
X27583171Y-116874041D01*
X28336793Y-116570237D01*
X28369698Y-116548250D01*
X28370612Y-116547872D01*
X28371311Y-116547173D01*
X28404217Y-116525186D01*
X28440797Y-116477687D01*
X29477687Y-115440797D01*
X29525186Y-115404217D01*
X29533269Y-115385215D01*
X29547872Y-115370612D01*
X29858828Y-114619897D01*
X30176901Y-113872177D01*
X30177097Y-113851527D01*
X30185000Y-113832448D01*
X30185000Y-113792645D01*
X35807279Y-113792645D01*
X35815000Y-113811798D01*
X35815000Y-113832448D01*
X36125959Y-114583171D01*
X36429763Y-115336793D01*
X36451750Y-115369698D01*
X36452128Y-115370612D01*
X36452827Y-115371311D01*
X36474814Y-115404217D01*
X36522313Y-115440797D01*
X37559203Y-116477687D01*
X37595783Y-116525186D01*
X37614785Y-116533269D01*
X37629388Y-116547872D01*
X38380103Y-116858828D01*
X39127823Y-117176901D01*
X39148473Y-117177097D01*
X39167552Y-117185000D01*
X39980123Y-117185000D01*
X40792645Y-117192721D01*
X40811798Y-117185000D01*
X40832448Y-117185000D01*
X41583171Y-116874041D01*
X42336793Y-116570237D01*
X42369698Y-116548250D01*
X42370612Y-116547872D01*
X42371311Y-116547173D01*
X42404217Y-116525186D01*
X42440797Y-116477687D01*
X43477687Y-115440797D01*
X43525186Y-115404217D01*
X43533269Y-115385215D01*
X43547872Y-115370612D01*
X43858828Y-114619897D01*
X44176901Y-113872177D01*
X44177097Y-113851527D01*
X44185000Y-113832448D01*
X44185000Y-113792645D01*
X49807279Y-113792645D01*
X49815000Y-113811798D01*
X49815000Y-113832448D01*
X50125959Y-114583171D01*
X50429763Y-115336793D01*
X50451750Y-115369698D01*
X50452128Y-115370612D01*
X50452827Y-115371311D01*
X50474814Y-115404217D01*
X50522313Y-115440797D01*
X51559203Y-116477687D01*
X51595783Y-116525186D01*
X51614785Y-116533269D01*
X51629388Y-116547872D01*
X52380103Y-116858828D01*
X53127823Y-117176901D01*
X53148473Y-117177097D01*
X53167552Y-117185000D01*
X53980123Y-117185000D01*
X54792645Y-117192721D01*
X54811798Y-117185000D01*
X54832448Y-117185000D01*
X55583171Y-116874041D01*
X56336793Y-116570237D01*
X56369698Y-116548250D01*
X56370612Y-116547872D01*
X56371311Y-116547173D01*
X56404217Y-116525186D01*
X56440797Y-116477687D01*
X57477687Y-115440797D01*
X57525186Y-115404217D01*
X57533269Y-115385215D01*
X57547872Y-115370612D01*
X57858828Y-114619897D01*
X58176901Y-113872177D01*
X58177097Y-113851527D01*
X58185000Y-113832448D01*
X58185000Y-113792645D01*
X65807279Y-113792645D01*
X65815000Y-113811798D01*
X65815000Y-113832448D01*
X66125959Y-114583171D01*
X66429763Y-115336793D01*
X66451750Y-115369698D01*
X66452128Y-115370612D01*
X66452827Y-115371311D01*
X66474814Y-115404217D01*
X66522313Y-115440797D01*
X67559203Y-116477687D01*
X67595783Y-116525186D01*
X67614785Y-116533269D01*
X67629388Y-116547872D01*
X68380103Y-116858828D01*
X69127823Y-117176901D01*
X69148473Y-117177097D01*
X69167552Y-117185000D01*
X69980123Y-117185000D01*
X70792645Y-117192721D01*
X70811798Y-117185000D01*
X70832448Y-117185000D01*
X71583171Y-116874041D01*
X72336793Y-116570237D01*
X72369698Y-116548250D01*
X72370612Y-116547872D01*
X72371311Y-116547173D01*
X72404217Y-116525186D01*
X72440797Y-116477687D01*
X73477687Y-115440797D01*
X73525186Y-115404217D01*
X73533269Y-115385215D01*
X73547872Y-115370612D01*
X73858828Y-114619897D01*
X74176901Y-113872177D01*
X74177097Y-113851527D01*
X74185000Y-113832448D01*
X74185000Y-113019877D01*
X74192721Y-112207355D01*
X74185000Y-112188202D01*
X74185000Y-112167552D01*
X73874041Y-111416829D01*
X73570237Y-110663207D01*
X73548250Y-110630302D01*
X73547872Y-110629388D01*
X73547173Y-110628689D01*
X73525186Y-110595783D01*
X73477687Y-110559203D01*
X72440797Y-109522313D01*
X72404217Y-109474814D01*
X72385215Y-109466731D01*
X72370612Y-109452128D01*
X71619897Y-109141172D01*
X70872177Y-108823099D01*
X70851527Y-108822903D01*
X70832448Y-108815000D01*
X70019877Y-108815000D01*
X69207355Y-108807279D01*
X69188202Y-108815000D01*
X69167552Y-108815000D01*
X68416829Y-109125959D01*
X67663207Y-109429763D01*
X67630302Y-109451750D01*
X67629388Y-109452128D01*
X67628689Y-109452827D01*
X67595783Y-109474814D01*
X67559203Y-109522313D01*
X66522313Y-110559203D01*
X66474814Y-110595783D01*
X66466731Y-110614785D01*
X66452128Y-110629388D01*
X66141172Y-111380103D01*
X65823099Y-112127823D01*
X65822903Y-112148473D01*
X65815000Y-112167552D01*
X65815000Y-112980123D01*
X65807279Y-113792645D01*
X58185000Y-113792645D01*
X58185000Y-113019877D01*
X58192721Y-112207355D01*
X58185000Y-112188202D01*
X58185000Y-112167552D01*
X57874041Y-111416829D01*
X57570237Y-110663207D01*
X57548250Y-110630302D01*
X57547872Y-110629388D01*
X57547173Y-110628689D01*
X57525186Y-110595783D01*
X57477687Y-110559203D01*
X56440797Y-109522313D01*
X56404217Y-109474814D01*
X56385215Y-109466731D01*
X56370612Y-109452128D01*
X55619897Y-109141172D01*
X54872177Y-108823099D01*
X54851527Y-108822903D01*
X54832448Y-108815000D01*
X54019877Y-108815000D01*
X53207355Y-108807279D01*
X53188202Y-108815000D01*
X53167552Y-108815000D01*
X52416829Y-109125959D01*
X51663207Y-109429763D01*
X51630302Y-109451750D01*
X51629388Y-109452128D01*
X51628689Y-109452827D01*
X51595783Y-109474814D01*
X51559203Y-109522313D01*
X50522313Y-110559203D01*
X50474814Y-110595783D01*
X50466731Y-110614785D01*
X50452128Y-110629388D01*
X50141172Y-111380103D01*
X49823099Y-112127823D01*
X49822903Y-112148473D01*
X49815000Y-112167552D01*
X49815000Y-112980123D01*
X49807279Y-113792645D01*
X44185000Y-113792645D01*
X44185000Y-113019877D01*
X44192721Y-112207355D01*
X44185000Y-112188202D01*
X44185000Y-112167552D01*
X43874041Y-111416829D01*
X43570237Y-110663207D01*
X43548250Y-110630302D01*
X43547872Y-110629388D01*
X43547173Y-110628689D01*
X43525186Y-110595783D01*
X43477687Y-110559203D01*
X42440797Y-109522313D01*
X42404217Y-109474814D01*
X42385215Y-109466731D01*
X42370612Y-109452128D01*
X41619897Y-109141172D01*
X40872177Y-108823099D01*
X40851527Y-108822903D01*
X40832448Y-108815000D01*
X40019877Y-108815000D01*
X39207355Y-108807279D01*
X39188202Y-108815000D01*
X39167552Y-108815000D01*
X38416829Y-109125959D01*
X37663207Y-109429763D01*
X37630302Y-109451750D01*
X37629388Y-109452128D01*
X37628689Y-109452827D01*
X37595783Y-109474814D01*
X37559203Y-109522313D01*
X36522313Y-110559203D01*
X36474814Y-110595783D01*
X36466731Y-110614785D01*
X36452128Y-110629388D01*
X36141172Y-111380103D01*
X35823099Y-112127823D01*
X35822903Y-112148473D01*
X35815000Y-112167552D01*
X35815000Y-112980123D01*
X35807279Y-113792645D01*
X30185000Y-113792645D01*
X30185000Y-113019877D01*
X30192721Y-112207355D01*
X30185000Y-112188202D01*
X30185000Y-112167552D01*
X29874041Y-111416829D01*
X29570237Y-110663207D01*
X29548250Y-110630302D01*
X29547872Y-110629388D01*
X29547173Y-110628689D01*
X29525186Y-110595783D01*
X29477687Y-110559203D01*
X28440797Y-109522313D01*
X28404217Y-109474814D01*
X28385215Y-109466731D01*
X28370612Y-109452128D01*
X27619897Y-109141172D01*
X26872177Y-108823099D01*
X26851527Y-108822903D01*
X26832448Y-108815000D01*
X26019877Y-108815000D01*
X25207355Y-108807279D01*
X25188202Y-108815000D01*
X25167552Y-108815000D01*
X24416829Y-109125959D01*
X23663207Y-109429763D01*
X23630302Y-109451750D01*
X23629388Y-109452128D01*
X23628689Y-109452827D01*
X23595783Y-109474814D01*
X23559203Y-109522313D01*
X22522313Y-110559203D01*
X22474814Y-110595783D01*
X22466731Y-110614785D01*
X22452128Y-110629388D01*
X22141172Y-111380103D01*
X21823099Y-112127823D01*
X21822903Y-112148473D01*
X21815000Y-112167552D01*
X21815000Y-112980123D01*
X21807279Y-113792645D01*
X14185000Y-113792645D01*
X14185000Y-113019877D01*
X14192721Y-112207355D01*
X14185000Y-112188202D01*
X14185000Y-112167552D01*
X13874041Y-111416829D01*
X13570237Y-110663207D01*
X13548250Y-110630302D01*
X13547872Y-110629388D01*
X13547173Y-110628689D01*
X13525186Y-110595783D01*
X13477687Y-110559203D01*
X12440797Y-109522313D01*
X12404217Y-109474814D01*
X12385215Y-109466731D01*
X12370612Y-109452128D01*
X11619897Y-109141172D01*
X10872177Y-108823099D01*
X10851527Y-108822903D01*
X10832448Y-108815000D01*
X10019877Y-108815000D01*
X9207355Y-108807279D01*
X9188202Y-108815000D01*
X9167552Y-108815000D01*
X8416829Y-109125959D01*
X7663207Y-109429763D01*
X7630302Y-109451750D01*
X7629388Y-109452128D01*
X7628689Y-109452827D01*
X7595783Y-109474814D01*
X7559203Y-109522313D01*
X6522313Y-110559203D01*
X6474814Y-110595783D01*
X6466731Y-110614785D01*
X6452128Y-110629388D01*
X6141172Y-111380103D01*
X5823099Y-112127823D01*
X5822903Y-112148473D01*
X5815000Y-112167552D01*
X5815000Y-112980123D01*
X5807279Y-113792645D01*
X735000Y-113792645D01*
X735000Y-97872426D01*
X5303561Y-97872426D01*
X5315000Y-97901064D01*
X5315000Y-97931905D01*
X5660287Y-98765501D01*
X5994919Y-99603266D01*
X6027492Y-99652015D01*
X6028248Y-99653840D01*
X6029645Y-99655237D01*
X6062218Y-99703986D01*
X6145526Y-99771118D01*
X7228882Y-100854474D01*
X7296014Y-100937782D01*
X7324351Y-100949943D01*
X7346160Y-100971752D01*
X8179757Y-101317039D01*
X9008767Y-101672807D01*
X9039602Y-101673198D01*
X9068095Y-101685000D01*
X9970327Y-101685000D01*
X10872426Y-101696439D01*
X10901064Y-101685000D01*
X10931905Y-101685000D01*
X11765501Y-101339713D01*
X12603266Y-101005081D01*
X12652015Y-100972508D01*
X12653840Y-100971752D01*
X12655237Y-100970355D01*
X12703986Y-100937782D01*
X12771118Y-100854474D01*
X13854474Y-99771118D01*
X13937782Y-99703986D01*
X13949943Y-99675649D01*
X13971752Y-99653840D01*
X14317039Y-98820243D01*
X14672807Y-97991233D01*
X14673198Y-97960398D01*
X14685000Y-97931905D01*
X14685000Y-97824558D01*
X21605786Y-97824558D01*
X21615000Y-97847504D01*
X21615000Y-97872231D01*
X21939662Y-98656033D01*
X22255820Y-99443385D01*
X22282061Y-99482657D01*
X22282577Y-99483903D01*
X22283530Y-99484856D01*
X22309771Y-99524128D01*
X22370439Y-99571765D01*
X23428235Y-100629561D01*
X23475872Y-100690229D01*
X23498614Y-100699940D01*
X23516097Y-100717423D01*
X24299907Y-101042088D01*
X25080199Y-101375269D01*
X25104925Y-101375538D01*
X25127769Y-101385000D01*
X25976180Y-101385000D01*
X26824558Y-101394214D01*
X26847504Y-101385000D01*
X26872231Y-101385000D01*
X27656033Y-101060338D01*
X28443385Y-100744180D01*
X28482657Y-100717939D01*
X28483903Y-100717423D01*
X28484856Y-100716470D01*
X28524128Y-100690229D01*
X28571765Y-100629561D01*
X29629561Y-99571765D01*
X29690229Y-99524128D01*
X29699940Y-99501386D01*
X29717423Y-99483903D01*
X30042088Y-98700093D01*
X30375269Y-97919801D01*
X30375538Y-97895075D01*
X30385000Y-97872231D01*
X30385000Y-97824558D01*
X35605786Y-97824558D01*
X35615000Y-97847504D01*
X35615000Y-97872231D01*
X35939662Y-98656033D01*
X36255820Y-99443385D01*
X36282061Y-99482657D01*
X36282577Y-99483903D01*
X36283530Y-99484856D01*
X36309771Y-99524128D01*
X36370439Y-99571765D01*
X37428235Y-100629561D01*
X37475872Y-100690229D01*
X37498614Y-100699940D01*
X37516097Y-100717423D01*
X38299907Y-101042088D01*
X39080199Y-101375269D01*
X39104925Y-101375538D01*
X39127769Y-101385000D01*
X39976180Y-101385000D01*
X40824558Y-101394214D01*
X40847504Y-101385000D01*
X40872231Y-101385000D01*
X41656033Y-101060338D01*
X42443385Y-100744180D01*
X42482657Y-100717939D01*
X42483903Y-100717423D01*
X42484856Y-100716470D01*
X42524128Y-100690229D01*
X42571765Y-100629561D01*
X43629561Y-99571765D01*
X43690229Y-99524128D01*
X43699940Y-99501386D01*
X43717423Y-99483903D01*
X44042088Y-98700093D01*
X44375269Y-97919801D01*
X44375538Y-97895075D01*
X44385000Y-97872231D01*
X44385000Y-97824558D01*
X49605786Y-97824558D01*
X49615000Y-97847504D01*
X49615000Y-97872231D01*
X49939662Y-98656033D01*
X50255820Y-99443385D01*
X50282061Y-99482657D01*
X50282577Y-99483903D01*
X50283530Y-99484856D01*
X50309771Y-99524128D01*
X50370439Y-99571765D01*
X51428235Y-100629561D01*
X51475872Y-100690229D01*
X51498614Y-100699940D01*
X51516097Y-100717423D01*
X52299907Y-101042088D01*
X53080199Y-101375269D01*
X53104925Y-101375538D01*
X53127769Y-101385000D01*
X53976180Y-101385000D01*
X54824558Y-101394214D01*
X54847504Y-101385000D01*
X54872231Y-101385000D01*
X55656033Y-101060338D01*
X56443385Y-100744180D01*
X56482657Y-100717939D01*
X56483903Y-100717423D01*
X56484856Y-100716470D01*
X56524128Y-100690229D01*
X56571765Y-100629561D01*
X57629561Y-99571765D01*
X57690229Y-99524128D01*
X57699940Y-99501386D01*
X57717423Y-99483903D01*
X58042088Y-98700093D01*
X58375269Y-97919801D01*
X58375538Y-97895075D01*
X58384919Y-97872426D01*
X65303561Y-97872426D01*
X65315000Y-97901064D01*
X65315000Y-97931905D01*
X65660287Y-98765501D01*
X65994919Y-99603266D01*
X66027492Y-99652015D01*
X66028248Y-99653840D01*
X66029645Y-99655237D01*
X66062218Y-99703986D01*
X66145526Y-99771118D01*
X67228882Y-100854474D01*
X67296014Y-100937782D01*
X67324351Y-100949943D01*
X67346160Y-100971752D01*
X68179757Y-101317039D01*
X69008767Y-101672807D01*
X69039602Y-101673198D01*
X69068095Y-101685000D01*
X69970327Y-101685000D01*
X70872426Y-101696439D01*
X70901064Y-101685000D01*
X70931905Y-101685000D01*
X71765501Y-101339713D01*
X72603266Y-101005081D01*
X72652015Y-100972508D01*
X72653840Y-100971752D01*
X72655237Y-100970355D01*
X72703986Y-100937782D01*
X72771118Y-100854474D01*
X73854474Y-99771118D01*
X73937782Y-99703986D01*
X73949943Y-99675649D01*
X73971752Y-99653840D01*
X74317039Y-98820243D01*
X74672807Y-97991233D01*
X74673198Y-97960398D01*
X74685000Y-97931905D01*
X74685000Y-97029673D01*
X74696439Y-96127574D01*
X74685000Y-96098936D01*
X74685000Y-96068095D01*
X74339713Y-95234499D01*
X74005081Y-94396734D01*
X73972508Y-94347985D01*
X73971752Y-94346160D01*
X73970355Y-94344763D01*
X73937782Y-94296014D01*
X73854474Y-94228882D01*
X72771118Y-93145526D01*
X72703986Y-93062218D01*
X72675649Y-93050057D01*
X72653840Y-93028248D01*
X71820243Y-92682961D01*
X70991233Y-92327193D01*
X70960398Y-92326802D01*
X70931905Y-92315000D01*
X70029673Y-92315000D01*
X69127574Y-92303561D01*
X69098936Y-92315000D01*
X69068095Y-92315000D01*
X68234499Y-92660287D01*
X67396734Y-92994919D01*
X67347985Y-93027492D01*
X67346160Y-93028248D01*
X67344763Y-93029645D01*
X67296014Y-93062218D01*
X67228882Y-93145526D01*
X66145526Y-94228882D01*
X66062218Y-94296014D01*
X66050057Y-94324351D01*
X66028248Y-94346160D01*
X65682961Y-95179757D01*
X65327193Y-96008767D01*
X65326802Y-96039602D01*
X65315000Y-96068095D01*
X65315000Y-96970327D01*
X65303561Y-97872426D01*
X58384919Y-97872426D01*
X58385000Y-97872231D01*
X58385000Y-97023820D01*
X58394214Y-96175442D01*
X58385000Y-96152496D01*
X58385000Y-96127769D01*
X58060338Y-95343967D01*
X57744180Y-94556615D01*
X57717939Y-94517343D01*
X57717423Y-94516097D01*
X57716470Y-94515144D01*
X57690229Y-94475872D01*
X57629561Y-94428235D01*
X56571765Y-93370439D01*
X56524128Y-93309771D01*
X56501386Y-93300060D01*
X56483903Y-93282577D01*
X55700093Y-92957912D01*
X54919801Y-92624731D01*
X54895075Y-92624462D01*
X54872231Y-92615000D01*
X54023820Y-92615000D01*
X53175442Y-92605786D01*
X53152496Y-92615000D01*
X53127769Y-92615000D01*
X52343967Y-92939662D01*
X51556615Y-93255820D01*
X51517343Y-93282061D01*
X51516097Y-93282577D01*
X51515144Y-93283530D01*
X51475872Y-93309771D01*
X51428235Y-93370439D01*
X50370439Y-94428235D01*
X50309771Y-94475872D01*
X50300060Y-94498614D01*
X50282577Y-94516097D01*
X49957912Y-95299907D01*
X49624731Y-96080199D01*
X49624462Y-96104925D01*
X49615000Y-96127769D01*
X49615000Y-96976180D01*
X49605786Y-97824558D01*
X44385000Y-97824558D01*
X44385000Y-97023820D01*
X44394214Y-96175442D01*
X44385000Y-96152496D01*
X44385000Y-96127769D01*
X44060338Y-95343967D01*
X43744180Y-94556615D01*
X43717939Y-94517343D01*
X43717423Y-94516097D01*
X43716470Y-94515144D01*
X43690229Y-94475872D01*
X43629561Y-94428235D01*
X42571765Y-93370439D01*
X42524128Y-93309771D01*
X42501386Y-93300060D01*
X42483903Y-93282577D01*
X41700093Y-92957912D01*
X40919801Y-92624731D01*
X40895075Y-92624462D01*
X40872231Y-92615000D01*
X40023820Y-92615000D01*
X39175442Y-92605786D01*
X39152496Y-92615000D01*
X39127769Y-92615000D01*
X38343967Y-92939662D01*
X37556615Y-93255820D01*
X37517343Y-93282061D01*
X37516097Y-93282577D01*
X37515144Y-93283530D01*
X37475872Y-93309771D01*
X37428235Y-93370439D01*
X36370439Y-94428235D01*
X36309771Y-94475872D01*
X36300060Y-94498614D01*
X36282577Y-94516097D01*
X35957912Y-95299907D01*
X35624731Y-96080199D01*
X35624462Y-96104925D01*
X35615000Y-96127769D01*
X35615000Y-96976180D01*
X35605786Y-97824558D01*
X30385000Y-97824558D01*
X30385000Y-97023820D01*
X30394214Y-96175442D01*
X30385000Y-96152496D01*
X30385000Y-96127769D01*
X30060338Y-95343967D01*
X29744180Y-94556615D01*
X29717939Y-94517343D01*
X29717423Y-94516097D01*
X29716470Y-94515144D01*
X29690229Y-94475872D01*
X29629561Y-94428235D01*
X28571765Y-93370439D01*
X28524128Y-93309771D01*
X28501386Y-93300060D01*
X28483903Y-93282577D01*
X27700093Y-92957912D01*
X26919801Y-92624731D01*
X26895075Y-92624462D01*
X26872231Y-92615000D01*
X26023820Y-92615000D01*
X25175442Y-92605786D01*
X25152496Y-92615000D01*
X25127769Y-92615000D01*
X24343967Y-92939662D01*
X23556615Y-93255820D01*
X23517343Y-93282061D01*
X23516097Y-93282577D01*
X23515144Y-93283530D01*
X23475872Y-93309771D01*
X23428235Y-93370439D01*
X22370439Y-94428235D01*
X22309771Y-94475872D01*
X22300060Y-94498614D01*
X22282577Y-94516097D01*
X21957912Y-95299907D01*
X21624731Y-96080199D01*
X21624462Y-96104925D01*
X21615000Y-96127769D01*
X21615000Y-96976180D01*
X21605786Y-97824558D01*
X14685000Y-97824558D01*
X14685000Y-97029673D01*
X14696439Y-96127574D01*
X14685000Y-96098936D01*
X14685000Y-96068095D01*
X14339713Y-95234499D01*
X14005081Y-94396734D01*
X13972508Y-94347985D01*
X13971752Y-94346160D01*
X13970355Y-94344763D01*
X13937782Y-94296014D01*
X13854474Y-94228882D01*
X12771118Y-93145526D01*
X12703986Y-93062218D01*
X12675649Y-93050057D01*
X12653840Y-93028248D01*
X11820243Y-92682961D01*
X10991233Y-92327193D01*
X10960398Y-92326802D01*
X10931905Y-92315000D01*
X10029673Y-92315000D01*
X9127574Y-92303561D01*
X9098936Y-92315000D01*
X9068095Y-92315000D01*
X8234499Y-92660287D01*
X7396734Y-92994919D01*
X7347985Y-93027492D01*
X7346160Y-93028248D01*
X7344763Y-93029645D01*
X7296014Y-93062218D01*
X7228882Y-93145526D01*
X6145526Y-94228882D01*
X6062218Y-94296014D01*
X6050057Y-94324351D01*
X6028248Y-94346160D01*
X5682961Y-95179757D01*
X5327193Y-96008767D01*
X5326802Y-96039602D01*
X5315000Y-96068095D01*
X5315000Y-96970327D01*
X5303561Y-97872426D01*
X735000Y-97872426D01*
X735000Y-83621795D01*
X67973000Y-83621795D01*
X67973000Y-87221795D01*
X67982667Y-87270396D01*
X68010197Y-87311598D01*
X68051399Y-87339128D01*
X68100000Y-87348795D01*
X71800000Y-87348795D01*
X71848601Y-87339128D01*
X71889803Y-87311598D01*
X71917333Y-87270396D01*
X71927000Y-87221795D01*
X71927000Y-83621795D01*
X71917333Y-83573194D01*
X71889803Y-83531992D01*
X71848601Y-83504462D01*
X71800000Y-83494795D01*
X68100000Y-83494795D01*
X68051399Y-83504462D01*
X68010197Y-83531992D01*
X67982667Y-83573194D01*
X67973000Y-83621795D01*
X735000Y-83621795D01*
X735000Y-73872426D01*
X35303561Y-73872426D01*
X35315000Y-73901064D01*
X35315000Y-73931905D01*
X35660287Y-74765501D01*
X35994919Y-75603266D01*
X36027492Y-75652015D01*
X36028248Y-75653840D01*
X36029645Y-75655237D01*
X36062218Y-75703986D01*
X36145526Y-75771118D01*
X37228882Y-76854474D01*
X37296014Y-76937782D01*
X37324351Y-76949943D01*
X37346160Y-76971752D01*
X38179757Y-77317039D01*
X39008767Y-77672807D01*
X39039602Y-77673198D01*
X39068095Y-77685000D01*
X39970327Y-77685000D01*
X40872426Y-77696439D01*
X40901064Y-77685000D01*
X40931905Y-77685000D01*
X41765501Y-77339713D01*
X42603266Y-77005081D01*
X42652015Y-76972508D01*
X42653840Y-76971752D01*
X42655237Y-76970355D01*
X42703986Y-76937782D01*
X42771118Y-76854474D01*
X43854474Y-75771118D01*
X43937782Y-75703986D01*
X43949943Y-75675649D01*
X43971752Y-75653840D01*
X44317039Y-74820243D01*
X44672807Y-73991233D01*
X44673198Y-73960398D01*
X44685000Y-73931905D01*
X44685000Y-73029673D01*
X44696439Y-72127574D01*
X44685000Y-72098936D01*
X44685000Y-72068095D01*
X44339713Y-71234499D01*
X44005081Y-70396734D01*
X43972508Y-70347985D01*
X43971752Y-70346160D01*
X43970355Y-70344763D01*
X43937782Y-70296014D01*
X43854474Y-70228882D01*
X43725592Y-70100000D01*
X61173000Y-70100000D01*
X61173000Y-75400000D01*
X61182667Y-75448601D01*
X61210197Y-75489803D01*
X61251399Y-75517333D01*
X61300000Y-75527000D01*
X66600000Y-75527000D01*
X66648601Y-75517333D01*
X66689803Y-75489803D01*
X66717333Y-75448601D01*
X66727000Y-75400000D01*
X66727000Y-70100000D01*
X66717333Y-70051399D01*
X66689803Y-70010197D01*
X66648601Y-69982667D01*
X66600000Y-69973000D01*
X61300000Y-69973000D01*
X61251399Y-69982667D01*
X61210197Y-70010197D01*
X61182667Y-70051399D01*
X61173000Y-70100000D01*
X43725592Y-70100000D01*
X42771118Y-69145526D01*
X42703986Y-69062218D01*
X42675649Y-69050057D01*
X42653840Y-69028248D01*
X41820243Y-68682961D01*
X40991233Y-68327193D01*
X40960398Y-68326802D01*
X40931905Y-68315000D01*
X40029673Y-68315000D01*
X39127574Y-68303561D01*
X39098936Y-68315000D01*
X39068095Y-68315000D01*
X38234499Y-68660287D01*
X37396734Y-68994919D01*
X37347985Y-69027492D01*
X37346160Y-69028248D01*
X37344763Y-69029645D01*
X37296014Y-69062218D01*
X37228882Y-69145526D01*
X36145526Y-70228882D01*
X36062218Y-70296014D01*
X36050057Y-70324351D01*
X36028248Y-70346160D01*
X35682961Y-71179757D01*
X35327193Y-72008767D01*
X35326802Y-72039602D01*
X35315000Y-72068095D01*
X35315000Y-72970327D01*
X35303561Y-73872426D01*
X735000Y-73872426D01*
X735000Y-56872426D01*
X11303561Y-56872426D01*
X11315000Y-56901064D01*
X11315000Y-56931905D01*
X11660287Y-57765501D01*
X11994919Y-58603266D01*
X12027492Y-58652015D01*
X12028248Y-58653840D01*
X12029645Y-58655237D01*
X12062218Y-58703986D01*
X12145526Y-58771118D01*
X13228882Y-59854474D01*
X13296014Y-59937782D01*
X13324351Y-59949943D01*
X13346160Y-59971752D01*
X14179757Y-60317039D01*
X15008767Y-60672807D01*
X15039602Y-60673198D01*
X15068095Y-60685000D01*
X15970327Y-60685000D01*
X16872426Y-60696439D01*
X16901064Y-60685000D01*
X16931905Y-60685000D01*
X17765501Y-60339713D01*
X18603266Y-60005081D01*
X18652015Y-59972508D01*
X18653840Y-59971752D01*
X18655237Y-59970355D01*
X18703986Y-59937782D01*
X18771118Y-59854474D01*
X19854474Y-58771118D01*
X19937782Y-58703986D01*
X19949943Y-58675649D01*
X19971752Y-58653840D01*
X20317039Y-57820243D01*
X20672807Y-56991233D01*
X20673198Y-56960398D01*
X20685000Y-56931905D01*
X20685000Y-56872426D01*
X59303561Y-56872426D01*
X59315000Y-56901064D01*
X59315000Y-56931905D01*
X59660287Y-57765501D01*
X59994919Y-58603266D01*
X60027492Y-58652015D01*
X60028248Y-58653840D01*
X60029645Y-58655237D01*
X60062218Y-58703986D01*
X60145526Y-58771118D01*
X61228882Y-59854474D01*
X61296014Y-59937782D01*
X61324351Y-59949943D01*
X61346160Y-59971752D01*
X62179757Y-60317039D01*
X63008767Y-60672807D01*
X63039602Y-60673198D01*
X63068095Y-60685000D01*
X63970327Y-60685000D01*
X64872426Y-60696439D01*
X64901064Y-60685000D01*
X64931905Y-60685000D01*
X65765501Y-60339713D01*
X66603266Y-60005081D01*
X66652015Y-59972508D01*
X66653840Y-59971752D01*
X66655237Y-59970355D01*
X66703986Y-59937782D01*
X66771118Y-59854474D01*
X67854474Y-58771118D01*
X67937782Y-58703986D01*
X67949943Y-58675649D01*
X67971752Y-58653840D01*
X68317039Y-57820243D01*
X68672807Y-56991233D01*
X68673198Y-56960398D01*
X68685000Y-56931905D01*
X68685000Y-56029673D01*
X68696439Y-55127574D01*
X68685000Y-55098936D01*
X68685000Y-55068095D01*
X68339713Y-54234499D01*
X68005081Y-53396734D01*
X67972508Y-53347985D01*
X67971752Y-53346160D01*
X67970355Y-53344763D01*
X67937782Y-53296014D01*
X67854474Y-53228882D01*
X66771118Y-52145526D01*
X66703986Y-52062218D01*
X66675649Y-52050057D01*
X66653840Y-52028248D01*
X65820243Y-51682961D01*
X64991233Y-51327193D01*
X64960398Y-51326802D01*
X64931905Y-51315000D01*
X64029673Y-51315000D01*
X63127574Y-51303561D01*
X63098936Y-51315000D01*
X63068095Y-51315000D01*
X62234499Y-51660287D01*
X61396734Y-51994919D01*
X61347985Y-52027492D01*
X61346160Y-52028248D01*
X61344763Y-52029645D01*
X61296014Y-52062218D01*
X61228882Y-52145526D01*
X60145526Y-53228882D01*
X60062218Y-53296014D01*
X60050057Y-53324351D01*
X60028248Y-53346160D01*
X59682961Y-54179757D01*
X59327193Y-55008767D01*
X59326802Y-55039602D01*
X59315000Y-55068095D01*
X59315000Y-55970327D01*
X59303561Y-56872426D01*
X20685000Y-56872426D01*
X20685000Y-56029673D01*
X20696439Y-55127574D01*
X20685000Y-55098936D01*
X20685000Y-55068095D01*
X20339713Y-54234499D01*
X20005081Y-53396734D01*
X19972508Y-53347985D01*
X19971752Y-53346160D01*
X19970355Y-53344763D01*
X19937782Y-53296014D01*
X19854474Y-53228882D01*
X18950150Y-52324558D01*
X35605786Y-52324558D01*
X35615000Y-52347504D01*
X35615000Y-52372231D01*
X35939662Y-53156033D01*
X36255820Y-53943385D01*
X36282061Y-53982657D01*
X36282577Y-53983903D01*
X36283530Y-53984856D01*
X36309771Y-54024128D01*
X36370439Y-54071765D01*
X37428235Y-55129561D01*
X37475872Y-55190229D01*
X37498614Y-55199940D01*
X37516097Y-55217423D01*
X38299907Y-55542088D01*
X39080199Y-55875269D01*
X39104925Y-55875538D01*
X39127769Y-55885000D01*
X39976180Y-55885000D01*
X40824558Y-55894214D01*
X40847504Y-55885000D01*
X40872231Y-55885000D01*
X41656033Y-55560338D01*
X42443385Y-55244180D01*
X42482657Y-55217939D01*
X42483903Y-55217423D01*
X42484856Y-55216470D01*
X42524128Y-55190229D01*
X42571765Y-55129561D01*
X43629561Y-54071765D01*
X43690229Y-54024128D01*
X43699940Y-54001386D01*
X43717423Y-53983903D01*
X44042088Y-53200093D01*
X44375269Y-52419801D01*
X44375538Y-52395075D01*
X44385000Y-52372231D01*
X44385000Y-51523820D01*
X44394214Y-50675442D01*
X44385000Y-50652496D01*
X44385000Y-50627769D01*
X44060338Y-49843967D01*
X43744180Y-49056615D01*
X43717939Y-49017343D01*
X43717423Y-49016097D01*
X43716470Y-49015144D01*
X43690229Y-48975872D01*
X43629561Y-48928235D01*
X42571765Y-47870439D01*
X42524128Y-47809771D01*
X42501386Y-47800060D01*
X42483903Y-47782577D01*
X41700093Y-47457912D01*
X40919801Y-47124731D01*
X40895075Y-47124462D01*
X40872231Y-47115000D01*
X40023820Y-47115000D01*
X39175442Y-47105786D01*
X39152496Y-47115000D01*
X39127769Y-47115000D01*
X38343967Y-47439662D01*
X37556615Y-47755820D01*
X37517343Y-47782061D01*
X37516097Y-47782577D01*
X37515144Y-47783530D01*
X37475872Y-47809771D01*
X37428235Y-47870439D01*
X36370439Y-48928235D01*
X36309771Y-48975872D01*
X36300060Y-48998614D01*
X36282577Y-49016097D01*
X35957912Y-49799907D01*
X35624731Y-50580199D01*
X35624462Y-50604925D01*
X35615000Y-50627769D01*
X35615000Y-51476180D01*
X35605786Y-52324558D01*
X18950150Y-52324558D01*
X18771118Y-52145526D01*
X18703986Y-52062218D01*
X18675649Y-52050057D01*
X18653840Y-52028248D01*
X17820243Y-51682961D01*
X16991233Y-51327193D01*
X16960398Y-51326802D01*
X16931905Y-51315000D01*
X16029673Y-51315000D01*
X15127574Y-51303561D01*
X15098936Y-51315000D01*
X15068095Y-51315000D01*
X14234499Y-51660287D01*
X13396734Y-51994919D01*
X13347985Y-52027492D01*
X13346160Y-52028248D01*
X13344763Y-52029645D01*
X13296014Y-52062218D01*
X13228882Y-52145526D01*
X12145526Y-53228882D01*
X12062218Y-53296014D01*
X12050057Y-53324351D01*
X12028248Y-53346160D01*
X11682961Y-54179757D01*
X11327193Y-55008767D01*
X11326802Y-55039602D01*
X11315000Y-55068095D01*
X11315000Y-55970327D01*
X11303561Y-56872426D01*
X735000Y-56872426D01*
X735000Y-28680488D01*
X27044786Y-28680488D01*
X27115000Y-28865290D01*
X27115000Y-29062986D01*
X28022828Y-31254676D01*
X28865379Y-33472254D01*
X29065335Y-33771510D01*
X29076625Y-33798766D01*
X29097486Y-33819627D01*
X29297442Y-34118883D01*
X30733322Y-35587072D01*
X30799127Y-35521268D01*
X30978732Y-35700873D01*
X30912928Y-35766678D01*
X32381117Y-37202558D01*
X32561445Y-37283586D01*
X32701234Y-37423375D01*
X34892911Y-38331198D01*
X37056762Y-39303494D01*
X37254368Y-39309345D01*
X37437014Y-39385000D01*
X39809296Y-39385000D01*
X42180488Y-39455214D01*
X42365290Y-39385000D01*
X42562986Y-39385000D01*
X44754676Y-38477172D01*
X46972254Y-37634621D01*
X47271510Y-37434665D01*
X47298766Y-37423375D01*
X47319627Y-37402514D01*
X47618883Y-37202558D01*
X49087072Y-35766678D01*
X49021268Y-35700873D01*
X49200873Y-35521268D01*
X49266678Y-35587072D01*
X50702558Y-34118883D01*
X50783586Y-33938555D01*
X50923375Y-33798766D01*
X51831198Y-31607089D01*
X52803494Y-29443238D01*
X52809345Y-29245632D01*
X52885000Y-29062986D01*
X52885000Y-26690704D01*
X52955214Y-24319512D01*
X52885000Y-24134710D01*
X52885000Y-23937014D01*
X51977172Y-21745324D01*
X51134621Y-19527746D01*
X50934665Y-19228490D01*
X50923375Y-19201234D01*
X50902514Y-19180373D01*
X50702558Y-18881117D01*
X49266678Y-17412928D01*
X49200873Y-17478732D01*
X49021268Y-17299127D01*
X49087072Y-17233322D01*
X47618883Y-15797442D01*
X47438555Y-15716414D01*
X47298766Y-15576625D01*
X45107089Y-14668802D01*
X42943238Y-13696506D01*
X42745632Y-13690655D01*
X42562986Y-13615000D01*
X40190704Y-13615000D01*
X37819512Y-13544786D01*
X37634710Y-13615000D01*
X37437014Y-13615000D01*
X35245324Y-14522828D01*
X33027746Y-15365379D01*
X32728490Y-15565335D01*
X32701234Y-15576625D01*
X32680373Y-15597486D01*
X32381117Y-15797442D01*
X30912928Y-17233322D01*
X30978732Y-17299127D01*
X30799127Y-17478732D01*
X30733322Y-17412928D01*
X29297442Y-18881117D01*
X29216414Y-19061445D01*
X29076625Y-19201234D01*
X28168802Y-21392911D01*
X27196506Y-23556762D01*
X27190655Y-23754368D01*
X27115000Y-23937014D01*
X27115000Y-26309296D01*
X27044786Y-28680488D01*
X735000Y-28680488D01*
X735000Y-735000D01*
X2681026Y-735000D01*
X2665000Y-773690D01*
X2665000Y-773690D01*
G37*
X2665000Y-773690D02*
X2665000Y-2714250D01*
X2702033Y-2751283D01*
X2652560Y-2999999D01*
X2652560Y-3000001D01*
X2702033Y-3248717D01*
X2665000Y-3285750D01*
X2665000Y-5226310D01*
X2761673Y-5459699D01*
X2940302Y-5638327D01*
X3173691Y-5735000D01*
X5337455Y-5735000D01*
X5400000Y-5747441D01*
X8600000Y-5747441D01*
X8662545Y-5735000D01*
X10826309Y-5735000D01*
X11059698Y-5638327D01*
X11238327Y-5459699D01*
X11335000Y-5226310D01*
X11335000Y-3285750D01*
X11297967Y-3248717D01*
X11347440Y-3000001D01*
X11347440Y-2999999D01*
X11297967Y-2751283D01*
X11335000Y-2714250D01*
X11335000Y-773690D01*
X11318974Y-735000D01*
X67681026Y-735000D01*
X67665000Y-773690D01*
X67665000Y-2714250D01*
X67702033Y-2751283D01*
X67652560Y-2999999D01*
X67652560Y-3000001D01*
X67702033Y-3248717D01*
X67665000Y-3285750D01*
X67665000Y-5226310D01*
X67761673Y-5459699D01*
X67940302Y-5638327D01*
X68173691Y-5735000D01*
X70337455Y-5735000D01*
X70400000Y-5747441D01*
X73600000Y-5747441D01*
X73662545Y-5735000D01*
X75826309Y-5735000D01*
X76059698Y-5638327D01*
X76238327Y-5459699D01*
X76335000Y-5226310D01*
X76335000Y-3285750D01*
X76297967Y-3248717D01*
X76347440Y-3000001D01*
X76347440Y-2999999D01*
X76297967Y-2751283D01*
X76335000Y-2714250D01*
X76335000Y-773690D01*
X76318974Y-735000D01*
X79265000Y-735000D01*
X79265001Y-127765000D01*
X76318974Y-127765000D01*
X76335000Y-127726310D01*
X76335000Y-125785750D01*
X76297967Y-125748717D01*
X76347440Y-125500001D01*
X76347440Y-125499999D01*
X76297967Y-125251283D01*
X76335000Y-125214250D01*
X76335000Y-123273690D01*
X76238327Y-123040301D01*
X76059698Y-122861673D01*
X75826309Y-122765000D01*
X73662545Y-122765000D01*
X73600000Y-122752559D01*
X70400000Y-122752559D01*
X70337455Y-122765000D01*
X68173691Y-122765000D01*
X67940302Y-122861673D01*
X67761673Y-123040301D01*
X67665000Y-123273690D01*
X67665000Y-125214250D01*
X67702033Y-125251283D01*
X67652560Y-125499999D01*
X67652560Y-125500001D01*
X67702033Y-125748717D01*
X67665000Y-125785750D01*
X67665000Y-127726310D01*
X67681026Y-127765000D01*
X11318974Y-127765000D01*
X11335000Y-127726310D01*
X11335000Y-125785750D01*
X11297967Y-125748717D01*
X11347440Y-125500001D01*
X11347440Y-125499999D01*
X11297967Y-125251283D01*
X11335000Y-125214250D01*
X11335000Y-123273690D01*
X11238327Y-123040301D01*
X11059698Y-122861673D01*
X10826309Y-122765000D01*
X8662545Y-122765000D01*
X8600000Y-122752559D01*
X5400000Y-122752559D01*
X5337455Y-122765000D01*
X3173691Y-122765000D01*
X2940302Y-122861673D01*
X2761673Y-123040301D01*
X2665000Y-123273690D01*
X2665000Y-125214250D01*
X2702033Y-125251283D01*
X2652560Y-125499999D01*
X2652560Y-125500001D01*
X2702033Y-125748717D01*
X2665000Y-125785750D01*
X2665000Y-127726310D01*
X2681026Y-127765000D01*
X735000Y-127765000D01*
X735000Y-113792645D01*
X5807279Y-113792645D01*
X5815000Y-113811798D01*
X5815000Y-113832448D01*
X6125959Y-114583171D01*
X6429763Y-115336793D01*
X6451750Y-115369698D01*
X6452128Y-115370612D01*
X6452827Y-115371311D01*
X6474814Y-115404217D01*
X6522313Y-115440797D01*
X7559203Y-116477687D01*
X7595783Y-116525186D01*
X7614785Y-116533269D01*
X7629388Y-116547872D01*
X8380103Y-116858828D01*
X9127823Y-117176901D01*
X9148473Y-117177097D01*
X9167552Y-117185000D01*
X9980123Y-117185000D01*
X10792645Y-117192721D01*
X10811798Y-117185000D01*
X10832448Y-117185000D01*
X11583171Y-116874041D01*
X12336793Y-116570237D01*
X12369698Y-116548250D01*
X12370612Y-116547872D01*
X12371311Y-116547173D01*
X12404217Y-116525186D01*
X12440797Y-116477687D01*
X13477687Y-115440797D01*
X13525186Y-115404217D01*
X13533269Y-115385215D01*
X13547872Y-115370612D01*
X13858828Y-114619897D01*
X14176901Y-113872177D01*
X14177097Y-113851527D01*
X14185000Y-113832448D01*
X14185000Y-113792645D01*
X21807279Y-113792645D01*
X21815000Y-113811798D01*
X21815000Y-113832448D01*
X22125959Y-114583171D01*
X22429763Y-115336793D01*
X22451750Y-115369698D01*
X22452128Y-115370612D01*
X22452827Y-115371311D01*
X22474814Y-115404217D01*
X22522313Y-115440797D01*
X23559203Y-116477687D01*
X23595783Y-116525186D01*
X23614785Y-116533269D01*
X23629388Y-116547872D01*
X24380103Y-116858828D01*
X25127823Y-117176901D01*
X25148473Y-117177097D01*
X25167552Y-117185000D01*
X25980123Y-117185000D01*
X26792645Y-117192721D01*
X26811798Y-117185000D01*
X26832448Y-117185000D01*
X27583171Y-116874041D01*
X28336793Y-116570237D01*
X28369698Y-116548250D01*
X28370612Y-116547872D01*
X28371311Y-116547173D01*
X28404217Y-116525186D01*
X28440797Y-116477687D01*
X29477687Y-115440797D01*
X29525186Y-115404217D01*
X29533269Y-115385215D01*
X29547872Y-115370612D01*
X29858828Y-114619897D01*
X30176901Y-113872177D01*
X30177097Y-113851527D01*
X30185000Y-113832448D01*
X30185000Y-113792645D01*
X35807279Y-113792645D01*
X35815000Y-113811798D01*
X35815000Y-113832448D01*
X36125959Y-114583171D01*
X36429763Y-115336793D01*
X36451750Y-115369698D01*
X36452128Y-115370612D01*
X36452827Y-115371311D01*
X36474814Y-115404217D01*
X36522313Y-115440797D01*
X37559203Y-116477687D01*
X37595783Y-116525186D01*
X37614785Y-116533269D01*
X37629388Y-116547872D01*
X38380103Y-116858828D01*
X39127823Y-117176901D01*
X39148473Y-117177097D01*
X39167552Y-117185000D01*
X39980123Y-117185000D01*
X40792645Y-117192721D01*
X40811798Y-117185000D01*
X40832448Y-117185000D01*
X41583171Y-116874041D01*
X42336793Y-116570237D01*
X42369698Y-116548250D01*
X42370612Y-116547872D01*
X42371311Y-116547173D01*
X42404217Y-116525186D01*
X42440797Y-116477687D01*
X43477687Y-115440797D01*
X43525186Y-115404217D01*
X43533269Y-115385215D01*
X43547872Y-115370612D01*
X43858828Y-114619897D01*
X44176901Y-113872177D01*
X44177097Y-113851527D01*
X44185000Y-113832448D01*
X44185000Y-113792645D01*
X49807279Y-113792645D01*
X49815000Y-113811798D01*
X49815000Y-113832448D01*
X50125959Y-114583171D01*
X50429763Y-115336793D01*
X50451750Y-115369698D01*
X50452128Y-115370612D01*
X50452827Y-115371311D01*
X50474814Y-115404217D01*
X50522313Y-115440797D01*
X51559203Y-116477687D01*
X51595783Y-116525186D01*
X51614785Y-116533269D01*
X51629388Y-116547872D01*
X52380103Y-116858828D01*
X53127823Y-117176901D01*
X53148473Y-117177097D01*
X53167552Y-117185000D01*
X53980123Y-117185000D01*
X54792645Y-117192721D01*
X54811798Y-117185000D01*
X54832448Y-117185000D01*
X55583171Y-116874041D01*
X56336793Y-116570237D01*
X56369698Y-116548250D01*
X56370612Y-116547872D01*
X56371311Y-116547173D01*
X56404217Y-116525186D01*
X56440797Y-116477687D01*
X57477687Y-115440797D01*
X57525186Y-115404217D01*
X57533269Y-115385215D01*
X57547872Y-115370612D01*
X57858828Y-114619897D01*
X58176901Y-113872177D01*
X58177097Y-113851527D01*
X58185000Y-113832448D01*
X58185000Y-113792645D01*
X65807279Y-113792645D01*
X65815000Y-113811798D01*
X65815000Y-113832448D01*
X66125959Y-114583171D01*
X66429763Y-115336793D01*
X66451750Y-115369698D01*
X66452128Y-115370612D01*
X66452827Y-115371311D01*
X66474814Y-115404217D01*
X66522313Y-115440797D01*
X67559203Y-116477687D01*
X67595783Y-116525186D01*
X67614785Y-116533269D01*
X67629388Y-116547872D01*
X68380103Y-116858828D01*
X69127823Y-117176901D01*
X69148473Y-117177097D01*
X69167552Y-117185000D01*
X69980123Y-117185000D01*
X70792645Y-117192721D01*
X70811798Y-117185000D01*
X70832448Y-117185000D01*
X71583171Y-116874041D01*
X72336793Y-116570237D01*
X72369698Y-116548250D01*
X72370612Y-116547872D01*
X72371311Y-116547173D01*
X72404217Y-116525186D01*
X72440797Y-116477687D01*
X73477687Y-115440797D01*
X73525186Y-115404217D01*
X73533269Y-115385215D01*
X73547872Y-115370612D01*
X73858828Y-114619897D01*
X74176901Y-113872177D01*
X74177097Y-113851527D01*
X74185000Y-113832448D01*
X74185000Y-113019877D01*
X74192721Y-112207355D01*
X74185000Y-112188202D01*
X74185000Y-112167552D01*
X73874041Y-111416829D01*
X73570237Y-110663207D01*
X73548250Y-110630302D01*
X73547872Y-110629388D01*
X73547173Y-110628689D01*
X73525186Y-110595783D01*
X73477687Y-110559203D01*
X72440797Y-109522313D01*
X72404217Y-109474814D01*
X72385215Y-109466731D01*
X72370612Y-109452128D01*
X71619897Y-109141172D01*
X70872177Y-108823099D01*
X70851527Y-108822903D01*
X70832448Y-108815000D01*
X70019877Y-108815000D01*
X69207355Y-108807279D01*
X69188202Y-108815000D01*
X69167552Y-108815000D01*
X68416829Y-109125959D01*
X67663207Y-109429763D01*
X67630302Y-109451750D01*
X67629388Y-109452128D01*
X67628689Y-109452827D01*
X67595783Y-109474814D01*
X67559203Y-109522313D01*
X66522313Y-110559203D01*
X66474814Y-110595783D01*
X66466731Y-110614785D01*
X66452128Y-110629388D01*
X66141172Y-111380103D01*
X65823099Y-112127823D01*
X65822903Y-112148473D01*
X65815000Y-112167552D01*
X65815000Y-112980123D01*
X65807279Y-113792645D01*
X58185000Y-113792645D01*
X58185000Y-113019877D01*
X58192721Y-112207355D01*
X58185000Y-112188202D01*
X58185000Y-112167552D01*
X57874041Y-111416829D01*
X57570237Y-110663207D01*
X57548250Y-110630302D01*
X57547872Y-110629388D01*
X57547173Y-110628689D01*
X57525186Y-110595783D01*
X57477687Y-110559203D01*
X56440797Y-109522313D01*
X56404217Y-109474814D01*
X56385215Y-109466731D01*
X56370612Y-109452128D01*
X55619897Y-109141172D01*
X54872177Y-108823099D01*
X54851527Y-108822903D01*
X54832448Y-108815000D01*
X54019877Y-108815000D01*
X53207355Y-108807279D01*
X53188202Y-108815000D01*
X53167552Y-108815000D01*
X52416829Y-109125959D01*
X51663207Y-109429763D01*
X51630302Y-109451750D01*
X51629388Y-109452128D01*
X51628689Y-109452827D01*
X51595783Y-109474814D01*
X51559203Y-109522313D01*
X50522313Y-110559203D01*
X50474814Y-110595783D01*
X50466731Y-110614785D01*
X50452128Y-110629388D01*
X50141172Y-111380103D01*
X49823099Y-112127823D01*
X49822903Y-112148473D01*
X49815000Y-112167552D01*
X49815000Y-112980123D01*
X49807279Y-113792645D01*
X44185000Y-113792645D01*
X44185000Y-113019877D01*
X44192721Y-112207355D01*
X44185000Y-112188202D01*
X44185000Y-112167552D01*
X43874041Y-111416829D01*
X43570237Y-110663207D01*
X43548250Y-110630302D01*
X43547872Y-110629388D01*
X43547173Y-110628689D01*
X43525186Y-110595783D01*
X43477687Y-110559203D01*
X42440797Y-109522313D01*
X42404217Y-109474814D01*
X42385215Y-109466731D01*
X42370612Y-109452128D01*
X41619897Y-109141172D01*
X40872177Y-108823099D01*
X40851527Y-108822903D01*
X40832448Y-108815000D01*
X40019877Y-108815000D01*
X39207355Y-108807279D01*
X39188202Y-108815000D01*
X39167552Y-108815000D01*
X38416829Y-109125959D01*
X37663207Y-109429763D01*
X37630302Y-109451750D01*
X37629388Y-109452128D01*
X37628689Y-109452827D01*
X37595783Y-109474814D01*
X37559203Y-109522313D01*
X36522313Y-110559203D01*
X36474814Y-110595783D01*
X36466731Y-110614785D01*
X36452128Y-110629388D01*
X36141172Y-111380103D01*
X35823099Y-112127823D01*
X35822903Y-112148473D01*
X35815000Y-112167552D01*
X35815000Y-112980123D01*
X35807279Y-113792645D01*
X30185000Y-113792645D01*
X30185000Y-113019877D01*
X30192721Y-112207355D01*
X30185000Y-112188202D01*
X30185000Y-112167552D01*
X29874041Y-111416829D01*
X29570237Y-110663207D01*
X29548250Y-110630302D01*
X29547872Y-110629388D01*
X29547173Y-110628689D01*
X29525186Y-110595783D01*
X29477687Y-110559203D01*
X28440797Y-109522313D01*
X28404217Y-109474814D01*
X28385215Y-109466731D01*
X28370612Y-109452128D01*
X27619897Y-109141172D01*
X26872177Y-108823099D01*
X26851527Y-108822903D01*
X26832448Y-108815000D01*
X26019877Y-108815000D01*
X25207355Y-108807279D01*
X25188202Y-108815000D01*
X25167552Y-108815000D01*
X24416829Y-109125959D01*
X23663207Y-109429763D01*
X23630302Y-109451750D01*
X23629388Y-109452128D01*
X23628689Y-109452827D01*
X23595783Y-109474814D01*
X23559203Y-109522313D01*
X22522313Y-110559203D01*
X22474814Y-110595783D01*
X22466731Y-110614785D01*
X22452128Y-110629388D01*
X22141172Y-111380103D01*
X21823099Y-112127823D01*
X21822903Y-112148473D01*
X21815000Y-112167552D01*
X21815000Y-112980123D01*
X21807279Y-113792645D01*
X14185000Y-113792645D01*
X14185000Y-113019877D01*
X14192721Y-112207355D01*
X14185000Y-112188202D01*
X14185000Y-112167552D01*
X13874041Y-111416829D01*
X13570237Y-110663207D01*
X13548250Y-110630302D01*
X13547872Y-110629388D01*
X13547173Y-110628689D01*
X13525186Y-110595783D01*
X13477687Y-110559203D01*
X12440797Y-109522313D01*
X12404217Y-109474814D01*
X12385215Y-109466731D01*
X12370612Y-109452128D01*
X11619897Y-109141172D01*
X10872177Y-108823099D01*
X10851527Y-108822903D01*
X10832448Y-108815000D01*
X10019877Y-108815000D01*
X9207355Y-108807279D01*
X9188202Y-108815000D01*
X9167552Y-108815000D01*
X8416829Y-109125959D01*
X7663207Y-109429763D01*
X7630302Y-109451750D01*
X7629388Y-109452128D01*
X7628689Y-109452827D01*
X7595783Y-109474814D01*
X7559203Y-109522313D01*
X6522313Y-110559203D01*
X6474814Y-110595783D01*
X6466731Y-110614785D01*
X6452128Y-110629388D01*
X6141172Y-111380103D01*
X5823099Y-112127823D01*
X5822903Y-112148473D01*
X5815000Y-112167552D01*
X5815000Y-112980123D01*
X5807279Y-113792645D01*
X735000Y-113792645D01*
X735000Y-97872426D01*
X5303561Y-97872426D01*
X5315000Y-97901064D01*
X5315000Y-97931905D01*
X5660287Y-98765501D01*
X5994919Y-99603266D01*
X6027492Y-99652015D01*
X6028248Y-99653840D01*
X6029645Y-99655237D01*
X6062218Y-99703986D01*
X6145526Y-99771118D01*
X7228882Y-100854474D01*
X7296014Y-100937782D01*
X7324351Y-100949943D01*
X7346160Y-100971752D01*
X8179757Y-101317039D01*
X9008767Y-101672807D01*
X9039602Y-101673198D01*
X9068095Y-101685000D01*
X9970327Y-101685000D01*
X10872426Y-101696439D01*
X10901064Y-101685000D01*
X10931905Y-101685000D01*
X11765501Y-101339713D01*
X12603266Y-101005081D01*
X12652015Y-100972508D01*
X12653840Y-100971752D01*
X12655237Y-100970355D01*
X12703986Y-100937782D01*
X12771118Y-100854474D01*
X13854474Y-99771118D01*
X13937782Y-99703986D01*
X13949943Y-99675649D01*
X13971752Y-99653840D01*
X14317039Y-98820243D01*
X14672807Y-97991233D01*
X14673198Y-97960398D01*
X14685000Y-97931905D01*
X14685000Y-97824558D01*
X21605786Y-97824558D01*
X21615000Y-97847504D01*
X21615000Y-97872231D01*
X21939662Y-98656033D01*
X22255820Y-99443385D01*
X22282061Y-99482657D01*
X22282577Y-99483903D01*
X22283530Y-99484856D01*
X22309771Y-99524128D01*
X22370439Y-99571765D01*
X23428235Y-100629561D01*
X23475872Y-100690229D01*
X23498614Y-100699940D01*
X23516097Y-100717423D01*
X24299907Y-101042088D01*
X25080199Y-101375269D01*
X25104925Y-101375538D01*
X25127769Y-101385000D01*
X25976180Y-101385000D01*
X26824558Y-101394214D01*
X26847504Y-101385000D01*
X26872231Y-101385000D01*
X27656033Y-101060338D01*
X28443385Y-100744180D01*
X28482657Y-100717939D01*
X28483903Y-100717423D01*
X28484856Y-100716470D01*
X28524128Y-100690229D01*
X28571765Y-100629561D01*
X29629561Y-99571765D01*
X29690229Y-99524128D01*
X29699940Y-99501386D01*
X29717423Y-99483903D01*
X30042088Y-98700093D01*
X30375269Y-97919801D01*
X30375538Y-97895075D01*
X30385000Y-97872231D01*
X30385000Y-97824558D01*
X35605786Y-97824558D01*
X35615000Y-97847504D01*
X35615000Y-97872231D01*
X35939662Y-98656033D01*
X36255820Y-99443385D01*
X36282061Y-99482657D01*
X36282577Y-99483903D01*
X36283530Y-99484856D01*
X36309771Y-99524128D01*
X36370439Y-99571765D01*
X37428235Y-100629561D01*
X37475872Y-100690229D01*
X37498614Y-100699940D01*
X37516097Y-100717423D01*
X38299907Y-101042088D01*
X39080199Y-101375269D01*
X39104925Y-101375538D01*
X39127769Y-101385000D01*
X39976180Y-101385000D01*
X40824558Y-101394214D01*
X40847504Y-101385000D01*
X40872231Y-101385000D01*
X41656033Y-101060338D01*
X42443385Y-100744180D01*
X42482657Y-100717939D01*
X42483903Y-100717423D01*
X42484856Y-100716470D01*
X42524128Y-100690229D01*
X42571765Y-100629561D01*
X43629561Y-99571765D01*
X43690229Y-99524128D01*
X43699940Y-99501386D01*
X43717423Y-99483903D01*
X44042088Y-98700093D01*
X44375269Y-97919801D01*
X44375538Y-97895075D01*
X44385000Y-97872231D01*
X44385000Y-97824558D01*
X49605786Y-97824558D01*
X49615000Y-97847504D01*
X49615000Y-97872231D01*
X49939662Y-98656033D01*
X50255820Y-99443385D01*
X50282061Y-99482657D01*
X50282577Y-99483903D01*
X50283530Y-99484856D01*
X50309771Y-99524128D01*
X50370439Y-99571765D01*
X51428235Y-100629561D01*
X51475872Y-100690229D01*
X51498614Y-100699940D01*
X51516097Y-100717423D01*
X52299907Y-101042088D01*
X53080199Y-101375269D01*
X53104925Y-101375538D01*
X53127769Y-101385000D01*
X53976180Y-101385000D01*
X54824558Y-101394214D01*
X54847504Y-101385000D01*
X54872231Y-101385000D01*
X55656033Y-101060338D01*
X56443385Y-100744180D01*
X56482657Y-100717939D01*
X56483903Y-100717423D01*
X56484856Y-100716470D01*
X56524128Y-100690229D01*
X56571765Y-100629561D01*
X57629561Y-99571765D01*
X57690229Y-99524128D01*
X57699940Y-99501386D01*
X57717423Y-99483903D01*
X58042088Y-98700093D01*
X58375269Y-97919801D01*
X58375538Y-97895075D01*
X58384919Y-97872426D01*
X65303561Y-97872426D01*
X65315000Y-97901064D01*
X65315000Y-97931905D01*
X65660287Y-98765501D01*
X65994919Y-99603266D01*
X66027492Y-99652015D01*
X66028248Y-99653840D01*
X66029645Y-99655237D01*
X66062218Y-99703986D01*
X66145526Y-99771118D01*
X67228882Y-100854474D01*
X67296014Y-100937782D01*
X67324351Y-100949943D01*
X67346160Y-100971752D01*
X68179757Y-101317039D01*
X69008767Y-101672807D01*
X69039602Y-101673198D01*
X69068095Y-101685000D01*
X69970327Y-101685000D01*
X70872426Y-101696439D01*
X70901064Y-101685000D01*
X70931905Y-101685000D01*
X71765501Y-101339713D01*
X72603266Y-101005081D01*
X72652015Y-100972508D01*
X72653840Y-100971752D01*
X72655237Y-100970355D01*
X72703986Y-100937782D01*
X72771118Y-100854474D01*
X73854474Y-99771118D01*
X73937782Y-99703986D01*
X73949943Y-99675649D01*
X73971752Y-99653840D01*
X74317039Y-98820243D01*
X74672807Y-97991233D01*
X74673198Y-97960398D01*
X74685000Y-97931905D01*
X74685000Y-97029673D01*
X74696439Y-96127574D01*
X74685000Y-96098936D01*
X74685000Y-96068095D01*
X74339713Y-95234499D01*
X74005081Y-94396734D01*
X73972508Y-94347985D01*
X73971752Y-94346160D01*
X73970355Y-94344763D01*
X73937782Y-94296014D01*
X73854474Y-94228882D01*
X72771118Y-93145526D01*
X72703986Y-93062218D01*
X72675649Y-93050057D01*
X72653840Y-93028248D01*
X71820243Y-92682961D01*
X70991233Y-92327193D01*
X70960398Y-92326802D01*
X70931905Y-92315000D01*
X70029673Y-92315000D01*
X69127574Y-92303561D01*
X69098936Y-92315000D01*
X69068095Y-92315000D01*
X68234499Y-92660287D01*
X67396734Y-92994919D01*
X67347985Y-93027492D01*
X67346160Y-93028248D01*
X67344763Y-93029645D01*
X67296014Y-93062218D01*
X67228882Y-93145526D01*
X66145526Y-94228882D01*
X66062218Y-94296014D01*
X66050057Y-94324351D01*
X66028248Y-94346160D01*
X65682961Y-95179757D01*
X65327193Y-96008767D01*
X65326802Y-96039602D01*
X65315000Y-96068095D01*
X65315000Y-96970327D01*
X65303561Y-97872426D01*
X58384919Y-97872426D01*
X58385000Y-97872231D01*
X58385000Y-97023820D01*
X58394214Y-96175442D01*
X58385000Y-96152496D01*
X58385000Y-96127769D01*
X58060338Y-95343967D01*
X57744180Y-94556615D01*
X57717939Y-94517343D01*
X57717423Y-94516097D01*
X57716470Y-94515144D01*
X57690229Y-94475872D01*
X57629561Y-94428235D01*
X56571765Y-93370439D01*
X56524128Y-93309771D01*
X56501386Y-93300060D01*
X56483903Y-93282577D01*
X55700093Y-92957912D01*
X54919801Y-92624731D01*
X54895075Y-92624462D01*
X54872231Y-92615000D01*
X54023820Y-92615000D01*
X53175442Y-92605786D01*
X53152496Y-92615000D01*
X53127769Y-92615000D01*
X52343967Y-92939662D01*
X51556615Y-93255820D01*
X51517343Y-93282061D01*
X51516097Y-93282577D01*
X51515144Y-93283530D01*
X51475872Y-93309771D01*
X51428235Y-93370439D01*
X50370439Y-94428235D01*
X50309771Y-94475872D01*
X50300060Y-94498614D01*
X50282577Y-94516097D01*
X49957912Y-95299907D01*
X49624731Y-96080199D01*
X49624462Y-96104925D01*
X49615000Y-96127769D01*
X49615000Y-96976180D01*
X49605786Y-97824558D01*
X44385000Y-97824558D01*
X44385000Y-97023820D01*
X44394214Y-96175442D01*
X44385000Y-96152496D01*
X44385000Y-96127769D01*
X44060338Y-95343967D01*
X43744180Y-94556615D01*
X43717939Y-94517343D01*
X43717423Y-94516097D01*
X43716470Y-94515144D01*
X43690229Y-94475872D01*
X43629561Y-94428235D01*
X42571765Y-93370439D01*
X42524128Y-93309771D01*
X42501386Y-93300060D01*
X42483903Y-93282577D01*
X41700093Y-92957912D01*
X40919801Y-92624731D01*
X40895075Y-92624462D01*
X40872231Y-92615000D01*
X40023820Y-92615000D01*
X39175442Y-92605786D01*
X39152496Y-92615000D01*
X39127769Y-92615000D01*
X38343967Y-92939662D01*
X37556615Y-93255820D01*
X37517343Y-93282061D01*
X37516097Y-93282577D01*
X37515144Y-93283530D01*
X37475872Y-93309771D01*
X37428235Y-93370439D01*
X36370439Y-94428235D01*
X36309771Y-94475872D01*
X36300060Y-94498614D01*
X36282577Y-94516097D01*
X35957912Y-95299907D01*
X35624731Y-96080199D01*
X35624462Y-96104925D01*
X35615000Y-96127769D01*
X35615000Y-96976180D01*
X35605786Y-97824558D01*
X30385000Y-97824558D01*
X30385000Y-97023820D01*
X30394214Y-96175442D01*
X30385000Y-96152496D01*
X30385000Y-96127769D01*
X30060338Y-95343967D01*
X29744180Y-94556615D01*
X29717939Y-94517343D01*
X29717423Y-94516097D01*
X29716470Y-94515144D01*
X29690229Y-94475872D01*
X29629561Y-94428235D01*
X28571765Y-93370439D01*
X28524128Y-93309771D01*
X28501386Y-93300060D01*
X28483903Y-93282577D01*
X27700093Y-92957912D01*
X26919801Y-92624731D01*
X26895075Y-92624462D01*
X26872231Y-92615000D01*
X26023820Y-92615000D01*
X25175442Y-92605786D01*
X25152496Y-92615000D01*
X25127769Y-92615000D01*
X24343967Y-92939662D01*
X23556615Y-93255820D01*
X23517343Y-93282061D01*
X23516097Y-93282577D01*
X23515144Y-93283530D01*
X23475872Y-93309771D01*
X23428235Y-93370439D01*
X22370439Y-94428235D01*
X22309771Y-94475872D01*
X22300060Y-94498614D01*
X22282577Y-94516097D01*
X21957912Y-95299907D01*
X21624731Y-96080199D01*
X21624462Y-96104925D01*
X21615000Y-96127769D01*
X21615000Y-96976180D01*
X21605786Y-97824558D01*
X14685000Y-97824558D01*
X14685000Y-97029673D01*
X14696439Y-96127574D01*
X14685000Y-96098936D01*
X14685000Y-96068095D01*
X14339713Y-95234499D01*
X14005081Y-94396734D01*
X13972508Y-94347985D01*
X13971752Y-94346160D01*
X13970355Y-94344763D01*
X13937782Y-94296014D01*
X13854474Y-94228882D01*
X12771118Y-93145526D01*
X12703986Y-93062218D01*
X12675649Y-93050057D01*
X12653840Y-93028248D01*
X11820243Y-92682961D01*
X10991233Y-92327193D01*
X10960398Y-92326802D01*
X10931905Y-92315000D01*
X10029673Y-92315000D01*
X9127574Y-92303561D01*
X9098936Y-92315000D01*
X9068095Y-92315000D01*
X8234499Y-92660287D01*
X7396734Y-92994919D01*
X7347985Y-93027492D01*
X7346160Y-93028248D01*
X7344763Y-93029645D01*
X7296014Y-93062218D01*
X7228882Y-93145526D01*
X6145526Y-94228882D01*
X6062218Y-94296014D01*
X6050057Y-94324351D01*
X6028248Y-94346160D01*
X5682961Y-95179757D01*
X5327193Y-96008767D01*
X5326802Y-96039602D01*
X5315000Y-96068095D01*
X5315000Y-96970327D01*
X5303561Y-97872426D01*
X735000Y-97872426D01*
X735000Y-83621795D01*
X67973000Y-83621795D01*
X67973000Y-87221795D01*
X67982667Y-87270396D01*
X68010197Y-87311598D01*
X68051399Y-87339128D01*
X68100000Y-87348795D01*
X71800000Y-87348795D01*
X71848601Y-87339128D01*
X71889803Y-87311598D01*
X71917333Y-87270396D01*
X71927000Y-87221795D01*
X71927000Y-83621795D01*
X71917333Y-83573194D01*
X71889803Y-83531992D01*
X71848601Y-83504462D01*
X71800000Y-83494795D01*
X68100000Y-83494795D01*
X68051399Y-83504462D01*
X68010197Y-83531992D01*
X67982667Y-83573194D01*
X67973000Y-83621795D01*
X735000Y-83621795D01*
X735000Y-73872426D01*
X35303561Y-73872426D01*
X35315000Y-73901064D01*
X35315000Y-73931905D01*
X35660287Y-74765501D01*
X35994919Y-75603266D01*
X36027492Y-75652015D01*
X36028248Y-75653840D01*
X36029645Y-75655237D01*
X36062218Y-75703986D01*
X36145526Y-75771118D01*
X37228882Y-76854474D01*
X37296014Y-76937782D01*
X37324351Y-76949943D01*
X37346160Y-76971752D01*
X38179757Y-77317039D01*
X39008767Y-77672807D01*
X39039602Y-77673198D01*
X39068095Y-77685000D01*
X39970327Y-77685000D01*
X40872426Y-77696439D01*
X40901064Y-77685000D01*
X40931905Y-77685000D01*
X41765501Y-77339713D01*
X42603266Y-77005081D01*
X42652015Y-76972508D01*
X42653840Y-76971752D01*
X42655237Y-76970355D01*
X42703986Y-76937782D01*
X42771118Y-76854474D01*
X43854474Y-75771118D01*
X43937782Y-75703986D01*
X43949943Y-75675649D01*
X43971752Y-75653840D01*
X44317039Y-74820243D01*
X44672807Y-73991233D01*
X44673198Y-73960398D01*
X44685000Y-73931905D01*
X44685000Y-73029673D01*
X44696439Y-72127574D01*
X44685000Y-72098936D01*
X44685000Y-72068095D01*
X44339713Y-71234499D01*
X44005081Y-70396734D01*
X43972508Y-70347985D01*
X43971752Y-70346160D01*
X43970355Y-70344763D01*
X43937782Y-70296014D01*
X43854474Y-70228882D01*
X43725592Y-70100000D01*
X61173000Y-70100000D01*
X61173000Y-75400000D01*
X61182667Y-75448601D01*
X61210197Y-75489803D01*
X61251399Y-75517333D01*
X61300000Y-75527000D01*
X66600000Y-75527000D01*
X66648601Y-75517333D01*
X66689803Y-75489803D01*
X66717333Y-75448601D01*
X66727000Y-75400000D01*
X66727000Y-70100000D01*
X66717333Y-70051399D01*
X66689803Y-70010197D01*
X66648601Y-69982667D01*
X66600000Y-69973000D01*
X61300000Y-69973000D01*
X61251399Y-69982667D01*
X61210197Y-70010197D01*
X61182667Y-70051399D01*
X61173000Y-70100000D01*
X43725592Y-70100000D01*
X42771118Y-69145526D01*
X42703986Y-69062218D01*
X42675649Y-69050057D01*
X42653840Y-69028248D01*
X41820243Y-68682961D01*
X40991233Y-68327193D01*
X40960398Y-68326802D01*
X40931905Y-68315000D01*
X40029673Y-68315000D01*
X39127574Y-68303561D01*
X39098936Y-68315000D01*
X39068095Y-68315000D01*
X38234499Y-68660287D01*
X37396734Y-68994919D01*
X37347985Y-69027492D01*
X37346160Y-69028248D01*
X37344763Y-69029645D01*
X37296014Y-69062218D01*
X37228882Y-69145526D01*
X36145526Y-70228882D01*
X36062218Y-70296014D01*
X36050057Y-70324351D01*
X36028248Y-70346160D01*
X35682961Y-71179757D01*
X35327193Y-72008767D01*
X35326802Y-72039602D01*
X35315000Y-72068095D01*
X35315000Y-72970327D01*
X35303561Y-73872426D01*
X735000Y-73872426D01*
X735000Y-56872426D01*
X11303561Y-56872426D01*
X11315000Y-56901064D01*
X11315000Y-56931905D01*
X11660287Y-57765501D01*
X11994919Y-58603266D01*
X12027492Y-58652015D01*
X12028248Y-58653840D01*
X12029645Y-58655237D01*
X12062218Y-58703986D01*
X12145526Y-58771118D01*
X13228882Y-59854474D01*
X13296014Y-59937782D01*
X13324351Y-59949943D01*
X13346160Y-59971752D01*
X14179757Y-60317039D01*
X15008767Y-60672807D01*
X15039602Y-60673198D01*
X15068095Y-60685000D01*
X15970327Y-60685000D01*
X16872426Y-60696439D01*
X16901064Y-60685000D01*
X16931905Y-60685000D01*
X17765501Y-60339713D01*
X18603266Y-60005081D01*
X18652015Y-59972508D01*
X18653840Y-59971752D01*
X18655237Y-59970355D01*
X18703986Y-59937782D01*
X18771118Y-59854474D01*
X19854474Y-58771118D01*
X19937782Y-58703986D01*
X19949943Y-58675649D01*
X19971752Y-58653840D01*
X20317039Y-57820243D01*
X20672807Y-56991233D01*
X20673198Y-56960398D01*
X20685000Y-56931905D01*
X20685000Y-56872426D01*
X59303561Y-56872426D01*
X59315000Y-56901064D01*
X59315000Y-56931905D01*
X59660287Y-57765501D01*
X59994919Y-58603266D01*
X60027492Y-58652015D01*
X60028248Y-58653840D01*
X60029645Y-58655237D01*
X60062218Y-58703986D01*
X60145526Y-58771118D01*
X61228882Y-59854474D01*
X61296014Y-59937782D01*
X61324351Y-59949943D01*
X61346160Y-59971752D01*
X62179757Y-60317039D01*
X63008767Y-60672807D01*
X63039602Y-60673198D01*
X63068095Y-60685000D01*
X63970327Y-60685000D01*
X64872426Y-60696439D01*
X64901064Y-60685000D01*
X64931905Y-60685000D01*
X65765501Y-60339713D01*
X66603266Y-60005081D01*
X66652015Y-59972508D01*
X66653840Y-59971752D01*
X66655237Y-59970355D01*
X66703986Y-59937782D01*
X66771118Y-59854474D01*
X67854474Y-58771118D01*
X67937782Y-58703986D01*
X67949943Y-58675649D01*
X67971752Y-58653840D01*
X68317039Y-57820243D01*
X68672807Y-56991233D01*
X68673198Y-56960398D01*
X68685000Y-56931905D01*
X68685000Y-56029673D01*
X68696439Y-55127574D01*
X68685000Y-55098936D01*
X68685000Y-55068095D01*
X68339713Y-54234499D01*
X68005081Y-53396734D01*
X67972508Y-53347985D01*
X67971752Y-53346160D01*
X67970355Y-53344763D01*
X67937782Y-53296014D01*
X67854474Y-53228882D01*
X66771118Y-52145526D01*
X66703986Y-52062218D01*
X66675649Y-52050057D01*
X66653840Y-52028248D01*
X65820243Y-51682961D01*
X64991233Y-51327193D01*
X64960398Y-51326802D01*
X64931905Y-51315000D01*
X64029673Y-51315000D01*
X63127574Y-51303561D01*
X63098936Y-51315000D01*
X63068095Y-51315000D01*
X62234499Y-51660287D01*
X61396734Y-51994919D01*
X61347985Y-52027492D01*
X61346160Y-52028248D01*
X61344763Y-52029645D01*
X61296014Y-52062218D01*
X61228882Y-52145526D01*
X60145526Y-53228882D01*
X60062218Y-53296014D01*
X60050057Y-53324351D01*
X60028248Y-53346160D01*
X59682961Y-54179757D01*
X59327193Y-55008767D01*
X59326802Y-55039602D01*
X59315000Y-55068095D01*
X59315000Y-55970327D01*
X59303561Y-56872426D01*
X20685000Y-56872426D01*
X20685000Y-56029673D01*
X20696439Y-55127574D01*
X20685000Y-55098936D01*
X20685000Y-55068095D01*
X20339713Y-54234499D01*
X20005081Y-53396734D01*
X19972508Y-53347985D01*
X19971752Y-53346160D01*
X19970355Y-53344763D01*
X19937782Y-53296014D01*
X19854474Y-53228882D01*
X18950150Y-52324558D01*
X35605786Y-52324558D01*
X35615000Y-52347504D01*
X35615000Y-52372231D01*
X35939662Y-53156033D01*
X36255820Y-53943385D01*
X36282061Y-53982657D01*
X36282577Y-53983903D01*
X36283530Y-53984856D01*
X36309771Y-54024128D01*
X36370439Y-54071765D01*
X37428235Y-55129561D01*
X37475872Y-55190229D01*
X37498614Y-55199940D01*
X37516097Y-55217423D01*
X38299907Y-55542088D01*
X39080199Y-55875269D01*
X39104925Y-55875538D01*
X39127769Y-55885000D01*
X39976180Y-55885000D01*
X40824558Y-55894214D01*
X40847504Y-55885000D01*
X40872231Y-55885000D01*
X41656033Y-55560338D01*
X42443385Y-55244180D01*
X42482657Y-55217939D01*
X42483903Y-55217423D01*
X42484856Y-55216470D01*
X42524128Y-55190229D01*
X42571765Y-55129561D01*
X43629561Y-54071765D01*
X43690229Y-54024128D01*
X43699940Y-54001386D01*
X43717423Y-53983903D01*
X44042088Y-53200093D01*
X44375269Y-52419801D01*
X44375538Y-52395075D01*
X44385000Y-52372231D01*
X44385000Y-51523820D01*
X44394214Y-50675442D01*
X44385000Y-50652496D01*
X44385000Y-50627769D01*
X44060338Y-49843967D01*
X43744180Y-49056615D01*
X43717939Y-49017343D01*
X43717423Y-49016097D01*
X43716470Y-49015144D01*
X43690229Y-48975872D01*
X43629561Y-48928235D01*
X42571765Y-47870439D01*
X42524128Y-47809771D01*
X42501386Y-47800060D01*
X42483903Y-47782577D01*
X41700093Y-47457912D01*
X40919801Y-47124731D01*
X40895075Y-47124462D01*
X40872231Y-47115000D01*
X40023820Y-47115000D01*
X39175442Y-47105786D01*
X39152496Y-47115000D01*
X39127769Y-47115000D01*
X38343967Y-47439662D01*
X37556615Y-47755820D01*
X37517343Y-47782061D01*
X37516097Y-47782577D01*
X37515144Y-47783530D01*
X37475872Y-47809771D01*
X37428235Y-47870439D01*
X36370439Y-48928235D01*
X36309771Y-48975872D01*
X36300060Y-48998614D01*
X36282577Y-49016097D01*
X35957912Y-49799907D01*
X35624731Y-50580199D01*
X35624462Y-50604925D01*
X35615000Y-50627769D01*
X35615000Y-51476180D01*
X35605786Y-52324558D01*
X18950150Y-52324558D01*
X18771118Y-52145526D01*
X18703986Y-52062218D01*
X18675649Y-52050057D01*
X18653840Y-52028248D01*
X17820243Y-51682961D01*
X16991233Y-51327193D01*
X16960398Y-51326802D01*
X16931905Y-51315000D01*
X16029673Y-51315000D01*
X15127574Y-51303561D01*
X15098936Y-51315000D01*
X15068095Y-51315000D01*
X14234499Y-51660287D01*
X13396734Y-51994919D01*
X13347985Y-52027492D01*
X13346160Y-52028248D01*
X13344763Y-52029645D01*
X13296014Y-52062218D01*
X13228882Y-52145526D01*
X12145526Y-53228882D01*
X12062218Y-53296014D01*
X12050057Y-53324351D01*
X12028248Y-53346160D01*
X11682961Y-54179757D01*
X11327193Y-55008767D01*
X11326802Y-55039602D01*
X11315000Y-55068095D01*
X11315000Y-55970327D01*
X11303561Y-56872426D01*
X735000Y-56872426D01*
X735000Y-28680488D01*
X27044786Y-28680488D01*
X27115000Y-28865290D01*
X27115000Y-29062986D01*
X28022828Y-31254676D01*
X28865379Y-33472254D01*
X29065335Y-33771510D01*
X29076625Y-33798766D01*
X29097486Y-33819627D01*
X29297442Y-34118883D01*
X30733322Y-35587072D01*
X30799127Y-35521268D01*
X30978732Y-35700873D01*
X30912928Y-35766678D01*
X32381117Y-37202558D01*
X32561445Y-37283586D01*
X32701234Y-37423375D01*
X34892911Y-38331198D01*
X37056762Y-39303494D01*
X37254368Y-39309345D01*
X37437014Y-39385000D01*
X39809296Y-39385000D01*
X42180488Y-39455214D01*
X42365290Y-39385000D01*
X42562986Y-39385000D01*
X44754676Y-38477172D01*
X46972254Y-37634621D01*
X47271510Y-37434665D01*
X47298766Y-37423375D01*
X47319627Y-37402514D01*
X47618883Y-37202558D01*
X49087072Y-35766678D01*
X49021268Y-35700873D01*
X49200873Y-35521268D01*
X49266678Y-35587072D01*
X50702558Y-34118883D01*
X50783586Y-33938555D01*
X50923375Y-33798766D01*
X51831198Y-31607089D01*
X52803494Y-29443238D01*
X52809345Y-29245632D01*
X52885000Y-29062986D01*
X52885000Y-26690704D01*
X52955214Y-24319512D01*
X52885000Y-24134710D01*
X52885000Y-23937014D01*
X51977172Y-21745324D01*
X51134621Y-19527746D01*
X50934665Y-19228490D01*
X50923375Y-19201234D01*
X50902514Y-19180373D01*
X50702558Y-18881117D01*
X49266678Y-17412928D01*
X49200873Y-17478732D01*
X49021268Y-17299127D01*
X49087072Y-17233322D01*
X47618883Y-15797442D01*
X47438555Y-15716414D01*
X47298766Y-15576625D01*
X45107089Y-14668802D01*
X42943238Y-13696506D01*
X42745632Y-13690655D01*
X42562986Y-13615000D01*
X40190704Y-13615000D01*
X37819512Y-13544786D01*
X37634710Y-13615000D01*
X37437014Y-13615000D01*
X35245324Y-14522828D01*
X33027746Y-15365379D01*
X32728490Y-15565335D01*
X32701234Y-15576625D01*
X32680373Y-15597486D01*
X32381117Y-15797442D01*
X30912928Y-17233322D01*
X30978732Y-17299127D01*
X30799127Y-17478732D01*
X30733322Y-17412928D01*
X29297442Y-18881117D01*
X29216414Y-19061445D01*
X29076625Y-19201234D01*
X28168802Y-21392911D01*
X27196506Y-23556762D01*
X27190655Y-23754368D01*
X27115000Y-23937014D01*
X27115000Y-26309296D01*
X27044786Y-28680488D01*
X735000Y-28680488D01*
X735000Y-735000D01*
X2681026Y-735000D01*
X2665000Y-773690D01*
M02*
