G04 #@! TF.GenerationSoftware,KiCad,Pcbnew,(5.0.0)*
G04 #@! TF.CreationDate,2018-11-12T22:38:03+01:00*
G04 #@! TF.ProjectId,Corona_panel_16hp,436F726F6E615F70616E656C5F313668,1*
G04 #@! TF.SameCoordinates,Original*
G04 #@! TF.FileFunction,Legend,Bot*
G04 #@! TF.FilePolarity,Positive*
%FSLAX46Y46*%
G04 Gerber Fmt 4.6, Leading zero omitted, Abs format (unit mm)*
G04 Created by KiCad (PCBNEW (5.0.0)) date 11/12/18 22:38:03*
%MOMM*%
%LPD*%
G01*
G04 APERTURE LIST*
%ADD10C,0.300000*%
G04 APERTURE END LIST*
D10*
X42714285Y-123260714D02*
X42785714Y-123332142D01*
X43000000Y-123403571D01*
X43142857Y-123403571D01*
X43357142Y-123332142D01*
X43500000Y-123189285D01*
X43571428Y-123046428D01*
X43642857Y-122760714D01*
X43642857Y-122546428D01*
X43571428Y-122260714D01*
X43500000Y-122117857D01*
X43357142Y-121975000D01*
X43142857Y-121903571D01*
X43000000Y-121903571D01*
X42785714Y-121975000D01*
X42714285Y-122046428D01*
X41857142Y-123403571D02*
X42000000Y-123332142D01*
X42071428Y-123260714D01*
X42142857Y-123117857D01*
X42142857Y-122689285D01*
X42071428Y-122546428D01*
X42000000Y-122475000D01*
X41857142Y-122403571D01*
X41642857Y-122403571D01*
X41500000Y-122475000D01*
X41428571Y-122546428D01*
X41357142Y-122689285D01*
X41357142Y-123117857D01*
X41428571Y-123260714D01*
X41500000Y-123332142D01*
X41642857Y-123403571D01*
X41857142Y-123403571D01*
X40714285Y-123403571D02*
X40714285Y-122403571D01*
X40714285Y-122689285D02*
X40642857Y-122546428D01*
X40571428Y-122475000D01*
X40428571Y-122403571D01*
X40285714Y-122403571D01*
X39571428Y-123403571D02*
X39714285Y-123332142D01*
X39785714Y-123260714D01*
X39857142Y-123117857D01*
X39857142Y-122689285D01*
X39785714Y-122546428D01*
X39714285Y-122475000D01*
X39571428Y-122403571D01*
X39357142Y-122403571D01*
X39214285Y-122475000D01*
X39142857Y-122546428D01*
X39071428Y-122689285D01*
X39071428Y-123117857D01*
X39142857Y-123260714D01*
X39214285Y-123332142D01*
X39357142Y-123403571D01*
X39571428Y-123403571D01*
X38428571Y-122403571D02*
X38428571Y-123403571D01*
X38428571Y-122546428D02*
X38357142Y-122475000D01*
X38214285Y-122403571D01*
X38000000Y-122403571D01*
X37857142Y-122475000D01*
X37785714Y-122617857D01*
X37785714Y-123403571D01*
X36428571Y-123403571D02*
X36428571Y-122617857D01*
X36500000Y-122475000D01*
X36642857Y-122403571D01*
X36928571Y-122403571D01*
X37071428Y-122475000D01*
X36428571Y-123332142D02*
X36571428Y-123403571D01*
X36928571Y-123403571D01*
X37071428Y-123332142D01*
X37142857Y-123189285D01*
X37142857Y-123046428D01*
X37071428Y-122903571D01*
X36928571Y-122832142D01*
X36571428Y-122832142D01*
X36428571Y-122760714D01*
X46035714Y-124953571D02*
X46035714Y-126453571D01*
X46035714Y-125025000D02*
X45892857Y-124953571D01*
X45607142Y-124953571D01*
X45464285Y-125025000D01*
X45392857Y-125096428D01*
X45321428Y-125239285D01*
X45321428Y-125667857D01*
X45392857Y-125810714D01*
X45464285Y-125882142D01*
X45607142Y-125953571D01*
X45892857Y-125953571D01*
X46035714Y-125882142D01*
X44035714Y-125953571D02*
X44035714Y-125167857D01*
X44107142Y-125025000D01*
X44250000Y-124953571D01*
X44535714Y-124953571D01*
X44678571Y-125025000D01*
X44035714Y-125882142D02*
X44178571Y-125953571D01*
X44535714Y-125953571D01*
X44678571Y-125882142D01*
X44750000Y-125739285D01*
X44750000Y-125596428D01*
X44678571Y-125453571D01*
X44535714Y-125382142D01*
X44178571Y-125382142D01*
X44035714Y-125310714D01*
X43321428Y-124953571D02*
X43321428Y-125953571D01*
X43321428Y-125096428D02*
X43250000Y-125025000D01*
X43107142Y-124953571D01*
X42892857Y-124953571D01*
X42750000Y-125025000D01*
X42678571Y-125167857D01*
X42678571Y-125953571D01*
X41392857Y-125882142D02*
X41535714Y-125953571D01*
X41821428Y-125953571D01*
X41964285Y-125882142D01*
X42035714Y-125739285D01*
X42035714Y-125167857D01*
X41964285Y-125025000D01*
X41821428Y-124953571D01*
X41535714Y-124953571D01*
X41392857Y-125025000D01*
X41321428Y-125167857D01*
X41321428Y-125310714D01*
X42035714Y-125453571D01*
X40464285Y-125953571D02*
X40607142Y-125882142D01*
X40678571Y-125739285D01*
X40678571Y-124453571D01*
X38750000Y-125953571D02*
X38750000Y-124953571D01*
X38750000Y-125239285D02*
X38678571Y-125096428D01*
X38607142Y-125025000D01*
X38464285Y-124953571D01*
X38321428Y-124953571D01*
X37250000Y-125882142D02*
X37392857Y-125953571D01*
X37678571Y-125953571D01*
X37821428Y-125882142D01*
X37892857Y-125739285D01*
X37892857Y-125167857D01*
X37821428Y-125025000D01*
X37678571Y-124953571D01*
X37392857Y-124953571D01*
X37250000Y-125025000D01*
X37178571Y-125167857D01*
X37178571Y-125310714D01*
X37892857Y-125453571D01*
X36678571Y-124953571D02*
X36321428Y-125953571D01*
X35964285Y-124953571D01*
X35392857Y-125810714D02*
X35321428Y-125882142D01*
X35392857Y-125953571D01*
X35464285Y-125882142D01*
X35392857Y-125810714D01*
X35392857Y-125953571D01*
X33892857Y-125953571D02*
X34750000Y-125953571D01*
X34321428Y-125953571D02*
X34321428Y-124453571D01*
X34464285Y-124667857D01*
X34607142Y-124810714D01*
X34750000Y-124882142D01*
M02*
