G04 #@! TF.GenerationSoftware,KiCad,Pcbnew,(5.0.0)*
G04 #@! TF.CreationDate,2018-11-19T22:29:05+01:00*
G04 #@! TF.ProjectId,Corona_panel_16hp,436F726F6E615F70616E656C5F313668,1*
G04 #@! TF.SameCoordinates,Original*
G04 #@! TF.FileFunction,Copper,L1,Top,Signal*
G04 #@! TF.FilePolarity,Positive*
%FSLAX46Y46*%
G04 Gerber Fmt 4.6, Leading zero omitted, Abs format (unit mm)*
G04 Created by KiCad (PCBNEW (5.0.0)) date 11/19/18 22:29:05*
%MOMM*%
%LPD*%
G01*
G04 APERTURE LIST*
G04 #@! TA.AperFunction,Conductor*
%ADD10C,0.100000*%
G04 #@! TD*
G04 #@! TA.AperFunction,WasherPad*
%ADD11C,4.200000*%
G04 #@! TD*
G04 #@! TA.AperFunction,WasherPad*
%ADD12C,7.500000*%
G04 #@! TD*
G04 #@! TA.AperFunction,WasherPad*
%ADD13C,8.100000*%
G04 #@! TD*
G04 #@! TA.AperFunction,WasherPad*
%ADD14C,7.100000*%
G04 #@! TD*
G04 #@! TA.AperFunction,WasherPad*
%ADD15C,24.500000*%
G04 #@! TD*
G04 #@! TA.AperFunction,NonConductor*
%ADD16C,0.254000*%
G04 #@! TD*
G04 APERTURE END LIST*
D10*
G04 #@! TO.N,*
G04 #@! TO.C,MH1*
G36*
X73805836Y-123410111D02*
X74009690Y-123440350D01*
X74209598Y-123490424D01*
X74403635Y-123559852D01*
X74589933Y-123647964D01*
X74766697Y-123753913D01*
X74932226Y-123876677D01*
X75084924Y-124015075D01*
X75223322Y-124167773D01*
X75346086Y-124333302D01*
X75452035Y-124510066D01*
X75540147Y-124696364D01*
X75609575Y-124890401D01*
X75659649Y-125090309D01*
X75689888Y-125294163D01*
X75700000Y-125499999D01*
X75700000Y-125500001D01*
X75689888Y-125705837D01*
X75659649Y-125909691D01*
X75609575Y-126109599D01*
X75540147Y-126303636D01*
X75452035Y-126489934D01*
X75346086Y-126666698D01*
X75223322Y-126832227D01*
X75084924Y-126984925D01*
X74932226Y-127123323D01*
X74766697Y-127246087D01*
X74589933Y-127352036D01*
X74403635Y-127440148D01*
X74209598Y-127509576D01*
X74009690Y-127559650D01*
X73805836Y-127589889D01*
X73600000Y-127600001D01*
X70400000Y-127600001D01*
X70194164Y-127589889D01*
X69990310Y-127559650D01*
X69790402Y-127509576D01*
X69596365Y-127440148D01*
X69410067Y-127352036D01*
X69233303Y-127246087D01*
X69067774Y-127123323D01*
X68915076Y-126984925D01*
X68776678Y-126832227D01*
X68653914Y-126666698D01*
X68547965Y-126489934D01*
X68459853Y-126303636D01*
X68390425Y-126109599D01*
X68340351Y-125909691D01*
X68310112Y-125705837D01*
X68300000Y-125500001D01*
X68300000Y-125499999D01*
X68310112Y-125294163D01*
X68340351Y-125090309D01*
X68390425Y-124890401D01*
X68459853Y-124696364D01*
X68547965Y-124510066D01*
X68653914Y-124333302D01*
X68776678Y-124167773D01*
X68915076Y-124015075D01*
X69067774Y-123876677D01*
X69233303Y-123753913D01*
X69410067Y-123647964D01*
X69596365Y-123559852D01*
X69790402Y-123490424D01*
X69990310Y-123440350D01*
X70194164Y-123410111D01*
X70400000Y-123399999D01*
X73600000Y-123399999D01*
X73805836Y-123410111D01*
X73805836Y-123410111D01*
G37*
D11*
G04 #@! TD*
G04 #@! TO.P,MH1,*
G04 #@! TO.N,*
X72000000Y-125500000D03*
D10*
G04 #@! TO.N,*
G04 #@! TO.C,MH1*
G36*
X8805836Y-123410111D02*
X9009690Y-123440350D01*
X9209598Y-123490424D01*
X9403635Y-123559852D01*
X9589933Y-123647964D01*
X9766697Y-123753913D01*
X9932226Y-123876677D01*
X10084924Y-124015075D01*
X10223322Y-124167773D01*
X10346086Y-124333302D01*
X10452035Y-124510066D01*
X10540147Y-124696364D01*
X10609575Y-124890401D01*
X10659649Y-125090309D01*
X10689888Y-125294163D01*
X10700000Y-125499999D01*
X10700000Y-125500001D01*
X10689888Y-125705837D01*
X10659649Y-125909691D01*
X10609575Y-126109599D01*
X10540147Y-126303636D01*
X10452035Y-126489934D01*
X10346086Y-126666698D01*
X10223322Y-126832227D01*
X10084924Y-126984925D01*
X9932226Y-127123323D01*
X9766697Y-127246087D01*
X9589933Y-127352036D01*
X9403635Y-127440148D01*
X9209598Y-127509576D01*
X9009690Y-127559650D01*
X8805836Y-127589889D01*
X8600000Y-127600001D01*
X5400000Y-127600001D01*
X5194164Y-127589889D01*
X4990310Y-127559650D01*
X4790402Y-127509576D01*
X4596365Y-127440148D01*
X4410067Y-127352036D01*
X4233303Y-127246087D01*
X4067774Y-127123323D01*
X3915076Y-126984925D01*
X3776678Y-126832227D01*
X3653914Y-126666698D01*
X3547965Y-126489934D01*
X3459853Y-126303636D01*
X3390425Y-126109599D01*
X3340351Y-125909691D01*
X3310112Y-125705837D01*
X3300000Y-125500001D01*
X3300000Y-125499999D01*
X3310112Y-125294163D01*
X3340351Y-125090309D01*
X3390425Y-124890401D01*
X3459853Y-124696364D01*
X3547965Y-124510066D01*
X3653914Y-124333302D01*
X3776678Y-124167773D01*
X3915076Y-124015075D01*
X4067774Y-123876677D01*
X4233303Y-123753913D01*
X4410067Y-123647964D01*
X4596365Y-123559852D01*
X4790402Y-123490424D01*
X4990310Y-123440350D01*
X5194164Y-123410111D01*
X5400000Y-123399999D01*
X8600000Y-123399999D01*
X8805836Y-123410111D01*
X8805836Y-123410111D01*
G37*
D11*
G04 #@! TD*
G04 #@! TO.P,MH1,*
G04 #@! TO.N,*
X7000000Y-125500000D03*
D12*
G04 #@! TO.P,MH5,*
G04 #@! TO.N,*
X54000000Y-96000000D03*
G04 #@! TD*
G04 #@! TO.P,MH5,*
G04 #@! TO.N,*
X40000000Y-96000000D03*
G04 #@! TD*
G04 #@! TO.P,MH5,*
G04 #@! TO.N,*
X26000000Y-96000000D03*
G04 #@! TD*
D13*
G04 #@! TO.P,MH6,*
G04 #@! TO.N,*
X40000000Y-72000000D03*
G04 #@! TD*
D14*
G04 #@! TO.P,MH3,*
G04 #@! TO.N,*
X26000000Y-112000000D03*
G04 #@! TD*
G04 #@! TO.P,MH3,*
G04 #@! TO.N,*
X70000000Y-112000000D03*
G04 #@! TD*
G04 #@! TO.P,MH3,*
G04 #@! TO.N,*
X54000000Y-112000000D03*
G04 #@! TD*
G04 #@! TO.P,MH3,*
G04 #@! TO.N,*
X40000000Y-112000000D03*
G04 #@! TD*
D13*
G04 #@! TO.P,MH6,*
G04 #@! TO.N,*
X70000000Y-96000000D03*
G04 #@! TD*
G04 #@! TO.P,MH6,*
G04 #@! TO.N,*
X10000000Y-96000000D03*
G04 #@! TD*
G04 #@! TO.P,MH6,*
G04 #@! TO.N,*
X16000000Y-55000000D03*
G04 #@! TD*
D10*
G04 #@! TO.N,*
G04 #@! TO.C,MH1*
G36*
X73805836Y-910111D02*
X74009690Y-940350D01*
X74209598Y-990424D01*
X74403635Y-1059852D01*
X74589933Y-1147964D01*
X74766697Y-1253913D01*
X74932226Y-1376677D01*
X75084924Y-1515075D01*
X75223322Y-1667773D01*
X75346086Y-1833302D01*
X75452035Y-2010066D01*
X75540147Y-2196364D01*
X75609575Y-2390401D01*
X75659649Y-2590309D01*
X75689888Y-2794163D01*
X75700000Y-2999999D01*
X75700000Y-3000001D01*
X75689888Y-3205837D01*
X75659649Y-3409691D01*
X75609575Y-3609599D01*
X75540147Y-3803636D01*
X75452035Y-3989934D01*
X75346086Y-4166698D01*
X75223322Y-4332227D01*
X75084924Y-4484925D01*
X74932226Y-4623323D01*
X74766697Y-4746087D01*
X74589933Y-4852036D01*
X74403635Y-4940148D01*
X74209598Y-5009576D01*
X74009690Y-5059650D01*
X73805836Y-5089889D01*
X73600000Y-5100001D01*
X70400000Y-5100001D01*
X70194164Y-5089889D01*
X69990310Y-5059650D01*
X69790402Y-5009576D01*
X69596365Y-4940148D01*
X69410067Y-4852036D01*
X69233303Y-4746087D01*
X69067774Y-4623323D01*
X68915076Y-4484925D01*
X68776678Y-4332227D01*
X68653914Y-4166698D01*
X68547965Y-3989934D01*
X68459853Y-3803636D01*
X68390425Y-3609599D01*
X68340351Y-3409691D01*
X68310112Y-3205837D01*
X68300000Y-3000001D01*
X68300000Y-2999999D01*
X68310112Y-2794163D01*
X68340351Y-2590309D01*
X68390425Y-2390401D01*
X68459853Y-2196364D01*
X68547965Y-2010066D01*
X68653914Y-1833302D01*
X68776678Y-1667773D01*
X68915076Y-1515075D01*
X69067774Y-1376677D01*
X69233303Y-1253913D01*
X69410067Y-1147964D01*
X69596365Y-1059852D01*
X69790402Y-990424D01*
X69990310Y-940350D01*
X70194164Y-910111D01*
X70400000Y-899999D01*
X73600000Y-899999D01*
X73805836Y-910111D01*
X73805836Y-910111D01*
G37*
D11*
G04 #@! TD*
G04 #@! TO.P,MH1,*
G04 #@! TO.N,*
X72000000Y-3000000D03*
D10*
G04 #@! TO.N,*
G04 #@! TO.C,MH1*
G36*
X8805836Y-910111D02*
X9009690Y-940350D01*
X9209598Y-990424D01*
X9403635Y-1059852D01*
X9589933Y-1147964D01*
X9766697Y-1253913D01*
X9932226Y-1376677D01*
X10084924Y-1515075D01*
X10223322Y-1667773D01*
X10346086Y-1833302D01*
X10452035Y-2010066D01*
X10540147Y-2196364D01*
X10609575Y-2390401D01*
X10659649Y-2590309D01*
X10689888Y-2794163D01*
X10700000Y-2999999D01*
X10700000Y-3000001D01*
X10689888Y-3205837D01*
X10659649Y-3409691D01*
X10609575Y-3609599D01*
X10540147Y-3803636D01*
X10452035Y-3989934D01*
X10346086Y-4166698D01*
X10223322Y-4332227D01*
X10084924Y-4484925D01*
X9932226Y-4623323D01*
X9766697Y-4746087D01*
X9589933Y-4852036D01*
X9403635Y-4940148D01*
X9209598Y-5009576D01*
X9009690Y-5059650D01*
X8805836Y-5089889D01*
X8600000Y-5100001D01*
X5400000Y-5100001D01*
X5194164Y-5089889D01*
X4990310Y-5059650D01*
X4790402Y-5009576D01*
X4596365Y-4940148D01*
X4410067Y-4852036D01*
X4233303Y-4746087D01*
X4067774Y-4623323D01*
X3915076Y-4484925D01*
X3776678Y-4332227D01*
X3653914Y-4166698D01*
X3547965Y-3989934D01*
X3459853Y-3803636D01*
X3390425Y-3609599D01*
X3340351Y-3409691D01*
X3310112Y-3205837D01*
X3300000Y-3000001D01*
X3300000Y-2999999D01*
X3310112Y-2794163D01*
X3340351Y-2590309D01*
X3390425Y-2390401D01*
X3459853Y-2196364D01*
X3547965Y-2010066D01*
X3653914Y-1833302D01*
X3776678Y-1667773D01*
X3915076Y-1515075D01*
X4067774Y-1376677D01*
X4233303Y-1253913D01*
X4410067Y-1147964D01*
X4596365Y-1059852D01*
X4790402Y-990424D01*
X4990310Y-940350D01*
X5194164Y-910111D01*
X5400000Y-899999D01*
X8600000Y-899999D01*
X8805836Y-910111D01*
X8805836Y-910111D01*
G37*
D11*
G04 #@! TD*
G04 #@! TO.P,MH1,*
G04 #@! TO.N,*
X7000000Y-3000000D03*
D13*
G04 #@! TO.P,MH6,*
G04 #@! TO.N,*
X64000000Y-55000000D03*
G04 #@! TD*
D14*
G04 #@! TO.P,MH3,*
G04 #@! TO.N,*
X10000000Y-112000000D03*
G04 #@! TD*
D12*
G04 #@! TO.P,MH5,*
G04 #@! TO.N,*
X40000000Y-50500000D03*
G04 #@! TD*
D15*
G04 #@! TO.P,REF\002A\002A,*
G04 #@! TO.N,*
X40000000Y-25000000D03*
G04 #@! TD*
D16*
G36*
X2665000Y-773690D02*
X2665000Y-2714250D01*
X2702033Y-2751283D01*
X2652560Y-2999999D01*
X2652560Y-3000001D01*
X2702033Y-3248717D01*
X2665000Y-3285750D01*
X2665000Y-5226310D01*
X2761673Y-5459699D01*
X2940302Y-5638327D01*
X3173691Y-5735000D01*
X5337455Y-5735000D01*
X5400000Y-5747441D01*
X8600000Y-5747441D01*
X8662545Y-5735000D01*
X10826309Y-5735000D01*
X11059698Y-5638327D01*
X11238327Y-5459699D01*
X11335000Y-5226310D01*
X11335000Y-3285750D01*
X11297967Y-3248717D01*
X11347440Y-3000001D01*
X11347440Y-2999999D01*
X11297967Y-2751283D01*
X11335000Y-2714250D01*
X11335000Y-773690D01*
X11318974Y-735000D01*
X67681026Y-735000D01*
X67665000Y-773690D01*
X67665000Y-2714250D01*
X67702033Y-2751283D01*
X67652560Y-2999999D01*
X67652560Y-3000001D01*
X67702033Y-3248717D01*
X67665000Y-3285750D01*
X67665000Y-5226310D01*
X67761673Y-5459699D01*
X67940302Y-5638327D01*
X68173691Y-5735000D01*
X70337455Y-5735000D01*
X70400000Y-5747441D01*
X73600000Y-5747441D01*
X73662545Y-5735000D01*
X75826309Y-5735000D01*
X76059698Y-5638327D01*
X76238327Y-5459699D01*
X76335000Y-5226310D01*
X76335000Y-3285750D01*
X76297967Y-3248717D01*
X76347440Y-3000001D01*
X76347440Y-2999999D01*
X76297967Y-2751283D01*
X76335000Y-2714250D01*
X76335000Y-773690D01*
X76318974Y-735000D01*
X79265000Y-735000D01*
X79265001Y-127765000D01*
X76318974Y-127765000D01*
X76335000Y-127726310D01*
X76335000Y-125785750D01*
X76297967Y-125748717D01*
X76347440Y-125500001D01*
X76347440Y-125499999D01*
X76297967Y-125251283D01*
X76335000Y-125214250D01*
X76335000Y-123273690D01*
X76238327Y-123040301D01*
X76059698Y-122861673D01*
X75826309Y-122765000D01*
X73662545Y-122765000D01*
X73600000Y-122752559D01*
X70400000Y-122752559D01*
X70337455Y-122765000D01*
X68173691Y-122765000D01*
X67940302Y-122861673D01*
X67761673Y-123040301D01*
X67665000Y-123273690D01*
X67665000Y-125214250D01*
X67702033Y-125251283D01*
X67652560Y-125499999D01*
X67652560Y-125500001D01*
X67702033Y-125748717D01*
X67665000Y-125785750D01*
X67665000Y-127726310D01*
X67681026Y-127765000D01*
X11318974Y-127765000D01*
X11335000Y-127726310D01*
X11335000Y-125785750D01*
X11297967Y-125748717D01*
X11347440Y-125500001D01*
X11347440Y-125499999D01*
X11297967Y-125251283D01*
X11335000Y-125214250D01*
X11335000Y-123273690D01*
X11238327Y-123040301D01*
X11059698Y-122861673D01*
X10826309Y-122765000D01*
X8662545Y-122765000D01*
X8600000Y-122752559D01*
X5400000Y-122752559D01*
X5337455Y-122765000D01*
X3173691Y-122765000D01*
X2940302Y-122861673D01*
X2761673Y-123040301D01*
X2665000Y-123273690D01*
X2665000Y-125214250D01*
X2702033Y-125251283D01*
X2652560Y-125499999D01*
X2652560Y-125500001D01*
X2702033Y-125748717D01*
X2665000Y-125785750D01*
X2665000Y-127726310D01*
X2681026Y-127765000D01*
X735000Y-127765000D01*
X735000Y-112792645D01*
X5807279Y-112792645D01*
X5815000Y-112811798D01*
X5815000Y-112832448D01*
X6125959Y-113583171D01*
X6429763Y-114336793D01*
X6451750Y-114369698D01*
X6452128Y-114370612D01*
X6452827Y-114371311D01*
X6474814Y-114404217D01*
X6522313Y-114440797D01*
X7559203Y-115477687D01*
X7595783Y-115525186D01*
X7614785Y-115533269D01*
X7629388Y-115547872D01*
X8380103Y-115858828D01*
X9127823Y-116176901D01*
X9148473Y-116177097D01*
X9167552Y-116185000D01*
X9980123Y-116185000D01*
X10792645Y-116192721D01*
X10811798Y-116185000D01*
X10832448Y-116185000D01*
X11583171Y-115874041D01*
X12336793Y-115570237D01*
X12369698Y-115548250D01*
X12370612Y-115547872D01*
X12371311Y-115547173D01*
X12404217Y-115525186D01*
X12440797Y-115477687D01*
X13477687Y-114440797D01*
X13525186Y-114404217D01*
X13533269Y-114385215D01*
X13547872Y-114370612D01*
X13858828Y-113619897D01*
X14176901Y-112872177D01*
X14177097Y-112851527D01*
X14185000Y-112832448D01*
X14185000Y-112792645D01*
X21807279Y-112792645D01*
X21815000Y-112811798D01*
X21815000Y-112832448D01*
X22125959Y-113583171D01*
X22429763Y-114336793D01*
X22451750Y-114369698D01*
X22452128Y-114370612D01*
X22452827Y-114371311D01*
X22474814Y-114404217D01*
X22522313Y-114440797D01*
X23559203Y-115477687D01*
X23595783Y-115525186D01*
X23614785Y-115533269D01*
X23629388Y-115547872D01*
X24380103Y-115858828D01*
X25127823Y-116176901D01*
X25148473Y-116177097D01*
X25167552Y-116185000D01*
X25980123Y-116185000D01*
X26792645Y-116192721D01*
X26811798Y-116185000D01*
X26832448Y-116185000D01*
X27583171Y-115874041D01*
X28336793Y-115570237D01*
X28369698Y-115548250D01*
X28370612Y-115547872D01*
X28371311Y-115547173D01*
X28404217Y-115525186D01*
X28440797Y-115477687D01*
X29477687Y-114440797D01*
X29525186Y-114404217D01*
X29533269Y-114385215D01*
X29547872Y-114370612D01*
X29858828Y-113619897D01*
X30176901Y-112872177D01*
X30177097Y-112851527D01*
X30185000Y-112832448D01*
X30185000Y-112792645D01*
X35807279Y-112792645D01*
X35815000Y-112811798D01*
X35815000Y-112832448D01*
X36125959Y-113583171D01*
X36429763Y-114336793D01*
X36451750Y-114369698D01*
X36452128Y-114370612D01*
X36452827Y-114371311D01*
X36474814Y-114404217D01*
X36522313Y-114440797D01*
X37559203Y-115477687D01*
X37595783Y-115525186D01*
X37614785Y-115533269D01*
X37629388Y-115547872D01*
X38380103Y-115858828D01*
X39127823Y-116176901D01*
X39148473Y-116177097D01*
X39167552Y-116185000D01*
X39980123Y-116185000D01*
X40792645Y-116192721D01*
X40811798Y-116185000D01*
X40832448Y-116185000D01*
X41583171Y-115874041D01*
X42336793Y-115570237D01*
X42369698Y-115548250D01*
X42370612Y-115547872D01*
X42371311Y-115547173D01*
X42404217Y-115525186D01*
X42440797Y-115477687D01*
X43477687Y-114440797D01*
X43525186Y-114404217D01*
X43533269Y-114385215D01*
X43547872Y-114370612D01*
X43858828Y-113619897D01*
X44176901Y-112872177D01*
X44177097Y-112851527D01*
X44185000Y-112832448D01*
X44185000Y-112792645D01*
X49807279Y-112792645D01*
X49815000Y-112811798D01*
X49815000Y-112832448D01*
X50125959Y-113583171D01*
X50429763Y-114336793D01*
X50451750Y-114369698D01*
X50452128Y-114370612D01*
X50452827Y-114371311D01*
X50474814Y-114404217D01*
X50522313Y-114440797D01*
X51559203Y-115477687D01*
X51595783Y-115525186D01*
X51614785Y-115533269D01*
X51629388Y-115547872D01*
X52380103Y-115858828D01*
X53127823Y-116176901D01*
X53148473Y-116177097D01*
X53167552Y-116185000D01*
X53980123Y-116185000D01*
X54792645Y-116192721D01*
X54811798Y-116185000D01*
X54832448Y-116185000D01*
X55583171Y-115874041D01*
X56336793Y-115570237D01*
X56369698Y-115548250D01*
X56370612Y-115547872D01*
X56371311Y-115547173D01*
X56404217Y-115525186D01*
X56440797Y-115477687D01*
X57477687Y-114440797D01*
X57525186Y-114404217D01*
X57533269Y-114385215D01*
X57547872Y-114370612D01*
X57858828Y-113619897D01*
X58176901Y-112872177D01*
X58177097Y-112851527D01*
X58185000Y-112832448D01*
X58185000Y-112792645D01*
X65807279Y-112792645D01*
X65815000Y-112811798D01*
X65815000Y-112832448D01*
X66125959Y-113583171D01*
X66429763Y-114336793D01*
X66451750Y-114369698D01*
X66452128Y-114370612D01*
X66452827Y-114371311D01*
X66474814Y-114404217D01*
X66522313Y-114440797D01*
X67559203Y-115477687D01*
X67595783Y-115525186D01*
X67614785Y-115533269D01*
X67629388Y-115547872D01*
X68380103Y-115858828D01*
X69127823Y-116176901D01*
X69148473Y-116177097D01*
X69167552Y-116185000D01*
X69980123Y-116185000D01*
X70792645Y-116192721D01*
X70811798Y-116185000D01*
X70832448Y-116185000D01*
X71583171Y-115874041D01*
X72336793Y-115570237D01*
X72369698Y-115548250D01*
X72370612Y-115547872D01*
X72371311Y-115547173D01*
X72404217Y-115525186D01*
X72440797Y-115477687D01*
X73477687Y-114440797D01*
X73525186Y-114404217D01*
X73533269Y-114385215D01*
X73547872Y-114370612D01*
X73858828Y-113619897D01*
X74176901Y-112872177D01*
X74177097Y-112851527D01*
X74185000Y-112832448D01*
X74185000Y-112019877D01*
X74192721Y-111207355D01*
X74185000Y-111188202D01*
X74185000Y-111167552D01*
X73874041Y-110416829D01*
X73570237Y-109663207D01*
X73548250Y-109630302D01*
X73547872Y-109629388D01*
X73547173Y-109628689D01*
X73525186Y-109595783D01*
X73477687Y-109559203D01*
X72440797Y-108522313D01*
X72404217Y-108474814D01*
X72385215Y-108466731D01*
X72370612Y-108452128D01*
X71619897Y-108141172D01*
X70872177Y-107823099D01*
X70851527Y-107822903D01*
X70832448Y-107815000D01*
X70019877Y-107815000D01*
X69207355Y-107807279D01*
X69188202Y-107815000D01*
X69167552Y-107815000D01*
X68416829Y-108125959D01*
X67663207Y-108429763D01*
X67630302Y-108451750D01*
X67629388Y-108452128D01*
X67628689Y-108452827D01*
X67595783Y-108474814D01*
X67559203Y-108522313D01*
X66522313Y-109559203D01*
X66474814Y-109595783D01*
X66466731Y-109614785D01*
X66452128Y-109629388D01*
X66141172Y-110380103D01*
X65823099Y-111127823D01*
X65822903Y-111148473D01*
X65815000Y-111167552D01*
X65815000Y-111980123D01*
X65807279Y-112792645D01*
X58185000Y-112792645D01*
X58185000Y-112019877D01*
X58192721Y-111207355D01*
X58185000Y-111188202D01*
X58185000Y-111167552D01*
X57874041Y-110416829D01*
X57570237Y-109663207D01*
X57548250Y-109630302D01*
X57547872Y-109629388D01*
X57547173Y-109628689D01*
X57525186Y-109595783D01*
X57477687Y-109559203D01*
X56440797Y-108522313D01*
X56404217Y-108474814D01*
X56385215Y-108466731D01*
X56370612Y-108452128D01*
X55619897Y-108141172D01*
X54872177Y-107823099D01*
X54851527Y-107822903D01*
X54832448Y-107815000D01*
X54019877Y-107815000D01*
X53207355Y-107807279D01*
X53188202Y-107815000D01*
X53167552Y-107815000D01*
X52416829Y-108125959D01*
X51663207Y-108429763D01*
X51630302Y-108451750D01*
X51629388Y-108452128D01*
X51628689Y-108452827D01*
X51595783Y-108474814D01*
X51559203Y-108522313D01*
X50522313Y-109559203D01*
X50474814Y-109595783D01*
X50466731Y-109614785D01*
X50452128Y-109629388D01*
X50141172Y-110380103D01*
X49823099Y-111127823D01*
X49822903Y-111148473D01*
X49815000Y-111167552D01*
X49815000Y-111980123D01*
X49807279Y-112792645D01*
X44185000Y-112792645D01*
X44185000Y-112019877D01*
X44192721Y-111207355D01*
X44185000Y-111188202D01*
X44185000Y-111167552D01*
X43874041Y-110416829D01*
X43570237Y-109663207D01*
X43548250Y-109630302D01*
X43547872Y-109629388D01*
X43547173Y-109628689D01*
X43525186Y-109595783D01*
X43477687Y-109559203D01*
X42440797Y-108522313D01*
X42404217Y-108474814D01*
X42385215Y-108466731D01*
X42370612Y-108452128D01*
X41619897Y-108141172D01*
X40872177Y-107823099D01*
X40851527Y-107822903D01*
X40832448Y-107815000D01*
X40019877Y-107815000D01*
X39207355Y-107807279D01*
X39188202Y-107815000D01*
X39167552Y-107815000D01*
X38416829Y-108125959D01*
X37663207Y-108429763D01*
X37630302Y-108451750D01*
X37629388Y-108452128D01*
X37628689Y-108452827D01*
X37595783Y-108474814D01*
X37559203Y-108522313D01*
X36522313Y-109559203D01*
X36474814Y-109595783D01*
X36466731Y-109614785D01*
X36452128Y-109629388D01*
X36141172Y-110380103D01*
X35823099Y-111127823D01*
X35822903Y-111148473D01*
X35815000Y-111167552D01*
X35815000Y-111980123D01*
X35807279Y-112792645D01*
X30185000Y-112792645D01*
X30185000Y-112019877D01*
X30192721Y-111207355D01*
X30185000Y-111188202D01*
X30185000Y-111167552D01*
X29874041Y-110416829D01*
X29570237Y-109663207D01*
X29548250Y-109630302D01*
X29547872Y-109629388D01*
X29547173Y-109628689D01*
X29525186Y-109595783D01*
X29477687Y-109559203D01*
X28440797Y-108522313D01*
X28404217Y-108474814D01*
X28385215Y-108466731D01*
X28370612Y-108452128D01*
X27619897Y-108141172D01*
X26872177Y-107823099D01*
X26851527Y-107822903D01*
X26832448Y-107815000D01*
X26019877Y-107815000D01*
X25207355Y-107807279D01*
X25188202Y-107815000D01*
X25167552Y-107815000D01*
X24416829Y-108125959D01*
X23663207Y-108429763D01*
X23630302Y-108451750D01*
X23629388Y-108452128D01*
X23628689Y-108452827D01*
X23595783Y-108474814D01*
X23559203Y-108522313D01*
X22522313Y-109559203D01*
X22474814Y-109595783D01*
X22466731Y-109614785D01*
X22452128Y-109629388D01*
X22141172Y-110380103D01*
X21823099Y-111127823D01*
X21822903Y-111148473D01*
X21815000Y-111167552D01*
X21815000Y-111980123D01*
X21807279Y-112792645D01*
X14185000Y-112792645D01*
X14185000Y-112019877D01*
X14192721Y-111207355D01*
X14185000Y-111188202D01*
X14185000Y-111167552D01*
X13874041Y-110416829D01*
X13570237Y-109663207D01*
X13548250Y-109630302D01*
X13547872Y-109629388D01*
X13547173Y-109628689D01*
X13525186Y-109595783D01*
X13477687Y-109559203D01*
X12440797Y-108522313D01*
X12404217Y-108474814D01*
X12385215Y-108466731D01*
X12370612Y-108452128D01*
X11619897Y-108141172D01*
X10872177Y-107823099D01*
X10851527Y-107822903D01*
X10832448Y-107815000D01*
X10019877Y-107815000D01*
X9207355Y-107807279D01*
X9188202Y-107815000D01*
X9167552Y-107815000D01*
X8416829Y-108125959D01*
X7663207Y-108429763D01*
X7630302Y-108451750D01*
X7629388Y-108452128D01*
X7628689Y-108452827D01*
X7595783Y-108474814D01*
X7559203Y-108522313D01*
X6522313Y-109559203D01*
X6474814Y-109595783D01*
X6466731Y-109614785D01*
X6452128Y-109629388D01*
X6141172Y-110380103D01*
X5823099Y-111127823D01*
X5822903Y-111148473D01*
X5815000Y-111167552D01*
X5815000Y-111980123D01*
X5807279Y-112792645D01*
X735000Y-112792645D01*
X735000Y-96872426D01*
X5303561Y-96872426D01*
X5315000Y-96901064D01*
X5315000Y-96931905D01*
X5660287Y-97765501D01*
X5994919Y-98603266D01*
X6027492Y-98652015D01*
X6028248Y-98653840D01*
X6029645Y-98655237D01*
X6062218Y-98703986D01*
X6145526Y-98771118D01*
X7228882Y-99854474D01*
X7296014Y-99937782D01*
X7324351Y-99949943D01*
X7346160Y-99971752D01*
X8179757Y-100317039D01*
X9008767Y-100672807D01*
X9039602Y-100673198D01*
X9068095Y-100685000D01*
X9970327Y-100685000D01*
X10872426Y-100696439D01*
X10901064Y-100685000D01*
X10931905Y-100685000D01*
X11765501Y-100339713D01*
X12603266Y-100005081D01*
X12652015Y-99972508D01*
X12653840Y-99971752D01*
X12655237Y-99970355D01*
X12703986Y-99937782D01*
X12771118Y-99854474D01*
X13854474Y-98771118D01*
X13937782Y-98703986D01*
X13949943Y-98675649D01*
X13971752Y-98653840D01*
X14317039Y-97820243D01*
X14672807Y-96991233D01*
X14673198Y-96960398D01*
X14685000Y-96931905D01*
X14685000Y-96824558D01*
X21605786Y-96824558D01*
X21615000Y-96847504D01*
X21615000Y-96872231D01*
X21939662Y-97656033D01*
X22255820Y-98443385D01*
X22282061Y-98482657D01*
X22282577Y-98483903D01*
X22283530Y-98484856D01*
X22309771Y-98524128D01*
X22370439Y-98571765D01*
X23428235Y-99629561D01*
X23475872Y-99690229D01*
X23498614Y-99699940D01*
X23516097Y-99717423D01*
X24299907Y-100042088D01*
X25080199Y-100375269D01*
X25104925Y-100375538D01*
X25127769Y-100385000D01*
X25976180Y-100385000D01*
X26824558Y-100394214D01*
X26847504Y-100385000D01*
X26872231Y-100385000D01*
X27656033Y-100060338D01*
X28443385Y-99744180D01*
X28482657Y-99717939D01*
X28483903Y-99717423D01*
X28484856Y-99716470D01*
X28524128Y-99690229D01*
X28571765Y-99629561D01*
X29629561Y-98571765D01*
X29690229Y-98524128D01*
X29699940Y-98501386D01*
X29717423Y-98483903D01*
X30042088Y-97700093D01*
X30375269Y-96919801D01*
X30375538Y-96895075D01*
X30385000Y-96872231D01*
X30385000Y-96824558D01*
X35605786Y-96824558D01*
X35615000Y-96847504D01*
X35615000Y-96872231D01*
X35939662Y-97656033D01*
X36255820Y-98443385D01*
X36282061Y-98482657D01*
X36282577Y-98483903D01*
X36283530Y-98484856D01*
X36309771Y-98524128D01*
X36370439Y-98571765D01*
X37428235Y-99629561D01*
X37475872Y-99690229D01*
X37498614Y-99699940D01*
X37516097Y-99717423D01*
X38299907Y-100042088D01*
X39080199Y-100375269D01*
X39104925Y-100375538D01*
X39127769Y-100385000D01*
X39976180Y-100385000D01*
X40824558Y-100394214D01*
X40847504Y-100385000D01*
X40872231Y-100385000D01*
X41656033Y-100060338D01*
X42443385Y-99744180D01*
X42482657Y-99717939D01*
X42483903Y-99717423D01*
X42484856Y-99716470D01*
X42524128Y-99690229D01*
X42571765Y-99629561D01*
X43629561Y-98571765D01*
X43690229Y-98524128D01*
X43699940Y-98501386D01*
X43717423Y-98483903D01*
X44042088Y-97700093D01*
X44375269Y-96919801D01*
X44375538Y-96895075D01*
X44385000Y-96872231D01*
X44385000Y-96824558D01*
X49605786Y-96824558D01*
X49615000Y-96847504D01*
X49615000Y-96872231D01*
X49939662Y-97656033D01*
X50255820Y-98443385D01*
X50282061Y-98482657D01*
X50282577Y-98483903D01*
X50283530Y-98484856D01*
X50309771Y-98524128D01*
X50370439Y-98571765D01*
X51428235Y-99629561D01*
X51475872Y-99690229D01*
X51498614Y-99699940D01*
X51516097Y-99717423D01*
X52299907Y-100042088D01*
X53080199Y-100375269D01*
X53104925Y-100375538D01*
X53127769Y-100385000D01*
X53976180Y-100385000D01*
X54824558Y-100394214D01*
X54847504Y-100385000D01*
X54872231Y-100385000D01*
X55656033Y-100060338D01*
X56443385Y-99744180D01*
X56482657Y-99717939D01*
X56483903Y-99717423D01*
X56484856Y-99716470D01*
X56524128Y-99690229D01*
X56571765Y-99629561D01*
X57629561Y-98571765D01*
X57690229Y-98524128D01*
X57699940Y-98501386D01*
X57717423Y-98483903D01*
X58042088Y-97700093D01*
X58375269Y-96919801D01*
X58375538Y-96895075D01*
X58384919Y-96872426D01*
X65303561Y-96872426D01*
X65315000Y-96901064D01*
X65315000Y-96931905D01*
X65660287Y-97765501D01*
X65994919Y-98603266D01*
X66027492Y-98652015D01*
X66028248Y-98653840D01*
X66029645Y-98655237D01*
X66062218Y-98703986D01*
X66145526Y-98771118D01*
X67228882Y-99854474D01*
X67296014Y-99937782D01*
X67324351Y-99949943D01*
X67346160Y-99971752D01*
X68179757Y-100317039D01*
X69008767Y-100672807D01*
X69039602Y-100673198D01*
X69068095Y-100685000D01*
X69970327Y-100685000D01*
X70872426Y-100696439D01*
X70901064Y-100685000D01*
X70931905Y-100685000D01*
X71765501Y-100339713D01*
X72603266Y-100005081D01*
X72652015Y-99972508D01*
X72653840Y-99971752D01*
X72655237Y-99970355D01*
X72703986Y-99937782D01*
X72771118Y-99854474D01*
X73854474Y-98771118D01*
X73937782Y-98703986D01*
X73949943Y-98675649D01*
X73971752Y-98653840D01*
X74317039Y-97820243D01*
X74672807Y-96991233D01*
X74673198Y-96960398D01*
X74685000Y-96931905D01*
X74685000Y-96029673D01*
X74696439Y-95127574D01*
X74685000Y-95098936D01*
X74685000Y-95068095D01*
X74339713Y-94234499D01*
X74005081Y-93396734D01*
X73972508Y-93347985D01*
X73971752Y-93346160D01*
X73970355Y-93344763D01*
X73937782Y-93296014D01*
X73854474Y-93228882D01*
X72771118Y-92145526D01*
X72703986Y-92062218D01*
X72675649Y-92050057D01*
X72653840Y-92028248D01*
X71820243Y-91682961D01*
X70991233Y-91327193D01*
X70960398Y-91326802D01*
X70931905Y-91315000D01*
X70029673Y-91315000D01*
X69127574Y-91303561D01*
X69098936Y-91315000D01*
X69068095Y-91315000D01*
X68234499Y-91660287D01*
X67396734Y-91994919D01*
X67347985Y-92027492D01*
X67346160Y-92028248D01*
X67344763Y-92029645D01*
X67296014Y-92062218D01*
X67228882Y-92145526D01*
X66145526Y-93228882D01*
X66062218Y-93296014D01*
X66050057Y-93324351D01*
X66028248Y-93346160D01*
X65682961Y-94179757D01*
X65327193Y-95008767D01*
X65326802Y-95039602D01*
X65315000Y-95068095D01*
X65315000Y-95970327D01*
X65303561Y-96872426D01*
X58384919Y-96872426D01*
X58385000Y-96872231D01*
X58385000Y-96023820D01*
X58394214Y-95175442D01*
X58385000Y-95152496D01*
X58385000Y-95127769D01*
X58060338Y-94343967D01*
X57744180Y-93556615D01*
X57717939Y-93517343D01*
X57717423Y-93516097D01*
X57716470Y-93515144D01*
X57690229Y-93475872D01*
X57629561Y-93428235D01*
X56571765Y-92370439D01*
X56524128Y-92309771D01*
X56501386Y-92300060D01*
X56483903Y-92282577D01*
X55700093Y-91957912D01*
X54919801Y-91624731D01*
X54895075Y-91624462D01*
X54872231Y-91615000D01*
X54023820Y-91615000D01*
X53175442Y-91605786D01*
X53152496Y-91615000D01*
X53127769Y-91615000D01*
X52343967Y-91939662D01*
X51556615Y-92255820D01*
X51517343Y-92282061D01*
X51516097Y-92282577D01*
X51515144Y-92283530D01*
X51475872Y-92309771D01*
X51428235Y-92370439D01*
X50370439Y-93428235D01*
X50309771Y-93475872D01*
X50300060Y-93498614D01*
X50282577Y-93516097D01*
X49957912Y-94299907D01*
X49624731Y-95080199D01*
X49624462Y-95104925D01*
X49615000Y-95127769D01*
X49615000Y-95976180D01*
X49605786Y-96824558D01*
X44385000Y-96824558D01*
X44385000Y-96023820D01*
X44394214Y-95175442D01*
X44385000Y-95152496D01*
X44385000Y-95127769D01*
X44060338Y-94343967D01*
X43744180Y-93556615D01*
X43717939Y-93517343D01*
X43717423Y-93516097D01*
X43716470Y-93515144D01*
X43690229Y-93475872D01*
X43629561Y-93428235D01*
X42571765Y-92370439D01*
X42524128Y-92309771D01*
X42501386Y-92300060D01*
X42483903Y-92282577D01*
X41700093Y-91957912D01*
X40919801Y-91624731D01*
X40895075Y-91624462D01*
X40872231Y-91615000D01*
X40023820Y-91615000D01*
X39175442Y-91605786D01*
X39152496Y-91615000D01*
X39127769Y-91615000D01*
X38343967Y-91939662D01*
X37556615Y-92255820D01*
X37517343Y-92282061D01*
X37516097Y-92282577D01*
X37515144Y-92283530D01*
X37475872Y-92309771D01*
X37428235Y-92370439D01*
X36370439Y-93428235D01*
X36309771Y-93475872D01*
X36300060Y-93498614D01*
X36282577Y-93516097D01*
X35957912Y-94299907D01*
X35624731Y-95080199D01*
X35624462Y-95104925D01*
X35615000Y-95127769D01*
X35615000Y-95976180D01*
X35605786Y-96824558D01*
X30385000Y-96824558D01*
X30385000Y-96023820D01*
X30394214Y-95175442D01*
X30385000Y-95152496D01*
X30385000Y-95127769D01*
X30060338Y-94343967D01*
X29744180Y-93556615D01*
X29717939Y-93517343D01*
X29717423Y-93516097D01*
X29716470Y-93515144D01*
X29690229Y-93475872D01*
X29629561Y-93428235D01*
X28571765Y-92370439D01*
X28524128Y-92309771D01*
X28501386Y-92300060D01*
X28483903Y-92282577D01*
X27700093Y-91957912D01*
X26919801Y-91624731D01*
X26895075Y-91624462D01*
X26872231Y-91615000D01*
X26023820Y-91615000D01*
X25175442Y-91605786D01*
X25152496Y-91615000D01*
X25127769Y-91615000D01*
X24343967Y-91939662D01*
X23556615Y-92255820D01*
X23517343Y-92282061D01*
X23516097Y-92282577D01*
X23515144Y-92283530D01*
X23475872Y-92309771D01*
X23428235Y-92370439D01*
X22370439Y-93428235D01*
X22309771Y-93475872D01*
X22300060Y-93498614D01*
X22282577Y-93516097D01*
X21957912Y-94299907D01*
X21624731Y-95080199D01*
X21624462Y-95104925D01*
X21615000Y-95127769D01*
X21615000Y-95976180D01*
X21605786Y-96824558D01*
X14685000Y-96824558D01*
X14685000Y-96029673D01*
X14696439Y-95127574D01*
X14685000Y-95098936D01*
X14685000Y-95068095D01*
X14339713Y-94234499D01*
X14005081Y-93396734D01*
X13972508Y-93347985D01*
X13971752Y-93346160D01*
X13970355Y-93344763D01*
X13937782Y-93296014D01*
X13854474Y-93228882D01*
X12771118Y-92145526D01*
X12703986Y-92062218D01*
X12675649Y-92050057D01*
X12653840Y-92028248D01*
X11820243Y-91682961D01*
X10991233Y-91327193D01*
X10960398Y-91326802D01*
X10931905Y-91315000D01*
X10029673Y-91315000D01*
X9127574Y-91303561D01*
X9098936Y-91315000D01*
X9068095Y-91315000D01*
X8234499Y-91660287D01*
X7396734Y-91994919D01*
X7347985Y-92027492D01*
X7346160Y-92028248D01*
X7344763Y-92029645D01*
X7296014Y-92062218D01*
X7228882Y-92145526D01*
X6145526Y-93228882D01*
X6062218Y-93296014D01*
X6050057Y-93324351D01*
X6028248Y-93346160D01*
X5682961Y-94179757D01*
X5327193Y-95008767D01*
X5326802Y-95039602D01*
X5315000Y-95068095D01*
X5315000Y-95970327D01*
X5303561Y-96872426D01*
X735000Y-96872426D01*
X735000Y-82900000D01*
X67873000Y-82900000D01*
X67873000Y-86500000D01*
X67882667Y-86548601D01*
X67910197Y-86589803D01*
X67951399Y-86617333D01*
X68000000Y-86627000D01*
X71700000Y-86627000D01*
X71748601Y-86617333D01*
X71789803Y-86589803D01*
X71817333Y-86548601D01*
X71827000Y-86500000D01*
X71827000Y-82900000D01*
X71817333Y-82851399D01*
X71789803Y-82810197D01*
X71748601Y-82782667D01*
X71700000Y-82773000D01*
X68000000Y-82773000D01*
X67951399Y-82782667D01*
X67910197Y-82810197D01*
X67882667Y-82851399D01*
X67873000Y-82900000D01*
X735000Y-82900000D01*
X735000Y-72872426D01*
X35303561Y-72872426D01*
X35315000Y-72901064D01*
X35315000Y-72931905D01*
X35660287Y-73765501D01*
X35994919Y-74603266D01*
X36027492Y-74652015D01*
X36028248Y-74653840D01*
X36029645Y-74655237D01*
X36062218Y-74703986D01*
X36145526Y-74771118D01*
X37228882Y-75854474D01*
X37296014Y-75937782D01*
X37324351Y-75949943D01*
X37346160Y-75971752D01*
X38179757Y-76317039D01*
X39008767Y-76672807D01*
X39039602Y-76673198D01*
X39068095Y-76685000D01*
X39970327Y-76685000D01*
X40872426Y-76696439D01*
X40901064Y-76685000D01*
X40931905Y-76685000D01*
X41765501Y-76339713D01*
X42603266Y-76005081D01*
X42652015Y-75972508D01*
X42653840Y-75971752D01*
X42655237Y-75970355D01*
X42703986Y-75937782D01*
X42771118Y-75854474D01*
X43854474Y-74771118D01*
X43937782Y-74703986D01*
X43949943Y-74675649D01*
X43971752Y-74653840D01*
X44317039Y-73820243D01*
X44672807Y-72991233D01*
X44673198Y-72960398D01*
X44685000Y-72931905D01*
X44685000Y-72029673D01*
X44696439Y-71127574D01*
X44685000Y-71098936D01*
X44685000Y-71068095D01*
X44339713Y-70234499D01*
X44005081Y-69396734D01*
X43972508Y-69347985D01*
X43971752Y-69346160D01*
X43970355Y-69344763D01*
X43940446Y-69300000D01*
X61073000Y-69300000D01*
X61073000Y-74600000D01*
X61082667Y-74648601D01*
X61110197Y-74689803D01*
X61151399Y-74717333D01*
X61200000Y-74727000D01*
X66500000Y-74727000D01*
X66548601Y-74717333D01*
X66589803Y-74689803D01*
X66617333Y-74648601D01*
X66627000Y-74600000D01*
X66627000Y-69300000D01*
X66617333Y-69251399D01*
X66589803Y-69210197D01*
X66548601Y-69182667D01*
X66500000Y-69173000D01*
X61200000Y-69173000D01*
X61151399Y-69182667D01*
X61110197Y-69210197D01*
X61082667Y-69251399D01*
X61073000Y-69300000D01*
X43940446Y-69300000D01*
X43937782Y-69296014D01*
X43854474Y-69228882D01*
X42771118Y-68145526D01*
X42703986Y-68062218D01*
X42675649Y-68050057D01*
X42653840Y-68028248D01*
X41820243Y-67682961D01*
X40991233Y-67327193D01*
X40960398Y-67326802D01*
X40931905Y-67315000D01*
X40029673Y-67315000D01*
X39127574Y-67303561D01*
X39098936Y-67315000D01*
X39068095Y-67315000D01*
X38234499Y-67660287D01*
X37396734Y-67994919D01*
X37347985Y-68027492D01*
X37346160Y-68028248D01*
X37344763Y-68029645D01*
X37296014Y-68062218D01*
X37228882Y-68145526D01*
X36145526Y-69228882D01*
X36062218Y-69296014D01*
X36050057Y-69324351D01*
X36028248Y-69346160D01*
X35682961Y-70179757D01*
X35327193Y-71008767D01*
X35326802Y-71039602D01*
X35315000Y-71068095D01*
X35315000Y-71970327D01*
X35303561Y-72872426D01*
X735000Y-72872426D01*
X735000Y-55872426D01*
X11303561Y-55872426D01*
X11315000Y-55901064D01*
X11315000Y-55931905D01*
X11660287Y-56765501D01*
X11994919Y-57603266D01*
X12027492Y-57652015D01*
X12028248Y-57653840D01*
X12029645Y-57655237D01*
X12062218Y-57703986D01*
X12145526Y-57771118D01*
X13228882Y-58854474D01*
X13296014Y-58937782D01*
X13324351Y-58949943D01*
X13346160Y-58971752D01*
X14179757Y-59317039D01*
X15008767Y-59672807D01*
X15039602Y-59673198D01*
X15068095Y-59685000D01*
X15970327Y-59685000D01*
X16872426Y-59696439D01*
X16901064Y-59685000D01*
X16931905Y-59685000D01*
X17765501Y-59339713D01*
X18603266Y-59005081D01*
X18652015Y-58972508D01*
X18653840Y-58971752D01*
X18655237Y-58970355D01*
X18703986Y-58937782D01*
X18771118Y-58854474D01*
X19854474Y-57771118D01*
X19937782Y-57703986D01*
X19949943Y-57675649D01*
X19971752Y-57653840D01*
X20317039Y-56820243D01*
X20672807Y-55991233D01*
X20673198Y-55960398D01*
X20685000Y-55931905D01*
X20685000Y-55872426D01*
X59303561Y-55872426D01*
X59315000Y-55901064D01*
X59315000Y-55931905D01*
X59660287Y-56765501D01*
X59994919Y-57603266D01*
X60027492Y-57652015D01*
X60028248Y-57653840D01*
X60029645Y-57655237D01*
X60062218Y-57703986D01*
X60145526Y-57771118D01*
X61228882Y-58854474D01*
X61296014Y-58937782D01*
X61324351Y-58949943D01*
X61346160Y-58971752D01*
X62179757Y-59317039D01*
X63008767Y-59672807D01*
X63039602Y-59673198D01*
X63068095Y-59685000D01*
X63970327Y-59685000D01*
X64872426Y-59696439D01*
X64901064Y-59685000D01*
X64931905Y-59685000D01*
X65765501Y-59339713D01*
X66603266Y-59005081D01*
X66652015Y-58972508D01*
X66653840Y-58971752D01*
X66655237Y-58970355D01*
X66703986Y-58937782D01*
X66771118Y-58854474D01*
X67854474Y-57771118D01*
X67937782Y-57703986D01*
X67949943Y-57675649D01*
X67971752Y-57653840D01*
X68317039Y-56820243D01*
X68672807Y-55991233D01*
X68673198Y-55960398D01*
X68685000Y-55931905D01*
X68685000Y-55029673D01*
X68696439Y-54127574D01*
X68685000Y-54098936D01*
X68685000Y-54068095D01*
X68339713Y-53234499D01*
X68005081Y-52396734D01*
X67972508Y-52347985D01*
X67971752Y-52346160D01*
X67970355Y-52344763D01*
X67937782Y-52296014D01*
X67854474Y-52228882D01*
X66771118Y-51145526D01*
X66703986Y-51062218D01*
X66675649Y-51050057D01*
X66653840Y-51028248D01*
X65820243Y-50682961D01*
X64991233Y-50327193D01*
X64960398Y-50326802D01*
X64931905Y-50315000D01*
X64029673Y-50315000D01*
X63127574Y-50303561D01*
X63098936Y-50315000D01*
X63068095Y-50315000D01*
X62234499Y-50660287D01*
X61396734Y-50994919D01*
X61347985Y-51027492D01*
X61346160Y-51028248D01*
X61344763Y-51029645D01*
X61296014Y-51062218D01*
X61228882Y-51145526D01*
X60145526Y-52228882D01*
X60062218Y-52296014D01*
X60050057Y-52324351D01*
X60028248Y-52346160D01*
X59682961Y-53179757D01*
X59327193Y-54008767D01*
X59326802Y-54039602D01*
X59315000Y-54068095D01*
X59315000Y-54970327D01*
X59303561Y-55872426D01*
X20685000Y-55872426D01*
X20685000Y-55029673D01*
X20696439Y-54127574D01*
X20685000Y-54098936D01*
X20685000Y-54068095D01*
X20339713Y-53234499D01*
X20005081Y-52396734D01*
X19972508Y-52347985D01*
X19971752Y-52346160D01*
X19970355Y-52344763D01*
X19937782Y-52296014D01*
X19854474Y-52228882D01*
X18950150Y-51324558D01*
X35605786Y-51324558D01*
X35615000Y-51347504D01*
X35615000Y-51372231D01*
X35939662Y-52156033D01*
X36255820Y-52943385D01*
X36282061Y-52982657D01*
X36282577Y-52983903D01*
X36283530Y-52984856D01*
X36309771Y-53024128D01*
X36370439Y-53071765D01*
X37428235Y-54129561D01*
X37475872Y-54190229D01*
X37498614Y-54199940D01*
X37516097Y-54217423D01*
X38299907Y-54542088D01*
X39080199Y-54875269D01*
X39104925Y-54875538D01*
X39127769Y-54885000D01*
X39976180Y-54885000D01*
X40824558Y-54894214D01*
X40847504Y-54885000D01*
X40872231Y-54885000D01*
X41656033Y-54560338D01*
X42443385Y-54244180D01*
X42482657Y-54217939D01*
X42483903Y-54217423D01*
X42484856Y-54216470D01*
X42524128Y-54190229D01*
X42571765Y-54129561D01*
X43629561Y-53071765D01*
X43690229Y-53024128D01*
X43699940Y-53001386D01*
X43717423Y-52983903D01*
X44042088Y-52200093D01*
X44375269Y-51419801D01*
X44375538Y-51395075D01*
X44385000Y-51372231D01*
X44385000Y-50523820D01*
X44394214Y-49675442D01*
X44385000Y-49652496D01*
X44385000Y-49627769D01*
X44060338Y-48843967D01*
X43744180Y-48056615D01*
X43717939Y-48017343D01*
X43717423Y-48016097D01*
X43716470Y-48015144D01*
X43690229Y-47975872D01*
X43629561Y-47928235D01*
X42571765Y-46870439D01*
X42524128Y-46809771D01*
X42501386Y-46800060D01*
X42483903Y-46782577D01*
X41700093Y-46457912D01*
X40919801Y-46124731D01*
X40895075Y-46124462D01*
X40872231Y-46115000D01*
X40023820Y-46115000D01*
X39175442Y-46105786D01*
X39152496Y-46115000D01*
X39127769Y-46115000D01*
X38343967Y-46439662D01*
X37556615Y-46755820D01*
X37517343Y-46782061D01*
X37516097Y-46782577D01*
X37515144Y-46783530D01*
X37475872Y-46809771D01*
X37428235Y-46870439D01*
X36370439Y-47928235D01*
X36309771Y-47975872D01*
X36300060Y-47998614D01*
X36282577Y-48016097D01*
X35957912Y-48799907D01*
X35624731Y-49580199D01*
X35624462Y-49604925D01*
X35615000Y-49627769D01*
X35615000Y-50476180D01*
X35605786Y-51324558D01*
X18950150Y-51324558D01*
X18771118Y-51145526D01*
X18703986Y-51062218D01*
X18675649Y-51050057D01*
X18653840Y-51028248D01*
X17820243Y-50682961D01*
X16991233Y-50327193D01*
X16960398Y-50326802D01*
X16931905Y-50315000D01*
X16029673Y-50315000D01*
X15127574Y-50303561D01*
X15098936Y-50315000D01*
X15068095Y-50315000D01*
X14234499Y-50660287D01*
X13396734Y-50994919D01*
X13347985Y-51027492D01*
X13346160Y-51028248D01*
X13344763Y-51029645D01*
X13296014Y-51062218D01*
X13228882Y-51145526D01*
X12145526Y-52228882D01*
X12062218Y-52296014D01*
X12050057Y-52324351D01*
X12028248Y-52346160D01*
X11682961Y-53179757D01*
X11327193Y-54008767D01*
X11326802Y-54039602D01*
X11315000Y-54068095D01*
X11315000Y-54970327D01*
X11303561Y-55872426D01*
X735000Y-55872426D01*
X735000Y-27180488D01*
X27044786Y-27180488D01*
X27115000Y-27365290D01*
X27115000Y-27562986D01*
X28022828Y-29754676D01*
X28865379Y-31972254D01*
X29065335Y-32271510D01*
X29076625Y-32298766D01*
X29097486Y-32319627D01*
X29297442Y-32618883D01*
X30733322Y-34087072D01*
X30799127Y-34021268D01*
X30978732Y-34200873D01*
X30912928Y-34266678D01*
X32381117Y-35702558D01*
X32561445Y-35783586D01*
X32701234Y-35923375D01*
X34892911Y-36831198D01*
X37056762Y-37803494D01*
X37254368Y-37809345D01*
X37437014Y-37885000D01*
X39809296Y-37885000D01*
X42180488Y-37955214D01*
X42365290Y-37885000D01*
X42562986Y-37885000D01*
X44754676Y-36977172D01*
X46972254Y-36134621D01*
X47271510Y-35934665D01*
X47298766Y-35923375D01*
X47319627Y-35902514D01*
X47618883Y-35702558D01*
X49087072Y-34266678D01*
X49021268Y-34200873D01*
X49200873Y-34021268D01*
X49266678Y-34087072D01*
X50702558Y-32618883D01*
X50783586Y-32438555D01*
X50923375Y-32298766D01*
X51831198Y-30107089D01*
X52803494Y-27943238D01*
X52809345Y-27745632D01*
X52885000Y-27562986D01*
X52885000Y-25190704D01*
X52955214Y-22819512D01*
X52885000Y-22634710D01*
X52885000Y-22437014D01*
X51977172Y-20245324D01*
X51134621Y-18027746D01*
X50934665Y-17728490D01*
X50923375Y-17701234D01*
X50902514Y-17680373D01*
X50702558Y-17381117D01*
X49266678Y-15912928D01*
X49200873Y-15978732D01*
X49021268Y-15799127D01*
X49087072Y-15733322D01*
X47618883Y-14297442D01*
X47438555Y-14216414D01*
X47298766Y-14076625D01*
X45107089Y-13168802D01*
X42943238Y-12196506D01*
X42745632Y-12190655D01*
X42562986Y-12115000D01*
X40190704Y-12115000D01*
X37819512Y-12044786D01*
X37634710Y-12115000D01*
X37437014Y-12115000D01*
X35245324Y-13022828D01*
X33027746Y-13865379D01*
X32728490Y-14065335D01*
X32701234Y-14076625D01*
X32680373Y-14097486D01*
X32381117Y-14297442D01*
X30912928Y-15733322D01*
X30978732Y-15799127D01*
X30799127Y-15978732D01*
X30733322Y-15912928D01*
X29297442Y-17381117D01*
X29216414Y-17561445D01*
X29076625Y-17701234D01*
X28168802Y-19892911D01*
X27196506Y-22056762D01*
X27190655Y-22254368D01*
X27115000Y-22437014D01*
X27115000Y-24809296D01*
X27044786Y-27180488D01*
X735000Y-27180488D01*
X735000Y-735000D01*
X2681026Y-735000D01*
X2665000Y-773690D01*
X2665000Y-773690D01*
G37*
X2665000Y-773690D02*
X2665000Y-2714250D01*
X2702033Y-2751283D01*
X2652560Y-2999999D01*
X2652560Y-3000001D01*
X2702033Y-3248717D01*
X2665000Y-3285750D01*
X2665000Y-5226310D01*
X2761673Y-5459699D01*
X2940302Y-5638327D01*
X3173691Y-5735000D01*
X5337455Y-5735000D01*
X5400000Y-5747441D01*
X8600000Y-5747441D01*
X8662545Y-5735000D01*
X10826309Y-5735000D01*
X11059698Y-5638327D01*
X11238327Y-5459699D01*
X11335000Y-5226310D01*
X11335000Y-3285750D01*
X11297967Y-3248717D01*
X11347440Y-3000001D01*
X11347440Y-2999999D01*
X11297967Y-2751283D01*
X11335000Y-2714250D01*
X11335000Y-773690D01*
X11318974Y-735000D01*
X67681026Y-735000D01*
X67665000Y-773690D01*
X67665000Y-2714250D01*
X67702033Y-2751283D01*
X67652560Y-2999999D01*
X67652560Y-3000001D01*
X67702033Y-3248717D01*
X67665000Y-3285750D01*
X67665000Y-5226310D01*
X67761673Y-5459699D01*
X67940302Y-5638327D01*
X68173691Y-5735000D01*
X70337455Y-5735000D01*
X70400000Y-5747441D01*
X73600000Y-5747441D01*
X73662545Y-5735000D01*
X75826309Y-5735000D01*
X76059698Y-5638327D01*
X76238327Y-5459699D01*
X76335000Y-5226310D01*
X76335000Y-3285750D01*
X76297967Y-3248717D01*
X76347440Y-3000001D01*
X76347440Y-2999999D01*
X76297967Y-2751283D01*
X76335000Y-2714250D01*
X76335000Y-773690D01*
X76318974Y-735000D01*
X79265000Y-735000D01*
X79265001Y-127765000D01*
X76318974Y-127765000D01*
X76335000Y-127726310D01*
X76335000Y-125785750D01*
X76297967Y-125748717D01*
X76347440Y-125500001D01*
X76347440Y-125499999D01*
X76297967Y-125251283D01*
X76335000Y-125214250D01*
X76335000Y-123273690D01*
X76238327Y-123040301D01*
X76059698Y-122861673D01*
X75826309Y-122765000D01*
X73662545Y-122765000D01*
X73600000Y-122752559D01*
X70400000Y-122752559D01*
X70337455Y-122765000D01*
X68173691Y-122765000D01*
X67940302Y-122861673D01*
X67761673Y-123040301D01*
X67665000Y-123273690D01*
X67665000Y-125214250D01*
X67702033Y-125251283D01*
X67652560Y-125499999D01*
X67652560Y-125500001D01*
X67702033Y-125748717D01*
X67665000Y-125785750D01*
X67665000Y-127726310D01*
X67681026Y-127765000D01*
X11318974Y-127765000D01*
X11335000Y-127726310D01*
X11335000Y-125785750D01*
X11297967Y-125748717D01*
X11347440Y-125500001D01*
X11347440Y-125499999D01*
X11297967Y-125251283D01*
X11335000Y-125214250D01*
X11335000Y-123273690D01*
X11238327Y-123040301D01*
X11059698Y-122861673D01*
X10826309Y-122765000D01*
X8662545Y-122765000D01*
X8600000Y-122752559D01*
X5400000Y-122752559D01*
X5337455Y-122765000D01*
X3173691Y-122765000D01*
X2940302Y-122861673D01*
X2761673Y-123040301D01*
X2665000Y-123273690D01*
X2665000Y-125214250D01*
X2702033Y-125251283D01*
X2652560Y-125499999D01*
X2652560Y-125500001D01*
X2702033Y-125748717D01*
X2665000Y-125785750D01*
X2665000Y-127726310D01*
X2681026Y-127765000D01*
X735000Y-127765000D01*
X735000Y-112792645D01*
X5807279Y-112792645D01*
X5815000Y-112811798D01*
X5815000Y-112832448D01*
X6125959Y-113583171D01*
X6429763Y-114336793D01*
X6451750Y-114369698D01*
X6452128Y-114370612D01*
X6452827Y-114371311D01*
X6474814Y-114404217D01*
X6522313Y-114440797D01*
X7559203Y-115477687D01*
X7595783Y-115525186D01*
X7614785Y-115533269D01*
X7629388Y-115547872D01*
X8380103Y-115858828D01*
X9127823Y-116176901D01*
X9148473Y-116177097D01*
X9167552Y-116185000D01*
X9980123Y-116185000D01*
X10792645Y-116192721D01*
X10811798Y-116185000D01*
X10832448Y-116185000D01*
X11583171Y-115874041D01*
X12336793Y-115570237D01*
X12369698Y-115548250D01*
X12370612Y-115547872D01*
X12371311Y-115547173D01*
X12404217Y-115525186D01*
X12440797Y-115477687D01*
X13477687Y-114440797D01*
X13525186Y-114404217D01*
X13533269Y-114385215D01*
X13547872Y-114370612D01*
X13858828Y-113619897D01*
X14176901Y-112872177D01*
X14177097Y-112851527D01*
X14185000Y-112832448D01*
X14185000Y-112792645D01*
X21807279Y-112792645D01*
X21815000Y-112811798D01*
X21815000Y-112832448D01*
X22125959Y-113583171D01*
X22429763Y-114336793D01*
X22451750Y-114369698D01*
X22452128Y-114370612D01*
X22452827Y-114371311D01*
X22474814Y-114404217D01*
X22522313Y-114440797D01*
X23559203Y-115477687D01*
X23595783Y-115525186D01*
X23614785Y-115533269D01*
X23629388Y-115547872D01*
X24380103Y-115858828D01*
X25127823Y-116176901D01*
X25148473Y-116177097D01*
X25167552Y-116185000D01*
X25980123Y-116185000D01*
X26792645Y-116192721D01*
X26811798Y-116185000D01*
X26832448Y-116185000D01*
X27583171Y-115874041D01*
X28336793Y-115570237D01*
X28369698Y-115548250D01*
X28370612Y-115547872D01*
X28371311Y-115547173D01*
X28404217Y-115525186D01*
X28440797Y-115477687D01*
X29477687Y-114440797D01*
X29525186Y-114404217D01*
X29533269Y-114385215D01*
X29547872Y-114370612D01*
X29858828Y-113619897D01*
X30176901Y-112872177D01*
X30177097Y-112851527D01*
X30185000Y-112832448D01*
X30185000Y-112792645D01*
X35807279Y-112792645D01*
X35815000Y-112811798D01*
X35815000Y-112832448D01*
X36125959Y-113583171D01*
X36429763Y-114336793D01*
X36451750Y-114369698D01*
X36452128Y-114370612D01*
X36452827Y-114371311D01*
X36474814Y-114404217D01*
X36522313Y-114440797D01*
X37559203Y-115477687D01*
X37595783Y-115525186D01*
X37614785Y-115533269D01*
X37629388Y-115547872D01*
X38380103Y-115858828D01*
X39127823Y-116176901D01*
X39148473Y-116177097D01*
X39167552Y-116185000D01*
X39980123Y-116185000D01*
X40792645Y-116192721D01*
X40811798Y-116185000D01*
X40832448Y-116185000D01*
X41583171Y-115874041D01*
X42336793Y-115570237D01*
X42369698Y-115548250D01*
X42370612Y-115547872D01*
X42371311Y-115547173D01*
X42404217Y-115525186D01*
X42440797Y-115477687D01*
X43477687Y-114440797D01*
X43525186Y-114404217D01*
X43533269Y-114385215D01*
X43547872Y-114370612D01*
X43858828Y-113619897D01*
X44176901Y-112872177D01*
X44177097Y-112851527D01*
X44185000Y-112832448D01*
X44185000Y-112792645D01*
X49807279Y-112792645D01*
X49815000Y-112811798D01*
X49815000Y-112832448D01*
X50125959Y-113583171D01*
X50429763Y-114336793D01*
X50451750Y-114369698D01*
X50452128Y-114370612D01*
X50452827Y-114371311D01*
X50474814Y-114404217D01*
X50522313Y-114440797D01*
X51559203Y-115477687D01*
X51595783Y-115525186D01*
X51614785Y-115533269D01*
X51629388Y-115547872D01*
X52380103Y-115858828D01*
X53127823Y-116176901D01*
X53148473Y-116177097D01*
X53167552Y-116185000D01*
X53980123Y-116185000D01*
X54792645Y-116192721D01*
X54811798Y-116185000D01*
X54832448Y-116185000D01*
X55583171Y-115874041D01*
X56336793Y-115570237D01*
X56369698Y-115548250D01*
X56370612Y-115547872D01*
X56371311Y-115547173D01*
X56404217Y-115525186D01*
X56440797Y-115477687D01*
X57477687Y-114440797D01*
X57525186Y-114404217D01*
X57533269Y-114385215D01*
X57547872Y-114370612D01*
X57858828Y-113619897D01*
X58176901Y-112872177D01*
X58177097Y-112851527D01*
X58185000Y-112832448D01*
X58185000Y-112792645D01*
X65807279Y-112792645D01*
X65815000Y-112811798D01*
X65815000Y-112832448D01*
X66125959Y-113583171D01*
X66429763Y-114336793D01*
X66451750Y-114369698D01*
X66452128Y-114370612D01*
X66452827Y-114371311D01*
X66474814Y-114404217D01*
X66522313Y-114440797D01*
X67559203Y-115477687D01*
X67595783Y-115525186D01*
X67614785Y-115533269D01*
X67629388Y-115547872D01*
X68380103Y-115858828D01*
X69127823Y-116176901D01*
X69148473Y-116177097D01*
X69167552Y-116185000D01*
X69980123Y-116185000D01*
X70792645Y-116192721D01*
X70811798Y-116185000D01*
X70832448Y-116185000D01*
X71583171Y-115874041D01*
X72336793Y-115570237D01*
X72369698Y-115548250D01*
X72370612Y-115547872D01*
X72371311Y-115547173D01*
X72404217Y-115525186D01*
X72440797Y-115477687D01*
X73477687Y-114440797D01*
X73525186Y-114404217D01*
X73533269Y-114385215D01*
X73547872Y-114370612D01*
X73858828Y-113619897D01*
X74176901Y-112872177D01*
X74177097Y-112851527D01*
X74185000Y-112832448D01*
X74185000Y-112019877D01*
X74192721Y-111207355D01*
X74185000Y-111188202D01*
X74185000Y-111167552D01*
X73874041Y-110416829D01*
X73570237Y-109663207D01*
X73548250Y-109630302D01*
X73547872Y-109629388D01*
X73547173Y-109628689D01*
X73525186Y-109595783D01*
X73477687Y-109559203D01*
X72440797Y-108522313D01*
X72404217Y-108474814D01*
X72385215Y-108466731D01*
X72370612Y-108452128D01*
X71619897Y-108141172D01*
X70872177Y-107823099D01*
X70851527Y-107822903D01*
X70832448Y-107815000D01*
X70019877Y-107815000D01*
X69207355Y-107807279D01*
X69188202Y-107815000D01*
X69167552Y-107815000D01*
X68416829Y-108125959D01*
X67663207Y-108429763D01*
X67630302Y-108451750D01*
X67629388Y-108452128D01*
X67628689Y-108452827D01*
X67595783Y-108474814D01*
X67559203Y-108522313D01*
X66522313Y-109559203D01*
X66474814Y-109595783D01*
X66466731Y-109614785D01*
X66452128Y-109629388D01*
X66141172Y-110380103D01*
X65823099Y-111127823D01*
X65822903Y-111148473D01*
X65815000Y-111167552D01*
X65815000Y-111980123D01*
X65807279Y-112792645D01*
X58185000Y-112792645D01*
X58185000Y-112019877D01*
X58192721Y-111207355D01*
X58185000Y-111188202D01*
X58185000Y-111167552D01*
X57874041Y-110416829D01*
X57570237Y-109663207D01*
X57548250Y-109630302D01*
X57547872Y-109629388D01*
X57547173Y-109628689D01*
X57525186Y-109595783D01*
X57477687Y-109559203D01*
X56440797Y-108522313D01*
X56404217Y-108474814D01*
X56385215Y-108466731D01*
X56370612Y-108452128D01*
X55619897Y-108141172D01*
X54872177Y-107823099D01*
X54851527Y-107822903D01*
X54832448Y-107815000D01*
X54019877Y-107815000D01*
X53207355Y-107807279D01*
X53188202Y-107815000D01*
X53167552Y-107815000D01*
X52416829Y-108125959D01*
X51663207Y-108429763D01*
X51630302Y-108451750D01*
X51629388Y-108452128D01*
X51628689Y-108452827D01*
X51595783Y-108474814D01*
X51559203Y-108522313D01*
X50522313Y-109559203D01*
X50474814Y-109595783D01*
X50466731Y-109614785D01*
X50452128Y-109629388D01*
X50141172Y-110380103D01*
X49823099Y-111127823D01*
X49822903Y-111148473D01*
X49815000Y-111167552D01*
X49815000Y-111980123D01*
X49807279Y-112792645D01*
X44185000Y-112792645D01*
X44185000Y-112019877D01*
X44192721Y-111207355D01*
X44185000Y-111188202D01*
X44185000Y-111167552D01*
X43874041Y-110416829D01*
X43570237Y-109663207D01*
X43548250Y-109630302D01*
X43547872Y-109629388D01*
X43547173Y-109628689D01*
X43525186Y-109595783D01*
X43477687Y-109559203D01*
X42440797Y-108522313D01*
X42404217Y-108474814D01*
X42385215Y-108466731D01*
X42370612Y-108452128D01*
X41619897Y-108141172D01*
X40872177Y-107823099D01*
X40851527Y-107822903D01*
X40832448Y-107815000D01*
X40019877Y-107815000D01*
X39207355Y-107807279D01*
X39188202Y-107815000D01*
X39167552Y-107815000D01*
X38416829Y-108125959D01*
X37663207Y-108429763D01*
X37630302Y-108451750D01*
X37629388Y-108452128D01*
X37628689Y-108452827D01*
X37595783Y-108474814D01*
X37559203Y-108522313D01*
X36522313Y-109559203D01*
X36474814Y-109595783D01*
X36466731Y-109614785D01*
X36452128Y-109629388D01*
X36141172Y-110380103D01*
X35823099Y-111127823D01*
X35822903Y-111148473D01*
X35815000Y-111167552D01*
X35815000Y-111980123D01*
X35807279Y-112792645D01*
X30185000Y-112792645D01*
X30185000Y-112019877D01*
X30192721Y-111207355D01*
X30185000Y-111188202D01*
X30185000Y-111167552D01*
X29874041Y-110416829D01*
X29570237Y-109663207D01*
X29548250Y-109630302D01*
X29547872Y-109629388D01*
X29547173Y-109628689D01*
X29525186Y-109595783D01*
X29477687Y-109559203D01*
X28440797Y-108522313D01*
X28404217Y-108474814D01*
X28385215Y-108466731D01*
X28370612Y-108452128D01*
X27619897Y-108141172D01*
X26872177Y-107823099D01*
X26851527Y-107822903D01*
X26832448Y-107815000D01*
X26019877Y-107815000D01*
X25207355Y-107807279D01*
X25188202Y-107815000D01*
X25167552Y-107815000D01*
X24416829Y-108125959D01*
X23663207Y-108429763D01*
X23630302Y-108451750D01*
X23629388Y-108452128D01*
X23628689Y-108452827D01*
X23595783Y-108474814D01*
X23559203Y-108522313D01*
X22522313Y-109559203D01*
X22474814Y-109595783D01*
X22466731Y-109614785D01*
X22452128Y-109629388D01*
X22141172Y-110380103D01*
X21823099Y-111127823D01*
X21822903Y-111148473D01*
X21815000Y-111167552D01*
X21815000Y-111980123D01*
X21807279Y-112792645D01*
X14185000Y-112792645D01*
X14185000Y-112019877D01*
X14192721Y-111207355D01*
X14185000Y-111188202D01*
X14185000Y-111167552D01*
X13874041Y-110416829D01*
X13570237Y-109663207D01*
X13548250Y-109630302D01*
X13547872Y-109629388D01*
X13547173Y-109628689D01*
X13525186Y-109595783D01*
X13477687Y-109559203D01*
X12440797Y-108522313D01*
X12404217Y-108474814D01*
X12385215Y-108466731D01*
X12370612Y-108452128D01*
X11619897Y-108141172D01*
X10872177Y-107823099D01*
X10851527Y-107822903D01*
X10832448Y-107815000D01*
X10019877Y-107815000D01*
X9207355Y-107807279D01*
X9188202Y-107815000D01*
X9167552Y-107815000D01*
X8416829Y-108125959D01*
X7663207Y-108429763D01*
X7630302Y-108451750D01*
X7629388Y-108452128D01*
X7628689Y-108452827D01*
X7595783Y-108474814D01*
X7559203Y-108522313D01*
X6522313Y-109559203D01*
X6474814Y-109595783D01*
X6466731Y-109614785D01*
X6452128Y-109629388D01*
X6141172Y-110380103D01*
X5823099Y-111127823D01*
X5822903Y-111148473D01*
X5815000Y-111167552D01*
X5815000Y-111980123D01*
X5807279Y-112792645D01*
X735000Y-112792645D01*
X735000Y-96872426D01*
X5303561Y-96872426D01*
X5315000Y-96901064D01*
X5315000Y-96931905D01*
X5660287Y-97765501D01*
X5994919Y-98603266D01*
X6027492Y-98652015D01*
X6028248Y-98653840D01*
X6029645Y-98655237D01*
X6062218Y-98703986D01*
X6145526Y-98771118D01*
X7228882Y-99854474D01*
X7296014Y-99937782D01*
X7324351Y-99949943D01*
X7346160Y-99971752D01*
X8179757Y-100317039D01*
X9008767Y-100672807D01*
X9039602Y-100673198D01*
X9068095Y-100685000D01*
X9970327Y-100685000D01*
X10872426Y-100696439D01*
X10901064Y-100685000D01*
X10931905Y-100685000D01*
X11765501Y-100339713D01*
X12603266Y-100005081D01*
X12652015Y-99972508D01*
X12653840Y-99971752D01*
X12655237Y-99970355D01*
X12703986Y-99937782D01*
X12771118Y-99854474D01*
X13854474Y-98771118D01*
X13937782Y-98703986D01*
X13949943Y-98675649D01*
X13971752Y-98653840D01*
X14317039Y-97820243D01*
X14672807Y-96991233D01*
X14673198Y-96960398D01*
X14685000Y-96931905D01*
X14685000Y-96824558D01*
X21605786Y-96824558D01*
X21615000Y-96847504D01*
X21615000Y-96872231D01*
X21939662Y-97656033D01*
X22255820Y-98443385D01*
X22282061Y-98482657D01*
X22282577Y-98483903D01*
X22283530Y-98484856D01*
X22309771Y-98524128D01*
X22370439Y-98571765D01*
X23428235Y-99629561D01*
X23475872Y-99690229D01*
X23498614Y-99699940D01*
X23516097Y-99717423D01*
X24299907Y-100042088D01*
X25080199Y-100375269D01*
X25104925Y-100375538D01*
X25127769Y-100385000D01*
X25976180Y-100385000D01*
X26824558Y-100394214D01*
X26847504Y-100385000D01*
X26872231Y-100385000D01*
X27656033Y-100060338D01*
X28443385Y-99744180D01*
X28482657Y-99717939D01*
X28483903Y-99717423D01*
X28484856Y-99716470D01*
X28524128Y-99690229D01*
X28571765Y-99629561D01*
X29629561Y-98571765D01*
X29690229Y-98524128D01*
X29699940Y-98501386D01*
X29717423Y-98483903D01*
X30042088Y-97700093D01*
X30375269Y-96919801D01*
X30375538Y-96895075D01*
X30385000Y-96872231D01*
X30385000Y-96824558D01*
X35605786Y-96824558D01*
X35615000Y-96847504D01*
X35615000Y-96872231D01*
X35939662Y-97656033D01*
X36255820Y-98443385D01*
X36282061Y-98482657D01*
X36282577Y-98483903D01*
X36283530Y-98484856D01*
X36309771Y-98524128D01*
X36370439Y-98571765D01*
X37428235Y-99629561D01*
X37475872Y-99690229D01*
X37498614Y-99699940D01*
X37516097Y-99717423D01*
X38299907Y-100042088D01*
X39080199Y-100375269D01*
X39104925Y-100375538D01*
X39127769Y-100385000D01*
X39976180Y-100385000D01*
X40824558Y-100394214D01*
X40847504Y-100385000D01*
X40872231Y-100385000D01*
X41656033Y-100060338D01*
X42443385Y-99744180D01*
X42482657Y-99717939D01*
X42483903Y-99717423D01*
X42484856Y-99716470D01*
X42524128Y-99690229D01*
X42571765Y-99629561D01*
X43629561Y-98571765D01*
X43690229Y-98524128D01*
X43699940Y-98501386D01*
X43717423Y-98483903D01*
X44042088Y-97700093D01*
X44375269Y-96919801D01*
X44375538Y-96895075D01*
X44385000Y-96872231D01*
X44385000Y-96824558D01*
X49605786Y-96824558D01*
X49615000Y-96847504D01*
X49615000Y-96872231D01*
X49939662Y-97656033D01*
X50255820Y-98443385D01*
X50282061Y-98482657D01*
X50282577Y-98483903D01*
X50283530Y-98484856D01*
X50309771Y-98524128D01*
X50370439Y-98571765D01*
X51428235Y-99629561D01*
X51475872Y-99690229D01*
X51498614Y-99699940D01*
X51516097Y-99717423D01*
X52299907Y-100042088D01*
X53080199Y-100375269D01*
X53104925Y-100375538D01*
X53127769Y-100385000D01*
X53976180Y-100385000D01*
X54824558Y-100394214D01*
X54847504Y-100385000D01*
X54872231Y-100385000D01*
X55656033Y-100060338D01*
X56443385Y-99744180D01*
X56482657Y-99717939D01*
X56483903Y-99717423D01*
X56484856Y-99716470D01*
X56524128Y-99690229D01*
X56571765Y-99629561D01*
X57629561Y-98571765D01*
X57690229Y-98524128D01*
X57699940Y-98501386D01*
X57717423Y-98483903D01*
X58042088Y-97700093D01*
X58375269Y-96919801D01*
X58375538Y-96895075D01*
X58384919Y-96872426D01*
X65303561Y-96872426D01*
X65315000Y-96901064D01*
X65315000Y-96931905D01*
X65660287Y-97765501D01*
X65994919Y-98603266D01*
X66027492Y-98652015D01*
X66028248Y-98653840D01*
X66029645Y-98655237D01*
X66062218Y-98703986D01*
X66145526Y-98771118D01*
X67228882Y-99854474D01*
X67296014Y-99937782D01*
X67324351Y-99949943D01*
X67346160Y-99971752D01*
X68179757Y-100317039D01*
X69008767Y-100672807D01*
X69039602Y-100673198D01*
X69068095Y-100685000D01*
X69970327Y-100685000D01*
X70872426Y-100696439D01*
X70901064Y-100685000D01*
X70931905Y-100685000D01*
X71765501Y-100339713D01*
X72603266Y-100005081D01*
X72652015Y-99972508D01*
X72653840Y-99971752D01*
X72655237Y-99970355D01*
X72703986Y-99937782D01*
X72771118Y-99854474D01*
X73854474Y-98771118D01*
X73937782Y-98703986D01*
X73949943Y-98675649D01*
X73971752Y-98653840D01*
X74317039Y-97820243D01*
X74672807Y-96991233D01*
X74673198Y-96960398D01*
X74685000Y-96931905D01*
X74685000Y-96029673D01*
X74696439Y-95127574D01*
X74685000Y-95098936D01*
X74685000Y-95068095D01*
X74339713Y-94234499D01*
X74005081Y-93396734D01*
X73972508Y-93347985D01*
X73971752Y-93346160D01*
X73970355Y-93344763D01*
X73937782Y-93296014D01*
X73854474Y-93228882D01*
X72771118Y-92145526D01*
X72703986Y-92062218D01*
X72675649Y-92050057D01*
X72653840Y-92028248D01*
X71820243Y-91682961D01*
X70991233Y-91327193D01*
X70960398Y-91326802D01*
X70931905Y-91315000D01*
X70029673Y-91315000D01*
X69127574Y-91303561D01*
X69098936Y-91315000D01*
X69068095Y-91315000D01*
X68234499Y-91660287D01*
X67396734Y-91994919D01*
X67347985Y-92027492D01*
X67346160Y-92028248D01*
X67344763Y-92029645D01*
X67296014Y-92062218D01*
X67228882Y-92145526D01*
X66145526Y-93228882D01*
X66062218Y-93296014D01*
X66050057Y-93324351D01*
X66028248Y-93346160D01*
X65682961Y-94179757D01*
X65327193Y-95008767D01*
X65326802Y-95039602D01*
X65315000Y-95068095D01*
X65315000Y-95970327D01*
X65303561Y-96872426D01*
X58384919Y-96872426D01*
X58385000Y-96872231D01*
X58385000Y-96023820D01*
X58394214Y-95175442D01*
X58385000Y-95152496D01*
X58385000Y-95127769D01*
X58060338Y-94343967D01*
X57744180Y-93556615D01*
X57717939Y-93517343D01*
X57717423Y-93516097D01*
X57716470Y-93515144D01*
X57690229Y-93475872D01*
X57629561Y-93428235D01*
X56571765Y-92370439D01*
X56524128Y-92309771D01*
X56501386Y-92300060D01*
X56483903Y-92282577D01*
X55700093Y-91957912D01*
X54919801Y-91624731D01*
X54895075Y-91624462D01*
X54872231Y-91615000D01*
X54023820Y-91615000D01*
X53175442Y-91605786D01*
X53152496Y-91615000D01*
X53127769Y-91615000D01*
X52343967Y-91939662D01*
X51556615Y-92255820D01*
X51517343Y-92282061D01*
X51516097Y-92282577D01*
X51515144Y-92283530D01*
X51475872Y-92309771D01*
X51428235Y-92370439D01*
X50370439Y-93428235D01*
X50309771Y-93475872D01*
X50300060Y-93498614D01*
X50282577Y-93516097D01*
X49957912Y-94299907D01*
X49624731Y-95080199D01*
X49624462Y-95104925D01*
X49615000Y-95127769D01*
X49615000Y-95976180D01*
X49605786Y-96824558D01*
X44385000Y-96824558D01*
X44385000Y-96023820D01*
X44394214Y-95175442D01*
X44385000Y-95152496D01*
X44385000Y-95127769D01*
X44060338Y-94343967D01*
X43744180Y-93556615D01*
X43717939Y-93517343D01*
X43717423Y-93516097D01*
X43716470Y-93515144D01*
X43690229Y-93475872D01*
X43629561Y-93428235D01*
X42571765Y-92370439D01*
X42524128Y-92309771D01*
X42501386Y-92300060D01*
X42483903Y-92282577D01*
X41700093Y-91957912D01*
X40919801Y-91624731D01*
X40895075Y-91624462D01*
X40872231Y-91615000D01*
X40023820Y-91615000D01*
X39175442Y-91605786D01*
X39152496Y-91615000D01*
X39127769Y-91615000D01*
X38343967Y-91939662D01*
X37556615Y-92255820D01*
X37517343Y-92282061D01*
X37516097Y-92282577D01*
X37515144Y-92283530D01*
X37475872Y-92309771D01*
X37428235Y-92370439D01*
X36370439Y-93428235D01*
X36309771Y-93475872D01*
X36300060Y-93498614D01*
X36282577Y-93516097D01*
X35957912Y-94299907D01*
X35624731Y-95080199D01*
X35624462Y-95104925D01*
X35615000Y-95127769D01*
X35615000Y-95976180D01*
X35605786Y-96824558D01*
X30385000Y-96824558D01*
X30385000Y-96023820D01*
X30394214Y-95175442D01*
X30385000Y-95152496D01*
X30385000Y-95127769D01*
X30060338Y-94343967D01*
X29744180Y-93556615D01*
X29717939Y-93517343D01*
X29717423Y-93516097D01*
X29716470Y-93515144D01*
X29690229Y-93475872D01*
X29629561Y-93428235D01*
X28571765Y-92370439D01*
X28524128Y-92309771D01*
X28501386Y-92300060D01*
X28483903Y-92282577D01*
X27700093Y-91957912D01*
X26919801Y-91624731D01*
X26895075Y-91624462D01*
X26872231Y-91615000D01*
X26023820Y-91615000D01*
X25175442Y-91605786D01*
X25152496Y-91615000D01*
X25127769Y-91615000D01*
X24343967Y-91939662D01*
X23556615Y-92255820D01*
X23517343Y-92282061D01*
X23516097Y-92282577D01*
X23515144Y-92283530D01*
X23475872Y-92309771D01*
X23428235Y-92370439D01*
X22370439Y-93428235D01*
X22309771Y-93475872D01*
X22300060Y-93498614D01*
X22282577Y-93516097D01*
X21957912Y-94299907D01*
X21624731Y-95080199D01*
X21624462Y-95104925D01*
X21615000Y-95127769D01*
X21615000Y-95976180D01*
X21605786Y-96824558D01*
X14685000Y-96824558D01*
X14685000Y-96029673D01*
X14696439Y-95127574D01*
X14685000Y-95098936D01*
X14685000Y-95068095D01*
X14339713Y-94234499D01*
X14005081Y-93396734D01*
X13972508Y-93347985D01*
X13971752Y-93346160D01*
X13970355Y-93344763D01*
X13937782Y-93296014D01*
X13854474Y-93228882D01*
X12771118Y-92145526D01*
X12703986Y-92062218D01*
X12675649Y-92050057D01*
X12653840Y-92028248D01*
X11820243Y-91682961D01*
X10991233Y-91327193D01*
X10960398Y-91326802D01*
X10931905Y-91315000D01*
X10029673Y-91315000D01*
X9127574Y-91303561D01*
X9098936Y-91315000D01*
X9068095Y-91315000D01*
X8234499Y-91660287D01*
X7396734Y-91994919D01*
X7347985Y-92027492D01*
X7346160Y-92028248D01*
X7344763Y-92029645D01*
X7296014Y-92062218D01*
X7228882Y-92145526D01*
X6145526Y-93228882D01*
X6062218Y-93296014D01*
X6050057Y-93324351D01*
X6028248Y-93346160D01*
X5682961Y-94179757D01*
X5327193Y-95008767D01*
X5326802Y-95039602D01*
X5315000Y-95068095D01*
X5315000Y-95970327D01*
X5303561Y-96872426D01*
X735000Y-96872426D01*
X735000Y-82900000D01*
X67873000Y-82900000D01*
X67873000Y-86500000D01*
X67882667Y-86548601D01*
X67910197Y-86589803D01*
X67951399Y-86617333D01*
X68000000Y-86627000D01*
X71700000Y-86627000D01*
X71748601Y-86617333D01*
X71789803Y-86589803D01*
X71817333Y-86548601D01*
X71827000Y-86500000D01*
X71827000Y-82900000D01*
X71817333Y-82851399D01*
X71789803Y-82810197D01*
X71748601Y-82782667D01*
X71700000Y-82773000D01*
X68000000Y-82773000D01*
X67951399Y-82782667D01*
X67910197Y-82810197D01*
X67882667Y-82851399D01*
X67873000Y-82900000D01*
X735000Y-82900000D01*
X735000Y-72872426D01*
X35303561Y-72872426D01*
X35315000Y-72901064D01*
X35315000Y-72931905D01*
X35660287Y-73765501D01*
X35994919Y-74603266D01*
X36027492Y-74652015D01*
X36028248Y-74653840D01*
X36029645Y-74655237D01*
X36062218Y-74703986D01*
X36145526Y-74771118D01*
X37228882Y-75854474D01*
X37296014Y-75937782D01*
X37324351Y-75949943D01*
X37346160Y-75971752D01*
X38179757Y-76317039D01*
X39008767Y-76672807D01*
X39039602Y-76673198D01*
X39068095Y-76685000D01*
X39970327Y-76685000D01*
X40872426Y-76696439D01*
X40901064Y-76685000D01*
X40931905Y-76685000D01*
X41765501Y-76339713D01*
X42603266Y-76005081D01*
X42652015Y-75972508D01*
X42653840Y-75971752D01*
X42655237Y-75970355D01*
X42703986Y-75937782D01*
X42771118Y-75854474D01*
X43854474Y-74771118D01*
X43937782Y-74703986D01*
X43949943Y-74675649D01*
X43971752Y-74653840D01*
X44317039Y-73820243D01*
X44672807Y-72991233D01*
X44673198Y-72960398D01*
X44685000Y-72931905D01*
X44685000Y-72029673D01*
X44696439Y-71127574D01*
X44685000Y-71098936D01*
X44685000Y-71068095D01*
X44339713Y-70234499D01*
X44005081Y-69396734D01*
X43972508Y-69347985D01*
X43971752Y-69346160D01*
X43970355Y-69344763D01*
X43940446Y-69300000D01*
X61073000Y-69300000D01*
X61073000Y-74600000D01*
X61082667Y-74648601D01*
X61110197Y-74689803D01*
X61151399Y-74717333D01*
X61200000Y-74727000D01*
X66500000Y-74727000D01*
X66548601Y-74717333D01*
X66589803Y-74689803D01*
X66617333Y-74648601D01*
X66627000Y-74600000D01*
X66627000Y-69300000D01*
X66617333Y-69251399D01*
X66589803Y-69210197D01*
X66548601Y-69182667D01*
X66500000Y-69173000D01*
X61200000Y-69173000D01*
X61151399Y-69182667D01*
X61110197Y-69210197D01*
X61082667Y-69251399D01*
X61073000Y-69300000D01*
X43940446Y-69300000D01*
X43937782Y-69296014D01*
X43854474Y-69228882D01*
X42771118Y-68145526D01*
X42703986Y-68062218D01*
X42675649Y-68050057D01*
X42653840Y-68028248D01*
X41820243Y-67682961D01*
X40991233Y-67327193D01*
X40960398Y-67326802D01*
X40931905Y-67315000D01*
X40029673Y-67315000D01*
X39127574Y-67303561D01*
X39098936Y-67315000D01*
X39068095Y-67315000D01*
X38234499Y-67660287D01*
X37396734Y-67994919D01*
X37347985Y-68027492D01*
X37346160Y-68028248D01*
X37344763Y-68029645D01*
X37296014Y-68062218D01*
X37228882Y-68145526D01*
X36145526Y-69228882D01*
X36062218Y-69296014D01*
X36050057Y-69324351D01*
X36028248Y-69346160D01*
X35682961Y-70179757D01*
X35327193Y-71008767D01*
X35326802Y-71039602D01*
X35315000Y-71068095D01*
X35315000Y-71970327D01*
X35303561Y-72872426D01*
X735000Y-72872426D01*
X735000Y-55872426D01*
X11303561Y-55872426D01*
X11315000Y-55901064D01*
X11315000Y-55931905D01*
X11660287Y-56765501D01*
X11994919Y-57603266D01*
X12027492Y-57652015D01*
X12028248Y-57653840D01*
X12029645Y-57655237D01*
X12062218Y-57703986D01*
X12145526Y-57771118D01*
X13228882Y-58854474D01*
X13296014Y-58937782D01*
X13324351Y-58949943D01*
X13346160Y-58971752D01*
X14179757Y-59317039D01*
X15008767Y-59672807D01*
X15039602Y-59673198D01*
X15068095Y-59685000D01*
X15970327Y-59685000D01*
X16872426Y-59696439D01*
X16901064Y-59685000D01*
X16931905Y-59685000D01*
X17765501Y-59339713D01*
X18603266Y-59005081D01*
X18652015Y-58972508D01*
X18653840Y-58971752D01*
X18655237Y-58970355D01*
X18703986Y-58937782D01*
X18771118Y-58854474D01*
X19854474Y-57771118D01*
X19937782Y-57703986D01*
X19949943Y-57675649D01*
X19971752Y-57653840D01*
X20317039Y-56820243D01*
X20672807Y-55991233D01*
X20673198Y-55960398D01*
X20685000Y-55931905D01*
X20685000Y-55872426D01*
X59303561Y-55872426D01*
X59315000Y-55901064D01*
X59315000Y-55931905D01*
X59660287Y-56765501D01*
X59994919Y-57603266D01*
X60027492Y-57652015D01*
X60028248Y-57653840D01*
X60029645Y-57655237D01*
X60062218Y-57703986D01*
X60145526Y-57771118D01*
X61228882Y-58854474D01*
X61296014Y-58937782D01*
X61324351Y-58949943D01*
X61346160Y-58971752D01*
X62179757Y-59317039D01*
X63008767Y-59672807D01*
X63039602Y-59673198D01*
X63068095Y-59685000D01*
X63970327Y-59685000D01*
X64872426Y-59696439D01*
X64901064Y-59685000D01*
X64931905Y-59685000D01*
X65765501Y-59339713D01*
X66603266Y-59005081D01*
X66652015Y-58972508D01*
X66653840Y-58971752D01*
X66655237Y-58970355D01*
X66703986Y-58937782D01*
X66771118Y-58854474D01*
X67854474Y-57771118D01*
X67937782Y-57703986D01*
X67949943Y-57675649D01*
X67971752Y-57653840D01*
X68317039Y-56820243D01*
X68672807Y-55991233D01*
X68673198Y-55960398D01*
X68685000Y-55931905D01*
X68685000Y-55029673D01*
X68696439Y-54127574D01*
X68685000Y-54098936D01*
X68685000Y-54068095D01*
X68339713Y-53234499D01*
X68005081Y-52396734D01*
X67972508Y-52347985D01*
X67971752Y-52346160D01*
X67970355Y-52344763D01*
X67937782Y-52296014D01*
X67854474Y-52228882D01*
X66771118Y-51145526D01*
X66703986Y-51062218D01*
X66675649Y-51050057D01*
X66653840Y-51028248D01*
X65820243Y-50682961D01*
X64991233Y-50327193D01*
X64960398Y-50326802D01*
X64931905Y-50315000D01*
X64029673Y-50315000D01*
X63127574Y-50303561D01*
X63098936Y-50315000D01*
X63068095Y-50315000D01*
X62234499Y-50660287D01*
X61396734Y-50994919D01*
X61347985Y-51027492D01*
X61346160Y-51028248D01*
X61344763Y-51029645D01*
X61296014Y-51062218D01*
X61228882Y-51145526D01*
X60145526Y-52228882D01*
X60062218Y-52296014D01*
X60050057Y-52324351D01*
X60028248Y-52346160D01*
X59682961Y-53179757D01*
X59327193Y-54008767D01*
X59326802Y-54039602D01*
X59315000Y-54068095D01*
X59315000Y-54970327D01*
X59303561Y-55872426D01*
X20685000Y-55872426D01*
X20685000Y-55029673D01*
X20696439Y-54127574D01*
X20685000Y-54098936D01*
X20685000Y-54068095D01*
X20339713Y-53234499D01*
X20005081Y-52396734D01*
X19972508Y-52347985D01*
X19971752Y-52346160D01*
X19970355Y-52344763D01*
X19937782Y-52296014D01*
X19854474Y-52228882D01*
X18950150Y-51324558D01*
X35605786Y-51324558D01*
X35615000Y-51347504D01*
X35615000Y-51372231D01*
X35939662Y-52156033D01*
X36255820Y-52943385D01*
X36282061Y-52982657D01*
X36282577Y-52983903D01*
X36283530Y-52984856D01*
X36309771Y-53024128D01*
X36370439Y-53071765D01*
X37428235Y-54129561D01*
X37475872Y-54190229D01*
X37498614Y-54199940D01*
X37516097Y-54217423D01*
X38299907Y-54542088D01*
X39080199Y-54875269D01*
X39104925Y-54875538D01*
X39127769Y-54885000D01*
X39976180Y-54885000D01*
X40824558Y-54894214D01*
X40847504Y-54885000D01*
X40872231Y-54885000D01*
X41656033Y-54560338D01*
X42443385Y-54244180D01*
X42482657Y-54217939D01*
X42483903Y-54217423D01*
X42484856Y-54216470D01*
X42524128Y-54190229D01*
X42571765Y-54129561D01*
X43629561Y-53071765D01*
X43690229Y-53024128D01*
X43699940Y-53001386D01*
X43717423Y-52983903D01*
X44042088Y-52200093D01*
X44375269Y-51419801D01*
X44375538Y-51395075D01*
X44385000Y-51372231D01*
X44385000Y-50523820D01*
X44394214Y-49675442D01*
X44385000Y-49652496D01*
X44385000Y-49627769D01*
X44060338Y-48843967D01*
X43744180Y-48056615D01*
X43717939Y-48017343D01*
X43717423Y-48016097D01*
X43716470Y-48015144D01*
X43690229Y-47975872D01*
X43629561Y-47928235D01*
X42571765Y-46870439D01*
X42524128Y-46809771D01*
X42501386Y-46800060D01*
X42483903Y-46782577D01*
X41700093Y-46457912D01*
X40919801Y-46124731D01*
X40895075Y-46124462D01*
X40872231Y-46115000D01*
X40023820Y-46115000D01*
X39175442Y-46105786D01*
X39152496Y-46115000D01*
X39127769Y-46115000D01*
X38343967Y-46439662D01*
X37556615Y-46755820D01*
X37517343Y-46782061D01*
X37516097Y-46782577D01*
X37515144Y-46783530D01*
X37475872Y-46809771D01*
X37428235Y-46870439D01*
X36370439Y-47928235D01*
X36309771Y-47975872D01*
X36300060Y-47998614D01*
X36282577Y-48016097D01*
X35957912Y-48799907D01*
X35624731Y-49580199D01*
X35624462Y-49604925D01*
X35615000Y-49627769D01*
X35615000Y-50476180D01*
X35605786Y-51324558D01*
X18950150Y-51324558D01*
X18771118Y-51145526D01*
X18703986Y-51062218D01*
X18675649Y-51050057D01*
X18653840Y-51028248D01*
X17820243Y-50682961D01*
X16991233Y-50327193D01*
X16960398Y-50326802D01*
X16931905Y-50315000D01*
X16029673Y-50315000D01*
X15127574Y-50303561D01*
X15098936Y-50315000D01*
X15068095Y-50315000D01*
X14234499Y-50660287D01*
X13396734Y-50994919D01*
X13347985Y-51027492D01*
X13346160Y-51028248D01*
X13344763Y-51029645D01*
X13296014Y-51062218D01*
X13228882Y-51145526D01*
X12145526Y-52228882D01*
X12062218Y-52296014D01*
X12050057Y-52324351D01*
X12028248Y-52346160D01*
X11682961Y-53179757D01*
X11327193Y-54008767D01*
X11326802Y-54039602D01*
X11315000Y-54068095D01*
X11315000Y-54970327D01*
X11303561Y-55872426D01*
X735000Y-55872426D01*
X735000Y-27180488D01*
X27044786Y-27180488D01*
X27115000Y-27365290D01*
X27115000Y-27562986D01*
X28022828Y-29754676D01*
X28865379Y-31972254D01*
X29065335Y-32271510D01*
X29076625Y-32298766D01*
X29097486Y-32319627D01*
X29297442Y-32618883D01*
X30733322Y-34087072D01*
X30799127Y-34021268D01*
X30978732Y-34200873D01*
X30912928Y-34266678D01*
X32381117Y-35702558D01*
X32561445Y-35783586D01*
X32701234Y-35923375D01*
X34892911Y-36831198D01*
X37056762Y-37803494D01*
X37254368Y-37809345D01*
X37437014Y-37885000D01*
X39809296Y-37885000D01*
X42180488Y-37955214D01*
X42365290Y-37885000D01*
X42562986Y-37885000D01*
X44754676Y-36977172D01*
X46972254Y-36134621D01*
X47271510Y-35934665D01*
X47298766Y-35923375D01*
X47319627Y-35902514D01*
X47618883Y-35702558D01*
X49087072Y-34266678D01*
X49021268Y-34200873D01*
X49200873Y-34021268D01*
X49266678Y-34087072D01*
X50702558Y-32618883D01*
X50783586Y-32438555D01*
X50923375Y-32298766D01*
X51831198Y-30107089D01*
X52803494Y-27943238D01*
X52809345Y-27745632D01*
X52885000Y-27562986D01*
X52885000Y-25190704D01*
X52955214Y-22819512D01*
X52885000Y-22634710D01*
X52885000Y-22437014D01*
X51977172Y-20245324D01*
X51134621Y-18027746D01*
X50934665Y-17728490D01*
X50923375Y-17701234D01*
X50902514Y-17680373D01*
X50702558Y-17381117D01*
X49266678Y-15912928D01*
X49200873Y-15978732D01*
X49021268Y-15799127D01*
X49087072Y-15733322D01*
X47618883Y-14297442D01*
X47438555Y-14216414D01*
X47298766Y-14076625D01*
X45107089Y-13168802D01*
X42943238Y-12196506D01*
X42745632Y-12190655D01*
X42562986Y-12115000D01*
X40190704Y-12115000D01*
X37819512Y-12044786D01*
X37634710Y-12115000D01*
X37437014Y-12115000D01*
X35245324Y-13022828D01*
X33027746Y-13865379D01*
X32728490Y-14065335D01*
X32701234Y-14076625D01*
X32680373Y-14097486D01*
X32381117Y-14297442D01*
X30912928Y-15733322D01*
X30978732Y-15799127D01*
X30799127Y-15978732D01*
X30733322Y-15912928D01*
X29297442Y-17381117D01*
X29216414Y-17561445D01*
X29076625Y-17701234D01*
X28168802Y-19892911D01*
X27196506Y-22056762D01*
X27190655Y-22254368D01*
X27115000Y-22437014D01*
X27115000Y-24809296D01*
X27044786Y-27180488D01*
X735000Y-27180488D01*
X735000Y-735000D01*
X2681026Y-735000D01*
X2665000Y-773690D01*
M02*
