M48
;DRILL file {KiCad (5.0.0)} date 11/12/18 22:38:05
;FORMAT={-:-/ absolute / inch / decimal}
FMAT,2
INCH,TZ
T1C0.1260
T2C0.2402
T3C0.2559
T4C0.2795
T5C0.9449
%
G90
G05
M72
T1
X2.8346Y-3.3858
X2.5197Y-2.8346
T2
X2.8346Y-4.4488
X2.2047Y-4.4488
X0.315Y-4.4488
X0.9449Y-4.4488
X1.5748Y-4.4488
T3
X1.5748Y-3.8189
X2.2047Y-3.8189
X1.5748Y-2.0276
X0.9449Y-3.8189
T4
X1.5748Y-2.874
X0.6299Y-2.2047
X2.8346Y-3.8189
X2.5197Y-2.2047
X0.315Y-3.8189
T5
X1.5748Y-1.0433
T1
X2.7717Y-4.9409G85X2.8976Y-4.9409
G05
X0.2126Y-4.9409G85X0.3386Y-4.9409
G05
X2.7717Y-0.1181G85X2.8976Y-0.1181
G05
X0.2126Y-0.1181G85X0.3386Y-0.1181
G05
T0
M30
