G04 #@! TF.GenerationSoftware,KiCad,Pcbnew,(5.0.0)*
G04 #@! TF.CreationDate,2018-08-28T22:09:42+02:00*
G04 #@! TF.ProjectId,1u_mute_panel,31755F6D7574655F70616E656C2E6B69,rev?*
G04 #@! TF.SameCoordinates,Original*
G04 #@! TF.FileFunction,Legend,Bot*
G04 #@! TF.FilePolarity,Positive*
%FSLAX46Y46*%
G04 Gerber Fmt 4.6, Leading zero omitted, Abs format (unit mm)*
G04 Created by KiCad (PCBNEW (5.0.0)) date 08/28/18 22:09:42*
%MOMM*%
%LPD*%
G01*
G04 APERTURE LIST*
%ADD10C,0.150000*%
G04 APERTURE END LIST*
D10*
X28261904Y-35897619D02*
X28833333Y-35897619D01*
X28547619Y-35897619D02*
X28547619Y-34797619D01*
X28642857Y-34954761D01*
X28738095Y-35059523D01*
X28833333Y-35111904D01*
X27833333Y-34797619D02*
X27833333Y-35688095D01*
X27785714Y-35792857D01*
X27738095Y-35845238D01*
X27642857Y-35897619D01*
X27452380Y-35897619D01*
X27357142Y-35845238D01*
X27309523Y-35792857D01*
X27261904Y-35688095D01*
X27261904Y-34797619D01*
X27023809Y-36002380D02*
X26261904Y-36002380D01*
X26023809Y-35897619D02*
X26023809Y-34797619D01*
X25690476Y-35583333D01*
X25357142Y-34797619D01*
X25357142Y-35897619D01*
X24452380Y-35164285D02*
X24452380Y-35897619D01*
X24880952Y-35164285D02*
X24880952Y-35740476D01*
X24833333Y-35845238D01*
X24738095Y-35897619D01*
X24595238Y-35897619D01*
X24500000Y-35845238D01*
X24452380Y-35792857D01*
X24119047Y-35164285D02*
X23738095Y-35164285D01*
X23976190Y-34797619D02*
X23976190Y-35740476D01*
X23928571Y-35845238D01*
X23833333Y-35897619D01*
X23738095Y-35897619D01*
X23023809Y-35845238D02*
X23119047Y-35897619D01*
X23309523Y-35897619D01*
X23404761Y-35845238D01*
X23452380Y-35740476D01*
X23452380Y-35321428D01*
X23404761Y-35216666D01*
X23309523Y-35164285D01*
X23119047Y-35164285D01*
X23023809Y-35216666D01*
X22976190Y-35321428D01*
X22976190Y-35426190D01*
X23452380Y-35530952D01*
X21785714Y-35164285D02*
X21785714Y-36264285D01*
X21785714Y-35216666D02*
X21690476Y-35164285D01*
X21500000Y-35164285D01*
X21404761Y-35216666D01*
X21357142Y-35269047D01*
X21309523Y-35373809D01*
X21309523Y-35688095D01*
X21357142Y-35792857D01*
X21404761Y-35845238D01*
X21500000Y-35897619D01*
X21690476Y-35897619D01*
X21785714Y-35845238D01*
X20452380Y-35897619D02*
X20452380Y-35321428D01*
X20500000Y-35216666D01*
X20595238Y-35164285D01*
X20785714Y-35164285D01*
X20880952Y-35216666D01*
X20452380Y-35845238D02*
X20547619Y-35897619D01*
X20785714Y-35897619D01*
X20880952Y-35845238D01*
X20928571Y-35740476D01*
X20928571Y-35635714D01*
X20880952Y-35530952D01*
X20785714Y-35478571D01*
X20547619Y-35478571D01*
X20452380Y-35426190D01*
X19976190Y-35164285D02*
X19976190Y-35897619D01*
X19976190Y-35269047D02*
X19928571Y-35216666D01*
X19833333Y-35164285D01*
X19690476Y-35164285D01*
X19595238Y-35216666D01*
X19547619Y-35321428D01*
X19547619Y-35897619D01*
X18690476Y-35845238D02*
X18785714Y-35897619D01*
X18976190Y-35897619D01*
X19071428Y-35845238D01*
X19119047Y-35740476D01*
X19119047Y-35321428D01*
X19071428Y-35216666D01*
X18976190Y-35164285D01*
X18785714Y-35164285D01*
X18690476Y-35216666D01*
X18642857Y-35321428D01*
X18642857Y-35426190D01*
X19119047Y-35530952D01*
X18071428Y-35897619D02*
X18166666Y-35845238D01*
X18214285Y-35740476D01*
X18214285Y-34797619D01*
X16928571Y-35478571D02*
X16166666Y-35478571D01*
X14928571Y-35897619D02*
X14928571Y-35164285D01*
X14928571Y-35373809D02*
X14880952Y-35269047D01*
X14833333Y-35216666D01*
X14738095Y-35164285D01*
X14642857Y-35164285D01*
X13928571Y-35845238D02*
X14023809Y-35897619D01*
X14214285Y-35897619D01*
X14309523Y-35845238D01*
X14357142Y-35740476D01*
X14357142Y-35321428D01*
X14309523Y-35216666D01*
X14214285Y-35164285D01*
X14023809Y-35164285D01*
X13928571Y-35216666D01*
X13880952Y-35321428D01*
X13880952Y-35426190D01*
X14357142Y-35530952D01*
X13547619Y-35164285D02*
X13309523Y-35897619D01*
X13071428Y-35164285D01*
X12166666Y-35897619D02*
X12738095Y-35897619D01*
X12452380Y-35897619D02*
X12452380Y-34797619D01*
X12547619Y-34954761D01*
X12642857Y-35059523D01*
X12738095Y-35111904D01*
X29095238Y-37697619D02*
X29095238Y-36597619D01*
X29095238Y-37016666D02*
X29000000Y-36964285D01*
X28809523Y-36964285D01*
X28714285Y-37016666D01*
X28666666Y-37069047D01*
X28619047Y-37173809D01*
X28619047Y-37488095D01*
X28666666Y-37592857D01*
X28714285Y-37645238D01*
X28809523Y-37697619D01*
X29000000Y-37697619D01*
X29095238Y-37645238D01*
X28285714Y-36964285D02*
X28047619Y-37697619D01*
X27809523Y-36964285D02*
X28047619Y-37697619D01*
X28142857Y-37959523D01*
X28190476Y-38011904D01*
X28285714Y-38064285D01*
X26095238Y-37592857D02*
X26142857Y-37645238D01*
X26285714Y-37697619D01*
X26380952Y-37697619D01*
X26523809Y-37645238D01*
X26619047Y-37540476D01*
X26666666Y-37435714D01*
X26714285Y-37226190D01*
X26714285Y-37069047D01*
X26666666Y-36859523D01*
X26619047Y-36754761D01*
X26523809Y-36650000D01*
X26380952Y-36597619D01*
X26285714Y-36597619D01*
X26142857Y-36650000D01*
X26095238Y-36702380D01*
X25523809Y-37697619D02*
X25619047Y-37645238D01*
X25666666Y-37592857D01*
X25714285Y-37488095D01*
X25714285Y-37173809D01*
X25666666Y-37069047D01*
X25619047Y-37016666D01*
X25523809Y-36964285D01*
X25380952Y-36964285D01*
X25285714Y-37016666D01*
X25238095Y-37069047D01*
X25190476Y-37173809D01*
X25190476Y-37488095D01*
X25238095Y-37592857D01*
X25285714Y-37645238D01*
X25380952Y-37697619D01*
X25523809Y-37697619D01*
X24761904Y-37697619D02*
X24761904Y-36964285D01*
X24761904Y-37173809D02*
X24714285Y-37069047D01*
X24666666Y-37016666D01*
X24571428Y-36964285D01*
X24476190Y-36964285D01*
X24142857Y-37697619D02*
X24142857Y-36964285D01*
X24142857Y-36597619D02*
X24190476Y-36650000D01*
X24142857Y-36702380D01*
X24095238Y-36650000D01*
X24142857Y-36597619D01*
X24142857Y-36702380D01*
X23523809Y-37697619D02*
X23619047Y-37645238D01*
X23666666Y-37592857D01*
X23714285Y-37488095D01*
X23714285Y-37173809D01*
X23666666Y-37069047D01*
X23619047Y-37016666D01*
X23523809Y-36964285D01*
X23380952Y-36964285D01*
X23285714Y-37016666D01*
X23238095Y-37069047D01*
X23190476Y-37173809D01*
X23190476Y-37488095D01*
X23238095Y-37592857D01*
X23285714Y-37645238D01*
X23380952Y-37697619D01*
X23523809Y-37697619D01*
X22619047Y-37697619D02*
X22714285Y-37645238D01*
X22761904Y-37540476D01*
X22761904Y-36597619D01*
X22238095Y-37697619D02*
X22238095Y-36964285D01*
X22238095Y-36597619D02*
X22285714Y-36650000D01*
X22238095Y-36702380D01*
X22190476Y-36650000D01*
X22238095Y-36597619D01*
X22238095Y-36702380D01*
X21809523Y-37645238D02*
X21714285Y-37697619D01*
X21523809Y-37697619D01*
X21428571Y-37645238D01*
X21380952Y-37540476D01*
X21380952Y-37488095D01*
X21428571Y-37383333D01*
X21523809Y-37330952D01*
X21666666Y-37330952D01*
X21761904Y-37278571D01*
X21809523Y-37173809D01*
X21809523Y-37121428D01*
X21761904Y-37016666D01*
X21666666Y-36964285D01*
X21523809Y-36964285D01*
X21428571Y-37016666D01*
X20190476Y-37697619D02*
X20190476Y-36597619D01*
X19714285Y-36964285D02*
X19714285Y-37697619D01*
X19714285Y-37069047D02*
X19666666Y-37016666D01*
X19571428Y-36964285D01*
X19428571Y-36964285D01*
X19333333Y-37016666D01*
X19285714Y-37121428D01*
X19285714Y-37697619D01*
X18857142Y-37645238D02*
X18761904Y-37697619D01*
X18571428Y-37697619D01*
X18476190Y-37645238D01*
X18428571Y-37540476D01*
X18428571Y-37488095D01*
X18476190Y-37383333D01*
X18571428Y-37330952D01*
X18714285Y-37330952D01*
X18809523Y-37278571D01*
X18857142Y-37173809D01*
X18857142Y-37121428D01*
X18809523Y-37016666D01*
X18714285Y-36964285D01*
X18571428Y-36964285D01*
X18476190Y-37016666D01*
X18142857Y-36964285D02*
X17761904Y-36964285D01*
X18000000Y-36597619D02*
X18000000Y-37540476D01*
X17952380Y-37645238D01*
X17857142Y-37697619D01*
X17761904Y-37697619D01*
X17428571Y-37697619D02*
X17428571Y-36964285D01*
X17428571Y-37173809D02*
X17380952Y-37069047D01*
X17333333Y-37016666D01*
X17238095Y-36964285D01*
X17142857Y-36964285D01*
X16380952Y-36964285D02*
X16380952Y-37697619D01*
X16809523Y-36964285D02*
X16809523Y-37540476D01*
X16761904Y-37645238D01*
X16666666Y-37697619D01*
X16523809Y-37697619D01*
X16428571Y-37645238D01*
X16380952Y-37592857D01*
X15904761Y-37697619D02*
X15904761Y-36964285D01*
X15904761Y-37069047D02*
X15857142Y-37016666D01*
X15761904Y-36964285D01*
X15619047Y-36964285D01*
X15523809Y-37016666D01*
X15476190Y-37121428D01*
X15476190Y-37697619D01*
X15476190Y-37121428D02*
X15428571Y-37016666D01*
X15333333Y-36964285D01*
X15190476Y-36964285D01*
X15095238Y-37016666D01*
X15047619Y-37121428D01*
X15047619Y-37697619D01*
X14190476Y-37645238D02*
X14285714Y-37697619D01*
X14476190Y-37697619D01*
X14571428Y-37645238D01*
X14619047Y-37540476D01*
X14619047Y-37121428D01*
X14571428Y-37016666D01*
X14476190Y-36964285D01*
X14285714Y-36964285D01*
X14190476Y-37016666D01*
X14142857Y-37121428D01*
X14142857Y-37226190D01*
X14619047Y-37330952D01*
X13714285Y-36964285D02*
X13714285Y-37697619D01*
X13714285Y-37069047D02*
X13666666Y-37016666D01*
X13571428Y-36964285D01*
X13428571Y-36964285D01*
X13333333Y-37016666D01*
X13285714Y-37121428D01*
X13285714Y-37697619D01*
X12952380Y-36964285D02*
X12571428Y-36964285D01*
X12809523Y-36597619D02*
X12809523Y-37540476D01*
X12761904Y-37645238D01*
X12666666Y-37697619D01*
X12571428Y-37697619D01*
X12285714Y-37645238D02*
X12190476Y-37697619D01*
X12000000Y-37697619D01*
X11904761Y-37645238D01*
X11857142Y-37540476D01*
X11857142Y-37488095D01*
X11904761Y-37383333D01*
X12000000Y-37330952D01*
X12142857Y-37330952D01*
X12238095Y-37278571D01*
X12285714Y-37173809D01*
X12285714Y-37121428D01*
X12238095Y-37016666D01*
X12142857Y-36964285D01*
X12000000Y-36964285D01*
X11904761Y-37016666D01*
M02*
