M48
;DRILL file {KiCad (5.0.0)} date 01/12/19 21:55:15
;FORMAT={-:-/ absolute / inch / decimal}
FMAT,2
INCH,TZ
T1C0.1260
T2C0.2402
%
G90
G05
M72
T1
X0.2953Y-0.1181
X7.0984Y-1.4409
X13.7008Y-0.1181
X13.7008Y-1.4409
X20.5Y-1.4409
X20.5Y-0.1181
X7.0984Y-0.1181
X0.2953Y-1.4409
T2
X16.6142Y-0.7795
X10.0787Y-0.7795
X14.8031Y-0.7795
X6.5354Y-0.7795
X11.8898Y-0.7795
X10.7087Y-0.7795
X13.622Y-0.7795
X7.7165Y-0.7795
X18.9764Y-0.7795
X8.3465Y-0.7795
X5.9843Y-0.7795
X8.8976Y-0.7795
X4.1732Y-0.7795
X14.252Y-0.7795
X3.622Y-0.7795
X2.4409Y-0.7795
X5.3543Y-0.7795
X2.9921Y-0.7795
X1.2598Y-0.7795
X19.5276Y-0.7795
X15.9843Y-0.7795
X15.4331Y-0.7795
X9.5276Y-0.7795
X1.811Y-0.7795
X11.2598Y-0.7795
X18.3465Y-0.7795
X17.7953Y-0.7795
X13.0709Y-0.7795
X4.8031Y-0.7795
X7.1654Y-0.7795
X17.1654Y-0.7795
X12.4409Y-0.7795
T0
M30
