<?xml version="1.0" standalone="no"?>
<!DOCTYPE svg PUBLIC "-//W3C//DTD SVG 1.1//EN" 
  "http://www.w3.org/Graphics/SVG/1.1/DTD/svg11.dtd">
<svg width="40.300mm" height="128.400mm" version="1.1"
     viewBox="0 0 40.300 128.400"
     xmlns="http://www.w3.org/2000/svg"  xmlns:xlink="http://www.w3.org/1999/xlink" 
     xmlns:fpd="http://www.schaeffer-ag.de">
  <desc>Created with the Front Panel Designer by the export of the file 'Aphelion_8hp.fpd'.</desc>
  <defs>
    <pattern id="revside-fill" x="1" y="1" width="1.5" height="1.5" patternUnits="userSpaceOnUse">
      <line x1="0" y1="0" x2="1" y2="1" style="stroke-width:0.2; stroke:black; stroke-dasharray:none;" />
      <line x1="0" y1="1" x2="1" y2="0" style="stroke-width:0.2; stroke:black; stroke-dasharray:none;" />
    </pattern>
    <pattern id="revside-fill-e0e0e0" x="1" y="1" width="1.5" height="1.5" patternUnits="userSpaceOnUse">
      <line x1="0" y1="0" x2="1.5" y2="1.5" style="stroke-width:0.2; stroke:#e0e0e0; stroke-dasharray:none;" />
      <line x1="0" y1="1.5" x2="1.5" y2="0" style="stroke-width:0.2; stroke:#e0e0e0; stroke-dasharray:none;" />
    </pattern>
  </defs>
<g transform="scale(1,-1) translate(0, -128.400)" 
   fill-rule="evenodd"
   style="stroke-linecap:round; stroke-linejoin:round; stroke-opacity:1.0; stroke-opacity:1.0;">
<path d="M39.800 128.400 
L0.500 128.400
A0.500,0.500 0 0,1 0.000,127.900
L0.000 0.500
A0.500,0.500 0 0,1 0.500,0.000
L39.800 0.000
A0.500,0.500 0 0,1 40.300,0.500
L40.300 127.900
A0.500,0.500 0 0,1 39.800,128.400z"
fill="#cccccc" vector-effect="non-scaling-stroke" stroke="#000000" stroke-width="0.100mm" />
<rect x="4.700" y="123.800" width="5.600" height="3.200" rx="1.600"
fill="#ffffff" vector-effect="non-scaling-stroke" stroke="#000000" stroke-width="0.100mm" 
/>
<rect x="4.700" y="1.400" width="5.600" height="3.200" rx="1.600"
fill="#ffffff" vector-effect="non-scaling-stroke" stroke="#000000" stroke-width="0.100mm" 
/>
<circle cx="9.335" cy="19.780" r="3.750"
fill="#ffffff" vector-effect="non-scaling-stroke" stroke="#000000" stroke-width="0.100mm" 
/>
<circle cx="30.900" cy="19.780" r="3.750"
fill="#ffffff" vector-effect="non-scaling-stroke" stroke="#000000" stroke-width="0.100mm" 
/>
<circle cx="10.617" cy="106.145" r="3.450"
fill="#ffffff" vector-effect="non-scaling-stroke" stroke="#000000" stroke-width="0.100mm" 
/>
<circle cx="29.656" cy="95.958" r="3.450"
fill="#ffffff" vector-effect="non-scaling-stroke" stroke="#000000" stroke-width="0.100mm" 
/>
<circle cx="29.660" cy="52.800" r="3.450"
fill="#ffffff" vector-effect="non-scaling-stroke" stroke="#000000" stroke-width="0.100mm" 
/>
<circle cx="10.620" cy="42.640" r="3.450"
fill="#ffffff" vector-effect="non-scaling-stroke" stroke="#000000" stroke-width="0.100mm" 
/>
<circle cx="20.150" cy="73.023" r="3.750"
fill="#ffffff" vector-effect="non-scaling-stroke" stroke="#000000" stroke-width="0.100mm" 
/>
<path d="M39.800 128.400 
L0.500 128.400
A0.500,0.500 0 0,1 0.000,127.900
L0.000 0.500
A0.500,0.500 0 0,1 0.500,0.000
L39.800 0.000
A0.500,0.500 0 0,1 40.300,0.500
L40.300 127.900
A0.500,0.500 0 0,1 39.800,128.400"
fill="none" vector-effect="non-scaling-stroke" stroke="#000000" stroke-width="0.100mm" />
<path d="M-1.000 0.000 L1.000 0.000
M0.000 -1.000 L0.000 1.000"
fill="none" vector-effect="non-scaling-stroke" stroke="#ff0000" stroke-width="0.100mm" />
<path d="M6.500 125.400 L8.500 125.400
M7.500 124.400 L7.500 126.400"
fill="none" vector-effect="non-scaling-stroke" stroke="#ff0000" stroke-width="0.100mm" />
<path d="M6.500 3.000 L8.500 3.000
M7.500 2.000 L7.500 4.000"
fill="none" vector-effect="non-scaling-stroke" stroke="#ff0000" stroke-width="0.100mm" />
<path d="M8.335 19.780 L10.335 19.780
M9.335 18.780 L9.335 20.780"
fill="none" vector-effect="non-scaling-stroke" stroke="#ff0000" stroke-width="0.100mm" />
<path d="M29.900 19.780 L31.900 19.780
M30.900 18.780 L30.900 20.780"
fill="none" vector-effect="non-scaling-stroke" stroke="#ff0000" stroke-width="0.100mm" />
<path d="M9.617 106.145 L11.617 106.145
M10.617 105.145 L10.617 107.145"
fill="none" vector-effect="non-scaling-stroke" stroke="#ff0000" stroke-width="0.100mm" />
<path d="M28.656 95.958 L30.656 95.958
M29.656 94.958 L29.656 96.958"
fill="none" vector-effect="non-scaling-stroke" stroke="#ff0000" stroke-width="0.100mm" />
<path d="M28.660 52.800 L30.660 52.800
M29.660 51.800 L29.660 53.800"
fill="none" vector-effect="non-scaling-stroke" stroke="#ff0000" stroke-width="0.100mm" />
<path d="M9.620 42.640 L11.620 42.640
M10.620 41.640 L10.620 43.640"
fill="none" vector-effect="non-scaling-stroke" stroke="#ff0000" stroke-width="0.100mm" />
<path d="M19.150 73.023 L21.150 73.023
M20.150 72.023 L20.150 74.023"
fill="none" vector-effect="non-scaling-stroke" stroke="#ff0000" stroke-width="0.100mm" />
</g>
</svg>
