M48
;DRILL file {KiCad (5.0.0)} date 08/20/18 22:19:11
;FORMAT={-:-/ absolute / inch / decimal}
FMAT,2
INCH,TZ
T1C0.0315
T2C0.0354
T3C0.0433
T4C0.0826
%
G90
G05
M72
T1
X0.6496Y-0.0492
X0.0622Y-0.4331
X1.3858Y-0.5669
X1.3858Y-0.7638
X1.1331Y-0.4016
X1.4331Y-0.4016
X0.637Y-0.3386
X0.937Y-0.3386
X0.5315Y-0.0492
X0.3622Y-0.4331
T2
X0.5594Y-0.8071
X0.6594Y-0.8071
X0.7169Y-0.1772
X0.8169Y-0.1772
T3
X0.0591Y-0.1772
X0.3936Y-0.1772
X0.5118Y-0.1772
X0.9843Y-0.1772
X1.1025Y-0.1772
X1.437Y-0.1772
X0.0591Y-0.689
X0.3936Y-0.689
X0.5118Y-0.689
X0.7481Y-0.5315
X0.7481Y-0.6299
X0.7481Y-0.7283
T4
X1.0236Y-0.4528
X1.0236Y-0.807
T0
M30
