G04 #@! TF.GenerationSoftware,KiCad,Pcbnew,(5.0.0)*
G04 #@! TF.CreationDate,2018-08-20T22:19:09+02:00*
G04 #@! TF.ProjectId,1u_lpg,31755F6C70672E6B696361645F706362,rev?*
G04 #@! TF.SameCoordinates,Original*
G04 #@! TF.FileFunction,Copper,L2,Bot,Signal*
G04 #@! TF.FilePolarity,Positive*
%FSLAX46Y46*%
G04 Gerber Fmt 4.6, Leading zero omitted, Abs format (unit mm)*
G04 Created by KiCad (PCBNEW (5.0.0)) date 08/20/18 22:19:09*
%MOMM*%
%LPD*%
G01*
G04 APERTURE LIST*
G04 #@! TA.AperFunction,ComponentPad*
%ADD10C,1.800000*%
G04 #@! TD*
G04 #@! TA.AperFunction,ComponentPad*
%ADD11R,1.800000X1.800000*%
G04 #@! TD*
G04 #@! TA.AperFunction,ComponentPad*
%ADD12C,1.648460*%
G04 #@! TD*
G04 #@! TA.AperFunction,ComponentPad*
%ADD13C,1.600000*%
G04 #@! TD*
G04 #@! TA.AperFunction,ComponentPad*
%ADD14R,1.648460X1.648460*%
G04 #@! TD*
G04 #@! TA.AperFunction,ComponentPad*
%ADD15C,2.794000*%
G04 #@! TD*
G04 #@! TA.AperFunction,ComponentPad*
%ADD16O,1.600000X1.600000*%
G04 #@! TD*
G04 #@! TA.AperFunction,Conductor*
%ADD17C,0.250000*%
G04 #@! TD*
G04 #@! TA.AperFunction,Conductor*
%ADD18C,0.254000*%
G04 #@! TD*
G04 APERTURE END LIST*
D10*
G04 #@! TO.P,D1,2*
G04 #@! TO.N,Net-(D1-Pad2)*
X20750000Y-4500000D03*
D11*
G04 #@! TO.P,D1,1*
G04 #@! TO.N,GND*
X18210000Y-4500000D03*
G04 #@! TD*
D10*
G04 #@! TO.P,D2,2*
G04 #@! TO.N,Net-(D2-Pad2)*
X16750000Y-20500000D03*
D11*
G04 #@! TO.P,D2,1*
G04 #@! TO.N,GND*
X14210000Y-20500000D03*
G04 #@! TD*
D12*
G04 #@! TO.P,J_CV_1,P$1_TIP*
G04 #@! TO.N,Net-(J_CV_1-PadP$1_TIP)*
X1501280Y-17500000D03*
G04 #@! TO.P,J_CV_1,P$2_SWITCH*
G04 #@! TO.N,N/C*
X9997580Y-17500000D03*
G04 #@! TO.P,J_CV_1,P$3_SLEEVE*
G04 #@! TO.N,GND*
X12999860Y-17500000D03*
G04 #@! TD*
G04 #@! TO.P,J_IN_1,P$3_SLEEVE*
G04 #@! TO.N,GND*
X12999860Y-4500000D03*
G04 #@! TO.P,J_IN_1,P$2_SWITCH*
G04 #@! TO.N,N/C*
X9997580Y-4500000D03*
G04 #@! TO.P,J_IN_1,P$1_TIP*
G04 #@! TO.N,Net-(J_IN_1-PadP$1_TIP)*
X1501280Y-4500000D03*
G04 #@! TD*
G04 #@! TO.P,J_OUT_1,P$1_TIP*
G04 #@! TO.N,Net-(J_OUT_1-PadP$1_TIP)*
X36498720Y-4500000D03*
G04 #@! TO.P,J_OUT_1,P$2_SWITCH*
G04 #@! TO.N,N/C*
X28002420Y-4500000D03*
G04 #@! TO.P,J_OUT_1,P$3_SLEEVE*
G04 #@! TO.N,GND*
X25000140Y-4500000D03*
G04 #@! TD*
D13*
G04 #@! TO.P,VAC-PHOTO1,2*
G04 #@! TO.N,Net-(C1-Pad1)*
X16500000Y-1250000D03*
G04 #@! TO.P,VAC-PHOTO1,1*
G04 #@! TO.N,Net-(J_IN_1-PadP$1_TIP)*
X13500000Y-1250000D03*
G04 #@! TD*
D14*
G04 #@! TO.P,RV1,1*
G04 #@! TO.N,GND*
X19002300Y-13500640D03*
D12*
G04 #@! TO.P,RV1,2*
G04 #@! TO.N,Net-(C1-Pad2)*
X19002300Y-16000000D03*
G04 #@! TO.P,RV1,3*
G04 #@! TO.N,N/C*
X19002300Y-18499360D03*
D15*
G04 #@! TO.P,RV1,CHASSIS1*
X26000000Y-11501660D03*
G04 #@! TO.P,RV1,CHASSIS2*
X26000000Y-20498340D03*
G04 #@! TD*
D13*
G04 #@! TO.P,C1,2*
G04 #@! TO.N,Net-(C1-Pad2)*
X35200000Y-19400000D03*
G04 #@! TO.P,C1,1*
G04 #@! TO.N,Net-(C1-Pad1)*
X35200000Y-14400000D03*
G04 #@! TD*
G04 #@! TO.P,R_LED_1,1*
G04 #@! TO.N,Net-(D2-Pad2)*
X9200000Y-11000000D03*
D16*
G04 #@! TO.P,R_LED_1,2*
G04 #@! TO.N,Net-(J_CV_1-PadP$1_TIP)*
X1580000Y-11000000D03*
G04 #@! TD*
D13*
G04 #@! TO.P,R_OUT_1,1*
G04 #@! TO.N,Net-(C1-Pad1)*
X28780000Y-10200000D03*
D16*
G04 #@! TO.P,R_OUT_1,2*
G04 #@! TO.N,Net-(J_OUT_1-PadP$1_TIP)*
X36400000Y-10200000D03*
G04 #@! TD*
G04 #@! TO.P,R_VAC_1,2*
G04 #@! TO.N,Net-(J_CV_1-PadP$1_TIP)*
X23800000Y-8600000D03*
D13*
G04 #@! TO.P,R_VAC_1,1*
G04 #@! TO.N,Net-(D1-Pad2)*
X16180000Y-8600000D03*
G04 #@! TD*
D17*
G04 #@! TO.N,Net-(D1-Pad2)*
X19850001Y-5399999D02*
X20750000Y-4500000D01*
X17449999Y-7800001D02*
X19850001Y-5399999D01*
X16979999Y-7800001D02*
X17449999Y-7800001D01*
X16180000Y-8600000D02*
X16979999Y-7800001D01*
G04 #@! TO.N,Net-(J_CV_1-PadP$1_TIP)*
X23000001Y-9399999D02*
X23800000Y-8600000D01*
X22674999Y-9725001D02*
X23000001Y-9399999D01*
X2854999Y-9725001D02*
X22674999Y-9725001D01*
X1580000Y-11000000D02*
X2854999Y-9725001D01*
G04 #@! TD*
D18*
G04 #@! TO.N,GND*
G36*
X12065000Y-964561D02*
X12065000Y-1535439D01*
X12283466Y-2062862D01*
X12687138Y-2466534D01*
X13214561Y-2685000D01*
X13785439Y-2685000D01*
X14312862Y-2466534D01*
X14716534Y-2062862D01*
X14935000Y-1535439D01*
X14935000Y-964561D01*
X14839913Y-735000D01*
X15160087Y-735000D01*
X15065000Y-964561D01*
X15065000Y-1535439D01*
X15283466Y-2062862D01*
X15687138Y-2466534D01*
X16214561Y-2685000D01*
X16785439Y-2685000D01*
X17312862Y-2466534D01*
X17716534Y-2062862D01*
X17935000Y-1535439D01*
X17935000Y-964561D01*
X17839913Y-735000D01*
X37265001Y-735000D01*
X37265001Y-3237945D01*
X36788979Y-3040770D01*
X36208461Y-3040770D01*
X35672133Y-3262925D01*
X35261645Y-3673413D01*
X35039490Y-4209741D01*
X35039490Y-4790259D01*
X35261645Y-5326587D01*
X35672133Y-5737075D01*
X36208461Y-5959230D01*
X36788979Y-5959230D01*
X37265001Y-5762055D01*
X37265001Y-9052116D01*
X36959909Y-8848260D01*
X36541333Y-8765000D01*
X36258667Y-8765000D01*
X35840091Y-8848260D01*
X35365423Y-9165423D01*
X35048260Y-9640091D01*
X34936887Y-10200000D01*
X35048260Y-10759909D01*
X35365423Y-11234577D01*
X35840091Y-11551740D01*
X36258667Y-11635000D01*
X36541333Y-11635000D01*
X36959909Y-11551740D01*
X37265000Y-11347884D01*
X37265000Y-21265000D01*
X27881860Y-21265000D01*
X28032000Y-20902530D01*
X28032000Y-20094150D01*
X27722646Y-19347305D01*
X27489902Y-19114561D01*
X33765000Y-19114561D01*
X33765000Y-19685439D01*
X33983466Y-20212862D01*
X34387138Y-20616534D01*
X34914561Y-20835000D01*
X35485439Y-20835000D01*
X36012862Y-20616534D01*
X36416534Y-20212862D01*
X36635000Y-19685439D01*
X36635000Y-19114561D01*
X36416534Y-18587138D01*
X36012862Y-18183466D01*
X35485439Y-17965000D01*
X34914561Y-17965000D01*
X34387138Y-18183466D01*
X33983466Y-18587138D01*
X33765000Y-19114561D01*
X27489902Y-19114561D01*
X27151035Y-18775694D01*
X26404190Y-18466340D01*
X25595810Y-18466340D01*
X24848965Y-18775694D01*
X24277354Y-19347305D01*
X23968000Y-20094150D01*
X23968000Y-20902530D01*
X24118140Y-21265000D01*
X18094598Y-21265000D01*
X18285000Y-20805330D01*
X18285000Y-20194670D01*
X18051310Y-19630493D01*
X17619507Y-19198690D01*
X17055330Y-18965000D01*
X16444670Y-18965000D01*
X15880493Y-19198690D01*
X15704139Y-19375044D01*
X15648327Y-19240301D01*
X15469698Y-19061673D01*
X15236309Y-18965000D01*
X14495750Y-18965000D01*
X14337000Y-19123750D01*
X14337000Y-20373000D01*
X14357000Y-20373000D01*
X14357000Y-20627000D01*
X14337000Y-20627000D01*
X14337000Y-20647000D01*
X14083000Y-20647000D01*
X14083000Y-20627000D01*
X12833750Y-20627000D01*
X12675000Y-20785750D01*
X12675000Y-21265000D01*
X735000Y-21265000D01*
X735000Y-18762055D01*
X1211021Y-18959230D01*
X1791539Y-18959230D01*
X2327867Y-18737075D01*
X2738355Y-18326587D01*
X2960510Y-17790259D01*
X2960510Y-17209741D01*
X2896593Y-17055431D01*
X4265000Y-17055431D01*
X4265000Y-17944569D01*
X4605259Y-18766026D01*
X5233974Y-19394741D01*
X6055431Y-19735000D01*
X6944569Y-19735000D01*
X7575426Y-19473690D01*
X12675000Y-19473690D01*
X12675000Y-20214250D01*
X12833750Y-20373000D01*
X14083000Y-20373000D01*
X14083000Y-19123750D01*
X13924250Y-18965000D01*
X13183691Y-18965000D01*
X12950302Y-19061673D01*
X12771673Y-19240301D01*
X12675000Y-19473690D01*
X7575426Y-19473690D01*
X7766026Y-19394741D01*
X8394741Y-18766026D01*
X8668634Y-18104791D01*
X8760505Y-18326587D01*
X9170993Y-18737075D01*
X9707321Y-18959230D01*
X10287839Y-18959230D01*
X10824167Y-18737075D01*
X11035947Y-18525295D01*
X12154170Y-18525295D01*
X12231279Y-18773926D01*
X12777295Y-18971077D01*
X13357194Y-18944270D01*
X13768441Y-18773926D01*
X13845550Y-18525295D01*
X12999860Y-17679605D01*
X12154170Y-18525295D01*
X11035947Y-18525295D01*
X11234655Y-18326587D01*
X11456810Y-17790259D01*
X11456810Y-17277435D01*
X11528783Y-17277435D01*
X11555590Y-17857334D01*
X11725934Y-18268581D01*
X11974565Y-18345690D01*
X12820255Y-17500000D01*
X13179465Y-17500000D01*
X14025155Y-18345690D01*
X14273786Y-18268581D01*
X14470937Y-17722565D01*
X14444130Y-17142666D01*
X14273786Y-16731419D01*
X14025155Y-16654310D01*
X13179465Y-17500000D01*
X12820255Y-17500000D01*
X11974565Y-16654310D01*
X11725934Y-16731419D01*
X11528783Y-17277435D01*
X11456810Y-17277435D01*
X11456810Y-17209741D01*
X11234655Y-16673413D01*
X11035947Y-16474705D01*
X12154170Y-16474705D01*
X12999860Y-17320395D01*
X13845550Y-16474705D01*
X13768441Y-16226074D01*
X13222425Y-16028923D01*
X12642526Y-16055730D01*
X12231279Y-16226074D01*
X12154170Y-16474705D01*
X11035947Y-16474705D01*
X10824167Y-16262925D01*
X10287839Y-16040770D01*
X9707321Y-16040770D01*
X9170993Y-16262925D01*
X8760505Y-16673413D01*
X8668634Y-16895209D01*
X8394741Y-16233974D01*
X7766026Y-15605259D01*
X6944569Y-15265000D01*
X6055431Y-15265000D01*
X5233974Y-15605259D01*
X4605259Y-16233974D01*
X4265000Y-17055431D01*
X2896593Y-17055431D01*
X2738355Y-16673413D01*
X2327867Y-16262925D01*
X1791539Y-16040770D01*
X1211021Y-16040770D01*
X735000Y-16237945D01*
X735000Y-13786390D01*
X17543070Y-13786390D01*
X17543070Y-14451179D01*
X17639743Y-14684568D01*
X17818371Y-14863197D01*
X18000147Y-14938491D01*
X17765225Y-15173413D01*
X17543070Y-15709741D01*
X17543070Y-16290259D01*
X17765225Y-16826587D01*
X18175713Y-17237075D01*
X18206144Y-17249680D01*
X18175713Y-17262285D01*
X17765225Y-17672773D01*
X17543070Y-18209101D01*
X17543070Y-18789619D01*
X17765225Y-19325947D01*
X18175713Y-19736435D01*
X18712041Y-19958590D01*
X19292559Y-19958590D01*
X19828887Y-19736435D01*
X20239375Y-19325947D01*
X20461530Y-18789619D01*
X20461530Y-18209101D01*
X20239375Y-17672773D01*
X19828887Y-17262285D01*
X19798456Y-17249680D01*
X19828887Y-17237075D01*
X20239375Y-16826587D01*
X20461530Y-16290259D01*
X20461530Y-15709741D01*
X20239375Y-15173413D01*
X20004453Y-14938491D01*
X20186229Y-14863197D01*
X20364857Y-14684568D01*
X20461530Y-14451179D01*
X20461530Y-14114561D01*
X33765000Y-14114561D01*
X33765000Y-14685439D01*
X33983466Y-15212862D01*
X34387138Y-15616534D01*
X34914561Y-15835000D01*
X35485439Y-15835000D01*
X36012862Y-15616534D01*
X36416534Y-15212862D01*
X36635000Y-14685439D01*
X36635000Y-14114561D01*
X36416534Y-13587138D01*
X36012862Y-13183466D01*
X35485439Y-12965000D01*
X34914561Y-12965000D01*
X34387138Y-13183466D01*
X33983466Y-13587138D01*
X33765000Y-14114561D01*
X20461530Y-14114561D01*
X20461530Y-13786390D01*
X20302780Y-13627640D01*
X19129300Y-13627640D01*
X19129300Y-13647640D01*
X18875300Y-13647640D01*
X18875300Y-13627640D01*
X17701820Y-13627640D01*
X17543070Y-13786390D01*
X735000Y-13786390D01*
X735000Y-12550101D01*
X17543070Y-12550101D01*
X17543070Y-13214890D01*
X17701820Y-13373640D01*
X18875300Y-13373640D01*
X18875300Y-12200160D01*
X19129300Y-12200160D01*
X19129300Y-13373640D01*
X20302780Y-13373640D01*
X20461530Y-13214890D01*
X20461530Y-12550101D01*
X20364857Y-12316712D01*
X20186229Y-12138083D01*
X19952840Y-12041410D01*
X19288050Y-12041410D01*
X19129300Y-12200160D01*
X18875300Y-12200160D01*
X18716550Y-12041410D01*
X18051760Y-12041410D01*
X17818371Y-12138083D01*
X17639743Y-12316712D01*
X17543070Y-12550101D01*
X735000Y-12550101D01*
X735000Y-12161248D01*
X1020091Y-12351740D01*
X1438667Y-12435000D01*
X1721333Y-12435000D01*
X2139909Y-12351740D01*
X2614577Y-12034577D01*
X2931740Y-11559909D01*
X3043113Y-11000000D01*
X2978688Y-10676114D01*
X3169801Y-10485001D01*
X7860087Y-10485001D01*
X7765000Y-10714561D01*
X7765000Y-11285439D01*
X7983466Y-11812862D01*
X8387138Y-12216534D01*
X8914561Y-12435000D01*
X9485439Y-12435000D01*
X10012862Y-12216534D01*
X10416534Y-11812862D01*
X10635000Y-11285439D01*
X10635000Y-11097470D01*
X23968000Y-11097470D01*
X23968000Y-11905850D01*
X24277354Y-12652695D01*
X24848965Y-13224306D01*
X25595810Y-13533660D01*
X26404190Y-13533660D01*
X27151035Y-13224306D01*
X27722646Y-12652695D01*
X28032000Y-11905850D01*
X28032000Y-11443401D01*
X28494561Y-11635000D01*
X29065439Y-11635000D01*
X29592862Y-11416534D01*
X29996534Y-11012862D01*
X30215000Y-10485439D01*
X30215000Y-9914561D01*
X29996534Y-9387138D01*
X29592862Y-8983466D01*
X29065439Y-8765000D01*
X28494561Y-8765000D01*
X27967138Y-8983466D01*
X27563466Y-9387138D01*
X27345000Y-9914561D01*
X27345000Y-9972979D01*
X27151035Y-9779014D01*
X26404190Y-9469660D01*
X25595810Y-9469660D01*
X24848965Y-9779014D01*
X24277354Y-10350625D01*
X23968000Y-11097470D01*
X10635000Y-11097470D01*
X10635000Y-10714561D01*
X10539913Y-10485001D01*
X22600152Y-10485001D01*
X22674999Y-10499889D01*
X22749846Y-10485001D01*
X22749851Y-10485001D01*
X22971536Y-10440905D01*
X23222928Y-10272930D01*
X23265330Y-10209471D01*
X23476113Y-9998688D01*
X23658667Y-10035000D01*
X23941333Y-10035000D01*
X24359909Y-9951740D01*
X24834577Y-9634577D01*
X25151740Y-9159909D01*
X25263113Y-8600000D01*
X25151740Y-8040091D01*
X24834577Y-7565423D01*
X24359909Y-7248260D01*
X23941333Y-7165000D01*
X23658667Y-7165000D01*
X23240091Y-7248260D01*
X22765423Y-7565423D01*
X22448260Y-8040091D01*
X22336887Y-8600000D01*
X22401312Y-8923887D01*
X22360198Y-8965001D01*
X17582044Y-8965001D01*
X17615000Y-8885439D01*
X17615000Y-8542069D01*
X17746536Y-8515905D01*
X17997928Y-8347930D01*
X18040330Y-8284471D01*
X20335162Y-5989640D01*
X20444670Y-6035000D01*
X21055330Y-6035000D01*
X21619507Y-5801310D01*
X21895522Y-5525295D01*
X24154450Y-5525295D01*
X24231559Y-5773926D01*
X24777575Y-5971077D01*
X25357474Y-5944270D01*
X25768721Y-5773926D01*
X25845830Y-5525295D01*
X25000140Y-4679605D01*
X24154450Y-5525295D01*
X21895522Y-5525295D01*
X22051310Y-5369507D01*
X22285000Y-4805330D01*
X22285000Y-4277435D01*
X23529063Y-4277435D01*
X23555870Y-4857334D01*
X23726214Y-5268581D01*
X23974845Y-5345690D01*
X24820535Y-4500000D01*
X25179745Y-4500000D01*
X26025435Y-5345690D01*
X26274066Y-5268581D01*
X26471217Y-4722565D01*
X26447511Y-4209741D01*
X26543190Y-4209741D01*
X26543190Y-4790259D01*
X26765345Y-5326587D01*
X27175833Y-5737075D01*
X27712161Y-5959230D01*
X28292679Y-5959230D01*
X28829007Y-5737075D01*
X29239495Y-5326587D01*
X29331366Y-5104791D01*
X29605259Y-5766026D01*
X30233974Y-6394741D01*
X31055431Y-6735000D01*
X31944569Y-6735000D01*
X32766026Y-6394741D01*
X33394741Y-5766026D01*
X33735000Y-4944569D01*
X33735000Y-4055431D01*
X33394741Y-3233974D01*
X32766026Y-2605259D01*
X31944569Y-2265000D01*
X31055431Y-2265000D01*
X30233974Y-2605259D01*
X29605259Y-3233974D01*
X29331366Y-3895209D01*
X29239495Y-3673413D01*
X28829007Y-3262925D01*
X28292679Y-3040770D01*
X27712161Y-3040770D01*
X27175833Y-3262925D01*
X26765345Y-3673413D01*
X26543190Y-4209741D01*
X26447511Y-4209741D01*
X26444410Y-4142666D01*
X26274066Y-3731419D01*
X26025435Y-3654310D01*
X25179745Y-4500000D01*
X24820535Y-4500000D01*
X23974845Y-3654310D01*
X23726214Y-3731419D01*
X23529063Y-4277435D01*
X22285000Y-4277435D01*
X22285000Y-4194670D01*
X22051310Y-3630493D01*
X21895522Y-3474705D01*
X24154450Y-3474705D01*
X25000140Y-4320395D01*
X25845830Y-3474705D01*
X25768721Y-3226074D01*
X25222705Y-3028923D01*
X24642806Y-3055730D01*
X24231559Y-3226074D01*
X24154450Y-3474705D01*
X21895522Y-3474705D01*
X21619507Y-3198690D01*
X21055330Y-2965000D01*
X20444670Y-2965000D01*
X19880493Y-3198690D01*
X19704139Y-3375044D01*
X19648327Y-3240301D01*
X19469698Y-3061673D01*
X19236309Y-2965000D01*
X18495750Y-2965000D01*
X18337000Y-3123750D01*
X18337000Y-4373000D01*
X18357000Y-4373000D01*
X18357000Y-4627000D01*
X18337000Y-4627000D01*
X18337000Y-4647000D01*
X18083000Y-4647000D01*
X18083000Y-4627000D01*
X16833750Y-4627000D01*
X16675000Y-4785750D01*
X16675000Y-5526310D01*
X16771673Y-5759699D01*
X16950302Y-5938327D01*
X17183691Y-6035000D01*
X17924250Y-6035000D01*
X18082998Y-5876252D01*
X18082998Y-6035000D01*
X18140198Y-6035000D01*
X17135198Y-7040001D01*
X17054845Y-7040001D01*
X16979998Y-7025113D01*
X16905151Y-7040001D01*
X16905147Y-7040001D01*
X16683462Y-7084097D01*
X16683460Y-7084098D01*
X16683461Y-7084098D01*
X16525283Y-7189788D01*
X16465439Y-7165000D01*
X15894561Y-7165000D01*
X15367138Y-7383466D01*
X14963466Y-7787138D01*
X14745000Y-8314561D01*
X14745000Y-8885439D01*
X14777956Y-8965001D01*
X2929846Y-8965001D01*
X2854999Y-8950113D01*
X2780152Y-8965001D01*
X2780147Y-8965001D01*
X2558462Y-9009097D01*
X2307070Y-9177072D01*
X2264670Y-9240528D01*
X1903886Y-9601312D01*
X1721333Y-9565000D01*
X1438667Y-9565000D01*
X1020091Y-9648260D01*
X735000Y-9838752D01*
X735000Y-5762055D01*
X1211021Y-5959230D01*
X1791539Y-5959230D01*
X2327867Y-5737075D01*
X2738355Y-5326587D01*
X2960510Y-4790259D01*
X2960510Y-4209741D01*
X2896593Y-4055431D01*
X4265000Y-4055431D01*
X4265000Y-4944569D01*
X4605259Y-5766026D01*
X5233974Y-6394741D01*
X6055431Y-6735000D01*
X6944569Y-6735000D01*
X7766026Y-6394741D01*
X8394741Y-5766026D01*
X8668634Y-5104791D01*
X8760505Y-5326587D01*
X9170993Y-5737075D01*
X9707321Y-5959230D01*
X10287839Y-5959230D01*
X10824167Y-5737075D01*
X11035947Y-5525295D01*
X12154170Y-5525295D01*
X12231279Y-5773926D01*
X12777295Y-5971077D01*
X13357194Y-5944270D01*
X13768441Y-5773926D01*
X13845550Y-5525295D01*
X12999860Y-4679605D01*
X12154170Y-5525295D01*
X11035947Y-5525295D01*
X11234655Y-5326587D01*
X11456810Y-4790259D01*
X11456810Y-4277435D01*
X11528783Y-4277435D01*
X11555590Y-4857334D01*
X11725934Y-5268581D01*
X11974565Y-5345690D01*
X12820255Y-4500000D01*
X13179465Y-4500000D01*
X14025155Y-5345690D01*
X14273786Y-5268581D01*
X14470937Y-4722565D01*
X14444130Y-4142666D01*
X14273786Y-3731419D01*
X14025155Y-3654310D01*
X13179465Y-4500000D01*
X12820255Y-4500000D01*
X11974565Y-3654310D01*
X11725934Y-3731419D01*
X11528783Y-4277435D01*
X11456810Y-4277435D01*
X11456810Y-4209741D01*
X11234655Y-3673413D01*
X11035947Y-3474705D01*
X12154170Y-3474705D01*
X12999860Y-4320395D01*
X13845550Y-3474705D01*
X13845236Y-3473690D01*
X16675000Y-3473690D01*
X16675000Y-4214250D01*
X16833750Y-4373000D01*
X18083000Y-4373000D01*
X18083000Y-3123750D01*
X17924250Y-2965000D01*
X17183691Y-2965000D01*
X16950302Y-3061673D01*
X16771673Y-3240301D01*
X16675000Y-3473690D01*
X13845236Y-3473690D01*
X13768441Y-3226074D01*
X13222425Y-3028923D01*
X12642526Y-3055730D01*
X12231279Y-3226074D01*
X12154170Y-3474705D01*
X11035947Y-3474705D01*
X10824167Y-3262925D01*
X10287839Y-3040770D01*
X9707321Y-3040770D01*
X9170993Y-3262925D01*
X8760505Y-3673413D01*
X8668634Y-3895209D01*
X8394741Y-3233974D01*
X7766026Y-2605259D01*
X6944569Y-2265000D01*
X6055431Y-2265000D01*
X5233974Y-2605259D01*
X4605259Y-3233974D01*
X4265000Y-4055431D01*
X2896593Y-4055431D01*
X2738355Y-3673413D01*
X2327867Y-3262925D01*
X1791539Y-3040770D01*
X1211021Y-3040770D01*
X735000Y-3237945D01*
X735000Y-735000D01*
X12160087Y-735000D01*
X12065000Y-964561D01*
X12065000Y-964561D01*
G37*
X12065000Y-964561D02*
X12065000Y-1535439D01*
X12283466Y-2062862D01*
X12687138Y-2466534D01*
X13214561Y-2685000D01*
X13785439Y-2685000D01*
X14312862Y-2466534D01*
X14716534Y-2062862D01*
X14935000Y-1535439D01*
X14935000Y-964561D01*
X14839913Y-735000D01*
X15160087Y-735000D01*
X15065000Y-964561D01*
X15065000Y-1535439D01*
X15283466Y-2062862D01*
X15687138Y-2466534D01*
X16214561Y-2685000D01*
X16785439Y-2685000D01*
X17312862Y-2466534D01*
X17716534Y-2062862D01*
X17935000Y-1535439D01*
X17935000Y-964561D01*
X17839913Y-735000D01*
X37265001Y-735000D01*
X37265001Y-3237945D01*
X36788979Y-3040770D01*
X36208461Y-3040770D01*
X35672133Y-3262925D01*
X35261645Y-3673413D01*
X35039490Y-4209741D01*
X35039490Y-4790259D01*
X35261645Y-5326587D01*
X35672133Y-5737075D01*
X36208461Y-5959230D01*
X36788979Y-5959230D01*
X37265001Y-5762055D01*
X37265001Y-9052116D01*
X36959909Y-8848260D01*
X36541333Y-8765000D01*
X36258667Y-8765000D01*
X35840091Y-8848260D01*
X35365423Y-9165423D01*
X35048260Y-9640091D01*
X34936887Y-10200000D01*
X35048260Y-10759909D01*
X35365423Y-11234577D01*
X35840091Y-11551740D01*
X36258667Y-11635000D01*
X36541333Y-11635000D01*
X36959909Y-11551740D01*
X37265000Y-11347884D01*
X37265000Y-21265000D01*
X27881860Y-21265000D01*
X28032000Y-20902530D01*
X28032000Y-20094150D01*
X27722646Y-19347305D01*
X27489902Y-19114561D01*
X33765000Y-19114561D01*
X33765000Y-19685439D01*
X33983466Y-20212862D01*
X34387138Y-20616534D01*
X34914561Y-20835000D01*
X35485439Y-20835000D01*
X36012862Y-20616534D01*
X36416534Y-20212862D01*
X36635000Y-19685439D01*
X36635000Y-19114561D01*
X36416534Y-18587138D01*
X36012862Y-18183466D01*
X35485439Y-17965000D01*
X34914561Y-17965000D01*
X34387138Y-18183466D01*
X33983466Y-18587138D01*
X33765000Y-19114561D01*
X27489902Y-19114561D01*
X27151035Y-18775694D01*
X26404190Y-18466340D01*
X25595810Y-18466340D01*
X24848965Y-18775694D01*
X24277354Y-19347305D01*
X23968000Y-20094150D01*
X23968000Y-20902530D01*
X24118140Y-21265000D01*
X18094598Y-21265000D01*
X18285000Y-20805330D01*
X18285000Y-20194670D01*
X18051310Y-19630493D01*
X17619507Y-19198690D01*
X17055330Y-18965000D01*
X16444670Y-18965000D01*
X15880493Y-19198690D01*
X15704139Y-19375044D01*
X15648327Y-19240301D01*
X15469698Y-19061673D01*
X15236309Y-18965000D01*
X14495750Y-18965000D01*
X14337000Y-19123750D01*
X14337000Y-20373000D01*
X14357000Y-20373000D01*
X14357000Y-20627000D01*
X14337000Y-20627000D01*
X14337000Y-20647000D01*
X14083000Y-20647000D01*
X14083000Y-20627000D01*
X12833750Y-20627000D01*
X12675000Y-20785750D01*
X12675000Y-21265000D01*
X735000Y-21265000D01*
X735000Y-18762055D01*
X1211021Y-18959230D01*
X1791539Y-18959230D01*
X2327867Y-18737075D01*
X2738355Y-18326587D01*
X2960510Y-17790259D01*
X2960510Y-17209741D01*
X2896593Y-17055431D01*
X4265000Y-17055431D01*
X4265000Y-17944569D01*
X4605259Y-18766026D01*
X5233974Y-19394741D01*
X6055431Y-19735000D01*
X6944569Y-19735000D01*
X7575426Y-19473690D01*
X12675000Y-19473690D01*
X12675000Y-20214250D01*
X12833750Y-20373000D01*
X14083000Y-20373000D01*
X14083000Y-19123750D01*
X13924250Y-18965000D01*
X13183691Y-18965000D01*
X12950302Y-19061673D01*
X12771673Y-19240301D01*
X12675000Y-19473690D01*
X7575426Y-19473690D01*
X7766026Y-19394741D01*
X8394741Y-18766026D01*
X8668634Y-18104791D01*
X8760505Y-18326587D01*
X9170993Y-18737075D01*
X9707321Y-18959230D01*
X10287839Y-18959230D01*
X10824167Y-18737075D01*
X11035947Y-18525295D01*
X12154170Y-18525295D01*
X12231279Y-18773926D01*
X12777295Y-18971077D01*
X13357194Y-18944270D01*
X13768441Y-18773926D01*
X13845550Y-18525295D01*
X12999860Y-17679605D01*
X12154170Y-18525295D01*
X11035947Y-18525295D01*
X11234655Y-18326587D01*
X11456810Y-17790259D01*
X11456810Y-17277435D01*
X11528783Y-17277435D01*
X11555590Y-17857334D01*
X11725934Y-18268581D01*
X11974565Y-18345690D01*
X12820255Y-17500000D01*
X13179465Y-17500000D01*
X14025155Y-18345690D01*
X14273786Y-18268581D01*
X14470937Y-17722565D01*
X14444130Y-17142666D01*
X14273786Y-16731419D01*
X14025155Y-16654310D01*
X13179465Y-17500000D01*
X12820255Y-17500000D01*
X11974565Y-16654310D01*
X11725934Y-16731419D01*
X11528783Y-17277435D01*
X11456810Y-17277435D01*
X11456810Y-17209741D01*
X11234655Y-16673413D01*
X11035947Y-16474705D01*
X12154170Y-16474705D01*
X12999860Y-17320395D01*
X13845550Y-16474705D01*
X13768441Y-16226074D01*
X13222425Y-16028923D01*
X12642526Y-16055730D01*
X12231279Y-16226074D01*
X12154170Y-16474705D01*
X11035947Y-16474705D01*
X10824167Y-16262925D01*
X10287839Y-16040770D01*
X9707321Y-16040770D01*
X9170993Y-16262925D01*
X8760505Y-16673413D01*
X8668634Y-16895209D01*
X8394741Y-16233974D01*
X7766026Y-15605259D01*
X6944569Y-15265000D01*
X6055431Y-15265000D01*
X5233974Y-15605259D01*
X4605259Y-16233974D01*
X4265000Y-17055431D01*
X2896593Y-17055431D01*
X2738355Y-16673413D01*
X2327867Y-16262925D01*
X1791539Y-16040770D01*
X1211021Y-16040770D01*
X735000Y-16237945D01*
X735000Y-13786390D01*
X17543070Y-13786390D01*
X17543070Y-14451179D01*
X17639743Y-14684568D01*
X17818371Y-14863197D01*
X18000147Y-14938491D01*
X17765225Y-15173413D01*
X17543070Y-15709741D01*
X17543070Y-16290259D01*
X17765225Y-16826587D01*
X18175713Y-17237075D01*
X18206144Y-17249680D01*
X18175713Y-17262285D01*
X17765225Y-17672773D01*
X17543070Y-18209101D01*
X17543070Y-18789619D01*
X17765225Y-19325947D01*
X18175713Y-19736435D01*
X18712041Y-19958590D01*
X19292559Y-19958590D01*
X19828887Y-19736435D01*
X20239375Y-19325947D01*
X20461530Y-18789619D01*
X20461530Y-18209101D01*
X20239375Y-17672773D01*
X19828887Y-17262285D01*
X19798456Y-17249680D01*
X19828887Y-17237075D01*
X20239375Y-16826587D01*
X20461530Y-16290259D01*
X20461530Y-15709741D01*
X20239375Y-15173413D01*
X20004453Y-14938491D01*
X20186229Y-14863197D01*
X20364857Y-14684568D01*
X20461530Y-14451179D01*
X20461530Y-14114561D01*
X33765000Y-14114561D01*
X33765000Y-14685439D01*
X33983466Y-15212862D01*
X34387138Y-15616534D01*
X34914561Y-15835000D01*
X35485439Y-15835000D01*
X36012862Y-15616534D01*
X36416534Y-15212862D01*
X36635000Y-14685439D01*
X36635000Y-14114561D01*
X36416534Y-13587138D01*
X36012862Y-13183466D01*
X35485439Y-12965000D01*
X34914561Y-12965000D01*
X34387138Y-13183466D01*
X33983466Y-13587138D01*
X33765000Y-14114561D01*
X20461530Y-14114561D01*
X20461530Y-13786390D01*
X20302780Y-13627640D01*
X19129300Y-13627640D01*
X19129300Y-13647640D01*
X18875300Y-13647640D01*
X18875300Y-13627640D01*
X17701820Y-13627640D01*
X17543070Y-13786390D01*
X735000Y-13786390D01*
X735000Y-12550101D01*
X17543070Y-12550101D01*
X17543070Y-13214890D01*
X17701820Y-13373640D01*
X18875300Y-13373640D01*
X18875300Y-12200160D01*
X19129300Y-12200160D01*
X19129300Y-13373640D01*
X20302780Y-13373640D01*
X20461530Y-13214890D01*
X20461530Y-12550101D01*
X20364857Y-12316712D01*
X20186229Y-12138083D01*
X19952840Y-12041410D01*
X19288050Y-12041410D01*
X19129300Y-12200160D01*
X18875300Y-12200160D01*
X18716550Y-12041410D01*
X18051760Y-12041410D01*
X17818371Y-12138083D01*
X17639743Y-12316712D01*
X17543070Y-12550101D01*
X735000Y-12550101D01*
X735000Y-12161248D01*
X1020091Y-12351740D01*
X1438667Y-12435000D01*
X1721333Y-12435000D01*
X2139909Y-12351740D01*
X2614577Y-12034577D01*
X2931740Y-11559909D01*
X3043113Y-11000000D01*
X2978688Y-10676114D01*
X3169801Y-10485001D01*
X7860087Y-10485001D01*
X7765000Y-10714561D01*
X7765000Y-11285439D01*
X7983466Y-11812862D01*
X8387138Y-12216534D01*
X8914561Y-12435000D01*
X9485439Y-12435000D01*
X10012862Y-12216534D01*
X10416534Y-11812862D01*
X10635000Y-11285439D01*
X10635000Y-11097470D01*
X23968000Y-11097470D01*
X23968000Y-11905850D01*
X24277354Y-12652695D01*
X24848965Y-13224306D01*
X25595810Y-13533660D01*
X26404190Y-13533660D01*
X27151035Y-13224306D01*
X27722646Y-12652695D01*
X28032000Y-11905850D01*
X28032000Y-11443401D01*
X28494561Y-11635000D01*
X29065439Y-11635000D01*
X29592862Y-11416534D01*
X29996534Y-11012862D01*
X30215000Y-10485439D01*
X30215000Y-9914561D01*
X29996534Y-9387138D01*
X29592862Y-8983466D01*
X29065439Y-8765000D01*
X28494561Y-8765000D01*
X27967138Y-8983466D01*
X27563466Y-9387138D01*
X27345000Y-9914561D01*
X27345000Y-9972979D01*
X27151035Y-9779014D01*
X26404190Y-9469660D01*
X25595810Y-9469660D01*
X24848965Y-9779014D01*
X24277354Y-10350625D01*
X23968000Y-11097470D01*
X10635000Y-11097470D01*
X10635000Y-10714561D01*
X10539913Y-10485001D01*
X22600152Y-10485001D01*
X22674999Y-10499889D01*
X22749846Y-10485001D01*
X22749851Y-10485001D01*
X22971536Y-10440905D01*
X23222928Y-10272930D01*
X23265330Y-10209471D01*
X23476113Y-9998688D01*
X23658667Y-10035000D01*
X23941333Y-10035000D01*
X24359909Y-9951740D01*
X24834577Y-9634577D01*
X25151740Y-9159909D01*
X25263113Y-8600000D01*
X25151740Y-8040091D01*
X24834577Y-7565423D01*
X24359909Y-7248260D01*
X23941333Y-7165000D01*
X23658667Y-7165000D01*
X23240091Y-7248260D01*
X22765423Y-7565423D01*
X22448260Y-8040091D01*
X22336887Y-8600000D01*
X22401312Y-8923887D01*
X22360198Y-8965001D01*
X17582044Y-8965001D01*
X17615000Y-8885439D01*
X17615000Y-8542069D01*
X17746536Y-8515905D01*
X17997928Y-8347930D01*
X18040330Y-8284471D01*
X20335162Y-5989640D01*
X20444670Y-6035000D01*
X21055330Y-6035000D01*
X21619507Y-5801310D01*
X21895522Y-5525295D01*
X24154450Y-5525295D01*
X24231559Y-5773926D01*
X24777575Y-5971077D01*
X25357474Y-5944270D01*
X25768721Y-5773926D01*
X25845830Y-5525295D01*
X25000140Y-4679605D01*
X24154450Y-5525295D01*
X21895522Y-5525295D01*
X22051310Y-5369507D01*
X22285000Y-4805330D01*
X22285000Y-4277435D01*
X23529063Y-4277435D01*
X23555870Y-4857334D01*
X23726214Y-5268581D01*
X23974845Y-5345690D01*
X24820535Y-4500000D01*
X25179745Y-4500000D01*
X26025435Y-5345690D01*
X26274066Y-5268581D01*
X26471217Y-4722565D01*
X26447511Y-4209741D01*
X26543190Y-4209741D01*
X26543190Y-4790259D01*
X26765345Y-5326587D01*
X27175833Y-5737075D01*
X27712161Y-5959230D01*
X28292679Y-5959230D01*
X28829007Y-5737075D01*
X29239495Y-5326587D01*
X29331366Y-5104791D01*
X29605259Y-5766026D01*
X30233974Y-6394741D01*
X31055431Y-6735000D01*
X31944569Y-6735000D01*
X32766026Y-6394741D01*
X33394741Y-5766026D01*
X33735000Y-4944569D01*
X33735000Y-4055431D01*
X33394741Y-3233974D01*
X32766026Y-2605259D01*
X31944569Y-2265000D01*
X31055431Y-2265000D01*
X30233974Y-2605259D01*
X29605259Y-3233974D01*
X29331366Y-3895209D01*
X29239495Y-3673413D01*
X28829007Y-3262925D01*
X28292679Y-3040770D01*
X27712161Y-3040770D01*
X27175833Y-3262925D01*
X26765345Y-3673413D01*
X26543190Y-4209741D01*
X26447511Y-4209741D01*
X26444410Y-4142666D01*
X26274066Y-3731419D01*
X26025435Y-3654310D01*
X25179745Y-4500000D01*
X24820535Y-4500000D01*
X23974845Y-3654310D01*
X23726214Y-3731419D01*
X23529063Y-4277435D01*
X22285000Y-4277435D01*
X22285000Y-4194670D01*
X22051310Y-3630493D01*
X21895522Y-3474705D01*
X24154450Y-3474705D01*
X25000140Y-4320395D01*
X25845830Y-3474705D01*
X25768721Y-3226074D01*
X25222705Y-3028923D01*
X24642806Y-3055730D01*
X24231559Y-3226074D01*
X24154450Y-3474705D01*
X21895522Y-3474705D01*
X21619507Y-3198690D01*
X21055330Y-2965000D01*
X20444670Y-2965000D01*
X19880493Y-3198690D01*
X19704139Y-3375044D01*
X19648327Y-3240301D01*
X19469698Y-3061673D01*
X19236309Y-2965000D01*
X18495750Y-2965000D01*
X18337000Y-3123750D01*
X18337000Y-4373000D01*
X18357000Y-4373000D01*
X18357000Y-4627000D01*
X18337000Y-4627000D01*
X18337000Y-4647000D01*
X18083000Y-4647000D01*
X18083000Y-4627000D01*
X16833750Y-4627000D01*
X16675000Y-4785750D01*
X16675000Y-5526310D01*
X16771673Y-5759699D01*
X16950302Y-5938327D01*
X17183691Y-6035000D01*
X17924250Y-6035000D01*
X18082998Y-5876252D01*
X18082998Y-6035000D01*
X18140198Y-6035000D01*
X17135198Y-7040001D01*
X17054845Y-7040001D01*
X16979998Y-7025113D01*
X16905151Y-7040001D01*
X16905147Y-7040001D01*
X16683462Y-7084097D01*
X16683460Y-7084098D01*
X16683461Y-7084098D01*
X16525283Y-7189788D01*
X16465439Y-7165000D01*
X15894561Y-7165000D01*
X15367138Y-7383466D01*
X14963466Y-7787138D01*
X14745000Y-8314561D01*
X14745000Y-8885439D01*
X14777956Y-8965001D01*
X2929846Y-8965001D01*
X2854999Y-8950113D01*
X2780152Y-8965001D01*
X2780147Y-8965001D01*
X2558462Y-9009097D01*
X2307070Y-9177072D01*
X2264670Y-9240528D01*
X1903886Y-9601312D01*
X1721333Y-9565000D01*
X1438667Y-9565000D01*
X1020091Y-9648260D01*
X735000Y-9838752D01*
X735000Y-5762055D01*
X1211021Y-5959230D01*
X1791539Y-5959230D01*
X2327867Y-5737075D01*
X2738355Y-5326587D01*
X2960510Y-4790259D01*
X2960510Y-4209741D01*
X2896593Y-4055431D01*
X4265000Y-4055431D01*
X4265000Y-4944569D01*
X4605259Y-5766026D01*
X5233974Y-6394741D01*
X6055431Y-6735000D01*
X6944569Y-6735000D01*
X7766026Y-6394741D01*
X8394741Y-5766026D01*
X8668634Y-5104791D01*
X8760505Y-5326587D01*
X9170993Y-5737075D01*
X9707321Y-5959230D01*
X10287839Y-5959230D01*
X10824167Y-5737075D01*
X11035947Y-5525295D01*
X12154170Y-5525295D01*
X12231279Y-5773926D01*
X12777295Y-5971077D01*
X13357194Y-5944270D01*
X13768441Y-5773926D01*
X13845550Y-5525295D01*
X12999860Y-4679605D01*
X12154170Y-5525295D01*
X11035947Y-5525295D01*
X11234655Y-5326587D01*
X11456810Y-4790259D01*
X11456810Y-4277435D01*
X11528783Y-4277435D01*
X11555590Y-4857334D01*
X11725934Y-5268581D01*
X11974565Y-5345690D01*
X12820255Y-4500000D01*
X13179465Y-4500000D01*
X14025155Y-5345690D01*
X14273786Y-5268581D01*
X14470937Y-4722565D01*
X14444130Y-4142666D01*
X14273786Y-3731419D01*
X14025155Y-3654310D01*
X13179465Y-4500000D01*
X12820255Y-4500000D01*
X11974565Y-3654310D01*
X11725934Y-3731419D01*
X11528783Y-4277435D01*
X11456810Y-4277435D01*
X11456810Y-4209741D01*
X11234655Y-3673413D01*
X11035947Y-3474705D01*
X12154170Y-3474705D01*
X12999860Y-4320395D01*
X13845550Y-3474705D01*
X13845236Y-3473690D01*
X16675000Y-3473690D01*
X16675000Y-4214250D01*
X16833750Y-4373000D01*
X18083000Y-4373000D01*
X18083000Y-3123750D01*
X17924250Y-2965000D01*
X17183691Y-2965000D01*
X16950302Y-3061673D01*
X16771673Y-3240301D01*
X16675000Y-3473690D01*
X13845236Y-3473690D01*
X13768441Y-3226074D01*
X13222425Y-3028923D01*
X12642526Y-3055730D01*
X12231279Y-3226074D01*
X12154170Y-3474705D01*
X11035947Y-3474705D01*
X10824167Y-3262925D01*
X10287839Y-3040770D01*
X9707321Y-3040770D01*
X9170993Y-3262925D01*
X8760505Y-3673413D01*
X8668634Y-3895209D01*
X8394741Y-3233974D01*
X7766026Y-2605259D01*
X6944569Y-2265000D01*
X6055431Y-2265000D01*
X5233974Y-2605259D01*
X4605259Y-3233974D01*
X4265000Y-4055431D01*
X2896593Y-4055431D01*
X2738355Y-3673413D01*
X2327867Y-3262925D01*
X1791539Y-3040770D01*
X1211021Y-3040770D01*
X735000Y-3237945D01*
X735000Y-735000D01*
X12160087Y-735000D01*
X12065000Y-964561D01*
G04 #@! TD*
M02*
