G04 #@! TF.GenerationSoftware,KiCad,Pcbnew,(5.0.0)*
G04 #@! TF.CreationDate,2018-08-20T22:19:09+02:00*
G04 #@! TF.ProjectId,1u_lpg,31755F6C70672E6B696361645F706362,rev?*
G04 #@! TF.SameCoordinates,Original*
G04 #@! TF.FileFunction,Legend,Top*
G04 #@! TF.FilePolarity,Positive*
%FSLAX46Y46*%
G04 Gerber Fmt 4.6, Leading zero omitted, Abs format (unit mm)*
G04 Created by KiCad (PCBNEW (5.0.0)) date 08/20/18 22:19:09*
%MOMM*%
%LPD*%
G01*
G04 APERTURE LIST*
%ADD10C,0.120000*%
%ADD11C,0.066040*%
%ADD12C,0.127000*%
%ADD13C,0.203200*%
%ADD14C,0.050800*%
%ADD15C,0.150000*%
%ADD16C,0.076200*%
%ADD17C,0.101600*%
G04 APERTURE END LIST*
D10*
G04 #@! TO.C,D1*
X17920000Y-5580000D02*
X17920000Y-5736000D01*
X17920000Y-3264000D02*
X17920000Y-3420000D01*
X20521130Y-5579837D02*
G75*
G02X18439039Y-5580000I-1041130J1079837D01*
G01*
X20521130Y-3420163D02*
G75*
G03X18439039Y-3420000I-1041130J-1079837D01*
G01*
X21152335Y-5578608D02*
G75*
G02X17920000Y-5735516I-1672335J1078608D01*
G01*
X21152335Y-3421392D02*
G75*
G03X17920000Y-3264484I-1672335J-1078608D01*
G01*
D11*
G04 #@! TO.C,J_CV_1*
X9299080Y-20299080D02*
X9299080Y-14700920D01*
X9299080Y-14700920D02*
X3700920Y-14700920D01*
X3700920Y-20299080D02*
X3700920Y-14700920D01*
X9299080Y-20299080D02*
X3700920Y-20299080D01*
D12*
X1000900Y-21998340D02*
X500520Y-21998340D01*
X500520Y-21998340D02*
X500520Y-21497960D01*
X500520Y-13502040D02*
X500520Y-13001660D01*
X500520Y-13001660D02*
X1000900Y-13001660D01*
X10497960Y-13001660D02*
X10998340Y-13001660D01*
X10998340Y-13001660D02*
X10998340Y-13502040D01*
X10497960Y-21998340D02*
X10998340Y-21998340D01*
X10998340Y-21998340D02*
X10998340Y-21497960D01*
X9189860Y-17500000D02*
G75*
G03X9189860Y-17500000I-2689860J0D01*
G01*
G04 #@! TO.C,J_IN_1*
X9189860Y-4500000D02*
G75*
G03X9189860Y-4500000I-2689860J0D01*
G01*
X10998340Y-8998340D02*
X10998340Y-8497960D01*
X10497960Y-8998340D02*
X10998340Y-8998340D01*
X10998340Y-1660D02*
X10998340Y-502040D01*
X10497960Y-1660D02*
X10998340Y-1660D01*
X500520Y-1660D02*
X1000900Y-1660D01*
X500520Y-502040D02*
X500520Y-1660D01*
X500520Y-8998340D02*
X500520Y-8497960D01*
X1000900Y-8998340D02*
X500520Y-8998340D01*
D11*
X9299080Y-7299080D02*
X3700920Y-7299080D01*
X3700920Y-7299080D02*
X3700920Y-1700920D01*
X9299080Y-1700920D02*
X3700920Y-1700920D01*
X9299080Y-7299080D02*
X9299080Y-1700920D01*
G04 #@! TO.C,J_OUT_1*
X28700920Y-1700920D02*
X28700920Y-7299080D01*
X28700920Y-7299080D02*
X34299080Y-7299080D01*
X34299080Y-1700920D02*
X34299080Y-7299080D01*
X28700920Y-1700920D02*
X34299080Y-1700920D01*
D12*
X36999100Y-1660D02*
X37499480Y-1660D01*
X37499480Y-1660D02*
X37499480Y-502040D01*
X37499480Y-8497960D02*
X37499480Y-8998340D01*
X37499480Y-8998340D02*
X36999100Y-8998340D01*
X27502040Y-8998340D02*
X27001660Y-8998340D01*
X27001660Y-8998340D02*
X27001660Y-8497960D01*
X27502040Y-1660D02*
X27001660Y-1660D01*
X27001660Y-1660D02*
X27001660Y-502040D01*
X34189860Y-4500000D02*
G75*
G03X34189860Y-4500000I-2689860J0D01*
G01*
D13*
G04 #@! TO.C,RV1*
X31397500Y-11900440D02*
X31397500Y-20099560D01*
X20102120Y-20099560D02*
X20102120Y-11900440D01*
X30848860Y-11900440D02*
X30848860Y-11351800D01*
X31397500Y-11900440D02*
X30848860Y-11900440D01*
X20650760Y-11900440D02*
X20102120Y-11900440D01*
X20650760Y-11351800D02*
X20650760Y-11900440D01*
X20650760Y-20099560D02*
X20650760Y-20648200D01*
X20102120Y-20099560D02*
X20650760Y-20099560D01*
X30848860Y-20099560D02*
X31397500Y-20099560D01*
X30848860Y-20648200D02*
X30848860Y-20099560D01*
X28649220Y-11351800D02*
X30848860Y-11351800D01*
X20650760Y-11351800D02*
X23851160Y-11351800D01*
X30848860Y-20648200D02*
X28649220Y-20648200D01*
X23851160Y-20648200D02*
X20650760Y-20648200D01*
D14*
X27397000Y-16000000D02*
G75*
G03X27397000Y-16000000I-1397000J0D01*
G01*
X27016000Y-16000000D02*
G75*
G03X27016000Y-16000000I-1016000J0D01*
G01*
G04 #@! TO.C,D1*
D15*
X18741904Y-1992380D02*
X18741904Y-992380D01*
X18980000Y-992380D01*
X19122857Y-1040000D01*
X19218095Y-1135238D01*
X19265714Y-1230476D01*
X19313333Y-1420952D01*
X19313333Y-1563809D01*
X19265714Y-1754285D01*
X19218095Y-1849523D01*
X19122857Y-1944761D01*
X18980000Y-1992380D01*
X18741904Y-1992380D01*
X20265714Y-1992380D02*
X19694285Y-1992380D01*
X19980000Y-1992380D02*
X19980000Y-992380D01*
X19884761Y-1135238D01*
X19789523Y-1230476D01*
X19694285Y-1278095D01*
G04 #@! TO.C,J_CV_1*
D16*
X11176019Y-16306190D02*
X11901733Y-16306190D01*
X12046876Y-16354571D01*
X12143638Y-16451333D01*
X12192019Y-16596476D01*
X12192019Y-16693238D01*
X12288780Y-16064285D02*
X12288780Y-15290190D01*
X12095257Y-14467714D02*
X12143638Y-14516095D01*
X12192019Y-14661238D01*
X12192019Y-14758000D01*
X12143638Y-14903142D01*
X12046876Y-14999904D01*
X11950114Y-15048285D01*
X11756590Y-15096666D01*
X11611447Y-15096666D01*
X11417923Y-15048285D01*
X11321161Y-14999904D01*
X11224400Y-14903142D01*
X11176019Y-14758000D01*
X11176019Y-14661238D01*
X11224400Y-14516095D01*
X11272780Y-14467714D01*
X11176019Y-14177428D02*
X12192019Y-13838761D01*
X11176019Y-13500095D01*
X12288780Y-13403333D02*
X12288780Y-12629238D01*
X12192019Y-11855142D02*
X12192019Y-12435714D01*
X12192019Y-12145428D02*
X11176019Y-12145428D01*
X11321161Y-12242190D01*
X11417923Y-12338952D01*
X11466304Y-12435714D01*
G04 #@! TO.C,J_IN_1*
X10943619Y-9386857D02*
X11669333Y-9386857D01*
X11814476Y-9435238D01*
X11911238Y-9532000D01*
X11959619Y-9677142D01*
X11959619Y-9773904D01*
X12056380Y-9144952D02*
X12056380Y-8370857D01*
X11959619Y-8128952D02*
X10943619Y-8128952D01*
X11959619Y-7645142D02*
X10943619Y-7645142D01*
X11959619Y-7064571D01*
X10943619Y-7064571D01*
X12056380Y-6822666D02*
X12056380Y-6048571D01*
X11959619Y-5274476D02*
X11959619Y-5855047D01*
X11959619Y-5564761D02*
X10943619Y-5564761D01*
X11088761Y-5661523D01*
X11185523Y-5758285D01*
X11233904Y-5855047D01*
G04 #@! TO.C,J_OUT_1*
X25711219Y-9045390D02*
X26436933Y-9045390D01*
X26582076Y-9093771D01*
X26678838Y-9190533D01*
X26727219Y-9335676D01*
X26727219Y-9432438D01*
X26823980Y-8803485D02*
X26823980Y-8029390D01*
X25711219Y-7593961D02*
X25711219Y-7400438D01*
X25759600Y-7303676D01*
X25856361Y-7206914D01*
X26049885Y-7158533D01*
X26388552Y-7158533D01*
X26582076Y-7206914D01*
X26678838Y-7303676D01*
X26727219Y-7400438D01*
X26727219Y-7593961D01*
X26678838Y-7690723D01*
X26582076Y-7787485D01*
X26388552Y-7835866D01*
X26049885Y-7835866D01*
X25856361Y-7787485D01*
X25759600Y-7690723D01*
X25711219Y-7593961D01*
X25711219Y-6723104D02*
X26533695Y-6723104D01*
X26630457Y-6674723D01*
X26678838Y-6626342D01*
X26727219Y-6529580D01*
X26727219Y-6336057D01*
X26678838Y-6239295D01*
X26630457Y-6190914D01*
X26533695Y-6142533D01*
X25711219Y-6142533D01*
X25711219Y-5803866D02*
X25711219Y-5223295D01*
X26727219Y-5513580D02*
X25711219Y-5513580D01*
X26823980Y-5126533D02*
X26823980Y-4352438D01*
X26727219Y-3578342D02*
X26727219Y-4158914D01*
X26727219Y-3868628D02*
X25711219Y-3868628D01*
X25856361Y-3965390D01*
X25953123Y-4062152D01*
X26001504Y-4158914D01*
G04 #@! TO.C,RV1*
X29556000Y-15492000D02*
X29048000Y-15847600D01*
X29556000Y-16101600D02*
X28489200Y-16101600D01*
X28489200Y-15695200D01*
X28540000Y-15593600D01*
X28590800Y-15542800D01*
X28692400Y-15492000D01*
X28844800Y-15492000D01*
X28946400Y-15542800D01*
X28997200Y-15593600D01*
X29048000Y-15695200D01*
X29048000Y-16101600D01*
X28489200Y-15187200D02*
X29556000Y-14831600D01*
X28489200Y-14476000D01*
X29556000Y-13561600D02*
X29556000Y-14171200D01*
X29556000Y-13866400D02*
X28489200Y-13866400D01*
X28641600Y-13968000D01*
X28743200Y-14069600D01*
X28794000Y-14171200D01*
D17*
X23036666Y-18146904D02*
X23036666Y-17542142D01*
X23399523Y-18267857D02*
X22129523Y-17844523D01*
X23399523Y-17421190D01*
X23399523Y-16332619D02*
X23399523Y-17058333D01*
X23399523Y-16695476D02*
X22129523Y-16695476D01*
X22310952Y-16816428D01*
X22431904Y-16937380D01*
X22492380Y-17058333D01*
X22129523Y-15546428D02*
X22129523Y-15425476D01*
X22190000Y-15304523D01*
X22250476Y-15244047D01*
X22371428Y-15183571D01*
X22613333Y-15123095D01*
X22915714Y-15123095D01*
X23157619Y-15183571D01*
X23278571Y-15244047D01*
X23339047Y-15304523D01*
X23399523Y-15425476D01*
X23399523Y-15546428D01*
X23339047Y-15667380D01*
X23278571Y-15727857D01*
X23157619Y-15788333D01*
X22915714Y-15848809D01*
X22613333Y-15848809D01*
X22371428Y-15788333D01*
X22250476Y-15727857D01*
X22190000Y-15667380D01*
X22129523Y-15546428D01*
X23399523Y-14578809D02*
X22129523Y-14578809D01*
X23399523Y-13853095D02*
X22673809Y-14397380D01*
X22129523Y-13853095D02*
X22855238Y-14578809D01*
G04 #@! TD*
M02*
