G04 #@! TF.GenerationSoftware,KiCad,Pcbnew,(5.0.0)*
G04 #@! TF.CreationDate,2018-08-26T21:31:10+02:00*
G04 #@! TF.ProjectId,1u_lpg,31755F6C70672E6B696361645F706362,rev?*
G04 #@! TF.SameCoordinates,Original*
G04 #@! TF.FileFunction,Legend,Bot*
G04 #@! TF.FilePolarity,Positive*
%FSLAX46Y46*%
G04 Gerber Fmt 4.6, Leading zero omitted, Abs format (unit mm)*
G04 Created by KiCad (PCBNEW (5.0.0)) date 08/26/18 21:31:10*
%MOMM*%
%LPD*%
G01*
G04 APERTURE LIST*
%ADD10C,0.100000*%
%ADD11C,0.150000*%
%ADD12C,0.120000*%
%ADD13C,0.050000*%
G04 APERTURE END LIST*
D10*
X15600000Y-6000000D02*
X15600000Y-2400000D01*
D11*
X36583333Y-1702380D02*
X37154761Y-1702380D01*
X36869047Y-1702380D02*
X36869047Y-702380D01*
X36964285Y-845238D01*
X37059523Y-940476D01*
X37154761Y-988095D01*
X36154761Y-702380D02*
X36154761Y-1511904D01*
X36107142Y-1607142D01*
X36059523Y-1654761D01*
X35964285Y-1702380D01*
X35773809Y-1702380D01*
X35678571Y-1654761D01*
X35630952Y-1607142D01*
X35583333Y-1511904D01*
X35583333Y-702380D01*
X35345238Y-1797619D02*
X34583333Y-1797619D01*
X33869047Y-1702380D02*
X34345238Y-1702380D01*
X34345238Y-702380D01*
X33535714Y-1702380D02*
X33535714Y-702380D01*
X33154761Y-702380D01*
X33059523Y-750000D01*
X33011904Y-797619D01*
X32964285Y-892857D01*
X32964285Y-1035714D01*
X33011904Y-1130952D01*
X33059523Y-1178571D01*
X33154761Y-1226190D01*
X33535714Y-1226190D01*
X32011904Y-750000D02*
X32107142Y-702380D01*
X32250000Y-702380D01*
X32392857Y-750000D01*
X32488095Y-845238D01*
X32535714Y-940476D01*
X32583333Y-1130952D01*
X32583333Y-1273809D01*
X32535714Y-1464285D01*
X32488095Y-1559523D01*
X32392857Y-1654761D01*
X32250000Y-1702380D01*
X32154761Y-1702380D01*
X32011904Y-1654761D01*
X31964285Y-1607142D01*
X31964285Y-1273809D01*
X32154761Y-1273809D01*
X30773809Y-1035714D02*
X30773809Y-2035714D01*
X30773809Y-1083333D02*
X30678571Y-1035714D01*
X30488095Y-1035714D01*
X30392857Y-1083333D01*
X30345238Y-1130952D01*
X30297619Y-1226190D01*
X30297619Y-1511904D01*
X30345238Y-1607142D01*
X30392857Y-1654761D01*
X30488095Y-1702380D01*
X30678571Y-1702380D01*
X30773809Y-1654761D01*
X29440476Y-1654761D02*
X29535714Y-1702380D01*
X29726190Y-1702380D01*
X29821428Y-1654761D01*
X29869047Y-1607142D01*
X29916666Y-1511904D01*
X29916666Y-1226190D01*
X29869047Y-1130952D01*
X29821428Y-1083333D01*
X29726190Y-1035714D01*
X29535714Y-1035714D01*
X29440476Y-1083333D01*
X29011904Y-1702380D02*
X29011904Y-702380D01*
X29011904Y-1083333D02*
X28916666Y-1035714D01*
X28726190Y-1035714D01*
X28630952Y-1083333D01*
X28583333Y-1130952D01*
X28535714Y-1226190D01*
X28535714Y-1511904D01*
X28583333Y-1607142D01*
X28630952Y-1654761D01*
X28726190Y-1702380D01*
X28916666Y-1702380D01*
X29011904Y-1654761D01*
X27345238Y-1321428D02*
X26583333Y-1321428D01*
X26107142Y-1702380D02*
X26107142Y-1035714D01*
X26107142Y-1226190D02*
X26059523Y-1130952D01*
X26011904Y-1083333D01*
X25916666Y-1035714D01*
X25821428Y-1035714D01*
X25107142Y-1654761D02*
X25202380Y-1702380D01*
X25392857Y-1702380D01*
X25488095Y-1654761D01*
X25535714Y-1559523D01*
X25535714Y-1178571D01*
X25488095Y-1083333D01*
X25392857Y-1035714D01*
X25202380Y-1035714D01*
X25107142Y-1083333D01*
X25059523Y-1178571D01*
X25059523Y-1273809D01*
X25535714Y-1369047D01*
X24726190Y-1035714D02*
X24488095Y-1702380D01*
X24250000Y-1035714D01*
X23345238Y-1702380D02*
X23916666Y-1702380D01*
X23630952Y-1702380D02*
X23630952Y-702380D01*
X23726190Y-845238D01*
X23821428Y-940476D01*
X23916666Y-988095D01*
G04 #@! TO.C,U1*
X14900000Y-1500000D02*
X13800000Y-1500000D01*
X16300000Y-1500000D02*
X17400000Y-1500000D01*
X15600000Y-5900000D02*
X15600000Y-2200000D01*
X15600000Y-16100000D02*
X15600000Y-19700000D01*
X15200000Y-20500000D02*
X14400000Y-20500000D01*
X15900000Y-20500000D02*
X16800000Y-20500000D01*
X15200000Y-21000000D02*
X15900000Y-20500000D01*
X15200000Y-20000000D02*
X15200000Y-21000000D01*
X15900000Y-20500000D02*
X15200000Y-20000000D01*
X15900000Y-20000000D02*
X15900000Y-21000000D01*
D12*
X10590000Y-5990000D02*
X20610000Y-5990000D01*
X10590000Y-16010000D02*
X10590000Y-5990000D01*
X18030000Y-16010000D02*
X10590000Y-16010000D01*
X20610000Y-13430000D02*
X18030000Y-16010000D01*
X20610000Y-5990000D02*
X20610000Y-13430000D01*
G04 #@! TO.C,R_VAC_1*
X8600000Y-10020000D02*
X8600000Y-9690000D01*
X8600000Y-9690000D02*
X2180000Y-9690000D01*
X2180000Y-9690000D02*
X2180000Y-10020000D01*
X8600000Y-11980000D02*
X8600000Y-12310000D01*
X8600000Y-12310000D02*
X2180000Y-12310000D01*
X2180000Y-12310000D02*
X2180000Y-11980000D01*
G04 #@! TO.C,R_LED_1*
X22900000Y-7190000D02*
X22900000Y-7520000D01*
X16480000Y-7190000D02*
X22900000Y-7190000D01*
X16480000Y-7520000D02*
X16480000Y-7190000D01*
X22900000Y-9810000D02*
X22900000Y-9480000D01*
X16480000Y-9810000D02*
X22900000Y-9810000D01*
X16480000Y-9480000D02*
X16480000Y-9810000D01*
G04 #@! TO.C,C1*
X33496000Y-20410000D02*
X33810000Y-20410000D01*
X31190000Y-20410000D02*
X31504000Y-20410000D01*
X33496000Y-15590000D02*
X33810000Y-15590000D01*
X31190000Y-15590000D02*
X31504000Y-15590000D01*
X33810000Y-15590000D02*
X33810000Y-20410000D01*
X31190000Y-15590000D02*
X31190000Y-20410000D01*
G04 #@! TO.C,C2*
X34690000Y-15590000D02*
X34690000Y-20410000D01*
X37310000Y-15590000D02*
X37310000Y-20410000D01*
X34690000Y-15590000D02*
X35004000Y-15590000D01*
X36996000Y-15590000D02*
X37310000Y-15590000D01*
X34690000Y-20410000D02*
X35004000Y-20410000D01*
X36996000Y-20410000D02*
X37310000Y-20410000D01*
D13*
G04 #@! TO.C,REF\002A\002A*
X1329657Y-19949699D02*
X1339733Y-19951487D01*
X1359927Y-19954917D02*
X1370044Y-19956560D01*
X1410559Y-19962681D02*
X1420695Y-19964103D01*
X1319575Y-19947856D02*
X1329657Y-19949699D01*
X1160402Y-19909566D02*
X1170193Y-19912559D01*
X1370044Y-19956560D02*
X1380167Y-19958158D01*
X1400417Y-19961215D02*
X1410559Y-19962681D01*
X1451140Y-19968131D02*
X1461305Y-19969398D01*
X1380167Y-19958158D02*
X1390289Y-19959708D01*
X1249395Y-19933353D02*
X1259383Y-19935612D01*
X1239430Y-19931026D02*
X1249395Y-19933353D01*
X1440986Y-19966827D02*
X1451140Y-19968131D01*
X1170193Y-19912559D02*
X1180018Y-19915456D01*
X1501969Y-19974103D02*
X1502011Y-19974108D01*
X1219542Y-19926155D02*
X1229475Y-19928627D01*
X1502011Y-19974108D02*
X1502009Y-19974105D01*
X1481623Y-19971820D02*
X1491799Y-19972979D01*
X1229475Y-19928627D02*
X1239430Y-19931026D01*
X1121566Y-19896514D02*
X1131213Y-19899949D01*
X1430842Y-19965485D02*
X1440986Y-19966827D01*
X1269390Y-19937806D02*
X1279396Y-19939933D01*
X1199742Y-19920976D02*
X1209628Y-19923605D01*
X1299459Y-19944009D02*
X1309506Y-19945959D01*
X1150635Y-19906469D02*
X1160402Y-19909566D01*
X1420695Y-19964103D02*
X1430842Y-19965485D01*
X1189875Y-19918262D02*
X1199742Y-19920976D01*
X1339733Y-19951487D02*
X1349818Y-19953225D01*
X1289416Y-19942000D02*
X1299459Y-19944009D01*
X1471457Y-19970626D02*
X1481623Y-19971820D01*
X1349818Y-19953225D02*
X1359927Y-19954917D01*
X1140909Y-19903267D02*
X1150635Y-19906469D01*
X1209628Y-19923605D02*
X1219542Y-19926155D01*
X1390289Y-19959708D02*
X1400417Y-19961215D01*
X1309506Y-19945959D02*
X1319575Y-19947856D01*
X1180018Y-19915456D02*
X1189875Y-19918262D01*
X1131213Y-19899949D02*
X1140909Y-19903267D01*
X1461305Y-19969398D02*
X1471457Y-19970626D01*
X1259383Y-19935612D02*
X1269390Y-19937806D01*
X1491799Y-19972979D02*
X1501969Y-19974103D01*
X1279396Y-19939933D02*
X1289416Y-19942000D01*
X1183441Y-19468631D02*
X1175027Y-19474637D01*
X1109350Y-19524808D02*
X1101383Y-19531379D01*
X1150037Y-19492989D02*
X1141796Y-19499223D01*
X1166658Y-19480695D02*
X1158331Y-19486809D01*
X1055077Y-19572587D02*
X1047668Y-19579789D01*
X1092937Y-19885419D02*
X1102432Y-19889261D01*
X1208881Y-19450936D02*
X1200368Y-19456783D01*
X1083509Y-19881426D02*
X1092937Y-19885419D01*
X1217439Y-19445130D02*
X1208881Y-19450936D01*
X1037652Y-19858729D02*
X1046616Y-19863685D01*
X1074155Y-19877270D02*
X1083509Y-19881426D01*
X1085636Y-19544766D02*
X1077864Y-19551590D01*
X1070185Y-19558491D02*
X1062590Y-19565485D01*
X1020176Y-19848067D02*
X1028829Y-19853530D01*
X1158331Y-19486809D02*
X1150037Y-19492989D01*
X1055695Y-19868414D02*
X1064885Y-19872940D01*
X952207Y-19721990D02*
X950635Y-19732065D01*
X1125472Y-19511875D02*
X1117387Y-19518303D01*
X1033178Y-19594536D02*
X1026206Y-19601969D01*
X1191889Y-19462680D02*
X1183441Y-19468631D01*
X1175027Y-19474637D02*
X1166658Y-19480695D01*
X1011717Y-19842312D02*
X1020176Y-19848067D01*
X974091Y-19807869D02*
X980739Y-19815650D01*
X1117387Y-19518303D02*
X1109350Y-19524808D01*
X957798Y-19702428D02*
X954631Y-19712105D01*
X1006003Y-19624916D02*
X999566Y-19632811D01*
X1062590Y-19565485D02*
X1055077Y-19572587D01*
X1111971Y-19892953D02*
X1121566Y-19896514D01*
X1102432Y-19889261D02*
X1111971Y-19892953D01*
X1064885Y-19872940D02*
X1074155Y-19877270D01*
X970747Y-19674771D02*
X965945Y-19683759D01*
X965945Y-19683759D02*
X961600Y-19692979D01*
X993309Y-19640855D02*
X987261Y-19649059D01*
X951990Y-19762467D02*
X954591Y-19772305D01*
X1046616Y-19863685D02*
X1055695Y-19868414D01*
X968087Y-19799644D02*
X974091Y-19807869D01*
X981461Y-19657431D02*
X975942Y-19665994D01*
X1077864Y-19551590D02*
X1070185Y-19558491D01*
X950465Y-19752405D02*
X951990Y-19762467D01*
X1019341Y-19609505D02*
X1012602Y-19617150D01*
X1003489Y-19836231D02*
X1011717Y-19842312D01*
X995539Y-19829790D02*
X1003489Y-19836231D01*
X954591Y-19772305D02*
X958215Y-19781836D01*
X987261Y-19649059D02*
X981461Y-19657431D01*
X1040367Y-19587101D02*
X1033178Y-19594536D01*
X1133607Y-19505518D02*
X1125472Y-19511875D01*
X1101383Y-19531379D02*
X1093474Y-19538033D01*
X1141796Y-19499223D02*
X1133607Y-19505518D01*
X1200368Y-19456783D02*
X1191889Y-19462680D01*
X962751Y-19790958D02*
X968087Y-19799644D01*
X961600Y-19692979D02*
X957798Y-19702428D01*
X975942Y-19665994D02*
X970747Y-19674771D01*
X1028829Y-19853530D02*
X1037652Y-19858729D01*
X987923Y-19822939D02*
X995539Y-19829790D01*
X980739Y-19815650D02*
X987923Y-19822939D01*
X950028Y-19742225D02*
X950465Y-19752405D01*
X958215Y-19781836D02*
X962751Y-19790958D01*
X1093474Y-19538033D02*
X1085636Y-19544766D01*
X950635Y-19732065D02*
X950028Y-19742225D01*
X954631Y-19712105D02*
X952207Y-19721990D01*
X999566Y-19632811D02*
X993309Y-19640855D01*
X1047668Y-19579789D02*
X1040367Y-19587101D01*
X1012602Y-19617150D02*
X1006003Y-19624916D01*
X1026206Y-19601969D02*
X1019341Y-19609505D01*
X2043467Y-20136941D02*
X2050798Y-20143938D01*
X2020037Y-20117576D02*
X2028069Y-20123763D01*
X2011808Y-20111653D02*
X2020037Y-20117576D01*
X2057864Y-20151210D02*
X2064644Y-20158753D01*
X2050798Y-20143938D02*
X2057864Y-20151210D01*
X2003405Y-20105989D02*
X2011808Y-20111653D01*
X1977270Y-20090450D02*
X1986119Y-20095396D01*
X2035892Y-20130223D02*
X2043467Y-20136941D01*
X2028069Y-20123763D02*
X2035892Y-20130223D01*
X1994834Y-20100572D02*
X2003405Y-20105989D01*
X1986119Y-20095396D02*
X1994834Y-20100572D01*
X2100212Y-20230802D02*
X2101950Y-20240819D01*
X2071116Y-20166552D02*
X2076996Y-20174842D01*
X2064644Y-20158753D02*
X2071116Y-20166552D01*
X2091284Y-20201710D02*
X2094872Y-20211213D01*
X2101950Y-20240819D02*
X2103057Y-20250912D01*
X2087099Y-20192457D02*
X2091284Y-20201710D01*
X2103057Y-20250912D02*
X2103533Y-20261056D01*
X2097851Y-20220925D02*
X2100212Y-20230802D01*
X2094872Y-20211213D02*
X2097851Y-20220925D01*
X2082327Y-20183482D02*
X2087099Y-20192457D01*
X2076996Y-20174842D02*
X2082327Y-20183482D01*
X1775603Y-20019085D02*
X1785579Y-20021589D01*
X1815373Y-20029573D02*
X1825256Y-20032397D01*
X1805462Y-20026831D02*
X1815373Y-20029573D01*
X1844945Y-20038299D02*
X1854736Y-20041376D01*
X1785579Y-20021589D02*
X1795527Y-20024169D01*
X1864510Y-20044545D02*
X1874252Y-20047804D01*
X1795527Y-20024169D02*
X1805462Y-20026831D01*
X1854736Y-20041376D02*
X1864510Y-20044545D01*
X1765618Y-20016659D02*
X1775603Y-20019085D01*
X1835118Y-20035306D02*
X1844945Y-20038299D01*
X1825256Y-20032397D02*
X1835118Y-20035306D01*
X1450533Y-19307611D02*
X1441899Y-19312129D01*
X1424682Y-19321258D02*
X1416099Y-19325869D01*
X1226019Y-19439379D02*
X1217439Y-19445130D01*
X1234641Y-19433666D02*
X1226019Y-19439379D01*
X1243288Y-19428001D02*
X1234641Y-19433666D01*
X1251960Y-19422383D02*
X1243288Y-19428001D01*
X1260660Y-19416807D02*
X1251960Y-19422383D01*
X1278154Y-19405774D02*
X1269394Y-19411270D01*
X1441899Y-19312129D02*
X1433279Y-19316680D01*
X1459189Y-19303123D02*
X1450533Y-19307611D01*
X1398982Y-19335182D02*
X1390456Y-19339879D01*
X1304554Y-19389549D02*
X1295730Y-19394918D01*
X1322285Y-19378923D02*
X1313406Y-19384218D01*
X1416099Y-19325869D02*
X1407527Y-19330513D01*
X1390456Y-19339879D02*
X1381941Y-19344610D01*
X1339598Y-19368747D02*
X1331190Y-19373665D01*
X1269394Y-19411270D02*
X1260660Y-19416807D01*
X1286934Y-19400323D02*
X1278154Y-19405774D01*
X1364958Y-19354168D02*
X1356482Y-19358998D01*
X1295730Y-19394918D02*
X1286934Y-19400323D01*
X1348035Y-19363854D02*
X1339598Y-19368747D01*
X1373446Y-19349371D02*
X1364958Y-19354168D01*
X1356482Y-19358998D02*
X1348035Y-19363854D01*
X1313406Y-19384218D02*
X1304554Y-19389549D01*
X1381941Y-19344610D02*
X1373446Y-19349371D01*
X1433279Y-19316680D02*
X1424682Y-19321258D01*
X1331190Y-19373665D02*
X1322285Y-19378923D01*
X1407527Y-19330513D02*
X1398982Y-19335182D01*
X1468825Y-19333059D02*
X1468797Y-19322667D01*
X1468856Y-19343470D02*
X1468825Y-19333059D01*
X1470281Y-19561999D02*
X1470182Y-19551594D01*
X1468708Y-19260257D02*
X1468706Y-19249862D01*
X1468736Y-19291450D02*
X1468723Y-19281055D01*
X1468753Y-19301857D02*
X1468736Y-19291450D01*
X1470489Y-19582811D02*
X1470384Y-19572413D01*
X1469901Y-19520360D02*
X1469814Y-19509955D01*
X1469291Y-19437124D02*
X1469229Y-19426721D01*
X1469649Y-19489146D02*
X1469571Y-19478734D01*
X1472122Y-19718028D02*
X1471979Y-19707621D01*
X1469425Y-19457931D02*
X1469356Y-19447522D01*
X1472415Y-19738828D02*
X1472267Y-19728424D01*
X1473033Y-19780438D02*
X1472874Y-19770029D01*
X1468890Y-19353868D02*
X1468856Y-19343470D01*
X1469730Y-19499550D02*
X1469649Y-19489146D01*
X1472267Y-19728424D02*
X1472122Y-19718028D01*
X1511522Y-19276996D02*
X1504575Y-19280289D01*
X1469814Y-19509955D02*
X1469730Y-19499550D01*
X1468929Y-19364271D02*
X1468890Y-19353868D01*
X1470182Y-19551594D02*
X1470085Y-19541180D01*
X1468713Y-19270653D02*
X1468708Y-19260257D01*
X1468970Y-19374674D02*
X1468929Y-19364271D01*
X1469171Y-19416311D02*
X1469116Y-19405902D01*
X1470823Y-19614026D02*
X1470709Y-19603626D01*
X1466864Y-19299178D02*
X1459189Y-19303123D01*
X1474547Y-19295264D02*
X1466864Y-19299178D01*
X1482249Y-19291376D02*
X1474547Y-19295264D01*
X1472718Y-19759624D02*
X1472565Y-19749231D01*
X1469116Y-19405902D02*
X1469064Y-19395494D01*
X1489955Y-19287524D02*
X1482249Y-19291376D01*
X1471569Y-19676416D02*
X1471438Y-19666020D01*
X1497684Y-19283702D02*
X1489955Y-19287524D01*
X1469992Y-19530766D02*
X1469901Y-19520360D01*
X1502959Y-19271566D02*
X1511522Y-19276996D01*
X1469015Y-19385084D02*
X1468970Y-19374674D01*
X1470709Y-19603626D02*
X1470598Y-19593215D01*
X1468773Y-19312257D02*
X1468753Y-19301857D01*
X1468797Y-19322667D02*
X1468773Y-19312257D01*
X1469571Y-19478734D02*
X1469496Y-19468324D01*
X1469356Y-19447522D02*
X1469291Y-19437124D01*
X1470941Y-19624421D02*
X1470823Y-19614026D01*
X1471703Y-19686818D02*
X1471569Y-19676416D01*
X1469496Y-19468324D02*
X1469425Y-19457931D01*
X1472565Y-19749231D02*
X1472415Y-19738828D01*
X1471183Y-19645218D02*
X1471060Y-19634815D01*
X1504575Y-19280289D02*
X1497684Y-19283702D01*
X1468723Y-19281055D02*
X1468713Y-19270653D01*
X1469064Y-19395494D02*
X1469015Y-19385084D01*
X1470384Y-19572413D02*
X1470281Y-19561999D01*
X1471060Y-19634815D02*
X1470941Y-19624421D01*
X1494389Y-19266132D02*
X1502959Y-19271566D01*
X1485834Y-19260707D02*
X1494389Y-19266132D01*
X1477267Y-19255275D02*
X1485834Y-19260707D01*
X1468706Y-19249846D02*
X1477267Y-19255275D01*
X1468706Y-19249862D02*
X1468706Y-19249846D01*
X1469229Y-19426721D02*
X1469171Y-19416311D01*
X1471840Y-19697215D02*
X1471703Y-19686818D01*
X1471979Y-19707621D02*
X1471840Y-19697215D01*
X1470085Y-19541180D02*
X1469992Y-19530766D01*
X1470598Y-19593215D02*
X1470489Y-19582811D01*
X1471309Y-19655616D02*
X1471183Y-19645218D01*
X1471438Y-19666020D02*
X1471309Y-19655616D01*
X1472874Y-19770029D02*
X1472718Y-19759624D01*
X1654786Y-19994458D02*
X1664917Y-19996170D01*
X1695261Y-20001648D02*
X1705352Y-20003594D01*
X1705352Y-20003594D02*
X1715440Y-20005604D01*
X1664917Y-19996170D02*
X1675045Y-19997939D01*
X1675045Y-19997939D02*
X1685154Y-19999763D01*
X1755621Y-20014308D02*
X1765618Y-20016659D01*
X1725515Y-20007680D02*
X1735570Y-20009821D01*
X1685154Y-19999763D02*
X1695261Y-20001648D01*
X1745605Y-20012030D02*
X1755621Y-20014308D01*
X1715440Y-20005604D02*
X1725515Y-20007680D01*
X1735570Y-20009821D02*
X1745605Y-20012030D01*
X2102580Y-20281347D02*
X2101147Y-20291419D01*
X2096377Y-20311163D02*
X2092942Y-20320913D01*
X2075342Y-20358294D02*
X2070083Y-20367193D01*
X2080280Y-20349210D02*
X2075342Y-20358294D01*
X2084873Y-20339948D02*
X2080280Y-20349210D01*
X2089100Y-20330515D02*
X2084873Y-20339948D01*
X2103533Y-20261056D02*
X2103374Y-20271224D01*
X2101147Y-20291419D02*
X2099078Y-20301375D01*
X2092942Y-20320913D02*
X2089100Y-20330515D01*
X2099078Y-20301375D02*
X2096377Y-20311163D01*
X2103374Y-20271224D02*
X2102580Y-20281347D01*
X1474394Y-19863642D02*
X1474214Y-19853233D01*
X1474760Y-19884451D02*
X1474575Y-19874044D01*
X1474946Y-19894857D02*
X1474760Y-19884451D01*
X1476529Y-19978088D02*
X1476323Y-19967694D01*
X1476738Y-19988499D02*
X1476529Y-19978088D01*
X1477596Y-20030103D02*
X1477378Y-20019708D01*
X1478040Y-20050902D02*
X1477817Y-20040495D01*
X1477817Y-20040495D02*
X1477596Y-20030103D01*
X1477378Y-20019708D02*
X1477162Y-20009313D01*
X1476323Y-19967694D02*
X1476119Y-19957299D01*
X1475327Y-19915665D02*
X1475135Y-19905257D01*
X1478493Y-20071705D02*
X1478265Y-20061299D01*
X1475917Y-19946888D02*
X1475718Y-19936485D01*
X1474038Y-19842840D02*
X1473864Y-19832433D01*
X1475718Y-19936485D02*
X1475521Y-19926076D01*
X1476949Y-19998902D02*
X1476738Y-19988499D01*
X1478265Y-20061299D02*
X1478040Y-20050902D01*
X1474214Y-19853233D02*
X1474038Y-19842840D01*
X1476119Y-19957299D02*
X1475917Y-19946888D01*
X1473524Y-19811642D02*
X1473357Y-19801235D01*
X1477162Y-20009313D02*
X1476949Y-19998902D01*
X1474575Y-19874044D02*
X1474394Y-19863642D01*
X1475521Y-19926076D02*
X1475327Y-19915665D01*
X1473194Y-19790842D02*
X1473033Y-19780438D01*
X1475135Y-19905257D02*
X1474946Y-19894857D01*
X1473864Y-19832433D02*
X1473692Y-19822038D01*
X1473357Y-19801235D02*
X1473194Y-19790842D01*
X1473692Y-19822038D02*
X1473524Y-19811642D01*
X1491771Y-20560490D02*
X1491435Y-20550091D01*
X1495278Y-20664455D02*
X1494914Y-20654048D01*
X1494914Y-20654048D02*
X1494553Y-20643645D01*
X1492451Y-20581287D02*
X1492110Y-20570885D01*
X1496014Y-20685245D02*
X1495644Y-20674846D01*
X1496765Y-20706049D02*
X1496388Y-20695644D01*
X1493841Y-20622854D02*
X1493490Y-20612463D01*
X1482449Y-20238160D02*
X1482185Y-20227765D01*
X1488521Y-20456528D02*
X1488209Y-20446139D01*
X1490771Y-20529306D02*
X1490442Y-20518917D01*
X1491435Y-20550091D02*
X1491102Y-20539701D01*
X1491102Y-20539701D02*
X1490771Y-20529306D01*
X1493490Y-20612463D02*
X1493141Y-20602071D01*
X1496388Y-20695644D02*
X1496014Y-20685245D01*
X1487287Y-20414946D02*
X1486985Y-20404547D01*
X1489471Y-20487714D02*
X1489152Y-20477315D01*
X1487900Y-20435733D02*
X1487592Y-20425343D01*
X1488209Y-20446139D02*
X1487900Y-20435733D01*
X1490116Y-20508516D02*
X1489792Y-20498113D01*
X1495644Y-20674846D02*
X1495278Y-20664455D01*
X1488835Y-20466922D02*
X1488521Y-20456528D01*
X1478723Y-20082116D02*
X1478493Y-20071705D01*
X1478955Y-20092517D02*
X1478723Y-20082116D01*
X1492795Y-20591681D02*
X1492451Y-20581287D01*
X1479190Y-20102929D02*
X1478955Y-20092517D01*
X1481663Y-20206963D02*
X1481405Y-20196562D01*
X1485797Y-20362954D02*
X1485505Y-20352556D01*
X1479427Y-20113336D02*
X1479190Y-20102929D01*
X1479666Y-20123735D02*
X1479427Y-20113336D01*
X1479908Y-20134146D02*
X1479666Y-20123735D01*
X1486386Y-20383749D02*
X1486090Y-20373344D01*
X1480152Y-20144543D02*
X1479908Y-20134146D01*
X1480398Y-20154946D02*
X1480152Y-20144543D01*
X1480646Y-20165353D02*
X1480398Y-20154946D01*
X1480897Y-20175760D02*
X1480646Y-20165353D01*
X1485505Y-20352556D02*
X1485216Y-20342153D01*
X1481923Y-20217365D02*
X1481663Y-20206963D01*
X1483804Y-20290150D02*
X1483529Y-20279751D01*
X1494196Y-20633252D02*
X1493841Y-20622854D01*
X1483255Y-20269357D02*
X1482984Y-20258959D01*
X1494553Y-20643645D02*
X1494196Y-20633252D01*
X1497146Y-20716445D02*
X1496765Y-20706049D01*
X1497531Y-20726839D02*
X1497146Y-20716445D01*
X1484644Y-20321347D02*
X1484362Y-20310951D01*
X1490442Y-20518917D02*
X1490116Y-20508516D01*
X1497921Y-20737235D02*
X1497531Y-20726839D01*
X1489792Y-20498113D02*
X1489471Y-20487714D01*
X1481150Y-20186164D02*
X1480897Y-20175760D01*
X1482716Y-20248558D02*
X1482449Y-20238160D01*
X1484929Y-20331749D02*
X1484644Y-20321347D01*
X1493141Y-20602071D02*
X1492795Y-20591681D01*
X1484082Y-20300551D02*
X1483804Y-20290150D01*
X1484362Y-20310951D02*
X1484082Y-20300551D01*
X1489152Y-20477315D02*
X1488835Y-20466922D01*
X1481405Y-20196562D02*
X1481150Y-20186164D01*
X1492110Y-20570885D02*
X1491771Y-20560490D01*
X1485216Y-20342153D02*
X1484929Y-20331749D01*
X1486985Y-20404547D02*
X1486684Y-20394151D01*
X1482185Y-20227765D02*
X1481923Y-20217365D01*
X1482984Y-20258959D02*
X1482716Y-20248558D01*
X1483529Y-20279751D02*
X1483255Y-20269357D01*
X1486090Y-20373344D02*
X1485797Y-20362954D01*
X1486684Y-20394151D02*
X1486386Y-20383749D01*
X1487592Y-20425343D02*
X1487287Y-20414946D01*
X1525029Y-19738772D02*
X1524878Y-19749169D01*
X1526845Y-19593139D02*
X1526734Y-19603540D01*
X1526134Y-19655544D02*
X1526006Y-19665948D01*
X1525176Y-19728365D02*
X1525029Y-19738772D01*
X1525322Y-19717962D02*
X1525176Y-19728365D01*
X1526954Y-19582737D02*
X1526845Y-19593139D01*
X1526006Y-19665948D02*
X1525875Y-19676354D01*
X1527059Y-19572334D02*
X1526954Y-19582737D01*
X1527162Y-19561934D02*
X1527059Y-19572334D01*
X1526620Y-19613938D02*
X1526503Y-19624347D01*
X1527358Y-19541127D02*
X1527261Y-19551521D01*
X1525603Y-19697164D02*
X1525464Y-19707566D01*
X1523920Y-19811587D02*
X1523751Y-19821985D01*
X1524086Y-19801190D02*
X1523920Y-19811587D01*
X1526260Y-19645144D02*
X1526134Y-19655544D01*
X1525740Y-19686760D02*
X1525603Y-19697164D01*
X1524411Y-19780383D02*
X1524249Y-19790796D01*
X1524249Y-19790796D02*
X1524086Y-19801190D01*
X1527261Y-19551521D02*
X1527162Y-19561934D01*
X1526383Y-19634749D02*
X1526260Y-19645144D01*
X1527451Y-19530724D02*
X1527358Y-19541127D01*
X1525464Y-19707566D02*
X1525322Y-19717962D01*
X1524725Y-19759580D02*
X1524569Y-19769977D01*
X1525875Y-19676354D02*
X1525740Y-19686760D01*
X1526503Y-19624347D02*
X1526383Y-19634749D01*
X1524569Y-19769977D02*
X1524411Y-19780383D01*
X1526734Y-19603540D02*
X1526620Y-19613938D01*
X1524878Y-19749169D02*
X1524725Y-19759580D01*
X1422805Y-19254363D02*
X1431654Y-19249775D01*
X1528729Y-19270680D02*
X1528720Y-19281076D01*
X1447430Y-19241703D02*
X1455337Y-19237711D01*
X1291964Y-19327104D02*
X1300777Y-19321904D01*
X1528737Y-19230917D02*
X1528737Y-19240393D01*
X1309378Y-19316873D02*
X1318004Y-19311871D01*
X1256926Y-19348247D02*
X1265655Y-19342906D01*
X1528735Y-19260269D02*
X1528729Y-19270680D01*
X1528737Y-19249862D02*
X1528735Y-19260269D01*
X1396379Y-19268313D02*
X1405168Y-19263633D01*
X1318004Y-19311871D02*
X1326642Y-19306904D01*
X1326642Y-19306904D02*
X1335291Y-19301974D01*
X1335291Y-19301974D02*
X1343964Y-19297073D01*
X1265655Y-19342906D02*
X1274398Y-19337607D01*
X1528720Y-19281076D02*
X1528707Y-19291473D01*
X1370087Y-19282557D02*
X1378835Y-19277777D01*
X1431654Y-19249775D02*
X1439538Y-19245723D01*
X1413971Y-19258985D02*
X1422805Y-19254363D01*
X1405168Y-19263633D02*
X1413971Y-19258985D01*
X1352658Y-19292201D02*
X1361360Y-19287365D01*
X1387596Y-19273031D02*
X1396379Y-19268313D01*
X1527541Y-19520313D02*
X1527451Y-19530724D01*
X1528707Y-19291473D02*
X1528690Y-19301871D01*
X1283164Y-19332343D02*
X1291964Y-19327104D01*
X1527794Y-19489119D02*
X1527713Y-19499517D01*
X1528151Y-19437107D02*
X1528086Y-19447508D01*
X1471203Y-19229824D02*
X1478540Y-19226196D01*
X1527629Y-19509910D02*
X1527541Y-19520313D01*
X1527713Y-19499517D02*
X1527629Y-19509910D01*
X1527872Y-19478718D02*
X1527794Y-19489119D01*
X1455337Y-19237711D02*
X1463264Y-19233749D01*
X1527946Y-19468315D02*
X1527872Y-19478718D01*
X1528018Y-19457912D02*
X1527946Y-19468315D01*
X1528086Y-19447508D02*
X1528018Y-19457912D01*
X1528213Y-19426708D02*
X1528151Y-19437107D01*
X1478540Y-19226196D02*
X1485917Y-19222697D01*
X1528272Y-19416312D02*
X1528213Y-19426708D01*
X1528327Y-19405906D02*
X1528272Y-19416312D01*
X1528737Y-19202518D02*
X1528737Y-19211985D01*
X1528379Y-19395505D02*
X1528327Y-19405906D01*
X1528587Y-19343484D02*
X1528552Y-19353887D01*
X1528690Y-19301871D02*
X1528670Y-19312269D01*
X1528737Y-19221457D02*
X1528737Y-19230917D01*
X1503051Y-19214621D02*
X1511604Y-19210590D01*
X1343964Y-19297073D02*
X1352658Y-19292201D01*
X1528427Y-19385096D02*
X1528379Y-19395505D01*
X1361360Y-19287365D02*
X1370087Y-19282557D01*
X1528472Y-19374694D02*
X1528427Y-19385096D01*
X1528737Y-19240393D02*
X1528737Y-19249862D01*
X1494489Y-19218656D02*
X1503051Y-19214621D01*
X1274398Y-19337607D02*
X1283164Y-19332343D01*
X1520170Y-19206554D02*
X1528737Y-19202518D01*
X1511604Y-19210590D02*
X1520170Y-19206554D01*
X1378835Y-19277777D02*
X1387596Y-19273031D01*
X1528618Y-19333076D02*
X1528587Y-19343484D01*
X1300777Y-19321904D02*
X1309378Y-19316873D01*
X1485917Y-19222697D02*
X1494489Y-19218656D01*
X1439538Y-19245723D02*
X1447430Y-19241703D01*
X1528514Y-19364286D02*
X1528472Y-19374694D01*
X1528552Y-19353887D02*
X1528514Y-19364286D01*
X1528646Y-19322666D02*
X1528618Y-19333076D01*
X1528670Y-19312269D02*
X1528646Y-19322666D01*
X1528737Y-19211985D02*
X1528737Y-19221457D01*
X1463264Y-19233749D02*
X1471203Y-19229824D01*
X1506672Y-20529272D02*
X1506341Y-20539671D01*
X1505671Y-20560466D02*
X1505333Y-20570862D01*
X1498316Y-20747630D02*
X1497921Y-20737235D01*
X1498721Y-20758034D02*
X1498316Y-20747630D01*
X1507651Y-20498075D02*
X1507327Y-20508479D01*
X1499521Y-20737221D02*
X1499125Y-20747627D01*
X1506341Y-20539671D02*
X1506008Y-20550067D01*
X1507001Y-20518876D02*
X1506672Y-20529272D01*
X1507327Y-20508479D02*
X1507001Y-20518876D01*
X1507973Y-20487664D02*
X1507651Y-20498075D01*
X1504648Y-20591647D02*
X1504302Y-20602045D01*
X1500677Y-20706039D02*
X1500296Y-20716433D01*
X1501428Y-20685234D02*
X1501054Y-20695639D01*
X1505333Y-20570862D02*
X1504992Y-20581255D01*
X1504302Y-20602045D02*
X1503953Y-20612444D01*
X1502165Y-20664432D02*
X1501798Y-20674837D01*
X1499125Y-20747627D02*
X1498721Y-20758034D01*
X1499911Y-20726825D02*
X1499521Y-20737221D01*
X1503246Y-20633243D02*
X1502889Y-20643636D01*
X1500296Y-20716433D02*
X1499911Y-20726825D01*
X1502528Y-20654031D02*
X1502165Y-20664432D01*
X1503601Y-20622841D02*
X1503246Y-20633243D01*
X1502889Y-20643636D02*
X1502528Y-20654031D01*
X1501054Y-20695639D02*
X1500677Y-20706039D01*
X1503953Y-20612444D02*
X1503601Y-20622841D01*
X1506008Y-20550067D02*
X1505671Y-20560466D01*
X1501798Y-20674837D02*
X1501428Y-20685234D01*
X1504992Y-20581255D02*
X1504648Y-20591647D01*
X1523751Y-19821985D02*
X1523579Y-19832382D01*
X1513640Y-20290057D02*
X1513363Y-20300456D01*
X1518951Y-20071650D02*
X1518721Y-20082052D01*
X1511354Y-20373261D02*
X1511058Y-20383662D01*
X1510760Y-20394068D02*
X1510460Y-20404462D01*
X1512515Y-20331672D02*
X1512228Y-20342072D01*
X1519404Y-20050853D02*
X1519178Y-20061256D01*
X1518017Y-20113250D02*
X1517778Y-20123650D01*
X1516039Y-20196466D02*
X1515782Y-20206864D01*
X1517293Y-20144447D02*
X1517047Y-20154850D01*
X1522116Y-19915606D02*
X1521922Y-19926009D01*
X1512228Y-20342072D02*
X1511939Y-20352463D01*
X1513916Y-20279652D02*
X1513640Y-20290057D01*
X1516548Y-20175655D02*
X1516294Y-20186061D01*
X1522497Y-19894801D02*
X1522308Y-19905214D01*
X1517537Y-20134051D02*
X1517293Y-20144447D01*
X1523229Y-19853185D02*
X1523050Y-19863587D01*
X1517778Y-20123650D02*
X1517537Y-20134051D01*
X1523050Y-19863587D02*
X1522868Y-19873990D01*
X1514189Y-20269251D02*
X1513916Y-20279652D01*
X1518721Y-20082052D02*
X1518489Y-20092455D01*
X1511648Y-20362857D02*
X1511354Y-20373261D01*
X1514461Y-20258848D02*
X1514189Y-20269251D01*
X1515522Y-20217265D02*
X1515260Y-20227660D01*
X1520066Y-20019638D02*
X1519847Y-20030040D01*
X1508292Y-20477263D02*
X1507973Y-20487664D01*
X1508608Y-20466868D02*
X1508292Y-20477263D01*
X1508922Y-20456473D02*
X1508608Y-20466868D01*
X1509235Y-20446066D02*
X1508922Y-20456473D01*
X1515260Y-20227660D02*
X1514996Y-20238059D01*
X1509544Y-20435671D02*
X1509235Y-20446066D01*
X1521325Y-19957215D02*
X1521121Y-19967617D01*
X1509852Y-20425272D02*
X1509544Y-20435671D01*
X1518254Y-20102856D02*
X1518017Y-20113250D01*
X1512800Y-20321274D02*
X1512515Y-20331672D01*
X1514729Y-20248452D02*
X1514461Y-20258848D01*
X1519847Y-20030040D02*
X1519627Y-20040447D01*
X1513082Y-20310865D02*
X1512800Y-20321274D01*
X1516294Y-20186061D02*
X1516039Y-20196466D01*
X1517047Y-20154850D02*
X1516798Y-20165255D01*
X1516798Y-20165255D02*
X1516548Y-20175655D01*
X1520281Y-20009243D02*
X1520066Y-20019638D01*
X1521526Y-19946821D02*
X1521325Y-19957215D01*
X1523406Y-19842774D02*
X1523229Y-19853185D01*
X1520706Y-19988433D02*
X1520495Y-19998840D01*
X1523579Y-19832382D02*
X1523406Y-19842774D01*
X1522684Y-19884392D02*
X1522497Y-19894801D01*
X1511939Y-20352463D02*
X1511648Y-20362857D01*
X1514996Y-20238059D02*
X1514729Y-20248452D01*
X1519178Y-20061256D02*
X1518951Y-20071650D01*
X1520495Y-19998840D02*
X1520281Y-20009243D01*
X1510157Y-20414869D02*
X1509852Y-20425272D01*
X1510460Y-20404462D02*
X1510157Y-20414869D01*
X1511058Y-20383662D02*
X1510760Y-20394068D01*
X1513363Y-20300456D02*
X1513082Y-20310865D01*
X1515782Y-20206864D02*
X1515522Y-20217265D01*
X1518489Y-20092455D02*
X1518254Y-20102856D01*
X1521726Y-19936419D02*
X1521526Y-19946821D01*
X1521922Y-19926009D02*
X1521726Y-19936419D01*
X1522308Y-19905214D02*
X1522116Y-19915606D01*
X1519627Y-20040447D02*
X1519404Y-20050853D01*
X1520915Y-19978024D02*
X1520706Y-19988433D01*
X1522868Y-19873990D02*
X1522684Y-19884392D01*
X1521121Y-19967617D02*
X1520915Y-19978024D01*
X1259711Y-19998324D02*
X1249551Y-19996206D01*
X1525964Y-20037208D02*
X1515815Y-20036049D01*
X1269879Y-20000381D02*
X1259711Y-19998324D01*
X1474867Y-20031478D02*
X1464565Y-20030282D01*
X1331074Y-20011540D02*
X1320844Y-20009808D01*
X1382308Y-20019522D02*
X1372054Y-20018011D01*
X1596947Y-20046009D02*
X1586823Y-20044663D01*
X1392567Y-20020992D02*
X1382308Y-20019522D01*
X1464565Y-20030282D02*
X1454261Y-20029055D01*
X1536124Y-20038388D02*
X1525964Y-20037208D01*
X1617191Y-20048809D02*
X1607071Y-20047390D01*
X1546264Y-20039589D02*
X1536124Y-20038388D01*
X1361795Y-20016458D02*
X1351543Y-20014863D01*
X1413123Y-20023822D02*
X1402842Y-20022426D01*
X1556407Y-20040816D02*
X1546264Y-20039589D01*
X1402842Y-20022426D02*
X1392567Y-20020992D01*
X1505674Y-20034909D02*
X1495512Y-20033783D01*
X1576682Y-20043350D02*
X1566536Y-20042067D01*
X1433681Y-20026506D02*
X1423397Y-20025181D01*
X1627314Y-20050270D02*
X1617191Y-20048809D01*
X1188978Y-19982051D02*
X1178950Y-19979419D01*
X1229285Y-19991774D02*
X1219181Y-19989456D01*
X1239407Y-19994023D02*
X1229285Y-19991774D01*
X1249551Y-19996206D02*
X1239407Y-19994023D01*
X1485172Y-20032643D02*
X1474867Y-20031478D01*
X1310638Y-20008029D02*
X1300431Y-20006198D01*
X1443963Y-20027796D02*
X1433681Y-20026506D01*
X1280051Y-20002376D02*
X1269879Y-20000381D01*
X1290242Y-20004315D02*
X1280051Y-20002376D01*
X1566536Y-20042067D02*
X1556407Y-20040816D01*
X1341313Y-20013226D02*
X1331074Y-20011540D01*
X1300431Y-20006198D02*
X1290242Y-20004315D01*
X1423397Y-20025181D02*
X1413123Y-20023822D01*
X1586823Y-20044663D02*
X1576682Y-20043350D01*
X1495470Y-20033779D02*
X1485172Y-20032643D01*
X1199019Y-19984596D02*
X1188978Y-19982051D01*
X1219181Y-19989456D02*
X1209092Y-19987065D01*
X1320844Y-20009808D02*
X1310638Y-20008029D01*
X1454261Y-20029055D02*
X1443963Y-20027796D01*
X1351543Y-20014863D02*
X1341313Y-20013226D01*
X1495512Y-20033783D02*
X1495470Y-20033779D01*
X1372054Y-20018011D02*
X1361795Y-20016458D01*
X1607071Y-20047390D02*
X1596947Y-20046009D01*
X1515815Y-20036049D02*
X1505674Y-20034909D01*
X1178950Y-19979419D02*
X1168944Y-19976700D01*
X1209092Y-19987065D02*
X1199019Y-19984596D01*
X1802737Y-20600904D02*
X1794054Y-20606201D01*
X1989827Y-20460937D02*
X1982375Y-20467880D01*
X1982375Y-20467880D02*
X1974851Y-20474724D01*
X1928167Y-20514032D02*
X1920157Y-20520303D01*
X1912093Y-20526496D02*
X1903971Y-20532616D01*
X1516761Y-20749365D02*
X1507743Y-20753703D01*
X1597804Y-20710165D02*
X1588804Y-20714533D01*
X1828608Y-20584663D02*
X1820024Y-20590131D01*
X1895788Y-20538669D02*
X1887546Y-20544656D01*
X1525769Y-20745025D02*
X1516761Y-20749365D01*
X1552787Y-20731980D02*
X1543777Y-20736334D01*
X1570787Y-20723267D02*
X1561784Y-20727627D01*
X1794054Y-20606201D02*
X1785339Y-20611447D01*
X1997193Y-20453906D02*
X1989827Y-20460937D01*
X1854128Y-20567900D02*
X1845655Y-20573554D01*
X1811398Y-20595545D02*
X1802737Y-20600904D01*
X1820024Y-20590131D02*
X1811398Y-20595545D01*
X1870924Y-20556415D02*
X1862552Y-20562187D01*
X1837150Y-20579139D02*
X1828608Y-20584663D01*
X1534772Y-20740682D02*
X1525769Y-20745025D01*
X1936115Y-20507683D02*
X1928167Y-20514032D01*
X1543777Y-20736334D02*
X1534772Y-20740682D01*
X1750167Y-20631954D02*
X1741314Y-20636966D01*
X1561784Y-20727627D02*
X1552787Y-20731980D01*
X1579797Y-20718901D02*
X1570787Y-20723267D01*
X1588804Y-20714533D02*
X1579797Y-20718901D01*
X1767799Y-20621799D02*
X1758998Y-20626898D01*
X1606802Y-20705794D02*
X1597804Y-20710165D01*
X1615795Y-20701423D02*
X1606802Y-20705794D01*
X1651791Y-20683896D02*
X1642797Y-20688280D01*
X1741314Y-20636966D02*
X1732432Y-20641942D01*
X1624794Y-20697045D02*
X1615795Y-20701423D01*
X1687770Y-20666332D02*
X1678773Y-20670728D01*
X1633796Y-20692664D02*
X1624794Y-20697045D01*
X1669784Y-20675117D02*
X1660787Y-20679509D01*
X1714607Y-20651786D02*
X1705665Y-20656663D01*
X1967244Y-20481486D02*
X1959570Y-20488156D01*
X1642797Y-20688280D02*
X1633796Y-20692664D01*
X1862552Y-20562187D02*
X1854128Y-20567900D01*
X1879264Y-20550566D02*
X1870924Y-20556415D01*
X1951820Y-20494746D02*
X1943995Y-20501259D01*
X1974851Y-20474724D02*
X1967244Y-20481486D01*
X1723532Y-20646880D02*
X1714607Y-20651786D01*
X1696717Y-20661510D02*
X1687770Y-20666332D01*
X1705665Y-20656663D02*
X1696717Y-20661510D01*
X1943995Y-20501259D02*
X1936115Y-20507683D01*
X1845655Y-20573554D02*
X1837150Y-20579139D01*
X1903971Y-20532616D02*
X1895788Y-20538669D01*
X1732432Y-20641942D02*
X1723532Y-20646880D01*
X1920157Y-20520303D02*
X1912093Y-20526496D01*
X1785339Y-20611447D02*
X1776585Y-20616646D01*
X1887546Y-20544656D02*
X1879264Y-20550566D01*
X1959570Y-20488156D02*
X1951820Y-20494746D01*
X1660787Y-20679509D02*
X1651791Y-20683896D01*
X1678773Y-20670728D02*
X1669784Y-20675117D01*
X1758998Y-20626898D02*
X1750167Y-20631954D01*
X1776585Y-20616646D02*
X1767799Y-20621799D01*
X2057843Y-20279397D02*
X2058323Y-20269588D01*
X1657594Y-20054908D02*
X1647506Y-20053315D01*
X2048387Y-20317173D02*
X2051625Y-20308011D01*
X1687803Y-20059989D02*
X1677744Y-20058243D01*
X1856576Y-20100241D02*
X1846814Y-20097217D01*
X1787762Y-20080962D02*
X1777842Y-20078544D01*
X1933146Y-20128335D02*
X1923742Y-20124415D01*
X2026007Y-20360254D02*
X2031153Y-20352006D01*
X1797665Y-20083459D02*
X1787762Y-20080962D01*
X1807545Y-20086039D02*
X1797665Y-20083459D01*
X2026290Y-20189260D02*
X2019219Y-20181913D01*
X2052075Y-20231015D02*
X2048491Y-20221876D01*
X1866303Y-20103359D02*
X1856576Y-20100241D01*
X2032900Y-20197026D02*
X2026290Y-20189260D01*
X2056815Y-20250030D02*
X2054848Y-20240422D01*
X1875939Y-20106675D02*
X1866303Y-20103359D01*
X2054848Y-20240422D02*
X2052075Y-20231015D01*
X2048491Y-20221876D02*
X2044097Y-20213103D01*
X2031153Y-20352006D02*
X2036008Y-20343575D01*
X2054339Y-20298677D02*
X2056521Y-20289122D01*
X2009143Y-20384042D02*
X2014976Y-20376254D01*
X2019219Y-20181913D02*
X2011736Y-20174981D01*
X1951731Y-20136750D02*
X1942488Y-20132441D01*
X2014976Y-20376254D02*
X2020605Y-20368330D01*
X1978687Y-20151179D02*
X1969851Y-20146089D01*
X2058323Y-20269588D02*
X2057976Y-20259779D01*
X2051625Y-20308011D02*
X2054339Y-20298677D01*
X2003893Y-20168460D02*
X1995740Y-20162334D01*
X1960861Y-20141291D02*
X1951731Y-20136750D01*
X1637414Y-20051770D02*
X1627314Y-20050270D01*
X1647506Y-20053315D02*
X1637414Y-20051770D01*
X1747954Y-20071744D02*
X1737957Y-20069621D01*
X1677744Y-20058243D02*
X1667676Y-20056550D01*
X1697866Y-20061795D02*
X1687803Y-20059989D01*
X1914275Y-20120650D02*
X1904742Y-20117011D01*
X2038897Y-20204787D02*
X2032900Y-20197026D01*
X2057976Y-20259779D02*
X2056815Y-20250030D01*
X1995740Y-20162334D02*
X1987324Y-20156582D01*
X2040528Y-20334964D02*
X2044669Y-20326165D01*
X1717933Y-20065580D02*
X1707908Y-20063658D01*
X1757927Y-20073935D02*
X1747954Y-20071744D01*
X2011736Y-20174981D02*
X2003893Y-20168460D01*
X1923742Y-20124415D02*
X1914275Y-20120650D01*
X2020605Y-20368330D02*
X2026007Y-20360254D01*
X1837033Y-20094288D02*
X1827230Y-20091451D01*
X1827230Y-20091451D02*
X1817401Y-20088702D01*
X2044097Y-20213103D02*
X2038897Y-20204787D01*
X1707908Y-20063658D02*
X1697866Y-20061795D01*
X1885577Y-20110048D02*
X1875939Y-20106675D01*
X1942488Y-20132441D02*
X1933146Y-20128335D01*
X1987324Y-20156582D02*
X1978687Y-20151179D01*
X2056521Y-20289122D02*
X2057843Y-20279397D01*
X1817401Y-20088702D02*
X1807545Y-20086039D01*
X1667676Y-20056550D02*
X1657594Y-20054908D01*
X1767894Y-20076202D02*
X1757927Y-20073935D01*
X1969851Y-20146089D02*
X1960861Y-20141291D01*
X1777842Y-20078544D02*
X1767894Y-20076202D01*
X2036008Y-20343575D02*
X2040528Y-20334964D01*
X1904742Y-20117011D02*
X1895180Y-20113486D01*
X2044669Y-20326165D02*
X2048387Y-20317173D01*
X1727953Y-20067568D02*
X1717933Y-20065580D01*
X1737957Y-20069621D02*
X1727953Y-20067568D01*
X1846814Y-20097217D02*
X1837033Y-20094288D01*
X1895180Y-20113486D02*
X1885577Y-20110048D01*
X1857345Y-20531630D02*
X1865358Y-20525289D01*
X1663130Y-20663127D02*
X1671807Y-20658152D01*
X1671807Y-20658152D02*
X1680468Y-20653188D01*
X1732233Y-20620257D02*
X1740788Y-20614673D01*
X1833003Y-20550300D02*
X1841159Y-20544139D01*
X1749324Y-20609048D02*
X1757843Y-20603378D01*
X1766331Y-20597669D02*
X1774786Y-20591918D01*
X1515998Y-20747985D02*
X1524633Y-20742973D01*
X1585175Y-20707961D02*
X1593833Y-20702969D01*
X1541925Y-20732952D02*
X1550572Y-20727948D01*
X1849274Y-20537917D02*
X1857345Y-20531630D01*
X1841159Y-20544139D02*
X1849274Y-20537917D01*
X1824806Y-20556400D02*
X1833003Y-20550300D01*
X1567877Y-20717945D02*
X1576529Y-20712950D01*
X1654463Y-20668100D02*
X1663130Y-20663127D01*
X1808275Y-20568448D02*
X1816564Y-20562448D01*
X1533275Y-20737962D02*
X1541925Y-20732952D01*
X1791591Y-20580287D02*
X1799954Y-20574391D01*
X1524633Y-20742973D02*
X1533275Y-20737962D01*
X1645797Y-20673075D02*
X1654463Y-20668100D01*
X1507743Y-20753703D02*
X1498725Y-20758033D01*
X2003140Y-20391699D02*
X2009143Y-20384042D01*
X1723646Y-20625813D02*
X1732233Y-20620257D01*
X1602485Y-20697984D02*
X1611135Y-20693003D01*
X1637125Y-20678056D02*
X1645797Y-20673075D01*
X1996990Y-20399238D02*
X2003140Y-20391699D01*
X1904624Y-20492560D02*
X1912297Y-20485797D01*
X1990716Y-20406671D02*
X1996990Y-20399238D01*
X1984339Y-20414014D02*
X1990716Y-20406671D01*
X1611135Y-20693003D02*
X1619806Y-20688013D01*
X1889091Y-20505860D02*
X1896893Y-20499242D01*
X1977873Y-20421288D02*
X1984339Y-20414014D01*
X1970948Y-20428802D02*
X1977873Y-20421288D01*
X1507357Y-20753006D02*
X1515998Y-20747985D01*
X1912297Y-20485797D02*
X1919904Y-20478959D01*
X1628471Y-20683030D02*
X1637125Y-20678056D01*
X1963913Y-20436234D02*
X1970948Y-20428802D01*
X1956786Y-20443573D02*
X1963913Y-20436234D01*
X1934895Y-20465052D02*
X1942277Y-20457975D01*
X1550572Y-20727948D02*
X1559219Y-20722948D01*
X1689127Y-20647752D02*
X1697781Y-20642300D01*
X1799954Y-20574391D02*
X1808275Y-20568448D01*
X1576529Y-20712950D02*
X1585175Y-20707961D01*
X1783208Y-20586124D02*
X1791591Y-20580287D01*
X1559219Y-20722948D02*
X1567877Y-20717945D01*
X1706417Y-20636831D02*
X1715040Y-20631337D01*
X1680468Y-20653188D02*
X1689127Y-20647752D01*
X1949576Y-20450816D02*
X1956786Y-20443573D01*
X1619806Y-20688013D02*
X1628471Y-20683030D01*
X1927434Y-20472048D02*
X1934895Y-20465052D01*
X1715040Y-20631337D02*
X1723646Y-20625813D01*
X1942277Y-20457975D02*
X1949576Y-20450816D01*
X1757843Y-20603378D02*
X1766331Y-20597669D01*
X1816564Y-20562448D02*
X1824806Y-20556400D01*
X1919904Y-20478959D02*
X1927434Y-20472048D01*
X1740788Y-20614673D02*
X1749324Y-20609048D01*
X1593833Y-20702969D02*
X1602485Y-20697984D01*
X1873323Y-20518880D02*
X1881240Y-20512400D01*
X1774786Y-20591918D02*
X1783208Y-20586124D01*
X1697781Y-20642300D02*
X1706417Y-20636831D01*
X1896893Y-20499242D02*
X1904624Y-20492560D01*
X1881240Y-20512400D02*
X1889091Y-20505860D01*
X1498725Y-20758033D02*
X1507357Y-20753006D01*
X1865358Y-20525289D02*
X1873323Y-20518880D01*
X2011791Y-20439500D02*
X2004468Y-20446785D01*
X2046262Y-20400986D02*
X2039722Y-20408994D01*
X2058682Y-20384453D02*
X2052595Y-20392800D01*
X2026073Y-20424534D02*
X2019004Y-20432081D01*
X2032984Y-20416843D02*
X2026073Y-20424534D01*
X2052595Y-20392800D02*
X2046262Y-20400986D01*
X2070083Y-20367193D02*
X2064519Y-20375917D01*
X2064519Y-20375917D02*
X2058682Y-20384453D01*
X2019004Y-20432081D02*
X2011791Y-20439500D01*
X2039722Y-20408994D02*
X2032984Y-20416843D01*
X2004468Y-20446785D02*
X1997193Y-20453906D01*
X1179516Y-19398090D02*
X1188008Y-19392378D01*
X1056847Y-19490209D02*
X1064687Y-19483624D01*
X1104695Y-19451758D02*
X1112848Y-19445575D01*
X1096589Y-19458003D02*
X1104695Y-19451758D01*
X1041357Y-19503608D02*
X1049068Y-19496870D01*
X1248214Y-19353628D02*
X1256926Y-19348247D01*
X1239541Y-19359038D02*
X1248214Y-19353628D01*
X950034Y-19600134D02*
X956216Y-19591966D01*
X1121037Y-19439456D02*
X1129283Y-19433384D01*
X938267Y-19616906D02*
X944045Y-19608448D01*
X917592Y-19652268D02*
X922354Y-19643196D01*
X944045Y-19608448D02*
X950034Y-19600134D01*
X1145884Y-19421413D02*
X1154239Y-19415508D01*
X1188008Y-19392378D02*
X1196522Y-19386718D01*
X1064687Y-19483624D02*
X1072580Y-19477117D01*
X1129283Y-19433384D02*
X1137566Y-19427370D01*
X1018684Y-19524300D02*
X1026160Y-19517320D01*
X1080529Y-19470680D02*
X1088537Y-19464306D01*
X1230885Y-19364492D02*
X1239541Y-19359038D01*
X1222250Y-19369988D02*
X1230885Y-19364492D01*
X1213645Y-19375524D02*
X1222250Y-19369988D01*
X1162631Y-19409653D02*
X1171063Y-19403843D01*
X975819Y-19568290D02*
X982669Y-19560667D01*
X1205066Y-19381101D02*
X1213645Y-19375524D01*
X1196522Y-19386718D02*
X1205066Y-19381101D01*
X1026160Y-19517320D02*
X1033719Y-19510424D01*
X1171063Y-19403843D02*
X1179516Y-19398090D01*
X1154239Y-19415508D02*
X1162631Y-19409653D01*
X1137566Y-19427370D02*
X1145884Y-19421413D01*
X1011292Y-19531370D02*
X1018684Y-19524300D01*
X969121Y-19576046D02*
X975819Y-19568290D01*
X996775Y-19545803D02*
X1003989Y-19538534D01*
X927402Y-19634279D02*
X932712Y-19625518D01*
X913138Y-19661504D02*
X917592Y-19652268D01*
X1049068Y-19496870D02*
X1056847Y-19490209D01*
X1003989Y-19538534D02*
X1011292Y-19531370D01*
X1112848Y-19445575D02*
X1121037Y-19439456D01*
X932712Y-19625518D02*
X938267Y-19616906D01*
X1088537Y-19464306D02*
X1096589Y-19458003D01*
X1033719Y-19510424D02*
X1041357Y-19503608D01*
X989668Y-19553169D02*
X996775Y-19545803D01*
X962588Y-19583931D02*
X969121Y-19576046D01*
X956216Y-19591966D02*
X962588Y-19583931D01*
X922354Y-19643196D02*
X927402Y-19634279D01*
X1072580Y-19477117D02*
X1080529Y-19470680D01*
X982669Y-19560667D02*
X989668Y-19553169D01*
X1502009Y-19974105D02*
X1512220Y-19975217D01*
X1532639Y-19977524D02*
X1542838Y-19978721D01*
X1522435Y-19976357D02*
X1532639Y-19977524D01*
X1512220Y-19975217D02*
X1522435Y-19976357D01*
X1614157Y-19988121D02*
X1624325Y-19989632D01*
X1634493Y-19991191D02*
X1644648Y-19992799D01*
X1644648Y-19992799D02*
X1654786Y-19994458D01*
X1624325Y-19989632D02*
X1634493Y-19991191D01*
X1593802Y-19985235D02*
X1603985Y-19986656D01*
X1583614Y-19983856D02*
X1593802Y-19985235D01*
X1573425Y-19982517D02*
X1583614Y-19983856D01*
X1563240Y-19981217D02*
X1573425Y-19982517D01*
X1553037Y-19979952D02*
X1563240Y-19981217D01*
X1542838Y-19978721D02*
X1553037Y-19979952D01*
X1603985Y-19986656D02*
X1614157Y-19988121D01*
X1168944Y-19976700D02*
X1158974Y-19973892D01*
X1129193Y-19964854D02*
X1119342Y-19961626D01*
X892515Y-19740304D02*
X893296Y-19730090D01*
X898462Y-19790946D02*
X895904Y-19781024D01*
X901699Y-19800670D02*
X898462Y-19790946D01*
X1061202Y-19939532D02*
X1051731Y-19935327D01*
X910101Y-19819345D02*
X905587Y-19810143D01*
X940500Y-19860671D02*
X933530Y-19852994D01*
X1005736Y-19911471D02*
X996898Y-19906059D01*
X1080368Y-19947466D02*
X1070754Y-19943577D01*
X1014712Y-19916654D02*
X1005736Y-19911471D01*
X894038Y-19770957D02*
X892861Y-19760788D01*
X905587Y-19810143D02*
X901699Y-19800670D01*
X1023819Y-19921623D02*
X1014712Y-19916654D01*
X979701Y-19894494D02*
X971385Y-19888318D01*
X920814Y-19836787D02*
X915190Y-19828230D01*
X1042329Y-19930944D02*
X1033027Y-19926382D01*
X909027Y-19670882D02*
X913138Y-19661504D01*
X1090042Y-19951209D02*
X1080368Y-19947466D01*
X1139090Y-19967972D02*
X1129193Y-19964854D01*
X901938Y-19690096D02*
X905281Y-19680418D01*
X894669Y-19719929D02*
X896595Y-19709857D01*
X955405Y-19875097D02*
X947800Y-19868035D01*
X926931Y-19845014D02*
X920814Y-19836787D01*
X899030Y-19699912D02*
X901938Y-19690096D01*
X896595Y-19709857D02*
X899030Y-19699912D01*
X892360Y-19750547D02*
X892515Y-19740304D01*
X1033027Y-19926382D02*
X1023819Y-19921623D01*
X1149011Y-19970981D02*
X1139090Y-19967972D01*
X893296Y-19730090D02*
X894669Y-19719929D01*
X915190Y-19828230D02*
X910101Y-19819345D01*
X963274Y-19881853D02*
X955405Y-19875097D01*
X1051731Y-19935327D02*
X1042329Y-19930944D01*
X1109533Y-19958282D02*
X1099756Y-19954808D01*
X1099756Y-19954808D02*
X1090042Y-19951209D01*
X933530Y-19852994D02*
X926931Y-19845014D01*
X892861Y-19760788D02*
X892360Y-19750547D01*
X1158974Y-19973892D02*
X1149011Y-19970981D01*
X971385Y-19888318D02*
X963274Y-19881853D01*
X895904Y-19781024D02*
X894038Y-19770957D01*
X988216Y-19900406D02*
X979701Y-19894494D01*
X1070754Y-19943577D02*
X1061202Y-19939532D01*
X905281Y-19680418D02*
X909027Y-19670882D01*
X947800Y-19868035D02*
X940500Y-19860671D01*
X996898Y-19906059D02*
X988216Y-19900406D01*
X1119342Y-19961626D02*
X1109533Y-19958282D01*
X1950049Y-20076878D02*
X1959224Y-20081202D01*
X1940802Y-20072745D02*
X1950049Y-20076878D01*
X1922082Y-20064984D02*
X1931480Y-20068786D01*
X1874252Y-20047804D02*
X1883971Y-20051158D01*
X1893560Y-20054430D02*
X1903117Y-20057819D01*
X1959224Y-20081202D02*
X1968297Y-20085720D01*
X1903117Y-20057819D02*
X1912624Y-20061332D01*
X1883971Y-20051158D02*
X1893560Y-20054430D01*
X1912624Y-20061332D02*
X1922082Y-20064984D01*
X1931480Y-20068786D02*
X1940802Y-20072745D01*
X1968297Y-20085720D02*
X1977270Y-20090450D01*
G04 #@! TO.C,U1*
D11*
X21342380Y-11738095D02*
X22151904Y-11738095D01*
X22247142Y-11785714D01*
X22294761Y-11833333D01*
X22342380Y-11928571D01*
X22342380Y-12119047D01*
X22294761Y-12214285D01*
X22247142Y-12261904D01*
X22151904Y-12309523D01*
X21342380Y-12309523D01*
X22342380Y-13309523D02*
X22342380Y-12738095D01*
X22342380Y-13023809D02*
X21342380Y-13023809D01*
X21485238Y-12928571D01*
X21580476Y-12833333D01*
X21628095Y-12738095D01*
X12052380Y-6971428D02*
X11052380Y-6971428D01*
X11052380Y-7209523D01*
X11100000Y-7352380D01*
X11195238Y-7447619D01*
X11290476Y-7495238D01*
X11480952Y-7542857D01*
X11623809Y-7542857D01*
X11814285Y-7495238D01*
X11909523Y-7447619D01*
X12004761Y-7352380D01*
X12052380Y-7209523D01*
X12052380Y-6971428D01*
X12052380Y-7971428D02*
X11052380Y-7971428D01*
X11576190Y-8638095D02*
X12052380Y-8638095D01*
X11052380Y-8304761D02*
X11576190Y-8638095D01*
X11052380Y-8971428D01*
X11052380Y-9923809D02*
X12052380Y-10257142D01*
X11052380Y-10590476D01*
X12052380Y-11352380D02*
X11528571Y-11352380D01*
X11433333Y-11304761D01*
X11385714Y-11209523D01*
X11385714Y-11019047D01*
X11433333Y-10923809D01*
X12004761Y-11352380D02*
X12052380Y-11257142D01*
X12052380Y-11019047D01*
X12004761Y-10923809D01*
X11909523Y-10876190D01*
X11814285Y-10876190D01*
X11719047Y-10923809D01*
X11671428Y-11019047D01*
X11671428Y-11257142D01*
X11623809Y-11352380D01*
X12004761Y-12257142D02*
X12052380Y-12161904D01*
X12052380Y-11971428D01*
X12004761Y-11876190D01*
X11957142Y-11828571D01*
X11861904Y-11780952D01*
X11576190Y-11780952D01*
X11480952Y-11828571D01*
X11433333Y-11876190D01*
X11385714Y-11971428D01*
X11385714Y-12161904D01*
X11433333Y-12257142D01*
X11385714Y-12542857D02*
X11385714Y-12923809D01*
X11052380Y-12685714D02*
X11909523Y-12685714D01*
X12004761Y-12733333D01*
X12052380Y-12828571D01*
X12052380Y-12923809D01*
X12052380Y-13257142D02*
X11385714Y-13257142D01*
X11576190Y-13257142D02*
X11480952Y-13304761D01*
X11433333Y-13352380D01*
X11385714Y-13447619D01*
X11385714Y-13542857D01*
X12052380Y-14019047D02*
X12004761Y-13923809D01*
X11957142Y-13876190D01*
X11861904Y-13828571D01*
X11576190Y-13828571D01*
X11480952Y-13876190D01*
X11433333Y-13923809D01*
X11385714Y-14019047D01*
X11385714Y-14161904D01*
X11433333Y-14257142D01*
X11480952Y-14304761D01*
X11576190Y-14352380D01*
X11861904Y-14352380D01*
X11957142Y-14304761D01*
X12004761Y-14257142D01*
X12052380Y-14161904D01*
X12052380Y-14019047D01*
X12052380Y-14923809D02*
X12004761Y-14828571D01*
X11909523Y-14780952D01*
X11052380Y-14780952D01*
G04 #@! TO.C,R_VAC_1*
X7485714Y-13852380D02*
X7819047Y-13376190D01*
X8057142Y-13852380D02*
X8057142Y-12852380D01*
X7676190Y-12852380D01*
X7580952Y-12900000D01*
X7533333Y-12947619D01*
X7485714Y-13042857D01*
X7485714Y-13185714D01*
X7533333Y-13280952D01*
X7580952Y-13328571D01*
X7676190Y-13376190D01*
X8057142Y-13376190D01*
X7295238Y-13947619D02*
X6533333Y-13947619D01*
X6438095Y-12852380D02*
X6104761Y-13852380D01*
X5771428Y-12852380D01*
X5485714Y-13566666D02*
X5009523Y-13566666D01*
X5580952Y-13852380D02*
X5247619Y-12852380D01*
X4914285Y-13852380D01*
X4009523Y-13757142D02*
X4057142Y-13804761D01*
X4200000Y-13852380D01*
X4295238Y-13852380D01*
X4438095Y-13804761D01*
X4533333Y-13709523D01*
X4580952Y-13614285D01*
X4628571Y-13423809D01*
X4628571Y-13280952D01*
X4580952Y-13090476D01*
X4533333Y-12995238D01*
X4438095Y-12900000D01*
X4295238Y-12852380D01*
X4200000Y-12852380D01*
X4057142Y-12900000D01*
X4009523Y-12947619D01*
X3819047Y-13947619D02*
X3057142Y-13947619D01*
X2295238Y-13852380D02*
X2866666Y-13852380D01*
X2580952Y-13852380D02*
X2580952Y-12852380D01*
X2676190Y-12995238D01*
X2771428Y-13090476D01*
X2866666Y-13138095D01*
G04 #@! TO.C,R_LED_1*
X30485714Y-8852380D02*
X30819047Y-8376190D01*
X31057142Y-8852380D02*
X31057142Y-7852380D01*
X30676190Y-7852380D01*
X30580952Y-7900000D01*
X30533333Y-7947619D01*
X30485714Y-8042857D01*
X30485714Y-8185714D01*
X30533333Y-8280952D01*
X30580952Y-8328571D01*
X30676190Y-8376190D01*
X31057142Y-8376190D01*
X30295238Y-8947619D02*
X29533333Y-8947619D01*
X28819047Y-8852380D02*
X29295238Y-8852380D01*
X29295238Y-7852380D01*
X28485714Y-8328571D02*
X28152380Y-8328571D01*
X28009523Y-8852380D02*
X28485714Y-8852380D01*
X28485714Y-7852380D01*
X28009523Y-7852380D01*
X27580952Y-8852380D02*
X27580952Y-7852380D01*
X27342857Y-7852380D01*
X27200000Y-7900000D01*
X27104761Y-7995238D01*
X27057142Y-8090476D01*
X27009523Y-8280952D01*
X27009523Y-8423809D01*
X27057142Y-8614285D01*
X27104761Y-8709523D01*
X27200000Y-8804761D01*
X27342857Y-8852380D01*
X27580952Y-8852380D01*
X26819047Y-8947619D02*
X26057142Y-8947619D01*
X25295238Y-8852380D02*
X25866666Y-8852380D01*
X25580952Y-8852380D02*
X25580952Y-7852380D01*
X25676190Y-7995238D01*
X25771428Y-8090476D01*
X25866666Y-8138095D01*
G04 #@! TO.C,C1*
X32857142Y-12733333D02*
X32904761Y-12685714D01*
X32952380Y-12542857D01*
X32952380Y-12447619D01*
X32904761Y-12304761D01*
X32809523Y-12209523D01*
X32714285Y-12161904D01*
X32523809Y-12114285D01*
X32380952Y-12114285D01*
X32190476Y-12161904D01*
X32095238Y-12209523D01*
X32000000Y-12304761D01*
X31952380Y-12447619D01*
X31952380Y-12542857D01*
X32000000Y-12685714D01*
X32047619Y-12733333D01*
X32952380Y-13685714D02*
X32952380Y-13114285D01*
X32952380Y-13400000D02*
X31952380Y-13400000D01*
X32095238Y-13304761D01*
X32190476Y-13209523D01*
X32238095Y-13114285D01*
G04 #@! TO.C,C2*
X36357142Y-12733333D02*
X36404761Y-12685714D01*
X36452380Y-12542857D01*
X36452380Y-12447619D01*
X36404761Y-12304761D01*
X36309523Y-12209523D01*
X36214285Y-12161904D01*
X36023809Y-12114285D01*
X35880952Y-12114285D01*
X35690476Y-12161904D01*
X35595238Y-12209523D01*
X35500000Y-12304761D01*
X35452380Y-12447619D01*
X35452380Y-12542857D01*
X35500000Y-12685714D01*
X35547619Y-12733333D01*
X35547619Y-13114285D02*
X35500000Y-13161904D01*
X35452380Y-13257142D01*
X35452380Y-13495238D01*
X35500000Y-13590476D01*
X35547619Y-13638095D01*
X35642857Y-13685714D01*
X35738095Y-13685714D01*
X35880952Y-13638095D01*
X36452380Y-13066666D01*
X36452380Y-13685714D01*
G04 #@! TD*
M02*
