M48
;DRILL file {KiCad (5.0.0)} date 08/26/18 11:39:24
;FORMAT={-:-/ absolute / inch / decimal}
FMAT,2
INCH,TZ
T1C0.0217
T2C0.0315
T3C0.0354
T4C0.0433
T5C0.0826
%
G90
G05
M72
T1
X0.5142Y-0.0591
X0.5394Y-0.8071
X0.6142Y-0.0591
X0.689Y-0.8071
X0.7142Y-0.0591
T2
X0.0622Y-0.4331
X0.3622Y-0.4331
X1.4173Y-0.6102
X1.4173Y-0.8071
X0.637Y-0.3386
X0.937Y-0.3386
X1.2795Y-0.6102
X1.2795Y-0.8071
T3
X0.7169Y-0.1772
X0.8169Y-0.1772
T4
X0.0591Y-0.689
X0.3936Y-0.689
X0.5118Y-0.689
X0.9843Y-0.1772
X1.1025Y-0.1772
X1.437Y-0.1772
X0.0591Y-0.1772
X0.3936Y-0.1772
X0.5118Y-0.1772
X0.7481Y-0.5315
X0.7481Y-0.6299
X0.7481Y-0.7283
T5
X1.0236Y-0.4528
X1.0236Y-0.807
T0
M30
