G04 #@! TF.GenerationSoftware,KiCad,Pcbnew,(5.0.0)*
G04 #@! TF.CreationDate,2018-08-26T11:39:21+02:00*
G04 #@! TF.ProjectId,1u_lpg,31755F6C70672E6B696361645F706362,rev?*
G04 #@! TF.SameCoordinates,Original*
G04 #@! TF.FileFunction,Legend,Bot*
G04 #@! TF.FilePolarity,Positive*
%FSLAX46Y46*%
G04 Gerber Fmt 4.6, Leading zero omitted, Abs format (unit mm)*
G04 Created by KiCad (PCBNEW (5.0.0)) date 08/26/18 11:39:21*
%MOMM*%
%LPD*%
G01*
G04 APERTURE LIST*
%ADD10C,0.100000*%
%ADD11C,0.200000*%
%ADD12C,0.150000*%
%ADD13C,0.120000*%
G04 APERTURE END LIST*
D10*
X15600000Y-6000000D02*
X15600000Y-2400000D01*
D11*
X37500000Y-2250000D02*
X37500000Y-250000D01*
X22750000Y-2250000D02*
X37500000Y-2250000D01*
X22750000Y-250000D02*
X22750000Y-2250000D01*
X37500000Y-250000D02*
X22750000Y-250000D01*
D12*
X36583333Y-1702380D02*
X37154761Y-1702380D01*
X36869047Y-1702380D02*
X36869047Y-702380D01*
X36964285Y-845238D01*
X37059523Y-940476D01*
X37154761Y-988095D01*
X36154761Y-702380D02*
X36154761Y-1511904D01*
X36107142Y-1607142D01*
X36059523Y-1654761D01*
X35964285Y-1702380D01*
X35773809Y-1702380D01*
X35678571Y-1654761D01*
X35630952Y-1607142D01*
X35583333Y-1511904D01*
X35583333Y-702380D01*
X35345238Y-1797619D02*
X34583333Y-1797619D01*
X33869047Y-1702380D02*
X34345238Y-1702380D01*
X34345238Y-702380D01*
X33535714Y-1702380D02*
X33535714Y-702380D01*
X33154761Y-702380D01*
X33059523Y-750000D01*
X33011904Y-797619D01*
X32964285Y-892857D01*
X32964285Y-1035714D01*
X33011904Y-1130952D01*
X33059523Y-1178571D01*
X33154761Y-1226190D01*
X33535714Y-1226190D01*
X32011904Y-750000D02*
X32107142Y-702380D01*
X32250000Y-702380D01*
X32392857Y-750000D01*
X32488095Y-845238D01*
X32535714Y-940476D01*
X32583333Y-1130952D01*
X32583333Y-1273809D01*
X32535714Y-1464285D01*
X32488095Y-1559523D01*
X32392857Y-1654761D01*
X32250000Y-1702380D01*
X32154761Y-1702380D01*
X32011904Y-1654761D01*
X31964285Y-1607142D01*
X31964285Y-1273809D01*
X32154761Y-1273809D01*
X30773809Y-1035714D02*
X30773809Y-2035714D01*
X30773809Y-1083333D02*
X30678571Y-1035714D01*
X30488095Y-1035714D01*
X30392857Y-1083333D01*
X30345238Y-1130952D01*
X30297619Y-1226190D01*
X30297619Y-1511904D01*
X30345238Y-1607142D01*
X30392857Y-1654761D01*
X30488095Y-1702380D01*
X30678571Y-1702380D01*
X30773809Y-1654761D01*
X29440476Y-1654761D02*
X29535714Y-1702380D01*
X29726190Y-1702380D01*
X29821428Y-1654761D01*
X29869047Y-1607142D01*
X29916666Y-1511904D01*
X29916666Y-1226190D01*
X29869047Y-1130952D01*
X29821428Y-1083333D01*
X29726190Y-1035714D01*
X29535714Y-1035714D01*
X29440476Y-1083333D01*
X29011904Y-1702380D02*
X29011904Y-702380D01*
X29011904Y-1083333D02*
X28916666Y-1035714D01*
X28726190Y-1035714D01*
X28630952Y-1083333D01*
X28583333Y-1130952D01*
X28535714Y-1226190D01*
X28535714Y-1511904D01*
X28583333Y-1607142D01*
X28630952Y-1654761D01*
X28726190Y-1702380D01*
X28916666Y-1702380D01*
X29011904Y-1654761D01*
X27345238Y-1321428D02*
X26583333Y-1321428D01*
X26107142Y-1702380D02*
X26107142Y-1035714D01*
X26107142Y-1226190D02*
X26059523Y-1130952D01*
X26011904Y-1083333D01*
X25916666Y-1035714D01*
X25821428Y-1035714D01*
X25107142Y-1654761D02*
X25202380Y-1702380D01*
X25392857Y-1702380D01*
X25488095Y-1654761D01*
X25535714Y-1559523D01*
X25535714Y-1178571D01*
X25488095Y-1083333D01*
X25392857Y-1035714D01*
X25202380Y-1035714D01*
X25107142Y-1083333D01*
X25059523Y-1178571D01*
X25059523Y-1273809D01*
X25535714Y-1369047D01*
X24726190Y-1035714D02*
X24488095Y-1702380D01*
X24250000Y-1035714D01*
X23345238Y-1702380D02*
X23916666Y-1702380D01*
X23630952Y-1702380D02*
X23630952Y-702380D01*
X23726190Y-845238D01*
X23821428Y-940476D01*
X23916666Y-988095D01*
G04 #@! TO.C,U1*
X14900000Y-1500000D02*
X13800000Y-1500000D01*
X16300000Y-1500000D02*
X17400000Y-1500000D01*
X15600000Y-5900000D02*
X15600000Y-2200000D01*
X15600000Y-16100000D02*
X15600000Y-19700000D01*
X15200000Y-20500000D02*
X14400000Y-20500000D01*
X15900000Y-20500000D02*
X16800000Y-20500000D01*
X15200000Y-21000000D02*
X15900000Y-20500000D01*
X15200000Y-20000000D02*
X15200000Y-21000000D01*
X15900000Y-20500000D02*
X15200000Y-20000000D01*
X15900000Y-20000000D02*
X15900000Y-21000000D01*
D13*
X10590000Y-5990000D02*
X20610000Y-5990000D01*
X10590000Y-16010000D02*
X10590000Y-5990000D01*
X18030000Y-16010000D02*
X10590000Y-16010000D01*
X20610000Y-13430000D02*
X18030000Y-16010000D01*
X20610000Y-5990000D02*
X20610000Y-13430000D01*
G04 #@! TO.C,R_VAC_1*
X8600000Y-10020000D02*
X8600000Y-9690000D01*
X8600000Y-9690000D02*
X2180000Y-9690000D01*
X2180000Y-9690000D02*
X2180000Y-10020000D01*
X8600000Y-11980000D02*
X8600000Y-12310000D01*
X8600000Y-12310000D02*
X2180000Y-12310000D01*
X2180000Y-12310000D02*
X2180000Y-11980000D01*
G04 #@! TO.C,R_LED_1*
X23200000Y-7290000D02*
X23200000Y-7620000D01*
X16780000Y-7290000D02*
X23200000Y-7290000D01*
X16780000Y-7620000D02*
X16780000Y-7290000D01*
X23200000Y-9910000D02*
X23200000Y-9580000D01*
X16780000Y-9910000D02*
X23200000Y-9910000D01*
X16780000Y-9580000D02*
X16780000Y-9910000D01*
G04 #@! TO.C,C1*
X33496000Y-20410000D02*
X33810000Y-20410000D01*
X31190000Y-20410000D02*
X31504000Y-20410000D01*
X33496000Y-15590000D02*
X33810000Y-15590000D01*
X31190000Y-15590000D02*
X31504000Y-15590000D01*
X33810000Y-15590000D02*
X33810000Y-20410000D01*
X31190000Y-15590000D02*
X31190000Y-20410000D01*
G04 #@! TO.C,C2*
X34690000Y-15590000D02*
X34690000Y-20410000D01*
X37310000Y-15590000D02*
X37310000Y-20410000D01*
X34690000Y-15590000D02*
X35004000Y-15590000D01*
X36996000Y-15590000D02*
X37310000Y-15590000D01*
X34690000Y-20410000D02*
X35004000Y-20410000D01*
X36996000Y-20410000D02*
X37310000Y-20410000D01*
G04 #@! TO.C,U1*
D12*
X21342380Y-11738095D02*
X22151904Y-11738095D01*
X22247142Y-11785714D01*
X22294761Y-11833333D01*
X22342380Y-11928571D01*
X22342380Y-12119047D01*
X22294761Y-12214285D01*
X22247142Y-12261904D01*
X22151904Y-12309523D01*
X21342380Y-12309523D01*
X22342380Y-13309523D02*
X22342380Y-12738095D01*
X22342380Y-13023809D02*
X21342380Y-13023809D01*
X21485238Y-12928571D01*
X21580476Y-12833333D01*
X21628095Y-12738095D01*
X12052380Y-6971428D02*
X11052380Y-6971428D01*
X11052380Y-7209523D01*
X11100000Y-7352380D01*
X11195238Y-7447619D01*
X11290476Y-7495238D01*
X11480952Y-7542857D01*
X11623809Y-7542857D01*
X11814285Y-7495238D01*
X11909523Y-7447619D01*
X12004761Y-7352380D01*
X12052380Y-7209523D01*
X12052380Y-6971428D01*
X12052380Y-7971428D02*
X11052380Y-7971428D01*
X11576190Y-8638095D02*
X12052380Y-8638095D01*
X11052380Y-8304761D02*
X11576190Y-8638095D01*
X11052380Y-8971428D01*
X11052380Y-9923809D02*
X12052380Y-10257142D01*
X11052380Y-10590476D01*
X12052380Y-11352380D02*
X11528571Y-11352380D01*
X11433333Y-11304761D01*
X11385714Y-11209523D01*
X11385714Y-11019047D01*
X11433333Y-10923809D01*
X12004761Y-11352380D02*
X12052380Y-11257142D01*
X12052380Y-11019047D01*
X12004761Y-10923809D01*
X11909523Y-10876190D01*
X11814285Y-10876190D01*
X11719047Y-10923809D01*
X11671428Y-11019047D01*
X11671428Y-11257142D01*
X11623809Y-11352380D01*
X12004761Y-12257142D02*
X12052380Y-12161904D01*
X12052380Y-11971428D01*
X12004761Y-11876190D01*
X11957142Y-11828571D01*
X11861904Y-11780952D01*
X11576190Y-11780952D01*
X11480952Y-11828571D01*
X11433333Y-11876190D01*
X11385714Y-11971428D01*
X11385714Y-12161904D01*
X11433333Y-12257142D01*
X11385714Y-12542857D02*
X11385714Y-12923809D01*
X11052380Y-12685714D02*
X11909523Y-12685714D01*
X12004761Y-12733333D01*
X12052380Y-12828571D01*
X12052380Y-12923809D01*
X12052380Y-13257142D02*
X11385714Y-13257142D01*
X11576190Y-13257142D02*
X11480952Y-13304761D01*
X11433333Y-13352380D01*
X11385714Y-13447619D01*
X11385714Y-13542857D01*
X12052380Y-14019047D02*
X12004761Y-13923809D01*
X11957142Y-13876190D01*
X11861904Y-13828571D01*
X11576190Y-13828571D01*
X11480952Y-13876190D01*
X11433333Y-13923809D01*
X11385714Y-14019047D01*
X11385714Y-14161904D01*
X11433333Y-14257142D01*
X11480952Y-14304761D01*
X11576190Y-14352380D01*
X11861904Y-14352380D01*
X11957142Y-14304761D01*
X12004761Y-14257142D01*
X12052380Y-14161904D01*
X12052380Y-14019047D01*
X12052380Y-14923809D02*
X12004761Y-14828571D01*
X11909523Y-14780952D01*
X11052380Y-14780952D01*
G04 #@! TO.C,R_VAC_1*
X7485714Y-13852380D02*
X7819047Y-13376190D01*
X8057142Y-13852380D02*
X8057142Y-12852380D01*
X7676190Y-12852380D01*
X7580952Y-12900000D01*
X7533333Y-12947619D01*
X7485714Y-13042857D01*
X7485714Y-13185714D01*
X7533333Y-13280952D01*
X7580952Y-13328571D01*
X7676190Y-13376190D01*
X8057142Y-13376190D01*
X7295238Y-13947619D02*
X6533333Y-13947619D01*
X6438095Y-12852380D02*
X6104761Y-13852380D01*
X5771428Y-12852380D01*
X5485714Y-13566666D02*
X5009523Y-13566666D01*
X5580952Y-13852380D02*
X5247619Y-12852380D01*
X4914285Y-13852380D01*
X4009523Y-13757142D02*
X4057142Y-13804761D01*
X4200000Y-13852380D01*
X4295238Y-13852380D01*
X4438095Y-13804761D01*
X4533333Y-13709523D01*
X4580952Y-13614285D01*
X4628571Y-13423809D01*
X4628571Y-13280952D01*
X4580952Y-13090476D01*
X4533333Y-12995238D01*
X4438095Y-12900000D01*
X4295238Y-12852380D01*
X4200000Y-12852380D01*
X4057142Y-12900000D01*
X4009523Y-12947619D01*
X3819047Y-13947619D02*
X3057142Y-13947619D01*
X2295238Y-13852380D02*
X2866666Y-13852380D01*
X2580952Y-13852380D02*
X2580952Y-12852380D01*
X2676190Y-12995238D01*
X2771428Y-13090476D01*
X2866666Y-13138095D01*
G04 #@! TO.C,R_LED_1*
X30785714Y-8952380D02*
X31119047Y-8476190D01*
X31357142Y-8952380D02*
X31357142Y-7952380D01*
X30976190Y-7952380D01*
X30880952Y-8000000D01*
X30833333Y-8047619D01*
X30785714Y-8142857D01*
X30785714Y-8285714D01*
X30833333Y-8380952D01*
X30880952Y-8428571D01*
X30976190Y-8476190D01*
X31357142Y-8476190D01*
X30595238Y-9047619D02*
X29833333Y-9047619D01*
X29119047Y-8952380D02*
X29595238Y-8952380D01*
X29595238Y-7952380D01*
X28785714Y-8428571D02*
X28452380Y-8428571D01*
X28309523Y-8952380D02*
X28785714Y-8952380D01*
X28785714Y-7952380D01*
X28309523Y-7952380D01*
X27880952Y-8952380D02*
X27880952Y-7952380D01*
X27642857Y-7952380D01*
X27500000Y-8000000D01*
X27404761Y-8095238D01*
X27357142Y-8190476D01*
X27309523Y-8380952D01*
X27309523Y-8523809D01*
X27357142Y-8714285D01*
X27404761Y-8809523D01*
X27500000Y-8904761D01*
X27642857Y-8952380D01*
X27880952Y-8952380D01*
X27119047Y-9047619D02*
X26357142Y-9047619D01*
X25595238Y-8952380D02*
X26166666Y-8952380D01*
X25880952Y-8952380D02*
X25880952Y-7952380D01*
X25976190Y-8095238D01*
X26071428Y-8190476D01*
X26166666Y-8238095D01*
G04 #@! TO.C,C1*
X32857142Y-12733333D02*
X32904761Y-12685714D01*
X32952380Y-12542857D01*
X32952380Y-12447619D01*
X32904761Y-12304761D01*
X32809523Y-12209523D01*
X32714285Y-12161904D01*
X32523809Y-12114285D01*
X32380952Y-12114285D01*
X32190476Y-12161904D01*
X32095238Y-12209523D01*
X32000000Y-12304761D01*
X31952380Y-12447619D01*
X31952380Y-12542857D01*
X32000000Y-12685714D01*
X32047619Y-12733333D01*
X32952380Y-13685714D02*
X32952380Y-13114285D01*
X32952380Y-13400000D02*
X31952380Y-13400000D01*
X32095238Y-13304761D01*
X32190476Y-13209523D01*
X32238095Y-13114285D01*
G04 #@! TO.C,C2*
X36357142Y-12733333D02*
X36404761Y-12685714D01*
X36452380Y-12542857D01*
X36452380Y-12447619D01*
X36404761Y-12304761D01*
X36309523Y-12209523D01*
X36214285Y-12161904D01*
X36023809Y-12114285D01*
X35880952Y-12114285D01*
X35690476Y-12161904D01*
X35595238Y-12209523D01*
X35500000Y-12304761D01*
X35452380Y-12447619D01*
X35452380Y-12542857D01*
X35500000Y-12685714D01*
X35547619Y-12733333D01*
X35547619Y-13114285D02*
X35500000Y-13161904D01*
X35452380Y-13257142D01*
X35452380Y-13495238D01*
X35500000Y-13590476D01*
X35547619Y-13638095D01*
X35642857Y-13685714D01*
X35738095Y-13685714D01*
X35880952Y-13638095D01*
X36452380Y-13066666D01*
X36452380Y-13685714D01*
G04 #@! TD*
M02*
