G04 #@! TF.GenerationSoftware,KiCad,Pcbnew,(5.0.0)*
G04 #@! TF.CreationDate,2018-08-12T22:01:39+02:00*
G04 #@! TF.ProjectId,twobytwo_tone_rev1_panel,74776F627974776F5F746F6E655F7265,rev?*
G04 #@! TF.SameCoordinates,Original*
G04 #@! TF.FileFunction,Copper,L1,Top,Signal*
G04 #@! TF.FilePolarity,Positive*
%FSLAX46Y46*%
G04 Gerber Fmt 4.6, Leading zero omitted, Abs format (unit mm)*
G04 Created by KiCad (PCBNEW (5.0.0)) date 08/12/18 22:01:39*
%MOMM*%
%LPD*%
G01*
G04 APERTURE LIST*
G04 #@! TA.AperFunction,ComponentPad*
%ADD10C,6.200000*%
G04 #@! TD*
G04 #@! TA.AperFunction,ComponentPad*
%ADD11C,3.200000*%
G04 #@! TD*
G04 #@! TA.AperFunction,ComponentPad*
%ADD12C,10.000000*%
G04 #@! TD*
G04 #@! TA.AperFunction,NonConductor*
%ADD13C,0.254000*%
G04 #@! TD*
G04 APERTURE END LIST*
D10*
G04 #@! TO.P,REF\002A\002A,*
G04 #@! TO.N,*
X22500000Y-43990000D03*
G04 #@! TD*
G04 #@! TO.P,REF\002A\002A,*
G04 #@! TO.N,*
X22500000Y-110490000D03*
G04 #@! TD*
D11*
G04 #@! TO.P,REF\002A\002A,*
G04 #@! TO.N,*
X22500000Y-76750000D03*
G04 #@! TD*
G04 #@! TO.P,REF\002A\002A,*
G04 #@! TO.N,*
X22500000Y-21750000D03*
G04 #@! TD*
D10*
G04 #@! TO.P,REF\002A\002A,*
G04 #@! TO.N,*
X22500000Y-55490000D03*
G04 #@! TD*
G04 #@! TO.P,REF\002A\002A,*
G04 #@! TO.N,*
X22500000Y-84240000D03*
G04 #@! TD*
G04 #@! TO.P,REF\002A\002A,*
G04 #@! TO.N,*
X22500000Y-14490000D03*
G04 #@! TD*
D12*
G04 #@! TO.P,REF\002A\002A,*
G04 #@! TO.N,*
X22500000Y-98990000D03*
G04 #@! TD*
D10*
G04 #@! TO.P,REF\002A\002A,*
G04 #@! TO.N,*
X22500000Y-29240000D03*
G04 #@! TD*
G04 #@! TO.P,REF\002A\002A,*
G04 #@! TO.N,*
X22500000Y-69490000D03*
G04 #@! TD*
D11*
G04 #@! TO.P,REF\002A\002A,*
G04 #@! TO.N,*
X7500000Y-3000000D03*
G04 #@! TD*
G04 #@! TO.P,REF\002A\002A,*
G04 #@! TO.N,*
X7500000Y-125500000D03*
G04 #@! TD*
D10*
G04 #@! TO.P,REF\002A\002A,*
G04 #@! TO.N,*
X7500000Y-14490000D03*
G04 #@! TD*
G04 #@! TO.P,REF\002A\002A,*
G04 #@! TO.N,*
X7500000Y-110490000D03*
G04 #@! TD*
G04 #@! TO.P,REF\002A\002A,*
G04 #@! TO.N,*
X7500000Y-98990000D03*
G04 #@! TD*
G04 #@! TO.P,REF\002A\002A,*
G04 #@! TO.N,*
X7500000Y-84240000D03*
G04 #@! TD*
G04 #@! TO.P,REF\002A\002A,*
G04 #@! TO.N,*
X7500000Y-69490000D03*
G04 #@! TD*
G04 #@! TO.P,REF\002A\002A,*
G04 #@! TO.N,*
X7500000Y-55490000D03*
G04 #@! TD*
G04 #@! TO.P,REF\002A\002A,*
G04 #@! TO.N,*
X7500000Y-29240000D03*
G04 #@! TD*
D12*
G04 #@! TO.P,REF\002A\002A,*
G04 #@! TO.N,*
X7500000Y-43990000D03*
G04 #@! TD*
D11*
G04 #@! TO.P,REF\002A\002A,*
G04 #@! TO.N,*
X7500000Y-21750000D03*
G04 #@! TD*
G04 #@! TO.P,REF\002A\002A,*
G04 #@! TO.N,*
X7500000Y-76750000D03*
G04 #@! TD*
D13*
G36*
X29773001Y-128273000D02*
X227000Y-128273000D01*
X227000Y-125156478D01*
X5773000Y-125156478D01*
X5773000Y-125843522D01*
X6035920Y-126478267D01*
X6521733Y-126964080D01*
X7156478Y-127227000D01*
X7843522Y-127227000D01*
X8478267Y-126964080D01*
X8964080Y-126478267D01*
X9227000Y-125843522D01*
X9227000Y-125156478D01*
X8964080Y-124521733D01*
X8478267Y-124035920D01*
X7843522Y-123773000D01*
X7156478Y-123773000D01*
X6521733Y-124035920D01*
X6035920Y-124521733D01*
X5773000Y-125156478D01*
X227000Y-125156478D01*
X227000Y-109848110D01*
X4273000Y-109848110D01*
X4273000Y-111131890D01*
X4764281Y-112317949D01*
X5672051Y-113225719D01*
X6858110Y-113717000D01*
X8141890Y-113717000D01*
X9327949Y-113225719D01*
X10235719Y-112317949D01*
X10727000Y-111131890D01*
X10727000Y-109848110D01*
X19273000Y-109848110D01*
X19273000Y-111131890D01*
X19764281Y-112317949D01*
X20672051Y-113225719D01*
X21858110Y-113717000D01*
X23141890Y-113717000D01*
X24327949Y-113225719D01*
X25235719Y-112317949D01*
X25727000Y-111131890D01*
X25727000Y-109848110D01*
X25235719Y-108662051D01*
X24327949Y-107754281D01*
X23141890Y-107263000D01*
X21858110Y-107263000D01*
X20672051Y-107754281D01*
X19764281Y-108662051D01*
X19273000Y-109848110D01*
X10727000Y-109848110D01*
X10235719Y-108662051D01*
X9327949Y-107754281D01*
X8141890Y-107263000D01*
X6858110Y-107263000D01*
X5672051Y-107754281D01*
X4764281Y-108662051D01*
X4273000Y-109848110D01*
X227000Y-109848110D01*
X227000Y-98348110D01*
X4273000Y-98348110D01*
X4273000Y-99631890D01*
X4764281Y-100817949D01*
X5672051Y-101725719D01*
X6858110Y-102217000D01*
X8141890Y-102217000D01*
X9327949Y-101725719D01*
X10235719Y-100817949D01*
X10727000Y-99631890D01*
X10727000Y-98348110D01*
X10570455Y-97970176D01*
X17373000Y-97970176D01*
X17373000Y-100009824D01*
X18153539Y-101894212D01*
X19595788Y-103336461D01*
X21480176Y-104117000D01*
X23519824Y-104117000D01*
X25404212Y-103336461D01*
X26846461Y-101894212D01*
X27627000Y-100009824D01*
X27627000Y-97970176D01*
X26846461Y-96085788D01*
X25404212Y-94643539D01*
X23519824Y-93863000D01*
X21480176Y-93863000D01*
X19595788Y-94643539D01*
X18153539Y-96085788D01*
X17373000Y-97970176D01*
X10570455Y-97970176D01*
X10235719Y-97162051D01*
X9327949Y-96254281D01*
X8141890Y-95763000D01*
X6858110Y-95763000D01*
X5672051Y-96254281D01*
X4764281Y-97162051D01*
X4273000Y-98348110D01*
X227000Y-98348110D01*
X227000Y-83598110D01*
X4273000Y-83598110D01*
X4273000Y-84881890D01*
X4764281Y-86067949D01*
X5672051Y-86975719D01*
X6858110Y-87467000D01*
X8141890Y-87467000D01*
X9327949Y-86975719D01*
X10235719Y-86067949D01*
X10727000Y-84881890D01*
X10727000Y-83598110D01*
X19273000Y-83598110D01*
X19273000Y-84881890D01*
X19764281Y-86067949D01*
X20672051Y-86975719D01*
X21858110Y-87467000D01*
X23141890Y-87467000D01*
X24327949Y-86975719D01*
X25235719Y-86067949D01*
X25727000Y-84881890D01*
X25727000Y-83598110D01*
X25235719Y-82412051D01*
X24327949Y-81504281D01*
X23141890Y-81013000D01*
X21858110Y-81013000D01*
X20672051Y-81504281D01*
X19764281Y-82412051D01*
X19273000Y-83598110D01*
X10727000Y-83598110D01*
X10235719Y-82412051D01*
X9327949Y-81504281D01*
X8141890Y-81013000D01*
X6858110Y-81013000D01*
X5672051Y-81504281D01*
X4764281Y-82412051D01*
X4273000Y-83598110D01*
X227000Y-83598110D01*
X227000Y-76406478D01*
X5773000Y-76406478D01*
X5773000Y-77093522D01*
X6035920Y-77728267D01*
X6521733Y-78214080D01*
X7156478Y-78477000D01*
X7843522Y-78477000D01*
X8478267Y-78214080D01*
X8964080Y-77728267D01*
X9227000Y-77093522D01*
X9227000Y-76406478D01*
X20773000Y-76406478D01*
X20773000Y-77093522D01*
X21035920Y-77728267D01*
X21521733Y-78214080D01*
X22156478Y-78477000D01*
X22843522Y-78477000D01*
X23478267Y-78214080D01*
X23964080Y-77728267D01*
X24227000Y-77093522D01*
X24227000Y-76406478D01*
X23964080Y-75771733D01*
X23478267Y-75285920D01*
X22843522Y-75023000D01*
X22156478Y-75023000D01*
X21521733Y-75285920D01*
X21035920Y-75771733D01*
X20773000Y-76406478D01*
X9227000Y-76406478D01*
X8964080Y-75771733D01*
X8478267Y-75285920D01*
X7843522Y-75023000D01*
X7156478Y-75023000D01*
X6521733Y-75285920D01*
X6035920Y-75771733D01*
X5773000Y-76406478D01*
X227000Y-76406478D01*
X227000Y-68848110D01*
X4273000Y-68848110D01*
X4273000Y-70131890D01*
X4764281Y-71317949D01*
X5672051Y-72225719D01*
X6858110Y-72717000D01*
X8141890Y-72717000D01*
X9327949Y-72225719D01*
X10235719Y-71317949D01*
X10727000Y-70131890D01*
X10727000Y-68848110D01*
X19273000Y-68848110D01*
X19273000Y-70131890D01*
X19764281Y-71317949D01*
X20672051Y-72225719D01*
X21858110Y-72717000D01*
X23141890Y-72717000D01*
X24327949Y-72225719D01*
X25235719Y-71317949D01*
X25727000Y-70131890D01*
X25727000Y-68848110D01*
X25235719Y-67662051D01*
X24327949Y-66754281D01*
X23141890Y-66263000D01*
X21858110Y-66263000D01*
X20672051Y-66754281D01*
X19764281Y-67662051D01*
X19273000Y-68848110D01*
X10727000Y-68848110D01*
X10235719Y-67662051D01*
X9327949Y-66754281D01*
X8141890Y-66263000D01*
X6858110Y-66263000D01*
X5672051Y-66754281D01*
X4764281Y-67662051D01*
X4273000Y-68848110D01*
X227000Y-68848110D01*
X227000Y-54848110D01*
X4273000Y-54848110D01*
X4273000Y-56131890D01*
X4764281Y-57317949D01*
X5672051Y-58225719D01*
X6858110Y-58717000D01*
X8141890Y-58717000D01*
X9327949Y-58225719D01*
X10235719Y-57317949D01*
X10727000Y-56131890D01*
X10727000Y-54848110D01*
X19273000Y-54848110D01*
X19273000Y-56131890D01*
X19764281Y-57317949D01*
X20672051Y-58225719D01*
X21858110Y-58717000D01*
X23141890Y-58717000D01*
X24327949Y-58225719D01*
X25235719Y-57317949D01*
X25727000Y-56131890D01*
X25727000Y-54848110D01*
X25235719Y-53662051D01*
X24327949Y-52754281D01*
X23141890Y-52263000D01*
X21858110Y-52263000D01*
X20672051Y-52754281D01*
X19764281Y-53662051D01*
X19273000Y-54848110D01*
X10727000Y-54848110D01*
X10235719Y-53662051D01*
X9327949Y-52754281D01*
X8141890Y-52263000D01*
X6858110Y-52263000D01*
X5672051Y-52754281D01*
X4764281Y-53662051D01*
X4273000Y-54848110D01*
X227000Y-54848110D01*
X227000Y-42970176D01*
X2373000Y-42970176D01*
X2373000Y-45009824D01*
X3153539Y-46894212D01*
X4595788Y-48336461D01*
X6480176Y-49117000D01*
X8519824Y-49117000D01*
X10404212Y-48336461D01*
X11846461Y-46894212D01*
X12627000Y-45009824D01*
X12627000Y-43348110D01*
X19273000Y-43348110D01*
X19273000Y-44631890D01*
X19764281Y-45817949D01*
X20672051Y-46725719D01*
X21858110Y-47217000D01*
X23141890Y-47217000D01*
X24327949Y-46725719D01*
X25235719Y-45817949D01*
X25727000Y-44631890D01*
X25727000Y-43348110D01*
X25235719Y-42162051D01*
X24327949Y-41254281D01*
X23141890Y-40763000D01*
X21858110Y-40763000D01*
X20672051Y-41254281D01*
X19764281Y-42162051D01*
X19273000Y-43348110D01*
X12627000Y-43348110D01*
X12627000Y-42970176D01*
X11846461Y-41085788D01*
X10404212Y-39643539D01*
X8519824Y-38863000D01*
X6480176Y-38863000D01*
X4595788Y-39643539D01*
X3153539Y-41085788D01*
X2373000Y-42970176D01*
X227000Y-42970176D01*
X227000Y-28598110D01*
X4273000Y-28598110D01*
X4273000Y-29881890D01*
X4764281Y-31067949D01*
X5672051Y-31975719D01*
X6858110Y-32467000D01*
X8141890Y-32467000D01*
X9327949Y-31975719D01*
X10235719Y-31067949D01*
X10727000Y-29881890D01*
X10727000Y-28598110D01*
X19273000Y-28598110D01*
X19273000Y-29881890D01*
X19764281Y-31067949D01*
X20672051Y-31975719D01*
X21858110Y-32467000D01*
X23141890Y-32467000D01*
X24327949Y-31975719D01*
X25235719Y-31067949D01*
X25727000Y-29881890D01*
X25727000Y-28598110D01*
X25235719Y-27412051D01*
X24327949Y-26504281D01*
X23141890Y-26013000D01*
X21858110Y-26013000D01*
X20672051Y-26504281D01*
X19764281Y-27412051D01*
X19273000Y-28598110D01*
X10727000Y-28598110D01*
X10235719Y-27412051D01*
X9327949Y-26504281D01*
X8141890Y-26013000D01*
X6858110Y-26013000D01*
X5672051Y-26504281D01*
X4764281Y-27412051D01*
X4273000Y-28598110D01*
X227000Y-28598110D01*
X227000Y-21406478D01*
X5773000Y-21406478D01*
X5773000Y-22093522D01*
X6035920Y-22728267D01*
X6521733Y-23214080D01*
X7156478Y-23477000D01*
X7843522Y-23477000D01*
X8478267Y-23214080D01*
X8964080Y-22728267D01*
X9227000Y-22093522D01*
X9227000Y-21406478D01*
X20773000Y-21406478D01*
X20773000Y-22093522D01*
X21035920Y-22728267D01*
X21521733Y-23214080D01*
X22156478Y-23477000D01*
X22843522Y-23477000D01*
X23478267Y-23214080D01*
X23964080Y-22728267D01*
X24227000Y-22093522D01*
X24227000Y-21406478D01*
X23964080Y-20771733D01*
X23478267Y-20285920D01*
X22843522Y-20023000D01*
X22156478Y-20023000D01*
X21521733Y-20285920D01*
X21035920Y-20771733D01*
X20773000Y-21406478D01*
X9227000Y-21406478D01*
X8964080Y-20771733D01*
X8478267Y-20285920D01*
X7843522Y-20023000D01*
X7156478Y-20023000D01*
X6521733Y-20285920D01*
X6035920Y-20771733D01*
X5773000Y-21406478D01*
X227000Y-21406478D01*
X227000Y-13848110D01*
X4273000Y-13848110D01*
X4273000Y-15131890D01*
X4764281Y-16317949D01*
X5672051Y-17225719D01*
X6858110Y-17717000D01*
X8141890Y-17717000D01*
X9327949Y-17225719D01*
X10235719Y-16317949D01*
X10727000Y-15131890D01*
X10727000Y-13848110D01*
X19273000Y-13848110D01*
X19273000Y-15131890D01*
X19764281Y-16317949D01*
X20672051Y-17225719D01*
X21858110Y-17717000D01*
X23141890Y-17717000D01*
X24327949Y-17225719D01*
X25235719Y-16317949D01*
X25727000Y-15131890D01*
X25727000Y-13848110D01*
X25235719Y-12662051D01*
X24327949Y-11754281D01*
X23141890Y-11263000D01*
X21858110Y-11263000D01*
X20672051Y-11754281D01*
X19764281Y-12662051D01*
X19273000Y-13848110D01*
X10727000Y-13848110D01*
X10235719Y-12662051D01*
X9327949Y-11754281D01*
X8141890Y-11263000D01*
X6858110Y-11263000D01*
X5672051Y-11754281D01*
X4764281Y-12662051D01*
X4273000Y-13848110D01*
X227000Y-13848110D01*
X227000Y-2656478D01*
X5773000Y-2656478D01*
X5773000Y-3343522D01*
X6035920Y-3978267D01*
X6521733Y-4464080D01*
X7156478Y-4727000D01*
X7843522Y-4727000D01*
X8478267Y-4464080D01*
X8964080Y-3978267D01*
X9227000Y-3343522D01*
X9227000Y-2656478D01*
X8964080Y-2021733D01*
X8478267Y-1535920D01*
X7843522Y-1273000D01*
X7156478Y-1273000D01*
X6521733Y-1535920D01*
X6035920Y-2021733D01*
X5773000Y-2656478D01*
X227000Y-2656478D01*
X227000Y-227000D01*
X29773000Y-227000D01*
X29773001Y-128273000D01*
X29773001Y-128273000D01*
G37*
X29773001Y-128273000D02*
X227000Y-128273000D01*
X227000Y-125156478D01*
X5773000Y-125156478D01*
X5773000Y-125843522D01*
X6035920Y-126478267D01*
X6521733Y-126964080D01*
X7156478Y-127227000D01*
X7843522Y-127227000D01*
X8478267Y-126964080D01*
X8964080Y-126478267D01*
X9227000Y-125843522D01*
X9227000Y-125156478D01*
X8964080Y-124521733D01*
X8478267Y-124035920D01*
X7843522Y-123773000D01*
X7156478Y-123773000D01*
X6521733Y-124035920D01*
X6035920Y-124521733D01*
X5773000Y-125156478D01*
X227000Y-125156478D01*
X227000Y-109848110D01*
X4273000Y-109848110D01*
X4273000Y-111131890D01*
X4764281Y-112317949D01*
X5672051Y-113225719D01*
X6858110Y-113717000D01*
X8141890Y-113717000D01*
X9327949Y-113225719D01*
X10235719Y-112317949D01*
X10727000Y-111131890D01*
X10727000Y-109848110D01*
X19273000Y-109848110D01*
X19273000Y-111131890D01*
X19764281Y-112317949D01*
X20672051Y-113225719D01*
X21858110Y-113717000D01*
X23141890Y-113717000D01*
X24327949Y-113225719D01*
X25235719Y-112317949D01*
X25727000Y-111131890D01*
X25727000Y-109848110D01*
X25235719Y-108662051D01*
X24327949Y-107754281D01*
X23141890Y-107263000D01*
X21858110Y-107263000D01*
X20672051Y-107754281D01*
X19764281Y-108662051D01*
X19273000Y-109848110D01*
X10727000Y-109848110D01*
X10235719Y-108662051D01*
X9327949Y-107754281D01*
X8141890Y-107263000D01*
X6858110Y-107263000D01*
X5672051Y-107754281D01*
X4764281Y-108662051D01*
X4273000Y-109848110D01*
X227000Y-109848110D01*
X227000Y-98348110D01*
X4273000Y-98348110D01*
X4273000Y-99631890D01*
X4764281Y-100817949D01*
X5672051Y-101725719D01*
X6858110Y-102217000D01*
X8141890Y-102217000D01*
X9327949Y-101725719D01*
X10235719Y-100817949D01*
X10727000Y-99631890D01*
X10727000Y-98348110D01*
X10570455Y-97970176D01*
X17373000Y-97970176D01*
X17373000Y-100009824D01*
X18153539Y-101894212D01*
X19595788Y-103336461D01*
X21480176Y-104117000D01*
X23519824Y-104117000D01*
X25404212Y-103336461D01*
X26846461Y-101894212D01*
X27627000Y-100009824D01*
X27627000Y-97970176D01*
X26846461Y-96085788D01*
X25404212Y-94643539D01*
X23519824Y-93863000D01*
X21480176Y-93863000D01*
X19595788Y-94643539D01*
X18153539Y-96085788D01*
X17373000Y-97970176D01*
X10570455Y-97970176D01*
X10235719Y-97162051D01*
X9327949Y-96254281D01*
X8141890Y-95763000D01*
X6858110Y-95763000D01*
X5672051Y-96254281D01*
X4764281Y-97162051D01*
X4273000Y-98348110D01*
X227000Y-98348110D01*
X227000Y-83598110D01*
X4273000Y-83598110D01*
X4273000Y-84881890D01*
X4764281Y-86067949D01*
X5672051Y-86975719D01*
X6858110Y-87467000D01*
X8141890Y-87467000D01*
X9327949Y-86975719D01*
X10235719Y-86067949D01*
X10727000Y-84881890D01*
X10727000Y-83598110D01*
X19273000Y-83598110D01*
X19273000Y-84881890D01*
X19764281Y-86067949D01*
X20672051Y-86975719D01*
X21858110Y-87467000D01*
X23141890Y-87467000D01*
X24327949Y-86975719D01*
X25235719Y-86067949D01*
X25727000Y-84881890D01*
X25727000Y-83598110D01*
X25235719Y-82412051D01*
X24327949Y-81504281D01*
X23141890Y-81013000D01*
X21858110Y-81013000D01*
X20672051Y-81504281D01*
X19764281Y-82412051D01*
X19273000Y-83598110D01*
X10727000Y-83598110D01*
X10235719Y-82412051D01*
X9327949Y-81504281D01*
X8141890Y-81013000D01*
X6858110Y-81013000D01*
X5672051Y-81504281D01*
X4764281Y-82412051D01*
X4273000Y-83598110D01*
X227000Y-83598110D01*
X227000Y-76406478D01*
X5773000Y-76406478D01*
X5773000Y-77093522D01*
X6035920Y-77728267D01*
X6521733Y-78214080D01*
X7156478Y-78477000D01*
X7843522Y-78477000D01*
X8478267Y-78214080D01*
X8964080Y-77728267D01*
X9227000Y-77093522D01*
X9227000Y-76406478D01*
X20773000Y-76406478D01*
X20773000Y-77093522D01*
X21035920Y-77728267D01*
X21521733Y-78214080D01*
X22156478Y-78477000D01*
X22843522Y-78477000D01*
X23478267Y-78214080D01*
X23964080Y-77728267D01*
X24227000Y-77093522D01*
X24227000Y-76406478D01*
X23964080Y-75771733D01*
X23478267Y-75285920D01*
X22843522Y-75023000D01*
X22156478Y-75023000D01*
X21521733Y-75285920D01*
X21035920Y-75771733D01*
X20773000Y-76406478D01*
X9227000Y-76406478D01*
X8964080Y-75771733D01*
X8478267Y-75285920D01*
X7843522Y-75023000D01*
X7156478Y-75023000D01*
X6521733Y-75285920D01*
X6035920Y-75771733D01*
X5773000Y-76406478D01*
X227000Y-76406478D01*
X227000Y-68848110D01*
X4273000Y-68848110D01*
X4273000Y-70131890D01*
X4764281Y-71317949D01*
X5672051Y-72225719D01*
X6858110Y-72717000D01*
X8141890Y-72717000D01*
X9327949Y-72225719D01*
X10235719Y-71317949D01*
X10727000Y-70131890D01*
X10727000Y-68848110D01*
X19273000Y-68848110D01*
X19273000Y-70131890D01*
X19764281Y-71317949D01*
X20672051Y-72225719D01*
X21858110Y-72717000D01*
X23141890Y-72717000D01*
X24327949Y-72225719D01*
X25235719Y-71317949D01*
X25727000Y-70131890D01*
X25727000Y-68848110D01*
X25235719Y-67662051D01*
X24327949Y-66754281D01*
X23141890Y-66263000D01*
X21858110Y-66263000D01*
X20672051Y-66754281D01*
X19764281Y-67662051D01*
X19273000Y-68848110D01*
X10727000Y-68848110D01*
X10235719Y-67662051D01*
X9327949Y-66754281D01*
X8141890Y-66263000D01*
X6858110Y-66263000D01*
X5672051Y-66754281D01*
X4764281Y-67662051D01*
X4273000Y-68848110D01*
X227000Y-68848110D01*
X227000Y-54848110D01*
X4273000Y-54848110D01*
X4273000Y-56131890D01*
X4764281Y-57317949D01*
X5672051Y-58225719D01*
X6858110Y-58717000D01*
X8141890Y-58717000D01*
X9327949Y-58225719D01*
X10235719Y-57317949D01*
X10727000Y-56131890D01*
X10727000Y-54848110D01*
X19273000Y-54848110D01*
X19273000Y-56131890D01*
X19764281Y-57317949D01*
X20672051Y-58225719D01*
X21858110Y-58717000D01*
X23141890Y-58717000D01*
X24327949Y-58225719D01*
X25235719Y-57317949D01*
X25727000Y-56131890D01*
X25727000Y-54848110D01*
X25235719Y-53662051D01*
X24327949Y-52754281D01*
X23141890Y-52263000D01*
X21858110Y-52263000D01*
X20672051Y-52754281D01*
X19764281Y-53662051D01*
X19273000Y-54848110D01*
X10727000Y-54848110D01*
X10235719Y-53662051D01*
X9327949Y-52754281D01*
X8141890Y-52263000D01*
X6858110Y-52263000D01*
X5672051Y-52754281D01*
X4764281Y-53662051D01*
X4273000Y-54848110D01*
X227000Y-54848110D01*
X227000Y-42970176D01*
X2373000Y-42970176D01*
X2373000Y-45009824D01*
X3153539Y-46894212D01*
X4595788Y-48336461D01*
X6480176Y-49117000D01*
X8519824Y-49117000D01*
X10404212Y-48336461D01*
X11846461Y-46894212D01*
X12627000Y-45009824D01*
X12627000Y-43348110D01*
X19273000Y-43348110D01*
X19273000Y-44631890D01*
X19764281Y-45817949D01*
X20672051Y-46725719D01*
X21858110Y-47217000D01*
X23141890Y-47217000D01*
X24327949Y-46725719D01*
X25235719Y-45817949D01*
X25727000Y-44631890D01*
X25727000Y-43348110D01*
X25235719Y-42162051D01*
X24327949Y-41254281D01*
X23141890Y-40763000D01*
X21858110Y-40763000D01*
X20672051Y-41254281D01*
X19764281Y-42162051D01*
X19273000Y-43348110D01*
X12627000Y-43348110D01*
X12627000Y-42970176D01*
X11846461Y-41085788D01*
X10404212Y-39643539D01*
X8519824Y-38863000D01*
X6480176Y-38863000D01*
X4595788Y-39643539D01*
X3153539Y-41085788D01*
X2373000Y-42970176D01*
X227000Y-42970176D01*
X227000Y-28598110D01*
X4273000Y-28598110D01*
X4273000Y-29881890D01*
X4764281Y-31067949D01*
X5672051Y-31975719D01*
X6858110Y-32467000D01*
X8141890Y-32467000D01*
X9327949Y-31975719D01*
X10235719Y-31067949D01*
X10727000Y-29881890D01*
X10727000Y-28598110D01*
X19273000Y-28598110D01*
X19273000Y-29881890D01*
X19764281Y-31067949D01*
X20672051Y-31975719D01*
X21858110Y-32467000D01*
X23141890Y-32467000D01*
X24327949Y-31975719D01*
X25235719Y-31067949D01*
X25727000Y-29881890D01*
X25727000Y-28598110D01*
X25235719Y-27412051D01*
X24327949Y-26504281D01*
X23141890Y-26013000D01*
X21858110Y-26013000D01*
X20672051Y-26504281D01*
X19764281Y-27412051D01*
X19273000Y-28598110D01*
X10727000Y-28598110D01*
X10235719Y-27412051D01*
X9327949Y-26504281D01*
X8141890Y-26013000D01*
X6858110Y-26013000D01*
X5672051Y-26504281D01*
X4764281Y-27412051D01*
X4273000Y-28598110D01*
X227000Y-28598110D01*
X227000Y-21406478D01*
X5773000Y-21406478D01*
X5773000Y-22093522D01*
X6035920Y-22728267D01*
X6521733Y-23214080D01*
X7156478Y-23477000D01*
X7843522Y-23477000D01*
X8478267Y-23214080D01*
X8964080Y-22728267D01*
X9227000Y-22093522D01*
X9227000Y-21406478D01*
X20773000Y-21406478D01*
X20773000Y-22093522D01*
X21035920Y-22728267D01*
X21521733Y-23214080D01*
X22156478Y-23477000D01*
X22843522Y-23477000D01*
X23478267Y-23214080D01*
X23964080Y-22728267D01*
X24227000Y-22093522D01*
X24227000Y-21406478D01*
X23964080Y-20771733D01*
X23478267Y-20285920D01*
X22843522Y-20023000D01*
X22156478Y-20023000D01*
X21521733Y-20285920D01*
X21035920Y-20771733D01*
X20773000Y-21406478D01*
X9227000Y-21406478D01*
X8964080Y-20771733D01*
X8478267Y-20285920D01*
X7843522Y-20023000D01*
X7156478Y-20023000D01*
X6521733Y-20285920D01*
X6035920Y-20771733D01*
X5773000Y-21406478D01*
X227000Y-21406478D01*
X227000Y-13848110D01*
X4273000Y-13848110D01*
X4273000Y-15131890D01*
X4764281Y-16317949D01*
X5672051Y-17225719D01*
X6858110Y-17717000D01*
X8141890Y-17717000D01*
X9327949Y-17225719D01*
X10235719Y-16317949D01*
X10727000Y-15131890D01*
X10727000Y-13848110D01*
X19273000Y-13848110D01*
X19273000Y-15131890D01*
X19764281Y-16317949D01*
X20672051Y-17225719D01*
X21858110Y-17717000D01*
X23141890Y-17717000D01*
X24327949Y-17225719D01*
X25235719Y-16317949D01*
X25727000Y-15131890D01*
X25727000Y-13848110D01*
X25235719Y-12662051D01*
X24327949Y-11754281D01*
X23141890Y-11263000D01*
X21858110Y-11263000D01*
X20672051Y-11754281D01*
X19764281Y-12662051D01*
X19273000Y-13848110D01*
X10727000Y-13848110D01*
X10235719Y-12662051D01*
X9327949Y-11754281D01*
X8141890Y-11263000D01*
X6858110Y-11263000D01*
X5672051Y-11754281D01*
X4764281Y-12662051D01*
X4273000Y-13848110D01*
X227000Y-13848110D01*
X227000Y-2656478D01*
X5773000Y-2656478D01*
X5773000Y-3343522D01*
X6035920Y-3978267D01*
X6521733Y-4464080D01*
X7156478Y-4727000D01*
X7843522Y-4727000D01*
X8478267Y-4464080D01*
X8964080Y-3978267D01*
X9227000Y-3343522D01*
X9227000Y-2656478D01*
X8964080Y-2021733D01*
X8478267Y-1535920D01*
X7843522Y-1273000D01*
X7156478Y-1273000D01*
X6521733Y-1535920D01*
X6035920Y-2021733D01*
X5773000Y-2656478D01*
X227000Y-2656478D01*
X227000Y-227000D01*
X29773000Y-227000D01*
X29773001Y-128273000D01*
M02*
