M48
;DRILL file {KiCad (5.0.0)} date 08/12/18 22:01:35
;FORMAT={-:-/ absolute / inch / decimal}
FMAT,2
INCH,TZ
T1C0.1260
T2C0.2441
%
G90
G05
M72
T1
X0.8858Y-0.8563
X0.8858Y-3.0217
X0.2953Y-0.1181
X0.2953Y-3.0217
X0.2953Y-0.8563
X0.2953Y-4.9409
T2
X0.8858Y-1.1512
X0.8858Y-2.7358
X0.2953Y-2.1846
X0.8858Y-3.8972
X0.8858Y-0.5705
X0.2953Y-1.1512
X0.8858Y-4.35
X0.2953Y-3.3165
X0.2953Y-1.7319
X0.2953Y-4.35
X0.2953Y-3.8972
X0.8858Y-3.3165
X0.8858Y-2.1846
X0.2953Y-2.7358
X0.2953Y-0.5705
X0.8858Y-1.7319
T0
M30
