G04 #@! TF.GenerationSoftware,KiCad,Pcbnew,(5.0.0)*
G04 #@! TF.CreationDate,2018-08-12T22:01:39+02:00*
G04 #@! TF.ProjectId,twobytwo_tone_rev1_panel,74776F627974776F5F746F6E655F7265,rev?*
G04 #@! TF.SameCoordinates,Original*
G04 #@! TF.FileFunction,Soldermask,Bot*
G04 #@! TF.FilePolarity,Negative*
%FSLAX46Y46*%
G04 Gerber Fmt 4.6, Leading zero omitted, Abs format (unit mm)*
G04 Created by KiCad (PCBNEW (5.0.0)) date 08/12/18 22:01:39*
%MOMM*%
%LPD*%
G01*
G04 APERTURE LIST*
%ADD10C,0.300000*%
%ADD11C,0.125000*%
%ADD12C,0.187500*%
%ADD13C,5.700000*%
%ADD14C,2.700000*%
%ADD15C,9.500000*%
G04 APERTURE END LIST*
D10*
X1500000Y-126785714D02*
X1428571Y-126857142D01*
X1500000Y-126928571D01*
X1571428Y-126857142D01*
X1500000Y-126785714D01*
X1500000Y-126928571D01*
X1500000Y-126357142D02*
X1571428Y-125500000D01*
X1500000Y-125428571D01*
X1428571Y-125500000D01*
X1500000Y-126357142D01*
X1500000Y-125428571D01*
X28500000Y-126535714D02*
X28428571Y-126607142D01*
X28500000Y-126678571D01*
X28571428Y-126607142D01*
X28500000Y-126535714D01*
X28500000Y-126678571D01*
X28500000Y-126107142D02*
X28571428Y-125250000D01*
X28500000Y-125178571D01*
X28428571Y-125250000D01*
X28500000Y-126107142D01*
X28500000Y-125178571D01*
X28500000Y-2785714D02*
X28428571Y-2857142D01*
X28500000Y-2928571D01*
X28571428Y-2857142D01*
X28500000Y-2785714D01*
X28500000Y-2928571D01*
X28500000Y-2357142D02*
X28571428Y-1500000D01*
X28500000Y-1428571D01*
X28428571Y-1500000D01*
X28500000Y-2357142D01*
X28500000Y-1428571D01*
X1500000Y-3035714D02*
X1428571Y-3107142D01*
X1500000Y-3178571D01*
X1571428Y-3107142D01*
X1500000Y-3035714D01*
X1500000Y-3178571D01*
X1500000Y-2607142D02*
X1571428Y-1750000D01*
X1500000Y-1678571D01*
X1428571Y-1750000D01*
X1500000Y-2607142D01*
X1500000Y-1678571D01*
D11*
X22750000Y-6089285D02*
X22892857Y-6089285D01*
X22964285Y-6125000D01*
X23000000Y-6160714D01*
X23071428Y-6267857D01*
X23107142Y-6410714D01*
X23107142Y-6696428D01*
X23071428Y-6767857D01*
X23035714Y-6803571D01*
X22964285Y-6839285D01*
X22821428Y-6839285D01*
X22750000Y-6803571D01*
X22714285Y-6767857D01*
X22678571Y-6696428D01*
X22678571Y-6517857D01*
X22714285Y-6446428D01*
X22750000Y-6410714D01*
X22821428Y-6375000D01*
X22964285Y-6375000D01*
X23035714Y-6410714D01*
X23071428Y-6446428D01*
X23107142Y-6517857D01*
X22357142Y-6839285D02*
X22357142Y-6089285D01*
X22035714Y-6839285D02*
X22035714Y-6446428D01*
X22071428Y-6375000D01*
X22142857Y-6339285D01*
X22250000Y-6339285D01*
X22321428Y-6375000D01*
X22357142Y-6410714D01*
X21678571Y-6339285D02*
X21678571Y-7089285D01*
X21678571Y-6375000D02*
X21607142Y-6339285D01*
X21464285Y-6339285D01*
X21392857Y-6375000D01*
X21357142Y-6410714D01*
X21321428Y-6482142D01*
X21321428Y-6696428D01*
X21357142Y-6767857D01*
X21392857Y-6803571D01*
X21464285Y-6839285D01*
X21607142Y-6839285D01*
X21678571Y-6803571D01*
X20428571Y-6339285D02*
X20428571Y-7089285D01*
X20428571Y-6375000D02*
X20357142Y-6339285D01*
X20214285Y-6339285D01*
X20142857Y-6375000D01*
X20107142Y-6410714D01*
X20071428Y-6482142D01*
X20071428Y-6696428D01*
X20107142Y-6767857D01*
X20142857Y-6803571D01*
X20214285Y-6839285D01*
X20357142Y-6839285D01*
X20428571Y-6803571D01*
X19428571Y-6839285D02*
X19428571Y-6446428D01*
X19464285Y-6375000D01*
X19535714Y-6339285D01*
X19678571Y-6339285D01*
X19750000Y-6375000D01*
X19428571Y-6803571D02*
X19500000Y-6839285D01*
X19678571Y-6839285D01*
X19750000Y-6803571D01*
X19785714Y-6732142D01*
X19785714Y-6660714D01*
X19750000Y-6589285D01*
X19678571Y-6553571D01*
X19500000Y-6553571D01*
X19428571Y-6517857D01*
X19071428Y-6339285D02*
X19071428Y-6839285D01*
X19071428Y-6410714D02*
X19035714Y-6375000D01*
X18964285Y-6339285D01*
X18857142Y-6339285D01*
X18785714Y-6375000D01*
X18750000Y-6446428D01*
X18750000Y-6839285D01*
X18107142Y-6803571D02*
X18178571Y-6839285D01*
X18321428Y-6839285D01*
X18392857Y-6803571D01*
X18428571Y-6732142D01*
X18428571Y-6446428D01*
X18392857Y-6375000D01*
X18321428Y-6339285D01*
X18178571Y-6339285D01*
X18107142Y-6375000D01*
X18071428Y-6446428D01*
X18071428Y-6517857D01*
X18428571Y-6589285D01*
X17642857Y-6839285D02*
X17714285Y-6803571D01*
X17750000Y-6732142D01*
X17750000Y-6089285D01*
X16464285Y-6839285D02*
X16464285Y-6089285D01*
X16464285Y-6803571D02*
X16535714Y-6839285D01*
X16678571Y-6839285D01*
X16750000Y-6803571D01*
X16785714Y-6767857D01*
X16821428Y-6696428D01*
X16821428Y-6482142D01*
X16785714Y-6410714D01*
X16750000Y-6375000D01*
X16678571Y-6339285D01*
X16535714Y-6339285D01*
X16464285Y-6375000D01*
X15785714Y-6339285D02*
X15785714Y-6839285D01*
X16107142Y-6339285D02*
X16107142Y-6732142D01*
X16071428Y-6803571D01*
X16000000Y-6839285D01*
X15892857Y-6839285D01*
X15821428Y-6803571D01*
X15785714Y-6767857D01*
X15107142Y-6839285D02*
X15107142Y-6446428D01*
X15142857Y-6375000D01*
X15214285Y-6339285D01*
X15357142Y-6339285D01*
X15428571Y-6375000D01*
X15107142Y-6803571D02*
X15178571Y-6839285D01*
X15357142Y-6839285D01*
X15428571Y-6803571D01*
X15464285Y-6732142D01*
X15464285Y-6660714D01*
X15428571Y-6589285D01*
X15357142Y-6553571D01*
X15178571Y-6553571D01*
X15107142Y-6517857D01*
X14642857Y-6839285D02*
X14714285Y-6803571D01*
X14750000Y-6732142D01*
X14750000Y-6089285D01*
X13892857Y-6339285D02*
X13607142Y-6339285D01*
X13785714Y-6089285D02*
X13785714Y-6732142D01*
X13750000Y-6803571D01*
X13678571Y-6839285D01*
X13607142Y-6839285D01*
X13428571Y-6339285D02*
X13285714Y-6839285D01*
X13142857Y-6482142D01*
X13000000Y-6839285D01*
X12857142Y-6339285D01*
X12464285Y-6839285D02*
X12535714Y-6803571D01*
X12571428Y-6767857D01*
X12607142Y-6696428D01*
X12607142Y-6482142D01*
X12571428Y-6410714D01*
X12535714Y-6375000D01*
X12464285Y-6339285D01*
X12357142Y-6339285D01*
X12285714Y-6375000D01*
X12250000Y-6410714D01*
X12214285Y-6482142D01*
X12214285Y-6696428D01*
X12250000Y-6767857D01*
X12285714Y-6803571D01*
X12357142Y-6839285D01*
X12464285Y-6839285D01*
X11428571Y-6339285D02*
X11142857Y-6339285D01*
X11321428Y-6089285D02*
X11321428Y-6732142D01*
X11285714Y-6803571D01*
X11214285Y-6839285D01*
X11142857Y-6839285D01*
X10785714Y-6839285D02*
X10857142Y-6803571D01*
X10892857Y-6767857D01*
X10928571Y-6696428D01*
X10928571Y-6482142D01*
X10892857Y-6410714D01*
X10857142Y-6375000D01*
X10785714Y-6339285D01*
X10678571Y-6339285D01*
X10607142Y-6375000D01*
X10571428Y-6410714D01*
X10535714Y-6482142D01*
X10535714Y-6696428D01*
X10571428Y-6767857D01*
X10607142Y-6803571D01*
X10678571Y-6839285D01*
X10785714Y-6839285D01*
X10214285Y-6339285D02*
X10214285Y-6839285D01*
X10214285Y-6410714D02*
X10178571Y-6375000D01*
X10107142Y-6339285D01*
X10000000Y-6339285D01*
X9928571Y-6375000D01*
X9892857Y-6446428D01*
X9892857Y-6839285D01*
X9250000Y-6803571D02*
X9321428Y-6839285D01*
X9464285Y-6839285D01*
X9535714Y-6803571D01*
X9571428Y-6732142D01*
X9571428Y-6446428D01*
X9535714Y-6375000D01*
X9464285Y-6339285D01*
X9321428Y-6339285D01*
X9250000Y-6375000D01*
X9214285Y-6446428D01*
X9214285Y-6517857D01*
X9571428Y-6589285D01*
X8214285Y-6839285D02*
X8285714Y-6803571D01*
X8321428Y-6732142D01*
X8321428Y-6089285D01*
X7928571Y-6339285D02*
X7928571Y-7089285D01*
X7928571Y-6375000D02*
X7857142Y-6339285D01*
X7714285Y-6339285D01*
X7642857Y-6375000D01*
X7607142Y-6410714D01*
X7571428Y-6482142D01*
X7571428Y-6696428D01*
X7607142Y-6767857D01*
X7642857Y-6803571D01*
X7714285Y-6839285D01*
X7857142Y-6839285D01*
X7928571Y-6803571D01*
X6928571Y-6339285D02*
X6928571Y-6946428D01*
X6964285Y-7017857D01*
X7000000Y-7053571D01*
X7071428Y-7089285D01*
X7178571Y-7089285D01*
X7250000Y-7053571D01*
X6928571Y-6803571D02*
X7000000Y-6839285D01*
X7142857Y-6839285D01*
X7214285Y-6803571D01*
X7250000Y-6767857D01*
X7285714Y-6696428D01*
X7285714Y-6482142D01*
X7250000Y-6410714D01*
X7214285Y-6375000D01*
X7142857Y-6339285D01*
X7000000Y-6339285D01*
X6928571Y-6375000D01*
X21375000Y-7410714D02*
X21339285Y-7375000D01*
X21267857Y-7339285D01*
X21089285Y-7339285D01*
X21017857Y-7375000D01*
X20982142Y-7410714D01*
X20946428Y-7482142D01*
X20946428Y-7553571D01*
X20982142Y-7660714D01*
X21410714Y-8089285D01*
X20946428Y-8089285D01*
X20482142Y-7339285D02*
X20410714Y-7339285D01*
X20339285Y-7375000D01*
X20303571Y-7410714D01*
X20267857Y-7482142D01*
X20232142Y-7625000D01*
X20232142Y-7803571D01*
X20267857Y-7946428D01*
X20303571Y-8017857D01*
X20339285Y-8053571D01*
X20410714Y-8089285D01*
X20482142Y-8089285D01*
X20553571Y-8053571D01*
X20589285Y-8017857D01*
X20625000Y-7946428D01*
X20660714Y-7803571D01*
X20660714Y-7625000D01*
X20625000Y-7482142D01*
X20589285Y-7410714D01*
X20553571Y-7375000D01*
X20482142Y-7339285D01*
X19517857Y-8089285D02*
X19946428Y-8089285D01*
X19732142Y-8089285D02*
X19732142Y-7339285D01*
X19803571Y-7446428D01*
X19875000Y-7517857D01*
X19946428Y-7553571D01*
X19089285Y-7660714D02*
X19160714Y-7625000D01*
X19196428Y-7589285D01*
X19232142Y-7517857D01*
X19232142Y-7482142D01*
X19196428Y-7410714D01*
X19160714Y-7375000D01*
X19089285Y-7339285D01*
X18946428Y-7339285D01*
X18875000Y-7375000D01*
X18839285Y-7410714D01*
X18803571Y-7482142D01*
X18803571Y-7517857D01*
X18839285Y-7589285D01*
X18875000Y-7625000D01*
X18946428Y-7660714D01*
X19089285Y-7660714D01*
X19160714Y-7696428D01*
X19196428Y-7732142D01*
X19232142Y-7803571D01*
X19232142Y-7946428D01*
X19196428Y-8017857D01*
X19160714Y-8053571D01*
X19089285Y-8089285D01*
X18946428Y-8089285D01*
X18875000Y-8053571D01*
X18839285Y-8017857D01*
X18803571Y-7946428D01*
X18803571Y-7803571D01*
X18839285Y-7732142D01*
X18875000Y-7696428D01*
X18946428Y-7660714D01*
X17910714Y-8089285D02*
X17910714Y-7589285D01*
X17910714Y-7732142D02*
X17875000Y-7660714D01*
X17839285Y-7625000D01*
X17767857Y-7589285D01*
X17696428Y-7589285D01*
X17160714Y-8053571D02*
X17232142Y-8089285D01*
X17375000Y-8089285D01*
X17446428Y-8053571D01*
X17482142Y-7982142D01*
X17482142Y-7696428D01*
X17446428Y-7625000D01*
X17375000Y-7589285D01*
X17232142Y-7589285D01*
X17160714Y-7625000D01*
X17125000Y-7696428D01*
X17125000Y-7767857D01*
X17482142Y-7839285D01*
X16875000Y-7589285D02*
X16696428Y-8089285D01*
X16517857Y-7589285D01*
X16267857Y-7410714D02*
X16232142Y-7375000D01*
X16160714Y-7339285D01*
X15982142Y-7339285D01*
X15910714Y-7375000D01*
X15875000Y-7410714D01*
X15839285Y-7482142D01*
X15839285Y-7553571D01*
X15875000Y-7660714D01*
X16303571Y-8089285D01*
X15839285Y-8089285D01*
X14946428Y-8089285D02*
X14946428Y-7589285D01*
X14946428Y-7660714D02*
X14910714Y-7625000D01*
X14839285Y-7589285D01*
X14732142Y-7589285D01*
X14660714Y-7625000D01*
X14625000Y-7696428D01*
X14625000Y-8089285D01*
X14625000Y-7696428D02*
X14589285Y-7625000D01*
X14517857Y-7589285D01*
X14410714Y-7589285D01*
X14339285Y-7625000D01*
X14303571Y-7696428D01*
X14303571Y-8089285D01*
X13839285Y-8089285D02*
X13910714Y-8053571D01*
X13946428Y-8017857D01*
X13982142Y-7946428D01*
X13982142Y-7732142D01*
X13946428Y-7660714D01*
X13910714Y-7625000D01*
X13839285Y-7589285D01*
X13732142Y-7589285D01*
X13660714Y-7625000D01*
X13625000Y-7660714D01*
X13589285Y-7732142D01*
X13589285Y-7946428D01*
X13625000Y-8017857D01*
X13660714Y-8053571D01*
X13732142Y-8089285D01*
X13839285Y-8089285D01*
X12946428Y-8089285D02*
X12946428Y-7339285D01*
X12946428Y-8053571D02*
X13017857Y-8089285D01*
X13160714Y-8089285D01*
X13232142Y-8053571D01*
X13267857Y-8017857D01*
X13303571Y-7946428D01*
X13303571Y-7732142D01*
X13267857Y-7660714D01*
X13232142Y-7625000D01*
X13160714Y-7589285D01*
X13017857Y-7589285D01*
X12946428Y-7625000D01*
X12589285Y-8089285D02*
X12589285Y-7589285D01*
X12589285Y-7339285D02*
X12625000Y-7375000D01*
X12589285Y-7410714D01*
X12553571Y-7375000D01*
X12589285Y-7339285D01*
X12589285Y-7410714D01*
X12339285Y-7589285D02*
X12053571Y-7589285D01*
X12232142Y-8089285D02*
X12232142Y-7446428D01*
X12196428Y-7375000D01*
X12125000Y-7339285D01*
X12053571Y-7339285D01*
X11803571Y-8089285D02*
X11803571Y-7589285D01*
X11803571Y-7339285D02*
X11839285Y-7375000D01*
X11803571Y-7410714D01*
X11767857Y-7375000D01*
X11803571Y-7339285D01*
X11803571Y-7410714D01*
X11160714Y-8053571D02*
X11232142Y-8089285D01*
X11375000Y-8089285D01*
X11446428Y-8053571D01*
X11482142Y-7982142D01*
X11482142Y-7696428D01*
X11446428Y-7625000D01*
X11375000Y-7589285D01*
X11232142Y-7589285D01*
X11160714Y-7625000D01*
X11125000Y-7696428D01*
X11125000Y-7767857D01*
X11482142Y-7839285D01*
X10482142Y-8089285D02*
X10482142Y-7339285D01*
X10482142Y-8053571D02*
X10553571Y-8089285D01*
X10696428Y-8089285D01*
X10767857Y-8053571D01*
X10803571Y-8017857D01*
X10839285Y-7946428D01*
X10839285Y-7732142D01*
X10803571Y-7660714D01*
X10767857Y-7625000D01*
X10696428Y-7589285D01*
X10553571Y-7589285D01*
X10482142Y-7625000D01*
X9553571Y-8089285D02*
X9553571Y-7339285D01*
X9553571Y-7625000D02*
X9482142Y-7589285D01*
X9339285Y-7589285D01*
X9267857Y-7625000D01*
X9232142Y-7660714D01*
X9196428Y-7732142D01*
X9196428Y-7946428D01*
X9232142Y-8017857D01*
X9267857Y-8053571D01*
X9339285Y-8089285D01*
X9482142Y-8089285D01*
X9553571Y-8053571D01*
X8946428Y-7589285D02*
X8767857Y-8089285D01*
X8589285Y-7589285D02*
X8767857Y-8089285D01*
X8839285Y-8267857D01*
X8875000Y-8303571D01*
X8946428Y-8339285D01*
X20107142Y-9267857D02*
X20142857Y-9303571D01*
X20250000Y-9339285D01*
X20321428Y-9339285D01*
X20428571Y-9303571D01*
X20500000Y-9232142D01*
X20535714Y-9160714D01*
X20571428Y-9017857D01*
X20571428Y-8910714D01*
X20535714Y-8767857D01*
X20500000Y-8696428D01*
X20428571Y-8625000D01*
X20321428Y-8589285D01*
X20250000Y-8589285D01*
X20142857Y-8625000D01*
X20107142Y-8660714D01*
X19678571Y-9339285D02*
X19750000Y-9303571D01*
X19785714Y-9267857D01*
X19821428Y-9196428D01*
X19821428Y-8982142D01*
X19785714Y-8910714D01*
X19750000Y-8875000D01*
X19678571Y-8839285D01*
X19571428Y-8839285D01*
X19500000Y-8875000D01*
X19464285Y-8910714D01*
X19428571Y-8982142D01*
X19428571Y-9196428D01*
X19464285Y-9267857D01*
X19500000Y-9303571D01*
X19571428Y-9339285D01*
X19678571Y-9339285D01*
X19107142Y-9339285D02*
X19107142Y-8839285D01*
X19107142Y-8982142D02*
X19071428Y-8910714D01*
X19035714Y-8875000D01*
X18964285Y-8839285D01*
X18892857Y-8839285D01*
X18642857Y-9339285D02*
X18642857Y-8839285D01*
X18642857Y-8589285D02*
X18678571Y-8625000D01*
X18642857Y-8660714D01*
X18607142Y-8625000D01*
X18642857Y-8589285D01*
X18642857Y-8660714D01*
X18178571Y-9339285D02*
X18250000Y-9303571D01*
X18285714Y-9267857D01*
X18321428Y-9196428D01*
X18321428Y-8982142D01*
X18285714Y-8910714D01*
X18250000Y-8875000D01*
X18178571Y-8839285D01*
X18071428Y-8839285D01*
X18000000Y-8875000D01*
X17964285Y-8910714D01*
X17928571Y-8982142D01*
X17928571Y-9196428D01*
X17964285Y-9267857D01*
X18000000Y-9303571D01*
X18071428Y-9339285D01*
X18178571Y-9339285D01*
X17500000Y-9339285D02*
X17571428Y-9303571D01*
X17607142Y-9232142D01*
X17607142Y-8589285D01*
X17214285Y-9339285D02*
X17214285Y-8839285D01*
X17214285Y-8589285D02*
X17250000Y-8625000D01*
X17214285Y-8660714D01*
X17178571Y-8625000D01*
X17214285Y-8589285D01*
X17214285Y-8660714D01*
X16892857Y-9303571D02*
X16821428Y-9339285D01*
X16678571Y-9339285D01*
X16607142Y-9303571D01*
X16571428Y-9232142D01*
X16571428Y-9196428D01*
X16607142Y-9125000D01*
X16678571Y-9089285D01*
X16785714Y-9089285D01*
X16857142Y-9053571D01*
X16892857Y-8982142D01*
X16892857Y-8946428D01*
X16857142Y-8875000D01*
X16785714Y-8839285D01*
X16678571Y-8839285D01*
X16607142Y-8875000D01*
X15678571Y-9339285D02*
X15678571Y-8589285D01*
X15321428Y-8839285D02*
X15321428Y-9339285D01*
X15321428Y-8910714D02*
X15285714Y-8875000D01*
X15214285Y-8839285D01*
X15107142Y-8839285D01*
X15035714Y-8875000D01*
X15000000Y-8946428D01*
X15000000Y-9339285D01*
X14678571Y-9303571D02*
X14607142Y-9339285D01*
X14464285Y-9339285D01*
X14392857Y-9303571D01*
X14357142Y-9232142D01*
X14357142Y-9196428D01*
X14392857Y-9125000D01*
X14464285Y-9089285D01*
X14571428Y-9089285D01*
X14642857Y-9053571D01*
X14678571Y-8982142D01*
X14678571Y-8946428D01*
X14642857Y-8875000D01*
X14571428Y-8839285D01*
X14464285Y-8839285D01*
X14392857Y-8875000D01*
X14142857Y-8839285D02*
X13857142Y-8839285D01*
X14035714Y-8589285D02*
X14035714Y-9232142D01*
X14000000Y-9303571D01*
X13928571Y-9339285D01*
X13857142Y-9339285D01*
X13607142Y-9339285D02*
X13607142Y-8839285D01*
X13607142Y-8982142D02*
X13571428Y-8910714D01*
X13535714Y-8875000D01*
X13464285Y-8839285D01*
X13392857Y-8839285D01*
X12821428Y-8839285D02*
X12821428Y-9339285D01*
X13142857Y-8839285D02*
X13142857Y-9232142D01*
X13107142Y-9303571D01*
X13035714Y-9339285D01*
X12928571Y-9339285D01*
X12857142Y-9303571D01*
X12821428Y-9267857D01*
X12464285Y-9339285D02*
X12464285Y-8839285D01*
X12464285Y-8910714D02*
X12428571Y-8875000D01*
X12357142Y-8839285D01*
X12250000Y-8839285D01*
X12178571Y-8875000D01*
X12142857Y-8946428D01*
X12142857Y-9339285D01*
X12142857Y-8946428D02*
X12107142Y-8875000D01*
X12035714Y-8839285D01*
X11928571Y-8839285D01*
X11857142Y-8875000D01*
X11821428Y-8946428D01*
X11821428Y-9339285D01*
X11178571Y-9303571D02*
X11250000Y-9339285D01*
X11392857Y-9339285D01*
X11464285Y-9303571D01*
X11500000Y-9232142D01*
X11500000Y-8946428D01*
X11464285Y-8875000D01*
X11392857Y-8839285D01*
X11250000Y-8839285D01*
X11178571Y-8875000D01*
X11142857Y-8946428D01*
X11142857Y-9017857D01*
X11500000Y-9089285D01*
X10821428Y-8839285D02*
X10821428Y-9339285D01*
X10821428Y-8910714D02*
X10785714Y-8875000D01*
X10714285Y-8839285D01*
X10607142Y-8839285D01*
X10535714Y-8875000D01*
X10500000Y-8946428D01*
X10500000Y-9339285D01*
X10250000Y-8839285D02*
X9964285Y-8839285D01*
X10142857Y-8589285D02*
X10142857Y-9232142D01*
X10107142Y-9303571D01*
X10035714Y-9339285D01*
X9964285Y-9339285D01*
X9750000Y-9303571D02*
X9678571Y-9339285D01*
X9535714Y-9339285D01*
X9464285Y-9303571D01*
X9428571Y-9232142D01*
X9428571Y-9196428D01*
X9464285Y-9125000D01*
X9535714Y-9089285D01*
X9642857Y-9089285D01*
X9714285Y-9053571D01*
X9750000Y-8982142D01*
X9750000Y-8946428D01*
X9714285Y-8875000D01*
X9642857Y-8839285D01*
X9535714Y-8839285D01*
X9464285Y-8875000D01*
D12*
X17375000Y-117526785D02*
X17089285Y-117526785D01*
X17267857Y-117276785D02*
X17267857Y-117919642D01*
X17232142Y-117991071D01*
X17160714Y-118026785D01*
X17089285Y-118026785D01*
X16910714Y-117526785D02*
X16767857Y-118026785D01*
X16625000Y-117669642D01*
X16482142Y-118026785D01*
X16339285Y-117526785D01*
X15946428Y-118026785D02*
X16017857Y-117991071D01*
X16053571Y-117955357D01*
X16089285Y-117883928D01*
X16089285Y-117669642D01*
X16053571Y-117598214D01*
X16017857Y-117562500D01*
X15946428Y-117526785D01*
X15839285Y-117526785D01*
X15767857Y-117562500D01*
X15732142Y-117598214D01*
X15696428Y-117669642D01*
X15696428Y-117883928D01*
X15732142Y-117955357D01*
X15767857Y-117991071D01*
X15839285Y-118026785D01*
X15946428Y-118026785D01*
X14910714Y-117526785D02*
X14625000Y-117526785D01*
X14803571Y-117276785D02*
X14803571Y-117919642D01*
X14767857Y-117991071D01*
X14696428Y-118026785D01*
X14625000Y-118026785D01*
X14267857Y-118026785D02*
X14339285Y-117991071D01*
X14375000Y-117955357D01*
X14410714Y-117883928D01*
X14410714Y-117669642D01*
X14375000Y-117598214D01*
X14339285Y-117562500D01*
X14267857Y-117526785D01*
X14160714Y-117526785D01*
X14089285Y-117562500D01*
X14053571Y-117598214D01*
X14017857Y-117669642D01*
X14017857Y-117883928D01*
X14053571Y-117955357D01*
X14089285Y-117991071D01*
X14160714Y-118026785D01*
X14267857Y-118026785D01*
X13696428Y-117526785D02*
X13696428Y-118026785D01*
X13696428Y-117598214D02*
X13660714Y-117562500D01*
X13589285Y-117526785D01*
X13482142Y-117526785D01*
X13410714Y-117562500D01*
X13375000Y-117633928D01*
X13375000Y-118026785D01*
X12732142Y-117991071D02*
X12803571Y-118026785D01*
X12946428Y-118026785D01*
X13017857Y-117991071D01*
X13053571Y-117919642D01*
X13053571Y-117633928D01*
X13017857Y-117562500D01*
X12946428Y-117526785D01*
X12803571Y-117526785D01*
X12732142Y-117562500D01*
X12696428Y-117633928D01*
X12696428Y-117705357D01*
X13053571Y-117776785D01*
X17839285Y-119339285D02*
X17839285Y-118589285D01*
X17839285Y-118875000D02*
X17767857Y-118839285D01*
X17625000Y-118839285D01*
X17553571Y-118875000D01*
X17517857Y-118910714D01*
X17482142Y-118982142D01*
X17482142Y-119196428D01*
X17517857Y-119267857D01*
X17553571Y-119303571D01*
X17625000Y-119339285D01*
X17767857Y-119339285D01*
X17839285Y-119303571D01*
X16875000Y-119303571D02*
X16946428Y-119339285D01*
X17089285Y-119339285D01*
X17160714Y-119303571D01*
X17196428Y-119232142D01*
X17196428Y-118946428D01*
X17160714Y-118875000D01*
X17089285Y-118839285D01*
X16946428Y-118839285D01*
X16875000Y-118875000D01*
X16839285Y-118946428D01*
X16839285Y-119017857D01*
X17196428Y-119089285D01*
X16517857Y-118839285D02*
X16517857Y-119339285D01*
X16517857Y-118910714D02*
X16482142Y-118875000D01*
X16410714Y-118839285D01*
X16303571Y-118839285D01*
X16232142Y-118875000D01*
X16196428Y-118946428D01*
X16196428Y-119339285D01*
X15267857Y-119339285D02*
X15267857Y-118839285D01*
X15267857Y-118910714D02*
X15232142Y-118875000D01*
X15160714Y-118839285D01*
X15053571Y-118839285D01*
X14982142Y-118875000D01*
X14946428Y-118946428D01*
X14946428Y-119339285D01*
X14946428Y-118946428D02*
X14910714Y-118875000D01*
X14839285Y-118839285D01*
X14732142Y-118839285D01*
X14660714Y-118875000D01*
X14625000Y-118946428D01*
X14625000Y-119339285D01*
X14160714Y-119339285D02*
X14232142Y-119303571D01*
X14267857Y-119267857D01*
X14303571Y-119196428D01*
X14303571Y-118982142D01*
X14267857Y-118910714D01*
X14232142Y-118875000D01*
X14160714Y-118839285D01*
X14053571Y-118839285D01*
X13982142Y-118875000D01*
X13946428Y-118910714D01*
X13910714Y-118982142D01*
X13910714Y-119196428D01*
X13946428Y-119267857D01*
X13982142Y-119303571D01*
X14053571Y-119339285D01*
X14160714Y-119339285D01*
X13589285Y-119339285D02*
X13589285Y-118839285D01*
X13589285Y-118982142D02*
X13553571Y-118910714D01*
X13517857Y-118875000D01*
X13446428Y-118839285D01*
X13375000Y-118839285D01*
X12839285Y-119303571D02*
X12910714Y-119339285D01*
X13053571Y-119339285D01*
X13125000Y-119303571D01*
X13160714Y-119232142D01*
X13160714Y-118946428D01*
X13125000Y-118875000D01*
X13053571Y-118839285D01*
X12910714Y-118839285D01*
X12839285Y-118875000D01*
X12803571Y-118946428D01*
X12803571Y-119017857D01*
X13160714Y-119089285D01*
X12482142Y-118839285D02*
X12482142Y-119339285D01*
X12482142Y-118910714D02*
X12446428Y-118875000D01*
X12375000Y-118839285D01*
X12267857Y-118839285D01*
X12196428Y-118875000D01*
X12160714Y-118946428D01*
X12160714Y-119339285D01*
X18446428Y-120580357D02*
X18482142Y-120616071D01*
X18589285Y-120651785D01*
X18660714Y-120651785D01*
X18767857Y-120616071D01*
X18839285Y-120544642D01*
X18875000Y-120473214D01*
X18910714Y-120330357D01*
X18910714Y-120223214D01*
X18875000Y-120080357D01*
X18839285Y-120008928D01*
X18767857Y-119937500D01*
X18660714Y-119901785D01*
X18589285Y-119901785D01*
X18482142Y-119937500D01*
X18446428Y-119973214D01*
X17696428Y-120580357D02*
X17732142Y-120616071D01*
X17839285Y-120651785D01*
X17910714Y-120651785D01*
X18017857Y-120616071D01*
X18089285Y-120544642D01*
X18125000Y-120473214D01*
X18160714Y-120330357D01*
X18160714Y-120223214D01*
X18125000Y-120080357D01*
X18089285Y-120008928D01*
X18017857Y-119937500D01*
X17910714Y-119901785D01*
X17839285Y-119901785D01*
X17732142Y-119937500D01*
X17696428Y-119973214D01*
X16553571Y-120258928D02*
X16446428Y-120294642D01*
X16410714Y-120330357D01*
X16375000Y-120401785D01*
X16375000Y-120508928D01*
X16410714Y-120580357D01*
X16446428Y-120616071D01*
X16517857Y-120651785D01*
X16803571Y-120651785D01*
X16803571Y-119901785D01*
X16553571Y-119901785D01*
X16482142Y-119937500D01*
X16446428Y-119973214D01*
X16410714Y-120044642D01*
X16410714Y-120116071D01*
X16446428Y-120187500D01*
X16482142Y-120223214D01*
X16553571Y-120258928D01*
X16803571Y-120258928D01*
X15910714Y-120294642D02*
X15910714Y-120651785D01*
X16160714Y-119901785D02*
X15910714Y-120294642D01*
X15660714Y-119901785D01*
X15410714Y-120366071D02*
X14839285Y-120366071D01*
X14517857Y-120616071D02*
X14410714Y-120651785D01*
X14232142Y-120651785D01*
X14160714Y-120616071D01*
X14125000Y-120580357D01*
X14089285Y-120508928D01*
X14089285Y-120437500D01*
X14125000Y-120366071D01*
X14160714Y-120330357D01*
X14232142Y-120294642D01*
X14375000Y-120258928D01*
X14446428Y-120223214D01*
X14482142Y-120187500D01*
X14517857Y-120116071D01*
X14517857Y-120044642D01*
X14482142Y-119973214D01*
X14446428Y-119937500D01*
X14375000Y-119901785D01*
X14196428Y-119901785D01*
X14089285Y-119937500D01*
X13803571Y-120437500D02*
X13446428Y-120437500D01*
X13875000Y-120651785D02*
X13625000Y-119901785D01*
X13375000Y-120651785D01*
X12232142Y-120151785D02*
X12232142Y-120651785D01*
X12410714Y-119866071D02*
X12589285Y-120401785D01*
X12125000Y-120401785D01*
X11839285Y-120580357D02*
X11803571Y-120616071D01*
X11839285Y-120651785D01*
X11875000Y-120616071D01*
X11839285Y-120580357D01*
X11839285Y-120651785D01*
X11339285Y-119901785D02*
X11267857Y-119901785D01*
X11196428Y-119937500D01*
X11160714Y-119973214D01*
X11125000Y-120044642D01*
X11089285Y-120187500D01*
X11089285Y-120366071D01*
X11125000Y-120508928D01*
X11160714Y-120580357D01*
X11196428Y-120616071D01*
X11267857Y-120651785D01*
X11339285Y-120651785D01*
X11410714Y-120616071D01*
X11446428Y-120580357D01*
X11482142Y-120508928D01*
X11517857Y-120366071D01*
X11517857Y-120187500D01*
X11482142Y-120044642D01*
X11446428Y-119973214D01*
X11410714Y-119937500D01*
X11339285Y-119901785D01*
D13*
G04 #@! TO.C,REF\002A\002A*
X22500000Y-43990000D03*
G04 #@! TD*
G04 #@! TO.C,REF\002A\002A*
X22500000Y-110490000D03*
G04 #@! TD*
D14*
G04 #@! TO.C,REF\002A\002A*
X22500000Y-76750000D03*
G04 #@! TD*
G04 #@! TO.C,REF\002A\002A*
X22500000Y-21750000D03*
G04 #@! TD*
D13*
G04 #@! TO.C,REF\002A\002A*
X22500000Y-55490000D03*
G04 #@! TD*
G04 #@! TO.C,REF\002A\002A*
X22500000Y-84240000D03*
G04 #@! TD*
G04 #@! TO.C,REF\002A\002A*
X22500000Y-14490000D03*
G04 #@! TD*
D15*
G04 #@! TO.C,REF\002A\002A*
X22500000Y-98990000D03*
G04 #@! TD*
D13*
G04 #@! TO.C,REF\002A\002A*
X22500000Y-29240000D03*
G04 #@! TD*
G04 #@! TO.C,REF\002A\002A*
X22500000Y-69490000D03*
G04 #@! TD*
D14*
G04 #@! TO.C,REF\002A\002A*
X7500000Y-3000000D03*
G04 #@! TD*
G04 #@! TO.C,REF\002A\002A*
X7500000Y-125500000D03*
G04 #@! TD*
D13*
G04 #@! TO.C,REF\002A\002A*
X7500000Y-14490000D03*
G04 #@! TD*
G04 #@! TO.C,REF\002A\002A*
X7500000Y-110490000D03*
G04 #@! TD*
G04 #@! TO.C,REF\002A\002A*
X7500000Y-98990000D03*
G04 #@! TD*
G04 #@! TO.C,REF\002A\002A*
X7500000Y-84240000D03*
G04 #@! TD*
G04 #@! TO.C,REF\002A\002A*
X7500000Y-69490000D03*
G04 #@! TD*
G04 #@! TO.C,REF\002A\002A*
X7500000Y-55490000D03*
G04 #@! TD*
G04 #@! TO.C,REF\002A\002A*
X7500000Y-29240000D03*
G04 #@! TD*
D15*
G04 #@! TO.C,REF\002A\002A*
X7500000Y-43990000D03*
G04 #@! TD*
D14*
G04 #@! TO.C,REF\002A\002A*
X7500000Y-21750000D03*
G04 #@! TD*
G04 #@! TO.C,REF\002A\002A*
X7500000Y-76750000D03*
G04 #@! TD*
M02*
