M48
INCH,TZ
T1C0.0217
T2C0.0315
T3C0.0354
T4C0.0433
T5C0.0826
%
G90
G05
T1
X0.502Y-0.4409
X0.502Y-0.5906
X1.25Y-0.4157
X1.25Y-0.5157
X1.25Y-0.6157
T2
X0.6102Y-0.0492
X0.6102Y-0.3492
X1.2205Y-0.7677
X1.4173Y-0.7677
X1.4173Y-0.4134
X1.4173Y-0.6102
X0.0622Y-0.4331
X0.3622Y-0.4331
T3
X0.7169Y-0.1772
X0.8169Y-0.1772
T4
X0.0591Y-0.1772
X0.3936Y-0.1772
X0.5118Y-0.1772
X0.0591Y-0.689
X0.3936Y-0.689
X0.5118Y-0.689
X0.7677Y-0.807
X0.8661Y-0.807
X0.9645Y-0.807
X0.9843Y-0.1772
X1.1025Y-0.1772
X1.437Y-0.1772
T5
X0.689Y-0.5315
X1.0432Y-0.5315
T0
M30
