G04 #@! TF.GenerationSoftware,KiCad,Pcbnew,(5.0.0)*
G04 #@! TF.CreationDate,2018-08-29T14:30:47+02:00*
G04 #@! TF.ProjectId,1u_lpg,31755F6C70672E6B696361645F706362,rev?*
G04 #@! TF.SameCoordinates,Original*
G04 #@! TF.FileFunction,Copper,L1,Top,Signal*
G04 #@! TF.FilePolarity,Positive*
%FSLAX46Y46*%
G04 Gerber Fmt 4.6, Leading zero omitted, Abs format (unit mm)*
G04 Created by KiCad (PCBNEW (5.0.0)) date 08/29/18 14:30:47*
%MOMM*%
%LPD*%
G01*
G04 APERTURE LIST*
G04 #@! TA.AperFunction,ComponentPad*
%ADD10C,1.150000*%
G04 #@! TD*
G04 #@! TA.AperFunction,ComponentPad*
%ADD11C,1.800000*%
G04 #@! TD*
G04 #@! TA.AperFunction,ComponentPad*
%ADD12R,1.800000X1.800000*%
G04 #@! TD*
G04 #@! TA.AperFunction,ComponentPad*
%ADD13C,1.648460*%
G04 #@! TD*
G04 #@! TA.AperFunction,ComponentPad*
%ADD14R,1.648460X1.648460*%
G04 #@! TD*
G04 #@! TA.AperFunction,ComponentPad*
%ADD15C,2.794000*%
G04 #@! TD*
G04 #@! TA.AperFunction,ComponentPad*
%ADD16C,1.600000*%
G04 #@! TD*
G04 #@! TA.AperFunction,ComponentPad*
%ADD17O,1.600000X1.600000*%
G04 #@! TD*
G04 #@! TA.AperFunction,Conductor*
%ADD18C,0.250000*%
G04 #@! TD*
G04 #@! TA.AperFunction,Conductor*
%ADD19C,0.254000*%
G04 #@! TD*
G04 APERTURE END LIST*
D10*
G04 #@! TO.P,U1,1*
G04 #@! TO.N,GND*
X12750000Y-15000000D03*
G04 #@! TO.P,U1,3*
G04 #@! TO.N,Net-(C2-Pad1)*
X31750000Y-15640000D03*
G04 #@! TO.P,U1,5*
G04 #@! TO.N,Net-(J_IN_1-PadP$1_TIP)*
X31750000Y-10560000D03*
G04 #@! TO.P,U1,2*
G04 #@! TO.N,Net-(R_VAC_1-Pad1)*
X12750000Y-11200000D03*
G04 #@! TO.P,U1,4*
G04 #@! TO.N,Net-(C1-Pad1)*
X31750000Y-13100000D03*
G04 #@! TD*
D11*
G04 #@! TO.P,D1,2*
G04 #@! TO.N,Net-(D1-Pad2)*
X20750000Y-4500000D03*
D12*
G04 #@! TO.P,D1,1*
G04 #@! TO.N,GND*
X18210000Y-4500000D03*
G04 #@! TD*
D13*
G04 #@! TO.P,J_CV_1,P$1_TIP*
G04 #@! TO.N,Net-(J_CV_1-PadP$1_TIP)*
X1501280Y-17500000D03*
G04 #@! TO.P,J_CV_1,P$2_SWITCH*
G04 #@! TO.N,N/C*
X9997580Y-17500000D03*
G04 #@! TO.P,J_CV_1,P$3_SLEEVE*
G04 #@! TO.N,GND*
X12999860Y-17500000D03*
G04 #@! TD*
G04 #@! TO.P,J_IN_1,P$3_SLEEVE*
G04 #@! TO.N,GND*
X12999860Y-4500000D03*
G04 #@! TO.P,J_IN_1,P$2_SWITCH*
G04 #@! TO.N,N/C*
X9997580Y-4500000D03*
G04 #@! TO.P,J_IN_1,P$1_TIP*
G04 #@! TO.N,Net-(J_IN_1-PadP$1_TIP)*
X1501280Y-4500000D03*
G04 #@! TD*
G04 #@! TO.P,J_OUT_1,P$1_TIP*
G04 #@! TO.N,Net-(C2-Pad1)*
X36498720Y-4500000D03*
G04 #@! TO.P,J_OUT_1,P$2_SWITCH*
G04 #@! TO.N,N/C*
X28002420Y-4500000D03*
G04 #@! TO.P,J_OUT_1,P$3_SLEEVE*
G04 #@! TO.N,GND*
X25000140Y-4500000D03*
G04 #@! TD*
D14*
G04 #@! TO.P,RV1,1*
G04 #@! TO.N,GND*
X19500640Y-20497700D03*
D13*
G04 #@! TO.P,RV1,2*
G04 #@! TO.N,Net-(C1-Pad2)*
X22000000Y-20497700D03*
G04 #@! TO.P,RV1,3*
G04 #@! TO.N,N/C*
X24499360Y-20497700D03*
D15*
G04 #@! TO.P,RV1,CHASSIS1*
X17501660Y-13500000D03*
G04 #@! TO.P,RV1,CHASSIS2*
X26498340Y-13500000D03*
G04 #@! TD*
D16*
G04 #@! TO.P,R_VAC_1,1*
G04 #@! TO.N,Net-(R_VAC_1-Pad1)*
X9200000Y-11000000D03*
D17*
G04 #@! TO.P,R_VAC_1,2*
G04 #@! TO.N,Net-(J_CV_1-PadP$1_TIP)*
X1580000Y-11000000D03*
G04 #@! TD*
G04 #@! TO.P,R_LED_1,2*
G04 #@! TO.N,Net-(J_CV_1-PadP$1_TIP)*
X15500000Y-8870000D03*
D16*
G04 #@! TO.P,R_LED_1,1*
G04 #@! TO.N,Net-(D1-Pad2)*
X15500000Y-1250000D03*
G04 #@! TD*
G04 #@! TO.P,C1,2*
G04 #@! TO.N,Net-(C1-Pad2)*
X36000000Y-19500000D03*
G04 #@! TO.P,C1,1*
G04 #@! TO.N,Net-(C1-Pad1)*
X31000000Y-19500000D03*
G04 #@! TD*
G04 #@! TO.P,C2,1*
G04 #@! TO.N,Net-(C2-Pad1)*
X36000000Y-10500000D03*
G04 #@! TO.P,C2,2*
G04 #@! TO.N,Net-(C1-Pad2)*
X36000000Y-15500000D03*
G04 #@! TD*
D18*
G04 #@! TO.N,Net-(C1-Pad2)*
X36000000Y-18368630D02*
X36000000Y-15500000D01*
X36000000Y-19500000D02*
X36000000Y-18368630D01*
G04 #@! TO.N,Net-(C1-Pad1)*
X31175001Y-13674999D02*
X31750000Y-13100000D01*
X30849999Y-14000001D02*
X31175001Y-13674999D01*
X30849999Y-18218629D02*
X30849999Y-14000001D01*
X31000000Y-18368630D02*
X30849999Y-18218629D01*
X31000000Y-19500000D02*
X31000000Y-18368630D01*
G04 #@! TO.N,Net-(D1-Pad2)*
X17500000Y-1250000D02*
X20750000Y-4500000D01*
X15500000Y-1250000D02*
X17500000Y-1250000D01*
G04 #@! TO.N,Net-(J_CV_1-PadP$1_TIP)*
X1501280Y-11078720D02*
X1580000Y-11000000D01*
X1501280Y-17500000D02*
X1501280Y-11078720D01*
G04 #@! TO.N,Net-(J_IN_1-PadP$1_TIP)*
X2325509Y-5324229D02*
X1501280Y-4500000D01*
X3501280Y-6500000D02*
X2325509Y-5324229D01*
X27690000Y-6500000D02*
X3501280Y-6500000D01*
X31750000Y-10560000D02*
X27690000Y-6500000D01*
G04 #@! TO.N,Net-(C2-Pad1)*
X36498720Y-10001280D02*
X36000000Y-10500000D01*
X36498720Y-4500000D02*
X36498720Y-10001280D01*
G04 #@! TO.N,Net-(R_VAC_1-Pad1)*
X12550000Y-11000000D02*
X12750000Y-11200000D01*
X9200000Y-11000000D02*
X12550000Y-11000000D01*
G04 #@! TD*
D19*
G04 #@! TO.N,GND*
G36*
X37265001Y-3237945D02*
X36788979Y-3040770D01*
X36208461Y-3040770D01*
X35672133Y-3262925D01*
X35261645Y-3673413D01*
X35039490Y-4209741D01*
X35039490Y-4790259D01*
X35261645Y-5326587D01*
X35672133Y-5737075D01*
X35738720Y-5764656D01*
X35738721Y-9065000D01*
X35714561Y-9065000D01*
X35187138Y-9283466D01*
X34783466Y-9687138D01*
X34565000Y-10214561D01*
X34565000Y-10785439D01*
X34783466Y-11312862D01*
X35187138Y-11716534D01*
X35714561Y-11935000D01*
X36285439Y-11935000D01*
X36812862Y-11716534D01*
X37216534Y-11312862D01*
X37265000Y-11195854D01*
X37265000Y-14804146D01*
X37216534Y-14687138D01*
X36812862Y-14283466D01*
X36285439Y-14065000D01*
X35714561Y-14065000D01*
X35187138Y-14283466D01*
X34783466Y-14687138D01*
X34565000Y-15214561D01*
X34565000Y-15785439D01*
X34783466Y-16312862D01*
X35187138Y-16716534D01*
X35240001Y-16738430D01*
X35240000Y-18261570D01*
X35187138Y-18283466D01*
X34783466Y-18687138D01*
X34565000Y-19214561D01*
X34565000Y-19785439D01*
X34783466Y-20312862D01*
X35187138Y-20716534D01*
X35714561Y-20935000D01*
X36285439Y-20935000D01*
X36812862Y-20716534D01*
X37216534Y-20312862D01*
X37265000Y-20195855D01*
X37265000Y-21265000D01*
X25760993Y-21265000D01*
X25958590Y-20787959D01*
X25958590Y-20207441D01*
X25736435Y-19671113D01*
X25325947Y-19260625D01*
X25214740Y-19214561D01*
X29565000Y-19214561D01*
X29565000Y-19785439D01*
X29783466Y-20312862D01*
X30187138Y-20716534D01*
X30714561Y-20935000D01*
X31285439Y-20935000D01*
X31812862Y-20716534D01*
X32216534Y-20312862D01*
X32435000Y-19785439D01*
X32435000Y-19214561D01*
X32216534Y-18687138D01*
X31812862Y-18283466D01*
X31753018Y-18258678D01*
X31715904Y-18072093D01*
X31609999Y-17913595D01*
X31609999Y-16850000D01*
X31990684Y-16850000D01*
X32435410Y-16665788D01*
X32775788Y-16325410D01*
X32960000Y-15880684D01*
X32960000Y-15399316D01*
X32775788Y-14954590D01*
X32435410Y-14614212D01*
X31990684Y-14430000D01*
X31609999Y-14430000D01*
X31609999Y-14314802D01*
X31614801Y-14310000D01*
X31990684Y-14310000D01*
X32435410Y-14125788D01*
X32775788Y-13785410D01*
X32960000Y-13340684D01*
X32960000Y-12859316D01*
X32775788Y-12414590D01*
X32435410Y-12074212D01*
X31990684Y-11890000D01*
X31509316Y-11890000D01*
X31064590Y-12074212D01*
X30724212Y-12414590D01*
X30540000Y-12859316D01*
X30540000Y-13235199D01*
X30365527Y-13409672D01*
X30302071Y-13452072D01*
X30259671Y-13515528D01*
X30259670Y-13515529D01*
X30134096Y-13703464D01*
X30075111Y-14000001D01*
X30090000Y-14074853D01*
X30089999Y-18143782D01*
X30075111Y-18218629D01*
X30089999Y-18293476D01*
X30089999Y-18293480D01*
X30104454Y-18366150D01*
X29783466Y-18687138D01*
X29565000Y-19214561D01*
X25214740Y-19214561D01*
X24789619Y-19038470D01*
X24209101Y-19038470D01*
X23672773Y-19260625D01*
X23262285Y-19671113D01*
X23249680Y-19701544D01*
X23237075Y-19671113D01*
X22826587Y-19260625D01*
X22290259Y-19038470D01*
X21709741Y-19038470D01*
X21173413Y-19260625D01*
X20938491Y-19495547D01*
X20863197Y-19313771D01*
X20684568Y-19135143D01*
X20451179Y-19038470D01*
X19786390Y-19038470D01*
X19627640Y-19197220D01*
X19627640Y-20370700D01*
X19647640Y-20370700D01*
X19647640Y-20624700D01*
X19627640Y-20624700D01*
X19627640Y-20644700D01*
X19373640Y-20644700D01*
X19373640Y-20624700D01*
X18200160Y-20624700D01*
X18041410Y-20783450D01*
X18041410Y-21265000D01*
X735000Y-21265000D01*
X735000Y-18762055D01*
X1211021Y-18959230D01*
X1791539Y-18959230D01*
X2327867Y-18737075D01*
X2738355Y-18326587D01*
X2960510Y-17790259D01*
X2960510Y-17209741D01*
X2896593Y-17055431D01*
X4265000Y-17055431D01*
X4265000Y-17944569D01*
X4605259Y-18766026D01*
X5233974Y-19394741D01*
X6055431Y-19735000D01*
X6944569Y-19735000D01*
X7398054Y-19547160D01*
X18041410Y-19547160D01*
X18041410Y-20211950D01*
X18200160Y-20370700D01*
X19373640Y-20370700D01*
X19373640Y-19197220D01*
X19214890Y-19038470D01*
X18550101Y-19038470D01*
X18316712Y-19135143D01*
X18138083Y-19313771D01*
X18041410Y-19547160D01*
X7398054Y-19547160D01*
X7766026Y-19394741D01*
X8394741Y-18766026D01*
X8668634Y-18104791D01*
X8760505Y-18326587D01*
X9170993Y-18737075D01*
X9707321Y-18959230D01*
X10287839Y-18959230D01*
X10824167Y-18737075D01*
X11035947Y-18525295D01*
X12154170Y-18525295D01*
X12231279Y-18773926D01*
X12777295Y-18971077D01*
X13357194Y-18944270D01*
X13768441Y-18773926D01*
X13845550Y-18525295D01*
X12999860Y-17679605D01*
X12154170Y-18525295D01*
X11035947Y-18525295D01*
X11234655Y-18326587D01*
X11456810Y-17790259D01*
X11456810Y-17277435D01*
X11528783Y-17277435D01*
X11555590Y-17857334D01*
X11725934Y-18268581D01*
X11974565Y-18345690D01*
X12820255Y-17500000D01*
X13179465Y-17500000D01*
X14025155Y-18345690D01*
X14273786Y-18268581D01*
X14470937Y-17722565D01*
X14444130Y-17142666D01*
X14273786Y-16731419D01*
X14025155Y-16654310D01*
X13179465Y-17500000D01*
X12820255Y-17500000D01*
X11974565Y-16654310D01*
X11725934Y-16731419D01*
X11528783Y-17277435D01*
X11456810Y-17277435D01*
X11456810Y-17209741D01*
X11234655Y-16673413D01*
X10824167Y-16262925D01*
X10287839Y-16040770D01*
X9707321Y-16040770D01*
X9170993Y-16262925D01*
X8760505Y-16673413D01*
X8668634Y-16895209D01*
X8394741Y-16233974D01*
X8005354Y-15844587D01*
X12085018Y-15844587D01*
X12131443Y-16067435D01*
X12396177Y-16157771D01*
X12231279Y-16226074D01*
X12154170Y-16474705D01*
X12999860Y-17320395D01*
X13845550Y-16474705D01*
X13768441Y-16226074D01*
X13350174Y-16075050D01*
X13368557Y-16067435D01*
X13414982Y-15844587D01*
X12750000Y-15179605D01*
X12085018Y-15844587D01*
X8005354Y-15844587D01*
X7766026Y-15605259D01*
X6944569Y-15265000D01*
X6055431Y-15265000D01*
X5233974Y-15605259D01*
X4605259Y-16233974D01*
X4265000Y-17055431D01*
X2896593Y-17055431D01*
X2738355Y-16673413D01*
X2327867Y-16262925D01*
X2261280Y-16235344D01*
X2261280Y-14837018D01*
X11527108Y-14837018D01*
X11557824Y-15317405D01*
X11682565Y-15618557D01*
X11905413Y-15664982D01*
X12570395Y-15000000D01*
X12929605Y-15000000D01*
X13594587Y-15664982D01*
X13817435Y-15618557D01*
X13972892Y-15162982D01*
X13942176Y-14682595D01*
X13817435Y-14381443D01*
X13594587Y-14335018D01*
X12929605Y-15000000D01*
X12570395Y-15000000D01*
X11905413Y-14335018D01*
X11682565Y-14381443D01*
X11527108Y-14837018D01*
X2261280Y-14837018D01*
X2261280Y-14155413D01*
X12085018Y-14155413D01*
X12750000Y-14820395D01*
X13414982Y-14155413D01*
X13368557Y-13932565D01*
X12912982Y-13777108D01*
X12432595Y-13807824D01*
X12131443Y-13932565D01*
X12085018Y-14155413D01*
X2261280Y-14155413D01*
X2261280Y-13095810D01*
X15469660Y-13095810D01*
X15469660Y-13904190D01*
X15779014Y-14651035D01*
X16350625Y-15222646D01*
X17097470Y-15532000D01*
X17905850Y-15532000D01*
X18652695Y-15222646D01*
X19224306Y-14651035D01*
X19533660Y-13904190D01*
X19533660Y-13095810D01*
X24466340Y-13095810D01*
X24466340Y-13904190D01*
X24775694Y-14651035D01*
X25347305Y-15222646D01*
X26094150Y-15532000D01*
X26902530Y-15532000D01*
X27649375Y-15222646D01*
X28220986Y-14651035D01*
X28530340Y-13904190D01*
X28530340Y-13095810D01*
X28220986Y-12348965D01*
X27649375Y-11777354D01*
X26902530Y-11468000D01*
X26094150Y-11468000D01*
X25347305Y-11777354D01*
X24775694Y-12348965D01*
X24466340Y-13095810D01*
X19533660Y-13095810D01*
X19224306Y-12348965D01*
X18652695Y-11777354D01*
X17905850Y-11468000D01*
X17097470Y-11468000D01*
X16350625Y-11777354D01*
X15779014Y-12348965D01*
X15469660Y-13095810D01*
X2261280Y-13095810D01*
X2261280Y-12270642D01*
X2614577Y-12034577D01*
X2931740Y-11559909D01*
X3043113Y-11000000D01*
X2986336Y-10714561D01*
X7765000Y-10714561D01*
X7765000Y-11285439D01*
X7983466Y-11812862D01*
X8387138Y-12216534D01*
X8914561Y-12435000D01*
X9485439Y-12435000D01*
X10012862Y-12216534D01*
X10416534Y-11812862D01*
X10438430Y-11760000D01*
X11672265Y-11760000D01*
X11724212Y-11885410D01*
X12064590Y-12225788D01*
X12509316Y-12410000D01*
X12990684Y-12410000D01*
X13435410Y-12225788D01*
X13775788Y-11885410D01*
X13960000Y-11440684D01*
X13960000Y-10959316D01*
X13775788Y-10514590D01*
X13435410Y-10174212D01*
X12990684Y-9990000D01*
X12509316Y-9990000D01*
X12064590Y-10174212D01*
X11998802Y-10240000D01*
X10438430Y-10240000D01*
X10416534Y-10187138D01*
X10012862Y-9783466D01*
X9485439Y-9565000D01*
X8914561Y-9565000D01*
X8387138Y-9783466D01*
X7983466Y-10187138D01*
X7765000Y-10714561D01*
X2986336Y-10714561D01*
X2931740Y-10440091D01*
X2614577Y-9965423D01*
X2139909Y-9648260D01*
X1721333Y-9565000D01*
X1438667Y-9565000D01*
X1020091Y-9648260D01*
X735000Y-9838752D01*
X735000Y-8870000D01*
X14036887Y-8870000D01*
X14148260Y-9429909D01*
X14465423Y-9904577D01*
X14940091Y-10221740D01*
X15358667Y-10305000D01*
X15641333Y-10305000D01*
X16059909Y-10221740D01*
X16534577Y-9904577D01*
X16851740Y-9429909D01*
X16963113Y-8870000D01*
X16851740Y-8310091D01*
X16534577Y-7835423D01*
X16059909Y-7518260D01*
X15641333Y-7435000D01*
X15358667Y-7435000D01*
X14940091Y-7518260D01*
X14465423Y-7835423D01*
X14148260Y-8310091D01*
X14036887Y-8870000D01*
X735000Y-8870000D01*
X735000Y-5762055D01*
X1211021Y-5959230D01*
X1791539Y-5959230D01*
X1858127Y-5931648D01*
X2910953Y-6984476D01*
X2953351Y-7047929D01*
X3016804Y-7090327D01*
X3016806Y-7090329D01*
X3142182Y-7174102D01*
X3204743Y-7215904D01*
X3426428Y-7260000D01*
X3426432Y-7260000D01*
X3501279Y-7274888D01*
X3576126Y-7260000D01*
X27375199Y-7260000D01*
X30540000Y-10424802D01*
X30540000Y-10800684D01*
X30724212Y-11245410D01*
X31064590Y-11585788D01*
X31509316Y-11770000D01*
X31990684Y-11770000D01*
X32435410Y-11585788D01*
X32775788Y-11245410D01*
X32960000Y-10800684D01*
X32960000Y-10319316D01*
X32775788Y-9874590D01*
X32435410Y-9534212D01*
X31990684Y-9350000D01*
X31614802Y-9350000D01*
X28280331Y-6015530D01*
X28242712Y-5959230D01*
X28292679Y-5959230D01*
X28829007Y-5737075D01*
X29239495Y-5326587D01*
X29331366Y-5104791D01*
X29605259Y-5766026D01*
X30233974Y-6394741D01*
X31055431Y-6735000D01*
X31944569Y-6735000D01*
X32766026Y-6394741D01*
X33394741Y-5766026D01*
X33735000Y-4944569D01*
X33735000Y-4055431D01*
X33394741Y-3233974D01*
X32766026Y-2605259D01*
X31944569Y-2265000D01*
X31055431Y-2265000D01*
X30233974Y-2605259D01*
X29605259Y-3233974D01*
X29331366Y-3895209D01*
X29239495Y-3673413D01*
X28829007Y-3262925D01*
X28292679Y-3040770D01*
X27712161Y-3040770D01*
X27175833Y-3262925D01*
X26765345Y-3673413D01*
X26543190Y-4209741D01*
X26543190Y-4790259D01*
X26765345Y-5326587D01*
X27175833Y-5737075D01*
X27182895Y-5740000D01*
X25779243Y-5740000D01*
X25845830Y-5525295D01*
X25000140Y-4679605D01*
X24154450Y-5525295D01*
X24221037Y-5740000D01*
X21680817Y-5740000D01*
X22051310Y-5369507D01*
X22285000Y-4805330D01*
X22285000Y-4277435D01*
X23529063Y-4277435D01*
X23555870Y-4857334D01*
X23726214Y-5268581D01*
X23974845Y-5345690D01*
X24820535Y-4500000D01*
X25179745Y-4500000D01*
X26025435Y-5345690D01*
X26274066Y-5268581D01*
X26471217Y-4722565D01*
X26444410Y-4142666D01*
X26274066Y-3731419D01*
X26025435Y-3654310D01*
X25179745Y-4500000D01*
X24820535Y-4500000D01*
X23974845Y-3654310D01*
X23726214Y-3731419D01*
X23529063Y-4277435D01*
X22285000Y-4277435D01*
X22285000Y-4194670D01*
X22051310Y-3630493D01*
X21895522Y-3474705D01*
X24154450Y-3474705D01*
X25000140Y-4320395D01*
X25845830Y-3474705D01*
X25768721Y-3226074D01*
X25222705Y-3028923D01*
X24642806Y-3055730D01*
X24231559Y-3226074D01*
X24154450Y-3474705D01*
X21895522Y-3474705D01*
X21619507Y-3198690D01*
X21055330Y-2965000D01*
X20444670Y-2965000D01*
X20335162Y-3010360D01*
X18090331Y-765530D01*
X18069931Y-735000D01*
X37265001Y-735000D01*
X37265001Y-3237945D01*
X37265001Y-3237945D01*
G37*
X37265001Y-3237945D02*
X36788979Y-3040770D01*
X36208461Y-3040770D01*
X35672133Y-3262925D01*
X35261645Y-3673413D01*
X35039490Y-4209741D01*
X35039490Y-4790259D01*
X35261645Y-5326587D01*
X35672133Y-5737075D01*
X35738720Y-5764656D01*
X35738721Y-9065000D01*
X35714561Y-9065000D01*
X35187138Y-9283466D01*
X34783466Y-9687138D01*
X34565000Y-10214561D01*
X34565000Y-10785439D01*
X34783466Y-11312862D01*
X35187138Y-11716534D01*
X35714561Y-11935000D01*
X36285439Y-11935000D01*
X36812862Y-11716534D01*
X37216534Y-11312862D01*
X37265000Y-11195854D01*
X37265000Y-14804146D01*
X37216534Y-14687138D01*
X36812862Y-14283466D01*
X36285439Y-14065000D01*
X35714561Y-14065000D01*
X35187138Y-14283466D01*
X34783466Y-14687138D01*
X34565000Y-15214561D01*
X34565000Y-15785439D01*
X34783466Y-16312862D01*
X35187138Y-16716534D01*
X35240001Y-16738430D01*
X35240000Y-18261570D01*
X35187138Y-18283466D01*
X34783466Y-18687138D01*
X34565000Y-19214561D01*
X34565000Y-19785439D01*
X34783466Y-20312862D01*
X35187138Y-20716534D01*
X35714561Y-20935000D01*
X36285439Y-20935000D01*
X36812862Y-20716534D01*
X37216534Y-20312862D01*
X37265000Y-20195855D01*
X37265000Y-21265000D01*
X25760993Y-21265000D01*
X25958590Y-20787959D01*
X25958590Y-20207441D01*
X25736435Y-19671113D01*
X25325947Y-19260625D01*
X25214740Y-19214561D01*
X29565000Y-19214561D01*
X29565000Y-19785439D01*
X29783466Y-20312862D01*
X30187138Y-20716534D01*
X30714561Y-20935000D01*
X31285439Y-20935000D01*
X31812862Y-20716534D01*
X32216534Y-20312862D01*
X32435000Y-19785439D01*
X32435000Y-19214561D01*
X32216534Y-18687138D01*
X31812862Y-18283466D01*
X31753018Y-18258678D01*
X31715904Y-18072093D01*
X31609999Y-17913595D01*
X31609999Y-16850000D01*
X31990684Y-16850000D01*
X32435410Y-16665788D01*
X32775788Y-16325410D01*
X32960000Y-15880684D01*
X32960000Y-15399316D01*
X32775788Y-14954590D01*
X32435410Y-14614212D01*
X31990684Y-14430000D01*
X31609999Y-14430000D01*
X31609999Y-14314802D01*
X31614801Y-14310000D01*
X31990684Y-14310000D01*
X32435410Y-14125788D01*
X32775788Y-13785410D01*
X32960000Y-13340684D01*
X32960000Y-12859316D01*
X32775788Y-12414590D01*
X32435410Y-12074212D01*
X31990684Y-11890000D01*
X31509316Y-11890000D01*
X31064590Y-12074212D01*
X30724212Y-12414590D01*
X30540000Y-12859316D01*
X30540000Y-13235199D01*
X30365527Y-13409672D01*
X30302071Y-13452072D01*
X30259671Y-13515528D01*
X30259670Y-13515529D01*
X30134096Y-13703464D01*
X30075111Y-14000001D01*
X30090000Y-14074853D01*
X30089999Y-18143782D01*
X30075111Y-18218629D01*
X30089999Y-18293476D01*
X30089999Y-18293480D01*
X30104454Y-18366150D01*
X29783466Y-18687138D01*
X29565000Y-19214561D01*
X25214740Y-19214561D01*
X24789619Y-19038470D01*
X24209101Y-19038470D01*
X23672773Y-19260625D01*
X23262285Y-19671113D01*
X23249680Y-19701544D01*
X23237075Y-19671113D01*
X22826587Y-19260625D01*
X22290259Y-19038470D01*
X21709741Y-19038470D01*
X21173413Y-19260625D01*
X20938491Y-19495547D01*
X20863197Y-19313771D01*
X20684568Y-19135143D01*
X20451179Y-19038470D01*
X19786390Y-19038470D01*
X19627640Y-19197220D01*
X19627640Y-20370700D01*
X19647640Y-20370700D01*
X19647640Y-20624700D01*
X19627640Y-20624700D01*
X19627640Y-20644700D01*
X19373640Y-20644700D01*
X19373640Y-20624700D01*
X18200160Y-20624700D01*
X18041410Y-20783450D01*
X18041410Y-21265000D01*
X735000Y-21265000D01*
X735000Y-18762055D01*
X1211021Y-18959230D01*
X1791539Y-18959230D01*
X2327867Y-18737075D01*
X2738355Y-18326587D01*
X2960510Y-17790259D01*
X2960510Y-17209741D01*
X2896593Y-17055431D01*
X4265000Y-17055431D01*
X4265000Y-17944569D01*
X4605259Y-18766026D01*
X5233974Y-19394741D01*
X6055431Y-19735000D01*
X6944569Y-19735000D01*
X7398054Y-19547160D01*
X18041410Y-19547160D01*
X18041410Y-20211950D01*
X18200160Y-20370700D01*
X19373640Y-20370700D01*
X19373640Y-19197220D01*
X19214890Y-19038470D01*
X18550101Y-19038470D01*
X18316712Y-19135143D01*
X18138083Y-19313771D01*
X18041410Y-19547160D01*
X7398054Y-19547160D01*
X7766026Y-19394741D01*
X8394741Y-18766026D01*
X8668634Y-18104791D01*
X8760505Y-18326587D01*
X9170993Y-18737075D01*
X9707321Y-18959230D01*
X10287839Y-18959230D01*
X10824167Y-18737075D01*
X11035947Y-18525295D01*
X12154170Y-18525295D01*
X12231279Y-18773926D01*
X12777295Y-18971077D01*
X13357194Y-18944270D01*
X13768441Y-18773926D01*
X13845550Y-18525295D01*
X12999860Y-17679605D01*
X12154170Y-18525295D01*
X11035947Y-18525295D01*
X11234655Y-18326587D01*
X11456810Y-17790259D01*
X11456810Y-17277435D01*
X11528783Y-17277435D01*
X11555590Y-17857334D01*
X11725934Y-18268581D01*
X11974565Y-18345690D01*
X12820255Y-17500000D01*
X13179465Y-17500000D01*
X14025155Y-18345690D01*
X14273786Y-18268581D01*
X14470937Y-17722565D01*
X14444130Y-17142666D01*
X14273786Y-16731419D01*
X14025155Y-16654310D01*
X13179465Y-17500000D01*
X12820255Y-17500000D01*
X11974565Y-16654310D01*
X11725934Y-16731419D01*
X11528783Y-17277435D01*
X11456810Y-17277435D01*
X11456810Y-17209741D01*
X11234655Y-16673413D01*
X10824167Y-16262925D01*
X10287839Y-16040770D01*
X9707321Y-16040770D01*
X9170993Y-16262925D01*
X8760505Y-16673413D01*
X8668634Y-16895209D01*
X8394741Y-16233974D01*
X8005354Y-15844587D01*
X12085018Y-15844587D01*
X12131443Y-16067435D01*
X12396177Y-16157771D01*
X12231279Y-16226074D01*
X12154170Y-16474705D01*
X12999860Y-17320395D01*
X13845550Y-16474705D01*
X13768441Y-16226074D01*
X13350174Y-16075050D01*
X13368557Y-16067435D01*
X13414982Y-15844587D01*
X12750000Y-15179605D01*
X12085018Y-15844587D01*
X8005354Y-15844587D01*
X7766026Y-15605259D01*
X6944569Y-15265000D01*
X6055431Y-15265000D01*
X5233974Y-15605259D01*
X4605259Y-16233974D01*
X4265000Y-17055431D01*
X2896593Y-17055431D01*
X2738355Y-16673413D01*
X2327867Y-16262925D01*
X2261280Y-16235344D01*
X2261280Y-14837018D01*
X11527108Y-14837018D01*
X11557824Y-15317405D01*
X11682565Y-15618557D01*
X11905413Y-15664982D01*
X12570395Y-15000000D01*
X12929605Y-15000000D01*
X13594587Y-15664982D01*
X13817435Y-15618557D01*
X13972892Y-15162982D01*
X13942176Y-14682595D01*
X13817435Y-14381443D01*
X13594587Y-14335018D01*
X12929605Y-15000000D01*
X12570395Y-15000000D01*
X11905413Y-14335018D01*
X11682565Y-14381443D01*
X11527108Y-14837018D01*
X2261280Y-14837018D01*
X2261280Y-14155413D01*
X12085018Y-14155413D01*
X12750000Y-14820395D01*
X13414982Y-14155413D01*
X13368557Y-13932565D01*
X12912982Y-13777108D01*
X12432595Y-13807824D01*
X12131443Y-13932565D01*
X12085018Y-14155413D01*
X2261280Y-14155413D01*
X2261280Y-13095810D01*
X15469660Y-13095810D01*
X15469660Y-13904190D01*
X15779014Y-14651035D01*
X16350625Y-15222646D01*
X17097470Y-15532000D01*
X17905850Y-15532000D01*
X18652695Y-15222646D01*
X19224306Y-14651035D01*
X19533660Y-13904190D01*
X19533660Y-13095810D01*
X24466340Y-13095810D01*
X24466340Y-13904190D01*
X24775694Y-14651035D01*
X25347305Y-15222646D01*
X26094150Y-15532000D01*
X26902530Y-15532000D01*
X27649375Y-15222646D01*
X28220986Y-14651035D01*
X28530340Y-13904190D01*
X28530340Y-13095810D01*
X28220986Y-12348965D01*
X27649375Y-11777354D01*
X26902530Y-11468000D01*
X26094150Y-11468000D01*
X25347305Y-11777354D01*
X24775694Y-12348965D01*
X24466340Y-13095810D01*
X19533660Y-13095810D01*
X19224306Y-12348965D01*
X18652695Y-11777354D01*
X17905850Y-11468000D01*
X17097470Y-11468000D01*
X16350625Y-11777354D01*
X15779014Y-12348965D01*
X15469660Y-13095810D01*
X2261280Y-13095810D01*
X2261280Y-12270642D01*
X2614577Y-12034577D01*
X2931740Y-11559909D01*
X3043113Y-11000000D01*
X2986336Y-10714561D01*
X7765000Y-10714561D01*
X7765000Y-11285439D01*
X7983466Y-11812862D01*
X8387138Y-12216534D01*
X8914561Y-12435000D01*
X9485439Y-12435000D01*
X10012862Y-12216534D01*
X10416534Y-11812862D01*
X10438430Y-11760000D01*
X11672265Y-11760000D01*
X11724212Y-11885410D01*
X12064590Y-12225788D01*
X12509316Y-12410000D01*
X12990684Y-12410000D01*
X13435410Y-12225788D01*
X13775788Y-11885410D01*
X13960000Y-11440684D01*
X13960000Y-10959316D01*
X13775788Y-10514590D01*
X13435410Y-10174212D01*
X12990684Y-9990000D01*
X12509316Y-9990000D01*
X12064590Y-10174212D01*
X11998802Y-10240000D01*
X10438430Y-10240000D01*
X10416534Y-10187138D01*
X10012862Y-9783466D01*
X9485439Y-9565000D01*
X8914561Y-9565000D01*
X8387138Y-9783466D01*
X7983466Y-10187138D01*
X7765000Y-10714561D01*
X2986336Y-10714561D01*
X2931740Y-10440091D01*
X2614577Y-9965423D01*
X2139909Y-9648260D01*
X1721333Y-9565000D01*
X1438667Y-9565000D01*
X1020091Y-9648260D01*
X735000Y-9838752D01*
X735000Y-8870000D01*
X14036887Y-8870000D01*
X14148260Y-9429909D01*
X14465423Y-9904577D01*
X14940091Y-10221740D01*
X15358667Y-10305000D01*
X15641333Y-10305000D01*
X16059909Y-10221740D01*
X16534577Y-9904577D01*
X16851740Y-9429909D01*
X16963113Y-8870000D01*
X16851740Y-8310091D01*
X16534577Y-7835423D01*
X16059909Y-7518260D01*
X15641333Y-7435000D01*
X15358667Y-7435000D01*
X14940091Y-7518260D01*
X14465423Y-7835423D01*
X14148260Y-8310091D01*
X14036887Y-8870000D01*
X735000Y-8870000D01*
X735000Y-5762055D01*
X1211021Y-5959230D01*
X1791539Y-5959230D01*
X1858127Y-5931648D01*
X2910953Y-6984476D01*
X2953351Y-7047929D01*
X3016804Y-7090327D01*
X3016806Y-7090329D01*
X3142182Y-7174102D01*
X3204743Y-7215904D01*
X3426428Y-7260000D01*
X3426432Y-7260000D01*
X3501279Y-7274888D01*
X3576126Y-7260000D01*
X27375199Y-7260000D01*
X30540000Y-10424802D01*
X30540000Y-10800684D01*
X30724212Y-11245410D01*
X31064590Y-11585788D01*
X31509316Y-11770000D01*
X31990684Y-11770000D01*
X32435410Y-11585788D01*
X32775788Y-11245410D01*
X32960000Y-10800684D01*
X32960000Y-10319316D01*
X32775788Y-9874590D01*
X32435410Y-9534212D01*
X31990684Y-9350000D01*
X31614802Y-9350000D01*
X28280331Y-6015530D01*
X28242712Y-5959230D01*
X28292679Y-5959230D01*
X28829007Y-5737075D01*
X29239495Y-5326587D01*
X29331366Y-5104791D01*
X29605259Y-5766026D01*
X30233974Y-6394741D01*
X31055431Y-6735000D01*
X31944569Y-6735000D01*
X32766026Y-6394741D01*
X33394741Y-5766026D01*
X33735000Y-4944569D01*
X33735000Y-4055431D01*
X33394741Y-3233974D01*
X32766026Y-2605259D01*
X31944569Y-2265000D01*
X31055431Y-2265000D01*
X30233974Y-2605259D01*
X29605259Y-3233974D01*
X29331366Y-3895209D01*
X29239495Y-3673413D01*
X28829007Y-3262925D01*
X28292679Y-3040770D01*
X27712161Y-3040770D01*
X27175833Y-3262925D01*
X26765345Y-3673413D01*
X26543190Y-4209741D01*
X26543190Y-4790259D01*
X26765345Y-5326587D01*
X27175833Y-5737075D01*
X27182895Y-5740000D01*
X25779243Y-5740000D01*
X25845830Y-5525295D01*
X25000140Y-4679605D01*
X24154450Y-5525295D01*
X24221037Y-5740000D01*
X21680817Y-5740000D01*
X22051310Y-5369507D01*
X22285000Y-4805330D01*
X22285000Y-4277435D01*
X23529063Y-4277435D01*
X23555870Y-4857334D01*
X23726214Y-5268581D01*
X23974845Y-5345690D01*
X24820535Y-4500000D01*
X25179745Y-4500000D01*
X26025435Y-5345690D01*
X26274066Y-5268581D01*
X26471217Y-4722565D01*
X26444410Y-4142666D01*
X26274066Y-3731419D01*
X26025435Y-3654310D01*
X25179745Y-4500000D01*
X24820535Y-4500000D01*
X23974845Y-3654310D01*
X23726214Y-3731419D01*
X23529063Y-4277435D01*
X22285000Y-4277435D01*
X22285000Y-4194670D01*
X22051310Y-3630493D01*
X21895522Y-3474705D01*
X24154450Y-3474705D01*
X25000140Y-4320395D01*
X25845830Y-3474705D01*
X25768721Y-3226074D01*
X25222705Y-3028923D01*
X24642806Y-3055730D01*
X24231559Y-3226074D01*
X24154450Y-3474705D01*
X21895522Y-3474705D01*
X21619507Y-3198690D01*
X21055330Y-2965000D01*
X20444670Y-2965000D01*
X20335162Y-3010360D01*
X18090331Y-765530D01*
X18069931Y-735000D01*
X37265001Y-735000D01*
X37265001Y-3237945D01*
G36*
X14065000Y-964561D02*
X14065000Y-1535439D01*
X14283466Y-2062862D01*
X14687138Y-2466534D01*
X15214561Y-2685000D01*
X15785439Y-2685000D01*
X16312862Y-2466534D01*
X16716534Y-2062862D01*
X16738430Y-2010000D01*
X17185199Y-2010000D01*
X18140199Y-2965000D01*
X18082998Y-2965000D01*
X18082998Y-3123748D01*
X17924250Y-2965000D01*
X17183691Y-2965000D01*
X16950302Y-3061673D01*
X16771673Y-3240301D01*
X16675000Y-3473690D01*
X16675000Y-4214250D01*
X16833750Y-4373000D01*
X18083000Y-4373000D01*
X18083000Y-4353000D01*
X18337000Y-4353000D01*
X18337000Y-4373000D01*
X18357000Y-4373000D01*
X18357000Y-4627000D01*
X18337000Y-4627000D01*
X18337000Y-4647000D01*
X18083000Y-4647000D01*
X18083000Y-4627000D01*
X16833750Y-4627000D01*
X16675000Y-4785750D01*
X16675000Y-5526310D01*
X16763513Y-5740000D01*
X13778963Y-5740000D01*
X13845550Y-5525295D01*
X12999860Y-4679605D01*
X12154170Y-5525295D01*
X12220757Y-5740000D01*
X10817105Y-5740000D01*
X10824167Y-5737075D01*
X11234655Y-5326587D01*
X11456810Y-4790259D01*
X11456810Y-4277435D01*
X11528783Y-4277435D01*
X11555590Y-4857334D01*
X11725934Y-5268581D01*
X11974565Y-5345690D01*
X12820255Y-4500000D01*
X13179465Y-4500000D01*
X14025155Y-5345690D01*
X14273786Y-5268581D01*
X14470937Y-4722565D01*
X14444130Y-4142666D01*
X14273786Y-3731419D01*
X14025155Y-3654310D01*
X13179465Y-4500000D01*
X12820255Y-4500000D01*
X11974565Y-3654310D01*
X11725934Y-3731419D01*
X11528783Y-4277435D01*
X11456810Y-4277435D01*
X11456810Y-4209741D01*
X11234655Y-3673413D01*
X11035947Y-3474705D01*
X12154170Y-3474705D01*
X12999860Y-4320395D01*
X13845550Y-3474705D01*
X13768441Y-3226074D01*
X13222425Y-3028923D01*
X12642526Y-3055730D01*
X12231279Y-3226074D01*
X12154170Y-3474705D01*
X11035947Y-3474705D01*
X10824167Y-3262925D01*
X10287839Y-3040770D01*
X9707321Y-3040770D01*
X9170993Y-3262925D01*
X8760505Y-3673413D01*
X8668634Y-3895209D01*
X8394741Y-3233974D01*
X7766026Y-2605259D01*
X6944569Y-2265000D01*
X6055431Y-2265000D01*
X5233974Y-2605259D01*
X4605259Y-3233974D01*
X4265000Y-4055431D01*
X4265000Y-4944569D01*
X4594479Y-5740000D01*
X3816083Y-5740000D01*
X2932928Y-4856847D01*
X2960510Y-4790259D01*
X2960510Y-4209741D01*
X2738355Y-3673413D01*
X2327867Y-3262925D01*
X1791539Y-3040770D01*
X1211021Y-3040770D01*
X735000Y-3237945D01*
X735000Y-735000D01*
X14160087Y-735000D01*
X14065000Y-964561D01*
X14065000Y-964561D01*
G37*
X14065000Y-964561D02*
X14065000Y-1535439D01*
X14283466Y-2062862D01*
X14687138Y-2466534D01*
X15214561Y-2685000D01*
X15785439Y-2685000D01*
X16312862Y-2466534D01*
X16716534Y-2062862D01*
X16738430Y-2010000D01*
X17185199Y-2010000D01*
X18140199Y-2965000D01*
X18082998Y-2965000D01*
X18082998Y-3123748D01*
X17924250Y-2965000D01*
X17183691Y-2965000D01*
X16950302Y-3061673D01*
X16771673Y-3240301D01*
X16675000Y-3473690D01*
X16675000Y-4214250D01*
X16833750Y-4373000D01*
X18083000Y-4373000D01*
X18083000Y-4353000D01*
X18337000Y-4353000D01*
X18337000Y-4373000D01*
X18357000Y-4373000D01*
X18357000Y-4627000D01*
X18337000Y-4627000D01*
X18337000Y-4647000D01*
X18083000Y-4647000D01*
X18083000Y-4627000D01*
X16833750Y-4627000D01*
X16675000Y-4785750D01*
X16675000Y-5526310D01*
X16763513Y-5740000D01*
X13778963Y-5740000D01*
X13845550Y-5525295D01*
X12999860Y-4679605D01*
X12154170Y-5525295D01*
X12220757Y-5740000D01*
X10817105Y-5740000D01*
X10824167Y-5737075D01*
X11234655Y-5326587D01*
X11456810Y-4790259D01*
X11456810Y-4277435D01*
X11528783Y-4277435D01*
X11555590Y-4857334D01*
X11725934Y-5268581D01*
X11974565Y-5345690D01*
X12820255Y-4500000D01*
X13179465Y-4500000D01*
X14025155Y-5345690D01*
X14273786Y-5268581D01*
X14470937Y-4722565D01*
X14444130Y-4142666D01*
X14273786Y-3731419D01*
X14025155Y-3654310D01*
X13179465Y-4500000D01*
X12820255Y-4500000D01*
X11974565Y-3654310D01*
X11725934Y-3731419D01*
X11528783Y-4277435D01*
X11456810Y-4277435D01*
X11456810Y-4209741D01*
X11234655Y-3673413D01*
X11035947Y-3474705D01*
X12154170Y-3474705D01*
X12999860Y-4320395D01*
X13845550Y-3474705D01*
X13768441Y-3226074D01*
X13222425Y-3028923D01*
X12642526Y-3055730D01*
X12231279Y-3226074D01*
X12154170Y-3474705D01*
X11035947Y-3474705D01*
X10824167Y-3262925D01*
X10287839Y-3040770D01*
X9707321Y-3040770D01*
X9170993Y-3262925D01*
X8760505Y-3673413D01*
X8668634Y-3895209D01*
X8394741Y-3233974D01*
X7766026Y-2605259D01*
X6944569Y-2265000D01*
X6055431Y-2265000D01*
X5233974Y-2605259D01*
X4605259Y-3233974D01*
X4265000Y-4055431D01*
X4265000Y-4944569D01*
X4594479Y-5740000D01*
X3816083Y-5740000D01*
X2932928Y-4856847D01*
X2960510Y-4790259D01*
X2960510Y-4209741D01*
X2738355Y-3673413D01*
X2327867Y-3262925D01*
X1791539Y-3040770D01*
X1211021Y-3040770D01*
X735000Y-3237945D01*
X735000Y-735000D01*
X14160087Y-735000D01*
X14065000Y-964561D01*
G04 #@! TD*
M02*
