G04 #@! TF.GenerationSoftware,KiCad,Pcbnew,(5.0.0)*
G04 #@! TF.CreationDate,2018-08-29T10:58:06+02:00*
G04 #@! TF.ProjectId,1u_mult,31755F6D756C742E6B696361645F7063,rev?*
G04 #@! TF.SameCoordinates,Original*
G04 #@! TF.FileFunction,Legend,Top*
G04 #@! TF.FilePolarity,Positive*
%FSLAX46Y46*%
G04 Gerber Fmt 4.6, Leading zero omitted, Abs format (unit mm)*
G04 Created by KiCad (PCBNEW (5.0.0)) date 08/29/18 10:58:06*
%MOMM*%
%LPD*%
G01*
G04 APERTURE LIST*
%ADD10C,0.066040*%
%ADD11C,0.127000*%
%ADD12C,0.076200*%
G04 APERTURE END LIST*
D10*
G04 #@! TO.C,J1*
X8799080Y-7299080D02*
X8799080Y-1700920D01*
X8799080Y-1700920D02*
X3200920Y-1700920D01*
X3200920Y-7299080D02*
X3200920Y-1700920D01*
X8799080Y-7299080D02*
X3200920Y-7299080D01*
D11*
X500900Y-8998340D02*
X520Y-8998340D01*
X520Y-8998340D02*
X520Y-8497960D01*
X520Y-502040D02*
X520Y-1660D01*
X520Y-1660D02*
X500900Y-1660D01*
X9997960Y-1660D02*
X10498340Y-1660D01*
X10498340Y-1660D02*
X10498340Y-502040D01*
X9997960Y-8998340D02*
X10498340Y-8998340D01*
X10498340Y-8998340D02*
X10498340Y-8497960D01*
X8689860Y-4500000D02*
G75*
G03X8689860Y-4500000I-2689860J0D01*
G01*
G04 #@! TO.C,J2*
X24689860Y-4500000D02*
G75*
G03X24689860Y-4500000I-2689860J0D01*
G01*
X17501660Y-1660D02*
X17501660Y-502040D01*
X18002040Y-1660D02*
X17501660Y-1660D01*
X17501660Y-8998340D02*
X17501660Y-8497960D01*
X18002040Y-8998340D02*
X17501660Y-8998340D01*
X27999480Y-8998340D02*
X27499100Y-8998340D01*
X27999480Y-8497960D02*
X27999480Y-8998340D01*
X27999480Y-1660D02*
X27999480Y-502040D01*
X27499100Y-1660D02*
X27999480Y-1660D01*
D10*
X19200920Y-1700920D02*
X24799080Y-1700920D01*
X24799080Y-1700920D02*
X24799080Y-7299080D01*
X19200920Y-7299080D02*
X24799080Y-7299080D01*
X19200920Y-1700920D02*
X19200920Y-7299080D01*
G04 #@! TO.C,J3*
X8799080Y-20299080D02*
X8799080Y-14700920D01*
X8799080Y-14700920D02*
X3200920Y-14700920D01*
X3200920Y-20299080D02*
X3200920Y-14700920D01*
X8799080Y-20299080D02*
X3200920Y-20299080D01*
D11*
X500900Y-21998340D02*
X520Y-21998340D01*
X520Y-21998340D02*
X520Y-21497960D01*
X520Y-13502040D02*
X520Y-13001660D01*
X520Y-13001660D02*
X500900Y-13001660D01*
X9997960Y-13001660D02*
X10498340Y-13001660D01*
X10498340Y-13001660D02*
X10498340Y-13502040D01*
X9997960Y-21998340D02*
X10498340Y-21998340D01*
X10498340Y-21998340D02*
X10498340Y-21497960D01*
X8689860Y-17500000D02*
G75*
G03X8689860Y-17500000I-2689860J0D01*
G01*
G04 #@! TO.C,J4*
X24689860Y-17500000D02*
G75*
G03X24689860Y-17500000I-2689860J0D01*
G01*
X17501660Y-13001660D02*
X17501660Y-13502040D01*
X18002040Y-13001660D02*
X17501660Y-13001660D01*
X17501660Y-21998340D02*
X17501660Y-21497960D01*
X18002040Y-21998340D02*
X17501660Y-21998340D01*
X27999480Y-21998340D02*
X27499100Y-21998340D01*
X27999480Y-21497960D02*
X27999480Y-21998340D01*
X27999480Y-13001660D02*
X27999480Y-13502040D01*
X27499100Y-13001660D02*
X27999480Y-13001660D01*
D10*
X19200920Y-14700920D02*
X24799080Y-14700920D01*
X24799080Y-14700920D02*
X24799080Y-20299080D01*
X19200920Y-20299080D02*
X24799080Y-20299080D01*
X19200920Y-14700920D02*
X19200920Y-20299080D01*
G04 #@! TO.C,J1*
D12*
X10676019Y-2857466D02*
X11401733Y-2857466D01*
X11546876Y-2905847D01*
X11643638Y-3002609D01*
X11692019Y-3147752D01*
X11692019Y-3244514D01*
X11692019Y-1841466D02*
X11692019Y-2422038D01*
X11692019Y-2131752D02*
X10676019Y-2131752D01*
X10821161Y-2228514D01*
X10917923Y-2325276D01*
X10966304Y-2422038D01*
G04 #@! TO.C,J2*
X16211219Y-6819866D02*
X16936933Y-6819866D01*
X17082076Y-6868247D01*
X17178838Y-6965009D01*
X17227219Y-7110152D01*
X17227219Y-7206914D01*
X16307980Y-6384438D02*
X16259600Y-6336057D01*
X16211219Y-6239295D01*
X16211219Y-5997390D01*
X16259600Y-5900628D01*
X16307980Y-5852247D01*
X16404742Y-5803866D01*
X16501504Y-5803866D01*
X16646647Y-5852247D01*
X17227219Y-6432819D01*
X17227219Y-5803866D01*
G04 #@! TO.C,J3*
X10676019Y-15857466D02*
X11401733Y-15857466D01*
X11546876Y-15905847D01*
X11643638Y-16002609D01*
X11692019Y-16147752D01*
X11692019Y-16244514D01*
X10676019Y-15470419D02*
X10676019Y-14841466D01*
X11063066Y-15180133D01*
X11063066Y-15034990D01*
X11111447Y-14938228D01*
X11159828Y-14889847D01*
X11256590Y-14841466D01*
X11498495Y-14841466D01*
X11595257Y-14889847D01*
X11643638Y-14938228D01*
X11692019Y-15034990D01*
X11692019Y-15325276D01*
X11643638Y-15422038D01*
X11595257Y-15470419D01*
G04 #@! TO.C,J4*
X16211219Y-19819866D02*
X16936933Y-19819866D01*
X17082076Y-19868247D01*
X17178838Y-19965009D01*
X17227219Y-20110152D01*
X17227219Y-20206914D01*
X16549885Y-18900628D02*
X17227219Y-18900628D01*
X16162838Y-19142533D02*
X16888552Y-19384438D01*
X16888552Y-18755485D01*
G04 #@! TD*
M02*
