G04 #@! TF.GenerationSoftware,KiCad,Pcbnew,(5.0.0)*
G04 #@! TF.CreationDate,2018-08-28T22:02:12+02:00*
G04 #@! TF.ProjectId,1u_mult,31755F6D756C742E6B696361645F7063,rev?*
G04 #@! TF.SameCoordinates,Original*
G04 #@! TF.FileFunction,Copper,L1,Top,Signal*
G04 #@! TF.FilePolarity,Positive*
%FSLAX46Y46*%
G04 Gerber Fmt 4.6, Leading zero omitted, Abs format (unit mm)*
G04 Created by KiCad (PCBNEW (5.0.0)) date 08/28/18 22:02:12*
%MOMM*%
%LPD*%
G01*
G04 APERTURE LIST*
G04 #@! TA.AperFunction,ComponentPad*
%ADD10C,1.648460*%
G04 #@! TD*
G04 #@! TA.AperFunction,Conductor*
%ADD11C,0.250000*%
G04 #@! TD*
G04 #@! TA.AperFunction,Conductor*
%ADD12C,0.254000*%
G04 #@! TD*
G04 APERTURE END LIST*
D10*
G04 #@! TO.P,J1,P$1_TIP*
G04 #@! TO.N,Net-(J1-PadP$1_TIP)*
X1001280Y-4500000D03*
G04 #@! TO.P,J1,P$2_SWITCH*
G04 #@! TO.N,N/C*
X9497580Y-4500000D03*
G04 #@! TO.P,J1,P$3_SLEEVE*
G04 #@! TO.N,GND*
X12499860Y-4500000D03*
G04 #@! TD*
G04 #@! TO.P,J2,P$3_SLEEVE*
G04 #@! TO.N,GND*
X15500140Y-4500000D03*
G04 #@! TO.P,J2,P$2_SWITCH*
G04 #@! TO.N,N/C*
X18502420Y-4500000D03*
G04 #@! TO.P,J2,P$1_TIP*
G04 #@! TO.N,Net-(J1-PadP$1_TIP)*
X26998720Y-4500000D03*
G04 #@! TD*
G04 #@! TO.P,J3,P$1_TIP*
G04 #@! TO.N,Net-(J1-PadP$1_TIP)*
X1001280Y-17500000D03*
G04 #@! TO.P,J3,P$2_SWITCH*
G04 #@! TO.N,N/C*
X9497580Y-17500000D03*
G04 #@! TO.P,J3,P$3_SLEEVE*
G04 #@! TO.N,GND*
X12499860Y-17500000D03*
G04 #@! TD*
G04 #@! TO.P,J4,P$3_SLEEVE*
G04 #@! TO.N,GND*
X15500140Y-17500000D03*
G04 #@! TO.P,J4,P$2_SWITCH*
G04 #@! TO.N,N/C*
X18502420Y-17500000D03*
G04 #@! TO.P,J4,P$1_TIP*
G04 #@! TO.N,Net-(J1-PadP$1_TIP)*
X26998720Y-17500000D03*
G04 #@! TD*
D11*
G04 #@! TO.N,Net-(J1-PadP$1_TIP)*
X26998720Y-4500000D02*
X26998720Y-17500000D01*
X1825509Y-5324229D02*
X1001280Y-4500000D01*
X1825509Y-16675771D02*
X1825509Y-5324229D01*
X1001280Y-17500000D02*
X1825509Y-16675771D01*
X26174491Y-5324229D02*
X26998720Y-4500000D01*
X25073719Y-6425001D02*
X26174491Y-5324229D01*
X2926281Y-6425001D02*
X25073719Y-6425001D01*
X1001280Y-4500000D02*
X2926281Y-6425001D01*
G04 #@! TD*
D12*
G04 #@! TO.N,GND*
G36*
X26238721Y-16235343D02*
X26172133Y-16262925D01*
X25761645Y-16673413D01*
X25539490Y-17209741D01*
X25539490Y-17790259D01*
X25761645Y-18326587D01*
X26172133Y-18737075D01*
X26708461Y-18959230D01*
X27265000Y-18959230D01*
X27265000Y-21265000D01*
X735000Y-21265000D01*
X735000Y-18959230D01*
X1291539Y-18959230D01*
X1827867Y-18737075D01*
X2238355Y-18326587D01*
X2460510Y-17790259D01*
X2460510Y-17209741D01*
X2430758Y-17137914D01*
X2485872Y-17055431D01*
X3765000Y-17055431D01*
X3765000Y-17944569D01*
X4105259Y-18766026D01*
X4733974Y-19394741D01*
X5555431Y-19735000D01*
X6444569Y-19735000D01*
X7266026Y-19394741D01*
X7894741Y-18766026D01*
X8168634Y-18104791D01*
X8260505Y-18326587D01*
X8670993Y-18737075D01*
X9207321Y-18959230D01*
X9787839Y-18959230D01*
X10324167Y-18737075D01*
X10535947Y-18525295D01*
X11654170Y-18525295D01*
X11731279Y-18773926D01*
X12277295Y-18971077D01*
X12857194Y-18944270D01*
X13268441Y-18773926D01*
X13345550Y-18525295D01*
X14654450Y-18525295D01*
X14731559Y-18773926D01*
X15277575Y-18971077D01*
X15857474Y-18944270D01*
X16268721Y-18773926D01*
X16345830Y-18525295D01*
X15500140Y-17679605D01*
X14654450Y-18525295D01*
X13345550Y-18525295D01*
X12499860Y-17679605D01*
X11654170Y-18525295D01*
X10535947Y-18525295D01*
X10734655Y-18326587D01*
X10956810Y-17790259D01*
X10956810Y-17277435D01*
X11028783Y-17277435D01*
X11055590Y-17857334D01*
X11225934Y-18268581D01*
X11474565Y-18345690D01*
X12320255Y-17500000D01*
X12679465Y-17500000D01*
X13525155Y-18345690D01*
X13773786Y-18268581D01*
X13970937Y-17722565D01*
X13950360Y-17277435D01*
X14029063Y-17277435D01*
X14055870Y-17857334D01*
X14226214Y-18268581D01*
X14474845Y-18345690D01*
X15320535Y-17500000D01*
X15679745Y-17500000D01*
X16525435Y-18345690D01*
X16774066Y-18268581D01*
X16971217Y-17722565D01*
X16947511Y-17209741D01*
X17043190Y-17209741D01*
X17043190Y-17790259D01*
X17265345Y-18326587D01*
X17675833Y-18737075D01*
X18212161Y-18959230D01*
X18792679Y-18959230D01*
X19329007Y-18737075D01*
X19739495Y-18326587D01*
X19831366Y-18104791D01*
X20105259Y-18766026D01*
X20733974Y-19394741D01*
X21555431Y-19735000D01*
X22444569Y-19735000D01*
X23266026Y-19394741D01*
X23894741Y-18766026D01*
X24235000Y-17944569D01*
X24235000Y-17055431D01*
X23894741Y-16233974D01*
X23266026Y-15605259D01*
X22444569Y-15265000D01*
X21555431Y-15265000D01*
X20733974Y-15605259D01*
X20105259Y-16233974D01*
X19831366Y-16895209D01*
X19739495Y-16673413D01*
X19329007Y-16262925D01*
X18792679Y-16040770D01*
X18212161Y-16040770D01*
X17675833Y-16262925D01*
X17265345Y-16673413D01*
X17043190Y-17209741D01*
X16947511Y-17209741D01*
X16944410Y-17142666D01*
X16774066Y-16731419D01*
X16525435Y-16654310D01*
X15679745Y-17500000D01*
X15320535Y-17500000D01*
X14474845Y-16654310D01*
X14226214Y-16731419D01*
X14029063Y-17277435D01*
X13950360Y-17277435D01*
X13944130Y-17142666D01*
X13773786Y-16731419D01*
X13525155Y-16654310D01*
X12679465Y-17500000D01*
X12320255Y-17500000D01*
X11474565Y-16654310D01*
X11225934Y-16731419D01*
X11028783Y-17277435D01*
X10956810Y-17277435D01*
X10956810Y-17209741D01*
X10734655Y-16673413D01*
X10535947Y-16474705D01*
X11654170Y-16474705D01*
X12499860Y-17320395D01*
X13345550Y-16474705D01*
X14654450Y-16474705D01*
X15500140Y-17320395D01*
X16345830Y-16474705D01*
X16268721Y-16226074D01*
X15722705Y-16028923D01*
X15142806Y-16055730D01*
X14731559Y-16226074D01*
X14654450Y-16474705D01*
X13345550Y-16474705D01*
X13268441Y-16226074D01*
X12722425Y-16028923D01*
X12142526Y-16055730D01*
X11731279Y-16226074D01*
X11654170Y-16474705D01*
X10535947Y-16474705D01*
X10324167Y-16262925D01*
X9787839Y-16040770D01*
X9207321Y-16040770D01*
X8670993Y-16262925D01*
X8260505Y-16673413D01*
X8168634Y-16895209D01*
X7894741Y-16233974D01*
X7266026Y-15605259D01*
X6444569Y-15265000D01*
X5555431Y-15265000D01*
X4733974Y-15605259D01*
X4105259Y-16233974D01*
X3765000Y-17055431D01*
X2485872Y-17055431D01*
X2541413Y-16972309D01*
X2550989Y-16924166D01*
X2585509Y-16750623D01*
X2585509Y-16750619D01*
X2600397Y-16675771D01*
X2585509Y-16600923D01*
X2585509Y-7111348D01*
X2629744Y-7140905D01*
X2851429Y-7185001D01*
X2851433Y-7185001D01*
X2926281Y-7199889D01*
X3001129Y-7185001D01*
X24998872Y-7185001D01*
X25073719Y-7199889D01*
X25148566Y-7185001D01*
X25148571Y-7185001D01*
X25370256Y-7140905D01*
X25621648Y-6972930D01*
X25664050Y-6909471D01*
X26238720Y-6334801D01*
X26238721Y-16235343D01*
X26238721Y-16235343D01*
G37*
X26238721Y-16235343D02*
X26172133Y-16262925D01*
X25761645Y-16673413D01*
X25539490Y-17209741D01*
X25539490Y-17790259D01*
X25761645Y-18326587D01*
X26172133Y-18737075D01*
X26708461Y-18959230D01*
X27265000Y-18959230D01*
X27265000Y-21265000D01*
X735000Y-21265000D01*
X735000Y-18959230D01*
X1291539Y-18959230D01*
X1827867Y-18737075D01*
X2238355Y-18326587D01*
X2460510Y-17790259D01*
X2460510Y-17209741D01*
X2430758Y-17137914D01*
X2485872Y-17055431D01*
X3765000Y-17055431D01*
X3765000Y-17944569D01*
X4105259Y-18766026D01*
X4733974Y-19394741D01*
X5555431Y-19735000D01*
X6444569Y-19735000D01*
X7266026Y-19394741D01*
X7894741Y-18766026D01*
X8168634Y-18104791D01*
X8260505Y-18326587D01*
X8670993Y-18737075D01*
X9207321Y-18959230D01*
X9787839Y-18959230D01*
X10324167Y-18737075D01*
X10535947Y-18525295D01*
X11654170Y-18525295D01*
X11731279Y-18773926D01*
X12277295Y-18971077D01*
X12857194Y-18944270D01*
X13268441Y-18773926D01*
X13345550Y-18525295D01*
X14654450Y-18525295D01*
X14731559Y-18773926D01*
X15277575Y-18971077D01*
X15857474Y-18944270D01*
X16268721Y-18773926D01*
X16345830Y-18525295D01*
X15500140Y-17679605D01*
X14654450Y-18525295D01*
X13345550Y-18525295D01*
X12499860Y-17679605D01*
X11654170Y-18525295D01*
X10535947Y-18525295D01*
X10734655Y-18326587D01*
X10956810Y-17790259D01*
X10956810Y-17277435D01*
X11028783Y-17277435D01*
X11055590Y-17857334D01*
X11225934Y-18268581D01*
X11474565Y-18345690D01*
X12320255Y-17500000D01*
X12679465Y-17500000D01*
X13525155Y-18345690D01*
X13773786Y-18268581D01*
X13970937Y-17722565D01*
X13950360Y-17277435D01*
X14029063Y-17277435D01*
X14055870Y-17857334D01*
X14226214Y-18268581D01*
X14474845Y-18345690D01*
X15320535Y-17500000D01*
X15679745Y-17500000D01*
X16525435Y-18345690D01*
X16774066Y-18268581D01*
X16971217Y-17722565D01*
X16947511Y-17209741D01*
X17043190Y-17209741D01*
X17043190Y-17790259D01*
X17265345Y-18326587D01*
X17675833Y-18737075D01*
X18212161Y-18959230D01*
X18792679Y-18959230D01*
X19329007Y-18737075D01*
X19739495Y-18326587D01*
X19831366Y-18104791D01*
X20105259Y-18766026D01*
X20733974Y-19394741D01*
X21555431Y-19735000D01*
X22444569Y-19735000D01*
X23266026Y-19394741D01*
X23894741Y-18766026D01*
X24235000Y-17944569D01*
X24235000Y-17055431D01*
X23894741Y-16233974D01*
X23266026Y-15605259D01*
X22444569Y-15265000D01*
X21555431Y-15265000D01*
X20733974Y-15605259D01*
X20105259Y-16233974D01*
X19831366Y-16895209D01*
X19739495Y-16673413D01*
X19329007Y-16262925D01*
X18792679Y-16040770D01*
X18212161Y-16040770D01*
X17675833Y-16262925D01*
X17265345Y-16673413D01*
X17043190Y-17209741D01*
X16947511Y-17209741D01*
X16944410Y-17142666D01*
X16774066Y-16731419D01*
X16525435Y-16654310D01*
X15679745Y-17500000D01*
X15320535Y-17500000D01*
X14474845Y-16654310D01*
X14226214Y-16731419D01*
X14029063Y-17277435D01*
X13950360Y-17277435D01*
X13944130Y-17142666D01*
X13773786Y-16731419D01*
X13525155Y-16654310D01*
X12679465Y-17500000D01*
X12320255Y-17500000D01*
X11474565Y-16654310D01*
X11225934Y-16731419D01*
X11028783Y-17277435D01*
X10956810Y-17277435D01*
X10956810Y-17209741D01*
X10734655Y-16673413D01*
X10535947Y-16474705D01*
X11654170Y-16474705D01*
X12499860Y-17320395D01*
X13345550Y-16474705D01*
X14654450Y-16474705D01*
X15500140Y-17320395D01*
X16345830Y-16474705D01*
X16268721Y-16226074D01*
X15722705Y-16028923D01*
X15142806Y-16055730D01*
X14731559Y-16226074D01*
X14654450Y-16474705D01*
X13345550Y-16474705D01*
X13268441Y-16226074D01*
X12722425Y-16028923D01*
X12142526Y-16055730D01*
X11731279Y-16226074D01*
X11654170Y-16474705D01*
X10535947Y-16474705D01*
X10324167Y-16262925D01*
X9787839Y-16040770D01*
X9207321Y-16040770D01*
X8670993Y-16262925D01*
X8260505Y-16673413D01*
X8168634Y-16895209D01*
X7894741Y-16233974D01*
X7266026Y-15605259D01*
X6444569Y-15265000D01*
X5555431Y-15265000D01*
X4733974Y-15605259D01*
X4105259Y-16233974D01*
X3765000Y-17055431D01*
X2485872Y-17055431D01*
X2541413Y-16972309D01*
X2550989Y-16924166D01*
X2585509Y-16750623D01*
X2585509Y-16750619D01*
X2600397Y-16675771D01*
X2585509Y-16600923D01*
X2585509Y-7111348D01*
X2629744Y-7140905D01*
X2851429Y-7185001D01*
X2851433Y-7185001D01*
X2926281Y-7199889D01*
X3001129Y-7185001D01*
X24998872Y-7185001D01*
X25073719Y-7199889D01*
X25148566Y-7185001D01*
X25148571Y-7185001D01*
X25370256Y-7140905D01*
X25621648Y-6972930D01*
X25664050Y-6909471D01*
X26238720Y-6334801D01*
X26238721Y-16235343D01*
G36*
X27265001Y-3040770D02*
X26708461Y-3040770D01*
X26172133Y-3262925D01*
X25761645Y-3673413D01*
X25539490Y-4209741D01*
X25539490Y-4790259D01*
X25567072Y-4856847D01*
X24758918Y-5665001D01*
X23936587Y-5665001D01*
X24235000Y-4944569D01*
X24235000Y-4055431D01*
X23894741Y-3233974D01*
X23266026Y-2605259D01*
X22444569Y-2265000D01*
X21555431Y-2265000D01*
X20733974Y-2605259D01*
X20105259Y-3233974D01*
X19831366Y-3895209D01*
X19739495Y-3673413D01*
X19329007Y-3262925D01*
X18792679Y-3040770D01*
X18212161Y-3040770D01*
X17675833Y-3262925D01*
X17265345Y-3673413D01*
X17043190Y-4209741D01*
X17043190Y-4790259D01*
X17265345Y-5326587D01*
X17603759Y-5665001D01*
X16302502Y-5665001D01*
X16345830Y-5525295D01*
X15500140Y-4679605D01*
X14654450Y-5525295D01*
X14697778Y-5665001D01*
X13302222Y-5665001D01*
X13345550Y-5525295D01*
X12499860Y-4679605D01*
X11654170Y-5525295D01*
X11697498Y-5665001D01*
X10396241Y-5665001D01*
X10734655Y-5326587D01*
X10956810Y-4790259D01*
X10956810Y-4277435D01*
X11028783Y-4277435D01*
X11055590Y-4857334D01*
X11225934Y-5268581D01*
X11474565Y-5345690D01*
X12320255Y-4500000D01*
X12679465Y-4500000D01*
X13525155Y-5345690D01*
X13773786Y-5268581D01*
X13970937Y-4722565D01*
X13950360Y-4277435D01*
X14029063Y-4277435D01*
X14055870Y-4857334D01*
X14226214Y-5268581D01*
X14474845Y-5345690D01*
X15320535Y-4500000D01*
X15679745Y-4500000D01*
X16525435Y-5345690D01*
X16774066Y-5268581D01*
X16971217Y-4722565D01*
X16944410Y-4142666D01*
X16774066Y-3731419D01*
X16525435Y-3654310D01*
X15679745Y-4500000D01*
X15320535Y-4500000D01*
X14474845Y-3654310D01*
X14226214Y-3731419D01*
X14029063Y-4277435D01*
X13950360Y-4277435D01*
X13944130Y-4142666D01*
X13773786Y-3731419D01*
X13525155Y-3654310D01*
X12679465Y-4500000D01*
X12320255Y-4500000D01*
X11474565Y-3654310D01*
X11225934Y-3731419D01*
X11028783Y-4277435D01*
X10956810Y-4277435D01*
X10956810Y-4209741D01*
X10734655Y-3673413D01*
X10535947Y-3474705D01*
X11654170Y-3474705D01*
X12499860Y-4320395D01*
X13345550Y-3474705D01*
X14654450Y-3474705D01*
X15500140Y-4320395D01*
X16345830Y-3474705D01*
X16268721Y-3226074D01*
X15722705Y-3028923D01*
X15142806Y-3055730D01*
X14731559Y-3226074D01*
X14654450Y-3474705D01*
X13345550Y-3474705D01*
X13268441Y-3226074D01*
X12722425Y-3028923D01*
X12142526Y-3055730D01*
X11731279Y-3226074D01*
X11654170Y-3474705D01*
X10535947Y-3474705D01*
X10324167Y-3262925D01*
X9787839Y-3040770D01*
X9207321Y-3040770D01*
X8670993Y-3262925D01*
X8260505Y-3673413D01*
X8168634Y-3895209D01*
X7894741Y-3233974D01*
X7266026Y-2605259D01*
X6444569Y-2265000D01*
X5555431Y-2265000D01*
X4733974Y-2605259D01*
X4105259Y-3233974D01*
X3765000Y-4055431D01*
X3765000Y-4944569D01*
X4063413Y-5665001D01*
X3241083Y-5665001D01*
X2432928Y-4856847D01*
X2460510Y-4790259D01*
X2460510Y-4209741D01*
X2238355Y-3673413D01*
X1827867Y-3262925D01*
X1291539Y-3040770D01*
X735000Y-3040770D01*
X735000Y-735000D01*
X27265001Y-735000D01*
X27265001Y-3040770D01*
X27265001Y-3040770D01*
G37*
X27265001Y-3040770D02*
X26708461Y-3040770D01*
X26172133Y-3262925D01*
X25761645Y-3673413D01*
X25539490Y-4209741D01*
X25539490Y-4790259D01*
X25567072Y-4856847D01*
X24758918Y-5665001D01*
X23936587Y-5665001D01*
X24235000Y-4944569D01*
X24235000Y-4055431D01*
X23894741Y-3233974D01*
X23266026Y-2605259D01*
X22444569Y-2265000D01*
X21555431Y-2265000D01*
X20733974Y-2605259D01*
X20105259Y-3233974D01*
X19831366Y-3895209D01*
X19739495Y-3673413D01*
X19329007Y-3262925D01*
X18792679Y-3040770D01*
X18212161Y-3040770D01*
X17675833Y-3262925D01*
X17265345Y-3673413D01*
X17043190Y-4209741D01*
X17043190Y-4790259D01*
X17265345Y-5326587D01*
X17603759Y-5665001D01*
X16302502Y-5665001D01*
X16345830Y-5525295D01*
X15500140Y-4679605D01*
X14654450Y-5525295D01*
X14697778Y-5665001D01*
X13302222Y-5665001D01*
X13345550Y-5525295D01*
X12499860Y-4679605D01*
X11654170Y-5525295D01*
X11697498Y-5665001D01*
X10396241Y-5665001D01*
X10734655Y-5326587D01*
X10956810Y-4790259D01*
X10956810Y-4277435D01*
X11028783Y-4277435D01*
X11055590Y-4857334D01*
X11225934Y-5268581D01*
X11474565Y-5345690D01*
X12320255Y-4500000D01*
X12679465Y-4500000D01*
X13525155Y-5345690D01*
X13773786Y-5268581D01*
X13970937Y-4722565D01*
X13950360Y-4277435D01*
X14029063Y-4277435D01*
X14055870Y-4857334D01*
X14226214Y-5268581D01*
X14474845Y-5345690D01*
X15320535Y-4500000D01*
X15679745Y-4500000D01*
X16525435Y-5345690D01*
X16774066Y-5268581D01*
X16971217Y-4722565D01*
X16944410Y-4142666D01*
X16774066Y-3731419D01*
X16525435Y-3654310D01*
X15679745Y-4500000D01*
X15320535Y-4500000D01*
X14474845Y-3654310D01*
X14226214Y-3731419D01*
X14029063Y-4277435D01*
X13950360Y-4277435D01*
X13944130Y-4142666D01*
X13773786Y-3731419D01*
X13525155Y-3654310D01*
X12679465Y-4500000D01*
X12320255Y-4500000D01*
X11474565Y-3654310D01*
X11225934Y-3731419D01*
X11028783Y-4277435D01*
X10956810Y-4277435D01*
X10956810Y-4209741D01*
X10734655Y-3673413D01*
X10535947Y-3474705D01*
X11654170Y-3474705D01*
X12499860Y-4320395D01*
X13345550Y-3474705D01*
X14654450Y-3474705D01*
X15500140Y-4320395D01*
X16345830Y-3474705D01*
X16268721Y-3226074D01*
X15722705Y-3028923D01*
X15142806Y-3055730D01*
X14731559Y-3226074D01*
X14654450Y-3474705D01*
X13345550Y-3474705D01*
X13268441Y-3226074D01*
X12722425Y-3028923D01*
X12142526Y-3055730D01*
X11731279Y-3226074D01*
X11654170Y-3474705D01*
X10535947Y-3474705D01*
X10324167Y-3262925D01*
X9787839Y-3040770D01*
X9207321Y-3040770D01*
X8670993Y-3262925D01*
X8260505Y-3673413D01*
X8168634Y-3895209D01*
X7894741Y-3233974D01*
X7266026Y-2605259D01*
X6444569Y-2265000D01*
X5555431Y-2265000D01*
X4733974Y-2605259D01*
X4105259Y-3233974D01*
X3765000Y-4055431D01*
X3765000Y-4944569D01*
X4063413Y-5665001D01*
X3241083Y-5665001D01*
X2432928Y-4856847D01*
X2460510Y-4790259D01*
X2460510Y-4209741D01*
X2238355Y-3673413D01*
X1827867Y-3262925D01*
X1291539Y-3040770D01*
X735000Y-3040770D01*
X735000Y-735000D01*
X27265001Y-735000D01*
X27265001Y-3040770D01*
G04 #@! TD*
M02*
