M48
;DRILL file {KiCad (5.0.2)-1} date 10-3-2019 17:56:28
;FORMAT={-:-/ absolute / inch / decimal}
FMAT,2
INCH,TZ
T1C0.0157
T2C0.0315
T3C0.0354
T4C0.0394
T5C0.0400
T6C0.0433
T7C0.0450
T8C0.0472
T9C0.0630
%
G90
G05
T1
X1.7727Y-3.0414
X2.7418Y-2.146
X2.743Y-1.3681
X2.7461Y-1.1713
X3.276Y-2.1374
X3.7795Y-0.1181
T2
X0.8268Y-3.2283
X0.9252Y-3.2283
X1.7913Y-3.3268
X2.0511Y-3.1768
X0.4528Y-3.2283
X0.6496Y-3.2283
X1.4567Y-3.3268
X1.7165Y-3.1768
X2.126Y-3.3268
X2.3858Y-3.1768
X2.4606Y-3.3268
X2.7204Y-3.1768
X2.7953Y-3.3268
X3.0551Y-3.1768
X3.1299Y-3.3268
X3.3897Y-3.1768
X1.122Y-3.2283
X1.2205Y-3.2283
T3
X2.4311Y-1.8209
X2.5311Y-1.8209
X2.4311Y-2.4311
X2.5311Y-2.4311
X2.4311Y-2.2343
X2.5311Y-2.2343
X2.4311Y-2.0276
X2.5311Y-2.0276
T4
X2.8248Y-2.2343
X2.8248Y-2.4311
X2.8248Y-2.0276
T5
X2.9614Y-2.8346
X2.9614Y-2.9346
X3.0614Y-2.8346
X3.0614Y-2.9346
X3.1614Y-2.8346
X3.1614Y-2.9346
X3.2614Y-2.8346
X3.2614Y-2.9346
X3.3614Y-2.8346
X3.3614Y-2.9346
X3.4614Y-2.8346
X3.4614Y-2.9346
X3.5614Y-2.8346
X3.5614Y-2.9346
X3.6614Y-2.8346
X3.6614Y-2.9346
X2.4787Y-0.6693
X2.4787Y-0.7693
X2.4787Y-0.8693
X2.4787Y-0.9693
X2.4787Y-1.0693
X2.4787Y-1.1693
X2.4787Y-1.2693
X2.4787Y-1.3693
X2.5787Y-0.6693
X2.5787Y-0.7693
X2.5787Y-0.8693
X2.5787Y-0.9693
X2.5787Y-1.0693
X2.5787Y-1.1693
X2.5787Y-1.2693
X2.5787Y-1.3693
X0.2252Y-2.8346
X0.2252Y-2.9346
X0.3252Y-2.8346
X0.3252Y-2.9346
X0.4252Y-2.8346
X0.4252Y-2.9346
X0.5252Y-2.8346
X0.5252Y-2.9346
X0.6252Y-2.8346
X0.6252Y-2.9346
X0.7252Y-2.8346
X0.7252Y-2.9346
X0.8252Y-2.8346
X0.8252Y-2.9346
X0.9252Y-2.8346
X0.9252Y-2.9346
X2.9232Y-0.6681
X2.9232Y-0.7681
X2.9232Y-0.8681
X2.9232Y-0.9681
X2.9232Y-1.0681
X2.9232Y-1.1681
X2.9232Y-1.2681
X2.9232Y-1.3681
X3.0232Y-0.6681
X3.0232Y-0.7681
X3.0232Y-0.8681
X3.0232Y-0.9681
X3.0232Y-1.0681
X3.0232Y-1.1681
X3.0232Y-1.2681
X3.0232Y-1.3681
X1.6031Y-2.8346
X1.6031Y-2.9346
X1.7031Y-2.8346
X1.7031Y-2.9346
X1.8031Y-2.8346
X1.8031Y-2.9346
X1.9031Y-2.8346
X1.9031Y-2.9346
X2.0031Y-2.8346
X2.0031Y-2.9346
X2.1031Y-2.8346
X2.1031Y-2.9346
X2.2031Y-2.8346
X2.2031Y-2.9346
X2.3031Y-2.8346
X2.3031Y-2.9346
X3.3646Y-0.6681
X3.3646Y-0.7681
X3.3646Y-0.8681
X3.3646Y-0.9681
X3.3646Y-1.0681
X3.3646Y-1.1681
X3.3646Y-1.2681
X3.3646Y-1.3681
X3.4646Y-0.6681
X3.4646Y-0.7681
X3.4646Y-0.8681
X3.4646Y-0.9681
X3.4646Y-1.0681
X3.4646Y-1.1681
X3.4646Y-1.2681
X3.4646Y-1.3681
X2.6858Y-0.0787
X2.6858Y-0.1787
X2.7858Y-0.0787
X2.7858Y-0.1787
X2.8858Y-0.0787
X2.8858Y-0.1787
X2.9858Y-0.0787
X2.9858Y-0.1787
X3.0858Y-0.0787
X3.0858Y-0.1787
X3.1858Y-0.0787
X3.1858Y-0.1787
X3.2858Y-0.0787
X3.2858Y-0.1787
X3.3858Y-0.0787
X3.3858Y-0.1787
X1.3965Y-0.0787
X1.3965Y-0.1787
X1.4965Y-0.0787
X1.4965Y-0.1787
X1.5965Y-0.0787
X1.5965Y-0.1787
X1.6965Y-0.0787
X1.6965Y-0.1787
X1.7965Y-0.0787
X1.7965Y-0.1787
X1.8965Y-0.0787
X1.8965Y-0.1787
X1.9965Y-0.0787
X1.9965Y-0.1787
X2.0965Y-0.0787
X2.0965Y-0.1787
T6
X0.1575Y-1.9425
X0.1575Y-2.3425
T7
X0.9091Y-2.024
X1.2091Y-1.224
X1.3091Y-2.024
X1.4091Y-1.224
X1.7091Y-2.024
T8
X3.1201Y-2.0374
X3.1201Y-2.1374
X3.1201Y-2.2374
X0.2362Y-0.0969
X0.2362Y-0.1969
T9
X0.1575Y-0.7189
X0.1575Y-1.3189
T0
M30
