M48
;DRILL file {KiCad (5.0.0)} date 11/09/18 21:51:36
;FORMAT={-:-/ absolute / inch / decimal}
FMAT,2
INCH,TZ
T1C0.0295
T2C0.0315
T3C0.0394
T4C0.0433
T5C0.0472
T6C0.0591
%
G90
G05
M72
T1
X1.387Y-2.3819
X1.437Y-2.3819
X1.487Y-2.3819
T2
X1.7913Y-1.5748
X2.0913Y-1.5748
X0.9205Y-1.5748
X1.2205Y-1.5748
X0.7874Y-1.511
X0.7874Y-1.811
X2.1063Y-1.0433
X2.1063Y-1.2402
X0.7874Y-1.9244
X0.7874Y-2.2244
X1.3583Y-1.5748
X1.6583Y-1.5748
X1.3898Y-3.5039
X1.4882Y-3.5039
X1.9291Y-1.0433
X1.9291Y-1.2402
T3
X1.0236Y-0.9449
X1.0236Y-1.0449
T4
X1.6291Y-1.4173
X1.9291Y-1.4173
X1.0583Y-1.4173
X1.3583Y-1.4173
X0.8268Y-1.1024
X0.8268Y-1.2024
X0.8268Y-1.3024
T5
X0.9252Y-2.4213
X0.9252Y-2.6181
X0.9252Y-2.815
X1.9291Y-3.0906
X1.9291Y-3.2874
X1.9291Y-3.4843
X1.9291Y-2.4213
X1.9291Y-2.6181
X1.9291Y-2.815
X0.9252Y-3.0906
X0.9252Y-3.2874
X0.9252Y-3.4843
X1.2598Y-0.9055
X1.4567Y-0.9055
X1.6535Y-0.9055
T6
X1.063Y-1.8307
X1.063Y-2.126
X1.6535Y-1.8307
X1.6535Y-2.126
X1.8504Y-1.8307
X1.8504Y-2.126
X2.0472Y-1.8307
X2.0472Y-2.126
T0
M30
