G04 #@! TF.GenerationSoftware,KiCad,Pcbnew,(5.0.0)*
G04 #@! TF.CreationDate,2018-11-09T21:51:42+01:00*
G04 #@! TF.ProjectId,PSUCompanion,505355436F6D70616E696F6E2E6B6963,rev?*
G04 #@! TF.SameCoordinates,Original*
G04 #@! TF.FileFunction,Legend,Top*
G04 #@! TF.FilePolarity,Positive*
%FSLAX46Y46*%
G04 Gerber Fmt 4.6, Leading zero omitted, Abs format (unit mm)*
G04 Created by KiCad (PCBNEW (5.0.0)) date 11/09/18 21:51:42*
%MOMM*%
%LPD*%
G01*
G04 APERTURE LIST*
%ADD10C,0.150000*%
%ADD11C,0.300000*%
%ADD12C,0.120000*%
G04 APERTURE END LIST*
D10*
X43000000Y-83500000D02*
X44500000Y-83500000D01*
X28000000Y-83500000D02*
X29500000Y-83500000D01*
X28000000Y-66500000D02*
X29500000Y-66500000D01*
X43000000Y-66500000D02*
X44500000Y-66500000D01*
X42000000Y-28500000D02*
X42000000Y-23000000D01*
X37000000Y-31000000D02*
X37000000Y-23000000D01*
X32000000Y-28500000D02*
X32000000Y-23000000D01*
D11*
X35821428Y-33035714D02*
X35750000Y-33107142D01*
X35535714Y-33178571D01*
X35392857Y-33178571D01*
X35178571Y-33107142D01*
X35035714Y-32964285D01*
X34964285Y-32821428D01*
X34892857Y-32535714D01*
X34892857Y-32321428D01*
X34964285Y-32035714D01*
X35035714Y-31892857D01*
X35178571Y-31750000D01*
X35392857Y-31678571D01*
X35535714Y-31678571D01*
X35750000Y-31750000D01*
X35821428Y-31821428D01*
X36750000Y-31678571D02*
X37035714Y-31678571D01*
X37178571Y-31750000D01*
X37321428Y-31892857D01*
X37392857Y-32178571D01*
X37392857Y-32678571D01*
X37321428Y-32964285D01*
X37178571Y-33107142D01*
X37035714Y-33178571D01*
X36750000Y-33178571D01*
X36607142Y-33107142D01*
X36464285Y-32964285D01*
X36392857Y-32678571D01*
X36392857Y-32178571D01*
X36464285Y-31892857D01*
X36607142Y-31750000D01*
X36750000Y-31678571D01*
X38035714Y-33178571D02*
X38035714Y-31678571D01*
X38535714Y-32750000D01*
X39035714Y-31678571D01*
X39035714Y-33178571D01*
X35000000Y-74178571D02*
X35285714Y-74178571D01*
X35428571Y-74250000D01*
X35571428Y-74392857D01*
X35642857Y-74678571D01*
X35642857Y-75178571D01*
X35571428Y-75464285D01*
X35428571Y-75607142D01*
X35285714Y-75678571D01*
X35000000Y-75678571D01*
X34857142Y-75607142D01*
X34714285Y-75464285D01*
X34642857Y-75178571D01*
X34642857Y-74678571D01*
X34714285Y-74392857D01*
X34857142Y-74250000D01*
X35000000Y-74178571D01*
X36285714Y-74178571D02*
X36285714Y-75392857D01*
X36357142Y-75535714D01*
X36428571Y-75607142D01*
X36571428Y-75678571D01*
X36857142Y-75678571D01*
X37000000Y-75607142D01*
X37071428Y-75535714D01*
X37142857Y-75392857D01*
X37142857Y-74178571D01*
X37642857Y-74178571D02*
X38500000Y-74178571D01*
X38071428Y-75678571D02*
X38071428Y-74178571D01*
X46052142Y-20178571D02*
X46052142Y-18678571D01*
X46766428Y-20178571D02*
X46766428Y-18678571D01*
X47623571Y-20178571D01*
X47623571Y-18678571D01*
X28857142Y-30107142D02*
X30000000Y-30107142D01*
X31500000Y-30678571D02*
X30642857Y-30678571D01*
X31071428Y-30678571D02*
X31071428Y-29178571D01*
X30928571Y-29392857D01*
X30785714Y-29535714D01*
X30642857Y-29607142D01*
X32071428Y-29321428D02*
X32142857Y-29250000D01*
X32285714Y-29178571D01*
X32642857Y-29178571D01*
X32785714Y-29250000D01*
X32857142Y-29321428D01*
X32928571Y-29464285D01*
X32928571Y-29607142D01*
X32857142Y-29821428D01*
X32000000Y-30678571D01*
X32928571Y-30678571D01*
X33357142Y-29178571D02*
X33857142Y-30678571D01*
X34357142Y-29178571D01*
X39357142Y-30107142D02*
X40500000Y-30107142D01*
X39928571Y-30678571D02*
X39928571Y-29535714D01*
X42000000Y-30678571D02*
X41142857Y-30678571D01*
X41571428Y-30678571D02*
X41571428Y-29178571D01*
X41428571Y-29392857D01*
X41285714Y-29535714D01*
X41142857Y-29607142D01*
X42571428Y-29321428D02*
X42642857Y-29250000D01*
X42785714Y-29178571D01*
X43142857Y-29178571D01*
X43285714Y-29250000D01*
X43357142Y-29321428D01*
X43428571Y-29464285D01*
X43428571Y-29607142D01*
X43357142Y-29821428D01*
X42500000Y-30678571D01*
X43428571Y-30678571D01*
X43857142Y-29178571D02*
X44357142Y-30678571D01*
X44857142Y-29178571D01*
X31107142Y-68428571D02*
X31107142Y-67285714D01*
X31678571Y-67857142D02*
X30535714Y-67857142D01*
X30178571Y-65857142D02*
X30178571Y-66571428D01*
X30892857Y-66642857D01*
X30821428Y-66571428D01*
X30750000Y-66428571D01*
X30750000Y-66071428D01*
X30821428Y-65928571D01*
X30892857Y-65857142D01*
X31035714Y-65785714D01*
X31392857Y-65785714D01*
X31535714Y-65857142D01*
X31607142Y-65928571D01*
X31678571Y-66071428D01*
X31678571Y-66428571D01*
X31607142Y-66571428D01*
X31535714Y-66642857D01*
X30178571Y-65357142D02*
X31678571Y-64857142D01*
X30178571Y-64357142D01*
X31107142Y-86142857D02*
X31107142Y-85000000D01*
X31678571Y-85571428D02*
X30535714Y-85571428D01*
X31678571Y-83500000D02*
X31678571Y-84357142D01*
X31678571Y-83928571D02*
X30178571Y-83928571D01*
X30392857Y-84071428D01*
X30535714Y-84214285D01*
X30607142Y-84357142D01*
X30321428Y-82928571D02*
X30250000Y-82857142D01*
X30178571Y-82714285D01*
X30178571Y-82357142D01*
X30250000Y-82214285D01*
X30321428Y-82142857D01*
X30464285Y-82071428D01*
X30607142Y-82071428D01*
X30821428Y-82142857D01*
X31678571Y-83000000D01*
X31678571Y-82071428D01*
X30178571Y-81642857D02*
X31678571Y-81142857D01*
X30178571Y-80642857D01*
X42035714Y-67678571D02*
X42107142Y-67750000D01*
X42178571Y-67964285D01*
X42178571Y-68107142D01*
X42107142Y-68321428D01*
X41964285Y-68464285D01*
X41821428Y-68535714D01*
X41535714Y-68607142D01*
X41321428Y-68607142D01*
X41035714Y-68535714D01*
X40892857Y-68464285D01*
X40750000Y-68321428D01*
X40678571Y-68107142D01*
X40678571Y-67964285D01*
X40750000Y-67750000D01*
X40821428Y-67678571D01*
X40678571Y-66750000D02*
X40678571Y-66464285D01*
X40750000Y-66321428D01*
X40892857Y-66178571D01*
X41178571Y-66107142D01*
X41678571Y-66107142D01*
X41964285Y-66178571D01*
X42107142Y-66321428D01*
X42178571Y-66464285D01*
X42178571Y-66750000D01*
X42107142Y-66892857D01*
X41964285Y-67035714D01*
X41678571Y-67107142D01*
X41178571Y-67107142D01*
X40892857Y-67035714D01*
X40750000Y-66892857D01*
X40678571Y-66750000D01*
X42178571Y-65464285D02*
X40678571Y-65464285D01*
X41750000Y-64964285D01*
X40678571Y-64464285D01*
X42178571Y-64464285D01*
X41607142Y-86392857D02*
X41607142Y-85250000D01*
X42178571Y-83750000D02*
X42178571Y-84607142D01*
X42178571Y-84178571D02*
X40678571Y-84178571D01*
X40892857Y-84321428D01*
X41035714Y-84464285D01*
X41107142Y-84607142D01*
X40821428Y-83178571D02*
X40750000Y-83107142D01*
X40678571Y-82964285D01*
X40678571Y-82607142D01*
X40750000Y-82464285D01*
X40821428Y-82392857D01*
X40964285Y-82321428D01*
X41107142Y-82321428D01*
X41321428Y-82392857D01*
X42178571Y-83250000D01*
X42178571Y-82321428D01*
X40678571Y-81892857D02*
X42178571Y-81392857D01*
X40678571Y-80892857D01*
D12*
G04 #@! TO.C,R3*
X23920000Y-38960000D02*
X23920000Y-38630000D01*
X23920000Y-38630000D02*
X30460000Y-38630000D01*
X30460000Y-38630000D02*
X30460000Y-38960000D01*
X23920000Y-41040000D02*
X23920000Y-41370000D01*
X23920000Y-41370000D02*
X30460000Y-41370000D01*
X30460000Y-41370000D02*
X30460000Y-41040000D01*
G04 #@! TO.C,R2*
X18630000Y-45460000D02*
X18960000Y-45460000D01*
X18630000Y-38920000D02*
X18630000Y-45460000D01*
X18960000Y-38920000D02*
X18630000Y-38920000D01*
X21370000Y-45460000D02*
X21040000Y-45460000D01*
X21370000Y-38920000D02*
X21370000Y-45460000D01*
X21040000Y-38920000D02*
X21370000Y-38920000D01*
G04 #@! TO.C,J3*
X17800000Y-75700000D02*
X17800000Y-76200000D01*
X18540000Y-75700000D02*
X17800000Y-75700000D01*
X28360000Y-91060000D02*
X18040000Y-91060000D01*
X28360000Y-75940000D02*
X18040000Y-75940000D01*
X18040000Y-75940000D02*
X18040000Y-91060000D01*
X28360000Y-75940000D02*
X28360000Y-91060000D01*
X19700000Y-75940000D02*
X19700000Y-91060000D01*
X18600000Y-75940000D02*
X18600000Y-91060000D01*
X25055000Y-88500000D02*
G75*
G03X25055000Y-88500000I-1555000J0D01*
G01*
X25055000Y-83500000D02*
G75*
G03X25055000Y-83500000I-1555000J0D01*
G01*
X21944508Y-78527011D02*
G75*
G02X22068000Y-77892000I1555492J27011D01*
G01*
X22892258Y-77067891D02*
G75*
G02X24108000Y-77068000I607742J-1432109D01*
G01*
X24932109Y-77892258D02*
G75*
G02X24932000Y-79108000I-1432109J-607742D01*
G01*
X24107742Y-79932109D02*
G75*
G02X22892000Y-79932000I-607742J1432109D01*
G01*
X22068615Y-79107587D02*
G75*
G02X21945000Y-78500000I1431385J607587D01*
G01*
G04 #@! TO.C,U1*
X17730000Y-35660000D02*
X17730000Y-25420000D01*
X22371000Y-35660000D02*
X22371000Y-25420000D01*
X17730000Y-35660000D02*
X22371000Y-35660000D01*
X17730000Y-25420000D02*
X22371000Y-25420000D01*
X19240000Y-35660000D02*
X19240000Y-25420000D01*
X17730000Y-32390000D02*
X19240000Y-32390000D01*
X17730000Y-28689000D02*
X19240000Y-28689000D01*
G04 #@! TO.C,J2*
X17800000Y-58700000D02*
X17800000Y-59200000D01*
X18540000Y-58700000D02*
X17800000Y-58700000D01*
X28360000Y-74060000D02*
X18040000Y-74060000D01*
X28360000Y-58940000D02*
X18040000Y-58940000D01*
X18040000Y-58940000D02*
X18040000Y-74060000D01*
X28360000Y-58940000D02*
X28360000Y-74060000D01*
X19700000Y-58940000D02*
X19700000Y-74060000D01*
X18600000Y-58940000D02*
X18600000Y-74060000D01*
X25055000Y-71500000D02*
G75*
G03X25055000Y-71500000I-1555000J0D01*
G01*
X25055000Y-66500000D02*
G75*
G03X25055000Y-66500000I-1555000J0D01*
G01*
X21944508Y-61527011D02*
G75*
G02X22068000Y-60892000I1555492J27011D01*
G01*
X22892258Y-60067891D02*
G75*
G02X24108000Y-60068000I607742J-1432109D01*
G01*
X24932109Y-60892258D02*
G75*
G02X24932000Y-62108000I-1432109J-607742D01*
G01*
X24107742Y-62932109D02*
G75*
G02X22892000Y-62932000I-607742J1432109D01*
G01*
X22068615Y-62107587D02*
G75*
G02X21945000Y-61500000I1431385J607587D01*
G01*
G04 #@! TO.C,J4*
X54700000Y-74300000D02*
X54700000Y-73800000D01*
X53960000Y-74300000D02*
X54700000Y-74300000D01*
X44140000Y-58940000D02*
X54460000Y-58940000D01*
X44140000Y-74060000D02*
X54460000Y-74060000D01*
X54460000Y-74060000D02*
X54460000Y-58940000D01*
X44140000Y-74060000D02*
X44140000Y-58940000D01*
X52800000Y-74060000D02*
X52800000Y-58940000D01*
X53900000Y-74060000D02*
X53900000Y-58940000D01*
X50555000Y-61500000D02*
G75*
G03X50555000Y-61500000I-1555000J0D01*
G01*
X50555000Y-66500000D02*
G75*
G03X50555000Y-66500000I-1555000J0D01*
G01*
X50555492Y-71472989D02*
G75*
G02X50432000Y-72108000I-1555492J-27011D01*
G01*
X49607742Y-72932109D02*
G75*
G02X48392000Y-72932000I-607742J1432109D01*
G01*
X47567891Y-72107742D02*
G75*
G02X47568000Y-70892000I1432109J607742D01*
G01*
X48392258Y-70067891D02*
G75*
G02X49608000Y-70068000I607742J-1432109D01*
G01*
X50431385Y-70892413D02*
G75*
G02X50555000Y-71500000I-1431385J-607587D01*
G01*
G04 #@! TO.C,J5*
X54700000Y-91300000D02*
X54700000Y-90800000D01*
X53960000Y-91300000D02*
X54700000Y-91300000D01*
X44140000Y-75940000D02*
X54460000Y-75940000D01*
X44140000Y-91060000D02*
X54460000Y-91060000D01*
X54460000Y-91060000D02*
X54460000Y-75940000D01*
X44140000Y-91060000D02*
X44140000Y-75940000D01*
X52800000Y-91060000D02*
X52800000Y-75940000D01*
X53900000Y-91060000D02*
X53900000Y-75940000D01*
X50555000Y-78500000D02*
G75*
G03X50555000Y-78500000I-1555000J0D01*
G01*
X50555000Y-83500000D02*
G75*
G03X50555000Y-83500000I-1555000J0D01*
G01*
X50555492Y-88472989D02*
G75*
G02X50432000Y-89108000I-1555492J-27011D01*
G01*
X49607742Y-89932109D02*
G75*
G02X48392000Y-89932000I-607742J1432109D01*
G01*
X47567891Y-89107742D02*
G75*
G02X47568000Y-87892000I1432109J607742D01*
G01*
X48392258Y-87067891D02*
G75*
G02X49608000Y-87068000I607742J-1432109D01*
G01*
X50431385Y-87892413D02*
G75*
G02X50555000Y-88500000I-1431385J-607587D01*
G01*
G04 #@! TO.C,J1*
X44800000Y-17300000D02*
X44300000Y-17300000D01*
X44800000Y-18040000D02*
X44800000Y-17300000D01*
X29440000Y-27860000D02*
X29440000Y-17540000D01*
X44560000Y-27860000D02*
X44560000Y-17540000D01*
X44560000Y-17540000D02*
X29440000Y-17540000D01*
X44560000Y-27860000D02*
X29440000Y-27860000D01*
X44560000Y-19200000D02*
X29440000Y-19200000D01*
X44560000Y-18100000D02*
X29440000Y-18100000D01*
X33555000Y-23000000D02*
G75*
G03X33555000Y-23000000I-1555000J0D01*
G01*
X38555000Y-23000000D02*
G75*
G03X38555000Y-23000000I-1555000J0D01*
G01*
X41972989Y-21444508D02*
G75*
G02X42608000Y-21568000I27011J-1555492D01*
G01*
X43432109Y-22392258D02*
G75*
G02X43432000Y-23608000I-1432109J-607742D01*
G01*
X42607742Y-24432109D02*
G75*
G02X41392000Y-24432000I-607742J1432109D01*
G01*
X40567891Y-23607742D02*
G75*
G02X40568000Y-22392000I1432109J607742D01*
G01*
X41392413Y-21568615D02*
G75*
G02X42000000Y-21445000I607587J-1431385D01*
G01*
G04 #@! TO.C,RL1*
X53400000Y-43750000D02*
X24600000Y-43750000D01*
X24600000Y-43750000D02*
X24600000Y-56750000D01*
X24600000Y-56750000D02*
X53400000Y-56750000D01*
X53400000Y-56750000D02*
X53400000Y-43750000D01*
X27200000Y-50600000D02*
X26800000Y-49900000D01*
X27600000Y-49900000D02*
X26400000Y-49900000D01*
X26400000Y-49900000D02*
X26400000Y-50600000D01*
X26400000Y-50600000D02*
X27600000Y-50600000D01*
X27600000Y-50600000D02*
X27600000Y-49900000D01*
X26700000Y-56990000D02*
X24360000Y-56990000D01*
X24360000Y-56990000D02*
X24360000Y-54650000D01*
G04 #@! TO.C,C3*
X40420000Y-89000000D02*
G75*
G03X40420000Y-89000000I-3870000J0D01*
G01*
X36550000Y-85170000D02*
X36550000Y-92830000D01*
X36590000Y-85170000D02*
X36590000Y-92830000D01*
X36630000Y-85170000D02*
X36630000Y-92830000D01*
X36670000Y-85171000D02*
X36670000Y-92829000D01*
X36710000Y-85173000D02*
X36710000Y-92827000D01*
X36750000Y-85175000D02*
X36750000Y-92825000D01*
X36790000Y-85177000D02*
X36790000Y-87960000D01*
X36790000Y-90040000D02*
X36790000Y-92823000D01*
X36830000Y-85180000D02*
X36830000Y-87960000D01*
X36830000Y-90040000D02*
X36830000Y-92820000D01*
X36870000Y-85183000D02*
X36870000Y-87960000D01*
X36870000Y-90040000D02*
X36870000Y-92817000D01*
X36910000Y-85186000D02*
X36910000Y-87960000D01*
X36910000Y-90040000D02*
X36910000Y-92814000D01*
X36950000Y-85190000D02*
X36950000Y-87960000D01*
X36950000Y-90040000D02*
X36950000Y-92810000D01*
X36990000Y-85195000D02*
X36990000Y-87960000D01*
X36990000Y-90040000D02*
X36990000Y-92805000D01*
X37030000Y-85199000D02*
X37030000Y-87960000D01*
X37030000Y-90040000D02*
X37030000Y-92801000D01*
X37070000Y-85205000D02*
X37070000Y-87960000D01*
X37070000Y-90040000D02*
X37070000Y-92795000D01*
X37110000Y-85210000D02*
X37110000Y-87960000D01*
X37110000Y-90040000D02*
X37110000Y-92790000D01*
X37150000Y-85216000D02*
X37150000Y-87960000D01*
X37150000Y-90040000D02*
X37150000Y-92784000D01*
X37190000Y-85223000D02*
X37190000Y-87960000D01*
X37190000Y-90040000D02*
X37190000Y-92777000D01*
X37230000Y-85230000D02*
X37230000Y-87960000D01*
X37230000Y-90040000D02*
X37230000Y-92770000D01*
X37271000Y-85237000D02*
X37271000Y-87960000D01*
X37271000Y-90040000D02*
X37271000Y-92763000D01*
X37311000Y-85245000D02*
X37311000Y-87960000D01*
X37311000Y-90040000D02*
X37311000Y-92755000D01*
X37351000Y-85253000D02*
X37351000Y-87960000D01*
X37351000Y-90040000D02*
X37351000Y-92747000D01*
X37391000Y-85262000D02*
X37391000Y-87960000D01*
X37391000Y-90040000D02*
X37391000Y-92738000D01*
X37431000Y-85271000D02*
X37431000Y-87960000D01*
X37431000Y-90040000D02*
X37431000Y-92729000D01*
X37471000Y-85280000D02*
X37471000Y-87960000D01*
X37471000Y-90040000D02*
X37471000Y-92720000D01*
X37511000Y-85290000D02*
X37511000Y-87960000D01*
X37511000Y-90040000D02*
X37511000Y-92710000D01*
X37551000Y-85301000D02*
X37551000Y-87960000D01*
X37551000Y-90040000D02*
X37551000Y-92699000D01*
X37591000Y-85312000D02*
X37591000Y-87960000D01*
X37591000Y-90040000D02*
X37591000Y-92688000D01*
X37631000Y-85323000D02*
X37631000Y-87960000D01*
X37631000Y-90040000D02*
X37631000Y-92677000D01*
X37671000Y-85335000D02*
X37671000Y-87960000D01*
X37671000Y-90040000D02*
X37671000Y-92665000D01*
X37711000Y-85347000D02*
X37711000Y-87960000D01*
X37711000Y-90040000D02*
X37711000Y-92653000D01*
X37751000Y-85360000D02*
X37751000Y-87960000D01*
X37751000Y-90040000D02*
X37751000Y-92640000D01*
X37791000Y-85374000D02*
X37791000Y-87960000D01*
X37791000Y-90040000D02*
X37791000Y-92626000D01*
X37831000Y-85387000D02*
X37831000Y-87960000D01*
X37831000Y-90040000D02*
X37831000Y-92613000D01*
X37871000Y-85402000D02*
X37871000Y-87960000D01*
X37871000Y-90040000D02*
X37871000Y-92598000D01*
X37911000Y-85416000D02*
X37911000Y-87960000D01*
X37911000Y-90040000D02*
X37911000Y-92584000D01*
X37951000Y-85432000D02*
X37951000Y-87960000D01*
X37951000Y-90040000D02*
X37951000Y-92568000D01*
X37991000Y-85447000D02*
X37991000Y-87960000D01*
X37991000Y-90040000D02*
X37991000Y-92553000D01*
X38031000Y-85464000D02*
X38031000Y-87960000D01*
X38031000Y-90040000D02*
X38031000Y-92536000D01*
X38071000Y-85480000D02*
X38071000Y-87960000D01*
X38071000Y-90040000D02*
X38071000Y-92520000D01*
X38111000Y-85498000D02*
X38111000Y-87960000D01*
X38111000Y-90040000D02*
X38111000Y-92502000D01*
X38151000Y-85516000D02*
X38151000Y-87960000D01*
X38151000Y-90040000D02*
X38151000Y-92484000D01*
X38191000Y-85534000D02*
X38191000Y-87960000D01*
X38191000Y-90040000D02*
X38191000Y-92466000D01*
X38231000Y-85553000D02*
X38231000Y-87960000D01*
X38231000Y-90040000D02*
X38231000Y-92447000D01*
X38271000Y-85573000D02*
X38271000Y-87960000D01*
X38271000Y-90040000D02*
X38271000Y-92427000D01*
X38311000Y-85593000D02*
X38311000Y-87960000D01*
X38311000Y-90040000D02*
X38311000Y-92407000D01*
X38351000Y-85614000D02*
X38351000Y-87960000D01*
X38351000Y-90040000D02*
X38351000Y-92386000D01*
X38391000Y-85635000D02*
X38391000Y-87960000D01*
X38391000Y-90040000D02*
X38391000Y-92365000D01*
X38431000Y-85657000D02*
X38431000Y-87960000D01*
X38431000Y-90040000D02*
X38431000Y-92343000D01*
X38471000Y-85679000D02*
X38471000Y-87960000D01*
X38471000Y-90040000D02*
X38471000Y-92321000D01*
X38511000Y-85703000D02*
X38511000Y-87960000D01*
X38511000Y-90040000D02*
X38511000Y-92297000D01*
X38551000Y-85726000D02*
X38551000Y-87960000D01*
X38551000Y-90040000D02*
X38551000Y-92274000D01*
X38591000Y-85751000D02*
X38591000Y-87960000D01*
X38591000Y-90040000D02*
X38591000Y-92249000D01*
X38631000Y-85776000D02*
X38631000Y-87960000D01*
X38631000Y-90040000D02*
X38631000Y-92224000D01*
X38671000Y-85802000D02*
X38671000Y-87960000D01*
X38671000Y-90040000D02*
X38671000Y-92198000D01*
X38711000Y-85828000D02*
X38711000Y-87960000D01*
X38711000Y-90040000D02*
X38711000Y-92172000D01*
X38751000Y-85856000D02*
X38751000Y-87960000D01*
X38751000Y-90040000D02*
X38751000Y-92144000D01*
X38791000Y-85884000D02*
X38791000Y-87960000D01*
X38791000Y-90040000D02*
X38791000Y-92116000D01*
X38831000Y-85912000D02*
X38831000Y-87960000D01*
X38831000Y-90040000D02*
X38831000Y-92088000D01*
X38871000Y-85942000D02*
X38871000Y-92058000D01*
X38911000Y-85972000D02*
X38911000Y-92028000D01*
X38951000Y-86004000D02*
X38951000Y-91996000D01*
X38991000Y-86036000D02*
X38991000Y-91964000D01*
X39031000Y-86069000D02*
X39031000Y-91931000D01*
X39071000Y-86102000D02*
X39071000Y-91898000D01*
X39111000Y-86137000D02*
X39111000Y-91863000D01*
X39151000Y-86173000D02*
X39151000Y-91827000D01*
X39191000Y-86210000D02*
X39191000Y-91790000D01*
X39231000Y-86248000D02*
X39231000Y-91752000D01*
X39271000Y-86287000D02*
X39271000Y-91713000D01*
X39311000Y-86327000D02*
X39311000Y-91673000D01*
X39351000Y-86368000D02*
X39351000Y-91632000D01*
X39391000Y-86411000D02*
X39391000Y-91589000D01*
X39431000Y-86454000D02*
X39431000Y-91546000D01*
X39471000Y-86500000D02*
X39471000Y-91500000D01*
X39511000Y-86546000D02*
X39511000Y-91454000D01*
X39551000Y-86595000D02*
X39551000Y-91405000D01*
X39591000Y-86645000D02*
X39591000Y-91355000D01*
X39631000Y-86696000D02*
X39631000Y-91304000D01*
X39671000Y-86750000D02*
X39671000Y-91250000D01*
X39711000Y-86805000D02*
X39711000Y-91195000D01*
X39751000Y-86863000D02*
X39751000Y-91137000D01*
X39791000Y-86923000D02*
X39791000Y-91077000D01*
X39831000Y-86986000D02*
X39831000Y-91014000D01*
X39871000Y-87051000D02*
X39871000Y-90949000D01*
X39911000Y-87119000D02*
X39911000Y-90881000D01*
X39951000Y-87191000D02*
X39951000Y-90809000D01*
X39991000Y-87267000D02*
X39991000Y-90733000D01*
X40031000Y-87346000D02*
X40031000Y-90654000D01*
X40071000Y-87431000D02*
X40071000Y-90569000D01*
X40111000Y-87522000D02*
X40111000Y-90478000D01*
X40151000Y-87619000D02*
X40151000Y-90381000D01*
X40191000Y-87725000D02*
X40191000Y-90275000D01*
X40231000Y-87842000D02*
X40231000Y-90158000D01*
X40271000Y-87972000D02*
X40271000Y-90028000D01*
X40311000Y-88123000D02*
X40311000Y-89877000D01*
X40351000Y-88307000D02*
X40351000Y-89693000D01*
X40391000Y-88559000D02*
X40391000Y-89441000D01*
X32407789Y-86825000D02*
X33157789Y-86825000D01*
X32782789Y-86450000D02*
X32782789Y-87200000D01*
G04 #@! TO.C,Q1*
X38300000Y-58650000D02*
X34700000Y-58650000D01*
X38338478Y-58661522D02*
G75*
G02X36500000Y-63100000I-1838478J-1838478D01*
G01*
X34661522Y-58661522D02*
G75*
G03X36500000Y-63100000I1838478J-1838478D01*
G01*
G04 #@! TO.C,C1*
X47630000Y-32620000D02*
X47630000Y-25380000D01*
X50370000Y-32620000D02*
X50370000Y-25380000D01*
X47630000Y-32620000D02*
X50370000Y-32620000D01*
X47630000Y-25380000D02*
X50370000Y-25380000D01*
G04 #@! TO.C,C2*
X52130000Y-25380000D02*
X54870000Y-25380000D01*
X52130000Y-32620000D02*
X54870000Y-32620000D01*
X54870000Y-32620000D02*
X54870000Y-25380000D01*
X52130000Y-32620000D02*
X52130000Y-25380000D01*
G04 #@! TO.C,D1*
X27970000Y-34660000D02*
X27970000Y-34530000D01*
X27970000Y-34530000D02*
X33410000Y-34530000D01*
X33410000Y-34530000D02*
X33410000Y-34660000D01*
X27970000Y-37340000D02*
X27970000Y-37470000D01*
X27970000Y-37470000D02*
X33410000Y-37470000D01*
X33410000Y-37470000D02*
X33410000Y-37340000D01*
X28870000Y-34530000D02*
X28870000Y-37470000D01*
X28990000Y-34530000D02*
X28990000Y-37470000D01*
X28750000Y-34530000D02*
X28750000Y-37470000D01*
G04 #@! TO.C,D2*
X43250000Y-34530000D02*
X43250000Y-37470000D01*
X43490000Y-34530000D02*
X43490000Y-37470000D01*
X43370000Y-34530000D02*
X43370000Y-37470000D01*
X47910000Y-37470000D02*
X47910000Y-37340000D01*
X42470000Y-37470000D02*
X47910000Y-37470000D01*
X42470000Y-37340000D02*
X42470000Y-37470000D01*
X47910000Y-34530000D02*
X47910000Y-34660000D01*
X42470000Y-34530000D02*
X47910000Y-34530000D01*
X42470000Y-34660000D02*
X42470000Y-34530000D01*
G04 #@! TO.C,R1*
X21370000Y-49420000D02*
X21040000Y-49420000D01*
X21370000Y-55960000D02*
X21370000Y-49420000D01*
X21040000Y-55960000D02*
X21370000Y-55960000D01*
X18630000Y-49420000D02*
X18960000Y-49420000D01*
X18630000Y-55960000D02*
X18630000Y-49420000D01*
X18960000Y-55960000D02*
X18630000Y-55960000D01*
G04 #@! TO.C,R4*
X35040000Y-38960000D02*
X35040000Y-38630000D01*
X35040000Y-38630000D02*
X41580000Y-38630000D01*
X41580000Y-38630000D02*
X41580000Y-38960000D01*
X35040000Y-41040000D02*
X35040000Y-41370000D01*
X35040000Y-41370000D02*
X41580000Y-41370000D01*
X41580000Y-41370000D02*
X41580000Y-41040000D01*
G04 #@! TO.C,R5*
X46040000Y-38960000D02*
X46040000Y-38630000D01*
X46040000Y-38630000D02*
X52580000Y-38630000D01*
X52580000Y-38630000D02*
X52580000Y-38960000D01*
X46040000Y-41040000D02*
X46040000Y-41370000D01*
X46040000Y-41370000D02*
X52580000Y-41370000D01*
X52580000Y-41370000D02*
X52580000Y-41040000D01*
G04 #@! TO.C,J6*
X24670000Y-27870000D02*
X27330000Y-27870000D01*
X24670000Y-25270000D02*
X24670000Y-27870000D01*
X27330000Y-25270000D02*
X27330000Y-27870000D01*
X24670000Y-25270000D02*
X27330000Y-25270000D01*
X24670000Y-24000000D02*
X24670000Y-22670000D01*
X24670000Y-22670000D02*
X26000000Y-22670000D01*
G04 #@! TO.C,R3*
D10*
X27023333Y-40452380D02*
X26690000Y-39976190D01*
X26451904Y-40452380D02*
X26451904Y-39452380D01*
X26832857Y-39452380D01*
X26928095Y-39500000D01*
X26975714Y-39547619D01*
X27023333Y-39642857D01*
X27023333Y-39785714D01*
X26975714Y-39880952D01*
X26928095Y-39928571D01*
X26832857Y-39976190D01*
X26451904Y-39976190D01*
X27356666Y-39452380D02*
X27975714Y-39452380D01*
X27642380Y-39833333D01*
X27785238Y-39833333D01*
X27880476Y-39880952D01*
X27928095Y-39928571D01*
X27975714Y-40023809D01*
X27975714Y-40261904D01*
X27928095Y-40357142D01*
X27880476Y-40404761D01*
X27785238Y-40452380D01*
X27499523Y-40452380D01*
X27404285Y-40404761D01*
X27356666Y-40357142D01*
G04 #@! TO.C,R2*
X20452380Y-42356666D02*
X19976190Y-42690000D01*
X20452380Y-42928095D02*
X19452380Y-42928095D01*
X19452380Y-42547142D01*
X19500000Y-42451904D01*
X19547619Y-42404285D01*
X19642857Y-42356666D01*
X19785714Y-42356666D01*
X19880952Y-42404285D01*
X19928571Y-42451904D01*
X19976190Y-42547142D01*
X19976190Y-42928095D01*
X19547619Y-41975714D02*
X19500000Y-41928095D01*
X19452380Y-41832857D01*
X19452380Y-41594761D01*
X19500000Y-41499523D01*
X19547619Y-41451904D01*
X19642857Y-41404285D01*
X19738095Y-41404285D01*
X19880952Y-41451904D01*
X20452380Y-42023333D01*
X20452380Y-41404285D01*
G04 #@! TO.C,J3*
X26952380Y-90083333D02*
X27666666Y-90083333D01*
X27809523Y-90130952D01*
X27904761Y-90226190D01*
X27952380Y-90369047D01*
X27952380Y-90464285D01*
X26952380Y-89702380D02*
X26952380Y-89083333D01*
X27333333Y-89416666D01*
X27333333Y-89273809D01*
X27380952Y-89178571D01*
X27428571Y-89130952D01*
X27523809Y-89083333D01*
X27761904Y-89083333D01*
X27857142Y-89130952D01*
X27904761Y-89178571D01*
X27952380Y-89273809D01*
X27952380Y-89559523D01*
X27904761Y-89654761D01*
X27857142Y-89702380D01*
G04 #@! TO.C,U1*
X18452380Y-24841904D02*
X19261904Y-24841904D01*
X19357142Y-24794285D01*
X19404761Y-24746666D01*
X19452380Y-24651428D01*
X19452380Y-24460952D01*
X19404761Y-24365714D01*
X19357142Y-24318095D01*
X19261904Y-24270476D01*
X18452380Y-24270476D01*
X19452380Y-23270476D02*
X19452380Y-23841904D01*
X19452380Y-23556190D02*
X18452380Y-23556190D01*
X18595238Y-23651428D01*
X18690476Y-23746666D01*
X18738095Y-23841904D01*
G04 #@! TO.C,J2*
X26952380Y-73083333D02*
X27666666Y-73083333D01*
X27809523Y-73130952D01*
X27904761Y-73226190D01*
X27952380Y-73369047D01*
X27952380Y-73464285D01*
X27047619Y-72654761D02*
X27000000Y-72607142D01*
X26952380Y-72511904D01*
X26952380Y-72273809D01*
X27000000Y-72178571D01*
X27047619Y-72130952D01*
X27142857Y-72083333D01*
X27238095Y-72083333D01*
X27380952Y-72130952D01*
X27952380Y-72702380D01*
X27952380Y-72083333D01*
G04 #@! TO.C,J4*
X44452380Y-60583333D02*
X45166666Y-60583333D01*
X45309523Y-60630952D01*
X45404761Y-60726190D01*
X45452380Y-60869047D01*
X45452380Y-60964285D01*
X44785714Y-59678571D02*
X45452380Y-59678571D01*
X44404761Y-59916666D02*
X45119047Y-60154761D01*
X45119047Y-59535714D01*
G04 #@! TO.C,J5*
X44452380Y-77583333D02*
X45166666Y-77583333D01*
X45309523Y-77630952D01*
X45404761Y-77726190D01*
X45452380Y-77869047D01*
X45452380Y-77964285D01*
X44452380Y-76630952D02*
X44452380Y-77107142D01*
X44928571Y-77154761D01*
X44880952Y-77107142D01*
X44833333Y-77011904D01*
X44833333Y-76773809D01*
X44880952Y-76678571D01*
X44928571Y-76630952D01*
X45023809Y-76583333D01*
X45261904Y-76583333D01*
X45357142Y-76630952D01*
X45404761Y-76678571D01*
X45452380Y-76773809D01*
X45452380Y-77011904D01*
X45404761Y-77107142D01*
X45357142Y-77154761D01*
G04 #@! TO.C,J1*
X43166666Y-26452380D02*
X43166666Y-27166666D01*
X43119047Y-27309523D01*
X43023809Y-27404761D01*
X42880952Y-27452380D01*
X42785714Y-27452380D01*
X44166666Y-27452380D02*
X43595238Y-27452380D01*
X43880952Y-27452380D02*
X43880952Y-26452380D01*
X43785714Y-26595238D01*
X43690476Y-26690476D01*
X43595238Y-26738095D01*
G04 #@! TO.C,RL1*
X23297619Y-44428571D02*
X23773809Y-44095238D01*
X23297619Y-43857142D02*
X24297619Y-43857142D01*
X24297619Y-44238095D01*
X24250000Y-44333333D01*
X24202380Y-44380952D01*
X24107142Y-44428571D01*
X23964285Y-44428571D01*
X23869047Y-44380952D01*
X23821428Y-44333333D01*
X23773809Y-44238095D01*
X23773809Y-43857142D01*
X23297619Y-45333333D02*
X23297619Y-44857142D01*
X24297619Y-44857142D01*
X23297619Y-46190476D02*
X23297619Y-45619047D01*
X23297619Y-45904761D02*
X24297619Y-45904761D01*
X24154761Y-45809523D01*
X24059523Y-45714285D01*
X24011904Y-45619047D01*
G04 #@! TO.C,C3*
X36383333Y-84357142D02*
X36335714Y-84404761D01*
X36192857Y-84452380D01*
X36097619Y-84452380D01*
X35954761Y-84404761D01*
X35859523Y-84309523D01*
X35811904Y-84214285D01*
X35764285Y-84023809D01*
X35764285Y-83880952D01*
X35811904Y-83690476D01*
X35859523Y-83595238D01*
X35954761Y-83500000D01*
X36097619Y-83452380D01*
X36192857Y-83452380D01*
X36335714Y-83500000D01*
X36383333Y-83547619D01*
X36716666Y-83452380D02*
X37335714Y-83452380D01*
X37002380Y-83833333D01*
X37145238Y-83833333D01*
X37240476Y-83880952D01*
X37288095Y-83928571D01*
X37335714Y-84023809D01*
X37335714Y-84261904D01*
X37288095Y-84357142D01*
X37240476Y-84404761D01*
X37145238Y-84452380D01*
X36859523Y-84452380D01*
X36764285Y-84404761D01*
X36716666Y-84357142D01*
G04 #@! TO.C,Q1*
X36404761Y-64607619D02*
X36309523Y-64560000D01*
X36214285Y-64464761D01*
X36071428Y-64321904D01*
X35976190Y-64274285D01*
X35880952Y-64274285D01*
X35928571Y-64512380D02*
X35833333Y-64464761D01*
X35738095Y-64369523D01*
X35690476Y-64179047D01*
X35690476Y-63845714D01*
X35738095Y-63655238D01*
X35833333Y-63560000D01*
X35928571Y-63512380D01*
X36119047Y-63512380D01*
X36214285Y-63560000D01*
X36309523Y-63655238D01*
X36357142Y-63845714D01*
X36357142Y-64179047D01*
X36309523Y-64369523D01*
X36214285Y-64464761D01*
X36119047Y-64512380D01*
X35928571Y-64512380D01*
X37309523Y-64512380D02*
X36738095Y-64512380D01*
X37023809Y-64512380D02*
X37023809Y-63512380D01*
X36928571Y-63655238D01*
X36833333Y-63750476D01*
X36738095Y-63798095D01*
G04 #@! TO.C,C1*
X49357142Y-29166666D02*
X49404761Y-29214285D01*
X49452380Y-29357142D01*
X49452380Y-29452380D01*
X49404761Y-29595238D01*
X49309523Y-29690476D01*
X49214285Y-29738095D01*
X49023809Y-29785714D01*
X48880952Y-29785714D01*
X48690476Y-29738095D01*
X48595238Y-29690476D01*
X48500000Y-29595238D01*
X48452380Y-29452380D01*
X48452380Y-29357142D01*
X48500000Y-29214285D01*
X48547619Y-29166666D01*
X49452380Y-28214285D02*
X49452380Y-28785714D01*
X49452380Y-28500000D02*
X48452380Y-28500000D01*
X48595238Y-28595238D01*
X48690476Y-28690476D01*
X48738095Y-28785714D01*
G04 #@! TO.C,C2*
X53857142Y-29166666D02*
X53904761Y-29214285D01*
X53952380Y-29357142D01*
X53952380Y-29452380D01*
X53904761Y-29595238D01*
X53809523Y-29690476D01*
X53714285Y-29738095D01*
X53523809Y-29785714D01*
X53380952Y-29785714D01*
X53190476Y-29738095D01*
X53095238Y-29690476D01*
X53000000Y-29595238D01*
X52952380Y-29452380D01*
X52952380Y-29357142D01*
X53000000Y-29214285D01*
X53047619Y-29166666D01*
X53047619Y-28785714D02*
X53000000Y-28738095D01*
X52952380Y-28642857D01*
X52952380Y-28404761D01*
X53000000Y-28309523D01*
X53047619Y-28261904D01*
X53142857Y-28214285D01*
X53238095Y-28214285D01*
X53380952Y-28261904D01*
X53952380Y-28833333D01*
X53952380Y-28214285D01*
G04 #@! TO.C,D1*
X29951904Y-36452380D02*
X29951904Y-35452380D01*
X30190000Y-35452380D01*
X30332857Y-35500000D01*
X30428095Y-35595238D01*
X30475714Y-35690476D01*
X30523333Y-35880952D01*
X30523333Y-36023809D01*
X30475714Y-36214285D01*
X30428095Y-36309523D01*
X30332857Y-36404761D01*
X30190000Y-36452380D01*
X29951904Y-36452380D01*
X31475714Y-36452380D02*
X30904285Y-36452380D01*
X31190000Y-36452380D02*
X31190000Y-35452380D01*
X31094761Y-35595238D01*
X30999523Y-35690476D01*
X30904285Y-35738095D01*
G04 #@! TO.C,D2*
X44451904Y-36452380D02*
X44451904Y-35452380D01*
X44690000Y-35452380D01*
X44832857Y-35500000D01*
X44928095Y-35595238D01*
X44975714Y-35690476D01*
X45023333Y-35880952D01*
X45023333Y-36023809D01*
X44975714Y-36214285D01*
X44928095Y-36309523D01*
X44832857Y-36404761D01*
X44690000Y-36452380D01*
X44451904Y-36452380D01*
X45404285Y-35547619D02*
X45451904Y-35500000D01*
X45547142Y-35452380D01*
X45785238Y-35452380D01*
X45880476Y-35500000D01*
X45928095Y-35547619D01*
X45975714Y-35642857D01*
X45975714Y-35738095D01*
X45928095Y-35880952D01*
X45356666Y-36452380D01*
X45975714Y-36452380D01*
G04 #@! TO.C,R1*
X20452380Y-52856666D02*
X19976190Y-53190000D01*
X20452380Y-53428095D02*
X19452380Y-53428095D01*
X19452380Y-53047142D01*
X19500000Y-52951904D01*
X19547619Y-52904285D01*
X19642857Y-52856666D01*
X19785714Y-52856666D01*
X19880952Y-52904285D01*
X19928571Y-52951904D01*
X19976190Y-53047142D01*
X19976190Y-53428095D01*
X20452380Y-51904285D02*
X20452380Y-52475714D01*
X20452380Y-52190000D02*
X19452380Y-52190000D01*
X19595238Y-52285238D01*
X19690476Y-52380476D01*
X19738095Y-52475714D01*
G04 #@! TO.C,R4*
X38143333Y-40452380D02*
X37810000Y-39976190D01*
X37571904Y-40452380D02*
X37571904Y-39452380D01*
X37952857Y-39452380D01*
X38048095Y-39500000D01*
X38095714Y-39547619D01*
X38143333Y-39642857D01*
X38143333Y-39785714D01*
X38095714Y-39880952D01*
X38048095Y-39928571D01*
X37952857Y-39976190D01*
X37571904Y-39976190D01*
X39000476Y-39785714D02*
X39000476Y-40452380D01*
X38762380Y-39404761D02*
X38524285Y-40119047D01*
X39143333Y-40119047D01*
G04 #@! TO.C,R5*
X49143333Y-40452380D02*
X48810000Y-39976190D01*
X48571904Y-40452380D02*
X48571904Y-39452380D01*
X48952857Y-39452380D01*
X49048095Y-39500000D01*
X49095714Y-39547619D01*
X49143333Y-39642857D01*
X49143333Y-39785714D01*
X49095714Y-39880952D01*
X49048095Y-39928571D01*
X48952857Y-39976190D01*
X48571904Y-39976190D01*
X50048095Y-39452380D02*
X49571904Y-39452380D01*
X49524285Y-39928571D01*
X49571904Y-39880952D01*
X49667142Y-39833333D01*
X49905238Y-39833333D01*
X50000476Y-39880952D01*
X50048095Y-39928571D01*
X50095714Y-40023809D01*
X50095714Y-40261904D01*
X50048095Y-40357142D01*
X50000476Y-40404761D01*
X49905238Y-40452380D01*
X49667142Y-40452380D01*
X49571904Y-40404761D01*
X49524285Y-40357142D01*
G04 #@! TO.C,J6*
X25666666Y-21122380D02*
X25666666Y-21836666D01*
X25619047Y-21979523D01*
X25523809Y-22074761D01*
X25380952Y-22122380D01*
X25285714Y-22122380D01*
X26571428Y-21122380D02*
X26380952Y-21122380D01*
X26285714Y-21170000D01*
X26238095Y-21217619D01*
X26142857Y-21360476D01*
X26095238Y-21550952D01*
X26095238Y-21931904D01*
X26142857Y-22027142D01*
X26190476Y-22074761D01*
X26285714Y-22122380D01*
X26476190Y-22122380D01*
X26571428Y-22074761D01*
X26619047Y-22027142D01*
X26666666Y-21931904D01*
X26666666Y-21693809D01*
X26619047Y-21598571D01*
X26571428Y-21550952D01*
X26476190Y-21503333D01*
X26285714Y-21503333D01*
X26190476Y-21550952D01*
X26142857Y-21598571D01*
X26095238Y-21693809D01*
G04 #@! TD*
M02*
