G04 #@! TF.GenerationSoftware,KiCad,Pcbnew,(5.0.0)*
G04 #@! TF.CreationDate,2018-08-12T22:02:32+02:00*
G04 #@! TF.ProjectId,twobytwotone,74776F627974776F746F6E652E6B6963,rev?*
G04 #@! TF.SameCoordinates,Original*
G04 #@! TF.FileFunction,Soldermask,Bot*
G04 #@! TF.FilePolarity,Negative*
%FSLAX46Y46*%
G04 Gerber Fmt 4.6, Leading zero omitted, Abs format (unit mm)*
G04 Created by KiCad (PCBNEW (5.0.0)) date 08/12/18 22:02:32*
%MOMM*%
%LPD*%
G01*
G04 APERTURE LIST*
%ADD10C,0.300000*%
%ADD11C,1.600000*%
%ADD12R,1.600000X1.600000*%
%ADD13C,2.200000*%
%ADD14R,2.200000X2.200000*%
%ADD15C,2.000000*%
%ADD16C,2.000000*%
%ADD17O,2.000000X2.000000*%
%ADD18C,4.400000*%
%ADD19C,3.600000*%
%ADD20C,2.048460*%
G04 APERTURE END LIST*
D10*
X2500000Y-107535714D02*
X2571428Y-107607142D01*
X2500000Y-107678571D01*
X2428571Y-107607142D01*
X2500000Y-107535714D01*
X2500000Y-107678571D01*
X2500000Y-107107142D02*
X2428571Y-106250000D01*
X2500000Y-106178571D01*
X2571428Y-106250000D01*
X2500000Y-107107142D01*
X2500000Y-106178571D01*
X26500000Y-107535714D02*
X26571428Y-107607142D01*
X26500000Y-107678571D01*
X26428571Y-107607142D01*
X26500000Y-107535714D01*
X26500000Y-107678571D01*
X26500000Y-107107142D02*
X26428571Y-106250000D01*
X26500000Y-106178571D01*
X26571428Y-106250000D01*
X26500000Y-107107142D01*
X26500000Y-106178571D01*
X27000000Y-2535714D02*
X27071428Y-2607142D01*
X27000000Y-2678571D01*
X26928571Y-2607142D01*
X27000000Y-2535714D01*
X27000000Y-2678571D01*
X27000000Y-2107142D02*
X26928571Y-1250000D01*
X27000000Y-1178571D01*
X27071428Y-1250000D01*
X27000000Y-2107142D01*
X27000000Y-1178571D01*
X2000000Y-2535714D02*
X2071428Y-2607142D01*
X2000000Y-2678571D01*
X1928571Y-2607142D01*
X2000000Y-2535714D01*
X2000000Y-2678571D01*
X2000000Y-2107142D02*
X1928571Y-1250000D01*
X2000000Y-1178571D01*
X2071428Y-1250000D01*
X2000000Y-2107142D01*
X2000000Y-1178571D01*
D11*
G04 #@! TO.C,C1*
X3750000Y-40250000D03*
D12*
X2250000Y-40250000D03*
G04 #@! TD*
G04 #@! TO.C,C3*
X2250000Y-95250000D03*
D11*
X3750000Y-95250000D03*
G04 #@! TD*
D13*
G04 #@! TO.C,D12*
X12000000Y-25960000D03*
D14*
X12000000Y-28500000D03*
G04 #@! TD*
G04 #@! TO.C,D32*
X12000000Y-83540000D03*
D13*
X12000000Y-81000000D03*
G04 #@! TD*
D15*
G04 #@! TO.C,R_VAC_1*
X12250000Y-12250000D03*
X10453949Y-14046051D03*
D16*
X10453949Y-14046051D02*
X10453949Y-14046051D01*
G04 #@! TD*
D15*
G04 #@! TO.C,R_LED_1*
X4046051Y-11453949D03*
D16*
X4046051Y-11453949D02*
X4046051Y-11453949D01*
D15*
X2250000Y-13250000D03*
G04 #@! TD*
G04 #@! TO.C,R_VAC_3*
X12250000Y-67000000D03*
X10453949Y-68796051D03*
D16*
X10453949Y-68796051D02*
X10453949Y-68796051D01*
G04 #@! TD*
D15*
G04 #@! TO.C,R_LED_3*
X4046051Y-66453949D03*
D16*
X4046051Y-66453949D02*
X4046051Y-66453949D01*
D15*
X2250000Y-68250000D03*
G04 #@! TD*
G04 #@! TO.C,VAC-PHOTO1*
X2000000Y-25750000D03*
X2000000Y-28750000D03*
G04 #@! TD*
G04 #@! TO.C,VAC-PHOTO3*
X2000000Y-83750000D03*
X2000000Y-80750000D03*
G04 #@! TD*
D12*
G04 #@! TO.C,C2*
X25500000Y-40250000D03*
D11*
X27000000Y-40250000D03*
G04 #@! TD*
G04 #@! TO.C,C4*
X27000000Y-95250000D03*
D12*
X25500000Y-95250000D03*
G04 #@! TD*
D13*
G04 #@! TO.C,D11*
X7000000Y-11250000D03*
D14*
X7000000Y-13790000D03*
G04 #@! TD*
G04 #@! TO.C,D21*
X22000000Y-13750000D03*
D13*
X22000000Y-11210000D03*
G04 #@! TD*
D14*
G04 #@! TO.C,D22*
X27000000Y-28540000D03*
D13*
X27000000Y-26000000D03*
G04 #@! TD*
G04 #@! TO.C,D31*
X7000000Y-66250000D03*
D14*
X7000000Y-68790000D03*
G04 #@! TD*
G04 #@! TO.C,D41*
X22000000Y-68790000D03*
D13*
X22000000Y-66250000D03*
G04 #@! TD*
G04 #@! TO.C,D42*
X27000000Y-80960000D03*
D14*
X27000000Y-83500000D03*
G04 #@! TD*
D15*
G04 #@! TO.C,R_LED_2*
X19046051Y-11453949D03*
D16*
X19046051Y-11453949D02*
X19046051Y-11453949D01*
D15*
X17250000Y-13250000D03*
G04 #@! TD*
G04 #@! TO.C,R_LED_4*
X19000000Y-66500000D03*
D16*
X19000000Y-66500000D02*
X19000000Y-66500000D01*
D15*
X17203949Y-68296051D03*
G04 #@! TD*
D17*
G04 #@! TO.C,R_OUT_1*
X8250000Y-28750000D03*
D15*
X5710000Y-28750000D03*
G04 #@! TD*
G04 #@! TO.C,R_OUT_2*
X20750000Y-28750000D03*
D17*
X23290000Y-28750000D03*
G04 #@! TD*
D15*
G04 #@! TO.C,R_OUT_3*
X5500000Y-83750000D03*
D17*
X8040000Y-83750000D03*
G04 #@! TD*
G04 #@! TO.C,R_OUT_4*
X23040000Y-83750000D03*
D15*
X20500000Y-83750000D03*
G04 #@! TD*
G04 #@! TO.C,R_VAC_2*
X27250000Y-12250000D03*
X25453949Y-14046051D03*
D16*
X25453949Y-14046051D02*
X25453949Y-14046051D01*
G04 #@! TD*
D15*
G04 #@! TO.C,R_VAC_4*
X27250000Y-67000000D03*
X25453949Y-68796051D03*
D16*
X25453949Y-68796051D02*
X25453949Y-68796051D01*
G04 #@! TD*
D18*
G04 #@! TO.C,RV1*
X11400000Y-46750000D03*
X2600000Y-46750000D03*
D13*
X9500000Y-53750000D03*
X7000000Y-53750000D03*
X4500000Y-53750000D03*
G04 #@! TD*
G04 #@! TO.C,RV2*
X19500000Y-53750000D03*
X22000000Y-53750000D03*
X24500000Y-53750000D03*
D18*
X17600000Y-46750000D03*
X26400000Y-46750000D03*
G04 #@! TD*
G04 #@! TO.C,RV3*
X11400000Y-101500000D03*
X2600000Y-101500000D03*
D13*
X9500000Y-108500000D03*
X7000000Y-108500000D03*
X4500000Y-108500000D03*
G04 #@! TD*
G04 #@! TO.C,RV4*
X19500000Y-108500000D03*
X22000000Y-108500000D03*
X24500000Y-108500000D03*
D18*
X17600000Y-101500000D03*
X26400000Y-101500000D03*
G04 #@! TD*
D15*
G04 #@! TO.C,VAC-PHOTO2*
X17000000Y-28750000D03*
X17000000Y-25750000D03*
G04 #@! TD*
G04 #@! TO.C,VAC-PHOTO4*
X17000000Y-80750000D03*
X17000000Y-83750000D03*
G04 #@! TD*
D19*
G04 #@! TO.C,J_CV_1*
X7000000Y-5250000D03*
D20*
X13499860Y-5250000D03*
X10497580Y-5250000D03*
X2001280Y-5250000D03*
G04 #@! TD*
D19*
G04 #@! TO.C,J_CV_2*
X22000000Y-5250000D03*
D20*
X15500140Y-5250000D03*
X18502420Y-5250000D03*
X26998720Y-5250000D03*
G04 #@! TD*
D19*
G04 #@! TO.C,J_CV_3*
X7000000Y-60250000D03*
D20*
X13499860Y-60250000D03*
X10497580Y-60250000D03*
X2001280Y-60250000D03*
G04 #@! TD*
G04 #@! TO.C,J_CV_4*
X26998720Y-60250000D03*
X18502420Y-60250000D03*
X15500140Y-60250000D03*
D19*
X22000000Y-60250000D03*
G04 #@! TD*
D20*
G04 #@! TO.C,J_IN_1*
X2001280Y-20000000D03*
X10497580Y-20000000D03*
X13499860Y-20000000D03*
D19*
X7000000Y-20000000D03*
G04 #@! TD*
G04 #@! TO.C,J_IN_2*
X22000000Y-20000000D03*
D20*
X15500140Y-20000000D03*
X18502420Y-20000000D03*
X26998720Y-20000000D03*
G04 #@! TD*
G04 #@! TO.C,J_IN_3*
X2001280Y-75000000D03*
X10497580Y-75000000D03*
X13499860Y-75000000D03*
D19*
X7000000Y-75000000D03*
G04 #@! TD*
D20*
G04 #@! TO.C,J_IN_4*
X26998720Y-75000000D03*
X18502420Y-75000000D03*
X15500140Y-75000000D03*
D19*
X22000000Y-75000000D03*
G04 #@! TD*
D20*
G04 #@! TO.C,J_OUT_1*
X2001280Y-34750000D03*
X10497580Y-34750000D03*
X13499860Y-34750000D03*
D19*
X7000000Y-34750000D03*
G04 #@! TD*
D20*
G04 #@! TO.C,J_OUT_2*
X26998720Y-34750000D03*
X18502420Y-34750000D03*
X15500140Y-34750000D03*
D19*
X22000000Y-34750000D03*
G04 #@! TD*
G04 #@! TO.C,J_OUT_3*
X7000000Y-89750000D03*
D20*
X13499860Y-89750000D03*
X10497580Y-89750000D03*
X2001280Y-89750000D03*
G04 #@! TD*
D19*
G04 #@! TO.C,J_OUT_4*
X22000000Y-89750000D03*
D20*
X15500140Y-89750000D03*
X18502420Y-89750000D03*
X26998720Y-89750000D03*
G04 #@! TD*
M02*
