G04 #@! TF.GenerationSoftware,KiCad,Pcbnew,(5.0.2)-1*
G04 #@! TF.CreationDate,2019-04-03T17:46:42+02:00*
G04 #@! TF.ProjectId,Corona_tubeBoard,436f726f-6e61-45f7-9475-6265426f6172,1*
G04 #@! TF.SameCoordinates,Original*
G04 #@! TF.FileFunction,Soldermask,Bot*
G04 #@! TF.FilePolarity,Negative*
%FSLAX46Y46*%
G04 Gerber Fmt 4.6, Leading zero omitted, Abs format (unit mm)*
G04 Created by KiCad (PCBNEW (5.0.2)-1) date 3-4-2019 17:46:42*
%MOMM*%
%LPD*%
G01*
G04 APERTURE LIST*
%ADD10C,0.150000*%
%ADD11C,0.010000*%
%ADD12C,0.100000*%
G04 APERTURE END LIST*
D10*
G36*
X0Y-30000000D02*
X11500000Y-30000000D01*
X11500000Y-47000000D01*
X0Y-47000000D01*
X0Y-30000000D01*
G37*
X0Y-30000000D02*
X11500000Y-30000000D01*
X11500000Y-47000000D01*
X0Y-47000000D01*
X0Y-30000000D01*
D11*
G04 #@! TO.C,MK5*
G36*
X19010584Y-14006838D02*
X19015875Y-14012130D01*
X19021167Y-14006838D01*
X19015875Y-14001547D01*
X19010584Y-14006838D01*
X19010584Y-14006838D01*
G37*
X19010584Y-14006838D02*
X19015875Y-14012130D01*
X19021167Y-14006838D01*
X19015875Y-14001547D01*
X19010584Y-14006838D01*
G36*
X19304666Y-6365150D02*
X19274468Y-6377872D01*
X19229895Y-6397738D01*
X19173261Y-6423655D01*
X19106877Y-6454531D01*
X19033056Y-6489271D01*
X18954109Y-6526782D01*
X18872350Y-6565971D01*
X18790091Y-6605745D01*
X18709643Y-6645010D01*
X18633320Y-6682673D01*
X18566639Y-6716023D01*
X18215522Y-6896482D01*
X17867014Y-7082352D01*
X17522713Y-7272633D01*
X17184214Y-7466329D01*
X16853113Y-7662438D01*
X16531007Y-7859965D01*
X16219491Y-8057908D01*
X15920163Y-8255271D01*
X15634617Y-8451054D01*
X15364451Y-8644259D01*
X15111260Y-8833886D01*
X14876641Y-9018939D01*
X14846597Y-9043417D01*
X14715242Y-9153086D01*
X14581692Y-9268746D01*
X14448703Y-9387806D01*
X14319030Y-9507676D01*
X14195427Y-9625766D01*
X14080649Y-9739486D01*
X13977450Y-9846244D01*
X13888586Y-9943452D01*
X13884215Y-9948417D01*
X13713076Y-10153575D01*
X13561456Y-10357034D01*
X13429472Y-10558494D01*
X13317241Y-10757651D01*
X13224879Y-10954205D01*
X13152504Y-11147855D01*
X13100233Y-11338297D01*
X13068182Y-11525232D01*
X13056469Y-11708356D01*
X13065210Y-11887369D01*
X13083927Y-12011959D01*
X13127290Y-12180132D01*
X13191256Y-12343867D01*
X13275702Y-12503026D01*
X13380503Y-12657470D01*
X13505539Y-12807063D01*
X13650684Y-12951666D01*
X13815817Y-13091140D01*
X14000814Y-13225349D01*
X14205553Y-13354155D01*
X14355498Y-13438321D01*
X14565904Y-13543825D01*
X14796811Y-13645575D01*
X15047874Y-13743484D01*
X15318748Y-13837465D01*
X15609088Y-13927429D01*
X15918547Y-14013289D01*
X16246780Y-14094957D01*
X16593443Y-14172347D01*
X16958190Y-14245369D01*
X17340675Y-14313936D01*
X17740553Y-14377962D01*
X18157478Y-14437358D01*
X18432260Y-14472797D01*
X18511821Y-14482670D01*
X18586634Y-14491981D01*
X18653503Y-14500327D01*
X18709233Y-14507312D01*
X18750630Y-14512534D01*
X18774498Y-14515593D01*
X18775660Y-14515747D01*
X18820639Y-14521714D01*
X18820668Y-14677169D01*
X18820983Y-14741988D01*
X18821887Y-14823867D01*
X18823354Y-14921897D01*
X18825356Y-15035165D01*
X18827866Y-15162760D01*
X18830856Y-15303769D01*
X18834299Y-15457283D01*
X18838168Y-15622388D01*
X18842435Y-15798174D01*
X18847073Y-15983728D01*
X18852055Y-16178139D01*
X18857353Y-16380496D01*
X18862940Y-16589887D01*
X18868788Y-16805400D01*
X18874871Y-17026124D01*
X18881160Y-17251147D01*
X18887629Y-17479558D01*
X18894250Y-17710444D01*
X18900995Y-17942895D01*
X18907838Y-18175999D01*
X18914751Y-18408844D01*
X18921707Y-18640519D01*
X18928678Y-18870111D01*
X18935637Y-19096710D01*
X18942557Y-19319403D01*
X18949410Y-19537280D01*
X18956168Y-19749429D01*
X18962805Y-19954937D01*
X18969294Y-20152894D01*
X18975606Y-20342387D01*
X18981715Y-20522506D01*
X18987592Y-20692339D01*
X18993212Y-20850973D01*
X18998545Y-20997498D01*
X19003566Y-21131001D01*
X19008246Y-21250572D01*
X19012559Y-21355299D01*
X19016477Y-21444269D01*
X19019972Y-21516572D01*
X19023017Y-21571296D01*
X19025586Y-21607529D01*
X19027649Y-21624360D01*
X19029088Y-21621834D01*
X19030232Y-21603654D01*
X19031995Y-21565636D01*
X19034336Y-21509098D01*
X19037207Y-21435359D01*
X19040566Y-21345735D01*
X19044368Y-21241547D01*
X19048569Y-21124110D01*
X19053123Y-20994745D01*
X19057986Y-20854768D01*
X19063114Y-20705498D01*
X19068463Y-20548254D01*
X19073988Y-20384352D01*
X19079644Y-20215112D01*
X19085387Y-20041852D01*
X19091172Y-19865889D01*
X19096956Y-19688542D01*
X19102693Y-19511129D01*
X19108339Y-19334968D01*
X19113850Y-19161377D01*
X19119181Y-18991674D01*
X19124288Y-18827177D01*
X19129126Y-18669206D01*
X19132645Y-18552667D01*
X19138704Y-18347706D01*
X19145123Y-18125122D01*
X19151807Y-17888451D01*
X19158662Y-17641231D01*
X19165593Y-17387001D01*
X19172506Y-17129297D01*
X19179306Y-16871658D01*
X19185900Y-16617622D01*
X19192192Y-16370725D01*
X19198089Y-16134507D01*
X19203495Y-15912503D01*
X19206522Y-15785125D01*
X19209514Y-15658214D01*
X19212556Y-15529759D01*
X19215578Y-15402673D01*
X19218511Y-15279871D01*
X19221285Y-15164270D01*
X19223829Y-15058783D01*
X19226074Y-14966326D01*
X19227950Y-14889814D01*
X19229125Y-14842591D01*
X19236050Y-14566807D01*
X19263824Y-14570071D01*
X19569636Y-14606916D01*
X19856049Y-14643339D01*
X20124820Y-14679623D01*
X20377706Y-14716055D01*
X20616462Y-14752918D01*
X20842845Y-14790498D01*
X21058611Y-14829079D01*
X21265517Y-14868947D01*
X21465319Y-14910386D01*
X21659772Y-14953682D01*
X21731056Y-14970309D01*
X21982000Y-15032455D01*
X22226942Y-15098827D01*
X22464207Y-15168818D01*
X22692122Y-15241820D01*
X22909010Y-15317225D01*
X23113198Y-15394426D01*
X23303011Y-15472815D01*
X23476774Y-15551783D01*
X23632813Y-15630725D01*
X23769454Y-15709030D01*
X23773639Y-15711613D01*
X23902448Y-15797714D01*
X24024855Y-15892069D01*
X24137397Y-15991590D01*
X24236614Y-16093189D01*
X24319044Y-16193779D01*
X24328090Y-16206260D01*
X24372279Y-16275968D01*
X24415786Y-16358435D01*
X24454758Y-16445495D01*
X24485342Y-16528980D01*
X24493865Y-16557709D01*
X24507487Y-16623668D01*
X24517240Y-16704024D01*
X24522923Y-16792325D01*
X24524332Y-16882119D01*
X24521262Y-16966956D01*
X24513512Y-17040384D01*
X24509751Y-17061721D01*
X24472178Y-17209434D01*
X24417808Y-17360567D01*
X24346278Y-17515686D01*
X24257224Y-17675356D01*
X24150285Y-17840140D01*
X24025095Y-18010603D01*
X23881294Y-18187310D01*
X23718517Y-18370825D01*
X23562001Y-18535625D01*
X23330777Y-18763946D01*
X23084546Y-18990854D01*
X22822674Y-19216812D01*
X22544532Y-19442283D01*
X22249490Y-19667731D01*
X21936915Y-19893617D01*
X21606178Y-20120405D01*
X21256647Y-20348557D01*
X20887692Y-20578538D01*
X20498682Y-20810809D01*
X20323472Y-20912432D01*
X20142368Y-21016601D01*
X19978777Y-21110727D01*
X19831856Y-21195303D01*
X19700759Y-21270823D01*
X19584644Y-21337778D01*
X19482664Y-21396661D01*
X19393976Y-21447965D01*
X19317735Y-21492183D01*
X19253097Y-21529807D01*
X19199217Y-21561330D01*
X19155250Y-21587244D01*
X19120351Y-21608043D01*
X19093678Y-21624219D01*
X19074384Y-21636264D01*
X19061626Y-21644672D01*
X19054558Y-21649935D01*
X19052337Y-21652545D01*
X19054002Y-21653010D01*
X19064410Y-21648442D01*
X19091366Y-21635847D01*
X19132365Y-21616415D01*
X19184903Y-21591339D01*
X19246473Y-21561812D01*
X19314573Y-21529025D01*
X19318056Y-21527345D01*
X19543916Y-21418316D01*
X19751866Y-21317769D01*
X19943105Y-21225083D01*
X20118832Y-21139640D01*
X20280246Y-21060819D01*
X20428548Y-20988000D01*
X20564935Y-20920564D01*
X20690608Y-20857889D01*
X20806766Y-20799357D01*
X20914608Y-20744348D01*
X21015333Y-20692241D01*
X21110141Y-20642417D01*
X21200232Y-20594255D01*
X21286803Y-20547136D01*
X21371056Y-20500440D01*
X21454188Y-20453546D01*
X21537400Y-20405835D01*
X21621891Y-20356688D01*
X21708859Y-20305483D01*
X21799505Y-20251602D01*
X21884514Y-20200732D01*
X22245452Y-19977522D01*
X22586665Y-19752646D01*
X22909583Y-19525081D01*
X23215638Y-19293800D01*
X23506262Y-19057780D01*
X23632733Y-18949453D01*
X23697129Y-18891974D01*
X23769966Y-18824578D01*
X23848628Y-18749878D01*
X23930500Y-18670488D01*
X24012965Y-18589019D01*
X24093409Y-18508086D01*
X24169216Y-18430301D01*
X24237769Y-18358277D01*
X24296453Y-18294627D01*
X24342653Y-18241964D01*
X24351196Y-18231732D01*
X24497764Y-18043286D01*
X24625849Y-17855954D01*
X24735044Y-17670496D01*
X24824944Y-17487671D01*
X24895144Y-17308238D01*
X24945238Y-17132956D01*
X24950355Y-17110036D01*
X24963184Y-17030864D01*
X24971494Y-16937314D01*
X24975283Y-16835583D01*
X24974549Y-16731869D01*
X24969288Y-16632372D01*
X24959498Y-16543289D01*
X24950622Y-16493524D01*
X24919331Y-16367068D01*
X24881840Y-16252277D01*
X24835027Y-16139874D01*
X24822528Y-16113209D01*
X24779078Y-16027515D01*
X24733591Y-15949518D01*
X24683285Y-15875544D01*
X24625379Y-15801921D01*
X24557092Y-15724975D01*
X24475643Y-15641034D01*
X24433666Y-15599718D01*
X24314949Y-15490306D01*
X24189397Y-15386897D01*
X24055613Y-15288777D01*
X23912201Y-15195229D01*
X23757764Y-15105540D01*
X23590905Y-15018993D01*
X23410229Y-14934875D01*
X23214339Y-14852470D01*
X23001839Y-14771063D01*
X22771332Y-14689939D01*
X22521421Y-14608383D01*
X22460092Y-14589192D01*
X22175056Y-14504441D01*
X21883406Y-14425327D01*
X21583336Y-14351486D01*
X21273037Y-14282557D01*
X20950701Y-14218177D01*
X20614522Y-14157985D01*
X20262690Y-14101618D01*
X19893399Y-14048715D01*
X19524431Y-14001296D01*
X19450761Y-13992265D01*
X19384414Y-13984043D01*
X19328160Y-13976979D01*
X19284769Y-13971425D01*
X19257010Y-13967730D01*
X19247646Y-13966266D01*
X19247509Y-13955728D01*
X19247782Y-13926223D01*
X19248429Y-13879947D01*
X19249414Y-13819094D01*
X19249658Y-13805140D01*
X18798277Y-13805140D01*
X18797540Y-13860859D01*
X18796021Y-13898135D01*
X18793731Y-13915818D01*
X18792725Y-13917167D01*
X18779981Y-13915867D01*
X18749041Y-13912200D01*
X18702697Y-13906510D01*
X18643746Y-13899147D01*
X18574982Y-13890455D01*
X18499198Y-13880782D01*
X18492112Y-13879873D01*
X18086103Y-13824416D01*
X17695482Y-13764275D01*
X17320605Y-13699566D01*
X16961829Y-13630404D01*
X16619511Y-13556903D01*
X16294007Y-13479179D01*
X15985674Y-13397347D01*
X15694868Y-13311522D01*
X15421947Y-13221818D01*
X15167266Y-13128351D01*
X14931183Y-13031236D01*
X14714053Y-12930588D01*
X14516235Y-12826522D01*
X14338083Y-12719152D01*
X14179956Y-12608595D01*
X14042209Y-12494964D01*
X13963656Y-12419392D01*
X13859933Y-12302570D01*
X13776571Y-12185645D01*
X13712823Y-12066936D01*
X13667941Y-11944766D01*
X13641180Y-11817455D01*
X13631790Y-11683323D01*
X13631765Y-11673500D01*
X13639340Y-11544914D01*
X13662105Y-11416317D01*
X13700754Y-11285798D01*
X13755978Y-11151444D01*
X13828470Y-11011343D01*
X13918922Y-10863585D01*
X13932563Y-10842923D01*
X14065180Y-10656995D01*
X14218230Y-10466893D01*
X14391439Y-10272842D01*
X14584534Y-10075067D01*
X14797244Y-9873793D01*
X15029295Y-9669244D01*
X15280416Y-9461645D01*
X15550332Y-9251221D01*
X15838772Y-9038197D01*
X16145463Y-8822798D01*
X16470133Y-8605248D01*
X16812508Y-8385772D01*
X17172317Y-8164595D01*
X17203282Y-8145971D01*
X17287213Y-8096035D01*
X17379400Y-8042000D01*
X17478306Y-7984712D01*
X17582391Y-7925019D01*
X17690114Y-7863766D01*
X17799936Y-7801799D01*
X17910318Y-7739965D01*
X18019720Y-7679110D01*
X18126602Y-7620080D01*
X18229425Y-7563722D01*
X18326649Y-7510881D01*
X18416735Y-7462404D01*
X18498142Y-7419138D01*
X18569332Y-7381927D01*
X18628763Y-7351619D01*
X18674898Y-7329060D01*
X18706197Y-7315096D01*
X18721118Y-7310573D01*
X18722161Y-7311144D01*
X18722477Y-7322391D01*
X18722931Y-7353623D01*
X18723514Y-7403662D01*
X18724214Y-7471327D01*
X18725024Y-7555438D01*
X18725931Y-7654815D01*
X18726926Y-7768278D01*
X18727998Y-7894647D01*
X18729139Y-8032743D01*
X18730336Y-8181384D01*
X18731581Y-8339391D01*
X18732863Y-8505585D01*
X18734171Y-8678784D01*
X18735496Y-8857810D01*
X18735539Y-8863625D01*
X18738311Y-9230205D01*
X18741135Y-9578441D01*
X18744047Y-9911156D01*
X18747084Y-10231173D01*
X18750282Y-10541315D01*
X18753678Y-10844405D01*
X18757307Y-11143266D01*
X18761206Y-11440721D01*
X18765411Y-11739593D01*
X18769959Y-12042705D01*
X18774887Y-12352879D01*
X18780229Y-12672939D01*
X18786023Y-13005707D01*
X18792305Y-13354007D01*
X18795714Y-13538813D01*
X18797373Y-13642967D01*
X18798225Y-13732126D01*
X18798277Y-13805140D01*
X19249658Y-13805140D01*
X19250699Y-13745861D01*
X19252249Y-13662442D01*
X19254027Y-13571033D01*
X19255046Y-13520292D01*
X19262226Y-13151794D01*
X19269139Y-12768244D01*
X19275738Y-12373133D01*
X19281979Y-11969953D01*
X19287817Y-11562194D01*
X19293206Y-11153348D01*
X19298100Y-10746907D01*
X19302456Y-10346362D01*
X19306226Y-9955203D01*
X19309366Y-9576924D01*
X19311831Y-9215014D01*
X19312564Y-9085875D01*
X19313493Y-8914430D01*
X19314513Y-8731201D01*
X19315601Y-8539690D01*
X19316736Y-8343398D01*
X19317899Y-8145826D01*
X19319068Y-7950477D01*
X19320223Y-7760851D01*
X19321341Y-7580451D01*
X19322404Y-7412776D01*
X19323389Y-7261330D01*
X19323766Y-7204688D01*
X19324803Y-7034404D01*
X19325487Y-6884719D01*
X19325813Y-6755065D01*
X19325778Y-6644879D01*
X19325378Y-6553594D01*
X19324609Y-6480643D01*
X19323468Y-6425463D01*
X19321950Y-6387486D01*
X19320053Y-6366147D01*
X19318178Y-6360667D01*
X19304666Y-6365150D01*
X19304666Y-6365150D01*
G37*
X19304666Y-6365150D02*
X19274468Y-6377872D01*
X19229895Y-6397738D01*
X19173261Y-6423655D01*
X19106877Y-6454531D01*
X19033056Y-6489271D01*
X18954109Y-6526782D01*
X18872350Y-6565971D01*
X18790091Y-6605745D01*
X18709643Y-6645010D01*
X18633320Y-6682673D01*
X18566639Y-6716023D01*
X18215522Y-6896482D01*
X17867014Y-7082352D01*
X17522713Y-7272633D01*
X17184214Y-7466329D01*
X16853113Y-7662438D01*
X16531007Y-7859965D01*
X16219491Y-8057908D01*
X15920163Y-8255271D01*
X15634617Y-8451054D01*
X15364451Y-8644259D01*
X15111260Y-8833886D01*
X14876641Y-9018939D01*
X14846597Y-9043417D01*
X14715242Y-9153086D01*
X14581692Y-9268746D01*
X14448703Y-9387806D01*
X14319030Y-9507676D01*
X14195427Y-9625766D01*
X14080649Y-9739486D01*
X13977450Y-9846244D01*
X13888586Y-9943452D01*
X13884215Y-9948417D01*
X13713076Y-10153575D01*
X13561456Y-10357034D01*
X13429472Y-10558494D01*
X13317241Y-10757651D01*
X13224879Y-10954205D01*
X13152504Y-11147855D01*
X13100233Y-11338297D01*
X13068182Y-11525232D01*
X13056469Y-11708356D01*
X13065210Y-11887369D01*
X13083927Y-12011959D01*
X13127290Y-12180132D01*
X13191256Y-12343867D01*
X13275702Y-12503026D01*
X13380503Y-12657470D01*
X13505539Y-12807063D01*
X13650684Y-12951666D01*
X13815817Y-13091140D01*
X14000814Y-13225349D01*
X14205553Y-13354155D01*
X14355498Y-13438321D01*
X14565904Y-13543825D01*
X14796811Y-13645575D01*
X15047874Y-13743484D01*
X15318748Y-13837465D01*
X15609088Y-13927429D01*
X15918547Y-14013289D01*
X16246780Y-14094957D01*
X16593443Y-14172347D01*
X16958190Y-14245369D01*
X17340675Y-14313936D01*
X17740553Y-14377962D01*
X18157478Y-14437358D01*
X18432260Y-14472797D01*
X18511821Y-14482670D01*
X18586634Y-14491981D01*
X18653503Y-14500327D01*
X18709233Y-14507312D01*
X18750630Y-14512534D01*
X18774498Y-14515593D01*
X18775660Y-14515747D01*
X18820639Y-14521714D01*
X18820668Y-14677169D01*
X18820983Y-14741988D01*
X18821887Y-14823867D01*
X18823354Y-14921897D01*
X18825356Y-15035165D01*
X18827866Y-15162760D01*
X18830856Y-15303769D01*
X18834299Y-15457283D01*
X18838168Y-15622388D01*
X18842435Y-15798174D01*
X18847073Y-15983728D01*
X18852055Y-16178139D01*
X18857353Y-16380496D01*
X18862940Y-16589887D01*
X18868788Y-16805400D01*
X18874871Y-17026124D01*
X18881160Y-17251147D01*
X18887629Y-17479558D01*
X18894250Y-17710444D01*
X18900995Y-17942895D01*
X18907838Y-18175999D01*
X18914751Y-18408844D01*
X18921707Y-18640519D01*
X18928678Y-18870111D01*
X18935637Y-19096710D01*
X18942557Y-19319403D01*
X18949410Y-19537280D01*
X18956168Y-19749429D01*
X18962805Y-19954937D01*
X18969294Y-20152894D01*
X18975606Y-20342387D01*
X18981715Y-20522506D01*
X18987592Y-20692339D01*
X18993212Y-20850973D01*
X18998545Y-20997498D01*
X19003566Y-21131001D01*
X19008246Y-21250572D01*
X19012559Y-21355299D01*
X19016477Y-21444269D01*
X19019972Y-21516572D01*
X19023017Y-21571296D01*
X19025586Y-21607529D01*
X19027649Y-21624360D01*
X19029088Y-21621834D01*
X19030232Y-21603654D01*
X19031995Y-21565636D01*
X19034336Y-21509098D01*
X19037207Y-21435359D01*
X19040566Y-21345735D01*
X19044368Y-21241547D01*
X19048569Y-21124110D01*
X19053123Y-20994745D01*
X19057986Y-20854768D01*
X19063114Y-20705498D01*
X19068463Y-20548254D01*
X19073988Y-20384352D01*
X19079644Y-20215112D01*
X19085387Y-20041852D01*
X19091172Y-19865889D01*
X19096956Y-19688542D01*
X19102693Y-19511129D01*
X19108339Y-19334968D01*
X19113850Y-19161377D01*
X19119181Y-18991674D01*
X19124288Y-18827177D01*
X19129126Y-18669206D01*
X19132645Y-18552667D01*
X19138704Y-18347706D01*
X19145123Y-18125122D01*
X19151807Y-17888451D01*
X19158662Y-17641231D01*
X19165593Y-17387001D01*
X19172506Y-17129297D01*
X19179306Y-16871658D01*
X19185900Y-16617622D01*
X19192192Y-16370725D01*
X19198089Y-16134507D01*
X19203495Y-15912503D01*
X19206522Y-15785125D01*
X19209514Y-15658214D01*
X19212556Y-15529759D01*
X19215578Y-15402673D01*
X19218511Y-15279871D01*
X19221285Y-15164270D01*
X19223829Y-15058783D01*
X19226074Y-14966326D01*
X19227950Y-14889814D01*
X19229125Y-14842591D01*
X19236050Y-14566807D01*
X19263824Y-14570071D01*
X19569636Y-14606916D01*
X19856049Y-14643339D01*
X20124820Y-14679623D01*
X20377706Y-14716055D01*
X20616462Y-14752918D01*
X20842845Y-14790498D01*
X21058611Y-14829079D01*
X21265517Y-14868947D01*
X21465319Y-14910386D01*
X21659772Y-14953682D01*
X21731056Y-14970309D01*
X21982000Y-15032455D01*
X22226942Y-15098827D01*
X22464207Y-15168818D01*
X22692122Y-15241820D01*
X22909010Y-15317225D01*
X23113198Y-15394426D01*
X23303011Y-15472815D01*
X23476774Y-15551783D01*
X23632813Y-15630725D01*
X23769454Y-15709030D01*
X23773639Y-15711613D01*
X23902448Y-15797714D01*
X24024855Y-15892069D01*
X24137397Y-15991590D01*
X24236614Y-16093189D01*
X24319044Y-16193779D01*
X24328090Y-16206260D01*
X24372279Y-16275968D01*
X24415786Y-16358435D01*
X24454758Y-16445495D01*
X24485342Y-16528980D01*
X24493865Y-16557709D01*
X24507487Y-16623668D01*
X24517240Y-16704024D01*
X24522923Y-16792325D01*
X24524332Y-16882119D01*
X24521262Y-16966956D01*
X24513512Y-17040384D01*
X24509751Y-17061721D01*
X24472178Y-17209434D01*
X24417808Y-17360567D01*
X24346278Y-17515686D01*
X24257224Y-17675356D01*
X24150285Y-17840140D01*
X24025095Y-18010603D01*
X23881294Y-18187310D01*
X23718517Y-18370825D01*
X23562001Y-18535625D01*
X23330777Y-18763946D01*
X23084546Y-18990854D01*
X22822674Y-19216812D01*
X22544532Y-19442283D01*
X22249490Y-19667731D01*
X21936915Y-19893617D01*
X21606178Y-20120405D01*
X21256647Y-20348557D01*
X20887692Y-20578538D01*
X20498682Y-20810809D01*
X20323472Y-20912432D01*
X20142368Y-21016601D01*
X19978777Y-21110727D01*
X19831856Y-21195303D01*
X19700759Y-21270823D01*
X19584644Y-21337778D01*
X19482664Y-21396661D01*
X19393976Y-21447965D01*
X19317735Y-21492183D01*
X19253097Y-21529807D01*
X19199217Y-21561330D01*
X19155250Y-21587244D01*
X19120351Y-21608043D01*
X19093678Y-21624219D01*
X19074384Y-21636264D01*
X19061626Y-21644672D01*
X19054558Y-21649935D01*
X19052337Y-21652545D01*
X19054002Y-21653010D01*
X19064410Y-21648442D01*
X19091366Y-21635847D01*
X19132365Y-21616415D01*
X19184903Y-21591339D01*
X19246473Y-21561812D01*
X19314573Y-21529025D01*
X19318056Y-21527345D01*
X19543916Y-21418316D01*
X19751866Y-21317769D01*
X19943105Y-21225083D01*
X20118832Y-21139640D01*
X20280246Y-21060819D01*
X20428548Y-20988000D01*
X20564935Y-20920564D01*
X20690608Y-20857889D01*
X20806766Y-20799357D01*
X20914608Y-20744348D01*
X21015333Y-20692241D01*
X21110141Y-20642417D01*
X21200232Y-20594255D01*
X21286803Y-20547136D01*
X21371056Y-20500440D01*
X21454188Y-20453546D01*
X21537400Y-20405835D01*
X21621891Y-20356688D01*
X21708859Y-20305483D01*
X21799505Y-20251602D01*
X21884514Y-20200732D01*
X22245452Y-19977522D01*
X22586665Y-19752646D01*
X22909583Y-19525081D01*
X23215638Y-19293800D01*
X23506262Y-19057780D01*
X23632733Y-18949453D01*
X23697129Y-18891974D01*
X23769966Y-18824578D01*
X23848628Y-18749878D01*
X23930500Y-18670488D01*
X24012965Y-18589019D01*
X24093409Y-18508086D01*
X24169216Y-18430301D01*
X24237769Y-18358277D01*
X24296453Y-18294627D01*
X24342653Y-18241964D01*
X24351196Y-18231732D01*
X24497764Y-18043286D01*
X24625849Y-17855954D01*
X24735044Y-17670496D01*
X24824944Y-17487671D01*
X24895144Y-17308238D01*
X24945238Y-17132956D01*
X24950355Y-17110036D01*
X24963184Y-17030864D01*
X24971494Y-16937314D01*
X24975283Y-16835583D01*
X24974549Y-16731869D01*
X24969288Y-16632372D01*
X24959498Y-16543289D01*
X24950622Y-16493524D01*
X24919331Y-16367068D01*
X24881840Y-16252277D01*
X24835027Y-16139874D01*
X24822528Y-16113209D01*
X24779078Y-16027515D01*
X24733591Y-15949518D01*
X24683285Y-15875544D01*
X24625379Y-15801921D01*
X24557092Y-15724975D01*
X24475643Y-15641034D01*
X24433666Y-15599718D01*
X24314949Y-15490306D01*
X24189397Y-15386897D01*
X24055613Y-15288777D01*
X23912201Y-15195229D01*
X23757764Y-15105540D01*
X23590905Y-15018993D01*
X23410229Y-14934875D01*
X23214339Y-14852470D01*
X23001839Y-14771063D01*
X22771332Y-14689939D01*
X22521421Y-14608383D01*
X22460092Y-14589192D01*
X22175056Y-14504441D01*
X21883406Y-14425327D01*
X21583336Y-14351486D01*
X21273037Y-14282557D01*
X20950701Y-14218177D01*
X20614522Y-14157985D01*
X20262690Y-14101618D01*
X19893399Y-14048715D01*
X19524431Y-14001296D01*
X19450761Y-13992265D01*
X19384414Y-13984043D01*
X19328160Y-13976979D01*
X19284769Y-13971425D01*
X19257010Y-13967730D01*
X19247646Y-13966266D01*
X19247509Y-13955728D01*
X19247782Y-13926223D01*
X19248429Y-13879947D01*
X19249414Y-13819094D01*
X19249658Y-13805140D01*
X18798277Y-13805140D01*
X18797540Y-13860859D01*
X18796021Y-13898135D01*
X18793731Y-13915818D01*
X18792725Y-13917167D01*
X18779981Y-13915867D01*
X18749041Y-13912200D01*
X18702697Y-13906510D01*
X18643746Y-13899147D01*
X18574982Y-13890455D01*
X18499198Y-13880782D01*
X18492112Y-13879873D01*
X18086103Y-13824416D01*
X17695482Y-13764275D01*
X17320605Y-13699566D01*
X16961829Y-13630404D01*
X16619511Y-13556903D01*
X16294007Y-13479179D01*
X15985674Y-13397347D01*
X15694868Y-13311522D01*
X15421947Y-13221818D01*
X15167266Y-13128351D01*
X14931183Y-13031236D01*
X14714053Y-12930588D01*
X14516235Y-12826522D01*
X14338083Y-12719152D01*
X14179956Y-12608595D01*
X14042209Y-12494964D01*
X13963656Y-12419392D01*
X13859933Y-12302570D01*
X13776571Y-12185645D01*
X13712823Y-12066936D01*
X13667941Y-11944766D01*
X13641180Y-11817455D01*
X13631790Y-11683323D01*
X13631765Y-11673500D01*
X13639340Y-11544914D01*
X13662105Y-11416317D01*
X13700754Y-11285798D01*
X13755978Y-11151444D01*
X13828470Y-11011343D01*
X13918922Y-10863585D01*
X13932563Y-10842923D01*
X14065180Y-10656995D01*
X14218230Y-10466893D01*
X14391439Y-10272842D01*
X14584534Y-10075067D01*
X14797244Y-9873793D01*
X15029295Y-9669244D01*
X15280416Y-9461645D01*
X15550332Y-9251221D01*
X15838772Y-9038197D01*
X16145463Y-8822798D01*
X16470133Y-8605248D01*
X16812508Y-8385772D01*
X17172317Y-8164595D01*
X17203282Y-8145971D01*
X17287213Y-8096035D01*
X17379400Y-8042000D01*
X17478306Y-7984712D01*
X17582391Y-7925019D01*
X17690114Y-7863766D01*
X17799936Y-7801799D01*
X17910318Y-7739965D01*
X18019720Y-7679110D01*
X18126602Y-7620080D01*
X18229425Y-7563722D01*
X18326649Y-7510881D01*
X18416735Y-7462404D01*
X18498142Y-7419138D01*
X18569332Y-7381927D01*
X18628763Y-7351619D01*
X18674898Y-7329060D01*
X18706197Y-7315096D01*
X18721118Y-7310573D01*
X18722161Y-7311144D01*
X18722477Y-7322391D01*
X18722931Y-7353623D01*
X18723514Y-7403662D01*
X18724214Y-7471327D01*
X18725024Y-7555438D01*
X18725931Y-7654815D01*
X18726926Y-7768278D01*
X18727998Y-7894647D01*
X18729139Y-8032743D01*
X18730336Y-8181384D01*
X18731581Y-8339391D01*
X18732863Y-8505585D01*
X18734171Y-8678784D01*
X18735496Y-8857810D01*
X18735539Y-8863625D01*
X18738311Y-9230205D01*
X18741135Y-9578441D01*
X18744047Y-9911156D01*
X18747084Y-10231173D01*
X18750282Y-10541315D01*
X18753678Y-10844405D01*
X18757307Y-11143266D01*
X18761206Y-11440721D01*
X18765411Y-11739593D01*
X18769959Y-12042705D01*
X18774887Y-12352879D01*
X18780229Y-12672939D01*
X18786023Y-13005707D01*
X18792305Y-13354007D01*
X18795714Y-13538813D01*
X18797373Y-13642967D01*
X18798225Y-13732126D01*
X18798277Y-13805140D01*
X19249658Y-13805140D01*
X19250699Y-13745861D01*
X19252249Y-13662442D01*
X19254027Y-13571033D01*
X19255046Y-13520292D01*
X19262226Y-13151794D01*
X19269139Y-12768244D01*
X19275738Y-12373133D01*
X19281979Y-11969953D01*
X19287817Y-11562194D01*
X19293206Y-11153348D01*
X19298100Y-10746907D01*
X19302456Y-10346362D01*
X19306226Y-9955203D01*
X19309366Y-9576924D01*
X19311831Y-9215014D01*
X19312564Y-9085875D01*
X19313493Y-8914430D01*
X19314513Y-8731201D01*
X19315601Y-8539690D01*
X19316736Y-8343398D01*
X19317899Y-8145826D01*
X19319068Y-7950477D01*
X19320223Y-7760851D01*
X19321341Y-7580451D01*
X19322404Y-7412776D01*
X19323389Y-7261330D01*
X19323766Y-7204688D01*
X19324803Y-7034404D01*
X19325487Y-6884719D01*
X19325813Y-6755065D01*
X19325778Y-6644879D01*
X19325378Y-6553594D01*
X19324609Y-6480643D01*
X19323468Y-6425463D01*
X19321950Y-6387486D01*
X19320053Y-6366147D01*
X19318178Y-6360667D01*
X19304666Y-6365150D01*
D12*
G36*
X10168707Y-62957597D02*
X10245836Y-62965193D01*
X10377787Y-63005220D01*
X10443763Y-63025233D01*
X10626172Y-63122733D01*
X10786054Y-63253946D01*
X10917267Y-63413828D01*
X11014767Y-63596237D01*
X11014767Y-63596238D01*
X11074807Y-63794164D01*
X11095080Y-64000000D01*
X11074807Y-64205836D01*
X11034780Y-64337787D01*
X11014767Y-64403763D01*
X10917267Y-64586172D01*
X10786054Y-64746054D01*
X10626172Y-64877267D01*
X10443763Y-64974767D01*
X10377787Y-64994780D01*
X10245836Y-65034807D01*
X10168707Y-65042404D01*
X10091580Y-65050000D01*
X9988420Y-65050000D01*
X9911293Y-65042404D01*
X9834164Y-65034807D01*
X9702213Y-64994780D01*
X9636237Y-64974767D01*
X9453828Y-64877267D01*
X9293946Y-64746054D01*
X9162733Y-64586172D01*
X9065233Y-64403763D01*
X9045220Y-64337787D01*
X9005193Y-64205836D01*
X8984920Y-64000000D01*
X9005193Y-63794164D01*
X9065233Y-63596238D01*
X9065233Y-63596237D01*
X9162733Y-63413828D01*
X9293946Y-63253946D01*
X9453828Y-63122733D01*
X9636237Y-63025233D01*
X9702213Y-63005220D01*
X9834164Y-62965193D01*
X9911293Y-62957597D01*
X9988420Y-62950000D01*
X10091580Y-62950000D01*
X10168707Y-62957597D01*
X10168707Y-62957597D01*
G37*
G36*
X8550000Y-65050000D02*
X6450000Y-65050000D01*
X6450000Y-62950000D01*
X8550000Y-62950000D01*
X8550000Y-65050000D01*
X8550000Y-65050000D01*
G37*
G36*
X12708707Y-62957597D02*
X12785836Y-62965193D01*
X12917787Y-63005220D01*
X12983763Y-63025233D01*
X13166172Y-63122733D01*
X13326054Y-63253946D01*
X13457267Y-63413828D01*
X13554767Y-63596237D01*
X13554767Y-63596238D01*
X13614807Y-63794164D01*
X13635080Y-64000000D01*
X13614807Y-64205836D01*
X13574780Y-64337787D01*
X13554767Y-64403763D01*
X13457267Y-64586172D01*
X13326054Y-64746054D01*
X13166172Y-64877267D01*
X12983763Y-64974767D01*
X12917787Y-64994780D01*
X12785836Y-65034807D01*
X12708707Y-65042404D01*
X12631580Y-65050000D01*
X12528420Y-65050000D01*
X12451293Y-65042404D01*
X12374164Y-65034807D01*
X12242213Y-64994780D01*
X12176237Y-64974767D01*
X11993828Y-64877267D01*
X11833946Y-64746054D01*
X11702733Y-64586172D01*
X11605233Y-64403763D01*
X11585220Y-64337787D01*
X11545193Y-64205836D01*
X11524920Y-64000000D01*
X11545193Y-63794164D01*
X11605233Y-63596238D01*
X11605233Y-63596237D01*
X11702733Y-63413828D01*
X11833946Y-63253946D01*
X11993828Y-63122733D01*
X12176237Y-63025233D01*
X12242213Y-63005220D01*
X12374164Y-62965193D01*
X12451293Y-62957597D01*
X12528420Y-62950000D01*
X12631580Y-62950000D01*
X12708707Y-62957597D01*
X12708707Y-62957597D01*
G37*
G36*
X15248707Y-62957597D02*
X15325836Y-62965193D01*
X15457787Y-63005220D01*
X15523763Y-63025233D01*
X15706172Y-63122733D01*
X15866054Y-63253946D01*
X15997267Y-63413828D01*
X16094767Y-63596237D01*
X16094767Y-63596238D01*
X16154807Y-63794164D01*
X16175080Y-64000000D01*
X16154807Y-64205836D01*
X16114780Y-64337787D01*
X16094767Y-64403763D01*
X15997267Y-64586172D01*
X15866054Y-64746054D01*
X15706172Y-64877267D01*
X15523763Y-64974767D01*
X15457787Y-64994780D01*
X15325836Y-65034807D01*
X15248707Y-65042404D01*
X15171580Y-65050000D01*
X15068420Y-65050000D01*
X14991293Y-65042404D01*
X14914164Y-65034807D01*
X14782213Y-64994780D01*
X14716237Y-64974767D01*
X14533828Y-64877267D01*
X14373946Y-64746054D01*
X14242733Y-64586172D01*
X14145233Y-64403763D01*
X14125220Y-64337787D01*
X14085193Y-64205836D01*
X14064920Y-64000000D01*
X14085193Y-63794164D01*
X14145233Y-63596238D01*
X14145233Y-63596237D01*
X14242733Y-63413828D01*
X14373946Y-63253946D01*
X14533828Y-63122733D01*
X14716237Y-63025233D01*
X14782213Y-63005220D01*
X14914164Y-62965193D01*
X14991293Y-62957597D01*
X15068420Y-62950000D01*
X15171580Y-62950000D01*
X15248707Y-62957597D01*
X15248707Y-62957597D01*
G37*
G36*
X17788707Y-62957597D02*
X17865836Y-62965193D01*
X17997787Y-63005220D01*
X18063763Y-63025233D01*
X18246172Y-63122733D01*
X18406054Y-63253946D01*
X18537267Y-63413828D01*
X18634767Y-63596237D01*
X18634767Y-63596238D01*
X18694807Y-63794164D01*
X18715080Y-64000000D01*
X18694807Y-64205836D01*
X18654780Y-64337787D01*
X18634767Y-64403763D01*
X18537267Y-64586172D01*
X18406054Y-64746054D01*
X18246172Y-64877267D01*
X18063763Y-64974767D01*
X17997787Y-64994780D01*
X17865836Y-65034807D01*
X17788707Y-65042404D01*
X17711580Y-65050000D01*
X17608420Y-65050000D01*
X17531293Y-65042404D01*
X17454164Y-65034807D01*
X17322213Y-64994780D01*
X17256237Y-64974767D01*
X17073828Y-64877267D01*
X16913946Y-64746054D01*
X16782733Y-64586172D01*
X16685233Y-64403763D01*
X16665220Y-64337787D01*
X16625193Y-64205836D01*
X16604920Y-64000000D01*
X16625193Y-63794164D01*
X16685233Y-63596238D01*
X16685233Y-63596237D01*
X16782733Y-63413828D01*
X16913946Y-63253946D01*
X17073828Y-63122733D01*
X17256237Y-63025233D01*
X17322213Y-63005220D01*
X17454164Y-62965193D01*
X17531293Y-62957597D01*
X17608420Y-62950000D01*
X17711580Y-62950000D01*
X17788707Y-62957597D01*
X17788707Y-62957597D01*
G37*
G36*
X20328707Y-62957597D02*
X20405836Y-62965193D01*
X20537787Y-63005220D01*
X20603763Y-63025233D01*
X20786172Y-63122733D01*
X20946054Y-63253946D01*
X21077267Y-63413828D01*
X21174767Y-63596237D01*
X21174767Y-63596238D01*
X21234807Y-63794164D01*
X21255080Y-64000000D01*
X21234807Y-64205836D01*
X21194780Y-64337787D01*
X21174767Y-64403763D01*
X21077267Y-64586172D01*
X20946054Y-64746054D01*
X20786172Y-64877267D01*
X20603763Y-64974767D01*
X20537787Y-64994780D01*
X20405836Y-65034807D01*
X20328707Y-65042404D01*
X20251580Y-65050000D01*
X20148420Y-65050000D01*
X20071293Y-65042404D01*
X19994164Y-65034807D01*
X19862213Y-64994780D01*
X19796237Y-64974767D01*
X19613828Y-64877267D01*
X19453946Y-64746054D01*
X19322733Y-64586172D01*
X19225233Y-64403763D01*
X19205220Y-64337787D01*
X19165193Y-64205836D01*
X19144920Y-64000000D01*
X19165193Y-63794164D01*
X19225233Y-63596238D01*
X19225233Y-63596237D01*
X19322733Y-63413828D01*
X19453946Y-63253946D01*
X19613828Y-63122733D01*
X19796237Y-63025233D01*
X19862213Y-63005220D01*
X19994164Y-62965193D01*
X20071293Y-62957597D01*
X20148420Y-62950000D01*
X20251580Y-62950000D01*
X20328707Y-62957597D01*
X20328707Y-62957597D01*
G37*
G36*
X22868707Y-62957597D02*
X22945836Y-62965193D01*
X23077787Y-63005220D01*
X23143763Y-63025233D01*
X23326172Y-63122733D01*
X23486054Y-63253946D01*
X23617267Y-63413828D01*
X23714767Y-63596237D01*
X23714767Y-63596238D01*
X23774807Y-63794164D01*
X23795080Y-64000000D01*
X23774807Y-64205836D01*
X23734780Y-64337787D01*
X23714767Y-64403763D01*
X23617267Y-64586172D01*
X23486054Y-64746054D01*
X23326172Y-64877267D01*
X23143763Y-64974767D01*
X23077787Y-64994780D01*
X22945836Y-65034807D01*
X22868707Y-65042404D01*
X22791580Y-65050000D01*
X22688420Y-65050000D01*
X22611293Y-65042404D01*
X22534164Y-65034807D01*
X22402213Y-64994780D01*
X22336237Y-64974767D01*
X22153828Y-64877267D01*
X21993946Y-64746054D01*
X21862733Y-64586172D01*
X21765233Y-64403763D01*
X21745220Y-64337787D01*
X21705193Y-64205836D01*
X21684920Y-64000000D01*
X21705193Y-63794164D01*
X21765233Y-63596238D01*
X21765233Y-63596237D01*
X21862733Y-63413828D01*
X21993946Y-63253946D01*
X22153828Y-63122733D01*
X22336237Y-63025233D01*
X22402213Y-63005220D01*
X22534164Y-62965193D01*
X22611293Y-62957597D01*
X22688420Y-62950000D01*
X22791580Y-62950000D01*
X22868707Y-62957597D01*
X22868707Y-62957597D01*
G37*
G36*
X25408707Y-62957597D02*
X25485836Y-62965193D01*
X25617787Y-63005220D01*
X25683763Y-63025233D01*
X25866172Y-63122733D01*
X26026054Y-63253946D01*
X26157267Y-63413828D01*
X26254767Y-63596237D01*
X26254767Y-63596238D01*
X26314807Y-63794164D01*
X26335080Y-64000000D01*
X26314807Y-64205836D01*
X26274780Y-64337787D01*
X26254767Y-64403763D01*
X26157267Y-64586172D01*
X26026054Y-64746054D01*
X25866172Y-64877267D01*
X25683763Y-64974767D01*
X25617787Y-64994780D01*
X25485836Y-65034807D01*
X25408707Y-65042404D01*
X25331580Y-65050000D01*
X25228420Y-65050000D01*
X25151293Y-65042404D01*
X25074164Y-65034807D01*
X24942213Y-64994780D01*
X24876237Y-64974767D01*
X24693828Y-64877267D01*
X24533946Y-64746054D01*
X24402733Y-64586172D01*
X24305233Y-64403763D01*
X24285220Y-64337787D01*
X24245193Y-64205836D01*
X24224920Y-64000000D01*
X24245193Y-63794164D01*
X24305233Y-63596238D01*
X24305233Y-63596237D01*
X24402733Y-63413828D01*
X24533946Y-63253946D01*
X24693828Y-63122733D01*
X24876237Y-63025233D01*
X24942213Y-63005220D01*
X25074164Y-62965193D01*
X25151293Y-62957597D01*
X25228420Y-62950000D01*
X25331580Y-62950000D01*
X25408707Y-62957597D01*
X25408707Y-62957597D01*
G37*
G36*
X27948707Y-62957597D02*
X28025836Y-62965193D01*
X28157787Y-63005220D01*
X28223763Y-63025233D01*
X28406172Y-63122733D01*
X28566054Y-63253946D01*
X28697267Y-63413828D01*
X28794767Y-63596237D01*
X28794767Y-63596238D01*
X28854807Y-63794164D01*
X28875080Y-64000000D01*
X28854807Y-64205836D01*
X28814780Y-64337787D01*
X28794767Y-64403763D01*
X28697267Y-64586172D01*
X28566054Y-64746054D01*
X28406172Y-64877267D01*
X28223763Y-64974767D01*
X28157787Y-64994780D01*
X28025836Y-65034807D01*
X27948707Y-65042404D01*
X27871580Y-65050000D01*
X27768420Y-65050000D01*
X27691293Y-65042404D01*
X27614164Y-65034807D01*
X27482213Y-64994780D01*
X27416237Y-64974767D01*
X27233828Y-64877267D01*
X27073946Y-64746054D01*
X26942733Y-64586172D01*
X26845233Y-64403763D01*
X26825220Y-64337787D01*
X26785193Y-64205836D01*
X26764920Y-64000000D01*
X26785193Y-63794164D01*
X26845233Y-63596238D01*
X26845233Y-63596237D01*
X26942733Y-63413828D01*
X27073946Y-63253946D01*
X27233828Y-63122733D01*
X27416237Y-63025233D01*
X27482213Y-63005220D01*
X27614164Y-62965193D01*
X27691293Y-62957597D01*
X27768420Y-62950000D01*
X27871580Y-62950000D01*
X27948707Y-62957597D01*
X27948707Y-62957597D01*
G37*
G36*
X30488707Y-62957597D02*
X30565836Y-62965193D01*
X30697787Y-63005220D01*
X30763763Y-63025233D01*
X30946172Y-63122733D01*
X31106054Y-63253946D01*
X31237267Y-63413828D01*
X31334767Y-63596237D01*
X31334767Y-63596238D01*
X31394807Y-63794164D01*
X31415080Y-64000000D01*
X31394807Y-64205836D01*
X31354780Y-64337787D01*
X31334767Y-64403763D01*
X31237267Y-64586172D01*
X31106054Y-64746054D01*
X30946172Y-64877267D01*
X30763763Y-64974767D01*
X30697787Y-64994780D01*
X30565836Y-65034807D01*
X30488707Y-65042404D01*
X30411580Y-65050000D01*
X30308420Y-65050000D01*
X30231293Y-65042404D01*
X30154164Y-65034807D01*
X30022213Y-64994780D01*
X29956237Y-64974767D01*
X29773828Y-64877267D01*
X29613946Y-64746054D01*
X29482733Y-64586172D01*
X29385233Y-64403763D01*
X29365220Y-64337787D01*
X29325193Y-64205836D01*
X29304920Y-64000000D01*
X29325193Y-63794164D01*
X29385233Y-63596238D01*
X29385233Y-63596237D01*
X29482733Y-63413828D01*
X29613946Y-63253946D01*
X29773828Y-63122733D01*
X29956237Y-63025233D01*
X30022213Y-63005220D01*
X30154164Y-62965193D01*
X30231293Y-62957597D01*
X30308420Y-62950000D01*
X30411580Y-62950000D01*
X30488707Y-62957597D01*
X30488707Y-62957597D01*
G37*
G36*
X22550000Y-58800000D02*
X20450000Y-58800000D01*
X20450000Y-56700000D01*
X22550000Y-56700000D01*
X22550000Y-58800000D01*
X22550000Y-58800000D01*
G37*
G36*
X21628707Y-54167596D02*
X21705836Y-54175193D01*
X21837787Y-54215220D01*
X21903763Y-54235233D01*
X22086172Y-54332733D01*
X22246054Y-54463946D01*
X22377267Y-54623828D01*
X22474767Y-54806237D01*
X22474767Y-54806238D01*
X22534807Y-55004164D01*
X22555080Y-55210000D01*
X22534807Y-55415836D01*
X22494780Y-55547787D01*
X22474767Y-55613763D01*
X22377267Y-55796172D01*
X22246054Y-55956054D01*
X22086172Y-56087267D01*
X21903763Y-56184767D01*
X21837787Y-56204780D01*
X21705836Y-56244807D01*
X21628707Y-56252403D01*
X21551580Y-56260000D01*
X21448420Y-56260000D01*
X21371293Y-56252403D01*
X21294164Y-56244807D01*
X21162213Y-56204780D01*
X21096237Y-56184767D01*
X20913828Y-56087267D01*
X20753946Y-55956054D01*
X20622733Y-55796172D01*
X20525233Y-55613763D01*
X20505220Y-55547787D01*
X20465193Y-55415836D01*
X20444920Y-55210000D01*
X20465193Y-55004164D01*
X20525233Y-54806238D01*
X20525233Y-54806237D01*
X20622733Y-54623828D01*
X20753946Y-54463946D01*
X20913828Y-54332733D01*
X21096237Y-54235233D01*
X21162213Y-54215220D01*
X21294164Y-54175193D01*
X21371293Y-54167596D01*
X21448420Y-54160000D01*
X21551580Y-54160000D01*
X21628707Y-54167596D01*
X21628707Y-54167596D01*
G37*
G36*
X6225929Y-48816676D02*
X6334553Y-48849627D01*
X6443177Y-48882577D01*
X6643395Y-48989596D01*
X6818881Y-49133613D01*
X6914898Y-49250611D01*
X6962905Y-49309108D01*
X6962906Y-49309110D01*
X7069923Y-49509324D01*
X7069923Y-49509325D01*
X7135824Y-49726571D01*
X7135824Y-49726573D01*
X7138102Y-49749702D01*
X7142883Y-49773736D01*
X7152260Y-49796375D01*
X7165874Y-49816749D01*
X7183201Y-49834076D01*
X7203576Y-49847690D01*
X7226215Y-49857068D01*
X7250248Y-49861848D01*
X7274752Y-49861848D01*
X7298786Y-49857067D01*
X7321425Y-49847690D01*
X7341799Y-49834076D01*
X7359126Y-49816749D01*
X7372740Y-49796374D01*
X7382118Y-49773735D01*
X7387500Y-49737450D01*
X7387500Y-48800000D01*
X9692500Y-48800000D01*
X9692500Y-51200000D01*
X7387500Y-51200000D01*
X7387500Y-50262551D01*
X7385098Y-50238165D01*
X7377985Y-50214716D01*
X7366434Y-50193105D01*
X7350888Y-50174163D01*
X7331946Y-50158617D01*
X7310335Y-50147066D01*
X7286886Y-50139953D01*
X7262500Y-50137551D01*
X7238114Y-50139953D01*
X7214665Y-50147066D01*
X7193054Y-50158617D01*
X7174112Y-50174163D01*
X7158566Y-50193105D01*
X7147015Y-50214716D01*
X7138102Y-50250299D01*
X7135824Y-50273428D01*
X7069923Y-50490677D01*
X6962904Y-50690895D01*
X6818887Y-50866381D01*
X6701889Y-50962398D01*
X6643392Y-51010405D01*
X6643390Y-51010406D01*
X6443176Y-51117423D01*
X6334552Y-51150373D01*
X6225928Y-51183324D01*
X6000000Y-51205576D01*
X5774071Y-51183324D01*
X5665447Y-51150373D01*
X5556823Y-51117423D01*
X5356605Y-51010404D01*
X5181119Y-50866387D01*
X5085102Y-50749389D01*
X5037095Y-50690892D01*
X4930078Y-50490677D01*
X4930077Y-50490676D01*
X4897127Y-50382052D01*
X4864176Y-50273428D01*
X4854398Y-50174151D01*
X4849617Y-50150117D01*
X4840240Y-50127478D01*
X4826626Y-50107104D01*
X4809299Y-50089777D01*
X4788924Y-50076163D01*
X4766285Y-50066785D01*
X4742252Y-50062005D01*
X4717748Y-50062005D01*
X4693714Y-50066786D01*
X4671075Y-50076163D01*
X4650701Y-50089777D01*
X4633374Y-50107104D01*
X4619760Y-50127479D01*
X4610382Y-50150118D01*
X4605602Y-50174151D01*
X4595824Y-50273428D01*
X4529923Y-50490677D01*
X4422904Y-50690895D01*
X4278887Y-50866381D01*
X4161889Y-50962398D01*
X4103392Y-51010405D01*
X4103390Y-51010406D01*
X3903176Y-51117423D01*
X3794552Y-51150373D01*
X3685928Y-51183324D01*
X3460000Y-51205576D01*
X3234071Y-51183324D01*
X3125447Y-51150373D01*
X3016823Y-51117423D01*
X2816605Y-51010404D01*
X2641119Y-50866387D01*
X2545102Y-50749389D01*
X2497095Y-50690892D01*
X2390078Y-50490677D01*
X2390077Y-50490676D01*
X2357127Y-50382052D01*
X2324176Y-50273428D01*
X2309801Y-50127478D01*
X2307500Y-50104115D01*
X2307500Y-49895884D01*
X2324176Y-49726572D01*
X2390077Y-49509323D01*
X2447280Y-49402305D01*
X2497095Y-49309107D01*
X2522921Y-49277638D01*
X2641117Y-49133616D01*
X2816606Y-48989596D01*
X3016824Y-48882577D01*
X3125448Y-48849627D01*
X3234072Y-48816676D01*
X3460000Y-48794424D01*
X3685929Y-48816676D01*
X3794553Y-48849627D01*
X3903177Y-48882577D01*
X4103395Y-48989596D01*
X4278881Y-49133613D01*
X4374898Y-49250611D01*
X4422905Y-49309108D01*
X4422906Y-49309110D01*
X4529923Y-49509324D01*
X4529923Y-49509325D01*
X4595824Y-49726571D01*
X4595824Y-49726573D01*
X4605602Y-49825849D01*
X4610383Y-49849883D01*
X4619760Y-49872522D01*
X4633374Y-49892896D01*
X4650701Y-49910223D01*
X4671076Y-49923837D01*
X4693715Y-49933215D01*
X4717748Y-49937995D01*
X4742252Y-49937995D01*
X4766286Y-49933214D01*
X4788925Y-49923837D01*
X4809299Y-49910223D01*
X4826626Y-49892896D01*
X4840240Y-49872521D01*
X4849618Y-49849882D01*
X4854398Y-49825849D01*
X4864176Y-49726572D01*
X4930077Y-49509323D01*
X4987280Y-49402305D01*
X5037095Y-49309107D01*
X5062921Y-49277638D01*
X5181117Y-49133616D01*
X5356606Y-48989596D01*
X5556824Y-48882577D01*
X5665448Y-48849627D01*
X5774072Y-48816676D01*
X6000000Y-48794424D01*
X6225929Y-48816676D01*
X6225929Y-48816676D01*
G37*
G36*
X17470000Y-48300000D02*
X15370000Y-48300000D01*
X15370000Y-46200000D01*
X17470000Y-46200000D01*
X17470000Y-48300000D01*
X17470000Y-48300000D01*
G37*
G36*
X21628707Y-46207597D02*
X21705836Y-46215193D01*
X21837787Y-46255220D01*
X21903763Y-46275233D01*
X22086172Y-46372733D01*
X22246054Y-46503946D01*
X22377267Y-46663828D01*
X22474767Y-46846237D01*
X22474767Y-46846238D01*
X22534807Y-47044164D01*
X22555080Y-47250000D01*
X22534807Y-47455836D01*
X22494780Y-47587787D01*
X22474767Y-47653763D01*
X22377267Y-47836172D01*
X22246054Y-47996054D01*
X22086172Y-48127267D01*
X21903763Y-48224767D01*
X21837787Y-48244780D01*
X21705836Y-48284807D01*
X21628707Y-48292403D01*
X21551580Y-48300000D01*
X21448420Y-48300000D01*
X21371293Y-48292403D01*
X21294164Y-48284807D01*
X21162213Y-48244780D01*
X21096237Y-48224767D01*
X20913828Y-48127267D01*
X20753946Y-47996054D01*
X20622733Y-47836172D01*
X20525233Y-47653763D01*
X20505220Y-47587787D01*
X20465193Y-47455836D01*
X20444920Y-47250000D01*
X20465193Y-47044164D01*
X20525233Y-46846238D01*
X20525233Y-46846237D01*
X20622733Y-46663828D01*
X20753946Y-46503946D01*
X20913828Y-46372733D01*
X21096237Y-46275233D01*
X21162213Y-46255220D01*
X21294164Y-46215193D01*
X21371293Y-46207597D01*
X21448420Y-46200000D01*
X21551580Y-46200000D01*
X21628707Y-46207597D01*
X21628707Y-46207597D01*
G37*
G36*
X19088707Y-46207597D02*
X19165836Y-46215193D01*
X19297787Y-46255220D01*
X19363763Y-46275233D01*
X19546172Y-46372733D01*
X19706054Y-46503946D01*
X19837267Y-46663828D01*
X19934767Y-46846237D01*
X19934767Y-46846238D01*
X19994807Y-47044164D01*
X20015080Y-47250000D01*
X19994807Y-47455836D01*
X19954780Y-47587787D01*
X19934767Y-47653763D01*
X19837267Y-47836172D01*
X19706054Y-47996054D01*
X19546172Y-48127267D01*
X19363763Y-48224767D01*
X19297787Y-48244780D01*
X19165836Y-48284807D01*
X19088707Y-48292403D01*
X19011580Y-48300000D01*
X18908420Y-48300000D01*
X18831293Y-48292403D01*
X18754164Y-48284807D01*
X18622213Y-48244780D01*
X18556237Y-48224767D01*
X18373828Y-48127267D01*
X18213946Y-47996054D01*
X18082733Y-47836172D01*
X17985233Y-47653763D01*
X17965220Y-47587787D01*
X17925193Y-47455836D01*
X17904920Y-47250000D01*
X17925193Y-47044164D01*
X17985233Y-46846238D01*
X17985233Y-46846237D01*
X18082733Y-46663828D01*
X18213946Y-46503946D01*
X18373828Y-46372733D01*
X18556237Y-46275233D01*
X18622213Y-46255220D01*
X18754164Y-46215193D01*
X18831293Y-46207597D01*
X18908420Y-46200000D01*
X19011580Y-46200000D01*
X19088707Y-46207597D01*
X19088707Y-46207597D01*
G37*
G36*
X17470000Y-38300000D02*
X15370000Y-38300000D01*
X15370000Y-36200000D01*
X17470000Y-36200000D01*
X17470000Y-38300000D01*
X17470000Y-38300000D01*
G37*
G36*
X19088707Y-36207597D02*
X19165836Y-36215193D01*
X19297787Y-36255220D01*
X19363763Y-36275233D01*
X19546172Y-36372733D01*
X19706054Y-36503946D01*
X19837267Y-36663828D01*
X19934767Y-36846237D01*
X19934767Y-36846238D01*
X19994807Y-37044164D01*
X20015080Y-37250000D01*
X19994807Y-37455836D01*
X19954780Y-37587787D01*
X19934767Y-37653763D01*
X19837267Y-37836172D01*
X19706054Y-37996054D01*
X19546172Y-38127267D01*
X19363763Y-38224767D01*
X19297787Y-38244780D01*
X19165836Y-38284807D01*
X19088707Y-38292403D01*
X19011580Y-38300000D01*
X18908420Y-38300000D01*
X18831293Y-38292403D01*
X18754164Y-38284807D01*
X18622213Y-38244780D01*
X18556237Y-38224767D01*
X18373828Y-38127267D01*
X18213946Y-37996054D01*
X18082733Y-37836172D01*
X17985233Y-37653763D01*
X17965220Y-37587787D01*
X17925193Y-37455836D01*
X17904920Y-37250000D01*
X17925193Y-37044164D01*
X17985233Y-36846238D01*
X17985233Y-36846237D01*
X18082733Y-36663828D01*
X18213946Y-36503946D01*
X18373828Y-36372733D01*
X18556237Y-36275233D01*
X18622213Y-36255220D01*
X18754164Y-36215193D01*
X18831293Y-36207597D01*
X18908420Y-36200000D01*
X19011580Y-36200000D01*
X19088707Y-36207597D01*
X19088707Y-36207597D01*
G37*
G36*
X21628707Y-36207597D02*
X21705836Y-36215193D01*
X21837787Y-36255220D01*
X21903763Y-36275233D01*
X22086172Y-36372733D01*
X22246054Y-36503946D01*
X22377267Y-36663828D01*
X22474767Y-36846237D01*
X22474767Y-36846238D01*
X22534807Y-37044164D01*
X22555080Y-37250000D01*
X22534807Y-37455836D01*
X22494780Y-37587787D01*
X22474767Y-37653763D01*
X22377267Y-37836172D01*
X22246054Y-37996054D01*
X22086172Y-38127267D01*
X21903763Y-38224767D01*
X21837787Y-38244780D01*
X21705836Y-38284807D01*
X21628707Y-38292403D01*
X21551580Y-38300000D01*
X21448420Y-38300000D01*
X21371293Y-38292403D01*
X21294164Y-38284807D01*
X21162213Y-38244780D01*
X21096237Y-38224767D01*
X20913828Y-38127267D01*
X20753946Y-37996054D01*
X20622733Y-37836172D01*
X20525233Y-37653763D01*
X20505220Y-37587787D01*
X20465193Y-37455836D01*
X20444920Y-37250000D01*
X20465193Y-37044164D01*
X20525233Y-36846238D01*
X20525233Y-36846237D01*
X20622733Y-36663828D01*
X20753946Y-36503946D01*
X20913828Y-36372733D01*
X21096237Y-36275233D01*
X21162213Y-36255220D01*
X21294164Y-36215193D01*
X21371293Y-36207597D01*
X21448420Y-36200000D01*
X21551580Y-36200000D01*
X21628707Y-36207597D01*
X21628707Y-36207597D01*
G37*
G36*
X6382263Y-31418214D02*
X6382266Y-31418215D01*
X6382267Y-31418215D01*
X6749843Y-31529718D01*
X7088604Y-31710789D01*
X7385530Y-31954470D01*
X7629211Y-32251396D01*
X7802137Y-32574918D01*
X7810281Y-32590155D01*
X7921786Y-32957737D01*
X7959435Y-33340000D01*
X7921786Y-33722263D01*
X7921785Y-33722266D01*
X7921785Y-33722267D01*
X7810282Y-34089843D01*
X7629211Y-34428604D01*
X7385530Y-34725530D01*
X7088604Y-34969211D01*
X6749843Y-35150282D01*
X6382267Y-35261785D01*
X6382266Y-35261785D01*
X6382263Y-35261786D01*
X6095799Y-35290000D01*
X5904201Y-35290000D01*
X5617737Y-35261786D01*
X5617734Y-35261785D01*
X5617733Y-35261785D01*
X5250157Y-35150282D01*
X4911396Y-34969211D01*
X4614470Y-34725530D01*
X4370789Y-34428604D01*
X4189718Y-34089843D01*
X4078215Y-33722267D01*
X4078215Y-33722266D01*
X4078214Y-33722263D01*
X4040565Y-33340000D01*
X4078214Y-32957737D01*
X4189719Y-32590155D01*
X4197863Y-32574918D01*
X4370789Y-32251396D01*
X4614470Y-31954470D01*
X4911396Y-31710789D01*
X5250157Y-31529718D01*
X5617733Y-31418215D01*
X5617734Y-31418215D01*
X5617737Y-31418214D01*
X5904201Y-31390000D01*
X6095799Y-31390000D01*
X6382263Y-31418214D01*
X6382263Y-31418214D01*
G37*
G36*
X19409122Y-27746115D02*
X19525041Y-27769173D01*
X19852620Y-27904861D01*
X20143511Y-28099228D01*
X20147436Y-28101851D01*
X20398149Y-28352564D01*
X20595140Y-28647382D01*
X20730827Y-28974960D01*
X20800000Y-29322714D01*
X20800000Y-29677286D01*
X20730827Y-30025040D01*
X20595140Y-30352618D01*
X20398149Y-30647436D01*
X20147436Y-30898149D01*
X20147433Y-30898151D01*
X19852620Y-31095139D01*
X19525041Y-31230827D01*
X19409122Y-31253885D01*
X19177286Y-31300000D01*
X18822714Y-31300000D01*
X18590878Y-31253885D01*
X18474959Y-31230827D01*
X18147380Y-31095139D01*
X17852567Y-30898151D01*
X17852564Y-30898149D01*
X17601851Y-30647436D01*
X17404860Y-30352618D01*
X17269173Y-30025040D01*
X17200000Y-29677286D01*
X17200000Y-29322714D01*
X17269173Y-28974960D01*
X17404860Y-28647382D01*
X17601851Y-28352564D01*
X17852564Y-28101851D01*
X17856489Y-28099228D01*
X18147380Y-27904861D01*
X18474959Y-27769173D01*
X18590878Y-27746115D01*
X18822714Y-27700000D01*
X19177286Y-27700000D01*
X19409122Y-27746115D01*
X19409122Y-27746115D01*
G37*
G36*
X16029328Y-22612739D02*
X16164458Y-22639618D01*
X16419038Y-22745068D01*
X16646610Y-22897127D01*
X16648157Y-22898161D01*
X16842999Y-23093003D01*
X16843001Y-23093006D01*
X16996092Y-23322122D01*
X17101542Y-23576702D01*
X17155300Y-23846962D01*
X17155300Y-24122518D01*
X17101542Y-24392778D01*
X16996092Y-24647358D01*
X16844033Y-24874930D01*
X16842999Y-24876477D01*
X16648157Y-25071319D01*
X16648154Y-25071321D01*
X16419038Y-25224412D01*
X16164458Y-25329862D01*
X16029328Y-25356741D01*
X15894199Y-25383620D01*
X15618641Y-25383620D01*
X15483512Y-25356741D01*
X15348382Y-25329862D01*
X15093802Y-25224412D01*
X14864686Y-25071321D01*
X14864683Y-25071319D01*
X14669841Y-24876477D01*
X14668807Y-24874930D01*
X14516748Y-24647358D01*
X14411298Y-24392778D01*
X14357540Y-24122518D01*
X14357540Y-23846962D01*
X14411298Y-23576702D01*
X14516748Y-23322122D01*
X14669839Y-23093006D01*
X14669841Y-23093003D01*
X14864683Y-22898161D01*
X14866230Y-22897127D01*
X15093802Y-22745068D01*
X15348382Y-22639618D01*
X15483512Y-22612739D01*
X15618641Y-22585860D01*
X15894199Y-22585860D01*
X16029328Y-22612739D01*
X16029328Y-22612739D01*
G37*
G36*
X10779148Y-18797659D02*
X10914278Y-18824538D01*
X11168858Y-18929988D01*
X11396430Y-19082047D01*
X11397977Y-19083081D01*
X11592819Y-19277923D01*
X11592821Y-19277926D01*
X11745912Y-19507042D01*
X11851362Y-19761622D01*
X11905120Y-20031882D01*
X11905120Y-20307438D01*
X11851362Y-20577698D01*
X11745912Y-20832278D01*
X11593853Y-21059850D01*
X11592819Y-21061397D01*
X11397977Y-21256239D01*
X11397974Y-21256241D01*
X11168858Y-21409332D01*
X10914278Y-21514782D01*
X10779148Y-21541661D01*
X10644019Y-21568540D01*
X10368461Y-21568540D01*
X10233332Y-21541661D01*
X10098202Y-21514782D01*
X9843622Y-21409332D01*
X9614506Y-21256241D01*
X9614503Y-21256239D01*
X9419661Y-21061397D01*
X9418627Y-21059850D01*
X9266568Y-20832278D01*
X9161118Y-20577698D01*
X9107360Y-20307438D01*
X9107360Y-20031882D01*
X9161118Y-19761622D01*
X9266568Y-19507042D01*
X9419659Y-19277926D01*
X9419661Y-19277923D01*
X9614503Y-19083081D01*
X9616050Y-19082047D01*
X9843622Y-18929988D01*
X10098202Y-18824538D01*
X10233332Y-18797659D01*
X10368461Y-18770780D01*
X10644019Y-18770780D01*
X10779148Y-18797659D01*
X10779148Y-18797659D01*
G37*
G36*
X27766668Y-18797659D02*
X27901798Y-18824538D01*
X28156378Y-18929988D01*
X28383950Y-19082047D01*
X28385497Y-19083081D01*
X28580339Y-19277923D01*
X28580341Y-19277926D01*
X28733432Y-19507042D01*
X28838882Y-19761622D01*
X28892640Y-20031882D01*
X28892640Y-20307438D01*
X28838882Y-20577698D01*
X28733432Y-20832278D01*
X28581373Y-21059850D01*
X28580339Y-21061397D01*
X28385497Y-21256239D01*
X28385494Y-21256241D01*
X28156378Y-21409332D01*
X27901798Y-21514782D01*
X27766668Y-21541661D01*
X27631539Y-21568540D01*
X27355981Y-21568540D01*
X27220852Y-21541661D01*
X27085722Y-21514782D01*
X26831142Y-21409332D01*
X26602026Y-21256241D01*
X26602023Y-21256239D01*
X26407181Y-21061397D01*
X26406147Y-21059850D01*
X26254088Y-20832278D01*
X26148638Y-20577698D01*
X26094880Y-20307438D01*
X26094880Y-20031882D01*
X26148638Y-19761622D01*
X26254088Y-19507042D01*
X26407179Y-19277926D01*
X26407181Y-19277923D01*
X26602023Y-19083081D01*
X26603570Y-19082047D01*
X26831142Y-18929988D01*
X27085722Y-18824538D01*
X27220852Y-18797659D01*
X27355981Y-18770780D01*
X27631539Y-18770780D01*
X27766668Y-18797659D01*
X27766668Y-18797659D01*
G37*
G36*
X8775088Y-12627999D02*
X8910218Y-12654878D01*
X9164798Y-12760328D01*
X9373831Y-12900000D01*
X9393917Y-12913421D01*
X9588759Y-13108263D01*
X9588761Y-13108266D01*
X9741852Y-13337382D01*
X9847302Y-13591962D01*
X9901060Y-13862222D01*
X9901060Y-14137778D01*
X9847302Y-14408038D01*
X9741852Y-14662618D01*
X9613692Y-14854422D01*
X9588759Y-14891737D01*
X9393917Y-15086579D01*
X9393914Y-15086581D01*
X9164798Y-15239672D01*
X8910218Y-15345122D01*
X8775088Y-15372001D01*
X8639959Y-15398880D01*
X8364401Y-15398880D01*
X8229272Y-15372001D01*
X8094142Y-15345122D01*
X7839562Y-15239672D01*
X7610446Y-15086581D01*
X7610443Y-15086579D01*
X7415601Y-14891737D01*
X7390668Y-14854422D01*
X7262508Y-14662618D01*
X7157058Y-14408038D01*
X7103300Y-14137778D01*
X7103300Y-13862222D01*
X7157058Y-13591962D01*
X7262508Y-13337382D01*
X7415599Y-13108266D01*
X7415601Y-13108263D01*
X7610443Y-12913421D01*
X7630529Y-12900000D01*
X7839562Y-12760328D01*
X8094142Y-12654878D01*
X8229272Y-12627999D01*
X8364401Y-12601120D01*
X8639959Y-12601120D01*
X8775088Y-12627999D01*
X8775088Y-12627999D01*
G37*
G36*
X29770728Y-12627999D02*
X29905858Y-12654878D01*
X30160438Y-12760328D01*
X30369471Y-12900000D01*
X30389557Y-12913421D01*
X30584399Y-13108263D01*
X30584401Y-13108266D01*
X30737492Y-13337382D01*
X30842942Y-13591962D01*
X30896700Y-13862222D01*
X30896700Y-14137778D01*
X30842942Y-14408038D01*
X30737492Y-14662618D01*
X30609332Y-14854422D01*
X30584399Y-14891737D01*
X30389557Y-15086579D01*
X30389554Y-15086581D01*
X30160438Y-15239672D01*
X29905858Y-15345122D01*
X29770728Y-15372001D01*
X29635599Y-15398880D01*
X29360041Y-15398880D01*
X29224912Y-15372001D01*
X29089782Y-15345122D01*
X28835202Y-15239672D01*
X28606086Y-15086581D01*
X28606083Y-15086579D01*
X28411241Y-14891737D01*
X28386308Y-14854422D01*
X28258148Y-14662618D01*
X28152698Y-14408038D01*
X28098940Y-14137778D01*
X28098940Y-13862222D01*
X28152698Y-13591962D01*
X28258148Y-13337382D01*
X28411239Y-13108266D01*
X28411241Y-13108263D01*
X28606083Y-12913421D01*
X28626169Y-12900000D01*
X28835202Y-12760328D01*
X29089782Y-12654878D01*
X29224912Y-12627999D01*
X29360041Y-12601120D01*
X29635599Y-12601120D01*
X29770728Y-12627999D01*
X29770728Y-12627999D01*
G37*
G36*
X20610857Y-12942272D02*
X20811042Y-13025191D01*
X20811045Y-13025193D01*
X20935368Y-13108263D01*
X20991213Y-13145578D01*
X21144422Y-13298787D01*
X21144424Y-13298790D01*
X21144425Y-13298791D01*
X21170211Y-13337383D01*
X21264809Y-13478958D01*
X21347728Y-13679143D01*
X21390000Y-13891658D01*
X21390000Y-14108342D01*
X21347728Y-14320857D01*
X21264809Y-14521042D01*
X21264807Y-14521045D01*
X21170211Y-14662618D01*
X21144422Y-14701213D01*
X20991213Y-14854422D01*
X20991210Y-14854424D01*
X20991209Y-14854425D01*
X20811045Y-14974807D01*
X20811042Y-14974809D01*
X20610857Y-15057728D01*
X20398342Y-15100000D01*
X20181658Y-15100000D01*
X19969143Y-15057728D01*
X19768958Y-14974809D01*
X19768955Y-14974807D01*
X19588791Y-14854425D01*
X19588790Y-14854424D01*
X19588787Y-14854422D01*
X19435578Y-14701213D01*
X19409790Y-14662618D01*
X19315193Y-14521045D01*
X19315191Y-14521042D01*
X19232272Y-14320857D01*
X19190000Y-14108342D01*
X19190000Y-13891658D01*
X19232272Y-13679143D01*
X19315191Y-13478958D01*
X19409789Y-13337383D01*
X19435575Y-13298791D01*
X19435576Y-13298790D01*
X19435578Y-13298787D01*
X19588787Y-13145578D01*
X19644633Y-13108263D01*
X19768955Y-13025193D01*
X19768958Y-13025191D01*
X19969143Y-12942272D01*
X20181658Y-12900000D01*
X20398342Y-12900000D01*
X20610857Y-12942272D01*
X20610857Y-12942272D01*
G37*
G36*
X18850000Y-15100000D02*
X16650000Y-15100000D01*
X16650000Y-12900000D01*
X18850000Y-12900000D01*
X18850000Y-15100000D01*
X18850000Y-15100000D01*
G37*
G36*
X10779148Y-6458339D02*
X10914278Y-6485218D01*
X11168858Y-6590668D01*
X11396430Y-6742727D01*
X11397977Y-6743761D01*
X11592819Y-6938603D01*
X11592821Y-6938606D01*
X11745912Y-7167722D01*
X11851362Y-7422302D01*
X11905120Y-7692562D01*
X11905120Y-7968118D01*
X11851362Y-8238378D01*
X11745912Y-8492958D01*
X11593853Y-8720530D01*
X11592819Y-8722077D01*
X11397977Y-8916919D01*
X11397974Y-8916921D01*
X11168858Y-9070012D01*
X10914278Y-9175462D01*
X10779148Y-9202341D01*
X10644019Y-9229220D01*
X10368461Y-9229220D01*
X10233332Y-9202341D01*
X10098202Y-9175462D01*
X9843622Y-9070012D01*
X9614506Y-8916921D01*
X9614503Y-8916919D01*
X9419661Y-8722077D01*
X9418627Y-8720530D01*
X9266568Y-8492958D01*
X9161118Y-8238378D01*
X9107360Y-7968118D01*
X9107360Y-7692562D01*
X9161118Y-7422302D01*
X9266568Y-7167722D01*
X9419659Y-6938606D01*
X9419661Y-6938603D01*
X9614503Y-6743761D01*
X9616050Y-6742727D01*
X9843622Y-6590668D01*
X10098202Y-6485218D01*
X10233332Y-6458339D01*
X10368461Y-6431460D01*
X10644019Y-6431460D01*
X10779148Y-6458339D01*
X10779148Y-6458339D01*
G37*
G36*
X27766668Y-6458339D02*
X27901798Y-6485218D01*
X28156378Y-6590668D01*
X28383950Y-6742727D01*
X28385497Y-6743761D01*
X28580339Y-6938603D01*
X28580341Y-6938606D01*
X28733432Y-7167722D01*
X28838882Y-7422302D01*
X28892640Y-7692562D01*
X28892640Y-7968118D01*
X28838882Y-8238378D01*
X28733432Y-8492958D01*
X28581373Y-8720530D01*
X28580339Y-8722077D01*
X28385497Y-8916919D01*
X28385494Y-8916921D01*
X28156378Y-9070012D01*
X27901798Y-9175462D01*
X27766668Y-9202341D01*
X27631539Y-9229220D01*
X27355981Y-9229220D01*
X27220852Y-9202341D01*
X27085722Y-9175462D01*
X26831142Y-9070012D01*
X26602026Y-8916921D01*
X26602023Y-8916919D01*
X26407181Y-8722077D01*
X26406147Y-8720530D01*
X26254088Y-8492958D01*
X26148638Y-8238378D01*
X26094880Y-7968118D01*
X26094880Y-7692562D01*
X26148638Y-7422302D01*
X26254088Y-7167722D01*
X26407179Y-6938606D01*
X26407181Y-6938603D01*
X26602023Y-6743761D01*
X26603570Y-6742727D01*
X26831142Y-6590668D01*
X27085722Y-6485218D01*
X27220852Y-6458339D01*
X27355981Y-6431460D01*
X27631539Y-6431460D01*
X27766668Y-6458339D01*
X27766668Y-6458339D01*
G37*
G36*
X22516488Y-2643259D02*
X22651618Y-2670138D01*
X22906198Y-2775588D01*
X23133770Y-2927647D01*
X23135317Y-2928681D01*
X23330159Y-3123523D01*
X23330161Y-3123526D01*
X23483252Y-3352642D01*
X23588702Y-3607222D01*
X23642460Y-3877482D01*
X23642460Y-4153038D01*
X23588702Y-4423298D01*
X23483252Y-4677878D01*
X23336071Y-4898149D01*
X23330159Y-4906997D01*
X23135317Y-5101839D01*
X23135314Y-5101841D01*
X22906198Y-5254932D01*
X22651618Y-5360382D01*
X22516488Y-5387261D01*
X22381359Y-5414140D01*
X22105801Y-5414140D01*
X21970672Y-5387261D01*
X21835542Y-5360382D01*
X21580962Y-5254932D01*
X21351846Y-5101841D01*
X21351843Y-5101839D01*
X21157001Y-4906997D01*
X21151089Y-4898149D01*
X21003908Y-4677878D01*
X20898458Y-4423298D01*
X20844700Y-4153038D01*
X20844700Y-3877482D01*
X20898458Y-3607222D01*
X21003908Y-3352642D01*
X21156999Y-3123526D01*
X21157001Y-3123523D01*
X21351843Y-2928681D01*
X21353390Y-2927647D01*
X21580962Y-2775588D01*
X21835542Y-2670138D01*
X21970672Y-2643259D01*
X22105801Y-2616380D01*
X22381359Y-2616380D01*
X22516488Y-2643259D01*
X22516488Y-2643259D01*
G37*
G36*
X16029328Y-2643259D02*
X16164458Y-2670138D01*
X16419038Y-2775588D01*
X16646610Y-2927647D01*
X16648157Y-2928681D01*
X16842999Y-3123523D01*
X16843001Y-3123526D01*
X16996092Y-3352642D01*
X17101542Y-3607222D01*
X17155300Y-3877482D01*
X17155300Y-4153038D01*
X17101542Y-4423298D01*
X16996092Y-4677878D01*
X16848911Y-4898149D01*
X16842999Y-4906997D01*
X16648157Y-5101839D01*
X16648154Y-5101841D01*
X16419038Y-5254932D01*
X16164458Y-5360382D01*
X16029328Y-5387261D01*
X15894199Y-5414140D01*
X15618641Y-5414140D01*
X15483512Y-5387261D01*
X15348382Y-5360382D01*
X15093802Y-5254932D01*
X14864686Y-5101841D01*
X14864683Y-5101839D01*
X14669841Y-4906997D01*
X14663929Y-4898149D01*
X14516748Y-4677878D01*
X14411298Y-4423298D01*
X14357540Y-4153038D01*
X14357540Y-3877482D01*
X14411298Y-3607222D01*
X14516748Y-3352642D01*
X14669839Y-3123526D01*
X14669841Y-3123523D01*
X14864683Y-2928681D01*
X14866230Y-2927647D01*
X15093802Y-2775588D01*
X15348382Y-2670138D01*
X15483512Y-2643259D01*
X15618641Y-2616380D01*
X15894199Y-2616380D01*
X16029328Y-2643259D01*
X16029328Y-2643259D01*
G37*
G36*
X30909122Y-1746115D02*
X31025041Y-1769173D01*
X31352620Y-1904861D01*
X31643511Y-2099228D01*
X31647436Y-2101851D01*
X31898149Y-2352564D01*
X32095140Y-2647382D01*
X32230827Y-2974960D01*
X32300000Y-3322714D01*
X32300000Y-3677286D01*
X32230827Y-4025040D01*
X32095140Y-4352618D01*
X31898149Y-4647436D01*
X31647436Y-4898149D01*
X31647433Y-4898151D01*
X31352620Y-5095139D01*
X31025041Y-5230827D01*
X30909122Y-5253885D01*
X30677286Y-5300000D01*
X30322714Y-5300000D01*
X30090878Y-5253885D01*
X29974959Y-5230827D01*
X29647380Y-5095139D01*
X29352567Y-4898151D01*
X29352564Y-4898149D01*
X29101851Y-4647436D01*
X28904860Y-4352618D01*
X28769173Y-4025040D01*
X28700000Y-3677286D01*
X28700000Y-3322714D01*
X28769173Y-2974960D01*
X28904860Y-2647382D01*
X29101851Y-2352564D01*
X29352564Y-2101851D01*
X29356489Y-2099228D01*
X29647380Y-1904861D01*
X29974959Y-1769173D01*
X30090878Y-1746115D01*
X30322714Y-1700000D01*
X30677286Y-1700000D01*
X30909122Y-1746115D01*
X30909122Y-1746115D01*
G37*
G36*
X7909122Y-1746115D02*
X8025041Y-1769173D01*
X8352620Y-1904861D01*
X8643511Y-2099228D01*
X8647436Y-2101851D01*
X8898149Y-2352564D01*
X9095140Y-2647382D01*
X9230827Y-2974960D01*
X9300000Y-3322714D01*
X9300000Y-3677286D01*
X9230827Y-4025040D01*
X9095140Y-4352618D01*
X8898149Y-4647436D01*
X8647436Y-4898149D01*
X8647433Y-4898151D01*
X8352620Y-5095139D01*
X8025041Y-5230827D01*
X7909122Y-5253885D01*
X7677286Y-5300000D01*
X7322714Y-5300000D01*
X7090878Y-5253885D01*
X6974959Y-5230827D01*
X6647380Y-5095139D01*
X6352567Y-4898151D01*
X6352564Y-4898149D01*
X6101851Y-4647436D01*
X5904860Y-4352618D01*
X5769173Y-4025040D01*
X5700000Y-3677286D01*
X5700000Y-3322714D01*
X5769173Y-2974960D01*
X5904860Y-2647382D01*
X6101851Y-2352564D01*
X6352564Y-2101851D01*
X6356489Y-2099228D01*
X6647380Y-1904861D01*
X6974959Y-1769173D01*
X7090878Y-1746115D01*
X7322714Y-1700000D01*
X7677286Y-1700000D01*
X7909122Y-1746115D01*
X7909122Y-1746115D01*
G37*
M02*
