G04 #@! TF.GenerationSoftware,KiCad,Pcbnew,(5.0.2)-1*
G04 #@! TF.CreationDate,2019-04-03T17:46:42+02:00*
G04 #@! TF.ProjectId,Corona_tubeBoard,436f726f-6e61-45f7-9475-6265426f6172,1*
G04 #@! TF.SameCoordinates,Original*
G04 #@! TF.FileFunction,Copper,L1,Top*
G04 #@! TF.FilePolarity,Positive*
%FSLAX46Y46*%
G04 Gerber Fmt 4.6, Leading zero omitted, Abs format (unit mm)*
G04 Created by KiCad (PCBNEW (5.0.2)-1) date 3-4-2019 17:46:42*
%MOMM*%
%LPD*%
G01*
G04 APERTURE LIST*
G04 #@! TA.AperFunction,Conductor*
%ADD10C,0.100000*%
G04 #@! TD*
G04 #@! TA.AperFunction,SMDPad,CuDef*
%ADD11C,0.600000*%
G04 #@! TD*
G04 #@! TA.AperFunction,ComponentPad*
%ADD12O,1.905000X2.000000*%
G04 #@! TD*
G04 #@! TA.AperFunction,ComponentPad*
%ADD13R,1.905000X2.000000*%
G04 #@! TD*
G04 #@! TA.AperFunction,ComponentPad*
%ADD14C,2.397760*%
G04 #@! TD*
G04 #@! TA.AperFunction,ComponentPad*
%ADD15R,1.700000X1.700000*%
G04 #@! TD*
G04 #@! TA.AperFunction,ComponentPad*
%ADD16O,1.700000X1.700000*%
G04 #@! TD*
G04 #@! TA.AperFunction,ComponentPad*
%ADD17C,1.800000*%
G04 #@! TD*
G04 #@! TA.AperFunction,ComponentPad*
%ADD18R,1.800000X1.800000*%
G04 #@! TD*
G04 #@! TA.AperFunction,SMDPad,CuDef*
%ADD19C,1.150000*%
G04 #@! TD*
G04 #@! TA.AperFunction,ViaPad*
%ADD20C,0.800000*%
G04 #@! TD*
G04 #@! TA.AperFunction,Conductor*
%ADD21C,0.250000*%
G04 #@! TD*
G04 #@! TA.AperFunction,Conductor*
%ADD22C,0.254000*%
G04 #@! TD*
G04 APERTURE END LIST*
D10*
G04 #@! TO.N,/+12V.tb*
G04 #@! TO.C,U6*
G36*
X35314703Y-28795722D02*
X35329264Y-28797882D01*
X35343543Y-28801459D01*
X35357403Y-28806418D01*
X35370710Y-28812712D01*
X35383336Y-28820280D01*
X35395159Y-28829048D01*
X35406066Y-28838934D01*
X35415952Y-28849841D01*
X35424720Y-28861664D01*
X35432288Y-28874290D01*
X35438582Y-28887597D01*
X35443541Y-28901457D01*
X35447118Y-28915736D01*
X35449278Y-28930297D01*
X35450000Y-28945000D01*
X35450000Y-29245000D01*
X35449278Y-29259703D01*
X35447118Y-29274264D01*
X35443541Y-29288543D01*
X35438582Y-29302403D01*
X35432288Y-29315710D01*
X35424720Y-29328336D01*
X35415952Y-29340159D01*
X35406066Y-29351066D01*
X35395159Y-29360952D01*
X35383336Y-29369720D01*
X35370710Y-29377288D01*
X35357403Y-29383582D01*
X35343543Y-29388541D01*
X35329264Y-29392118D01*
X35314703Y-29394278D01*
X35300000Y-29395000D01*
X33650000Y-29395000D01*
X33635297Y-29394278D01*
X33620736Y-29392118D01*
X33606457Y-29388541D01*
X33592597Y-29383582D01*
X33579290Y-29377288D01*
X33566664Y-29369720D01*
X33554841Y-29360952D01*
X33543934Y-29351066D01*
X33534048Y-29340159D01*
X33525280Y-29328336D01*
X33517712Y-29315710D01*
X33511418Y-29302403D01*
X33506459Y-29288543D01*
X33502882Y-29274264D01*
X33500722Y-29259703D01*
X33500000Y-29245000D01*
X33500000Y-28945000D01*
X33500722Y-28930297D01*
X33502882Y-28915736D01*
X33506459Y-28901457D01*
X33511418Y-28887597D01*
X33517712Y-28874290D01*
X33525280Y-28861664D01*
X33534048Y-28849841D01*
X33543934Y-28838934D01*
X33554841Y-28829048D01*
X33566664Y-28820280D01*
X33579290Y-28812712D01*
X33592597Y-28806418D01*
X33606457Y-28801459D01*
X33620736Y-28797882D01*
X33635297Y-28795722D01*
X33650000Y-28795000D01*
X35300000Y-28795000D01*
X35314703Y-28795722D01*
X35314703Y-28795722D01*
G37*
D11*
G04 #@! TD*
G04 #@! TO.P,U6,8*
G04 #@! TO.N,/+12V.tb*
X34475000Y-29095000D03*
D10*
G04 #@! TO.N,Net-(U6-Pad6)*
G04 #@! TO.C,U6*
G36*
X35314703Y-30065722D02*
X35329264Y-30067882D01*
X35343543Y-30071459D01*
X35357403Y-30076418D01*
X35370710Y-30082712D01*
X35383336Y-30090280D01*
X35395159Y-30099048D01*
X35406066Y-30108934D01*
X35415952Y-30119841D01*
X35424720Y-30131664D01*
X35432288Y-30144290D01*
X35438582Y-30157597D01*
X35443541Y-30171457D01*
X35447118Y-30185736D01*
X35449278Y-30200297D01*
X35450000Y-30215000D01*
X35450000Y-30515000D01*
X35449278Y-30529703D01*
X35447118Y-30544264D01*
X35443541Y-30558543D01*
X35438582Y-30572403D01*
X35432288Y-30585710D01*
X35424720Y-30598336D01*
X35415952Y-30610159D01*
X35406066Y-30621066D01*
X35395159Y-30630952D01*
X35383336Y-30639720D01*
X35370710Y-30647288D01*
X35357403Y-30653582D01*
X35343543Y-30658541D01*
X35329264Y-30662118D01*
X35314703Y-30664278D01*
X35300000Y-30665000D01*
X33650000Y-30665000D01*
X33635297Y-30664278D01*
X33620736Y-30662118D01*
X33606457Y-30658541D01*
X33592597Y-30653582D01*
X33579290Y-30647288D01*
X33566664Y-30639720D01*
X33554841Y-30630952D01*
X33543934Y-30621066D01*
X33534048Y-30610159D01*
X33525280Y-30598336D01*
X33517712Y-30585710D01*
X33511418Y-30572403D01*
X33506459Y-30558543D01*
X33502882Y-30544264D01*
X33500722Y-30529703D01*
X33500000Y-30515000D01*
X33500000Y-30215000D01*
X33500722Y-30200297D01*
X33502882Y-30185736D01*
X33506459Y-30171457D01*
X33511418Y-30157597D01*
X33517712Y-30144290D01*
X33525280Y-30131664D01*
X33534048Y-30119841D01*
X33543934Y-30108934D01*
X33554841Y-30099048D01*
X33566664Y-30090280D01*
X33579290Y-30082712D01*
X33592597Y-30076418D01*
X33606457Y-30071459D01*
X33620736Y-30067882D01*
X33635297Y-30065722D01*
X33650000Y-30065000D01*
X35300000Y-30065000D01*
X35314703Y-30065722D01*
X35314703Y-30065722D01*
G37*
D11*
G04 #@! TD*
G04 #@! TO.P,U6,7*
G04 #@! TO.N,Net-(U6-Pad6)*
X34475000Y-30365000D03*
D10*
G04 #@! TO.N,Net-(U6-Pad6)*
G04 #@! TO.C,U6*
G36*
X35314703Y-31335722D02*
X35329264Y-31337882D01*
X35343543Y-31341459D01*
X35357403Y-31346418D01*
X35370710Y-31352712D01*
X35383336Y-31360280D01*
X35395159Y-31369048D01*
X35406066Y-31378934D01*
X35415952Y-31389841D01*
X35424720Y-31401664D01*
X35432288Y-31414290D01*
X35438582Y-31427597D01*
X35443541Y-31441457D01*
X35447118Y-31455736D01*
X35449278Y-31470297D01*
X35450000Y-31485000D01*
X35450000Y-31785000D01*
X35449278Y-31799703D01*
X35447118Y-31814264D01*
X35443541Y-31828543D01*
X35438582Y-31842403D01*
X35432288Y-31855710D01*
X35424720Y-31868336D01*
X35415952Y-31880159D01*
X35406066Y-31891066D01*
X35395159Y-31900952D01*
X35383336Y-31909720D01*
X35370710Y-31917288D01*
X35357403Y-31923582D01*
X35343543Y-31928541D01*
X35329264Y-31932118D01*
X35314703Y-31934278D01*
X35300000Y-31935000D01*
X33650000Y-31935000D01*
X33635297Y-31934278D01*
X33620736Y-31932118D01*
X33606457Y-31928541D01*
X33592597Y-31923582D01*
X33579290Y-31917288D01*
X33566664Y-31909720D01*
X33554841Y-31900952D01*
X33543934Y-31891066D01*
X33534048Y-31880159D01*
X33525280Y-31868336D01*
X33517712Y-31855710D01*
X33511418Y-31842403D01*
X33506459Y-31828543D01*
X33502882Y-31814264D01*
X33500722Y-31799703D01*
X33500000Y-31785000D01*
X33500000Y-31485000D01*
X33500722Y-31470297D01*
X33502882Y-31455736D01*
X33506459Y-31441457D01*
X33511418Y-31427597D01*
X33517712Y-31414290D01*
X33525280Y-31401664D01*
X33534048Y-31389841D01*
X33543934Y-31378934D01*
X33554841Y-31369048D01*
X33566664Y-31360280D01*
X33579290Y-31352712D01*
X33592597Y-31346418D01*
X33606457Y-31341459D01*
X33620736Y-31337882D01*
X33635297Y-31335722D01*
X33650000Y-31335000D01*
X35300000Y-31335000D01*
X35314703Y-31335722D01*
X35314703Y-31335722D01*
G37*
D11*
G04 #@! TD*
G04 #@! TO.P,U6,6*
G04 #@! TO.N,Net-(U6-Pad6)*
X34475000Y-31635000D03*
D10*
G04 #@! TO.N,/gnd.tb*
G04 #@! TO.C,U6*
G36*
X35314703Y-32605722D02*
X35329264Y-32607882D01*
X35343543Y-32611459D01*
X35357403Y-32616418D01*
X35370710Y-32622712D01*
X35383336Y-32630280D01*
X35395159Y-32639048D01*
X35406066Y-32648934D01*
X35415952Y-32659841D01*
X35424720Y-32671664D01*
X35432288Y-32684290D01*
X35438582Y-32697597D01*
X35443541Y-32711457D01*
X35447118Y-32725736D01*
X35449278Y-32740297D01*
X35450000Y-32755000D01*
X35450000Y-33055000D01*
X35449278Y-33069703D01*
X35447118Y-33084264D01*
X35443541Y-33098543D01*
X35438582Y-33112403D01*
X35432288Y-33125710D01*
X35424720Y-33138336D01*
X35415952Y-33150159D01*
X35406066Y-33161066D01*
X35395159Y-33170952D01*
X35383336Y-33179720D01*
X35370710Y-33187288D01*
X35357403Y-33193582D01*
X35343543Y-33198541D01*
X35329264Y-33202118D01*
X35314703Y-33204278D01*
X35300000Y-33205000D01*
X33650000Y-33205000D01*
X33635297Y-33204278D01*
X33620736Y-33202118D01*
X33606457Y-33198541D01*
X33592597Y-33193582D01*
X33579290Y-33187288D01*
X33566664Y-33179720D01*
X33554841Y-33170952D01*
X33543934Y-33161066D01*
X33534048Y-33150159D01*
X33525280Y-33138336D01*
X33517712Y-33125710D01*
X33511418Y-33112403D01*
X33506459Y-33098543D01*
X33502882Y-33084264D01*
X33500722Y-33069703D01*
X33500000Y-33055000D01*
X33500000Y-32755000D01*
X33500722Y-32740297D01*
X33502882Y-32725736D01*
X33506459Y-32711457D01*
X33511418Y-32697597D01*
X33517712Y-32684290D01*
X33525280Y-32671664D01*
X33534048Y-32659841D01*
X33543934Y-32648934D01*
X33554841Y-32639048D01*
X33566664Y-32630280D01*
X33579290Y-32622712D01*
X33592597Y-32616418D01*
X33606457Y-32611459D01*
X33620736Y-32607882D01*
X33635297Y-32605722D01*
X33650000Y-32605000D01*
X35300000Y-32605000D01*
X35314703Y-32605722D01*
X35314703Y-32605722D01*
G37*
D11*
G04 #@! TD*
G04 #@! TO.P,U6,5*
G04 #@! TO.N,/gnd.tb*
X34475000Y-32905000D03*
D10*
G04 #@! TO.N,/-12V.tb*
G04 #@! TO.C,U6*
G36*
X30364703Y-32605722D02*
X30379264Y-32607882D01*
X30393543Y-32611459D01*
X30407403Y-32616418D01*
X30420710Y-32622712D01*
X30433336Y-32630280D01*
X30445159Y-32639048D01*
X30456066Y-32648934D01*
X30465952Y-32659841D01*
X30474720Y-32671664D01*
X30482288Y-32684290D01*
X30488582Y-32697597D01*
X30493541Y-32711457D01*
X30497118Y-32725736D01*
X30499278Y-32740297D01*
X30500000Y-32755000D01*
X30500000Y-33055000D01*
X30499278Y-33069703D01*
X30497118Y-33084264D01*
X30493541Y-33098543D01*
X30488582Y-33112403D01*
X30482288Y-33125710D01*
X30474720Y-33138336D01*
X30465952Y-33150159D01*
X30456066Y-33161066D01*
X30445159Y-33170952D01*
X30433336Y-33179720D01*
X30420710Y-33187288D01*
X30407403Y-33193582D01*
X30393543Y-33198541D01*
X30379264Y-33202118D01*
X30364703Y-33204278D01*
X30350000Y-33205000D01*
X28700000Y-33205000D01*
X28685297Y-33204278D01*
X28670736Y-33202118D01*
X28656457Y-33198541D01*
X28642597Y-33193582D01*
X28629290Y-33187288D01*
X28616664Y-33179720D01*
X28604841Y-33170952D01*
X28593934Y-33161066D01*
X28584048Y-33150159D01*
X28575280Y-33138336D01*
X28567712Y-33125710D01*
X28561418Y-33112403D01*
X28556459Y-33098543D01*
X28552882Y-33084264D01*
X28550722Y-33069703D01*
X28550000Y-33055000D01*
X28550000Y-32755000D01*
X28550722Y-32740297D01*
X28552882Y-32725736D01*
X28556459Y-32711457D01*
X28561418Y-32697597D01*
X28567712Y-32684290D01*
X28575280Y-32671664D01*
X28584048Y-32659841D01*
X28593934Y-32648934D01*
X28604841Y-32639048D01*
X28616664Y-32630280D01*
X28629290Y-32622712D01*
X28642597Y-32616418D01*
X28656457Y-32611459D01*
X28670736Y-32607882D01*
X28685297Y-32605722D01*
X28700000Y-32605000D01*
X30350000Y-32605000D01*
X30364703Y-32605722D01*
X30364703Y-32605722D01*
G37*
D11*
G04 #@! TD*
G04 #@! TO.P,U6,4*
G04 #@! TO.N,/-12V.tb*
X29525000Y-32905000D03*
D10*
G04 #@! TO.N,Net-(R102-Pad2)*
G04 #@! TO.C,U6*
G36*
X30364703Y-31335722D02*
X30379264Y-31337882D01*
X30393543Y-31341459D01*
X30407403Y-31346418D01*
X30420710Y-31352712D01*
X30433336Y-31360280D01*
X30445159Y-31369048D01*
X30456066Y-31378934D01*
X30465952Y-31389841D01*
X30474720Y-31401664D01*
X30482288Y-31414290D01*
X30488582Y-31427597D01*
X30493541Y-31441457D01*
X30497118Y-31455736D01*
X30499278Y-31470297D01*
X30500000Y-31485000D01*
X30500000Y-31785000D01*
X30499278Y-31799703D01*
X30497118Y-31814264D01*
X30493541Y-31828543D01*
X30488582Y-31842403D01*
X30482288Y-31855710D01*
X30474720Y-31868336D01*
X30465952Y-31880159D01*
X30456066Y-31891066D01*
X30445159Y-31900952D01*
X30433336Y-31909720D01*
X30420710Y-31917288D01*
X30407403Y-31923582D01*
X30393543Y-31928541D01*
X30379264Y-31932118D01*
X30364703Y-31934278D01*
X30350000Y-31935000D01*
X28700000Y-31935000D01*
X28685297Y-31934278D01*
X28670736Y-31932118D01*
X28656457Y-31928541D01*
X28642597Y-31923582D01*
X28629290Y-31917288D01*
X28616664Y-31909720D01*
X28604841Y-31900952D01*
X28593934Y-31891066D01*
X28584048Y-31880159D01*
X28575280Y-31868336D01*
X28567712Y-31855710D01*
X28561418Y-31842403D01*
X28556459Y-31828543D01*
X28552882Y-31814264D01*
X28550722Y-31799703D01*
X28550000Y-31785000D01*
X28550000Y-31485000D01*
X28550722Y-31470297D01*
X28552882Y-31455736D01*
X28556459Y-31441457D01*
X28561418Y-31427597D01*
X28567712Y-31414290D01*
X28575280Y-31401664D01*
X28584048Y-31389841D01*
X28593934Y-31378934D01*
X28604841Y-31369048D01*
X28616664Y-31360280D01*
X28629290Y-31352712D01*
X28642597Y-31346418D01*
X28656457Y-31341459D01*
X28670736Y-31337882D01*
X28685297Y-31335722D01*
X28700000Y-31335000D01*
X30350000Y-31335000D01*
X30364703Y-31335722D01*
X30364703Y-31335722D01*
G37*
D11*
G04 #@! TD*
G04 #@! TO.P,U6,3*
G04 #@! TO.N,Net-(R102-Pad2)*
X29525000Y-31635000D03*
D10*
G04 #@! TO.N,Net-(D_TUBE1-Pad2)*
G04 #@! TO.C,U6*
G36*
X30364703Y-30065722D02*
X30379264Y-30067882D01*
X30393543Y-30071459D01*
X30407403Y-30076418D01*
X30420710Y-30082712D01*
X30433336Y-30090280D01*
X30445159Y-30099048D01*
X30456066Y-30108934D01*
X30465952Y-30119841D01*
X30474720Y-30131664D01*
X30482288Y-30144290D01*
X30488582Y-30157597D01*
X30493541Y-30171457D01*
X30497118Y-30185736D01*
X30499278Y-30200297D01*
X30500000Y-30215000D01*
X30500000Y-30515000D01*
X30499278Y-30529703D01*
X30497118Y-30544264D01*
X30493541Y-30558543D01*
X30488582Y-30572403D01*
X30482288Y-30585710D01*
X30474720Y-30598336D01*
X30465952Y-30610159D01*
X30456066Y-30621066D01*
X30445159Y-30630952D01*
X30433336Y-30639720D01*
X30420710Y-30647288D01*
X30407403Y-30653582D01*
X30393543Y-30658541D01*
X30379264Y-30662118D01*
X30364703Y-30664278D01*
X30350000Y-30665000D01*
X28700000Y-30665000D01*
X28685297Y-30664278D01*
X28670736Y-30662118D01*
X28656457Y-30658541D01*
X28642597Y-30653582D01*
X28629290Y-30647288D01*
X28616664Y-30639720D01*
X28604841Y-30630952D01*
X28593934Y-30621066D01*
X28584048Y-30610159D01*
X28575280Y-30598336D01*
X28567712Y-30585710D01*
X28561418Y-30572403D01*
X28556459Y-30558543D01*
X28552882Y-30544264D01*
X28550722Y-30529703D01*
X28550000Y-30515000D01*
X28550000Y-30215000D01*
X28550722Y-30200297D01*
X28552882Y-30185736D01*
X28556459Y-30171457D01*
X28561418Y-30157597D01*
X28567712Y-30144290D01*
X28575280Y-30131664D01*
X28584048Y-30119841D01*
X28593934Y-30108934D01*
X28604841Y-30099048D01*
X28616664Y-30090280D01*
X28629290Y-30082712D01*
X28642597Y-30076418D01*
X28656457Y-30071459D01*
X28670736Y-30067882D01*
X28685297Y-30065722D01*
X28700000Y-30065000D01*
X30350000Y-30065000D01*
X30364703Y-30065722D01*
X30364703Y-30065722D01*
G37*
D11*
G04 #@! TD*
G04 #@! TO.P,U6,2*
G04 #@! TO.N,Net-(D_TUBE1-Pad2)*
X29525000Y-30365000D03*
D10*
G04 #@! TO.N,Net-(D_TUBE1-Pad1)*
G04 #@! TO.C,U6*
G36*
X30364703Y-28795722D02*
X30379264Y-28797882D01*
X30393543Y-28801459D01*
X30407403Y-28806418D01*
X30420710Y-28812712D01*
X30433336Y-28820280D01*
X30445159Y-28829048D01*
X30456066Y-28838934D01*
X30465952Y-28849841D01*
X30474720Y-28861664D01*
X30482288Y-28874290D01*
X30488582Y-28887597D01*
X30493541Y-28901457D01*
X30497118Y-28915736D01*
X30499278Y-28930297D01*
X30500000Y-28945000D01*
X30500000Y-29245000D01*
X30499278Y-29259703D01*
X30497118Y-29274264D01*
X30493541Y-29288543D01*
X30488582Y-29302403D01*
X30482288Y-29315710D01*
X30474720Y-29328336D01*
X30465952Y-29340159D01*
X30456066Y-29351066D01*
X30445159Y-29360952D01*
X30433336Y-29369720D01*
X30420710Y-29377288D01*
X30407403Y-29383582D01*
X30393543Y-29388541D01*
X30379264Y-29392118D01*
X30364703Y-29394278D01*
X30350000Y-29395000D01*
X28700000Y-29395000D01*
X28685297Y-29394278D01*
X28670736Y-29392118D01*
X28656457Y-29388541D01*
X28642597Y-29383582D01*
X28629290Y-29377288D01*
X28616664Y-29369720D01*
X28604841Y-29360952D01*
X28593934Y-29351066D01*
X28584048Y-29340159D01*
X28575280Y-29328336D01*
X28567712Y-29315710D01*
X28561418Y-29302403D01*
X28556459Y-29288543D01*
X28552882Y-29274264D01*
X28550722Y-29259703D01*
X28550000Y-29245000D01*
X28550000Y-28945000D01*
X28550722Y-28930297D01*
X28552882Y-28915736D01*
X28556459Y-28901457D01*
X28561418Y-28887597D01*
X28567712Y-28874290D01*
X28575280Y-28861664D01*
X28584048Y-28849841D01*
X28593934Y-28838934D01*
X28604841Y-28829048D01*
X28616664Y-28820280D01*
X28629290Y-28812712D01*
X28642597Y-28806418D01*
X28656457Y-28801459D01*
X28670736Y-28797882D01*
X28685297Y-28795722D01*
X28700000Y-28795000D01*
X30350000Y-28795000D01*
X30364703Y-28795722D01*
X30364703Y-28795722D01*
G37*
D11*
G04 #@! TD*
G04 #@! TO.P,U6,1*
G04 #@! TO.N,Net-(D_TUBE1-Pad1)*
X29525000Y-29095000D03*
D12*
G04 #@! TO.P,U4,3*
G04 #@! TO.N,/-6.3V.tb*
X3460000Y-50000000D03*
G04 #@! TO.P,U4,2*
G04 #@! TO.N,/-12V.tb*
X6000000Y-50000000D03*
D13*
G04 #@! TO.P,U4,1*
G04 #@! TO.N,Net-(RFBB1-Pad2)*
X8540000Y-50000000D03*
G04 #@! TD*
D14*
G04 #@! TO.P,SX1,1*
G04 #@! TO.N,/tube.1.tb*
X27493760Y-20169660D03*
G04 #@! TO.P,SX1,2*
G04 #@! TO.N,/tube.2.tb*
X29497820Y-14000000D03*
G04 #@! TO.P,SX1,3*
G04 #@! TO.N,/tube.3.tb*
X27493760Y-7830340D03*
G04 #@! TO.P,SX1,4*
G04 #@! TO.N,/tube.4.tb*
X22243580Y-4015260D03*
G04 #@! TO.P,SX1,5*
G04 #@! TO.N,Net-(J8-Pad2)*
X15756420Y-4015260D03*
G04 #@! TO.P,SX1,6*
G04 #@! TO.N,/tube.6.tb*
X10506240Y-7830340D03*
G04 #@! TO.P,SX1,7*
G04 #@! TO.N,/tube.7.tb*
X8502180Y-14000000D03*
G04 #@! TO.P,SX1,8*
G04 #@! TO.N,/tube.8.tb*
X10506240Y-20169660D03*
G04 #@! TO.P,SX1,9*
G04 #@! TO.N,N/C*
X15756420Y-23984740D03*
G04 #@! TD*
D15*
G04 #@! TO.P,J5,1*
G04 #@! TO.N,/tube.4.tb*
X21500000Y-57750000D03*
D16*
G04 #@! TO.P,J5,2*
G04 #@! TO.N,Net-(J5-Pad2)*
X21500000Y-55210000D03*
G04 #@! TD*
D17*
G04 #@! TO.P,D_TUBE1,2*
G04 #@! TO.N,Net-(D_TUBE1-Pad2)*
X20290000Y-14000000D03*
D18*
G04 #@! TO.P,D_TUBE1,1*
G04 #@! TO.N,Net-(D_TUBE1-Pad1)*
X17750000Y-14000000D03*
G04 #@! TD*
D15*
G04 #@! TO.P,J6,1*
G04 #@! TO.N,/-12V.tb*
X16420000Y-37250000D03*
D16*
G04 #@! TO.P,J6,2*
G04 #@! TO.N,/tube.4.tb*
X18960000Y-37250000D03*
G04 #@! TO.P,J6,3*
G04 #@! TO.N,/-6.3V.tb*
X21500000Y-37250000D03*
G04 #@! TD*
D15*
G04 #@! TO.P,J8,1*
G04 #@! TO.N,/gnd.tb*
X16420000Y-47250000D03*
D16*
G04 #@! TO.P,J8,2*
G04 #@! TO.N,Net-(J8-Pad2)*
X18960000Y-47250000D03*
G04 #@! TO.P,J8,3*
G04 #@! TO.N,Net-(J5-Pad2)*
X21500000Y-47250000D03*
G04 #@! TD*
D15*
G04 #@! TO.P,J10,1*
G04 #@! TO.N,/tube.1.tb*
X7500000Y-64000000D03*
D16*
G04 #@! TO.P,J10,2*
G04 #@! TO.N,/tube.2.tb*
X10040000Y-64000000D03*
G04 #@! TO.P,J10,3*
G04 #@! TO.N,/tube.3.tb*
X12580000Y-64000000D03*
G04 #@! TO.P,J10,4*
G04 #@! TO.N,/tube.6.tb*
X15120000Y-64000000D03*
G04 #@! TO.P,J10,5*
G04 #@! TO.N,/tube.7.tb*
X17660000Y-64000000D03*
G04 #@! TO.P,J10,6*
G04 #@! TO.N,/tube.8.tb*
X20200000Y-64000000D03*
G04 #@! TO.P,J10,7*
G04 #@! TO.N,/gnd.tb*
X22740000Y-64000000D03*
G04 #@! TO.P,J10,8*
G04 #@! TO.N,/-12V.tb*
X25280000Y-64000000D03*
G04 #@! TO.P,J10,9*
G04 #@! TO.N,/+12V.tb*
X27820000Y-64000000D03*
G04 #@! TO.P,J10,10*
G04 #@! TO.N,/audio.out.tb*
X30360000Y-64000000D03*
G04 #@! TD*
D10*
G04 #@! TO.N,/gnd.tb*
G04 #@! TO.C,R101*
G36*
X35149505Y-36551204D02*
X35173773Y-36554804D01*
X35197572Y-36560765D01*
X35220671Y-36569030D01*
X35242850Y-36579520D01*
X35263893Y-36592132D01*
X35283599Y-36606747D01*
X35301777Y-36623223D01*
X35318253Y-36641401D01*
X35332868Y-36661107D01*
X35345480Y-36682150D01*
X35355970Y-36704329D01*
X35364235Y-36727428D01*
X35370196Y-36751227D01*
X35373796Y-36775495D01*
X35375000Y-36799999D01*
X35375000Y-37700001D01*
X35373796Y-37724505D01*
X35370196Y-37748773D01*
X35364235Y-37772572D01*
X35355970Y-37795671D01*
X35345480Y-37817850D01*
X35332868Y-37838893D01*
X35318253Y-37858599D01*
X35301777Y-37876777D01*
X35283599Y-37893253D01*
X35263893Y-37907868D01*
X35242850Y-37920480D01*
X35220671Y-37930970D01*
X35197572Y-37939235D01*
X35173773Y-37945196D01*
X35149505Y-37948796D01*
X35125001Y-37950000D01*
X34474999Y-37950000D01*
X34450495Y-37948796D01*
X34426227Y-37945196D01*
X34402428Y-37939235D01*
X34379329Y-37930970D01*
X34357150Y-37920480D01*
X34336107Y-37907868D01*
X34316401Y-37893253D01*
X34298223Y-37876777D01*
X34281747Y-37858599D01*
X34267132Y-37838893D01*
X34254520Y-37817850D01*
X34244030Y-37795671D01*
X34235765Y-37772572D01*
X34229804Y-37748773D01*
X34226204Y-37724505D01*
X34225000Y-37700001D01*
X34225000Y-36799999D01*
X34226204Y-36775495D01*
X34229804Y-36751227D01*
X34235765Y-36727428D01*
X34244030Y-36704329D01*
X34254520Y-36682150D01*
X34267132Y-36661107D01*
X34281747Y-36641401D01*
X34298223Y-36623223D01*
X34316401Y-36606747D01*
X34336107Y-36592132D01*
X34357150Y-36579520D01*
X34379329Y-36569030D01*
X34402428Y-36560765D01*
X34426227Y-36554804D01*
X34450495Y-36551204D01*
X34474999Y-36550000D01*
X35125001Y-36550000D01*
X35149505Y-36551204D01*
X35149505Y-36551204D01*
G37*
D19*
G04 #@! TD*
G04 #@! TO.P,R101,2*
G04 #@! TO.N,/gnd.tb*
X34800000Y-37250000D03*
D10*
G04 #@! TO.N,Net-(D_TUBE1-Pad2)*
G04 #@! TO.C,R101*
G36*
X33099505Y-36551204D02*
X33123773Y-36554804D01*
X33147572Y-36560765D01*
X33170671Y-36569030D01*
X33192850Y-36579520D01*
X33213893Y-36592132D01*
X33233599Y-36606747D01*
X33251777Y-36623223D01*
X33268253Y-36641401D01*
X33282868Y-36661107D01*
X33295480Y-36682150D01*
X33305970Y-36704329D01*
X33314235Y-36727428D01*
X33320196Y-36751227D01*
X33323796Y-36775495D01*
X33325000Y-36799999D01*
X33325000Y-37700001D01*
X33323796Y-37724505D01*
X33320196Y-37748773D01*
X33314235Y-37772572D01*
X33305970Y-37795671D01*
X33295480Y-37817850D01*
X33282868Y-37838893D01*
X33268253Y-37858599D01*
X33251777Y-37876777D01*
X33233599Y-37893253D01*
X33213893Y-37907868D01*
X33192850Y-37920480D01*
X33170671Y-37930970D01*
X33147572Y-37939235D01*
X33123773Y-37945196D01*
X33099505Y-37948796D01*
X33075001Y-37950000D01*
X32424999Y-37950000D01*
X32400495Y-37948796D01*
X32376227Y-37945196D01*
X32352428Y-37939235D01*
X32329329Y-37930970D01*
X32307150Y-37920480D01*
X32286107Y-37907868D01*
X32266401Y-37893253D01*
X32248223Y-37876777D01*
X32231747Y-37858599D01*
X32217132Y-37838893D01*
X32204520Y-37817850D01*
X32194030Y-37795671D01*
X32185765Y-37772572D01*
X32179804Y-37748773D01*
X32176204Y-37724505D01*
X32175000Y-37700001D01*
X32175000Y-36799999D01*
X32176204Y-36775495D01*
X32179804Y-36751227D01*
X32185765Y-36727428D01*
X32194030Y-36704329D01*
X32204520Y-36682150D01*
X32217132Y-36661107D01*
X32231747Y-36641401D01*
X32248223Y-36623223D01*
X32266401Y-36606747D01*
X32286107Y-36592132D01*
X32307150Y-36579520D01*
X32329329Y-36569030D01*
X32352428Y-36560765D01*
X32376227Y-36554804D01*
X32400495Y-36551204D01*
X32424999Y-36550000D01*
X33075001Y-36550000D01*
X33099505Y-36551204D01*
X33099505Y-36551204D01*
G37*
D19*
G04 #@! TD*
G04 #@! TO.P,R101,1*
G04 #@! TO.N,Net-(D_TUBE1-Pad2)*
X32750000Y-37250000D03*
D10*
G04 #@! TO.N,/gnd.tb*
G04 #@! TO.C,R102*
G36*
X33049505Y-40051204D02*
X33073773Y-40054804D01*
X33097572Y-40060765D01*
X33120671Y-40069030D01*
X33142850Y-40079520D01*
X33163893Y-40092132D01*
X33183599Y-40106747D01*
X33201777Y-40123223D01*
X33218253Y-40141401D01*
X33232868Y-40161107D01*
X33245480Y-40182150D01*
X33255970Y-40204329D01*
X33264235Y-40227428D01*
X33270196Y-40251227D01*
X33273796Y-40275495D01*
X33275000Y-40299999D01*
X33275000Y-41200001D01*
X33273796Y-41224505D01*
X33270196Y-41248773D01*
X33264235Y-41272572D01*
X33255970Y-41295671D01*
X33245480Y-41317850D01*
X33232868Y-41338893D01*
X33218253Y-41358599D01*
X33201777Y-41376777D01*
X33183599Y-41393253D01*
X33163893Y-41407868D01*
X33142850Y-41420480D01*
X33120671Y-41430970D01*
X33097572Y-41439235D01*
X33073773Y-41445196D01*
X33049505Y-41448796D01*
X33025001Y-41450000D01*
X32374999Y-41450000D01*
X32350495Y-41448796D01*
X32326227Y-41445196D01*
X32302428Y-41439235D01*
X32279329Y-41430970D01*
X32257150Y-41420480D01*
X32236107Y-41407868D01*
X32216401Y-41393253D01*
X32198223Y-41376777D01*
X32181747Y-41358599D01*
X32167132Y-41338893D01*
X32154520Y-41317850D01*
X32144030Y-41295671D01*
X32135765Y-41272572D01*
X32129804Y-41248773D01*
X32126204Y-41224505D01*
X32125000Y-41200001D01*
X32125000Y-40299999D01*
X32126204Y-40275495D01*
X32129804Y-40251227D01*
X32135765Y-40227428D01*
X32144030Y-40204329D01*
X32154520Y-40182150D01*
X32167132Y-40161107D01*
X32181747Y-40141401D01*
X32198223Y-40123223D01*
X32216401Y-40106747D01*
X32236107Y-40092132D01*
X32257150Y-40079520D01*
X32279329Y-40069030D01*
X32302428Y-40060765D01*
X32326227Y-40054804D01*
X32350495Y-40051204D01*
X32374999Y-40050000D01*
X33025001Y-40050000D01*
X33049505Y-40051204D01*
X33049505Y-40051204D01*
G37*
D19*
G04 #@! TD*
G04 #@! TO.P,R102,1*
G04 #@! TO.N,/gnd.tb*
X32700000Y-40750000D03*
D10*
G04 #@! TO.N,Net-(R102-Pad2)*
G04 #@! TO.C,R102*
G36*
X35099505Y-40051204D02*
X35123773Y-40054804D01*
X35147572Y-40060765D01*
X35170671Y-40069030D01*
X35192850Y-40079520D01*
X35213893Y-40092132D01*
X35233599Y-40106747D01*
X35251777Y-40123223D01*
X35268253Y-40141401D01*
X35282868Y-40161107D01*
X35295480Y-40182150D01*
X35305970Y-40204329D01*
X35314235Y-40227428D01*
X35320196Y-40251227D01*
X35323796Y-40275495D01*
X35325000Y-40299999D01*
X35325000Y-41200001D01*
X35323796Y-41224505D01*
X35320196Y-41248773D01*
X35314235Y-41272572D01*
X35305970Y-41295671D01*
X35295480Y-41317850D01*
X35282868Y-41338893D01*
X35268253Y-41358599D01*
X35251777Y-41376777D01*
X35233599Y-41393253D01*
X35213893Y-41407868D01*
X35192850Y-41420480D01*
X35170671Y-41430970D01*
X35147572Y-41439235D01*
X35123773Y-41445196D01*
X35099505Y-41448796D01*
X35075001Y-41450000D01*
X34424999Y-41450000D01*
X34400495Y-41448796D01*
X34376227Y-41445196D01*
X34352428Y-41439235D01*
X34329329Y-41430970D01*
X34307150Y-41420480D01*
X34286107Y-41407868D01*
X34266401Y-41393253D01*
X34248223Y-41376777D01*
X34231747Y-41358599D01*
X34217132Y-41338893D01*
X34204520Y-41317850D01*
X34194030Y-41295671D01*
X34185765Y-41272572D01*
X34179804Y-41248773D01*
X34176204Y-41224505D01*
X34175000Y-41200001D01*
X34175000Y-40299999D01*
X34176204Y-40275495D01*
X34179804Y-40251227D01*
X34185765Y-40227428D01*
X34194030Y-40204329D01*
X34204520Y-40182150D01*
X34217132Y-40161107D01*
X34231747Y-40141401D01*
X34248223Y-40123223D01*
X34266401Y-40106747D01*
X34286107Y-40092132D01*
X34307150Y-40079520D01*
X34329329Y-40069030D01*
X34352428Y-40060765D01*
X34376227Y-40054804D01*
X34400495Y-40051204D01*
X34424999Y-40050000D01*
X35075001Y-40050000D01*
X35099505Y-40051204D01*
X35099505Y-40051204D01*
G37*
D19*
G04 #@! TD*
G04 #@! TO.P,R102,2*
G04 #@! TO.N,Net-(R102-Pad2)*
X34750000Y-40750000D03*
D10*
G04 #@! TO.N,/audio.out.tb*
G04 #@! TO.C,R103*
G36*
X33074505Y-43551204D02*
X33098773Y-43554804D01*
X33122572Y-43560765D01*
X33145671Y-43569030D01*
X33167850Y-43579520D01*
X33188893Y-43592132D01*
X33208599Y-43606747D01*
X33226777Y-43623223D01*
X33243253Y-43641401D01*
X33257868Y-43661107D01*
X33270480Y-43682150D01*
X33280970Y-43704329D01*
X33289235Y-43727428D01*
X33295196Y-43751227D01*
X33298796Y-43775495D01*
X33300000Y-43799999D01*
X33300000Y-44700001D01*
X33298796Y-44724505D01*
X33295196Y-44748773D01*
X33289235Y-44772572D01*
X33280970Y-44795671D01*
X33270480Y-44817850D01*
X33257868Y-44838893D01*
X33243253Y-44858599D01*
X33226777Y-44876777D01*
X33208599Y-44893253D01*
X33188893Y-44907868D01*
X33167850Y-44920480D01*
X33145671Y-44930970D01*
X33122572Y-44939235D01*
X33098773Y-44945196D01*
X33074505Y-44948796D01*
X33050001Y-44950000D01*
X32399999Y-44950000D01*
X32375495Y-44948796D01*
X32351227Y-44945196D01*
X32327428Y-44939235D01*
X32304329Y-44930970D01*
X32282150Y-44920480D01*
X32261107Y-44907868D01*
X32241401Y-44893253D01*
X32223223Y-44876777D01*
X32206747Y-44858599D01*
X32192132Y-44838893D01*
X32179520Y-44817850D01*
X32169030Y-44795671D01*
X32160765Y-44772572D01*
X32154804Y-44748773D01*
X32151204Y-44724505D01*
X32150000Y-44700001D01*
X32150000Y-43799999D01*
X32151204Y-43775495D01*
X32154804Y-43751227D01*
X32160765Y-43727428D01*
X32169030Y-43704329D01*
X32179520Y-43682150D01*
X32192132Y-43661107D01*
X32206747Y-43641401D01*
X32223223Y-43623223D01*
X32241401Y-43606747D01*
X32261107Y-43592132D01*
X32282150Y-43579520D01*
X32304329Y-43569030D01*
X32327428Y-43560765D01*
X32351227Y-43554804D01*
X32375495Y-43551204D01*
X32399999Y-43550000D01*
X33050001Y-43550000D01*
X33074505Y-43551204D01*
X33074505Y-43551204D01*
G37*
D19*
G04 #@! TD*
G04 #@! TO.P,R103,1*
G04 #@! TO.N,/audio.out.tb*
X32725000Y-44250000D03*
D10*
G04 #@! TO.N,Net-(R102-Pad2)*
G04 #@! TO.C,R103*
G36*
X35124505Y-43551204D02*
X35148773Y-43554804D01*
X35172572Y-43560765D01*
X35195671Y-43569030D01*
X35217850Y-43579520D01*
X35238893Y-43592132D01*
X35258599Y-43606747D01*
X35276777Y-43623223D01*
X35293253Y-43641401D01*
X35307868Y-43661107D01*
X35320480Y-43682150D01*
X35330970Y-43704329D01*
X35339235Y-43727428D01*
X35345196Y-43751227D01*
X35348796Y-43775495D01*
X35350000Y-43799999D01*
X35350000Y-44700001D01*
X35348796Y-44724505D01*
X35345196Y-44748773D01*
X35339235Y-44772572D01*
X35330970Y-44795671D01*
X35320480Y-44817850D01*
X35307868Y-44838893D01*
X35293253Y-44858599D01*
X35276777Y-44876777D01*
X35258599Y-44893253D01*
X35238893Y-44907868D01*
X35217850Y-44920480D01*
X35195671Y-44930970D01*
X35172572Y-44939235D01*
X35148773Y-44945196D01*
X35124505Y-44948796D01*
X35100001Y-44950000D01*
X34449999Y-44950000D01*
X34425495Y-44948796D01*
X34401227Y-44945196D01*
X34377428Y-44939235D01*
X34354329Y-44930970D01*
X34332150Y-44920480D01*
X34311107Y-44907868D01*
X34291401Y-44893253D01*
X34273223Y-44876777D01*
X34256747Y-44858599D01*
X34242132Y-44838893D01*
X34229520Y-44817850D01*
X34219030Y-44795671D01*
X34210765Y-44772572D01*
X34204804Y-44748773D01*
X34201204Y-44724505D01*
X34200000Y-44700001D01*
X34200000Y-43799999D01*
X34201204Y-43775495D01*
X34204804Y-43751227D01*
X34210765Y-43727428D01*
X34219030Y-43704329D01*
X34229520Y-43682150D01*
X34242132Y-43661107D01*
X34256747Y-43641401D01*
X34273223Y-43623223D01*
X34291401Y-43606747D01*
X34311107Y-43592132D01*
X34332150Y-43579520D01*
X34354329Y-43569030D01*
X34377428Y-43560765D01*
X34401227Y-43554804D01*
X34425495Y-43551204D01*
X34449999Y-43550000D01*
X35100001Y-43550000D01*
X35124505Y-43551204D01*
X35124505Y-43551204D01*
G37*
D19*
G04 #@! TD*
G04 #@! TO.P,R103,2*
G04 #@! TO.N,Net-(R102-Pad2)*
X34775000Y-44250000D03*
D10*
G04 #@! TO.N,/gnd.tb*
G04 #@! TO.C,RFBB1*
G36*
X10849505Y-53801204D02*
X10873773Y-53804804D01*
X10897572Y-53810765D01*
X10920671Y-53819030D01*
X10942850Y-53829520D01*
X10963893Y-53842132D01*
X10983599Y-53856747D01*
X11001777Y-53873223D01*
X11018253Y-53891401D01*
X11032868Y-53911107D01*
X11045480Y-53932150D01*
X11055970Y-53954329D01*
X11064235Y-53977428D01*
X11070196Y-54001227D01*
X11073796Y-54025495D01*
X11075000Y-54049999D01*
X11075000Y-54950001D01*
X11073796Y-54974505D01*
X11070196Y-54998773D01*
X11064235Y-55022572D01*
X11055970Y-55045671D01*
X11045480Y-55067850D01*
X11032868Y-55088893D01*
X11018253Y-55108599D01*
X11001777Y-55126777D01*
X10983599Y-55143253D01*
X10963893Y-55157868D01*
X10942850Y-55170480D01*
X10920671Y-55180970D01*
X10897572Y-55189235D01*
X10873773Y-55195196D01*
X10849505Y-55198796D01*
X10825001Y-55200000D01*
X10174999Y-55200000D01*
X10150495Y-55198796D01*
X10126227Y-55195196D01*
X10102428Y-55189235D01*
X10079329Y-55180970D01*
X10057150Y-55170480D01*
X10036107Y-55157868D01*
X10016401Y-55143253D01*
X9998223Y-55126777D01*
X9981747Y-55108599D01*
X9967132Y-55088893D01*
X9954520Y-55067850D01*
X9944030Y-55045671D01*
X9935765Y-55022572D01*
X9929804Y-54998773D01*
X9926204Y-54974505D01*
X9925000Y-54950001D01*
X9925000Y-54049999D01*
X9926204Y-54025495D01*
X9929804Y-54001227D01*
X9935765Y-53977428D01*
X9944030Y-53954329D01*
X9954520Y-53932150D01*
X9967132Y-53911107D01*
X9981747Y-53891401D01*
X9998223Y-53873223D01*
X10016401Y-53856747D01*
X10036107Y-53842132D01*
X10057150Y-53829520D01*
X10079329Y-53819030D01*
X10102428Y-53810765D01*
X10126227Y-53804804D01*
X10150495Y-53801204D01*
X10174999Y-53800000D01*
X10825001Y-53800000D01*
X10849505Y-53801204D01*
X10849505Y-53801204D01*
G37*
D19*
G04 #@! TD*
G04 #@! TO.P,RFBB1,1*
G04 #@! TO.N,/gnd.tb*
X10500000Y-54500000D03*
D10*
G04 #@! TO.N,Net-(RFBB1-Pad2)*
G04 #@! TO.C,RFBB1*
G36*
X8799505Y-53801204D02*
X8823773Y-53804804D01*
X8847572Y-53810765D01*
X8870671Y-53819030D01*
X8892850Y-53829520D01*
X8913893Y-53842132D01*
X8933599Y-53856747D01*
X8951777Y-53873223D01*
X8968253Y-53891401D01*
X8982868Y-53911107D01*
X8995480Y-53932150D01*
X9005970Y-53954329D01*
X9014235Y-53977428D01*
X9020196Y-54001227D01*
X9023796Y-54025495D01*
X9025000Y-54049999D01*
X9025000Y-54950001D01*
X9023796Y-54974505D01*
X9020196Y-54998773D01*
X9014235Y-55022572D01*
X9005970Y-55045671D01*
X8995480Y-55067850D01*
X8982868Y-55088893D01*
X8968253Y-55108599D01*
X8951777Y-55126777D01*
X8933599Y-55143253D01*
X8913893Y-55157868D01*
X8892850Y-55170480D01*
X8870671Y-55180970D01*
X8847572Y-55189235D01*
X8823773Y-55195196D01*
X8799505Y-55198796D01*
X8775001Y-55200000D01*
X8124999Y-55200000D01*
X8100495Y-55198796D01*
X8076227Y-55195196D01*
X8052428Y-55189235D01*
X8029329Y-55180970D01*
X8007150Y-55170480D01*
X7986107Y-55157868D01*
X7966401Y-55143253D01*
X7948223Y-55126777D01*
X7931747Y-55108599D01*
X7917132Y-55088893D01*
X7904520Y-55067850D01*
X7894030Y-55045671D01*
X7885765Y-55022572D01*
X7879804Y-54998773D01*
X7876204Y-54974505D01*
X7875000Y-54950001D01*
X7875000Y-54049999D01*
X7876204Y-54025495D01*
X7879804Y-54001227D01*
X7885765Y-53977428D01*
X7894030Y-53954329D01*
X7904520Y-53932150D01*
X7917132Y-53911107D01*
X7931747Y-53891401D01*
X7948223Y-53873223D01*
X7966401Y-53856747D01*
X7986107Y-53842132D01*
X8007150Y-53829520D01*
X8029329Y-53819030D01*
X8052428Y-53810765D01*
X8076227Y-53804804D01*
X8100495Y-53801204D01*
X8124999Y-53800000D01*
X8775001Y-53800000D01*
X8799505Y-53801204D01*
X8799505Y-53801204D01*
G37*
D19*
G04 #@! TD*
G04 #@! TO.P,RFBB1,2*
G04 #@! TO.N,Net-(RFBB1-Pad2)*
X8450000Y-54500000D03*
D10*
G04 #@! TO.N,/-6.3V.tb*
G04 #@! TO.C,RFBT1*
G36*
X3799505Y-53801204D02*
X3823773Y-53804804D01*
X3847572Y-53810765D01*
X3870671Y-53819030D01*
X3892850Y-53829520D01*
X3913893Y-53842132D01*
X3933599Y-53856747D01*
X3951777Y-53873223D01*
X3968253Y-53891401D01*
X3982868Y-53911107D01*
X3995480Y-53932150D01*
X4005970Y-53954329D01*
X4014235Y-53977428D01*
X4020196Y-54001227D01*
X4023796Y-54025495D01*
X4025000Y-54049999D01*
X4025000Y-54950001D01*
X4023796Y-54974505D01*
X4020196Y-54998773D01*
X4014235Y-55022572D01*
X4005970Y-55045671D01*
X3995480Y-55067850D01*
X3982868Y-55088893D01*
X3968253Y-55108599D01*
X3951777Y-55126777D01*
X3933599Y-55143253D01*
X3913893Y-55157868D01*
X3892850Y-55170480D01*
X3870671Y-55180970D01*
X3847572Y-55189235D01*
X3823773Y-55195196D01*
X3799505Y-55198796D01*
X3775001Y-55200000D01*
X3124999Y-55200000D01*
X3100495Y-55198796D01*
X3076227Y-55195196D01*
X3052428Y-55189235D01*
X3029329Y-55180970D01*
X3007150Y-55170480D01*
X2986107Y-55157868D01*
X2966401Y-55143253D01*
X2948223Y-55126777D01*
X2931747Y-55108599D01*
X2917132Y-55088893D01*
X2904520Y-55067850D01*
X2894030Y-55045671D01*
X2885765Y-55022572D01*
X2879804Y-54998773D01*
X2876204Y-54974505D01*
X2875000Y-54950001D01*
X2875000Y-54049999D01*
X2876204Y-54025495D01*
X2879804Y-54001227D01*
X2885765Y-53977428D01*
X2894030Y-53954329D01*
X2904520Y-53932150D01*
X2917132Y-53911107D01*
X2931747Y-53891401D01*
X2948223Y-53873223D01*
X2966401Y-53856747D01*
X2986107Y-53842132D01*
X3007150Y-53829520D01*
X3029329Y-53819030D01*
X3052428Y-53810765D01*
X3076227Y-53804804D01*
X3100495Y-53801204D01*
X3124999Y-53800000D01*
X3775001Y-53800000D01*
X3799505Y-53801204D01*
X3799505Y-53801204D01*
G37*
D19*
G04 #@! TD*
G04 #@! TO.P,RFBT1,2*
G04 #@! TO.N,/-6.3V.tb*
X3450000Y-54500000D03*
D10*
G04 #@! TO.N,Net-(RFBB1-Pad2)*
G04 #@! TO.C,RFBT1*
G36*
X5849505Y-53801204D02*
X5873773Y-53804804D01*
X5897572Y-53810765D01*
X5920671Y-53819030D01*
X5942850Y-53829520D01*
X5963893Y-53842132D01*
X5983599Y-53856747D01*
X6001777Y-53873223D01*
X6018253Y-53891401D01*
X6032868Y-53911107D01*
X6045480Y-53932150D01*
X6055970Y-53954329D01*
X6064235Y-53977428D01*
X6070196Y-54001227D01*
X6073796Y-54025495D01*
X6075000Y-54049999D01*
X6075000Y-54950001D01*
X6073796Y-54974505D01*
X6070196Y-54998773D01*
X6064235Y-55022572D01*
X6055970Y-55045671D01*
X6045480Y-55067850D01*
X6032868Y-55088893D01*
X6018253Y-55108599D01*
X6001777Y-55126777D01*
X5983599Y-55143253D01*
X5963893Y-55157868D01*
X5942850Y-55170480D01*
X5920671Y-55180970D01*
X5897572Y-55189235D01*
X5873773Y-55195196D01*
X5849505Y-55198796D01*
X5825001Y-55200000D01*
X5174999Y-55200000D01*
X5150495Y-55198796D01*
X5126227Y-55195196D01*
X5102428Y-55189235D01*
X5079329Y-55180970D01*
X5057150Y-55170480D01*
X5036107Y-55157868D01*
X5016401Y-55143253D01*
X4998223Y-55126777D01*
X4981747Y-55108599D01*
X4967132Y-55088893D01*
X4954520Y-55067850D01*
X4944030Y-55045671D01*
X4935765Y-55022572D01*
X4929804Y-54998773D01*
X4926204Y-54974505D01*
X4925000Y-54950001D01*
X4925000Y-54049999D01*
X4926204Y-54025495D01*
X4929804Y-54001227D01*
X4935765Y-53977428D01*
X4944030Y-53954329D01*
X4954520Y-53932150D01*
X4967132Y-53911107D01*
X4981747Y-53891401D01*
X4998223Y-53873223D01*
X5016401Y-53856747D01*
X5036107Y-53842132D01*
X5057150Y-53829520D01*
X5079329Y-53819030D01*
X5102428Y-53810765D01*
X5126227Y-53804804D01*
X5150495Y-53801204D01*
X5174999Y-53800000D01*
X5825001Y-53800000D01*
X5849505Y-53801204D01*
X5849505Y-53801204D01*
G37*
D19*
G04 #@! TD*
G04 #@! TO.P,RFBT1,1*
G04 #@! TO.N,Net-(RFBB1-Pad2)*
X5500000Y-54500000D03*
D20*
G04 #@! TO.N,/-12V.tb*
X27004400Y-36893500D03*
X6000000Y-45500000D03*
G04 #@! TO.N,/gnd.tb*
X34500000Y-34750000D03*
X30750000Y-36750000D03*
X10500000Y-57250000D03*
X36750000Y-1250000D03*
G04 #@! TD*
D21*
G04 #@! TO.N,Net-(D_TUBE1-Pad2)*
X29982900Y-30365000D02*
X29525000Y-30365000D01*
X32750000Y-37250000D02*
X32750000Y-33132100D01*
X32750000Y-33132100D02*
X29982900Y-30365000D01*
X20290000Y-14000000D02*
X20290000Y-16368000D01*
X20290000Y-16368000D02*
X30826000Y-26904000D01*
X30826000Y-26904000D02*
X30826000Y-29521900D01*
X30826000Y-29521900D02*
X29982900Y-30365000D01*
G04 #@! TO.N,Net-(J5-Pad2)*
X21500000Y-47250000D02*
X21500000Y-55210000D01*
G04 #@! TO.N,Net-(D_TUBE1-Pad1)*
X17750000Y-14000000D02*
X17750000Y-17320000D01*
X17750000Y-17320000D02*
X29525000Y-29095000D01*
G04 #@! TO.N,Net-(J8-Pad2)*
X18960000Y-47250000D02*
X18960000Y-46074700D01*
X18960000Y-46074700D02*
X17784700Y-44899400D01*
X17784700Y-44899400D02*
X17784700Y-32123200D01*
X17784700Y-32123200D02*
X17062100Y-31400600D01*
X17062100Y-31400600D02*
X17062100Y-25842900D01*
X17062100Y-25842900D02*
X17299600Y-25605400D01*
X17299600Y-25605400D02*
X17299600Y-19420400D01*
X17299600Y-19420400D02*
X15756400Y-17877200D01*
X15756400Y-17877200D02*
X15756400Y-4015300D01*
G04 #@! TO.N,Net-(U6-Pad6)*
X34475000Y-31635000D02*
X34475000Y-30365000D01*
G04 #@! TO.N,/tube.4.tb*
X21500000Y-57750000D02*
X21500000Y-56574700D01*
X18960000Y-37250000D02*
X18960000Y-38425300D01*
X18960000Y-38425300D02*
X20324700Y-39790000D01*
X20324700Y-39790000D02*
X20324700Y-55766800D01*
X20324700Y-55766800D02*
X21132600Y-56574700D01*
X21132600Y-56574700D02*
X21500000Y-56574700D01*
G04 #@! TO.N,/-12V.tb*
X27004400Y-36893500D02*
X25280000Y-38617900D01*
X25280000Y-38617900D02*
X25280000Y-64000000D01*
X27004400Y-36893500D02*
X27004400Y-35425600D01*
X27004400Y-35425600D02*
X29525000Y-32905000D01*
X6000000Y-50000000D02*
X6000000Y-45500000D01*
G04 #@! TO.N,/-6.3V.tb*
X3450000Y-54500000D02*
X3460000Y-54490000D01*
X3460000Y-54490000D02*
X3460000Y-50000000D01*
G04 #@! TO.N,/tube.6.tb*
X15120000Y-64000000D02*
X15120000Y-62824700D01*
X15120000Y-62824700D02*
X12234000Y-59938700D01*
X12234000Y-59938700D02*
X12234000Y-27902600D01*
X12234000Y-27902600D02*
X6970400Y-22639000D01*
X6970400Y-22639000D02*
X6970400Y-11366100D01*
X6970400Y-11366100D02*
X10506200Y-7830300D01*
G04 #@! TO.N,/tube.7.tb*
X17660000Y-64000000D02*
X17660000Y-62824700D01*
X17660000Y-62824700D02*
X12774300Y-57939000D01*
X12774300Y-57939000D02*
X12774300Y-25571900D01*
X12774300Y-25571900D02*
X8502200Y-21299800D01*
X8502200Y-21299800D02*
X8502200Y-14000000D01*
G04 #@! TO.N,/tube.8.tb*
X20200000Y-64000000D02*
X20200000Y-62824700D01*
X20200000Y-62824700D02*
X14232100Y-56856800D01*
X14232100Y-56856800D02*
X14232100Y-23895600D01*
X14232100Y-23895600D02*
X10506200Y-20169700D01*
G04 #@! TO.N,/+12V.tb*
X27820000Y-64000000D02*
X28995300Y-64000000D01*
X34475000Y-29095000D02*
X34852500Y-29095000D01*
X34852500Y-29095000D02*
X35779700Y-30022200D01*
X35779700Y-30022200D02*
X35779700Y-60287100D01*
X35779700Y-60287100D02*
X30879600Y-65187200D01*
X30879600Y-65187200D02*
X29817200Y-65187200D01*
X29817200Y-65187200D02*
X28995300Y-64365300D01*
X28995300Y-64365300D02*
X28995300Y-64000000D01*
G04 #@! TO.N,/audio.out.tb*
X30360000Y-64000000D02*
X30360000Y-62824700D01*
X32725000Y-44250000D02*
X32725000Y-60459700D01*
X32725000Y-60459700D02*
X30360000Y-62824700D01*
G04 #@! TO.N,Net-(R102-Pad2)*
X29525000Y-31635000D02*
X29902300Y-31635000D01*
X29902300Y-31635000D02*
X31503300Y-33236000D01*
X31503300Y-33236000D02*
X31503300Y-37607100D01*
X31503300Y-37607100D02*
X34646200Y-40750000D01*
X34646200Y-40750000D02*
X34750000Y-40750000D01*
X34775000Y-44250000D02*
X34750000Y-44225000D01*
X34750000Y-44225000D02*
X34750000Y-40750000D01*
G04 #@! TO.N,Net-(RFBB1-Pad2)*
X5500000Y-54500000D02*
X8450000Y-54500000D01*
X8540000Y-50000000D02*
X8540000Y-51325300D01*
X8450000Y-54500000D02*
X8450000Y-51415300D01*
X8450000Y-51415300D02*
X8540000Y-51325300D01*
G04 #@! TD*
D22*
G04 #@! TO.N,/gnd.tb*
G36*
X5240000Y-48551048D02*
X4855477Y-48807977D01*
X4730000Y-48995767D01*
X4604523Y-48807977D01*
X4079411Y-48457109D01*
X3460000Y-48333900D01*
X2840590Y-48457109D01*
X2315477Y-48807977D01*
X1964609Y-49333089D01*
X1872500Y-49796150D01*
X1872500Y-50203849D01*
X1964609Y-50666910D01*
X2315477Y-51192023D01*
X2700001Y-51448953D01*
X2700000Y-53275372D01*
X2490414Y-53415414D01*
X2295873Y-53706564D01*
X2227560Y-54049999D01*
X2227560Y-54950001D01*
X2295873Y-55293436D01*
X2490414Y-55584586D01*
X2781564Y-55779127D01*
X3124999Y-55847440D01*
X3775001Y-55847440D01*
X4118436Y-55779127D01*
X4409586Y-55584586D01*
X4475000Y-55486687D01*
X4540414Y-55584586D01*
X4831564Y-55779127D01*
X5174999Y-55847440D01*
X5825001Y-55847440D01*
X6168436Y-55779127D01*
X6459586Y-55584586D01*
X6654127Y-55293436D01*
X6660778Y-55260000D01*
X7289222Y-55260000D01*
X7295873Y-55293436D01*
X7490414Y-55584586D01*
X7781564Y-55779127D01*
X8124999Y-55847440D01*
X8775001Y-55847440D01*
X9118436Y-55779127D01*
X9409586Y-55584586D01*
X9410377Y-55583403D01*
X9565302Y-55738327D01*
X9798691Y-55835000D01*
X10214250Y-55835000D01*
X10373000Y-55676250D01*
X10373000Y-54627000D01*
X10353000Y-54627000D01*
X10353000Y-54373000D01*
X10373000Y-54373000D01*
X10373000Y-53323750D01*
X10214250Y-53165000D01*
X9798691Y-53165000D01*
X9565302Y-53261673D01*
X9410377Y-53416597D01*
X9409586Y-53415414D01*
X9210000Y-53282054D01*
X9210000Y-51690537D01*
X9238797Y-51647440D01*
X9492500Y-51647440D01*
X9740265Y-51598157D01*
X9950309Y-51457809D01*
X10090657Y-51247765D01*
X10139940Y-51000000D01*
X10139940Y-49000000D01*
X10090657Y-48752235D01*
X9950309Y-48542191D01*
X9740265Y-48401843D01*
X9492500Y-48352560D01*
X7587500Y-48352560D01*
X7339735Y-48401843D01*
X7129691Y-48542191D01*
X7011491Y-48719088D01*
X6760000Y-48551047D01*
X6760000Y-47635000D01*
X11474000Y-47635000D01*
X11474000Y-53300975D01*
X11434698Y-53261673D01*
X11201309Y-53165000D01*
X10785750Y-53165000D01*
X10627000Y-53323750D01*
X10627000Y-54373000D01*
X10647000Y-54373000D01*
X10647000Y-54627000D01*
X10627000Y-54627000D01*
X10627000Y-55676250D01*
X10785750Y-55835000D01*
X11201309Y-55835000D01*
X11434698Y-55738327D01*
X11474000Y-55699025D01*
X11474000Y-59863853D01*
X11459112Y-59938700D01*
X11474000Y-60013547D01*
X11474000Y-60013551D01*
X11518096Y-60235236D01*
X11686071Y-60486629D01*
X11749530Y-60529031D01*
X14109619Y-62889121D01*
X14049375Y-62929375D01*
X13850000Y-63227761D01*
X13650625Y-62929375D01*
X13159418Y-62601161D01*
X12726256Y-62515000D01*
X12433744Y-62515000D01*
X12000582Y-62601161D01*
X11509375Y-62929375D01*
X11310000Y-63227761D01*
X11110625Y-62929375D01*
X10619418Y-62601161D01*
X10186256Y-62515000D01*
X9893744Y-62515000D01*
X9460582Y-62601161D01*
X8969375Y-62929375D01*
X8957184Y-62947619D01*
X8948157Y-62902235D01*
X8807809Y-62692191D01*
X8597765Y-62551843D01*
X8350000Y-62502560D01*
X6650000Y-62502560D01*
X6402235Y-62551843D01*
X6192191Y-62692191D01*
X6051843Y-62902235D01*
X6002560Y-63150000D01*
X6002560Y-64850000D01*
X6051843Y-65097765D01*
X6163587Y-65265000D01*
X735000Y-65265000D01*
X735000Y-47635000D01*
X5240001Y-47635000D01*
X5240000Y-48551048D01*
X5240000Y-48551048D01*
G37*
X5240000Y-48551048D02*
X4855477Y-48807977D01*
X4730000Y-48995767D01*
X4604523Y-48807977D01*
X4079411Y-48457109D01*
X3460000Y-48333900D01*
X2840590Y-48457109D01*
X2315477Y-48807977D01*
X1964609Y-49333089D01*
X1872500Y-49796150D01*
X1872500Y-50203849D01*
X1964609Y-50666910D01*
X2315477Y-51192023D01*
X2700001Y-51448953D01*
X2700000Y-53275372D01*
X2490414Y-53415414D01*
X2295873Y-53706564D01*
X2227560Y-54049999D01*
X2227560Y-54950001D01*
X2295873Y-55293436D01*
X2490414Y-55584586D01*
X2781564Y-55779127D01*
X3124999Y-55847440D01*
X3775001Y-55847440D01*
X4118436Y-55779127D01*
X4409586Y-55584586D01*
X4475000Y-55486687D01*
X4540414Y-55584586D01*
X4831564Y-55779127D01*
X5174999Y-55847440D01*
X5825001Y-55847440D01*
X6168436Y-55779127D01*
X6459586Y-55584586D01*
X6654127Y-55293436D01*
X6660778Y-55260000D01*
X7289222Y-55260000D01*
X7295873Y-55293436D01*
X7490414Y-55584586D01*
X7781564Y-55779127D01*
X8124999Y-55847440D01*
X8775001Y-55847440D01*
X9118436Y-55779127D01*
X9409586Y-55584586D01*
X9410377Y-55583403D01*
X9565302Y-55738327D01*
X9798691Y-55835000D01*
X10214250Y-55835000D01*
X10373000Y-55676250D01*
X10373000Y-54627000D01*
X10353000Y-54627000D01*
X10353000Y-54373000D01*
X10373000Y-54373000D01*
X10373000Y-53323750D01*
X10214250Y-53165000D01*
X9798691Y-53165000D01*
X9565302Y-53261673D01*
X9410377Y-53416597D01*
X9409586Y-53415414D01*
X9210000Y-53282054D01*
X9210000Y-51690537D01*
X9238797Y-51647440D01*
X9492500Y-51647440D01*
X9740265Y-51598157D01*
X9950309Y-51457809D01*
X10090657Y-51247765D01*
X10139940Y-51000000D01*
X10139940Y-49000000D01*
X10090657Y-48752235D01*
X9950309Y-48542191D01*
X9740265Y-48401843D01*
X9492500Y-48352560D01*
X7587500Y-48352560D01*
X7339735Y-48401843D01*
X7129691Y-48542191D01*
X7011491Y-48719088D01*
X6760000Y-48551047D01*
X6760000Y-47635000D01*
X11474000Y-47635000D01*
X11474000Y-53300975D01*
X11434698Y-53261673D01*
X11201309Y-53165000D01*
X10785750Y-53165000D01*
X10627000Y-53323750D01*
X10627000Y-54373000D01*
X10647000Y-54373000D01*
X10647000Y-54627000D01*
X10627000Y-54627000D01*
X10627000Y-55676250D01*
X10785750Y-55835000D01*
X11201309Y-55835000D01*
X11434698Y-55738327D01*
X11474000Y-55699025D01*
X11474000Y-59863853D01*
X11459112Y-59938700D01*
X11474000Y-60013547D01*
X11474000Y-60013551D01*
X11518096Y-60235236D01*
X11686071Y-60486629D01*
X11749530Y-60529031D01*
X14109619Y-62889121D01*
X14049375Y-62929375D01*
X13850000Y-63227761D01*
X13650625Y-62929375D01*
X13159418Y-62601161D01*
X12726256Y-62515000D01*
X12433744Y-62515000D01*
X12000582Y-62601161D01*
X11509375Y-62929375D01*
X11310000Y-63227761D01*
X11110625Y-62929375D01*
X10619418Y-62601161D01*
X10186256Y-62515000D01*
X9893744Y-62515000D01*
X9460582Y-62601161D01*
X8969375Y-62929375D01*
X8957184Y-62947619D01*
X8948157Y-62902235D01*
X8807809Y-62692191D01*
X8597765Y-62551843D01*
X8350000Y-62502560D01*
X6650000Y-62502560D01*
X6402235Y-62551843D01*
X6192191Y-62692191D01*
X6051843Y-62902235D01*
X6002560Y-63150000D01*
X6002560Y-64850000D01*
X6051843Y-65097765D01*
X6163587Y-65265000D01*
X735000Y-65265000D01*
X735000Y-47635000D01*
X5240001Y-47635000D01*
X5240000Y-48551048D01*
G36*
X37265001Y-65265000D02*
X31876601Y-65265000D01*
X36264173Y-60877429D01*
X36327629Y-60835029D01*
X36495604Y-60583637D01*
X36539700Y-60361952D01*
X36539700Y-60361947D01*
X36554588Y-60287100D01*
X36539700Y-60212253D01*
X36539700Y-30097048D01*
X36554588Y-30022200D01*
X36539700Y-29947352D01*
X36539700Y-29947348D01*
X36495604Y-29725663D01*
X36495604Y-29725662D01*
X36370029Y-29537727D01*
X36327629Y-29474271D01*
X36264173Y-29431871D01*
X36094099Y-29261797D01*
X36097440Y-29245000D01*
X36097440Y-28945000D01*
X36036738Y-28639833D01*
X35863875Y-28381125D01*
X35605167Y-28208262D01*
X35300000Y-28147560D01*
X33650000Y-28147560D01*
X33344833Y-28208262D01*
X33086125Y-28381125D01*
X32913262Y-28639833D01*
X32852560Y-28945000D01*
X32852560Y-29245000D01*
X32913262Y-29550167D01*
X33033422Y-29730000D01*
X32913262Y-29909833D01*
X32852560Y-30215000D01*
X32852560Y-30515000D01*
X32913262Y-30820167D01*
X33033422Y-31000000D01*
X32913262Y-31179833D01*
X32852560Y-31485000D01*
X32852560Y-31785000D01*
X32913262Y-32090167D01*
X32994791Y-32212183D01*
X32961673Y-32245301D01*
X32954740Y-32262038D01*
X31147440Y-30454739D01*
X31147440Y-30275262D01*
X31310475Y-30112227D01*
X31373929Y-30069829D01*
X31416327Y-30006376D01*
X31416329Y-30006374D01*
X31541903Y-29818438D01*
X31541904Y-29818437D01*
X31586000Y-29596752D01*
X31586000Y-29596748D01*
X31600888Y-29521901D01*
X31586000Y-29447054D01*
X31586000Y-26978846D01*
X31600888Y-26903999D01*
X31586000Y-26829152D01*
X31586000Y-26829148D01*
X31541904Y-26607463D01*
X31373929Y-26356071D01*
X31310473Y-26313671D01*
X26909382Y-21912580D01*
X27128979Y-22003540D01*
X27858541Y-22003540D01*
X28532570Y-21724349D01*
X29048449Y-21208470D01*
X29327640Y-20534441D01*
X29327640Y-19804879D01*
X29048449Y-19130850D01*
X28532570Y-18614971D01*
X27858541Y-18335780D01*
X27128979Y-18335780D01*
X26454950Y-18614971D01*
X25939071Y-19130850D01*
X25659880Y-19804879D01*
X25659880Y-20534441D01*
X25750840Y-20754038D01*
X21050000Y-16053199D01*
X21050000Y-15346669D01*
X21159507Y-15301310D01*
X21591310Y-14869507D01*
X21825000Y-14305330D01*
X21825000Y-13694670D01*
X21800375Y-13635219D01*
X27663940Y-13635219D01*
X27663940Y-14364781D01*
X27943131Y-15038810D01*
X28459010Y-15554689D01*
X29133039Y-15833880D01*
X29862601Y-15833880D01*
X30536630Y-15554689D01*
X31052509Y-15038810D01*
X31331700Y-14364781D01*
X31331700Y-13635219D01*
X31052509Y-12961190D01*
X30536630Y-12445311D01*
X29862601Y-12166120D01*
X29133039Y-12166120D01*
X28459010Y-12445311D01*
X27943131Y-12961190D01*
X27663940Y-13635219D01*
X21800375Y-13635219D01*
X21591310Y-13130493D01*
X21159507Y-12698690D01*
X20595330Y-12465000D01*
X19984670Y-12465000D01*
X19420493Y-12698690D01*
X19251275Y-12867908D01*
X19248157Y-12852235D01*
X19107809Y-12642191D01*
X18897765Y-12501843D01*
X18650000Y-12452560D01*
X16850000Y-12452560D01*
X16602235Y-12501843D01*
X16516400Y-12559197D01*
X16516400Y-7465559D01*
X25659880Y-7465559D01*
X25659880Y-8195121D01*
X25939071Y-8869150D01*
X26454950Y-9385029D01*
X27128979Y-9664220D01*
X27858541Y-9664220D01*
X28532570Y-9385029D01*
X29048449Y-8869150D01*
X29327640Y-8195121D01*
X29327640Y-7465559D01*
X29048449Y-6791530D01*
X28532570Y-6275651D01*
X27858541Y-5996460D01*
X27128979Y-5996460D01*
X26454950Y-6275651D01*
X25939071Y-6791530D01*
X25659880Y-7465559D01*
X16516400Y-7465559D01*
X16516400Y-5685444D01*
X16795230Y-5569949D01*
X17311109Y-5054070D01*
X17590300Y-4380041D01*
X17590300Y-3650479D01*
X20409700Y-3650479D01*
X20409700Y-4380041D01*
X20688891Y-5054070D01*
X21204770Y-5569949D01*
X21878799Y-5849140D01*
X22608361Y-5849140D01*
X23282390Y-5569949D01*
X23798269Y-5054070D01*
X24077460Y-4380041D01*
X24077460Y-3650479D01*
X23830984Y-3055431D01*
X28265000Y-3055431D01*
X28265000Y-3944569D01*
X28605259Y-4766026D01*
X29233974Y-5394741D01*
X30055431Y-5735000D01*
X30944569Y-5735000D01*
X31766026Y-5394741D01*
X32394741Y-4766026D01*
X32735000Y-3944569D01*
X32735000Y-3055431D01*
X32394741Y-2233974D01*
X31766026Y-1605259D01*
X30944569Y-1265000D01*
X30055431Y-1265000D01*
X29233974Y-1605259D01*
X28605259Y-2233974D01*
X28265000Y-3055431D01*
X23830984Y-3055431D01*
X23798269Y-2976450D01*
X23282390Y-2460571D01*
X22608361Y-2181380D01*
X21878799Y-2181380D01*
X21204770Y-2460571D01*
X20688891Y-2976450D01*
X20409700Y-3650479D01*
X17590300Y-3650479D01*
X17311109Y-2976450D01*
X16795230Y-2460571D01*
X16121201Y-2181380D01*
X15391639Y-2181380D01*
X14717610Y-2460571D01*
X14201731Y-2976450D01*
X13922540Y-3650479D01*
X13922540Y-4380041D01*
X14201731Y-5054070D01*
X14717610Y-5569949D01*
X14996401Y-5685428D01*
X14996400Y-17802353D01*
X14981512Y-17877200D01*
X14996400Y-17952047D01*
X14996400Y-17952051D01*
X15040496Y-18173736D01*
X15208471Y-18425129D01*
X15271930Y-18467531D01*
X16539601Y-19735204D01*
X16539601Y-22324166D01*
X16121201Y-22150860D01*
X15391639Y-22150860D01*
X14717610Y-22430051D01*
X14279482Y-22868179D01*
X12224610Y-20813308D01*
X12340120Y-20534441D01*
X12340120Y-19804879D01*
X12060929Y-19130850D01*
X11545050Y-18614971D01*
X10871021Y-18335780D01*
X10141459Y-18335780D01*
X9467430Y-18614971D01*
X9262200Y-18820201D01*
X9262200Y-15670167D01*
X9540990Y-15554689D01*
X10056869Y-15038810D01*
X10336060Y-14364781D01*
X10336060Y-13635219D01*
X10056869Y-12961190D01*
X9540990Y-12445311D01*
X8866961Y-12166120D01*
X8137399Y-12166120D01*
X7730400Y-12334704D01*
X7730400Y-11680901D01*
X9862592Y-9548710D01*
X10141459Y-9664220D01*
X10871021Y-9664220D01*
X11545050Y-9385029D01*
X12060929Y-8869150D01*
X12340120Y-8195121D01*
X12340120Y-7465559D01*
X12060929Y-6791530D01*
X11545050Y-6275651D01*
X10871021Y-5996460D01*
X10141459Y-5996460D01*
X9467430Y-6275651D01*
X8951551Y-6791530D01*
X8672360Y-7465559D01*
X8672360Y-8195121D01*
X8787823Y-8473875D01*
X6485928Y-10775771D01*
X6422472Y-10818171D01*
X6380072Y-10881627D01*
X6380071Y-10881628D01*
X6254497Y-11069563D01*
X6195512Y-11366100D01*
X6210401Y-11440952D01*
X6210400Y-22564153D01*
X6195512Y-22639000D01*
X6210400Y-22713847D01*
X6210400Y-22713851D01*
X6254496Y-22935536D01*
X6422471Y-23186929D01*
X6485930Y-23229331D01*
X9621598Y-26365000D01*
X735000Y-26365000D01*
X735000Y-3055431D01*
X5265000Y-3055431D01*
X5265000Y-3944569D01*
X5605259Y-4766026D01*
X6233974Y-5394741D01*
X7055431Y-5735000D01*
X7944569Y-5735000D01*
X8766026Y-5394741D01*
X9394741Y-4766026D01*
X9735000Y-3944569D01*
X9735000Y-3055431D01*
X9394741Y-2233974D01*
X8766026Y-1605259D01*
X7944569Y-1265000D01*
X7055431Y-1265000D01*
X6233974Y-1605259D01*
X5605259Y-2233974D01*
X5265000Y-3055431D01*
X735000Y-3055431D01*
X735000Y-735000D01*
X37265000Y-735000D01*
X37265001Y-65265000D01*
X37265001Y-65265000D01*
G37*
X37265001Y-65265000D02*
X31876601Y-65265000D01*
X36264173Y-60877429D01*
X36327629Y-60835029D01*
X36495604Y-60583637D01*
X36539700Y-60361952D01*
X36539700Y-60361947D01*
X36554588Y-60287100D01*
X36539700Y-60212253D01*
X36539700Y-30097048D01*
X36554588Y-30022200D01*
X36539700Y-29947352D01*
X36539700Y-29947348D01*
X36495604Y-29725663D01*
X36495604Y-29725662D01*
X36370029Y-29537727D01*
X36327629Y-29474271D01*
X36264173Y-29431871D01*
X36094099Y-29261797D01*
X36097440Y-29245000D01*
X36097440Y-28945000D01*
X36036738Y-28639833D01*
X35863875Y-28381125D01*
X35605167Y-28208262D01*
X35300000Y-28147560D01*
X33650000Y-28147560D01*
X33344833Y-28208262D01*
X33086125Y-28381125D01*
X32913262Y-28639833D01*
X32852560Y-28945000D01*
X32852560Y-29245000D01*
X32913262Y-29550167D01*
X33033422Y-29730000D01*
X32913262Y-29909833D01*
X32852560Y-30215000D01*
X32852560Y-30515000D01*
X32913262Y-30820167D01*
X33033422Y-31000000D01*
X32913262Y-31179833D01*
X32852560Y-31485000D01*
X32852560Y-31785000D01*
X32913262Y-32090167D01*
X32994791Y-32212183D01*
X32961673Y-32245301D01*
X32954740Y-32262038D01*
X31147440Y-30454739D01*
X31147440Y-30275262D01*
X31310475Y-30112227D01*
X31373929Y-30069829D01*
X31416327Y-30006376D01*
X31416329Y-30006374D01*
X31541903Y-29818438D01*
X31541904Y-29818437D01*
X31586000Y-29596752D01*
X31586000Y-29596748D01*
X31600888Y-29521901D01*
X31586000Y-29447054D01*
X31586000Y-26978846D01*
X31600888Y-26903999D01*
X31586000Y-26829152D01*
X31586000Y-26829148D01*
X31541904Y-26607463D01*
X31373929Y-26356071D01*
X31310473Y-26313671D01*
X26909382Y-21912580D01*
X27128979Y-22003540D01*
X27858541Y-22003540D01*
X28532570Y-21724349D01*
X29048449Y-21208470D01*
X29327640Y-20534441D01*
X29327640Y-19804879D01*
X29048449Y-19130850D01*
X28532570Y-18614971D01*
X27858541Y-18335780D01*
X27128979Y-18335780D01*
X26454950Y-18614971D01*
X25939071Y-19130850D01*
X25659880Y-19804879D01*
X25659880Y-20534441D01*
X25750840Y-20754038D01*
X21050000Y-16053199D01*
X21050000Y-15346669D01*
X21159507Y-15301310D01*
X21591310Y-14869507D01*
X21825000Y-14305330D01*
X21825000Y-13694670D01*
X21800375Y-13635219D01*
X27663940Y-13635219D01*
X27663940Y-14364781D01*
X27943131Y-15038810D01*
X28459010Y-15554689D01*
X29133039Y-15833880D01*
X29862601Y-15833880D01*
X30536630Y-15554689D01*
X31052509Y-15038810D01*
X31331700Y-14364781D01*
X31331700Y-13635219D01*
X31052509Y-12961190D01*
X30536630Y-12445311D01*
X29862601Y-12166120D01*
X29133039Y-12166120D01*
X28459010Y-12445311D01*
X27943131Y-12961190D01*
X27663940Y-13635219D01*
X21800375Y-13635219D01*
X21591310Y-13130493D01*
X21159507Y-12698690D01*
X20595330Y-12465000D01*
X19984670Y-12465000D01*
X19420493Y-12698690D01*
X19251275Y-12867908D01*
X19248157Y-12852235D01*
X19107809Y-12642191D01*
X18897765Y-12501843D01*
X18650000Y-12452560D01*
X16850000Y-12452560D01*
X16602235Y-12501843D01*
X16516400Y-12559197D01*
X16516400Y-7465559D01*
X25659880Y-7465559D01*
X25659880Y-8195121D01*
X25939071Y-8869150D01*
X26454950Y-9385029D01*
X27128979Y-9664220D01*
X27858541Y-9664220D01*
X28532570Y-9385029D01*
X29048449Y-8869150D01*
X29327640Y-8195121D01*
X29327640Y-7465559D01*
X29048449Y-6791530D01*
X28532570Y-6275651D01*
X27858541Y-5996460D01*
X27128979Y-5996460D01*
X26454950Y-6275651D01*
X25939071Y-6791530D01*
X25659880Y-7465559D01*
X16516400Y-7465559D01*
X16516400Y-5685444D01*
X16795230Y-5569949D01*
X17311109Y-5054070D01*
X17590300Y-4380041D01*
X17590300Y-3650479D01*
X20409700Y-3650479D01*
X20409700Y-4380041D01*
X20688891Y-5054070D01*
X21204770Y-5569949D01*
X21878799Y-5849140D01*
X22608361Y-5849140D01*
X23282390Y-5569949D01*
X23798269Y-5054070D01*
X24077460Y-4380041D01*
X24077460Y-3650479D01*
X23830984Y-3055431D01*
X28265000Y-3055431D01*
X28265000Y-3944569D01*
X28605259Y-4766026D01*
X29233974Y-5394741D01*
X30055431Y-5735000D01*
X30944569Y-5735000D01*
X31766026Y-5394741D01*
X32394741Y-4766026D01*
X32735000Y-3944569D01*
X32735000Y-3055431D01*
X32394741Y-2233974D01*
X31766026Y-1605259D01*
X30944569Y-1265000D01*
X30055431Y-1265000D01*
X29233974Y-1605259D01*
X28605259Y-2233974D01*
X28265000Y-3055431D01*
X23830984Y-3055431D01*
X23798269Y-2976450D01*
X23282390Y-2460571D01*
X22608361Y-2181380D01*
X21878799Y-2181380D01*
X21204770Y-2460571D01*
X20688891Y-2976450D01*
X20409700Y-3650479D01*
X17590300Y-3650479D01*
X17311109Y-2976450D01*
X16795230Y-2460571D01*
X16121201Y-2181380D01*
X15391639Y-2181380D01*
X14717610Y-2460571D01*
X14201731Y-2976450D01*
X13922540Y-3650479D01*
X13922540Y-4380041D01*
X14201731Y-5054070D01*
X14717610Y-5569949D01*
X14996401Y-5685428D01*
X14996400Y-17802353D01*
X14981512Y-17877200D01*
X14996400Y-17952047D01*
X14996400Y-17952051D01*
X15040496Y-18173736D01*
X15208471Y-18425129D01*
X15271930Y-18467531D01*
X16539601Y-19735204D01*
X16539601Y-22324166D01*
X16121201Y-22150860D01*
X15391639Y-22150860D01*
X14717610Y-22430051D01*
X14279482Y-22868179D01*
X12224610Y-20813308D01*
X12340120Y-20534441D01*
X12340120Y-19804879D01*
X12060929Y-19130850D01*
X11545050Y-18614971D01*
X10871021Y-18335780D01*
X10141459Y-18335780D01*
X9467430Y-18614971D01*
X9262200Y-18820201D01*
X9262200Y-15670167D01*
X9540990Y-15554689D01*
X10056869Y-15038810D01*
X10336060Y-14364781D01*
X10336060Y-13635219D01*
X10056869Y-12961190D01*
X9540990Y-12445311D01*
X8866961Y-12166120D01*
X8137399Y-12166120D01*
X7730400Y-12334704D01*
X7730400Y-11680901D01*
X9862592Y-9548710D01*
X10141459Y-9664220D01*
X10871021Y-9664220D01*
X11545050Y-9385029D01*
X12060929Y-8869150D01*
X12340120Y-8195121D01*
X12340120Y-7465559D01*
X12060929Y-6791530D01*
X11545050Y-6275651D01*
X10871021Y-5996460D01*
X10141459Y-5996460D01*
X9467430Y-6275651D01*
X8951551Y-6791530D01*
X8672360Y-7465559D01*
X8672360Y-8195121D01*
X8787823Y-8473875D01*
X6485928Y-10775771D01*
X6422472Y-10818171D01*
X6380072Y-10881627D01*
X6380071Y-10881628D01*
X6254497Y-11069563D01*
X6195512Y-11366100D01*
X6210401Y-11440952D01*
X6210400Y-22564153D01*
X6195512Y-22639000D01*
X6210400Y-22713847D01*
X6210400Y-22713851D01*
X6254496Y-22935536D01*
X6422471Y-23186929D01*
X6485930Y-23229331D01*
X9621598Y-26365000D01*
X735000Y-26365000D01*
X735000Y-3055431D01*
X5265000Y-3055431D01*
X5265000Y-3944569D01*
X5605259Y-4766026D01*
X6233974Y-5394741D01*
X7055431Y-5735000D01*
X7944569Y-5735000D01*
X8766026Y-5394741D01*
X9394741Y-4766026D01*
X9735000Y-3944569D01*
X9735000Y-3055431D01*
X9394741Y-2233974D01*
X8766026Y-1605259D01*
X7944569Y-1265000D01*
X7055431Y-1265000D01*
X6233974Y-1605259D01*
X5605259Y-2233974D01*
X5265000Y-3055431D01*
X735000Y-3055431D01*
X735000Y-735000D01*
X37265000Y-735000D01*
X37265001Y-65265000D01*
G36*
X16602235Y-15498157D02*
X16850000Y-15547440D01*
X16990000Y-15547440D01*
X16990001Y-17245148D01*
X16975112Y-17320000D01*
X16990001Y-17394852D01*
X17034097Y-17616537D01*
X17202072Y-17867929D01*
X17265528Y-17910329D01*
X27975987Y-28620789D01*
X27963262Y-28639833D01*
X27902560Y-28945000D01*
X27902560Y-29245000D01*
X27963262Y-29550167D01*
X28083422Y-29730000D01*
X27963262Y-29909833D01*
X27902560Y-30215000D01*
X27902560Y-30515000D01*
X27963262Y-30820167D01*
X28083422Y-31000000D01*
X27963262Y-31179833D01*
X27902560Y-31485000D01*
X27902560Y-31785000D01*
X27963262Y-32090167D01*
X28083422Y-32270000D01*
X27963262Y-32449833D01*
X27902560Y-32755000D01*
X27902560Y-33055000D01*
X27963262Y-33360167D01*
X27975987Y-33379211D01*
X26519928Y-34835271D01*
X26456472Y-34877671D01*
X26414072Y-34941127D01*
X26414071Y-34941128D01*
X26288497Y-35129063D01*
X26229512Y-35425600D01*
X26244401Y-35500451D01*
X26244400Y-36189789D01*
X26126969Y-36307220D01*
X25969400Y-36687626D01*
X25969400Y-36853698D01*
X24795530Y-38027569D01*
X24732071Y-38069971D01*
X24564096Y-38321364D01*
X24520000Y-38543049D01*
X24520000Y-38543053D01*
X24505112Y-38617900D01*
X24520000Y-38692747D01*
X24520001Y-62721821D01*
X24209375Y-62929375D01*
X23996157Y-63248478D01*
X23935183Y-63118642D01*
X23506924Y-62728355D01*
X23096890Y-62558524D01*
X22867000Y-62679845D01*
X22867000Y-63873000D01*
X22887000Y-63873000D01*
X22887000Y-64127000D01*
X22867000Y-64127000D01*
X22867000Y-64147000D01*
X22613000Y-64147000D01*
X22613000Y-64127000D01*
X22593000Y-64127000D01*
X22593000Y-63873000D01*
X22613000Y-63873000D01*
X22613000Y-62679845D01*
X22383110Y-62558524D01*
X21973076Y-62728355D01*
X21544817Y-63118642D01*
X21483843Y-63248478D01*
X21270625Y-62929375D01*
X20953571Y-62717526D01*
X20915904Y-62528163D01*
X20747929Y-62276771D01*
X20684473Y-62234371D01*
X14992100Y-56541999D01*
X14992100Y-48364160D01*
X15031673Y-48459698D01*
X15210301Y-48638327D01*
X15443690Y-48735000D01*
X16134250Y-48735000D01*
X16293000Y-48576250D01*
X16293000Y-47377000D01*
X16273000Y-47377000D01*
X16273000Y-47123000D01*
X16293000Y-47123000D01*
X16293000Y-45923750D01*
X16134250Y-45765000D01*
X15443690Y-45765000D01*
X15210301Y-45861673D01*
X15031673Y-46040302D01*
X14992100Y-46135840D01*
X14992100Y-38378082D01*
X15112191Y-38557809D01*
X15322235Y-38698157D01*
X15570000Y-38747440D01*
X17024700Y-38747440D01*
X17024700Y-44824553D01*
X17009812Y-44899400D01*
X17024700Y-44974247D01*
X17024700Y-44974251D01*
X17068796Y-45195936D01*
X17236771Y-45447329D01*
X17300230Y-45489731D01*
X17949619Y-46139121D01*
X17889375Y-46179375D01*
X17874904Y-46201033D01*
X17808327Y-46040302D01*
X17629699Y-45861673D01*
X17396310Y-45765000D01*
X16705750Y-45765000D01*
X16547000Y-45923750D01*
X16547000Y-47123000D01*
X16567000Y-47123000D01*
X16567000Y-47377000D01*
X16547000Y-47377000D01*
X16547000Y-48576250D01*
X16705750Y-48735000D01*
X17396310Y-48735000D01*
X17629699Y-48638327D01*
X17808327Y-48459698D01*
X17874904Y-48298967D01*
X17889375Y-48320625D01*
X18380582Y-48648839D01*
X18813744Y-48735000D01*
X19106256Y-48735000D01*
X19539418Y-48648839D01*
X19564701Y-48631946D01*
X19564701Y-55691948D01*
X19549812Y-55766800D01*
X19564701Y-55841652D01*
X19608797Y-56063337D01*
X19776772Y-56314729D01*
X19840228Y-56357129D01*
X20085285Y-56602186D01*
X20051843Y-56652235D01*
X20002560Y-56900000D01*
X20002560Y-58600000D01*
X20051843Y-58847765D01*
X20192191Y-59057809D01*
X20402235Y-59198157D01*
X20650000Y-59247440D01*
X22350000Y-59247440D01*
X22597765Y-59198157D01*
X22807809Y-59057809D01*
X22948157Y-58847765D01*
X22997440Y-58600000D01*
X22997440Y-56900000D01*
X22948157Y-56652235D01*
X22807809Y-56442191D01*
X22597765Y-56301843D01*
X22552381Y-56292816D01*
X22570625Y-56280625D01*
X22898839Y-55789418D01*
X23014092Y-55210000D01*
X22898839Y-54630582D01*
X22570625Y-54139375D01*
X22260000Y-53931822D01*
X22260000Y-48528178D01*
X22570625Y-48320625D01*
X22898839Y-47829418D01*
X23014092Y-47250000D01*
X22898839Y-46670582D01*
X22570625Y-46179375D01*
X22079418Y-45851161D01*
X21646256Y-45765000D01*
X21353744Y-45765000D01*
X21084700Y-45818516D01*
X21084700Y-39864846D01*
X21099588Y-39789999D01*
X21084700Y-39715152D01*
X21084700Y-39715148D01*
X21040604Y-39493463D01*
X20872629Y-39242071D01*
X20809173Y-39199671D01*
X19970380Y-38360879D01*
X20030625Y-38320625D01*
X20230000Y-38022239D01*
X20429375Y-38320625D01*
X20920582Y-38648839D01*
X21353744Y-38735000D01*
X21646256Y-38735000D01*
X22079418Y-38648839D01*
X22570625Y-38320625D01*
X22898839Y-37829418D01*
X23014092Y-37250000D01*
X22898839Y-36670582D01*
X22570625Y-36179375D01*
X22079418Y-35851161D01*
X21646256Y-35765000D01*
X21353744Y-35765000D01*
X20920582Y-35851161D01*
X20429375Y-36179375D01*
X20230000Y-36477761D01*
X20030625Y-36179375D01*
X19539418Y-35851161D01*
X19106256Y-35765000D01*
X18813744Y-35765000D01*
X18544700Y-35818516D01*
X18544700Y-32198048D01*
X18559588Y-32123200D01*
X18544700Y-32048352D01*
X18544700Y-32048348D01*
X18500604Y-31826663D01*
X18500604Y-31826662D01*
X18394937Y-31668521D01*
X18555431Y-31735000D01*
X19444569Y-31735000D01*
X20266026Y-31394741D01*
X20894741Y-30766026D01*
X21235000Y-29944569D01*
X21235000Y-29055431D01*
X20894741Y-28233974D01*
X20266026Y-27605259D01*
X19444569Y-27265000D01*
X18555431Y-27265000D01*
X17822100Y-27568756D01*
X17822100Y-26170320D01*
X17847529Y-26153329D01*
X18015504Y-25901937D01*
X18059600Y-25680252D01*
X18059600Y-25680248D01*
X18074488Y-25605400D01*
X18059600Y-25530552D01*
X18059600Y-19495246D01*
X18074488Y-19420399D01*
X18059600Y-19345552D01*
X18059600Y-19345548D01*
X18015504Y-19123863D01*
X17973702Y-19061302D01*
X17889929Y-18935926D01*
X17889927Y-18935924D01*
X17847529Y-18872471D01*
X17784076Y-18830073D01*
X16516400Y-17562399D01*
X16516400Y-15440803D01*
X16602235Y-15498157D01*
X16602235Y-15498157D01*
G37*
X16602235Y-15498157D02*
X16850000Y-15547440D01*
X16990000Y-15547440D01*
X16990001Y-17245148D01*
X16975112Y-17320000D01*
X16990001Y-17394852D01*
X17034097Y-17616537D01*
X17202072Y-17867929D01*
X17265528Y-17910329D01*
X27975987Y-28620789D01*
X27963262Y-28639833D01*
X27902560Y-28945000D01*
X27902560Y-29245000D01*
X27963262Y-29550167D01*
X28083422Y-29730000D01*
X27963262Y-29909833D01*
X27902560Y-30215000D01*
X27902560Y-30515000D01*
X27963262Y-30820167D01*
X28083422Y-31000000D01*
X27963262Y-31179833D01*
X27902560Y-31485000D01*
X27902560Y-31785000D01*
X27963262Y-32090167D01*
X28083422Y-32270000D01*
X27963262Y-32449833D01*
X27902560Y-32755000D01*
X27902560Y-33055000D01*
X27963262Y-33360167D01*
X27975987Y-33379211D01*
X26519928Y-34835271D01*
X26456472Y-34877671D01*
X26414072Y-34941127D01*
X26414071Y-34941128D01*
X26288497Y-35129063D01*
X26229512Y-35425600D01*
X26244401Y-35500451D01*
X26244400Y-36189789D01*
X26126969Y-36307220D01*
X25969400Y-36687626D01*
X25969400Y-36853698D01*
X24795530Y-38027569D01*
X24732071Y-38069971D01*
X24564096Y-38321364D01*
X24520000Y-38543049D01*
X24520000Y-38543053D01*
X24505112Y-38617900D01*
X24520000Y-38692747D01*
X24520001Y-62721821D01*
X24209375Y-62929375D01*
X23996157Y-63248478D01*
X23935183Y-63118642D01*
X23506924Y-62728355D01*
X23096890Y-62558524D01*
X22867000Y-62679845D01*
X22867000Y-63873000D01*
X22887000Y-63873000D01*
X22887000Y-64127000D01*
X22867000Y-64127000D01*
X22867000Y-64147000D01*
X22613000Y-64147000D01*
X22613000Y-64127000D01*
X22593000Y-64127000D01*
X22593000Y-63873000D01*
X22613000Y-63873000D01*
X22613000Y-62679845D01*
X22383110Y-62558524D01*
X21973076Y-62728355D01*
X21544817Y-63118642D01*
X21483843Y-63248478D01*
X21270625Y-62929375D01*
X20953571Y-62717526D01*
X20915904Y-62528163D01*
X20747929Y-62276771D01*
X20684473Y-62234371D01*
X14992100Y-56541999D01*
X14992100Y-48364160D01*
X15031673Y-48459698D01*
X15210301Y-48638327D01*
X15443690Y-48735000D01*
X16134250Y-48735000D01*
X16293000Y-48576250D01*
X16293000Y-47377000D01*
X16273000Y-47377000D01*
X16273000Y-47123000D01*
X16293000Y-47123000D01*
X16293000Y-45923750D01*
X16134250Y-45765000D01*
X15443690Y-45765000D01*
X15210301Y-45861673D01*
X15031673Y-46040302D01*
X14992100Y-46135840D01*
X14992100Y-38378082D01*
X15112191Y-38557809D01*
X15322235Y-38698157D01*
X15570000Y-38747440D01*
X17024700Y-38747440D01*
X17024700Y-44824553D01*
X17009812Y-44899400D01*
X17024700Y-44974247D01*
X17024700Y-44974251D01*
X17068796Y-45195936D01*
X17236771Y-45447329D01*
X17300230Y-45489731D01*
X17949619Y-46139121D01*
X17889375Y-46179375D01*
X17874904Y-46201033D01*
X17808327Y-46040302D01*
X17629699Y-45861673D01*
X17396310Y-45765000D01*
X16705750Y-45765000D01*
X16547000Y-45923750D01*
X16547000Y-47123000D01*
X16567000Y-47123000D01*
X16567000Y-47377000D01*
X16547000Y-47377000D01*
X16547000Y-48576250D01*
X16705750Y-48735000D01*
X17396310Y-48735000D01*
X17629699Y-48638327D01*
X17808327Y-48459698D01*
X17874904Y-48298967D01*
X17889375Y-48320625D01*
X18380582Y-48648839D01*
X18813744Y-48735000D01*
X19106256Y-48735000D01*
X19539418Y-48648839D01*
X19564701Y-48631946D01*
X19564701Y-55691948D01*
X19549812Y-55766800D01*
X19564701Y-55841652D01*
X19608797Y-56063337D01*
X19776772Y-56314729D01*
X19840228Y-56357129D01*
X20085285Y-56602186D01*
X20051843Y-56652235D01*
X20002560Y-56900000D01*
X20002560Y-58600000D01*
X20051843Y-58847765D01*
X20192191Y-59057809D01*
X20402235Y-59198157D01*
X20650000Y-59247440D01*
X22350000Y-59247440D01*
X22597765Y-59198157D01*
X22807809Y-59057809D01*
X22948157Y-58847765D01*
X22997440Y-58600000D01*
X22997440Y-56900000D01*
X22948157Y-56652235D01*
X22807809Y-56442191D01*
X22597765Y-56301843D01*
X22552381Y-56292816D01*
X22570625Y-56280625D01*
X22898839Y-55789418D01*
X23014092Y-55210000D01*
X22898839Y-54630582D01*
X22570625Y-54139375D01*
X22260000Y-53931822D01*
X22260000Y-48528178D01*
X22570625Y-48320625D01*
X22898839Y-47829418D01*
X23014092Y-47250000D01*
X22898839Y-46670582D01*
X22570625Y-46179375D01*
X22079418Y-45851161D01*
X21646256Y-45765000D01*
X21353744Y-45765000D01*
X21084700Y-45818516D01*
X21084700Y-39864846D01*
X21099588Y-39789999D01*
X21084700Y-39715152D01*
X21084700Y-39715148D01*
X21040604Y-39493463D01*
X20872629Y-39242071D01*
X20809173Y-39199671D01*
X19970380Y-38360879D01*
X20030625Y-38320625D01*
X20230000Y-38022239D01*
X20429375Y-38320625D01*
X20920582Y-38648839D01*
X21353744Y-38735000D01*
X21646256Y-38735000D01*
X22079418Y-38648839D01*
X22570625Y-38320625D01*
X22898839Y-37829418D01*
X23014092Y-37250000D01*
X22898839Y-36670582D01*
X22570625Y-36179375D01*
X22079418Y-35851161D01*
X21646256Y-35765000D01*
X21353744Y-35765000D01*
X20920582Y-35851161D01*
X20429375Y-36179375D01*
X20230000Y-36477761D01*
X20030625Y-36179375D01*
X19539418Y-35851161D01*
X19106256Y-35765000D01*
X18813744Y-35765000D01*
X18544700Y-35818516D01*
X18544700Y-32198048D01*
X18559588Y-32123200D01*
X18544700Y-32048352D01*
X18544700Y-32048348D01*
X18500604Y-31826663D01*
X18500604Y-31826662D01*
X18394937Y-31668521D01*
X18555431Y-31735000D01*
X19444569Y-31735000D01*
X20266026Y-31394741D01*
X20894741Y-30766026D01*
X21235000Y-29944569D01*
X21235000Y-29055431D01*
X20894741Y-28233974D01*
X20266026Y-27605259D01*
X19444569Y-27265000D01*
X18555431Y-27265000D01*
X17822100Y-27568756D01*
X17822100Y-26170320D01*
X17847529Y-26153329D01*
X18015504Y-25901937D01*
X18059600Y-25680252D01*
X18059600Y-25680248D01*
X18074488Y-25605400D01*
X18059600Y-25530552D01*
X18059600Y-19495246D01*
X18074488Y-19420399D01*
X18059600Y-19345552D01*
X18059600Y-19345548D01*
X18015504Y-19123863D01*
X17973702Y-19061302D01*
X17889929Y-18935926D01*
X17889927Y-18935924D01*
X17847529Y-18872471D01*
X17784076Y-18830073D01*
X16516400Y-17562399D01*
X16516400Y-15440803D01*
X16602235Y-15498157D01*
G36*
X30743301Y-37532248D02*
X30728412Y-37607100D01*
X30787397Y-37903637D01*
X30902774Y-38076310D01*
X30955372Y-38155029D01*
X31018828Y-38197429D01*
X32236399Y-39415000D01*
X31998691Y-39415000D01*
X31765302Y-39511673D01*
X31586673Y-39690301D01*
X31490000Y-39923690D01*
X31490000Y-40464250D01*
X31648750Y-40623000D01*
X32573000Y-40623000D01*
X32573000Y-40603000D01*
X32827000Y-40603000D01*
X32827000Y-40623000D01*
X32847000Y-40623000D01*
X32847000Y-40877000D01*
X32827000Y-40877000D01*
X32827000Y-41926250D01*
X32985750Y-42085000D01*
X33401309Y-42085000D01*
X33634698Y-41988327D01*
X33789623Y-41833403D01*
X33790414Y-41834586D01*
X33990001Y-41967946D01*
X33990000Y-43048759D01*
X33815414Y-43165414D01*
X33750000Y-43263313D01*
X33684586Y-43165414D01*
X33393436Y-42970873D01*
X33050001Y-42902560D01*
X32399999Y-42902560D01*
X32056564Y-42970873D01*
X31765414Y-43165414D01*
X31570873Y-43456564D01*
X31502560Y-43799999D01*
X31502560Y-44700001D01*
X31570873Y-45043436D01*
X31765414Y-45334586D01*
X31965000Y-45467946D01*
X31965001Y-60144897D01*
X29875528Y-62234371D01*
X29812072Y-62276771D01*
X29644097Y-62528163D01*
X29613926Y-62679845D01*
X29606430Y-62717525D01*
X29289375Y-62929375D01*
X29090000Y-63227761D01*
X28890625Y-62929375D01*
X28399418Y-62601161D01*
X27966256Y-62515000D01*
X27673744Y-62515000D01*
X27240582Y-62601161D01*
X26749375Y-62929375D01*
X26550000Y-63227761D01*
X26350625Y-62929375D01*
X26040000Y-62721822D01*
X26040000Y-41035750D01*
X31490000Y-41035750D01*
X31490000Y-41576310D01*
X31586673Y-41809699D01*
X31765302Y-41988327D01*
X31998691Y-42085000D01*
X32414250Y-42085000D01*
X32573000Y-41926250D01*
X32573000Y-40877000D01*
X31648750Y-40877000D01*
X31490000Y-41035750D01*
X26040000Y-41035750D01*
X26040000Y-38932701D01*
X27044202Y-37928500D01*
X27210274Y-37928500D01*
X27590680Y-37770931D01*
X27881831Y-37479780D01*
X28039400Y-37099374D01*
X28039400Y-36687626D01*
X27881831Y-36307220D01*
X27764400Y-36189789D01*
X27764400Y-35740401D01*
X29652362Y-33852440D01*
X30350000Y-33852440D01*
X30655167Y-33791738D01*
X30743300Y-33732849D01*
X30743301Y-37532248D01*
X30743301Y-37532248D01*
G37*
X30743301Y-37532248D02*
X30728412Y-37607100D01*
X30787397Y-37903637D01*
X30902774Y-38076310D01*
X30955372Y-38155029D01*
X31018828Y-38197429D01*
X32236399Y-39415000D01*
X31998691Y-39415000D01*
X31765302Y-39511673D01*
X31586673Y-39690301D01*
X31490000Y-39923690D01*
X31490000Y-40464250D01*
X31648750Y-40623000D01*
X32573000Y-40623000D01*
X32573000Y-40603000D01*
X32827000Y-40603000D01*
X32827000Y-40623000D01*
X32847000Y-40623000D01*
X32847000Y-40877000D01*
X32827000Y-40877000D01*
X32827000Y-41926250D01*
X32985750Y-42085000D01*
X33401309Y-42085000D01*
X33634698Y-41988327D01*
X33789623Y-41833403D01*
X33790414Y-41834586D01*
X33990001Y-41967946D01*
X33990000Y-43048759D01*
X33815414Y-43165414D01*
X33750000Y-43263313D01*
X33684586Y-43165414D01*
X33393436Y-42970873D01*
X33050001Y-42902560D01*
X32399999Y-42902560D01*
X32056564Y-42970873D01*
X31765414Y-43165414D01*
X31570873Y-43456564D01*
X31502560Y-43799999D01*
X31502560Y-44700001D01*
X31570873Y-45043436D01*
X31765414Y-45334586D01*
X31965000Y-45467946D01*
X31965001Y-60144897D01*
X29875528Y-62234371D01*
X29812072Y-62276771D01*
X29644097Y-62528163D01*
X29613926Y-62679845D01*
X29606430Y-62717525D01*
X29289375Y-62929375D01*
X29090000Y-63227761D01*
X28890625Y-62929375D01*
X28399418Y-62601161D01*
X27966256Y-62515000D01*
X27673744Y-62515000D01*
X27240582Y-62601161D01*
X26749375Y-62929375D01*
X26550000Y-63227761D01*
X26350625Y-62929375D01*
X26040000Y-62721822D01*
X26040000Y-41035750D01*
X31490000Y-41035750D01*
X31490000Y-41576310D01*
X31586673Y-41809699D01*
X31765302Y-41988327D01*
X31998691Y-42085000D01*
X32414250Y-42085000D01*
X32573000Y-41926250D01*
X32573000Y-40877000D01*
X31648750Y-40877000D01*
X31490000Y-41035750D01*
X26040000Y-41035750D01*
X26040000Y-38932701D01*
X27044202Y-37928500D01*
X27210274Y-37928500D01*
X27590680Y-37770931D01*
X27881831Y-37479780D01*
X28039400Y-37099374D01*
X28039400Y-36687626D01*
X27881831Y-36307220D01*
X27764400Y-36189789D01*
X27764400Y-35740401D01*
X29652362Y-33852440D01*
X30350000Y-33852440D01*
X30655167Y-33791738D01*
X30743300Y-33732849D01*
X30743301Y-37532248D01*
G36*
X34602000Y-32778000D02*
X34622000Y-32778000D01*
X34622000Y-33032000D01*
X34602000Y-33032000D01*
X34602000Y-33681250D01*
X34760750Y-33840000D01*
X35019700Y-33840000D01*
X35019700Y-35981050D01*
X34927000Y-36073750D01*
X34927000Y-37123000D01*
X34947000Y-37123000D01*
X34947000Y-37377000D01*
X34927000Y-37377000D01*
X34927000Y-38426250D01*
X35019700Y-38518950D01*
X35019700Y-39402560D01*
X34424999Y-39402560D01*
X34382096Y-39411094D01*
X33467407Y-38496406D01*
X33709586Y-38334586D01*
X33710377Y-38333403D01*
X33865302Y-38488327D01*
X34098691Y-38585000D01*
X34514250Y-38585000D01*
X34673000Y-38426250D01*
X34673000Y-37377000D01*
X34653000Y-37377000D01*
X34653000Y-37123000D01*
X34673000Y-37123000D01*
X34673000Y-36073750D01*
X34514250Y-35915000D01*
X34098691Y-35915000D01*
X33865302Y-36011673D01*
X33710377Y-36166597D01*
X33709586Y-36165414D01*
X33510000Y-36032054D01*
X33510000Y-33840000D01*
X34189250Y-33840000D01*
X34348000Y-33681250D01*
X34348000Y-33032000D01*
X34328000Y-33032000D01*
X34328000Y-32778000D01*
X34348000Y-32778000D01*
X34348000Y-32758000D01*
X34602000Y-32758000D01*
X34602000Y-32778000D01*
X34602000Y-32778000D01*
G37*
X34602000Y-32778000D02*
X34622000Y-32778000D01*
X34622000Y-33032000D01*
X34602000Y-33032000D01*
X34602000Y-33681250D01*
X34760750Y-33840000D01*
X35019700Y-33840000D01*
X35019700Y-35981050D01*
X34927000Y-36073750D01*
X34927000Y-37123000D01*
X34947000Y-37123000D01*
X34947000Y-37377000D01*
X34927000Y-37377000D01*
X34927000Y-38426250D01*
X35019700Y-38518950D01*
X35019700Y-39402560D01*
X34424999Y-39402560D01*
X34382096Y-39411094D01*
X33467407Y-38496406D01*
X33709586Y-38334586D01*
X33710377Y-38333403D01*
X33865302Y-38488327D01*
X34098691Y-38585000D01*
X34514250Y-38585000D01*
X34673000Y-38426250D01*
X34673000Y-37377000D01*
X34653000Y-37377000D01*
X34653000Y-37123000D01*
X34673000Y-37123000D01*
X34673000Y-36073750D01*
X34514250Y-35915000D01*
X34098691Y-35915000D01*
X33865302Y-36011673D01*
X33710377Y-36166597D01*
X33709586Y-36165414D01*
X33510000Y-36032054D01*
X33510000Y-33840000D01*
X34189250Y-33840000D01*
X34348000Y-33681250D01*
X34348000Y-33032000D01*
X34328000Y-33032000D01*
X34328000Y-32778000D01*
X34348000Y-32778000D01*
X34348000Y-32758000D01*
X34602000Y-32758000D01*
X34602000Y-32778000D01*
G04 #@! TO.N,/-12V.tb*
G36*
X11386569Y-28129971D02*
X11386569Y-46873000D01*
X735000Y-46873000D01*
X735000Y-33340000D01*
X3568276Y-33340000D01*
X3753380Y-34270580D01*
X4280511Y-35059489D01*
X5069420Y-35586620D01*
X5765103Y-35725000D01*
X6234897Y-35725000D01*
X6930580Y-35586620D01*
X7719489Y-35059489D01*
X8246620Y-34270580D01*
X8431724Y-33340000D01*
X8246620Y-32409420D01*
X7719489Y-31620511D01*
X6930580Y-31093380D01*
X6234897Y-30955000D01*
X5765103Y-30955000D01*
X5069420Y-31093380D01*
X4280511Y-31620511D01*
X3753380Y-32409420D01*
X3568276Y-33340000D01*
X735000Y-33340000D01*
X735000Y-27127000D01*
X10383598Y-27127000D01*
X11386569Y-28129971D01*
X11386569Y-28129971D01*
G37*
X11386569Y-28129971D02*
X11386569Y-46873000D01*
X735000Y-46873000D01*
X735000Y-33340000D01*
X3568276Y-33340000D01*
X3753380Y-34270580D01*
X4280511Y-35059489D01*
X5069420Y-35586620D01*
X5765103Y-35725000D01*
X6234897Y-35725000D01*
X6930580Y-35586620D01*
X7719489Y-35059489D01*
X8246620Y-34270580D01*
X8431724Y-33340000D01*
X8246620Y-32409420D01*
X7719489Y-31620511D01*
X6930580Y-31093380D01*
X6234897Y-30955000D01*
X5765103Y-30955000D01*
X5069420Y-31093380D01*
X4280511Y-31620511D01*
X3753380Y-32409420D01*
X3568276Y-33340000D01*
X735000Y-33340000D01*
X735000Y-27127000D01*
X10383598Y-27127000D01*
X11386569Y-28129971D01*
G04 #@! TD*
M02*
