G04 #@! TF.GenerationSoftware,KiCad,Pcbnew,(5.0.2)-1*
G04 #@! TF.CreationDate,2019-04-03T17:46:42+02:00*
G04 #@! TF.ProjectId,Corona_tubeBoard,436f726f-6e61-45f7-9475-6265426f6172,1*
G04 #@! TF.SameCoordinates,Original*
G04 #@! TF.FileFunction,Copper,L2,Bot*
G04 #@! TF.FilePolarity,Positive*
%FSLAX46Y46*%
G04 Gerber Fmt 4.6, Leading zero omitted, Abs format (unit mm)*
G04 Created by KiCad (PCBNEW (5.0.2)-1) date 3-4-2019 17:46:42*
%MOMM*%
%LPD*%
G01*
G04 APERTURE LIST*
G04 #@! TA.AperFunction,ComponentPad*
%ADD10O,1.905000X2.000000*%
G04 #@! TD*
G04 #@! TA.AperFunction,ComponentPad*
%ADD11R,1.905000X2.000000*%
G04 #@! TD*
G04 #@! TA.AperFunction,ComponentPad*
%ADD12C,2.397760*%
G04 #@! TD*
G04 #@! TA.AperFunction,ComponentPad*
%ADD13R,1.700000X1.700000*%
G04 #@! TD*
G04 #@! TA.AperFunction,ComponentPad*
%ADD14O,1.700000X1.700000*%
G04 #@! TD*
G04 #@! TA.AperFunction,ComponentPad*
%ADD15C,1.800000*%
G04 #@! TD*
G04 #@! TA.AperFunction,ComponentPad*
%ADD16R,1.800000X1.800000*%
G04 #@! TD*
G04 #@! TA.AperFunction,ViaPad*
%ADD17C,0.800000*%
G04 #@! TD*
G04 #@! TA.AperFunction,Conductor*
%ADD18C,0.250000*%
G04 #@! TD*
G04 #@! TA.AperFunction,Conductor*
%ADD19C,0.254000*%
G04 #@! TD*
G04 APERTURE END LIST*
D10*
G04 #@! TO.P,U4,3*
G04 #@! TO.N,/-6.3V.tb*
X3460000Y-50000000D03*
G04 #@! TO.P,U4,2*
G04 #@! TO.N,/-12V.tb*
X6000000Y-50000000D03*
D11*
G04 #@! TO.P,U4,1*
G04 #@! TO.N,Net-(RFBB1-Pad2)*
X8540000Y-50000000D03*
G04 #@! TD*
D12*
G04 #@! TO.P,SX1,1*
G04 #@! TO.N,/tube.1.tb*
X27493760Y-20169660D03*
G04 #@! TO.P,SX1,2*
G04 #@! TO.N,/tube.2.tb*
X29497820Y-14000000D03*
G04 #@! TO.P,SX1,3*
G04 #@! TO.N,/tube.3.tb*
X27493760Y-7830340D03*
G04 #@! TO.P,SX1,4*
G04 #@! TO.N,/tube.4.tb*
X22243580Y-4015260D03*
G04 #@! TO.P,SX1,5*
G04 #@! TO.N,Net-(J8-Pad2)*
X15756420Y-4015260D03*
G04 #@! TO.P,SX1,6*
G04 #@! TO.N,/tube.6.tb*
X10506240Y-7830340D03*
G04 #@! TO.P,SX1,7*
G04 #@! TO.N,/tube.7.tb*
X8502180Y-14000000D03*
G04 #@! TO.P,SX1,8*
G04 #@! TO.N,/tube.8.tb*
X10506240Y-20169660D03*
G04 #@! TO.P,SX1,9*
G04 #@! TO.N,N/C*
X15756420Y-23984740D03*
G04 #@! TD*
D13*
G04 #@! TO.P,J5,1*
G04 #@! TO.N,/tube.4.tb*
X21500000Y-57750000D03*
D14*
G04 #@! TO.P,J5,2*
G04 #@! TO.N,Net-(J5-Pad2)*
X21500000Y-55210000D03*
G04 #@! TD*
D15*
G04 #@! TO.P,D_TUBE1,2*
G04 #@! TO.N,Net-(D_TUBE1-Pad2)*
X20290000Y-14000000D03*
D16*
G04 #@! TO.P,D_TUBE1,1*
G04 #@! TO.N,Net-(D_TUBE1-Pad1)*
X17750000Y-14000000D03*
G04 #@! TD*
D13*
G04 #@! TO.P,J6,1*
G04 #@! TO.N,/-12V.tb*
X16420000Y-37250000D03*
D14*
G04 #@! TO.P,J6,2*
G04 #@! TO.N,/tube.4.tb*
X18960000Y-37250000D03*
G04 #@! TO.P,J6,3*
G04 #@! TO.N,/-6.3V.tb*
X21500000Y-37250000D03*
G04 #@! TD*
D13*
G04 #@! TO.P,J8,1*
G04 #@! TO.N,/gnd.tb*
X16420000Y-47250000D03*
D14*
G04 #@! TO.P,J8,2*
G04 #@! TO.N,Net-(J8-Pad2)*
X18960000Y-47250000D03*
G04 #@! TO.P,J8,3*
G04 #@! TO.N,Net-(J5-Pad2)*
X21500000Y-47250000D03*
G04 #@! TD*
D13*
G04 #@! TO.P,J10,1*
G04 #@! TO.N,/tube.1.tb*
X7500000Y-64000000D03*
D14*
G04 #@! TO.P,J10,2*
G04 #@! TO.N,/tube.2.tb*
X10040000Y-64000000D03*
G04 #@! TO.P,J10,3*
G04 #@! TO.N,/tube.3.tb*
X12580000Y-64000000D03*
G04 #@! TO.P,J10,4*
G04 #@! TO.N,/tube.6.tb*
X15120000Y-64000000D03*
G04 #@! TO.P,J10,5*
G04 #@! TO.N,/tube.7.tb*
X17660000Y-64000000D03*
G04 #@! TO.P,J10,6*
G04 #@! TO.N,/tube.8.tb*
X20200000Y-64000000D03*
G04 #@! TO.P,J10,7*
G04 #@! TO.N,/gnd.tb*
X22740000Y-64000000D03*
G04 #@! TO.P,J10,8*
G04 #@! TO.N,/-12V.tb*
X25280000Y-64000000D03*
G04 #@! TO.P,J10,9*
G04 #@! TO.N,/+12V.tb*
X27820000Y-64000000D03*
G04 #@! TO.P,J10,10*
G04 #@! TO.N,/audio.out.tb*
X30360000Y-64000000D03*
G04 #@! TD*
D17*
G04 #@! TO.N,/-12V.tb*
X27004400Y-36893500D03*
X6000000Y-45500000D03*
G04 #@! TO.N,/gnd.tb*
X34500000Y-34750000D03*
X30750000Y-36750000D03*
X10500000Y-57250000D03*
X36750000Y-1250000D03*
G04 #@! TD*
D18*
G04 #@! TO.N,/tube.4.tb*
X18960000Y-37250000D02*
X18960000Y-36074700D01*
X18960000Y-36074700D02*
X22243600Y-32791100D01*
X22243600Y-32791100D02*
X22243600Y-4015300D01*
G04 #@! TO.N,/-12V.tb*
X16420000Y-38425300D02*
X16420000Y-42578400D01*
X16420000Y-42578400D02*
X11093100Y-47905300D01*
X11093100Y-47905300D02*
X3679500Y-47905300D01*
X3679500Y-47905300D02*
X2180200Y-49404600D01*
X2180200Y-49404600D02*
X2180200Y-50638400D01*
X2180200Y-50638400D02*
X2884000Y-51342200D01*
X2884000Y-51342200D02*
X4657800Y-51342200D01*
X4657800Y-51342200D02*
X6000000Y-50000000D01*
X16420000Y-37250000D02*
X16420000Y-38425300D01*
X16420000Y-37250000D02*
X17595300Y-37250000D01*
X17595300Y-37250000D02*
X17595300Y-37617300D01*
X17595300Y-37617300D02*
X18438300Y-38460300D01*
X18438300Y-38460300D02*
X19423300Y-38460300D01*
X19423300Y-38460300D02*
X20230000Y-37653600D01*
X20230000Y-37653600D02*
X20230000Y-36829300D01*
X20230000Y-36829300D02*
X20995600Y-36063700D01*
X20995600Y-36063700D02*
X26174600Y-36063700D01*
X26174600Y-36063700D02*
X27004400Y-36893500D01*
G04 #@! TO.N,/-6.3V.tb*
X3460000Y-50000000D02*
X5104400Y-48355600D01*
X5104400Y-48355600D02*
X11569700Y-48355600D01*
X11569700Y-48355600D02*
X21500000Y-38425300D01*
X21500000Y-37250000D02*
X21500000Y-38425300D01*
G04 #@! TO.N,/tube.1.tb*
X7500000Y-62824700D02*
X7646900Y-62824700D01*
X7646900Y-62824700D02*
X27729700Y-42741900D01*
X27729700Y-42741900D02*
X27729700Y-20405600D01*
X27729700Y-20405600D02*
X27493800Y-20169700D01*
X7500000Y-64000000D02*
X7500000Y-62824700D01*
G04 #@! TO.N,/tube.2.tb*
X10040000Y-64000000D02*
X11215300Y-64000000D01*
X29497800Y-14000000D02*
X29497800Y-45167600D01*
X29497800Y-45167600D02*
X13850000Y-60815400D01*
X13850000Y-60815400D02*
X13850000Y-64463700D01*
X13850000Y-64463700D02*
X13138400Y-65175300D01*
X13138400Y-65175300D02*
X12023200Y-65175300D01*
X12023200Y-65175300D02*
X11215300Y-64367400D01*
X11215300Y-64367400D02*
X11215300Y-64000000D01*
G04 #@! TO.N,/tube.3.tb*
X12580000Y-64000000D02*
X12580000Y-61448500D01*
X12580000Y-61448500D02*
X29047400Y-44981100D01*
X29047400Y-44981100D02*
X29047400Y-18158700D01*
X29047400Y-18158700D02*
X27493800Y-16605100D01*
X27493800Y-16605100D02*
X27493800Y-7830300D01*
G04 #@! TD*
D19*
G04 #@! TO.N,/gnd.tb*
G36*
X25969400Y-36933302D02*
X25969400Y-37099374D01*
X26126969Y-37479780D01*
X26418120Y-37770931D01*
X26798526Y-37928500D01*
X26969700Y-37928500D01*
X26969700Y-42427098D01*
X22829696Y-46567102D01*
X22570625Y-46179375D01*
X22079418Y-45851161D01*
X21646256Y-45765000D01*
X21353744Y-45765000D01*
X20920582Y-45851161D01*
X20429375Y-46179375D01*
X20230000Y-46477761D01*
X20030625Y-46179375D01*
X19539418Y-45851161D01*
X19106256Y-45765000D01*
X18813744Y-45765000D01*
X18380582Y-45851161D01*
X17889375Y-46179375D01*
X17874904Y-46201033D01*
X17808327Y-46040302D01*
X17629699Y-45861673D01*
X17396310Y-45765000D01*
X16705750Y-45765000D01*
X16547000Y-45923750D01*
X16547000Y-47123000D01*
X16567000Y-47123000D01*
X16567000Y-47377000D01*
X16547000Y-47377000D01*
X16547000Y-48576250D01*
X16705750Y-48735000D01*
X17396310Y-48735000D01*
X17629699Y-48638327D01*
X17808327Y-48459698D01*
X17874904Y-48298967D01*
X17889375Y-48320625D01*
X18380582Y-48648839D01*
X18813744Y-48735000D01*
X19106256Y-48735000D01*
X19539418Y-48648839D01*
X20030625Y-48320625D01*
X20230000Y-48022239D01*
X20429375Y-48320625D01*
X20817102Y-48579696D01*
X7308995Y-62087804D01*
X7203463Y-62108796D01*
X6952071Y-62276771D01*
X6801203Y-62502560D01*
X6650000Y-62502560D01*
X6402235Y-62551843D01*
X6192191Y-62692191D01*
X6051843Y-62902235D01*
X6002560Y-63150000D01*
X6002560Y-64850000D01*
X6051843Y-65097765D01*
X6163587Y-65265000D01*
X735000Y-65265000D01*
X735000Y-47635000D01*
X2874997Y-47635000D01*
X1695730Y-48814269D01*
X1632271Y-48856671D01*
X1464296Y-49108064D01*
X1420200Y-49329749D01*
X1420200Y-49329753D01*
X1405312Y-49404600D01*
X1420200Y-49479447D01*
X1420201Y-50563549D01*
X1405312Y-50638400D01*
X1420201Y-50713252D01*
X1464297Y-50934937D01*
X1632272Y-51186329D01*
X1695728Y-51228729D01*
X2293671Y-51826673D01*
X2336071Y-51890129D01*
X2587463Y-52058104D01*
X2809148Y-52102200D01*
X2809152Y-52102200D01*
X2884000Y-52117088D01*
X2958848Y-52102200D01*
X4582953Y-52102200D01*
X4657800Y-52117088D01*
X4732647Y-52102200D01*
X4732652Y-52102200D01*
X4954337Y-52058104D01*
X5205729Y-51890129D01*
X5248131Y-51826670D01*
X5506805Y-51567997D01*
X6000000Y-51666100D01*
X6619410Y-51542891D01*
X7011491Y-51280912D01*
X7129691Y-51457809D01*
X7339735Y-51598157D01*
X7587500Y-51647440D01*
X9492500Y-51647440D01*
X9740265Y-51598157D01*
X9950309Y-51457809D01*
X10090657Y-51247765D01*
X10139940Y-51000000D01*
X10139940Y-49115600D01*
X11494853Y-49115600D01*
X11569700Y-49130488D01*
X11644547Y-49115600D01*
X11644552Y-49115600D01*
X11866237Y-49071504D01*
X12117629Y-48903529D01*
X12160031Y-48840070D01*
X13464351Y-47535750D01*
X14935000Y-47535750D01*
X14935000Y-48226309D01*
X15031673Y-48459698D01*
X15210301Y-48638327D01*
X15443690Y-48735000D01*
X16134250Y-48735000D01*
X16293000Y-48576250D01*
X16293000Y-47377000D01*
X15093750Y-47377000D01*
X14935000Y-47535750D01*
X13464351Y-47535750D01*
X14726410Y-46273691D01*
X14935000Y-46273691D01*
X14935000Y-46964250D01*
X15093750Y-47123000D01*
X16293000Y-47123000D01*
X16293000Y-45923750D01*
X16134250Y-45765000D01*
X15443690Y-45765000D01*
X15210301Y-45861673D01*
X15031673Y-46040302D01*
X14935000Y-46273691D01*
X14726410Y-46273691D01*
X21984473Y-39015629D01*
X22047929Y-38973229D01*
X22215904Y-38721837D01*
X22253571Y-38532474D01*
X22570625Y-38320625D01*
X22898839Y-37829418D01*
X23014092Y-37250000D01*
X22929296Y-36823700D01*
X25859798Y-36823700D01*
X25969400Y-36933302D01*
X25969400Y-36933302D01*
G37*
X25969400Y-36933302D02*
X25969400Y-37099374D01*
X26126969Y-37479780D01*
X26418120Y-37770931D01*
X26798526Y-37928500D01*
X26969700Y-37928500D01*
X26969700Y-42427098D01*
X22829696Y-46567102D01*
X22570625Y-46179375D01*
X22079418Y-45851161D01*
X21646256Y-45765000D01*
X21353744Y-45765000D01*
X20920582Y-45851161D01*
X20429375Y-46179375D01*
X20230000Y-46477761D01*
X20030625Y-46179375D01*
X19539418Y-45851161D01*
X19106256Y-45765000D01*
X18813744Y-45765000D01*
X18380582Y-45851161D01*
X17889375Y-46179375D01*
X17874904Y-46201033D01*
X17808327Y-46040302D01*
X17629699Y-45861673D01*
X17396310Y-45765000D01*
X16705750Y-45765000D01*
X16547000Y-45923750D01*
X16547000Y-47123000D01*
X16567000Y-47123000D01*
X16567000Y-47377000D01*
X16547000Y-47377000D01*
X16547000Y-48576250D01*
X16705750Y-48735000D01*
X17396310Y-48735000D01*
X17629699Y-48638327D01*
X17808327Y-48459698D01*
X17874904Y-48298967D01*
X17889375Y-48320625D01*
X18380582Y-48648839D01*
X18813744Y-48735000D01*
X19106256Y-48735000D01*
X19539418Y-48648839D01*
X20030625Y-48320625D01*
X20230000Y-48022239D01*
X20429375Y-48320625D01*
X20817102Y-48579696D01*
X7308995Y-62087804D01*
X7203463Y-62108796D01*
X6952071Y-62276771D01*
X6801203Y-62502560D01*
X6650000Y-62502560D01*
X6402235Y-62551843D01*
X6192191Y-62692191D01*
X6051843Y-62902235D01*
X6002560Y-63150000D01*
X6002560Y-64850000D01*
X6051843Y-65097765D01*
X6163587Y-65265000D01*
X735000Y-65265000D01*
X735000Y-47635000D01*
X2874997Y-47635000D01*
X1695730Y-48814269D01*
X1632271Y-48856671D01*
X1464296Y-49108064D01*
X1420200Y-49329749D01*
X1420200Y-49329753D01*
X1405312Y-49404600D01*
X1420200Y-49479447D01*
X1420201Y-50563549D01*
X1405312Y-50638400D01*
X1420201Y-50713252D01*
X1464297Y-50934937D01*
X1632272Y-51186329D01*
X1695728Y-51228729D01*
X2293671Y-51826673D01*
X2336071Y-51890129D01*
X2587463Y-52058104D01*
X2809148Y-52102200D01*
X2809152Y-52102200D01*
X2884000Y-52117088D01*
X2958848Y-52102200D01*
X4582953Y-52102200D01*
X4657800Y-52117088D01*
X4732647Y-52102200D01*
X4732652Y-52102200D01*
X4954337Y-52058104D01*
X5205729Y-51890129D01*
X5248131Y-51826670D01*
X5506805Y-51567997D01*
X6000000Y-51666100D01*
X6619410Y-51542891D01*
X7011491Y-51280912D01*
X7129691Y-51457809D01*
X7339735Y-51598157D01*
X7587500Y-51647440D01*
X9492500Y-51647440D01*
X9740265Y-51598157D01*
X9950309Y-51457809D01*
X10090657Y-51247765D01*
X10139940Y-51000000D01*
X10139940Y-49115600D01*
X11494853Y-49115600D01*
X11569700Y-49130488D01*
X11644547Y-49115600D01*
X11644552Y-49115600D01*
X11866237Y-49071504D01*
X12117629Y-48903529D01*
X12160031Y-48840070D01*
X13464351Y-47535750D01*
X14935000Y-47535750D01*
X14935000Y-48226309D01*
X15031673Y-48459698D01*
X15210301Y-48638327D01*
X15443690Y-48735000D01*
X16134250Y-48735000D01*
X16293000Y-48576250D01*
X16293000Y-47377000D01*
X15093750Y-47377000D01*
X14935000Y-47535750D01*
X13464351Y-47535750D01*
X14726410Y-46273691D01*
X14935000Y-46273691D01*
X14935000Y-46964250D01*
X15093750Y-47123000D01*
X16293000Y-47123000D01*
X16293000Y-45923750D01*
X16134250Y-45765000D01*
X15443690Y-45765000D01*
X15210301Y-45861673D01*
X15031673Y-46040302D01*
X14935000Y-46273691D01*
X14726410Y-46273691D01*
X21984473Y-39015629D01*
X22047929Y-38973229D01*
X22215904Y-38721837D01*
X22253571Y-38532474D01*
X22570625Y-38320625D01*
X22898839Y-37829418D01*
X23014092Y-37250000D01*
X22929296Y-36823700D01*
X25859798Y-36823700D01*
X25969400Y-36933302D01*
G36*
X37265001Y-65265000D02*
X31139722Y-65265000D01*
X31430625Y-65070625D01*
X31758839Y-64579418D01*
X31874092Y-64000000D01*
X31758839Y-63420582D01*
X31430625Y-62929375D01*
X30939418Y-62601161D01*
X30506256Y-62515000D01*
X30213744Y-62515000D01*
X29780582Y-62601161D01*
X29289375Y-62929375D01*
X29090000Y-63227761D01*
X28890625Y-62929375D01*
X28399418Y-62601161D01*
X27966256Y-62515000D01*
X27673744Y-62515000D01*
X27240582Y-62601161D01*
X26749375Y-62929375D01*
X26550000Y-63227761D01*
X26350625Y-62929375D01*
X25859418Y-62601161D01*
X25426256Y-62515000D01*
X25133744Y-62515000D01*
X24700582Y-62601161D01*
X24209375Y-62929375D01*
X23996157Y-63248478D01*
X23935183Y-63118642D01*
X23506924Y-62728355D01*
X23096890Y-62558524D01*
X22867000Y-62679845D01*
X22867000Y-63873000D01*
X22887000Y-63873000D01*
X22887000Y-64127000D01*
X22867000Y-64127000D01*
X22867000Y-64147000D01*
X22613000Y-64147000D01*
X22613000Y-64127000D01*
X22593000Y-64127000D01*
X22593000Y-63873000D01*
X22613000Y-63873000D01*
X22613000Y-62679845D01*
X22383110Y-62558524D01*
X21973076Y-62728355D01*
X21544817Y-63118642D01*
X21483843Y-63248478D01*
X21270625Y-62929375D01*
X20779418Y-62601161D01*
X20346256Y-62515000D01*
X20053744Y-62515000D01*
X19620582Y-62601161D01*
X19129375Y-62929375D01*
X18930000Y-63227761D01*
X18730625Y-62929375D01*
X18239418Y-62601161D01*
X17806256Y-62515000D01*
X17513744Y-62515000D01*
X17080582Y-62601161D01*
X16589375Y-62929375D01*
X16390000Y-63227761D01*
X16190625Y-62929375D01*
X15699418Y-62601161D01*
X15266256Y-62515000D01*
X14973744Y-62515000D01*
X14610000Y-62587353D01*
X14610000Y-61130201D01*
X20076212Y-55663990D01*
X20101161Y-55789418D01*
X20429375Y-56280625D01*
X20447619Y-56292816D01*
X20402235Y-56301843D01*
X20192191Y-56442191D01*
X20051843Y-56652235D01*
X20002560Y-56900000D01*
X20002560Y-58600000D01*
X20051843Y-58847765D01*
X20192191Y-59057809D01*
X20402235Y-59198157D01*
X20650000Y-59247440D01*
X22350000Y-59247440D01*
X22597765Y-59198157D01*
X22807809Y-59057809D01*
X22948157Y-58847765D01*
X22997440Y-58600000D01*
X22997440Y-56900000D01*
X22948157Y-56652235D01*
X22807809Y-56442191D01*
X22597765Y-56301843D01*
X22552381Y-56292816D01*
X22570625Y-56280625D01*
X22898839Y-55789418D01*
X23014092Y-55210000D01*
X22898839Y-54630582D01*
X22570625Y-54139375D01*
X22079418Y-53811161D01*
X21953990Y-53786212D01*
X29982273Y-45757929D01*
X30045729Y-45715529D01*
X30213704Y-45464137D01*
X30257800Y-45242452D01*
X30257800Y-45242447D01*
X30272688Y-45167600D01*
X30257800Y-45092753D01*
X30257800Y-15670184D01*
X30536630Y-15554689D01*
X31052509Y-15038810D01*
X31331700Y-14364781D01*
X31331700Y-13635219D01*
X31052509Y-12961190D01*
X30536630Y-12445311D01*
X29862601Y-12166120D01*
X29133039Y-12166120D01*
X28459010Y-12445311D01*
X28253800Y-12650521D01*
X28253800Y-9500499D01*
X28532570Y-9385029D01*
X29048449Y-8869150D01*
X29327640Y-8195121D01*
X29327640Y-7465559D01*
X29048449Y-6791530D01*
X28532570Y-6275651D01*
X27858541Y-5996460D01*
X27128979Y-5996460D01*
X26454950Y-6275651D01*
X25939071Y-6791530D01*
X25659880Y-7465559D01*
X25659880Y-8195121D01*
X25939071Y-8869150D01*
X26454950Y-9385029D01*
X26733801Y-9500532D01*
X26733800Y-16530253D01*
X26718912Y-16605100D01*
X26733800Y-16679947D01*
X26733800Y-16679951D01*
X26777896Y-16901636D01*
X26945871Y-17153029D01*
X27009330Y-17195431D01*
X28287401Y-18473503D01*
X28287401Y-18513419D01*
X27858541Y-18335780D01*
X27128979Y-18335780D01*
X26454950Y-18614971D01*
X25939071Y-19130850D01*
X25659880Y-19804879D01*
X25659880Y-20534441D01*
X25939071Y-21208470D01*
X26454950Y-21724349D01*
X26969701Y-21937565D01*
X26969700Y-35783999D01*
X26764931Y-35579229D01*
X26722529Y-35515771D01*
X26471137Y-35347796D01*
X26249452Y-35303700D01*
X26249447Y-35303700D01*
X26174600Y-35288812D01*
X26099753Y-35303700D01*
X21070447Y-35303700D01*
X20995600Y-35288812D01*
X20920753Y-35303700D01*
X20920748Y-35303700D01*
X20777260Y-35332242D01*
X22728073Y-33381429D01*
X22791529Y-33339029D01*
X22834524Y-33274682D01*
X22959504Y-33087638D01*
X22969080Y-33039495D01*
X23003600Y-32865952D01*
X23003600Y-32865948D01*
X23018488Y-32791100D01*
X23003600Y-32716252D01*
X23003600Y-5685427D01*
X23282390Y-5569949D01*
X23798269Y-5054070D01*
X24077460Y-4380041D01*
X24077460Y-3650479D01*
X23830984Y-3055431D01*
X28265000Y-3055431D01*
X28265000Y-3944569D01*
X28605259Y-4766026D01*
X29233974Y-5394741D01*
X30055431Y-5735000D01*
X30944569Y-5735000D01*
X31766026Y-5394741D01*
X32394741Y-4766026D01*
X32735000Y-3944569D01*
X32735000Y-3055431D01*
X32394741Y-2233974D01*
X31766026Y-1605259D01*
X30944569Y-1265000D01*
X30055431Y-1265000D01*
X29233974Y-1605259D01*
X28605259Y-2233974D01*
X28265000Y-3055431D01*
X23830984Y-3055431D01*
X23798269Y-2976450D01*
X23282390Y-2460571D01*
X22608361Y-2181380D01*
X21878799Y-2181380D01*
X21204770Y-2460571D01*
X20688891Y-2976450D01*
X20409700Y-3650479D01*
X20409700Y-4380041D01*
X20688891Y-5054070D01*
X21204770Y-5569949D01*
X21483601Y-5685444D01*
X21483601Y-13022784D01*
X21159507Y-12698690D01*
X20595330Y-12465000D01*
X19984670Y-12465000D01*
X19420493Y-12698690D01*
X19251275Y-12867908D01*
X19248157Y-12852235D01*
X19107809Y-12642191D01*
X18897765Y-12501843D01*
X18650000Y-12452560D01*
X16850000Y-12452560D01*
X16602235Y-12501843D01*
X16392191Y-12642191D01*
X16251843Y-12852235D01*
X16202560Y-13100000D01*
X16202560Y-14900000D01*
X16251843Y-15147765D01*
X16392191Y-15357809D01*
X16602235Y-15498157D01*
X16850000Y-15547440D01*
X18650000Y-15547440D01*
X18897765Y-15498157D01*
X19107809Y-15357809D01*
X19248157Y-15147765D01*
X19251275Y-15132092D01*
X19420493Y-15301310D01*
X19984670Y-15535000D01*
X20595330Y-15535000D01*
X21159507Y-15301310D01*
X21483601Y-14977216D01*
X21483600Y-32476298D01*
X18475528Y-35484371D01*
X18412072Y-35526771D01*
X18369672Y-35590227D01*
X18369671Y-35590228D01*
X18244097Y-35778163D01*
X18206430Y-35967525D01*
X17889375Y-36179375D01*
X17877184Y-36197619D01*
X17868157Y-36152235D01*
X17727809Y-35942191D01*
X17517765Y-35801843D01*
X17270000Y-35752560D01*
X15570000Y-35752560D01*
X15322235Y-35801843D01*
X15112191Y-35942191D01*
X14971843Y-36152235D01*
X14922560Y-36400000D01*
X14922560Y-38100000D01*
X14971843Y-38347765D01*
X15112191Y-38557809D01*
X15322235Y-38698157D01*
X15570000Y-38747440D01*
X15660000Y-38747440D01*
X15660001Y-42263597D01*
X12135000Y-45788599D01*
X12135000Y-29055431D01*
X16765000Y-29055431D01*
X16765000Y-29944569D01*
X17105259Y-30766026D01*
X17733974Y-31394741D01*
X18555431Y-31735000D01*
X19444569Y-31735000D01*
X20266026Y-31394741D01*
X20894741Y-30766026D01*
X21235000Y-29944569D01*
X21235000Y-29055431D01*
X20894741Y-28233974D01*
X20266026Y-27605259D01*
X19444569Y-27265000D01*
X18555431Y-27265000D01*
X17733974Y-27605259D01*
X17105259Y-28233974D01*
X16765000Y-29055431D01*
X12135000Y-29055431D01*
X12135000Y-27000000D01*
X12086664Y-26756996D01*
X11949013Y-26550987D01*
X11743004Y-26413336D01*
X11500000Y-26365000D01*
X735000Y-26365000D01*
X735000Y-23619959D01*
X13922540Y-23619959D01*
X13922540Y-24349521D01*
X14201731Y-25023550D01*
X14717610Y-25539429D01*
X15391639Y-25818620D01*
X16121201Y-25818620D01*
X16795230Y-25539429D01*
X17311109Y-25023550D01*
X17590300Y-24349521D01*
X17590300Y-23619959D01*
X17311109Y-22945930D01*
X16795230Y-22430051D01*
X16121201Y-22150860D01*
X15391639Y-22150860D01*
X14717610Y-22430051D01*
X14201731Y-22945930D01*
X13922540Y-23619959D01*
X735000Y-23619959D01*
X735000Y-19804879D01*
X8672360Y-19804879D01*
X8672360Y-20534441D01*
X8951551Y-21208470D01*
X9467430Y-21724349D01*
X10141459Y-22003540D01*
X10871021Y-22003540D01*
X11545050Y-21724349D01*
X12060929Y-21208470D01*
X12340120Y-20534441D01*
X12340120Y-19804879D01*
X12060929Y-19130850D01*
X11545050Y-18614971D01*
X10871021Y-18335780D01*
X10141459Y-18335780D01*
X9467430Y-18614971D01*
X8951551Y-19130850D01*
X8672360Y-19804879D01*
X735000Y-19804879D01*
X735000Y-13635219D01*
X6668300Y-13635219D01*
X6668300Y-14364781D01*
X6947491Y-15038810D01*
X7463370Y-15554689D01*
X8137399Y-15833880D01*
X8866961Y-15833880D01*
X9540990Y-15554689D01*
X10056869Y-15038810D01*
X10336060Y-14364781D01*
X10336060Y-13635219D01*
X10056869Y-12961190D01*
X9540990Y-12445311D01*
X8866961Y-12166120D01*
X8137399Y-12166120D01*
X7463370Y-12445311D01*
X6947491Y-12961190D01*
X6668300Y-13635219D01*
X735000Y-13635219D01*
X735000Y-7465559D01*
X8672360Y-7465559D01*
X8672360Y-8195121D01*
X8951551Y-8869150D01*
X9467430Y-9385029D01*
X10141459Y-9664220D01*
X10871021Y-9664220D01*
X11545050Y-9385029D01*
X12060929Y-8869150D01*
X12340120Y-8195121D01*
X12340120Y-7465559D01*
X12060929Y-6791530D01*
X11545050Y-6275651D01*
X10871021Y-5996460D01*
X10141459Y-5996460D01*
X9467430Y-6275651D01*
X8951551Y-6791530D01*
X8672360Y-7465559D01*
X735000Y-7465559D01*
X735000Y-3055431D01*
X5265000Y-3055431D01*
X5265000Y-3944569D01*
X5605259Y-4766026D01*
X6233974Y-5394741D01*
X7055431Y-5735000D01*
X7944569Y-5735000D01*
X8766026Y-5394741D01*
X9394741Y-4766026D01*
X9735000Y-3944569D01*
X9735000Y-3650479D01*
X13922540Y-3650479D01*
X13922540Y-4380041D01*
X14201731Y-5054070D01*
X14717610Y-5569949D01*
X15391639Y-5849140D01*
X16121201Y-5849140D01*
X16795230Y-5569949D01*
X17311109Y-5054070D01*
X17590300Y-4380041D01*
X17590300Y-3650479D01*
X17311109Y-2976450D01*
X16795230Y-2460571D01*
X16121201Y-2181380D01*
X15391639Y-2181380D01*
X14717610Y-2460571D01*
X14201731Y-2976450D01*
X13922540Y-3650479D01*
X9735000Y-3650479D01*
X9735000Y-3055431D01*
X9394741Y-2233974D01*
X8766026Y-1605259D01*
X7944569Y-1265000D01*
X7055431Y-1265000D01*
X6233974Y-1605259D01*
X5605259Y-2233974D01*
X5265000Y-3055431D01*
X735000Y-3055431D01*
X735000Y-735000D01*
X37265000Y-735000D01*
X37265001Y-65265000D01*
X37265001Y-65265000D01*
G37*
X37265001Y-65265000D02*
X31139722Y-65265000D01*
X31430625Y-65070625D01*
X31758839Y-64579418D01*
X31874092Y-64000000D01*
X31758839Y-63420582D01*
X31430625Y-62929375D01*
X30939418Y-62601161D01*
X30506256Y-62515000D01*
X30213744Y-62515000D01*
X29780582Y-62601161D01*
X29289375Y-62929375D01*
X29090000Y-63227761D01*
X28890625Y-62929375D01*
X28399418Y-62601161D01*
X27966256Y-62515000D01*
X27673744Y-62515000D01*
X27240582Y-62601161D01*
X26749375Y-62929375D01*
X26550000Y-63227761D01*
X26350625Y-62929375D01*
X25859418Y-62601161D01*
X25426256Y-62515000D01*
X25133744Y-62515000D01*
X24700582Y-62601161D01*
X24209375Y-62929375D01*
X23996157Y-63248478D01*
X23935183Y-63118642D01*
X23506924Y-62728355D01*
X23096890Y-62558524D01*
X22867000Y-62679845D01*
X22867000Y-63873000D01*
X22887000Y-63873000D01*
X22887000Y-64127000D01*
X22867000Y-64127000D01*
X22867000Y-64147000D01*
X22613000Y-64147000D01*
X22613000Y-64127000D01*
X22593000Y-64127000D01*
X22593000Y-63873000D01*
X22613000Y-63873000D01*
X22613000Y-62679845D01*
X22383110Y-62558524D01*
X21973076Y-62728355D01*
X21544817Y-63118642D01*
X21483843Y-63248478D01*
X21270625Y-62929375D01*
X20779418Y-62601161D01*
X20346256Y-62515000D01*
X20053744Y-62515000D01*
X19620582Y-62601161D01*
X19129375Y-62929375D01*
X18930000Y-63227761D01*
X18730625Y-62929375D01*
X18239418Y-62601161D01*
X17806256Y-62515000D01*
X17513744Y-62515000D01*
X17080582Y-62601161D01*
X16589375Y-62929375D01*
X16390000Y-63227761D01*
X16190625Y-62929375D01*
X15699418Y-62601161D01*
X15266256Y-62515000D01*
X14973744Y-62515000D01*
X14610000Y-62587353D01*
X14610000Y-61130201D01*
X20076212Y-55663990D01*
X20101161Y-55789418D01*
X20429375Y-56280625D01*
X20447619Y-56292816D01*
X20402235Y-56301843D01*
X20192191Y-56442191D01*
X20051843Y-56652235D01*
X20002560Y-56900000D01*
X20002560Y-58600000D01*
X20051843Y-58847765D01*
X20192191Y-59057809D01*
X20402235Y-59198157D01*
X20650000Y-59247440D01*
X22350000Y-59247440D01*
X22597765Y-59198157D01*
X22807809Y-59057809D01*
X22948157Y-58847765D01*
X22997440Y-58600000D01*
X22997440Y-56900000D01*
X22948157Y-56652235D01*
X22807809Y-56442191D01*
X22597765Y-56301843D01*
X22552381Y-56292816D01*
X22570625Y-56280625D01*
X22898839Y-55789418D01*
X23014092Y-55210000D01*
X22898839Y-54630582D01*
X22570625Y-54139375D01*
X22079418Y-53811161D01*
X21953990Y-53786212D01*
X29982273Y-45757929D01*
X30045729Y-45715529D01*
X30213704Y-45464137D01*
X30257800Y-45242452D01*
X30257800Y-45242447D01*
X30272688Y-45167600D01*
X30257800Y-45092753D01*
X30257800Y-15670184D01*
X30536630Y-15554689D01*
X31052509Y-15038810D01*
X31331700Y-14364781D01*
X31331700Y-13635219D01*
X31052509Y-12961190D01*
X30536630Y-12445311D01*
X29862601Y-12166120D01*
X29133039Y-12166120D01*
X28459010Y-12445311D01*
X28253800Y-12650521D01*
X28253800Y-9500499D01*
X28532570Y-9385029D01*
X29048449Y-8869150D01*
X29327640Y-8195121D01*
X29327640Y-7465559D01*
X29048449Y-6791530D01*
X28532570Y-6275651D01*
X27858541Y-5996460D01*
X27128979Y-5996460D01*
X26454950Y-6275651D01*
X25939071Y-6791530D01*
X25659880Y-7465559D01*
X25659880Y-8195121D01*
X25939071Y-8869150D01*
X26454950Y-9385029D01*
X26733801Y-9500532D01*
X26733800Y-16530253D01*
X26718912Y-16605100D01*
X26733800Y-16679947D01*
X26733800Y-16679951D01*
X26777896Y-16901636D01*
X26945871Y-17153029D01*
X27009330Y-17195431D01*
X28287401Y-18473503D01*
X28287401Y-18513419D01*
X27858541Y-18335780D01*
X27128979Y-18335780D01*
X26454950Y-18614971D01*
X25939071Y-19130850D01*
X25659880Y-19804879D01*
X25659880Y-20534441D01*
X25939071Y-21208470D01*
X26454950Y-21724349D01*
X26969701Y-21937565D01*
X26969700Y-35783999D01*
X26764931Y-35579229D01*
X26722529Y-35515771D01*
X26471137Y-35347796D01*
X26249452Y-35303700D01*
X26249447Y-35303700D01*
X26174600Y-35288812D01*
X26099753Y-35303700D01*
X21070447Y-35303700D01*
X20995600Y-35288812D01*
X20920753Y-35303700D01*
X20920748Y-35303700D01*
X20777260Y-35332242D01*
X22728073Y-33381429D01*
X22791529Y-33339029D01*
X22834524Y-33274682D01*
X22959504Y-33087638D01*
X22969080Y-33039495D01*
X23003600Y-32865952D01*
X23003600Y-32865948D01*
X23018488Y-32791100D01*
X23003600Y-32716252D01*
X23003600Y-5685427D01*
X23282390Y-5569949D01*
X23798269Y-5054070D01*
X24077460Y-4380041D01*
X24077460Y-3650479D01*
X23830984Y-3055431D01*
X28265000Y-3055431D01*
X28265000Y-3944569D01*
X28605259Y-4766026D01*
X29233974Y-5394741D01*
X30055431Y-5735000D01*
X30944569Y-5735000D01*
X31766026Y-5394741D01*
X32394741Y-4766026D01*
X32735000Y-3944569D01*
X32735000Y-3055431D01*
X32394741Y-2233974D01*
X31766026Y-1605259D01*
X30944569Y-1265000D01*
X30055431Y-1265000D01*
X29233974Y-1605259D01*
X28605259Y-2233974D01*
X28265000Y-3055431D01*
X23830984Y-3055431D01*
X23798269Y-2976450D01*
X23282390Y-2460571D01*
X22608361Y-2181380D01*
X21878799Y-2181380D01*
X21204770Y-2460571D01*
X20688891Y-2976450D01*
X20409700Y-3650479D01*
X20409700Y-4380041D01*
X20688891Y-5054070D01*
X21204770Y-5569949D01*
X21483601Y-5685444D01*
X21483601Y-13022784D01*
X21159507Y-12698690D01*
X20595330Y-12465000D01*
X19984670Y-12465000D01*
X19420493Y-12698690D01*
X19251275Y-12867908D01*
X19248157Y-12852235D01*
X19107809Y-12642191D01*
X18897765Y-12501843D01*
X18650000Y-12452560D01*
X16850000Y-12452560D01*
X16602235Y-12501843D01*
X16392191Y-12642191D01*
X16251843Y-12852235D01*
X16202560Y-13100000D01*
X16202560Y-14900000D01*
X16251843Y-15147765D01*
X16392191Y-15357809D01*
X16602235Y-15498157D01*
X16850000Y-15547440D01*
X18650000Y-15547440D01*
X18897765Y-15498157D01*
X19107809Y-15357809D01*
X19248157Y-15147765D01*
X19251275Y-15132092D01*
X19420493Y-15301310D01*
X19984670Y-15535000D01*
X20595330Y-15535000D01*
X21159507Y-15301310D01*
X21483601Y-14977216D01*
X21483600Y-32476298D01*
X18475528Y-35484371D01*
X18412072Y-35526771D01*
X18369672Y-35590227D01*
X18369671Y-35590228D01*
X18244097Y-35778163D01*
X18206430Y-35967525D01*
X17889375Y-36179375D01*
X17877184Y-36197619D01*
X17868157Y-36152235D01*
X17727809Y-35942191D01*
X17517765Y-35801843D01*
X17270000Y-35752560D01*
X15570000Y-35752560D01*
X15322235Y-35801843D01*
X15112191Y-35942191D01*
X14971843Y-36152235D01*
X14922560Y-36400000D01*
X14922560Y-38100000D01*
X14971843Y-38347765D01*
X15112191Y-38557809D01*
X15322235Y-38698157D01*
X15570000Y-38747440D01*
X15660000Y-38747440D01*
X15660001Y-42263597D01*
X12135000Y-45788599D01*
X12135000Y-29055431D01*
X16765000Y-29055431D01*
X16765000Y-29944569D01*
X17105259Y-30766026D01*
X17733974Y-31394741D01*
X18555431Y-31735000D01*
X19444569Y-31735000D01*
X20266026Y-31394741D01*
X20894741Y-30766026D01*
X21235000Y-29944569D01*
X21235000Y-29055431D01*
X20894741Y-28233974D01*
X20266026Y-27605259D01*
X19444569Y-27265000D01*
X18555431Y-27265000D01*
X17733974Y-27605259D01*
X17105259Y-28233974D01*
X16765000Y-29055431D01*
X12135000Y-29055431D01*
X12135000Y-27000000D01*
X12086664Y-26756996D01*
X11949013Y-26550987D01*
X11743004Y-26413336D01*
X11500000Y-26365000D01*
X735000Y-26365000D01*
X735000Y-23619959D01*
X13922540Y-23619959D01*
X13922540Y-24349521D01*
X14201731Y-25023550D01*
X14717610Y-25539429D01*
X15391639Y-25818620D01*
X16121201Y-25818620D01*
X16795230Y-25539429D01*
X17311109Y-25023550D01*
X17590300Y-24349521D01*
X17590300Y-23619959D01*
X17311109Y-22945930D01*
X16795230Y-22430051D01*
X16121201Y-22150860D01*
X15391639Y-22150860D01*
X14717610Y-22430051D01*
X14201731Y-22945930D01*
X13922540Y-23619959D01*
X735000Y-23619959D01*
X735000Y-19804879D01*
X8672360Y-19804879D01*
X8672360Y-20534441D01*
X8951551Y-21208470D01*
X9467430Y-21724349D01*
X10141459Y-22003540D01*
X10871021Y-22003540D01*
X11545050Y-21724349D01*
X12060929Y-21208470D01*
X12340120Y-20534441D01*
X12340120Y-19804879D01*
X12060929Y-19130850D01*
X11545050Y-18614971D01*
X10871021Y-18335780D01*
X10141459Y-18335780D01*
X9467430Y-18614971D01*
X8951551Y-19130850D01*
X8672360Y-19804879D01*
X735000Y-19804879D01*
X735000Y-13635219D01*
X6668300Y-13635219D01*
X6668300Y-14364781D01*
X6947491Y-15038810D01*
X7463370Y-15554689D01*
X8137399Y-15833880D01*
X8866961Y-15833880D01*
X9540990Y-15554689D01*
X10056869Y-15038810D01*
X10336060Y-14364781D01*
X10336060Y-13635219D01*
X10056869Y-12961190D01*
X9540990Y-12445311D01*
X8866961Y-12166120D01*
X8137399Y-12166120D01*
X7463370Y-12445311D01*
X6947491Y-12961190D01*
X6668300Y-13635219D01*
X735000Y-13635219D01*
X735000Y-7465559D01*
X8672360Y-7465559D01*
X8672360Y-8195121D01*
X8951551Y-8869150D01*
X9467430Y-9385029D01*
X10141459Y-9664220D01*
X10871021Y-9664220D01*
X11545050Y-9385029D01*
X12060929Y-8869150D01*
X12340120Y-8195121D01*
X12340120Y-7465559D01*
X12060929Y-6791530D01*
X11545050Y-6275651D01*
X10871021Y-5996460D01*
X10141459Y-5996460D01*
X9467430Y-6275651D01*
X8951551Y-6791530D01*
X8672360Y-7465559D01*
X735000Y-7465559D01*
X735000Y-3055431D01*
X5265000Y-3055431D01*
X5265000Y-3944569D01*
X5605259Y-4766026D01*
X6233974Y-5394741D01*
X7055431Y-5735000D01*
X7944569Y-5735000D01*
X8766026Y-5394741D01*
X9394741Y-4766026D01*
X9735000Y-3944569D01*
X9735000Y-3650479D01*
X13922540Y-3650479D01*
X13922540Y-4380041D01*
X14201731Y-5054070D01*
X14717610Y-5569949D01*
X15391639Y-5849140D01*
X16121201Y-5849140D01*
X16795230Y-5569949D01*
X17311109Y-5054070D01*
X17590300Y-4380041D01*
X17590300Y-3650479D01*
X17311109Y-2976450D01*
X16795230Y-2460571D01*
X16121201Y-2181380D01*
X15391639Y-2181380D01*
X14717610Y-2460571D01*
X14201731Y-2976450D01*
X13922540Y-3650479D01*
X9735000Y-3650479D01*
X9735000Y-3055431D01*
X9394741Y-2233974D01*
X8766026Y-1605259D01*
X7944569Y-1265000D01*
X7055431Y-1265000D01*
X6233974Y-1605259D01*
X5605259Y-2233974D01*
X5265000Y-3055431D01*
X735000Y-3055431D01*
X735000Y-735000D01*
X37265000Y-735000D01*
X37265001Y-65265000D01*
G04 #@! TO.N,/-12V.tb*
G36*
X11373000Y-46873000D02*
X735000Y-46873000D01*
X735000Y-33340000D01*
X3568276Y-33340000D01*
X3753380Y-34270580D01*
X4280511Y-35059489D01*
X5069420Y-35586620D01*
X5765103Y-35725000D01*
X6234897Y-35725000D01*
X6930580Y-35586620D01*
X7719489Y-35059489D01*
X8246620Y-34270580D01*
X8431724Y-33340000D01*
X8246620Y-32409420D01*
X7719489Y-31620511D01*
X6930580Y-31093380D01*
X6234897Y-30955000D01*
X5765103Y-30955000D01*
X5069420Y-31093380D01*
X4280511Y-31620511D01*
X3753380Y-32409420D01*
X3568276Y-33340000D01*
X735000Y-33340000D01*
X735000Y-27127000D01*
X11373000Y-27127000D01*
X11373000Y-46873000D01*
X11373000Y-46873000D01*
G37*
X11373000Y-46873000D02*
X735000Y-46873000D01*
X735000Y-33340000D01*
X3568276Y-33340000D01*
X3753380Y-34270580D01*
X4280511Y-35059489D01*
X5069420Y-35586620D01*
X5765103Y-35725000D01*
X6234897Y-35725000D01*
X6930580Y-35586620D01*
X7719489Y-35059489D01*
X8246620Y-34270580D01*
X8431724Y-33340000D01*
X8246620Y-32409420D01*
X7719489Y-31620511D01*
X6930580Y-31093380D01*
X6234897Y-30955000D01*
X5765103Y-30955000D01*
X5069420Y-31093380D01*
X4280511Y-31620511D01*
X3753380Y-32409420D01*
X3568276Y-33340000D01*
X735000Y-33340000D01*
X735000Y-27127000D01*
X11373000Y-27127000D01*
X11373000Y-46873000D01*
G04 #@! TD*
M02*
