G04 #@! TF.GenerationSoftware,KiCad,Pcbnew,(5.0.0)*
G04 #@! TF.CreationDate,2019-01-11T16:25:05+01:00*
G04 #@! TF.ProjectId,1u_complex_bus_mainboard,31755F636F6D706C65785F6275735F6D,rev?*
G04 #@! TF.SameCoordinates,Original*
G04 #@! TF.FileFunction,Copper,L2,Bot,Signal*
G04 #@! TF.FilePolarity,Positive*
%FSLAX46Y46*%
G04 Gerber Fmt 4.6, Leading zero omitted, Abs format (unit mm)*
G04 Created by KiCad (PCBNEW (5.0.0)) date 01/11/19 16:25:05*
%MOMM*%
%LPD*%
G01*
G04 APERTURE LIST*
G04 #@! TA.AperFunction,ComponentPad*
%ADD10R,1.700000X1.700000*%
G04 #@! TD*
G04 #@! TA.AperFunction,ComponentPad*
%ADD11O,1.700000X1.700000*%
G04 #@! TD*
G04 #@! TA.AperFunction,ComponentPad*
%ADD12R,1.200000X1.200000*%
G04 #@! TD*
G04 #@! TA.AperFunction,ComponentPad*
%ADD13C,1.200000*%
G04 #@! TD*
G04 #@! TA.AperFunction,ComponentPad*
%ADD14C,1.600000*%
G04 #@! TD*
G04 #@! TA.AperFunction,ComponentPad*
%ADD15O,2.200000X2.200000*%
G04 #@! TD*
G04 #@! TA.AperFunction,ComponentPad*
%ADD16R,2.200000X2.200000*%
G04 #@! TD*
G04 #@! TA.AperFunction,ComponentPad*
%ADD17O,1.600000X1.600000*%
G04 #@! TD*
G04 #@! TA.AperFunction,ComponentPad*
%ADD18R,1.600000X1.600000*%
G04 #@! TD*
G04 #@! TA.AperFunction,ViaPad*
%ADD19C,0.800000*%
G04 #@! TD*
G04 #@! TA.AperFunction,Conductor*
%ADD20C,0.250000*%
G04 #@! TD*
G04 #@! TA.AperFunction,Conductor*
%ADD21C,0.254000*%
G04 #@! TD*
G04 APERTURE END LIST*
D10*
G04 #@! TO.P,J_PWR1,1*
G04 #@! TO.N,Net-(D2-Pad2)*
X26250000Y-15000000D03*
D11*
G04 #@! TO.P,J_PWR1,2*
X28790000Y-15000000D03*
G04 #@! TO.P,J_PWR1,3*
G04 #@! TO.N,GND*
X26250000Y-12460000D03*
G04 #@! TO.P,J_PWR1,4*
X28790000Y-12460000D03*
G04 #@! TO.P,J_PWR1,5*
X26250000Y-9920000D03*
G04 #@! TO.P,J_PWR1,6*
X28790000Y-9920000D03*
G04 #@! TO.P,J_PWR1,7*
X26250000Y-7380000D03*
G04 #@! TO.P,J_PWR1,8*
X28790000Y-7380000D03*
G04 #@! TO.P,J_PWR1,9*
G04 #@! TO.N,Net-(D1-Pad1)*
X26250000Y-4840000D03*
G04 #@! TO.P,J_PWR1,10*
X28790000Y-4840000D03*
G04 #@! TD*
D12*
G04 #@! TO.P,C1,1*
G04 #@! TO.N,+12V*
X51000000Y-16500000D03*
D13*
G04 #@! TO.P,C1,2*
G04 #@! TO.N,GND*
X53000000Y-16500000D03*
G04 #@! TD*
G04 #@! TO.P,C2,2*
G04 #@! TO.N,-12V*
X53000000Y-3500000D03*
D12*
G04 #@! TO.P,C2,1*
G04 #@! TO.N,GND*
X51000000Y-3500000D03*
G04 #@! TD*
D14*
G04 #@! TO.P,C3,1*
G04 #@! TO.N,+12V*
X52000000Y-12000000D03*
G04 #@! TO.P,C3,2*
G04 #@! TO.N,GND*
X57000000Y-12000000D03*
G04 #@! TD*
G04 #@! TO.P,C4,2*
G04 #@! TO.N,-12V*
X52000000Y-8000000D03*
G04 #@! TO.P,C4,1*
G04 #@! TO.N,GND*
X57000000Y-8000000D03*
G04 #@! TD*
D15*
G04 #@! TO.P,D1,2*
G04 #@! TO.N,GND*
X46660000Y-12000000D03*
D16*
G04 #@! TO.P,D1,1*
G04 #@! TO.N,Net-(D1-Pad1)*
X36500000Y-12000000D03*
G04 #@! TD*
G04 #@! TO.P,D2,1*
G04 #@! TO.N,GND*
X36500000Y-7500000D03*
D15*
G04 #@! TO.P,D2,2*
G04 #@! TO.N,Net-(D2-Pad2)*
X46660000Y-7500000D03*
G04 #@! TD*
D14*
G04 #@! TO.P,R_FUSE_1,1*
G04 #@! TO.N,+12V*
X46000000Y-16500000D03*
D17*
G04 #@! TO.P,R_FUSE_1,2*
G04 #@! TO.N,Net-(D1-Pad1)*
X38380000Y-16500000D03*
G04 #@! TD*
G04 #@! TO.P,R_FUSE_2,2*
G04 #@! TO.N,Net-(D2-Pad2)*
X38380000Y-3500000D03*
D14*
G04 #@! TO.P,R_FUSE_2,1*
G04 #@! TO.N,-12V*
X46000000Y-3500000D03*
G04 #@! TD*
G04 #@! TO.P,C5,2*
G04 #@! TO.N,Net-(C5-Pad2)*
X127000000Y-15000000D03*
G04 #@! TO.P,C5,1*
G04 #@! TO.N,/cv_bus1/LEDS_OUT_1*
X122000000Y-15000000D03*
G04 #@! TD*
G04 #@! TO.P,C6,1*
G04 #@! TO.N,/cv_bus2/LEDS_OUT_2*
X198400000Y-15000000D03*
G04 #@! TO.P,C6,2*
G04 #@! TO.N,Net-(C6-Pad2)*
X203400000Y-15000000D03*
G04 #@! TD*
G04 #@! TO.P,C7,2*
G04 #@! TO.N,Net-(C7-Pad2)*
X321400000Y-14600000D03*
G04 #@! TO.P,C7,1*
G04 #@! TO.N,Net-(C7-Pad1)*
X316400000Y-14600000D03*
G04 #@! TD*
G04 #@! TO.P,C8,1*
G04 #@! TO.N,/cv_bus4/LEDS_OUT_4*
X394600000Y-14200000D03*
G04 #@! TO.P,C8,2*
G04 #@! TO.N,Net-(C8-Pad2)*
X399600000Y-14200000D03*
G04 #@! TD*
D10*
G04 #@! TO.P,J_MB1,1*
G04 #@! TO.N,/cv_bus1/IN_1_1*
X5000000Y-4000000D03*
D11*
G04 #@! TO.P,J_MB1,2*
G04 #@! TO.N,/cv_bus1/IN_1_2*
X5000000Y-6540000D03*
G04 #@! TO.P,J_MB1,3*
G04 #@! TO.N,/cv_bus1/IN_1_3*
X7540000Y-4000000D03*
G04 #@! TO.P,J_MB1,4*
G04 #@! TO.N,/cv_bus1/IN_1_4*
X7540000Y-6540000D03*
G04 #@! TO.P,J_MB1,5*
G04 #@! TO.N,/cv_bus1/OUT_1_1*
X10080000Y-4000000D03*
G04 #@! TO.P,J_MB1,6*
G04 #@! TO.N,/cv_bus1/OUT_1_2*
X10080000Y-6540000D03*
G04 #@! TO.P,J_MB1,7*
G04 #@! TO.N,/cv_bus1/OUT_1_3*
X12620000Y-4000000D03*
G04 #@! TO.P,J_MB1,8*
G04 #@! TO.N,/cv_bus1/OUT_1_4*
X12620000Y-6540000D03*
G04 #@! TO.P,J_MB1,9*
G04 #@! TO.N,/cv_bus1/LEDS_IN_1*
X15160000Y-4000000D03*
G04 #@! TO.P,J_MB1,10*
G04 #@! TO.N,/cv_bus1/LEDS_OUT_1*
X15160000Y-6540000D03*
G04 #@! TO.P,J_MB1,11*
G04 #@! TO.N,N/C*
X17700000Y-4000000D03*
G04 #@! TO.P,J_MB1,12*
G04 #@! TO.N,GND*
X17700000Y-6540000D03*
G04 #@! TD*
D10*
G04 #@! TO.P,J_MB2,1*
G04 #@! TO.N,/cv_bus2/IN_2_1*
X5000000Y-13500000D03*
D11*
G04 #@! TO.P,J_MB2,2*
G04 #@! TO.N,/cv_bus2/IN_2_2*
X5000000Y-16040000D03*
G04 #@! TO.P,J_MB2,3*
G04 #@! TO.N,/cv_bus2/IN_2_3*
X7540000Y-13500000D03*
G04 #@! TO.P,J_MB2,4*
G04 #@! TO.N,/cv_bus2/IN_2_4*
X7540000Y-16040000D03*
G04 #@! TO.P,J_MB2,5*
G04 #@! TO.N,/cv_bus2/OUT_2_1*
X10080000Y-13500000D03*
G04 #@! TO.P,J_MB2,6*
G04 #@! TO.N,/cv_bus2/OUT_2_2*
X10080000Y-16040000D03*
G04 #@! TO.P,J_MB2,7*
G04 #@! TO.N,/cv_bus2/OUT_2_3*
X12620000Y-13500000D03*
G04 #@! TO.P,J_MB2,8*
G04 #@! TO.N,/cv_bus2/OUT_2_4*
X12620000Y-16040000D03*
G04 #@! TO.P,J_MB2,9*
G04 #@! TO.N,/cv_bus2/LEDS_IN_2*
X15160000Y-13500000D03*
G04 #@! TO.P,J_MB2,10*
G04 #@! TO.N,/cv_bus2/LEDS_OUT_2*
X15160000Y-16040000D03*
G04 #@! TD*
D10*
G04 #@! TO.P,J_MB3,1*
G04 #@! TO.N,/cv_bus3/IN_3_1*
X510000000Y-13500000D03*
D11*
G04 #@! TO.P,J_MB3,2*
G04 #@! TO.N,/cv_bus3/IN_3_2*
X510000000Y-16040000D03*
G04 #@! TO.P,J_MB3,3*
G04 #@! TO.N,/cv_bus3/IN_3_3*
X512540000Y-13500000D03*
G04 #@! TO.P,J_MB3,4*
G04 #@! TO.N,/cv_bus3/IN_3_4*
X512540000Y-16040000D03*
G04 #@! TO.P,J_MB3,5*
G04 #@! TO.N,/cv_bus3/OUT_3_1*
X515080000Y-13500000D03*
G04 #@! TO.P,J_MB3,6*
G04 #@! TO.N,/cv_bus3/OUT_3_2*
X515080000Y-16040000D03*
G04 #@! TO.P,J_MB3,7*
G04 #@! TO.N,/cv_bus3/OUT_3_3*
X517620000Y-13500000D03*
G04 #@! TO.P,J_MB3,8*
G04 #@! TO.N,/cv_bus3/OUT_3_4*
X517620000Y-16040000D03*
G04 #@! TO.P,J_MB3,9*
G04 #@! TO.N,/cv_bus3/LEDS_IN_3*
X520160000Y-13500000D03*
G04 #@! TO.P,J_MB3,10*
G04 #@! TO.N,/cv_bus3/LEDS_OUT_3*
X520160000Y-16040000D03*
G04 #@! TD*
G04 #@! TO.P,J_MB4,10*
G04 #@! TO.N,/cv_bus4/LEDS_OUT_4*
X520160000Y-6540000D03*
G04 #@! TO.P,J_MB4,9*
G04 #@! TO.N,/cv_bus4/LEDS_IN_4*
X520160000Y-4000000D03*
G04 #@! TO.P,J_MB4,8*
G04 #@! TO.N,/cv_bus4/OUT_4_4*
X517620000Y-6540000D03*
G04 #@! TO.P,J_MB4,7*
G04 #@! TO.N,/cv_bus4/OUT_4_3*
X517620000Y-4000000D03*
G04 #@! TO.P,J_MB4,6*
G04 #@! TO.N,/cv_bus4/OUT_4_2*
X515080000Y-6540000D03*
G04 #@! TO.P,J_MB4,5*
G04 #@! TO.N,/cv_bus4/OUT_4_1*
X515080000Y-4000000D03*
G04 #@! TO.P,J_MB4,4*
G04 #@! TO.N,/cv_bus4/IN_4_4*
X512540000Y-6540000D03*
G04 #@! TO.P,J_MB4,3*
G04 #@! TO.N,/cv_bus4/IN_4_3*
X512540000Y-4000000D03*
G04 #@! TO.P,J_MB4,2*
G04 #@! TO.N,/cv_bus4/IN_4_2*
X510000000Y-6540000D03*
D10*
G04 #@! TO.P,J_MB4,1*
G04 #@! TO.N,/cv_bus4/IN_4_1*
X510000000Y-4000000D03*
G04 #@! TD*
D14*
G04 #@! TO.P,R1,1*
G04 #@! TO.N,Net-(R1-Pad1)*
X103000000Y-16200000D03*
D17*
G04 #@! TO.P,R1,2*
G04 #@! TO.N,Net-(R1-Pad2)*
X95380000Y-16200000D03*
G04 #@! TD*
D14*
G04 #@! TO.P,R2,1*
G04 #@! TO.N,Net-(C5-Pad2)*
X106000000Y-16200000D03*
D17*
G04 #@! TO.P,R2,2*
G04 #@! TO.N,/cv_bus1/LEDS_OUT_1*
X113620000Y-16200000D03*
G04 #@! TD*
D14*
G04 #@! TO.P,R3,1*
G04 #@! TO.N,Net-(R3-Pad1)*
X178800000Y-16400000D03*
D17*
G04 #@! TO.P,R3,2*
G04 #@! TO.N,Net-(R3-Pad2)*
X171180000Y-16400000D03*
G04 #@! TD*
D14*
G04 #@! TO.P,R4,1*
G04 #@! TO.N,Net-(C6-Pad2)*
X182200000Y-16200000D03*
D17*
G04 #@! TO.P,R4,2*
G04 #@! TO.N,/cv_bus2/LEDS_OUT_2*
X189820000Y-16200000D03*
G04 #@! TD*
G04 #@! TO.P,R5,2*
G04 #@! TO.N,Net-(R5-Pad2)*
X291580000Y-16600000D03*
D14*
G04 #@! TO.P,R5,1*
G04 #@! TO.N,Net-(R5-Pad1)*
X299200000Y-16600000D03*
G04 #@! TD*
G04 #@! TO.P,R6,1*
G04 #@! TO.N,Net-(C7-Pad2)*
X302600000Y-16600000D03*
D17*
G04 #@! TO.P,R6,2*
G04 #@! TO.N,Net-(C7-Pad1)*
X310220000Y-16600000D03*
G04 #@! TD*
G04 #@! TO.P,R7,2*
G04 #@! TO.N,Net-(R7-Pad2)*
X370000000Y-16400000D03*
D14*
G04 #@! TO.P,R7,1*
G04 #@! TO.N,Net-(R7-Pad1)*
X377620000Y-16400000D03*
G04 #@! TD*
D17*
G04 #@! TO.P,R8,2*
G04 #@! TO.N,/cv_bus4/LEDS_OUT_4*
X388420000Y-16400000D03*
D14*
G04 #@! TO.P,R8,1*
G04 #@! TO.N,Net-(C8-Pad2)*
X380800000Y-16400000D03*
G04 #@! TD*
D17*
G04 #@! TO.P,R_IN_1,2*
G04 #@! TO.N,Net-(R1-Pad1)*
X133500000Y-1380000D03*
D14*
G04 #@! TO.P,R_IN_1,1*
G04 #@! TO.N,/cv_bus1/IN_1_1*
X133500000Y-9000000D03*
G04 #@! TD*
G04 #@! TO.P,R_IN_2,1*
G04 #@! TO.N,/cv_bus1/IN_1_2*
X138200000Y-9000000D03*
D17*
G04 #@! TO.P,R_IN_2,2*
G04 #@! TO.N,Net-(R1-Pad1)*
X138200000Y-1380000D03*
G04 #@! TD*
D14*
G04 #@! TO.P,R_IN_3,1*
G04 #@! TO.N,/cv_bus1/IN_1_3*
X143000000Y-9000000D03*
D17*
G04 #@! TO.P,R_IN_3,2*
G04 #@! TO.N,Net-(R1-Pad1)*
X143000000Y-1380000D03*
G04 #@! TD*
G04 #@! TO.P,R_IN_4,2*
G04 #@! TO.N,Net-(R1-Pad1)*
X147800000Y-1380000D03*
D14*
G04 #@! TO.P,R_IN_4,1*
G04 #@! TO.N,/cv_bus1/IN_1_4*
X147800000Y-9000000D03*
G04 #@! TD*
D17*
G04 #@! TO.P,R_IN_5,2*
G04 #@! TO.N,Net-(C5-Pad2)*
X152400000Y-1380000D03*
D14*
G04 #@! TO.P,R_IN_5,1*
G04 #@! TO.N,Net-(R1-Pad2)*
X152400000Y-9000000D03*
G04 #@! TD*
D17*
G04 #@! TO.P,R_IN_6,2*
G04 #@! TO.N,Net-(R3-Pad1)*
X212400000Y-1380000D03*
D14*
G04 #@! TO.P,R_IN_6,1*
G04 #@! TO.N,/cv_bus2/IN_2_1*
X212400000Y-9000000D03*
G04 #@! TD*
G04 #@! TO.P,R_IN_7,1*
G04 #@! TO.N,/cv_bus2/IN_2_2*
X217000000Y-9000000D03*
D17*
G04 #@! TO.P,R_IN_7,2*
G04 #@! TO.N,Net-(R3-Pad1)*
X217000000Y-1380000D03*
G04 #@! TD*
G04 #@! TO.P,R_IN_8,2*
G04 #@! TO.N,Net-(R3-Pad1)*
X221800000Y-1380000D03*
D14*
G04 #@! TO.P,R_IN_8,1*
G04 #@! TO.N,/cv_bus2/IN_2_3*
X221800000Y-9000000D03*
G04 #@! TD*
G04 #@! TO.P,R_IN_9,1*
G04 #@! TO.N,/cv_bus2/IN_2_4*
X226600000Y-9000000D03*
D17*
G04 #@! TO.P,R_IN_9,2*
G04 #@! TO.N,Net-(R3-Pad1)*
X226600000Y-1380000D03*
G04 #@! TD*
G04 #@! TO.P,R_IN_10,2*
G04 #@! TO.N,Net-(C6-Pad2)*
X231200000Y-1380000D03*
D14*
G04 #@! TO.P,R_IN_10,1*
G04 #@! TO.N,Net-(R3-Pad2)*
X231200000Y-9000000D03*
G04 #@! TD*
D17*
G04 #@! TO.P,R_IN_11,2*
G04 #@! TO.N,Net-(R5-Pad1)*
X329600000Y-1380000D03*
D14*
G04 #@! TO.P,R_IN_11,1*
G04 #@! TO.N,/cv_bus3/IN_3_1*
X329600000Y-9000000D03*
G04 #@! TD*
D17*
G04 #@! TO.P,R_IN_12,2*
G04 #@! TO.N,Net-(R5-Pad1)*
X334400000Y-1380000D03*
D14*
G04 #@! TO.P,R_IN_12,1*
G04 #@! TO.N,/cv_bus3/IN_3_2*
X334400000Y-9000000D03*
G04 #@! TD*
G04 #@! TO.P,R_IN_13,1*
G04 #@! TO.N,/cv_bus3/IN_3_3*
X339200000Y-9000000D03*
D17*
G04 #@! TO.P,R_IN_13,2*
G04 #@! TO.N,Net-(R5-Pad1)*
X339200000Y-1380000D03*
G04 #@! TD*
G04 #@! TO.P,R_IN_14,2*
G04 #@! TO.N,Net-(R5-Pad1)*
X344000000Y-1380000D03*
D14*
G04 #@! TO.P,R_IN_14,1*
G04 #@! TO.N,/cv_bus3/IN_3_4*
X344000000Y-9000000D03*
G04 #@! TD*
G04 #@! TO.P,R_IN_15,1*
G04 #@! TO.N,Net-(R5-Pad2)*
X348800000Y-9000000D03*
D17*
G04 #@! TO.P,R_IN_15,2*
G04 #@! TO.N,Net-(C7-Pad2)*
X348800000Y-1380000D03*
G04 #@! TD*
D14*
G04 #@! TO.P,R_IN_16,1*
G04 #@! TO.N,/cv_bus4/IN_4_1*
X407400000Y-9000000D03*
D17*
G04 #@! TO.P,R_IN_16,2*
G04 #@! TO.N,Net-(R7-Pad1)*
X407400000Y-1380000D03*
G04 #@! TD*
G04 #@! TO.P,R_IN_17,2*
G04 #@! TO.N,Net-(R7-Pad1)*
X412200000Y-1380000D03*
D14*
G04 #@! TO.P,R_IN_17,1*
G04 #@! TO.N,/cv_bus4/IN_4_2*
X412200000Y-9000000D03*
G04 #@! TD*
G04 #@! TO.P,R_IN_18,1*
G04 #@! TO.N,/cv_bus4/IN_4_3*
X417000000Y-9000000D03*
D17*
G04 #@! TO.P,R_IN_18,2*
G04 #@! TO.N,Net-(R7-Pad1)*
X417000000Y-1380000D03*
G04 #@! TD*
G04 #@! TO.P,R_IN_19,2*
G04 #@! TO.N,Net-(R7-Pad1)*
X421800000Y-1380000D03*
D14*
G04 #@! TO.P,R_IN_19,1*
G04 #@! TO.N,/cv_bus4/IN_4_4*
X421800000Y-9000000D03*
G04 #@! TD*
G04 #@! TO.P,R_IN_20,1*
G04 #@! TO.N,Net-(R7-Pad2)*
X426600000Y-9000000D03*
D17*
G04 #@! TO.P,R_IN_20,2*
G04 #@! TO.N,Net-(C8-Pad2)*
X426600000Y-1380000D03*
G04 #@! TD*
D14*
G04 #@! TO.P,R_LED_1_1,1*
G04 #@! TO.N,GND*
X155000000Y-18620000D03*
D17*
G04 #@! TO.P,R_LED_1_1,2*
G04 #@! TO.N,/cv_bus1/LEDS_OUT_1*
X155000000Y-11000000D03*
G04 #@! TD*
D14*
G04 #@! TO.P,R_LED_2_1,1*
G04 #@! TO.N,GND*
X233800000Y-18600000D03*
D17*
G04 #@! TO.P,R_LED_2_1,2*
G04 #@! TO.N,/cv_bus2/LEDS_OUT_2*
X233800000Y-10980000D03*
G04 #@! TD*
G04 #@! TO.P,R_LED_3_1,2*
G04 #@! TO.N,/cv_bus3/LEDS_OUT_3*
X351200000Y-10980000D03*
D14*
G04 #@! TO.P,R_LED_3_1,1*
G04 #@! TO.N,GND*
X351200000Y-18600000D03*
G04 #@! TD*
G04 #@! TO.P,R_LED_4_1,1*
G04 #@! TO.N,GND*
X429000000Y-18600000D03*
D17*
G04 #@! TO.P,R_LED_4_1,2*
G04 #@! TO.N,/cv_bus4/LEDS_OUT_4*
X429000000Y-10980000D03*
G04 #@! TD*
D14*
G04 #@! TO.P,R_OUT_1,1*
G04 #@! TO.N,/cv_bus1/LEDS_OUT_1*
X135800000Y-18620000D03*
D17*
G04 #@! TO.P,R_OUT_1,2*
G04 #@! TO.N,/cv_bus1/OUT_1_1*
X135800000Y-11000000D03*
G04 #@! TD*
G04 #@! TO.P,R_OUT_2,2*
G04 #@! TO.N,/cv_bus1/OUT_1_2*
X140600000Y-11000000D03*
D14*
G04 #@! TO.P,R_OUT_2,1*
G04 #@! TO.N,/cv_bus1/LEDS_OUT_1*
X140600000Y-18620000D03*
G04 #@! TD*
G04 #@! TO.P,R_OUT_3,1*
G04 #@! TO.N,/cv_bus1/LEDS_OUT_1*
X145600000Y-18620000D03*
D17*
G04 #@! TO.P,R_OUT_3,2*
G04 #@! TO.N,/cv_bus1/OUT_1_3*
X145600000Y-11000000D03*
G04 #@! TD*
G04 #@! TO.P,R_OUT_4,2*
G04 #@! TO.N,/cv_bus1/OUT_1_4*
X150200000Y-11000000D03*
D14*
G04 #@! TO.P,R_OUT_4,1*
G04 #@! TO.N,/cv_bus1/LEDS_OUT_1*
X150200000Y-18620000D03*
G04 #@! TD*
G04 #@! TO.P,R_OUT_5,1*
G04 #@! TO.N,/cv_bus2/LEDS_OUT_2*
X214600000Y-18600000D03*
D17*
G04 #@! TO.P,R_OUT_5,2*
G04 #@! TO.N,/cv_bus2/OUT_2_1*
X214600000Y-10980000D03*
G04 #@! TD*
G04 #@! TO.P,R_OUT_6,2*
G04 #@! TO.N,/cv_bus2/OUT_2_2*
X219400000Y-10980000D03*
D14*
G04 #@! TO.P,R_OUT_6,1*
G04 #@! TO.N,/cv_bus2/LEDS_OUT_2*
X219400000Y-18600000D03*
G04 #@! TD*
G04 #@! TO.P,R_OUT_7,1*
G04 #@! TO.N,/cv_bus2/LEDS_OUT_2*
X224200000Y-18600000D03*
D17*
G04 #@! TO.P,R_OUT_7,2*
G04 #@! TO.N,/cv_bus2/OUT_2_3*
X224200000Y-10980000D03*
G04 #@! TD*
G04 #@! TO.P,R_OUT_8,2*
G04 #@! TO.N,/cv_bus2/OUT_2_4*
X229000000Y-10980000D03*
D14*
G04 #@! TO.P,R_OUT_8,1*
G04 #@! TO.N,/cv_bus2/LEDS_OUT_2*
X229000000Y-18600000D03*
G04 #@! TD*
G04 #@! TO.P,R_OUT_9,1*
G04 #@! TO.N,Net-(C7-Pad1)*
X332000000Y-18600000D03*
D17*
G04 #@! TO.P,R_OUT_9,2*
G04 #@! TO.N,/cv_bus3/OUT_3_1*
X332000000Y-10980000D03*
G04 #@! TD*
G04 #@! TO.P,R_OUT_10,2*
G04 #@! TO.N,/cv_bus3/OUT_3_2*
X336800000Y-10980000D03*
D14*
G04 #@! TO.P,R_OUT_10,1*
G04 #@! TO.N,Net-(C7-Pad1)*
X336800000Y-18600000D03*
G04 #@! TD*
D17*
G04 #@! TO.P,R_OUT_11,2*
G04 #@! TO.N,/cv_bus3/OUT_3_3*
X341600000Y-10980000D03*
D14*
G04 #@! TO.P,R_OUT_11,1*
G04 #@! TO.N,Net-(C7-Pad1)*
X341600000Y-18600000D03*
G04 #@! TD*
D17*
G04 #@! TO.P,R_OUT_12,2*
G04 #@! TO.N,/cv_bus3/OUT_3_4*
X346400000Y-10980000D03*
D14*
G04 #@! TO.P,R_OUT_12,1*
G04 #@! TO.N,Net-(C7-Pad1)*
X346400000Y-18600000D03*
G04 #@! TD*
G04 #@! TO.P,R_OUT_13,1*
G04 #@! TO.N,/cv_bus4/LEDS_OUT_4*
X409800000Y-18600000D03*
D17*
G04 #@! TO.P,R_OUT_13,2*
G04 #@! TO.N,/cv_bus4/OUT_4_1*
X409800000Y-10980000D03*
G04 #@! TD*
G04 #@! TO.P,R_OUT_14,2*
G04 #@! TO.N,/cv_bus4/OUT_4_2*
X414600000Y-10980000D03*
D14*
G04 #@! TO.P,R_OUT_14,1*
G04 #@! TO.N,/cv_bus4/LEDS_OUT_4*
X414600000Y-18600000D03*
G04 #@! TD*
G04 #@! TO.P,R_OUT_15,1*
G04 #@! TO.N,/cv_bus4/LEDS_OUT_4*
X419400000Y-18600000D03*
D17*
G04 #@! TO.P,R_OUT_15,2*
G04 #@! TO.N,/cv_bus4/OUT_4_3*
X419400000Y-10980000D03*
G04 #@! TD*
G04 #@! TO.P,R_OUT_16,2*
G04 #@! TO.N,/cv_bus4/OUT_4_4*
X424200000Y-10980000D03*
D14*
G04 #@! TO.P,R_OUT_16,1*
G04 #@! TO.N,/cv_bus4/LEDS_OUT_4*
X424200000Y-18600000D03*
G04 #@! TD*
D17*
G04 #@! TO.P,R_Split_1_1,2*
G04 #@! TO.N,Net-(R_Split_1_1-Pad2)*
X128120000Y-3500000D03*
D14*
G04 #@! TO.P,R_Split_1_1,1*
G04 #@! TO.N,/cv_bus1/LEDS_OUT_1*
X120500000Y-3500000D03*
G04 #@! TD*
D17*
G04 #@! TO.P,R_Split_1_2,2*
G04 #@! TO.N,Net-(R_Split_1_1-Pad2)*
X128120000Y-8500000D03*
D14*
G04 #@! TO.P,R_Split_1_2,1*
G04 #@! TO.N,GND*
X120500000Y-8500000D03*
G04 #@! TD*
G04 #@! TO.P,R_Split_2_1,1*
G04 #@! TO.N,/cv_bus2/LEDS_OUT_2*
X197000000Y-3400000D03*
D17*
G04 #@! TO.P,R_Split_2_1,2*
G04 #@! TO.N,Net-(R_Split_2_1-Pad2)*
X204620000Y-3400000D03*
G04 #@! TD*
D14*
G04 #@! TO.P,R_Split_2_2,1*
G04 #@! TO.N,GND*
X197000000Y-8400000D03*
D17*
G04 #@! TO.P,R_Split_2_2,2*
G04 #@! TO.N,Net-(R_Split_2_1-Pad2)*
X204620000Y-8400000D03*
G04 #@! TD*
D14*
G04 #@! TO.P,R_Split_3_1,1*
G04 #@! TO.N,Net-(C7-Pad1)*
X315200000Y-3400000D03*
D17*
G04 #@! TO.P,R_Split_3_1,2*
G04 #@! TO.N,Net-(R_Split_3_1-Pad2)*
X322820000Y-3400000D03*
G04 #@! TD*
D14*
G04 #@! TO.P,R_Split_3_2,1*
G04 #@! TO.N,GND*
X315200000Y-8400000D03*
D17*
G04 #@! TO.P,R_Split_3_2,2*
G04 #@! TO.N,Net-(R_Split_3_1-Pad2)*
X322820000Y-8400000D03*
G04 #@! TD*
G04 #@! TO.P,R_Split_4_1,2*
G04 #@! TO.N,Net-(R_Split_4_1-Pad2)*
X400820000Y-3400000D03*
D14*
G04 #@! TO.P,R_Split_4_1,1*
G04 #@! TO.N,/cv_bus4/LEDS_OUT_4*
X393200000Y-3400000D03*
G04 #@! TD*
D17*
G04 #@! TO.P,R_Split_4_2,2*
G04 #@! TO.N,Net-(R_Split_4_1-Pad2)*
X401020000Y-8000000D03*
D14*
G04 #@! TO.P,R_Split_4_2,1*
G04 #@! TO.N,GND*
X393400000Y-8000000D03*
G04 #@! TD*
D18*
G04 #@! TO.P,U1,1*
G04 #@! TO.N,Net-(R1-Pad2)*
X95600000Y-11000000D03*
D17*
G04 #@! TO.P,U1,8*
G04 #@! TO.N,/cv_bus1/LEDS_IN_1*
X110840000Y-3380000D03*
G04 #@! TO.P,U1,2*
G04 #@! TO.N,Net-(R1-Pad1)*
X98140000Y-11000000D03*
G04 #@! TO.P,U1,9*
G04 #@! TO.N,/cv_bus1/LEDS_OUT_1*
X108300000Y-3380000D03*
G04 #@! TO.P,U1,3*
G04 #@! TO.N,GND*
X100680000Y-11000000D03*
G04 #@! TO.P,U1,10*
G04 #@! TO.N,Net-(R_Split_1_1-Pad2)*
X105760000Y-3380000D03*
G04 #@! TO.P,U1,4*
G04 #@! TO.N,+12V*
X103220000Y-11000000D03*
G04 #@! TO.P,U1,11*
G04 #@! TO.N,-12V*
X103220000Y-3380000D03*
G04 #@! TO.P,U1,5*
G04 #@! TO.N,GND*
X105760000Y-11000000D03*
G04 #@! TO.P,U1,12*
X100680000Y-3380000D03*
G04 #@! TO.P,U1,6*
G04 #@! TO.N,Net-(C5-Pad2)*
X108300000Y-11000000D03*
G04 #@! TO.P,U1,13*
G04 #@! TO.N,Net-(U1-Pad13)*
X98140000Y-3380000D03*
G04 #@! TO.P,U1,7*
G04 #@! TO.N,/cv_bus1/LEDS_OUT_1*
X110840000Y-11000000D03*
G04 #@! TO.P,U1,14*
G04 #@! TO.N,Net-(U1-Pad13)*
X95600000Y-3380000D03*
G04 #@! TD*
G04 #@! TO.P,U2,14*
G04 #@! TO.N,Net-(U2-Pad13)*
X171600000Y-3380000D03*
G04 #@! TO.P,U2,7*
G04 #@! TO.N,/cv_bus2/LEDS_OUT_2*
X186840000Y-11000000D03*
G04 #@! TO.P,U2,13*
G04 #@! TO.N,Net-(U2-Pad13)*
X174140000Y-3380000D03*
G04 #@! TO.P,U2,6*
G04 #@! TO.N,Net-(C6-Pad2)*
X184300000Y-11000000D03*
G04 #@! TO.P,U2,12*
G04 #@! TO.N,GND*
X176680000Y-3380000D03*
G04 #@! TO.P,U2,5*
X181760000Y-11000000D03*
G04 #@! TO.P,U2,11*
G04 #@! TO.N,-12V*
X179220000Y-3380000D03*
G04 #@! TO.P,U2,4*
G04 #@! TO.N,+12V*
X179220000Y-11000000D03*
G04 #@! TO.P,U2,10*
G04 #@! TO.N,Net-(R_Split_2_1-Pad2)*
X181760000Y-3380000D03*
G04 #@! TO.P,U2,3*
G04 #@! TO.N,GND*
X176680000Y-11000000D03*
G04 #@! TO.P,U2,9*
G04 #@! TO.N,/cv_bus2/LEDS_OUT_2*
X184300000Y-3380000D03*
G04 #@! TO.P,U2,2*
G04 #@! TO.N,Net-(R3-Pad1)*
X174140000Y-11000000D03*
G04 #@! TO.P,U2,8*
G04 #@! TO.N,/cv_bus2/LEDS_IN_2*
X186840000Y-3380000D03*
D18*
G04 #@! TO.P,U2,1*
G04 #@! TO.N,Net-(R3-Pad2)*
X171600000Y-11000000D03*
G04 #@! TD*
D17*
G04 #@! TO.P,U3,14*
G04 #@! TO.N,Net-(U3-Pad13)*
X292200000Y-3380000D03*
G04 #@! TO.P,U3,7*
G04 #@! TO.N,Net-(C7-Pad1)*
X307440000Y-11000000D03*
G04 #@! TO.P,U3,13*
G04 #@! TO.N,Net-(U3-Pad13)*
X294740000Y-3380000D03*
G04 #@! TO.P,U3,6*
G04 #@! TO.N,Net-(C7-Pad2)*
X304900000Y-11000000D03*
G04 #@! TO.P,U3,12*
G04 #@! TO.N,GND*
X297280000Y-3380000D03*
G04 #@! TO.P,U3,5*
X302360000Y-11000000D03*
G04 #@! TO.P,U3,11*
G04 #@! TO.N,-12V*
X299820000Y-3380000D03*
G04 #@! TO.P,U3,4*
G04 #@! TO.N,+12V*
X299820000Y-11000000D03*
G04 #@! TO.P,U3,10*
G04 #@! TO.N,Net-(R_Split_3_1-Pad2)*
X302360000Y-3380000D03*
G04 #@! TO.P,U3,3*
G04 #@! TO.N,GND*
X297280000Y-11000000D03*
G04 #@! TO.P,U3,9*
G04 #@! TO.N,/cv_bus3/LEDS_OUT_3*
X304900000Y-3380000D03*
G04 #@! TO.P,U3,2*
G04 #@! TO.N,Net-(R5-Pad1)*
X294740000Y-11000000D03*
G04 #@! TO.P,U3,8*
G04 #@! TO.N,/cv_bus3/LEDS_IN_3*
X307440000Y-3380000D03*
D18*
G04 #@! TO.P,U3,1*
G04 #@! TO.N,Net-(R5-Pad2)*
X292200000Y-11000000D03*
G04 #@! TD*
G04 #@! TO.P,U4,1*
G04 #@! TO.N,Net-(R7-Pad2)*
X370400000Y-11000000D03*
D17*
G04 #@! TO.P,U4,8*
G04 #@! TO.N,/cv_bus4/LEDS_IN_4*
X385640000Y-3380000D03*
G04 #@! TO.P,U4,2*
G04 #@! TO.N,Net-(R7-Pad1)*
X372940000Y-11000000D03*
G04 #@! TO.P,U4,9*
G04 #@! TO.N,/cv_bus4/LEDS_OUT_4*
X383100000Y-3380000D03*
G04 #@! TO.P,U4,3*
G04 #@! TO.N,GND*
X375480000Y-11000000D03*
G04 #@! TO.P,U4,10*
G04 #@! TO.N,Net-(R_Split_4_1-Pad2)*
X380560000Y-3380000D03*
G04 #@! TO.P,U4,4*
G04 #@! TO.N,+12V*
X378020000Y-11000000D03*
G04 #@! TO.P,U4,11*
G04 #@! TO.N,-12V*
X378020000Y-3380000D03*
G04 #@! TO.P,U4,5*
G04 #@! TO.N,GND*
X380560000Y-11000000D03*
G04 #@! TO.P,U4,12*
X375480000Y-3380000D03*
G04 #@! TO.P,U4,6*
G04 #@! TO.N,Net-(C8-Pad2)*
X383100000Y-11000000D03*
G04 #@! TO.P,U4,13*
G04 #@! TO.N,Net-(U4-Pad13)*
X372940000Y-3380000D03*
G04 #@! TO.P,U4,7*
G04 #@! TO.N,/cv_bus4/LEDS_OUT_4*
X385640000Y-11000000D03*
G04 #@! TO.P,U4,14*
G04 #@! TO.N,Net-(U4-Pad13)*
X370400000Y-3380000D03*
G04 #@! TD*
D19*
G04 #@! TO.N,/cv_bus1/IN_1_1*
X126674000Y-2029500D03*
G04 #@! TO.N,/cv_bus1/IN_1_2*
X128949300Y-1541100D03*
G04 #@! TO.N,/cv_bus1/IN_1_4*
X144616500Y-5348100D03*
G04 #@! TO.N,/cv_bus1/OUT_1_2*
X24513300Y-17600400D03*
G04 #@! TO.N,/cv_bus1/OUT_1_3*
X142732800Y-4790800D03*
G04 #@! TO.N,/cv_bus2/IN_2_2*
X190489400Y-14278800D03*
G04 #@! TO.N,/cv_bus2/IN_2_4*
X228492600Y-4128000D03*
G04 #@! TO.N,/cv_bus3/OUT_3_3*
X398252300Y-15465700D03*
G04 #@! TO.N,GND*
X379304000Y-15441600D03*
G04 #@! TD*
D20*
G04 #@! TO.N,Net-(D1-Pad1)*
X36500000Y-12000000D02*
X36500000Y-13425300D01*
X38380000Y-16500000D02*
X38380000Y-15305300D01*
X38380000Y-15305300D02*
X36500000Y-13425300D01*
X28790000Y-4840000D02*
X28790000Y-6015300D01*
X36500000Y-12000000D02*
X35074700Y-12000000D01*
X35074700Y-12000000D02*
X29090000Y-6015300D01*
X29090000Y-6015300D02*
X28790000Y-6015300D01*
G04 #@! TO.N,Net-(D2-Pad2)*
X28422600Y-13824700D02*
X28790000Y-13824700D01*
X38380000Y-3500000D02*
X28412500Y-3500000D01*
X28412500Y-3500000D02*
X27614700Y-4297800D01*
X27614700Y-4297800D02*
X27614700Y-13016800D01*
X27614700Y-13016800D02*
X28422600Y-13824700D01*
X28422600Y-13824700D02*
X27425300Y-14822000D01*
X27425300Y-14822000D02*
X27425300Y-15000000D01*
X38380000Y-3500000D02*
X39505300Y-3500000D01*
X39505300Y-3500000D02*
X43505300Y-7500000D01*
X43505300Y-7500000D02*
X46660000Y-7500000D01*
X26250000Y-15000000D02*
X27425300Y-15000000D01*
X28790000Y-15000000D02*
X28790000Y-13824700D01*
G04 #@! TO.N,Net-(R_Split_1_1-Pad2)*
X128120000Y-3500000D02*
X128120000Y-8500000D01*
G04 #@! TO.N,Net-(R_Split_2_1-Pad2)*
X204620000Y-8400000D02*
X204620000Y-3400000D01*
G04 #@! TO.N,Net-(R_Split_3_1-Pad2)*
X322820000Y-3400000D02*
X321694700Y-3400000D01*
X302360000Y-3380000D02*
X303485300Y-3380000D01*
X303485300Y-3380000D02*
X303485300Y-3098700D01*
X303485300Y-3098700D02*
X304804100Y-1779900D01*
X304804100Y-1779900D02*
X320074600Y-1779900D01*
X320074600Y-1779900D02*
X321694700Y-3400000D01*
X322820000Y-3400000D02*
X322820000Y-8400000D01*
G04 #@! TO.N,Net-(R_Split_4_1-Pad2)*
X400820000Y-3400000D02*
X400820000Y-4525300D01*
X400820000Y-4525300D02*
X401020000Y-4725300D01*
X401020000Y-4725300D02*
X401020000Y-8000000D01*
G04 #@! TO.N,Net-(C5-Pad2)*
X152400000Y-1380000D02*
X152400000Y-5994400D01*
X152400000Y-5994400D02*
X145253200Y-13141200D01*
X145253200Y-13141200D02*
X128858800Y-13141200D01*
X128858800Y-13141200D02*
X127000000Y-15000000D01*
X108300000Y-11000000D02*
X108300000Y-12125300D01*
X106000000Y-16200000D02*
X108300000Y-13900000D01*
X108300000Y-13900000D02*
X108300000Y-12125300D01*
G04 #@! TO.N,/cv_bus1/LEDS_OUT_1*
X110840000Y-11000000D02*
X110840000Y-12125300D01*
X110840000Y-12125300D02*
X113620000Y-14905300D01*
X113620000Y-14905300D02*
X113620000Y-16200000D01*
X119489500Y-4510500D02*
X120500000Y-3500000D01*
X108300000Y-3380000D02*
X109430500Y-4510500D01*
X109430500Y-4510500D02*
X119489500Y-4510500D01*
X119489500Y-4510500D02*
X122000000Y-7021000D01*
X122000000Y-7021000D02*
X122000000Y-15000000D01*
X108300000Y-3380000D02*
X107174700Y-3380000D01*
X155000000Y-11000000D02*
X155000000Y-12125300D01*
X155000000Y-12125300D02*
X150200000Y-16925300D01*
X150200000Y-16925300D02*
X150200000Y-18620000D01*
X15160000Y-6540000D02*
X16335300Y-6540000D01*
X16335300Y-6540000D02*
X16335300Y-6172600D01*
X16335300Y-6172600D02*
X17143200Y-5364700D01*
X17143200Y-5364700D02*
X20553100Y-5364700D01*
X20553100Y-5364700D02*
X24129500Y-1788300D01*
X24129500Y-1788300D02*
X105864300Y-1788300D01*
X105864300Y-1788300D02*
X107174700Y-3098700D01*
X107174700Y-3098700D02*
X107174700Y-3380000D01*
G04 #@! TO.N,/cv_bus2/LEDS_OUT_2*
X16335300Y-16040000D02*
X19556700Y-19261400D01*
X19556700Y-19261400D02*
X132520400Y-19261400D01*
X132520400Y-19261400D02*
X134751400Y-17030400D01*
X134751400Y-17030400D02*
X147378000Y-17030400D01*
X147378000Y-17030400D02*
X162153700Y-2254700D01*
X162153700Y-2254700D02*
X182330800Y-2254700D01*
X182330800Y-2254700D02*
X183174700Y-3098600D01*
X183174700Y-3098600D02*
X183174700Y-3380000D01*
X184300000Y-3380000D02*
X183174700Y-3380000D01*
X186840000Y-5775100D02*
X184444900Y-3380000D01*
X184444900Y-3380000D02*
X184300000Y-3380000D01*
X15160000Y-16040000D02*
X16335300Y-16040000D01*
X186840000Y-5775100D02*
X194624900Y-5775100D01*
X194624900Y-5775100D02*
X197000000Y-3400000D01*
X186840000Y-5775100D02*
X186840000Y-11000000D01*
X189820000Y-16200000D02*
X189820000Y-15074700D01*
X186840000Y-11000000D02*
X186840000Y-12125300D01*
X186840000Y-12125300D02*
X189789400Y-15074700D01*
X189789400Y-15074700D02*
X189820000Y-15074700D01*
X233800000Y-10980000D02*
X233800000Y-12105300D01*
X229000000Y-18600000D02*
X229000000Y-16905300D01*
X229000000Y-16905300D02*
X233800000Y-12105300D01*
X198400000Y-15000000D02*
X202000000Y-18600000D01*
X202000000Y-18600000D02*
X214600000Y-18600000D01*
G04 #@! TO.N,Net-(C6-Pad2)*
X231200000Y-1380000D02*
X230074700Y-1380000D01*
X203400000Y-15000000D02*
X217414600Y-15000000D01*
X217414600Y-15000000D02*
X227725400Y-4689200D01*
X227725400Y-4689200D02*
X227725400Y-3729300D01*
X227725400Y-3729300D02*
X230074700Y-1380000D01*
X184300000Y-11000000D02*
X184300000Y-14100000D01*
X184300000Y-14100000D02*
X182200000Y-16200000D01*
G04 #@! TO.N,Net-(C7-Pad2)*
X348800000Y-1380000D02*
X347674700Y-1380000D01*
X321400000Y-14600000D02*
X333494700Y-2505300D01*
X333494700Y-2505300D02*
X346549400Y-2505300D01*
X346549400Y-2505300D02*
X347674700Y-1380000D01*
X304900000Y-11000000D02*
X304900000Y-12125300D01*
X304900000Y-12125300D02*
X302600000Y-14425300D01*
X302600000Y-14425300D02*
X302600000Y-16600000D01*
G04 #@! TO.N,Net-(C7-Pad1)*
X316400000Y-14600000D02*
X320400000Y-18600000D01*
X320400000Y-18600000D02*
X332000000Y-18600000D01*
X310220000Y-14600000D02*
X316400000Y-14600000D01*
X310220000Y-14600000D02*
X310220000Y-12654700D01*
X310220000Y-12654700D02*
X308565300Y-11000000D01*
X310220000Y-16600000D02*
X310220000Y-14600000D01*
X307440000Y-11000000D02*
X308565300Y-11000000D01*
X315200000Y-3400000D02*
X308565300Y-10034700D01*
X308565300Y-10034700D02*
X308565300Y-11000000D01*
G04 #@! TO.N,/cv_bus4/LEDS_OUT_4*
X394600000Y-14200000D02*
X389125300Y-14200000D01*
X389125300Y-14200000D02*
X388420000Y-14905300D01*
X388420000Y-14905300D02*
X388420000Y-16400000D01*
X385640000Y-12125300D02*
X388420000Y-14905300D01*
X394600000Y-14200000D02*
X394600000Y-7105200D01*
X394600000Y-7105200D02*
X392047400Y-4552600D01*
X385640000Y-11000000D02*
X385640000Y-12125300D01*
X392047400Y-4552600D02*
X385116600Y-4552600D01*
X385116600Y-4552600D02*
X384225300Y-3661300D01*
X384225300Y-3661300D02*
X384225300Y-3380000D01*
X393200000Y-3400000D02*
X392047400Y-4552600D01*
X383100000Y-3380000D02*
X384225300Y-3380000D01*
G04 #@! TO.N,Net-(C8-Pad2)*
X383100000Y-14100000D02*
X380800000Y-16400000D01*
X383100000Y-11000000D02*
X383100000Y-14100000D01*
X383100000Y-14100000D02*
X386531200Y-17531200D01*
X386531200Y-17531200D02*
X393932600Y-17531200D01*
X393932600Y-17531200D02*
X397263800Y-14200000D01*
X397263800Y-14200000D02*
X399600000Y-14200000D01*
X426600000Y-1380000D02*
X425474700Y-1380000D01*
X399600000Y-14200000D02*
X411294700Y-2505300D01*
X411294700Y-2505300D02*
X424349400Y-2505300D01*
X424349400Y-2505300D02*
X425474700Y-1380000D01*
G04 #@! TO.N,/cv_bus1/IN_1_1*
X133500000Y-9000000D02*
X133500000Y-7198400D01*
X133500000Y-7198400D02*
X128331100Y-2029500D01*
X128331100Y-2029500D02*
X126674000Y-2029500D01*
G04 #@! TO.N,/cv_bus1/IN_1_2*
X138200000Y-9000000D02*
X130741100Y-1541100D01*
X130741100Y-1541100D02*
X128949300Y-1541100D01*
G04 #@! TO.N,/cv_bus1/IN_1_3*
X7540000Y-4000000D02*
X8715300Y-4000000D01*
X8715300Y-4000000D02*
X8715300Y-3632700D01*
X8715300Y-3632700D02*
X11920500Y-427500D01*
X11920500Y-427500D02*
X130520000Y-427500D01*
X130520000Y-427500D02*
X132932500Y-2840000D01*
X132932500Y-2840000D02*
X136840000Y-2840000D01*
X136840000Y-2840000D02*
X143000000Y-9000000D01*
G04 #@! TO.N,/cv_bus1/IN_1_4*
X147800000Y-9000000D02*
X144616600Y-5816600D01*
X144616600Y-5816600D02*
X144616600Y-5348100D01*
X144616600Y-5348100D02*
X144616500Y-5348100D01*
G04 #@! TO.N,/cv_bus1/OUT_1_1*
X10080000Y-4000000D02*
X11255300Y-4000000D01*
X11255300Y-4000000D02*
X11255300Y-3632700D01*
X11255300Y-3632700D02*
X14007500Y-880500D01*
X14007500Y-880500D02*
X119500900Y-880500D01*
X119500900Y-880500D02*
X125831300Y-7210900D01*
X125831300Y-7210900D02*
X125831300Y-7814600D01*
X125831300Y-7814600D02*
X129016700Y-11000000D01*
X129016700Y-11000000D02*
X135800000Y-11000000D01*
G04 #@! TO.N,/cv_bus1/OUT_1_2*
X24513300Y-17600400D02*
X21958000Y-17600400D01*
X21958000Y-17600400D02*
X11255300Y-6897700D01*
X11255300Y-6897700D02*
X11255300Y-6540000D01*
X10080000Y-6540000D02*
X11255300Y-6540000D01*
G04 #@! TO.N,/cv_bus1/OUT_1_3*
X145600000Y-11000000D02*
X145600000Y-7658000D01*
X145600000Y-7658000D02*
X142732800Y-4790800D01*
G04 #@! TO.N,/cv_bus1/OUT_1_4*
X149074700Y-11000000D02*
X145178000Y-14896700D01*
X145178000Y-14896700D02*
X130688000Y-14896700D01*
X130688000Y-14896700D02*
X127692100Y-17892600D01*
X127692100Y-17892600D02*
X26587300Y-17892600D01*
X26587300Y-17892600D02*
X16410000Y-7715300D01*
X16410000Y-7715300D02*
X14603200Y-7715300D01*
X14603200Y-7715300D02*
X13795300Y-6907400D01*
X13795300Y-6907400D02*
X13795300Y-6540000D01*
X150200000Y-11000000D02*
X149074700Y-11000000D01*
X12620000Y-6540000D02*
X13795300Y-6540000D01*
G04 #@! TO.N,/cv_bus1/LEDS_IN_1*
X109714700Y-3380000D02*
X109714700Y-3168200D01*
X109714700Y-3168200D02*
X107884400Y-1337900D01*
X107884400Y-1337900D02*
X18630000Y-1337900D01*
X18630000Y-1337900D02*
X16335300Y-3632600D01*
X16335300Y-3632600D02*
X16335300Y-4000000D01*
X15160000Y-4000000D02*
X16335300Y-4000000D01*
X110840000Y-3380000D02*
X109714700Y-3380000D01*
G04 #@! TO.N,/cv_bus2/IN_2_1*
X212400000Y-9000000D02*
X204746500Y-1346500D01*
X204746500Y-1346500D02*
X161666900Y-1346500D01*
X161666900Y-1346500D02*
X147138400Y-15875000D01*
X147138400Y-15875000D02*
X130921200Y-15875000D01*
X130921200Y-15875000D02*
X128443300Y-18352900D01*
X128443300Y-18352900D02*
X21825100Y-18352900D01*
X21825100Y-18352900D02*
X15761200Y-12289000D01*
X15761200Y-12289000D02*
X7019000Y-12289000D01*
X7019000Y-12289000D02*
X6175300Y-13132700D01*
X6175300Y-13132700D02*
X6175300Y-13500000D01*
X5000000Y-13500000D02*
X6175300Y-13500000D01*
G04 #@! TO.N,/cv_bus2/IN_2_2*
X190489400Y-14278800D02*
X193708700Y-11059500D01*
X193708700Y-11059500D02*
X212320500Y-11059500D01*
X212320500Y-11059500D02*
X214380000Y-9000000D01*
X214380000Y-9000000D02*
X217000000Y-9000000D01*
G04 #@! TO.N,/cv_bus2/IN_2_4*
X226600000Y-9000000D02*
X228492600Y-7107400D01*
X228492600Y-7107400D02*
X228492600Y-4128000D01*
G04 #@! TO.N,/cv_bus2/LEDS_IN_2*
X15160000Y-13500000D02*
X16335300Y-13500000D01*
X186840000Y-3380000D02*
X185714700Y-3380000D01*
X185714700Y-3380000D02*
X185714700Y-3098700D01*
X185714700Y-3098700D02*
X184420300Y-1804300D01*
X184420300Y-1804300D02*
X161906600Y-1804300D01*
X161906600Y-1804300D02*
X147331000Y-16379900D01*
X147331000Y-16379900D02*
X134688200Y-16379900D01*
X134688200Y-16379900D02*
X132264800Y-18803300D01*
X132264800Y-18803300D02*
X21638600Y-18803300D01*
X21638600Y-18803300D02*
X16335300Y-13500000D01*
G04 #@! TO.N,/cv_bus3/IN_3_1*
X329600000Y-9000000D02*
X331202400Y-7397600D01*
X331202400Y-7397600D02*
X350994200Y-7397600D01*
X350994200Y-7397600D02*
X361578200Y-17981600D01*
X361578200Y-17981600D02*
X398028200Y-17981600D01*
X398028200Y-17981600D02*
X400105100Y-15904700D01*
X400105100Y-15904700D02*
X506420000Y-15904700D01*
X506420000Y-15904700D02*
X508824700Y-13500000D01*
X510000000Y-13500000D02*
X508824700Y-13500000D01*
G04 #@! TO.N,/cv_bus3/IN_3_4*
X344000000Y-9000000D02*
X346182200Y-9000000D01*
X346182200Y-9000000D02*
X356064400Y-18882200D01*
X356064400Y-18882200D02*
X398820200Y-18882200D01*
X398820200Y-18882200D02*
X400711700Y-16990700D01*
X400711700Y-16990700D02*
X508671600Y-16990700D01*
X508671600Y-16990700D02*
X508896200Y-17215300D01*
X508896200Y-17215300D02*
X510556800Y-17215300D01*
X510556800Y-17215300D02*
X511364700Y-16407400D01*
X511364700Y-16407400D02*
X511364700Y-16040000D01*
X512540000Y-16040000D02*
X511364700Y-16040000D01*
G04 #@! TO.N,/cv_bus3/OUT_3_3*
X516444700Y-13500000D02*
X516444700Y-13132700D01*
X516444700Y-13132700D02*
X515636600Y-12324600D01*
X515636600Y-12324600D02*
X508824600Y-12324600D01*
X508824600Y-12324600D02*
X505694800Y-15454400D01*
X505694800Y-15454400D02*
X398263600Y-15454400D01*
X398263600Y-15454400D02*
X398252300Y-15465700D01*
X517620000Y-13500000D02*
X516444700Y-13500000D01*
G04 #@! TO.N,/cv_bus3/OUT_3_4*
X347525300Y-10980000D02*
X355877800Y-19332500D01*
X355877800Y-19332500D02*
X399962100Y-19332500D01*
X399962100Y-19332500D02*
X401833700Y-17460900D01*
X401833700Y-17460900D02*
X508001000Y-17460900D01*
X508001000Y-17460900D02*
X508226300Y-17686200D01*
X508226300Y-17686200D02*
X515165900Y-17686200D01*
X515165900Y-17686200D02*
X516444700Y-16407400D01*
X516444700Y-16407400D02*
X516444700Y-16040000D01*
X346400000Y-10980000D02*
X347525300Y-10980000D01*
X517620000Y-16040000D02*
X516444700Y-16040000D01*
G04 #@! TO.N,/cv_bus3/LEDS_OUT_3*
X351200000Y-10980000D02*
X352325300Y-10980000D01*
X352325300Y-10980000D02*
X359777100Y-18431800D01*
X359777100Y-18431800D02*
X359777100Y-18431900D01*
X359777100Y-18431900D02*
X398439700Y-18431900D01*
X398439700Y-18431900D02*
X400331300Y-16540300D01*
X400331300Y-16540300D02*
X506904100Y-16540300D01*
X506904100Y-16540300D02*
X508579700Y-14864700D01*
X508579700Y-14864700D02*
X518176800Y-14864700D01*
X518176800Y-14864700D02*
X518984700Y-15672600D01*
X518984700Y-15672600D02*
X518984700Y-16040000D01*
X306025300Y-3380000D02*
X306025300Y-3098700D01*
X306025300Y-3098700D02*
X306892600Y-2231400D01*
X306892600Y-2231400D02*
X315626700Y-2231400D01*
X315626700Y-2231400D02*
X319921000Y-6525700D01*
X319921000Y-6525700D02*
X319921000Y-14752900D01*
X319921000Y-14752900D02*
X320893600Y-15725500D01*
X320893600Y-15725500D02*
X329294400Y-15725500D01*
X329294400Y-15725500D02*
X337171900Y-7848000D01*
X337171900Y-7848000D02*
X345672200Y-7848000D01*
X345672200Y-7848000D02*
X348804200Y-10980000D01*
X348804200Y-10980000D02*
X351200000Y-10980000D01*
X520160000Y-16040000D02*
X518984700Y-16040000D01*
X304900000Y-3380000D02*
X306025300Y-3380000D01*
G04 #@! TO.N,/cv_bus4/OUT_4_4*
X517620000Y-6540000D02*
X513456000Y-10704000D01*
X513456000Y-10704000D02*
X462524800Y-10704000D01*
X462524800Y-10704000D02*
X460658100Y-12570700D01*
X460658100Y-12570700D02*
X426916000Y-12570700D01*
X426916000Y-12570700D02*
X425325300Y-10980000D01*
X424200000Y-10980000D02*
X425325300Y-10980000D01*
G04 #@! TO.N,/cv_bus4/OUT_4_3*
X517620000Y-5175300D02*
X517252600Y-5175300D01*
X517252600Y-5175300D02*
X516444700Y-5983200D01*
X516444700Y-5983200D02*
X516444700Y-6846600D01*
X516444700Y-6846600D02*
X515020600Y-8270700D01*
X515020600Y-8270700D02*
X451953300Y-8270700D01*
X451953300Y-8270700D02*
X448118600Y-12105400D01*
X448118600Y-12105400D02*
X427337000Y-12105400D01*
X427337000Y-12105400D02*
X425071600Y-9840000D01*
X425071600Y-9840000D02*
X423360000Y-9840000D01*
X423360000Y-9840000D02*
X422220000Y-10980000D01*
X422220000Y-10980000D02*
X419400000Y-10980000D01*
X517620000Y-4000000D02*
X517620000Y-5175300D01*
G04 #@! TO.N,/cv_bus4/OUT_4_2*
X515080000Y-6540000D02*
X513904700Y-6540000D01*
X513904700Y-6540000D02*
X513904700Y-6907400D01*
X513904700Y-6907400D02*
X513096800Y-7715300D01*
X513096800Y-7715300D02*
X420684700Y-7715300D01*
X420684700Y-7715300D02*
X417420000Y-10980000D01*
X417420000Y-10980000D02*
X414600000Y-10980000D01*
G04 #@! TO.N,/cv_bus4/IN_4_3*
X512540000Y-4000000D02*
X511364700Y-4000000D01*
X511364700Y-4000000D02*
X511364700Y-4808000D01*
X511364700Y-4808000D02*
X510934700Y-5238000D01*
X510934700Y-5238000D02*
X420762000Y-5238000D01*
X420762000Y-5238000D02*
X417000000Y-9000000D01*
G04 #@! TO.N,/cv_bus4/IN_4_1*
X407400000Y-9000000D02*
X412400000Y-4000000D01*
X412400000Y-4000000D02*
X508824700Y-4000000D01*
X510000000Y-4000000D02*
X508824700Y-4000000D01*
G04 #@! TO.N,Net-(R1-Pad1)*
X98140000Y-11000000D02*
X98140000Y-12125300D01*
X98140000Y-12125300D02*
X98925300Y-12125300D01*
X98925300Y-12125300D02*
X103000000Y-16200000D01*
X142007500Y-2933000D02*
X140878300Y-2933000D01*
X140878300Y-2933000D02*
X139325300Y-1380000D01*
X143000000Y-2505300D02*
X142572300Y-2933000D01*
X142572300Y-2933000D02*
X142007500Y-2933000D01*
X142007500Y-2933000D02*
X142007500Y-5455900D01*
X142007500Y-5455900D02*
X144155200Y-7603600D01*
X144155200Y-7603600D02*
X144155200Y-9445200D01*
X144155200Y-9445200D02*
X140986600Y-12613800D01*
X140986600Y-12613800D02*
X127786500Y-12613800D01*
X127786500Y-12613800D02*
X123027800Y-17372500D01*
X123027800Y-17372500D02*
X104172500Y-17372500D01*
X104172500Y-17372500D02*
X103000000Y-16200000D01*
X138200000Y-1380000D02*
X139325300Y-1380000D01*
X143000000Y-1380000D02*
X143000000Y-2505300D01*
X147800000Y-1380000D02*
X143000000Y-1380000D01*
G04 #@! TO.N,Net-(R1-Pad2)*
X95380000Y-16200000D02*
X95380000Y-15074700D01*
X95600000Y-11000000D02*
X95600000Y-14854700D01*
X95600000Y-14854700D02*
X95380000Y-15074700D01*
G04 #@! TO.N,Net-(R3-Pad1)*
X178800000Y-16400000D02*
X179735800Y-17335800D01*
X179735800Y-17335800D02*
X191760900Y-17335800D01*
X191760900Y-17335800D02*
X196916800Y-12179900D01*
X196916800Y-12179900D02*
X215499600Y-12179900D01*
X215499600Y-12179900D02*
X218149300Y-9530200D01*
X218149300Y-9530200D02*
X218149300Y-3654600D01*
X217000000Y-2505300D02*
X218149300Y-3654600D01*
X221800000Y-1380000D02*
X220423900Y-1380000D01*
X220423900Y-1380000D02*
X218149300Y-3654600D01*
X217000000Y-1380000D02*
X217000000Y-2505300D01*
X174140000Y-12125300D02*
X174525300Y-12125300D01*
X174525300Y-12125300D02*
X178800000Y-16400000D01*
X174140000Y-11000000D02*
X174140000Y-12125300D01*
G04 #@! TO.N,Net-(R3-Pad2)*
X172305300Y-16400000D02*
X173718700Y-17813400D01*
X173718700Y-17813400D02*
X192557100Y-17813400D01*
X192557100Y-17813400D02*
X196500300Y-13870200D01*
X196500300Y-13870200D02*
X199246800Y-13870200D01*
X199246800Y-13870200D02*
X201530300Y-16153700D01*
X201530300Y-16153700D02*
X221782900Y-16153700D01*
X221782900Y-16153700D02*
X228936600Y-9000000D01*
X228936600Y-9000000D02*
X231200000Y-9000000D01*
X171180000Y-16400000D02*
X171180000Y-15274700D01*
X171600000Y-11000000D02*
X171600000Y-14854700D01*
X171600000Y-14854700D02*
X171180000Y-15274700D01*
X171180000Y-16400000D02*
X172305300Y-16400000D01*
G04 #@! TO.N,Net-(R5-Pad2)*
X292200000Y-11000000D02*
X292200000Y-12125300D01*
X292200000Y-12125300D02*
X291580000Y-12745300D01*
X291580000Y-12745300D02*
X291580000Y-16600000D01*
G04 #@! TO.N,Net-(R5-Pad1)*
X294740000Y-11000000D02*
X294740000Y-9874700D01*
X329600000Y-1380000D02*
X328474700Y-1380000D01*
X328474700Y-1380000D02*
X328397000Y-1302300D01*
X328397000Y-1302300D02*
X297756500Y-1302300D01*
X297756500Y-1302300D02*
X295865300Y-3193500D01*
X295865300Y-3193500D02*
X295865300Y-8749400D01*
X295865300Y-8749400D02*
X294740000Y-9874700D01*
X294740000Y-11000000D02*
X294740000Y-12125300D01*
X294740000Y-12125300D02*
X299200000Y-16585300D01*
X299200000Y-16585300D02*
X299200000Y-16600000D01*
G04 #@! TO.N,Net-(R7-Pad2)*
X370000000Y-15274700D02*
X370400000Y-14874700D01*
X370400000Y-14874700D02*
X370400000Y-11000000D01*
X370000000Y-16400000D02*
X370000000Y-15274700D01*
G04 #@! TO.N,Net-(R7-Pad1)*
X372940000Y-11000000D02*
X372940000Y-9874700D01*
X372940000Y-9874700D02*
X374065300Y-8749400D01*
X374065300Y-8749400D02*
X374065300Y-3159000D01*
X374065300Y-3159000D02*
X375844300Y-1380000D01*
X375844300Y-1380000D02*
X407400000Y-1380000D01*
X372940000Y-11562600D02*
X372940000Y-11000000D01*
X372940000Y-11562600D02*
X372940000Y-12125300D01*
X372940000Y-12125300D02*
X373345300Y-12125300D01*
X373345300Y-12125300D02*
X377620000Y-16400000D01*
G04 #@! TO.N,+12V*
X51000000Y-16500000D02*
X51925300Y-16500000D01*
X103220000Y-11000000D02*
X102094600Y-9874600D01*
X102094600Y-9874600D02*
X84902400Y-9874600D01*
X84902400Y-9874600D02*
X77351700Y-17425300D01*
X77351700Y-17425300D02*
X52590300Y-17425300D01*
X52590300Y-17425300D02*
X51925300Y-16760300D01*
X51925300Y-16760300D02*
X51925300Y-16500000D01*
X51000000Y-16037300D02*
X51000000Y-16500000D01*
X51000000Y-16037300D02*
X51000000Y-15574700D01*
X52000000Y-12000000D02*
X52000000Y-14574700D01*
X52000000Y-14574700D02*
X51000000Y-15574700D01*
G04 #@! TO.N,GND*
X299249300Y-9874700D02*
X300390800Y-9874700D01*
X300390800Y-9874700D02*
X301234700Y-10718600D01*
X301234700Y-10718600D02*
X301234700Y-11000000D01*
X298405300Y-11000000D02*
X298405300Y-10718700D01*
X298405300Y-10718700D02*
X299249300Y-9874700D01*
X299249300Y-9874700D02*
X297280000Y-7905400D01*
X297280000Y-7905400D02*
X297280000Y-3380000D01*
X302360000Y-11000000D02*
X301234700Y-11000000D01*
X297280000Y-11000000D02*
X298405300Y-11000000D01*
X176680000Y-9874700D02*
X163745300Y-9874700D01*
X163745300Y-9874700D02*
X155000000Y-18620000D01*
X176680000Y-4505300D02*
X176680000Y-9874700D01*
X379304000Y-15441600D02*
X379304000Y-12774600D01*
X379304000Y-12774600D02*
X378098600Y-12774600D01*
X378098600Y-12774600D02*
X376605300Y-11281300D01*
X376605300Y-11281300D02*
X376605300Y-11000000D01*
X380560000Y-12125300D02*
X379953300Y-12125300D01*
X379953300Y-12125300D02*
X379304000Y-12774600D01*
X375480000Y-3380000D02*
X375480000Y-11000000D01*
X380560000Y-11000000D02*
X380560000Y-12125300D01*
X375480000Y-11000000D02*
X376605300Y-11000000D01*
X180634700Y-11000000D02*
X180634700Y-10718600D01*
X180634700Y-10718600D02*
X179790800Y-9874700D01*
X179790800Y-9874700D02*
X176680000Y-9874700D01*
X380560000Y-11000000D02*
X381685300Y-11000000D01*
X381685300Y-11000000D02*
X381685300Y-10718700D01*
X381685300Y-10718700D02*
X384404000Y-8000000D01*
X384404000Y-8000000D02*
X393400000Y-8000000D01*
X176680000Y-3380000D02*
X176680000Y-4505300D01*
X181760000Y-11000000D02*
X180634700Y-11000000D01*
X100680000Y-6482600D02*
X100680000Y-3380000D01*
X105197400Y-11000000D02*
X100680000Y-6482600D01*
X100680000Y-6482600D02*
X58517400Y-6482600D01*
X58517400Y-6482600D02*
X57000000Y-8000000D01*
X105197400Y-11000000D02*
X104634700Y-11000000D01*
X105760000Y-11000000D02*
X105197400Y-11000000D01*
X17700000Y-6540000D02*
X18875300Y-6540000D01*
X26250000Y-7380000D02*
X19715300Y-7380000D01*
X19715300Y-7380000D02*
X18875300Y-6540000D01*
X176680000Y-11000000D02*
X176680000Y-9874700D01*
X105760000Y-11000000D02*
X106885300Y-11000000D01*
X120500000Y-8500000D02*
X109104000Y-8500000D01*
X109104000Y-8500000D02*
X106885300Y-10718700D01*
X106885300Y-10718700D02*
X106885300Y-11000000D01*
X46660000Y-12000000D02*
X45234700Y-12000000D01*
X36500000Y-7500000D02*
X40734700Y-7500000D01*
X40734700Y-7500000D02*
X45234700Y-12000000D01*
X51242600Y-8842700D02*
X50834100Y-8434200D01*
X50834100Y-8434200D02*
X50834100Y-4591200D01*
X50834100Y-4591200D02*
X51000000Y-4425300D01*
X57000000Y-9187500D02*
X51587400Y-9187500D01*
X51587400Y-9187500D02*
X51242600Y-8842700D01*
X51242600Y-8842700D02*
X48085300Y-12000000D01*
X46660000Y-12000000D02*
X48085300Y-12000000D01*
X51000000Y-3500000D02*
X51000000Y-4425300D01*
X57000000Y-9187500D02*
X57000000Y-12000000D01*
X57000000Y-8000000D02*
X57000000Y-9187500D01*
X57000000Y-12000000D02*
X57000000Y-12500000D01*
X57000000Y-12500000D02*
X53000000Y-16500000D01*
X100680000Y-11000000D02*
X101805300Y-11000000D01*
X101805300Y-11000000D02*
X101805300Y-11281400D01*
X101805300Y-11281400D02*
X102649200Y-12125300D01*
X102649200Y-12125300D02*
X103790800Y-12125300D01*
X103790800Y-12125300D02*
X104634700Y-11281400D01*
X104634700Y-11281400D02*
X104634700Y-11000000D01*
G04 #@! TO.N,-12V*
X52537300Y-3500000D02*
X52537300Y-7462700D01*
X52537300Y-7462700D02*
X52000000Y-8000000D01*
X46000000Y-3500000D02*
X46925400Y-2574600D01*
X46925400Y-2574600D02*
X51843200Y-2574600D01*
X51843200Y-2574600D02*
X52537300Y-3268700D01*
X52537300Y-3268700D02*
X52537300Y-3500000D01*
X52537300Y-3500000D02*
X53000000Y-3500000D01*
X103220000Y-3380000D02*
X102094700Y-3380000D01*
X53000000Y-3500000D02*
X54258400Y-2241600D01*
X54258400Y-2241600D02*
X101156600Y-2241600D01*
X101156600Y-2241600D02*
X102094700Y-3179700D01*
X102094700Y-3179700D02*
X102094700Y-3380000D01*
G04 #@! TD*
D21*
G04 #@! TO.N,GND*
G36*
X319161000Y-6840503D02*
X319161001Y-14678048D01*
X319146112Y-14752900D01*
X319205097Y-15049437D01*
X319306928Y-15201837D01*
X319373072Y-15300829D01*
X319436528Y-15343229D01*
X320303271Y-16209973D01*
X320345671Y-16273429D01*
X320597063Y-16441404D01*
X320818748Y-16485500D01*
X320818752Y-16485500D01*
X320893599Y-16500388D01*
X320968446Y-16485500D01*
X329219553Y-16485500D01*
X329294400Y-16500388D01*
X329369247Y-16485500D01*
X329369252Y-16485500D01*
X329590937Y-16441404D01*
X329842329Y-16273429D01*
X329884731Y-16209970D01*
X335392056Y-10702646D01*
X335336887Y-10980000D01*
X335448260Y-11539909D01*
X335765423Y-12014577D01*
X336240091Y-12331740D01*
X336658667Y-12415000D01*
X336941333Y-12415000D01*
X337359909Y-12331740D01*
X337834577Y-12014577D01*
X338151740Y-11539909D01*
X338263113Y-10980000D01*
X340136887Y-10980000D01*
X340248260Y-11539909D01*
X340565423Y-12014577D01*
X341040091Y-12331740D01*
X341458667Y-12415000D01*
X341741333Y-12415000D01*
X342159909Y-12331740D01*
X342634577Y-12014577D01*
X342951740Y-11539909D01*
X343063113Y-10980000D01*
X342951740Y-10420091D01*
X342634577Y-9945423D01*
X342159909Y-9628260D01*
X341741333Y-9545000D01*
X341458667Y-9545000D01*
X341040091Y-9628260D01*
X340565423Y-9945423D01*
X340248260Y-10420091D01*
X340136887Y-10980000D01*
X338263113Y-10980000D01*
X338151740Y-10420091D01*
X337834577Y-9945423D01*
X337359909Y-9628260D01*
X336941333Y-9545000D01*
X336658667Y-9545000D01*
X336522647Y-9572056D01*
X337486703Y-8608000D01*
X337809139Y-8608000D01*
X337765000Y-8714561D01*
X337765000Y-9285439D01*
X337983466Y-9812862D01*
X338387138Y-10216534D01*
X338914561Y-10435000D01*
X339485439Y-10435000D01*
X340012862Y-10216534D01*
X340416534Y-9812862D01*
X340635000Y-9285439D01*
X340635000Y-8714561D01*
X340590861Y-8608000D01*
X342609139Y-8608000D01*
X342565000Y-8714561D01*
X342565000Y-9285439D01*
X342783466Y-9812862D01*
X343187138Y-10216534D01*
X343714561Y-10435000D01*
X344285439Y-10435000D01*
X344812862Y-10216534D01*
X345216534Y-9812862D01*
X345238430Y-9760000D01*
X345642928Y-9760000D01*
X345365423Y-9945423D01*
X345048260Y-10420091D01*
X344936887Y-10980000D01*
X345048260Y-11539909D01*
X345365423Y-12014577D01*
X345840091Y-12331740D01*
X346258667Y-12415000D01*
X346541333Y-12415000D01*
X346959909Y-12331740D01*
X347434577Y-12014577D01*
X347454804Y-11984305D01*
X354735498Y-19265000D01*
X352485856Y-19265000D01*
X352646965Y-18816777D01*
X352619778Y-18246546D01*
X352453864Y-17845995D01*
X352207745Y-17771861D01*
X351379605Y-18600000D01*
X351393748Y-18614142D01*
X351214142Y-18793748D01*
X351200000Y-18779605D01*
X351185858Y-18793748D01*
X351006252Y-18614142D01*
X351020395Y-18600000D01*
X350192255Y-17771861D01*
X349946136Y-17845995D01*
X349753035Y-18383223D01*
X349780222Y-18953454D01*
X349909269Y-19265000D01*
X347677781Y-19265000D01*
X347835000Y-18885439D01*
X347835000Y-18314561D01*
X347616534Y-17787138D01*
X347421651Y-17592255D01*
X350371861Y-17592255D01*
X351200000Y-18420395D01*
X352028139Y-17592255D01*
X351954005Y-17346136D01*
X351416777Y-17153035D01*
X350846546Y-17180222D01*
X350445995Y-17346136D01*
X350371861Y-17592255D01*
X347421651Y-17592255D01*
X347212862Y-17383466D01*
X346685439Y-17165000D01*
X346114561Y-17165000D01*
X345587138Y-17383466D01*
X345183466Y-17787138D01*
X344965000Y-18314561D01*
X344965000Y-18885439D01*
X345122219Y-19265000D01*
X342877781Y-19265000D01*
X343035000Y-18885439D01*
X343035000Y-18314561D01*
X342816534Y-17787138D01*
X342412862Y-17383466D01*
X341885439Y-17165000D01*
X341314561Y-17165000D01*
X340787138Y-17383466D01*
X340383466Y-17787138D01*
X340165000Y-18314561D01*
X340165000Y-18885439D01*
X340322219Y-19265000D01*
X338077781Y-19265000D01*
X338235000Y-18885439D01*
X338235000Y-18314561D01*
X338016534Y-17787138D01*
X337612862Y-17383466D01*
X337085439Y-17165000D01*
X336514561Y-17165000D01*
X335987138Y-17383466D01*
X335583466Y-17787138D01*
X335365000Y-18314561D01*
X335365000Y-18885439D01*
X335522219Y-19265000D01*
X333277781Y-19265000D01*
X333435000Y-18885439D01*
X333435000Y-18314561D01*
X333216534Y-17787138D01*
X332812862Y-17383466D01*
X332285439Y-17165000D01*
X331714561Y-17165000D01*
X331187138Y-17383466D01*
X330783466Y-17787138D01*
X330761570Y-17840000D01*
X320714802Y-17840000D01*
X317813103Y-14938302D01*
X317835000Y-14885439D01*
X317835000Y-14314561D01*
X317616534Y-13787138D01*
X317212862Y-13383466D01*
X316685439Y-13165000D01*
X316114561Y-13165000D01*
X315587138Y-13383466D01*
X315183466Y-13787138D01*
X315161570Y-13840000D01*
X310980000Y-13840000D01*
X310980000Y-12729546D01*
X310994888Y-12654699D01*
X310980000Y-12579852D01*
X310980000Y-12579848D01*
X310935904Y-12358163D01*
X310767929Y-12106771D01*
X310704473Y-12064371D01*
X309325300Y-10685199D01*
X309325300Y-10349501D01*
X310267056Y-9407745D01*
X314371861Y-9407745D01*
X314445995Y-9653864D01*
X314983223Y-9846965D01*
X315553454Y-9819778D01*
X315954005Y-9653864D01*
X316028139Y-9407745D01*
X315200000Y-8579605D01*
X314371861Y-9407745D01*
X310267056Y-9407745D01*
X311491578Y-8183223D01*
X313753035Y-8183223D01*
X313780222Y-8753454D01*
X313946136Y-9154005D01*
X314192255Y-9228139D01*
X315020395Y-8400000D01*
X315379605Y-8400000D01*
X316207745Y-9228139D01*
X316453864Y-9154005D01*
X316646965Y-8616777D01*
X316619778Y-8046546D01*
X316453864Y-7645995D01*
X316207745Y-7571861D01*
X315379605Y-8400000D01*
X315020395Y-8400000D01*
X314192255Y-7571861D01*
X313946136Y-7645995D01*
X313753035Y-8183223D01*
X311491578Y-8183223D01*
X312282546Y-7392255D01*
X314371861Y-7392255D01*
X315200000Y-8220395D01*
X316028139Y-7392255D01*
X315954005Y-7146136D01*
X315416777Y-6953035D01*
X314846546Y-6980222D01*
X314445995Y-7146136D01*
X314371861Y-7392255D01*
X312282546Y-7392255D01*
X314861698Y-4813104D01*
X314914561Y-4835000D01*
X315485439Y-4835000D01*
X316012862Y-4616534D01*
X316416534Y-4212862D01*
X316450752Y-4130253D01*
X319161000Y-6840503D01*
X319161000Y-6840503D01*
G37*
X319161000Y-6840503D02*
X319161001Y-14678048D01*
X319146112Y-14752900D01*
X319205097Y-15049437D01*
X319306928Y-15201837D01*
X319373072Y-15300829D01*
X319436528Y-15343229D01*
X320303271Y-16209973D01*
X320345671Y-16273429D01*
X320597063Y-16441404D01*
X320818748Y-16485500D01*
X320818752Y-16485500D01*
X320893599Y-16500388D01*
X320968446Y-16485500D01*
X329219553Y-16485500D01*
X329294400Y-16500388D01*
X329369247Y-16485500D01*
X329369252Y-16485500D01*
X329590937Y-16441404D01*
X329842329Y-16273429D01*
X329884731Y-16209970D01*
X335392056Y-10702646D01*
X335336887Y-10980000D01*
X335448260Y-11539909D01*
X335765423Y-12014577D01*
X336240091Y-12331740D01*
X336658667Y-12415000D01*
X336941333Y-12415000D01*
X337359909Y-12331740D01*
X337834577Y-12014577D01*
X338151740Y-11539909D01*
X338263113Y-10980000D01*
X340136887Y-10980000D01*
X340248260Y-11539909D01*
X340565423Y-12014577D01*
X341040091Y-12331740D01*
X341458667Y-12415000D01*
X341741333Y-12415000D01*
X342159909Y-12331740D01*
X342634577Y-12014577D01*
X342951740Y-11539909D01*
X343063113Y-10980000D01*
X342951740Y-10420091D01*
X342634577Y-9945423D01*
X342159909Y-9628260D01*
X341741333Y-9545000D01*
X341458667Y-9545000D01*
X341040091Y-9628260D01*
X340565423Y-9945423D01*
X340248260Y-10420091D01*
X340136887Y-10980000D01*
X338263113Y-10980000D01*
X338151740Y-10420091D01*
X337834577Y-9945423D01*
X337359909Y-9628260D01*
X336941333Y-9545000D01*
X336658667Y-9545000D01*
X336522647Y-9572056D01*
X337486703Y-8608000D01*
X337809139Y-8608000D01*
X337765000Y-8714561D01*
X337765000Y-9285439D01*
X337983466Y-9812862D01*
X338387138Y-10216534D01*
X338914561Y-10435000D01*
X339485439Y-10435000D01*
X340012862Y-10216534D01*
X340416534Y-9812862D01*
X340635000Y-9285439D01*
X340635000Y-8714561D01*
X340590861Y-8608000D01*
X342609139Y-8608000D01*
X342565000Y-8714561D01*
X342565000Y-9285439D01*
X342783466Y-9812862D01*
X343187138Y-10216534D01*
X343714561Y-10435000D01*
X344285439Y-10435000D01*
X344812862Y-10216534D01*
X345216534Y-9812862D01*
X345238430Y-9760000D01*
X345642928Y-9760000D01*
X345365423Y-9945423D01*
X345048260Y-10420091D01*
X344936887Y-10980000D01*
X345048260Y-11539909D01*
X345365423Y-12014577D01*
X345840091Y-12331740D01*
X346258667Y-12415000D01*
X346541333Y-12415000D01*
X346959909Y-12331740D01*
X347434577Y-12014577D01*
X347454804Y-11984305D01*
X354735498Y-19265000D01*
X352485856Y-19265000D01*
X352646965Y-18816777D01*
X352619778Y-18246546D01*
X352453864Y-17845995D01*
X352207745Y-17771861D01*
X351379605Y-18600000D01*
X351393748Y-18614142D01*
X351214142Y-18793748D01*
X351200000Y-18779605D01*
X351185858Y-18793748D01*
X351006252Y-18614142D01*
X351020395Y-18600000D01*
X350192255Y-17771861D01*
X349946136Y-17845995D01*
X349753035Y-18383223D01*
X349780222Y-18953454D01*
X349909269Y-19265000D01*
X347677781Y-19265000D01*
X347835000Y-18885439D01*
X347835000Y-18314561D01*
X347616534Y-17787138D01*
X347421651Y-17592255D01*
X350371861Y-17592255D01*
X351200000Y-18420395D01*
X352028139Y-17592255D01*
X351954005Y-17346136D01*
X351416777Y-17153035D01*
X350846546Y-17180222D01*
X350445995Y-17346136D01*
X350371861Y-17592255D01*
X347421651Y-17592255D01*
X347212862Y-17383466D01*
X346685439Y-17165000D01*
X346114561Y-17165000D01*
X345587138Y-17383466D01*
X345183466Y-17787138D01*
X344965000Y-18314561D01*
X344965000Y-18885439D01*
X345122219Y-19265000D01*
X342877781Y-19265000D01*
X343035000Y-18885439D01*
X343035000Y-18314561D01*
X342816534Y-17787138D01*
X342412862Y-17383466D01*
X341885439Y-17165000D01*
X341314561Y-17165000D01*
X340787138Y-17383466D01*
X340383466Y-17787138D01*
X340165000Y-18314561D01*
X340165000Y-18885439D01*
X340322219Y-19265000D01*
X338077781Y-19265000D01*
X338235000Y-18885439D01*
X338235000Y-18314561D01*
X338016534Y-17787138D01*
X337612862Y-17383466D01*
X337085439Y-17165000D01*
X336514561Y-17165000D01*
X335987138Y-17383466D01*
X335583466Y-17787138D01*
X335365000Y-18314561D01*
X335365000Y-18885439D01*
X335522219Y-19265000D01*
X333277781Y-19265000D01*
X333435000Y-18885439D01*
X333435000Y-18314561D01*
X333216534Y-17787138D01*
X332812862Y-17383466D01*
X332285439Y-17165000D01*
X331714561Y-17165000D01*
X331187138Y-17383466D01*
X330783466Y-17787138D01*
X330761570Y-17840000D01*
X320714802Y-17840000D01*
X317813103Y-14938302D01*
X317835000Y-14885439D01*
X317835000Y-14314561D01*
X317616534Y-13787138D01*
X317212862Y-13383466D01*
X316685439Y-13165000D01*
X316114561Y-13165000D01*
X315587138Y-13383466D01*
X315183466Y-13787138D01*
X315161570Y-13840000D01*
X310980000Y-13840000D01*
X310980000Y-12729546D01*
X310994888Y-12654699D01*
X310980000Y-12579852D01*
X310980000Y-12579848D01*
X310935904Y-12358163D01*
X310767929Y-12106771D01*
X310704473Y-12064371D01*
X309325300Y-10685199D01*
X309325300Y-10349501D01*
X310267056Y-9407745D01*
X314371861Y-9407745D01*
X314445995Y-9653864D01*
X314983223Y-9846965D01*
X315553454Y-9819778D01*
X315954005Y-9653864D01*
X316028139Y-9407745D01*
X315200000Y-8579605D01*
X314371861Y-9407745D01*
X310267056Y-9407745D01*
X311491578Y-8183223D01*
X313753035Y-8183223D01*
X313780222Y-8753454D01*
X313946136Y-9154005D01*
X314192255Y-9228139D01*
X315020395Y-8400000D01*
X315379605Y-8400000D01*
X316207745Y-9228139D01*
X316453864Y-9154005D01*
X316646965Y-8616777D01*
X316619778Y-8046546D01*
X316453864Y-7645995D01*
X316207745Y-7571861D01*
X315379605Y-8400000D01*
X315020395Y-8400000D01*
X314192255Y-7571861D01*
X313946136Y-7645995D01*
X313753035Y-8183223D01*
X311491578Y-8183223D01*
X312282546Y-7392255D01*
X314371861Y-7392255D01*
X315200000Y-8220395D01*
X316028139Y-7392255D01*
X315954005Y-7146136D01*
X315416777Y-6953035D01*
X314846546Y-6980222D01*
X314445995Y-7146136D01*
X314371861Y-7392255D01*
X312282546Y-7392255D01*
X314861698Y-4813104D01*
X314914561Y-4835000D01*
X315485439Y-4835000D01*
X316012862Y-4616534D01*
X316416534Y-4212862D01*
X316450752Y-4130253D01*
X319161000Y-6840503D01*
G36*
X297208571Y-754371D02*
X297166171Y-817827D01*
X295693050Y-2290949D01*
X295299909Y-2028260D01*
X294881333Y-1945000D01*
X294598667Y-1945000D01*
X294180091Y-2028260D01*
X293705423Y-2345423D01*
X293470000Y-2697758D01*
X293234577Y-2345423D01*
X292759909Y-2028260D01*
X292341333Y-1945000D01*
X292058667Y-1945000D01*
X291640091Y-2028260D01*
X291165423Y-2345423D01*
X290848260Y-2820091D01*
X290736887Y-3380000D01*
X290848260Y-3939909D01*
X291165423Y-4414577D01*
X291640091Y-4731740D01*
X292058667Y-4815000D01*
X292341333Y-4815000D01*
X292759909Y-4731740D01*
X293234577Y-4414577D01*
X293470000Y-4062242D01*
X293705423Y-4414577D01*
X294180091Y-4731740D01*
X294598667Y-4815000D01*
X294881333Y-4815000D01*
X295105300Y-4770450D01*
X295105301Y-8434597D01*
X294255528Y-9284371D01*
X294192072Y-9326771D01*
X294149672Y-9390227D01*
X294149671Y-9390228D01*
X294024097Y-9578163D01*
X293984106Y-9779213D01*
X293705423Y-9965423D01*
X293624785Y-10086106D01*
X293598157Y-9952235D01*
X293457809Y-9742191D01*
X293247765Y-9601843D01*
X293000000Y-9552560D01*
X291400000Y-9552560D01*
X291152235Y-9601843D01*
X290942191Y-9742191D01*
X290801843Y-9952235D01*
X290752560Y-10200000D01*
X290752560Y-11800000D01*
X290801843Y-12047765D01*
X290942191Y-12257809D01*
X290976410Y-12280674D01*
X290864096Y-12448764D01*
X290820000Y-12670449D01*
X290820000Y-12670453D01*
X290805112Y-12745300D01*
X290820000Y-12820147D01*
X290820001Y-15381956D01*
X290545423Y-15565423D01*
X290228260Y-16040091D01*
X290116887Y-16600000D01*
X290228260Y-17159909D01*
X290545423Y-17634577D01*
X291020091Y-17951740D01*
X291438667Y-18035000D01*
X291721333Y-18035000D01*
X292139909Y-17951740D01*
X292614577Y-17634577D01*
X292931740Y-17159909D01*
X293043113Y-16600000D01*
X292931740Y-16040091D01*
X292614577Y-15565423D01*
X292340000Y-15381957D01*
X292340000Y-13060102D01*
X292684475Y-12715628D01*
X292747929Y-12673229D01*
X292790327Y-12609776D01*
X292790329Y-12609774D01*
X292897912Y-12448764D01*
X292898797Y-12447440D01*
X293000000Y-12447440D01*
X293247765Y-12398157D01*
X293457809Y-12257809D01*
X293598157Y-12047765D01*
X293624785Y-11913894D01*
X293705423Y-12034577D01*
X293984106Y-12220787D01*
X294024097Y-12421837D01*
X294138646Y-12593271D01*
X294192072Y-12673229D01*
X294255528Y-12715629D01*
X297791202Y-16251304D01*
X297765000Y-16314561D01*
X297765000Y-16885439D01*
X297983466Y-17412862D01*
X298387138Y-17816534D01*
X298914561Y-18035000D01*
X299485439Y-18035000D01*
X300012862Y-17816534D01*
X300416534Y-17412862D01*
X300635000Y-16885439D01*
X300635000Y-16314561D01*
X300416534Y-15787138D01*
X300012862Y-15383466D01*
X299485439Y-15165000D01*
X298914561Y-15165000D01*
X298872093Y-15182591D01*
X295744305Y-12054804D01*
X295774577Y-12034577D01*
X296030947Y-11650892D01*
X296127611Y-11855134D01*
X296542577Y-12231041D01*
X296930961Y-12391904D01*
X297153000Y-12269915D01*
X297153000Y-11127000D01*
X297133000Y-11127000D01*
X297133000Y-10873000D01*
X297153000Y-10873000D01*
X297153000Y-9730085D01*
X297407000Y-9730085D01*
X297407000Y-10873000D01*
X297427000Y-10873000D01*
X297427000Y-11127000D01*
X297407000Y-11127000D01*
X297407000Y-12269915D01*
X297629039Y-12391904D01*
X298017423Y-12231041D01*
X298432389Y-11855134D01*
X298529053Y-11650892D01*
X298785423Y-12034577D01*
X299260091Y-12351740D01*
X299678667Y-12435000D01*
X299961333Y-12435000D01*
X300379909Y-12351740D01*
X300854577Y-12034577D01*
X301110947Y-11650892D01*
X301207611Y-11855134D01*
X301622577Y-12231041D01*
X302010961Y-12391904D01*
X302233000Y-12269915D01*
X302233000Y-11127000D01*
X302213000Y-11127000D01*
X302213000Y-10873000D01*
X302233000Y-10873000D01*
X302233000Y-9730085D01*
X302010961Y-9608096D01*
X301622577Y-9768959D01*
X301207611Y-10144866D01*
X301110947Y-10349108D01*
X300854577Y-9965423D01*
X300379909Y-9648260D01*
X299961333Y-9565000D01*
X299678667Y-9565000D01*
X299260091Y-9648260D01*
X298785423Y-9965423D01*
X298529053Y-10349108D01*
X298432389Y-10144866D01*
X298017423Y-9768959D01*
X297629039Y-9608096D01*
X297407000Y-9730085D01*
X297153000Y-9730085D01*
X296930961Y-9608096D01*
X296542577Y-9768959D01*
X296127611Y-10144866D01*
X296030947Y-10349108D01*
X295774577Y-9965423D01*
X295744305Y-9945196D01*
X296349773Y-9339729D01*
X296413229Y-9297329D01*
X296581204Y-9045937D01*
X296625300Y-8824252D01*
X296625300Y-8824248D01*
X296640188Y-8749400D01*
X296625300Y-8674552D01*
X296625300Y-4645304D01*
X296930961Y-4771904D01*
X297153000Y-4649915D01*
X297153000Y-3507000D01*
X297133000Y-3507000D01*
X297133000Y-3253000D01*
X297153000Y-3253000D01*
X297153000Y-3233000D01*
X297407000Y-3233000D01*
X297407000Y-3253000D01*
X297427000Y-3253000D01*
X297427000Y-3507000D01*
X297407000Y-3507000D01*
X297407000Y-4649915D01*
X297629039Y-4771904D01*
X298017423Y-4611041D01*
X298432389Y-4235134D01*
X298529053Y-4030892D01*
X298785423Y-4414577D01*
X299260091Y-4731740D01*
X299678667Y-4815000D01*
X299961333Y-4815000D01*
X300379909Y-4731740D01*
X300854577Y-4414577D01*
X301090000Y-4062242D01*
X301325423Y-4414577D01*
X301800091Y-4731740D01*
X302218667Y-4815000D01*
X302501333Y-4815000D01*
X302919909Y-4731740D01*
X303394577Y-4414577D01*
X303580786Y-4135896D01*
X303667667Y-4118614D01*
X303865423Y-4414577D01*
X304340091Y-4731740D01*
X304758667Y-4815000D01*
X305041333Y-4815000D01*
X305459909Y-4731740D01*
X305934577Y-4414577D01*
X306120786Y-4135896D01*
X306207667Y-4118614D01*
X306405423Y-4414577D01*
X306880091Y-4731740D01*
X307298667Y-4815000D01*
X307581333Y-4815000D01*
X307999909Y-4731740D01*
X308474577Y-4414577D01*
X308791740Y-3939909D01*
X308903113Y-3380000D01*
X308825816Y-2991400D01*
X313816015Y-2991400D01*
X313765000Y-3114561D01*
X313765000Y-3685439D01*
X313786896Y-3738302D01*
X308080830Y-9444369D01*
X308017371Y-9486771D01*
X307920078Y-9632381D01*
X307581333Y-9565000D01*
X307298667Y-9565000D01*
X306880091Y-9648260D01*
X306405423Y-9965423D01*
X306170000Y-10317758D01*
X305934577Y-9965423D01*
X305459909Y-9648260D01*
X305041333Y-9565000D01*
X304758667Y-9565000D01*
X304340091Y-9648260D01*
X303865423Y-9965423D01*
X303609053Y-10349108D01*
X303512389Y-10144866D01*
X303097423Y-9768959D01*
X302709039Y-9608096D01*
X302487000Y-9730085D01*
X302487000Y-10873000D01*
X302507000Y-10873000D01*
X302507000Y-11127000D01*
X302487000Y-11127000D01*
X302487000Y-12269915D01*
X302709039Y-12391904D01*
X303097423Y-12231041D01*
X303512389Y-11855134D01*
X303609053Y-11650892D01*
X303865423Y-12034577D01*
X303895694Y-12054804D01*
X302115530Y-13834969D01*
X302052071Y-13877371D01*
X301884096Y-14128764D01*
X301840000Y-14350449D01*
X301840000Y-14350453D01*
X301825112Y-14425300D01*
X301840000Y-14500147D01*
X301840000Y-15361570D01*
X301787138Y-15383466D01*
X301383466Y-15787138D01*
X301165000Y-16314561D01*
X301165000Y-16885439D01*
X301383466Y-17412862D01*
X301787138Y-17816534D01*
X302314561Y-18035000D01*
X302885439Y-18035000D01*
X303412862Y-17816534D01*
X303816534Y-17412862D01*
X304035000Y-16885439D01*
X304035000Y-16314561D01*
X303816534Y-15787138D01*
X303412862Y-15383466D01*
X303360000Y-15361570D01*
X303360000Y-14740101D01*
X305384473Y-12715629D01*
X305447929Y-12673229D01*
X305615904Y-12421837D01*
X305655896Y-12220786D01*
X305934577Y-12034577D01*
X306170000Y-11682242D01*
X306405423Y-12034577D01*
X306880091Y-12351740D01*
X307298667Y-12435000D01*
X307581333Y-12435000D01*
X307999909Y-12351740D01*
X308474577Y-12034577D01*
X308494804Y-12004305D01*
X309460001Y-12969503D01*
X309460000Y-14525148D01*
X309445111Y-14600000D01*
X309460001Y-14674857D01*
X309460001Y-15381956D01*
X309185423Y-15565423D01*
X308868260Y-16040091D01*
X308756887Y-16600000D01*
X308868260Y-17159909D01*
X309185423Y-17634577D01*
X309660091Y-17951740D01*
X310078667Y-18035000D01*
X310361333Y-18035000D01*
X310779909Y-17951740D01*
X311254577Y-17634577D01*
X311571740Y-17159909D01*
X311683113Y-16600000D01*
X311571740Y-16040091D01*
X311254577Y-15565423D01*
X310980000Y-15381957D01*
X310980000Y-15360000D01*
X315161570Y-15360000D01*
X315183466Y-15412862D01*
X315587138Y-15816534D01*
X316114561Y-16035000D01*
X316685439Y-16035000D01*
X316738302Y-16013103D01*
X319809671Y-19084473D01*
X319852071Y-19147929D01*
X320027280Y-19265000D01*
X235085856Y-19265000D01*
X235246965Y-18816777D01*
X235219778Y-18246546D01*
X235053864Y-17845995D01*
X234807745Y-17771861D01*
X233979605Y-18600000D01*
X233993748Y-18614142D01*
X233814142Y-18793748D01*
X233800000Y-18779605D01*
X233785858Y-18793748D01*
X233606252Y-18614142D01*
X233620395Y-18600000D01*
X232792255Y-17771861D01*
X232546136Y-17845995D01*
X232353035Y-18383223D01*
X232380222Y-18953454D01*
X232509269Y-19265000D01*
X230277781Y-19265000D01*
X230435000Y-18885439D01*
X230435000Y-18314561D01*
X230216534Y-17787138D01*
X230021651Y-17592255D01*
X232971861Y-17592255D01*
X233800000Y-18420395D01*
X234628139Y-17592255D01*
X234554005Y-17346136D01*
X234016777Y-17153035D01*
X233446546Y-17180222D01*
X233045995Y-17346136D01*
X232971861Y-17592255D01*
X230021651Y-17592255D01*
X229812862Y-17383466D01*
X229760000Y-17361570D01*
X229760000Y-17220101D01*
X234284473Y-12695629D01*
X234347929Y-12653229D01*
X234515904Y-12401837D01*
X234555896Y-12200786D01*
X234834577Y-12014577D01*
X235151740Y-11539909D01*
X235263113Y-10980000D01*
X235151740Y-10420091D01*
X234834577Y-9945423D01*
X234359909Y-9628260D01*
X233941333Y-9545000D01*
X233658667Y-9545000D01*
X233240091Y-9628260D01*
X232765423Y-9945423D01*
X232448260Y-10420091D01*
X232336887Y-10980000D01*
X232448260Y-11539909D01*
X232765423Y-12014577D01*
X232795694Y-12034804D01*
X228515528Y-16314971D01*
X228452072Y-16357371D01*
X228409672Y-16420827D01*
X228409671Y-16420828D01*
X228329842Y-16540301D01*
X228284097Y-16608763D01*
X228246058Y-16800000D01*
X228225112Y-16905300D01*
X228240001Y-16980151D01*
X228240001Y-17361570D01*
X228187138Y-17383466D01*
X227783466Y-17787138D01*
X227565000Y-18314561D01*
X227565000Y-18885439D01*
X227722219Y-19265000D01*
X225477781Y-19265000D01*
X225635000Y-18885439D01*
X225635000Y-18314561D01*
X225416534Y-17787138D01*
X225012862Y-17383466D01*
X224485439Y-17165000D01*
X223914561Y-17165000D01*
X223387138Y-17383466D01*
X222983466Y-17787138D01*
X222765000Y-18314561D01*
X222765000Y-18885439D01*
X222922219Y-19265000D01*
X220677781Y-19265000D01*
X220835000Y-18885439D01*
X220835000Y-18314561D01*
X220616534Y-17787138D01*
X220212862Y-17383466D01*
X219685439Y-17165000D01*
X219114561Y-17165000D01*
X218587138Y-17383466D01*
X218183466Y-17787138D01*
X217965000Y-18314561D01*
X217965000Y-18885439D01*
X218122219Y-19265000D01*
X215877781Y-19265000D01*
X216035000Y-18885439D01*
X216035000Y-18314561D01*
X215816534Y-17787138D01*
X215412862Y-17383466D01*
X214885439Y-17165000D01*
X214314561Y-17165000D01*
X213787138Y-17383466D01*
X213383466Y-17787138D01*
X213361570Y-17840000D01*
X202314802Y-17840000D01*
X201371879Y-16897077D01*
X201455448Y-16913700D01*
X201455452Y-16913700D01*
X201530300Y-16928588D01*
X201605148Y-16913700D01*
X221708053Y-16913700D01*
X221782900Y-16928588D01*
X221857747Y-16913700D01*
X221857752Y-16913700D01*
X222079437Y-16869604D01*
X222330829Y-16701629D01*
X222373231Y-16638170D01*
X227618932Y-11392469D01*
X227648260Y-11539909D01*
X227965423Y-12014577D01*
X228440091Y-12331740D01*
X228858667Y-12415000D01*
X229141333Y-12415000D01*
X229559909Y-12331740D01*
X230034577Y-12014577D01*
X230351740Y-11539909D01*
X230463113Y-10980000D01*
X230351740Y-10420091D01*
X230034577Y-9945423D01*
X229757072Y-9760000D01*
X229961570Y-9760000D01*
X229983466Y-9812862D01*
X230387138Y-10216534D01*
X230914561Y-10435000D01*
X231485439Y-10435000D01*
X232012862Y-10216534D01*
X232416534Y-9812862D01*
X232635000Y-9285439D01*
X232635000Y-8714561D01*
X232416534Y-8187138D01*
X232012862Y-7783466D01*
X231485439Y-7565000D01*
X230914561Y-7565000D01*
X230387138Y-7783466D01*
X229983466Y-8187138D01*
X229961570Y-8240000D01*
X229011448Y-8240000D01*
X228936600Y-8225112D01*
X228861752Y-8240000D01*
X228861748Y-8240000D01*
X228640063Y-8284096D01*
X228388671Y-8452071D01*
X228346272Y-8515526D01*
X228035000Y-8826798D01*
X228035000Y-8714561D01*
X228013103Y-8661698D01*
X228977073Y-7697729D01*
X229040529Y-7655329D01*
X229208504Y-7403937D01*
X229252600Y-7182252D01*
X229252600Y-7182248D01*
X229267488Y-7107400D01*
X229252600Y-7032552D01*
X229252600Y-4831711D01*
X229370031Y-4714280D01*
X229527600Y-4333874D01*
X229527600Y-3922126D01*
X229370031Y-3541720D01*
X229178906Y-3350595D01*
X230145196Y-2384306D01*
X230165423Y-2414577D01*
X230640091Y-2731740D01*
X231058667Y-2815000D01*
X231341333Y-2815000D01*
X231759909Y-2731740D01*
X232234577Y-2414577D01*
X232551740Y-1939909D01*
X232663113Y-1380000D01*
X232551740Y-820091D01*
X232494884Y-735000D01*
X297237562Y-735000D01*
X297208571Y-754371D01*
X297208571Y-754371D01*
G37*
X297208571Y-754371D02*
X297166171Y-817827D01*
X295693050Y-2290949D01*
X295299909Y-2028260D01*
X294881333Y-1945000D01*
X294598667Y-1945000D01*
X294180091Y-2028260D01*
X293705423Y-2345423D01*
X293470000Y-2697758D01*
X293234577Y-2345423D01*
X292759909Y-2028260D01*
X292341333Y-1945000D01*
X292058667Y-1945000D01*
X291640091Y-2028260D01*
X291165423Y-2345423D01*
X290848260Y-2820091D01*
X290736887Y-3380000D01*
X290848260Y-3939909D01*
X291165423Y-4414577D01*
X291640091Y-4731740D01*
X292058667Y-4815000D01*
X292341333Y-4815000D01*
X292759909Y-4731740D01*
X293234577Y-4414577D01*
X293470000Y-4062242D01*
X293705423Y-4414577D01*
X294180091Y-4731740D01*
X294598667Y-4815000D01*
X294881333Y-4815000D01*
X295105300Y-4770450D01*
X295105301Y-8434597D01*
X294255528Y-9284371D01*
X294192072Y-9326771D01*
X294149672Y-9390227D01*
X294149671Y-9390228D01*
X294024097Y-9578163D01*
X293984106Y-9779213D01*
X293705423Y-9965423D01*
X293624785Y-10086106D01*
X293598157Y-9952235D01*
X293457809Y-9742191D01*
X293247765Y-9601843D01*
X293000000Y-9552560D01*
X291400000Y-9552560D01*
X291152235Y-9601843D01*
X290942191Y-9742191D01*
X290801843Y-9952235D01*
X290752560Y-10200000D01*
X290752560Y-11800000D01*
X290801843Y-12047765D01*
X290942191Y-12257809D01*
X290976410Y-12280674D01*
X290864096Y-12448764D01*
X290820000Y-12670449D01*
X290820000Y-12670453D01*
X290805112Y-12745300D01*
X290820000Y-12820147D01*
X290820001Y-15381956D01*
X290545423Y-15565423D01*
X290228260Y-16040091D01*
X290116887Y-16600000D01*
X290228260Y-17159909D01*
X290545423Y-17634577D01*
X291020091Y-17951740D01*
X291438667Y-18035000D01*
X291721333Y-18035000D01*
X292139909Y-17951740D01*
X292614577Y-17634577D01*
X292931740Y-17159909D01*
X293043113Y-16600000D01*
X292931740Y-16040091D01*
X292614577Y-15565423D01*
X292340000Y-15381957D01*
X292340000Y-13060102D01*
X292684475Y-12715628D01*
X292747929Y-12673229D01*
X292790327Y-12609776D01*
X292790329Y-12609774D01*
X292897912Y-12448764D01*
X292898797Y-12447440D01*
X293000000Y-12447440D01*
X293247765Y-12398157D01*
X293457809Y-12257809D01*
X293598157Y-12047765D01*
X293624785Y-11913894D01*
X293705423Y-12034577D01*
X293984106Y-12220787D01*
X294024097Y-12421837D01*
X294138646Y-12593271D01*
X294192072Y-12673229D01*
X294255528Y-12715629D01*
X297791202Y-16251304D01*
X297765000Y-16314561D01*
X297765000Y-16885439D01*
X297983466Y-17412862D01*
X298387138Y-17816534D01*
X298914561Y-18035000D01*
X299485439Y-18035000D01*
X300012862Y-17816534D01*
X300416534Y-17412862D01*
X300635000Y-16885439D01*
X300635000Y-16314561D01*
X300416534Y-15787138D01*
X300012862Y-15383466D01*
X299485439Y-15165000D01*
X298914561Y-15165000D01*
X298872093Y-15182591D01*
X295744305Y-12054804D01*
X295774577Y-12034577D01*
X296030947Y-11650892D01*
X296127611Y-11855134D01*
X296542577Y-12231041D01*
X296930961Y-12391904D01*
X297153000Y-12269915D01*
X297153000Y-11127000D01*
X297133000Y-11127000D01*
X297133000Y-10873000D01*
X297153000Y-10873000D01*
X297153000Y-9730085D01*
X297407000Y-9730085D01*
X297407000Y-10873000D01*
X297427000Y-10873000D01*
X297427000Y-11127000D01*
X297407000Y-11127000D01*
X297407000Y-12269915D01*
X297629039Y-12391904D01*
X298017423Y-12231041D01*
X298432389Y-11855134D01*
X298529053Y-11650892D01*
X298785423Y-12034577D01*
X299260091Y-12351740D01*
X299678667Y-12435000D01*
X299961333Y-12435000D01*
X300379909Y-12351740D01*
X300854577Y-12034577D01*
X301110947Y-11650892D01*
X301207611Y-11855134D01*
X301622577Y-12231041D01*
X302010961Y-12391904D01*
X302233000Y-12269915D01*
X302233000Y-11127000D01*
X302213000Y-11127000D01*
X302213000Y-10873000D01*
X302233000Y-10873000D01*
X302233000Y-9730085D01*
X302010961Y-9608096D01*
X301622577Y-9768959D01*
X301207611Y-10144866D01*
X301110947Y-10349108D01*
X300854577Y-9965423D01*
X300379909Y-9648260D01*
X299961333Y-9565000D01*
X299678667Y-9565000D01*
X299260091Y-9648260D01*
X298785423Y-9965423D01*
X298529053Y-10349108D01*
X298432389Y-10144866D01*
X298017423Y-9768959D01*
X297629039Y-9608096D01*
X297407000Y-9730085D01*
X297153000Y-9730085D01*
X296930961Y-9608096D01*
X296542577Y-9768959D01*
X296127611Y-10144866D01*
X296030947Y-10349108D01*
X295774577Y-9965423D01*
X295744305Y-9945196D01*
X296349773Y-9339729D01*
X296413229Y-9297329D01*
X296581204Y-9045937D01*
X296625300Y-8824252D01*
X296625300Y-8824248D01*
X296640188Y-8749400D01*
X296625300Y-8674552D01*
X296625300Y-4645304D01*
X296930961Y-4771904D01*
X297153000Y-4649915D01*
X297153000Y-3507000D01*
X297133000Y-3507000D01*
X297133000Y-3253000D01*
X297153000Y-3253000D01*
X297153000Y-3233000D01*
X297407000Y-3233000D01*
X297407000Y-3253000D01*
X297427000Y-3253000D01*
X297427000Y-3507000D01*
X297407000Y-3507000D01*
X297407000Y-4649915D01*
X297629039Y-4771904D01*
X298017423Y-4611041D01*
X298432389Y-4235134D01*
X298529053Y-4030892D01*
X298785423Y-4414577D01*
X299260091Y-4731740D01*
X299678667Y-4815000D01*
X299961333Y-4815000D01*
X300379909Y-4731740D01*
X300854577Y-4414577D01*
X301090000Y-4062242D01*
X301325423Y-4414577D01*
X301800091Y-4731740D01*
X302218667Y-4815000D01*
X302501333Y-4815000D01*
X302919909Y-4731740D01*
X303394577Y-4414577D01*
X303580786Y-4135896D01*
X303667667Y-4118614D01*
X303865423Y-4414577D01*
X304340091Y-4731740D01*
X304758667Y-4815000D01*
X305041333Y-4815000D01*
X305459909Y-4731740D01*
X305934577Y-4414577D01*
X306120786Y-4135896D01*
X306207667Y-4118614D01*
X306405423Y-4414577D01*
X306880091Y-4731740D01*
X307298667Y-4815000D01*
X307581333Y-4815000D01*
X307999909Y-4731740D01*
X308474577Y-4414577D01*
X308791740Y-3939909D01*
X308903113Y-3380000D01*
X308825816Y-2991400D01*
X313816015Y-2991400D01*
X313765000Y-3114561D01*
X313765000Y-3685439D01*
X313786896Y-3738302D01*
X308080830Y-9444369D01*
X308017371Y-9486771D01*
X307920078Y-9632381D01*
X307581333Y-9565000D01*
X307298667Y-9565000D01*
X306880091Y-9648260D01*
X306405423Y-9965423D01*
X306170000Y-10317758D01*
X305934577Y-9965423D01*
X305459909Y-9648260D01*
X305041333Y-9565000D01*
X304758667Y-9565000D01*
X304340091Y-9648260D01*
X303865423Y-9965423D01*
X303609053Y-10349108D01*
X303512389Y-10144866D01*
X303097423Y-9768959D01*
X302709039Y-9608096D01*
X302487000Y-9730085D01*
X302487000Y-10873000D01*
X302507000Y-10873000D01*
X302507000Y-11127000D01*
X302487000Y-11127000D01*
X302487000Y-12269915D01*
X302709039Y-12391904D01*
X303097423Y-12231041D01*
X303512389Y-11855134D01*
X303609053Y-11650892D01*
X303865423Y-12034577D01*
X303895694Y-12054804D01*
X302115530Y-13834969D01*
X302052071Y-13877371D01*
X301884096Y-14128764D01*
X301840000Y-14350449D01*
X301840000Y-14350453D01*
X301825112Y-14425300D01*
X301840000Y-14500147D01*
X301840000Y-15361570D01*
X301787138Y-15383466D01*
X301383466Y-15787138D01*
X301165000Y-16314561D01*
X301165000Y-16885439D01*
X301383466Y-17412862D01*
X301787138Y-17816534D01*
X302314561Y-18035000D01*
X302885439Y-18035000D01*
X303412862Y-17816534D01*
X303816534Y-17412862D01*
X304035000Y-16885439D01*
X304035000Y-16314561D01*
X303816534Y-15787138D01*
X303412862Y-15383466D01*
X303360000Y-15361570D01*
X303360000Y-14740101D01*
X305384473Y-12715629D01*
X305447929Y-12673229D01*
X305615904Y-12421837D01*
X305655896Y-12220786D01*
X305934577Y-12034577D01*
X306170000Y-11682242D01*
X306405423Y-12034577D01*
X306880091Y-12351740D01*
X307298667Y-12435000D01*
X307581333Y-12435000D01*
X307999909Y-12351740D01*
X308474577Y-12034577D01*
X308494804Y-12004305D01*
X309460001Y-12969503D01*
X309460000Y-14525148D01*
X309445111Y-14600000D01*
X309460001Y-14674857D01*
X309460001Y-15381956D01*
X309185423Y-15565423D01*
X308868260Y-16040091D01*
X308756887Y-16600000D01*
X308868260Y-17159909D01*
X309185423Y-17634577D01*
X309660091Y-17951740D01*
X310078667Y-18035000D01*
X310361333Y-18035000D01*
X310779909Y-17951740D01*
X311254577Y-17634577D01*
X311571740Y-17159909D01*
X311683113Y-16600000D01*
X311571740Y-16040091D01*
X311254577Y-15565423D01*
X310980000Y-15381957D01*
X310980000Y-15360000D01*
X315161570Y-15360000D01*
X315183466Y-15412862D01*
X315587138Y-15816534D01*
X316114561Y-16035000D01*
X316685439Y-16035000D01*
X316738302Y-16013103D01*
X319809671Y-19084473D01*
X319852071Y-19147929D01*
X320027280Y-19265000D01*
X235085856Y-19265000D01*
X235246965Y-18816777D01*
X235219778Y-18246546D01*
X235053864Y-17845995D01*
X234807745Y-17771861D01*
X233979605Y-18600000D01*
X233993748Y-18614142D01*
X233814142Y-18793748D01*
X233800000Y-18779605D01*
X233785858Y-18793748D01*
X233606252Y-18614142D01*
X233620395Y-18600000D01*
X232792255Y-17771861D01*
X232546136Y-17845995D01*
X232353035Y-18383223D01*
X232380222Y-18953454D01*
X232509269Y-19265000D01*
X230277781Y-19265000D01*
X230435000Y-18885439D01*
X230435000Y-18314561D01*
X230216534Y-17787138D01*
X230021651Y-17592255D01*
X232971861Y-17592255D01*
X233800000Y-18420395D01*
X234628139Y-17592255D01*
X234554005Y-17346136D01*
X234016777Y-17153035D01*
X233446546Y-17180222D01*
X233045995Y-17346136D01*
X232971861Y-17592255D01*
X230021651Y-17592255D01*
X229812862Y-17383466D01*
X229760000Y-17361570D01*
X229760000Y-17220101D01*
X234284473Y-12695629D01*
X234347929Y-12653229D01*
X234515904Y-12401837D01*
X234555896Y-12200786D01*
X234834577Y-12014577D01*
X235151740Y-11539909D01*
X235263113Y-10980000D01*
X235151740Y-10420091D01*
X234834577Y-9945423D01*
X234359909Y-9628260D01*
X233941333Y-9545000D01*
X233658667Y-9545000D01*
X233240091Y-9628260D01*
X232765423Y-9945423D01*
X232448260Y-10420091D01*
X232336887Y-10980000D01*
X232448260Y-11539909D01*
X232765423Y-12014577D01*
X232795694Y-12034804D01*
X228515528Y-16314971D01*
X228452072Y-16357371D01*
X228409672Y-16420827D01*
X228409671Y-16420828D01*
X228329842Y-16540301D01*
X228284097Y-16608763D01*
X228246058Y-16800000D01*
X228225112Y-16905300D01*
X228240001Y-16980151D01*
X228240001Y-17361570D01*
X228187138Y-17383466D01*
X227783466Y-17787138D01*
X227565000Y-18314561D01*
X227565000Y-18885439D01*
X227722219Y-19265000D01*
X225477781Y-19265000D01*
X225635000Y-18885439D01*
X225635000Y-18314561D01*
X225416534Y-17787138D01*
X225012862Y-17383466D01*
X224485439Y-17165000D01*
X223914561Y-17165000D01*
X223387138Y-17383466D01*
X222983466Y-17787138D01*
X222765000Y-18314561D01*
X222765000Y-18885439D01*
X222922219Y-19265000D01*
X220677781Y-19265000D01*
X220835000Y-18885439D01*
X220835000Y-18314561D01*
X220616534Y-17787138D01*
X220212862Y-17383466D01*
X219685439Y-17165000D01*
X219114561Y-17165000D01*
X218587138Y-17383466D01*
X218183466Y-17787138D01*
X217965000Y-18314561D01*
X217965000Y-18885439D01*
X218122219Y-19265000D01*
X215877781Y-19265000D01*
X216035000Y-18885439D01*
X216035000Y-18314561D01*
X215816534Y-17787138D01*
X215412862Y-17383466D01*
X214885439Y-17165000D01*
X214314561Y-17165000D01*
X213787138Y-17383466D01*
X213383466Y-17787138D01*
X213361570Y-17840000D01*
X202314802Y-17840000D01*
X201371879Y-16897077D01*
X201455448Y-16913700D01*
X201455452Y-16913700D01*
X201530300Y-16928588D01*
X201605148Y-16913700D01*
X221708053Y-16913700D01*
X221782900Y-16928588D01*
X221857747Y-16913700D01*
X221857752Y-16913700D01*
X222079437Y-16869604D01*
X222330829Y-16701629D01*
X222373231Y-16638170D01*
X227618932Y-11392469D01*
X227648260Y-11539909D01*
X227965423Y-12014577D01*
X228440091Y-12331740D01*
X228858667Y-12415000D01*
X229141333Y-12415000D01*
X229559909Y-12331740D01*
X230034577Y-12014577D01*
X230351740Y-11539909D01*
X230463113Y-10980000D01*
X230351740Y-10420091D01*
X230034577Y-9945423D01*
X229757072Y-9760000D01*
X229961570Y-9760000D01*
X229983466Y-9812862D01*
X230387138Y-10216534D01*
X230914561Y-10435000D01*
X231485439Y-10435000D01*
X232012862Y-10216534D01*
X232416534Y-9812862D01*
X232635000Y-9285439D01*
X232635000Y-8714561D01*
X232416534Y-8187138D01*
X232012862Y-7783466D01*
X231485439Y-7565000D01*
X230914561Y-7565000D01*
X230387138Y-7783466D01*
X229983466Y-8187138D01*
X229961570Y-8240000D01*
X229011448Y-8240000D01*
X228936600Y-8225112D01*
X228861752Y-8240000D01*
X228861748Y-8240000D01*
X228640063Y-8284096D01*
X228388671Y-8452071D01*
X228346272Y-8515526D01*
X228035000Y-8826798D01*
X228035000Y-8714561D01*
X228013103Y-8661698D01*
X228977073Y-7697729D01*
X229040529Y-7655329D01*
X229208504Y-7403937D01*
X229252600Y-7182252D01*
X229252600Y-7182248D01*
X229267488Y-7107400D01*
X229252600Y-7032552D01*
X229252600Y-4831711D01*
X229370031Y-4714280D01*
X229527600Y-4333874D01*
X229527600Y-3922126D01*
X229370031Y-3541720D01*
X229178906Y-3350595D01*
X230145196Y-2384306D01*
X230165423Y-2414577D01*
X230640091Y-2731740D01*
X231058667Y-2815000D01*
X231341333Y-2815000D01*
X231759909Y-2731740D01*
X232234577Y-2414577D01*
X232551740Y-1939909D01*
X232663113Y-1380000D01*
X232551740Y-820091D01*
X232494884Y-735000D01*
X297237562Y-735000D01*
X297208571Y-754371D01*
G36*
X170136887Y-3380000D02*
X170248260Y-3939909D01*
X170565423Y-4414577D01*
X171040091Y-4731740D01*
X171458667Y-4815000D01*
X171741333Y-4815000D01*
X172159909Y-4731740D01*
X172634577Y-4414577D01*
X172870000Y-4062242D01*
X173105423Y-4414577D01*
X173580091Y-4731740D01*
X173998667Y-4815000D01*
X174281333Y-4815000D01*
X174699909Y-4731740D01*
X175174577Y-4414577D01*
X175430947Y-4030892D01*
X175527611Y-4235134D01*
X175942577Y-4611041D01*
X176330961Y-4771904D01*
X176553000Y-4649915D01*
X176553000Y-3507000D01*
X176533000Y-3507000D01*
X176533000Y-3253000D01*
X176553000Y-3253000D01*
X176553000Y-3233000D01*
X176807000Y-3233000D01*
X176807000Y-3253000D01*
X176827000Y-3253000D01*
X176827000Y-3507000D01*
X176807000Y-3507000D01*
X176807000Y-4649915D01*
X177029039Y-4771904D01*
X177417423Y-4611041D01*
X177832389Y-4235134D01*
X177929053Y-4030892D01*
X178185423Y-4414577D01*
X178660091Y-4731740D01*
X179078667Y-4815000D01*
X179361333Y-4815000D01*
X179779909Y-4731740D01*
X180254577Y-4414577D01*
X180490000Y-4062242D01*
X180725423Y-4414577D01*
X181200091Y-4731740D01*
X181618667Y-4815000D01*
X181901333Y-4815000D01*
X182319909Y-4731740D01*
X182794577Y-4414577D01*
X182992333Y-4118614D01*
X183079214Y-4135896D01*
X183265423Y-4414577D01*
X183740091Y-4731740D01*
X184158667Y-4815000D01*
X184441333Y-4815000D01*
X184744746Y-4754647D01*
X186080000Y-6089902D01*
X186080001Y-9781956D01*
X185805423Y-9965423D01*
X185570000Y-10317758D01*
X185334577Y-9965423D01*
X184859909Y-9648260D01*
X184441333Y-9565000D01*
X184158667Y-9565000D01*
X183740091Y-9648260D01*
X183265423Y-9965423D01*
X183009053Y-10349108D01*
X182912389Y-10144866D01*
X182497423Y-9768959D01*
X182109039Y-9608096D01*
X181887000Y-9730085D01*
X181887000Y-10873000D01*
X181907000Y-10873000D01*
X181907000Y-11127000D01*
X181887000Y-11127000D01*
X181887000Y-12269915D01*
X182109039Y-12391904D01*
X182497423Y-12231041D01*
X182912389Y-11855134D01*
X183009053Y-11650892D01*
X183265423Y-12034577D01*
X183540000Y-12218044D01*
X183540001Y-13785196D01*
X182538302Y-14786896D01*
X182485439Y-14765000D01*
X181914561Y-14765000D01*
X181387138Y-14983466D01*
X180983466Y-15387138D01*
X180765000Y-15914561D01*
X180765000Y-16485439D01*
X180802429Y-16575800D01*
X180235000Y-16575800D01*
X180235000Y-16114561D01*
X180016534Y-15587138D01*
X179612862Y-15183466D01*
X179085439Y-14965000D01*
X178514561Y-14965000D01*
X178461698Y-14986896D01*
X175308679Y-11833878D01*
X175430947Y-11650892D01*
X175527611Y-11855134D01*
X175942577Y-12231041D01*
X176330961Y-12391904D01*
X176553000Y-12269915D01*
X176553000Y-11127000D01*
X176533000Y-11127000D01*
X176533000Y-10873000D01*
X176553000Y-10873000D01*
X176553000Y-9730085D01*
X176807000Y-9730085D01*
X176807000Y-10873000D01*
X176827000Y-10873000D01*
X176827000Y-11127000D01*
X176807000Y-11127000D01*
X176807000Y-12269915D01*
X177029039Y-12391904D01*
X177417423Y-12231041D01*
X177832389Y-11855134D01*
X177929053Y-11650892D01*
X178185423Y-12034577D01*
X178660091Y-12351740D01*
X179078667Y-12435000D01*
X179361333Y-12435000D01*
X179779909Y-12351740D01*
X180254577Y-12034577D01*
X180510947Y-11650892D01*
X180607611Y-11855134D01*
X181022577Y-12231041D01*
X181410961Y-12391904D01*
X181633000Y-12269915D01*
X181633000Y-11127000D01*
X181613000Y-11127000D01*
X181613000Y-10873000D01*
X181633000Y-10873000D01*
X181633000Y-9730085D01*
X181410961Y-9608096D01*
X181022577Y-9768959D01*
X180607611Y-10144866D01*
X180510947Y-10349108D01*
X180254577Y-9965423D01*
X179779909Y-9648260D01*
X179361333Y-9565000D01*
X179078667Y-9565000D01*
X178660091Y-9648260D01*
X178185423Y-9965423D01*
X177929053Y-10349108D01*
X177832389Y-10144866D01*
X177417423Y-9768959D01*
X177029039Y-9608096D01*
X176807000Y-9730085D01*
X176553000Y-9730085D01*
X176330961Y-9608096D01*
X175942577Y-9768959D01*
X175527611Y-10144866D01*
X175430947Y-10349108D01*
X175174577Y-9965423D01*
X174699909Y-9648260D01*
X174281333Y-9565000D01*
X173998667Y-9565000D01*
X173580091Y-9648260D01*
X173105423Y-9965423D01*
X173024785Y-10086106D01*
X172998157Y-9952235D01*
X172857809Y-9742191D01*
X172647765Y-9601843D01*
X172400000Y-9552560D01*
X170800000Y-9552560D01*
X170552235Y-9601843D01*
X170342191Y-9742191D01*
X170201843Y-9952235D01*
X170152560Y-10200000D01*
X170152560Y-11800000D01*
X170201843Y-12047765D01*
X170342191Y-12257809D01*
X170552235Y-12398157D01*
X170800000Y-12447440D01*
X170840000Y-12447440D01*
X170840001Y-14539898D01*
X170695528Y-14684371D01*
X170632072Y-14726771D01*
X170589672Y-14790227D01*
X170589671Y-14790228D01*
X170464097Y-14978163D01*
X170424106Y-15179213D01*
X170145423Y-15365423D01*
X169828260Y-15840091D01*
X169716887Y-16400000D01*
X169828260Y-16959909D01*
X170145423Y-17434577D01*
X170620091Y-17751740D01*
X171038667Y-17835000D01*
X171321333Y-17835000D01*
X171739909Y-17751740D01*
X172214577Y-17434577D01*
X172234804Y-17404305D01*
X173128373Y-18297876D01*
X173170771Y-18361329D01*
X173234224Y-18403727D01*
X173234226Y-18403729D01*
X173345128Y-18477831D01*
X173422163Y-18529304D01*
X173643848Y-18573400D01*
X173643852Y-18573400D01*
X173718699Y-18588288D01*
X173793546Y-18573400D01*
X192482253Y-18573400D01*
X192557100Y-18588288D01*
X192631947Y-18573400D01*
X192631952Y-18573400D01*
X192853637Y-18529304D01*
X193105029Y-18361329D01*
X193147431Y-18297870D01*
X196815102Y-14630200D01*
X196999944Y-14630200D01*
X196965000Y-14714561D01*
X196965000Y-15285439D01*
X197183466Y-15812862D01*
X197587138Y-16216534D01*
X198114561Y-16435000D01*
X198685439Y-16435000D01*
X198738302Y-16413103D01*
X201409671Y-19084473D01*
X201452071Y-19147929D01*
X201515527Y-19190329D01*
X201627279Y-19265000D01*
X156293045Y-19265000D01*
X156446965Y-18836777D01*
X156419778Y-18266546D01*
X156253864Y-17865995D01*
X156007745Y-17791861D01*
X155179605Y-18620000D01*
X155193748Y-18634142D01*
X155014142Y-18813748D01*
X155000000Y-18799605D01*
X154985858Y-18813748D01*
X154806252Y-18634142D01*
X154820395Y-18620000D01*
X153992255Y-17791861D01*
X153746136Y-17865995D01*
X153553035Y-18403223D01*
X153580222Y-18973454D01*
X153700985Y-19265000D01*
X151486065Y-19265000D01*
X151635000Y-18905439D01*
X151635000Y-18334561D01*
X151416534Y-17807138D01*
X151221651Y-17612255D01*
X154171861Y-17612255D01*
X155000000Y-18440395D01*
X155828139Y-17612255D01*
X155754005Y-17366136D01*
X155216777Y-17173035D01*
X154646546Y-17200222D01*
X154245995Y-17366136D01*
X154171861Y-17612255D01*
X151221651Y-17612255D01*
X151012862Y-17403466D01*
X150960000Y-17381570D01*
X150960000Y-17240101D01*
X155484473Y-12715629D01*
X155547929Y-12673229D01*
X155715904Y-12421837D01*
X155755896Y-12220786D01*
X156034577Y-12034577D01*
X156351740Y-11559909D01*
X156463113Y-11000000D01*
X156351740Y-10440091D01*
X156034577Y-9965423D01*
X155724779Y-9758423D01*
X162468503Y-3014700D01*
X170209550Y-3014700D01*
X170136887Y-3380000D01*
X170136887Y-3380000D01*
G37*
X170136887Y-3380000D02*
X170248260Y-3939909D01*
X170565423Y-4414577D01*
X171040091Y-4731740D01*
X171458667Y-4815000D01*
X171741333Y-4815000D01*
X172159909Y-4731740D01*
X172634577Y-4414577D01*
X172870000Y-4062242D01*
X173105423Y-4414577D01*
X173580091Y-4731740D01*
X173998667Y-4815000D01*
X174281333Y-4815000D01*
X174699909Y-4731740D01*
X175174577Y-4414577D01*
X175430947Y-4030892D01*
X175527611Y-4235134D01*
X175942577Y-4611041D01*
X176330961Y-4771904D01*
X176553000Y-4649915D01*
X176553000Y-3507000D01*
X176533000Y-3507000D01*
X176533000Y-3253000D01*
X176553000Y-3253000D01*
X176553000Y-3233000D01*
X176807000Y-3233000D01*
X176807000Y-3253000D01*
X176827000Y-3253000D01*
X176827000Y-3507000D01*
X176807000Y-3507000D01*
X176807000Y-4649915D01*
X177029039Y-4771904D01*
X177417423Y-4611041D01*
X177832389Y-4235134D01*
X177929053Y-4030892D01*
X178185423Y-4414577D01*
X178660091Y-4731740D01*
X179078667Y-4815000D01*
X179361333Y-4815000D01*
X179779909Y-4731740D01*
X180254577Y-4414577D01*
X180490000Y-4062242D01*
X180725423Y-4414577D01*
X181200091Y-4731740D01*
X181618667Y-4815000D01*
X181901333Y-4815000D01*
X182319909Y-4731740D01*
X182794577Y-4414577D01*
X182992333Y-4118614D01*
X183079214Y-4135896D01*
X183265423Y-4414577D01*
X183740091Y-4731740D01*
X184158667Y-4815000D01*
X184441333Y-4815000D01*
X184744746Y-4754647D01*
X186080000Y-6089902D01*
X186080001Y-9781956D01*
X185805423Y-9965423D01*
X185570000Y-10317758D01*
X185334577Y-9965423D01*
X184859909Y-9648260D01*
X184441333Y-9565000D01*
X184158667Y-9565000D01*
X183740091Y-9648260D01*
X183265423Y-9965423D01*
X183009053Y-10349108D01*
X182912389Y-10144866D01*
X182497423Y-9768959D01*
X182109039Y-9608096D01*
X181887000Y-9730085D01*
X181887000Y-10873000D01*
X181907000Y-10873000D01*
X181907000Y-11127000D01*
X181887000Y-11127000D01*
X181887000Y-12269915D01*
X182109039Y-12391904D01*
X182497423Y-12231041D01*
X182912389Y-11855134D01*
X183009053Y-11650892D01*
X183265423Y-12034577D01*
X183540000Y-12218044D01*
X183540001Y-13785196D01*
X182538302Y-14786896D01*
X182485439Y-14765000D01*
X181914561Y-14765000D01*
X181387138Y-14983466D01*
X180983466Y-15387138D01*
X180765000Y-15914561D01*
X180765000Y-16485439D01*
X180802429Y-16575800D01*
X180235000Y-16575800D01*
X180235000Y-16114561D01*
X180016534Y-15587138D01*
X179612862Y-15183466D01*
X179085439Y-14965000D01*
X178514561Y-14965000D01*
X178461698Y-14986896D01*
X175308679Y-11833878D01*
X175430947Y-11650892D01*
X175527611Y-11855134D01*
X175942577Y-12231041D01*
X176330961Y-12391904D01*
X176553000Y-12269915D01*
X176553000Y-11127000D01*
X176533000Y-11127000D01*
X176533000Y-10873000D01*
X176553000Y-10873000D01*
X176553000Y-9730085D01*
X176807000Y-9730085D01*
X176807000Y-10873000D01*
X176827000Y-10873000D01*
X176827000Y-11127000D01*
X176807000Y-11127000D01*
X176807000Y-12269915D01*
X177029039Y-12391904D01*
X177417423Y-12231041D01*
X177832389Y-11855134D01*
X177929053Y-11650892D01*
X178185423Y-12034577D01*
X178660091Y-12351740D01*
X179078667Y-12435000D01*
X179361333Y-12435000D01*
X179779909Y-12351740D01*
X180254577Y-12034577D01*
X180510947Y-11650892D01*
X180607611Y-11855134D01*
X181022577Y-12231041D01*
X181410961Y-12391904D01*
X181633000Y-12269915D01*
X181633000Y-11127000D01*
X181613000Y-11127000D01*
X181613000Y-10873000D01*
X181633000Y-10873000D01*
X181633000Y-9730085D01*
X181410961Y-9608096D01*
X181022577Y-9768959D01*
X180607611Y-10144866D01*
X180510947Y-10349108D01*
X180254577Y-9965423D01*
X179779909Y-9648260D01*
X179361333Y-9565000D01*
X179078667Y-9565000D01*
X178660091Y-9648260D01*
X178185423Y-9965423D01*
X177929053Y-10349108D01*
X177832389Y-10144866D01*
X177417423Y-9768959D01*
X177029039Y-9608096D01*
X176807000Y-9730085D01*
X176553000Y-9730085D01*
X176330961Y-9608096D01*
X175942577Y-9768959D01*
X175527611Y-10144866D01*
X175430947Y-10349108D01*
X175174577Y-9965423D01*
X174699909Y-9648260D01*
X174281333Y-9565000D01*
X173998667Y-9565000D01*
X173580091Y-9648260D01*
X173105423Y-9965423D01*
X173024785Y-10086106D01*
X172998157Y-9952235D01*
X172857809Y-9742191D01*
X172647765Y-9601843D01*
X172400000Y-9552560D01*
X170800000Y-9552560D01*
X170552235Y-9601843D01*
X170342191Y-9742191D01*
X170201843Y-9952235D01*
X170152560Y-10200000D01*
X170152560Y-11800000D01*
X170201843Y-12047765D01*
X170342191Y-12257809D01*
X170552235Y-12398157D01*
X170800000Y-12447440D01*
X170840000Y-12447440D01*
X170840001Y-14539898D01*
X170695528Y-14684371D01*
X170632072Y-14726771D01*
X170589672Y-14790227D01*
X170589671Y-14790228D01*
X170464097Y-14978163D01*
X170424106Y-15179213D01*
X170145423Y-15365423D01*
X169828260Y-15840091D01*
X169716887Y-16400000D01*
X169828260Y-16959909D01*
X170145423Y-17434577D01*
X170620091Y-17751740D01*
X171038667Y-17835000D01*
X171321333Y-17835000D01*
X171739909Y-17751740D01*
X172214577Y-17434577D01*
X172234804Y-17404305D01*
X173128373Y-18297876D01*
X173170771Y-18361329D01*
X173234224Y-18403727D01*
X173234226Y-18403729D01*
X173345128Y-18477831D01*
X173422163Y-18529304D01*
X173643848Y-18573400D01*
X173643852Y-18573400D01*
X173718699Y-18588288D01*
X173793546Y-18573400D01*
X192482253Y-18573400D01*
X192557100Y-18588288D01*
X192631947Y-18573400D01*
X192631952Y-18573400D01*
X192853637Y-18529304D01*
X193105029Y-18361329D01*
X193147431Y-18297870D01*
X196815102Y-14630200D01*
X196999944Y-14630200D01*
X196965000Y-14714561D01*
X196965000Y-15285439D01*
X197183466Y-15812862D01*
X197587138Y-16216534D01*
X198114561Y-16435000D01*
X198685439Y-16435000D01*
X198738302Y-16413103D01*
X201409671Y-19084473D01*
X201452071Y-19147929D01*
X201515527Y-19190329D01*
X201627279Y-19265000D01*
X156293045Y-19265000D01*
X156446965Y-18836777D01*
X156419778Y-18266546D01*
X156253864Y-17865995D01*
X156007745Y-17791861D01*
X155179605Y-18620000D01*
X155193748Y-18634142D01*
X155014142Y-18813748D01*
X155000000Y-18799605D01*
X154985858Y-18813748D01*
X154806252Y-18634142D01*
X154820395Y-18620000D01*
X153992255Y-17791861D01*
X153746136Y-17865995D01*
X153553035Y-18403223D01*
X153580222Y-18973454D01*
X153700985Y-19265000D01*
X151486065Y-19265000D01*
X151635000Y-18905439D01*
X151635000Y-18334561D01*
X151416534Y-17807138D01*
X151221651Y-17612255D01*
X154171861Y-17612255D01*
X155000000Y-18440395D01*
X155828139Y-17612255D01*
X155754005Y-17366136D01*
X155216777Y-17173035D01*
X154646546Y-17200222D01*
X154245995Y-17366136D01*
X154171861Y-17612255D01*
X151221651Y-17612255D01*
X151012862Y-17403466D01*
X150960000Y-17381570D01*
X150960000Y-17240101D01*
X155484473Y-12715629D01*
X155547929Y-12673229D01*
X155715904Y-12421837D01*
X155755896Y-12220786D01*
X156034577Y-12034577D01*
X156351740Y-11559909D01*
X156463113Y-11000000D01*
X156351740Y-10440091D01*
X156034577Y-9965423D01*
X155724779Y-9758423D01*
X162468503Y-3014700D01*
X170209550Y-3014700D01*
X170136887Y-3380000D01*
G36*
X429193748Y-18585858D02*
X429179605Y-18600000D01*
X429193748Y-18614142D01*
X429014142Y-18793748D01*
X429000000Y-18779605D01*
X428985858Y-18793748D01*
X428806252Y-18614142D01*
X428820395Y-18600000D01*
X428806253Y-18585858D01*
X428985858Y-18406253D01*
X429000000Y-18420395D01*
X429014143Y-18406253D01*
X429193748Y-18585858D01*
X429193748Y-18585858D01*
G37*
X429193748Y-18585858D02*
X429179605Y-18600000D01*
X429193748Y-18614142D01*
X429014142Y-18793748D01*
X429000000Y-18779605D01*
X428985858Y-18793748D01*
X428806252Y-18614142D01*
X428820395Y-18600000D01*
X428806253Y-18585858D01*
X428985858Y-18406253D01*
X429000000Y-18420395D01*
X429014143Y-18406253D01*
X429193748Y-18585858D01*
G36*
X375607000Y-3253000D02*
X375627000Y-3253000D01*
X375627000Y-3507000D01*
X375607000Y-3507000D01*
X375607000Y-4649915D01*
X375829039Y-4771904D01*
X376217423Y-4611041D01*
X376632389Y-4235134D01*
X376729053Y-4030892D01*
X376985423Y-4414577D01*
X377460091Y-4731740D01*
X377878667Y-4815000D01*
X378161333Y-4815000D01*
X378579909Y-4731740D01*
X379054577Y-4414577D01*
X379290000Y-4062242D01*
X379525423Y-4414577D01*
X380000091Y-4731740D01*
X380418667Y-4815000D01*
X380701333Y-4815000D01*
X381119909Y-4731740D01*
X381594577Y-4414577D01*
X381830000Y-4062242D01*
X382065423Y-4414577D01*
X382540091Y-4731740D01*
X382958667Y-4815000D01*
X383241333Y-4815000D01*
X383659909Y-4731740D01*
X383996222Y-4507023D01*
X384526270Y-5037072D01*
X384568671Y-5100529D01*
X384820063Y-5268504D01*
X385041748Y-5312600D01*
X385041752Y-5312600D01*
X385116600Y-5327488D01*
X385191448Y-5312600D01*
X391732599Y-5312600D01*
X393013789Y-6593790D01*
X392645995Y-6746136D01*
X392571861Y-6992255D01*
X393400000Y-7820395D01*
X393414142Y-7806252D01*
X393593748Y-7985858D01*
X393579605Y-8000000D01*
X393593748Y-8014143D01*
X393414143Y-8193748D01*
X393400000Y-8179605D01*
X392571861Y-9007745D01*
X392645995Y-9253864D01*
X393183223Y-9446965D01*
X393753454Y-9419778D01*
X393840001Y-9383929D01*
X393840000Y-12961570D01*
X393787138Y-12983466D01*
X393383466Y-13387138D01*
X393361570Y-13440000D01*
X389200148Y-13440000D01*
X389125300Y-13425112D01*
X389050452Y-13440000D01*
X389050448Y-13440000D01*
X388876905Y-13474520D01*
X388828762Y-13484096D01*
X388692937Y-13574852D01*
X388577371Y-13652071D01*
X388534971Y-13715527D01*
X388420000Y-13830498D01*
X386644305Y-12054804D01*
X386674577Y-12034577D01*
X386991740Y-11559909D01*
X387103113Y-11000000D01*
X386991740Y-10440091D01*
X386674577Y-9965423D01*
X386199909Y-9648260D01*
X385781333Y-9565000D01*
X385498667Y-9565000D01*
X385080091Y-9648260D01*
X384605423Y-9965423D01*
X384370000Y-10317758D01*
X384134577Y-9965423D01*
X383659909Y-9648260D01*
X383241333Y-9565000D01*
X382958667Y-9565000D01*
X382540091Y-9648260D01*
X382065423Y-9965423D01*
X381809053Y-10349108D01*
X381712389Y-10144866D01*
X381297423Y-9768959D01*
X380909039Y-9608096D01*
X380687000Y-9730085D01*
X380687000Y-10873000D01*
X380707000Y-10873000D01*
X380707000Y-11127000D01*
X380687000Y-11127000D01*
X380687000Y-12269915D01*
X380909039Y-12391904D01*
X381297423Y-12231041D01*
X381712389Y-11855134D01*
X381809053Y-11650892D01*
X382065423Y-12034577D01*
X382340000Y-12218044D01*
X382340001Y-13785197D01*
X381138302Y-14986897D01*
X381085439Y-14965000D01*
X380514561Y-14965000D01*
X379987138Y-15183466D01*
X379583466Y-15587138D01*
X379365000Y-16114561D01*
X379365000Y-16685439D01*
X379583466Y-17212862D01*
X379592204Y-17221600D01*
X378827796Y-17221600D01*
X378836534Y-17212862D01*
X379055000Y-16685439D01*
X379055000Y-16114561D01*
X378836534Y-15587138D01*
X378432862Y-15183466D01*
X377905439Y-14965000D01*
X377334561Y-14965000D01*
X377281698Y-14986896D01*
X374116690Y-11821889D01*
X374230947Y-11650892D01*
X374327611Y-11855134D01*
X374742577Y-12231041D01*
X375130961Y-12391904D01*
X375353000Y-12269915D01*
X375353000Y-11127000D01*
X375333000Y-11127000D01*
X375333000Y-10873000D01*
X375353000Y-10873000D01*
X375353000Y-9730085D01*
X375607000Y-9730085D01*
X375607000Y-10873000D01*
X375627000Y-10873000D01*
X375627000Y-11127000D01*
X375607000Y-11127000D01*
X375607000Y-12269915D01*
X375829039Y-12391904D01*
X376217423Y-12231041D01*
X376632389Y-11855134D01*
X376729053Y-11650892D01*
X376985423Y-12034577D01*
X377460091Y-12351740D01*
X377878667Y-12435000D01*
X378161333Y-12435000D01*
X378579909Y-12351740D01*
X379054577Y-12034577D01*
X379310947Y-11650892D01*
X379407611Y-11855134D01*
X379822577Y-12231041D01*
X380210961Y-12391904D01*
X380433000Y-12269915D01*
X380433000Y-11127000D01*
X380413000Y-11127000D01*
X380413000Y-10873000D01*
X380433000Y-10873000D01*
X380433000Y-9730085D01*
X380210961Y-9608096D01*
X379822577Y-9768959D01*
X379407611Y-10144866D01*
X379310947Y-10349108D01*
X379054577Y-9965423D01*
X378579909Y-9648260D01*
X378161333Y-9565000D01*
X377878667Y-9565000D01*
X377460091Y-9648260D01*
X376985423Y-9965423D01*
X376729053Y-10349108D01*
X376632389Y-10144866D01*
X376217423Y-9768959D01*
X375829039Y-9608096D01*
X375607000Y-9730085D01*
X375353000Y-9730085D01*
X375130961Y-9608096D01*
X374742577Y-9768959D01*
X374327611Y-10144866D01*
X374230947Y-10349108D01*
X373974577Y-9965423D01*
X373944305Y-9945196D01*
X374549773Y-9339729D01*
X374613229Y-9297329D01*
X374781204Y-9045937D01*
X374825300Y-8824252D01*
X374825300Y-8824248D01*
X374840188Y-8749400D01*
X374825300Y-8674552D01*
X374825300Y-7783223D01*
X391953035Y-7783223D01*
X391980222Y-8353454D01*
X392146136Y-8754005D01*
X392392255Y-8828139D01*
X393220395Y-8000000D01*
X392392255Y-7171861D01*
X392146136Y-7245995D01*
X391953035Y-7783223D01*
X374825300Y-7783223D01*
X374825300Y-4645304D01*
X375130961Y-4771904D01*
X375353000Y-4649915D01*
X375353000Y-3507000D01*
X375333000Y-3507000D01*
X375333000Y-3253000D01*
X375353000Y-3253000D01*
X375353000Y-3233000D01*
X375607000Y-3233000D01*
X375607000Y-3253000D01*
X375607000Y-3253000D01*
G37*
X375607000Y-3253000D02*
X375627000Y-3253000D01*
X375627000Y-3507000D01*
X375607000Y-3507000D01*
X375607000Y-4649915D01*
X375829039Y-4771904D01*
X376217423Y-4611041D01*
X376632389Y-4235134D01*
X376729053Y-4030892D01*
X376985423Y-4414577D01*
X377460091Y-4731740D01*
X377878667Y-4815000D01*
X378161333Y-4815000D01*
X378579909Y-4731740D01*
X379054577Y-4414577D01*
X379290000Y-4062242D01*
X379525423Y-4414577D01*
X380000091Y-4731740D01*
X380418667Y-4815000D01*
X380701333Y-4815000D01*
X381119909Y-4731740D01*
X381594577Y-4414577D01*
X381830000Y-4062242D01*
X382065423Y-4414577D01*
X382540091Y-4731740D01*
X382958667Y-4815000D01*
X383241333Y-4815000D01*
X383659909Y-4731740D01*
X383996222Y-4507023D01*
X384526270Y-5037072D01*
X384568671Y-5100529D01*
X384820063Y-5268504D01*
X385041748Y-5312600D01*
X385041752Y-5312600D01*
X385116600Y-5327488D01*
X385191448Y-5312600D01*
X391732599Y-5312600D01*
X393013789Y-6593790D01*
X392645995Y-6746136D01*
X392571861Y-6992255D01*
X393400000Y-7820395D01*
X393414142Y-7806252D01*
X393593748Y-7985858D01*
X393579605Y-8000000D01*
X393593748Y-8014143D01*
X393414143Y-8193748D01*
X393400000Y-8179605D01*
X392571861Y-9007745D01*
X392645995Y-9253864D01*
X393183223Y-9446965D01*
X393753454Y-9419778D01*
X393840001Y-9383929D01*
X393840000Y-12961570D01*
X393787138Y-12983466D01*
X393383466Y-13387138D01*
X393361570Y-13440000D01*
X389200148Y-13440000D01*
X389125300Y-13425112D01*
X389050452Y-13440000D01*
X389050448Y-13440000D01*
X388876905Y-13474520D01*
X388828762Y-13484096D01*
X388692937Y-13574852D01*
X388577371Y-13652071D01*
X388534971Y-13715527D01*
X388420000Y-13830498D01*
X386644305Y-12054804D01*
X386674577Y-12034577D01*
X386991740Y-11559909D01*
X387103113Y-11000000D01*
X386991740Y-10440091D01*
X386674577Y-9965423D01*
X386199909Y-9648260D01*
X385781333Y-9565000D01*
X385498667Y-9565000D01*
X385080091Y-9648260D01*
X384605423Y-9965423D01*
X384370000Y-10317758D01*
X384134577Y-9965423D01*
X383659909Y-9648260D01*
X383241333Y-9565000D01*
X382958667Y-9565000D01*
X382540091Y-9648260D01*
X382065423Y-9965423D01*
X381809053Y-10349108D01*
X381712389Y-10144866D01*
X381297423Y-9768959D01*
X380909039Y-9608096D01*
X380687000Y-9730085D01*
X380687000Y-10873000D01*
X380707000Y-10873000D01*
X380707000Y-11127000D01*
X380687000Y-11127000D01*
X380687000Y-12269915D01*
X380909039Y-12391904D01*
X381297423Y-12231041D01*
X381712389Y-11855134D01*
X381809053Y-11650892D01*
X382065423Y-12034577D01*
X382340000Y-12218044D01*
X382340001Y-13785197D01*
X381138302Y-14986897D01*
X381085439Y-14965000D01*
X380514561Y-14965000D01*
X379987138Y-15183466D01*
X379583466Y-15587138D01*
X379365000Y-16114561D01*
X379365000Y-16685439D01*
X379583466Y-17212862D01*
X379592204Y-17221600D01*
X378827796Y-17221600D01*
X378836534Y-17212862D01*
X379055000Y-16685439D01*
X379055000Y-16114561D01*
X378836534Y-15587138D01*
X378432862Y-15183466D01*
X377905439Y-14965000D01*
X377334561Y-14965000D01*
X377281698Y-14986896D01*
X374116690Y-11821889D01*
X374230947Y-11650892D01*
X374327611Y-11855134D01*
X374742577Y-12231041D01*
X375130961Y-12391904D01*
X375353000Y-12269915D01*
X375353000Y-11127000D01*
X375333000Y-11127000D01*
X375333000Y-10873000D01*
X375353000Y-10873000D01*
X375353000Y-9730085D01*
X375607000Y-9730085D01*
X375607000Y-10873000D01*
X375627000Y-10873000D01*
X375627000Y-11127000D01*
X375607000Y-11127000D01*
X375607000Y-12269915D01*
X375829039Y-12391904D01*
X376217423Y-12231041D01*
X376632389Y-11855134D01*
X376729053Y-11650892D01*
X376985423Y-12034577D01*
X377460091Y-12351740D01*
X377878667Y-12435000D01*
X378161333Y-12435000D01*
X378579909Y-12351740D01*
X379054577Y-12034577D01*
X379310947Y-11650892D01*
X379407611Y-11855134D01*
X379822577Y-12231041D01*
X380210961Y-12391904D01*
X380433000Y-12269915D01*
X380433000Y-11127000D01*
X380413000Y-11127000D01*
X380413000Y-10873000D01*
X380433000Y-10873000D01*
X380433000Y-9730085D01*
X380210961Y-9608096D01*
X379822577Y-9768959D01*
X379407611Y-10144866D01*
X379310947Y-10349108D01*
X379054577Y-9965423D01*
X378579909Y-9648260D01*
X378161333Y-9565000D01*
X377878667Y-9565000D01*
X377460091Y-9648260D01*
X376985423Y-9965423D01*
X376729053Y-10349108D01*
X376632389Y-10144866D01*
X376217423Y-9768959D01*
X375829039Y-9608096D01*
X375607000Y-9730085D01*
X375353000Y-9730085D01*
X375130961Y-9608096D01*
X374742577Y-9768959D01*
X374327611Y-10144866D01*
X374230947Y-10349108D01*
X373974577Y-9965423D01*
X373944305Y-9945196D01*
X374549773Y-9339729D01*
X374613229Y-9297329D01*
X374781204Y-9045937D01*
X374825300Y-8824252D01*
X374825300Y-8824248D01*
X374840188Y-8749400D01*
X374825300Y-8674552D01*
X374825300Y-7783223D01*
X391953035Y-7783223D01*
X391980222Y-8353454D01*
X392146136Y-8754005D01*
X392392255Y-8828139D01*
X393220395Y-8000000D01*
X392392255Y-7171861D01*
X392146136Y-7245995D01*
X391953035Y-7783223D01*
X374825300Y-7783223D01*
X374825300Y-4645304D01*
X375130961Y-4771904D01*
X375353000Y-4649915D01*
X375353000Y-3507000D01*
X375333000Y-3507000D01*
X375333000Y-3253000D01*
X375353000Y-3253000D01*
X375353000Y-3233000D01*
X375607000Y-3233000D01*
X375607000Y-3253000D01*
G36*
X44783466Y-2687138D02*
X44565000Y-3214561D01*
X44565000Y-3785439D01*
X44783466Y-4312862D01*
X45187138Y-4716534D01*
X45714561Y-4935000D01*
X46285439Y-4935000D01*
X46812862Y-4716534D01*
X47216534Y-4312862D01*
X47434871Y-3785750D01*
X49765000Y-3785750D01*
X49765000Y-4226310D01*
X49861673Y-4459699D01*
X50040302Y-4638327D01*
X50273691Y-4735000D01*
X50714250Y-4735000D01*
X50873000Y-4576250D01*
X50873000Y-3627000D01*
X49923750Y-3627000D01*
X49765000Y-3785750D01*
X47434871Y-3785750D01*
X47435000Y-3785439D01*
X47435000Y-3334600D01*
X49885350Y-3334600D01*
X49923750Y-3373000D01*
X50873000Y-3373000D01*
X50873000Y-3353000D01*
X51127000Y-3353000D01*
X51127000Y-3373000D01*
X51147000Y-3373000D01*
X51147000Y-3627000D01*
X51127000Y-3627000D01*
X51127000Y-4576250D01*
X51285750Y-4735000D01*
X51726309Y-4735000D01*
X51777300Y-4713879D01*
X51777301Y-6565000D01*
X51714561Y-6565000D01*
X51187138Y-6783466D01*
X50783466Y-7187138D01*
X50565000Y-7714561D01*
X50565000Y-8285439D01*
X50783466Y-8812862D01*
X51187138Y-9216534D01*
X51714561Y-9435000D01*
X52285439Y-9435000D01*
X52812862Y-9216534D01*
X53021651Y-9007745D01*
X56171861Y-9007745D01*
X56245995Y-9253864D01*
X56783223Y-9446965D01*
X57353454Y-9419778D01*
X57754005Y-9253864D01*
X57828139Y-9007745D01*
X57000000Y-8179605D01*
X56171861Y-9007745D01*
X53021651Y-9007745D01*
X53216534Y-8812862D01*
X53435000Y-8285439D01*
X53435000Y-7783223D01*
X55553035Y-7783223D01*
X55580222Y-8353454D01*
X55746136Y-8754005D01*
X55992255Y-8828139D01*
X56820395Y-8000000D01*
X57179605Y-8000000D01*
X58007745Y-8828139D01*
X58253864Y-8754005D01*
X58446965Y-8216777D01*
X58419778Y-7646546D01*
X58253864Y-7245995D01*
X58007745Y-7171861D01*
X57179605Y-8000000D01*
X56820395Y-8000000D01*
X55992255Y-7171861D01*
X55746136Y-7245995D01*
X55553035Y-7783223D01*
X53435000Y-7783223D01*
X53435000Y-7714561D01*
X53297300Y-7382124D01*
X53297300Y-6992255D01*
X56171861Y-6992255D01*
X57000000Y-7820395D01*
X57828139Y-6992255D01*
X57754005Y-6746136D01*
X57216777Y-6553035D01*
X56646546Y-6580222D01*
X56245995Y-6746136D01*
X56171861Y-6992255D01*
X53297300Y-6992255D01*
X53297300Y-4713609D01*
X53699571Y-4546982D01*
X54046982Y-4199571D01*
X54235000Y-3745657D01*
X54235000Y-3339802D01*
X54573203Y-3001600D01*
X94212156Y-3001600D01*
X94136887Y-3380000D01*
X94248260Y-3939909D01*
X94565423Y-4414577D01*
X95040091Y-4731740D01*
X95458667Y-4815000D01*
X95741333Y-4815000D01*
X96159909Y-4731740D01*
X96634577Y-4414577D01*
X96870000Y-4062242D01*
X97105423Y-4414577D01*
X97580091Y-4731740D01*
X97998667Y-4815000D01*
X98281333Y-4815000D01*
X98699909Y-4731740D01*
X99174577Y-4414577D01*
X99430947Y-4030892D01*
X99527611Y-4235134D01*
X99942577Y-4611041D01*
X100330961Y-4771904D01*
X100553000Y-4649915D01*
X100553000Y-3507000D01*
X100533000Y-3507000D01*
X100533000Y-3253000D01*
X100553000Y-3253000D01*
X100553000Y-3233000D01*
X100807000Y-3233000D01*
X100807000Y-3253000D01*
X100827000Y-3253000D01*
X100827000Y-3507000D01*
X100807000Y-3507000D01*
X100807000Y-4649915D01*
X101029039Y-4771904D01*
X101417423Y-4611041D01*
X101832389Y-4235134D01*
X101889670Y-4114106D01*
X101999214Y-4135896D01*
X102185423Y-4414577D01*
X102660091Y-4731740D01*
X103078667Y-4815000D01*
X103361333Y-4815000D01*
X103779909Y-4731740D01*
X104254577Y-4414577D01*
X104490000Y-4062242D01*
X104725423Y-4414577D01*
X105200091Y-4731740D01*
X105618667Y-4815000D01*
X105901333Y-4815000D01*
X106319909Y-4731740D01*
X106794577Y-4414577D01*
X106992333Y-4118614D01*
X107079214Y-4135896D01*
X107265423Y-4414577D01*
X107740091Y-4731740D01*
X108158667Y-4815000D01*
X108441333Y-4815000D01*
X108623886Y-4778688D01*
X108840173Y-4994975D01*
X108882571Y-5058429D01*
X108946024Y-5100827D01*
X108946026Y-5100829D01*
X109057482Y-5175301D01*
X109133963Y-5226404D01*
X109355648Y-5270500D01*
X109355652Y-5270500D01*
X109430499Y-5285388D01*
X109505346Y-5270500D01*
X119174699Y-5270500D01*
X121092161Y-7187963D01*
X120716777Y-7053035D01*
X120146546Y-7080222D01*
X119745995Y-7246136D01*
X119671861Y-7492255D01*
X120500000Y-8320395D01*
X120514142Y-8306252D01*
X120693748Y-8485858D01*
X120679605Y-8500000D01*
X120693748Y-8514143D01*
X120514142Y-8693748D01*
X120500000Y-8679605D01*
X119671861Y-9507745D01*
X119745995Y-9753864D01*
X120283223Y-9946965D01*
X120853454Y-9919778D01*
X121240000Y-9759665D01*
X121240001Y-13761569D01*
X121187138Y-13783466D01*
X120783466Y-14187138D01*
X120565000Y-14714561D01*
X120565000Y-15285439D01*
X120783466Y-15812862D01*
X121187138Y-16216534D01*
X121714561Y-16435000D01*
X122285439Y-16435000D01*
X122812862Y-16216534D01*
X123216534Y-15812862D01*
X123435000Y-15285439D01*
X123435000Y-14714561D01*
X123216534Y-14187138D01*
X122812862Y-13783466D01*
X122760000Y-13761570D01*
X122760000Y-7095846D01*
X122774888Y-7020999D01*
X122760000Y-6946152D01*
X122760000Y-6946148D01*
X122715904Y-6724463D01*
X122547929Y-6473071D01*
X122484473Y-6430671D01*
X120929238Y-4875436D01*
X121312862Y-4716534D01*
X121716534Y-4312862D01*
X121758103Y-4212505D01*
X125071300Y-7525702D01*
X125071300Y-7739753D01*
X125056412Y-7814600D01*
X125071300Y-7889447D01*
X125071300Y-7889452D01*
X125115396Y-8111137D01*
X125283372Y-8362529D01*
X125346828Y-8404929D01*
X128426370Y-11484472D01*
X128468771Y-11547929D01*
X128720163Y-11715904D01*
X128941848Y-11760000D01*
X128941853Y-11760000D01*
X129016700Y-11774888D01*
X129091547Y-11760000D01*
X134581957Y-11760000D01*
X134644632Y-11853800D01*
X127861346Y-11853800D01*
X127786499Y-11838912D01*
X127711652Y-11853800D01*
X127711648Y-11853800D01*
X127489963Y-11897896D01*
X127238571Y-12065871D01*
X127196171Y-12129327D01*
X122712999Y-16612500D01*
X115001062Y-16612500D01*
X115083113Y-16200000D01*
X114971740Y-15640091D01*
X114654577Y-15165423D01*
X114380000Y-14981957D01*
X114380000Y-14980148D01*
X114394888Y-14905300D01*
X114380000Y-14830452D01*
X114380000Y-14830448D01*
X114340168Y-14630200D01*
X114335904Y-14608762D01*
X114210329Y-14420827D01*
X114167929Y-14357371D01*
X114104473Y-14314971D01*
X111844305Y-12054804D01*
X111874577Y-12034577D01*
X112191740Y-11559909D01*
X112303113Y-11000000D01*
X112191740Y-10440091D01*
X111874577Y-9965423D01*
X111399909Y-9648260D01*
X110981333Y-9565000D01*
X110698667Y-9565000D01*
X110280091Y-9648260D01*
X109805423Y-9965423D01*
X109570000Y-10317758D01*
X109334577Y-9965423D01*
X108859909Y-9648260D01*
X108441333Y-9565000D01*
X108158667Y-9565000D01*
X107740091Y-9648260D01*
X107265423Y-9965423D01*
X107009053Y-10349108D01*
X106912389Y-10144866D01*
X106497423Y-9768959D01*
X106109039Y-9608096D01*
X105887000Y-9730085D01*
X105887000Y-10873000D01*
X105907000Y-10873000D01*
X105907000Y-11127000D01*
X105887000Y-11127000D01*
X105887000Y-12269915D01*
X106109039Y-12391904D01*
X106497423Y-12231041D01*
X106912389Y-11855134D01*
X107009053Y-11650892D01*
X107265423Y-12034577D01*
X107540001Y-12218044D01*
X107540000Y-13585198D01*
X106338302Y-14786897D01*
X106285439Y-14765000D01*
X105714561Y-14765000D01*
X105187138Y-14983466D01*
X104783466Y-15387138D01*
X104565000Y-15914561D01*
X104565000Y-16485439D01*
X104617630Y-16612500D01*
X104487303Y-16612500D01*
X104413104Y-16538301D01*
X104435000Y-16485439D01*
X104435000Y-15914561D01*
X104216534Y-15387138D01*
X103812862Y-14983466D01*
X103285439Y-14765000D01*
X102714561Y-14765000D01*
X102661698Y-14786896D01*
X100221275Y-12346474D01*
X100330961Y-12391904D01*
X100553000Y-12269915D01*
X100553000Y-11127000D01*
X100533000Y-11127000D01*
X100533000Y-10873000D01*
X100553000Y-10873000D01*
X100553000Y-10853000D01*
X100807000Y-10853000D01*
X100807000Y-10873000D01*
X100827000Y-10873000D01*
X100827000Y-11127000D01*
X100807000Y-11127000D01*
X100807000Y-12269915D01*
X101029039Y-12391904D01*
X101417423Y-12231041D01*
X101832389Y-11855134D01*
X101929053Y-11650892D01*
X102185423Y-12034577D01*
X102660091Y-12351740D01*
X103078667Y-12435000D01*
X103361333Y-12435000D01*
X103779909Y-12351740D01*
X104254577Y-12034577D01*
X104510947Y-11650892D01*
X104607611Y-11855134D01*
X105022577Y-12231041D01*
X105410961Y-12391904D01*
X105633000Y-12269915D01*
X105633000Y-11127000D01*
X105613000Y-11127000D01*
X105613000Y-10873000D01*
X105633000Y-10873000D01*
X105633000Y-9730085D01*
X105410961Y-9608096D01*
X105022577Y-9768959D01*
X104607611Y-10144866D01*
X104510947Y-10349108D01*
X104254577Y-9965423D01*
X103779909Y-9648260D01*
X103361333Y-9565000D01*
X103078667Y-9565000D01*
X102896113Y-9601312D01*
X102684931Y-9390130D01*
X102642529Y-9326671D01*
X102391137Y-9158696D01*
X102169452Y-9114600D01*
X102169447Y-9114600D01*
X102094600Y-9099712D01*
X102019753Y-9114600D01*
X84977246Y-9114600D01*
X84902399Y-9099712D01*
X84827552Y-9114600D01*
X84827548Y-9114600D01*
X84605863Y-9158696D01*
X84543302Y-9200498D01*
X84417926Y-9284271D01*
X84417924Y-9284273D01*
X84354471Y-9326671D01*
X84312073Y-9390124D01*
X83735000Y-9967197D01*
X83735000Y-9555431D01*
X83394741Y-8733974D01*
X82943990Y-8283223D01*
X119053035Y-8283223D01*
X119080222Y-8853454D01*
X119246136Y-9254005D01*
X119492255Y-9328139D01*
X120320395Y-8500000D01*
X119492255Y-7671861D01*
X119246136Y-7745995D01*
X119053035Y-8283223D01*
X82943990Y-8283223D01*
X82766026Y-8105259D01*
X81944569Y-7765000D01*
X81055431Y-7765000D01*
X80233974Y-8105259D01*
X79605259Y-8733974D01*
X79265000Y-9555431D01*
X79265000Y-10444569D01*
X79605259Y-11266026D01*
X80233974Y-11894741D01*
X81055431Y-12235000D01*
X81467198Y-12235000D01*
X77036899Y-16665300D01*
X54247580Y-16665300D01*
X54217482Y-16178587D01*
X54088164Y-15866383D01*
X53862735Y-15816870D01*
X53179605Y-16500000D01*
X53193748Y-16514143D01*
X53042590Y-16665300D01*
X52957410Y-16665300D01*
X52806253Y-16514143D01*
X52820395Y-16500000D01*
X52806253Y-16485858D01*
X52985858Y-16306253D01*
X53000000Y-16320395D01*
X53683130Y-15637265D01*
X53633617Y-15411836D01*
X53168964Y-15252193D01*
X52678587Y-15282518D01*
X52366383Y-15411836D01*
X52316871Y-15637263D01*
X52201178Y-15521570D01*
X52147030Y-15575718D01*
X52117691Y-15531810D01*
X52484473Y-15165029D01*
X52547929Y-15122629D01*
X52715904Y-14871237D01*
X52760000Y-14649552D01*
X52760000Y-14649548D01*
X52774888Y-14574700D01*
X52760000Y-14499852D01*
X52760000Y-13238430D01*
X52812862Y-13216534D01*
X53021651Y-13007745D01*
X56171861Y-13007745D01*
X56245995Y-13253864D01*
X56783223Y-13446965D01*
X57353454Y-13419778D01*
X57754005Y-13253864D01*
X57828139Y-13007745D01*
X57000000Y-12179605D01*
X56171861Y-13007745D01*
X53021651Y-13007745D01*
X53216534Y-12812862D01*
X53435000Y-12285439D01*
X53435000Y-11783223D01*
X55553035Y-11783223D01*
X55580222Y-12353454D01*
X55746136Y-12754005D01*
X55992255Y-12828139D01*
X56820395Y-12000000D01*
X57179605Y-12000000D01*
X58007745Y-12828139D01*
X58253864Y-12754005D01*
X58446965Y-12216777D01*
X58419778Y-11646546D01*
X58253864Y-11245995D01*
X58007745Y-11171861D01*
X57179605Y-12000000D01*
X56820395Y-12000000D01*
X55992255Y-11171861D01*
X55746136Y-11245995D01*
X55553035Y-11783223D01*
X53435000Y-11783223D01*
X53435000Y-11714561D01*
X53216534Y-11187138D01*
X53021651Y-10992255D01*
X56171861Y-10992255D01*
X57000000Y-11820395D01*
X57828139Y-10992255D01*
X57754005Y-10746136D01*
X57216777Y-10553035D01*
X56646546Y-10580222D01*
X56245995Y-10746136D01*
X56171861Y-10992255D01*
X53021651Y-10992255D01*
X52812862Y-10783466D01*
X52285439Y-10565000D01*
X51714561Y-10565000D01*
X51187138Y-10783466D01*
X50783466Y-11187138D01*
X50565000Y-11714561D01*
X50565000Y-12285439D01*
X50783466Y-12812862D01*
X51187138Y-13216534D01*
X51240000Y-13238430D01*
X51240001Y-14259897D01*
X50515528Y-14984371D01*
X50452072Y-15026771D01*
X50286060Y-15275224D01*
X50152235Y-15301843D01*
X49942191Y-15442191D01*
X49801843Y-15652235D01*
X49752560Y-15900000D01*
X49752560Y-17100000D01*
X49759044Y-17132600D01*
X47291201Y-17132600D01*
X47435000Y-16785439D01*
X47435000Y-16214561D01*
X47216534Y-15687138D01*
X46812862Y-15283466D01*
X46285439Y-15065000D01*
X45714561Y-15065000D01*
X45187138Y-15283466D01*
X44783466Y-15687138D01*
X44565000Y-16214561D01*
X44565000Y-16785439D01*
X44708799Y-17132600D01*
X39683169Y-17132600D01*
X39731740Y-17059909D01*
X39843113Y-16500000D01*
X39731740Y-15940091D01*
X39414577Y-15465423D01*
X39151815Y-15289851D01*
X39140000Y-15230452D01*
X39140000Y-15230448D01*
X39095904Y-15008763D01*
X39022455Y-14898839D01*
X38970329Y-14820826D01*
X38970327Y-14820824D01*
X38927929Y-14757371D01*
X38864476Y-14714973D01*
X37847676Y-13698175D01*
X37847765Y-13698157D01*
X38057809Y-13557809D01*
X38198157Y-13347765D01*
X38247440Y-13100000D01*
X38247440Y-12396122D01*
X44970825Y-12396122D01*
X45185466Y-12914332D01*
X45647608Y-13409012D01*
X46263877Y-13689183D01*
X46533000Y-13571604D01*
X46533000Y-12127000D01*
X46787000Y-12127000D01*
X46787000Y-13571604D01*
X47056123Y-13689183D01*
X47672392Y-13409012D01*
X48134534Y-12914332D01*
X48349175Y-12396122D01*
X48231125Y-12127000D01*
X46787000Y-12127000D01*
X46533000Y-12127000D01*
X45088875Y-12127000D01*
X44970825Y-12396122D01*
X38247440Y-12396122D01*
X38247440Y-11603878D01*
X44970825Y-11603878D01*
X45088875Y-11873000D01*
X46533000Y-11873000D01*
X46533000Y-10428396D01*
X46787000Y-10428396D01*
X46787000Y-11873000D01*
X48231125Y-11873000D01*
X48349175Y-11603878D01*
X48134534Y-11085668D01*
X47672392Y-10590988D01*
X47056123Y-10310817D01*
X46787000Y-10428396D01*
X46533000Y-10428396D01*
X46263877Y-10310817D01*
X45647608Y-10590988D01*
X45185466Y-11085668D01*
X44970825Y-11603878D01*
X38247440Y-11603878D01*
X38247440Y-10900000D01*
X38198157Y-10652235D01*
X38057809Y-10442191D01*
X37847765Y-10301843D01*
X37600000Y-10252560D01*
X35400000Y-10252560D01*
X35152235Y-10301843D01*
X34942191Y-10442191D01*
X34801843Y-10652235D01*
X34801825Y-10652324D01*
X31935251Y-7785750D01*
X34765000Y-7785750D01*
X34765000Y-8726310D01*
X34861673Y-8959699D01*
X35040302Y-9138327D01*
X35273691Y-9235000D01*
X36214250Y-9235000D01*
X36373000Y-9076250D01*
X36373000Y-7627000D01*
X36627000Y-7627000D01*
X36627000Y-9076250D01*
X36785750Y-9235000D01*
X37726309Y-9235000D01*
X37959698Y-9138327D01*
X38138327Y-8959699D01*
X38235000Y-8726310D01*
X38235000Y-7785750D01*
X38076250Y-7627000D01*
X36627000Y-7627000D01*
X36373000Y-7627000D01*
X34923750Y-7627000D01*
X34765000Y-7785750D01*
X31935251Y-7785750D01*
X30423191Y-6273690D01*
X34765000Y-6273690D01*
X34765000Y-7214250D01*
X34923750Y-7373000D01*
X36373000Y-7373000D01*
X36373000Y-5923750D01*
X36627000Y-5923750D01*
X36627000Y-7373000D01*
X38076250Y-7373000D01*
X38235000Y-7214250D01*
X38235000Y-6273690D01*
X38138327Y-6040301D01*
X37959698Y-5861673D01*
X37726309Y-5765000D01*
X36785750Y-5765000D01*
X36627000Y-5923750D01*
X36373000Y-5923750D01*
X36214250Y-5765000D01*
X35273691Y-5765000D01*
X35040302Y-5861673D01*
X34861673Y-6040301D01*
X34765000Y-6273690D01*
X30423191Y-6273690D01*
X29940534Y-5791033D01*
X30188839Y-5419418D01*
X30304092Y-4840000D01*
X30188839Y-4260582D01*
X30188450Y-4260000D01*
X37161957Y-4260000D01*
X37345423Y-4534577D01*
X37820091Y-4851740D01*
X38238667Y-4935000D01*
X38521333Y-4935000D01*
X38939909Y-4851740D01*
X39414577Y-4534577D01*
X39434804Y-4504305D01*
X42914971Y-7984473D01*
X42957371Y-8047929D01*
X43208763Y-8215904D01*
X43430448Y-8260000D01*
X43430452Y-8260000D01*
X43505299Y-8274888D01*
X43580146Y-8260000D01*
X45081150Y-8260000D01*
X45409135Y-8750865D01*
X45983037Y-9134334D01*
X46489120Y-9235000D01*
X46830880Y-9235000D01*
X47336963Y-9134334D01*
X47910865Y-8750865D01*
X48294334Y-8176963D01*
X48428990Y-7500000D01*
X48294334Y-6823037D01*
X47910865Y-6249135D01*
X47336963Y-5865666D01*
X46830880Y-5765000D01*
X46489120Y-5765000D01*
X45983037Y-5865666D01*
X45409135Y-6249135D01*
X45081150Y-6740000D01*
X43820102Y-6740000D01*
X40095631Y-3015530D01*
X40053229Y-2952071D01*
X39801837Y-2784096D01*
X39600786Y-2744104D01*
X39469954Y-2548300D01*
X44922304Y-2548300D01*
X44783466Y-2687138D01*
X44783466Y-2687138D01*
G37*
X44783466Y-2687138D02*
X44565000Y-3214561D01*
X44565000Y-3785439D01*
X44783466Y-4312862D01*
X45187138Y-4716534D01*
X45714561Y-4935000D01*
X46285439Y-4935000D01*
X46812862Y-4716534D01*
X47216534Y-4312862D01*
X47434871Y-3785750D01*
X49765000Y-3785750D01*
X49765000Y-4226310D01*
X49861673Y-4459699D01*
X50040302Y-4638327D01*
X50273691Y-4735000D01*
X50714250Y-4735000D01*
X50873000Y-4576250D01*
X50873000Y-3627000D01*
X49923750Y-3627000D01*
X49765000Y-3785750D01*
X47434871Y-3785750D01*
X47435000Y-3785439D01*
X47435000Y-3334600D01*
X49885350Y-3334600D01*
X49923750Y-3373000D01*
X50873000Y-3373000D01*
X50873000Y-3353000D01*
X51127000Y-3353000D01*
X51127000Y-3373000D01*
X51147000Y-3373000D01*
X51147000Y-3627000D01*
X51127000Y-3627000D01*
X51127000Y-4576250D01*
X51285750Y-4735000D01*
X51726309Y-4735000D01*
X51777300Y-4713879D01*
X51777301Y-6565000D01*
X51714561Y-6565000D01*
X51187138Y-6783466D01*
X50783466Y-7187138D01*
X50565000Y-7714561D01*
X50565000Y-8285439D01*
X50783466Y-8812862D01*
X51187138Y-9216534D01*
X51714561Y-9435000D01*
X52285439Y-9435000D01*
X52812862Y-9216534D01*
X53021651Y-9007745D01*
X56171861Y-9007745D01*
X56245995Y-9253864D01*
X56783223Y-9446965D01*
X57353454Y-9419778D01*
X57754005Y-9253864D01*
X57828139Y-9007745D01*
X57000000Y-8179605D01*
X56171861Y-9007745D01*
X53021651Y-9007745D01*
X53216534Y-8812862D01*
X53435000Y-8285439D01*
X53435000Y-7783223D01*
X55553035Y-7783223D01*
X55580222Y-8353454D01*
X55746136Y-8754005D01*
X55992255Y-8828139D01*
X56820395Y-8000000D01*
X57179605Y-8000000D01*
X58007745Y-8828139D01*
X58253864Y-8754005D01*
X58446965Y-8216777D01*
X58419778Y-7646546D01*
X58253864Y-7245995D01*
X58007745Y-7171861D01*
X57179605Y-8000000D01*
X56820395Y-8000000D01*
X55992255Y-7171861D01*
X55746136Y-7245995D01*
X55553035Y-7783223D01*
X53435000Y-7783223D01*
X53435000Y-7714561D01*
X53297300Y-7382124D01*
X53297300Y-6992255D01*
X56171861Y-6992255D01*
X57000000Y-7820395D01*
X57828139Y-6992255D01*
X57754005Y-6746136D01*
X57216777Y-6553035D01*
X56646546Y-6580222D01*
X56245995Y-6746136D01*
X56171861Y-6992255D01*
X53297300Y-6992255D01*
X53297300Y-4713609D01*
X53699571Y-4546982D01*
X54046982Y-4199571D01*
X54235000Y-3745657D01*
X54235000Y-3339802D01*
X54573203Y-3001600D01*
X94212156Y-3001600D01*
X94136887Y-3380000D01*
X94248260Y-3939909D01*
X94565423Y-4414577D01*
X95040091Y-4731740D01*
X95458667Y-4815000D01*
X95741333Y-4815000D01*
X96159909Y-4731740D01*
X96634577Y-4414577D01*
X96870000Y-4062242D01*
X97105423Y-4414577D01*
X97580091Y-4731740D01*
X97998667Y-4815000D01*
X98281333Y-4815000D01*
X98699909Y-4731740D01*
X99174577Y-4414577D01*
X99430947Y-4030892D01*
X99527611Y-4235134D01*
X99942577Y-4611041D01*
X100330961Y-4771904D01*
X100553000Y-4649915D01*
X100553000Y-3507000D01*
X100533000Y-3507000D01*
X100533000Y-3253000D01*
X100553000Y-3253000D01*
X100553000Y-3233000D01*
X100807000Y-3233000D01*
X100807000Y-3253000D01*
X100827000Y-3253000D01*
X100827000Y-3507000D01*
X100807000Y-3507000D01*
X100807000Y-4649915D01*
X101029039Y-4771904D01*
X101417423Y-4611041D01*
X101832389Y-4235134D01*
X101889670Y-4114106D01*
X101999214Y-4135896D01*
X102185423Y-4414577D01*
X102660091Y-4731740D01*
X103078667Y-4815000D01*
X103361333Y-4815000D01*
X103779909Y-4731740D01*
X104254577Y-4414577D01*
X104490000Y-4062242D01*
X104725423Y-4414577D01*
X105200091Y-4731740D01*
X105618667Y-4815000D01*
X105901333Y-4815000D01*
X106319909Y-4731740D01*
X106794577Y-4414577D01*
X106992333Y-4118614D01*
X107079214Y-4135896D01*
X107265423Y-4414577D01*
X107740091Y-4731740D01*
X108158667Y-4815000D01*
X108441333Y-4815000D01*
X108623886Y-4778688D01*
X108840173Y-4994975D01*
X108882571Y-5058429D01*
X108946024Y-5100827D01*
X108946026Y-5100829D01*
X109057482Y-5175301D01*
X109133963Y-5226404D01*
X109355648Y-5270500D01*
X109355652Y-5270500D01*
X109430499Y-5285388D01*
X109505346Y-5270500D01*
X119174699Y-5270500D01*
X121092161Y-7187963D01*
X120716777Y-7053035D01*
X120146546Y-7080222D01*
X119745995Y-7246136D01*
X119671861Y-7492255D01*
X120500000Y-8320395D01*
X120514142Y-8306252D01*
X120693748Y-8485858D01*
X120679605Y-8500000D01*
X120693748Y-8514143D01*
X120514142Y-8693748D01*
X120500000Y-8679605D01*
X119671861Y-9507745D01*
X119745995Y-9753864D01*
X120283223Y-9946965D01*
X120853454Y-9919778D01*
X121240000Y-9759665D01*
X121240001Y-13761569D01*
X121187138Y-13783466D01*
X120783466Y-14187138D01*
X120565000Y-14714561D01*
X120565000Y-15285439D01*
X120783466Y-15812862D01*
X121187138Y-16216534D01*
X121714561Y-16435000D01*
X122285439Y-16435000D01*
X122812862Y-16216534D01*
X123216534Y-15812862D01*
X123435000Y-15285439D01*
X123435000Y-14714561D01*
X123216534Y-14187138D01*
X122812862Y-13783466D01*
X122760000Y-13761570D01*
X122760000Y-7095846D01*
X122774888Y-7020999D01*
X122760000Y-6946152D01*
X122760000Y-6946148D01*
X122715904Y-6724463D01*
X122547929Y-6473071D01*
X122484473Y-6430671D01*
X120929238Y-4875436D01*
X121312862Y-4716534D01*
X121716534Y-4312862D01*
X121758103Y-4212505D01*
X125071300Y-7525702D01*
X125071300Y-7739753D01*
X125056412Y-7814600D01*
X125071300Y-7889447D01*
X125071300Y-7889452D01*
X125115396Y-8111137D01*
X125283372Y-8362529D01*
X125346828Y-8404929D01*
X128426370Y-11484472D01*
X128468771Y-11547929D01*
X128720163Y-11715904D01*
X128941848Y-11760000D01*
X128941853Y-11760000D01*
X129016700Y-11774888D01*
X129091547Y-11760000D01*
X134581957Y-11760000D01*
X134644632Y-11853800D01*
X127861346Y-11853800D01*
X127786499Y-11838912D01*
X127711652Y-11853800D01*
X127711648Y-11853800D01*
X127489963Y-11897896D01*
X127238571Y-12065871D01*
X127196171Y-12129327D01*
X122712999Y-16612500D01*
X115001062Y-16612500D01*
X115083113Y-16200000D01*
X114971740Y-15640091D01*
X114654577Y-15165423D01*
X114380000Y-14981957D01*
X114380000Y-14980148D01*
X114394888Y-14905300D01*
X114380000Y-14830452D01*
X114380000Y-14830448D01*
X114340168Y-14630200D01*
X114335904Y-14608762D01*
X114210329Y-14420827D01*
X114167929Y-14357371D01*
X114104473Y-14314971D01*
X111844305Y-12054804D01*
X111874577Y-12034577D01*
X112191740Y-11559909D01*
X112303113Y-11000000D01*
X112191740Y-10440091D01*
X111874577Y-9965423D01*
X111399909Y-9648260D01*
X110981333Y-9565000D01*
X110698667Y-9565000D01*
X110280091Y-9648260D01*
X109805423Y-9965423D01*
X109570000Y-10317758D01*
X109334577Y-9965423D01*
X108859909Y-9648260D01*
X108441333Y-9565000D01*
X108158667Y-9565000D01*
X107740091Y-9648260D01*
X107265423Y-9965423D01*
X107009053Y-10349108D01*
X106912389Y-10144866D01*
X106497423Y-9768959D01*
X106109039Y-9608096D01*
X105887000Y-9730085D01*
X105887000Y-10873000D01*
X105907000Y-10873000D01*
X105907000Y-11127000D01*
X105887000Y-11127000D01*
X105887000Y-12269915D01*
X106109039Y-12391904D01*
X106497423Y-12231041D01*
X106912389Y-11855134D01*
X107009053Y-11650892D01*
X107265423Y-12034577D01*
X107540001Y-12218044D01*
X107540000Y-13585198D01*
X106338302Y-14786897D01*
X106285439Y-14765000D01*
X105714561Y-14765000D01*
X105187138Y-14983466D01*
X104783466Y-15387138D01*
X104565000Y-15914561D01*
X104565000Y-16485439D01*
X104617630Y-16612500D01*
X104487303Y-16612500D01*
X104413104Y-16538301D01*
X104435000Y-16485439D01*
X104435000Y-15914561D01*
X104216534Y-15387138D01*
X103812862Y-14983466D01*
X103285439Y-14765000D01*
X102714561Y-14765000D01*
X102661698Y-14786896D01*
X100221275Y-12346474D01*
X100330961Y-12391904D01*
X100553000Y-12269915D01*
X100553000Y-11127000D01*
X100533000Y-11127000D01*
X100533000Y-10873000D01*
X100553000Y-10873000D01*
X100553000Y-10853000D01*
X100807000Y-10853000D01*
X100807000Y-10873000D01*
X100827000Y-10873000D01*
X100827000Y-11127000D01*
X100807000Y-11127000D01*
X100807000Y-12269915D01*
X101029039Y-12391904D01*
X101417423Y-12231041D01*
X101832389Y-11855134D01*
X101929053Y-11650892D01*
X102185423Y-12034577D01*
X102660091Y-12351740D01*
X103078667Y-12435000D01*
X103361333Y-12435000D01*
X103779909Y-12351740D01*
X104254577Y-12034577D01*
X104510947Y-11650892D01*
X104607611Y-11855134D01*
X105022577Y-12231041D01*
X105410961Y-12391904D01*
X105633000Y-12269915D01*
X105633000Y-11127000D01*
X105613000Y-11127000D01*
X105613000Y-10873000D01*
X105633000Y-10873000D01*
X105633000Y-9730085D01*
X105410961Y-9608096D01*
X105022577Y-9768959D01*
X104607611Y-10144866D01*
X104510947Y-10349108D01*
X104254577Y-9965423D01*
X103779909Y-9648260D01*
X103361333Y-9565000D01*
X103078667Y-9565000D01*
X102896113Y-9601312D01*
X102684931Y-9390130D01*
X102642529Y-9326671D01*
X102391137Y-9158696D01*
X102169452Y-9114600D01*
X102169447Y-9114600D01*
X102094600Y-9099712D01*
X102019753Y-9114600D01*
X84977246Y-9114600D01*
X84902399Y-9099712D01*
X84827552Y-9114600D01*
X84827548Y-9114600D01*
X84605863Y-9158696D01*
X84543302Y-9200498D01*
X84417926Y-9284271D01*
X84417924Y-9284273D01*
X84354471Y-9326671D01*
X84312073Y-9390124D01*
X83735000Y-9967197D01*
X83735000Y-9555431D01*
X83394741Y-8733974D01*
X82943990Y-8283223D01*
X119053035Y-8283223D01*
X119080222Y-8853454D01*
X119246136Y-9254005D01*
X119492255Y-9328139D01*
X120320395Y-8500000D01*
X119492255Y-7671861D01*
X119246136Y-7745995D01*
X119053035Y-8283223D01*
X82943990Y-8283223D01*
X82766026Y-8105259D01*
X81944569Y-7765000D01*
X81055431Y-7765000D01*
X80233974Y-8105259D01*
X79605259Y-8733974D01*
X79265000Y-9555431D01*
X79265000Y-10444569D01*
X79605259Y-11266026D01*
X80233974Y-11894741D01*
X81055431Y-12235000D01*
X81467198Y-12235000D01*
X77036899Y-16665300D01*
X54247580Y-16665300D01*
X54217482Y-16178587D01*
X54088164Y-15866383D01*
X53862735Y-15816870D01*
X53179605Y-16500000D01*
X53193748Y-16514143D01*
X53042590Y-16665300D01*
X52957410Y-16665300D01*
X52806253Y-16514143D01*
X52820395Y-16500000D01*
X52806253Y-16485858D01*
X52985858Y-16306253D01*
X53000000Y-16320395D01*
X53683130Y-15637265D01*
X53633617Y-15411836D01*
X53168964Y-15252193D01*
X52678587Y-15282518D01*
X52366383Y-15411836D01*
X52316871Y-15637263D01*
X52201178Y-15521570D01*
X52147030Y-15575718D01*
X52117691Y-15531810D01*
X52484473Y-15165029D01*
X52547929Y-15122629D01*
X52715904Y-14871237D01*
X52760000Y-14649552D01*
X52760000Y-14649548D01*
X52774888Y-14574700D01*
X52760000Y-14499852D01*
X52760000Y-13238430D01*
X52812862Y-13216534D01*
X53021651Y-13007745D01*
X56171861Y-13007745D01*
X56245995Y-13253864D01*
X56783223Y-13446965D01*
X57353454Y-13419778D01*
X57754005Y-13253864D01*
X57828139Y-13007745D01*
X57000000Y-12179605D01*
X56171861Y-13007745D01*
X53021651Y-13007745D01*
X53216534Y-12812862D01*
X53435000Y-12285439D01*
X53435000Y-11783223D01*
X55553035Y-11783223D01*
X55580222Y-12353454D01*
X55746136Y-12754005D01*
X55992255Y-12828139D01*
X56820395Y-12000000D01*
X57179605Y-12000000D01*
X58007745Y-12828139D01*
X58253864Y-12754005D01*
X58446965Y-12216777D01*
X58419778Y-11646546D01*
X58253864Y-11245995D01*
X58007745Y-11171861D01*
X57179605Y-12000000D01*
X56820395Y-12000000D01*
X55992255Y-11171861D01*
X55746136Y-11245995D01*
X55553035Y-11783223D01*
X53435000Y-11783223D01*
X53435000Y-11714561D01*
X53216534Y-11187138D01*
X53021651Y-10992255D01*
X56171861Y-10992255D01*
X57000000Y-11820395D01*
X57828139Y-10992255D01*
X57754005Y-10746136D01*
X57216777Y-10553035D01*
X56646546Y-10580222D01*
X56245995Y-10746136D01*
X56171861Y-10992255D01*
X53021651Y-10992255D01*
X52812862Y-10783466D01*
X52285439Y-10565000D01*
X51714561Y-10565000D01*
X51187138Y-10783466D01*
X50783466Y-11187138D01*
X50565000Y-11714561D01*
X50565000Y-12285439D01*
X50783466Y-12812862D01*
X51187138Y-13216534D01*
X51240000Y-13238430D01*
X51240001Y-14259897D01*
X50515528Y-14984371D01*
X50452072Y-15026771D01*
X50286060Y-15275224D01*
X50152235Y-15301843D01*
X49942191Y-15442191D01*
X49801843Y-15652235D01*
X49752560Y-15900000D01*
X49752560Y-17100000D01*
X49759044Y-17132600D01*
X47291201Y-17132600D01*
X47435000Y-16785439D01*
X47435000Y-16214561D01*
X47216534Y-15687138D01*
X46812862Y-15283466D01*
X46285439Y-15065000D01*
X45714561Y-15065000D01*
X45187138Y-15283466D01*
X44783466Y-15687138D01*
X44565000Y-16214561D01*
X44565000Y-16785439D01*
X44708799Y-17132600D01*
X39683169Y-17132600D01*
X39731740Y-17059909D01*
X39843113Y-16500000D01*
X39731740Y-15940091D01*
X39414577Y-15465423D01*
X39151815Y-15289851D01*
X39140000Y-15230452D01*
X39140000Y-15230448D01*
X39095904Y-15008763D01*
X39022455Y-14898839D01*
X38970329Y-14820826D01*
X38970327Y-14820824D01*
X38927929Y-14757371D01*
X38864476Y-14714973D01*
X37847676Y-13698175D01*
X37847765Y-13698157D01*
X38057809Y-13557809D01*
X38198157Y-13347765D01*
X38247440Y-13100000D01*
X38247440Y-12396122D01*
X44970825Y-12396122D01*
X45185466Y-12914332D01*
X45647608Y-13409012D01*
X46263877Y-13689183D01*
X46533000Y-13571604D01*
X46533000Y-12127000D01*
X46787000Y-12127000D01*
X46787000Y-13571604D01*
X47056123Y-13689183D01*
X47672392Y-13409012D01*
X48134534Y-12914332D01*
X48349175Y-12396122D01*
X48231125Y-12127000D01*
X46787000Y-12127000D01*
X46533000Y-12127000D01*
X45088875Y-12127000D01*
X44970825Y-12396122D01*
X38247440Y-12396122D01*
X38247440Y-11603878D01*
X44970825Y-11603878D01*
X45088875Y-11873000D01*
X46533000Y-11873000D01*
X46533000Y-10428396D01*
X46787000Y-10428396D01*
X46787000Y-11873000D01*
X48231125Y-11873000D01*
X48349175Y-11603878D01*
X48134534Y-11085668D01*
X47672392Y-10590988D01*
X47056123Y-10310817D01*
X46787000Y-10428396D01*
X46533000Y-10428396D01*
X46263877Y-10310817D01*
X45647608Y-10590988D01*
X45185466Y-11085668D01*
X44970825Y-11603878D01*
X38247440Y-11603878D01*
X38247440Y-10900000D01*
X38198157Y-10652235D01*
X38057809Y-10442191D01*
X37847765Y-10301843D01*
X37600000Y-10252560D01*
X35400000Y-10252560D01*
X35152235Y-10301843D01*
X34942191Y-10442191D01*
X34801843Y-10652235D01*
X34801825Y-10652324D01*
X31935251Y-7785750D01*
X34765000Y-7785750D01*
X34765000Y-8726310D01*
X34861673Y-8959699D01*
X35040302Y-9138327D01*
X35273691Y-9235000D01*
X36214250Y-9235000D01*
X36373000Y-9076250D01*
X36373000Y-7627000D01*
X36627000Y-7627000D01*
X36627000Y-9076250D01*
X36785750Y-9235000D01*
X37726309Y-9235000D01*
X37959698Y-9138327D01*
X38138327Y-8959699D01*
X38235000Y-8726310D01*
X38235000Y-7785750D01*
X38076250Y-7627000D01*
X36627000Y-7627000D01*
X36373000Y-7627000D01*
X34923750Y-7627000D01*
X34765000Y-7785750D01*
X31935251Y-7785750D01*
X30423191Y-6273690D01*
X34765000Y-6273690D01*
X34765000Y-7214250D01*
X34923750Y-7373000D01*
X36373000Y-7373000D01*
X36373000Y-5923750D01*
X36627000Y-5923750D01*
X36627000Y-7373000D01*
X38076250Y-7373000D01*
X38235000Y-7214250D01*
X38235000Y-6273690D01*
X38138327Y-6040301D01*
X37959698Y-5861673D01*
X37726309Y-5765000D01*
X36785750Y-5765000D01*
X36627000Y-5923750D01*
X36373000Y-5923750D01*
X36214250Y-5765000D01*
X35273691Y-5765000D01*
X35040302Y-5861673D01*
X34861673Y-6040301D01*
X34765000Y-6273690D01*
X30423191Y-6273690D01*
X29940534Y-5791033D01*
X30188839Y-5419418D01*
X30304092Y-4840000D01*
X30188839Y-4260582D01*
X30188450Y-4260000D01*
X37161957Y-4260000D01*
X37345423Y-4534577D01*
X37820091Y-4851740D01*
X38238667Y-4935000D01*
X38521333Y-4935000D01*
X38939909Y-4851740D01*
X39414577Y-4534577D01*
X39434804Y-4504305D01*
X42914971Y-7984473D01*
X42957371Y-8047929D01*
X43208763Y-8215904D01*
X43430448Y-8260000D01*
X43430452Y-8260000D01*
X43505299Y-8274888D01*
X43580146Y-8260000D01*
X45081150Y-8260000D01*
X45409135Y-8750865D01*
X45983037Y-9134334D01*
X46489120Y-9235000D01*
X46830880Y-9235000D01*
X47336963Y-9134334D01*
X47910865Y-8750865D01*
X48294334Y-8176963D01*
X48428990Y-7500000D01*
X48294334Y-6823037D01*
X47910865Y-6249135D01*
X47336963Y-5865666D01*
X46830880Y-5765000D01*
X46489120Y-5765000D01*
X45983037Y-5865666D01*
X45409135Y-6249135D01*
X45081150Y-6740000D01*
X43820102Y-6740000D01*
X40095631Y-3015530D01*
X40053229Y-2952071D01*
X39801837Y-2784096D01*
X39600786Y-2744104D01*
X39469954Y-2548300D01*
X44922304Y-2548300D01*
X44783466Y-2687138D01*
G36*
X28917000Y-7253000D02*
X28937000Y-7253000D01*
X28937000Y-7507000D01*
X28917000Y-7507000D01*
X28917000Y-9793000D01*
X30110155Y-9793000D01*
X30231476Y-9563110D01*
X30061645Y-9153076D01*
X29671358Y-8724817D01*
X29512046Y-8650000D01*
X29671358Y-8575183D01*
X30061645Y-8146924D01*
X30086592Y-8086693D01*
X34484371Y-12484473D01*
X34526771Y-12547929D01*
X34752560Y-12698797D01*
X34752560Y-13100000D01*
X34801843Y-13347765D01*
X34942191Y-13557809D01*
X35152235Y-13698157D01*
X35400000Y-13747440D01*
X35801204Y-13747440D01*
X35905456Y-13903463D01*
X35952072Y-13973229D01*
X36015528Y-14015629D01*
X37417296Y-15417399D01*
X37345423Y-15465423D01*
X37028260Y-15940091D01*
X36916887Y-16500000D01*
X37028260Y-17059909D01*
X37076831Y-17132600D01*
X26902102Y-17132600D01*
X26266942Y-16497440D01*
X27100000Y-16497440D01*
X27347765Y-16448157D01*
X27557809Y-16307809D01*
X27698157Y-16097765D01*
X27707184Y-16052381D01*
X27719375Y-16070625D01*
X28210582Y-16398839D01*
X28643744Y-16485000D01*
X28936256Y-16485000D01*
X29369418Y-16398839D01*
X29860625Y-16070625D01*
X30188839Y-15579418D01*
X30304092Y-15000000D01*
X30188839Y-14420582D01*
X29860625Y-13929375D01*
X29543571Y-13717526D01*
X29543147Y-13715394D01*
X29671358Y-13655183D01*
X30061645Y-13226924D01*
X30231476Y-12816890D01*
X30110155Y-12587000D01*
X28917000Y-12587000D01*
X28917000Y-12607000D01*
X28663000Y-12607000D01*
X28663000Y-12587000D01*
X28643000Y-12587000D01*
X28643000Y-12333000D01*
X28663000Y-12333000D01*
X28663000Y-10047000D01*
X28917000Y-10047000D01*
X28917000Y-12333000D01*
X30110155Y-12333000D01*
X30231476Y-12103110D01*
X30061645Y-11693076D01*
X29671358Y-11264817D01*
X29512046Y-11190000D01*
X29671358Y-11115183D01*
X30061645Y-10686924D01*
X30231476Y-10276890D01*
X30110155Y-10047000D01*
X28917000Y-10047000D01*
X28663000Y-10047000D01*
X28643000Y-10047000D01*
X28643000Y-9793000D01*
X28663000Y-9793000D01*
X28663000Y-7507000D01*
X28643000Y-7507000D01*
X28643000Y-7253000D01*
X28663000Y-7253000D01*
X28663000Y-7233000D01*
X28917000Y-7233000D01*
X28917000Y-7253000D01*
X28917000Y-7253000D01*
G37*
X28917000Y-7253000D02*
X28937000Y-7253000D01*
X28937000Y-7507000D01*
X28917000Y-7507000D01*
X28917000Y-9793000D01*
X30110155Y-9793000D01*
X30231476Y-9563110D01*
X30061645Y-9153076D01*
X29671358Y-8724817D01*
X29512046Y-8650000D01*
X29671358Y-8575183D01*
X30061645Y-8146924D01*
X30086592Y-8086693D01*
X34484371Y-12484473D01*
X34526771Y-12547929D01*
X34752560Y-12698797D01*
X34752560Y-13100000D01*
X34801843Y-13347765D01*
X34942191Y-13557809D01*
X35152235Y-13698157D01*
X35400000Y-13747440D01*
X35801204Y-13747440D01*
X35905456Y-13903463D01*
X35952072Y-13973229D01*
X36015528Y-14015629D01*
X37417296Y-15417399D01*
X37345423Y-15465423D01*
X37028260Y-15940091D01*
X36916887Y-16500000D01*
X37028260Y-17059909D01*
X37076831Y-17132600D01*
X26902102Y-17132600D01*
X26266942Y-16497440D01*
X27100000Y-16497440D01*
X27347765Y-16448157D01*
X27557809Y-16307809D01*
X27698157Y-16097765D01*
X27707184Y-16052381D01*
X27719375Y-16070625D01*
X28210582Y-16398839D01*
X28643744Y-16485000D01*
X28936256Y-16485000D01*
X29369418Y-16398839D01*
X29860625Y-16070625D01*
X30188839Y-15579418D01*
X30304092Y-15000000D01*
X30188839Y-14420582D01*
X29860625Y-13929375D01*
X29543571Y-13717526D01*
X29543147Y-13715394D01*
X29671358Y-13655183D01*
X30061645Y-13226924D01*
X30231476Y-12816890D01*
X30110155Y-12587000D01*
X28917000Y-12587000D01*
X28917000Y-12607000D01*
X28663000Y-12607000D01*
X28663000Y-12587000D01*
X28643000Y-12587000D01*
X28643000Y-12333000D01*
X28663000Y-12333000D01*
X28663000Y-10047000D01*
X28917000Y-10047000D01*
X28917000Y-12333000D01*
X30110155Y-12333000D01*
X30231476Y-12103110D01*
X30061645Y-11693076D01*
X29671358Y-11264817D01*
X29512046Y-11190000D01*
X29671358Y-11115183D01*
X30061645Y-10686924D01*
X30231476Y-10276890D01*
X30110155Y-10047000D01*
X28917000Y-10047000D01*
X28663000Y-10047000D01*
X28643000Y-10047000D01*
X28643000Y-9793000D01*
X28663000Y-9793000D01*
X28663000Y-7507000D01*
X28643000Y-7507000D01*
X28643000Y-7253000D01*
X28663000Y-7253000D01*
X28663000Y-7233000D01*
X28917000Y-7233000D01*
X28917000Y-7253000D01*
G36*
X37161957Y-2740000D02*
X28487348Y-2740000D01*
X28412500Y-2725112D01*
X28337652Y-2740000D01*
X28337648Y-2740000D01*
X28115963Y-2784096D01*
X27864571Y-2952071D01*
X27822171Y-3015527D01*
X27169382Y-3668317D01*
X26829418Y-3441161D01*
X26396256Y-3355000D01*
X26103744Y-3355000D01*
X25670582Y-3441161D01*
X25179375Y-3769375D01*
X24851161Y-4260582D01*
X24735908Y-4840000D01*
X24851161Y-5419418D01*
X25179375Y-5910625D01*
X25498478Y-6123843D01*
X25368642Y-6184817D01*
X24978355Y-6613076D01*
X24808524Y-7023110D01*
X24929845Y-7253000D01*
X26123000Y-7253000D01*
X26123000Y-7233000D01*
X26377000Y-7233000D01*
X26377000Y-7253000D01*
X26397000Y-7253000D01*
X26397000Y-7507000D01*
X26377000Y-7507000D01*
X26377000Y-9793000D01*
X26397000Y-9793000D01*
X26397000Y-10047000D01*
X26377000Y-10047000D01*
X26377000Y-12333000D01*
X26397000Y-12333000D01*
X26397000Y-12587000D01*
X26377000Y-12587000D01*
X26377000Y-12607000D01*
X26123000Y-12607000D01*
X26123000Y-12587000D01*
X24929845Y-12587000D01*
X24808524Y-12816890D01*
X24978355Y-13226924D01*
X25255708Y-13531261D01*
X25152235Y-13551843D01*
X24942191Y-13692191D01*
X24801843Y-13902235D01*
X24752560Y-14150000D01*
X24752560Y-14983058D01*
X20046392Y-10276890D01*
X24808524Y-10276890D01*
X24978355Y-10686924D01*
X25368642Y-11115183D01*
X25527954Y-11190000D01*
X25368642Y-11264817D01*
X24978355Y-11693076D01*
X24808524Y-12103110D01*
X24929845Y-12333000D01*
X26123000Y-12333000D01*
X26123000Y-10047000D01*
X24929845Y-10047000D01*
X24808524Y-10276890D01*
X20046392Y-10276890D01*
X17794501Y-8025000D01*
X17827002Y-8025000D01*
X17827002Y-7860156D01*
X18056890Y-7981476D01*
X18466924Y-7811645D01*
X18548952Y-7736890D01*
X24808524Y-7736890D01*
X24978355Y-8146924D01*
X25368642Y-8575183D01*
X25527954Y-8650000D01*
X25368642Y-8724817D01*
X24978355Y-9153076D01*
X24808524Y-9563110D01*
X24929845Y-9793000D01*
X26123000Y-9793000D01*
X26123000Y-7507000D01*
X24929845Y-7507000D01*
X24808524Y-7736890D01*
X18548952Y-7736890D01*
X18895183Y-7421358D01*
X19141486Y-6896892D01*
X19020819Y-6667000D01*
X17827000Y-6667000D01*
X17827000Y-6687000D01*
X17573000Y-6687000D01*
X17573000Y-6667000D01*
X17553000Y-6667000D01*
X17553000Y-6413000D01*
X17573000Y-6413000D01*
X17573000Y-6393000D01*
X17827000Y-6393000D01*
X17827000Y-6413000D01*
X19020819Y-6413000D01*
X19141486Y-6183108D01*
X19114056Y-6124700D01*
X20478253Y-6124700D01*
X20553100Y-6139588D01*
X20627947Y-6124700D01*
X20627952Y-6124700D01*
X20849637Y-6080604D01*
X21101029Y-5912629D01*
X21143431Y-5849170D01*
X24444303Y-2548300D01*
X37290046Y-2548300D01*
X37161957Y-2740000D01*
X37161957Y-2740000D01*
G37*
X37161957Y-2740000D02*
X28487348Y-2740000D01*
X28412500Y-2725112D01*
X28337652Y-2740000D01*
X28337648Y-2740000D01*
X28115963Y-2784096D01*
X27864571Y-2952071D01*
X27822171Y-3015527D01*
X27169382Y-3668317D01*
X26829418Y-3441161D01*
X26396256Y-3355000D01*
X26103744Y-3355000D01*
X25670582Y-3441161D01*
X25179375Y-3769375D01*
X24851161Y-4260582D01*
X24735908Y-4840000D01*
X24851161Y-5419418D01*
X25179375Y-5910625D01*
X25498478Y-6123843D01*
X25368642Y-6184817D01*
X24978355Y-6613076D01*
X24808524Y-7023110D01*
X24929845Y-7253000D01*
X26123000Y-7253000D01*
X26123000Y-7233000D01*
X26377000Y-7233000D01*
X26377000Y-7253000D01*
X26397000Y-7253000D01*
X26397000Y-7507000D01*
X26377000Y-7507000D01*
X26377000Y-9793000D01*
X26397000Y-9793000D01*
X26397000Y-10047000D01*
X26377000Y-10047000D01*
X26377000Y-12333000D01*
X26397000Y-12333000D01*
X26397000Y-12587000D01*
X26377000Y-12587000D01*
X26377000Y-12607000D01*
X26123000Y-12607000D01*
X26123000Y-12587000D01*
X24929845Y-12587000D01*
X24808524Y-12816890D01*
X24978355Y-13226924D01*
X25255708Y-13531261D01*
X25152235Y-13551843D01*
X24942191Y-13692191D01*
X24801843Y-13902235D01*
X24752560Y-14150000D01*
X24752560Y-14983058D01*
X20046392Y-10276890D01*
X24808524Y-10276890D01*
X24978355Y-10686924D01*
X25368642Y-11115183D01*
X25527954Y-11190000D01*
X25368642Y-11264817D01*
X24978355Y-11693076D01*
X24808524Y-12103110D01*
X24929845Y-12333000D01*
X26123000Y-12333000D01*
X26123000Y-10047000D01*
X24929845Y-10047000D01*
X24808524Y-10276890D01*
X20046392Y-10276890D01*
X17794501Y-8025000D01*
X17827002Y-8025000D01*
X17827002Y-7860156D01*
X18056890Y-7981476D01*
X18466924Y-7811645D01*
X18548952Y-7736890D01*
X24808524Y-7736890D01*
X24978355Y-8146924D01*
X25368642Y-8575183D01*
X25527954Y-8650000D01*
X25368642Y-8724817D01*
X24978355Y-9153076D01*
X24808524Y-9563110D01*
X24929845Y-9793000D01*
X26123000Y-9793000D01*
X26123000Y-7507000D01*
X24929845Y-7507000D01*
X24808524Y-7736890D01*
X18548952Y-7736890D01*
X18895183Y-7421358D01*
X19141486Y-6896892D01*
X19020819Y-6667000D01*
X17827000Y-6667000D01*
X17827000Y-6687000D01*
X17573000Y-6687000D01*
X17573000Y-6667000D01*
X17553000Y-6667000D01*
X17553000Y-6413000D01*
X17573000Y-6413000D01*
X17573000Y-6393000D01*
X17827000Y-6393000D01*
X17827000Y-6413000D01*
X19020819Y-6413000D01*
X19141486Y-6183108D01*
X19114056Y-6124700D01*
X20478253Y-6124700D01*
X20553100Y-6139588D01*
X20627947Y-6124700D01*
X20627952Y-6124700D01*
X20849637Y-6080604D01*
X21101029Y-5912629D01*
X21143431Y-5849170D01*
X24444303Y-2548300D01*
X37290046Y-2548300D01*
X37161957Y-2740000D01*
G36*
X203585423Y-2365423D02*
X203268260Y-2840091D01*
X203156887Y-3400000D01*
X203268260Y-3959909D01*
X203585423Y-4434577D01*
X203860001Y-4618044D01*
X203860000Y-7181956D01*
X203585423Y-7365423D01*
X203268260Y-7840091D01*
X203156887Y-8400000D01*
X203268260Y-8959909D01*
X203585423Y-9434577D01*
X204060091Y-9751740D01*
X204478667Y-9835000D01*
X204761333Y-9835000D01*
X205179909Y-9751740D01*
X205654577Y-9434577D01*
X205971740Y-8959909D01*
X206083113Y-8400000D01*
X205971740Y-7840091D01*
X205654577Y-7365423D01*
X205380000Y-7181957D01*
X205380000Y-4618043D01*
X205654577Y-4434577D01*
X205971740Y-3959909D01*
X206023731Y-3698533D01*
X210986896Y-8661699D01*
X210965000Y-8714561D01*
X210965000Y-9285439D01*
X211183466Y-9812862D01*
X211587138Y-10216534D01*
X211787435Y-10299500D01*
X193783548Y-10299500D01*
X193708700Y-10284612D01*
X193633852Y-10299500D01*
X193633848Y-10299500D01*
X193474296Y-10331237D01*
X193412162Y-10343596D01*
X193293882Y-10422629D01*
X193160771Y-10511571D01*
X193118371Y-10575027D01*
X190449599Y-13243800D01*
X190283526Y-13243800D01*
X189903120Y-13401369D01*
X189611969Y-13692520D01*
X189573909Y-13784406D01*
X187844305Y-12054804D01*
X187874577Y-12034577D01*
X188191740Y-11559909D01*
X188303113Y-11000000D01*
X188191740Y-10440091D01*
X187874577Y-9965423D01*
X187600000Y-9781957D01*
X187600000Y-9407745D01*
X196171861Y-9407745D01*
X196245995Y-9653864D01*
X196783223Y-9846965D01*
X197353454Y-9819778D01*
X197754005Y-9653864D01*
X197828139Y-9407745D01*
X197000000Y-8579605D01*
X196171861Y-9407745D01*
X187600000Y-9407745D01*
X187600000Y-8183223D01*
X195553035Y-8183223D01*
X195580222Y-8753454D01*
X195746136Y-9154005D01*
X195992255Y-9228139D01*
X196820395Y-8400000D01*
X197179605Y-8400000D01*
X198007745Y-9228139D01*
X198253864Y-9154005D01*
X198446965Y-8616777D01*
X198419778Y-8046546D01*
X198253864Y-7645995D01*
X198007745Y-7571861D01*
X197179605Y-8400000D01*
X196820395Y-8400000D01*
X195992255Y-7571861D01*
X195746136Y-7645995D01*
X195553035Y-8183223D01*
X187600000Y-8183223D01*
X187600000Y-7392255D01*
X196171861Y-7392255D01*
X197000000Y-8220395D01*
X197828139Y-7392255D01*
X197754005Y-7146136D01*
X197216777Y-6953035D01*
X196646546Y-6980222D01*
X196245995Y-7146136D01*
X196171861Y-7392255D01*
X187600000Y-7392255D01*
X187600000Y-6535100D01*
X194550053Y-6535100D01*
X194624900Y-6549988D01*
X194699747Y-6535100D01*
X194699752Y-6535100D01*
X194921437Y-6491004D01*
X195172829Y-6323029D01*
X195215231Y-6259570D01*
X196661698Y-4813103D01*
X196714561Y-4835000D01*
X197285439Y-4835000D01*
X197812862Y-4616534D01*
X198216534Y-4212862D01*
X198435000Y-3685439D01*
X198435000Y-3114561D01*
X198216534Y-2587138D01*
X197812862Y-2183466D01*
X197627050Y-2106500D01*
X203972929Y-2106500D01*
X203585423Y-2365423D01*
X203585423Y-2365423D01*
G37*
X203585423Y-2365423D02*
X203268260Y-2840091D01*
X203156887Y-3400000D01*
X203268260Y-3959909D01*
X203585423Y-4434577D01*
X203860001Y-4618044D01*
X203860000Y-7181956D01*
X203585423Y-7365423D01*
X203268260Y-7840091D01*
X203156887Y-8400000D01*
X203268260Y-8959909D01*
X203585423Y-9434577D01*
X204060091Y-9751740D01*
X204478667Y-9835000D01*
X204761333Y-9835000D01*
X205179909Y-9751740D01*
X205654577Y-9434577D01*
X205971740Y-8959909D01*
X206083113Y-8400000D01*
X205971740Y-7840091D01*
X205654577Y-7365423D01*
X205380000Y-7181957D01*
X205380000Y-4618043D01*
X205654577Y-4434577D01*
X205971740Y-3959909D01*
X206023731Y-3698533D01*
X210986896Y-8661699D01*
X210965000Y-8714561D01*
X210965000Y-9285439D01*
X211183466Y-9812862D01*
X211587138Y-10216534D01*
X211787435Y-10299500D01*
X193783548Y-10299500D01*
X193708700Y-10284612D01*
X193633852Y-10299500D01*
X193633848Y-10299500D01*
X193474296Y-10331237D01*
X193412162Y-10343596D01*
X193293882Y-10422629D01*
X193160771Y-10511571D01*
X193118371Y-10575027D01*
X190449599Y-13243800D01*
X190283526Y-13243800D01*
X189903120Y-13401369D01*
X189611969Y-13692520D01*
X189573909Y-13784406D01*
X187844305Y-12054804D01*
X187874577Y-12034577D01*
X188191740Y-11559909D01*
X188303113Y-11000000D01*
X188191740Y-10440091D01*
X187874577Y-9965423D01*
X187600000Y-9781957D01*
X187600000Y-9407745D01*
X196171861Y-9407745D01*
X196245995Y-9653864D01*
X196783223Y-9846965D01*
X197353454Y-9819778D01*
X197754005Y-9653864D01*
X197828139Y-9407745D01*
X197000000Y-8579605D01*
X196171861Y-9407745D01*
X187600000Y-9407745D01*
X187600000Y-8183223D01*
X195553035Y-8183223D01*
X195580222Y-8753454D01*
X195746136Y-9154005D01*
X195992255Y-9228139D01*
X196820395Y-8400000D01*
X197179605Y-8400000D01*
X198007745Y-9228139D01*
X198253864Y-9154005D01*
X198446965Y-8616777D01*
X198419778Y-8046546D01*
X198253864Y-7645995D01*
X198007745Y-7571861D01*
X197179605Y-8400000D01*
X196820395Y-8400000D01*
X195992255Y-7571861D01*
X195746136Y-7645995D01*
X195553035Y-8183223D01*
X187600000Y-8183223D01*
X187600000Y-7392255D01*
X196171861Y-7392255D01*
X197000000Y-8220395D01*
X197828139Y-7392255D01*
X197754005Y-7146136D01*
X197216777Y-6953035D01*
X196646546Y-6980222D01*
X196245995Y-7146136D01*
X196171861Y-7392255D01*
X187600000Y-7392255D01*
X187600000Y-6535100D01*
X194550053Y-6535100D01*
X194624900Y-6549988D01*
X194699747Y-6535100D01*
X194699752Y-6535100D01*
X194921437Y-6491004D01*
X195172829Y-6323029D01*
X195215231Y-6259570D01*
X196661698Y-4813103D01*
X196714561Y-4835000D01*
X197285439Y-4835000D01*
X197812862Y-4616534D01*
X198216534Y-4212862D01*
X198435000Y-3685439D01*
X198435000Y-3114561D01*
X198216534Y-2587138D01*
X197812862Y-2183466D01*
X197627050Y-2106500D01*
X203972929Y-2106500D01*
X203585423Y-2365423D01*
G04 #@! TD*
M02*
