G04 #@! TF.GenerationSoftware,KiCad,Pcbnew,(5.0.2)-1*
G04 #@! TF.CreationDate,2019-02-12T12:39:20+01:00*
G04 #@! TF.ProjectId,Multibus_mainboard,4d756c74-6962-4757-935f-6d61696e626f,rev?*
G04 #@! TF.SameCoordinates,Original*
G04 #@! TF.FileFunction,Copper,L2,Bot*
G04 #@! TF.FilePolarity,Positive*
%FSLAX46Y46*%
G04 Gerber Fmt 4.6, Leading zero omitted, Abs format (unit mm)*
G04 Created by KiCad (PCBNEW (5.0.2)-1) date 12-2-2019 12:39:20*
%MOMM*%
%LPD*%
G01*
G04 APERTURE LIST*
G04 #@! TA.AperFunction,ComponentPad*
%ADD10O,2.200000X2.200000*%
G04 #@! TD*
G04 #@! TA.AperFunction,ComponentPad*
%ADD11R,2.200000X2.200000*%
G04 #@! TD*
G04 #@! TA.AperFunction,ComponentPad*
%ADD12O,1.700000X1.700000*%
G04 #@! TD*
G04 #@! TA.AperFunction,ComponentPad*
%ADD13R,1.700000X1.700000*%
G04 #@! TD*
G04 #@! TA.AperFunction,ComponentPad*
%ADD14C,1.600000*%
G04 #@! TD*
G04 #@! TA.AperFunction,ComponentPad*
%ADD15O,1.600000X1.600000*%
G04 #@! TD*
G04 #@! TA.AperFunction,ViaPad*
%ADD16C,0.800000*%
G04 #@! TD*
G04 #@! TA.AperFunction,Conductor*
%ADD17C,0.250000*%
G04 #@! TD*
G04 #@! TA.AperFunction,Conductor*
%ADD18C,0.254000*%
G04 #@! TD*
G04 APERTURE END LIST*
D10*
G04 #@! TO.P,D1,2*
G04 #@! TO.N,GND*
X191660000Y-8000000D03*
D11*
G04 #@! TO.P,D1,1*
G04 #@! TO.N,Net-(D1-Pad1)*
X181500000Y-8000000D03*
G04 #@! TD*
G04 #@! TO.P,D2,1*
G04 #@! TO.N,GND*
X181500000Y-12500000D03*
D10*
G04 #@! TO.P,D2,2*
G04 #@! TO.N,Net-(D2-Pad2)*
X191660000Y-12500000D03*
G04 #@! TD*
D12*
G04 #@! TO.P,J_MB1.2,12*
G04 #@! TO.N,GND*
X224960000Y-17200000D03*
G04 #@! TO.P,J_MB1.2,11*
G04 #@! TO.N,N/C*
X227500000Y-17200000D03*
G04 #@! TO.P,J_MB1.2,10*
G04 #@! TO.N,/cv_bus1/1.2.leds.out*
X224960000Y-14660000D03*
G04 #@! TO.P,J_MB1.2,9*
G04 #@! TO.N,/cv_bus1/1.2.leds.in*
X227500000Y-14660000D03*
G04 #@! TO.P,J_MB1.2,8*
G04 #@! TO.N,/cv_bus1/1.2.out.3*
X224960000Y-12120000D03*
G04 #@! TO.P,J_MB1.2,7*
G04 #@! TO.N,/cv_bus1/1.2.out.2*
X227500000Y-12120000D03*
G04 #@! TO.P,J_MB1.2,6*
G04 #@! TO.N,/cv_bus1/1.2.out.1*
X224960000Y-9580000D03*
G04 #@! TO.P,J_MB1.2,5*
G04 #@! TO.N,/cv_bus1/sel.1.2.out*
X227500000Y-9580000D03*
G04 #@! TO.P,J_MB1.2,4*
G04 #@! TO.N,/cv_bus1/bus1.out*
X224960000Y-7040000D03*
G04 #@! TO.P,J_MB1.2,3*
G04 #@! TO.N,/cv_bus1/bus1.2.in*
X227500000Y-7040000D03*
G04 #@! TO.P,J_MB1.2,2*
G04 #@! TO.N,/cv_bus1/solo1.2.out*
X224960000Y-4500000D03*
D13*
G04 #@! TO.P,J_MB1.2,1*
G04 #@! TO.N,/cv_bus1/solo1.2.in*
X227500000Y-4500000D03*
G04 #@! TD*
G04 #@! TO.P,J_MB1.1,1*
G04 #@! TO.N,/cv_bus1/solo1.1.in*
X7000000Y-4500000D03*
D12*
G04 #@! TO.P,J_MB1.1,2*
G04 #@! TO.N,/cv_bus1/solo1.1.out*
X4460000Y-4500000D03*
G04 #@! TO.P,J_MB1.1,3*
G04 #@! TO.N,/cv_bus1/bus1.1.in*
X7000000Y-7040000D03*
G04 #@! TO.P,J_MB1.1,4*
G04 #@! TO.N,/cv_bus1/bus1.out*
X4460000Y-7040000D03*
G04 #@! TO.P,J_MB1.1,5*
G04 #@! TO.N,/cv_bus1/sel.1.1.out*
X7000000Y-9580000D03*
G04 #@! TO.P,J_MB1.1,6*
G04 #@! TO.N,/cv_bus1/1.1.out.1*
X4460000Y-9580000D03*
G04 #@! TO.P,J_MB1.1,7*
G04 #@! TO.N,/cv_bus1/1.1.out.2*
X7000000Y-12120000D03*
G04 #@! TO.P,J_MB1.1,8*
G04 #@! TO.N,/cv_bus1/1.1.out.3*
X4460000Y-12120000D03*
G04 #@! TO.P,J_MB1.1,9*
G04 #@! TO.N,/cv_bus1/1.1.leds.in*
X7000000Y-14660000D03*
G04 #@! TO.P,J_MB1.1,10*
G04 #@! TO.N,/cv_bus1/1.1.leds.out*
X4460000Y-14660000D03*
G04 #@! TO.P,J_MB1.1,11*
G04 #@! TO.N,N/C*
X7000000Y-17200000D03*
G04 #@! TO.P,J_MB1.1,12*
G04 #@! TO.N,GND*
X4460000Y-17200000D03*
G04 #@! TD*
G04 #@! TO.P,J_MB1.3,12*
G04 #@! TO.N,GND*
X374960000Y-17200000D03*
G04 #@! TO.P,J_MB1.3,11*
G04 #@! TO.N,N/C*
X377500000Y-17200000D03*
G04 #@! TO.P,J_MB1.3,10*
G04 #@! TO.N,/cv_bus1/1.3.leds.out*
X374960000Y-14660000D03*
G04 #@! TO.P,J_MB1.3,9*
G04 #@! TO.N,/cv_bus1/1.3.leds.in*
X377500000Y-14660000D03*
G04 #@! TO.P,J_MB1.3,8*
G04 #@! TO.N,/cv_bus1/1.3.out.3*
X374960000Y-12120000D03*
G04 #@! TO.P,J_MB1.3,7*
G04 #@! TO.N,/cv_bus1/1.3.out.2*
X377500000Y-12120000D03*
G04 #@! TO.P,J_MB1.3,6*
G04 #@! TO.N,/cv_bus1/1.3.out.1*
X374960000Y-9580000D03*
G04 #@! TO.P,J_MB1.3,5*
G04 #@! TO.N,/cv_bus1/sel.1.3.out*
X377500000Y-9580000D03*
G04 #@! TO.P,J_MB1.3,4*
G04 #@! TO.N,/cv_bus1/bus1.out*
X374960000Y-7040000D03*
G04 #@! TO.P,J_MB1.3,3*
G04 #@! TO.N,/cv_bus1/bus1.3.in*
X377500000Y-7040000D03*
G04 #@! TO.P,J_MB1.3,2*
G04 #@! TO.N,/cv_bus1/solo1.3.out*
X374960000Y-4500000D03*
D13*
G04 #@! TO.P,J_MB1.3,1*
G04 #@! TO.N,/cv_bus1/solo1.3.in*
X377500000Y-4500000D03*
G04 #@! TD*
D12*
G04 #@! TO.P,J_MB2.3,12*
G04 #@! TO.N,GND*
X424960000Y-17200000D03*
G04 #@! TO.P,J_MB2.3,11*
G04 #@! TO.N,N/C*
X427500000Y-17200000D03*
G04 #@! TO.P,J_MB2.3,10*
G04 #@! TO.N,/cv_bus2/2.3.leds.out*
X424960000Y-14660000D03*
G04 #@! TO.P,J_MB2.3,9*
G04 #@! TO.N,/cv_bus2/2.3.leds.in*
X427500000Y-14660000D03*
G04 #@! TO.P,J_MB2.3,8*
G04 #@! TO.N,/cv_bus2/2.3.out.3*
X424960000Y-12120000D03*
G04 #@! TO.P,J_MB2.3,7*
G04 #@! TO.N,/cv_bus2/2.3.out.2*
X427500000Y-12120000D03*
G04 #@! TO.P,J_MB2.3,6*
G04 #@! TO.N,/cv_bus2/2.3.out.1*
X424960000Y-9580000D03*
G04 #@! TO.P,J_MB2.3,5*
G04 #@! TO.N,/cv_bus2/sel.2.3.out*
X427500000Y-9580000D03*
G04 #@! TO.P,J_MB2.3,4*
G04 #@! TO.N,/cv_bus2/bus2.out*
X424960000Y-7040000D03*
G04 #@! TO.P,J_MB2.3,3*
G04 #@! TO.N,/cv_bus2/bus2.3.in*
X427500000Y-7040000D03*
G04 #@! TO.P,J_MB2.3,2*
G04 #@! TO.N,/cv_bus2/solo2.3.out*
X424960000Y-4500000D03*
D13*
G04 #@! TO.P,J_MB2.3,1*
G04 #@! TO.N,/cv_bus2/solo2.3.in*
X427500000Y-4500000D03*
G04 #@! TD*
G04 #@! TO.P,J_MB2.1,1*
G04 #@! TO.N,/cv_bus2/solo2.1.in*
X57000000Y-4500000D03*
D12*
G04 #@! TO.P,J_MB2.1,2*
G04 #@! TO.N,/cv_bus2/solo2.1.out*
X54460000Y-4500000D03*
G04 #@! TO.P,J_MB2.1,3*
G04 #@! TO.N,/cv_bus2/bus2.1.in*
X57000000Y-7040000D03*
G04 #@! TO.P,J_MB2.1,4*
G04 #@! TO.N,/cv_bus2/bus2.out*
X54460000Y-7040000D03*
G04 #@! TO.P,J_MB2.1,5*
G04 #@! TO.N,/cv_bus2/sel.2.1.out*
X57000000Y-9580000D03*
G04 #@! TO.P,J_MB2.1,6*
G04 #@! TO.N,/cv_bus2/2.1.out.1*
X54460000Y-9580000D03*
G04 #@! TO.P,J_MB2.1,7*
G04 #@! TO.N,/cv_bus2/2.1.out.2*
X57000000Y-12120000D03*
G04 #@! TO.P,J_MB2.1,8*
G04 #@! TO.N,/cv_bus2/2.1.out.3*
X54460000Y-12120000D03*
G04 #@! TO.P,J_MB2.1,9*
G04 #@! TO.N,/cv_bus2/2.1.leds.in*
X57000000Y-14660000D03*
G04 #@! TO.P,J_MB2.1,10*
G04 #@! TO.N,/cv_bus2/2.1.leds.out*
X54460000Y-14660000D03*
G04 #@! TO.P,J_MB2.1,11*
G04 #@! TO.N,N/C*
X57000000Y-17200000D03*
G04 #@! TO.P,J_MB2.1,12*
G04 #@! TO.N,GND*
X54460000Y-17200000D03*
G04 #@! TD*
G04 #@! TO.P,J_MB2.2,12*
G04 #@! TO.N,GND*
X274960000Y-17200000D03*
G04 #@! TO.P,J_MB2.2,11*
G04 #@! TO.N,N/C*
X277500000Y-17200000D03*
G04 #@! TO.P,J_MB2.2,10*
G04 #@! TO.N,/cv_bus2/2.2.leds.out*
X274960000Y-14660000D03*
G04 #@! TO.P,J_MB2.2,9*
G04 #@! TO.N,/cv_bus2/2.2.leds.in*
X277500000Y-14660000D03*
G04 #@! TO.P,J_MB2.2,8*
G04 #@! TO.N,/cv_bus2/2.2.out.3*
X274960000Y-12120000D03*
G04 #@! TO.P,J_MB2.2,7*
G04 #@! TO.N,/cv_bus2/2.2.out.2*
X277500000Y-12120000D03*
G04 #@! TO.P,J_MB2.2,6*
G04 #@! TO.N,/cv_bus2/2.2.out.1*
X274960000Y-9580000D03*
G04 #@! TO.P,J_MB2.2,5*
G04 #@! TO.N,/cv_bus2/sel.2.2.out*
X277500000Y-9580000D03*
G04 #@! TO.P,J_MB2.2,4*
G04 #@! TO.N,/cv_bus2/bus2.out*
X274960000Y-7040000D03*
G04 #@! TO.P,J_MB2.2,3*
G04 #@! TO.N,/cv_bus2/bus2.2.in*
X277500000Y-7040000D03*
G04 #@! TO.P,J_MB2.2,2*
G04 #@! TO.N,/cv_bus2/solo2.2.out*
X274960000Y-4500000D03*
D13*
G04 #@! TO.P,J_MB2.2,1*
G04 #@! TO.N,/cv_bus2/solo2.2.in*
X277500000Y-4500000D03*
G04 #@! TD*
G04 #@! TO.P,J_MB3.3,1*
G04 #@! TO.N,/cv_bus3/solo3.3.in*
X477500000Y-4500000D03*
D12*
G04 #@! TO.P,J_MB3.3,2*
G04 #@! TO.N,/cv_bus3/solo3.3.out*
X474960000Y-4500000D03*
G04 #@! TO.P,J_MB3.3,3*
G04 #@! TO.N,/cv_bus3/bus3.3.in*
X477500000Y-7040000D03*
G04 #@! TO.P,J_MB3.3,4*
G04 #@! TO.N,/cv_bus3/bus3.out*
X474960000Y-7040000D03*
G04 #@! TO.P,J_MB3.3,5*
G04 #@! TO.N,/cv_bus3/sel.3.3.out*
X477500000Y-9580000D03*
G04 #@! TO.P,J_MB3.3,6*
G04 #@! TO.N,/cv_bus3/3.3.out.1*
X474960000Y-9580000D03*
G04 #@! TO.P,J_MB3.3,7*
G04 #@! TO.N,/cv_bus3/3.3.out.2*
X477500000Y-12120000D03*
G04 #@! TO.P,J_MB3.3,8*
G04 #@! TO.N,/cv_bus3/3.3.out.3*
X474960000Y-12120000D03*
G04 #@! TO.P,J_MB3.3,9*
G04 #@! TO.N,/cv_bus3/3.3.leds.in*
X477500000Y-14660000D03*
G04 #@! TO.P,J_MB3.3,10*
G04 #@! TO.N,/cv_bus3/3.3.leds.out*
X474960000Y-14660000D03*
G04 #@! TO.P,J_MB3.3,11*
G04 #@! TO.N,N/C*
X477500000Y-17200000D03*
G04 #@! TO.P,J_MB3.3,12*
G04 #@! TO.N,GND*
X474960000Y-17200000D03*
G04 #@! TD*
G04 #@! TO.P,J_MB3.2,12*
G04 #@! TO.N,GND*
X324960000Y-17200000D03*
G04 #@! TO.P,J_MB3.2,11*
G04 #@! TO.N,N/C*
X327500000Y-17200000D03*
G04 #@! TO.P,J_MB3.2,10*
G04 #@! TO.N,/cv_bus3/3.2.leds.out*
X324960000Y-14660000D03*
G04 #@! TO.P,J_MB3.2,9*
G04 #@! TO.N,/cv_bus3/3.2.leds.in*
X327500000Y-14660000D03*
G04 #@! TO.P,J_MB3.2,8*
G04 #@! TO.N,/cv_bus3/3.2.out.3*
X324960000Y-12120000D03*
G04 #@! TO.P,J_MB3.2,7*
G04 #@! TO.N,/cv_bus3/3.2.out.2*
X327500000Y-12120000D03*
G04 #@! TO.P,J_MB3.2,6*
G04 #@! TO.N,/cv_bus3/3.2.out.1*
X324960000Y-9580000D03*
G04 #@! TO.P,J_MB3.2,5*
G04 #@! TO.N,/cv_bus3/sel.3.2.out*
X327500000Y-9580000D03*
G04 #@! TO.P,J_MB3.2,4*
G04 #@! TO.N,/cv_bus3/bus3.out*
X324960000Y-7040000D03*
G04 #@! TO.P,J_MB3.2,3*
G04 #@! TO.N,/cv_bus3/bus3.2.in*
X327500000Y-7040000D03*
G04 #@! TO.P,J_MB3.2,2*
G04 #@! TO.N,/cv_bus3/solo3.2.out*
X324960000Y-4500000D03*
D13*
G04 #@! TO.P,J_MB3.2,1*
G04 #@! TO.N,/cv_bus3/solo3.2.in*
X327500000Y-4500000D03*
G04 #@! TD*
G04 #@! TO.P,J_MB3.1,1*
G04 #@! TO.N,/cv_bus3/solo3.1.in*
X107000000Y-4500000D03*
D12*
G04 #@! TO.P,J_MB3.1,2*
G04 #@! TO.N,/cv_bus3/solo3.1.out*
X104460000Y-4500000D03*
G04 #@! TO.P,J_MB3.1,3*
G04 #@! TO.N,/cv_bus3/bus3.1.in*
X107000000Y-7040000D03*
G04 #@! TO.P,J_MB3.1,4*
G04 #@! TO.N,/cv_bus3/bus3.out*
X104460000Y-7040000D03*
G04 #@! TO.P,J_MB3.1,5*
G04 #@! TO.N,/cv_bus3/sel.3.1.out*
X107000000Y-9580000D03*
G04 #@! TO.P,J_MB3.1,6*
G04 #@! TO.N,/cv_bus3/3.1.out.1*
X104460000Y-9580000D03*
G04 #@! TO.P,J_MB3.1,7*
G04 #@! TO.N,/cv_bus3/3.1.out.2*
X107000000Y-12120000D03*
G04 #@! TO.P,J_MB3.1,8*
G04 #@! TO.N,/cv_bus3/3.1.out.3*
X104460000Y-12120000D03*
G04 #@! TO.P,J_MB3.1,9*
G04 #@! TO.N,/cv_bus3/3.1.leds.in*
X107000000Y-14660000D03*
G04 #@! TO.P,J_MB3.1,10*
G04 #@! TO.N,/cv_bus3/3.1.leds.out*
X104460000Y-14660000D03*
G04 #@! TO.P,J_MB3.1,11*
G04 #@! TO.N,N/C*
X107000000Y-17200000D03*
G04 #@! TO.P,J_MB3.1,12*
G04 #@! TO.N,GND*
X104460000Y-17200000D03*
G04 #@! TD*
D13*
G04 #@! TO.P,J_PWR1,1*
G04 #@! TO.N,Net-(D2-Pad2)*
X165000000Y-14500000D03*
D12*
G04 #@! TO.P,J_PWR1,2*
X167540000Y-14500000D03*
G04 #@! TO.P,J_PWR1,3*
G04 #@! TO.N,GND*
X165000000Y-11960000D03*
G04 #@! TO.P,J_PWR1,4*
X167540000Y-11960000D03*
G04 #@! TO.P,J_PWR1,5*
X165000000Y-9420000D03*
G04 #@! TO.P,J_PWR1,6*
X167540000Y-9420000D03*
G04 #@! TO.P,J_PWR1,7*
X165000000Y-6880000D03*
G04 #@! TO.P,J_PWR1,8*
X167540000Y-6880000D03*
G04 #@! TO.P,J_PWR1,9*
G04 #@! TO.N,Net-(D1-Pad1)*
X165000000Y-4340000D03*
G04 #@! TO.P,J_PWR1,10*
X167540000Y-4340000D03*
G04 #@! TD*
D13*
G04 #@! TO.P,J_MB_RV1,1*
G04 #@! TO.N,/cv_bus1/bus1.out*
X176500000Y-10000000D03*
D12*
G04 #@! TO.P,J_MB_RV1,2*
G04 #@! TO.N,/cv_bus1/rv1.out*
X176500000Y-12540000D03*
G04 #@! TD*
G04 #@! TO.P,J_MB_RV2,2*
G04 #@! TO.N,/cv_bus2/rv2.out*
X196500000Y-12540000D03*
D13*
G04 #@! TO.P,J_MB_RV2,1*
G04 #@! TO.N,/cv_bus2/bus2.out*
X196500000Y-10000000D03*
G04 #@! TD*
G04 #@! TO.P,J_MB_RV3,1*
G04 #@! TO.N,/cv_bus3/bus3.out*
X216500000Y-10000000D03*
D12*
G04 #@! TO.P,J_MB_RV3,2*
G04 #@! TO.N,/cv_bus3/rv3.out*
X216500000Y-12540000D03*
G04 #@! TD*
D14*
G04 #@! TO.P,R_FUSE_1,1*
G04 #@! TO.N,+12V*
X181500000Y-2000000D03*
D15*
G04 #@! TO.P,R_FUSE_1,2*
G04 #@! TO.N,Net-(D1-Pad1)*
X173880000Y-2000000D03*
G04 #@! TD*
G04 #@! TO.P,R_FUSE_2,2*
G04 #@! TO.N,Net-(D2-Pad2)*
X181500000Y-18000000D03*
D14*
G04 #@! TO.P,R_FUSE_2,1*
G04 #@! TO.N,-12V*
X173880000Y-18000000D03*
G04 #@! TD*
D16*
G04 #@! TO.N,+12V*
X337522300Y-9081000D03*
X484043100Y-8488500D03*
X437151700Y-9345800D03*
X387822200Y-9326600D03*
X287571800Y-9094300D03*
X215649500Y-14709500D03*
X241416300Y-16162100D03*
X17254300Y-12060500D03*
X66380000Y-12775100D03*
X117000000Y-12103800D03*
G04 #@! TO.N,GND*
X386553000Y-12072100D03*
X436351100Y-12062400D03*
X271995500Y-6787600D03*
G04 #@! TO.N,-12V*
X170302000Y-6116700D03*
G04 #@! TO.N,/cv_bus1/1.2.leds.out*
X254320400Y-14327500D03*
G04 #@! TO.N,/cv_bus2/2.1.leds.out*
X69729600Y-9340100D03*
G04 #@! TO.N,/cv_bus2/2.2.leds.out*
X291674100Y-12850000D03*
G04 #@! TO.N,/cv_bus1/1.2.leds.in*
X246818800Y-13806500D03*
G04 #@! TO.N,/cv_bus1/1.2.out.3*
X267920500Y-5546000D03*
G04 #@! TO.N,/cv_bus1/1.2.out.2*
X263345400Y-5983200D03*
G04 #@! TO.N,/cv_bus1/1.2.out.1*
X260711200Y-5532000D03*
G04 #@! TO.N,/cv_bus1/sel.1.2.out*
X251671100Y-6867100D03*
G04 #@! TO.N,/cv_bus1/solo1.2.in*
X248197600Y-6525000D03*
G04 #@! TO.N,/cv_bus1/bus1.1.in*
X37319800Y-6096100D03*
G04 #@! TO.N,/cv_bus1/sel.1.1.out*
X24413300Y-6514900D03*
G04 #@! TO.N,/cv_bus1/1.1.out.1*
X38406900Y-4475000D03*
G04 #@! TO.N,/cv_bus1/1.1.out.2*
X43191800Y-4475000D03*
G04 #@! TO.N,/cv_bus1/1.1.out.3*
X46861600Y-4475000D03*
G04 #@! TO.N,/cv_bus1/1.1.leds.in*
X20580500Y-8419000D03*
G04 #@! TO.N,/cv_bus1/1.3.out.3*
X416535400Y-4475000D03*
G04 #@! TO.N,/cv_bus1/1.3.out.2*
X412841000Y-5354300D03*
G04 #@! TO.N,/cv_bus1/1.3.out.1*
X408807600Y-5075900D03*
G04 #@! TO.N,/cv_bus1/bus1.3.in*
X406782100Y-5809900D03*
G04 #@! TO.N,/cv_bus2/2.3.leds.in*
X441207000Y-8819100D03*
G04 #@! TO.N,/cv_bus2/2.3.out.3*
X466579400Y-4475000D03*
G04 #@! TO.N,/cv_bus2/2.3.out.2*
X463060700Y-4923500D03*
G04 #@! TO.N,/cv_bus2/2.3.out.1*
X457392300Y-4475000D03*
G04 #@! TO.N,/cv_bus2/sel.2.3.out*
X454169000Y-6860700D03*
G04 #@! TO.N,/cv_bus2/bus2.3.in*
X446995700Y-5856600D03*
G04 #@! TO.N,/cv_bus2/solo2.3.in*
X449881400Y-5861400D03*
G04 #@! TO.N,/cv_bus2/solo2.1.in*
X81181900Y-6303700D03*
G04 #@! TO.N,/cv_bus2/solo2.1.out*
X62414000Y-14612600D03*
G04 #@! TO.N,/cv_bus2/bus2.1.in*
X77404200Y-6303700D03*
G04 #@! TO.N,/cv_bus2/sel.2.1.out*
X84369000Y-7204300D03*
G04 #@! TO.N,/cv_bus2/2.1.out.1*
X89727800Y-4475000D03*
G04 #@! TO.N,/cv_bus2/2.1.out.2*
X93608200Y-4475000D03*
G04 #@! TO.N,/cv_bus2/2.1.out.3*
X89195600Y-5376300D03*
G04 #@! TO.N,/cv_bus2/2.2.out.3*
X316602300Y-4475000D03*
G04 #@! TO.N,/cv_bus2/2.2.out.2*
X312750000Y-4968400D03*
G04 #@! TO.N,/cv_bus2/sel.2.2.out*
X304170700Y-6525000D03*
G04 #@! TO.N,/cv_bus2/solo2.2.in*
X295093000Y-4976300D03*
G04 #@! TO.N,/cv_bus3/solo3.3.out*
X496450500Y-14620800D03*
G04 #@! TO.N,/cv_bus3/3.3.out.2*
X512750000Y-4682000D03*
G04 #@! TO.N,/cv_bus3/3.3.leds.in*
X491280700Y-6176100D03*
G04 #@! TO.N,/cv_bus3/3.2.leds.in*
X341463000Y-6869700D03*
G04 #@! TO.N,/cv_bus3/3.2.out.2*
X362126000Y-5444300D03*
G04 #@! TO.N,/cv_bus3/solo3.2.out*
X332369000Y-10727600D03*
G04 #@! TO.N,/cv_bus3/solo3.1.in*
X131179600Y-6525000D03*
G04 #@! TO.N,/cv_bus3/solo3.1.out*
X122519400Y-6307000D03*
G04 #@! TO.N,/cv_bus3/bus3.1.in*
X125739900Y-6525000D03*
G04 #@! TO.N,/cv_bus3/sel.3.1.out*
X134686900Y-6925700D03*
G04 #@! TO.N,/cv_bus3/3.1.out.1*
X140160300Y-4475000D03*
G04 #@! TO.N,/cv_bus3/3.1.out.3*
X143910400Y-5444300D03*
G04 #@! TO.N,/cv_bus2/rv2.out*
X447148700Y-4035300D03*
X297630100Y-3365200D03*
G04 #@! TO.N,/cv_bus3/rv3.out*
X497162800Y-4294300D03*
X347092600Y-4193600D03*
X114397800Y-3929100D03*
X130328600Y-4293300D03*
G04 #@! TO.N,Net-(R2.1.feedback.1-Pad1)*
X64860500Y-12052000D03*
X90859000Y-8281800D03*
X80567000Y-15958000D03*
G04 #@! TD*
D17*
G04 #@! TO.N,Net-(D1-Pad1)*
X181500000Y-8000000D02*
X180074700Y-8000000D01*
X173880000Y-2000000D02*
X175005300Y-2000000D01*
X175005300Y-2000000D02*
X180074700Y-7069400D01*
X180074700Y-7069400D02*
X180074700Y-8000000D01*
X173880000Y-2000000D02*
X171055300Y-2000000D01*
X171055300Y-2000000D02*
X168715300Y-4340000D01*
X167540000Y-4340000D02*
X168715300Y-4340000D01*
G04 #@! TO.N,Net-(D2-Pad2)*
X167540000Y-14500000D02*
X168715300Y-14500000D01*
X181500000Y-18000000D02*
X180374700Y-18000000D01*
X180374700Y-18000000D02*
X179209000Y-19165700D01*
X179209000Y-19165700D02*
X173381000Y-19165700D01*
X173381000Y-19165700D02*
X168715300Y-14500000D01*
X182062700Y-18000000D02*
X181500000Y-18000000D01*
X182062700Y-18000000D02*
X182625300Y-18000000D01*
X190234700Y-12500000D02*
X188125300Y-12500000D01*
X188125300Y-12500000D02*
X182625300Y-18000000D01*
X191660000Y-12500000D02*
X190234700Y-12500000D01*
G04 #@! TO.N,+12V*
X337522300Y-5678700D02*
X335167300Y-3323700D01*
X335167300Y-3323700D02*
X306346200Y-3323700D01*
X306346200Y-3323700D02*
X300575600Y-9094300D01*
X300575600Y-9094300D02*
X287571800Y-9094300D01*
X387822200Y-10156500D02*
X387278400Y-10156500D01*
X387278400Y-10156500D02*
X384129600Y-13305300D01*
X384129600Y-13305300D02*
X372468700Y-13305300D01*
X372468700Y-13305300D02*
X363847700Y-4684300D01*
X363847700Y-4684300D02*
X349538400Y-4684300D01*
X349538400Y-4684300D02*
X347952900Y-6269800D01*
X347952900Y-6269800D02*
X346232400Y-6269800D01*
X346232400Y-6269800D02*
X345641300Y-5678700D01*
X345641300Y-5678700D02*
X337522300Y-5678700D01*
X337522300Y-9081000D02*
X337522300Y-5678700D01*
X387822200Y-10156500D02*
X393511500Y-15845800D01*
X393511500Y-15845800D02*
X430651700Y-15845800D01*
X430651700Y-15845800D02*
X437151700Y-9345800D01*
X484043100Y-8488500D02*
X478879200Y-3324600D01*
X478879200Y-3324600D02*
X471325700Y-3324600D01*
X471325700Y-3324600D02*
X465101100Y-9549200D01*
X465101100Y-9549200D02*
X437355100Y-9549200D01*
X437355100Y-9549200D02*
X437151700Y-9345800D01*
X387822200Y-9326600D02*
X387822200Y-10156500D01*
X241416300Y-16162100D02*
X239199700Y-18378700D01*
X239199700Y-18378700D02*
X219318700Y-18378700D01*
X219318700Y-18378700D02*
X215649500Y-14709500D01*
X181500000Y-2000000D02*
X180371300Y-871300D01*
X180371300Y-871300D02*
X156439800Y-871300D01*
X156439800Y-871300D02*
X145207300Y-12103800D01*
X145207300Y-12103800D02*
X117000000Y-12103800D01*
X117000000Y-12103800D02*
X113268400Y-15835400D01*
X113268400Y-15835400D02*
X82603500Y-15835400D01*
X82603500Y-15835400D02*
X81726100Y-16712800D01*
X81726100Y-16712800D02*
X70317700Y-16712800D01*
X70317700Y-16712800D02*
X66380000Y-12775100D01*
X66380000Y-12775100D02*
X60748500Y-18406600D01*
X60748500Y-18406600D02*
X23600400Y-18406600D01*
X23600400Y-18406600D02*
X17254300Y-12060500D01*
G04 #@! TO.N,GND*
X274960000Y-17200000D02*
X274960000Y-16024700D01*
X374960000Y-17200000D02*
X376135300Y-17200000D01*
X376135300Y-17200000D02*
X376135300Y-16832600D01*
X376135300Y-16832600D02*
X376943200Y-16024700D01*
X376943200Y-16024700D02*
X382600400Y-16024700D01*
X382600400Y-16024700D02*
X386553000Y-12072100D01*
X190234700Y-8000000D02*
X185734700Y-12500000D01*
X185734700Y-12500000D02*
X181500000Y-12500000D01*
X274960000Y-16024700D02*
X274592700Y-16024700D01*
X274592700Y-16024700D02*
X271995500Y-13427500D01*
X271995500Y-13427500D02*
X271995500Y-6787600D01*
X426135300Y-17200000D02*
X426135300Y-17567300D01*
X426135300Y-17567300D02*
X426991600Y-18423600D01*
X426991600Y-18423600D02*
X429989900Y-18423600D01*
X429989900Y-18423600D02*
X436351100Y-12062400D01*
X424960000Y-17200000D02*
X426135300Y-17200000D01*
X191660000Y-8000000D02*
X190234700Y-8000000D01*
X167540000Y-6880000D02*
X166175300Y-6880000D01*
X167540000Y-6880000D02*
X167540000Y-9420000D01*
X165000000Y-6880000D02*
X166175300Y-6880000D01*
X167540000Y-9420000D02*
X167540000Y-11960000D01*
G04 #@! TO.N,-12V*
X173880000Y-18000000D02*
X173880000Y-9694700D01*
X173880000Y-9694700D02*
X170302000Y-6116700D01*
G04 #@! TO.N,/cv_bus1/1.2.leds.out*
X254320400Y-14327500D02*
X253074100Y-13081200D01*
X253074100Y-13081200D02*
X244882000Y-13081200D01*
X244882000Y-13081200D02*
X244507300Y-13455900D01*
X244507300Y-13455900D02*
X226972100Y-13455900D01*
X226972100Y-13455900D02*
X226135300Y-14292700D01*
X226135300Y-14292700D02*
X226135300Y-14660000D01*
X224960000Y-14660000D02*
X226135300Y-14660000D01*
G04 #@! TO.N,/cv_bus2/2.1.leds.out*
X54460000Y-14660000D02*
X55635300Y-14660000D01*
X69729600Y-9340100D02*
X61680100Y-9340100D01*
X61680100Y-9340100D02*
X57535500Y-13484700D01*
X57535500Y-13484700D02*
X56443200Y-13484700D01*
X56443200Y-13484700D02*
X55635300Y-14292600D01*
X55635300Y-14292600D02*
X55635300Y-14660000D01*
G04 #@! TO.N,/cv_bus2/2.2.leds.out*
X276135300Y-14660000D02*
X276135300Y-14292600D01*
X276135300Y-14292600D02*
X276943200Y-13484700D01*
X276943200Y-13484700D02*
X291039400Y-13484700D01*
X291039400Y-13484700D02*
X291674100Y-12850000D01*
X274960000Y-14660000D02*
X276135300Y-14660000D01*
G04 #@! TO.N,/cv_bus1/1.2.leds.in*
X246818800Y-13806500D02*
X245965300Y-14660000D01*
X245965300Y-14660000D02*
X228675300Y-14660000D01*
X227500000Y-14660000D02*
X228675300Y-14660000D01*
G04 #@! TO.N,/cv_bus1/1.2.out.3*
X226135300Y-12120000D02*
X226135300Y-11752600D01*
X226135300Y-11752600D02*
X226943200Y-10944700D01*
X226943200Y-10944700D02*
X256466900Y-10944700D01*
X256466900Y-10944700D02*
X262153800Y-5257800D01*
X262153800Y-5257800D02*
X267632300Y-5257800D01*
X267632300Y-5257800D02*
X267920500Y-5546000D01*
X224960000Y-12120000D02*
X226135300Y-12120000D01*
G04 #@! TO.N,/cv_bus1/1.2.out.2*
X228675300Y-12120000D02*
X257208600Y-12120000D01*
X257208600Y-12120000D02*
X263345400Y-5983200D01*
X227500000Y-12120000D02*
X228675300Y-12120000D01*
G04 #@! TO.N,/cv_bus1/1.2.out.1*
X224960000Y-9580000D02*
X226135300Y-9580000D01*
X226135300Y-9580000D02*
X226135300Y-9212600D01*
X226135300Y-9212600D02*
X226943200Y-8404700D01*
X226943200Y-8404700D02*
X249068200Y-8404700D01*
X249068200Y-8404700D02*
X251940900Y-5532000D01*
X251940900Y-5532000D02*
X260711200Y-5532000D01*
G04 #@! TO.N,/cv_bus1/sel.1.2.out*
X227500000Y-9580000D02*
X228675300Y-9580000D01*
X251671100Y-6867100D02*
X248958200Y-9580000D01*
X248958200Y-9580000D02*
X228675300Y-9580000D01*
G04 #@! TO.N,/cv_bus1/bus1.out*
X226135300Y-7040000D02*
X226135300Y-6672700D01*
X226135300Y-6672700D02*
X226962000Y-5846000D01*
X226962000Y-5846000D02*
X228846000Y-5846000D01*
X228846000Y-5846000D02*
X230255200Y-7255200D01*
X230255200Y-7255200D02*
X248559400Y-7255200D01*
X248559400Y-7255200D02*
X251017100Y-4797500D01*
X251017100Y-4797500D02*
X271055100Y-4797500D01*
X271055100Y-4797500D02*
X274509600Y-8252000D01*
X274509600Y-8252000D02*
X296251400Y-8252000D01*
X296251400Y-8252000D02*
X301630100Y-2873300D01*
X301630100Y-2873300D02*
X343472800Y-2873300D01*
X343472800Y-2873300D02*
X346419000Y-5819500D01*
X346419000Y-5819500D02*
X347766300Y-5819500D01*
X347766300Y-5819500D02*
X349375500Y-4210300D01*
X349375500Y-4210300D02*
X370955000Y-4210300D01*
X370955000Y-4210300D02*
X373784700Y-7040000D01*
X224960000Y-7040000D02*
X217242000Y-7040000D01*
X217242000Y-7040000D02*
X215324600Y-8957400D01*
X215324600Y-8957400D02*
X215324600Y-10989600D01*
X215324600Y-10989600D02*
X215510400Y-11175400D01*
X215510400Y-11175400D02*
X216859600Y-11175400D01*
X216859600Y-11175400D02*
X217675400Y-11991200D01*
X217675400Y-11991200D02*
X217675400Y-13067900D01*
X217675400Y-13067900D02*
X216759100Y-13984200D01*
X216759100Y-13984200D02*
X215349100Y-13984200D01*
X215349100Y-13984200D02*
X215115900Y-14217400D01*
X215115900Y-14217400D02*
X195775500Y-14217400D01*
X195775500Y-14217400D02*
X192622200Y-11064100D01*
X192622200Y-11064100D02*
X188140600Y-11064100D01*
X188140600Y-11064100D02*
X185231800Y-13972900D01*
X185231800Y-13972900D02*
X180240900Y-13972900D01*
X180240900Y-13972900D02*
X177443300Y-11175300D01*
X177443300Y-11175300D02*
X176500000Y-11175300D01*
X176500000Y-10000000D02*
X176500000Y-11175300D01*
X175912400Y-10000000D02*
X176500000Y-10000000D01*
X175912400Y-10000000D02*
X175324700Y-10000000D01*
X4460000Y-7040000D02*
X3258700Y-8241300D01*
X3258700Y-8241300D02*
X3258700Y-12581200D01*
X3258700Y-12581200D02*
X4162100Y-13484600D01*
X4162100Y-13484600D02*
X4985600Y-13484600D01*
X4985600Y-13484600D02*
X5730000Y-14229000D01*
X5730000Y-14229000D02*
X5730000Y-15054800D01*
X5730000Y-15054800D02*
X6528300Y-15853100D01*
X6528300Y-15853100D02*
X18119900Y-15853100D01*
X18119900Y-15853100D02*
X21136600Y-18869800D01*
X21136600Y-18869800D02*
X142984100Y-18869800D01*
X142984100Y-18869800D02*
X156223700Y-5630200D01*
X156223700Y-5630200D02*
X168715400Y-5630200D01*
X168715400Y-5630200D02*
X168981200Y-5364400D01*
X168981200Y-5364400D02*
X170689100Y-5364400D01*
X170689100Y-5364400D02*
X175324700Y-10000000D01*
X224960000Y-7040000D02*
X226135300Y-7040000D01*
X374960000Y-7040000D02*
X373784700Y-7040000D01*
G04 #@! TO.N,/cv_bus1/solo1.2.in*
X227500000Y-4500000D02*
X228675300Y-4500000D01*
X228675300Y-4500000D02*
X230700300Y-6525000D01*
X230700300Y-6525000D02*
X248197600Y-6525000D01*
G04 #@! TO.N,/cv_bus1/bus1.1.in*
X7000000Y-7040000D02*
X8175300Y-7040000D01*
X8175300Y-7040000D02*
X9429600Y-5785700D01*
X9429600Y-5785700D02*
X37009400Y-5785700D01*
X37009400Y-5785700D02*
X37319800Y-6096100D01*
G04 #@! TO.N,/cv_bus1/sel.1.1.out*
X7000000Y-9580000D02*
X8175300Y-9580000D01*
X8175300Y-9580000D02*
X11240400Y-6514900D01*
X11240400Y-6514900D02*
X24413300Y-6514900D01*
G04 #@! TO.N,/cv_bus1/1.1.out.1*
X4460000Y-9580000D02*
X4460000Y-8404700D01*
X4460000Y-8404700D02*
X4827400Y-8404700D01*
X4827400Y-8404700D02*
X5635300Y-7596800D01*
X5635300Y-7596800D02*
X5635300Y-6732700D01*
X5635300Y-6732700D02*
X6692600Y-5675400D01*
X6692600Y-5675400D02*
X8774600Y-5675400D01*
X8774600Y-5675400D02*
X9975000Y-4475000D01*
X9975000Y-4475000D02*
X38406900Y-4475000D01*
G04 #@! TO.N,/cv_bus1/1.1.out.2*
X7000000Y-12120000D02*
X10715400Y-12120000D01*
X10715400Y-12120000D02*
X15144800Y-7690600D01*
X15144800Y-7690600D02*
X39976300Y-7690600D01*
X39976300Y-7690600D02*
X39976300Y-7690500D01*
X39976300Y-7690500D02*
X43191800Y-4475000D01*
G04 #@! TO.N,/cv_bus1/1.1.out.3*
X4460000Y-12120000D02*
X5635300Y-12120000D01*
X5635300Y-12120000D02*
X5635300Y-11752600D01*
X5635300Y-11752600D02*
X6443200Y-10944700D01*
X6443200Y-10944700D02*
X10882000Y-10944700D01*
X10882000Y-10944700D02*
X14586500Y-7240200D01*
X14586500Y-7240200D02*
X39398800Y-7240200D01*
X39398800Y-7240200D02*
X42915400Y-3723600D01*
X42915400Y-3723600D02*
X46110200Y-3723600D01*
X46110200Y-3723600D02*
X46861600Y-4475000D01*
G04 #@! TO.N,/cv_bus1/1.1.leds.in*
X7000000Y-14660000D02*
X8175300Y-14660000D01*
X20580500Y-8419000D02*
X15229700Y-8419000D01*
X15229700Y-8419000D02*
X8988800Y-14659900D01*
X8988800Y-14659900D02*
X8175300Y-14659900D01*
X8175300Y-14659900D02*
X8175300Y-14660000D01*
G04 #@! TO.N,/cv_bus1/1.3.out.3*
X376135300Y-12120000D02*
X376135300Y-11752600D01*
X376135300Y-11752600D02*
X376943200Y-10944700D01*
X376943200Y-10944700D02*
X378035500Y-10944700D01*
X378035500Y-10944700D02*
X381884200Y-7096000D01*
X381884200Y-7096000D02*
X408645700Y-7096000D01*
X408645700Y-7096000D02*
X411266700Y-4475000D01*
X411266700Y-4475000D02*
X416535400Y-4475000D01*
X374960000Y-12120000D02*
X376135300Y-12120000D01*
G04 #@! TO.N,/cv_bus1/1.3.out.2*
X378675300Y-12120000D02*
X382798900Y-7996400D01*
X382798900Y-7996400D02*
X410198900Y-7996400D01*
X410198900Y-7996400D02*
X412841000Y-5354300D01*
X377500000Y-12120000D02*
X378675300Y-12120000D01*
G04 #@! TO.N,/cv_bus1/1.3.out.1*
X376135300Y-9580000D02*
X376135300Y-9212600D01*
X376135300Y-9212600D02*
X376943200Y-8404700D01*
X376943200Y-8404700D02*
X378035500Y-8404700D01*
X378035500Y-8404700D02*
X379794700Y-6645500D01*
X379794700Y-6645500D02*
X407238000Y-6645500D01*
X407238000Y-6645500D02*
X408807600Y-5075900D01*
X374960000Y-9580000D02*
X376135300Y-9580000D01*
G04 #@! TO.N,/cv_bus1/bus1.3.in*
X378675300Y-7040000D02*
X379905400Y-5809900D01*
X379905400Y-5809900D02*
X406782100Y-5809900D01*
X377500000Y-7040000D02*
X378675300Y-7040000D01*
G04 #@! TO.N,/cv_bus2/2.3.leds.in*
X428675300Y-14660000D02*
X434717600Y-8617700D01*
X434717600Y-8617700D02*
X441005600Y-8617700D01*
X441005600Y-8617700D02*
X441207000Y-8819100D01*
X427500000Y-14660000D02*
X428675300Y-14660000D01*
G04 #@! TO.N,/cv_bus2/2.3.out.3*
X426135300Y-12120000D02*
X426135300Y-11752600D01*
X426135300Y-11752600D02*
X426943200Y-10944700D01*
X426943200Y-10944700D02*
X430340300Y-10944700D01*
X430340300Y-10944700D02*
X433641800Y-7643200D01*
X433641800Y-7643200D02*
X459067200Y-7643200D01*
X459067200Y-7643200D02*
X462527600Y-4182800D01*
X462527600Y-4182800D02*
X466287200Y-4182800D01*
X466287200Y-4182800D02*
X466579400Y-4475000D01*
X424960000Y-12120000D02*
X426135300Y-12120000D01*
G04 #@! TO.N,/cv_bus2/2.3.out.2*
X427500000Y-12120000D02*
X430286900Y-12120000D01*
X430286900Y-12120000D02*
X434313200Y-8093700D01*
X434313200Y-8093700D02*
X459890500Y-8093700D01*
X459890500Y-8093700D02*
X463060700Y-4923500D01*
G04 #@! TO.N,/cv_bus2/2.3.out.1*
X426135300Y-9580000D02*
X426135300Y-9212600D01*
X426135300Y-9212600D02*
X426943200Y-8404700D01*
X426943200Y-8404700D02*
X429367800Y-8404700D01*
X429367800Y-8404700D02*
X431160600Y-6611900D01*
X431160600Y-6611900D02*
X451915300Y-6611900D01*
X451915300Y-6611900D02*
X454052200Y-4475000D01*
X454052200Y-4475000D02*
X457392300Y-4475000D01*
X424960000Y-9580000D02*
X426135300Y-9580000D01*
G04 #@! TO.N,/cv_bus2/sel.2.3.out*
X427500000Y-9580000D02*
X429051000Y-9580000D01*
X429051000Y-9580000D02*
X431568800Y-7062200D01*
X431568800Y-7062200D02*
X453967500Y-7062200D01*
X453967500Y-7062200D02*
X454169000Y-6860700D01*
G04 #@! TO.N,/cv_bus2/bus2.out*
X196500000Y-10000000D02*
X197675300Y-10000000D01*
X197675300Y-10000000D02*
X204350700Y-3324600D01*
X204350700Y-3324600D02*
X271244600Y-3324600D01*
X271244600Y-3324600D02*
X274960000Y-7040000D01*
X276135300Y-7040000D02*
X276135300Y-6672700D01*
X276135300Y-6672700D02*
X277063900Y-5744100D01*
X277063900Y-5744100D02*
X296740300Y-5744100D01*
X296740300Y-5744100D02*
X300066700Y-2417700D01*
X300066700Y-2417700D02*
X343654100Y-2417700D01*
X343654100Y-2417700D02*
X346605600Y-5369200D01*
X346605600Y-5369200D02*
X347579700Y-5369200D01*
X347579700Y-5369200D02*
X349664500Y-3284400D01*
X349664500Y-3284400D02*
X420029100Y-3284400D01*
X420029100Y-3284400D02*
X423784700Y-7040000D01*
X424960000Y-7040000D02*
X423784700Y-7040000D01*
X274960000Y-7040000D02*
X276135300Y-7040000D01*
G04 #@! TO.N,/cv_bus2/bus2.3.in*
X428675300Y-7040000D02*
X429858700Y-5856600D01*
X429858700Y-5856600D02*
X446995700Y-5856600D01*
X427500000Y-7040000D02*
X428675300Y-7040000D01*
G04 #@! TO.N,/cv_bus2/solo2.3.in*
X428675300Y-4500000D02*
X428935900Y-4760600D01*
X428935900Y-4760600D02*
X448780600Y-4760600D01*
X448780600Y-4760600D02*
X449881400Y-5861400D01*
X427500000Y-4500000D02*
X428675300Y-4500000D01*
G04 #@! TO.N,/cv_bus2/solo2.1.in*
X58175300Y-4500000D02*
X79378200Y-4500000D01*
X79378200Y-4500000D02*
X81181900Y-6303700D01*
X57000000Y-4500000D02*
X58175300Y-4500000D01*
G04 #@! TO.N,/cv_bus2/solo2.1.out*
X54460000Y-5675300D02*
X54092600Y-5675300D01*
X54092600Y-5675300D02*
X53284700Y-6483200D01*
X53284700Y-6483200D02*
X53284700Y-15197700D01*
X53284700Y-15197700D02*
X53925400Y-15838400D01*
X53925400Y-15838400D02*
X61188200Y-15838400D01*
X61188200Y-15838400D02*
X62414000Y-14612600D01*
X54460000Y-4500000D02*
X54460000Y-5675300D01*
G04 #@! TO.N,/cv_bus2/bus2.1.in*
X77404200Y-6303700D02*
X58911600Y-6303700D01*
X58911600Y-6303700D02*
X58175300Y-7040000D01*
X57000000Y-7040000D02*
X58175300Y-7040000D01*
G04 #@! TO.N,/cv_bus2/sel.2.1.out*
X84369000Y-7204300D02*
X84093900Y-7479400D01*
X84093900Y-7479400D02*
X60909000Y-7479400D01*
X60909000Y-7479400D02*
X58808400Y-9580000D01*
X58808400Y-9580000D02*
X58175300Y-9580000D01*
X57000000Y-9580000D02*
X58175300Y-9580000D01*
G04 #@! TO.N,/cv_bus2/2.1.out.1*
X89727800Y-4475000D02*
X85423900Y-4475000D01*
X85423900Y-4475000D02*
X82869900Y-7029000D01*
X82869900Y-7029000D02*
X60722500Y-7029000D01*
X60722500Y-7029000D02*
X59346800Y-8404700D01*
X59346800Y-8404700D02*
X56443200Y-8404700D01*
X56443200Y-8404700D02*
X55635300Y-9212600D01*
X55635300Y-9212600D02*
X55635300Y-9580000D01*
X54460000Y-9580000D02*
X55635300Y-9580000D01*
G04 #@! TO.N,/cv_bus2/2.1.out.2*
X93608200Y-4475000D02*
X89478000Y-8605200D01*
X89478000Y-8605200D02*
X61690100Y-8605200D01*
X61690100Y-8605200D02*
X58175300Y-12120000D01*
X57000000Y-12120000D02*
X58175300Y-12120000D01*
G04 #@! TO.N,/cv_bus2/2.1.out.3*
X55635300Y-12120000D02*
X55635300Y-11752600D01*
X55635300Y-11752600D02*
X56443200Y-10944700D01*
X56443200Y-10944700D02*
X58231000Y-10944700D01*
X58231000Y-10944700D02*
X61246000Y-7929700D01*
X61246000Y-7929700D02*
X86642200Y-7929700D01*
X86642200Y-7929700D02*
X89195600Y-5376300D01*
X54460000Y-12120000D02*
X55635300Y-12120000D01*
G04 #@! TO.N,/cv_bus2/2.2.out.3*
X276135300Y-12120000D02*
X276135300Y-11752600D01*
X276135300Y-11752600D02*
X276943200Y-10944700D01*
X276943200Y-10944700D02*
X304309900Y-10944700D01*
X304309900Y-10944700D02*
X311011500Y-4243100D01*
X311011500Y-4243100D02*
X316370400Y-4243100D01*
X316370400Y-4243100D02*
X316602300Y-4475000D01*
X274960000Y-12120000D02*
X276135300Y-12120000D01*
G04 #@! TO.N,/cv_bus2/2.2.out.2*
X312750000Y-4968400D02*
X305598400Y-12120000D01*
X305598400Y-12120000D02*
X278675300Y-12120000D01*
X277500000Y-12120000D02*
X278675300Y-12120000D01*
G04 #@! TO.N,/cv_bus2/sel.2.2.out*
X278675300Y-9580000D02*
X278914900Y-9819600D01*
X278914900Y-9819600D02*
X300876100Y-9819600D01*
X300876100Y-9819600D02*
X304170700Y-6525000D01*
X277500000Y-9580000D02*
X278675300Y-9580000D01*
G04 #@! TO.N,/cv_bus2/solo2.2.in*
X278675300Y-4500000D02*
X279151600Y-4976300D01*
X279151600Y-4976300D02*
X295093000Y-4976300D01*
X277500000Y-4500000D02*
X278675300Y-4500000D01*
G04 #@! TO.N,/cv_bus3/solo3.3.out*
X474960000Y-4500000D02*
X474960000Y-5675300D01*
X474960000Y-5675300D02*
X475327400Y-5675300D01*
X475327400Y-5675300D02*
X476135300Y-6483200D01*
X476135300Y-6483200D02*
X476135300Y-14996300D01*
X476135300Y-14996300D02*
X476975900Y-15836900D01*
X476975900Y-15836900D02*
X495234400Y-15836900D01*
X495234400Y-15836900D02*
X496450500Y-14620800D01*
G04 #@! TO.N,/cv_bus3/bus3.out*
X324960000Y-7040000D02*
X324960000Y-8215300D01*
X474960000Y-7040000D02*
X473784700Y-7040000D01*
X473784700Y-7040000D02*
X461924500Y-18900200D01*
X461924500Y-18900200D02*
X352799000Y-18900200D01*
X352799000Y-18900200D02*
X349734200Y-15835400D01*
X349734200Y-15835400D02*
X327010300Y-15835400D01*
X327010300Y-15835400D02*
X326135300Y-14960400D01*
X326135300Y-14960400D02*
X326135300Y-9023200D01*
X326135300Y-9023200D02*
X325327400Y-8215300D01*
X325327400Y-8215300D02*
X324960000Y-8215300D01*
X324960000Y-7040000D02*
X323784700Y-7040000D01*
X216500000Y-10000000D02*
X217675300Y-10000000D01*
X217675300Y-10000000D02*
X223552900Y-15877600D01*
X223552900Y-15877600D02*
X240631000Y-15877600D01*
X240631000Y-15877600D02*
X241108100Y-15400500D01*
X241108100Y-15400500D02*
X270153600Y-15400500D01*
X270153600Y-15400500D02*
X273131000Y-18377900D01*
X273131000Y-18377900D02*
X312446800Y-18377900D01*
X312446800Y-18377900D02*
X323784700Y-7040000D01*
G04 #@! TO.N,/cv_bus3/3.3.out.2*
X478675300Y-12120000D02*
X481437400Y-12120000D01*
X481437400Y-12120000D02*
X488520500Y-5036900D01*
X488520500Y-5036900D02*
X512395100Y-5036900D01*
X512395100Y-5036900D02*
X512750000Y-4682000D01*
X477500000Y-12120000D02*
X478675300Y-12120000D01*
G04 #@! TO.N,/cv_bus3/3.3.leds.in*
X478675300Y-14660000D02*
X482796800Y-14660000D01*
X482796800Y-14660000D02*
X491280700Y-6176100D01*
X477500000Y-14660000D02*
X478675300Y-14660000D01*
G04 #@! TO.N,/cv_bus3/3.2.leds.in*
X327500000Y-14660000D02*
X333672700Y-14660000D01*
X333672700Y-14660000D02*
X341463000Y-6869700D01*
G04 #@! TO.N,/cv_bus3/3.2.out.2*
X327500000Y-12120000D02*
X335509100Y-12120000D01*
X335509100Y-12120000D02*
X338247600Y-9381500D01*
X338247600Y-9381500D02*
X338247600Y-9020400D01*
X338247600Y-9020400D02*
X341131300Y-6136700D01*
X341131300Y-6136700D02*
X343980900Y-6136700D01*
X343980900Y-6136700D02*
X344571900Y-6727700D01*
X344571900Y-6727700D02*
X360842600Y-6727700D01*
X360842600Y-6727700D02*
X362126000Y-5444300D01*
G04 #@! TO.N,/cv_bus3/solo3.2.out*
X324960000Y-5675300D02*
X325327400Y-5675300D01*
X325327400Y-5675300D02*
X326135300Y-6483200D01*
X326135300Y-6483200D02*
X326135300Y-7359500D01*
X326135300Y-7359500D02*
X327052400Y-8276600D01*
X327052400Y-8276600D02*
X329918000Y-8276600D01*
X329918000Y-8276600D02*
X332369000Y-10727600D01*
X324960000Y-4500000D02*
X324960000Y-5675300D01*
G04 #@! TO.N,/cv_bus3/solo3.1.in*
X108175300Y-4500000D02*
X108917100Y-5241800D01*
X108917100Y-5241800D02*
X129896400Y-5241800D01*
X129896400Y-5241800D02*
X131179600Y-6525000D01*
X107000000Y-4500000D02*
X108175300Y-4500000D01*
G04 #@! TO.N,/cv_bus3/solo3.1.out*
X105635300Y-4500000D02*
X105635300Y-5308000D01*
X105635300Y-5308000D02*
X106161400Y-5834100D01*
X106161400Y-5834100D02*
X122046500Y-5834100D01*
X122046500Y-5834100D02*
X122519400Y-6307000D01*
X104460000Y-4500000D02*
X105635300Y-4500000D01*
G04 #@! TO.N,/cv_bus3/bus3.1.in*
X108175300Y-7040000D02*
X125224900Y-7040000D01*
X125224900Y-7040000D02*
X125739900Y-6525000D01*
X107000000Y-7040000D02*
X108175300Y-7040000D01*
G04 #@! TO.N,/cv_bus3/sel.3.1.out*
X107000000Y-9580000D02*
X108175300Y-9580000D01*
X134686900Y-6925700D02*
X132032600Y-9580000D01*
X132032600Y-9580000D02*
X108175300Y-9580000D01*
G04 #@! TO.N,/cv_bus3/3.1.out.1*
X104460000Y-9580000D02*
X105635300Y-9580000D01*
X105635300Y-9580000D02*
X105635300Y-9212600D01*
X105635300Y-9212600D02*
X106443200Y-8404700D01*
X106443200Y-8404700D02*
X131828800Y-8404700D01*
X131828800Y-8404700D02*
X135758500Y-4475000D01*
X135758500Y-4475000D02*
X140160300Y-4475000D01*
G04 #@! TO.N,/cv_bus3/3.1.out.3*
X104460000Y-12120000D02*
X105635300Y-12120000D01*
X143910400Y-5444300D02*
X138410000Y-10944700D01*
X138410000Y-10944700D02*
X106443200Y-10944700D01*
X106443200Y-10944700D02*
X105635300Y-11752600D01*
X105635300Y-11752600D02*
X105635300Y-12120000D01*
G04 #@! TO.N,/cv_bus2/rv2.out*
X196500000Y-11364700D02*
X195692000Y-11364700D01*
X195692000Y-11364700D02*
X195298800Y-10971500D01*
X195298800Y-10971500D02*
X195298800Y-8983200D01*
X195298800Y-8983200D02*
X201473600Y-2808400D01*
X201473600Y-2808400D02*
X297073300Y-2808400D01*
X297073300Y-2808400D02*
X297630100Y-3365200D01*
X297630100Y-3365200D02*
X299035500Y-1959800D01*
X299035500Y-1959800D02*
X343833100Y-1959800D01*
X343833100Y-1959800D02*
X346792200Y-4918900D01*
X346792200Y-4918900D02*
X347393100Y-4918900D01*
X347393100Y-4918900D02*
X349556200Y-2755800D01*
X349556200Y-2755800D02*
X445869200Y-2755800D01*
X445869200Y-2755800D02*
X447148700Y-4035300D01*
X196500000Y-12540000D02*
X196500000Y-11364700D01*
G04 #@! TO.N,/cv_bus3/rv3.out*
X347092600Y-4193600D02*
X344401600Y-1502600D01*
X344401600Y-1502600D02*
X201004700Y-1502600D01*
X201004700Y-1502600D02*
X194093000Y-8414300D01*
X194093000Y-8414300D02*
X194093000Y-11809700D01*
X194093000Y-11809700D02*
X196050300Y-13767000D01*
X196050300Y-13767000D02*
X214097700Y-13767000D01*
X214097700Y-13767000D02*
X215324700Y-12540000D01*
X130328600Y-4293300D02*
X134224700Y-397200D01*
X134224700Y-397200D02*
X186075900Y-397200D01*
X186075900Y-397200D02*
X194093000Y-8414300D01*
X497162800Y-4294300D02*
X495173900Y-2305400D01*
X495173900Y-2305400D02*
X348980800Y-2305400D01*
X348980800Y-2305400D02*
X347092600Y-4193600D01*
X216500000Y-12540000D02*
X215324700Y-12540000D01*
X114397800Y-3929100D02*
X114762000Y-4293300D01*
X114762000Y-4293300D02*
X130328600Y-4293300D01*
G04 #@! TO.N,Net-(R2.1.feedback.1-Pad1)*
X90859000Y-8281800D02*
X87725900Y-11414900D01*
X87725900Y-11414900D02*
X85110100Y-11414900D01*
X85110100Y-11414900D02*
X80567000Y-15958000D01*
X80567000Y-15958000D02*
X76629000Y-12020000D01*
X76629000Y-12020000D02*
X64892500Y-12020000D01*
X64892500Y-12020000D02*
X64860500Y-12052000D01*
G04 #@! TD*
D18*
G04 #@! TO.N,GND*
G36*
X130288799Y-3258300D02*
X130122726Y-3258300D01*
X129742320Y-3415869D01*
X129624889Y-3533300D01*
X115354130Y-3533300D01*
X115275231Y-3342820D01*
X114984080Y-3051669D01*
X114603674Y-2894100D01*
X114191926Y-2894100D01*
X113811520Y-3051669D01*
X113520369Y-3342820D01*
X113362800Y-3723226D01*
X113362800Y-4134974D01*
X113506460Y-4481800D01*
X109231902Y-4481800D01*
X108765631Y-4015530D01*
X108723229Y-3952071D01*
X108497440Y-3801203D01*
X108497440Y-3650000D01*
X108448157Y-3402235D01*
X108307809Y-3192191D01*
X108097765Y-3051843D01*
X107850000Y-3002560D01*
X106150000Y-3002560D01*
X105902235Y-3051843D01*
X105692191Y-3192191D01*
X105551843Y-3402235D01*
X105542816Y-3447619D01*
X105530625Y-3429375D01*
X105039418Y-3101161D01*
X104606256Y-3015000D01*
X104313744Y-3015000D01*
X103880582Y-3101161D01*
X103389375Y-3429375D01*
X103061161Y-3920582D01*
X102945908Y-4500000D01*
X103061161Y-5079418D01*
X103389375Y-5570625D01*
X103687761Y-5770000D01*
X103389375Y-5969375D01*
X103061161Y-6460582D01*
X102945908Y-7040000D01*
X103061161Y-7619418D01*
X103389375Y-8110625D01*
X103687761Y-8310000D01*
X103389375Y-8509375D01*
X103061161Y-9000582D01*
X102945908Y-9580000D01*
X103061161Y-10159418D01*
X103389375Y-10650625D01*
X103687761Y-10850000D01*
X103389375Y-11049375D01*
X103061161Y-11540582D01*
X102945908Y-12120000D01*
X103061161Y-12699418D01*
X103389375Y-13190625D01*
X103687761Y-13390000D01*
X103389375Y-13589375D01*
X103061161Y-14080582D01*
X102945908Y-14660000D01*
X103028536Y-15075400D01*
X82678347Y-15075400D01*
X82603500Y-15060512D01*
X82528653Y-15075400D01*
X82528648Y-15075400D01*
X82523347Y-15076454D01*
X85424902Y-12174900D01*
X87651053Y-12174900D01*
X87725900Y-12189788D01*
X87800747Y-12174900D01*
X87800752Y-12174900D01*
X88022437Y-12130804D01*
X88273829Y-11962829D01*
X88316231Y-11899370D01*
X90898802Y-9316800D01*
X91064874Y-9316800D01*
X91445280Y-9159231D01*
X91736431Y-8868080D01*
X91894000Y-8487674D01*
X91894000Y-8075926D01*
X91736431Y-7695520D01*
X91599456Y-7558545D01*
X93648002Y-5510000D01*
X93814074Y-5510000D01*
X94194480Y-5352431D01*
X94485631Y-5061280D01*
X94643200Y-4680874D01*
X94643200Y-4269126D01*
X94485631Y-3888720D01*
X94194480Y-3597569D01*
X93814074Y-3440000D01*
X93402326Y-3440000D01*
X93021920Y-3597569D01*
X92730769Y-3888720D01*
X92573200Y-4269126D01*
X92573200Y-4435198D01*
X89163199Y-7845200D01*
X87801501Y-7845200D01*
X89235402Y-6411300D01*
X89401474Y-6411300D01*
X89781880Y-6253731D01*
X90073031Y-5962580D01*
X90230600Y-5582174D01*
X90230600Y-5387009D01*
X90314080Y-5352431D01*
X90605231Y-5061280D01*
X90762800Y-4680874D01*
X90762800Y-4269126D01*
X90605231Y-3888720D01*
X90314080Y-3597569D01*
X89933674Y-3440000D01*
X89521926Y-3440000D01*
X89141520Y-3597569D01*
X89024089Y-3715000D01*
X85498746Y-3715000D01*
X85423899Y-3700112D01*
X85349052Y-3715000D01*
X85349048Y-3715000D01*
X85127363Y-3759096D01*
X85064802Y-3800898D01*
X84939426Y-3884671D01*
X84939424Y-3884673D01*
X84875971Y-3927071D01*
X84833573Y-3990524D01*
X82555099Y-6269000D01*
X82216900Y-6269000D01*
X82216900Y-6097826D01*
X82059331Y-5717420D01*
X81768180Y-5426269D01*
X81387774Y-5268700D01*
X81221702Y-5268700D01*
X79968531Y-4015530D01*
X79926129Y-3952071D01*
X79674737Y-3784096D01*
X79453052Y-3740000D01*
X79453047Y-3740000D01*
X79378200Y-3725112D01*
X79303353Y-3740000D01*
X58497440Y-3740000D01*
X58497440Y-3650000D01*
X58448157Y-3402235D01*
X58307809Y-3192191D01*
X58097765Y-3051843D01*
X57850000Y-3002560D01*
X56150000Y-3002560D01*
X55902235Y-3051843D01*
X55692191Y-3192191D01*
X55551843Y-3402235D01*
X55542816Y-3447619D01*
X55530625Y-3429375D01*
X55039418Y-3101161D01*
X54606256Y-3015000D01*
X54313744Y-3015000D01*
X53880582Y-3101161D01*
X53389375Y-3429375D01*
X53061161Y-3920582D01*
X52945908Y-4500000D01*
X53061161Y-5079418D01*
X53282469Y-5410629D01*
X52800230Y-5892869D01*
X52736771Y-5935271D01*
X52568796Y-6186664D01*
X52524700Y-6408349D01*
X52524700Y-6408353D01*
X52509812Y-6483200D01*
X52524700Y-6558047D01*
X52524701Y-15122848D01*
X52509812Y-15197700D01*
X52524701Y-15272552D01*
X52542360Y-15361328D01*
X52568797Y-15494237D01*
X52620604Y-15571771D01*
X52736772Y-15745629D01*
X52800228Y-15788029D01*
X53310855Y-16298657D01*
X53188355Y-16433076D01*
X53018524Y-16843110D01*
X53139845Y-17073000D01*
X54333000Y-17073000D01*
X54333000Y-17053000D01*
X54587000Y-17053000D01*
X54587000Y-17073000D01*
X54607000Y-17073000D01*
X54607000Y-17327000D01*
X54587000Y-17327000D01*
X54587000Y-17347000D01*
X54333000Y-17347000D01*
X54333000Y-17327000D01*
X53139845Y-17327000D01*
X53018524Y-17556890D01*
X53055681Y-17646600D01*
X23915202Y-17646600D01*
X18289300Y-12020699D01*
X18289300Y-11854626D01*
X18131731Y-11474220D01*
X17840580Y-11183069D01*
X17460174Y-11025500D01*
X17048426Y-11025500D01*
X16668020Y-11183069D01*
X16376869Y-11474220D01*
X16219300Y-11854626D01*
X16219300Y-12266374D01*
X16376869Y-12646780D01*
X16668020Y-12937931D01*
X17048426Y-13095500D01*
X17214499Y-13095500D01*
X22228798Y-18109800D01*
X21451402Y-18109800D01*
X18710231Y-15368630D01*
X18667829Y-15305171D01*
X18416437Y-15137196D01*
X18194752Y-15093100D01*
X18194747Y-15093100D01*
X18119900Y-15078212D01*
X18045053Y-15093100D01*
X9630401Y-15093100D01*
X15544503Y-9179000D01*
X19876789Y-9179000D01*
X19994220Y-9296431D01*
X20374626Y-9454000D01*
X20786374Y-9454000D01*
X21166780Y-9296431D01*
X21457931Y-9005280D01*
X21615500Y-8624874D01*
X21615500Y-8450600D01*
X39901448Y-8450600D01*
X39976300Y-8465489D01*
X40051152Y-8450600D01*
X40272837Y-8406504D01*
X40524229Y-8238529D01*
X40566832Y-8174769D01*
X43231602Y-5510000D01*
X43397674Y-5510000D01*
X43778080Y-5352431D01*
X44069231Y-5061280D01*
X44226800Y-4680874D01*
X44226800Y-4483600D01*
X45795399Y-4483600D01*
X45826600Y-4514801D01*
X45826600Y-4680874D01*
X45984169Y-5061280D01*
X46275320Y-5352431D01*
X46655726Y-5510000D01*
X47067474Y-5510000D01*
X47447880Y-5352431D01*
X47739031Y-5061280D01*
X47896600Y-4680874D01*
X47896600Y-4269126D01*
X47739031Y-3888720D01*
X47447880Y-3597569D01*
X47067474Y-3440000D01*
X46901401Y-3440000D01*
X46700531Y-3239130D01*
X46658129Y-3175671D01*
X46406737Y-3007696D01*
X46185052Y-2963600D01*
X46185047Y-2963600D01*
X46110200Y-2948712D01*
X46035353Y-2963600D01*
X42990246Y-2963600D01*
X42915399Y-2948712D01*
X42840552Y-2963600D01*
X42840548Y-2963600D01*
X42618863Y-3007696D01*
X42589729Y-3027163D01*
X42430926Y-3133271D01*
X42430924Y-3133273D01*
X42367471Y-3175671D01*
X42325073Y-3239124D01*
X39083999Y-6480200D01*
X38280977Y-6480200D01*
X38354800Y-6301974D01*
X38354800Y-5890226D01*
X38197231Y-5509820D01*
X38194855Y-5507444D01*
X38201026Y-5510000D01*
X38612774Y-5510000D01*
X38993180Y-5352431D01*
X39284331Y-5061280D01*
X39441900Y-4680874D01*
X39441900Y-4269126D01*
X39284331Y-3888720D01*
X38993180Y-3597569D01*
X38612774Y-3440000D01*
X38201026Y-3440000D01*
X37820620Y-3597569D01*
X37703189Y-3715000D01*
X10049847Y-3715000D01*
X9975000Y-3700112D01*
X9900153Y-3715000D01*
X9900148Y-3715000D01*
X9678463Y-3759096D01*
X9427071Y-3927071D01*
X9384671Y-3990527D01*
X8497440Y-4877759D01*
X8497440Y-3650000D01*
X8448157Y-3402235D01*
X8307809Y-3192191D01*
X8097765Y-3051843D01*
X7850000Y-3002560D01*
X6150000Y-3002560D01*
X5902235Y-3051843D01*
X5692191Y-3192191D01*
X5551843Y-3402235D01*
X5542816Y-3447619D01*
X5530625Y-3429375D01*
X5039418Y-3101161D01*
X4606256Y-3015000D01*
X4313744Y-3015000D01*
X3880582Y-3101161D01*
X3389375Y-3429375D01*
X3061161Y-3920582D01*
X2945908Y-4500000D01*
X3061161Y-5079418D01*
X3389375Y-5570625D01*
X3687761Y-5770000D01*
X3389375Y-5969375D01*
X3061161Y-6460582D01*
X2945908Y-7040000D01*
X3018791Y-7406408D01*
X2774230Y-7650969D01*
X2710771Y-7693371D01*
X2542796Y-7944764D01*
X2498700Y-8166449D01*
X2498700Y-8166453D01*
X2483812Y-8241300D01*
X2498700Y-8316147D01*
X2498701Y-12506348D01*
X2483812Y-12581200D01*
X2498701Y-12656052D01*
X2503666Y-12681012D01*
X2542797Y-12877737D01*
X2661825Y-13055874D01*
X2710772Y-13129129D01*
X2774228Y-13171529D01*
X3310347Y-13707649D01*
X3061161Y-14080582D01*
X2945908Y-14660000D01*
X3061161Y-15239418D01*
X3389375Y-15730625D01*
X3708478Y-15943843D01*
X3578642Y-16004817D01*
X3188355Y-16433076D01*
X3018524Y-16843110D01*
X3139845Y-17073000D01*
X4333000Y-17073000D01*
X4333000Y-17053000D01*
X4587000Y-17053000D01*
X4587000Y-17073000D01*
X4607000Y-17073000D01*
X4607000Y-17327000D01*
X4587000Y-17327000D01*
X4587000Y-18520819D01*
X4816892Y-18641486D01*
X5341358Y-18395183D01*
X5728647Y-17970214D01*
X5929375Y-18270625D01*
X6420582Y-18598839D01*
X6853744Y-18685000D01*
X7146256Y-18685000D01*
X7579418Y-18598839D01*
X8070625Y-18270625D01*
X8398839Y-17779418D01*
X8514092Y-17200000D01*
X8398839Y-16620582D01*
X8393840Y-16613100D01*
X17805099Y-16613100D01*
X20456998Y-19265000D01*
X735000Y-19265000D01*
X735000Y-17556890D01*
X3018524Y-17556890D01*
X3188355Y-17966924D01*
X3578642Y-18395183D01*
X4103108Y-18641486D01*
X4333000Y-18520819D01*
X4333000Y-17327000D01*
X3139845Y-17327000D01*
X3018524Y-17556890D01*
X735000Y-17556890D01*
X735000Y-735000D01*
X132812097Y-735000D01*
X130288799Y-3258300D01*
X130288799Y-3258300D01*
G37*
X130288799Y-3258300D02*
X130122726Y-3258300D01*
X129742320Y-3415869D01*
X129624889Y-3533300D01*
X115354130Y-3533300D01*
X115275231Y-3342820D01*
X114984080Y-3051669D01*
X114603674Y-2894100D01*
X114191926Y-2894100D01*
X113811520Y-3051669D01*
X113520369Y-3342820D01*
X113362800Y-3723226D01*
X113362800Y-4134974D01*
X113506460Y-4481800D01*
X109231902Y-4481800D01*
X108765631Y-4015530D01*
X108723229Y-3952071D01*
X108497440Y-3801203D01*
X108497440Y-3650000D01*
X108448157Y-3402235D01*
X108307809Y-3192191D01*
X108097765Y-3051843D01*
X107850000Y-3002560D01*
X106150000Y-3002560D01*
X105902235Y-3051843D01*
X105692191Y-3192191D01*
X105551843Y-3402235D01*
X105542816Y-3447619D01*
X105530625Y-3429375D01*
X105039418Y-3101161D01*
X104606256Y-3015000D01*
X104313744Y-3015000D01*
X103880582Y-3101161D01*
X103389375Y-3429375D01*
X103061161Y-3920582D01*
X102945908Y-4500000D01*
X103061161Y-5079418D01*
X103389375Y-5570625D01*
X103687761Y-5770000D01*
X103389375Y-5969375D01*
X103061161Y-6460582D01*
X102945908Y-7040000D01*
X103061161Y-7619418D01*
X103389375Y-8110625D01*
X103687761Y-8310000D01*
X103389375Y-8509375D01*
X103061161Y-9000582D01*
X102945908Y-9580000D01*
X103061161Y-10159418D01*
X103389375Y-10650625D01*
X103687761Y-10850000D01*
X103389375Y-11049375D01*
X103061161Y-11540582D01*
X102945908Y-12120000D01*
X103061161Y-12699418D01*
X103389375Y-13190625D01*
X103687761Y-13390000D01*
X103389375Y-13589375D01*
X103061161Y-14080582D01*
X102945908Y-14660000D01*
X103028536Y-15075400D01*
X82678347Y-15075400D01*
X82603500Y-15060512D01*
X82528653Y-15075400D01*
X82528648Y-15075400D01*
X82523347Y-15076454D01*
X85424902Y-12174900D01*
X87651053Y-12174900D01*
X87725900Y-12189788D01*
X87800747Y-12174900D01*
X87800752Y-12174900D01*
X88022437Y-12130804D01*
X88273829Y-11962829D01*
X88316231Y-11899370D01*
X90898802Y-9316800D01*
X91064874Y-9316800D01*
X91445280Y-9159231D01*
X91736431Y-8868080D01*
X91894000Y-8487674D01*
X91894000Y-8075926D01*
X91736431Y-7695520D01*
X91599456Y-7558545D01*
X93648002Y-5510000D01*
X93814074Y-5510000D01*
X94194480Y-5352431D01*
X94485631Y-5061280D01*
X94643200Y-4680874D01*
X94643200Y-4269126D01*
X94485631Y-3888720D01*
X94194480Y-3597569D01*
X93814074Y-3440000D01*
X93402326Y-3440000D01*
X93021920Y-3597569D01*
X92730769Y-3888720D01*
X92573200Y-4269126D01*
X92573200Y-4435198D01*
X89163199Y-7845200D01*
X87801501Y-7845200D01*
X89235402Y-6411300D01*
X89401474Y-6411300D01*
X89781880Y-6253731D01*
X90073031Y-5962580D01*
X90230600Y-5582174D01*
X90230600Y-5387009D01*
X90314080Y-5352431D01*
X90605231Y-5061280D01*
X90762800Y-4680874D01*
X90762800Y-4269126D01*
X90605231Y-3888720D01*
X90314080Y-3597569D01*
X89933674Y-3440000D01*
X89521926Y-3440000D01*
X89141520Y-3597569D01*
X89024089Y-3715000D01*
X85498746Y-3715000D01*
X85423899Y-3700112D01*
X85349052Y-3715000D01*
X85349048Y-3715000D01*
X85127363Y-3759096D01*
X85064802Y-3800898D01*
X84939426Y-3884671D01*
X84939424Y-3884673D01*
X84875971Y-3927071D01*
X84833573Y-3990524D01*
X82555099Y-6269000D01*
X82216900Y-6269000D01*
X82216900Y-6097826D01*
X82059331Y-5717420D01*
X81768180Y-5426269D01*
X81387774Y-5268700D01*
X81221702Y-5268700D01*
X79968531Y-4015530D01*
X79926129Y-3952071D01*
X79674737Y-3784096D01*
X79453052Y-3740000D01*
X79453047Y-3740000D01*
X79378200Y-3725112D01*
X79303353Y-3740000D01*
X58497440Y-3740000D01*
X58497440Y-3650000D01*
X58448157Y-3402235D01*
X58307809Y-3192191D01*
X58097765Y-3051843D01*
X57850000Y-3002560D01*
X56150000Y-3002560D01*
X55902235Y-3051843D01*
X55692191Y-3192191D01*
X55551843Y-3402235D01*
X55542816Y-3447619D01*
X55530625Y-3429375D01*
X55039418Y-3101161D01*
X54606256Y-3015000D01*
X54313744Y-3015000D01*
X53880582Y-3101161D01*
X53389375Y-3429375D01*
X53061161Y-3920582D01*
X52945908Y-4500000D01*
X53061161Y-5079418D01*
X53282469Y-5410629D01*
X52800230Y-5892869D01*
X52736771Y-5935271D01*
X52568796Y-6186664D01*
X52524700Y-6408349D01*
X52524700Y-6408353D01*
X52509812Y-6483200D01*
X52524700Y-6558047D01*
X52524701Y-15122848D01*
X52509812Y-15197700D01*
X52524701Y-15272552D01*
X52542360Y-15361328D01*
X52568797Y-15494237D01*
X52620604Y-15571771D01*
X52736772Y-15745629D01*
X52800228Y-15788029D01*
X53310855Y-16298657D01*
X53188355Y-16433076D01*
X53018524Y-16843110D01*
X53139845Y-17073000D01*
X54333000Y-17073000D01*
X54333000Y-17053000D01*
X54587000Y-17053000D01*
X54587000Y-17073000D01*
X54607000Y-17073000D01*
X54607000Y-17327000D01*
X54587000Y-17327000D01*
X54587000Y-17347000D01*
X54333000Y-17347000D01*
X54333000Y-17327000D01*
X53139845Y-17327000D01*
X53018524Y-17556890D01*
X53055681Y-17646600D01*
X23915202Y-17646600D01*
X18289300Y-12020699D01*
X18289300Y-11854626D01*
X18131731Y-11474220D01*
X17840580Y-11183069D01*
X17460174Y-11025500D01*
X17048426Y-11025500D01*
X16668020Y-11183069D01*
X16376869Y-11474220D01*
X16219300Y-11854626D01*
X16219300Y-12266374D01*
X16376869Y-12646780D01*
X16668020Y-12937931D01*
X17048426Y-13095500D01*
X17214499Y-13095500D01*
X22228798Y-18109800D01*
X21451402Y-18109800D01*
X18710231Y-15368630D01*
X18667829Y-15305171D01*
X18416437Y-15137196D01*
X18194752Y-15093100D01*
X18194747Y-15093100D01*
X18119900Y-15078212D01*
X18045053Y-15093100D01*
X9630401Y-15093100D01*
X15544503Y-9179000D01*
X19876789Y-9179000D01*
X19994220Y-9296431D01*
X20374626Y-9454000D01*
X20786374Y-9454000D01*
X21166780Y-9296431D01*
X21457931Y-9005280D01*
X21615500Y-8624874D01*
X21615500Y-8450600D01*
X39901448Y-8450600D01*
X39976300Y-8465489D01*
X40051152Y-8450600D01*
X40272837Y-8406504D01*
X40524229Y-8238529D01*
X40566832Y-8174769D01*
X43231602Y-5510000D01*
X43397674Y-5510000D01*
X43778080Y-5352431D01*
X44069231Y-5061280D01*
X44226800Y-4680874D01*
X44226800Y-4483600D01*
X45795399Y-4483600D01*
X45826600Y-4514801D01*
X45826600Y-4680874D01*
X45984169Y-5061280D01*
X46275320Y-5352431D01*
X46655726Y-5510000D01*
X47067474Y-5510000D01*
X47447880Y-5352431D01*
X47739031Y-5061280D01*
X47896600Y-4680874D01*
X47896600Y-4269126D01*
X47739031Y-3888720D01*
X47447880Y-3597569D01*
X47067474Y-3440000D01*
X46901401Y-3440000D01*
X46700531Y-3239130D01*
X46658129Y-3175671D01*
X46406737Y-3007696D01*
X46185052Y-2963600D01*
X46185047Y-2963600D01*
X46110200Y-2948712D01*
X46035353Y-2963600D01*
X42990246Y-2963600D01*
X42915399Y-2948712D01*
X42840552Y-2963600D01*
X42840548Y-2963600D01*
X42618863Y-3007696D01*
X42589729Y-3027163D01*
X42430926Y-3133271D01*
X42430924Y-3133273D01*
X42367471Y-3175671D01*
X42325073Y-3239124D01*
X39083999Y-6480200D01*
X38280977Y-6480200D01*
X38354800Y-6301974D01*
X38354800Y-5890226D01*
X38197231Y-5509820D01*
X38194855Y-5507444D01*
X38201026Y-5510000D01*
X38612774Y-5510000D01*
X38993180Y-5352431D01*
X39284331Y-5061280D01*
X39441900Y-4680874D01*
X39441900Y-4269126D01*
X39284331Y-3888720D01*
X38993180Y-3597569D01*
X38612774Y-3440000D01*
X38201026Y-3440000D01*
X37820620Y-3597569D01*
X37703189Y-3715000D01*
X10049847Y-3715000D01*
X9975000Y-3700112D01*
X9900153Y-3715000D01*
X9900148Y-3715000D01*
X9678463Y-3759096D01*
X9427071Y-3927071D01*
X9384671Y-3990527D01*
X8497440Y-4877759D01*
X8497440Y-3650000D01*
X8448157Y-3402235D01*
X8307809Y-3192191D01*
X8097765Y-3051843D01*
X7850000Y-3002560D01*
X6150000Y-3002560D01*
X5902235Y-3051843D01*
X5692191Y-3192191D01*
X5551843Y-3402235D01*
X5542816Y-3447619D01*
X5530625Y-3429375D01*
X5039418Y-3101161D01*
X4606256Y-3015000D01*
X4313744Y-3015000D01*
X3880582Y-3101161D01*
X3389375Y-3429375D01*
X3061161Y-3920582D01*
X2945908Y-4500000D01*
X3061161Y-5079418D01*
X3389375Y-5570625D01*
X3687761Y-5770000D01*
X3389375Y-5969375D01*
X3061161Y-6460582D01*
X2945908Y-7040000D01*
X3018791Y-7406408D01*
X2774230Y-7650969D01*
X2710771Y-7693371D01*
X2542796Y-7944764D01*
X2498700Y-8166449D01*
X2498700Y-8166453D01*
X2483812Y-8241300D01*
X2498700Y-8316147D01*
X2498701Y-12506348D01*
X2483812Y-12581200D01*
X2498701Y-12656052D01*
X2503666Y-12681012D01*
X2542797Y-12877737D01*
X2661825Y-13055874D01*
X2710772Y-13129129D01*
X2774228Y-13171529D01*
X3310347Y-13707649D01*
X3061161Y-14080582D01*
X2945908Y-14660000D01*
X3061161Y-15239418D01*
X3389375Y-15730625D01*
X3708478Y-15943843D01*
X3578642Y-16004817D01*
X3188355Y-16433076D01*
X3018524Y-16843110D01*
X3139845Y-17073000D01*
X4333000Y-17073000D01*
X4333000Y-17053000D01*
X4587000Y-17053000D01*
X4587000Y-17073000D01*
X4607000Y-17073000D01*
X4607000Y-17327000D01*
X4587000Y-17327000D01*
X4587000Y-18520819D01*
X4816892Y-18641486D01*
X5341358Y-18395183D01*
X5728647Y-17970214D01*
X5929375Y-18270625D01*
X6420582Y-18598839D01*
X6853744Y-18685000D01*
X7146256Y-18685000D01*
X7579418Y-18598839D01*
X8070625Y-18270625D01*
X8398839Y-17779418D01*
X8514092Y-17200000D01*
X8398839Y-16620582D01*
X8393840Y-16613100D01*
X17805099Y-16613100D01*
X20456998Y-19265000D01*
X735000Y-19265000D01*
X735000Y-17556890D01*
X3018524Y-17556890D01*
X3188355Y-17966924D01*
X3578642Y-18395183D01*
X4103108Y-18641486D01*
X4333000Y-18520819D01*
X4333000Y-17327000D01*
X3139845Y-17327000D01*
X3018524Y-17556890D01*
X735000Y-17556890D01*
X735000Y-735000D01*
X132812097Y-735000D01*
X130288799Y-3258300D01*
G36*
X525265000Y-19265000D02*
X462634501Y-19265000D01*
X464342611Y-17556890D01*
X473518524Y-17556890D01*
X473688355Y-17966924D01*
X474078642Y-18395183D01*
X474603108Y-18641486D01*
X474833000Y-18520819D01*
X474833000Y-17327000D01*
X473639845Y-17327000D01*
X473518524Y-17556890D01*
X464342611Y-17556890D01*
X473849121Y-8050381D01*
X473889375Y-8110625D01*
X474187761Y-8310000D01*
X473889375Y-8509375D01*
X473561161Y-9000582D01*
X473445908Y-9580000D01*
X473561161Y-10159418D01*
X473889375Y-10650625D01*
X474187761Y-10850000D01*
X473889375Y-11049375D01*
X473561161Y-11540582D01*
X473445908Y-12120000D01*
X473561161Y-12699418D01*
X473889375Y-13190625D01*
X474187761Y-13390000D01*
X473889375Y-13589375D01*
X473561161Y-14080582D01*
X473445908Y-14660000D01*
X473561161Y-15239418D01*
X473889375Y-15730625D01*
X474208478Y-15943843D01*
X474078642Y-16004817D01*
X473688355Y-16433076D01*
X473518524Y-16843110D01*
X473639845Y-17073000D01*
X474833000Y-17073000D01*
X474833000Y-17053000D01*
X475087000Y-17053000D01*
X475087000Y-17073000D01*
X475107000Y-17073000D01*
X475107000Y-17327000D01*
X475087000Y-17327000D01*
X475087000Y-18520819D01*
X475316892Y-18641486D01*
X475841358Y-18395183D01*
X476228647Y-17970214D01*
X476429375Y-18270625D01*
X476920582Y-18598839D01*
X477353744Y-18685000D01*
X477646256Y-18685000D01*
X478079418Y-18598839D01*
X478570625Y-18270625D01*
X478898839Y-17779418D01*
X479014092Y-17200000D01*
X478898839Y-16620582D01*
X478883015Y-16596900D01*
X495159553Y-16596900D01*
X495234400Y-16611788D01*
X495309247Y-16596900D01*
X495309252Y-16596900D01*
X495530937Y-16552804D01*
X495782329Y-16384829D01*
X495824731Y-16321370D01*
X496490302Y-15655800D01*
X496656374Y-15655800D01*
X497036780Y-15498231D01*
X497327931Y-15207080D01*
X497485500Y-14826674D01*
X497485500Y-14414926D01*
X497327931Y-14034520D01*
X497036780Y-13743369D01*
X496656374Y-13585800D01*
X496244626Y-13585800D01*
X495864220Y-13743369D01*
X495573069Y-14034520D01*
X495415500Y-14414926D01*
X495415500Y-14580998D01*
X494919599Y-15076900D01*
X483454701Y-15076900D01*
X491320503Y-7211100D01*
X491486574Y-7211100D01*
X491866980Y-7053531D01*
X492158131Y-6762380D01*
X492315700Y-6381974D01*
X492315700Y-5970226D01*
X492243906Y-5796900D01*
X512320253Y-5796900D01*
X512395100Y-5811788D01*
X512469947Y-5796900D01*
X512469952Y-5796900D01*
X512691637Y-5752804D01*
X512745221Y-5717000D01*
X512955874Y-5717000D01*
X513336280Y-5559431D01*
X513627431Y-5268280D01*
X513785000Y-4887874D01*
X513785000Y-4476126D01*
X513627431Y-4095720D01*
X513336280Y-3804569D01*
X512955874Y-3647000D01*
X512544126Y-3647000D01*
X512163720Y-3804569D01*
X511872569Y-4095720D01*
X511797522Y-4276900D01*
X498197800Y-4276900D01*
X498197800Y-4088426D01*
X498040231Y-3708020D01*
X497749080Y-3416869D01*
X497368674Y-3259300D01*
X497202602Y-3259300D01*
X495764231Y-1820930D01*
X495721829Y-1757471D01*
X495470437Y-1589496D01*
X495248752Y-1545400D01*
X495248747Y-1545400D01*
X495173900Y-1530512D01*
X495099053Y-1545400D01*
X349055646Y-1545400D01*
X348980799Y-1530512D01*
X348905952Y-1545400D01*
X348905948Y-1545400D01*
X348684263Y-1589496D01*
X348432871Y-1757471D01*
X348390471Y-1820927D01*
X347092600Y-3118798D01*
X344991931Y-1018130D01*
X344949529Y-954671D01*
X344698137Y-786696D01*
X344476452Y-742600D01*
X344476447Y-742600D01*
X344438239Y-735000D01*
X525265001Y-735000D01*
X525265000Y-19265000D01*
X525265000Y-19265000D01*
G37*
X525265000Y-19265000D02*
X462634501Y-19265000D01*
X464342611Y-17556890D01*
X473518524Y-17556890D01*
X473688355Y-17966924D01*
X474078642Y-18395183D01*
X474603108Y-18641486D01*
X474833000Y-18520819D01*
X474833000Y-17327000D01*
X473639845Y-17327000D01*
X473518524Y-17556890D01*
X464342611Y-17556890D01*
X473849121Y-8050381D01*
X473889375Y-8110625D01*
X474187761Y-8310000D01*
X473889375Y-8509375D01*
X473561161Y-9000582D01*
X473445908Y-9580000D01*
X473561161Y-10159418D01*
X473889375Y-10650625D01*
X474187761Y-10850000D01*
X473889375Y-11049375D01*
X473561161Y-11540582D01*
X473445908Y-12120000D01*
X473561161Y-12699418D01*
X473889375Y-13190625D01*
X474187761Y-13390000D01*
X473889375Y-13589375D01*
X473561161Y-14080582D01*
X473445908Y-14660000D01*
X473561161Y-15239418D01*
X473889375Y-15730625D01*
X474208478Y-15943843D01*
X474078642Y-16004817D01*
X473688355Y-16433076D01*
X473518524Y-16843110D01*
X473639845Y-17073000D01*
X474833000Y-17073000D01*
X474833000Y-17053000D01*
X475087000Y-17053000D01*
X475087000Y-17073000D01*
X475107000Y-17073000D01*
X475107000Y-17327000D01*
X475087000Y-17327000D01*
X475087000Y-18520819D01*
X475316892Y-18641486D01*
X475841358Y-18395183D01*
X476228647Y-17970214D01*
X476429375Y-18270625D01*
X476920582Y-18598839D01*
X477353744Y-18685000D01*
X477646256Y-18685000D01*
X478079418Y-18598839D01*
X478570625Y-18270625D01*
X478898839Y-17779418D01*
X479014092Y-17200000D01*
X478898839Y-16620582D01*
X478883015Y-16596900D01*
X495159553Y-16596900D01*
X495234400Y-16611788D01*
X495309247Y-16596900D01*
X495309252Y-16596900D01*
X495530937Y-16552804D01*
X495782329Y-16384829D01*
X495824731Y-16321370D01*
X496490302Y-15655800D01*
X496656374Y-15655800D01*
X497036780Y-15498231D01*
X497327931Y-15207080D01*
X497485500Y-14826674D01*
X497485500Y-14414926D01*
X497327931Y-14034520D01*
X497036780Y-13743369D01*
X496656374Y-13585800D01*
X496244626Y-13585800D01*
X495864220Y-13743369D01*
X495573069Y-14034520D01*
X495415500Y-14414926D01*
X495415500Y-14580998D01*
X494919599Y-15076900D01*
X483454701Y-15076900D01*
X491320503Y-7211100D01*
X491486574Y-7211100D01*
X491866980Y-7053531D01*
X492158131Y-6762380D01*
X492315700Y-6381974D01*
X492315700Y-5970226D01*
X492243906Y-5796900D01*
X512320253Y-5796900D01*
X512395100Y-5811788D01*
X512469947Y-5796900D01*
X512469952Y-5796900D01*
X512691637Y-5752804D01*
X512745221Y-5717000D01*
X512955874Y-5717000D01*
X513336280Y-5559431D01*
X513627431Y-5268280D01*
X513785000Y-4887874D01*
X513785000Y-4476126D01*
X513627431Y-4095720D01*
X513336280Y-3804569D01*
X512955874Y-3647000D01*
X512544126Y-3647000D01*
X512163720Y-3804569D01*
X511872569Y-4095720D01*
X511797522Y-4276900D01*
X498197800Y-4276900D01*
X498197800Y-4088426D01*
X498040231Y-3708020D01*
X497749080Y-3416869D01*
X497368674Y-3259300D01*
X497202602Y-3259300D01*
X495764231Y-1820930D01*
X495721829Y-1757471D01*
X495470437Y-1589496D01*
X495248752Y-1545400D01*
X495248747Y-1545400D01*
X495173900Y-1530512D01*
X495099053Y-1545400D01*
X349055646Y-1545400D01*
X348980799Y-1530512D01*
X348905952Y-1545400D01*
X348905948Y-1545400D01*
X348684263Y-1589496D01*
X348432871Y-1757471D01*
X348390471Y-1820927D01*
X347092600Y-3118798D01*
X344991931Y-1018130D01*
X344949529Y-954671D01*
X344698137Y-786696D01*
X344476452Y-742600D01*
X344476447Y-742600D01*
X344438239Y-735000D01*
X525265001Y-735000D01*
X525265000Y-19265000D01*
G36*
X169267000Y-6322574D02*
X169424569Y-6702980D01*
X169715720Y-6994131D01*
X170096126Y-7151700D01*
X170262199Y-7151700D01*
X173120001Y-10009503D01*
X173120000Y-16761570D01*
X173067138Y-16783466D01*
X172663466Y-17187138D01*
X172608922Y-17318820D01*
X169305631Y-14015530D01*
X169263229Y-13952071D01*
X169011837Y-13784096D01*
X168822474Y-13746429D01*
X168610625Y-13429375D01*
X168291522Y-13216157D01*
X168421358Y-13155183D01*
X168811645Y-12726924D01*
X168981476Y-12316890D01*
X168860155Y-12087000D01*
X167667000Y-12087000D01*
X167667000Y-12107000D01*
X167413000Y-12107000D01*
X167413000Y-12087000D01*
X165127000Y-12087000D01*
X165127000Y-12107000D01*
X164873000Y-12107000D01*
X164873000Y-12087000D01*
X163679845Y-12087000D01*
X163558524Y-12316890D01*
X163728355Y-12726924D01*
X164005708Y-13031261D01*
X163902235Y-13051843D01*
X163692191Y-13192191D01*
X163551843Y-13402235D01*
X163502560Y-13650000D01*
X163502560Y-15350000D01*
X163551843Y-15597765D01*
X163692191Y-15807809D01*
X163902235Y-15948157D01*
X164150000Y-15997440D01*
X165850000Y-15997440D01*
X166097765Y-15948157D01*
X166307809Y-15807809D01*
X166448157Y-15597765D01*
X166457184Y-15552381D01*
X166469375Y-15570625D01*
X166960582Y-15898839D01*
X167393744Y-15985000D01*
X167686256Y-15985000D01*
X168119418Y-15898839D01*
X168610625Y-15570625D01*
X168650879Y-15510380D01*
X172405498Y-19265000D01*
X143663701Y-19265000D01*
X154041995Y-8886707D01*
X153765000Y-9555431D01*
X153765000Y-10444569D01*
X154105259Y-11266026D01*
X154733974Y-11894741D01*
X155555431Y-12235000D01*
X156444569Y-12235000D01*
X157266026Y-11894741D01*
X157894741Y-11266026D01*
X158235000Y-10444569D01*
X158235000Y-9776890D01*
X163558524Y-9776890D01*
X163728355Y-10186924D01*
X164118642Y-10615183D01*
X164277954Y-10690000D01*
X164118642Y-10764817D01*
X163728355Y-11193076D01*
X163558524Y-11603110D01*
X163679845Y-11833000D01*
X164873000Y-11833000D01*
X164873000Y-9547000D01*
X165127000Y-9547000D01*
X165127000Y-11833000D01*
X167413000Y-11833000D01*
X167413000Y-9547000D01*
X167667000Y-9547000D01*
X167667000Y-11833000D01*
X168860155Y-11833000D01*
X168981476Y-11603110D01*
X168811645Y-11193076D01*
X168421358Y-10764817D01*
X168262046Y-10690000D01*
X168421358Y-10615183D01*
X168811645Y-10186924D01*
X168981476Y-9776890D01*
X168860155Y-9547000D01*
X167667000Y-9547000D01*
X167413000Y-9547000D01*
X165127000Y-9547000D01*
X164873000Y-9547000D01*
X163679845Y-9547000D01*
X163558524Y-9776890D01*
X158235000Y-9776890D01*
X158235000Y-9555431D01*
X157894741Y-8733974D01*
X157266026Y-8105259D01*
X156444569Y-7765000D01*
X155555431Y-7765000D01*
X154886707Y-8041995D01*
X155691812Y-7236890D01*
X163558524Y-7236890D01*
X163728355Y-7646924D01*
X164118642Y-8075183D01*
X164277954Y-8150000D01*
X164118642Y-8224817D01*
X163728355Y-8653076D01*
X163558524Y-9063110D01*
X163679845Y-9293000D01*
X164873000Y-9293000D01*
X164873000Y-7007000D01*
X165127000Y-7007000D01*
X165127000Y-9293000D01*
X167413000Y-9293000D01*
X167413000Y-7007000D01*
X167667000Y-7007000D01*
X167667000Y-9293000D01*
X168860155Y-9293000D01*
X168981476Y-9063110D01*
X168811645Y-8653076D01*
X168421358Y-8224817D01*
X168262046Y-8150000D01*
X168421358Y-8075183D01*
X168811645Y-7646924D01*
X168981476Y-7236890D01*
X168860155Y-7007000D01*
X167667000Y-7007000D01*
X167413000Y-7007000D01*
X165127000Y-7007000D01*
X164873000Y-7007000D01*
X163679845Y-7007000D01*
X163558524Y-7236890D01*
X155691812Y-7236890D01*
X156538502Y-6390200D01*
X163613574Y-6390200D01*
X163558524Y-6523110D01*
X163679845Y-6753000D01*
X164873000Y-6753000D01*
X164873000Y-6733000D01*
X165127000Y-6733000D01*
X165127000Y-6753000D01*
X167413000Y-6753000D01*
X167413000Y-6733000D01*
X167667000Y-6733000D01*
X167667000Y-6753000D01*
X168860155Y-6753000D01*
X168981476Y-6523110D01*
X168916061Y-6365175D01*
X169011937Y-6346104D01*
X169263329Y-6178129D01*
X169267000Y-6172635D01*
X169267000Y-6322574D01*
X169267000Y-6322574D01*
G37*
X169267000Y-6322574D02*
X169424569Y-6702980D01*
X169715720Y-6994131D01*
X170096126Y-7151700D01*
X170262199Y-7151700D01*
X173120001Y-10009503D01*
X173120000Y-16761570D01*
X173067138Y-16783466D01*
X172663466Y-17187138D01*
X172608922Y-17318820D01*
X169305631Y-14015530D01*
X169263229Y-13952071D01*
X169011837Y-13784096D01*
X168822474Y-13746429D01*
X168610625Y-13429375D01*
X168291522Y-13216157D01*
X168421358Y-13155183D01*
X168811645Y-12726924D01*
X168981476Y-12316890D01*
X168860155Y-12087000D01*
X167667000Y-12087000D01*
X167667000Y-12107000D01*
X167413000Y-12107000D01*
X167413000Y-12087000D01*
X165127000Y-12087000D01*
X165127000Y-12107000D01*
X164873000Y-12107000D01*
X164873000Y-12087000D01*
X163679845Y-12087000D01*
X163558524Y-12316890D01*
X163728355Y-12726924D01*
X164005708Y-13031261D01*
X163902235Y-13051843D01*
X163692191Y-13192191D01*
X163551843Y-13402235D01*
X163502560Y-13650000D01*
X163502560Y-15350000D01*
X163551843Y-15597765D01*
X163692191Y-15807809D01*
X163902235Y-15948157D01*
X164150000Y-15997440D01*
X165850000Y-15997440D01*
X166097765Y-15948157D01*
X166307809Y-15807809D01*
X166448157Y-15597765D01*
X166457184Y-15552381D01*
X166469375Y-15570625D01*
X166960582Y-15898839D01*
X167393744Y-15985000D01*
X167686256Y-15985000D01*
X168119418Y-15898839D01*
X168610625Y-15570625D01*
X168650879Y-15510380D01*
X172405498Y-19265000D01*
X143663701Y-19265000D01*
X154041995Y-8886707D01*
X153765000Y-9555431D01*
X153765000Y-10444569D01*
X154105259Y-11266026D01*
X154733974Y-11894741D01*
X155555431Y-12235000D01*
X156444569Y-12235000D01*
X157266026Y-11894741D01*
X157894741Y-11266026D01*
X158235000Y-10444569D01*
X158235000Y-9776890D01*
X163558524Y-9776890D01*
X163728355Y-10186924D01*
X164118642Y-10615183D01*
X164277954Y-10690000D01*
X164118642Y-10764817D01*
X163728355Y-11193076D01*
X163558524Y-11603110D01*
X163679845Y-11833000D01*
X164873000Y-11833000D01*
X164873000Y-9547000D01*
X165127000Y-9547000D01*
X165127000Y-11833000D01*
X167413000Y-11833000D01*
X167413000Y-9547000D01*
X167667000Y-9547000D01*
X167667000Y-11833000D01*
X168860155Y-11833000D01*
X168981476Y-11603110D01*
X168811645Y-11193076D01*
X168421358Y-10764817D01*
X168262046Y-10690000D01*
X168421358Y-10615183D01*
X168811645Y-10186924D01*
X168981476Y-9776890D01*
X168860155Y-9547000D01*
X167667000Y-9547000D01*
X167413000Y-9547000D01*
X165127000Y-9547000D01*
X164873000Y-9547000D01*
X163679845Y-9547000D01*
X163558524Y-9776890D01*
X158235000Y-9776890D01*
X158235000Y-9555431D01*
X157894741Y-8733974D01*
X157266026Y-8105259D01*
X156444569Y-7765000D01*
X155555431Y-7765000D01*
X154886707Y-8041995D01*
X155691812Y-7236890D01*
X163558524Y-7236890D01*
X163728355Y-7646924D01*
X164118642Y-8075183D01*
X164277954Y-8150000D01*
X164118642Y-8224817D01*
X163728355Y-8653076D01*
X163558524Y-9063110D01*
X163679845Y-9293000D01*
X164873000Y-9293000D01*
X164873000Y-7007000D01*
X165127000Y-7007000D01*
X165127000Y-9293000D01*
X167413000Y-9293000D01*
X167413000Y-7007000D01*
X167667000Y-7007000D01*
X167667000Y-9293000D01*
X168860155Y-9293000D01*
X168981476Y-9063110D01*
X168811645Y-8653076D01*
X168421358Y-8224817D01*
X168262046Y-8150000D01*
X168421358Y-8075183D01*
X168811645Y-7646924D01*
X168981476Y-7236890D01*
X168860155Y-7007000D01*
X167667000Y-7007000D01*
X167413000Y-7007000D01*
X165127000Y-7007000D01*
X164873000Y-7007000D01*
X163679845Y-7007000D01*
X163558524Y-7236890D01*
X155691812Y-7236890D01*
X156538502Y-6390200D01*
X163613574Y-6390200D01*
X163558524Y-6523110D01*
X163679845Y-6753000D01*
X164873000Y-6753000D01*
X164873000Y-6733000D01*
X165127000Y-6733000D01*
X165127000Y-6753000D01*
X167413000Y-6753000D01*
X167413000Y-6733000D01*
X167667000Y-6733000D01*
X167667000Y-6753000D01*
X168860155Y-6753000D01*
X168981476Y-6523110D01*
X168916061Y-6365175D01*
X169011937Y-6346104D01*
X169263329Y-6178129D01*
X169267000Y-6172635D01*
X169267000Y-6322574D01*
G36*
X323889375Y-8110625D02*
X324187761Y-8310000D01*
X323889375Y-8509375D01*
X323561161Y-9000582D01*
X323445908Y-9580000D01*
X323561161Y-10159418D01*
X323889375Y-10650625D01*
X324187761Y-10850000D01*
X323889375Y-11049375D01*
X323561161Y-11540582D01*
X323445908Y-12120000D01*
X323561161Y-12699418D01*
X323889375Y-13190625D01*
X324187761Y-13390000D01*
X323889375Y-13589375D01*
X323561161Y-14080582D01*
X323445908Y-14660000D01*
X323561161Y-15239418D01*
X323889375Y-15730625D01*
X324208478Y-15943843D01*
X324078642Y-16004817D01*
X323688355Y-16433076D01*
X323518524Y-16843110D01*
X323639845Y-17073000D01*
X324833000Y-17073000D01*
X324833000Y-17053000D01*
X325087000Y-17053000D01*
X325087000Y-17073000D01*
X325107000Y-17073000D01*
X325107000Y-17327000D01*
X325087000Y-17327000D01*
X325087000Y-18520819D01*
X325316892Y-18641486D01*
X325841358Y-18395183D01*
X326228647Y-17970214D01*
X326429375Y-18270625D01*
X326920582Y-18598839D01*
X327353744Y-18685000D01*
X327646256Y-18685000D01*
X328079418Y-18598839D01*
X328570625Y-18270625D01*
X328898839Y-17779418D01*
X329014092Y-17200000D01*
X328898839Y-16620582D01*
X328882013Y-16595400D01*
X349419399Y-16595400D01*
X352088998Y-19265000D01*
X182189725Y-19265000D01*
X182534577Y-19034577D01*
X182720786Y-18755896D01*
X182921837Y-18715904D01*
X183173229Y-18547929D01*
X183215631Y-18484470D01*
X188440102Y-13260000D01*
X190081150Y-13260000D01*
X190409135Y-13750865D01*
X190983037Y-14134334D01*
X191489120Y-14235000D01*
X191830880Y-14235000D01*
X192336963Y-14134334D01*
X192910865Y-13750865D01*
X193294334Y-13176963D01*
X193355045Y-12871747D01*
X195185171Y-14701873D01*
X195227571Y-14765329D01*
X195478963Y-14933304D01*
X195700648Y-14977400D01*
X195700652Y-14977400D01*
X195775500Y-14992288D01*
X195850348Y-14977400D01*
X214640192Y-14977400D01*
X214772069Y-15295780D01*
X215063220Y-15586931D01*
X215443626Y-15744500D01*
X215609699Y-15744500D01*
X218728373Y-18863176D01*
X218770771Y-18926629D01*
X218834224Y-18969027D01*
X218834226Y-18969029D01*
X218875982Y-18996929D01*
X219022163Y-19094604D01*
X219243848Y-19138700D01*
X219243852Y-19138700D01*
X219318699Y-19153588D01*
X219393546Y-19138700D01*
X239124853Y-19138700D01*
X239199700Y-19153588D01*
X239274547Y-19138700D01*
X239274552Y-19138700D01*
X239496237Y-19094604D01*
X239747629Y-18926629D01*
X239790031Y-18863170D01*
X241456102Y-17197100D01*
X241622174Y-17197100D01*
X242002580Y-17039531D01*
X242293731Y-16748380D01*
X242451300Y-16367974D01*
X242451300Y-16160500D01*
X269838799Y-16160500D01*
X272540673Y-18862376D01*
X272583071Y-18925829D01*
X272646524Y-18968227D01*
X272646526Y-18968229D01*
X272771902Y-19052002D01*
X272834463Y-19093804D01*
X273056148Y-19137900D01*
X273056152Y-19137900D01*
X273130999Y-19152788D01*
X273205846Y-19137900D01*
X312371953Y-19137900D01*
X312446800Y-19152788D01*
X312521647Y-19137900D01*
X312521652Y-19137900D01*
X312743337Y-19093804D01*
X312994729Y-18925829D01*
X313037131Y-18862370D01*
X314342611Y-17556890D01*
X323518524Y-17556890D01*
X323688355Y-17966924D01*
X324078642Y-18395183D01*
X324603108Y-18641486D01*
X324833000Y-18520819D01*
X324833000Y-17327000D01*
X323639845Y-17327000D01*
X323518524Y-17556890D01*
X314342611Y-17556890D01*
X323849121Y-8050381D01*
X323889375Y-8110625D01*
X323889375Y-8110625D01*
G37*
X323889375Y-8110625D02*
X324187761Y-8310000D01*
X323889375Y-8509375D01*
X323561161Y-9000582D01*
X323445908Y-9580000D01*
X323561161Y-10159418D01*
X323889375Y-10650625D01*
X324187761Y-10850000D01*
X323889375Y-11049375D01*
X323561161Y-11540582D01*
X323445908Y-12120000D01*
X323561161Y-12699418D01*
X323889375Y-13190625D01*
X324187761Y-13390000D01*
X323889375Y-13589375D01*
X323561161Y-14080582D01*
X323445908Y-14660000D01*
X323561161Y-15239418D01*
X323889375Y-15730625D01*
X324208478Y-15943843D01*
X324078642Y-16004817D01*
X323688355Y-16433076D01*
X323518524Y-16843110D01*
X323639845Y-17073000D01*
X324833000Y-17073000D01*
X324833000Y-17053000D01*
X325087000Y-17053000D01*
X325087000Y-17073000D01*
X325107000Y-17073000D01*
X325107000Y-17327000D01*
X325087000Y-17327000D01*
X325087000Y-18520819D01*
X325316892Y-18641486D01*
X325841358Y-18395183D01*
X326228647Y-17970214D01*
X326429375Y-18270625D01*
X326920582Y-18598839D01*
X327353744Y-18685000D01*
X327646256Y-18685000D01*
X328079418Y-18598839D01*
X328570625Y-18270625D01*
X328898839Y-17779418D01*
X329014092Y-17200000D01*
X328898839Y-16620582D01*
X328882013Y-16595400D01*
X349419399Y-16595400D01*
X352088998Y-19265000D01*
X182189725Y-19265000D01*
X182534577Y-19034577D01*
X182720786Y-18755896D01*
X182921837Y-18715904D01*
X183173229Y-18547929D01*
X183215631Y-18484470D01*
X188440102Y-13260000D01*
X190081150Y-13260000D01*
X190409135Y-13750865D01*
X190983037Y-14134334D01*
X191489120Y-14235000D01*
X191830880Y-14235000D01*
X192336963Y-14134334D01*
X192910865Y-13750865D01*
X193294334Y-13176963D01*
X193355045Y-12871747D01*
X195185171Y-14701873D01*
X195227571Y-14765329D01*
X195478963Y-14933304D01*
X195700648Y-14977400D01*
X195700652Y-14977400D01*
X195775500Y-14992288D01*
X195850348Y-14977400D01*
X214640192Y-14977400D01*
X214772069Y-15295780D01*
X215063220Y-15586931D01*
X215443626Y-15744500D01*
X215609699Y-15744500D01*
X218728373Y-18863176D01*
X218770771Y-18926629D01*
X218834224Y-18969027D01*
X218834226Y-18969029D01*
X218875982Y-18996929D01*
X219022163Y-19094604D01*
X219243848Y-19138700D01*
X219243852Y-19138700D01*
X219318699Y-19153588D01*
X219393546Y-19138700D01*
X239124853Y-19138700D01*
X239199700Y-19153588D01*
X239274547Y-19138700D01*
X239274552Y-19138700D01*
X239496237Y-19094604D01*
X239747629Y-18926629D01*
X239790031Y-18863170D01*
X241456102Y-17197100D01*
X241622174Y-17197100D01*
X242002580Y-17039531D01*
X242293731Y-16748380D01*
X242451300Y-16367974D01*
X242451300Y-16160500D01*
X269838799Y-16160500D01*
X272540673Y-18862376D01*
X272583071Y-18925829D01*
X272646524Y-18968227D01*
X272646526Y-18968229D01*
X272771902Y-19052002D01*
X272834463Y-19093804D01*
X273056148Y-19137900D01*
X273056152Y-19137900D01*
X273130999Y-19152788D01*
X273205846Y-19137900D01*
X312371953Y-19137900D01*
X312446800Y-19152788D01*
X312521647Y-19137900D01*
X312521652Y-19137900D01*
X312743337Y-19093804D01*
X312994729Y-18925829D01*
X313037131Y-18862370D01*
X314342611Y-17556890D01*
X323518524Y-17556890D01*
X323688355Y-17966924D01*
X324078642Y-18395183D01*
X324603108Y-18641486D01*
X324833000Y-18520819D01*
X324833000Y-17327000D01*
X323639845Y-17327000D01*
X323518524Y-17556890D01*
X314342611Y-17556890D01*
X323849121Y-8050381D01*
X323889375Y-8110625D01*
G36*
X392921171Y-16330273D02*
X392963571Y-16393729D01*
X393214963Y-16561704D01*
X393436648Y-16605800D01*
X393436652Y-16605800D01*
X393511499Y-16620688D01*
X393586346Y-16605800D01*
X423616815Y-16605800D01*
X423518524Y-16843110D01*
X423639845Y-17073000D01*
X424833000Y-17073000D01*
X424833000Y-17053000D01*
X425087000Y-17053000D01*
X425087000Y-17073000D01*
X425107000Y-17073000D01*
X425107000Y-17327000D01*
X425087000Y-17327000D01*
X425087000Y-17347000D01*
X424833000Y-17347000D01*
X424833000Y-17327000D01*
X423639845Y-17327000D01*
X423518524Y-17556890D01*
X423688355Y-17966924D01*
X423846267Y-18140200D01*
X378657772Y-18140200D01*
X378898839Y-17779418D01*
X379014092Y-17200000D01*
X378898839Y-16620582D01*
X378570625Y-16129375D01*
X378272239Y-15930000D01*
X378570625Y-15730625D01*
X378898839Y-15239418D01*
X379014092Y-14660000D01*
X378898839Y-14080582D01*
X378888628Y-14065300D01*
X384054753Y-14065300D01*
X384129600Y-14080188D01*
X384204447Y-14065300D01*
X384204452Y-14065300D01*
X384426137Y-14021204D01*
X384677529Y-13853229D01*
X384719931Y-13789770D01*
X387550300Y-10959401D01*
X392921171Y-16330273D01*
X392921171Y-16330273D01*
G37*
X392921171Y-16330273D02*
X392963571Y-16393729D01*
X393214963Y-16561704D01*
X393436648Y-16605800D01*
X393436652Y-16605800D01*
X393511499Y-16620688D01*
X393586346Y-16605800D01*
X423616815Y-16605800D01*
X423518524Y-16843110D01*
X423639845Y-17073000D01*
X424833000Y-17073000D01*
X424833000Y-17053000D01*
X425087000Y-17053000D01*
X425087000Y-17073000D01*
X425107000Y-17073000D01*
X425107000Y-17327000D01*
X425087000Y-17327000D01*
X425087000Y-17347000D01*
X424833000Y-17347000D01*
X424833000Y-17327000D01*
X423639845Y-17327000D01*
X423518524Y-17556890D01*
X423688355Y-17966924D01*
X423846267Y-18140200D01*
X378657772Y-18140200D01*
X378898839Y-17779418D01*
X379014092Y-17200000D01*
X378898839Y-16620582D01*
X378570625Y-16129375D01*
X378272239Y-15930000D01*
X378570625Y-15730625D01*
X378898839Y-15239418D01*
X379014092Y-14660000D01*
X378898839Y-14080582D01*
X378888628Y-14065300D01*
X384054753Y-14065300D01*
X384129600Y-14080188D01*
X384204447Y-14065300D01*
X384204452Y-14065300D01*
X384426137Y-14021204D01*
X384677529Y-13853229D01*
X384719931Y-13789770D01*
X387550300Y-10959401D01*
X392921171Y-16330273D01*
G36*
X371878371Y-13789773D02*
X371920771Y-13853229D01*
X372172163Y-14021204D01*
X372393848Y-14065300D01*
X372393852Y-14065300D01*
X372468699Y-14080188D01*
X372543546Y-14065300D01*
X373571372Y-14065300D01*
X373561161Y-14080582D01*
X373445908Y-14660000D01*
X373561161Y-15239418D01*
X373889375Y-15730625D01*
X374208478Y-15943843D01*
X374078642Y-16004817D01*
X373688355Y-16433076D01*
X373518524Y-16843110D01*
X373639845Y-17073000D01*
X374833000Y-17073000D01*
X374833000Y-17053000D01*
X375087000Y-17053000D01*
X375087000Y-17073000D01*
X375107000Y-17073000D01*
X375107000Y-17327000D01*
X375087000Y-17327000D01*
X375087000Y-17347000D01*
X374833000Y-17347000D01*
X374833000Y-17327000D01*
X373639845Y-17327000D01*
X373518524Y-17556890D01*
X373688355Y-17966924D01*
X373846267Y-18140200D01*
X353113802Y-18140200D01*
X350324531Y-15350930D01*
X350282129Y-15287471D01*
X350030737Y-15119496D01*
X349809052Y-15075400D01*
X349809047Y-15075400D01*
X349734200Y-15060512D01*
X349659353Y-15075400D01*
X334332101Y-15075400D01*
X341502802Y-7904700D01*
X341668874Y-7904700D01*
X342049280Y-7747131D01*
X342340431Y-7455980D01*
X342498000Y-7075574D01*
X342498000Y-6896700D01*
X343666099Y-6896700D01*
X343981571Y-7212173D01*
X344023971Y-7275629D01*
X344275363Y-7443604D01*
X344497048Y-7487700D01*
X344497052Y-7487700D01*
X344571899Y-7502588D01*
X344646746Y-7487700D01*
X360767753Y-7487700D01*
X360842600Y-7502588D01*
X360917447Y-7487700D01*
X360917452Y-7487700D01*
X361139137Y-7443604D01*
X361390529Y-7275629D01*
X361432931Y-7212170D01*
X362165802Y-6479300D01*
X362331874Y-6479300D01*
X362712280Y-6321731D01*
X363003431Y-6030580D01*
X363161000Y-5650174D01*
X363161000Y-5444300D01*
X363532899Y-5444300D01*
X371878371Y-13789773D01*
X371878371Y-13789773D01*
G37*
X371878371Y-13789773D02*
X371920771Y-13853229D01*
X372172163Y-14021204D01*
X372393848Y-14065300D01*
X372393852Y-14065300D01*
X372468699Y-14080188D01*
X372543546Y-14065300D01*
X373571372Y-14065300D01*
X373561161Y-14080582D01*
X373445908Y-14660000D01*
X373561161Y-15239418D01*
X373889375Y-15730625D01*
X374208478Y-15943843D01*
X374078642Y-16004817D01*
X373688355Y-16433076D01*
X373518524Y-16843110D01*
X373639845Y-17073000D01*
X374833000Y-17073000D01*
X374833000Y-17053000D01*
X375087000Y-17053000D01*
X375087000Y-17073000D01*
X375107000Y-17073000D01*
X375107000Y-17327000D01*
X375087000Y-17327000D01*
X375087000Y-17347000D01*
X374833000Y-17347000D01*
X374833000Y-17327000D01*
X373639845Y-17327000D01*
X373518524Y-17556890D01*
X373688355Y-17966924D01*
X373846267Y-18140200D01*
X353113802Y-18140200D01*
X350324531Y-15350930D01*
X350282129Y-15287471D01*
X350030737Y-15119496D01*
X349809052Y-15075400D01*
X349809047Y-15075400D01*
X349734200Y-15060512D01*
X349659353Y-15075400D01*
X334332101Y-15075400D01*
X341502802Y-7904700D01*
X341668874Y-7904700D01*
X342049280Y-7747131D01*
X342340431Y-7455980D01*
X342498000Y-7075574D01*
X342498000Y-6896700D01*
X343666099Y-6896700D01*
X343981571Y-7212173D01*
X344023971Y-7275629D01*
X344275363Y-7443604D01*
X344497048Y-7487700D01*
X344497052Y-7487700D01*
X344571899Y-7502588D01*
X344646746Y-7487700D01*
X360767753Y-7487700D01*
X360842600Y-7502588D01*
X360917447Y-7487700D01*
X360917452Y-7487700D01*
X361139137Y-7443604D01*
X361390529Y-7275629D01*
X361432931Y-7212170D01*
X362165802Y-6479300D01*
X362331874Y-6479300D01*
X362712280Y-6321731D01*
X363003431Y-6030580D01*
X363161000Y-5650174D01*
X363161000Y-5444300D01*
X363532899Y-5444300D01*
X371878371Y-13789773D01*
G36*
X473445908Y-4500000D02*
X473561161Y-5079418D01*
X473889375Y-5570625D01*
X474187761Y-5770000D01*
X473889375Y-5969375D01*
X473677526Y-6286429D01*
X473543464Y-6313096D01*
X473488162Y-6324096D01*
X473327926Y-6431163D01*
X473236771Y-6492071D01*
X473194372Y-6555526D01*
X461609699Y-18140200D01*
X428657772Y-18140200D01*
X428898839Y-17779418D01*
X429014092Y-17200000D01*
X428898839Y-16620582D01*
X428888962Y-16605800D01*
X430576853Y-16605800D01*
X430651700Y-16620688D01*
X430726547Y-16605800D01*
X430726552Y-16605800D01*
X430948237Y-16561704D01*
X431199629Y-16393729D01*
X431242031Y-16330270D01*
X437191502Y-10380800D01*
X437357574Y-10380800D01*
X437530432Y-10309200D01*
X465026253Y-10309200D01*
X465101100Y-10324088D01*
X465175947Y-10309200D01*
X465175952Y-10309200D01*
X465397637Y-10265104D01*
X465649029Y-10097129D01*
X465691431Y-10033670D01*
X471640502Y-4084600D01*
X473528536Y-4084600D01*
X473445908Y-4500000D01*
X473445908Y-4500000D01*
G37*
X473445908Y-4500000D02*
X473561161Y-5079418D01*
X473889375Y-5570625D01*
X474187761Y-5770000D01*
X473889375Y-5969375D01*
X473677526Y-6286429D01*
X473543464Y-6313096D01*
X473488162Y-6324096D01*
X473327926Y-6431163D01*
X473236771Y-6492071D01*
X473194372Y-6555526D01*
X461609699Y-18140200D01*
X428657772Y-18140200D01*
X428898839Y-17779418D01*
X429014092Y-17200000D01*
X428898839Y-16620582D01*
X428888962Y-16605800D01*
X430576853Y-16605800D01*
X430651700Y-16620688D01*
X430726547Y-16605800D01*
X430726552Y-16605800D01*
X430948237Y-16561704D01*
X431199629Y-16393729D01*
X431242031Y-16330270D01*
X437191502Y-10380800D01*
X437357574Y-10380800D01*
X437530432Y-10309200D01*
X465026253Y-10309200D01*
X465101100Y-10324088D01*
X465175947Y-10309200D01*
X465175952Y-10309200D01*
X465397637Y-10265104D01*
X465649029Y-10097129D01*
X465691431Y-10033670D01*
X471640502Y-4084600D01*
X473528536Y-4084600D01*
X473445908Y-4500000D01*
G36*
X69727371Y-17197273D02*
X69769771Y-17260729D01*
X69833227Y-17303129D01*
X70021162Y-17428704D01*
X70069305Y-17438280D01*
X70242848Y-17472800D01*
X70242852Y-17472800D01*
X70317700Y-17487688D01*
X70392548Y-17472800D01*
X81651253Y-17472800D01*
X81726100Y-17487688D01*
X81800947Y-17472800D01*
X81800952Y-17472800D01*
X82022637Y-17428704D01*
X82274029Y-17260729D01*
X82316431Y-17197270D01*
X82918302Y-16595400D01*
X103121122Y-16595400D01*
X103018524Y-16843110D01*
X103139845Y-17073000D01*
X104333000Y-17073000D01*
X104333000Y-17053000D01*
X104587000Y-17053000D01*
X104587000Y-17073000D01*
X104607000Y-17073000D01*
X104607000Y-17327000D01*
X104587000Y-17327000D01*
X104587000Y-17347000D01*
X104333000Y-17347000D01*
X104333000Y-17327000D01*
X103139845Y-17327000D01*
X103018524Y-17556890D01*
X103188355Y-17966924D01*
X103318563Y-18109800D01*
X62120101Y-18109800D01*
X66380000Y-13849902D01*
X69727371Y-17197273D01*
X69727371Y-17197273D01*
G37*
X69727371Y-17197273D02*
X69769771Y-17260729D01*
X69833227Y-17303129D01*
X70021162Y-17428704D01*
X70069305Y-17438280D01*
X70242848Y-17472800D01*
X70242852Y-17472800D01*
X70317700Y-17487688D01*
X70392548Y-17472800D01*
X81651253Y-17472800D01*
X81726100Y-17487688D01*
X81800947Y-17472800D01*
X81800952Y-17472800D01*
X82022637Y-17428704D01*
X82274029Y-17260729D01*
X82316431Y-17197270D01*
X82918302Y-16595400D01*
X103121122Y-16595400D01*
X103018524Y-16843110D01*
X103139845Y-17073000D01*
X104333000Y-17073000D01*
X104333000Y-17053000D01*
X104587000Y-17053000D01*
X104587000Y-17073000D01*
X104607000Y-17073000D01*
X104607000Y-17327000D01*
X104587000Y-17327000D01*
X104587000Y-17347000D01*
X104333000Y-17347000D01*
X104333000Y-17327000D01*
X103139845Y-17327000D01*
X103018524Y-17556890D01*
X103188355Y-17966924D01*
X103318563Y-18109800D01*
X62120101Y-18109800D01*
X66380000Y-13849902D01*
X69727371Y-17197273D01*
G36*
X222962571Y-16362073D02*
X223004971Y-16425529D01*
X223256363Y-16593504D01*
X223478048Y-16637600D01*
X223478052Y-16637600D01*
X223552900Y-16652488D01*
X223601480Y-16642825D01*
X223518524Y-16843110D01*
X223639845Y-17073000D01*
X224833000Y-17073000D01*
X224833000Y-17053000D01*
X225087000Y-17053000D01*
X225087000Y-17073000D01*
X225107000Y-17073000D01*
X225107000Y-17327000D01*
X225087000Y-17327000D01*
X225087000Y-17347000D01*
X224833000Y-17347000D01*
X224833000Y-17327000D01*
X223639845Y-17327000D01*
X223518524Y-17556890D01*
X223544125Y-17618700D01*
X219633503Y-17618700D01*
X216771436Y-14756634D01*
X216833947Y-14744200D01*
X216833952Y-14744200D01*
X217055637Y-14700104D01*
X217307029Y-14532129D01*
X217349431Y-14468670D01*
X218159873Y-13658229D01*
X218223329Y-13615829D01*
X218391304Y-13364437D01*
X218435400Y-13142752D01*
X218435400Y-13142747D01*
X218450288Y-13067900D01*
X218435400Y-12993053D01*
X218435400Y-12066046D01*
X218450288Y-11991199D01*
X218435400Y-11916352D01*
X218435400Y-11916348D01*
X218415176Y-11814678D01*
X222962571Y-16362073D01*
X222962571Y-16362073D01*
G37*
X222962571Y-16362073D02*
X223004971Y-16425529D01*
X223256363Y-16593504D01*
X223478048Y-16637600D01*
X223478052Y-16637600D01*
X223552900Y-16652488D01*
X223601480Y-16642825D01*
X223518524Y-16843110D01*
X223639845Y-17073000D01*
X224833000Y-17073000D01*
X224833000Y-17053000D01*
X225087000Y-17053000D01*
X225087000Y-17073000D01*
X225107000Y-17073000D01*
X225107000Y-17327000D01*
X225087000Y-17327000D01*
X225087000Y-17347000D01*
X224833000Y-17347000D01*
X224833000Y-17327000D01*
X223639845Y-17327000D01*
X223518524Y-17556890D01*
X223544125Y-17618700D01*
X219633503Y-17618700D01*
X216771436Y-14756634D01*
X216833947Y-14744200D01*
X216833952Y-14744200D01*
X217055637Y-14700104D01*
X217307029Y-14532129D01*
X217349431Y-14468670D01*
X218159873Y-13658229D01*
X218223329Y-13615829D01*
X218391304Y-13364437D01*
X218435400Y-13142752D01*
X218435400Y-13142747D01*
X218450288Y-13067900D01*
X218435400Y-12993053D01*
X218435400Y-12066046D01*
X218450288Y-11991199D01*
X218435400Y-11916352D01*
X218435400Y-11916348D01*
X218415176Y-11814678D01*
X222962571Y-16362073D01*
G36*
X273810387Y-8627589D02*
X273561161Y-9000582D01*
X273445908Y-9580000D01*
X273561161Y-10159418D01*
X273889375Y-10650625D01*
X274187761Y-10850000D01*
X273889375Y-11049375D01*
X273561161Y-11540582D01*
X273445908Y-12120000D01*
X273561161Y-12699418D01*
X273889375Y-13190625D01*
X274187761Y-13390000D01*
X273889375Y-13589375D01*
X273561161Y-14080582D01*
X273445908Y-14660000D01*
X273561161Y-15239418D01*
X273889375Y-15730625D01*
X274208478Y-15943843D01*
X274078642Y-16004817D01*
X273688355Y-16433076D01*
X273518524Y-16843110D01*
X273639845Y-17073000D01*
X274833000Y-17073000D01*
X274833000Y-17053000D01*
X275087000Y-17053000D01*
X275087000Y-17073000D01*
X275107000Y-17073000D01*
X275107000Y-17327000D01*
X275087000Y-17327000D01*
X275087000Y-17347000D01*
X274833000Y-17347000D01*
X274833000Y-17327000D01*
X273639845Y-17327000D01*
X273518524Y-17556890D01*
X273543794Y-17617900D01*
X273445803Y-17617900D01*
X270743931Y-14916030D01*
X270701529Y-14852571D01*
X270450137Y-14684596D01*
X270228452Y-14640500D01*
X270228447Y-14640500D01*
X270153600Y-14625612D01*
X270078753Y-14640500D01*
X255311027Y-14640500D01*
X255355400Y-14533374D01*
X255355400Y-14121626D01*
X255197831Y-13741220D01*
X254906680Y-13450069D01*
X254526274Y-13292500D01*
X254360202Y-13292500D01*
X253947702Y-12880000D01*
X257133753Y-12880000D01*
X257208600Y-12894888D01*
X257283447Y-12880000D01*
X257283452Y-12880000D01*
X257505137Y-12835904D01*
X257756529Y-12667929D01*
X257798931Y-12604470D01*
X263385202Y-7018200D01*
X263551274Y-7018200D01*
X263931680Y-6860631D01*
X264222831Y-6569480D01*
X264380400Y-6189074D01*
X264380400Y-6017800D01*
X266995650Y-6017800D01*
X267043069Y-6132280D01*
X267334220Y-6423431D01*
X267714626Y-6581000D01*
X268126374Y-6581000D01*
X268506780Y-6423431D01*
X268797931Y-6132280D01*
X268955500Y-5751874D01*
X268955500Y-5557500D01*
X270740299Y-5557500D01*
X273810387Y-8627589D01*
X273810387Y-8627589D01*
G37*
X273810387Y-8627589D02*
X273561161Y-9000582D01*
X273445908Y-9580000D01*
X273561161Y-10159418D01*
X273889375Y-10650625D01*
X274187761Y-10850000D01*
X273889375Y-11049375D01*
X273561161Y-11540582D01*
X273445908Y-12120000D01*
X273561161Y-12699418D01*
X273889375Y-13190625D01*
X274187761Y-13390000D01*
X273889375Y-13589375D01*
X273561161Y-14080582D01*
X273445908Y-14660000D01*
X273561161Y-15239418D01*
X273889375Y-15730625D01*
X274208478Y-15943843D01*
X274078642Y-16004817D01*
X273688355Y-16433076D01*
X273518524Y-16843110D01*
X273639845Y-17073000D01*
X274833000Y-17073000D01*
X274833000Y-17053000D01*
X275087000Y-17053000D01*
X275087000Y-17073000D01*
X275107000Y-17073000D01*
X275107000Y-17327000D01*
X275087000Y-17327000D01*
X275087000Y-17347000D01*
X274833000Y-17347000D01*
X274833000Y-17327000D01*
X273639845Y-17327000D01*
X273518524Y-17556890D01*
X273543794Y-17617900D01*
X273445803Y-17617900D01*
X270743931Y-14916030D01*
X270701529Y-14852571D01*
X270450137Y-14684596D01*
X270228452Y-14640500D01*
X270228447Y-14640500D01*
X270153600Y-14625612D01*
X270078753Y-14640500D01*
X255311027Y-14640500D01*
X255355400Y-14533374D01*
X255355400Y-14121626D01*
X255197831Y-13741220D01*
X254906680Y-13450069D01*
X254526274Y-13292500D01*
X254360202Y-13292500D01*
X253947702Y-12880000D01*
X257133753Y-12880000D01*
X257208600Y-12894888D01*
X257283447Y-12880000D01*
X257283452Y-12880000D01*
X257505137Y-12835904D01*
X257756529Y-12667929D01*
X257798931Y-12604470D01*
X263385202Y-7018200D01*
X263551274Y-7018200D01*
X263931680Y-6860631D01*
X264222831Y-6569480D01*
X264380400Y-6189074D01*
X264380400Y-6017800D01*
X266995650Y-6017800D01*
X267043069Y-6132280D01*
X267334220Y-6423431D01*
X267714626Y-6581000D01*
X268126374Y-6581000D01*
X268506780Y-6423431D01*
X268797931Y-6132280D01*
X268955500Y-5751874D01*
X268955500Y-5557500D01*
X270740299Y-5557500D01*
X273810387Y-8627589D01*
G36*
X376429375Y-15730625D02*
X376727761Y-15930000D01*
X376429375Y-16129375D01*
X376228647Y-16429786D01*
X375841358Y-16004817D01*
X375711522Y-15943843D01*
X376030625Y-15730625D01*
X376230000Y-15432239D01*
X376429375Y-15730625D01*
X376429375Y-15730625D01*
G37*
X376429375Y-15730625D02*
X376727761Y-15930000D01*
X376429375Y-16129375D01*
X376228647Y-16429786D01*
X375841358Y-16004817D01*
X375711522Y-15943843D01*
X376030625Y-15730625D01*
X376230000Y-15432239D01*
X376429375Y-15730625D01*
G36*
X191023841Y-6419943D02*
X190647608Y-6590988D01*
X190185466Y-7085668D01*
X189970825Y-7603878D01*
X190088875Y-7873000D01*
X191533000Y-7873000D01*
X191533000Y-7853000D01*
X191787000Y-7853000D01*
X191787000Y-7873000D01*
X191807000Y-7873000D01*
X191807000Y-8127000D01*
X191787000Y-8127000D01*
X191787000Y-9571604D01*
X192056123Y-9689183D01*
X192672392Y-9409012D01*
X193134534Y-8914332D01*
X193246913Y-8643015D01*
X193333000Y-8729102D01*
X193333001Y-10700100D01*
X193212531Y-10579630D01*
X193170129Y-10516171D01*
X192918737Y-10348196D01*
X192697052Y-10304100D01*
X192697047Y-10304100D01*
X192622200Y-10289212D01*
X192547353Y-10304100D01*
X188215446Y-10304100D01*
X188140599Y-10289212D01*
X188065752Y-10304100D01*
X188065748Y-10304100D01*
X187844063Y-10348196D01*
X187781502Y-10389998D01*
X187656126Y-10473771D01*
X187656124Y-10473773D01*
X187592671Y-10516171D01*
X187550273Y-10579624D01*
X184916999Y-13212900D01*
X183235000Y-13212900D01*
X183235000Y-12785750D01*
X183076250Y-12627000D01*
X181627000Y-12627000D01*
X181627000Y-12647000D01*
X181373000Y-12647000D01*
X181373000Y-12627000D01*
X181353000Y-12627000D01*
X181353000Y-12373000D01*
X181373000Y-12373000D01*
X181373000Y-10923750D01*
X181627000Y-10923750D01*
X181627000Y-12373000D01*
X183076250Y-12373000D01*
X183235000Y-12214250D01*
X183235000Y-11273690D01*
X183138327Y-11040301D01*
X182959698Y-10861673D01*
X182726309Y-10765000D01*
X181785750Y-10765000D01*
X181627000Y-10923750D01*
X181373000Y-10923750D01*
X181214250Y-10765000D01*
X180273691Y-10765000D01*
X180040302Y-10861673D01*
X179861673Y-11040301D01*
X179765000Y-11273690D01*
X179765000Y-12214250D01*
X179923748Y-12372998D01*
X179765000Y-12372998D01*
X179765000Y-12422198D01*
X178033631Y-10690830D01*
X177997440Y-10636666D01*
X177997440Y-9150000D01*
X177948157Y-8902235D01*
X177807809Y-8692191D01*
X177597765Y-8551843D01*
X177350000Y-8502560D01*
X175650000Y-8502560D01*
X175402235Y-8551843D01*
X175192191Y-8692191D01*
X175151937Y-8752435D01*
X171279431Y-4879930D01*
X171237029Y-4816471D01*
X170985637Y-4648496D01*
X170763952Y-4604400D01*
X170763947Y-4604400D01*
X170689100Y-4589512D01*
X170614253Y-4604400D01*
X169525701Y-4604400D01*
X171370102Y-2760000D01*
X172661957Y-2760000D01*
X172845423Y-3034577D01*
X173320091Y-3351740D01*
X173738667Y-3435000D01*
X174021333Y-3435000D01*
X174439909Y-3351740D01*
X174914577Y-3034577D01*
X174934804Y-3004305D01*
X179314700Y-7384202D01*
X179314701Y-7925144D01*
X179299811Y-8000000D01*
X179358796Y-8296537D01*
X179526771Y-8547929D01*
X179752560Y-8698797D01*
X179752560Y-9100000D01*
X179801843Y-9347765D01*
X179942191Y-9557809D01*
X180152235Y-9698157D01*
X180400000Y-9747440D01*
X182600000Y-9747440D01*
X182847765Y-9698157D01*
X183057809Y-9557809D01*
X183198157Y-9347765D01*
X183247440Y-9100000D01*
X183247440Y-8396122D01*
X189970825Y-8396122D01*
X190185466Y-8914332D01*
X190647608Y-9409012D01*
X191263877Y-9689183D01*
X191533000Y-9571604D01*
X191533000Y-8127000D01*
X190088875Y-8127000D01*
X189970825Y-8396122D01*
X183247440Y-8396122D01*
X183247440Y-6900000D01*
X183198157Y-6652235D01*
X183057809Y-6442191D01*
X182847765Y-6301843D01*
X182600000Y-6252560D01*
X180400000Y-6252560D01*
X180343834Y-6263732D01*
X175711401Y-1631300D01*
X180056499Y-1631300D01*
X180086897Y-1661698D01*
X180065000Y-1714561D01*
X180065000Y-2285439D01*
X180283466Y-2812862D01*
X180687138Y-3216534D01*
X181214561Y-3435000D01*
X181785439Y-3435000D01*
X182312862Y-3216534D01*
X182716534Y-2812862D01*
X182935000Y-2285439D01*
X182935000Y-1714561D01*
X182716534Y-1187138D01*
X182686596Y-1157200D01*
X185761099Y-1157200D01*
X191023841Y-6419943D01*
X191023841Y-6419943D01*
G37*
X191023841Y-6419943D02*
X190647608Y-6590988D01*
X190185466Y-7085668D01*
X189970825Y-7603878D01*
X190088875Y-7873000D01*
X191533000Y-7873000D01*
X191533000Y-7853000D01*
X191787000Y-7853000D01*
X191787000Y-7873000D01*
X191807000Y-7873000D01*
X191807000Y-8127000D01*
X191787000Y-8127000D01*
X191787000Y-9571604D01*
X192056123Y-9689183D01*
X192672392Y-9409012D01*
X193134534Y-8914332D01*
X193246913Y-8643015D01*
X193333000Y-8729102D01*
X193333001Y-10700100D01*
X193212531Y-10579630D01*
X193170129Y-10516171D01*
X192918737Y-10348196D01*
X192697052Y-10304100D01*
X192697047Y-10304100D01*
X192622200Y-10289212D01*
X192547353Y-10304100D01*
X188215446Y-10304100D01*
X188140599Y-10289212D01*
X188065752Y-10304100D01*
X188065748Y-10304100D01*
X187844063Y-10348196D01*
X187781502Y-10389998D01*
X187656126Y-10473771D01*
X187656124Y-10473773D01*
X187592671Y-10516171D01*
X187550273Y-10579624D01*
X184916999Y-13212900D01*
X183235000Y-13212900D01*
X183235000Y-12785750D01*
X183076250Y-12627000D01*
X181627000Y-12627000D01*
X181627000Y-12647000D01*
X181373000Y-12647000D01*
X181373000Y-12627000D01*
X181353000Y-12627000D01*
X181353000Y-12373000D01*
X181373000Y-12373000D01*
X181373000Y-10923750D01*
X181627000Y-10923750D01*
X181627000Y-12373000D01*
X183076250Y-12373000D01*
X183235000Y-12214250D01*
X183235000Y-11273690D01*
X183138327Y-11040301D01*
X182959698Y-10861673D01*
X182726309Y-10765000D01*
X181785750Y-10765000D01*
X181627000Y-10923750D01*
X181373000Y-10923750D01*
X181214250Y-10765000D01*
X180273691Y-10765000D01*
X180040302Y-10861673D01*
X179861673Y-11040301D01*
X179765000Y-11273690D01*
X179765000Y-12214250D01*
X179923748Y-12372998D01*
X179765000Y-12372998D01*
X179765000Y-12422198D01*
X178033631Y-10690830D01*
X177997440Y-10636666D01*
X177997440Y-9150000D01*
X177948157Y-8902235D01*
X177807809Y-8692191D01*
X177597765Y-8551843D01*
X177350000Y-8502560D01*
X175650000Y-8502560D01*
X175402235Y-8551843D01*
X175192191Y-8692191D01*
X175151937Y-8752435D01*
X171279431Y-4879930D01*
X171237029Y-4816471D01*
X170985637Y-4648496D01*
X170763952Y-4604400D01*
X170763947Y-4604400D01*
X170689100Y-4589512D01*
X170614253Y-4604400D01*
X169525701Y-4604400D01*
X171370102Y-2760000D01*
X172661957Y-2760000D01*
X172845423Y-3034577D01*
X173320091Y-3351740D01*
X173738667Y-3435000D01*
X174021333Y-3435000D01*
X174439909Y-3351740D01*
X174914577Y-3034577D01*
X174934804Y-3004305D01*
X179314700Y-7384202D01*
X179314701Y-7925144D01*
X179299811Y-8000000D01*
X179358796Y-8296537D01*
X179526771Y-8547929D01*
X179752560Y-8698797D01*
X179752560Y-9100000D01*
X179801843Y-9347765D01*
X179942191Y-9557809D01*
X180152235Y-9698157D01*
X180400000Y-9747440D01*
X182600000Y-9747440D01*
X182847765Y-9698157D01*
X183057809Y-9557809D01*
X183198157Y-9347765D01*
X183247440Y-9100000D01*
X183247440Y-8396122D01*
X189970825Y-8396122D01*
X190185466Y-8914332D01*
X190647608Y-9409012D01*
X191263877Y-9689183D01*
X191533000Y-9571604D01*
X191533000Y-8127000D01*
X190088875Y-8127000D01*
X189970825Y-8396122D01*
X183247440Y-8396122D01*
X183247440Y-6900000D01*
X183198157Y-6652235D01*
X183057809Y-6442191D01*
X182847765Y-6301843D01*
X182600000Y-6252560D01*
X180400000Y-6252560D01*
X180343834Y-6263732D01*
X175711401Y-1631300D01*
X180056499Y-1631300D01*
X180086897Y-1661698D01*
X180065000Y-1714561D01*
X180065000Y-2285439D01*
X180283466Y-2812862D01*
X180687138Y-3216534D01*
X181214561Y-3435000D01*
X181785439Y-3435000D01*
X182312862Y-3216534D01*
X182716534Y-2812862D01*
X182935000Y-2285439D01*
X182935000Y-1714561D01*
X182716534Y-1187138D01*
X182686596Y-1157200D01*
X185761099Y-1157200D01*
X191023841Y-6419943D01*
G04 #@! TD*
M02*
