M48
;DRILL file {KiCad (5.0.2)-1} date 12-2-2019 12:39:24
;FORMAT={-:-/ absolute / inch / decimal}
FMAT,2
INCH,TZ
T1C0.0157
T2C0.0315
T3C0.0394
T4C0.0433
%
G90
G05
T1
X0.6793Y-0.4748
X0.8103Y-0.3315
X0.9612Y-0.2565
X1.4693Y-0.24
X1.5121Y-0.1762
X1.7005Y-0.1762
X1.8449Y-0.1762
X2.4572Y-0.5753
X2.5536Y-0.4745
X2.6134Y-0.503
X2.7453Y-0.3677
X3.0474Y-0.2482
X3.1719Y-0.6283
X3.1961Y-0.2482
X3.3216Y-0.2836
X3.5116Y-0.2117
X3.5326Y-0.1762
X3.5771Y-0.3261
X3.6854Y-0.1762
X4.5039Y-0.1547
X4.6063Y-0.4765
X4.8236Y-0.2483
X4.9504Y-0.2569
X5.131Y-0.169
X5.1646Y-0.2569
X5.3026Y-0.2727
X5.5181Y-0.1762
X5.6658Y-0.2143
X6.7048Y-0.2408
X8.4901Y-0.5791
X9.5046Y-0.6363
X9.7173Y-0.5436
X9.7716Y-0.2569
X9.9083Y-0.2704
X10.0126Y-0.5641
X10.2642Y-0.2178
X10.3679Y-0.2356
X10.5481Y-0.2183
X10.7085Y-0.2672
X11.3217Y-0.358
X11.4832Y-0.5059
X11.6178Y-0.1959
X11.7177Y-0.1325
X11.9752Y-0.2569
X12.313Y-0.1956
X12.4647Y-0.1762
X13.0854Y-0.4223
X13.2883Y-0.3575
X13.4434Y-0.2705
X13.6651Y-0.1651
X14.2569Y-0.2143
X15.2186Y-0.4753
X15.2686Y-0.3672
X16.015Y-0.2287
X16.0948Y-0.1998
X16.2536Y-0.2108
X16.399Y-0.1762
X17.1792Y-0.4749
X17.2107Y-0.3679
X17.3704Y-0.3472
X17.5983Y-0.2306
X17.6043Y-0.1589
X17.7119Y-0.2308
X17.8807Y-0.2701
X18.0076Y-0.1762
X18.2307Y-0.1938
X18.3693Y-0.1762
X19.0568Y-0.3342
X19.3418Y-0.2432
X19.5453Y-0.5756
X19.5733Y-0.1691
X20.187Y-0.1843
T2
X6.8457Y-0.0787
X7.1457Y-0.0787
X6.8457Y-0.7087
X7.1457Y-0.7087
T3
X14.7622Y-0.1772
X14.7622Y-0.2772
X14.7622Y-0.3772
X14.7622Y-0.4772
X14.7622Y-0.5772
X14.7622Y-0.6772
X14.8622Y-0.1772
X14.8622Y-0.2772
X14.8622Y-0.3772
X14.8622Y-0.4772
X14.8622Y-0.5772
X14.8622Y-0.6772
X0.1756Y-0.1772
X0.1756Y-0.2772
X0.1756Y-0.3772
X0.1756Y-0.4772
X0.1756Y-0.5772
X0.1756Y-0.6772
X0.2756Y-0.1772
X0.2756Y-0.2772
X0.2756Y-0.3772
X0.2756Y-0.4772
X0.2756Y-0.5772
X0.2756Y-0.6772
X10.8252Y-0.1772
X10.8252Y-0.2772
X10.8252Y-0.3772
X10.8252Y-0.4772
X10.8252Y-0.5772
X10.8252Y-0.6772
X10.9252Y-0.1772
X10.9252Y-0.2772
X10.9252Y-0.3772
X10.9252Y-0.4772
X10.9252Y-0.5772
X10.9252Y-0.6772
X7.7362Y-0.3937
X7.7362Y-0.4937
X18.6992Y-0.1772
X18.6992Y-0.2772
X18.6992Y-0.3772
X18.6992Y-0.4772
X18.6992Y-0.5772
X18.6992Y-0.6772
X18.7992Y-0.1772
X18.7992Y-0.2772
X18.7992Y-0.3772
X18.7992Y-0.4772
X18.7992Y-0.5772
X18.7992Y-0.6772
X8.8567Y-0.1772
X8.8567Y-0.2772
X8.8567Y-0.3772
X8.8567Y-0.4772
X8.8567Y-0.5772
X8.8567Y-0.6772
X8.9567Y-0.1772
X8.9567Y-0.2772
X8.9567Y-0.3772
X8.9567Y-0.4772
X8.9567Y-0.5772
X8.9567Y-0.6772
X6.9488Y-0.3937
X6.9488Y-0.4937
X8.5236Y-0.3937
X8.5236Y-0.4937
X6.4961Y-0.1709
X6.4961Y-0.2709
X6.4961Y-0.3709
X6.4961Y-0.4709
X6.4961Y-0.5709
X6.5961Y-0.1709
X6.5961Y-0.2709
X6.5961Y-0.3709
X6.5961Y-0.4709
X6.5961Y-0.5709
X16.7307Y-0.1772
X16.7307Y-0.2772
X16.7307Y-0.3772
X16.7307Y-0.4772
X16.7307Y-0.5772
X16.7307Y-0.6772
X16.8307Y-0.1772
X16.8307Y-0.2772
X16.8307Y-0.3772
X16.8307Y-0.4772
X16.8307Y-0.5772
X16.8307Y-0.6772
X4.1126Y-0.1772
X4.1126Y-0.2772
X4.1126Y-0.3772
X4.1126Y-0.4772
X4.1126Y-0.5772
X4.1126Y-0.6772
X4.2126Y-0.1772
X4.2126Y-0.2772
X4.2126Y-0.3772
X4.2126Y-0.4772
X4.2126Y-0.5772
X4.2126Y-0.6772
X2.1441Y-0.1772
X2.1441Y-0.2772
X2.1441Y-0.3772
X2.1441Y-0.4772
X2.1441Y-0.5772
X2.1441Y-0.6772
X2.2441Y-0.1772
X2.2441Y-0.2772
X2.2441Y-0.3772
X2.2441Y-0.4772
X2.2441Y-0.5772
X2.2441Y-0.6772
X12.7937Y-0.1772
X12.7937Y-0.2772
X12.7937Y-0.3772
X12.7937Y-0.4772
X12.7937Y-0.5772
X12.7937Y-0.6772
X12.8937Y-0.1772
X12.8937Y-0.2772
X12.8937Y-0.3772
X12.8937Y-0.4772
X12.8937Y-0.5772
X12.8937Y-0.6772
T4
X7.1457Y-0.315
X7.5457Y-0.315
X7.1457Y-0.4921
X7.5457Y-0.4921
T0
M30
