G04 #@! TF.GenerationSoftware,KiCad,Pcbnew,(5.0.0)*
G04 #@! TF.CreationDate,2018-11-19T15:49:45+01:00*
G04 #@! TF.ProjectId,Corona_tubeBoard,436F726F6E615F74756265426F617264,1*
G04 #@! TF.SameCoordinates,Original*
G04 #@! TF.FileFunction,Legend,Top*
G04 #@! TF.FilePolarity,Positive*
%FSLAX46Y46*%
G04 Gerber Fmt 4.6, Leading zero omitted, Abs format (unit mm)*
G04 Created by KiCad (PCBNEW (5.0.0)) date 11/19/18 15:49:45*
%MOMM*%
%LPD*%
G01*
G04 APERTURE LIST*
%ADD10C,0.150000*%
%ADD11C,0.200000*%
%ADD12C,0.100000*%
%ADD13C,0.203200*%
%ADD14C,0.120000*%
%ADD15C,0.101600*%
%ADD16C,0.076200*%
G04 APERTURE END LIST*
D10*
X40619047Y-13571428D02*
X41380952Y-13571428D01*
X41000000Y-13952380D02*
X41000000Y-13190476D01*
D11*
X39250000Y-18000000D02*
X39250000Y-16750000D01*
X43750000Y-22500000D02*
X39250000Y-18000000D01*
X43750000Y-27000000D02*
X43750000Y-22500000D01*
D10*
X19326380Y-27168571D02*
X19326380Y-26597142D01*
X20326380Y-26882857D02*
X19326380Y-26882857D01*
X20326380Y-26120952D02*
X20278761Y-26216190D01*
X20231142Y-26263809D01*
X20135904Y-26311428D01*
X19850190Y-26311428D01*
X19754952Y-26263809D01*
X19707333Y-26216190D01*
X19659714Y-26120952D01*
X19659714Y-25978095D01*
X19707333Y-25882857D01*
X19754952Y-25835238D01*
X19850190Y-25787619D01*
X20135904Y-25787619D01*
X20231142Y-25835238D01*
X20278761Y-25882857D01*
X20326380Y-25978095D01*
X20326380Y-26120952D01*
X20326380Y-24597142D02*
X19659714Y-24597142D01*
X19754952Y-24597142D02*
X19707333Y-24549523D01*
X19659714Y-24454285D01*
X19659714Y-24311428D01*
X19707333Y-24216190D01*
X19802571Y-24168571D01*
X20326380Y-24168571D01*
X19802571Y-24168571D02*
X19707333Y-24120952D01*
X19659714Y-24025714D01*
X19659714Y-23882857D01*
X19707333Y-23787619D01*
X19802571Y-23740000D01*
X20326380Y-23740000D01*
X20326380Y-22835238D02*
X19802571Y-22835238D01*
X19707333Y-22882857D01*
X19659714Y-22978095D01*
X19659714Y-23168571D01*
X19707333Y-23263809D01*
X20278761Y-22835238D02*
X20326380Y-22930476D01*
X20326380Y-23168571D01*
X20278761Y-23263809D01*
X20183523Y-23311428D01*
X20088285Y-23311428D01*
X19993047Y-23263809D01*
X19945428Y-23168571D01*
X19945428Y-22930476D01*
X19897809Y-22835238D01*
X20326380Y-22359047D02*
X19659714Y-22359047D01*
X19326380Y-22359047D02*
X19374000Y-22406666D01*
X19421619Y-22359047D01*
X19374000Y-22311428D01*
X19326380Y-22359047D01*
X19421619Y-22359047D01*
X19659714Y-21882857D02*
X20326380Y-21882857D01*
X19754952Y-21882857D02*
X19707333Y-21835238D01*
X19659714Y-21740000D01*
X19659714Y-21597142D01*
X19707333Y-21501904D01*
X19802571Y-21454285D01*
X20326380Y-21454285D01*
D12*
X35200000Y-1671428D02*
X35542857Y-1671428D01*
X35371428Y-2271428D02*
X35371428Y-1671428D01*
X36000000Y-1871428D02*
X36000000Y-2271428D01*
X35742857Y-1871428D02*
X35742857Y-2185714D01*
X35771428Y-2242857D01*
X35828571Y-2271428D01*
X35914285Y-2271428D01*
X35971428Y-2242857D01*
X36000000Y-2214285D01*
X36285714Y-2271428D02*
X36285714Y-1671428D01*
X36285714Y-1900000D02*
X36342857Y-1871428D01*
X36457142Y-1871428D01*
X36514285Y-1900000D01*
X36542857Y-1928571D01*
X36571428Y-1985714D01*
X36571428Y-2157142D01*
X36542857Y-2214285D01*
X36514285Y-2242857D01*
X36457142Y-2271428D01*
X36342857Y-2271428D01*
X36285714Y-2242857D01*
X37057142Y-2242857D02*
X37000000Y-2271428D01*
X36885714Y-2271428D01*
X36828571Y-2242857D01*
X36800000Y-2185714D01*
X36800000Y-1957142D01*
X36828571Y-1900000D01*
X36885714Y-1871428D01*
X37000000Y-1871428D01*
X37057142Y-1900000D01*
X37085714Y-1957142D01*
X37085714Y-2014285D01*
X36800000Y-2071428D01*
X37800000Y-2271428D02*
X37800000Y-1671428D01*
X37800000Y-1900000D02*
X37857142Y-1871428D01*
X37971428Y-1871428D01*
X38028571Y-1900000D01*
X38057142Y-1928571D01*
X38085714Y-1985714D01*
X38085714Y-2157142D01*
X38057142Y-2214285D01*
X38028571Y-2242857D01*
X37971428Y-2271428D01*
X37857142Y-2271428D01*
X37800000Y-2242857D01*
X38428571Y-2271428D02*
X38371428Y-2242857D01*
X38342857Y-2214285D01*
X38314285Y-2157142D01*
X38314285Y-1985714D01*
X38342857Y-1928571D01*
X38371428Y-1900000D01*
X38428571Y-1871428D01*
X38514285Y-1871428D01*
X38571428Y-1900000D01*
X38600000Y-1928571D01*
X38628571Y-1985714D01*
X38628571Y-2157142D01*
X38600000Y-2214285D01*
X38571428Y-2242857D01*
X38514285Y-2271428D01*
X38428571Y-2271428D01*
X39142857Y-2271428D02*
X39142857Y-1957142D01*
X39114285Y-1900000D01*
X39057142Y-1871428D01*
X38942857Y-1871428D01*
X38885714Y-1900000D01*
X39142857Y-2242857D02*
X39085714Y-2271428D01*
X38942857Y-2271428D01*
X38885714Y-2242857D01*
X38857142Y-2185714D01*
X38857142Y-2128571D01*
X38885714Y-2071428D01*
X38942857Y-2042857D01*
X39085714Y-2042857D01*
X39142857Y-2014285D01*
X39428571Y-2271428D02*
X39428571Y-1871428D01*
X39428571Y-1985714D02*
X39457142Y-1928571D01*
X39485714Y-1900000D01*
X39542857Y-1871428D01*
X39600000Y-1871428D01*
X40057142Y-2271428D02*
X40057142Y-1671428D01*
X40057142Y-2242857D02*
X40000000Y-2271428D01*
X39885714Y-2271428D01*
X39828571Y-2242857D01*
X39800000Y-2214285D01*
X39771428Y-2157142D01*
X39771428Y-1985714D01*
X39800000Y-1928571D01*
X39828571Y-1900000D01*
X39885714Y-1871428D01*
X40000000Y-1871428D01*
X40057142Y-1900000D01*
X40800000Y-2271428D02*
X40800000Y-1871428D01*
X40800000Y-1985714D02*
X40828571Y-1928571D01*
X40857142Y-1900000D01*
X40914285Y-1871428D01*
X40971428Y-1871428D01*
X41400000Y-2242857D02*
X41342857Y-2271428D01*
X41228571Y-2271428D01*
X41171428Y-2242857D01*
X41142857Y-2185714D01*
X41142857Y-1957142D01*
X41171428Y-1900000D01*
X41228571Y-1871428D01*
X41342857Y-1871428D01*
X41400000Y-1900000D01*
X41428571Y-1957142D01*
X41428571Y-2014285D01*
X41142857Y-2071428D01*
X41628571Y-1871428D02*
X41771428Y-2271428D01*
X41914285Y-1871428D01*
X42142857Y-2214285D02*
X42171428Y-2242857D01*
X42142857Y-2271428D01*
X42114285Y-2242857D01*
X42142857Y-2214285D01*
X42142857Y-2271428D01*
X42742857Y-2271428D02*
X42400000Y-2271428D01*
X42571428Y-2271428D02*
X42571428Y-1671428D01*
X42514285Y-1757142D01*
X42457142Y-1814285D01*
X42400000Y-1842857D01*
D13*
G04 #@! TO.C,SX1*
X46322820Y-13600460D02*
X46322820Y-16374140D01*
X46322820Y-16374140D02*
X44323840Y-16374140D01*
X46322820Y-13600460D02*
X44323840Y-13600460D01*
X45924040Y-14001780D02*
X44397500Y-14001780D01*
X44397500Y-15972820D02*
X45924040Y-15972820D01*
X45924040Y-15972820D02*
X45924040Y-14001780D01*
X45748780Y-18172460D02*
X44115560Y-20417820D01*
X44115560Y-20417820D02*
X42497580Y-19241800D01*
X45748780Y-18172460D02*
X44130800Y-16996440D01*
X45189980Y-18258820D02*
X43955540Y-17364740D01*
X42794760Y-18962400D02*
X44029200Y-19859020D01*
X44029200Y-19859020D02*
X45189980Y-18258820D01*
X44102860Y-9564400D02*
X45733540Y-11807220D01*
X45733540Y-11807220D02*
X44115560Y-12983240D01*
X44102860Y-9564400D02*
X42484880Y-10737880D01*
X44013960Y-10120660D02*
X42779520Y-11017280D01*
X43940300Y-12614940D02*
X45174740Y-11720860D01*
X45174740Y-11720860D02*
X44013960Y-10120660D01*
X39929640Y-7600980D02*
X42568700Y-8459500D01*
X42568700Y-8459500D02*
X41951480Y-10361960D01*
X39929640Y-7600980D02*
X39312420Y-9503440D01*
X40188720Y-8106440D02*
X39716280Y-9556780D01*
X41595880Y-10166380D02*
X42065780Y-8716040D01*
X42065780Y-8716040D02*
X40188720Y-8106440D01*
X35405900Y-8467120D02*
X38044960Y-7611140D01*
X38044960Y-7611140D02*
X38664720Y-9511060D01*
X35405900Y-8467120D02*
X36023120Y-10369580D01*
X35911360Y-8723660D02*
X36381260Y-10174000D01*
X38260860Y-9564400D02*
X37788420Y-8114060D01*
X37788420Y-8114060D02*
X35911360Y-8723660D01*
X32251220Y-11827540D02*
X33884440Y-9584720D01*
X33884440Y-9584720D02*
X35502420Y-10758200D01*
X32251220Y-11827540D02*
X33869200Y-13003560D01*
X32810020Y-11741180D02*
X34044460Y-12635260D01*
X35205240Y-11037600D02*
X33970800Y-10140980D01*
X33970800Y-10140980D02*
X32810020Y-11741180D01*
X31677180Y-16399540D02*
X31677180Y-13625860D01*
X31677180Y-13625860D02*
X33676160Y-13625860D01*
X31677180Y-16399540D02*
X33676160Y-16399540D01*
X32075960Y-15998220D02*
X33602500Y-15998220D01*
X33602500Y-14027180D02*
X32075960Y-14027180D01*
X32075960Y-14027180D02*
X32075960Y-15998220D01*
X33897140Y-20435600D02*
X32266460Y-18192780D01*
X32266460Y-18192780D02*
X33884440Y-17016760D01*
X33897140Y-20435600D02*
X35515120Y-19262120D01*
X33986040Y-19876800D02*
X35220480Y-18982720D01*
X34059700Y-17385060D02*
X32825260Y-18279140D01*
X32825260Y-18279140D02*
X33986040Y-19876800D01*
X38070360Y-22396480D02*
X35431300Y-21540500D01*
X35431300Y-21540500D02*
X36048520Y-19638040D01*
X38070360Y-22396480D02*
X38687580Y-20496560D01*
X37813820Y-21893560D02*
X38283720Y-20443220D01*
X36406660Y-19833620D02*
X35934220Y-21283960D01*
X35934220Y-21283960D02*
X37813820Y-21893560D01*
X48149080Y-15000000D02*
G75*
G03X48149080Y-15000000I-9149080J0D01*
G01*
X40734820Y-15000000D02*
G75*
G03X40734820Y-15000000I-1734820J0D01*
G01*
X41979420Y-15000000D02*
G75*
G03X41979420Y-15000000I-2979420J0D01*
G01*
X44324966Y-13605134D02*
G75*
G03X44323840Y-16374140I499254J-1384706D01*
G01*
X44403206Y-14004403D02*
G75*
G03X44397500Y-15972820I421014J-985437D01*
G01*
X45647089Y-14996490D02*
G75*
G03X44049520Y-15000000I-797469J-600410D01*
G01*
X44052151Y-15003510D02*
G75*
G03X45649720Y-15000000I797469J600410D01*
G01*
X44128779Y-16991764D02*
G75*
G03X42497580Y-19241800I-409459J-1419456D01*
G01*
X43954100Y-17360749D02*
G75*
G03X42794760Y-18962400I-234780J-1050471D01*
G01*
X44378308Y-18907011D02*
G75*
G03X43084320Y-17966720I-999348J-14749D01*
G01*
X43082479Y-17968667D02*
G75*
G03X44379720Y-18906520I1000061J17187D01*
G01*
X42483771Y-10742769D02*
G75*
G03X44115560Y-12983240I1220309J-825691D01*
G01*
X42781430Y-11021068D02*
G75*
G03X43940300Y-12614940I922650J-547392D01*
G01*
X44377334Y-11094701D02*
G75*
G03X43084320Y-12033280I-294794J-953819D01*
G01*
X43083453Y-12034497D02*
G75*
G03X44379720Y-11093480I295507J956257D01*
G01*
X39311009Y-9506712D02*
G75*
G03X41951480Y-10361960I1474611J48992D01*
G01*
X39714006Y-9559523D02*
G75*
G03X41595880Y-10166380I1071614J101803D01*
G01*
X41053587Y-8675988D02*
G75*
G03X40559560Y-10199400I323853J-946832D01*
G01*
X40558395Y-10198100D02*
G75*
G03X41054860Y-8677940I-321415J946120D01*
G01*
X36024342Y-10372818D02*
G75*
G03X38664720Y-9511060I1164638J907478D01*
G01*
X36380530Y-10176078D02*
G75*
G03X38260860Y-9564400I808450J710738D01*
G01*
X36944219Y-8676457D02*
G75*
G03X37440440Y-10199400I818801J-575523D01*
G01*
X37438924Y-10197630D02*
G75*
G03X36945140Y-8677940I-816364J574810D01*
G01*
X33871221Y-13008236D02*
G75*
G03X35502420Y-10758200I409459J1419456D01*
G01*
X34045900Y-12639251D02*
G75*
G03X35205240Y-11037600I234780J1050471D01*
G01*
X33621692Y-11092989D02*
G75*
G03X34915680Y-12033280I999348J14749D01*
G01*
X34917521Y-12031333D02*
G75*
G03X33620280Y-11093480I-1000061J-17187D01*
G01*
X33675034Y-16394866D02*
G75*
G03X33676160Y-13625860I-499254J1384706D01*
G01*
X33596794Y-15995597D02*
G75*
G03X33602500Y-14027180I-421014J985437D01*
G01*
X32352911Y-15003510D02*
G75*
G03X33950480Y-15000000I797469J600410D01*
G01*
X33947849Y-14996490D02*
G75*
G03X32350280Y-15000000I-797469J-600410D01*
G01*
X35516229Y-19257231D02*
G75*
G03X33884440Y-17016760I-1220309J825691D01*
G01*
X35218570Y-18978932D02*
G75*
G03X34059700Y-17385060I-922650J547392D01*
G01*
X33622666Y-18905299D02*
G75*
G03X34915680Y-17966720I294794J953819D01*
G01*
X34916547Y-17965503D02*
G75*
G03X33620280Y-18906520I-295507J-956257D01*
G01*
X38689075Y-20495862D02*
G75*
G03X36048520Y-19638040I-1474695J-46418D01*
G01*
X38284249Y-20442323D02*
G75*
G03X36406660Y-19833620I-1069869J-99957D01*
G01*
X36946413Y-21324012D02*
G75*
G03X37440440Y-19800600I-323853J946832D01*
G01*
X37440892Y-19804338D02*
G75*
G03X36947680Y-21322060I322128J-943682D01*
G01*
D14*
G04 #@! TO.C,Q5*
X24350000Y-16570000D02*
X24350000Y-12970000D01*
X24338478Y-16608478D02*
G75*
G02X19900000Y-14770000I-1838478J1838478D01*
G01*
X24338478Y-12931522D02*
G75*
G03X19900000Y-14770000I-1838478J-1838478D01*
G01*
G04 #@! TO.C,D_TUBE1*
X37460000Y-16330000D02*
X37460000Y-16486000D01*
X37460000Y-14014000D02*
X37460000Y-14170000D01*
X40061130Y-16329837D02*
G75*
G02X37979039Y-16330000I-1041130J1079837D01*
G01*
X40061130Y-14170163D02*
G75*
G03X37979039Y-14170000I-1041130J-1079837D01*
G01*
X40692335Y-16328608D02*
G75*
G02X37460000Y-16485516I-1672335J1078608D01*
G01*
X40692335Y-14171392D02*
G75*
G03X37460000Y-14014484I-1672335J-1078608D01*
G01*
G04 #@! TO.C,J4*
X5670000Y-28870000D02*
X5670000Y-26270000D01*
X5670000Y-28870000D02*
X18490000Y-28870000D01*
X18490000Y-28870000D02*
X18490000Y-23670000D01*
X8270000Y-23670000D02*
X18490000Y-23670000D01*
X8270000Y-26270000D02*
X8270000Y-23670000D01*
X5670000Y-26270000D02*
X8270000Y-26270000D01*
X5670000Y-23670000D02*
X7000000Y-23670000D01*
X5670000Y-25000000D02*
X5670000Y-23670000D01*
G04 #@! TO.C,R23*
X9960000Y-17870000D02*
X9960000Y-17540000D01*
X3420000Y-17870000D02*
X9960000Y-17870000D01*
X3420000Y-17540000D02*
X3420000Y-17870000D01*
X9960000Y-15130000D02*
X9960000Y-15460000D01*
X3420000Y-15130000D02*
X9960000Y-15130000D01*
X3420000Y-15460000D02*
X3420000Y-15130000D01*
G04 #@! TO.C,R24*
X3420000Y-11630000D02*
X3420000Y-11960000D01*
X9960000Y-11630000D02*
X3420000Y-11630000D01*
X9960000Y-11960000D02*
X9960000Y-11630000D01*
X3420000Y-14370000D02*
X3420000Y-14040000D01*
X9960000Y-14370000D02*
X3420000Y-14370000D01*
X9960000Y-14040000D02*
X9960000Y-14370000D01*
G04 #@! TO.C,RFBT1*
X65580000Y-23370000D02*
X65580000Y-23040000D01*
X59040000Y-23370000D02*
X65580000Y-23370000D01*
X59040000Y-23040000D02*
X59040000Y-23370000D01*
X65580000Y-20630000D02*
X65580000Y-20960000D01*
X59040000Y-20630000D02*
X65580000Y-20630000D01*
X59040000Y-20960000D02*
X59040000Y-20630000D01*
G04 #@! TO.C,SX1*
D15*
X49083095Y-24344523D02*
X49506428Y-25614523D01*
X49929761Y-24344523D01*
X50171666Y-24344523D02*
X50897380Y-24344523D01*
X50534523Y-25614523D02*
X50534523Y-24344523D01*
X51381190Y-25614523D02*
X51623095Y-25614523D01*
X51744047Y-25554047D01*
X51804523Y-25493571D01*
X51925476Y-25312142D01*
X51985952Y-25070238D01*
X51985952Y-24586428D01*
X51925476Y-24465476D01*
X51865000Y-24405000D01*
X51744047Y-24344523D01*
X51502142Y-24344523D01*
X51381190Y-24405000D01*
X51320714Y-24465476D01*
X51260238Y-24586428D01*
X51260238Y-24888809D01*
X51320714Y-25009761D01*
X51381190Y-25070238D01*
X51502142Y-25130714D01*
X51744047Y-25130714D01*
X51865000Y-25070238D01*
X51925476Y-25009761D01*
X51985952Y-24888809D01*
X52530238Y-25130714D02*
X53497857Y-25130714D01*
X54102619Y-25614523D02*
X54102619Y-24344523D01*
X54586428Y-24344523D01*
X54707380Y-24405000D01*
X54767857Y-24465476D01*
X54828333Y-24586428D01*
X54828333Y-24767857D01*
X54767857Y-24888809D01*
X54707380Y-24949285D01*
X54586428Y-25009761D01*
X54102619Y-25009761D01*
X55191190Y-24344523D02*
X55916904Y-24344523D01*
X55554047Y-25614523D02*
X55554047Y-24344523D01*
D16*
X46400465Y-19988311D02*
X46059213Y-20458003D01*
X46229839Y-20223157D02*
X45407878Y-19625967D01*
X45468426Y-19789562D01*
X45489832Y-19924719D01*
X45472098Y-20031439D01*
G04 #@! TO.C,Q5*
D10*
X19487619Y-14865238D02*
X19440000Y-14960476D01*
X19344761Y-15055714D01*
X19201904Y-15198571D01*
X19154285Y-15293809D01*
X19154285Y-15389047D01*
X19392380Y-15341428D02*
X19344761Y-15436666D01*
X19249523Y-15531904D01*
X19059047Y-15579523D01*
X18725714Y-15579523D01*
X18535238Y-15531904D01*
X18440000Y-15436666D01*
X18392380Y-15341428D01*
X18392380Y-15150952D01*
X18440000Y-15055714D01*
X18535238Y-14960476D01*
X18725714Y-14912857D01*
X19059047Y-14912857D01*
X19249523Y-14960476D01*
X19344761Y-15055714D01*
X19392380Y-15150952D01*
X19392380Y-15341428D01*
X18392380Y-14008095D02*
X18392380Y-14484285D01*
X18868571Y-14531904D01*
X18820952Y-14484285D01*
X18773333Y-14389047D01*
X18773333Y-14150952D01*
X18820952Y-14055714D01*
X18868571Y-14008095D01*
X18963809Y-13960476D01*
X19201904Y-13960476D01*
X19297142Y-14008095D01*
X19344761Y-14055714D01*
X19392380Y-14150952D01*
X19392380Y-14389047D01*
X19344761Y-14484285D01*
X19297142Y-14531904D01*
G04 #@! TO.C,D_TUBE1*
X43523809Y-28952380D02*
X43523809Y-27952380D01*
X43761904Y-27952380D01*
X43904761Y-28000000D01*
X44000000Y-28095238D01*
X44047619Y-28190476D01*
X44095238Y-28380952D01*
X44095238Y-28523809D01*
X44047619Y-28714285D01*
X44000000Y-28809523D01*
X43904761Y-28904761D01*
X43761904Y-28952380D01*
X43523809Y-28952380D01*
X44285714Y-29047619D02*
X45047619Y-29047619D01*
X45142857Y-27952380D02*
X45714285Y-27952380D01*
X45428571Y-28952380D02*
X45428571Y-27952380D01*
X46047619Y-27952380D02*
X46047619Y-28761904D01*
X46095238Y-28857142D01*
X46142857Y-28904761D01*
X46238095Y-28952380D01*
X46428571Y-28952380D01*
X46523809Y-28904761D01*
X46571428Y-28857142D01*
X46619047Y-28761904D01*
X46619047Y-27952380D01*
X47428571Y-28428571D02*
X47571428Y-28476190D01*
X47619047Y-28523809D01*
X47666666Y-28619047D01*
X47666666Y-28761904D01*
X47619047Y-28857142D01*
X47571428Y-28904761D01*
X47476190Y-28952380D01*
X47095238Y-28952380D01*
X47095238Y-27952380D01*
X47428571Y-27952380D01*
X47523809Y-28000000D01*
X47571428Y-28047619D01*
X47619047Y-28142857D01*
X47619047Y-28238095D01*
X47571428Y-28333333D01*
X47523809Y-28380952D01*
X47428571Y-28428571D01*
X47095238Y-28428571D01*
X48095238Y-28428571D02*
X48428571Y-28428571D01*
X48571428Y-28952380D02*
X48095238Y-28952380D01*
X48095238Y-27952380D01*
X48571428Y-27952380D01*
X49523809Y-28952380D02*
X48952380Y-28952380D01*
X49238095Y-28952380D02*
X49238095Y-27952380D01*
X49142857Y-28095238D01*
X49047619Y-28190476D01*
X48952380Y-28238095D01*
G04 #@! TO.C,J4*
X3682380Y-26603333D02*
X4396666Y-26603333D01*
X4539523Y-26650952D01*
X4634761Y-26746190D01*
X4682380Y-26889047D01*
X4682380Y-26984285D01*
X4015714Y-25698571D02*
X4682380Y-25698571D01*
X3634761Y-25936666D02*
X4349047Y-26174761D01*
X4349047Y-25555714D01*
G04 #@! TO.C,R23*
X5976141Y-16920880D02*
X5642808Y-16444690D01*
X5404713Y-16920880D02*
X5404713Y-15920880D01*
X5785665Y-15920880D01*
X5880903Y-15968500D01*
X5928522Y-16016119D01*
X5976141Y-16111357D01*
X5976141Y-16254214D01*
X5928522Y-16349452D01*
X5880903Y-16397071D01*
X5785665Y-16444690D01*
X5404713Y-16444690D01*
X6357094Y-16016119D02*
X6404713Y-15968500D01*
X6499951Y-15920880D01*
X6738046Y-15920880D01*
X6833284Y-15968500D01*
X6880903Y-16016119D01*
X6928522Y-16111357D01*
X6928522Y-16206595D01*
X6880903Y-16349452D01*
X6309475Y-16920880D01*
X6928522Y-16920880D01*
X7261856Y-15920880D02*
X7880903Y-15920880D01*
X7547570Y-16301833D01*
X7690427Y-16301833D01*
X7785665Y-16349452D01*
X7833284Y-16397071D01*
X7880903Y-16492309D01*
X7880903Y-16730404D01*
X7833284Y-16825642D01*
X7785665Y-16873261D01*
X7690427Y-16920880D01*
X7404713Y-16920880D01*
X7309475Y-16873261D01*
X7261856Y-16825642D01*
G04 #@! TO.C,R24*
X6047142Y-13452380D02*
X5713809Y-12976190D01*
X5475714Y-13452380D02*
X5475714Y-12452380D01*
X5856666Y-12452380D01*
X5951904Y-12500000D01*
X5999523Y-12547619D01*
X6047142Y-12642857D01*
X6047142Y-12785714D01*
X5999523Y-12880952D01*
X5951904Y-12928571D01*
X5856666Y-12976190D01*
X5475714Y-12976190D01*
X6428095Y-12547619D02*
X6475714Y-12500000D01*
X6570952Y-12452380D01*
X6809047Y-12452380D01*
X6904285Y-12500000D01*
X6951904Y-12547619D01*
X6999523Y-12642857D01*
X6999523Y-12738095D01*
X6951904Y-12880952D01*
X6380476Y-13452380D01*
X6999523Y-13452380D01*
X7856666Y-12785714D02*
X7856666Y-13452380D01*
X7618571Y-12404761D02*
X7380476Y-13119047D01*
X7999523Y-13119047D01*
G04 #@! TO.C,RFBT1*
X60833809Y-22452380D02*
X60500476Y-21976190D01*
X60262380Y-22452380D02*
X60262380Y-21452380D01*
X60643333Y-21452380D01*
X60738571Y-21500000D01*
X60786190Y-21547619D01*
X60833809Y-21642857D01*
X60833809Y-21785714D01*
X60786190Y-21880952D01*
X60738571Y-21928571D01*
X60643333Y-21976190D01*
X60262380Y-21976190D01*
X61595714Y-21928571D02*
X61262380Y-21928571D01*
X61262380Y-22452380D02*
X61262380Y-21452380D01*
X61738571Y-21452380D01*
X62452857Y-21928571D02*
X62595714Y-21976190D01*
X62643333Y-22023809D01*
X62690952Y-22119047D01*
X62690952Y-22261904D01*
X62643333Y-22357142D01*
X62595714Y-22404761D01*
X62500476Y-22452380D01*
X62119523Y-22452380D01*
X62119523Y-21452380D01*
X62452857Y-21452380D01*
X62548095Y-21500000D01*
X62595714Y-21547619D01*
X62643333Y-21642857D01*
X62643333Y-21738095D01*
X62595714Y-21833333D01*
X62548095Y-21880952D01*
X62452857Y-21928571D01*
X62119523Y-21928571D01*
X62976666Y-21452380D02*
X63548095Y-21452380D01*
X63262380Y-22452380D02*
X63262380Y-21452380D01*
X64405238Y-22452380D02*
X63833809Y-22452380D01*
X64119523Y-22452380D02*
X64119523Y-21452380D01*
X64024285Y-21595238D01*
X63929047Y-21690476D01*
X63833809Y-21738095D01*
G04 #@! TD*
M02*
