M48
;DRILL file {KiCad (5.0.0)} date 11/17/18 16:41:41
;FORMAT={-:-/ absolute / inch / decimal}
FMAT,2
INCH,TZ
T1C0.0295
T2C0.0315
T3C0.0354
T4C0.0394
T5C0.0708
%
G90
G05
M72
T1
X0.8858Y-0.5315
X0.8858Y-0.5815
X0.8858Y-0.6315
T2
X2.3031Y-0.8661
X2.6031Y-0.8661
X0.1134Y-0.5118
X0.4134Y-0.5118
X0.1134Y-0.6496
X0.4134Y-0.6496
X2.1524Y-0.187
X2.2524Y-0.187
X2.3524Y-0.187
T3
X1.4862Y-0.6004
X1.5862Y-0.6004
T4
X2.7626Y-0.5807
X2.8626Y-0.5807
X2.9626Y-0.5807
X2.1457Y-0.4988
X2.1457Y-0.5988
X2.1457Y-0.6988
X0.2756Y-0.9843
X0.2756Y-1.0843
X0.3756Y-0.9843
X0.3756Y-1.0843
X0.4756Y-0.9843
X0.4756Y-1.0843
X0.5756Y-0.9843
X0.5756Y-1.0843
X0.6756Y-0.9843
X0.6756Y-1.0843
X2.7626Y-0.187
X2.8626Y-0.187
X2.9626Y-0.187
X2.9626Y-0.8941
X2.9626Y-0.9941
T5
X1.1221Y-0.5988
X1.201Y-0.3559
X1.201Y-0.8417
X1.4077Y-0.2057
X1.4077Y-0.9919
X1.6631Y-0.2057
X1.8698Y-0.3559
X1.8698Y-0.8417
X1.9487Y-0.5988
T0
M30
