G04 #@! TF.GenerationSoftware,KiCad,Pcbnew,(5.0.0)*
G04 #@! TF.CreationDate,2018-08-18T23:34:16+02:00*
G04 #@! TF.ProjectId,1u_lpg_panel,31755F6C70675F70616E656C2E6B6963,rev?*
G04 #@! TF.SameCoordinates,Original*
G04 #@! TF.FileFunction,Legend,Top*
G04 #@! TF.FilePolarity,Positive*
%FSLAX46Y46*%
G04 Gerber Fmt 4.6, Leading zero omitted, Abs format (unit mm)*
G04 Created by KiCad (PCBNEW (5.0.0)) date 08/18/18 23:34:16*
%MOMM*%
%LPD*%
G01*
G04 APERTURE LIST*
%ADD10C,0.010000*%
G04 APERTURE END LIST*
D10*
G04 #@! TO.C,G\002A\002A\002A*
G36*
X13726148Y-7892558D02*
X13777265Y-7918031D01*
X13793298Y-7931243D01*
X13814517Y-7952564D01*
X13826465Y-7972411D01*
X13832334Y-7998619D01*
X13835033Y-8033627D01*
X13834488Y-8086691D01*
X13824530Y-8125481D01*
X13802800Y-8155680D01*
X13775260Y-8177536D01*
X13731398Y-8196126D01*
X13678822Y-8202441D01*
X13626145Y-8196359D01*
X13585842Y-8180228D01*
X13549943Y-8146462D01*
X13528148Y-8099426D01*
X13522061Y-8042930D01*
X13522892Y-8030591D01*
X13534808Y-7976790D01*
X13560424Y-7937208D01*
X13602471Y-7907957D01*
X13612377Y-7903320D01*
X13670674Y-7887576D01*
X13726148Y-7892558D01*
X13726148Y-7892558D01*
G37*
X13726148Y-7892558D02*
X13777265Y-7918031D01*
X13793298Y-7931243D01*
X13814517Y-7952564D01*
X13826465Y-7972411D01*
X13832334Y-7998619D01*
X13835033Y-8033627D01*
X13834488Y-8086691D01*
X13824530Y-8125481D01*
X13802800Y-8155680D01*
X13775260Y-8177536D01*
X13731398Y-8196126D01*
X13678822Y-8202441D01*
X13626145Y-8196359D01*
X13585842Y-8180228D01*
X13549943Y-8146462D01*
X13528148Y-8099426D01*
X13522061Y-8042930D01*
X13522892Y-8030591D01*
X13534808Y-7976790D01*
X13560424Y-7937208D01*
X13602471Y-7907957D01*
X13612377Y-7903320D01*
X13670674Y-7887576D01*
X13726148Y-7892558D01*
G36*
X26645961Y-7758978D02*
X26677717Y-7768076D01*
X26723075Y-7793689D01*
X26746509Y-7819585D01*
X26753102Y-7829855D01*
X26758371Y-7840488D01*
X26762464Y-7853840D01*
X26765530Y-7872268D01*
X26767718Y-7898126D01*
X26769175Y-7933772D01*
X26770050Y-7981559D01*
X26770492Y-8043845D01*
X26770648Y-8122985D01*
X26770667Y-8203231D01*
X26770667Y-8550916D01*
X26922008Y-8550916D01*
X26987288Y-8551410D01*
X27034334Y-8553417D01*
X27066068Y-8557723D01*
X27085408Y-8565115D01*
X27095277Y-8576381D01*
X27098595Y-8592308D01*
X27098750Y-8598541D01*
X27096930Y-8616091D01*
X27089529Y-8628751D01*
X27073632Y-8637303D01*
X27046324Y-8642527D01*
X27004691Y-8645205D01*
X26945819Y-8646119D01*
X26921101Y-8646166D01*
X26768852Y-8646166D01*
X26772766Y-8976895D01*
X26773896Y-9069311D01*
X26775004Y-9143304D01*
X26776310Y-9201618D01*
X26778032Y-9246997D01*
X26780389Y-9282183D01*
X26783601Y-9309921D01*
X26787887Y-9332952D01*
X26793465Y-9354022D01*
X26800555Y-9375871D01*
X26805847Y-9391129D01*
X26848627Y-9492433D01*
X26899565Y-9575156D01*
X26958316Y-9638948D01*
X27024538Y-9683457D01*
X27097887Y-9708334D01*
X27119710Y-9711739D01*
X27152441Y-9717090D01*
X27170021Y-9725315D01*
X27178464Y-9739706D01*
X27179857Y-9744674D01*
X27180274Y-9775537D01*
X27163211Y-9796054D01*
X27128354Y-9806330D01*
X27075389Y-9806469D01*
X27016735Y-9798837D01*
X26915754Y-9771228D01*
X26819122Y-9724915D01*
X26730060Y-9662331D01*
X26651792Y-9585912D01*
X26587541Y-9498088D01*
X26565304Y-9457979D01*
X26552174Y-9431586D01*
X26540813Y-9407030D01*
X26531093Y-9382627D01*
X26522885Y-9356692D01*
X26516061Y-9327538D01*
X26510492Y-9293481D01*
X26506050Y-9252836D01*
X26502607Y-9203916D01*
X26500033Y-9145037D01*
X26498202Y-9074514D01*
X26496983Y-8990660D01*
X26496248Y-8891791D01*
X26495870Y-8776221D01*
X26495720Y-8642266D01*
X26495684Y-8544544D01*
X26495500Y-7855546D01*
X26519657Y-7819585D01*
X26555449Y-7784436D01*
X26588449Y-7768076D01*
X26620372Y-7758949D01*
X26645961Y-7758978D01*
X26645961Y-7758978D01*
G37*
X26645961Y-7758978D02*
X26677717Y-7768076D01*
X26723075Y-7793689D01*
X26746509Y-7819585D01*
X26753102Y-7829855D01*
X26758371Y-7840488D01*
X26762464Y-7853840D01*
X26765530Y-7872268D01*
X26767718Y-7898126D01*
X26769175Y-7933772D01*
X26770050Y-7981559D01*
X26770492Y-8043845D01*
X26770648Y-8122985D01*
X26770667Y-8203231D01*
X26770667Y-8550916D01*
X26922008Y-8550916D01*
X26987288Y-8551410D01*
X27034334Y-8553417D01*
X27066068Y-8557723D01*
X27085408Y-8565115D01*
X27095277Y-8576381D01*
X27098595Y-8592308D01*
X27098750Y-8598541D01*
X27096930Y-8616091D01*
X27089529Y-8628751D01*
X27073632Y-8637303D01*
X27046324Y-8642527D01*
X27004691Y-8645205D01*
X26945819Y-8646119D01*
X26921101Y-8646166D01*
X26768852Y-8646166D01*
X26772766Y-8976895D01*
X26773896Y-9069311D01*
X26775004Y-9143304D01*
X26776310Y-9201618D01*
X26778032Y-9246997D01*
X26780389Y-9282183D01*
X26783601Y-9309921D01*
X26787887Y-9332952D01*
X26793465Y-9354022D01*
X26800555Y-9375871D01*
X26805847Y-9391129D01*
X26848627Y-9492433D01*
X26899565Y-9575156D01*
X26958316Y-9638948D01*
X27024538Y-9683457D01*
X27097887Y-9708334D01*
X27119710Y-9711739D01*
X27152441Y-9717090D01*
X27170021Y-9725315D01*
X27178464Y-9739706D01*
X27179857Y-9744674D01*
X27180274Y-9775537D01*
X27163211Y-9796054D01*
X27128354Y-9806330D01*
X27075389Y-9806469D01*
X27016735Y-9798837D01*
X26915754Y-9771228D01*
X26819122Y-9724915D01*
X26730060Y-9662331D01*
X26651792Y-9585912D01*
X26587541Y-9498088D01*
X26565304Y-9457979D01*
X26552174Y-9431586D01*
X26540813Y-9407030D01*
X26531093Y-9382627D01*
X26522885Y-9356692D01*
X26516061Y-9327538D01*
X26510492Y-9293481D01*
X26506050Y-9252836D01*
X26502607Y-9203916D01*
X26500033Y-9145037D01*
X26498202Y-9074514D01*
X26496983Y-8990660D01*
X26496248Y-8891791D01*
X26495870Y-8776221D01*
X26495720Y-8642266D01*
X26495684Y-8544544D01*
X26495500Y-7855546D01*
X26519657Y-7819585D01*
X26555449Y-7784436D01*
X26588449Y-7768076D01*
X26620372Y-7758949D01*
X26645961Y-7758978D01*
G36*
X14733022Y-8531242D02*
X14829491Y-8555762D01*
X14919316Y-8596750D01*
X15000316Y-8653143D01*
X15070306Y-8723875D01*
X15127103Y-8807884D01*
X15168524Y-8904106D01*
X15177125Y-8933302D01*
X15181501Y-8954725D01*
X15185017Y-8984086D01*
X15187747Y-9023496D01*
X15189769Y-9075068D01*
X15191159Y-9140913D01*
X15191994Y-9223143D01*
X15192350Y-9323871D01*
X15192374Y-9353617D01*
X15192317Y-9452294D01*
X15192001Y-9532045D01*
X15191326Y-9595107D01*
X15190188Y-9643719D01*
X15188487Y-9680122D01*
X15186120Y-9706552D01*
X15182986Y-9725250D01*
X15178983Y-9738454D01*
X15174444Y-9747675D01*
X15142717Y-9782096D01*
X15099611Y-9803015D01*
X15051049Y-9809124D01*
X15002953Y-9799116D01*
X14984154Y-9789693D01*
X14968914Y-9780119D01*
X14956419Y-9770380D01*
X14946363Y-9758377D01*
X14938440Y-9742010D01*
X14932344Y-9719178D01*
X14927770Y-9687782D01*
X14924412Y-9645722D01*
X14921963Y-9590899D01*
X14920118Y-9521211D01*
X14918571Y-9434560D01*
X14917016Y-9328846D01*
X14917016Y-9328791D01*
X14915512Y-9227005D01*
X14914101Y-9143986D01*
X14912625Y-9077335D01*
X14910924Y-9024653D01*
X14908839Y-8983542D01*
X14906210Y-8951603D01*
X14902878Y-8926437D01*
X14898683Y-8905646D01*
X14893468Y-8886831D01*
X14887071Y-8867594D01*
X14886222Y-8865160D01*
X14852009Y-8787655D01*
X14808017Y-8719741D01*
X14757621Y-8666307D01*
X14739055Y-8651904D01*
X14711252Y-8634128D01*
X14686705Y-8624713D01*
X14656747Y-8621407D01*
X14622720Y-8621654D01*
X14539901Y-8631647D01*
X14461725Y-8658206D01*
X14412326Y-8683996D01*
X14367000Y-8710558D01*
X14367000Y-9208575D01*
X14366925Y-9326388D01*
X14366661Y-9424892D01*
X14366150Y-9505945D01*
X14365334Y-9571406D01*
X14364154Y-9623132D01*
X14362553Y-9662982D01*
X14360472Y-9692813D01*
X14357854Y-9714482D01*
X14354639Y-9729849D01*
X14350770Y-9740770D01*
X14350307Y-9741770D01*
X14322616Y-9777337D01*
X14282572Y-9800303D01*
X14235783Y-9809272D01*
X14187855Y-9802845D01*
X14158493Y-9789595D01*
X14144073Y-9780739D01*
X14131897Y-9772027D01*
X14121777Y-9761695D01*
X14113522Y-9747979D01*
X14106942Y-9729115D01*
X14101848Y-9703339D01*
X14098049Y-9668887D01*
X14095356Y-9623996D01*
X14093579Y-9566902D01*
X14092528Y-9495840D01*
X14092013Y-9409047D01*
X14091845Y-9304759D01*
X14091833Y-9181213D01*
X14091833Y-9170227D01*
X14091864Y-9043445D01*
X14092077Y-8936104D01*
X14092649Y-8846477D01*
X14093757Y-8772836D01*
X14095581Y-8713457D01*
X14098297Y-8666612D01*
X14102083Y-8630575D01*
X14107118Y-8603619D01*
X14113580Y-8584018D01*
X14121645Y-8570046D01*
X14131493Y-8559976D01*
X14143301Y-8552081D01*
X14156231Y-8545160D01*
X14200160Y-8531926D01*
X14249681Y-8531383D01*
X14296709Y-8542635D01*
X14333127Y-8564757D01*
X14362286Y-8592693D01*
X14425588Y-8567124D01*
X14528887Y-8535859D01*
X14632093Y-8524253D01*
X14733022Y-8531242D01*
X14733022Y-8531242D01*
G37*
X14733022Y-8531242D02*
X14829491Y-8555762D01*
X14919316Y-8596750D01*
X15000316Y-8653143D01*
X15070306Y-8723875D01*
X15127103Y-8807884D01*
X15168524Y-8904106D01*
X15177125Y-8933302D01*
X15181501Y-8954725D01*
X15185017Y-8984086D01*
X15187747Y-9023496D01*
X15189769Y-9075068D01*
X15191159Y-9140913D01*
X15191994Y-9223143D01*
X15192350Y-9323871D01*
X15192374Y-9353617D01*
X15192317Y-9452294D01*
X15192001Y-9532045D01*
X15191326Y-9595107D01*
X15190188Y-9643719D01*
X15188487Y-9680122D01*
X15186120Y-9706552D01*
X15182986Y-9725250D01*
X15178983Y-9738454D01*
X15174444Y-9747675D01*
X15142717Y-9782096D01*
X15099611Y-9803015D01*
X15051049Y-9809124D01*
X15002953Y-9799116D01*
X14984154Y-9789693D01*
X14968914Y-9780119D01*
X14956419Y-9770380D01*
X14946363Y-9758377D01*
X14938440Y-9742010D01*
X14932344Y-9719178D01*
X14927770Y-9687782D01*
X14924412Y-9645722D01*
X14921963Y-9590899D01*
X14920118Y-9521211D01*
X14918571Y-9434560D01*
X14917016Y-9328846D01*
X14917016Y-9328791D01*
X14915512Y-9227005D01*
X14914101Y-9143986D01*
X14912625Y-9077335D01*
X14910924Y-9024653D01*
X14908839Y-8983542D01*
X14906210Y-8951603D01*
X14902878Y-8926437D01*
X14898683Y-8905646D01*
X14893468Y-8886831D01*
X14887071Y-8867594D01*
X14886222Y-8865160D01*
X14852009Y-8787655D01*
X14808017Y-8719741D01*
X14757621Y-8666307D01*
X14739055Y-8651904D01*
X14711252Y-8634128D01*
X14686705Y-8624713D01*
X14656747Y-8621407D01*
X14622720Y-8621654D01*
X14539901Y-8631647D01*
X14461725Y-8658206D01*
X14412326Y-8683996D01*
X14367000Y-8710558D01*
X14367000Y-9208575D01*
X14366925Y-9326388D01*
X14366661Y-9424892D01*
X14366150Y-9505945D01*
X14365334Y-9571406D01*
X14364154Y-9623132D01*
X14362553Y-9662982D01*
X14360472Y-9692813D01*
X14357854Y-9714482D01*
X14354639Y-9729849D01*
X14350770Y-9740770D01*
X14350307Y-9741770D01*
X14322616Y-9777337D01*
X14282572Y-9800303D01*
X14235783Y-9809272D01*
X14187855Y-9802845D01*
X14158493Y-9789595D01*
X14144073Y-9780739D01*
X14131897Y-9772027D01*
X14121777Y-9761695D01*
X14113522Y-9747979D01*
X14106942Y-9729115D01*
X14101848Y-9703339D01*
X14098049Y-9668887D01*
X14095356Y-9623996D01*
X14093579Y-9566902D01*
X14092528Y-9495840D01*
X14092013Y-9409047D01*
X14091845Y-9304759D01*
X14091833Y-9181213D01*
X14091833Y-9170227D01*
X14091864Y-9043445D01*
X14092077Y-8936104D01*
X14092649Y-8846477D01*
X14093757Y-8772836D01*
X14095581Y-8713457D01*
X14098297Y-8666612D01*
X14102083Y-8630575D01*
X14107118Y-8603619D01*
X14113580Y-8584018D01*
X14121645Y-8570046D01*
X14131493Y-8559976D01*
X14143301Y-8552081D01*
X14156231Y-8545160D01*
X14200160Y-8531926D01*
X14249681Y-8531383D01*
X14296709Y-8542635D01*
X14333127Y-8564757D01*
X14362286Y-8592693D01*
X14425588Y-8567124D01*
X14528887Y-8535859D01*
X14632093Y-8524253D01*
X14733022Y-8531242D01*
G36*
X13724252Y-8529538D02*
X13767392Y-8553832D01*
X13792954Y-8582359D01*
X13817203Y-8618342D01*
X13814289Y-9177098D01*
X13811375Y-9735855D01*
X13777962Y-9769261D01*
X13735305Y-9798299D01*
X13686414Y-9809703D01*
X13636910Y-9802892D01*
X13605154Y-9787146D01*
X13578047Y-9764633D01*
X13557642Y-9740648D01*
X13554891Y-9735932D01*
X13551805Y-9725256D01*
X13549249Y-9705399D01*
X13547198Y-9674911D01*
X13545624Y-9632343D01*
X13544501Y-9576245D01*
X13543802Y-9505169D01*
X13543501Y-9417664D01*
X13543572Y-9312283D01*
X13543987Y-9187575D01*
X13544153Y-9150647D01*
X13546792Y-8591502D01*
X13580719Y-8561193D01*
X13626280Y-8532756D01*
X13675670Y-8522359D01*
X13724252Y-8529538D01*
X13724252Y-8529538D01*
G37*
X13724252Y-8529538D02*
X13767392Y-8553832D01*
X13792954Y-8582359D01*
X13817203Y-8618342D01*
X13814289Y-9177098D01*
X13811375Y-9735855D01*
X13777962Y-9769261D01*
X13735305Y-9798299D01*
X13686414Y-9809703D01*
X13636910Y-9802892D01*
X13605154Y-9787146D01*
X13578047Y-9764633D01*
X13557642Y-9740648D01*
X13554891Y-9735932D01*
X13551805Y-9725256D01*
X13549249Y-9705399D01*
X13547198Y-9674911D01*
X13545624Y-9632343D01*
X13544501Y-9576245D01*
X13543802Y-9505169D01*
X13543501Y-9417664D01*
X13543572Y-9312283D01*
X13543987Y-9187575D01*
X13544153Y-9150647D01*
X13546792Y-8591502D01*
X13580719Y-8561193D01*
X13626280Y-8532756D01*
X13675670Y-8522359D01*
X13724252Y-8529538D01*
G36*
X26127130Y-8538364D02*
X26166861Y-8560274D01*
X26193696Y-8592903D01*
X26197343Y-8602397D01*
X26200407Y-8616739D01*
X26202937Y-8637661D01*
X26204981Y-8666894D01*
X26206586Y-8706170D01*
X26207803Y-8757220D01*
X26208678Y-8821776D01*
X26209260Y-8901569D01*
X26209597Y-8998332D01*
X26209738Y-9113795D01*
X26209750Y-9168827D01*
X26209548Y-9290902D01*
X26208961Y-9401414D01*
X26208014Y-9498935D01*
X26206733Y-9582041D01*
X26205143Y-9649304D01*
X26203270Y-9699300D01*
X26201140Y-9730601D01*
X26199430Y-9740847D01*
X26175311Y-9775938D01*
X26135630Y-9798649D01*
X26082739Y-9807877D01*
X26057341Y-9807480D01*
X26019030Y-9803402D01*
X25994244Y-9795360D01*
X25975368Y-9780446D01*
X25969498Y-9773939D01*
X25944105Y-9744419D01*
X25883782Y-9771258D01*
X25781743Y-9805390D01*
X25676191Y-9818710D01*
X25567835Y-9811150D01*
X25536765Y-9805212D01*
X25439643Y-9773564D01*
X25350032Y-9723768D01*
X25270532Y-9658267D01*
X25203744Y-9579501D01*
X25152267Y-9489912D01*
X25125968Y-9419474D01*
X25120966Y-9391822D01*
X25116731Y-9347492D01*
X25113266Y-9289423D01*
X25110571Y-9220553D01*
X25108648Y-9143820D01*
X25107498Y-9062162D01*
X25107122Y-8978517D01*
X25107521Y-8895823D01*
X25108697Y-8817019D01*
X25110652Y-8745042D01*
X25113385Y-8682831D01*
X25116900Y-8633323D01*
X25121196Y-8599457D01*
X25125601Y-8584961D01*
X25158586Y-8554407D01*
X25202601Y-8535520D01*
X25250934Y-8529380D01*
X25296876Y-8537068D01*
X25325897Y-8552693D01*
X25340810Y-8565220D01*
X25352942Y-8578475D01*
X25362582Y-8594670D01*
X25370016Y-8616017D01*
X25375532Y-8644727D01*
X25379416Y-8683011D01*
X25381957Y-8733081D01*
X25383441Y-8797147D01*
X25384156Y-8877423D01*
X25384390Y-8976118D01*
X25384406Y-9003014D01*
X25384677Y-9112088D01*
X25385564Y-9202506D01*
X25387338Y-9276778D01*
X25390271Y-9337410D01*
X25394631Y-9386913D01*
X25400690Y-9427793D01*
X25408717Y-9462560D01*
X25418985Y-9493721D01*
X25431762Y-9523785D01*
X25443045Y-9546907D01*
X25479429Y-9605693D01*
X25523485Y-9656471D01*
X25570623Y-9694513D01*
X25601899Y-9710617D01*
X25655680Y-9721484D01*
X25719453Y-9718885D01*
X25787771Y-9703840D01*
X25855193Y-9677371D01*
X25893757Y-9655923D01*
X25933812Y-9630638D01*
X25936843Y-9119881D01*
X25937593Y-9001914D01*
X25938370Y-8903272D01*
X25939249Y-8822112D01*
X25940303Y-8756595D01*
X25941608Y-8704876D01*
X25943236Y-8665116D01*
X25945263Y-8635471D01*
X25947763Y-8614101D01*
X25950810Y-8599164D01*
X25954478Y-8588817D01*
X25958544Y-8581651D01*
X25991139Y-8550664D01*
X26033768Y-8533296D01*
X26080932Y-8529284D01*
X26127130Y-8538364D01*
X26127130Y-8538364D01*
G37*
X26127130Y-8538364D02*
X26166861Y-8560274D01*
X26193696Y-8592903D01*
X26197343Y-8602397D01*
X26200407Y-8616739D01*
X26202937Y-8637661D01*
X26204981Y-8666894D01*
X26206586Y-8706170D01*
X26207803Y-8757220D01*
X26208678Y-8821776D01*
X26209260Y-8901569D01*
X26209597Y-8998332D01*
X26209738Y-9113795D01*
X26209750Y-9168827D01*
X26209548Y-9290902D01*
X26208961Y-9401414D01*
X26208014Y-9498935D01*
X26206733Y-9582041D01*
X26205143Y-9649304D01*
X26203270Y-9699300D01*
X26201140Y-9730601D01*
X26199430Y-9740847D01*
X26175311Y-9775938D01*
X26135630Y-9798649D01*
X26082739Y-9807877D01*
X26057341Y-9807480D01*
X26019030Y-9803402D01*
X25994244Y-9795360D01*
X25975368Y-9780446D01*
X25969498Y-9773939D01*
X25944105Y-9744419D01*
X25883782Y-9771258D01*
X25781743Y-9805390D01*
X25676191Y-9818710D01*
X25567835Y-9811150D01*
X25536765Y-9805212D01*
X25439643Y-9773564D01*
X25350032Y-9723768D01*
X25270532Y-9658267D01*
X25203744Y-9579501D01*
X25152267Y-9489912D01*
X25125968Y-9419474D01*
X25120966Y-9391822D01*
X25116731Y-9347492D01*
X25113266Y-9289423D01*
X25110571Y-9220553D01*
X25108648Y-9143820D01*
X25107498Y-9062162D01*
X25107122Y-8978517D01*
X25107521Y-8895823D01*
X25108697Y-8817019D01*
X25110652Y-8745042D01*
X25113385Y-8682831D01*
X25116900Y-8633323D01*
X25121196Y-8599457D01*
X25125601Y-8584961D01*
X25158586Y-8554407D01*
X25202601Y-8535520D01*
X25250934Y-8529380D01*
X25296876Y-8537068D01*
X25325897Y-8552693D01*
X25340810Y-8565220D01*
X25352942Y-8578475D01*
X25362582Y-8594670D01*
X25370016Y-8616017D01*
X25375532Y-8644727D01*
X25379416Y-8683011D01*
X25381957Y-8733081D01*
X25383441Y-8797147D01*
X25384156Y-8877423D01*
X25384390Y-8976118D01*
X25384406Y-9003014D01*
X25384677Y-9112088D01*
X25385564Y-9202506D01*
X25387338Y-9276778D01*
X25390271Y-9337410D01*
X25394631Y-9386913D01*
X25400690Y-9427793D01*
X25408717Y-9462560D01*
X25418985Y-9493721D01*
X25431762Y-9523785D01*
X25443045Y-9546907D01*
X25479429Y-9605693D01*
X25523485Y-9656471D01*
X25570623Y-9694513D01*
X25601899Y-9710617D01*
X25655680Y-9721484D01*
X25719453Y-9718885D01*
X25787771Y-9703840D01*
X25855193Y-9677371D01*
X25893757Y-9655923D01*
X25933812Y-9630638D01*
X25936843Y-9119881D01*
X25937593Y-9001914D01*
X25938370Y-8903272D01*
X25939249Y-8822112D01*
X25940303Y-8756595D01*
X25941608Y-8704876D01*
X25943236Y-8665116D01*
X25945263Y-8635471D01*
X25947763Y-8614101D01*
X25950810Y-8599164D01*
X25954478Y-8588817D01*
X25958544Y-8581651D01*
X25991139Y-8550664D01*
X26033768Y-8533296D01*
X26080932Y-8529284D01*
X26127130Y-8538364D01*
G36*
X24298531Y-8516112D02*
X24341951Y-8518886D01*
X24378794Y-8524749D01*
X24416347Y-8534791D01*
X24453384Y-8547120D01*
X24554637Y-8590712D01*
X24641882Y-8646981D01*
X24720022Y-8719093D01*
X24720529Y-8719640D01*
X24770610Y-8778700D01*
X24809004Y-8837017D01*
X24840427Y-8902610D01*
X24861619Y-8959537D01*
X24875950Y-9005786D01*
X24884784Y-9047733D01*
X24889389Y-9093767D01*
X24891034Y-9152280D01*
X24891050Y-9154166D01*
X24888921Y-9236861D01*
X24879944Y-9307000D01*
X24862413Y-9372557D01*
X24834624Y-9441507D01*
X24825456Y-9461083D01*
X24779986Y-9536945D01*
X24719087Y-9610835D01*
X24648176Y-9677332D01*
X24572669Y-9731017D01*
X24535726Y-9750960D01*
X24423062Y-9793497D01*
X24306276Y-9815403D01*
X24186602Y-9816527D01*
X24100781Y-9804670D01*
X23997202Y-9773588D01*
X23900101Y-9724079D01*
X23811900Y-9658491D01*
X23735015Y-9579172D01*
X23671867Y-9488469D01*
X23624874Y-9388729D01*
X23604942Y-9323500D01*
X23598645Y-9286438D01*
X23593844Y-9236661D01*
X23591883Y-9195704D01*
X23871960Y-9195704D01*
X23883312Y-9300867D01*
X23908522Y-9401863D01*
X23947502Y-9495493D01*
X24000164Y-9578554D01*
X24051029Y-9634268D01*
X24107359Y-9679689D01*
X24157792Y-9706454D01*
X24164896Y-9708843D01*
X24207911Y-9720449D01*
X24241750Y-9723915D01*
X24276607Y-9719284D01*
X24313176Y-9709451D01*
X24357763Y-9690497D01*
X24403870Y-9658407D01*
X24431610Y-9634139D01*
X24495444Y-9561139D01*
X24545440Y-9475193D01*
X24581507Y-9379448D01*
X24603551Y-9277055D01*
X24611481Y-9171163D01*
X24605205Y-9064919D01*
X24584630Y-8961475D01*
X24549665Y-8863979D01*
X24500216Y-8775579D01*
X24458306Y-8722310D01*
X24394812Y-8664319D01*
X24328682Y-8627175D01*
X24260989Y-8610885D01*
X24192806Y-8615455D01*
X24125204Y-8640894D01*
X24059258Y-8687208D01*
X24026105Y-8719405D01*
X23966865Y-8797394D01*
X23921917Y-8887219D01*
X23891175Y-8985680D01*
X23874552Y-9089575D01*
X23871960Y-9195704D01*
X23591883Y-9195704D01*
X23591255Y-9182605D01*
X23591003Y-9159458D01*
X23600148Y-9042426D01*
X23627435Y-8935582D01*
X23673565Y-8837122D01*
X23739235Y-8745244D01*
X23761324Y-8720339D01*
X23839087Y-8648215D01*
X23925595Y-8591865D01*
X24025971Y-8547968D01*
X24029116Y-8546856D01*
X24072286Y-8532500D01*
X24108390Y-8523239D01*
X24144613Y-8518005D01*
X24188140Y-8515730D01*
X24241250Y-8515333D01*
X24298531Y-8516112D01*
X24298531Y-8516112D01*
G37*
X24298531Y-8516112D02*
X24341951Y-8518886D01*
X24378794Y-8524749D01*
X24416347Y-8534791D01*
X24453384Y-8547120D01*
X24554637Y-8590712D01*
X24641882Y-8646981D01*
X24720022Y-8719093D01*
X24720529Y-8719640D01*
X24770610Y-8778700D01*
X24809004Y-8837017D01*
X24840427Y-8902610D01*
X24861619Y-8959537D01*
X24875950Y-9005786D01*
X24884784Y-9047733D01*
X24889389Y-9093767D01*
X24891034Y-9152280D01*
X24891050Y-9154166D01*
X24888921Y-9236861D01*
X24879944Y-9307000D01*
X24862413Y-9372557D01*
X24834624Y-9441507D01*
X24825456Y-9461083D01*
X24779986Y-9536945D01*
X24719087Y-9610835D01*
X24648176Y-9677332D01*
X24572669Y-9731017D01*
X24535726Y-9750960D01*
X24423062Y-9793497D01*
X24306276Y-9815403D01*
X24186602Y-9816527D01*
X24100781Y-9804670D01*
X23997202Y-9773588D01*
X23900101Y-9724079D01*
X23811900Y-9658491D01*
X23735015Y-9579172D01*
X23671867Y-9488469D01*
X23624874Y-9388729D01*
X23604942Y-9323500D01*
X23598645Y-9286438D01*
X23593844Y-9236661D01*
X23591883Y-9195704D01*
X23871960Y-9195704D01*
X23883312Y-9300867D01*
X23908522Y-9401863D01*
X23947502Y-9495493D01*
X24000164Y-9578554D01*
X24051029Y-9634268D01*
X24107359Y-9679689D01*
X24157792Y-9706454D01*
X24164896Y-9708843D01*
X24207911Y-9720449D01*
X24241750Y-9723915D01*
X24276607Y-9719284D01*
X24313176Y-9709451D01*
X24357763Y-9690497D01*
X24403870Y-9658407D01*
X24431610Y-9634139D01*
X24495444Y-9561139D01*
X24545440Y-9475193D01*
X24581507Y-9379448D01*
X24603551Y-9277055D01*
X24611481Y-9171163D01*
X24605205Y-9064919D01*
X24584630Y-8961475D01*
X24549665Y-8863979D01*
X24500216Y-8775579D01*
X24458306Y-8722310D01*
X24394812Y-8664319D01*
X24328682Y-8627175D01*
X24260989Y-8610885D01*
X24192806Y-8615455D01*
X24125204Y-8640894D01*
X24059258Y-8687208D01*
X24026105Y-8719405D01*
X23966865Y-8797394D01*
X23921917Y-8887219D01*
X23891175Y-8985680D01*
X23874552Y-9089575D01*
X23871960Y-9195704D01*
X23591883Y-9195704D01*
X23591255Y-9182605D01*
X23591003Y-9159458D01*
X23600148Y-9042426D01*
X23627435Y-8935582D01*
X23673565Y-8837122D01*
X23739235Y-8745244D01*
X23761324Y-8720339D01*
X23839087Y-8648215D01*
X23925595Y-8591865D01*
X24025971Y-8547968D01*
X24029116Y-8546856D01*
X24072286Y-8532500D01*
X24108390Y-8523239D01*
X24144613Y-8518005D01*
X24188140Y-8515730D01*
X24241250Y-8515333D01*
X24298531Y-8516112D01*
G36*
X15505604Y-27760624D02*
X15512560Y-27761635D01*
X15536954Y-27766860D01*
X15547438Y-27780545D01*
X15550189Y-27797087D01*
X15547191Y-27815810D01*
X15536491Y-27854048D01*
X15518150Y-27911626D01*
X15492226Y-27988367D01*
X15458781Y-28084094D01*
X15417874Y-28198630D01*
X15369564Y-28331799D01*
X15361924Y-28352712D01*
X15315044Y-28480947D01*
X15274877Y-28590792D01*
X15240841Y-28683725D01*
X15212354Y-28761227D01*
X15188832Y-28824777D01*
X15169694Y-28875853D01*
X15154357Y-28915936D01*
X15142239Y-28946504D01*
X15132757Y-28969036D01*
X15125329Y-28985013D01*
X15119373Y-28995913D01*
X15114306Y-29003216D01*
X15109546Y-29008400D01*
X15104511Y-29012946D01*
X15100622Y-29016437D01*
X15070826Y-29032326D01*
X15029544Y-29040358D01*
X14985071Y-29040208D01*
X14945702Y-29031550D01*
X14929366Y-29023140D01*
X14909849Y-29002626D01*
X14890937Y-28972296D01*
X14886242Y-28962286D01*
X14875786Y-28936283D01*
X14859647Y-28894140D01*
X14838666Y-28838193D01*
X14813687Y-28770779D01*
X14785553Y-28694233D01*
X14755107Y-28610893D01*
X14723191Y-28523094D01*
X14690649Y-28433173D01*
X14658323Y-28343467D01*
X14627057Y-28256312D01*
X14597694Y-28174043D01*
X14571076Y-28098998D01*
X14548047Y-28033513D01*
X14529449Y-27979923D01*
X14516125Y-27940567D01*
X14508920Y-27917779D01*
X14507928Y-27913762D01*
X14510132Y-27866539D01*
X14529584Y-27823047D01*
X14562380Y-27787822D01*
X14604615Y-27765398D01*
X14640567Y-27759706D01*
X14689640Y-27767994D01*
X14732001Y-27790629D01*
X14761231Y-27824100D01*
X14762424Y-27826370D01*
X14769580Y-27843251D01*
X14783095Y-27877824D01*
X14802140Y-27927871D01*
X14825886Y-27991173D01*
X14853505Y-28065513D01*
X14884167Y-28148674D01*
X14917044Y-28238439D01*
X14939259Y-28299416D01*
X14972688Y-28391096D01*
X15004061Y-28476624D01*
X15032612Y-28553946D01*
X15057575Y-28621013D01*
X15078184Y-28675771D01*
X15093672Y-28716169D01*
X15103273Y-28740155D01*
X15106086Y-28746087D01*
X15111024Y-28738014D01*
X15122332Y-28711944D01*
X15139267Y-28669815D01*
X15161083Y-28613566D01*
X15187038Y-28545135D01*
X15216387Y-28466461D01*
X15248387Y-28379482D01*
X15276709Y-28301587D01*
X15319364Y-28183565D01*
X15355396Y-28083884D01*
X15385472Y-28001016D01*
X15410260Y-27933431D01*
X15430428Y-27879601D01*
X15446644Y-27837997D01*
X15459576Y-27807088D01*
X15469892Y-27785347D01*
X15478259Y-27771243D01*
X15485346Y-27763248D01*
X15491820Y-27759833D01*
X15498350Y-27759468D01*
X15505604Y-27760624D01*
X15505604Y-27760624D01*
G37*
X15505604Y-27760624D02*
X15512560Y-27761635D01*
X15536954Y-27766860D01*
X15547438Y-27780545D01*
X15550189Y-27797087D01*
X15547191Y-27815810D01*
X15536491Y-27854048D01*
X15518150Y-27911626D01*
X15492226Y-27988367D01*
X15458781Y-28084094D01*
X15417874Y-28198630D01*
X15369564Y-28331799D01*
X15361924Y-28352712D01*
X15315044Y-28480947D01*
X15274877Y-28590792D01*
X15240841Y-28683725D01*
X15212354Y-28761227D01*
X15188832Y-28824777D01*
X15169694Y-28875853D01*
X15154357Y-28915936D01*
X15142239Y-28946504D01*
X15132757Y-28969036D01*
X15125329Y-28985013D01*
X15119373Y-28995913D01*
X15114306Y-29003216D01*
X15109546Y-29008400D01*
X15104511Y-29012946D01*
X15100622Y-29016437D01*
X15070826Y-29032326D01*
X15029544Y-29040358D01*
X14985071Y-29040208D01*
X14945702Y-29031550D01*
X14929366Y-29023140D01*
X14909849Y-29002626D01*
X14890937Y-28972296D01*
X14886242Y-28962286D01*
X14875786Y-28936283D01*
X14859647Y-28894140D01*
X14838666Y-28838193D01*
X14813687Y-28770779D01*
X14785553Y-28694233D01*
X14755107Y-28610893D01*
X14723191Y-28523094D01*
X14690649Y-28433173D01*
X14658323Y-28343467D01*
X14627057Y-28256312D01*
X14597694Y-28174043D01*
X14571076Y-28098998D01*
X14548047Y-28033513D01*
X14529449Y-27979923D01*
X14516125Y-27940567D01*
X14508920Y-27917779D01*
X14507928Y-27913762D01*
X14510132Y-27866539D01*
X14529584Y-27823047D01*
X14562380Y-27787822D01*
X14604615Y-27765398D01*
X14640567Y-27759706D01*
X14689640Y-27767994D01*
X14732001Y-27790629D01*
X14761231Y-27824100D01*
X14762424Y-27826370D01*
X14769580Y-27843251D01*
X14783095Y-27877824D01*
X14802140Y-27927871D01*
X14825886Y-27991173D01*
X14853505Y-28065513D01*
X14884167Y-28148674D01*
X14917044Y-28238439D01*
X14939259Y-28299416D01*
X14972688Y-28391096D01*
X15004061Y-28476624D01*
X15032612Y-28553946D01*
X15057575Y-28621013D01*
X15078184Y-28675771D01*
X15093672Y-28716169D01*
X15103273Y-28740155D01*
X15106086Y-28746087D01*
X15111024Y-28738014D01*
X15122332Y-28711944D01*
X15139267Y-28669815D01*
X15161083Y-28613566D01*
X15187038Y-28545135D01*
X15216387Y-28466461D01*
X15248387Y-28379482D01*
X15276709Y-28301587D01*
X15319364Y-28183565D01*
X15355396Y-28083884D01*
X15385472Y-28001016D01*
X15410260Y-27933431D01*
X15430428Y-27879601D01*
X15446644Y-27837997D01*
X15459576Y-27807088D01*
X15469892Y-27785347D01*
X15478259Y-27771243D01*
X15485346Y-27763248D01*
X15491820Y-27759833D01*
X15498350Y-27759468D01*
X15505604Y-27760624D01*
G36*
X13958312Y-27764870D02*
X14063805Y-27796467D01*
X14165276Y-27846414D01*
X14238577Y-27897122D01*
X14268455Y-27921825D01*
X14284749Y-27939866D01*
X14291054Y-27956945D01*
X14290967Y-27978759D01*
X14290867Y-27979988D01*
X14283720Y-28009534D01*
X14267824Y-28022315D01*
X14242028Y-28018314D01*
X14205183Y-27997515D01*
X14179183Y-27978437D01*
X14097248Y-27923499D01*
X14012647Y-27882759D01*
X13928365Y-27856908D01*
X13847388Y-27846636D01*
X13772701Y-27852637D01*
X13716125Y-27871175D01*
X13658693Y-27908537D01*
X13603777Y-27963474D01*
X13553856Y-28032399D01*
X13511414Y-28111720D01*
X13478932Y-28197847D01*
X13471282Y-28225333D01*
X13460101Y-28289631D01*
X13454806Y-28366198D01*
X13455390Y-28446972D01*
X13461847Y-28523891D01*
X13471607Y-28578811D01*
X13500773Y-28670097D01*
X13542045Y-28754480D01*
X13592988Y-28828419D01*
X13651165Y-28888373D01*
X13713461Y-28930456D01*
X13776123Y-28951219D01*
X13848657Y-28956991D01*
X13926951Y-28948675D01*
X14006896Y-28927172D01*
X14084381Y-28893382D01*
X14155295Y-28848208D01*
X14179677Y-28828233D01*
X14213100Y-28801814D01*
X14238763Y-28789509D01*
X14258320Y-28788173D01*
X14279767Y-28794565D01*
X14288996Y-28811650D01*
X14290837Y-28824539D01*
X14290175Y-28845314D01*
X14281262Y-28864097D01*
X14260621Y-28886574D01*
X14243212Y-28902392D01*
X14185567Y-28945309D01*
X14115480Y-28985394D01*
X14041608Y-29018125D01*
X13989062Y-29035094D01*
X13939464Y-29043742D01*
X13876518Y-29048607D01*
X13807528Y-29049707D01*
X13739798Y-29047061D01*
X13680636Y-29040688D01*
X13649012Y-29034231D01*
X13559217Y-29000824D01*
X13470816Y-28950905D01*
X13388413Y-28888125D01*
X13316613Y-28816135D01*
X13260019Y-28738584D01*
X13247062Y-28715489D01*
X13203815Y-28610841D01*
X13178711Y-28499785D01*
X13171828Y-28386041D01*
X13183245Y-28273328D01*
X13213040Y-28165362D01*
X13234457Y-28115141D01*
X13292662Y-28017200D01*
X13364503Y-27933774D01*
X13447774Y-27865342D01*
X13540267Y-27812384D01*
X13639774Y-27775378D01*
X13744089Y-27754804D01*
X13851004Y-27751142D01*
X13958312Y-27764870D01*
X13958312Y-27764870D01*
G37*
X13958312Y-27764870D02*
X14063805Y-27796467D01*
X14165276Y-27846414D01*
X14238577Y-27897122D01*
X14268455Y-27921825D01*
X14284749Y-27939866D01*
X14291054Y-27956945D01*
X14290967Y-27978759D01*
X14290867Y-27979988D01*
X14283720Y-28009534D01*
X14267824Y-28022315D01*
X14242028Y-28018314D01*
X14205183Y-27997515D01*
X14179183Y-27978437D01*
X14097248Y-27923499D01*
X14012647Y-27882759D01*
X13928365Y-27856908D01*
X13847388Y-27846636D01*
X13772701Y-27852637D01*
X13716125Y-27871175D01*
X13658693Y-27908537D01*
X13603777Y-27963474D01*
X13553856Y-28032399D01*
X13511414Y-28111720D01*
X13478932Y-28197847D01*
X13471282Y-28225333D01*
X13460101Y-28289631D01*
X13454806Y-28366198D01*
X13455390Y-28446972D01*
X13461847Y-28523891D01*
X13471607Y-28578811D01*
X13500773Y-28670097D01*
X13542045Y-28754480D01*
X13592988Y-28828419D01*
X13651165Y-28888373D01*
X13713461Y-28930456D01*
X13776123Y-28951219D01*
X13848657Y-28956991D01*
X13926951Y-28948675D01*
X14006896Y-28927172D01*
X14084381Y-28893382D01*
X14155295Y-28848208D01*
X14179677Y-28828233D01*
X14213100Y-28801814D01*
X14238763Y-28789509D01*
X14258320Y-28788173D01*
X14279767Y-28794565D01*
X14288996Y-28811650D01*
X14290837Y-28824539D01*
X14290175Y-28845314D01*
X14281262Y-28864097D01*
X14260621Y-28886574D01*
X14243212Y-28902392D01*
X14185567Y-28945309D01*
X14115480Y-28985394D01*
X14041608Y-29018125D01*
X13989062Y-29035094D01*
X13939464Y-29043742D01*
X13876518Y-29048607D01*
X13807528Y-29049707D01*
X13739798Y-29047061D01*
X13680636Y-29040688D01*
X13649012Y-29034231D01*
X13559217Y-29000824D01*
X13470816Y-28950905D01*
X13388413Y-28888125D01*
X13316613Y-28816135D01*
X13260019Y-28738584D01*
X13247062Y-28715489D01*
X13203815Y-28610841D01*
X13178711Y-28499785D01*
X13171828Y-28386041D01*
X13183245Y-28273328D01*
X13213040Y-28165362D01*
X13234457Y-28115141D01*
X13292662Y-28017200D01*
X13364503Y-27933774D01*
X13447774Y-27865342D01*
X13540267Y-27812384D01*
X13639774Y-27775378D01*
X13744089Y-27754804D01*
X13851004Y-27751142D01*
X13958312Y-27764870D01*
G36*
X24731384Y-33217346D02*
X24750496Y-33224747D01*
X24767917Y-33233272D01*
X24782054Y-33242089D01*
X24793286Y-33253382D01*
X24801994Y-33269334D01*
X24808555Y-33292128D01*
X24813350Y-33323948D01*
X24816758Y-33366975D01*
X24819157Y-33423394D01*
X24820928Y-33495388D01*
X24822449Y-33585139D01*
X24823333Y-33644000D01*
X24828625Y-33998541D01*
X25146125Y-34009125D01*
X25146125Y-34083208D01*
X24987375Y-34088500D01*
X24828625Y-34093791D01*
X24828625Y-34416583D01*
X24828692Y-34508376D01*
X24829007Y-34581796D01*
X24829743Y-34639637D01*
X24831074Y-34684692D01*
X24833171Y-34719756D01*
X24836207Y-34747622D01*
X24840355Y-34771084D01*
X24845788Y-34792936D01*
X24852678Y-34815971D01*
X24853465Y-34818483D01*
X24882419Y-34899623D01*
X24914432Y-34965466D01*
X24952705Y-35021879D01*
X24984344Y-35058275D01*
X25040625Y-35108746D01*
X25096962Y-35142066D01*
X25150767Y-35156803D01*
X25163318Y-35157416D01*
X25204241Y-35163584D01*
X25228157Y-35181889D01*
X25234709Y-35212036D01*
X25234345Y-35216146D01*
X25230792Y-35247375D01*
X25151417Y-35249279D01*
X25104131Y-35248334D01*
X25057642Y-35244009D01*
X25023353Y-35237550D01*
X24914481Y-35196516D01*
X24816230Y-35138070D01*
X24730499Y-35063809D01*
X24659189Y-34975332D01*
X24612012Y-34891600D01*
X24599784Y-34865042D01*
X24589211Y-34840209D01*
X24580182Y-34815410D01*
X24572581Y-34788960D01*
X24566297Y-34759169D01*
X24561215Y-34724351D01*
X24557222Y-34682817D01*
X24554205Y-34632880D01*
X24552050Y-34572852D01*
X24550645Y-34501045D01*
X24549875Y-34415772D01*
X24549627Y-34315344D01*
X24549788Y-34198074D01*
X24550245Y-34062274D01*
X24550589Y-33977181D01*
X24553458Y-33284565D01*
X24586567Y-33251460D01*
X24629180Y-33222912D01*
X24679558Y-33211198D01*
X24731384Y-33217346D01*
X24731384Y-33217346D01*
G37*
X24731384Y-33217346D02*
X24750496Y-33224747D01*
X24767917Y-33233272D01*
X24782054Y-33242089D01*
X24793286Y-33253382D01*
X24801994Y-33269334D01*
X24808555Y-33292128D01*
X24813350Y-33323948D01*
X24816758Y-33366975D01*
X24819157Y-33423394D01*
X24820928Y-33495388D01*
X24822449Y-33585139D01*
X24823333Y-33644000D01*
X24828625Y-33998541D01*
X25146125Y-34009125D01*
X25146125Y-34083208D01*
X24987375Y-34088500D01*
X24828625Y-34093791D01*
X24828625Y-34416583D01*
X24828692Y-34508376D01*
X24829007Y-34581796D01*
X24829743Y-34639637D01*
X24831074Y-34684692D01*
X24833171Y-34719756D01*
X24836207Y-34747622D01*
X24840355Y-34771084D01*
X24845788Y-34792936D01*
X24852678Y-34815971D01*
X24853465Y-34818483D01*
X24882419Y-34899623D01*
X24914432Y-34965466D01*
X24952705Y-35021879D01*
X24984344Y-35058275D01*
X25040625Y-35108746D01*
X25096962Y-35142066D01*
X25150767Y-35156803D01*
X25163318Y-35157416D01*
X25204241Y-35163584D01*
X25228157Y-35181889D01*
X25234709Y-35212036D01*
X25234345Y-35216146D01*
X25230792Y-35247375D01*
X25151417Y-35249279D01*
X25104131Y-35248334D01*
X25057642Y-35244009D01*
X25023353Y-35237550D01*
X24914481Y-35196516D01*
X24816230Y-35138070D01*
X24730499Y-35063809D01*
X24659189Y-34975332D01*
X24612012Y-34891600D01*
X24599784Y-34865042D01*
X24589211Y-34840209D01*
X24580182Y-34815410D01*
X24572581Y-34788960D01*
X24566297Y-34759169D01*
X24561215Y-34724351D01*
X24557222Y-34682817D01*
X24554205Y-34632880D01*
X24552050Y-34572852D01*
X24550645Y-34501045D01*
X24549875Y-34415772D01*
X24549627Y-34315344D01*
X24549788Y-34198074D01*
X24550245Y-34062274D01*
X24550589Y-33977181D01*
X24553458Y-33284565D01*
X24586567Y-33251460D01*
X24629180Y-33222912D01*
X24679558Y-33211198D01*
X24731384Y-33217346D01*
G36*
X28967158Y-33971930D02*
X29077237Y-34001246D01*
X29178762Y-34048505D01*
X29269966Y-34112396D01*
X29349080Y-34191610D01*
X29414337Y-34284837D01*
X29463971Y-34390766D01*
X29475752Y-34425474D01*
X29484800Y-34463922D01*
X29492294Y-34512840D01*
X29497661Y-34565572D01*
X29500331Y-34615460D01*
X29499733Y-34655847D01*
X29497125Y-34674662D01*
X29490126Y-34702548D01*
X29011459Y-34699795D01*
X28532792Y-34697041D01*
X28529238Y-34665813D01*
X28528076Y-34650171D01*
X28529878Y-34637585D01*
X28536681Y-34627723D01*
X28550517Y-34620252D01*
X28573423Y-34614842D01*
X28607431Y-34611161D01*
X28654577Y-34608876D01*
X28716895Y-34607656D01*
X28796420Y-34607169D01*
X28889356Y-34607083D01*
X29215417Y-34607083D01*
X29215417Y-34555859D01*
X29210279Y-34499056D01*
X29196291Y-34432016D01*
X29175595Y-34362591D01*
X29150328Y-34298634D01*
X29139072Y-34275677D01*
X29104281Y-34220608D01*
X29060627Y-34167616D01*
X29013253Y-34122105D01*
X28967302Y-34089479D01*
X28956550Y-34083927D01*
X28887403Y-34061589D01*
X28819732Y-34060308D01*
X28753433Y-34080106D01*
X28688401Y-34121007D01*
X28654992Y-34150680D01*
X28590307Y-34228498D01*
X28540005Y-34320345D01*
X28504920Y-34423987D01*
X28485887Y-34537191D01*
X28482513Y-34612323D01*
X28491114Y-34737314D01*
X28516830Y-34849953D01*
X28559728Y-34950434D01*
X28619877Y-35038953D01*
X28639254Y-35061011D01*
X28692094Y-35111365D01*
X28743228Y-35144289D01*
X28797986Y-35162321D01*
X28861696Y-35167994D01*
X28864130Y-35168000D01*
X28959850Y-35158985D01*
X29051301Y-35131329D01*
X29140958Y-35084112D01*
X29196897Y-35044482D01*
X29243283Y-35013211D01*
X29278985Y-34999539D01*
X29303709Y-35003483D01*
X29317161Y-35025062D01*
X29319176Y-35037039D01*
X29318167Y-35060014D01*
X29307329Y-35079982D01*
X29282769Y-35103869D01*
X29280477Y-35105831D01*
X29208613Y-35158646D01*
X29126723Y-35205188D01*
X29061240Y-35233629D01*
X29011987Y-35246460D01*
X28948489Y-35255486D01*
X28877361Y-35260478D01*
X28805221Y-35261207D01*
X28738683Y-35257445D01*
X28684366Y-35248963D01*
X28676424Y-35246924D01*
X28567235Y-35206190D01*
X28469825Y-35148874D01*
X28385458Y-35076761D01*
X28315395Y-34991639D01*
X28260900Y-34895294D01*
X28223234Y-34789513D01*
X28203660Y-34676081D01*
X28202146Y-34575779D01*
X28218479Y-34459582D01*
X28253190Y-34351826D01*
X28304662Y-34254039D01*
X28371282Y-34167750D01*
X28451436Y-34094489D01*
X28543508Y-34035784D01*
X28645886Y-33993165D01*
X28756954Y-33968161D01*
X28850292Y-33961867D01*
X28967158Y-33971930D01*
X28967158Y-33971930D01*
G37*
X28967158Y-33971930D02*
X29077237Y-34001246D01*
X29178762Y-34048505D01*
X29269966Y-34112396D01*
X29349080Y-34191610D01*
X29414337Y-34284837D01*
X29463971Y-34390766D01*
X29475752Y-34425474D01*
X29484800Y-34463922D01*
X29492294Y-34512840D01*
X29497661Y-34565572D01*
X29500331Y-34615460D01*
X29499733Y-34655847D01*
X29497125Y-34674662D01*
X29490126Y-34702548D01*
X29011459Y-34699795D01*
X28532792Y-34697041D01*
X28529238Y-34665813D01*
X28528076Y-34650171D01*
X28529878Y-34637585D01*
X28536681Y-34627723D01*
X28550517Y-34620252D01*
X28573423Y-34614842D01*
X28607431Y-34611161D01*
X28654577Y-34608876D01*
X28716895Y-34607656D01*
X28796420Y-34607169D01*
X28889356Y-34607083D01*
X29215417Y-34607083D01*
X29215417Y-34555859D01*
X29210279Y-34499056D01*
X29196291Y-34432016D01*
X29175595Y-34362591D01*
X29150328Y-34298634D01*
X29139072Y-34275677D01*
X29104281Y-34220608D01*
X29060627Y-34167616D01*
X29013253Y-34122105D01*
X28967302Y-34089479D01*
X28956550Y-34083927D01*
X28887403Y-34061589D01*
X28819732Y-34060308D01*
X28753433Y-34080106D01*
X28688401Y-34121007D01*
X28654992Y-34150680D01*
X28590307Y-34228498D01*
X28540005Y-34320345D01*
X28504920Y-34423987D01*
X28485887Y-34537191D01*
X28482513Y-34612323D01*
X28491114Y-34737314D01*
X28516830Y-34849953D01*
X28559728Y-34950434D01*
X28619877Y-35038953D01*
X28639254Y-35061011D01*
X28692094Y-35111365D01*
X28743228Y-35144289D01*
X28797986Y-35162321D01*
X28861696Y-35167994D01*
X28864130Y-35168000D01*
X28959850Y-35158985D01*
X29051301Y-35131329D01*
X29140958Y-35084112D01*
X29196897Y-35044482D01*
X29243283Y-35013211D01*
X29278985Y-34999539D01*
X29303709Y-35003483D01*
X29317161Y-35025062D01*
X29319176Y-35037039D01*
X29318167Y-35060014D01*
X29307329Y-35079982D01*
X29282769Y-35103869D01*
X29280477Y-35105831D01*
X29208613Y-35158646D01*
X29126723Y-35205188D01*
X29061240Y-35233629D01*
X29011987Y-35246460D01*
X28948489Y-35255486D01*
X28877361Y-35260478D01*
X28805221Y-35261207D01*
X28738683Y-35257445D01*
X28684366Y-35248963D01*
X28676424Y-35246924D01*
X28567235Y-35206190D01*
X28469825Y-35148874D01*
X28385458Y-35076761D01*
X28315395Y-34991639D01*
X28260900Y-34895294D01*
X28223234Y-34789513D01*
X28203660Y-34676081D01*
X28202146Y-34575779D01*
X28218479Y-34459582D01*
X28253190Y-34351826D01*
X28304662Y-34254039D01*
X28371282Y-34167750D01*
X28451436Y-34094489D01*
X28543508Y-34035784D01*
X28645886Y-33993165D01*
X28756954Y-33968161D01*
X28850292Y-33961867D01*
X28967158Y-33971930D01*
G36*
X27464971Y-33977755D02*
X27560846Y-33999446D01*
X27650896Y-34037205D01*
X27732853Y-34089898D01*
X27804452Y-34156389D01*
X27863426Y-34235546D01*
X27907509Y-34326232D01*
X27929894Y-34403277D01*
X27934627Y-34436583D01*
X27938568Y-34485993D01*
X27941715Y-34548336D01*
X27944066Y-34620444D01*
X27945620Y-34699147D01*
X27946374Y-34781275D01*
X27946326Y-34863660D01*
X27945475Y-34943132D01*
X27943818Y-35016521D01*
X27941354Y-35080659D01*
X27938080Y-35132375D01*
X27933995Y-35168501D01*
X27930375Y-35183512D01*
X27905083Y-35218507D01*
X27865863Y-35243396D01*
X27818457Y-35255891D01*
X27768609Y-35253705D01*
X27759625Y-35251522D01*
X27729329Y-35237187D01*
X27701606Y-35215227D01*
X27701417Y-35215026D01*
X27675542Y-35187505D01*
X27669399Y-34794106D01*
X27667616Y-34685913D01*
X27665761Y-34596417D01*
X27663528Y-34523149D01*
X27660613Y-34463639D01*
X27656711Y-34415421D01*
X27651517Y-34376024D01*
X27644727Y-34342981D01*
X27636035Y-34313822D01*
X27625137Y-34286079D01*
X27611728Y-34257282D01*
X27600298Y-34234411D01*
X27558244Y-34167987D01*
X27508112Y-34116924D01*
X27452279Y-34083010D01*
X27393122Y-34068035D01*
X27378513Y-34067458D01*
X27322320Y-34073271D01*
X27261068Y-34088653D01*
X27202412Y-34110984D01*
X27154009Y-34137643D01*
X27138437Y-34149624D01*
X27134059Y-34154701D01*
X27130427Y-34162799D01*
X27127471Y-34175777D01*
X27125121Y-34195493D01*
X27123310Y-34223805D01*
X27121967Y-34262571D01*
X27121023Y-34313650D01*
X27120409Y-34378899D01*
X27120056Y-34460178D01*
X27119895Y-34559343D01*
X27119857Y-34648411D01*
X27119584Y-34774878D01*
X27118812Y-34885730D01*
X27117560Y-34980020D01*
X27115849Y-35056801D01*
X27113700Y-35115123D01*
X27111133Y-35154039D01*
X27108625Y-35171196D01*
X27087376Y-35212033D01*
X27050405Y-35238909D01*
X26998109Y-35251584D01*
X26974563Y-35252627D01*
X26937154Y-35250390D01*
X26910583Y-35241316D01*
X26884792Y-35221958D01*
X26884604Y-35221790D01*
X26850042Y-35190913D01*
X26847126Y-34623043D01*
X26844210Y-34055172D01*
X26880463Y-34018919D01*
X26902666Y-33998606D01*
X26922701Y-33987732D01*
X26948716Y-33983391D01*
X26982089Y-33982666D01*
X27020288Y-33983839D01*
X27045174Y-33989032D01*
X27064546Y-34000762D01*
X27078558Y-34013763D01*
X27109654Y-34044859D01*
X27165056Y-34020433D01*
X27264810Y-33987114D01*
X27365537Y-33973266D01*
X27464971Y-33977755D01*
X27464971Y-33977755D01*
G37*
X27464971Y-33977755D02*
X27560846Y-33999446D01*
X27650896Y-34037205D01*
X27732853Y-34089898D01*
X27804452Y-34156389D01*
X27863426Y-34235546D01*
X27907509Y-34326232D01*
X27929894Y-34403277D01*
X27934627Y-34436583D01*
X27938568Y-34485993D01*
X27941715Y-34548336D01*
X27944066Y-34620444D01*
X27945620Y-34699147D01*
X27946374Y-34781275D01*
X27946326Y-34863660D01*
X27945475Y-34943132D01*
X27943818Y-35016521D01*
X27941354Y-35080659D01*
X27938080Y-35132375D01*
X27933995Y-35168501D01*
X27930375Y-35183512D01*
X27905083Y-35218507D01*
X27865863Y-35243396D01*
X27818457Y-35255891D01*
X27768609Y-35253705D01*
X27759625Y-35251522D01*
X27729329Y-35237187D01*
X27701606Y-35215227D01*
X27701417Y-35215026D01*
X27675542Y-35187505D01*
X27669399Y-34794106D01*
X27667616Y-34685913D01*
X27665761Y-34596417D01*
X27663528Y-34523149D01*
X27660613Y-34463639D01*
X27656711Y-34415421D01*
X27651517Y-34376024D01*
X27644727Y-34342981D01*
X27636035Y-34313822D01*
X27625137Y-34286079D01*
X27611728Y-34257282D01*
X27600298Y-34234411D01*
X27558244Y-34167987D01*
X27508112Y-34116924D01*
X27452279Y-34083010D01*
X27393122Y-34068035D01*
X27378513Y-34067458D01*
X27322320Y-34073271D01*
X27261068Y-34088653D01*
X27202412Y-34110984D01*
X27154009Y-34137643D01*
X27138437Y-34149624D01*
X27134059Y-34154701D01*
X27130427Y-34162799D01*
X27127471Y-34175777D01*
X27125121Y-34195493D01*
X27123310Y-34223805D01*
X27121967Y-34262571D01*
X27121023Y-34313650D01*
X27120409Y-34378899D01*
X27120056Y-34460178D01*
X27119895Y-34559343D01*
X27119857Y-34648411D01*
X27119584Y-34774878D01*
X27118812Y-34885730D01*
X27117560Y-34980020D01*
X27115849Y-35056801D01*
X27113700Y-35115123D01*
X27111133Y-35154039D01*
X27108625Y-35171196D01*
X27087376Y-35212033D01*
X27050405Y-35238909D01*
X26998109Y-35251584D01*
X26974563Y-35252627D01*
X26937154Y-35250390D01*
X26910583Y-35241316D01*
X26884792Y-35221958D01*
X26884604Y-35221790D01*
X26850042Y-35190913D01*
X26847126Y-34623043D01*
X26844210Y-34055172D01*
X26880463Y-34018919D01*
X26902666Y-33998606D01*
X26922701Y-33987732D01*
X26948716Y-33983391D01*
X26982089Y-33982666D01*
X27020288Y-33983839D01*
X27045174Y-33989032D01*
X27064546Y-34000762D01*
X27078558Y-34013763D01*
X27109654Y-34044859D01*
X27165056Y-34020433D01*
X27264810Y-33987114D01*
X27365537Y-33973266D01*
X27464971Y-33977755D01*
G36*
X26063459Y-33968389D02*
X26129111Y-33976948D01*
X26167417Y-33986735D01*
X26280421Y-34035140D01*
X26379714Y-34098673D01*
X26464240Y-34176181D01*
X26532942Y-34266508D01*
X26584765Y-34368498D01*
X26618460Y-34480083D01*
X26630413Y-34583713D01*
X26625080Y-34692124D01*
X26603509Y-34799810D01*
X26566749Y-34901266D01*
X26523263Y-34980127D01*
X26457786Y-35061294D01*
X26377025Y-35133099D01*
X26285832Y-35192078D01*
X26189061Y-35234769D01*
X26150014Y-35246473D01*
X26100137Y-35255284D01*
X26037367Y-35260501D01*
X25968679Y-35262114D01*
X25901049Y-35260113D01*
X25841452Y-35254487D01*
X25802792Y-35246978D01*
X25696394Y-35207400D01*
X25601126Y-35151320D01*
X25518086Y-35080875D01*
X25448374Y-34998204D01*
X25393089Y-34905442D01*
X25353331Y-34804728D01*
X25330198Y-34698198D01*
X25328346Y-34660441D01*
X25608521Y-34660441D01*
X25623111Y-34772397D01*
X25642645Y-34846874D01*
X25678055Y-34934110D01*
X25724466Y-35012275D01*
X25779292Y-35078085D01*
X25839950Y-35128257D01*
X25882397Y-35151416D01*
X25939852Y-35166122D01*
X26004064Y-35165822D01*
X26067272Y-35150916D01*
X26091020Y-35140712D01*
X26145690Y-35104467D01*
X26199329Y-35052596D01*
X26247115Y-34990298D01*
X26274941Y-34942399D01*
X26313306Y-34848093D01*
X26337206Y-34748459D01*
X26347265Y-34646202D01*
X26344107Y-34544030D01*
X26328357Y-34444646D01*
X26300639Y-34350758D01*
X26261577Y-34265071D01*
X26211796Y-34190290D01*
X26151919Y-34129122D01*
X26082571Y-34084271D01*
X26076265Y-34081300D01*
X26009036Y-34060431D01*
X25943281Y-34060271D01*
X25878556Y-34080942D01*
X25814420Y-34122567D01*
X25767380Y-34166612D01*
X25706721Y-34245562D01*
X25659899Y-34337726D01*
X25627521Y-34439799D01*
X25610193Y-34548473D01*
X25608521Y-34660441D01*
X25328346Y-34660441D01*
X25324791Y-34587991D01*
X25338209Y-34476243D01*
X25362148Y-34390242D01*
X25408983Y-34288183D01*
X25473250Y-34196204D01*
X25552791Y-34116364D01*
X25645448Y-34050721D01*
X25749065Y-34001336D01*
X25781125Y-33990264D01*
X25841170Y-33976501D01*
X25912739Y-33968227D01*
X25989085Y-33965502D01*
X26063459Y-33968389D01*
X26063459Y-33968389D01*
G37*
X26063459Y-33968389D02*
X26129111Y-33976948D01*
X26167417Y-33986735D01*
X26280421Y-34035140D01*
X26379714Y-34098673D01*
X26464240Y-34176181D01*
X26532942Y-34266508D01*
X26584765Y-34368498D01*
X26618460Y-34480083D01*
X26630413Y-34583713D01*
X26625080Y-34692124D01*
X26603509Y-34799810D01*
X26566749Y-34901266D01*
X26523263Y-34980127D01*
X26457786Y-35061294D01*
X26377025Y-35133099D01*
X26285832Y-35192078D01*
X26189061Y-35234769D01*
X26150014Y-35246473D01*
X26100137Y-35255284D01*
X26037367Y-35260501D01*
X25968679Y-35262114D01*
X25901049Y-35260113D01*
X25841452Y-35254487D01*
X25802792Y-35246978D01*
X25696394Y-35207400D01*
X25601126Y-35151320D01*
X25518086Y-35080875D01*
X25448374Y-34998204D01*
X25393089Y-34905442D01*
X25353331Y-34804728D01*
X25330198Y-34698198D01*
X25328346Y-34660441D01*
X25608521Y-34660441D01*
X25623111Y-34772397D01*
X25642645Y-34846874D01*
X25678055Y-34934110D01*
X25724466Y-35012275D01*
X25779292Y-35078085D01*
X25839950Y-35128257D01*
X25882397Y-35151416D01*
X25939852Y-35166122D01*
X26004064Y-35165822D01*
X26067272Y-35150916D01*
X26091020Y-35140712D01*
X26145690Y-35104467D01*
X26199329Y-35052596D01*
X26247115Y-34990298D01*
X26274941Y-34942399D01*
X26313306Y-34848093D01*
X26337206Y-34748459D01*
X26347265Y-34646202D01*
X26344107Y-34544030D01*
X26328357Y-34444646D01*
X26300639Y-34350758D01*
X26261577Y-34265071D01*
X26211796Y-34190290D01*
X26151919Y-34129122D01*
X26082571Y-34084271D01*
X26076265Y-34081300D01*
X26009036Y-34060431D01*
X25943281Y-34060271D01*
X25878556Y-34080942D01*
X25814420Y-34122567D01*
X25767380Y-34166612D01*
X25706721Y-34245562D01*
X25659899Y-34337726D01*
X25627521Y-34439799D01*
X25610193Y-34548473D01*
X25608521Y-34660441D01*
X25328346Y-34660441D01*
X25324791Y-34587991D01*
X25338209Y-34476243D01*
X25362148Y-34390242D01*
X25408983Y-34288183D01*
X25473250Y-34196204D01*
X25552791Y-34116364D01*
X25645448Y-34050721D01*
X25749065Y-34001336D01*
X25781125Y-33990264D01*
X25841170Y-33976501D01*
X25912739Y-33968227D01*
X25989085Y-33965502D01*
X26063459Y-33968389D01*
G04 #@! TD*
M02*
