G04 #@! TF.GenerationSoftware,KiCad,Pcbnew,(5.0.0)*
G04 #@! TF.CreationDate,2019-01-13T17:55:36+01:00*
G04 #@! TF.ProjectId,1u_complex_bus_frontboard,31755F636F6D706C65785F6275735F66,rev?*
G04 #@! TF.SameCoordinates,Original*
G04 #@! TF.FileFunction,Legend,Bot*
G04 #@! TF.FilePolarity,Positive*
%FSLAX46Y46*%
G04 Gerber Fmt 4.6, Leading zero omitted, Abs format (unit mm)*
G04 Created by KiCad (PCBNEW (5.0.0)) date 01/13/19 17:55:36*
%MOMM*%
%LPD*%
G01*
G04 APERTURE LIST*
%ADD10C,0.120000*%
%ADD11C,0.150000*%
G04 APERTURE END LIST*
D10*
G04 #@! TO.C,J_FB1.2*
X10410000Y-1170000D02*
X10410000Y-3830000D01*
X5270000Y-1170000D02*
X10410000Y-1170000D01*
X5270000Y-3830000D02*
X10410000Y-3830000D01*
X5270000Y-1170000D02*
X5270000Y-3830000D01*
X4000000Y-1170000D02*
X2670000Y-1170000D01*
X2670000Y-1170000D02*
X2670000Y-2500000D01*
G04 #@! TO.C,J_FB1.1*
X55830000Y-16490000D02*
X50630000Y-16490000D01*
X55830000Y-6270000D02*
X55830000Y-16490000D01*
X50630000Y-3670000D02*
X50630000Y-16490000D01*
X55830000Y-6270000D02*
X53230000Y-6270000D01*
X53230000Y-6270000D02*
X53230000Y-3670000D01*
X53230000Y-3670000D02*
X50630000Y-3670000D01*
X55830000Y-5000000D02*
X55830000Y-3670000D01*
X55830000Y-3670000D02*
X54500000Y-3670000D01*
G04 #@! TO.C,J_FB2.2*
X15670000Y-1170000D02*
X15670000Y-2500000D01*
X17000000Y-1170000D02*
X15670000Y-1170000D01*
X18270000Y-1170000D02*
X18270000Y-3830000D01*
X18270000Y-3830000D02*
X23410000Y-3830000D01*
X18270000Y-1170000D02*
X23410000Y-1170000D01*
X23410000Y-1170000D02*
X23410000Y-3830000D01*
G04 #@! TO.C,J_FB2.1*
X115830000Y-3670000D02*
X114500000Y-3670000D01*
X115830000Y-5000000D02*
X115830000Y-3670000D01*
X113230000Y-3670000D02*
X110630000Y-3670000D01*
X113230000Y-6270000D02*
X113230000Y-3670000D01*
X115830000Y-6270000D02*
X113230000Y-6270000D01*
X110630000Y-3670000D02*
X110630000Y-16490000D01*
X115830000Y-6270000D02*
X115830000Y-16490000D01*
X115830000Y-16490000D02*
X110630000Y-16490000D01*
G04 #@! TO.C,J_FB3.1*
X415830000Y-16490000D02*
X410630000Y-16490000D01*
X415830000Y-6270000D02*
X415830000Y-16490000D01*
X410630000Y-3670000D02*
X410630000Y-16490000D01*
X415830000Y-6270000D02*
X413230000Y-6270000D01*
X413230000Y-6270000D02*
X413230000Y-3670000D01*
X413230000Y-3670000D02*
X410630000Y-3670000D01*
X415830000Y-5000000D02*
X415830000Y-3670000D01*
X415830000Y-3670000D02*
X414500000Y-3670000D01*
G04 #@! TO.C,J_FB3.2*
X502590000Y-3830000D02*
X502590000Y-1170000D01*
X507730000Y-3830000D02*
X502590000Y-3830000D01*
X507730000Y-1170000D02*
X502590000Y-1170000D01*
X507730000Y-3830000D02*
X507730000Y-1170000D01*
X509000000Y-3830000D02*
X510330000Y-3830000D01*
X510330000Y-3830000D02*
X510330000Y-2500000D01*
G04 #@! TO.C,J_FB4.2*
X523330000Y-3830000D02*
X523330000Y-2500000D01*
X522000000Y-3830000D02*
X523330000Y-3830000D01*
X520730000Y-3830000D02*
X520730000Y-1170000D01*
X520730000Y-1170000D02*
X515590000Y-1170000D01*
X520730000Y-3830000D02*
X515590000Y-3830000D01*
X515590000Y-3830000D02*
X515590000Y-1170000D01*
G04 #@! TO.C,J_FB4.1*
X475830000Y-3670000D02*
X474500000Y-3670000D01*
X475830000Y-5000000D02*
X475830000Y-3670000D01*
X473230000Y-3670000D02*
X470630000Y-3670000D01*
X473230000Y-6270000D02*
X473230000Y-3670000D01*
X475830000Y-6270000D02*
X473230000Y-6270000D01*
X470630000Y-3670000D02*
X470630000Y-16490000D01*
X475830000Y-6270000D02*
X475830000Y-16490000D01*
X475830000Y-16490000D02*
X470630000Y-16490000D01*
G04 #@! TO.C,J_FB1.2*
D11*
X952380Y-1142857D02*
X1666666Y-1142857D01*
X1809523Y-1095238D01*
X1904761Y-999999D01*
X1952380Y-857142D01*
X1952380Y-761904D01*
X2047619Y-1380952D02*
X2047619Y-2142857D01*
X1428571Y-2714285D02*
X1428571Y-2380952D01*
X1952380Y-2380952D02*
X952380Y-2380952D01*
X952380Y-2857142D01*
X1428571Y-3571428D02*
X1476190Y-3714285D01*
X1523809Y-3761904D01*
X1619047Y-3809523D01*
X1761904Y-3809523D01*
X1857142Y-3761904D01*
X1904761Y-3714285D01*
X1952380Y-3619047D01*
X1952380Y-3238095D01*
X952380Y-3238095D01*
X952380Y-3571428D01*
X1000000Y-3666666D01*
X1047619Y-3714285D01*
X1142857Y-3761904D01*
X1238095Y-3761904D01*
X1333333Y-3714285D01*
X1380952Y-3666666D01*
X1428571Y-3571428D01*
X1428571Y-3238095D01*
X1952380Y-4761904D02*
X1952380Y-4190476D01*
X1952380Y-4476190D02*
X952380Y-4476190D01*
X1095238Y-4380952D01*
X1190476Y-4285714D01*
X1238095Y-4190476D01*
X1857142Y-5190476D02*
X1904761Y-5238095D01*
X1952380Y-5190476D01*
X1904761Y-5142857D01*
X1857142Y-5190476D01*
X1952380Y-5190476D01*
X1047619Y-5619047D02*
X999999Y-5666666D01*
X952380Y-5761904D01*
X952380Y-6000000D01*
X999999Y-6095238D01*
X1047619Y-6142857D01*
X1142857Y-6190476D01*
X1238095Y-6190476D01*
X1380952Y-6142857D01*
X1952380Y-5571428D01*
X1952380Y-6190476D01*
G04 #@! TO.C,J_FB1.1*
X55587142Y-2122380D02*
X55587142Y-2836666D01*
X55634761Y-2979523D01*
X55730000Y-3074761D01*
X55872857Y-3122380D01*
X55968095Y-3122380D01*
X55349047Y-3217619D02*
X54587142Y-3217619D01*
X54015714Y-2598571D02*
X54349047Y-2598571D01*
X54349047Y-3122380D02*
X54349047Y-2122380D01*
X53872857Y-2122380D01*
X53158571Y-2598571D02*
X53015714Y-2646190D01*
X52968095Y-2693809D01*
X52920476Y-2789047D01*
X52920476Y-2931904D01*
X52968095Y-3027142D01*
X53015714Y-3074761D01*
X53110952Y-3122380D01*
X53491904Y-3122380D01*
X53491904Y-2122380D01*
X53158571Y-2122380D01*
X53063333Y-2170000D01*
X53015714Y-2217619D01*
X52968095Y-2312857D01*
X52968095Y-2408095D01*
X53015714Y-2503333D01*
X53063333Y-2550952D01*
X53158571Y-2598571D01*
X53491904Y-2598571D01*
X51968095Y-3122380D02*
X52539523Y-3122380D01*
X52253809Y-3122380D02*
X52253809Y-2122380D01*
X52349047Y-2265238D01*
X52444285Y-2360476D01*
X52539523Y-2408095D01*
X51539523Y-3027142D02*
X51491904Y-3074761D01*
X51539523Y-3122380D01*
X51587142Y-3074761D01*
X51539523Y-3027142D01*
X51539523Y-3122380D01*
X50539523Y-3122380D02*
X51110952Y-3122380D01*
X50825238Y-3122380D02*
X50825238Y-2122380D01*
X50920476Y-2265238D01*
X51015714Y-2360476D01*
X51110952Y-2408095D01*
G04 #@! TO.C,J_FB2.2*
X13952380Y-1142857D02*
X14666666Y-1142857D01*
X14809523Y-1095238D01*
X14904761Y-1000000D01*
X14952380Y-857142D01*
X14952380Y-761904D01*
X15047619Y-1380952D02*
X15047619Y-2142857D01*
X14428571Y-2714285D02*
X14428571Y-2380952D01*
X14952380Y-2380952D02*
X13952380Y-2380952D01*
X13952380Y-2857142D01*
X14428571Y-3571428D02*
X14476190Y-3714285D01*
X14523809Y-3761904D01*
X14619047Y-3809523D01*
X14761904Y-3809523D01*
X14857142Y-3761904D01*
X14904761Y-3714285D01*
X14952380Y-3619047D01*
X14952380Y-3238095D01*
X13952380Y-3238095D01*
X13952380Y-3571428D01*
X14000000Y-3666666D01*
X14047619Y-3714285D01*
X14142857Y-3761904D01*
X14238095Y-3761904D01*
X14333333Y-3714285D01*
X14380952Y-3666666D01*
X14428571Y-3571428D01*
X14428571Y-3238095D01*
X14047619Y-4190476D02*
X14000000Y-4238095D01*
X13952380Y-4333333D01*
X13952380Y-4571428D01*
X14000000Y-4666666D01*
X14047619Y-4714285D01*
X14142857Y-4761904D01*
X14238095Y-4761904D01*
X14380952Y-4714285D01*
X14952380Y-4142857D01*
X14952380Y-4761904D01*
X14857142Y-5190476D02*
X14904761Y-5238095D01*
X14952380Y-5190476D01*
X14904761Y-5142857D01*
X14857142Y-5190476D01*
X14952380Y-5190476D01*
X14047619Y-5619047D02*
X14000000Y-5666666D01*
X13952380Y-5761904D01*
X13952380Y-6000000D01*
X14000000Y-6095238D01*
X14047619Y-6142857D01*
X14142857Y-6190476D01*
X14238095Y-6190476D01*
X14380952Y-6142857D01*
X14952380Y-5571428D01*
X14952380Y-6190476D01*
G04 #@! TO.C,J_FB2.1*
X115587142Y-2122380D02*
X115587142Y-2836666D01*
X115634761Y-2979523D01*
X115730000Y-3074761D01*
X115872857Y-3122380D01*
X115968095Y-3122380D01*
X115349047Y-3217619D02*
X114587142Y-3217619D01*
X114015714Y-2598571D02*
X114349047Y-2598571D01*
X114349047Y-3122380D02*
X114349047Y-2122380D01*
X113872857Y-2122380D01*
X113158571Y-2598571D02*
X113015714Y-2646190D01*
X112968095Y-2693809D01*
X112920476Y-2789047D01*
X112920476Y-2931904D01*
X112968095Y-3027142D01*
X113015714Y-3074761D01*
X113110952Y-3122380D01*
X113491904Y-3122380D01*
X113491904Y-2122380D01*
X113158571Y-2122380D01*
X113063333Y-2170000D01*
X113015714Y-2217619D01*
X112968095Y-2312857D01*
X112968095Y-2408095D01*
X113015714Y-2503333D01*
X113063333Y-2550952D01*
X113158571Y-2598571D01*
X113491904Y-2598571D01*
X112539523Y-2217619D02*
X112491904Y-2170000D01*
X112396666Y-2122380D01*
X112158571Y-2122380D01*
X112063333Y-2170000D01*
X112015714Y-2217619D01*
X111968095Y-2312857D01*
X111968095Y-2408095D01*
X112015714Y-2550952D01*
X112587142Y-3122380D01*
X111968095Y-3122380D01*
X111539523Y-3027142D02*
X111491904Y-3074761D01*
X111539523Y-3122380D01*
X111587142Y-3074761D01*
X111539523Y-3027142D01*
X111539523Y-3122380D01*
X110539523Y-3122380D02*
X111110952Y-3122380D01*
X110825238Y-3122380D02*
X110825238Y-2122380D01*
X110920476Y-2265238D01*
X111015714Y-2360476D01*
X111110952Y-2408095D01*
G04 #@! TO.C,J_FB3.1*
X415587142Y-2122380D02*
X415587142Y-2836666D01*
X415634761Y-2979523D01*
X415730000Y-3074761D01*
X415872857Y-3122380D01*
X415968095Y-3122380D01*
X415349047Y-3217619D02*
X414587142Y-3217619D01*
X414015714Y-2598571D02*
X414349047Y-2598571D01*
X414349047Y-3122380D02*
X414349047Y-2122380D01*
X413872857Y-2122380D01*
X413158571Y-2598571D02*
X413015714Y-2646190D01*
X412968095Y-2693809D01*
X412920476Y-2789047D01*
X412920476Y-2931904D01*
X412968095Y-3027142D01*
X413015714Y-3074761D01*
X413110952Y-3122380D01*
X413491904Y-3122380D01*
X413491904Y-2122380D01*
X413158571Y-2122380D01*
X413063333Y-2170000D01*
X413015714Y-2217619D01*
X412968095Y-2312857D01*
X412968095Y-2408095D01*
X413015714Y-2503333D01*
X413063333Y-2550952D01*
X413158571Y-2598571D01*
X413491904Y-2598571D01*
X412587142Y-2122380D02*
X411968095Y-2122380D01*
X412301428Y-2503333D01*
X412158571Y-2503333D01*
X412063333Y-2550952D01*
X412015714Y-2598571D01*
X411968095Y-2693809D01*
X411968095Y-2931904D01*
X412015714Y-3027142D01*
X412063333Y-3074761D01*
X412158571Y-3122380D01*
X412444285Y-3122380D01*
X412539523Y-3074761D01*
X412587142Y-3027142D01*
X411539523Y-3027142D02*
X411491904Y-3074761D01*
X411539523Y-3122380D01*
X411587142Y-3074761D01*
X411539523Y-3027142D01*
X411539523Y-3122380D01*
X410539523Y-3122380D02*
X411110952Y-3122380D01*
X410825238Y-3122380D02*
X410825238Y-2122380D01*
X410920476Y-2265238D01*
X411015714Y-2360476D01*
X411110952Y-2408095D01*
G04 #@! TO.C,J_FB3.2*
X510952380Y-1142857D02*
X511666666Y-1142857D01*
X511809523Y-1095238D01*
X511904761Y-1000000D01*
X511952380Y-857142D01*
X511952380Y-761904D01*
X512047619Y-1380952D02*
X512047619Y-2142857D01*
X511428571Y-2714285D02*
X511428571Y-2380952D01*
X511952380Y-2380952D02*
X510952380Y-2380952D01*
X510952380Y-2857142D01*
X511428571Y-3571428D02*
X511476190Y-3714285D01*
X511523809Y-3761904D01*
X511619047Y-3809523D01*
X511761904Y-3809523D01*
X511857142Y-3761904D01*
X511904761Y-3714285D01*
X511952380Y-3619047D01*
X511952380Y-3238095D01*
X510952380Y-3238095D01*
X510952380Y-3571428D01*
X511000000Y-3666666D01*
X511047619Y-3714285D01*
X511142857Y-3761904D01*
X511238095Y-3761904D01*
X511333333Y-3714285D01*
X511380952Y-3666666D01*
X511428571Y-3571428D01*
X511428571Y-3238095D01*
X510952380Y-4142857D02*
X510952380Y-4761904D01*
X511333333Y-4428571D01*
X511333333Y-4571428D01*
X511380952Y-4666666D01*
X511428571Y-4714285D01*
X511523809Y-4761904D01*
X511761904Y-4761904D01*
X511857142Y-4714285D01*
X511904761Y-4666666D01*
X511952380Y-4571428D01*
X511952380Y-4285714D01*
X511904761Y-4190476D01*
X511857142Y-4142857D01*
X511857142Y-5190476D02*
X511904761Y-5238095D01*
X511952380Y-5190476D01*
X511904761Y-5142857D01*
X511857142Y-5190476D01*
X511952380Y-5190476D01*
X511047619Y-5619047D02*
X511000000Y-5666666D01*
X510952380Y-5761904D01*
X510952380Y-6000000D01*
X511000000Y-6095238D01*
X511047619Y-6142857D01*
X511142857Y-6190476D01*
X511238095Y-6190476D01*
X511380952Y-6142857D01*
X511952380Y-5571428D01*
X511952380Y-6190476D01*
G04 #@! TO.C,J_FB4.2*
X523952380Y-1142857D02*
X524666666Y-1142857D01*
X524809523Y-1095238D01*
X524904761Y-1000000D01*
X524952380Y-857142D01*
X524952380Y-761904D01*
X525047619Y-1380952D02*
X525047619Y-2142857D01*
X524428571Y-2714285D02*
X524428571Y-2380952D01*
X524952380Y-2380952D02*
X523952380Y-2380952D01*
X523952380Y-2857142D01*
X524428571Y-3571428D02*
X524476190Y-3714285D01*
X524523809Y-3761904D01*
X524619047Y-3809523D01*
X524761904Y-3809523D01*
X524857142Y-3761904D01*
X524904761Y-3714285D01*
X524952380Y-3619047D01*
X524952380Y-3238095D01*
X523952380Y-3238095D01*
X523952380Y-3571428D01*
X524000000Y-3666666D01*
X524047619Y-3714285D01*
X524142857Y-3761904D01*
X524238095Y-3761904D01*
X524333333Y-3714285D01*
X524380952Y-3666666D01*
X524428571Y-3571428D01*
X524428571Y-3238095D01*
X524285714Y-4666666D02*
X524952380Y-4666666D01*
X523904761Y-4428571D02*
X524619047Y-4190476D01*
X524619047Y-4809523D01*
X524857142Y-5190476D02*
X524904761Y-5238095D01*
X524952380Y-5190476D01*
X524904761Y-5142857D01*
X524857142Y-5190476D01*
X524952380Y-5190476D01*
X524047619Y-5619047D02*
X524000000Y-5666666D01*
X523952380Y-5761904D01*
X523952380Y-6000000D01*
X524000000Y-6095238D01*
X524047619Y-6142857D01*
X524142857Y-6190476D01*
X524238095Y-6190476D01*
X524380952Y-6142857D01*
X524952380Y-5571428D01*
X524952380Y-6190476D01*
G04 #@! TO.C,J_FB4.1*
X475587142Y-2122380D02*
X475587142Y-2836666D01*
X475634761Y-2979523D01*
X475730000Y-3074761D01*
X475872857Y-3122380D01*
X475968095Y-3122380D01*
X475349047Y-3217619D02*
X474587142Y-3217619D01*
X474015714Y-2598571D02*
X474349047Y-2598571D01*
X474349047Y-3122380D02*
X474349047Y-2122380D01*
X473872857Y-2122380D01*
X473158571Y-2598571D02*
X473015714Y-2646190D01*
X472968095Y-2693809D01*
X472920476Y-2789047D01*
X472920476Y-2931904D01*
X472968095Y-3027142D01*
X473015714Y-3074761D01*
X473110952Y-3122380D01*
X473491904Y-3122380D01*
X473491904Y-2122380D01*
X473158571Y-2122380D01*
X473063333Y-2170000D01*
X473015714Y-2217619D01*
X472968095Y-2312857D01*
X472968095Y-2408095D01*
X473015714Y-2503333D01*
X473063333Y-2550952D01*
X473158571Y-2598571D01*
X473491904Y-2598571D01*
X472063333Y-2455714D02*
X472063333Y-3122380D01*
X472301428Y-2074761D02*
X472539523Y-2789047D01*
X471920476Y-2789047D01*
X471539523Y-3027142D02*
X471491904Y-3074761D01*
X471539523Y-3122380D01*
X471587142Y-3074761D01*
X471539523Y-3027142D01*
X471539523Y-3122380D01*
X470539523Y-3122380D02*
X471110952Y-3122380D01*
X470825238Y-3122380D02*
X470825238Y-2122380D01*
X470920476Y-2265238D01*
X471015714Y-2360476D01*
X471110952Y-2408095D01*
G04 #@! TD*
M02*
