M48
;DRILL file {KiCad (5.0.0)} date 01/12/19 18:14:02
;FORMAT={-:-/ absolute / inch / decimal}
FMAT,2
INCH,TZ
T1C0.1260
%
G90
G05
M72
T1
X6.4961Y-0.3937
X17.7559Y-0.3937
X8.3071Y-0.3937
X19.4882Y-0.3937
X5.315Y-0.3937
X15.9449Y-0.3937
X18.937Y-0.3937
X2.9528Y-0.3937
X13.5827Y-0.3937
X7.6772Y-0.3937
X14.2126Y-0.3937
X13.0315Y-0.3937
X4.1339Y-0.3937
X10.0394Y-0.3937
X17.126Y-0.3937
X1.7717Y-0.3937
X11.8504Y-0.3937
X12.4016Y-0.3937
X8.8583Y-0.3937
X7.126Y-0.3937
X11.2205Y-0.3937
X9.4882Y-0.3937
X15.3937Y-0.3937
X18.3071Y-0.3937
X3.2087Y-0.3937
X17.5Y-0.3937
X2.4016Y-0.3937
X3.5827Y-0.3937
X16.5748Y-0.3937
X1.2205Y-0.3937
X5.9449Y-0.3937
X10.6693Y-0.3937
X4.7638Y-0.3937
X14.7638Y-0.3937
T0
M30
