M48
;DRILL file {KiCad (5.0.0)} date 01/13/19 17:55:39
;FORMAT={-:-/ absolute / inch / decimal}
FMAT,2
INCH,TZ
T1C0.0157
T2C0.0354
T3C0.0394
T4C0.0433
T5C0.0826
%
G90
G05
M72
T1
X3.2134Y-0.7232
X4.3315Y-0.6068
X4.3328Y-0.1764
X4.6759Y-0.1983
X4.6791Y-0.1588
X5.0924Y-0.6876
X7.9691Y-0.6855
X8.0731Y-0.6091
X8.6327Y-0.1603
X8.6865Y-0.6942
X9.1284Y-0.1072
X9.171Y-0.2618
X9.618Y-0.1362
X9.9621Y-0.0794
X10.0911Y-0.0605
X14.5738Y-0.1228
T2
X12.0768Y-0.2559
X12.1768Y-0.2559
X14.439Y-0.5315
X14.539Y-0.5315
X16.8012Y-0.2559
X16.9012Y-0.2559
X6.1713Y-0.2559
X6.2713Y-0.2559
X7.3524Y-0.2559
X7.4524Y-0.2559
X2.628Y-0.5315
X2.728Y-0.5315
X19.1634Y-0.5315
X19.2634Y-0.5315
X2.628Y-0.2559
X2.728Y-0.2559
X3.8091Y-0.5315
X3.9091Y-0.5315
X4.9902Y-0.5315
X5.0902Y-0.5315
X7.3524Y-0.5315
X7.4524Y-0.5315
X15.6201Y-0.2559
X15.7201Y-0.2559
X3.8091Y-0.2559
X3.9091Y-0.2559
X8.5335Y-0.2559
X8.6335Y-0.2559
X17.9823Y-0.5315
X18.0823Y-0.5315
X4.9902Y-0.2559
X5.0902Y-0.2559
X15.6201Y-0.5315
X15.7201Y-0.5315
X6.1713Y-0.5315
X6.2713Y-0.5315
X13.2579Y-0.5315
X13.3579Y-0.5315
X8.5335Y-0.5315
X8.6335Y-0.5315
X9.7146Y-0.2559
X9.8146Y-0.2559
X14.439Y-0.2559
X14.539Y-0.2559
X10.8957Y-0.5315
X10.9957Y-0.5315
X16.8012Y-0.5315
X16.9012Y-0.5315
X10.8957Y-0.2559
X10.9957Y-0.2559
X19.1634Y-0.2559
X19.2634Y-0.2559
X17.9823Y-0.2559
X18.0823Y-0.2559
X13.2579Y-0.2559
X13.3579Y-0.2559
X1.4469Y-0.2559
X1.5469Y-0.2559
X12.0768Y-0.5315
X12.1768Y-0.5315
X1.4469Y-0.5315
X1.5469Y-0.5315
X9.7146Y-0.5315
X9.8146Y-0.5315
T3
X4.4079Y-0.1969
X4.4079Y-0.2969
X4.4079Y-0.3969
X4.4079Y-0.4969
X4.4079Y-0.5969
X4.5079Y-0.1969
X4.5079Y-0.2969
X4.5079Y-0.3969
X4.5079Y-0.4969
X4.5079Y-0.5969
X2.0457Y-0.1969
X2.0457Y-0.2969
X2.0457Y-0.3969
X2.0457Y-0.4969
X2.0457Y-0.5969
X2.1457Y-0.1969
X2.1457Y-0.2969
X2.1457Y-0.3969
X2.1457Y-0.4969
X2.1457Y-0.5969
X19.8394Y-0.0984
X19.9394Y-0.0984
X20.0394Y-0.0984
X0.1575Y-0.0984
X0.2575Y-0.0984
X0.3575Y-0.0984
X18.5811Y-0.1969
X18.5811Y-0.2969
X18.5811Y-0.3969
X18.5811Y-0.4969
X18.5811Y-0.5969
X18.6811Y-0.1969
X18.6811Y-0.2969
X18.6811Y-0.3969
X18.6811Y-0.4969
X18.6811Y-0.5969
X20.3512Y-0.0984
X20.4512Y-0.0984
X20.5512Y-0.0984
X16.2189Y-0.1969
X16.2189Y-0.2969
X16.2189Y-0.3969
X16.2189Y-0.4969
X16.2189Y-0.5969
X16.3189Y-0.1969
X16.3189Y-0.2969
X16.3189Y-0.3969
X16.3189Y-0.4969
X16.3189Y-0.5969
X0.6693Y-0.0984
X0.7693Y-0.0984
X0.8693Y-0.0984
T4
X20.3544Y-0.6692
X20.4528Y-0.6692
X20.5512Y-0.6692
X3.5827Y-0.1969
X3.5827Y-0.5314
X3.5827Y-0.6496
X11.8504Y-0.1969
X11.8504Y-0.5314
X11.8504Y-0.6496
X9.4882Y-0.1969
X9.4882Y-0.5314
X9.4882Y-0.6496
X12.4016Y-0.1969
X12.4016Y-0.5314
X12.4016Y-0.6496
X1.2205Y-0.1969
X1.2205Y-0.5314
X1.2205Y-0.6496
X19.8425Y-0.6692
X19.9409Y-0.6692
X20.0393Y-0.6692
X7.6772Y-0.1969
X7.6772Y-0.5314
X7.6772Y-0.6496
X1.7717Y-0.1969
X1.7717Y-0.5314
X1.7717Y-0.6496
X13.0315Y-0.1969
X13.0315Y-0.5314
X13.0315Y-0.6496
X17.126Y-0.1969
X17.126Y-0.5314
X17.126Y-0.6496
X0.1575Y-0.6692
X0.2559Y-0.6692
X0.3543Y-0.6692
X7.126Y-0.1969
X7.126Y-0.5314
X7.126Y-0.6496
X18.937Y-0.1969
X18.937Y-0.5314
X18.937Y-0.6496
X8.3071Y-0.1969
X8.3071Y-0.5314
X8.3071Y-0.6496
X2.4016Y-0.1969
X2.4016Y-0.5314
X2.4016Y-0.6496
X0.6693Y-0.6692
X0.7677Y-0.6692
X0.8661Y-0.6692
X6.4961Y-0.1969
X6.4961Y-0.5314
X6.4961Y-0.6496
X14.2126Y-0.1969
X14.2126Y-0.5314
X14.2126Y-0.6496
X2.9528Y-0.1969
X2.9528Y-0.5314
X2.9528Y-0.6496
X10.0394Y-0.1969
X10.0394Y-0.5314
X10.0394Y-0.6496
X15.9449Y-0.1969
X15.9449Y-0.5314
X15.9449Y-0.6496
X4.7638Y-0.1969
X4.7638Y-0.5314
X4.7638Y-0.6496
X5.315Y-0.1969
X5.315Y-0.5314
X5.315Y-0.6496
X13.5827Y-0.1969
X13.5827Y-0.5314
X13.5827Y-0.6496
X11.2205Y-0.1969
X11.2205Y-0.5314
X11.2205Y-0.6496
X17.7559Y-0.1969
X17.7559Y-0.5314
X17.7559Y-0.6496
X18.3071Y-0.1969
X18.3071Y-0.5314
X18.3071Y-0.6496
X4.1339Y-0.1969
X4.1339Y-0.5314
X4.1339Y-0.6496
X19.4882Y-0.1969
X19.4882Y-0.5314
X19.4882Y-0.6496
X16.5748Y-0.1969
X16.5748Y-0.5314
X16.5748Y-0.6496
X10.6693Y-0.1969
X10.6693Y-0.5314
X10.6693Y-0.6496
X5.9449Y-0.1969
X5.9449Y-0.5314
X5.9449Y-0.6496
X15.3937Y-0.1969
X15.3937Y-0.5314
X15.3937Y-0.6496
X8.8583Y-0.1969
X8.8583Y-0.5314
X8.8583Y-0.6496
X14.7638Y-0.1969
X14.7638Y-0.5314
X14.7638Y-0.6496
T5
X20.2757Y-0.3937
X20.6299Y-0.3937
X19.7638Y-0.3937
X20.118Y-0.3937
X0.0788Y-0.3937
X0.433Y-0.3937
X0.5906Y-0.3937
X0.9448Y-0.3937
T0
M30
