M48
;DRILL file {KiCad (5.0.0)} date 01/13/19 18:35:47
;FORMAT={-:-/ absolute / inch / decimal}
FMAT,2
INCH,TZ
T1C0.0157
T2C0.0236
T3C0.0315
T4C0.0394
T5C0.0433
%
G90
G05
M72
T1
X6.3293Y-0.5595
X6.369Y-0.5388
X6.3697Y-0.6262
X6.431Y-0.5036
X6.6082Y-0.4804
X16.2689Y-0.3469
X19.5172Y-0.131
T2
X2.4016Y-0.5906
X2.4803Y-0.5906
X2.4016Y-0.1969
X2.4803Y-0.1969
T3
X16.9134Y-0.4323
X16.9134Y-0.7323
X7.811Y-0.6299
X8.0079Y-0.6299
X13.6378Y-0.4323
X13.6378Y-0.7323
X1.511Y-0.6496
X1.811Y-0.6496
X16.6299Y-0.0543
X16.6299Y-0.3543
X17.9764Y-0.0543
X17.9764Y-0.3543
X3.6024Y-0.1331
X3.6024Y-0.4331
X3.7024Y-0.1331
X3.7024Y-0.4331
X3.8024Y-0.1331
X3.8024Y-0.4331
X3.9024Y-0.1331
X3.9024Y-0.4331
X4.0024Y-0.1331
X4.0024Y-0.4331
X4.1024Y-0.1331
X4.1024Y-0.4331
X4.2024Y-0.1331
X4.2024Y-0.4331
X8.8268Y-0.4323
X8.8268Y-0.7323
X17.1024Y-0.4323
X17.1024Y-0.7323
X4.9409Y-0.6299
X5.1378Y-0.6299
X13.4488Y-0.4323
X13.4488Y-0.7323
X2.7165Y-0.5118
X2.9134Y-0.5118
X5.9567Y-0.0543
X5.9567Y-0.3543
X8.9213Y-0.0543
X8.9213Y-0.3543
X12.9764Y-0.0543
X12.9764Y-0.3543
X15.4803Y-0.1575
X15.7803Y-0.1575
X5.6732Y-0.4331
X5.6732Y-0.7331
X13.2598Y-0.4323
X13.2598Y-0.7323
X5.8701Y-0.4331
X5.8701Y-0.7331
X11.8307Y-0.6535
X12.1307Y-0.6535
X13.7323Y-0.0543
X13.7323Y-0.3543
X7.0866Y-0.6693
X7.3866Y-0.6693
X17.0079Y-0.0543
X17.0079Y-0.3543
X13.1654Y-0.0543
X13.1654Y-0.3543
X12.4094Y-0.3937
X12.7094Y-0.3937
X15.4882Y-0.3937
X15.7882Y-0.3937
X4.8819Y-0.4134
X5.1819Y-0.4134
X8.6378Y-0.4323
X8.6378Y-0.7323
X5.5787Y-0.0543
X5.5787Y-0.3543
X2.7165Y-0.2756
X2.9134Y-0.2756
X13.0709Y-0.4323
X13.0709Y-0.7323
X8.3622Y-0.0543
X8.3622Y-0.3543
X18.0709Y-0.4323
X18.0709Y-0.7323
X13.8268Y-0.4323
X13.8268Y-0.7323
X8.7323Y-0.0543
X8.7323Y-0.3543
X12.4094Y-0.1575
X12.7094Y-0.1575
X17.8819Y-0.4323
X17.8819Y-0.7323
X8.4488Y-0.4323
X8.4488Y-0.7323
X5.3937Y-0.0543
X5.3937Y-0.3543
X9.0157Y-0.4323
X9.0157Y-0.7323
X8.5433Y-0.0543
X8.5433Y-0.3543
X6.2402Y-0.4331
X6.2402Y-0.7331
X5.4843Y-0.4331
X5.4843Y-0.7331
X14.5827Y-0.1331
X14.5827Y-0.4331
X14.6827Y-0.1331
X14.6827Y-0.4331
X14.7827Y-0.1331
X14.7827Y-0.4331
X14.8827Y-0.1331
X14.8827Y-0.4331
X14.9827Y-0.1331
X14.9827Y-0.4331
X15.0827Y-0.1331
X15.0827Y-0.4331
X15.1827Y-0.1331
X15.1827Y-0.4331
X16.8189Y-0.0543
X16.8189Y-0.3543
X7.7559Y-0.3937
X8.0559Y-0.3937
X7.7559Y-0.1575
X8.0559Y-0.1575
X15.5354Y-0.6496
X15.7323Y-0.6496
X6.0512Y-0.4331
X6.0512Y-0.7331
X3.878Y-0.6496
X4.178Y-0.6496
X1.511Y-0.1378
X1.811Y-0.1378
X17.7874Y-0.0543
X17.7874Y-0.3543
X14.9016Y-0.6496
X15.2016Y-0.6496
X13.5433Y-0.0543
X13.5433Y-0.3543
X11.5039Y-0.1331
X11.5039Y-0.4331
X11.6039Y-0.1331
X11.6039Y-0.4331
X11.7039Y-0.1331
X11.7039Y-0.4331
X11.8039Y-0.1331
X11.8039Y-0.4331
X11.9039Y-0.1331
X11.9039Y-0.4331
X12.0039Y-0.1331
X12.0039Y-0.4331
X12.1039Y-0.1331
X12.1039Y-0.4331
X13.3543Y-0.0543
X13.3543Y-0.3543
X4.8819Y-0.1772
X5.1819Y-0.1772
X12.4567Y-0.6496
X12.6535Y-0.6496
X16.7244Y-0.4323
X16.7244Y-0.7323
X5.7677Y-0.0543
X5.7677Y-0.3543
X6.1378Y-0.0543
X6.1378Y-0.3543
X9.1024Y-0.0543
X9.1024Y-0.3543
X9.2047Y-0.4323
X9.2047Y-0.7323
X6.7559Y-0.1331
X6.7559Y-0.4331
X6.8559Y-0.1331
X6.8559Y-0.4331
X6.9559Y-0.1331
X6.9559Y-0.4331
X7.0559Y-0.1331
X7.0559Y-0.4331
X7.1559Y-0.1331
X7.1559Y-0.4331
X7.2559Y-0.1331
X7.2559Y-0.4331
X7.3559Y-0.1331
X7.3559Y-0.4331
T4
X19.8394Y-0.1102
X19.9394Y-0.1102
X20.0394Y-0.1102
X1.0335Y-0.1906
X1.0335Y-0.2906
X1.0335Y-0.3906
X1.0335Y-0.4906
X1.0335Y-0.5906
X1.1335Y-0.1906
X1.1335Y-0.2906
X1.1335Y-0.3906
X1.1335Y-0.4906
X1.1335Y-0.5906
X16.2189Y-0.1969
X16.2189Y-0.2969
X16.2189Y-0.3969
X16.2189Y-0.4969
X16.2189Y-0.5969
X16.3189Y-0.1969
X16.3189Y-0.2969
X16.3189Y-0.3969
X16.3189Y-0.4969
X16.3189Y-0.5969
X0.6693Y-0.0984
X0.7693Y-0.0984
X0.8693Y-0.0984
X18.5811Y-0.1969
X18.5811Y-0.2969
X18.5811Y-0.3969
X18.5811Y-0.4969
X18.5811Y-0.5969
X18.6811Y-0.1969
X18.6811Y-0.2969
X18.6811Y-0.3969
X18.6811Y-0.4969
X18.6811Y-0.5969
X2.0457Y-0.1969
X2.0457Y-0.2969
X2.0457Y-0.3969
X2.0457Y-0.4969
X2.0457Y-0.5969
X2.1457Y-0.1969
X2.1457Y-0.2969
X2.1457Y-0.3969
X2.1457Y-0.4969
X2.1457Y-0.5969
X0.1575Y-0.0984
X0.2575Y-0.0984
X0.3575Y-0.0984
X4.4079Y-0.1969
X4.4079Y-0.2969
X4.4079Y-0.3969
X4.4079Y-0.4969
X4.4079Y-0.5969
X4.5079Y-0.1969
X4.5079Y-0.2969
X4.5079Y-0.3969
X4.5079Y-0.4969
X4.5079Y-0.5969
X20.3512Y-0.0984
X20.4512Y-0.0984
X20.5512Y-0.0984
T5
X1.437Y-0.2953
X1.837Y-0.2953
X1.437Y-0.4724
X1.837Y-0.4724
T0
M30
