G04 #@! TF.GenerationSoftware,KiCad,Pcbnew,(5.0.0)*
G04 #@! TF.CreationDate,2019-01-13T18:35:45+01:00*
G04 #@! TF.ProjectId,1u_complex_bus_mainboard,31755F636F6D706C65785F6275735F6D,rev?*
G04 #@! TF.SameCoordinates,Original*
G04 #@! TF.FileFunction,Soldermask,Bot*
G04 #@! TF.FilePolarity,Negative*
%FSLAX46Y46*%
G04 Gerber Fmt 4.6, Leading zero omitted, Abs format (unit mm)*
G04 Created by KiCad (PCBNEW (5.0.0)) date 01/13/19 18:35:45*
%MOMM*%
%LPD*%
G01*
G04 APERTURE LIST*
%ADD10C,0.010000*%
%ADD11R,2.100000X2.100000*%
%ADD12O,2.100000X2.100000*%
%ADD13R,1.600000X1.600000*%
%ADD14C,1.600000*%
%ADD15C,2.000000*%
%ADD16O,2.600000X2.600000*%
%ADD17R,2.600000X2.600000*%
%ADD18O,2.000000X2.000000*%
%ADD19R,2.000000X2.000000*%
%ADD20C,3.600000*%
G04 APERTURE END LIST*
D10*
G04 #@! TO.C,MK1*
G36*
X263010584Y-9506838D02*
X263015875Y-9512130D01*
X263021167Y-9506838D01*
X263015875Y-9501547D01*
X263010584Y-9506838D01*
X263010584Y-9506838D01*
G37*
X263010584Y-9506838D02*
X263015875Y-9512130D01*
X263021167Y-9506838D01*
X263015875Y-9501547D01*
X263010584Y-9506838D01*
G36*
X263304666Y-1865150D02*
X263274468Y-1877872D01*
X263229895Y-1897738D01*
X263173261Y-1923655D01*
X263106877Y-1954531D01*
X263033056Y-1989271D01*
X262954109Y-2026782D01*
X262872350Y-2065971D01*
X262790091Y-2105745D01*
X262709643Y-2145010D01*
X262633320Y-2182673D01*
X262566639Y-2216023D01*
X262215522Y-2396482D01*
X261867014Y-2582352D01*
X261522713Y-2772633D01*
X261184214Y-2966329D01*
X260853113Y-3162438D01*
X260531007Y-3359965D01*
X260219491Y-3557908D01*
X259920163Y-3755271D01*
X259634617Y-3951054D01*
X259364451Y-4144259D01*
X259111260Y-4333886D01*
X258876641Y-4518939D01*
X258846597Y-4543417D01*
X258715242Y-4653086D01*
X258581692Y-4768746D01*
X258448703Y-4887806D01*
X258319030Y-5007676D01*
X258195427Y-5125766D01*
X258080649Y-5239486D01*
X257977450Y-5346244D01*
X257888586Y-5443452D01*
X257884215Y-5448417D01*
X257713076Y-5653575D01*
X257561456Y-5857034D01*
X257429472Y-6058494D01*
X257317241Y-6257651D01*
X257224879Y-6454205D01*
X257152504Y-6647855D01*
X257100233Y-6838297D01*
X257068182Y-7025232D01*
X257056469Y-7208356D01*
X257065210Y-7387369D01*
X257083927Y-7511959D01*
X257127290Y-7680132D01*
X257191256Y-7843867D01*
X257275702Y-8003026D01*
X257380503Y-8157470D01*
X257505539Y-8307063D01*
X257650684Y-8451666D01*
X257815817Y-8591140D01*
X258000814Y-8725349D01*
X258205553Y-8854155D01*
X258355498Y-8938321D01*
X258565904Y-9043825D01*
X258796811Y-9145575D01*
X259047874Y-9243484D01*
X259318748Y-9337465D01*
X259609088Y-9427429D01*
X259918547Y-9513289D01*
X260246780Y-9594957D01*
X260593443Y-9672347D01*
X260958190Y-9745369D01*
X261340675Y-9813936D01*
X261740553Y-9877962D01*
X262157478Y-9937358D01*
X262432260Y-9972797D01*
X262511821Y-9982670D01*
X262586634Y-9991981D01*
X262653503Y-10000327D01*
X262709233Y-10007312D01*
X262750630Y-10012534D01*
X262774498Y-10015593D01*
X262775660Y-10015747D01*
X262820639Y-10021714D01*
X262820668Y-10177169D01*
X262820983Y-10241988D01*
X262821887Y-10323867D01*
X262823354Y-10421897D01*
X262825356Y-10535165D01*
X262827866Y-10662760D01*
X262830856Y-10803769D01*
X262834299Y-10957283D01*
X262838168Y-11122388D01*
X262842435Y-11298174D01*
X262847073Y-11483728D01*
X262852055Y-11678139D01*
X262857353Y-11880496D01*
X262862940Y-12089887D01*
X262868788Y-12305400D01*
X262874871Y-12526124D01*
X262881160Y-12751147D01*
X262887629Y-12979558D01*
X262894250Y-13210444D01*
X262900995Y-13442895D01*
X262907838Y-13675999D01*
X262914751Y-13908844D01*
X262921707Y-14140519D01*
X262928678Y-14370111D01*
X262935637Y-14596710D01*
X262942557Y-14819403D01*
X262949410Y-15037280D01*
X262956168Y-15249429D01*
X262962805Y-15454937D01*
X262969294Y-15652894D01*
X262975606Y-15842387D01*
X262981715Y-16022506D01*
X262987592Y-16192339D01*
X262993212Y-16350973D01*
X262998545Y-16497498D01*
X263003566Y-16631001D01*
X263008246Y-16750572D01*
X263012559Y-16855299D01*
X263016477Y-16944269D01*
X263019972Y-17016572D01*
X263023017Y-17071296D01*
X263025586Y-17107529D01*
X263027649Y-17124360D01*
X263029088Y-17121834D01*
X263030232Y-17103654D01*
X263031995Y-17065636D01*
X263034336Y-17009098D01*
X263037207Y-16935359D01*
X263040566Y-16845735D01*
X263044368Y-16741547D01*
X263048569Y-16624110D01*
X263053123Y-16494745D01*
X263057986Y-16354768D01*
X263063114Y-16205498D01*
X263068463Y-16048254D01*
X263073988Y-15884352D01*
X263079644Y-15715112D01*
X263085387Y-15541852D01*
X263091172Y-15365889D01*
X263096956Y-15188542D01*
X263102693Y-15011129D01*
X263108339Y-14834968D01*
X263113850Y-14661377D01*
X263119181Y-14491674D01*
X263124288Y-14327177D01*
X263129126Y-14169206D01*
X263132645Y-14052667D01*
X263138704Y-13847706D01*
X263145123Y-13625122D01*
X263151807Y-13388451D01*
X263158662Y-13141231D01*
X263165593Y-12887001D01*
X263172506Y-12629297D01*
X263179306Y-12371658D01*
X263185900Y-12117622D01*
X263192192Y-11870725D01*
X263198089Y-11634507D01*
X263203495Y-11412503D01*
X263206522Y-11285125D01*
X263209514Y-11158214D01*
X263212556Y-11029759D01*
X263215578Y-10902673D01*
X263218511Y-10779871D01*
X263221285Y-10664270D01*
X263223829Y-10558783D01*
X263226074Y-10466326D01*
X263227950Y-10389814D01*
X263229125Y-10342591D01*
X263236050Y-10066807D01*
X263263824Y-10070071D01*
X263569636Y-10106916D01*
X263856049Y-10143339D01*
X264124820Y-10179623D01*
X264377706Y-10216055D01*
X264616462Y-10252918D01*
X264842845Y-10290498D01*
X265058611Y-10329079D01*
X265265517Y-10368947D01*
X265465319Y-10410386D01*
X265659772Y-10453682D01*
X265731056Y-10470309D01*
X265982000Y-10532455D01*
X266226942Y-10598827D01*
X266464207Y-10668818D01*
X266692122Y-10741820D01*
X266909010Y-10817225D01*
X267113198Y-10894426D01*
X267303011Y-10972815D01*
X267476774Y-11051783D01*
X267632813Y-11130725D01*
X267769454Y-11209030D01*
X267773639Y-11211613D01*
X267902448Y-11297714D01*
X268024855Y-11392069D01*
X268137397Y-11491590D01*
X268236614Y-11593189D01*
X268319044Y-11693779D01*
X268328090Y-11706260D01*
X268372279Y-11775968D01*
X268415786Y-11858435D01*
X268454758Y-11945495D01*
X268485342Y-12028980D01*
X268493865Y-12057709D01*
X268507487Y-12123668D01*
X268517240Y-12204024D01*
X268522923Y-12292325D01*
X268524332Y-12382119D01*
X268521262Y-12466956D01*
X268513512Y-12540384D01*
X268509751Y-12561721D01*
X268472178Y-12709434D01*
X268417808Y-12860567D01*
X268346278Y-13015686D01*
X268257224Y-13175356D01*
X268150285Y-13340140D01*
X268025095Y-13510603D01*
X267881294Y-13687310D01*
X267718517Y-13870825D01*
X267562001Y-14035625D01*
X267330777Y-14263946D01*
X267084546Y-14490854D01*
X266822674Y-14716812D01*
X266544532Y-14942283D01*
X266249490Y-15167731D01*
X265936915Y-15393617D01*
X265606178Y-15620405D01*
X265256647Y-15848557D01*
X264887692Y-16078538D01*
X264498682Y-16310809D01*
X264323472Y-16412432D01*
X264142368Y-16516601D01*
X263978777Y-16610727D01*
X263831856Y-16695303D01*
X263700759Y-16770823D01*
X263584644Y-16837778D01*
X263482664Y-16896661D01*
X263393976Y-16947965D01*
X263317735Y-16992183D01*
X263253097Y-17029807D01*
X263199217Y-17061330D01*
X263155250Y-17087244D01*
X263120351Y-17108043D01*
X263093678Y-17124219D01*
X263074384Y-17136264D01*
X263061626Y-17144672D01*
X263054558Y-17149935D01*
X263052337Y-17152545D01*
X263054002Y-17153010D01*
X263064410Y-17148442D01*
X263091366Y-17135847D01*
X263132365Y-17116415D01*
X263184903Y-17091339D01*
X263246473Y-17061812D01*
X263314573Y-17029025D01*
X263318056Y-17027345D01*
X263543916Y-16918316D01*
X263751866Y-16817769D01*
X263943105Y-16725083D01*
X264118832Y-16639640D01*
X264280246Y-16560819D01*
X264428548Y-16488000D01*
X264564935Y-16420564D01*
X264690608Y-16357889D01*
X264806766Y-16299357D01*
X264914608Y-16244348D01*
X265015333Y-16192241D01*
X265110141Y-16142417D01*
X265200232Y-16094255D01*
X265286803Y-16047136D01*
X265371056Y-16000440D01*
X265454188Y-15953546D01*
X265537400Y-15905835D01*
X265621891Y-15856688D01*
X265708859Y-15805483D01*
X265799505Y-15751602D01*
X265884514Y-15700732D01*
X266245452Y-15477522D01*
X266586665Y-15252646D01*
X266909583Y-15025081D01*
X267215638Y-14793800D01*
X267506262Y-14557780D01*
X267632733Y-14449453D01*
X267697129Y-14391974D01*
X267769966Y-14324578D01*
X267848628Y-14249878D01*
X267930500Y-14170488D01*
X268012965Y-14089019D01*
X268093409Y-14008086D01*
X268169216Y-13930301D01*
X268237769Y-13858277D01*
X268296453Y-13794627D01*
X268342653Y-13741964D01*
X268351196Y-13731732D01*
X268497764Y-13543286D01*
X268625849Y-13355954D01*
X268735044Y-13170496D01*
X268824944Y-12987671D01*
X268895144Y-12808238D01*
X268945238Y-12632956D01*
X268950355Y-12610036D01*
X268963184Y-12530864D01*
X268971494Y-12437314D01*
X268975283Y-12335583D01*
X268974549Y-12231869D01*
X268969288Y-12132372D01*
X268959498Y-12043289D01*
X268950622Y-11993524D01*
X268919331Y-11867068D01*
X268881840Y-11752277D01*
X268835027Y-11639874D01*
X268822528Y-11613209D01*
X268779078Y-11527515D01*
X268733591Y-11449518D01*
X268683285Y-11375544D01*
X268625379Y-11301921D01*
X268557092Y-11224975D01*
X268475643Y-11141034D01*
X268433666Y-11099718D01*
X268314949Y-10990306D01*
X268189397Y-10886897D01*
X268055613Y-10788777D01*
X267912201Y-10695229D01*
X267757764Y-10605540D01*
X267590905Y-10518993D01*
X267410229Y-10434875D01*
X267214339Y-10352470D01*
X267001839Y-10271063D01*
X266771332Y-10189939D01*
X266521421Y-10108383D01*
X266460092Y-10089192D01*
X266175056Y-10004441D01*
X265883406Y-9925327D01*
X265583336Y-9851486D01*
X265273037Y-9782557D01*
X264950701Y-9718177D01*
X264614522Y-9657985D01*
X264262690Y-9601618D01*
X263893399Y-9548715D01*
X263524431Y-9501296D01*
X263450761Y-9492265D01*
X263384414Y-9484043D01*
X263328160Y-9476979D01*
X263284769Y-9471425D01*
X263257010Y-9467730D01*
X263247646Y-9466266D01*
X263247509Y-9455728D01*
X263247782Y-9426223D01*
X263248429Y-9379947D01*
X263249414Y-9319094D01*
X263249658Y-9305140D01*
X262798277Y-9305140D01*
X262797540Y-9360859D01*
X262796021Y-9398135D01*
X262793731Y-9415818D01*
X262792725Y-9417167D01*
X262779981Y-9415867D01*
X262749041Y-9412200D01*
X262702697Y-9406510D01*
X262643746Y-9399147D01*
X262574982Y-9390455D01*
X262499198Y-9380782D01*
X262492112Y-9379873D01*
X262086103Y-9324416D01*
X261695482Y-9264275D01*
X261320605Y-9199566D01*
X260961829Y-9130404D01*
X260619511Y-9056903D01*
X260294007Y-8979179D01*
X259985674Y-8897347D01*
X259694868Y-8811522D01*
X259421947Y-8721818D01*
X259167266Y-8628351D01*
X258931183Y-8531236D01*
X258714053Y-8430588D01*
X258516235Y-8326522D01*
X258338083Y-8219152D01*
X258179956Y-8108595D01*
X258042209Y-7994964D01*
X257963656Y-7919392D01*
X257859933Y-7802570D01*
X257776571Y-7685645D01*
X257712823Y-7566936D01*
X257667941Y-7444766D01*
X257641180Y-7317455D01*
X257631790Y-7183323D01*
X257631765Y-7173500D01*
X257639340Y-7044914D01*
X257662105Y-6916317D01*
X257700754Y-6785798D01*
X257755978Y-6651444D01*
X257828470Y-6511343D01*
X257918922Y-6363585D01*
X257932563Y-6342923D01*
X258065180Y-6156995D01*
X258218230Y-5966893D01*
X258391439Y-5772842D01*
X258584534Y-5575067D01*
X258797244Y-5373793D01*
X259029295Y-5169244D01*
X259280416Y-4961645D01*
X259550332Y-4751221D01*
X259838772Y-4538197D01*
X260145463Y-4322798D01*
X260470133Y-4105248D01*
X260812508Y-3885772D01*
X261172317Y-3664595D01*
X261203282Y-3645971D01*
X261287213Y-3596035D01*
X261379400Y-3542000D01*
X261478306Y-3484712D01*
X261582391Y-3425019D01*
X261690114Y-3363766D01*
X261799936Y-3301799D01*
X261910318Y-3239965D01*
X262019720Y-3179110D01*
X262126602Y-3120080D01*
X262229425Y-3063722D01*
X262326649Y-3010881D01*
X262416735Y-2962404D01*
X262498142Y-2919138D01*
X262569332Y-2881927D01*
X262628763Y-2851619D01*
X262674898Y-2829060D01*
X262706197Y-2815096D01*
X262721118Y-2810573D01*
X262722161Y-2811144D01*
X262722477Y-2822391D01*
X262722931Y-2853623D01*
X262723514Y-2903662D01*
X262724214Y-2971327D01*
X262725024Y-3055438D01*
X262725931Y-3154815D01*
X262726926Y-3268278D01*
X262727998Y-3394647D01*
X262729139Y-3532743D01*
X262730336Y-3681384D01*
X262731581Y-3839391D01*
X262732863Y-4005585D01*
X262734171Y-4178784D01*
X262735496Y-4357810D01*
X262735539Y-4363625D01*
X262738311Y-4730205D01*
X262741135Y-5078441D01*
X262744047Y-5411156D01*
X262747084Y-5731173D01*
X262750282Y-6041315D01*
X262753678Y-6344405D01*
X262757307Y-6643266D01*
X262761206Y-6940721D01*
X262765411Y-7239593D01*
X262769959Y-7542705D01*
X262774887Y-7852879D01*
X262780229Y-8172939D01*
X262786023Y-8505707D01*
X262792305Y-8854007D01*
X262795714Y-9038813D01*
X262797373Y-9142967D01*
X262798225Y-9232126D01*
X262798277Y-9305140D01*
X263249658Y-9305140D01*
X263250699Y-9245861D01*
X263252249Y-9162442D01*
X263254027Y-9071033D01*
X263255046Y-9020292D01*
X263262226Y-8651794D01*
X263269139Y-8268244D01*
X263275738Y-7873133D01*
X263281979Y-7469953D01*
X263287817Y-7062194D01*
X263293206Y-6653348D01*
X263298100Y-6246907D01*
X263302456Y-5846362D01*
X263306226Y-5455203D01*
X263309366Y-5076924D01*
X263311831Y-4715014D01*
X263312564Y-4585875D01*
X263313493Y-4414430D01*
X263314513Y-4231201D01*
X263315601Y-4039690D01*
X263316736Y-3843398D01*
X263317899Y-3645826D01*
X263319068Y-3450477D01*
X263320223Y-3260851D01*
X263321341Y-3080451D01*
X263322404Y-2912776D01*
X263323389Y-2761330D01*
X263323766Y-2704688D01*
X263324803Y-2534404D01*
X263325487Y-2384719D01*
X263325813Y-2255065D01*
X263325778Y-2144879D01*
X263325378Y-2053594D01*
X263324609Y-1980643D01*
X263323468Y-1925463D01*
X263321950Y-1887486D01*
X263320053Y-1866147D01*
X263318178Y-1860667D01*
X263304666Y-1865150D01*
X263304666Y-1865150D01*
G37*
X263304666Y-1865150D02*
X263274468Y-1877872D01*
X263229895Y-1897738D01*
X263173261Y-1923655D01*
X263106877Y-1954531D01*
X263033056Y-1989271D01*
X262954109Y-2026782D01*
X262872350Y-2065971D01*
X262790091Y-2105745D01*
X262709643Y-2145010D01*
X262633320Y-2182673D01*
X262566639Y-2216023D01*
X262215522Y-2396482D01*
X261867014Y-2582352D01*
X261522713Y-2772633D01*
X261184214Y-2966329D01*
X260853113Y-3162438D01*
X260531007Y-3359965D01*
X260219491Y-3557908D01*
X259920163Y-3755271D01*
X259634617Y-3951054D01*
X259364451Y-4144259D01*
X259111260Y-4333886D01*
X258876641Y-4518939D01*
X258846597Y-4543417D01*
X258715242Y-4653086D01*
X258581692Y-4768746D01*
X258448703Y-4887806D01*
X258319030Y-5007676D01*
X258195427Y-5125766D01*
X258080649Y-5239486D01*
X257977450Y-5346244D01*
X257888586Y-5443452D01*
X257884215Y-5448417D01*
X257713076Y-5653575D01*
X257561456Y-5857034D01*
X257429472Y-6058494D01*
X257317241Y-6257651D01*
X257224879Y-6454205D01*
X257152504Y-6647855D01*
X257100233Y-6838297D01*
X257068182Y-7025232D01*
X257056469Y-7208356D01*
X257065210Y-7387369D01*
X257083927Y-7511959D01*
X257127290Y-7680132D01*
X257191256Y-7843867D01*
X257275702Y-8003026D01*
X257380503Y-8157470D01*
X257505539Y-8307063D01*
X257650684Y-8451666D01*
X257815817Y-8591140D01*
X258000814Y-8725349D01*
X258205553Y-8854155D01*
X258355498Y-8938321D01*
X258565904Y-9043825D01*
X258796811Y-9145575D01*
X259047874Y-9243484D01*
X259318748Y-9337465D01*
X259609088Y-9427429D01*
X259918547Y-9513289D01*
X260246780Y-9594957D01*
X260593443Y-9672347D01*
X260958190Y-9745369D01*
X261340675Y-9813936D01*
X261740553Y-9877962D01*
X262157478Y-9937358D01*
X262432260Y-9972797D01*
X262511821Y-9982670D01*
X262586634Y-9991981D01*
X262653503Y-10000327D01*
X262709233Y-10007312D01*
X262750630Y-10012534D01*
X262774498Y-10015593D01*
X262775660Y-10015747D01*
X262820639Y-10021714D01*
X262820668Y-10177169D01*
X262820983Y-10241988D01*
X262821887Y-10323867D01*
X262823354Y-10421897D01*
X262825356Y-10535165D01*
X262827866Y-10662760D01*
X262830856Y-10803769D01*
X262834299Y-10957283D01*
X262838168Y-11122388D01*
X262842435Y-11298174D01*
X262847073Y-11483728D01*
X262852055Y-11678139D01*
X262857353Y-11880496D01*
X262862940Y-12089887D01*
X262868788Y-12305400D01*
X262874871Y-12526124D01*
X262881160Y-12751147D01*
X262887629Y-12979558D01*
X262894250Y-13210444D01*
X262900995Y-13442895D01*
X262907838Y-13675999D01*
X262914751Y-13908844D01*
X262921707Y-14140519D01*
X262928678Y-14370111D01*
X262935637Y-14596710D01*
X262942557Y-14819403D01*
X262949410Y-15037280D01*
X262956168Y-15249429D01*
X262962805Y-15454937D01*
X262969294Y-15652894D01*
X262975606Y-15842387D01*
X262981715Y-16022506D01*
X262987592Y-16192339D01*
X262993212Y-16350973D01*
X262998545Y-16497498D01*
X263003566Y-16631001D01*
X263008246Y-16750572D01*
X263012559Y-16855299D01*
X263016477Y-16944269D01*
X263019972Y-17016572D01*
X263023017Y-17071296D01*
X263025586Y-17107529D01*
X263027649Y-17124360D01*
X263029088Y-17121834D01*
X263030232Y-17103654D01*
X263031995Y-17065636D01*
X263034336Y-17009098D01*
X263037207Y-16935359D01*
X263040566Y-16845735D01*
X263044368Y-16741547D01*
X263048569Y-16624110D01*
X263053123Y-16494745D01*
X263057986Y-16354768D01*
X263063114Y-16205498D01*
X263068463Y-16048254D01*
X263073988Y-15884352D01*
X263079644Y-15715112D01*
X263085387Y-15541852D01*
X263091172Y-15365889D01*
X263096956Y-15188542D01*
X263102693Y-15011129D01*
X263108339Y-14834968D01*
X263113850Y-14661377D01*
X263119181Y-14491674D01*
X263124288Y-14327177D01*
X263129126Y-14169206D01*
X263132645Y-14052667D01*
X263138704Y-13847706D01*
X263145123Y-13625122D01*
X263151807Y-13388451D01*
X263158662Y-13141231D01*
X263165593Y-12887001D01*
X263172506Y-12629297D01*
X263179306Y-12371658D01*
X263185900Y-12117622D01*
X263192192Y-11870725D01*
X263198089Y-11634507D01*
X263203495Y-11412503D01*
X263206522Y-11285125D01*
X263209514Y-11158214D01*
X263212556Y-11029759D01*
X263215578Y-10902673D01*
X263218511Y-10779871D01*
X263221285Y-10664270D01*
X263223829Y-10558783D01*
X263226074Y-10466326D01*
X263227950Y-10389814D01*
X263229125Y-10342591D01*
X263236050Y-10066807D01*
X263263824Y-10070071D01*
X263569636Y-10106916D01*
X263856049Y-10143339D01*
X264124820Y-10179623D01*
X264377706Y-10216055D01*
X264616462Y-10252918D01*
X264842845Y-10290498D01*
X265058611Y-10329079D01*
X265265517Y-10368947D01*
X265465319Y-10410386D01*
X265659772Y-10453682D01*
X265731056Y-10470309D01*
X265982000Y-10532455D01*
X266226942Y-10598827D01*
X266464207Y-10668818D01*
X266692122Y-10741820D01*
X266909010Y-10817225D01*
X267113198Y-10894426D01*
X267303011Y-10972815D01*
X267476774Y-11051783D01*
X267632813Y-11130725D01*
X267769454Y-11209030D01*
X267773639Y-11211613D01*
X267902448Y-11297714D01*
X268024855Y-11392069D01*
X268137397Y-11491590D01*
X268236614Y-11593189D01*
X268319044Y-11693779D01*
X268328090Y-11706260D01*
X268372279Y-11775968D01*
X268415786Y-11858435D01*
X268454758Y-11945495D01*
X268485342Y-12028980D01*
X268493865Y-12057709D01*
X268507487Y-12123668D01*
X268517240Y-12204024D01*
X268522923Y-12292325D01*
X268524332Y-12382119D01*
X268521262Y-12466956D01*
X268513512Y-12540384D01*
X268509751Y-12561721D01*
X268472178Y-12709434D01*
X268417808Y-12860567D01*
X268346278Y-13015686D01*
X268257224Y-13175356D01*
X268150285Y-13340140D01*
X268025095Y-13510603D01*
X267881294Y-13687310D01*
X267718517Y-13870825D01*
X267562001Y-14035625D01*
X267330777Y-14263946D01*
X267084546Y-14490854D01*
X266822674Y-14716812D01*
X266544532Y-14942283D01*
X266249490Y-15167731D01*
X265936915Y-15393617D01*
X265606178Y-15620405D01*
X265256647Y-15848557D01*
X264887692Y-16078538D01*
X264498682Y-16310809D01*
X264323472Y-16412432D01*
X264142368Y-16516601D01*
X263978777Y-16610727D01*
X263831856Y-16695303D01*
X263700759Y-16770823D01*
X263584644Y-16837778D01*
X263482664Y-16896661D01*
X263393976Y-16947965D01*
X263317735Y-16992183D01*
X263253097Y-17029807D01*
X263199217Y-17061330D01*
X263155250Y-17087244D01*
X263120351Y-17108043D01*
X263093678Y-17124219D01*
X263074384Y-17136264D01*
X263061626Y-17144672D01*
X263054558Y-17149935D01*
X263052337Y-17152545D01*
X263054002Y-17153010D01*
X263064410Y-17148442D01*
X263091366Y-17135847D01*
X263132365Y-17116415D01*
X263184903Y-17091339D01*
X263246473Y-17061812D01*
X263314573Y-17029025D01*
X263318056Y-17027345D01*
X263543916Y-16918316D01*
X263751866Y-16817769D01*
X263943105Y-16725083D01*
X264118832Y-16639640D01*
X264280246Y-16560819D01*
X264428548Y-16488000D01*
X264564935Y-16420564D01*
X264690608Y-16357889D01*
X264806766Y-16299357D01*
X264914608Y-16244348D01*
X265015333Y-16192241D01*
X265110141Y-16142417D01*
X265200232Y-16094255D01*
X265286803Y-16047136D01*
X265371056Y-16000440D01*
X265454188Y-15953546D01*
X265537400Y-15905835D01*
X265621891Y-15856688D01*
X265708859Y-15805483D01*
X265799505Y-15751602D01*
X265884514Y-15700732D01*
X266245452Y-15477522D01*
X266586665Y-15252646D01*
X266909583Y-15025081D01*
X267215638Y-14793800D01*
X267506262Y-14557780D01*
X267632733Y-14449453D01*
X267697129Y-14391974D01*
X267769966Y-14324578D01*
X267848628Y-14249878D01*
X267930500Y-14170488D01*
X268012965Y-14089019D01*
X268093409Y-14008086D01*
X268169216Y-13930301D01*
X268237769Y-13858277D01*
X268296453Y-13794627D01*
X268342653Y-13741964D01*
X268351196Y-13731732D01*
X268497764Y-13543286D01*
X268625849Y-13355954D01*
X268735044Y-13170496D01*
X268824944Y-12987671D01*
X268895144Y-12808238D01*
X268945238Y-12632956D01*
X268950355Y-12610036D01*
X268963184Y-12530864D01*
X268971494Y-12437314D01*
X268975283Y-12335583D01*
X268974549Y-12231869D01*
X268969288Y-12132372D01*
X268959498Y-12043289D01*
X268950622Y-11993524D01*
X268919331Y-11867068D01*
X268881840Y-11752277D01*
X268835027Y-11639874D01*
X268822528Y-11613209D01*
X268779078Y-11527515D01*
X268733591Y-11449518D01*
X268683285Y-11375544D01*
X268625379Y-11301921D01*
X268557092Y-11224975D01*
X268475643Y-11141034D01*
X268433666Y-11099718D01*
X268314949Y-10990306D01*
X268189397Y-10886897D01*
X268055613Y-10788777D01*
X267912201Y-10695229D01*
X267757764Y-10605540D01*
X267590905Y-10518993D01*
X267410229Y-10434875D01*
X267214339Y-10352470D01*
X267001839Y-10271063D01*
X266771332Y-10189939D01*
X266521421Y-10108383D01*
X266460092Y-10089192D01*
X266175056Y-10004441D01*
X265883406Y-9925327D01*
X265583336Y-9851486D01*
X265273037Y-9782557D01*
X264950701Y-9718177D01*
X264614522Y-9657985D01*
X264262690Y-9601618D01*
X263893399Y-9548715D01*
X263524431Y-9501296D01*
X263450761Y-9492265D01*
X263384414Y-9484043D01*
X263328160Y-9476979D01*
X263284769Y-9471425D01*
X263257010Y-9467730D01*
X263247646Y-9466266D01*
X263247509Y-9455728D01*
X263247782Y-9426223D01*
X263248429Y-9379947D01*
X263249414Y-9319094D01*
X263249658Y-9305140D01*
X262798277Y-9305140D01*
X262797540Y-9360859D01*
X262796021Y-9398135D01*
X262793731Y-9415818D01*
X262792725Y-9417167D01*
X262779981Y-9415867D01*
X262749041Y-9412200D01*
X262702697Y-9406510D01*
X262643746Y-9399147D01*
X262574982Y-9390455D01*
X262499198Y-9380782D01*
X262492112Y-9379873D01*
X262086103Y-9324416D01*
X261695482Y-9264275D01*
X261320605Y-9199566D01*
X260961829Y-9130404D01*
X260619511Y-9056903D01*
X260294007Y-8979179D01*
X259985674Y-8897347D01*
X259694868Y-8811522D01*
X259421947Y-8721818D01*
X259167266Y-8628351D01*
X258931183Y-8531236D01*
X258714053Y-8430588D01*
X258516235Y-8326522D01*
X258338083Y-8219152D01*
X258179956Y-8108595D01*
X258042209Y-7994964D01*
X257963656Y-7919392D01*
X257859933Y-7802570D01*
X257776571Y-7685645D01*
X257712823Y-7566936D01*
X257667941Y-7444766D01*
X257641180Y-7317455D01*
X257631790Y-7183323D01*
X257631765Y-7173500D01*
X257639340Y-7044914D01*
X257662105Y-6916317D01*
X257700754Y-6785798D01*
X257755978Y-6651444D01*
X257828470Y-6511343D01*
X257918922Y-6363585D01*
X257932563Y-6342923D01*
X258065180Y-6156995D01*
X258218230Y-5966893D01*
X258391439Y-5772842D01*
X258584534Y-5575067D01*
X258797244Y-5373793D01*
X259029295Y-5169244D01*
X259280416Y-4961645D01*
X259550332Y-4751221D01*
X259838772Y-4538197D01*
X260145463Y-4322798D01*
X260470133Y-4105248D01*
X260812508Y-3885772D01*
X261172317Y-3664595D01*
X261203282Y-3645971D01*
X261287213Y-3596035D01*
X261379400Y-3542000D01*
X261478306Y-3484712D01*
X261582391Y-3425019D01*
X261690114Y-3363766D01*
X261799936Y-3301799D01*
X261910318Y-3239965D01*
X262019720Y-3179110D01*
X262126602Y-3120080D01*
X262229425Y-3063722D01*
X262326649Y-3010881D01*
X262416735Y-2962404D01*
X262498142Y-2919138D01*
X262569332Y-2881927D01*
X262628763Y-2851619D01*
X262674898Y-2829060D01*
X262706197Y-2815096D01*
X262721118Y-2810573D01*
X262722161Y-2811144D01*
X262722477Y-2822391D01*
X262722931Y-2853623D01*
X262723514Y-2903662D01*
X262724214Y-2971327D01*
X262725024Y-3055438D01*
X262725931Y-3154815D01*
X262726926Y-3268278D01*
X262727998Y-3394647D01*
X262729139Y-3532743D01*
X262730336Y-3681384D01*
X262731581Y-3839391D01*
X262732863Y-4005585D01*
X262734171Y-4178784D01*
X262735496Y-4357810D01*
X262735539Y-4363625D01*
X262738311Y-4730205D01*
X262741135Y-5078441D01*
X262744047Y-5411156D01*
X262747084Y-5731173D01*
X262750282Y-6041315D01*
X262753678Y-6344405D01*
X262757307Y-6643266D01*
X262761206Y-6940721D01*
X262765411Y-7239593D01*
X262769959Y-7542705D01*
X262774887Y-7852879D01*
X262780229Y-8172939D01*
X262786023Y-8505707D01*
X262792305Y-8854007D01*
X262795714Y-9038813D01*
X262797373Y-9142967D01*
X262798225Y-9232126D01*
X262798277Y-9305140D01*
X263249658Y-9305140D01*
X263250699Y-9245861D01*
X263252249Y-9162442D01*
X263254027Y-9071033D01*
X263255046Y-9020292D01*
X263262226Y-8651794D01*
X263269139Y-8268244D01*
X263275738Y-7873133D01*
X263281979Y-7469953D01*
X263287817Y-7062194D01*
X263293206Y-6653348D01*
X263298100Y-6246907D01*
X263302456Y-5846362D01*
X263306226Y-5455203D01*
X263309366Y-5076924D01*
X263311831Y-4715014D01*
X263312564Y-4585875D01*
X263313493Y-4414430D01*
X263314513Y-4231201D01*
X263315601Y-4039690D01*
X263316736Y-3843398D01*
X263317899Y-3645826D01*
X263319068Y-3450477D01*
X263320223Y-3260851D01*
X263321341Y-3080451D01*
X263322404Y-2912776D01*
X263323389Y-2761330D01*
X263323766Y-2704688D01*
X263324803Y-2534404D01*
X263325487Y-2384719D01*
X263325813Y-2255065D01*
X263325778Y-2144879D01*
X263325378Y-2053594D01*
X263324609Y-1980643D01*
X263323468Y-1925463D01*
X263321950Y-1887486D01*
X263320053Y-1866147D01*
X263318178Y-1860667D01*
X263304666Y-1865150D01*
G04 #@! TD*
D11*
G04 #@! TO.C,J_PWR1*
X26250000Y-15000000D03*
D12*
X28790000Y-15000000D03*
X26250000Y-12460000D03*
X28790000Y-12460000D03*
X26250000Y-9920000D03*
X28790000Y-9920000D03*
X26250000Y-7380000D03*
X28790000Y-7380000D03*
X26250000Y-4840000D03*
X28790000Y-4840000D03*
G04 #@! TD*
D13*
G04 #@! TO.C,C1*
X61000000Y-15000000D03*
D14*
X63000000Y-15000000D03*
G04 #@! TD*
G04 #@! TO.C,C2*
X63000000Y-5000000D03*
D13*
X61000000Y-5000000D03*
G04 #@! TD*
D15*
G04 #@! TO.C,C3*
X69000000Y-13000000D03*
X74000000Y-13000000D03*
G04 #@! TD*
G04 #@! TO.C,C4*
X69000000Y-7000000D03*
X74000000Y-7000000D03*
G04 #@! TD*
D16*
G04 #@! TO.C,D1*
X46660000Y-12000000D03*
D17*
X36500000Y-12000000D03*
G04 #@! TD*
G04 #@! TO.C,D2*
X36500000Y-7500000D03*
D16*
X46660000Y-7500000D03*
G04 #@! TD*
D15*
G04 #@! TO.C,R_FUSE_1*
X46000000Y-16500000D03*
D18*
X38380000Y-16500000D03*
G04 #@! TD*
G04 #@! TO.C,R_FUSE_2*
X38380000Y-3500000D03*
D15*
X46000000Y-3500000D03*
G04 #@! TD*
G04 #@! TO.C,C5*
X130500000Y-16000000D03*
X125500000Y-16000000D03*
G04 #@! TD*
G04 #@! TO.C,C6*
X198400000Y-16000000D03*
X203400000Y-16000000D03*
G04 #@! TD*
G04 #@! TO.C,C7*
X321400000Y-16500000D03*
X316400000Y-16500000D03*
G04 #@! TD*
G04 #@! TO.C,C8*
X394600000Y-16500000D03*
X399600000Y-16500000D03*
G04 #@! TD*
D11*
G04 #@! TO.C,J_MB2.1*
X114500000Y-5000000D03*
D12*
X111960000Y-5000000D03*
X114500000Y-7540000D03*
X111960000Y-7540000D03*
X114500000Y-10080000D03*
X111960000Y-10080000D03*
X114500000Y-12620000D03*
X111960000Y-12620000D03*
X114500000Y-15160000D03*
X111960000Y-15160000D03*
G04 #@! TD*
D11*
G04 #@! TO.C,J_MB3.1*
X414500000Y-5000000D03*
D12*
X411960000Y-5000000D03*
X414500000Y-7540000D03*
X411960000Y-7540000D03*
X414500000Y-10080000D03*
X411960000Y-10080000D03*
X414500000Y-12620000D03*
X411960000Y-12620000D03*
X414500000Y-15160000D03*
X411960000Y-15160000D03*
G04 #@! TD*
G04 #@! TO.C,J_MB4.1*
X471960000Y-15160000D03*
X474500000Y-15160000D03*
X471960000Y-12620000D03*
X474500000Y-12620000D03*
X471960000Y-10080000D03*
X474500000Y-10080000D03*
X471960000Y-7540000D03*
X474500000Y-7540000D03*
X471960000Y-5000000D03*
D11*
X474500000Y-5000000D03*
G04 #@! TD*
D15*
G04 #@! TO.C,R2*
X98500000Y-16500000D03*
D18*
X106120000Y-16500000D03*
G04 #@! TD*
D15*
G04 #@! TO.C,R4*
X180000000Y-17000000D03*
D18*
X187620000Y-17000000D03*
G04 #@! TD*
D15*
G04 #@! TO.C,R6*
X300500000Y-16600000D03*
D18*
X308120000Y-16600000D03*
G04 #@! TD*
G04 #@! TO.C,R8*
X386120000Y-16500000D03*
D15*
X378500000Y-16500000D03*
G04 #@! TD*
D18*
G04 #@! TO.C,R_IN_1*
X137000000Y-1380000D03*
D15*
X137000000Y-9000000D03*
G04 #@! TD*
G04 #@! TO.C,R_IN_2*
X141700000Y-9000000D03*
D18*
X141700000Y-1380000D03*
G04 #@! TD*
D15*
G04 #@! TO.C,R_IN_3*
X146500000Y-9000000D03*
D18*
X146500000Y-1380000D03*
G04 #@! TD*
G04 #@! TO.C,R_IN_4*
X151300000Y-1380000D03*
D15*
X151300000Y-9000000D03*
G04 #@! TD*
D18*
G04 #@! TO.C,R_IN_5*
X155900000Y-1380000D03*
D15*
X155900000Y-9000000D03*
G04 #@! TD*
D18*
G04 #@! TO.C,R_IN_6*
X212400000Y-1380000D03*
D15*
X212400000Y-9000000D03*
G04 #@! TD*
G04 #@! TO.C,R_IN_7*
X217000000Y-9000000D03*
D18*
X217000000Y-1380000D03*
G04 #@! TD*
G04 #@! TO.C,R_IN_8*
X221800000Y-1380000D03*
D15*
X221800000Y-9000000D03*
G04 #@! TD*
G04 #@! TO.C,R_IN_9*
X226600000Y-9000000D03*
D18*
X226600000Y-1380000D03*
G04 #@! TD*
G04 #@! TO.C,R_IN_10*
X231200000Y-1380000D03*
D15*
X231200000Y-9000000D03*
G04 #@! TD*
D18*
G04 #@! TO.C,R_IN_11*
X329600000Y-1380000D03*
D15*
X329600000Y-9000000D03*
G04 #@! TD*
D18*
G04 #@! TO.C,R_IN_12*
X334400000Y-1380000D03*
D15*
X334400000Y-9000000D03*
G04 #@! TD*
G04 #@! TO.C,R_IN_13*
X339200000Y-9000000D03*
D18*
X339200000Y-1380000D03*
G04 #@! TD*
G04 #@! TO.C,R_IN_14*
X344000000Y-1380000D03*
D15*
X344000000Y-9000000D03*
G04 #@! TD*
G04 #@! TO.C,R_IN_15*
X348800000Y-9000000D03*
D18*
X348800000Y-1380000D03*
G04 #@! TD*
D15*
G04 #@! TO.C,R_IN_16*
X422400000Y-9000000D03*
D18*
X422400000Y-1380000D03*
G04 #@! TD*
G04 #@! TO.C,R_IN_17*
X427200000Y-1380000D03*
D15*
X427200000Y-9000000D03*
G04 #@! TD*
G04 #@! TO.C,R_IN_18*
X432000000Y-9000000D03*
D18*
X432000000Y-1380000D03*
G04 #@! TD*
G04 #@! TO.C,R_IN_19*
X451800000Y-1380000D03*
D15*
X451800000Y-9000000D03*
G04 #@! TD*
G04 #@! TO.C,R_IN_20*
X456600000Y-9000000D03*
D18*
X456600000Y-1380000D03*
G04 #@! TD*
D15*
G04 #@! TO.C,R_LED_1_1*
X158500000Y-18620000D03*
D18*
X158500000Y-11000000D03*
G04 #@! TD*
D15*
G04 #@! TO.C,R_LED_2_1*
X233800000Y-18600000D03*
D18*
X233800000Y-10980000D03*
G04 #@! TD*
G04 #@! TO.C,R_LED_3_1*
X351200000Y-10980000D03*
D15*
X351200000Y-18600000D03*
G04 #@! TD*
G04 #@! TO.C,R_LED_4_1*
X459000000Y-18600000D03*
D18*
X459000000Y-10980000D03*
G04 #@! TD*
D15*
G04 #@! TO.C,R_OUT_1*
X139300000Y-18620000D03*
D18*
X139300000Y-11000000D03*
G04 #@! TD*
G04 #@! TO.C,R_OUT_2*
X144100000Y-11000000D03*
D15*
X144100000Y-18620000D03*
G04 #@! TD*
G04 #@! TO.C,R_OUT_3*
X149100000Y-18620000D03*
D18*
X149100000Y-11000000D03*
G04 #@! TD*
G04 #@! TO.C,R_OUT_4*
X153700000Y-11000000D03*
D15*
X153700000Y-18620000D03*
G04 #@! TD*
G04 #@! TO.C,R_OUT_5*
X214600000Y-18600000D03*
D18*
X214600000Y-10980000D03*
G04 #@! TD*
G04 #@! TO.C,R_OUT_6*
X219400000Y-10980000D03*
D15*
X219400000Y-18600000D03*
G04 #@! TD*
G04 #@! TO.C,R_OUT_7*
X224200000Y-18600000D03*
D18*
X224200000Y-10980000D03*
G04 #@! TD*
G04 #@! TO.C,R_OUT_8*
X229000000Y-10980000D03*
D15*
X229000000Y-18600000D03*
G04 #@! TD*
G04 #@! TO.C,R_OUT_9*
X332000000Y-18600000D03*
D18*
X332000000Y-10980000D03*
G04 #@! TD*
G04 #@! TO.C,R_OUT_10*
X336800000Y-10980000D03*
D15*
X336800000Y-18600000D03*
G04 #@! TD*
D18*
G04 #@! TO.C,R_OUT_11*
X341600000Y-10980000D03*
D15*
X341600000Y-18600000D03*
G04 #@! TD*
D18*
G04 #@! TO.C,R_OUT_12*
X346400000Y-10980000D03*
D15*
X346400000Y-18600000D03*
G04 #@! TD*
G04 #@! TO.C,R_OUT_13*
X424800000Y-18600000D03*
D18*
X424800000Y-10980000D03*
G04 #@! TD*
G04 #@! TO.C,R_OUT_14*
X429600000Y-10980000D03*
D15*
X429600000Y-18600000D03*
G04 #@! TD*
G04 #@! TO.C,R_OUT_15*
X434400000Y-18600000D03*
D18*
X434400000Y-10980000D03*
G04 #@! TD*
G04 #@! TO.C,R_OUT_16*
X454200000Y-10980000D03*
D15*
X454200000Y-18600000D03*
G04 #@! TD*
D18*
G04 #@! TO.C,R_Split_1_1*
X131620000Y-4500000D03*
D15*
X124000000Y-4500000D03*
G04 #@! TD*
D18*
G04 #@! TO.C,R_Split_1_2*
X131620000Y-10500000D03*
D15*
X124000000Y-10500000D03*
G04 #@! TD*
G04 #@! TO.C,R_Split_2_1*
X197000000Y-4000000D03*
D18*
X204620000Y-4000000D03*
G04 #@! TD*
D15*
G04 #@! TO.C,R_Split_2_2*
X197000000Y-10000000D03*
D18*
X204620000Y-10000000D03*
G04 #@! TD*
D15*
G04 #@! TO.C,R_Split_3_1*
X315200000Y-4000000D03*
D18*
X322820000Y-4000000D03*
G04 #@! TD*
D15*
G04 #@! TO.C,R_Split_3_2*
X315200000Y-10000000D03*
D18*
X322820000Y-10000000D03*
G04 #@! TD*
G04 #@! TO.C,R_Split_4_1*
X400820000Y-4000000D03*
D15*
X393200000Y-4000000D03*
G04 #@! TD*
D18*
G04 #@! TO.C,R_Split_4_2*
X401020000Y-10000000D03*
D15*
X393400000Y-10000000D03*
G04 #@! TD*
D19*
G04 #@! TO.C,U1*
X91500000Y-11000000D03*
D18*
X106740000Y-3380000D03*
X94040000Y-11000000D03*
X104200000Y-3380000D03*
X96580000Y-11000000D03*
X101660000Y-3380000D03*
X99120000Y-11000000D03*
X99120000Y-3380000D03*
X101660000Y-11000000D03*
X96580000Y-3380000D03*
X104200000Y-11000000D03*
X94040000Y-3380000D03*
X106740000Y-11000000D03*
X91500000Y-3380000D03*
G04 #@! TD*
G04 #@! TO.C,U2*
X171600000Y-3380000D03*
X186840000Y-11000000D03*
X174140000Y-3380000D03*
X184300000Y-11000000D03*
X176680000Y-3380000D03*
X181760000Y-11000000D03*
X179220000Y-3380000D03*
X179220000Y-11000000D03*
X181760000Y-3380000D03*
X176680000Y-11000000D03*
X184300000Y-3380000D03*
X174140000Y-11000000D03*
X186840000Y-3380000D03*
D19*
X171600000Y-11000000D03*
G04 #@! TD*
D18*
G04 #@! TO.C,U3*
X292200000Y-3380000D03*
X307440000Y-11000000D03*
X294740000Y-3380000D03*
X304900000Y-11000000D03*
X297280000Y-3380000D03*
X302360000Y-11000000D03*
X299820000Y-3380000D03*
X299820000Y-11000000D03*
X302360000Y-3380000D03*
X297280000Y-11000000D03*
X304900000Y-3380000D03*
X294740000Y-11000000D03*
X307440000Y-3380000D03*
D19*
X292200000Y-11000000D03*
G04 #@! TD*
G04 #@! TO.C,U4*
X370400000Y-11000000D03*
D18*
X385640000Y-3380000D03*
X372940000Y-11000000D03*
X383100000Y-3380000D03*
X375480000Y-11000000D03*
X380560000Y-3380000D03*
X378020000Y-11000000D03*
X378020000Y-3380000D03*
X380560000Y-11000000D03*
X375480000Y-3380000D03*
X383100000Y-11000000D03*
X372940000Y-3380000D03*
X385640000Y-11000000D03*
X370400000Y-3380000D03*
G04 #@! TD*
D20*
G04 #@! TO.C,H_MB_1*
X83000000Y-10000000D03*
G04 #@! TD*
G04 #@! TO.C,H_MB_2*
X443000000Y-10000000D03*
G04 #@! TD*
D11*
G04 #@! TO.C,J_MB1.1*
X54500000Y-5000000D03*
D12*
X51960000Y-5000000D03*
X54500000Y-7540000D03*
X51960000Y-7540000D03*
X54500000Y-10080000D03*
X51960000Y-10080000D03*
X54500000Y-12620000D03*
X51960000Y-12620000D03*
X54500000Y-15160000D03*
X51960000Y-15160000D03*
G04 #@! TD*
D11*
G04 #@! TO.C,J_MB1.2*
X4000000Y-2500000D03*
D12*
X6540000Y-2500000D03*
X9080000Y-2500000D03*
G04 #@! TD*
G04 #@! TO.C,J_MB2.2*
X22080000Y-2500000D03*
X19540000Y-2500000D03*
D11*
X17000000Y-2500000D03*
G04 #@! TD*
G04 #@! TO.C,J_MB3.2*
X509000000Y-2800000D03*
D12*
X506460000Y-2800000D03*
X503920000Y-2800000D03*
G04 #@! TD*
G04 #@! TO.C,J_MB4.2*
X516920000Y-2500000D03*
X519460000Y-2500000D03*
D11*
X522000000Y-2500000D03*
G04 #@! TD*
M02*
