G04 #@! TF.GenerationSoftware,KiCad,Pcbnew,(5.0.0)*
G04 #@! TF.CreationDate,2019-01-13T18:35:45+01:00*
G04 #@! TF.ProjectId,1u_complex_bus_mainboard,31755F636F6D706C65785F6275735F6D,rev?*
G04 #@! TF.SameCoordinates,Original*
G04 #@! TF.FileFunction,Copper,L1,Top,Signal*
G04 #@! TF.FilePolarity,Positive*
%FSLAX46Y46*%
G04 Gerber Fmt 4.6, Leading zero omitted, Abs format (unit mm)*
G04 Created by KiCad (PCBNEW (5.0.0)) date 01/13/19 18:35:45*
%MOMM*%
%LPD*%
G01*
G04 APERTURE LIST*
G04 #@! TA.AperFunction,ComponentPad*
%ADD10R,1.700000X1.700000*%
G04 #@! TD*
G04 #@! TA.AperFunction,ComponentPad*
%ADD11O,1.700000X1.700000*%
G04 #@! TD*
G04 #@! TA.AperFunction,ComponentPad*
%ADD12R,1.200000X1.200000*%
G04 #@! TD*
G04 #@! TA.AperFunction,ComponentPad*
%ADD13C,1.200000*%
G04 #@! TD*
G04 #@! TA.AperFunction,ComponentPad*
%ADD14C,1.600000*%
G04 #@! TD*
G04 #@! TA.AperFunction,ComponentPad*
%ADD15O,2.200000X2.200000*%
G04 #@! TD*
G04 #@! TA.AperFunction,ComponentPad*
%ADD16R,2.200000X2.200000*%
G04 #@! TD*
G04 #@! TA.AperFunction,ComponentPad*
%ADD17O,1.600000X1.600000*%
G04 #@! TD*
G04 #@! TA.AperFunction,ComponentPad*
%ADD18R,1.600000X1.600000*%
G04 #@! TD*
G04 #@! TA.AperFunction,ViaPad*
%ADD19C,0.800000*%
G04 #@! TD*
G04 #@! TA.AperFunction,Conductor*
%ADD20C,0.250000*%
G04 #@! TD*
G04 #@! TA.AperFunction,Conductor*
%ADD21C,0.254000*%
G04 #@! TD*
G04 APERTURE END LIST*
D10*
G04 #@! TO.P,J_PWR1,1*
G04 #@! TO.N,Net-(D2-Pad2)*
X26250000Y-15000000D03*
D11*
G04 #@! TO.P,J_PWR1,2*
X28790000Y-15000000D03*
G04 #@! TO.P,J_PWR1,3*
G04 #@! TO.N,GND*
X26250000Y-12460000D03*
G04 #@! TO.P,J_PWR1,4*
X28790000Y-12460000D03*
G04 #@! TO.P,J_PWR1,5*
X26250000Y-9920000D03*
G04 #@! TO.P,J_PWR1,6*
X28790000Y-9920000D03*
G04 #@! TO.P,J_PWR1,7*
X26250000Y-7380000D03*
G04 #@! TO.P,J_PWR1,8*
X28790000Y-7380000D03*
G04 #@! TO.P,J_PWR1,9*
G04 #@! TO.N,Net-(D1-Pad1)*
X26250000Y-4840000D03*
G04 #@! TO.P,J_PWR1,10*
X28790000Y-4840000D03*
G04 #@! TD*
D12*
G04 #@! TO.P,C1,1*
G04 #@! TO.N,+12V*
X61000000Y-15000000D03*
D13*
G04 #@! TO.P,C1,2*
G04 #@! TO.N,GND*
X63000000Y-15000000D03*
G04 #@! TD*
G04 #@! TO.P,C2,2*
G04 #@! TO.N,-12V*
X63000000Y-5000000D03*
D12*
G04 #@! TO.P,C2,1*
G04 #@! TO.N,GND*
X61000000Y-5000000D03*
G04 #@! TD*
D14*
G04 #@! TO.P,C3,1*
G04 #@! TO.N,+12V*
X69000000Y-13000000D03*
G04 #@! TO.P,C3,2*
G04 #@! TO.N,GND*
X74000000Y-13000000D03*
G04 #@! TD*
G04 #@! TO.P,C4,2*
G04 #@! TO.N,-12V*
X69000000Y-7000000D03*
G04 #@! TO.P,C4,1*
G04 #@! TO.N,GND*
X74000000Y-7000000D03*
G04 #@! TD*
D15*
G04 #@! TO.P,D1,2*
G04 #@! TO.N,GND*
X46660000Y-12000000D03*
D16*
G04 #@! TO.P,D1,1*
G04 #@! TO.N,Net-(D1-Pad1)*
X36500000Y-12000000D03*
G04 #@! TD*
G04 #@! TO.P,D2,1*
G04 #@! TO.N,GND*
X36500000Y-7500000D03*
D15*
G04 #@! TO.P,D2,2*
G04 #@! TO.N,Net-(D2-Pad2)*
X46660000Y-7500000D03*
G04 #@! TD*
D14*
G04 #@! TO.P,R_FUSE_1,1*
G04 #@! TO.N,+12V*
X46000000Y-16500000D03*
D17*
G04 #@! TO.P,R_FUSE_1,2*
G04 #@! TO.N,Net-(D1-Pad1)*
X38380000Y-16500000D03*
G04 #@! TD*
G04 #@! TO.P,R_FUSE_2,2*
G04 #@! TO.N,Net-(D2-Pad2)*
X38380000Y-3500000D03*
D14*
G04 #@! TO.P,R_FUSE_2,1*
G04 #@! TO.N,-12V*
X46000000Y-3500000D03*
G04 #@! TD*
G04 #@! TO.P,C5,2*
G04 #@! TO.N,Net-(C5-Pad2)*
X130500000Y-16000000D03*
G04 #@! TO.P,C5,1*
G04 #@! TO.N,/cv_bus1/LEDS_OUT_1*
X125500000Y-16000000D03*
G04 #@! TD*
G04 #@! TO.P,C6,1*
G04 #@! TO.N,/cv_bus2/LEDS_OUT_2*
X198400000Y-16000000D03*
G04 #@! TO.P,C6,2*
G04 #@! TO.N,Net-(C6-Pad2)*
X203400000Y-16000000D03*
G04 #@! TD*
G04 #@! TO.P,C7,2*
G04 #@! TO.N,Net-(C7-Pad2)*
X321400000Y-16500000D03*
G04 #@! TO.P,C7,1*
G04 #@! TO.N,Net-(C7-Pad1)*
X316400000Y-16500000D03*
G04 #@! TD*
G04 #@! TO.P,C8,1*
G04 #@! TO.N,/cv_bus4/LEDS_OUT_4*
X394600000Y-16500000D03*
G04 #@! TO.P,C8,2*
G04 #@! TO.N,Net-(C8-Pad2)*
X399600000Y-16500000D03*
G04 #@! TD*
D10*
G04 #@! TO.P,J_MB2.1,1*
G04 #@! TO.N,/cv_bus2/IN_2_1*
X114500000Y-5000000D03*
D11*
G04 #@! TO.P,J_MB2.1,2*
G04 #@! TO.N,/cv_bus2/IN_2_2*
X111960000Y-5000000D03*
G04 #@! TO.P,J_MB2.1,3*
G04 #@! TO.N,/cv_bus2/IN_2_3*
X114500000Y-7540000D03*
G04 #@! TO.P,J_MB2.1,4*
G04 #@! TO.N,/cv_bus2/IN_2_4*
X111960000Y-7540000D03*
G04 #@! TO.P,J_MB2.1,5*
G04 #@! TO.N,/cv_bus2/OUT_2_1*
X114500000Y-10080000D03*
G04 #@! TO.P,J_MB2.1,6*
G04 #@! TO.N,/cv_bus2/OUT_2_2*
X111960000Y-10080000D03*
G04 #@! TO.P,J_MB2.1,7*
G04 #@! TO.N,/cv_bus2/OUT_2_3*
X114500000Y-12620000D03*
G04 #@! TO.P,J_MB2.1,8*
G04 #@! TO.N,/cv_bus2/OUT_2_4*
X111960000Y-12620000D03*
G04 #@! TO.P,J_MB2.1,9*
G04 #@! TO.N,/cv_bus2/LEDS_IN_2*
X114500000Y-15160000D03*
G04 #@! TO.P,J_MB2.1,10*
G04 #@! TO.N,/cv_bus2/LEDS_OUT_2*
X111960000Y-15160000D03*
G04 #@! TD*
D10*
G04 #@! TO.P,J_MB3.1,1*
G04 #@! TO.N,/cv_bus3/IN_3_1*
X414500000Y-5000000D03*
D11*
G04 #@! TO.P,J_MB3.1,2*
G04 #@! TO.N,/cv_bus3/IN_3_2*
X411960000Y-5000000D03*
G04 #@! TO.P,J_MB3.1,3*
G04 #@! TO.N,/cv_bus3/IN_3_3*
X414500000Y-7540000D03*
G04 #@! TO.P,J_MB3.1,4*
G04 #@! TO.N,/cv_bus3/IN_3_4*
X411960000Y-7540000D03*
G04 #@! TO.P,J_MB3.1,5*
G04 #@! TO.N,/cv_bus3/OUT_3_1*
X414500000Y-10080000D03*
G04 #@! TO.P,J_MB3.1,6*
G04 #@! TO.N,/cv_bus3/OUT_3_2*
X411960000Y-10080000D03*
G04 #@! TO.P,J_MB3.1,7*
G04 #@! TO.N,/cv_bus3/OUT_3_3*
X414500000Y-12620000D03*
G04 #@! TO.P,J_MB3.1,8*
G04 #@! TO.N,/cv_bus3/OUT_3_4*
X411960000Y-12620000D03*
G04 #@! TO.P,J_MB3.1,9*
G04 #@! TO.N,/cv_bus3/LEDS_IN_3*
X414500000Y-15160000D03*
G04 #@! TO.P,J_MB3.1,10*
G04 #@! TO.N,/cv_bus3/LEDS_OUT_3*
X411960000Y-15160000D03*
G04 #@! TD*
G04 #@! TO.P,J_MB4.1,10*
G04 #@! TO.N,/cv_bus4/LEDS_OUT_4*
X471960000Y-15160000D03*
G04 #@! TO.P,J_MB4.1,9*
G04 #@! TO.N,/cv_bus4/LEDS_IN_4*
X474500000Y-15160000D03*
G04 #@! TO.P,J_MB4.1,8*
G04 #@! TO.N,/cv_bus4/OUT_4_4*
X471960000Y-12620000D03*
G04 #@! TO.P,J_MB4.1,7*
G04 #@! TO.N,/cv_bus4/OUT_4_3*
X474500000Y-12620000D03*
G04 #@! TO.P,J_MB4.1,6*
G04 #@! TO.N,/cv_bus4/OUT_4_2*
X471960000Y-10080000D03*
G04 #@! TO.P,J_MB4.1,5*
G04 #@! TO.N,/cv_bus4/OUT_4_1*
X474500000Y-10080000D03*
G04 #@! TO.P,J_MB4.1,4*
G04 #@! TO.N,/cv_bus4/IN_4_4*
X471960000Y-7540000D03*
G04 #@! TO.P,J_MB4.1,3*
G04 #@! TO.N,/cv_bus4/IN_4_3*
X474500000Y-7540000D03*
G04 #@! TO.P,J_MB4.1,2*
G04 #@! TO.N,/cv_bus4/IN_4_2*
X471960000Y-5000000D03*
D10*
G04 #@! TO.P,J_MB4.1,1*
G04 #@! TO.N,/cv_bus4/IN_4_1*
X474500000Y-5000000D03*
G04 #@! TD*
D14*
G04 #@! TO.P,R2,1*
G04 #@! TO.N,Net-(C5-Pad2)*
X98500000Y-16500000D03*
D17*
G04 #@! TO.P,R2,2*
G04 #@! TO.N,/cv_bus1/LEDS_OUT_1*
X106120000Y-16500000D03*
G04 #@! TD*
D14*
G04 #@! TO.P,R4,1*
G04 #@! TO.N,Net-(C6-Pad2)*
X180000000Y-17000000D03*
D17*
G04 #@! TO.P,R4,2*
G04 #@! TO.N,/cv_bus2/LEDS_OUT_2*
X187620000Y-17000000D03*
G04 #@! TD*
D14*
G04 #@! TO.P,R6,1*
G04 #@! TO.N,Net-(C7-Pad2)*
X300500000Y-16600000D03*
D17*
G04 #@! TO.P,R6,2*
G04 #@! TO.N,Net-(C7-Pad1)*
X308120000Y-16600000D03*
G04 #@! TD*
G04 #@! TO.P,R8,2*
G04 #@! TO.N,/cv_bus4/LEDS_OUT_4*
X386120000Y-16500000D03*
D14*
G04 #@! TO.P,R8,1*
G04 #@! TO.N,Net-(C8-Pad2)*
X378500000Y-16500000D03*
G04 #@! TD*
D17*
G04 #@! TO.P,R_IN_1,2*
G04 #@! TO.N,/cv_bus1/POT_2*
X137000000Y-1380000D03*
D14*
G04 #@! TO.P,R_IN_1,1*
G04 #@! TO.N,/cv_bus1/IN_1_1*
X137000000Y-9000000D03*
G04 #@! TD*
G04 #@! TO.P,R_IN_2,1*
G04 #@! TO.N,/cv_bus1/IN_1_2*
X141700000Y-9000000D03*
D17*
G04 #@! TO.P,R_IN_2,2*
G04 #@! TO.N,/cv_bus1/POT_2*
X141700000Y-1380000D03*
G04 #@! TD*
D14*
G04 #@! TO.P,R_IN_3,1*
G04 #@! TO.N,/cv_bus1/IN_1_3*
X146500000Y-9000000D03*
D17*
G04 #@! TO.P,R_IN_3,2*
G04 #@! TO.N,/cv_bus1/POT_2*
X146500000Y-1380000D03*
G04 #@! TD*
G04 #@! TO.P,R_IN_4,2*
G04 #@! TO.N,/cv_bus1/POT_2*
X151300000Y-1380000D03*
D14*
G04 #@! TO.P,R_IN_4,1*
G04 #@! TO.N,/cv_bus1/IN_1_4*
X151300000Y-9000000D03*
G04 #@! TD*
D17*
G04 #@! TO.P,R_IN_5,2*
G04 #@! TO.N,Net-(C5-Pad2)*
X155900000Y-1380000D03*
D14*
G04 #@! TO.P,R_IN_5,1*
G04 #@! TO.N,/cv_bus1/POT_1*
X155900000Y-9000000D03*
G04 #@! TD*
D17*
G04 #@! TO.P,R_IN_6,2*
G04 #@! TO.N,/cv_bus2/POT_2*
X212400000Y-1380000D03*
D14*
G04 #@! TO.P,R_IN_6,1*
G04 #@! TO.N,/cv_bus2/IN_2_1*
X212400000Y-9000000D03*
G04 #@! TD*
G04 #@! TO.P,R_IN_7,1*
G04 #@! TO.N,/cv_bus2/IN_2_2*
X217000000Y-9000000D03*
D17*
G04 #@! TO.P,R_IN_7,2*
G04 #@! TO.N,/cv_bus2/POT_2*
X217000000Y-1380000D03*
G04 #@! TD*
G04 #@! TO.P,R_IN_8,2*
G04 #@! TO.N,/cv_bus2/POT_2*
X221800000Y-1380000D03*
D14*
G04 #@! TO.P,R_IN_8,1*
G04 #@! TO.N,/cv_bus2/IN_2_3*
X221800000Y-9000000D03*
G04 #@! TD*
G04 #@! TO.P,R_IN_9,1*
G04 #@! TO.N,/cv_bus2/IN_2_4*
X226600000Y-9000000D03*
D17*
G04 #@! TO.P,R_IN_9,2*
G04 #@! TO.N,/cv_bus2/POT_2*
X226600000Y-1380000D03*
G04 #@! TD*
G04 #@! TO.P,R_IN_10,2*
G04 #@! TO.N,Net-(C6-Pad2)*
X231200000Y-1380000D03*
D14*
G04 #@! TO.P,R_IN_10,1*
G04 #@! TO.N,/cv_bus2/POT_1*
X231200000Y-9000000D03*
G04 #@! TD*
D17*
G04 #@! TO.P,R_IN_11,2*
G04 #@! TO.N,/cv_bus3/POT_2*
X329600000Y-1380000D03*
D14*
G04 #@! TO.P,R_IN_11,1*
G04 #@! TO.N,/cv_bus3/IN_3_1*
X329600000Y-9000000D03*
G04 #@! TD*
D17*
G04 #@! TO.P,R_IN_12,2*
G04 #@! TO.N,/cv_bus3/POT_2*
X334400000Y-1380000D03*
D14*
G04 #@! TO.P,R_IN_12,1*
G04 #@! TO.N,/cv_bus3/IN_3_2*
X334400000Y-9000000D03*
G04 #@! TD*
G04 #@! TO.P,R_IN_13,1*
G04 #@! TO.N,/cv_bus3/IN_3_3*
X339200000Y-9000000D03*
D17*
G04 #@! TO.P,R_IN_13,2*
G04 #@! TO.N,/cv_bus3/POT_2*
X339200000Y-1380000D03*
G04 #@! TD*
G04 #@! TO.P,R_IN_14,2*
G04 #@! TO.N,/cv_bus3/POT_2*
X344000000Y-1380000D03*
D14*
G04 #@! TO.P,R_IN_14,1*
G04 #@! TO.N,/cv_bus3/IN_3_4*
X344000000Y-9000000D03*
G04 #@! TD*
G04 #@! TO.P,R_IN_15,1*
G04 #@! TO.N,/cv_bus3/POT_1*
X348800000Y-9000000D03*
D17*
G04 #@! TO.P,R_IN_15,2*
G04 #@! TO.N,Net-(C7-Pad2)*
X348800000Y-1380000D03*
G04 #@! TD*
D14*
G04 #@! TO.P,R_IN_16,1*
G04 #@! TO.N,/cv_bus4/IN_4_1*
X422400000Y-9000000D03*
D17*
G04 #@! TO.P,R_IN_16,2*
G04 #@! TO.N,/cv_bus4/POT_2*
X422400000Y-1380000D03*
G04 #@! TD*
G04 #@! TO.P,R_IN_17,2*
G04 #@! TO.N,/cv_bus4/POT_2*
X427200000Y-1380000D03*
D14*
G04 #@! TO.P,R_IN_17,1*
G04 #@! TO.N,/cv_bus4/IN_4_2*
X427200000Y-9000000D03*
G04 #@! TD*
G04 #@! TO.P,R_IN_18,1*
G04 #@! TO.N,/cv_bus4/IN_4_3*
X432000000Y-9000000D03*
D17*
G04 #@! TO.P,R_IN_18,2*
G04 #@! TO.N,/cv_bus4/POT_2*
X432000000Y-1380000D03*
G04 #@! TD*
G04 #@! TO.P,R_IN_19,2*
G04 #@! TO.N,/cv_bus4/POT_2*
X451800000Y-1380000D03*
D14*
G04 #@! TO.P,R_IN_19,1*
G04 #@! TO.N,/cv_bus4/IN_4_4*
X451800000Y-9000000D03*
G04 #@! TD*
G04 #@! TO.P,R_IN_20,1*
G04 #@! TO.N,/cv_bus4/POT_1*
X456600000Y-9000000D03*
D17*
G04 #@! TO.P,R_IN_20,2*
G04 #@! TO.N,Net-(C8-Pad2)*
X456600000Y-1380000D03*
G04 #@! TD*
D14*
G04 #@! TO.P,R_LED_1_1,1*
G04 #@! TO.N,GND*
X158500000Y-18620000D03*
D17*
G04 #@! TO.P,R_LED_1_1,2*
G04 #@! TO.N,/cv_bus1/LEDS_OUT_1*
X158500000Y-11000000D03*
G04 #@! TD*
D14*
G04 #@! TO.P,R_LED_2_1,1*
G04 #@! TO.N,GND*
X233800000Y-18600000D03*
D17*
G04 #@! TO.P,R_LED_2_1,2*
G04 #@! TO.N,/cv_bus2/LEDS_OUT_2*
X233800000Y-10980000D03*
G04 #@! TD*
G04 #@! TO.P,R_LED_3_1,2*
G04 #@! TO.N,/cv_bus3/LEDS_OUT_3*
X351200000Y-10980000D03*
D14*
G04 #@! TO.P,R_LED_3_1,1*
G04 #@! TO.N,GND*
X351200000Y-18600000D03*
G04 #@! TD*
G04 #@! TO.P,R_LED_4_1,1*
G04 #@! TO.N,GND*
X459000000Y-18600000D03*
D17*
G04 #@! TO.P,R_LED_4_1,2*
G04 #@! TO.N,/cv_bus4/LEDS_OUT_4*
X459000000Y-10980000D03*
G04 #@! TD*
D14*
G04 #@! TO.P,R_OUT_1,1*
G04 #@! TO.N,/cv_bus1/LEDS_OUT_1*
X139300000Y-18620000D03*
D17*
G04 #@! TO.P,R_OUT_1,2*
G04 #@! TO.N,/cv_bus1/OUT_1_1*
X139300000Y-11000000D03*
G04 #@! TD*
G04 #@! TO.P,R_OUT_2,2*
G04 #@! TO.N,/cv_bus1/OUT_1_2*
X144100000Y-11000000D03*
D14*
G04 #@! TO.P,R_OUT_2,1*
G04 #@! TO.N,/cv_bus1/LEDS_OUT_1*
X144100000Y-18620000D03*
G04 #@! TD*
G04 #@! TO.P,R_OUT_3,1*
G04 #@! TO.N,/cv_bus1/LEDS_OUT_1*
X149100000Y-18620000D03*
D17*
G04 #@! TO.P,R_OUT_3,2*
G04 #@! TO.N,/cv_bus1/OUT_1_3*
X149100000Y-11000000D03*
G04 #@! TD*
G04 #@! TO.P,R_OUT_4,2*
G04 #@! TO.N,/cv_bus1/OUT_1_4*
X153700000Y-11000000D03*
D14*
G04 #@! TO.P,R_OUT_4,1*
G04 #@! TO.N,/cv_bus1/LEDS_OUT_1*
X153700000Y-18620000D03*
G04 #@! TD*
G04 #@! TO.P,R_OUT_5,1*
G04 #@! TO.N,/cv_bus2/LEDS_OUT_2*
X214600000Y-18600000D03*
D17*
G04 #@! TO.P,R_OUT_5,2*
G04 #@! TO.N,/cv_bus2/OUT_2_1*
X214600000Y-10980000D03*
G04 #@! TD*
G04 #@! TO.P,R_OUT_6,2*
G04 #@! TO.N,/cv_bus2/OUT_2_2*
X219400000Y-10980000D03*
D14*
G04 #@! TO.P,R_OUT_6,1*
G04 #@! TO.N,/cv_bus2/LEDS_OUT_2*
X219400000Y-18600000D03*
G04 #@! TD*
G04 #@! TO.P,R_OUT_7,1*
G04 #@! TO.N,/cv_bus2/LEDS_OUT_2*
X224200000Y-18600000D03*
D17*
G04 #@! TO.P,R_OUT_7,2*
G04 #@! TO.N,/cv_bus2/OUT_2_3*
X224200000Y-10980000D03*
G04 #@! TD*
G04 #@! TO.P,R_OUT_8,2*
G04 #@! TO.N,/cv_bus2/OUT_2_4*
X229000000Y-10980000D03*
D14*
G04 #@! TO.P,R_OUT_8,1*
G04 #@! TO.N,/cv_bus2/LEDS_OUT_2*
X229000000Y-18600000D03*
G04 #@! TD*
G04 #@! TO.P,R_OUT_9,1*
G04 #@! TO.N,Net-(C7-Pad1)*
X332000000Y-18600000D03*
D17*
G04 #@! TO.P,R_OUT_9,2*
G04 #@! TO.N,/cv_bus3/OUT_3_1*
X332000000Y-10980000D03*
G04 #@! TD*
G04 #@! TO.P,R_OUT_10,2*
G04 #@! TO.N,/cv_bus3/OUT_3_2*
X336800000Y-10980000D03*
D14*
G04 #@! TO.P,R_OUT_10,1*
G04 #@! TO.N,Net-(C7-Pad1)*
X336800000Y-18600000D03*
G04 #@! TD*
D17*
G04 #@! TO.P,R_OUT_11,2*
G04 #@! TO.N,/cv_bus3/OUT_3_3*
X341600000Y-10980000D03*
D14*
G04 #@! TO.P,R_OUT_11,1*
G04 #@! TO.N,Net-(C7-Pad1)*
X341600000Y-18600000D03*
G04 #@! TD*
D17*
G04 #@! TO.P,R_OUT_12,2*
G04 #@! TO.N,/cv_bus3/OUT_3_4*
X346400000Y-10980000D03*
D14*
G04 #@! TO.P,R_OUT_12,1*
G04 #@! TO.N,Net-(C7-Pad1)*
X346400000Y-18600000D03*
G04 #@! TD*
G04 #@! TO.P,R_OUT_13,1*
G04 #@! TO.N,/cv_bus4/LEDS_OUT_4*
X424800000Y-18600000D03*
D17*
G04 #@! TO.P,R_OUT_13,2*
G04 #@! TO.N,/cv_bus4/OUT_4_1*
X424800000Y-10980000D03*
G04 #@! TD*
G04 #@! TO.P,R_OUT_14,2*
G04 #@! TO.N,/cv_bus4/OUT_4_2*
X429600000Y-10980000D03*
D14*
G04 #@! TO.P,R_OUT_14,1*
G04 #@! TO.N,/cv_bus4/LEDS_OUT_4*
X429600000Y-18600000D03*
G04 #@! TD*
G04 #@! TO.P,R_OUT_15,1*
G04 #@! TO.N,/cv_bus4/LEDS_OUT_4*
X434400000Y-18600000D03*
D17*
G04 #@! TO.P,R_OUT_15,2*
G04 #@! TO.N,/cv_bus4/OUT_4_3*
X434400000Y-10980000D03*
G04 #@! TD*
G04 #@! TO.P,R_OUT_16,2*
G04 #@! TO.N,/cv_bus4/OUT_4_4*
X454200000Y-10980000D03*
D14*
G04 #@! TO.P,R_OUT_16,1*
G04 #@! TO.N,/cv_bus4/LEDS_OUT_4*
X454200000Y-18600000D03*
G04 #@! TD*
D17*
G04 #@! TO.P,R_Split_1_1,2*
G04 #@! TO.N,Net-(R_Split_1_1-Pad2)*
X131620000Y-4500000D03*
D14*
G04 #@! TO.P,R_Split_1_1,1*
G04 #@! TO.N,/cv_bus1/LEDS_OUT_1*
X124000000Y-4500000D03*
G04 #@! TD*
D17*
G04 #@! TO.P,R_Split_1_2,2*
G04 #@! TO.N,Net-(R_Split_1_1-Pad2)*
X131620000Y-10500000D03*
D14*
G04 #@! TO.P,R_Split_1_2,1*
G04 #@! TO.N,GND*
X124000000Y-10500000D03*
G04 #@! TD*
G04 #@! TO.P,R_Split_2_1,1*
G04 #@! TO.N,/cv_bus2/LEDS_OUT_2*
X197000000Y-4000000D03*
D17*
G04 #@! TO.P,R_Split_2_1,2*
G04 #@! TO.N,Net-(R_Split_2_1-Pad2)*
X204620000Y-4000000D03*
G04 #@! TD*
D14*
G04 #@! TO.P,R_Split_2_2,1*
G04 #@! TO.N,GND*
X197000000Y-10000000D03*
D17*
G04 #@! TO.P,R_Split_2_2,2*
G04 #@! TO.N,Net-(R_Split_2_1-Pad2)*
X204620000Y-10000000D03*
G04 #@! TD*
D14*
G04 #@! TO.P,R_Split_3_1,1*
G04 #@! TO.N,Net-(C7-Pad1)*
X315200000Y-4000000D03*
D17*
G04 #@! TO.P,R_Split_3_1,2*
G04 #@! TO.N,Net-(R_Split_3_1-Pad2)*
X322820000Y-4000000D03*
G04 #@! TD*
D14*
G04 #@! TO.P,R_Split_3_2,1*
G04 #@! TO.N,GND*
X315200000Y-10000000D03*
D17*
G04 #@! TO.P,R_Split_3_2,2*
G04 #@! TO.N,Net-(R_Split_3_1-Pad2)*
X322820000Y-10000000D03*
G04 #@! TD*
G04 #@! TO.P,R_Split_4_1,2*
G04 #@! TO.N,Net-(R_Split_4_1-Pad2)*
X400820000Y-4000000D03*
D14*
G04 #@! TO.P,R_Split_4_1,1*
G04 #@! TO.N,/cv_bus4/LEDS_OUT_4*
X393200000Y-4000000D03*
G04 #@! TD*
D17*
G04 #@! TO.P,R_Split_4_2,2*
G04 #@! TO.N,Net-(R_Split_4_1-Pad2)*
X401020000Y-10000000D03*
D14*
G04 #@! TO.P,R_Split_4_2,1*
G04 #@! TO.N,GND*
X393400000Y-10000000D03*
G04 #@! TD*
D18*
G04 #@! TO.P,U1,1*
G04 #@! TO.N,/cv_bus1/POT_1*
X91500000Y-11000000D03*
D17*
G04 #@! TO.P,U1,8*
G04 #@! TO.N,/cv_bus1/LEDS_IN_1*
X106740000Y-3380000D03*
G04 #@! TO.P,U1,2*
G04 #@! TO.N,/cv_bus1/POT_2*
X94040000Y-11000000D03*
G04 #@! TO.P,U1,9*
G04 #@! TO.N,/cv_bus1/LEDS_OUT_1*
X104200000Y-3380000D03*
G04 #@! TO.P,U1,3*
G04 #@! TO.N,GND*
X96580000Y-11000000D03*
G04 #@! TO.P,U1,10*
G04 #@! TO.N,Net-(R_Split_1_1-Pad2)*
X101660000Y-3380000D03*
G04 #@! TO.P,U1,4*
G04 #@! TO.N,+12V*
X99120000Y-11000000D03*
G04 #@! TO.P,U1,11*
G04 #@! TO.N,-12V*
X99120000Y-3380000D03*
G04 #@! TO.P,U1,5*
G04 #@! TO.N,GND*
X101660000Y-11000000D03*
G04 #@! TO.P,U1,12*
X96580000Y-3380000D03*
G04 #@! TO.P,U1,6*
G04 #@! TO.N,Net-(C5-Pad2)*
X104200000Y-11000000D03*
G04 #@! TO.P,U1,13*
G04 #@! TO.N,Net-(U1-Pad13)*
X94040000Y-3380000D03*
G04 #@! TO.P,U1,7*
G04 #@! TO.N,/cv_bus1/LEDS_OUT_1*
X106740000Y-11000000D03*
G04 #@! TO.P,U1,14*
G04 #@! TO.N,Net-(U1-Pad13)*
X91500000Y-3380000D03*
G04 #@! TD*
G04 #@! TO.P,U2,14*
G04 #@! TO.N,Net-(U2-Pad13)*
X171600000Y-3380000D03*
G04 #@! TO.P,U2,7*
G04 #@! TO.N,/cv_bus2/LEDS_OUT_2*
X186840000Y-11000000D03*
G04 #@! TO.P,U2,13*
G04 #@! TO.N,Net-(U2-Pad13)*
X174140000Y-3380000D03*
G04 #@! TO.P,U2,6*
G04 #@! TO.N,Net-(C6-Pad2)*
X184300000Y-11000000D03*
G04 #@! TO.P,U2,12*
G04 #@! TO.N,GND*
X176680000Y-3380000D03*
G04 #@! TO.P,U2,5*
X181760000Y-11000000D03*
G04 #@! TO.P,U2,11*
G04 #@! TO.N,-12V*
X179220000Y-3380000D03*
G04 #@! TO.P,U2,4*
G04 #@! TO.N,+12V*
X179220000Y-11000000D03*
G04 #@! TO.P,U2,10*
G04 #@! TO.N,Net-(R_Split_2_1-Pad2)*
X181760000Y-3380000D03*
G04 #@! TO.P,U2,3*
G04 #@! TO.N,GND*
X176680000Y-11000000D03*
G04 #@! TO.P,U2,9*
G04 #@! TO.N,/cv_bus2/LEDS_OUT_2*
X184300000Y-3380000D03*
G04 #@! TO.P,U2,2*
G04 #@! TO.N,/cv_bus2/POT_2*
X174140000Y-11000000D03*
G04 #@! TO.P,U2,8*
G04 #@! TO.N,/cv_bus2/LEDS_IN_2*
X186840000Y-3380000D03*
D18*
G04 #@! TO.P,U2,1*
G04 #@! TO.N,/cv_bus2/POT_1*
X171600000Y-11000000D03*
G04 #@! TD*
D17*
G04 #@! TO.P,U3,14*
G04 #@! TO.N,Net-(U3-Pad13)*
X292200000Y-3380000D03*
G04 #@! TO.P,U3,7*
G04 #@! TO.N,Net-(C7-Pad1)*
X307440000Y-11000000D03*
G04 #@! TO.P,U3,13*
G04 #@! TO.N,Net-(U3-Pad13)*
X294740000Y-3380000D03*
G04 #@! TO.P,U3,6*
G04 #@! TO.N,Net-(C7-Pad2)*
X304900000Y-11000000D03*
G04 #@! TO.P,U3,12*
G04 #@! TO.N,GND*
X297280000Y-3380000D03*
G04 #@! TO.P,U3,5*
X302360000Y-11000000D03*
G04 #@! TO.P,U3,11*
G04 #@! TO.N,-12V*
X299820000Y-3380000D03*
G04 #@! TO.P,U3,4*
G04 #@! TO.N,+12V*
X299820000Y-11000000D03*
G04 #@! TO.P,U3,10*
G04 #@! TO.N,Net-(R_Split_3_1-Pad2)*
X302360000Y-3380000D03*
G04 #@! TO.P,U3,3*
G04 #@! TO.N,GND*
X297280000Y-11000000D03*
G04 #@! TO.P,U3,9*
G04 #@! TO.N,/cv_bus3/LEDS_OUT_3*
X304900000Y-3380000D03*
G04 #@! TO.P,U3,2*
G04 #@! TO.N,/cv_bus3/POT_2*
X294740000Y-11000000D03*
G04 #@! TO.P,U3,8*
G04 #@! TO.N,/cv_bus3/LEDS_IN_3*
X307440000Y-3380000D03*
D18*
G04 #@! TO.P,U3,1*
G04 #@! TO.N,/cv_bus3/POT_1*
X292200000Y-11000000D03*
G04 #@! TD*
G04 #@! TO.P,U4,1*
G04 #@! TO.N,/cv_bus4/POT_1*
X370400000Y-11000000D03*
D17*
G04 #@! TO.P,U4,8*
G04 #@! TO.N,/cv_bus4/LEDS_IN_4*
X385640000Y-3380000D03*
G04 #@! TO.P,U4,2*
G04 #@! TO.N,/cv_bus4/POT_2*
X372940000Y-11000000D03*
G04 #@! TO.P,U4,9*
G04 #@! TO.N,/cv_bus4/LEDS_OUT_4*
X383100000Y-3380000D03*
G04 #@! TO.P,U4,3*
G04 #@! TO.N,GND*
X375480000Y-11000000D03*
G04 #@! TO.P,U4,10*
G04 #@! TO.N,Net-(R_Split_4_1-Pad2)*
X380560000Y-3380000D03*
G04 #@! TO.P,U4,4*
G04 #@! TO.N,+12V*
X378020000Y-11000000D03*
G04 #@! TO.P,U4,11*
G04 #@! TO.N,-12V*
X378020000Y-3380000D03*
G04 #@! TO.P,U4,5*
G04 #@! TO.N,GND*
X380560000Y-11000000D03*
G04 #@! TO.P,U4,12*
X375480000Y-3380000D03*
G04 #@! TO.P,U4,6*
G04 #@! TO.N,Net-(C8-Pad2)*
X383100000Y-11000000D03*
G04 #@! TO.P,U4,13*
G04 #@! TO.N,Net-(U4-Pad13)*
X372940000Y-3380000D03*
G04 #@! TO.P,U4,7*
G04 #@! TO.N,/cv_bus4/LEDS_OUT_4*
X385640000Y-11000000D03*
G04 #@! TO.P,U4,14*
G04 #@! TO.N,Net-(U4-Pad13)*
X370400000Y-3380000D03*
G04 #@! TD*
D10*
G04 #@! TO.P,J_MB1.1,1*
G04 #@! TO.N,/cv_bus1/IN_1_1*
X54500000Y-5000000D03*
D11*
G04 #@! TO.P,J_MB1.1,2*
G04 #@! TO.N,/cv_bus1/IN_1_2*
X51960000Y-5000000D03*
G04 #@! TO.P,J_MB1.1,3*
G04 #@! TO.N,/cv_bus1/IN_1_3*
X54500000Y-7540000D03*
G04 #@! TO.P,J_MB1.1,4*
G04 #@! TO.N,/cv_bus1/IN_1_4*
X51960000Y-7540000D03*
G04 #@! TO.P,J_MB1.1,5*
G04 #@! TO.N,/cv_bus1/OUT_1_1*
X54500000Y-10080000D03*
G04 #@! TO.P,J_MB1.1,6*
G04 #@! TO.N,/cv_bus1/OUT_1_2*
X51960000Y-10080000D03*
G04 #@! TO.P,J_MB1.1,7*
G04 #@! TO.N,/cv_bus1/OUT_1_3*
X54500000Y-12620000D03*
G04 #@! TO.P,J_MB1.1,8*
G04 #@! TO.N,/cv_bus1/OUT_1_4*
X51960000Y-12620000D03*
G04 #@! TO.P,J_MB1.1,9*
G04 #@! TO.N,/cv_bus1/LEDS_IN_1*
X54500000Y-15160000D03*
G04 #@! TO.P,J_MB1.1,10*
G04 #@! TO.N,/cv_bus1/LEDS_OUT_1*
X51960000Y-15160000D03*
G04 #@! TD*
D10*
G04 #@! TO.P,J_MB1.2,1*
G04 #@! TO.N,/cv_bus1/POT_1*
X4000000Y-2500000D03*
D11*
G04 #@! TO.P,J_MB1.2,2*
G04 #@! TO.N,/cv_bus1/POT_2*
X6540000Y-2500000D03*
G04 #@! TO.P,J_MB1.2,3*
G04 #@! TO.N,GND*
X9080000Y-2500000D03*
G04 #@! TD*
G04 #@! TO.P,J_MB2.2,3*
G04 #@! TO.N,GND*
X22080000Y-2500000D03*
G04 #@! TO.P,J_MB2.2,2*
G04 #@! TO.N,/cv_bus2/POT_2*
X19540000Y-2500000D03*
D10*
G04 #@! TO.P,J_MB2.2,1*
G04 #@! TO.N,/cv_bus2/POT_1*
X17000000Y-2500000D03*
G04 #@! TD*
G04 #@! TO.P,J_MB3.2,1*
G04 #@! TO.N,/cv_bus3/POT_1*
X509000000Y-2800000D03*
D11*
G04 #@! TO.P,J_MB3.2,2*
G04 #@! TO.N,/cv_bus3/POT_2*
X506460000Y-2800000D03*
G04 #@! TO.P,J_MB3.2,3*
G04 #@! TO.N,GND*
X503920000Y-2800000D03*
G04 #@! TD*
G04 #@! TO.P,J_MB4.2,3*
G04 #@! TO.N,GND*
X516920000Y-2500000D03*
G04 #@! TO.P,J_MB4.2,2*
G04 #@! TO.N,/cv_bus4/POT_2*
X519460000Y-2500000D03*
D10*
G04 #@! TO.P,J_MB4.2,1*
G04 #@! TO.N,/cv_bus4/POT_1*
X522000000Y-2500000D03*
G04 #@! TD*
D19*
G04 #@! TO.N,/cv_bus2/LEDS_OUT_2*
X161791200Y-15904500D03*
G04 #@! TO.N,/cv_bus2/IN_2_4*
X163347400Y-12791500D03*
G04 #@! TO.N,/cv_bus2/OUT_2_2*
X167847600Y-12203000D03*
G04 #@! TO.N,/cv_bus2/OUT_2_3*
X161772500Y-13685600D03*
G04 #@! TO.N,/cv_bus2/OUT_2_4*
X160764200Y-14210800D03*
G04 #@! TO.N,/cv_bus3/POT_1*
X413230000Y-8810000D03*
G04 #@! TO.N,/cv_bus3/POT_2*
X495736900Y-3328000D03*
G04 #@! TD*
D20*
G04 #@! TO.N,Net-(D1-Pad1)*
X26250000Y-4840000D02*
X27425300Y-4840000D01*
X28790000Y-5427600D02*
X28012900Y-5427600D01*
X28012900Y-5427600D02*
X27425300Y-4840000D01*
X28790000Y-5427600D02*
X28790000Y-6015300D01*
X28790000Y-4840000D02*
X28790000Y-5427600D01*
X36500000Y-12000000D02*
X35074700Y-12000000D01*
X35074700Y-12000000D02*
X29090000Y-6015300D01*
X29090000Y-6015300D02*
X28790000Y-6015300D01*
G04 #@! TO.N,Net-(D2-Pad2)*
X38380000Y-3500000D02*
X37254700Y-3500000D01*
X37254700Y-3500000D02*
X35074600Y-5680100D01*
X35074600Y-5680100D02*
X35074600Y-8734700D01*
X35074600Y-8734700D02*
X35265300Y-8925400D01*
X35265300Y-8925400D02*
X36096700Y-8925400D01*
X36096700Y-8925400D02*
X37925400Y-10754100D01*
X37925400Y-10754100D02*
X37925400Y-13310200D01*
X37925400Y-13310200D02*
X36235600Y-15000000D01*
X36235600Y-15000000D02*
X28790000Y-15000000D01*
X38942700Y-3500000D02*
X38380000Y-3500000D01*
X38942700Y-3500000D02*
X39505300Y-3500000D01*
X45234700Y-7500000D02*
X43505300Y-7500000D01*
X43505300Y-7500000D02*
X39505300Y-3500000D01*
X28790000Y-15000000D02*
X26250000Y-15000000D01*
X46660000Y-7500000D02*
X45234700Y-7500000D01*
G04 #@! TO.N,Net-(R_Split_2_1-Pad2)*
X204620000Y-4000000D02*
X203494700Y-4000000D01*
X181760000Y-3380000D02*
X182885300Y-3380000D01*
X182885300Y-3380000D02*
X182885300Y-3661300D01*
X182885300Y-3661300D02*
X184349300Y-5125300D01*
X184349300Y-5125300D02*
X202369400Y-5125300D01*
X202369400Y-5125300D02*
X203494700Y-4000000D01*
G04 #@! TO.N,Net-(R_Split_3_1-Pad2)*
X321694700Y-4000000D02*
X319949200Y-2254500D01*
X319949200Y-2254500D02*
X304329500Y-2254500D01*
X304329500Y-2254500D02*
X303485300Y-3098700D01*
X303485300Y-3098700D02*
X303485300Y-3380000D01*
X322820000Y-4000000D02*
X321694700Y-4000000D01*
X302360000Y-3380000D02*
X303485300Y-3380000D01*
G04 #@! TO.N,Net-(R_Split_4_1-Pad2)*
X399694700Y-4000000D02*
X398569400Y-5125300D01*
X398569400Y-5125300D02*
X383149300Y-5125300D01*
X383149300Y-5125300D02*
X381685300Y-3661300D01*
X381685300Y-3661300D02*
X381685300Y-3380000D01*
X400820000Y-4000000D02*
X399694700Y-4000000D01*
X380560000Y-3380000D02*
X381685300Y-3380000D01*
G04 #@! TO.N,Net-(C5-Pad2)*
X155900000Y-1380000D02*
X154774700Y-1380000D01*
X104200000Y-11000000D02*
X104200000Y-9874700D01*
X104200000Y-9874700D02*
X111569400Y-2505300D01*
X111569400Y-2505300D02*
X153649400Y-2505300D01*
X153649400Y-2505300D02*
X154774700Y-1380000D01*
G04 #@! TO.N,/cv_bus1/LEDS_OUT_1*
X155700000Y-11000000D02*
X154548200Y-9848200D01*
X154548200Y-9848200D02*
X152885800Y-9848200D01*
X152885800Y-9848200D02*
X152608600Y-10125400D01*
X152608600Y-10125400D02*
X150225400Y-10125400D01*
X150225400Y-10125400D02*
X149944400Y-9844400D01*
X149944400Y-9844400D02*
X147662500Y-9844400D01*
X147662500Y-9844400D02*
X143279900Y-14227000D01*
X143279900Y-14227000D02*
X127273000Y-14227000D01*
X127273000Y-14227000D02*
X125500000Y-16000000D01*
X158500000Y-11000000D02*
X155700000Y-11000000D01*
X155700000Y-11000000D02*
X155700000Y-16620000D01*
X155700000Y-16620000D02*
X153700000Y-18620000D01*
X149100000Y-18620000D02*
X144100000Y-18620000D01*
X153700000Y-18620000D02*
X149100000Y-18620000D01*
X144100000Y-18620000D02*
X139300000Y-18620000D01*
G04 #@! TO.N,/cv_bus2/LEDS_OUT_2*
X184300000Y-3380000D02*
X185425300Y-3380000D01*
X185425300Y-3380000D02*
X185425300Y-3661300D01*
X185425300Y-3661300D02*
X186270200Y-4506200D01*
X186270200Y-4506200D02*
X196493800Y-4506200D01*
X196493800Y-4506200D02*
X197000000Y-4000000D01*
X187620000Y-17000000D02*
X186494700Y-17000000D01*
X186494700Y-17000000D02*
X185369300Y-15874600D01*
X185369300Y-15874600D02*
X161821100Y-15874600D01*
X161821100Y-15874600D02*
X161791200Y-15904500D01*
X214600000Y-18600000D02*
X201000000Y-18600000D01*
X201000000Y-18600000D02*
X198400000Y-16000000D01*
X219400000Y-18600000D02*
X214600000Y-18600000D01*
X229000000Y-18600000D02*
X229000000Y-16905300D01*
X229000000Y-16905300D02*
X233800000Y-12105300D01*
X229000000Y-18600000D02*
X224200000Y-18600000D01*
X233800000Y-10980000D02*
X233800000Y-12105300D01*
X219400000Y-18600000D02*
X224200000Y-18600000D01*
G04 #@! TO.N,Net-(C6-Pad2)*
X231200000Y-1380000D02*
X231200000Y-2505300D01*
X231200000Y-2505300D02*
X232361400Y-3666700D01*
X232361400Y-3666700D02*
X232361400Y-9477600D01*
X232361400Y-9477600D02*
X225839000Y-16000000D01*
X225839000Y-16000000D02*
X203400000Y-16000000D01*
G04 #@! TO.N,Net-(C7-Pad2)*
X304900000Y-11000000D02*
X306025300Y-11000000D01*
X306025300Y-11000000D02*
X306025300Y-10718700D01*
X306025300Y-10718700D02*
X306872400Y-9871600D01*
X306872400Y-9871600D02*
X311572000Y-9871600D01*
X311572000Y-9871600D02*
X318200400Y-16500000D01*
X318200400Y-16500000D02*
X321400000Y-16500000D01*
X304900000Y-11450000D02*
X304900000Y-11000000D01*
X304900000Y-11450000D02*
X304900000Y-12125300D01*
X304900000Y-12125300D02*
X300500000Y-16525300D01*
X300500000Y-16525300D02*
X300500000Y-16600000D01*
G04 #@! TO.N,Net-(C7-Pad1)*
X307440000Y-11000000D02*
X307440000Y-12125300D01*
X307440000Y-12125300D02*
X308120000Y-12805300D01*
X308120000Y-12805300D02*
X308120000Y-16600000D01*
X316400000Y-16600000D02*
X318400000Y-18600000D01*
X318400000Y-18600000D02*
X332000000Y-18600000D01*
X316400000Y-16500000D02*
X316400000Y-16600000D01*
X316400000Y-16600000D02*
X309245300Y-16600000D01*
X308120000Y-16600000D02*
X309245300Y-16600000D01*
X336800000Y-18600000D02*
X332000000Y-18600000D01*
X341600000Y-18600000D02*
X336800000Y-18600000D01*
X346400000Y-18600000D02*
X341600000Y-18600000D01*
G04 #@! TO.N,/cv_bus4/LEDS_OUT_4*
X459000000Y-14016000D02*
X469640700Y-14016000D01*
X469640700Y-14016000D02*
X470784700Y-15160000D01*
X387245300Y-16500000D02*
X394600000Y-16500000D01*
X454200000Y-18600000D02*
X454416000Y-18600000D01*
X454416000Y-18600000D02*
X459000000Y-14016000D01*
X429600000Y-18600000D02*
X424800000Y-18600000D01*
X386120000Y-16500000D02*
X387245300Y-16500000D01*
X383100000Y-3380000D02*
X384225300Y-3380000D01*
X393200000Y-4000000D02*
X392694700Y-4505300D01*
X392694700Y-4505300D02*
X385069200Y-4505300D01*
X385069200Y-4505300D02*
X384225300Y-3661400D01*
X384225300Y-3661400D02*
X384225300Y-3380000D01*
X459000000Y-12105300D02*
X459000000Y-14016000D01*
X471960000Y-15160000D02*
X470784700Y-15160000D01*
X459000000Y-10980000D02*
X459000000Y-12105300D01*
G04 #@! TO.N,Net-(C8-Pad2)*
X378500000Y-16500000D02*
X379625400Y-15374600D01*
X379625400Y-15374600D02*
X398474600Y-15374600D01*
X398474600Y-15374600D02*
X399600000Y-16500000D01*
G04 #@! TO.N,/cv_bus1/IN_1_1*
X137000000Y-9000000D02*
X127811000Y-9000000D01*
X127811000Y-9000000D02*
X122989800Y-13821200D01*
X122989800Y-13821200D02*
X108053200Y-13821200D01*
X108053200Y-13821200D02*
X107766700Y-13534700D01*
X107766700Y-13534700D02*
X83811900Y-13534700D01*
X83811900Y-13534700D02*
X79358800Y-9081600D01*
X79358800Y-9081600D02*
X60061300Y-9081600D01*
X60061300Y-9081600D02*
X55979700Y-5000000D01*
X55979700Y-5000000D02*
X54500000Y-5000000D01*
G04 #@! TO.N,/cv_bus1/IN_1_2*
X141700000Y-9000000D02*
X139000000Y-9000000D01*
X139000000Y-9000000D02*
X135649500Y-12350500D01*
X135649500Y-12350500D02*
X125097400Y-12350500D01*
X125097400Y-12350500D02*
X121111600Y-16336300D01*
X121111600Y-16336300D02*
X109931400Y-16336300D01*
X109931400Y-16336300D02*
X107580100Y-13985000D01*
X107580100Y-13985000D02*
X83527900Y-13985000D01*
X83527900Y-13985000D02*
X79163000Y-9620100D01*
X79163000Y-9620100D02*
X59962900Y-9620100D01*
X59962900Y-9620100D02*
X56518100Y-6175300D01*
X56518100Y-6175300D02*
X53502500Y-6175300D01*
X53502500Y-6175300D02*
X53135300Y-5808100D01*
X53135300Y-5808100D02*
X53135300Y-5000000D01*
X51960000Y-5000000D02*
X53135300Y-5000000D01*
G04 #@! TO.N,/cv_bus1/OUT_1_1*
X138174700Y-11000000D02*
X136148800Y-13025900D01*
X136148800Y-13025900D02*
X125058900Y-13025900D01*
X125058900Y-13025900D02*
X121298100Y-16786700D01*
X121298100Y-16786700D02*
X109744900Y-16786700D01*
X109744900Y-16786700D02*
X107393500Y-14435300D01*
X107393500Y-14435300D02*
X82998900Y-14435300D01*
X82998900Y-14435300D02*
X78643600Y-10080000D01*
X78643600Y-10080000D02*
X55675300Y-10080000D01*
X54500000Y-10080000D02*
X55675300Y-10080000D01*
X139300000Y-11000000D02*
X138174700Y-11000000D01*
G04 #@! TO.N,/cv_bus1/OUT_1_2*
X142974700Y-11000000D02*
X140273300Y-13701400D01*
X140273300Y-13701400D02*
X125642100Y-13701400D01*
X125642100Y-13701400D02*
X122106500Y-17237000D01*
X122106500Y-17237000D02*
X109558300Y-17237000D01*
X109558300Y-17237000D02*
X107206900Y-14885600D01*
X107206900Y-14885600D02*
X79188100Y-14885600D01*
X79188100Y-14885600D02*
X75273500Y-10971000D01*
X75273500Y-10971000D02*
X67364300Y-10971000D01*
X67364300Y-10971000D02*
X67080000Y-11255300D01*
X67080000Y-11255300D02*
X53943200Y-11255300D01*
X53943200Y-11255300D02*
X53135300Y-10447400D01*
X53135300Y-10447400D02*
X53135300Y-10080000D01*
X144100000Y-11000000D02*
X142974700Y-11000000D01*
X51960000Y-10080000D02*
X53135300Y-10080000D01*
G04 #@! TO.N,/cv_bus1/OUT_1_3*
X147974700Y-11000000D02*
X142545500Y-16429200D01*
X142545500Y-16429200D02*
X138613400Y-16429200D01*
X138613400Y-16429200D02*
X137334500Y-17708100D01*
X137334500Y-17708100D02*
X81373700Y-17708100D01*
X81373700Y-17708100D02*
X75086900Y-11421300D01*
X75086900Y-11421300D02*
X67551000Y-11421300D01*
X67551000Y-11421300D02*
X67100700Y-11871600D01*
X67100700Y-11871600D02*
X56423700Y-11871600D01*
X56423700Y-11871600D02*
X55675300Y-12620000D01*
X149100000Y-11000000D02*
X147974700Y-11000000D01*
X54500000Y-12620000D02*
X55675300Y-12620000D01*
G04 #@! TO.N,/cv_bus1/OUT_1_4*
X153700000Y-11000000D02*
X152574700Y-11000000D01*
X51960000Y-12620000D02*
X53135300Y-12620000D01*
X53135300Y-12620000D02*
X53135300Y-12987300D01*
X53135300Y-12987300D02*
X53953800Y-13805800D01*
X53953800Y-13805800D02*
X60669300Y-13805800D01*
X60669300Y-13805800D02*
X61925500Y-12549600D01*
X61925500Y-12549600D02*
X67171900Y-12549600D01*
X67171900Y-12549600D02*
X67849900Y-11871600D01*
X67849900Y-11871600D02*
X74675000Y-11871600D01*
X74675000Y-11871600D02*
X80961900Y-18158500D01*
X80961900Y-18158500D02*
X138157800Y-18158500D01*
X138157800Y-18158500D02*
X138821700Y-17494600D01*
X138821700Y-17494600D02*
X146080100Y-17494600D01*
X146080100Y-17494600D02*
X152574700Y-11000000D01*
G04 #@! TO.N,/cv_bus1/LEDS_IN_1*
X54500000Y-15160000D02*
X53324700Y-15160000D01*
X106740000Y-3380000D02*
X105614700Y-3380000D01*
X105614700Y-3380000D02*
X105614700Y-3661300D01*
X105614700Y-3661300D02*
X104320300Y-4955700D01*
X104320300Y-4955700D02*
X81704000Y-4955700D01*
X81704000Y-4955700D02*
X78028500Y-8631200D01*
X78028500Y-8631200D02*
X61934800Y-8631200D01*
X61934800Y-8631200D02*
X57117900Y-3814300D01*
X57117900Y-3814300D02*
X51430800Y-3814300D01*
X51430800Y-3814300D02*
X50773200Y-4471900D01*
X50773200Y-4471900D02*
X50773200Y-13144200D01*
X50773200Y-13144200D02*
X51613700Y-13984700D01*
X51613700Y-13984700D02*
X52516800Y-13984700D01*
X52516800Y-13984700D02*
X53324700Y-14792600D01*
X53324700Y-14792600D02*
X53324700Y-15160000D01*
G04 #@! TO.N,/cv_bus2/IN_2_1*
X114500000Y-5000000D02*
X115675300Y-5000000D01*
X115675300Y-5000000D02*
X116607300Y-5932000D01*
X116607300Y-5932000D02*
X157498500Y-5932000D01*
X157498500Y-5932000D02*
X157592500Y-6026000D01*
X157592500Y-6026000D02*
X209426000Y-6026000D01*
X209426000Y-6026000D02*
X212400000Y-9000000D01*
G04 #@! TO.N,/cv_bus2/IN_2_2*
X111960000Y-5000000D02*
X113135300Y-5000000D01*
X113135300Y-5000000D02*
X113135300Y-4192000D01*
X113135300Y-4192000D02*
X113957300Y-3370000D01*
X113957300Y-3370000D02*
X166099900Y-3370000D01*
X166099900Y-3370000D02*
X168305500Y-5575600D01*
X168305500Y-5575600D02*
X213575600Y-5575600D01*
X213575600Y-5575600D02*
X217000000Y-9000000D01*
G04 #@! TO.N,/cv_bus2/IN_2_3*
X115675300Y-7540000D02*
X116739600Y-6475700D01*
X116739600Y-6475700D02*
X157405300Y-6475700D01*
X157405300Y-6475700D02*
X157898500Y-6968900D01*
X157898500Y-6968900D02*
X206642900Y-6968900D01*
X206642900Y-6968900D02*
X209844700Y-10170700D01*
X209844700Y-10170700D02*
X213597700Y-10170700D01*
X213597700Y-10170700D02*
X213968400Y-9800000D01*
X213968400Y-9800000D02*
X216123500Y-9800000D01*
X216123500Y-9800000D02*
X216502300Y-10178800D01*
X216502300Y-10178800D02*
X217926300Y-10178800D01*
X217926300Y-10178800D02*
X219105100Y-9000000D01*
X219105100Y-9000000D02*
X221800000Y-9000000D01*
X114500000Y-7540000D02*
X115675300Y-7540000D01*
G04 #@! TO.N,/cv_bus2/IN_2_4*
X163347400Y-12791500D02*
X163934500Y-13378600D01*
X163934500Y-13378600D02*
X220168500Y-13378600D01*
X220168500Y-13378600D02*
X224547100Y-9000000D01*
X224547100Y-9000000D02*
X226600000Y-9000000D01*
G04 #@! TO.N,/cv_bus2/OUT_2_1*
X115675300Y-10080000D02*
X118827700Y-6927600D01*
X118827700Y-6927600D02*
X157220300Y-6927600D01*
X157220300Y-6927600D02*
X158162200Y-7869500D01*
X158162200Y-7869500D02*
X206906600Y-7869500D01*
X206906600Y-7869500D02*
X210017100Y-10980000D01*
X210017100Y-10980000D02*
X214600000Y-10980000D01*
X114500000Y-10080000D02*
X115675300Y-10080000D01*
G04 #@! TO.N,/cv_bus2/OUT_2_2*
X218274700Y-10980000D02*
X217149400Y-12105300D01*
X217149400Y-12105300D02*
X210187200Y-12105300D01*
X210187200Y-12105300D02*
X206455100Y-8373200D01*
X206455100Y-8373200D02*
X171677400Y-8373200D01*
X171677400Y-8373200D02*
X167847600Y-12203000D01*
X219400000Y-10980000D02*
X218274700Y-10980000D01*
G04 #@! TO.N,/cv_bus2/OUT_2_3*
X161772500Y-13685600D02*
X161915800Y-13828900D01*
X161915800Y-13828900D02*
X221351100Y-13828900D01*
X221351100Y-13828900D02*
X224200000Y-10980000D01*
G04 #@! TO.N,/cv_bus2/OUT_2_4*
X227874700Y-10980000D02*
X224443800Y-14410900D01*
X224443800Y-14410900D02*
X160964300Y-14410900D01*
X160964300Y-14410900D02*
X160764200Y-14210800D01*
X229000000Y-10980000D02*
X227874700Y-10980000D01*
G04 #@! TO.N,/cv_bus3/IN_3_1*
X413324700Y-5000000D02*
X413324700Y-4632700D01*
X413324700Y-4632700D02*
X412512100Y-3820100D01*
X412512100Y-3820100D02*
X405430500Y-3820100D01*
X405430500Y-3820100D02*
X403601000Y-5649600D01*
X403601000Y-5649600D02*
X332950400Y-5649600D01*
X332950400Y-5649600D02*
X329600000Y-9000000D01*
X414500000Y-5000000D02*
X413324700Y-5000000D01*
G04 #@! TO.N,/cv_bus3/IN_3_2*
X411960000Y-5000000D02*
X410784700Y-5000000D01*
X410784700Y-5000000D02*
X409643400Y-6141300D01*
X409643400Y-6141300D02*
X337258700Y-6141300D01*
X337258700Y-6141300D02*
X334400000Y-9000000D01*
G04 #@! TO.N,/cv_bus3/IN_3_3*
X414500000Y-7540000D02*
X413324700Y-7540000D01*
X413324700Y-7540000D02*
X413324700Y-7172700D01*
X413324700Y-7172700D02*
X412515100Y-6363100D01*
X412515100Y-6363100D02*
X410691500Y-6363100D01*
X410691500Y-6363100D02*
X409721700Y-7332900D01*
X409721700Y-7332900D02*
X340867100Y-7332900D01*
X340867100Y-7332900D02*
X339200000Y-9000000D01*
G04 #@! TO.N,/cv_bus3/IN_3_4*
X411960000Y-7540000D02*
X410784700Y-7540000D01*
X410784700Y-7540000D02*
X410541400Y-7783300D01*
X410541400Y-7783300D02*
X345216700Y-7783300D01*
X345216700Y-7783300D02*
X344000000Y-9000000D01*
G04 #@! TO.N,/cv_bus3/OUT_3_1*
X332000000Y-10980000D02*
X333125300Y-10980000D01*
X414500000Y-10080000D02*
X416160800Y-11740800D01*
X416160800Y-11740800D02*
X416160800Y-15172800D01*
X416160800Y-15172800D02*
X414530200Y-16803400D01*
X414530200Y-16803400D02*
X403461400Y-16803400D01*
X403461400Y-16803400D02*
X401582200Y-14924200D01*
X401582200Y-14924200D02*
X337069500Y-14924200D01*
X337069500Y-14924200D02*
X333125300Y-10980000D01*
G04 #@! TO.N,/cv_bus3/OUT_3_2*
X411960000Y-10080000D02*
X407290800Y-10080000D01*
X407290800Y-10080000D02*
X405201200Y-12169600D01*
X405201200Y-12169600D02*
X357406300Y-12169600D01*
X357406300Y-12169600D02*
X355089400Y-9852700D01*
X355089400Y-9852700D02*
X350347300Y-9852700D01*
X350347300Y-9852700D02*
X349995000Y-10205000D01*
X349995000Y-10205000D02*
X348273200Y-10205000D01*
X348273200Y-10205000D02*
X347921400Y-9853200D01*
X347921400Y-9853200D02*
X345403000Y-9853200D01*
X345403000Y-9853200D02*
X345098900Y-10157300D01*
X345098900Y-10157300D02*
X343425500Y-10157300D01*
X343425500Y-10157300D02*
X343121400Y-9853200D01*
X343121400Y-9853200D02*
X340603000Y-9853200D01*
X340603000Y-9853200D02*
X339476200Y-10980000D01*
X339476200Y-10980000D02*
X336800000Y-10980000D01*
G04 #@! TO.N,/cv_bus3/OUT_3_3*
X341600000Y-10980000D02*
X342725300Y-10980000D01*
X414500000Y-12620000D02*
X413324700Y-12620000D01*
X413324700Y-12620000D02*
X413324700Y-12987300D01*
X413324700Y-12987300D02*
X412497800Y-13814200D01*
X412497800Y-13814200D02*
X345559500Y-13814200D01*
X345559500Y-13814200D02*
X342725300Y-10980000D01*
G04 #@! TO.N,/cv_bus3/OUT_3_4*
X347525300Y-10980000D02*
X349615600Y-13070300D01*
X349615600Y-13070300D02*
X410334400Y-13070300D01*
X410334400Y-13070300D02*
X410784700Y-12620000D01*
X346400000Y-10980000D02*
X347525300Y-10980000D01*
X411960000Y-12620000D02*
X410784700Y-12620000D01*
G04 #@! TO.N,/cv_bus3/LEDS_IN_3*
X414500000Y-15160000D02*
X413324700Y-16335300D01*
X413324700Y-16335300D02*
X410687300Y-16335300D01*
X410687300Y-16335300D02*
X408808300Y-14456300D01*
X408808300Y-14456300D02*
X337238500Y-14456300D01*
X337238500Y-14456300D02*
X332635400Y-9853200D01*
X332635400Y-9853200D02*
X331228000Y-9853200D01*
X331228000Y-9853200D02*
X330951600Y-10129600D01*
X330951600Y-10129600D02*
X324904000Y-10129600D01*
X324904000Y-10129600D02*
X320855500Y-6081100D01*
X320855500Y-6081100D02*
X311266400Y-6081100D01*
X311266400Y-6081100D02*
X308565300Y-3380000D01*
X307440000Y-3380000D02*
X308565300Y-3380000D01*
G04 #@! TO.N,/cv_bus3/LEDS_OUT_3*
X352325300Y-10980000D02*
X353965300Y-12620000D01*
X353965300Y-12620000D02*
X409696200Y-12620000D01*
X409696200Y-12620000D02*
X410966200Y-11350000D01*
X410966200Y-11350000D02*
X414897000Y-11350000D01*
X414897000Y-11350000D02*
X415690600Y-12143600D01*
X415690600Y-12143600D02*
X415690600Y-13095800D01*
X415690600Y-13095800D02*
X414801700Y-13984700D01*
X414801700Y-13984700D02*
X413943200Y-13984700D01*
X413943200Y-13984700D02*
X413135300Y-14792600D01*
X413135300Y-14792600D02*
X413135300Y-15160000D01*
X411960000Y-15160000D02*
X413135300Y-15160000D01*
X351200000Y-10980000D02*
X352325300Y-10980000D01*
G04 #@! TO.N,/cv_bus4/LEDS_IN_4*
X474500000Y-15160000D02*
X473324700Y-15160000D01*
X385640000Y-3380000D02*
X386765300Y-3380000D01*
X386765300Y-3380000D02*
X387310600Y-2834700D01*
X387310600Y-2834700D02*
X415713600Y-2834700D01*
X415713600Y-2834700D02*
X420156900Y-7278000D01*
X420156900Y-7278000D02*
X422717800Y-7278000D01*
X422717800Y-7278000D02*
X427545200Y-12105400D01*
X427545200Y-12105400D02*
X456213100Y-12105400D01*
X456213100Y-12105400D02*
X458492000Y-9826500D01*
X458492000Y-9826500D02*
X466088100Y-9826500D01*
X466088100Y-9826500D02*
X470246300Y-13984700D01*
X470246300Y-13984700D02*
X472516800Y-13984700D01*
X472516800Y-13984700D02*
X473324700Y-14792600D01*
X473324700Y-14792600D02*
X473324700Y-15160000D01*
G04 #@! TO.N,/cv_bus4/OUT_4_4*
X454200000Y-10980000D02*
X456701600Y-10980000D01*
X456701600Y-10980000D02*
X458305500Y-9376100D01*
X458305500Y-9376100D02*
X467540800Y-9376100D01*
X467540800Y-9376100D02*
X470784700Y-12620000D01*
X471960000Y-12620000D02*
X470784700Y-12620000D01*
G04 #@! TO.N,/cv_bus4/OUT_4_3*
X434400000Y-10980000D02*
X435525300Y-10980000D01*
X474500000Y-12620000D02*
X473324700Y-12620000D01*
X473324700Y-12620000D02*
X473324700Y-12252600D01*
X473324700Y-12252600D02*
X472516800Y-11444700D01*
X472516800Y-11444700D02*
X470879200Y-11444700D01*
X470879200Y-11444700D02*
X467277500Y-7843000D01*
X467277500Y-7843000D02*
X438662300Y-7843000D01*
X438662300Y-7843000D02*
X435525300Y-10980000D01*
G04 #@! TO.N,/cv_bus4/IN_4_3*
X474500000Y-7540000D02*
X473324700Y-7540000D01*
X473324700Y-7540000D02*
X473324700Y-7222200D01*
X473324700Y-7222200D02*
X472444300Y-6341800D01*
X472444300Y-6341800D02*
X434658200Y-6341800D01*
X434658200Y-6341800D02*
X432000000Y-9000000D01*
G04 #@! TO.N,/cv_bus4/IN_4_2*
X471960000Y-5000000D02*
X431200000Y-5000000D01*
X431200000Y-5000000D02*
X427200000Y-9000000D01*
G04 #@! TO.N,Net-(U1-Pad13)*
X91500000Y-3380000D02*
X94040000Y-3380000D01*
G04 #@! TO.N,Net-(U2-Pad13)*
X174140000Y-3380000D02*
X171600000Y-3380000D01*
G04 #@! TO.N,Net-(U3-Pad13)*
X294740000Y-3380000D02*
X292200000Y-3380000D01*
G04 #@! TO.N,Net-(U4-Pad13)*
X370400000Y-3380000D02*
X372940000Y-3380000D01*
G04 #@! TO.N,+12V*
X61000000Y-15000000D02*
X61925300Y-15000000D01*
X69000000Y-13000000D02*
X63665800Y-13000000D01*
X63665800Y-13000000D02*
X61925300Y-14740500D01*
X61925300Y-14740500D02*
X61925300Y-15000000D01*
X46000000Y-16500000D02*
X58574700Y-16500000D01*
X58574700Y-16500000D02*
X60074700Y-15000000D01*
X61000000Y-15000000D02*
X60074700Y-15000000D01*
G04 #@! TO.N,GND*
X161299500Y-12207100D02*
X161492300Y-12014300D01*
X161492300Y-12014300D02*
X166633200Y-12014300D01*
X166633200Y-12014300D02*
X167547200Y-12928300D01*
X167547200Y-12928300D02*
X168148100Y-12928300D01*
X168148100Y-12928300D02*
X168637600Y-12438800D01*
X168637600Y-12438800D02*
X174397200Y-12438800D01*
X174397200Y-12438800D02*
X175554700Y-11281300D01*
X175554700Y-11281300D02*
X175554700Y-11000000D01*
X181760000Y-11000000D02*
X180634700Y-11000000D01*
X176117400Y-11000000D02*
X177242700Y-12125300D01*
X177242700Y-12125300D02*
X179790800Y-12125300D01*
X179790800Y-12125300D02*
X180634700Y-11281400D01*
X180634700Y-11281400D02*
X180634700Y-11000000D01*
X176117400Y-11000000D02*
X175554700Y-11000000D01*
X176680000Y-11000000D02*
X176117400Y-11000000D01*
X181760000Y-11000000D02*
X182885300Y-11000000D01*
X197000000Y-10000000D02*
X196874700Y-9874700D01*
X196874700Y-9874700D02*
X183729200Y-9874700D01*
X183729200Y-9874700D02*
X182885300Y-10718600D01*
X182885300Y-10718600D02*
X182885300Y-11000000D01*
X74000000Y-7000000D02*
X72863900Y-8136100D01*
X72863900Y-8136100D02*
X64801200Y-8136100D01*
X64801200Y-8136100D02*
X61925300Y-5260200D01*
X61925300Y-5260200D02*
X61925300Y-5000000D01*
X161299500Y-12207100D02*
X158500000Y-15006600D01*
X158500000Y-15006600D02*
X158500000Y-18620000D01*
X124000000Y-10500000D02*
X127122100Y-7377900D01*
X127122100Y-7377900D02*
X156470200Y-7377900D01*
X156470200Y-7377900D02*
X161299500Y-12207100D01*
X61000000Y-5000000D02*
X61925300Y-5000000D01*
X36500000Y-7500000D02*
X37925300Y-7500000D01*
X37925300Y-7500000D02*
X41000000Y-10574700D01*
X41000000Y-10574700D02*
X46660000Y-10574700D01*
X46660000Y-12000000D02*
X46660000Y-10574700D01*
X61000000Y-5000000D02*
X60074700Y-5000000D01*
X60074700Y-5000000D02*
X58438600Y-3363900D01*
X58438600Y-3363900D02*
X51244300Y-3363900D01*
X51244300Y-3363900D02*
X48085300Y-6522900D01*
X48085300Y-6522900D02*
X48085300Y-9149400D01*
X48085300Y-9149400D02*
X46660000Y-10574700D01*
X315200000Y-10000000D02*
X320574600Y-15374600D01*
X320574600Y-15374600D02*
X347974600Y-15374600D01*
X347974600Y-15374600D02*
X351200000Y-18600000D01*
X297280000Y-11000000D02*
X296154700Y-11000000D01*
X233800000Y-18600000D02*
X288836000Y-18600000D01*
X288836000Y-18600000D02*
X296154700Y-11281300D01*
X296154700Y-11281300D02*
X296154700Y-11000000D01*
X298264600Y-8890100D02*
X297280000Y-7905500D01*
X297280000Y-7905500D02*
X297280000Y-3380000D01*
X301234700Y-11000000D02*
X301234700Y-10718700D01*
X301234700Y-10718700D02*
X299406100Y-8890100D01*
X299406100Y-8890100D02*
X298264600Y-8890100D01*
X298264600Y-8890100D02*
X297280000Y-9874700D01*
X297280000Y-11000000D02*
X297280000Y-9874700D01*
X503920000Y-2800000D02*
X505095300Y-2800000D01*
X516920000Y-2500000D02*
X515744700Y-2500000D01*
X515744700Y-2500000D02*
X514869400Y-1624700D01*
X514869400Y-1624700D02*
X505903200Y-1624700D01*
X505903200Y-1624700D02*
X505095300Y-2432600D01*
X505095300Y-2432600D02*
X505095300Y-2800000D01*
X502744700Y-2800000D02*
X486944700Y-18600000D01*
X486944700Y-18600000D02*
X459000000Y-18600000D01*
X302360000Y-11000000D02*
X301234700Y-11000000D01*
X380560000Y-11000000D02*
X381685300Y-11000000D01*
X393400000Y-10000000D02*
X393274700Y-9874700D01*
X393274700Y-9874700D02*
X382529200Y-9874700D01*
X382529200Y-9874700D02*
X381685300Y-10718600D01*
X381685300Y-10718600D02*
X381685300Y-11000000D01*
X503920000Y-2800000D02*
X502744700Y-2800000D01*
X26250000Y-7380000D02*
X26250000Y-8744700D01*
X28790000Y-7380000D02*
X26250000Y-7380000D01*
X26250000Y-9920000D02*
X26250000Y-8744700D01*
X28790000Y-7380000D02*
X28790000Y-8744700D01*
X28790000Y-9920000D02*
X28790000Y-8744700D01*
X74000000Y-13000000D02*
X72000000Y-15000000D01*
X72000000Y-15000000D02*
X63000000Y-15000000D01*
X28790000Y-12460000D02*
X28790000Y-9920000D01*
X28790000Y-12460000D02*
X27425300Y-12460000D01*
X26250000Y-12460000D02*
X27425300Y-12460000D01*
G04 #@! TO.N,-12V*
X99120000Y-3380000D02*
X97994700Y-3380000D01*
X97994700Y-3380000D02*
X97994700Y-3661400D01*
X97994700Y-3661400D02*
X97150800Y-4505300D01*
X97150800Y-4505300D02*
X71494700Y-4505300D01*
X71494700Y-4505300D02*
X69000000Y-7000000D01*
X69000000Y-7000000D02*
X65000000Y-7000000D01*
X65000000Y-7000000D02*
X63000000Y-5000000D01*
X376894700Y-3380000D02*
X376894700Y-3130400D01*
X376894700Y-3130400D02*
X376019000Y-2254700D01*
X376019000Y-2254700D02*
X368067500Y-2254700D01*
X368067500Y-2254700D02*
X367347700Y-2974500D01*
X367347700Y-2974500D02*
X327469000Y-2974500D01*
X327469000Y-2974500D02*
X326288800Y-1794300D01*
X326288800Y-1794300D02*
X302249700Y-1794300D01*
X302249700Y-1794300D02*
X300945300Y-3098700D01*
X300945300Y-3098700D02*
X300945300Y-3380000D01*
X378020000Y-3380000D02*
X376894700Y-3380000D01*
X299820000Y-3380000D02*
X300945300Y-3380000D01*
G04 #@! TO.N,/cv_bus1/POT_1*
X155900000Y-9000000D02*
X154752600Y-7852600D01*
X154752600Y-7852600D02*
X128258700Y-7852600D01*
X128258700Y-7852600D02*
X124462300Y-11649000D01*
X124462300Y-11649000D02*
X122448800Y-11649000D01*
X122448800Y-11649000D02*
X122218600Y-11418800D01*
X122218600Y-11418800D02*
X109591900Y-11418800D01*
X109591900Y-11418800D02*
X108867000Y-12143700D01*
X108867000Y-12143700D02*
X93487700Y-12143700D01*
X93487700Y-12143700D02*
X92625300Y-11281300D01*
X92625300Y-11281300D02*
X92625300Y-11000000D01*
X91500000Y-11000000D02*
X92625300Y-11000000D01*
G04 #@! TO.N,/cv_bus1/POT_2*
X137000000Y-1380000D02*
X141700000Y-1380000D01*
X95165300Y-11000000D02*
X95165300Y-10718700D01*
X95165300Y-10718700D02*
X97584100Y-8299900D01*
X97584100Y-8299900D02*
X104639800Y-8299900D01*
X104639800Y-8299900D02*
X111559700Y-1380000D01*
X111559700Y-1380000D02*
X137000000Y-1380000D01*
X94040000Y-11000000D02*
X95165300Y-11000000D01*
X146500000Y-1380000D02*
X141700000Y-1380000D01*
X151300000Y-1380000D02*
X146500000Y-1380000D01*
G04 #@! TO.N,/cv_bus2/POT_1*
X231200000Y-9000000D02*
X230014700Y-7814700D01*
X230014700Y-7814700D02*
X224983000Y-7814700D01*
X224983000Y-7814700D02*
X220229600Y-12568100D01*
X220229600Y-12568100D02*
X203858600Y-12568100D01*
X203858600Y-12568100D02*
X200121900Y-8831400D01*
X200121900Y-8831400D02*
X174612600Y-8831400D01*
X174612600Y-8831400D02*
X172725300Y-10718700D01*
X172725300Y-10718700D02*
X172725300Y-11000000D01*
X171600000Y-11000000D02*
X172725300Y-11000000D01*
G04 #@! TO.N,/cv_bus3/POT_1*
X413230000Y-8810000D02*
X348990000Y-8810000D01*
X348990000Y-8810000D02*
X348800000Y-9000000D01*
G04 #@! TO.N,/cv_bus3/POT_2*
X329600000Y-1380000D02*
X334400000Y-1380000D01*
X495736900Y-3328000D02*
X416958400Y-3328000D01*
X416958400Y-3328000D02*
X415434700Y-1804300D01*
X415434700Y-1804300D02*
X352298200Y-1804300D01*
X352298200Y-1804300D02*
X351597200Y-2505300D01*
X351597200Y-2505300D02*
X346250600Y-2505300D01*
X346250600Y-2505300D02*
X345125300Y-1380000D01*
X344000000Y-1380000D02*
X345125300Y-1380000D01*
X334400000Y-1380000D02*
X339200000Y-1380000D01*
X344000000Y-1380000D02*
X339200000Y-1380000D01*
G04 #@! TO.N,/cv_bus4/POT_2*
X451800000Y-1380000D02*
X452925300Y-1380000D01*
X519460000Y-2500000D02*
X518284700Y-2500000D01*
X518284700Y-2500000D02*
X518284700Y-2132700D01*
X518284700Y-2132700D02*
X517278800Y-1126800D01*
X517278800Y-1126800D02*
X496912300Y-1126800D01*
X496912300Y-1126800D02*
X495533800Y-2505300D01*
X495533800Y-2505300D02*
X454050600Y-2505300D01*
X454050600Y-2505300D02*
X452925300Y-1380000D01*
X427200000Y-1380000D02*
X422400000Y-1380000D01*
X432000000Y-1380000D02*
X427200000Y-1380000D01*
X451800000Y-1380000D02*
X432000000Y-1380000D01*
G04 #@! TD*
D21*
G04 #@! TO.N,GND*
G36*
X328248260Y-820091D02*
X328136887Y-1380000D01*
X328248260Y-1939909D01*
X328431736Y-2214500D01*
X327783802Y-2214500D01*
X326879131Y-1309830D01*
X326836729Y-1246371D01*
X326585337Y-1078396D01*
X326363652Y-1034300D01*
X326363647Y-1034300D01*
X326288800Y-1019412D01*
X326213953Y-1034300D01*
X302324546Y-1034300D01*
X302249699Y-1019412D01*
X302174852Y-1034300D01*
X302174848Y-1034300D01*
X301953163Y-1078396D01*
X301701771Y-1246371D01*
X301659371Y-1309827D01*
X300716222Y-2252977D01*
X300379909Y-2028260D01*
X299961333Y-1945000D01*
X299678667Y-1945000D01*
X299260091Y-2028260D01*
X298785423Y-2345423D01*
X298529053Y-2729108D01*
X298432389Y-2524866D01*
X298017423Y-2148959D01*
X297629039Y-1988096D01*
X297407000Y-2110085D01*
X297407000Y-3253000D01*
X297427000Y-3253000D01*
X297427000Y-3507000D01*
X297407000Y-3507000D01*
X297407000Y-4649915D01*
X297629039Y-4771904D01*
X298017423Y-4611041D01*
X298432389Y-4235134D01*
X298529053Y-4030892D01*
X298785423Y-4414577D01*
X299260091Y-4731740D01*
X299678667Y-4815000D01*
X299961333Y-4815000D01*
X300379909Y-4731740D01*
X300854577Y-4414577D01*
X301040786Y-4135896D01*
X301127667Y-4118614D01*
X301325423Y-4414577D01*
X301800091Y-4731740D01*
X302218667Y-4815000D01*
X302501333Y-4815000D01*
X302919909Y-4731740D01*
X303394577Y-4414577D01*
X303580786Y-4135896D01*
X303667667Y-4118614D01*
X303865423Y-4414577D01*
X304340091Y-4731740D01*
X304758667Y-4815000D01*
X305041333Y-4815000D01*
X305459909Y-4731740D01*
X305934577Y-4414577D01*
X306170000Y-4062242D01*
X306405423Y-4414577D01*
X306880091Y-4731740D01*
X307298667Y-4815000D01*
X307581333Y-4815000D01*
X307999909Y-4731740D01*
X308474577Y-4414577D01*
X308494804Y-4384305D01*
X310676070Y-6565572D01*
X310718471Y-6629029D01*
X310969863Y-6797004D01*
X311191548Y-6841100D01*
X311191552Y-6841100D01*
X311266399Y-6855988D01*
X311341246Y-6841100D01*
X320540699Y-6841100D01*
X322333297Y-8633698D01*
X322260091Y-8648260D01*
X321785423Y-8965423D01*
X321468260Y-9440091D01*
X321356887Y-10000000D01*
X321468260Y-10559909D01*
X321785423Y-11034577D01*
X322260091Y-11351740D01*
X322678667Y-11435000D01*
X322961333Y-11435000D01*
X323379909Y-11351740D01*
X323854577Y-11034577D01*
X324171740Y-10559909D01*
X324186302Y-10486703D01*
X324313671Y-10614073D01*
X324356071Y-10677529D01*
X324607463Y-10845504D01*
X324829148Y-10889600D01*
X324829152Y-10889600D01*
X324904000Y-10904488D01*
X324978848Y-10889600D01*
X330554869Y-10889600D01*
X330536887Y-10980000D01*
X330648260Y-11539909D01*
X330965423Y-12014577D01*
X331440091Y-12331740D01*
X331858667Y-12415000D01*
X332141333Y-12415000D01*
X332559909Y-12331740D01*
X333034577Y-12014577D01*
X333054804Y-11984305D01*
X336479170Y-15408672D01*
X336521571Y-15472129D01*
X336772963Y-15640104D01*
X336994648Y-15684200D01*
X336994652Y-15684200D01*
X337069499Y-15699088D01*
X337144346Y-15684200D01*
X377286404Y-15684200D01*
X377283466Y-15687138D01*
X377065000Y-16214561D01*
X377065000Y-16785439D01*
X377283466Y-17312862D01*
X377687138Y-17716534D01*
X378214561Y-17935000D01*
X378785439Y-17935000D01*
X379312862Y-17716534D01*
X379716534Y-17312862D01*
X379935000Y-16785439D01*
X379935000Y-16214561D01*
X379913104Y-16161698D01*
X379940202Y-16134600D01*
X384729570Y-16134600D01*
X384656887Y-16500000D01*
X384768260Y-17059909D01*
X385085423Y-17534577D01*
X385560091Y-17851740D01*
X385978667Y-17935000D01*
X386261333Y-17935000D01*
X386679909Y-17851740D01*
X387154577Y-17534577D01*
X387338043Y-17260000D01*
X393361570Y-17260000D01*
X393383466Y-17312862D01*
X393787138Y-17716534D01*
X394314561Y-17935000D01*
X394885439Y-17935000D01*
X395412862Y-17716534D01*
X395816534Y-17312862D01*
X396035000Y-16785439D01*
X396035000Y-16214561D01*
X396001879Y-16134600D01*
X398159799Y-16134600D01*
X398186897Y-16161698D01*
X398165000Y-16214561D01*
X398165000Y-16785439D01*
X398383466Y-17312862D01*
X398787138Y-17716534D01*
X399314561Y-17935000D01*
X399885439Y-17935000D01*
X400412862Y-17716534D01*
X400816534Y-17312862D01*
X401035000Y-16785439D01*
X401035000Y-16214561D01*
X400816534Y-15687138D01*
X400813596Y-15684200D01*
X401267399Y-15684200D01*
X402871071Y-17287873D01*
X402913471Y-17351329D01*
X403164863Y-17519304D01*
X403386548Y-17563400D01*
X403386552Y-17563400D01*
X403461399Y-17578288D01*
X403536246Y-17563400D01*
X414455353Y-17563400D01*
X414530200Y-17578288D01*
X414605047Y-17563400D01*
X414605052Y-17563400D01*
X414826737Y-17519304D01*
X415078129Y-17351329D01*
X415120531Y-17287870D01*
X416645273Y-15763129D01*
X416708729Y-15720729D01*
X416876704Y-15469337D01*
X416920800Y-15247652D01*
X416920800Y-15247648D01*
X416935688Y-15172800D01*
X416920800Y-15097952D01*
X416920800Y-11815647D01*
X416935688Y-11740800D01*
X416920800Y-11665953D01*
X416920800Y-11665948D01*
X416876704Y-11444263D01*
X416708729Y-11192871D01*
X416645273Y-11150471D01*
X415941209Y-10446408D01*
X416014092Y-10080000D01*
X415898839Y-9500582D01*
X415570625Y-9009375D01*
X415272239Y-8810000D01*
X415570625Y-8610625D01*
X415898839Y-8119418D01*
X416014092Y-7540000D01*
X415898839Y-6960582D01*
X415570625Y-6469375D01*
X415552381Y-6457184D01*
X415597765Y-6448157D01*
X415807809Y-6307809D01*
X415948157Y-6097765D01*
X415997440Y-5850000D01*
X415997440Y-4193341D01*
X419566570Y-7762472D01*
X419608971Y-7825929D01*
X419860363Y-7993904D01*
X420082048Y-8038000D01*
X420082052Y-8038000D01*
X420156899Y-8052888D01*
X420231746Y-8038000D01*
X421332604Y-8038000D01*
X421183466Y-8187138D01*
X420965000Y-8714561D01*
X420965000Y-9285439D01*
X421183466Y-9812862D01*
X421587138Y-10216534D01*
X422114561Y-10435000D01*
X422685439Y-10435000D01*
X423212862Y-10216534D01*
X423616534Y-9812862D01*
X423780943Y-9415944D01*
X424092126Y-9727127D01*
X423765423Y-9945423D01*
X423448260Y-10420091D01*
X423336887Y-10980000D01*
X423448260Y-11539909D01*
X423765423Y-12014577D01*
X424240091Y-12331740D01*
X424658667Y-12415000D01*
X424941333Y-12415000D01*
X425359909Y-12331740D01*
X425834577Y-12014577D01*
X426052873Y-11687874D01*
X426954871Y-12589873D01*
X426997271Y-12653329D01*
X427248663Y-12821304D01*
X427470348Y-12865400D01*
X427470352Y-12865400D01*
X427545200Y-12880288D01*
X427620048Y-12865400D01*
X456138253Y-12865400D01*
X456213100Y-12880288D01*
X456287947Y-12865400D01*
X456287952Y-12865400D01*
X456509637Y-12821304D01*
X456761029Y-12653329D01*
X456803431Y-12589870D01*
X457730425Y-11662877D01*
X457965423Y-12014577D01*
X458240000Y-12198044D01*
X458240001Y-13701197D01*
X454691037Y-17250162D01*
X454485439Y-17165000D01*
X453914561Y-17165000D01*
X453387138Y-17383466D01*
X452983466Y-17787138D01*
X452765000Y-18314561D01*
X452765000Y-18885439D01*
X452922219Y-19265000D01*
X435677781Y-19265000D01*
X435835000Y-18885439D01*
X435835000Y-18314561D01*
X435616534Y-17787138D01*
X435212862Y-17383466D01*
X434685439Y-17165000D01*
X434114561Y-17165000D01*
X433587138Y-17383466D01*
X433183466Y-17787138D01*
X432965000Y-18314561D01*
X432965000Y-18885439D01*
X433122219Y-19265000D01*
X430877781Y-19265000D01*
X431035000Y-18885439D01*
X431035000Y-18314561D01*
X430816534Y-17787138D01*
X430412862Y-17383466D01*
X429885439Y-17165000D01*
X429314561Y-17165000D01*
X428787138Y-17383466D01*
X428383466Y-17787138D01*
X428361570Y-17840000D01*
X426038430Y-17840000D01*
X426016534Y-17787138D01*
X425612862Y-17383466D01*
X425085439Y-17165000D01*
X424514561Y-17165000D01*
X423987138Y-17383466D01*
X423583466Y-17787138D01*
X423365000Y-18314561D01*
X423365000Y-18885439D01*
X423522219Y-19265000D01*
X352485856Y-19265000D01*
X352646965Y-18816777D01*
X352619778Y-18246546D01*
X352453864Y-17845995D01*
X352207745Y-17771861D01*
X351379605Y-18600000D01*
X351393748Y-18614142D01*
X351214142Y-18793748D01*
X351200000Y-18779605D01*
X351185858Y-18793748D01*
X351006252Y-18614142D01*
X351020395Y-18600000D01*
X350192255Y-17771861D01*
X349946136Y-17845995D01*
X349753035Y-18383223D01*
X349780222Y-18953454D01*
X349909269Y-19265000D01*
X347677781Y-19265000D01*
X347835000Y-18885439D01*
X347835000Y-18314561D01*
X347616534Y-17787138D01*
X347421651Y-17592255D01*
X350371861Y-17592255D01*
X351200000Y-18420395D01*
X352028139Y-17592255D01*
X351954005Y-17346136D01*
X351416777Y-17153035D01*
X350846546Y-17180222D01*
X350445995Y-17346136D01*
X350371861Y-17592255D01*
X347421651Y-17592255D01*
X347212862Y-17383466D01*
X346685439Y-17165000D01*
X346114561Y-17165000D01*
X345587138Y-17383466D01*
X345183466Y-17787138D01*
X345161570Y-17840000D01*
X342838430Y-17840000D01*
X342816534Y-17787138D01*
X342412862Y-17383466D01*
X341885439Y-17165000D01*
X341314561Y-17165000D01*
X340787138Y-17383466D01*
X340383466Y-17787138D01*
X340361570Y-17840000D01*
X338038430Y-17840000D01*
X338016534Y-17787138D01*
X337612862Y-17383466D01*
X337085439Y-17165000D01*
X336514561Y-17165000D01*
X335987138Y-17383466D01*
X335583466Y-17787138D01*
X335561570Y-17840000D01*
X333238430Y-17840000D01*
X333216534Y-17787138D01*
X332812862Y-17383466D01*
X332285439Y-17165000D01*
X331714561Y-17165000D01*
X331187138Y-17383466D01*
X330783466Y-17787138D01*
X330761570Y-17840000D01*
X321914789Y-17840000D01*
X322212862Y-17716534D01*
X322616534Y-17312862D01*
X322835000Y-16785439D01*
X322835000Y-16214561D01*
X322616534Y-15687138D01*
X322212862Y-15283466D01*
X321685439Y-15065000D01*
X321114561Y-15065000D01*
X320587138Y-15283466D01*
X320183466Y-15687138D01*
X320161570Y-15740000D01*
X318515202Y-15740000D01*
X313782947Y-11007745D01*
X314371861Y-11007745D01*
X314445995Y-11253864D01*
X314983223Y-11446965D01*
X315553454Y-11419778D01*
X315954005Y-11253864D01*
X316028139Y-11007745D01*
X315200000Y-10179605D01*
X314371861Y-11007745D01*
X313782947Y-11007745D01*
X312558425Y-9783223D01*
X313753035Y-9783223D01*
X313780222Y-10353454D01*
X313946136Y-10754005D01*
X314192255Y-10828139D01*
X315020395Y-10000000D01*
X315379605Y-10000000D01*
X316207745Y-10828139D01*
X316453864Y-10754005D01*
X316646965Y-10216777D01*
X316619778Y-9646546D01*
X316453864Y-9245995D01*
X316207745Y-9171861D01*
X315379605Y-10000000D01*
X315020395Y-10000000D01*
X314192255Y-9171861D01*
X313946136Y-9245995D01*
X313753035Y-9783223D01*
X312558425Y-9783223D01*
X312162331Y-9387130D01*
X312119929Y-9323671D01*
X311868537Y-9155696D01*
X311646852Y-9111600D01*
X311646847Y-9111600D01*
X311572000Y-9096712D01*
X311497153Y-9111600D01*
X306947246Y-9111600D01*
X306872399Y-9096712D01*
X306797552Y-9111600D01*
X306797548Y-9111600D01*
X306575863Y-9155696D01*
X306540793Y-9179129D01*
X306387926Y-9281271D01*
X306387924Y-9281273D01*
X306324471Y-9323671D01*
X306282073Y-9387125D01*
X305796221Y-9872977D01*
X305459909Y-9648260D01*
X305041333Y-9565000D01*
X304758667Y-9565000D01*
X304340091Y-9648260D01*
X303865423Y-9965423D01*
X303609053Y-10349108D01*
X303512389Y-10144866D01*
X303097423Y-9768959D01*
X302709039Y-9608096D01*
X302487000Y-9730085D01*
X302487000Y-10873000D01*
X302507000Y-10873000D01*
X302507000Y-11127000D01*
X302487000Y-11127000D01*
X302487000Y-12269915D01*
X302709039Y-12391904D01*
X303097423Y-12231041D01*
X303512389Y-11855134D01*
X303609053Y-11650892D01*
X303865423Y-12034577D01*
X303895694Y-12054804D01*
X300785481Y-15165018D01*
X300785439Y-15165000D01*
X300214561Y-15165000D01*
X299687138Y-15383466D01*
X299283466Y-15787138D01*
X299065000Y-16314561D01*
X299065000Y-16885439D01*
X299283466Y-17412862D01*
X299687138Y-17816534D01*
X300214561Y-18035000D01*
X300785439Y-18035000D01*
X301312862Y-17816534D01*
X301716534Y-17412862D01*
X301935000Y-16885439D01*
X301935000Y-16314561D01*
X301891224Y-16208877D01*
X305384473Y-12715629D01*
X305447929Y-12673229D01*
X305505209Y-12587503D01*
X305615904Y-12421838D01*
X305628985Y-12356073D01*
X305655896Y-12220786D01*
X305934577Y-12034577D01*
X306120786Y-11755896D01*
X306207667Y-11738614D01*
X306405423Y-12034577D01*
X306684106Y-12220787D01*
X306711016Y-12356073D01*
X306724097Y-12421837D01*
X306834792Y-12587503D01*
X306892072Y-12673229D01*
X306955528Y-12715629D01*
X307360000Y-13120102D01*
X307360001Y-15381956D01*
X307085423Y-15565423D01*
X306768260Y-16040091D01*
X306656887Y-16600000D01*
X306768260Y-17159909D01*
X307085423Y-17634577D01*
X307560091Y-17951740D01*
X307978667Y-18035000D01*
X308261333Y-18035000D01*
X308679909Y-17951740D01*
X309154577Y-17634577D01*
X309338043Y-17360000D01*
X315230604Y-17360000D01*
X315587138Y-17716534D01*
X316114561Y-17935000D01*
X316660199Y-17935000D01*
X317809671Y-19084473D01*
X317852071Y-19147929D01*
X318027280Y-19265000D01*
X235085856Y-19265000D01*
X235246965Y-18816777D01*
X235219778Y-18246546D01*
X235053864Y-17845995D01*
X234807745Y-17771861D01*
X233979605Y-18600000D01*
X233993748Y-18614142D01*
X233814142Y-18793748D01*
X233800000Y-18779605D01*
X233785858Y-18793748D01*
X233606252Y-18614142D01*
X233620395Y-18600000D01*
X232792255Y-17771861D01*
X232546136Y-17845995D01*
X232353035Y-18383223D01*
X232380222Y-18953454D01*
X232509269Y-19265000D01*
X230277781Y-19265000D01*
X230435000Y-18885439D01*
X230435000Y-18314561D01*
X230216534Y-17787138D01*
X230021651Y-17592255D01*
X232971861Y-17592255D01*
X233800000Y-18420395D01*
X234628139Y-17592255D01*
X234554005Y-17346136D01*
X234016777Y-17153035D01*
X233446546Y-17180222D01*
X233045995Y-17346136D01*
X232971861Y-17592255D01*
X230021651Y-17592255D01*
X229812862Y-17383466D01*
X229760000Y-17361570D01*
X229760000Y-17220101D01*
X234284473Y-12695629D01*
X234347929Y-12653229D01*
X234515904Y-12401837D01*
X234555896Y-12200786D01*
X234834577Y-12014577D01*
X235151740Y-11539909D01*
X235263113Y-10980000D01*
X235151740Y-10420091D01*
X235004680Y-10200000D01*
X290752560Y-10200000D01*
X290752560Y-11800000D01*
X290801843Y-12047765D01*
X290942191Y-12257809D01*
X291152235Y-12398157D01*
X291400000Y-12447440D01*
X293000000Y-12447440D01*
X293247765Y-12398157D01*
X293457809Y-12257809D01*
X293598157Y-12047765D01*
X293624785Y-11913894D01*
X293705423Y-12034577D01*
X294180091Y-12351740D01*
X294598667Y-12435000D01*
X294881333Y-12435000D01*
X295299909Y-12351740D01*
X295774577Y-12034577D01*
X296030947Y-11650892D01*
X296127611Y-11855134D01*
X296542577Y-12231041D01*
X296930961Y-12391904D01*
X297153000Y-12269915D01*
X297153000Y-11127000D01*
X297133000Y-11127000D01*
X297133000Y-10873000D01*
X297153000Y-10873000D01*
X297153000Y-9730085D01*
X297407000Y-9730085D01*
X297407000Y-10873000D01*
X297427000Y-10873000D01*
X297427000Y-11127000D01*
X297407000Y-11127000D01*
X297407000Y-12269915D01*
X297629039Y-12391904D01*
X298017423Y-12231041D01*
X298432389Y-11855134D01*
X298529053Y-11650892D01*
X298785423Y-12034577D01*
X299260091Y-12351740D01*
X299678667Y-12435000D01*
X299961333Y-12435000D01*
X300379909Y-12351740D01*
X300854577Y-12034577D01*
X301110947Y-11650892D01*
X301207611Y-11855134D01*
X301622577Y-12231041D01*
X302010961Y-12391904D01*
X302233000Y-12269915D01*
X302233000Y-11127000D01*
X302213000Y-11127000D01*
X302213000Y-10873000D01*
X302233000Y-10873000D01*
X302233000Y-9730085D01*
X302010961Y-9608096D01*
X301622577Y-9768959D01*
X301207611Y-10144866D01*
X301110947Y-10349108D01*
X300854577Y-9965423D01*
X300379909Y-9648260D01*
X299961333Y-9565000D01*
X299678667Y-9565000D01*
X299260091Y-9648260D01*
X298785423Y-9965423D01*
X298529053Y-10349108D01*
X298432389Y-10144866D01*
X298017423Y-9768959D01*
X297629039Y-9608096D01*
X297407000Y-9730085D01*
X297153000Y-9730085D01*
X296930961Y-9608096D01*
X296542577Y-9768959D01*
X296127611Y-10144866D01*
X296030947Y-10349108D01*
X295774577Y-9965423D01*
X295299909Y-9648260D01*
X294881333Y-9565000D01*
X294598667Y-9565000D01*
X294180091Y-9648260D01*
X293705423Y-9965423D01*
X293624785Y-10086106D01*
X293598157Y-9952235D01*
X293457809Y-9742191D01*
X293247765Y-9601843D01*
X293000000Y-9552560D01*
X291400000Y-9552560D01*
X291152235Y-9601843D01*
X290942191Y-9742191D01*
X290801843Y-9952235D01*
X290752560Y-10200000D01*
X235004680Y-10200000D01*
X234834577Y-9945423D01*
X234359909Y-9628260D01*
X233941333Y-9545000D01*
X233658667Y-9545000D01*
X233240091Y-9628260D01*
X233085816Y-9731343D01*
X233121400Y-9552452D01*
X233121400Y-9552448D01*
X233136288Y-9477600D01*
X233121400Y-9402752D01*
X233121400Y-8992255D01*
X314371861Y-8992255D01*
X315200000Y-9820395D01*
X316028139Y-8992255D01*
X315954005Y-8746136D01*
X315416777Y-8553035D01*
X314846546Y-8580222D01*
X314445995Y-8746136D01*
X314371861Y-8992255D01*
X233121400Y-8992255D01*
X233121400Y-3741548D01*
X233136288Y-3666700D01*
X233121400Y-3591852D01*
X233121400Y-3591848D01*
X233079261Y-3380000D01*
X290736887Y-3380000D01*
X290848260Y-3939909D01*
X291165423Y-4414577D01*
X291640091Y-4731740D01*
X292058667Y-4815000D01*
X292341333Y-4815000D01*
X292759909Y-4731740D01*
X293234577Y-4414577D01*
X293418043Y-4140000D01*
X293521957Y-4140000D01*
X293705423Y-4414577D01*
X294180091Y-4731740D01*
X294598667Y-4815000D01*
X294881333Y-4815000D01*
X295299909Y-4731740D01*
X295774577Y-4414577D01*
X296030947Y-4030892D01*
X296127611Y-4235134D01*
X296542577Y-4611041D01*
X296930961Y-4771904D01*
X297153000Y-4649915D01*
X297153000Y-3507000D01*
X297133000Y-3507000D01*
X297133000Y-3253000D01*
X297153000Y-3253000D01*
X297153000Y-2110085D01*
X296930961Y-1988096D01*
X296542577Y-2148959D01*
X296127611Y-2524866D01*
X296030947Y-2729108D01*
X295774577Y-2345423D01*
X295299909Y-2028260D01*
X294881333Y-1945000D01*
X294598667Y-1945000D01*
X294180091Y-2028260D01*
X293705423Y-2345423D01*
X293521957Y-2620000D01*
X293418043Y-2620000D01*
X293234577Y-2345423D01*
X292759909Y-2028260D01*
X292341333Y-1945000D01*
X292058667Y-1945000D01*
X291640091Y-2028260D01*
X291165423Y-2345423D01*
X290848260Y-2820091D01*
X290736887Y-3380000D01*
X233079261Y-3380000D01*
X233077304Y-3370163D01*
X232909329Y-3118771D01*
X232845873Y-3076371D01*
X232204305Y-2434804D01*
X232234577Y-2414577D01*
X232551740Y-1939909D01*
X232663113Y-1380000D01*
X232551740Y-820091D01*
X232494884Y-735000D01*
X328305116Y-735000D01*
X328248260Y-820091D01*
X328248260Y-820091D01*
G37*
X328248260Y-820091D02*
X328136887Y-1380000D01*
X328248260Y-1939909D01*
X328431736Y-2214500D01*
X327783802Y-2214500D01*
X326879131Y-1309830D01*
X326836729Y-1246371D01*
X326585337Y-1078396D01*
X326363652Y-1034300D01*
X326363647Y-1034300D01*
X326288800Y-1019412D01*
X326213953Y-1034300D01*
X302324546Y-1034300D01*
X302249699Y-1019412D01*
X302174852Y-1034300D01*
X302174848Y-1034300D01*
X301953163Y-1078396D01*
X301701771Y-1246371D01*
X301659371Y-1309827D01*
X300716222Y-2252977D01*
X300379909Y-2028260D01*
X299961333Y-1945000D01*
X299678667Y-1945000D01*
X299260091Y-2028260D01*
X298785423Y-2345423D01*
X298529053Y-2729108D01*
X298432389Y-2524866D01*
X298017423Y-2148959D01*
X297629039Y-1988096D01*
X297407000Y-2110085D01*
X297407000Y-3253000D01*
X297427000Y-3253000D01*
X297427000Y-3507000D01*
X297407000Y-3507000D01*
X297407000Y-4649915D01*
X297629039Y-4771904D01*
X298017423Y-4611041D01*
X298432389Y-4235134D01*
X298529053Y-4030892D01*
X298785423Y-4414577D01*
X299260091Y-4731740D01*
X299678667Y-4815000D01*
X299961333Y-4815000D01*
X300379909Y-4731740D01*
X300854577Y-4414577D01*
X301040786Y-4135896D01*
X301127667Y-4118614D01*
X301325423Y-4414577D01*
X301800091Y-4731740D01*
X302218667Y-4815000D01*
X302501333Y-4815000D01*
X302919909Y-4731740D01*
X303394577Y-4414577D01*
X303580786Y-4135896D01*
X303667667Y-4118614D01*
X303865423Y-4414577D01*
X304340091Y-4731740D01*
X304758667Y-4815000D01*
X305041333Y-4815000D01*
X305459909Y-4731740D01*
X305934577Y-4414577D01*
X306170000Y-4062242D01*
X306405423Y-4414577D01*
X306880091Y-4731740D01*
X307298667Y-4815000D01*
X307581333Y-4815000D01*
X307999909Y-4731740D01*
X308474577Y-4414577D01*
X308494804Y-4384305D01*
X310676070Y-6565572D01*
X310718471Y-6629029D01*
X310969863Y-6797004D01*
X311191548Y-6841100D01*
X311191552Y-6841100D01*
X311266399Y-6855988D01*
X311341246Y-6841100D01*
X320540699Y-6841100D01*
X322333297Y-8633698D01*
X322260091Y-8648260D01*
X321785423Y-8965423D01*
X321468260Y-9440091D01*
X321356887Y-10000000D01*
X321468260Y-10559909D01*
X321785423Y-11034577D01*
X322260091Y-11351740D01*
X322678667Y-11435000D01*
X322961333Y-11435000D01*
X323379909Y-11351740D01*
X323854577Y-11034577D01*
X324171740Y-10559909D01*
X324186302Y-10486703D01*
X324313671Y-10614073D01*
X324356071Y-10677529D01*
X324607463Y-10845504D01*
X324829148Y-10889600D01*
X324829152Y-10889600D01*
X324904000Y-10904488D01*
X324978848Y-10889600D01*
X330554869Y-10889600D01*
X330536887Y-10980000D01*
X330648260Y-11539909D01*
X330965423Y-12014577D01*
X331440091Y-12331740D01*
X331858667Y-12415000D01*
X332141333Y-12415000D01*
X332559909Y-12331740D01*
X333034577Y-12014577D01*
X333054804Y-11984305D01*
X336479170Y-15408672D01*
X336521571Y-15472129D01*
X336772963Y-15640104D01*
X336994648Y-15684200D01*
X336994652Y-15684200D01*
X337069499Y-15699088D01*
X337144346Y-15684200D01*
X377286404Y-15684200D01*
X377283466Y-15687138D01*
X377065000Y-16214561D01*
X377065000Y-16785439D01*
X377283466Y-17312862D01*
X377687138Y-17716534D01*
X378214561Y-17935000D01*
X378785439Y-17935000D01*
X379312862Y-17716534D01*
X379716534Y-17312862D01*
X379935000Y-16785439D01*
X379935000Y-16214561D01*
X379913104Y-16161698D01*
X379940202Y-16134600D01*
X384729570Y-16134600D01*
X384656887Y-16500000D01*
X384768260Y-17059909D01*
X385085423Y-17534577D01*
X385560091Y-17851740D01*
X385978667Y-17935000D01*
X386261333Y-17935000D01*
X386679909Y-17851740D01*
X387154577Y-17534577D01*
X387338043Y-17260000D01*
X393361570Y-17260000D01*
X393383466Y-17312862D01*
X393787138Y-17716534D01*
X394314561Y-17935000D01*
X394885439Y-17935000D01*
X395412862Y-17716534D01*
X395816534Y-17312862D01*
X396035000Y-16785439D01*
X396035000Y-16214561D01*
X396001879Y-16134600D01*
X398159799Y-16134600D01*
X398186897Y-16161698D01*
X398165000Y-16214561D01*
X398165000Y-16785439D01*
X398383466Y-17312862D01*
X398787138Y-17716534D01*
X399314561Y-17935000D01*
X399885439Y-17935000D01*
X400412862Y-17716534D01*
X400816534Y-17312862D01*
X401035000Y-16785439D01*
X401035000Y-16214561D01*
X400816534Y-15687138D01*
X400813596Y-15684200D01*
X401267399Y-15684200D01*
X402871071Y-17287873D01*
X402913471Y-17351329D01*
X403164863Y-17519304D01*
X403386548Y-17563400D01*
X403386552Y-17563400D01*
X403461399Y-17578288D01*
X403536246Y-17563400D01*
X414455353Y-17563400D01*
X414530200Y-17578288D01*
X414605047Y-17563400D01*
X414605052Y-17563400D01*
X414826737Y-17519304D01*
X415078129Y-17351329D01*
X415120531Y-17287870D01*
X416645273Y-15763129D01*
X416708729Y-15720729D01*
X416876704Y-15469337D01*
X416920800Y-15247652D01*
X416920800Y-15247648D01*
X416935688Y-15172800D01*
X416920800Y-15097952D01*
X416920800Y-11815647D01*
X416935688Y-11740800D01*
X416920800Y-11665953D01*
X416920800Y-11665948D01*
X416876704Y-11444263D01*
X416708729Y-11192871D01*
X416645273Y-11150471D01*
X415941209Y-10446408D01*
X416014092Y-10080000D01*
X415898839Y-9500582D01*
X415570625Y-9009375D01*
X415272239Y-8810000D01*
X415570625Y-8610625D01*
X415898839Y-8119418D01*
X416014092Y-7540000D01*
X415898839Y-6960582D01*
X415570625Y-6469375D01*
X415552381Y-6457184D01*
X415597765Y-6448157D01*
X415807809Y-6307809D01*
X415948157Y-6097765D01*
X415997440Y-5850000D01*
X415997440Y-4193341D01*
X419566570Y-7762472D01*
X419608971Y-7825929D01*
X419860363Y-7993904D01*
X420082048Y-8038000D01*
X420082052Y-8038000D01*
X420156899Y-8052888D01*
X420231746Y-8038000D01*
X421332604Y-8038000D01*
X421183466Y-8187138D01*
X420965000Y-8714561D01*
X420965000Y-9285439D01*
X421183466Y-9812862D01*
X421587138Y-10216534D01*
X422114561Y-10435000D01*
X422685439Y-10435000D01*
X423212862Y-10216534D01*
X423616534Y-9812862D01*
X423780943Y-9415944D01*
X424092126Y-9727127D01*
X423765423Y-9945423D01*
X423448260Y-10420091D01*
X423336887Y-10980000D01*
X423448260Y-11539909D01*
X423765423Y-12014577D01*
X424240091Y-12331740D01*
X424658667Y-12415000D01*
X424941333Y-12415000D01*
X425359909Y-12331740D01*
X425834577Y-12014577D01*
X426052873Y-11687874D01*
X426954871Y-12589873D01*
X426997271Y-12653329D01*
X427248663Y-12821304D01*
X427470348Y-12865400D01*
X427470352Y-12865400D01*
X427545200Y-12880288D01*
X427620048Y-12865400D01*
X456138253Y-12865400D01*
X456213100Y-12880288D01*
X456287947Y-12865400D01*
X456287952Y-12865400D01*
X456509637Y-12821304D01*
X456761029Y-12653329D01*
X456803431Y-12589870D01*
X457730425Y-11662877D01*
X457965423Y-12014577D01*
X458240000Y-12198044D01*
X458240001Y-13701197D01*
X454691037Y-17250162D01*
X454485439Y-17165000D01*
X453914561Y-17165000D01*
X453387138Y-17383466D01*
X452983466Y-17787138D01*
X452765000Y-18314561D01*
X452765000Y-18885439D01*
X452922219Y-19265000D01*
X435677781Y-19265000D01*
X435835000Y-18885439D01*
X435835000Y-18314561D01*
X435616534Y-17787138D01*
X435212862Y-17383466D01*
X434685439Y-17165000D01*
X434114561Y-17165000D01*
X433587138Y-17383466D01*
X433183466Y-17787138D01*
X432965000Y-18314561D01*
X432965000Y-18885439D01*
X433122219Y-19265000D01*
X430877781Y-19265000D01*
X431035000Y-18885439D01*
X431035000Y-18314561D01*
X430816534Y-17787138D01*
X430412862Y-17383466D01*
X429885439Y-17165000D01*
X429314561Y-17165000D01*
X428787138Y-17383466D01*
X428383466Y-17787138D01*
X428361570Y-17840000D01*
X426038430Y-17840000D01*
X426016534Y-17787138D01*
X425612862Y-17383466D01*
X425085439Y-17165000D01*
X424514561Y-17165000D01*
X423987138Y-17383466D01*
X423583466Y-17787138D01*
X423365000Y-18314561D01*
X423365000Y-18885439D01*
X423522219Y-19265000D01*
X352485856Y-19265000D01*
X352646965Y-18816777D01*
X352619778Y-18246546D01*
X352453864Y-17845995D01*
X352207745Y-17771861D01*
X351379605Y-18600000D01*
X351393748Y-18614142D01*
X351214142Y-18793748D01*
X351200000Y-18779605D01*
X351185858Y-18793748D01*
X351006252Y-18614142D01*
X351020395Y-18600000D01*
X350192255Y-17771861D01*
X349946136Y-17845995D01*
X349753035Y-18383223D01*
X349780222Y-18953454D01*
X349909269Y-19265000D01*
X347677781Y-19265000D01*
X347835000Y-18885439D01*
X347835000Y-18314561D01*
X347616534Y-17787138D01*
X347421651Y-17592255D01*
X350371861Y-17592255D01*
X351200000Y-18420395D01*
X352028139Y-17592255D01*
X351954005Y-17346136D01*
X351416777Y-17153035D01*
X350846546Y-17180222D01*
X350445995Y-17346136D01*
X350371861Y-17592255D01*
X347421651Y-17592255D01*
X347212862Y-17383466D01*
X346685439Y-17165000D01*
X346114561Y-17165000D01*
X345587138Y-17383466D01*
X345183466Y-17787138D01*
X345161570Y-17840000D01*
X342838430Y-17840000D01*
X342816534Y-17787138D01*
X342412862Y-17383466D01*
X341885439Y-17165000D01*
X341314561Y-17165000D01*
X340787138Y-17383466D01*
X340383466Y-17787138D01*
X340361570Y-17840000D01*
X338038430Y-17840000D01*
X338016534Y-17787138D01*
X337612862Y-17383466D01*
X337085439Y-17165000D01*
X336514561Y-17165000D01*
X335987138Y-17383466D01*
X335583466Y-17787138D01*
X335561570Y-17840000D01*
X333238430Y-17840000D01*
X333216534Y-17787138D01*
X332812862Y-17383466D01*
X332285439Y-17165000D01*
X331714561Y-17165000D01*
X331187138Y-17383466D01*
X330783466Y-17787138D01*
X330761570Y-17840000D01*
X321914789Y-17840000D01*
X322212862Y-17716534D01*
X322616534Y-17312862D01*
X322835000Y-16785439D01*
X322835000Y-16214561D01*
X322616534Y-15687138D01*
X322212862Y-15283466D01*
X321685439Y-15065000D01*
X321114561Y-15065000D01*
X320587138Y-15283466D01*
X320183466Y-15687138D01*
X320161570Y-15740000D01*
X318515202Y-15740000D01*
X313782947Y-11007745D01*
X314371861Y-11007745D01*
X314445995Y-11253864D01*
X314983223Y-11446965D01*
X315553454Y-11419778D01*
X315954005Y-11253864D01*
X316028139Y-11007745D01*
X315200000Y-10179605D01*
X314371861Y-11007745D01*
X313782947Y-11007745D01*
X312558425Y-9783223D01*
X313753035Y-9783223D01*
X313780222Y-10353454D01*
X313946136Y-10754005D01*
X314192255Y-10828139D01*
X315020395Y-10000000D01*
X315379605Y-10000000D01*
X316207745Y-10828139D01*
X316453864Y-10754005D01*
X316646965Y-10216777D01*
X316619778Y-9646546D01*
X316453864Y-9245995D01*
X316207745Y-9171861D01*
X315379605Y-10000000D01*
X315020395Y-10000000D01*
X314192255Y-9171861D01*
X313946136Y-9245995D01*
X313753035Y-9783223D01*
X312558425Y-9783223D01*
X312162331Y-9387130D01*
X312119929Y-9323671D01*
X311868537Y-9155696D01*
X311646852Y-9111600D01*
X311646847Y-9111600D01*
X311572000Y-9096712D01*
X311497153Y-9111600D01*
X306947246Y-9111600D01*
X306872399Y-9096712D01*
X306797552Y-9111600D01*
X306797548Y-9111600D01*
X306575863Y-9155696D01*
X306540793Y-9179129D01*
X306387926Y-9281271D01*
X306387924Y-9281273D01*
X306324471Y-9323671D01*
X306282073Y-9387125D01*
X305796221Y-9872977D01*
X305459909Y-9648260D01*
X305041333Y-9565000D01*
X304758667Y-9565000D01*
X304340091Y-9648260D01*
X303865423Y-9965423D01*
X303609053Y-10349108D01*
X303512389Y-10144866D01*
X303097423Y-9768959D01*
X302709039Y-9608096D01*
X302487000Y-9730085D01*
X302487000Y-10873000D01*
X302507000Y-10873000D01*
X302507000Y-11127000D01*
X302487000Y-11127000D01*
X302487000Y-12269915D01*
X302709039Y-12391904D01*
X303097423Y-12231041D01*
X303512389Y-11855134D01*
X303609053Y-11650892D01*
X303865423Y-12034577D01*
X303895694Y-12054804D01*
X300785481Y-15165018D01*
X300785439Y-15165000D01*
X300214561Y-15165000D01*
X299687138Y-15383466D01*
X299283466Y-15787138D01*
X299065000Y-16314561D01*
X299065000Y-16885439D01*
X299283466Y-17412862D01*
X299687138Y-17816534D01*
X300214561Y-18035000D01*
X300785439Y-18035000D01*
X301312862Y-17816534D01*
X301716534Y-17412862D01*
X301935000Y-16885439D01*
X301935000Y-16314561D01*
X301891224Y-16208877D01*
X305384473Y-12715629D01*
X305447929Y-12673229D01*
X305505209Y-12587503D01*
X305615904Y-12421838D01*
X305628985Y-12356073D01*
X305655896Y-12220786D01*
X305934577Y-12034577D01*
X306120786Y-11755896D01*
X306207667Y-11738614D01*
X306405423Y-12034577D01*
X306684106Y-12220787D01*
X306711016Y-12356073D01*
X306724097Y-12421837D01*
X306834792Y-12587503D01*
X306892072Y-12673229D01*
X306955528Y-12715629D01*
X307360000Y-13120102D01*
X307360001Y-15381956D01*
X307085423Y-15565423D01*
X306768260Y-16040091D01*
X306656887Y-16600000D01*
X306768260Y-17159909D01*
X307085423Y-17634577D01*
X307560091Y-17951740D01*
X307978667Y-18035000D01*
X308261333Y-18035000D01*
X308679909Y-17951740D01*
X309154577Y-17634577D01*
X309338043Y-17360000D01*
X315230604Y-17360000D01*
X315587138Y-17716534D01*
X316114561Y-17935000D01*
X316660199Y-17935000D01*
X317809671Y-19084473D01*
X317852071Y-19147929D01*
X318027280Y-19265000D01*
X235085856Y-19265000D01*
X235246965Y-18816777D01*
X235219778Y-18246546D01*
X235053864Y-17845995D01*
X234807745Y-17771861D01*
X233979605Y-18600000D01*
X233993748Y-18614142D01*
X233814142Y-18793748D01*
X233800000Y-18779605D01*
X233785858Y-18793748D01*
X233606252Y-18614142D01*
X233620395Y-18600000D01*
X232792255Y-17771861D01*
X232546136Y-17845995D01*
X232353035Y-18383223D01*
X232380222Y-18953454D01*
X232509269Y-19265000D01*
X230277781Y-19265000D01*
X230435000Y-18885439D01*
X230435000Y-18314561D01*
X230216534Y-17787138D01*
X230021651Y-17592255D01*
X232971861Y-17592255D01*
X233800000Y-18420395D01*
X234628139Y-17592255D01*
X234554005Y-17346136D01*
X234016777Y-17153035D01*
X233446546Y-17180222D01*
X233045995Y-17346136D01*
X232971861Y-17592255D01*
X230021651Y-17592255D01*
X229812862Y-17383466D01*
X229760000Y-17361570D01*
X229760000Y-17220101D01*
X234284473Y-12695629D01*
X234347929Y-12653229D01*
X234515904Y-12401837D01*
X234555896Y-12200786D01*
X234834577Y-12014577D01*
X235151740Y-11539909D01*
X235263113Y-10980000D01*
X235151740Y-10420091D01*
X235004680Y-10200000D01*
X290752560Y-10200000D01*
X290752560Y-11800000D01*
X290801843Y-12047765D01*
X290942191Y-12257809D01*
X291152235Y-12398157D01*
X291400000Y-12447440D01*
X293000000Y-12447440D01*
X293247765Y-12398157D01*
X293457809Y-12257809D01*
X293598157Y-12047765D01*
X293624785Y-11913894D01*
X293705423Y-12034577D01*
X294180091Y-12351740D01*
X294598667Y-12435000D01*
X294881333Y-12435000D01*
X295299909Y-12351740D01*
X295774577Y-12034577D01*
X296030947Y-11650892D01*
X296127611Y-11855134D01*
X296542577Y-12231041D01*
X296930961Y-12391904D01*
X297153000Y-12269915D01*
X297153000Y-11127000D01*
X297133000Y-11127000D01*
X297133000Y-10873000D01*
X297153000Y-10873000D01*
X297153000Y-9730085D01*
X297407000Y-9730085D01*
X297407000Y-10873000D01*
X297427000Y-10873000D01*
X297427000Y-11127000D01*
X297407000Y-11127000D01*
X297407000Y-12269915D01*
X297629039Y-12391904D01*
X298017423Y-12231041D01*
X298432389Y-11855134D01*
X298529053Y-11650892D01*
X298785423Y-12034577D01*
X299260091Y-12351740D01*
X299678667Y-12435000D01*
X299961333Y-12435000D01*
X300379909Y-12351740D01*
X300854577Y-12034577D01*
X301110947Y-11650892D01*
X301207611Y-11855134D01*
X301622577Y-12231041D01*
X302010961Y-12391904D01*
X302233000Y-12269915D01*
X302233000Y-11127000D01*
X302213000Y-11127000D01*
X302213000Y-10873000D01*
X302233000Y-10873000D01*
X302233000Y-9730085D01*
X302010961Y-9608096D01*
X301622577Y-9768959D01*
X301207611Y-10144866D01*
X301110947Y-10349108D01*
X300854577Y-9965423D01*
X300379909Y-9648260D01*
X299961333Y-9565000D01*
X299678667Y-9565000D01*
X299260091Y-9648260D01*
X298785423Y-9965423D01*
X298529053Y-10349108D01*
X298432389Y-10144866D01*
X298017423Y-9768959D01*
X297629039Y-9608096D01*
X297407000Y-9730085D01*
X297153000Y-9730085D01*
X296930961Y-9608096D01*
X296542577Y-9768959D01*
X296127611Y-10144866D01*
X296030947Y-10349108D01*
X295774577Y-9965423D01*
X295299909Y-9648260D01*
X294881333Y-9565000D01*
X294598667Y-9565000D01*
X294180091Y-9648260D01*
X293705423Y-9965423D01*
X293624785Y-10086106D01*
X293598157Y-9952235D01*
X293457809Y-9742191D01*
X293247765Y-9601843D01*
X293000000Y-9552560D01*
X291400000Y-9552560D01*
X291152235Y-9601843D01*
X290942191Y-9742191D01*
X290801843Y-9952235D01*
X290752560Y-10200000D01*
X235004680Y-10200000D01*
X234834577Y-9945423D01*
X234359909Y-9628260D01*
X233941333Y-9545000D01*
X233658667Y-9545000D01*
X233240091Y-9628260D01*
X233085816Y-9731343D01*
X233121400Y-9552452D01*
X233121400Y-9552448D01*
X233136288Y-9477600D01*
X233121400Y-9402752D01*
X233121400Y-8992255D01*
X314371861Y-8992255D01*
X315200000Y-9820395D01*
X316028139Y-8992255D01*
X315954005Y-8746136D01*
X315416777Y-8553035D01*
X314846546Y-8580222D01*
X314445995Y-8746136D01*
X314371861Y-8992255D01*
X233121400Y-8992255D01*
X233121400Y-3741548D01*
X233136288Y-3666700D01*
X233121400Y-3591852D01*
X233121400Y-3591848D01*
X233079261Y-3380000D01*
X290736887Y-3380000D01*
X290848260Y-3939909D01*
X291165423Y-4414577D01*
X291640091Y-4731740D01*
X292058667Y-4815000D01*
X292341333Y-4815000D01*
X292759909Y-4731740D01*
X293234577Y-4414577D01*
X293418043Y-4140000D01*
X293521957Y-4140000D01*
X293705423Y-4414577D01*
X294180091Y-4731740D01*
X294598667Y-4815000D01*
X294881333Y-4815000D01*
X295299909Y-4731740D01*
X295774577Y-4414577D01*
X296030947Y-4030892D01*
X296127611Y-4235134D01*
X296542577Y-4611041D01*
X296930961Y-4771904D01*
X297153000Y-4649915D01*
X297153000Y-3507000D01*
X297133000Y-3507000D01*
X297133000Y-3253000D01*
X297153000Y-3253000D01*
X297153000Y-2110085D01*
X296930961Y-1988096D01*
X296542577Y-2148959D01*
X296127611Y-2524866D01*
X296030947Y-2729108D01*
X295774577Y-2345423D01*
X295299909Y-2028260D01*
X294881333Y-1945000D01*
X294598667Y-1945000D01*
X294180091Y-2028260D01*
X293705423Y-2345423D01*
X293521957Y-2620000D01*
X293418043Y-2620000D01*
X293234577Y-2345423D01*
X292759909Y-2028260D01*
X292341333Y-1945000D01*
X292058667Y-1945000D01*
X291640091Y-2028260D01*
X291165423Y-2345423D01*
X290848260Y-2820091D01*
X290736887Y-3380000D01*
X233079261Y-3380000D01*
X233077304Y-3370163D01*
X232909329Y-3118771D01*
X232845873Y-3076371D01*
X232204305Y-2434804D01*
X232234577Y-2414577D01*
X232551740Y-1939909D01*
X232663113Y-1380000D01*
X232551740Y-820091D01*
X232494884Y-735000D01*
X328305116Y-735000D01*
X328248260Y-820091D01*
G36*
X525265000Y-19265000D02*
X460285856Y-19265000D01*
X460446965Y-18816777D01*
X460419778Y-18246546D01*
X460253864Y-17845995D01*
X460007745Y-17771861D01*
X459179605Y-18600000D01*
X459193748Y-18614142D01*
X459014142Y-18793748D01*
X459000000Y-18779605D01*
X458985858Y-18793748D01*
X458806252Y-18614142D01*
X458820395Y-18600000D01*
X457992255Y-17771861D01*
X457746136Y-17845995D01*
X457553035Y-18383223D01*
X457580222Y-18953454D01*
X457709269Y-19265000D01*
X455477781Y-19265000D01*
X455635000Y-18885439D01*
X455635000Y-18455801D01*
X456498546Y-17592255D01*
X458171861Y-17592255D01*
X459000000Y-18420395D01*
X459828139Y-17592255D01*
X459754005Y-17346136D01*
X459216777Y-17153035D01*
X458646546Y-17180222D01*
X458245995Y-17346136D01*
X458171861Y-17592255D01*
X456498546Y-17592255D01*
X459314802Y-14776000D01*
X469325899Y-14776000D01*
X470194373Y-15644475D01*
X470236771Y-15707929D01*
X470300224Y-15750327D01*
X470300226Y-15750329D01*
X470425602Y-15834102D01*
X470488163Y-15875904D01*
X470677526Y-15913571D01*
X470889375Y-16230625D01*
X471380582Y-16558839D01*
X471813744Y-16645000D01*
X472106256Y-16645000D01*
X472539418Y-16558839D01*
X473030625Y-16230625D01*
X473230000Y-15932239D01*
X473429375Y-16230625D01*
X473920582Y-16558839D01*
X474353744Y-16645000D01*
X474646256Y-16645000D01*
X475079418Y-16558839D01*
X475570625Y-16230625D01*
X475898839Y-15739418D01*
X476014092Y-15160000D01*
X475898839Y-14580582D01*
X475570625Y-14089375D01*
X475272239Y-13890000D01*
X475570625Y-13690625D01*
X475898839Y-13199418D01*
X476014092Y-12620000D01*
X475898839Y-12040582D01*
X475570625Y-11549375D01*
X475272239Y-11350000D01*
X475570625Y-11150625D01*
X475898839Y-10659418D01*
X476014092Y-10080000D01*
X475898839Y-9500582D01*
X475570625Y-9009375D01*
X475272239Y-8810000D01*
X475570625Y-8610625D01*
X475898839Y-8119418D01*
X476014092Y-7540000D01*
X475898839Y-6960582D01*
X475570625Y-6469375D01*
X475552381Y-6457184D01*
X475597765Y-6448157D01*
X475807809Y-6307809D01*
X475948157Y-6097765D01*
X475997440Y-5850000D01*
X475997440Y-4150000D01*
X475985108Y-4088000D01*
X495033189Y-4088000D01*
X495150620Y-4205431D01*
X495531026Y-4363000D01*
X495942774Y-4363000D01*
X496323180Y-4205431D01*
X496614331Y-3914280D01*
X496771900Y-3533874D01*
X496771900Y-3156892D01*
X502478514Y-3156892D01*
X502724817Y-3681358D01*
X503153076Y-4071645D01*
X503563110Y-4241476D01*
X503793000Y-4120155D01*
X503793000Y-2927000D01*
X502599181Y-2927000D01*
X502478514Y-3156892D01*
X496771900Y-3156892D01*
X496771900Y-3122126D01*
X496614331Y-2741720D01*
X496493256Y-2620645D01*
X497227103Y-1886800D01*
X502759757Y-1886800D01*
X502724817Y-1918642D01*
X502478514Y-2443108D01*
X502599181Y-2673000D01*
X503793000Y-2673000D01*
X503793000Y-2653000D01*
X504047000Y-2653000D01*
X504047000Y-2673000D01*
X504067000Y-2673000D01*
X504067000Y-2927000D01*
X504047000Y-2927000D01*
X504047000Y-4120155D01*
X504276890Y-4241476D01*
X504686924Y-4071645D01*
X505115183Y-3681358D01*
X505176157Y-3551522D01*
X505389375Y-3870625D01*
X505880582Y-4198839D01*
X506313744Y-4285000D01*
X506606256Y-4285000D01*
X507039418Y-4198839D01*
X507530625Y-3870625D01*
X507542816Y-3852381D01*
X507551843Y-3897765D01*
X507692191Y-4107809D01*
X507902235Y-4248157D01*
X508150000Y-4297440D01*
X509850000Y-4297440D01*
X510097765Y-4248157D01*
X510307809Y-4107809D01*
X510448157Y-3897765D01*
X510497440Y-3650000D01*
X510497440Y-2856892D01*
X515478514Y-2856892D01*
X515724817Y-3381358D01*
X516153076Y-3771645D01*
X516563110Y-3941476D01*
X516793000Y-3820155D01*
X516793000Y-2627000D01*
X515599181Y-2627000D01*
X515478514Y-2856892D01*
X510497440Y-2856892D01*
X510497440Y-1950000D01*
X510484869Y-1886800D01*
X515598883Y-1886800D01*
X515478514Y-2143108D01*
X515599181Y-2373000D01*
X516793000Y-2373000D01*
X516793000Y-2353000D01*
X517047000Y-2353000D01*
X517047000Y-2373000D01*
X517067000Y-2373000D01*
X517067000Y-2627000D01*
X517047000Y-2627000D01*
X517047000Y-3820155D01*
X517276890Y-3941476D01*
X517686924Y-3771645D01*
X518115183Y-3381358D01*
X518175394Y-3253147D01*
X518177526Y-3253571D01*
X518389375Y-3570625D01*
X518880582Y-3898839D01*
X519313744Y-3985000D01*
X519606256Y-3985000D01*
X520039418Y-3898839D01*
X520530625Y-3570625D01*
X520542816Y-3552381D01*
X520551843Y-3597765D01*
X520692191Y-3807809D01*
X520902235Y-3948157D01*
X521150000Y-3997440D01*
X522850000Y-3997440D01*
X523097765Y-3948157D01*
X523307809Y-3807809D01*
X523448157Y-3597765D01*
X523497440Y-3350000D01*
X523497440Y-1650000D01*
X523448157Y-1402235D01*
X523307809Y-1192191D01*
X523097765Y-1051843D01*
X522850000Y-1002560D01*
X521150000Y-1002560D01*
X520902235Y-1051843D01*
X520692191Y-1192191D01*
X520551843Y-1402235D01*
X520542816Y-1447619D01*
X520530625Y-1429375D01*
X520039418Y-1101161D01*
X519606256Y-1015000D01*
X519313744Y-1015000D01*
X518880582Y-1101161D01*
X518549311Y-1322509D01*
X517961801Y-735000D01*
X525265001Y-735000D01*
X525265000Y-19265000D01*
X525265000Y-19265000D01*
G37*
X525265000Y-19265000D02*
X460285856Y-19265000D01*
X460446965Y-18816777D01*
X460419778Y-18246546D01*
X460253864Y-17845995D01*
X460007745Y-17771861D01*
X459179605Y-18600000D01*
X459193748Y-18614142D01*
X459014142Y-18793748D01*
X459000000Y-18779605D01*
X458985858Y-18793748D01*
X458806252Y-18614142D01*
X458820395Y-18600000D01*
X457992255Y-17771861D01*
X457746136Y-17845995D01*
X457553035Y-18383223D01*
X457580222Y-18953454D01*
X457709269Y-19265000D01*
X455477781Y-19265000D01*
X455635000Y-18885439D01*
X455635000Y-18455801D01*
X456498546Y-17592255D01*
X458171861Y-17592255D01*
X459000000Y-18420395D01*
X459828139Y-17592255D01*
X459754005Y-17346136D01*
X459216777Y-17153035D01*
X458646546Y-17180222D01*
X458245995Y-17346136D01*
X458171861Y-17592255D01*
X456498546Y-17592255D01*
X459314802Y-14776000D01*
X469325899Y-14776000D01*
X470194373Y-15644475D01*
X470236771Y-15707929D01*
X470300224Y-15750327D01*
X470300226Y-15750329D01*
X470425602Y-15834102D01*
X470488163Y-15875904D01*
X470677526Y-15913571D01*
X470889375Y-16230625D01*
X471380582Y-16558839D01*
X471813744Y-16645000D01*
X472106256Y-16645000D01*
X472539418Y-16558839D01*
X473030625Y-16230625D01*
X473230000Y-15932239D01*
X473429375Y-16230625D01*
X473920582Y-16558839D01*
X474353744Y-16645000D01*
X474646256Y-16645000D01*
X475079418Y-16558839D01*
X475570625Y-16230625D01*
X475898839Y-15739418D01*
X476014092Y-15160000D01*
X475898839Y-14580582D01*
X475570625Y-14089375D01*
X475272239Y-13890000D01*
X475570625Y-13690625D01*
X475898839Y-13199418D01*
X476014092Y-12620000D01*
X475898839Y-12040582D01*
X475570625Y-11549375D01*
X475272239Y-11350000D01*
X475570625Y-11150625D01*
X475898839Y-10659418D01*
X476014092Y-10080000D01*
X475898839Y-9500582D01*
X475570625Y-9009375D01*
X475272239Y-8810000D01*
X475570625Y-8610625D01*
X475898839Y-8119418D01*
X476014092Y-7540000D01*
X475898839Y-6960582D01*
X475570625Y-6469375D01*
X475552381Y-6457184D01*
X475597765Y-6448157D01*
X475807809Y-6307809D01*
X475948157Y-6097765D01*
X475997440Y-5850000D01*
X475997440Y-4150000D01*
X475985108Y-4088000D01*
X495033189Y-4088000D01*
X495150620Y-4205431D01*
X495531026Y-4363000D01*
X495942774Y-4363000D01*
X496323180Y-4205431D01*
X496614331Y-3914280D01*
X496771900Y-3533874D01*
X496771900Y-3156892D01*
X502478514Y-3156892D01*
X502724817Y-3681358D01*
X503153076Y-4071645D01*
X503563110Y-4241476D01*
X503793000Y-4120155D01*
X503793000Y-2927000D01*
X502599181Y-2927000D01*
X502478514Y-3156892D01*
X496771900Y-3156892D01*
X496771900Y-3122126D01*
X496614331Y-2741720D01*
X496493256Y-2620645D01*
X497227103Y-1886800D01*
X502759757Y-1886800D01*
X502724817Y-1918642D01*
X502478514Y-2443108D01*
X502599181Y-2673000D01*
X503793000Y-2673000D01*
X503793000Y-2653000D01*
X504047000Y-2653000D01*
X504047000Y-2673000D01*
X504067000Y-2673000D01*
X504067000Y-2927000D01*
X504047000Y-2927000D01*
X504047000Y-4120155D01*
X504276890Y-4241476D01*
X504686924Y-4071645D01*
X505115183Y-3681358D01*
X505176157Y-3551522D01*
X505389375Y-3870625D01*
X505880582Y-4198839D01*
X506313744Y-4285000D01*
X506606256Y-4285000D01*
X507039418Y-4198839D01*
X507530625Y-3870625D01*
X507542816Y-3852381D01*
X507551843Y-3897765D01*
X507692191Y-4107809D01*
X507902235Y-4248157D01*
X508150000Y-4297440D01*
X509850000Y-4297440D01*
X510097765Y-4248157D01*
X510307809Y-4107809D01*
X510448157Y-3897765D01*
X510497440Y-3650000D01*
X510497440Y-2856892D01*
X515478514Y-2856892D01*
X515724817Y-3381358D01*
X516153076Y-3771645D01*
X516563110Y-3941476D01*
X516793000Y-3820155D01*
X516793000Y-2627000D01*
X515599181Y-2627000D01*
X515478514Y-2856892D01*
X510497440Y-2856892D01*
X510497440Y-1950000D01*
X510484869Y-1886800D01*
X515598883Y-1886800D01*
X515478514Y-2143108D01*
X515599181Y-2373000D01*
X516793000Y-2373000D01*
X516793000Y-2353000D01*
X517047000Y-2353000D01*
X517047000Y-2373000D01*
X517067000Y-2373000D01*
X517067000Y-2627000D01*
X517047000Y-2627000D01*
X517047000Y-3820155D01*
X517276890Y-3941476D01*
X517686924Y-3771645D01*
X518115183Y-3381358D01*
X518175394Y-3253147D01*
X518177526Y-3253571D01*
X518389375Y-3570625D01*
X518880582Y-3898839D01*
X519313744Y-3985000D01*
X519606256Y-3985000D01*
X520039418Y-3898839D01*
X520530625Y-3570625D01*
X520542816Y-3552381D01*
X520551843Y-3597765D01*
X520692191Y-3807809D01*
X520902235Y-3948157D01*
X521150000Y-3997440D01*
X522850000Y-3997440D01*
X523097765Y-3948157D01*
X523307809Y-3807809D01*
X523448157Y-3597765D01*
X523497440Y-3350000D01*
X523497440Y-1650000D01*
X523448157Y-1402235D01*
X523307809Y-1192191D01*
X523097765Y-1051843D01*
X522850000Y-1002560D01*
X521150000Y-1002560D01*
X520902235Y-1051843D01*
X520692191Y-1192191D01*
X520551843Y-1402235D01*
X520542816Y-1447619D01*
X520530625Y-1429375D01*
X520039418Y-1101161D01*
X519606256Y-1015000D01*
X519313744Y-1015000D01*
X518880582Y-1101161D01*
X518549311Y-1322509D01*
X517961801Y-735000D01*
X525265001Y-735000D01*
X525265000Y-19265000D01*
G36*
X157571870Y-8353972D02*
X157614271Y-8417429D01*
X157677727Y-8459829D01*
X157865662Y-8585404D01*
X157913805Y-8594980D01*
X158087348Y-8629500D01*
X158087352Y-8629500D01*
X158162200Y-8644388D01*
X158237048Y-8629500D01*
X170346298Y-8629500D01*
X167807799Y-11168000D01*
X167641726Y-11168000D01*
X167261320Y-11325569D01*
X166970169Y-11616720D01*
X166812600Y-11997126D01*
X166812600Y-12408874D01*
X166899471Y-12618600D01*
X164382400Y-12618600D01*
X164382400Y-12585626D01*
X164224831Y-12205220D01*
X163933680Y-11914069D01*
X163553274Y-11756500D01*
X163141526Y-11756500D01*
X162761120Y-11914069D01*
X162469969Y-12205220D01*
X162312400Y-12585626D01*
X162312400Y-12788958D01*
X161978374Y-12650600D01*
X161566626Y-12650600D01*
X161186220Y-12808169D01*
X160895069Y-13099320D01*
X160863390Y-13175800D01*
X160558326Y-13175800D01*
X160177920Y-13333369D01*
X159886769Y-13624520D01*
X159729200Y-14004926D01*
X159729200Y-14416674D01*
X159886769Y-14797080D01*
X160177920Y-15088231D01*
X160558326Y-15245800D01*
X160970074Y-15245800D01*
X160997584Y-15234405D01*
X160913769Y-15318220D01*
X160756200Y-15698626D01*
X160756200Y-16110374D01*
X160913769Y-16490780D01*
X161204920Y-16781931D01*
X161585326Y-16939500D01*
X161997074Y-16939500D01*
X162377480Y-16781931D01*
X162524811Y-16634600D01*
X178598121Y-16634600D01*
X178565000Y-16714561D01*
X178565000Y-17285439D01*
X178783466Y-17812862D01*
X179187138Y-18216534D01*
X179714561Y-18435000D01*
X180285439Y-18435000D01*
X180812862Y-18216534D01*
X181216534Y-17812862D01*
X181435000Y-17285439D01*
X181435000Y-16714561D01*
X181401879Y-16634600D01*
X185054499Y-16634600D01*
X185904371Y-17484473D01*
X185946771Y-17547929D01*
X186198163Y-17715904D01*
X186399214Y-17755896D01*
X186585423Y-18034577D01*
X187060091Y-18351740D01*
X187478667Y-18435000D01*
X187761333Y-18435000D01*
X188179909Y-18351740D01*
X188654577Y-18034577D01*
X188971740Y-17559909D01*
X189083113Y-17000000D01*
X188971740Y-16440091D01*
X188654577Y-15965423D01*
X188179909Y-15648260D01*
X187761333Y-15565000D01*
X187478667Y-15565000D01*
X187060091Y-15648260D01*
X186585423Y-15965423D01*
X186565196Y-15995695D01*
X185959631Y-15390130D01*
X185917229Y-15326671D01*
X185684102Y-15170900D01*
X197199704Y-15170900D01*
X197183466Y-15187138D01*
X196965000Y-15714561D01*
X196965000Y-16285439D01*
X197183466Y-16812862D01*
X197587138Y-17216534D01*
X198114561Y-17435000D01*
X198685439Y-17435000D01*
X198738302Y-17413103D01*
X200409671Y-19084473D01*
X200452071Y-19147929D01*
X200627280Y-19265000D01*
X159793045Y-19265000D01*
X159946965Y-18836777D01*
X159919778Y-18266546D01*
X159753864Y-17865995D01*
X159507745Y-17791861D01*
X158679605Y-18620000D01*
X158693748Y-18634142D01*
X158514142Y-18813748D01*
X158500000Y-18799605D01*
X158485858Y-18813748D01*
X158306252Y-18634142D01*
X158320395Y-18620000D01*
X157492255Y-17791861D01*
X157246136Y-17865995D01*
X157053035Y-18403223D01*
X157080222Y-18973454D01*
X157200985Y-19265000D01*
X154986065Y-19265000D01*
X155135000Y-18905439D01*
X155135000Y-18334561D01*
X155113103Y-18281698D01*
X155782546Y-17612255D01*
X157671861Y-17612255D01*
X158500000Y-18440395D01*
X159328139Y-17612255D01*
X159254005Y-17366136D01*
X158716777Y-17173035D01*
X158146546Y-17200222D01*
X157745995Y-17366136D01*
X157671861Y-17612255D01*
X155782546Y-17612255D01*
X156184473Y-17210329D01*
X156247929Y-17167929D01*
X156415904Y-16916537D01*
X156460000Y-16694852D01*
X156460000Y-16694848D01*
X156474888Y-16620001D01*
X156460000Y-16545154D01*
X156460000Y-11760000D01*
X157281957Y-11760000D01*
X157465423Y-12034577D01*
X157940091Y-12351740D01*
X158358667Y-12435000D01*
X158641333Y-12435000D01*
X159059909Y-12351740D01*
X159534577Y-12034577D01*
X159851740Y-11559909D01*
X159963113Y-11000000D01*
X159851740Y-10440091D01*
X159534577Y-9965423D01*
X159059909Y-9648260D01*
X158641333Y-9565000D01*
X158358667Y-9565000D01*
X157940091Y-9648260D01*
X157465423Y-9965423D01*
X157281957Y-10240000D01*
X156656210Y-10240000D01*
X156712862Y-10216534D01*
X157116534Y-9812862D01*
X157335000Y-9285439D01*
X157335000Y-8714561D01*
X157116534Y-8187138D01*
X156712862Y-7783466D01*
X156481421Y-7687600D01*
X156905499Y-7687600D01*
X157571870Y-8353972D01*
X157571870Y-8353972D01*
G37*
X157571870Y-8353972D02*
X157614271Y-8417429D01*
X157677727Y-8459829D01*
X157865662Y-8585404D01*
X157913805Y-8594980D01*
X158087348Y-8629500D01*
X158087352Y-8629500D01*
X158162200Y-8644388D01*
X158237048Y-8629500D01*
X170346298Y-8629500D01*
X167807799Y-11168000D01*
X167641726Y-11168000D01*
X167261320Y-11325569D01*
X166970169Y-11616720D01*
X166812600Y-11997126D01*
X166812600Y-12408874D01*
X166899471Y-12618600D01*
X164382400Y-12618600D01*
X164382400Y-12585626D01*
X164224831Y-12205220D01*
X163933680Y-11914069D01*
X163553274Y-11756500D01*
X163141526Y-11756500D01*
X162761120Y-11914069D01*
X162469969Y-12205220D01*
X162312400Y-12585626D01*
X162312400Y-12788958D01*
X161978374Y-12650600D01*
X161566626Y-12650600D01*
X161186220Y-12808169D01*
X160895069Y-13099320D01*
X160863390Y-13175800D01*
X160558326Y-13175800D01*
X160177920Y-13333369D01*
X159886769Y-13624520D01*
X159729200Y-14004926D01*
X159729200Y-14416674D01*
X159886769Y-14797080D01*
X160177920Y-15088231D01*
X160558326Y-15245800D01*
X160970074Y-15245800D01*
X160997584Y-15234405D01*
X160913769Y-15318220D01*
X160756200Y-15698626D01*
X160756200Y-16110374D01*
X160913769Y-16490780D01*
X161204920Y-16781931D01*
X161585326Y-16939500D01*
X161997074Y-16939500D01*
X162377480Y-16781931D01*
X162524811Y-16634600D01*
X178598121Y-16634600D01*
X178565000Y-16714561D01*
X178565000Y-17285439D01*
X178783466Y-17812862D01*
X179187138Y-18216534D01*
X179714561Y-18435000D01*
X180285439Y-18435000D01*
X180812862Y-18216534D01*
X181216534Y-17812862D01*
X181435000Y-17285439D01*
X181435000Y-16714561D01*
X181401879Y-16634600D01*
X185054499Y-16634600D01*
X185904371Y-17484473D01*
X185946771Y-17547929D01*
X186198163Y-17715904D01*
X186399214Y-17755896D01*
X186585423Y-18034577D01*
X187060091Y-18351740D01*
X187478667Y-18435000D01*
X187761333Y-18435000D01*
X188179909Y-18351740D01*
X188654577Y-18034577D01*
X188971740Y-17559909D01*
X189083113Y-17000000D01*
X188971740Y-16440091D01*
X188654577Y-15965423D01*
X188179909Y-15648260D01*
X187761333Y-15565000D01*
X187478667Y-15565000D01*
X187060091Y-15648260D01*
X186585423Y-15965423D01*
X186565196Y-15995695D01*
X185959631Y-15390130D01*
X185917229Y-15326671D01*
X185684102Y-15170900D01*
X197199704Y-15170900D01*
X197183466Y-15187138D01*
X196965000Y-15714561D01*
X196965000Y-16285439D01*
X197183466Y-16812862D01*
X197587138Y-17216534D01*
X198114561Y-17435000D01*
X198685439Y-17435000D01*
X198738302Y-17413103D01*
X200409671Y-19084473D01*
X200452071Y-19147929D01*
X200627280Y-19265000D01*
X159793045Y-19265000D01*
X159946965Y-18836777D01*
X159919778Y-18266546D01*
X159753864Y-17865995D01*
X159507745Y-17791861D01*
X158679605Y-18620000D01*
X158693748Y-18634142D01*
X158514142Y-18813748D01*
X158500000Y-18799605D01*
X158485858Y-18813748D01*
X158306252Y-18634142D01*
X158320395Y-18620000D01*
X157492255Y-17791861D01*
X157246136Y-17865995D01*
X157053035Y-18403223D01*
X157080222Y-18973454D01*
X157200985Y-19265000D01*
X154986065Y-19265000D01*
X155135000Y-18905439D01*
X155135000Y-18334561D01*
X155113103Y-18281698D01*
X155782546Y-17612255D01*
X157671861Y-17612255D01*
X158500000Y-18440395D01*
X159328139Y-17612255D01*
X159254005Y-17366136D01*
X158716777Y-17173035D01*
X158146546Y-17200222D01*
X157745995Y-17366136D01*
X157671861Y-17612255D01*
X155782546Y-17612255D01*
X156184473Y-17210329D01*
X156247929Y-17167929D01*
X156415904Y-16916537D01*
X156460000Y-16694852D01*
X156460000Y-16694848D01*
X156474888Y-16620001D01*
X156460000Y-16545154D01*
X156460000Y-11760000D01*
X157281957Y-11760000D01*
X157465423Y-12034577D01*
X157940091Y-12351740D01*
X158358667Y-12435000D01*
X158641333Y-12435000D01*
X159059909Y-12351740D01*
X159534577Y-12034577D01*
X159851740Y-11559909D01*
X159963113Y-11000000D01*
X159851740Y-10440091D01*
X159534577Y-9965423D01*
X159059909Y-9648260D01*
X158641333Y-9565000D01*
X158358667Y-9565000D01*
X157940091Y-9648260D01*
X157465423Y-9965423D01*
X157281957Y-10240000D01*
X156656210Y-10240000D01*
X156712862Y-10216534D01*
X157116534Y-9812862D01*
X157335000Y-9285439D01*
X157335000Y-8714561D01*
X157116534Y-8187138D01*
X156712862Y-7783466D01*
X156481421Y-7687600D01*
X156905499Y-7687600D01*
X157571870Y-8353972D01*
G36*
X111075226Y-789671D02*
X111075224Y-789673D01*
X111011771Y-832071D01*
X110969373Y-895524D01*
X108133145Y-3731753D01*
X108203113Y-3380000D01*
X108091740Y-2820091D01*
X107774577Y-2345423D01*
X107299909Y-2028260D01*
X106881333Y-1945000D01*
X106598667Y-1945000D01*
X106180091Y-2028260D01*
X105705423Y-2345423D01*
X105519214Y-2624104D01*
X105432333Y-2641386D01*
X105234577Y-2345423D01*
X104759909Y-2028260D01*
X104341333Y-1945000D01*
X104058667Y-1945000D01*
X103640091Y-2028260D01*
X103165423Y-2345423D01*
X102930000Y-2697758D01*
X102694577Y-2345423D01*
X102219909Y-2028260D01*
X101801333Y-1945000D01*
X101518667Y-1945000D01*
X101100091Y-2028260D01*
X100625423Y-2345423D01*
X100390000Y-2697758D01*
X100154577Y-2345423D01*
X99679909Y-2028260D01*
X99261333Y-1945000D01*
X98978667Y-1945000D01*
X98560091Y-2028260D01*
X98085423Y-2345423D01*
X97899214Y-2624104D01*
X97789670Y-2645894D01*
X97732389Y-2524866D01*
X97317423Y-2148959D01*
X96929039Y-1988096D01*
X96707000Y-2110085D01*
X96707000Y-3253000D01*
X96727000Y-3253000D01*
X96727000Y-3507000D01*
X96707000Y-3507000D01*
X96707000Y-3527000D01*
X96453000Y-3527000D01*
X96453000Y-3507000D01*
X96433000Y-3507000D01*
X96433000Y-3253000D01*
X96453000Y-3253000D01*
X96453000Y-2110085D01*
X96230961Y-1988096D01*
X95842577Y-2148959D01*
X95427611Y-2524866D01*
X95330947Y-2729108D01*
X95074577Y-2345423D01*
X94599909Y-2028260D01*
X94181333Y-1945000D01*
X93898667Y-1945000D01*
X93480091Y-2028260D01*
X93005423Y-2345423D01*
X92821957Y-2620000D01*
X92718043Y-2620000D01*
X92534577Y-2345423D01*
X92059909Y-2028260D01*
X91641333Y-1945000D01*
X91358667Y-1945000D01*
X90940091Y-2028260D01*
X90465423Y-2345423D01*
X90148260Y-2820091D01*
X90036887Y-3380000D01*
X90109550Y-3745300D01*
X71569548Y-3745300D01*
X71494700Y-3730412D01*
X71419852Y-3745300D01*
X71419848Y-3745300D01*
X71198163Y-3789396D01*
X70946771Y-3957371D01*
X70904371Y-4020827D01*
X69338302Y-5586897D01*
X69285439Y-5565000D01*
X68714561Y-5565000D01*
X68187138Y-5783466D01*
X67783466Y-6187138D01*
X67761570Y-6240000D01*
X65314802Y-6240000D01*
X64235000Y-5160199D01*
X64235000Y-4754343D01*
X64046982Y-4300429D01*
X63699571Y-3953018D01*
X63245657Y-3765000D01*
X62754343Y-3765000D01*
X62300429Y-3953018D01*
X62160241Y-4093206D01*
X62138327Y-4040301D01*
X61959698Y-3861673D01*
X61726309Y-3765000D01*
X61285750Y-3765000D01*
X61127000Y-3923750D01*
X61127000Y-4873000D01*
X61147000Y-4873000D01*
X61147000Y-5127000D01*
X61127000Y-5127000D01*
X61127000Y-6076250D01*
X61285750Y-6235000D01*
X61726309Y-6235000D01*
X61959698Y-6138327D01*
X62138327Y-5959699D01*
X62160241Y-5906794D01*
X62300429Y-6046982D01*
X62754343Y-6235000D01*
X63160199Y-6235000D01*
X64409671Y-7484473D01*
X64452071Y-7547929D01*
X64703463Y-7715904D01*
X64925148Y-7760000D01*
X64925152Y-7760000D01*
X64999999Y-7774888D01*
X65074846Y-7760000D01*
X67761570Y-7760000D01*
X67783466Y-7812862D01*
X67841804Y-7871200D01*
X62249603Y-7871200D01*
X60613402Y-6235000D01*
X60714250Y-6235000D01*
X60873000Y-6076250D01*
X60873000Y-5127000D01*
X59923750Y-5127000D01*
X59765000Y-5285750D01*
X59765000Y-5386598D01*
X58652092Y-4273690D01*
X59765000Y-4273690D01*
X59765000Y-4714250D01*
X59923750Y-4873000D01*
X60873000Y-4873000D01*
X60873000Y-3923750D01*
X60714250Y-3765000D01*
X60273691Y-3765000D01*
X60040302Y-3861673D01*
X59861673Y-4040301D01*
X59765000Y-4273690D01*
X58652092Y-4273690D01*
X57708231Y-3329830D01*
X57665829Y-3266371D01*
X57414437Y-3098396D01*
X57192752Y-3054300D01*
X57192747Y-3054300D01*
X57117900Y-3039412D01*
X57043053Y-3054300D01*
X51505648Y-3054300D01*
X51430800Y-3039412D01*
X51355952Y-3054300D01*
X51355948Y-3054300D01*
X51182405Y-3088820D01*
X51134262Y-3098396D01*
X51008801Y-3182227D01*
X50882871Y-3266371D01*
X50840471Y-3329827D01*
X50288730Y-3881569D01*
X50225271Y-3923971D01*
X50057296Y-4175364D01*
X50013200Y-4397049D01*
X50013200Y-4397053D01*
X49998312Y-4471900D01*
X50013200Y-4546747D01*
X50013201Y-13069348D01*
X49998312Y-13144200D01*
X50013201Y-13219052D01*
X50026088Y-13283837D01*
X50057297Y-13440737D01*
X50177392Y-13620471D01*
X50225272Y-13692129D01*
X50288727Y-13734529D01*
X50790920Y-14236723D01*
X50561161Y-14580582D01*
X50445908Y-15160000D01*
X50561161Y-15739418D01*
X50561550Y-15740000D01*
X47238430Y-15740000D01*
X47216534Y-15687138D01*
X46812862Y-15283466D01*
X46285439Y-15065000D01*
X45714561Y-15065000D01*
X45187138Y-15283466D01*
X44783466Y-15687138D01*
X44565000Y-16214561D01*
X44565000Y-16785439D01*
X44783466Y-17312862D01*
X45187138Y-17716534D01*
X45714561Y-17935000D01*
X46285439Y-17935000D01*
X46812862Y-17716534D01*
X47216534Y-17312862D01*
X47238430Y-17260000D01*
X58499853Y-17260000D01*
X58574700Y-17274888D01*
X58649547Y-17260000D01*
X58649552Y-17260000D01*
X58871237Y-17215904D01*
X59122629Y-17047929D01*
X59165031Y-16984470D01*
X60031811Y-16117691D01*
X60152235Y-16198157D01*
X60400000Y-16247440D01*
X61600000Y-16247440D01*
X61847765Y-16198157D01*
X62057809Y-16057809D01*
X62147030Y-15924282D01*
X62201178Y-15978430D01*
X62316871Y-15862737D01*
X62366383Y-16088164D01*
X62831036Y-16247807D01*
X63321413Y-16217482D01*
X63633617Y-16088164D01*
X63683130Y-15862735D01*
X63000000Y-15179605D01*
X62985858Y-15193748D01*
X62806253Y-15014143D01*
X62820395Y-15000000D01*
X63179605Y-15000000D01*
X63862735Y-15683130D01*
X64088164Y-15633617D01*
X64247807Y-15168964D01*
X64217482Y-14678587D01*
X64088164Y-14366383D01*
X63862735Y-14316870D01*
X63179605Y-15000000D01*
X62820395Y-15000000D01*
X62806253Y-14985858D01*
X62985858Y-14806253D01*
X63000000Y-14820395D01*
X63683130Y-14137265D01*
X63668760Y-14071841D01*
X63980602Y-13760000D01*
X67761570Y-13760000D01*
X67783466Y-13812862D01*
X68187138Y-14216534D01*
X68714561Y-14435000D01*
X69285439Y-14435000D01*
X69812862Y-14216534D01*
X70021651Y-14007745D01*
X73171861Y-14007745D01*
X73245995Y-14253864D01*
X73783223Y-14446965D01*
X74353454Y-14419778D01*
X74754005Y-14253864D01*
X74828139Y-14007745D01*
X74000000Y-13179605D01*
X73171861Y-14007745D01*
X70021651Y-14007745D01*
X70216534Y-13812862D01*
X70435000Y-13285439D01*
X70435000Y-12714561D01*
X70400636Y-12631600D01*
X72607534Y-12631600D01*
X72553035Y-12783223D01*
X72580222Y-13353454D01*
X72746136Y-13754005D01*
X72992255Y-13828139D01*
X73820395Y-13000000D01*
X73806253Y-12985858D01*
X73985858Y-12806253D01*
X74000000Y-12820395D01*
X74014143Y-12806253D01*
X74193748Y-12985858D01*
X74179605Y-13000000D01*
X75007745Y-13828139D01*
X75253864Y-13754005D01*
X75314343Y-13585745D01*
X80371571Y-18642973D01*
X80413971Y-18706429D01*
X80665363Y-18874404D01*
X80887048Y-18918500D01*
X80887052Y-18918500D01*
X80961899Y-18933388D01*
X81036746Y-18918500D01*
X137870410Y-18918500D01*
X138013935Y-19265000D01*
X735000Y-19265000D01*
X735000Y-16500000D01*
X36916887Y-16500000D01*
X37028260Y-17059909D01*
X37345423Y-17534577D01*
X37820091Y-17851740D01*
X38238667Y-17935000D01*
X38521333Y-17935000D01*
X38939909Y-17851740D01*
X39414577Y-17534577D01*
X39731740Y-17059909D01*
X39843113Y-16500000D01*
X39731740Y-15940091D01*
X39414577Y-15465423D01*
X38939909Y-15148260D01*
X38521333Y-15065000D01*
X38238667Y-15065000D01*
X37820091Y-15148260D01*
X37345423Y-15465423D01*
X37028260Y-15940091D01*
X36916887Y-16500000D01*
X735000Y-16500000D01*
X735000Y-10276890D01*
X24808524Y-10276890D01*
X24978355Y-10686924D01*
X25368642Y-11115183D01*
X25527954Y-11190000D01*
X25368642Y-11264817D01*
X24978355Y-11693076D01*
X24808524Y-12103110D01*
X24929845Y-12333000D01*
X26123000Y-12333000D01*
X26123000Y-10047000D01*
X26377000Y-10047000D01*
X26377000Y-12333000D01*
X28663000Y-12333000D01*
X28663000Y-10047000D01*
X28917000Y-10047000D01*
X28917000Y-12333000D01*
X30110155Y-12333000D01*
X30231476Y-12103110D01*
X30061645Y-11693076D01*
X29671358Y-11264817D01*
X29512046Y-11190000D01*
X29671358Y-11115183D01*
X30061645Y-10686924D01*
X30231476Y-10276890D01*
X30110155Y-10047000D01*
X28917000Y-10047000D01*
X28663000Y-10047000D01*
X26377000Y-10047000D01*
X26123000Y-10047000D01*
X24929845Y-10047000D01*
X24808524Y-10276890D01*
X735000Y-10276890D01*
X735000Y-7736890D01*
X24808524Y-7736890D01*
X24978355Y-8146924D01*
X25368642Y-8575183D01*
X25527954Y-8650000D01*
X25368642Y-8724817D01*
X24978355Y-9153076D01*
X24808524Y-9563110D01*
X24929845Y-9793000D01*
X26123000Y-9793000D01*
X26123000Y-7507000D01*
X26377000Y-7507000D01*
X26377000Y-9793000D01*
X28663000Y-9793000D01*
X28663000Y-7507000D01*
X26377000Y-7507000D01*
X26123000Y-7507000D01*
X24929845Y-7507000D01*
X24808524Y-7736890D01*
X735000Y-7736890D01*
X735000Y-4840000D01*
X24735908Y-4840000D01*
X24851161Y-5419418D01*
X25179375Y-5910625D01*
X25498478Y-6123843D01*
X25368642Y-6184817D01*
X24978355Y-6613076D01*
X24808524Y-7023110D01*
X24929845Y-7253000D01*
X26123000Y-7253000D01*
X26123000Y-7233000D01*
X26377000Y-7233000D01*
X26377000Y-7253000D01*
X28663000Y-7253000D01*
X28663000Y-7233000D01*
X28917000Y-7233000D01*
X28917000Y-7253000D01*
X28937000Y-7253000D01*
X28937000Y-7507000D01*
X28917000Y-7507000D01*
X28917000Y-9793000D01*
X30110155Y-9793000D01*
X30231476Y-9563110D01*
X30061645Y-9153076D01*
X29671358Y-8724817D01*
X29512046Y-8650000D01*
X29671358Y-8575183D01*
X30061645Y-8146924D01*
X30086592Y-8086693D01*
X34484371Y-12484473D01*
X34526771Y-12547929D01*
X34752560Y-12698797D01*
X34752560Y-13100000D01*
X34801843Y-13347765D01*
X34942191Y-13557809D01*
X35152235Y-13698157D01*
X35400000Y-13747440D01*
X36413359Y-13747440D01*
X35920799Y-14240000D01*
X30068178Y-14240000D01*
X29860625Y-13929375D01*
X29541522Y-13716157D01*
X29671358Y-13655183D01*
X30061645Y-13226924D01*
X30231476Y-12816890D01*
X30110155Y-12587000D01*
X28917000Y-12587000D01*
X28917000Y-12607000D01*
X28663000Y-12607000D01*
X28663000Y-12587000D01*
X26377000Y-12587000D01*
X26377000Y-12607000D01*
X26123000Y-12607000D01*
X26123000Y-12587000D01*
X24929845Y-12587000D01*
X24808524Y-12816890D01*
X24978355Y-13226924D01*
X25255708Y-13531261D01*
X25152235Y-13551843D01*
X24942191Y-13692191D01*
X24801843Y-13902235D01*
X24752560Y-14150000D01*
X24752560Y-15850000D01*
X24801843Y-16097765D01*
X24942191Y-16307809D01*
X25152235Y-16448157D01*
X25400000Y-16497440D01*
X27100000Y-16497440D01*
X27347765Y-16448157D01*
X27557809Y-16307809D01*
X27698157Y-16097765D01*
X27707184Y-16052381D01*
X27719375Y-16070625D01*
X28210582Y-16398839D01*
X28643744Y-16485000D01*
X28936256Y-16485000D01*
X29369418Y-16398839D01*
X29860625Y-16070625D01*
X30068178Y-15760000D01*
X36160753Y-15760000D01*
X36235600Y-15774888D01*
X36310447Y-15760000D01*
X36310452Y-15760000D01*
X36532137Y-15715904D01*
X36783529Y-15547929D01*
X36825931Y-15484470D01*
X38409873Y-13900529D01*
X38473329Y-13858129D01*
X38641304Y-13606737D01*
X38685400Y-13385052D01*
X38685400Y-13385048D01*
X38700288Y-13310201D01*
X38685400Y-13235354D01*
X38685400Y-12396122D01*
X44970825Y-12396122D01*
X45185466Y-12914332D01*
X45647608Y-13409012D01*
X46263877Y-13689183D01*
X46533000Y-13571604D01*
X46533000Y-12127000D01*
X46787000Y-12127000D01*
X46787000Y-13571604D01*
X47056123Y-13689183D01*
X47672392Y-13409012D01*
X48134534Y-12914332D01*
X48349175Y-12396122D01*
X48231125Y-12127000D01*
X46787000Y-12127000D01*
X46533000Y-12127000D01*
X45088875Y-12127000D01*
X44970825Y-12396122D01*
X38685400Y-12396122D01*
X38685400Y-11603878D01*
X44970825Y-11603878D01*
X45088875Y-11873000D01*
X46533000Y-11873000D01*
X46533000Y-10428396D01*
X46787000Y-10428396D01*
X46787000Y-11873000D01*
X48231125Y-11873000D01*
X48349175Y-11603878D01*
X48134534Y-11085668D01*
X47672392Y-10590988D01*
X47056123Y-10310817D01*
X46787000Y-10428396D01*
X46533000Y-10428396D01*
X46263877Y-10310817D01*
X45647608Y-10590988D01*
X45185466Y-11085668D01*
X44970825Y-11603878D01*
X38685400Y-11603878D01*
X38685400Y-10828946D01*
X38700288Y-10754099D01*
X38685400Y-10679252D01*
X38685400Y-10679248D01*
X38641304Y-10457563D01*
X38573490Y-10356072D01*
X38515729Y-10269626D01*
X38515727Y-10269624D01*
X38473329Y-10206171D01*
X38409876Y-10163773D01*
X37481102Y-9235000D01*
X37726309Y-9235000D01*
X37959698Y-9138327D01*
X38138327Y-8959699D01*
X38235000Y-8726310D01*
X38235000Y-7785750D01*
X38076250Y-7627000D01*
X36627000Y-7627000D01*
X36627000Y-7647000D01*
X36373000Y-7647000D01*
X36373000Y-7627000D01*
X36353000Y-7627000D01*
X36353000Y-7373000D01*
X36373000Y-7373000D01*
X36373000Y-5923750D01*
X36627000Y-5923750D01*
X36627000Y-7373000D01*
X38076250Y-7373000D01*
X38235000Y-7214250D01*
X38235000Y-6273690D01*
X38138327Y-6040301D01*
X37959698Y-5861673D01*
X37726309Y-5765000D01*
X36785750Y-5765000D01*
X36627000Y-5923750D01*
X36373000Y-5923750D01*
X36214250Y-5765000D01*
X36064501Y-5765000D01*
X37325196Y-4504306D01*
X37345423Y-4534577D01*
X37820091Y-4851740D01*
X38238667Y-4935000D01*
X38521333Y-4935000D01*
X38939909Y-4851740D01*
X39414577Y-4534577D01*
X39434804Y-4504305D01*
X42914971Y-7984473D01*
X42957371Y-8047929D01*
X43208763Y-8215904D01*
X43430448Y-8260000D01*
X43430452Y-8260000D01*
X43505299Y-8274888D01*
X43580146Y-8260000D01*
X45081150Y-8260000D01*
X45409135Y-8750865D01*
X45983037Y-9134334D01*
X46489120Y-9235000D01*
X46830880Y-9235000D01*
X47336963Y-9134334D01*
X47910865Y-8750865D01*
X48294334Y-8176963D01*
X48428990Y-7500000D01*
X48294334Y-6823037D01*
X47910865Y-6249135D01*
X47336963Y-5865666D01*
X46830880Y-5765000D01*
X46489120Y-5765000D01*
X45983037Y-5865666D01*
X45409135Y-6249135D01*
X45081150Y-6740000D01*
X43820102Y-6740000D01*
X40294663Y-3214561D01*
X44565000Y-3214561D01*
X44565000Y-3785439D01*
X44783466Y-4312862D01*
X45187138Y-4716534D01*
X45714561Y-4935000D01*
X46285439Y-4935000D01*
X46812862Y-4716534D01*
X47216534Y-4312862D01*
X47435000Y-3785439D01*
X47435000Y-3214561D01*
X47216534Y-2687138D01*
X46812862Y-2283466D01*
X46285439Y-2065000D01*
X45714561Y-2065000D01*
X45187138Y-2283466D01*
X44783466Y-2687138D01*
X44565000Y-3214561D01*
X40294663Y-3214561D01*
X40095631Y-3015530D01*
X40053229Y-2952071D01*
X39801837Y-2784096D01*
X39600786Y-2744104D01*
X39414577Y-2465423D01*
X38939909Y-2148260D01*
X38521333Y-2065000D01*
X38238667Y-2065000D01*
X37820091Y-2148260D01*
X37345423Y-2465423D01*
X37159214Y-2744104D01*
X36958163Y-2784096D01*
X36706771Y-2952071D01*
X36664371Y-3015527D01*
X34590130Y-5089769D01*
X34526671Y-5132171D01*
X34358696Y-5383564D01*
X34314600Y-5605249D01*
X34314600Y-5605253D01*
X34299712Y-5680100D01*
X34314600Y-5754947D01*
X34314601Y-8659848D01*
X34299712Y-8734700D01*
X34358697Y-9031237D01*
X34458808Y-9181063D01*
X34526672Y-9282629D01*
X34590128Y-9325029D01*
X34674969Y-9409870D01*
X34717371Y-9473329D01*
X34968763Y-9641304D01*
X35190448Y-9685400D01*
X35190452Y-9685400D01*
X35265300Y-9700288D01*
X35340148Y-9685400D01*
X35781899Y-9685400D01*
X36349058Y-10252560D01*
X35400000Y-10252560D01*
X35152235Y-10301843D01*
X34942191Y-10442191D01*
X34801843Y-10652235D01*
X34801825Y-10652324D01*
X29940534Y-5791033D01*
X30188839Y-5419418D01*
X30304092Y-4840000D01*
X30188839Y-4260582D01*
X29860625Y-3769375D01*
X29369418Y-3441161D01*
X28936256Y-3355000D01*
X28643744Y-3355000D01*
X28210582Y-3441161D01*
X27719375Y-3769375D01*
X27520000Y-4067761D01*
X27320625Y-3769375D01*
X26829418Y-3441161D01*
X26396256Y-3355000D01*
X26103744Y-3355000D01*
X25670582Y-3441161D01*
X25179375Y-3769375D01*
X24851161Y-4260582D01*
X24735908Y-4840000D01*
X735000Y-4840000D01*
X735000Y-1650000D01*
X2502560Y-1650000D01*
X2502560Y-3350000D01*
X2551843Y-3597765D01*
X2692191Y-3807809D01*
X2902235Y-3948157D01*
X3150000Y-3997440D01*
X4850000Y-3997440D01*
X5097765Y-3948157D01*
X5307809Y-3807809D01*
X5448157Y-3597765D01*
X5457184Y-3552381D01*
X5469375Y-3570625D01*
X5960582Y-3898839D01*
X6393744Y-3985000D01*
X6686256Y-3985000D01*
X7119418Y-3898839D01*
X7610625Y-3570625D01*
X7823843Y-3251522D01*
X7884817Y-3381358D01*
X8313076Y-3771645D01*
X8723110Y-3941476D01*
X8953000Y-3820155D01*
X8953000Y-2627000D01*
X9207000Y-2627000D01*
X9207000Y-3820155D01*
X9436890Y-3941476D01*
X9846924Y-3771645D01*
X10275183Y-3381358D01*
X10521486Y-2856892D01*
X10400819Y-2627000D01*
X9207000Y-2627000D01*
X8953000Y-2627000D01*
X8933000Y-2627000D01*
X8933000Y-2373000D01*
X8953000Y-2373000D01*
X8953000Y-1179845D01*
X9207000Y-1179845D01*
X9207000Y-2373000D01*
X10400819Y-2373000D01*
X10521486Y-2143108D01*
X10289910Y-1650000D01*
X15502560Y-1650000D01*
X15502560Y-3350000D01*
X15551843Y-3597765D01*
X15692191Y-3807809D01*
X15902235Y-3948157D01*
X16150000Y-3997440D01*
X17850000Y-3997440D01*
X18097765Y-3948157D01*
X18307809Y-3807809D01*
X18448157Y-3597765D01*
X18457184Y-3552381D01*
X18469375Y-3570625D01*
X18960582Y-3898839D01*
X19393744Y-3985000D01*
X19686256Y-3985000D01*
X20119418Y-3898839D01*
X20610625Y-3570625D01*
X20823843Y-3251522D01*
X20884817Y-3381358D01*
X21313076Y-3771645D01*
X21723110Y-3941476D01*
X21953000Y-3820155D01*
X21953000Y-2627000D01*
X22207000Y-2627000D01*
X22207000Y-3820155D01*
X22436890Y-3941476D01*
X22846924Y-3771645D01*
X23275183Y-3381358D01*
X23521486Y-2856892D01*
X23400819Y-2627000D01*
X22207000Y-2627000D01*
X21953000Y-2627000D01*
X21933000Y-2627000D01*
X21933000Y-2373000D01*
X21953000Y-2373000D01*
X21953000Y-1179845D01*
X22207000Y-1179845D01*
X22207000Y-2373000D01*
X23400819Y-2373000D01*
X23521486Y-2143108D01*
X23275183Y-1618642D01*
X22846924Y-1228355D01*
X22436890Y-1058524D01*
X22207000Y-1179845D01*
X21953000Y-1179845D01*
X21723110Y-1058524D01*
X21313076Y-1228355D01*
X20884817Y-1618642D01*
X20823843Y-1748478D01*
X20610625Y-1429375D01*
X20119418Y-1101161D01*
X19686256Y-1015000D01*
X19393744Y-1015000D01*
X18960582Y-1101161D01*
X18469375Y-1429375D01*
X18457184Y-1447619D01*
X18448157Y-1402235D01*
X18307809Y-1192191D01*
X18097765Y-1051843D01*
X17850000Y-1002560D01*
X16150000Y-1002560D01*
X15902235Y-1051843D01*
X15692191Y-1192191D01*
X15551843Y-1402235D01*
X15502560Y-1650000D01*
X10289910Y-1650000D01*
X10275183Y-1618642D01*
X9846924Y-1228355D01*
X9436890Y-1058524D01*
X9207000Y-1179845D01*
X8953000Y-1179845D01*
X8723110Y-1058524D01*
X8313076Y-1228355D01*
X7884817Y-1618642D01*
X7823843Y-1748478D01*
X7610625Y-1429375D01*
X7119418Y-1101161D01*
X6686256Y-1015000D01*
X6393744Y-1015000D01*
X5960582Y-1101161D01*
X5469375Y-1429375D01*
X5457184Y-1447619D01*
X5448157Y-1402235D01*
X5307809Y-1192191D01*
X5097765Y-1051843D01*
X4850000Y-1002560D01*
X3150000Y-1002560D01*
X2902235Y-1051843D01*
X2692191Y-1192191D01*
X2551843Y-1402235D01*
X2502560Y-1650000D01*
X735000Y-1650000D01*
X735000Y-735000D01*
X111157047Y-735000D01*
X111075226Y-789671D01*
X111075226Y-789671D01*
G37*
X111075226Y-789671D02*
X111075224Y-789673D01*
X111011771Y-832071D01*
X110969373Y-895524D01*
X108133145Y-3731753D01*
X108203113Y-3380000D01*
X108091740Y-2820091D01*
X107774577Y-2345423D01*
X107299909Y-2028260D01*
X106881333Y-1945000D01*
X106598667Y-1945000D01*
X106180091Y-2028260D01*
X105705423Y-2345423D01*
X105519214Y-2624104D01*
X105432333Y-2641386D01*
X105234577Y-2345423D01*
X104759909Y-2028260D01*
X104341333Y-1945000D01*
X104058667Y-1945000D01*
X103640091Y-2028260D01*
X103165423Y-2345423D01*
X102930000Y-2697758D01*
X102694577Y-2345423D01*
X102219909Y-2028260D01*
X101801333Y-1945000D01*
X101518667Y-1945000D01*
X101100091Y-2028260D01*
X100625423Y-2345423D01*
X100390000Y-2697758D01*
X100154577Y-2345423D01*
X99679909Y-2028260D01*
X99261333Y-1945000D01*
X98978667Y-1945000D01*
X98560091Y-2028260D01*
X98085423Y-2345423D01*
X97899214Y-2624104D01*
X97789670Y-2645894D01*
X97732389Y-2524866D01*
X97317423Y-2148959D01*
X96929039Y-1988096D01*
X96707000Y-2110085D01*
X96707000Y-3253000D01*
X96727000Y-3253000D01*
X96727000Y-3507000D01*
X96707000Y-3507000D01*
X96707000Y-3527000D01*
X96453000Y-3527000D01*
X96453000Y-3507000D01*
X96433000Y-3507000D01*
X96433000Y-3253000D01*
X96453000Y-3253000D01*
X96453000Y-2110085D01*
X96230961Y-1988096D01*
X95842577Y-2148959D01*
X95427611Y-2524866D01*
X95330947Y-2729108D01*
X95074577Y-2345423D01*
X94599909Y-2028260D01*
X94181333Y-1945000D01*
X93898667Y-1945000D01*
X93480091Y-2028260D01*
X93005423Y-2345423D01*
X92821957Y-2620000D01*
X92718043Y-2620000D01*
X92534577Y-2345423D01*
X92059909Y-2028260D01*
X91641333Y-1945000D01*
X91358667Y-1945000D01*
X90940091Y-2028260D01*
X90465423Y-2345423D01*
X90148260Y-2820091D01*
X90036887Y-3380000D01*
X90109550Y-3745300D01*
X71569548Y-3745300D01*
X71494700Y-3730412D01*
X71419852Y-3745300D01*
X71419848Y-3745300D01*
X71198163Y-3789396D01*
X70946771Y-3957371D01*
X70904371Y-4020827D01*
X69338302Y-5586897D01*
X69285439Y-5565000D01*
X68714561Y-5565000D01*
X68187138Y-5783466D01*
X67783466Y-6187138D01*
X67761570Y-6240000D01*
X65314802Y-6240000D01*
X64235000Y-5160199D01*
X64235000Y-4754343D01*
X64046982Y-4300429D01*
X63699571Y-3953018D01*
X63245657Y-3765000D01*
X62754343Y-3765000D01*
X62300429Y-3953018D01*
X62160241Y-4093206D01*
X62138327Y-4040301D01*
X61959698Y-3861673D01*
X61726309Y-3765000D01*
X61285750Y-3765000D01*
X61127000Y-3923750D01*
X61127000Y-4873000D01*
X61147000Y-4873000D01*
X61147000Y-5127000D01*
X61127000Y-5127000D01*
X61127000Y-6076250D01*
X61285750Y-6235000D01*
X61726309Y-6235000D01*
X61959698Y-6138327D01*
X62138327Y-5959699D01*
X62160241Y-5906794D01*
X62300429Y-6046982D01*
X62754343Y-6235000D01*
X63160199Y-6235000D01*
X64409671Y-7484473D01*
X64452071Y-7547929D01*
X64703463Y-7715904D01*
X64925148Y-7760000D01*
X64925152Y-7760000D01*
X64999999Y-7774888D01*
X65074846Y-7760000D01*
X67761570Y-7760000D01*
X67783466Y-7812862D01*
X67841804Y-7871200D01*
X62249603Y-7871200D01*
X60613402Y-6235000D01*
X60714250Y-6235000D01*
X60873000Y-6076250D01*
X60873000Y-5127000D01*
X59923750Y-5127000D01*
X59765000Y-5285750D01*
X59765000Y-5386598D01*
X58652092Y-4273690D01*
X59765000Y-4273690D01*
X59765000Y-4714250D01*
X59923750Y-4873000D01*
X60873000Y-4873000D01*
X60873000Y-3923750D01*
X60714250Y-3765000D01*
X60273691Y-3765000D01*
X60040302Y-3861673D01*
X59861673Y-4040301D01*
X59765000Y-4273690D01*
X58652092Y-4273690D01*
X57708231Y-3329830D01*
X57665829Y-3266371D01*
X57414437Y-3098396D01*
X57192752Y-3054300D01*
X57192747Y-3054300D01*
X57117900Y-3039412D01*
X57043053Y-3054300D01*
X51505648Y-3054300D01*
X51430800Y-3039412D01*
X51355952Y-3054300D01*
X51355948Y-3054300D01*
X51182405Y-3088820D01*
X51134262Y-3098396D01*
X51008801Y-3182227D01*
X50882871Y-3266371D01*
X50840471Y-3329827D01*
X50288730Y-3881569D01*
X50225271Y-3923971D01*
X50057296Y-4175364D01*
X50013200Y-4397049D01*
X50013200Y-4397053D01*
X49998312Y-4471900D01*
X50013200Y-4546747D01*
X50013201Y-13069348D01*
X49998312Y-13144200D01*
X50013201Y-13219052D01*
X50026088Y-13283837D01*
X50057297Y-13440737D01*
X50177392Y-13620471D01*
X50225272Y-13692129D01*
X50288727Y-13734529D01*
X50790920Y-14236723D01*
X50561161Y-14580582D01*
X50445908Y-15160000D01*
X50561161Y-15739418D01*
X50561550Y-15740000D01*
X47238430Y-15740000D01*
X47216534Y-15687138D01*
X46812862Y-15283466D01*
X46285439Y-15065000D01*
X45714561Y-15065000D01*
X45187138Y-15283466D01*
X44783466Y-15687138D01*
X44565000Y-16214561D01*
X44565000Y-16785439D01*
X44783466Y-17312862D01*
X45187138Y-17716534D01*
X45714561Y-17935000D01*
X46285439Y-17935000D01*
X46812862Y-17716534D01*
X47216534Y-17312862D01*
X47238430Y-17260000D01*
X58499853Y-17260000D01*
X58574700Y-17274888D01*
X58649547Y-17260000D01*
X58649552Y-17260000D01*
X58871237Y-17215904D01*
X59122629Y-17047929D01*
X59165031Y-16984470D01*
X60031811Y-16117691D01*
X60152235Y-16198157D01*
X60400000Y-16247440D01*
X61600000Y-16247440D01*
X61847765Y-16198157D01*
X62057809Y-16057809D01*
X62147030Y-15924282D01*
X62201178Y-15978430D01*
X62316871Y-15862737D01*
X62366383Y-16088164D01*
X62831036Y-16247807D01*
X63321413Y-16217482D01*
X63633617Y-16088164D01*
X63683130Y-15862735D01*
X63000000Y-15179605D01*
X62985858Y-15193748D01*
X62806253Y-15014143D01*
X62820395Y-15000000D01*
X63179605Y-15000000D01*
X63862735Y-15683130D01*
X64088164Y-15633617D01*
X64247807Y-15168964D01*
X64217482Y-14678587D01*
X64088164Y-14366383D01*
X63862735Y-14316870D01*
X63179605Y-15000000D01*
X62820395Y-15000000D01*
X62806253Y-14985858D01*
X62985858Y-14806253D01*
X63000000Y-14820395D01*
X63683130Y-14137265D01*
X63668760Y-14071841D01*
X63980602Y-13760000D01*
X67761570Y-13760000D01*
X67783466Y-13812862D01*
X68187138Y-14216534D01*
X68714561Y-14435000D01*
X69285439Y-14435000D01*
X69812862Y-14216534D01*
X70021651Y-14007745D01*
X73171861Y-14007745D01*
X73245995Y-14253864D01*
X73783223Y-14446965D01*
X74353454Y-14419778D01*
X74754005Y-14253864D01*
X74828139Y-14007745D01*
X74000000Y-13179605D01*
X73171861Y-14007745D01*
X70021651Y-14007745D01*
X70216534Y-13812862D01*
X70435000Y-13285439D01*
X70435000Y-12714561D01*
X70400636Y-12631600D01*
X72607534Y-12631600D01*
X72553035Y-12783223D01*
X72580222Y-13353454D01*
X72746136Y-13754005D01*
X72992255Y-13828139D01*
X73820395Y-13000000D01*
X73806253Y-12985858D01*
X73985858Y-12806253D01*
X74000000Y-12820395D01*
X74014143Y-12806253D01*
X74193748Y-12985858D01*
X74179605Y-13000000D01*
X75007745Y-13828139D01*
X75253864Y-13754005D01*
X75314343Y-13585745D01*
X80371571Y-18642973D01*
X80413971Y-18706429D01*
X80665363Y-18874404D01*
X80887048Y-18918500D01*
X80887052Y-18918500D01*
X80961899Y-18933388D01*
X81036746Y-18918500D01*
X137870410Y-18918500D01*
X138013935Y-19265000D01*
X735000Y-19265000D01*
X735000Y-16500000D01*
X36916887Y-16500000D01*
X37028260Y-17059909D01*
X37345423Y-17534577D01*
X37820091Y-17851740D01*
X38238667Y-17935000D01*
X38521333Y-17935000D01*
X38939909Y-17851740D01*
X39414577Y-17534577D01*
X39731740Y-17059909D01*
X39843113Y-16500000D01*
X39731740Y-15940091D01*
X39414577Y-15465423D01*
X38939909Y-15148260D01*
X38521333Y-15065000D01*
X38238667Y-15065000D01*
X37820091Y-15148260D01*
X37345423Y-15465423D01*
X37028260Y-15940091D01*
X36916887Y-16500000D01*
X735000Y-16500000D01*
X735000Y-10276890D01*
X24808524Y-10276890D01*
X24978355Y-10686924D01*
X25368642Y-11115183D01*
X25527954Y-11190000D01*
X25368642Y-11264817D01*
X24978355Y-11693076D01*
X24808524Y-12103110D01*
X24929845Y-12333000D01*
X26123000Y-12333000D01*
X26123000Y-10047000D01*
X26377000Y-10047000D01*
X26377000Y-12333000D01*
X28663000Y-12333000D01*
X28663000Y-10047000D01*
X28917000Y-10047000D01*
X28917000Y-12333000D01*
X30110155Y-12333000D01*
X30231476Y-12103110D01*
X30061645Y-11693076D01*
X29671358Y-11264817D01*
X29512046Y-11190000D01*
X29671358Y-11115183D01*
X30061645Y-10686924D01*
X30231476Y-10276890D01*
X30110155Y-10047000D01*
X28917000Y-10047000D01*
X28663000Y-10047000D01*
X26377000Y-10047000D01*
X26123000Y-10047000D01*
X24929845Y-10047000D01*
X24808524Y-10276890D01*
X735000Y-10276890D01*
X735000Y-7736890D01*
X24808524Y-7736890D01*
X24978355Y-8146924D01*
X25368642Y-8575183D01*
X25527954Y-8650000D01*
X25368642Y-8724817D01*
X24978355Y-9153076D01*
X24808524Y-9563110D01*
X24929845Y-9793000D01*
X26123000Y-9793000D01*
X26123000Y-7507000D01*
X26377000Y-7507000D01*
X26377000Y-9793000D01*
X28663000Y-9793000D01*
X28663000Y-7507000D01*
X26377000Y-7507000D01*
X26123000Y-7507000D01*
X24929845Y-7507000D01*
X24808524Y-7736890D01*
X735000Y-7736890D01*
X735000Y-4840000D01*
X24735908Y-4840000D01*
X24851161Y-5419418D01*
X25179375Y-5910625D01*
X25498478Y-6123843D01*
X25368642Y-6184817D01*
X24978355Y-6613076D01*
X24808524Y-7023110D01*
X24929845Y-7253000D01*
X26123000Y-7253000D01*
X26123000Y-7233000D01*
X26377000Y-7233000D01*
X26377000Y-7253000D01*
X28663000Y-7253000D01*
X28663000Y-7233000D01*
X28917000Y-7233000D01*
X28917000Y-7253000D01*
X28937000Y-7253000D01*
X28937000Y-7507000D01*
X28917000Y-7507000D01*
X28917000Y-9793000D01*
X30110155Y-9793000D01*
X30231476Y-9563110D01*
X30061645Y-9153076D01*
X29671358Y-8724817D01*
X29512046Y-8650000D01*
X29671358Y-8575183D01*
X30061645Y-8146924D01*
X30086592Y-8086693D01*
X34484371Y-12484473D01*
X34526771Y-12547929D01*
X34752560Y-12698797D01*
X34752560Y-13100000D01*
X34801843Y-13347765D01*
X34942191Y-13557809D01*
X35152235Y-13698157D01*
X35400000Y-13747440D01*
X36413359Y-13747440D01*
X35920799Y-14240000D01*
X30068178Y-14240000D01*
X29860625Y-13929375D01*
X29541522Y-13716157D01*
X29671358Y-13655183D01*
X30061645Y-13226924D01*
X30231476Y-12816890D01*
X30110155Y-12587000D01*
X28917000Y-12587000D01*
X28917000Y-12607000D01*
X28663000Y-12607000D01*
X28663000Y-12587000D01*
X26377000Y-12587000D01*
X26377000Y-12607000D01*
X26123000Y-12607000D01*
X26123000Y-12587000D01*
X24929845Y-12587000D01*
X24808524Y-12816890D01*
X24978355Y-13226924D01*
X25255708Y-13531261D01*
X25152235Y-13551843D01*
X24942191Y-13692191D01*
X24801843Y-13902235D01*
X24752560Y-14150000D01*
X24752560Y-15850000D01*
X24801843Y-16097765D01*
X24942191Y-16307809D01*
X25152235Y-16448157D01*
X25400000Y-16497440D01*
X27100000Y-16497440D01*
X27347765Y-16448157D01*
X27557809Y-16307809D01*
X27698157Y-16097765D01*
X27707184Y-16052381D01*
X27719375Y-16070625D01*
X28210582Y-16398839D01*
X28643744Y-16485000D01*
X28936256Y-16485000D01*
X29369418Y-16398839D01*
X29860625Y-16070625D01*
X30068178Y-15760000D01*
X36160753Y-15760000D01*
X36235600Y-15774888D01*
X36310447Y-15760000D01*
X36310452Y-15760000D01*
X36532137Y-15715904D01*
X36783529Y-15547929D01*
X36825931Y-15484470D01*
X38409873Y-13900529D01*
X38473329Y-13858129D01*
X38641304Y-13606737D01*
X38685400Y-13385052D01*
X38685400Y-13385048D01*
X38700288Y-13310201D01*
X38685400Y-13235354D01*
X38685400Y-12396122D01*
X44970825Y-12396122D01*
X45185466Y-12914332D01*
X45647608Y-13409012D01*
X46263877Y-13689183D01*
X46533000Y-13571604D01*
X46533000Y-12127000D01*
X46787000Y-12127000D01*
X46787000Y-13571604D01*
X47056123Y-13689183D01*
X47672392Y-13409012D01*
X48134534Y-12914332D01*
X48349175Y-12396122D01*
X48231125Y-12127000D01*
X46787000Y-12127000D01*
X46533000Y-12127000D01*
X45088875Y-12127000D01*
X44970825Y-12396122D01*
X38685400Y-12396122D01*
X38685400Y-11603878D01*
X44970825Y-11603878D01*
X45088875Y-11873000D01*
X46533000Y-11873000D01*
X46533000Y-10428396D01*
X46787000Y-10428396D01*
X46787000Y-11873000D01*
X48231125Y-11873000D01*
X48349175Y-11603878D01*
X48134534Y-11085668D01*
X47672392Y-10590988D01*
X47056123Y-10310817D01*
X46787000Y-10428396D01*
X46533000Y-10428396D01*
X46263877Y-10310817D01*
X45647608Y-10590988D01*
X45185466Y-11085668D01*
X44970825Y-11603878D01*
X38685400Y-11603878D01*
X38685400Y-10828946D01*
X38700288Y-10754099D01*
X38685400Y-10679252D01*
X38685400Y-10679248D01*
X38641304Y-10457563D01*
X38573490Y-10356072D01*
X38515729Y-10269626D01*
X38515727Y-10269624D01*
X38473329Y-10206171D01*
X38409876Y-10163773D01*
X37481102Y-9235000D01*
X37726309Y-9235000D01*
X37959698Y-9138327D01*
X38138327Y-8959699D01*
X38235000Y-8726310D01*
X38235000Y-7785750D01*
X38076250Y-7627000D01*
X36627000Y-7627000D01*
X36627000Y-7647000D01*
X36373000Y-7647000D01*
X36373000Y-7627000D01*
X36353000Y-7627000D01*
X36353000Y-7373000D01*
X36373000Y-7373000D01*
X36373000Y-5923750D01*
X36627000Y-5923750D01*
X36627000Y-7373000D01*
X38076250Y-7373000D01*
X38235000Y-7214250D01*
X38235000Y-6273690D01*
X38138327Y-6040301D01*
X37959698Y-5861673D01*
X37726309Y-5765000D01*
X36785750Y-5765000D01*
X36627000Y-5923750D01*
X36373000Y-5923750D01*
X36214250Y-5765000D01*
X36064501Y-5765000D01*
X37325196Y-4504306D01*
X37345423Y-4534577D01*
X37820091Y-4851740D01*
X38238667Y-4935000D01*
X38521333Y-4935000D01*
X38939909Y-4851740D01*
X39414577Y-4534577D01*
X39434804Y-4504305D01*
X42914971Y-7984473D01*
X42957371Y-8047929D01*
X43208763Y-8215904D01*
X43430448Y-8260000D01*
X43430452Y-8260000D01*
X43505299Y-8274888D01*
X43580146Y-8260000D01*
X45081150Y-8260000D01*
X45409135Y-8750865D01*
X45983037Y-9134334D01*
X46489120Y-9235000D01*
X46830880Y-9235000D01*
X47336963Y-9134334D01*
X47910865Y-8750865D01*
X48294334Y-8176963D01*
X48428990Y-7500000D01*
X48294334Y-6823037D01*
X47910865Y-6249135D01*
X47336963Y-5865666D01*
X46830880Y-5765000D01*
X46489120Y-5765000D01*
X45983037Y-5865666D01*
X45409135Y-6249135D01*
X45081150Y-6740000D01*
X43820102Y-6740000D01*
X40294663Y-3214561D01*
X44565000Y-3214561D01*
X44565000Y-3785439D01*
X44783466Y-4312862D01*
X45187138Y-4716534D01*
X45714561Y-4935000D01*
X46285439Y-4935000D01*
X46812862Y-4716534D01*
X47216534Y-4312862D01*
X47435000Y-3785439D01*
X47435000Y-3214561D01*
X47216534Y-2687138D01*
X46812862Y-2283466D01*
X46285439Y-2065000D01*
X45714561Y-2065000D01*
X45187138Y-2283466D01*
X44783466Y-2687138D01*
X44565000Y-3214561D01*
X40294663Y-3214561D01*
X40095631Y-3015530D01*
X40053229Y-2952071D01*
X39801837Y-2784096D01*
X39600786Y-2744104D01*
X39414577Y-2465423D01*
X38939909Y-2148260D01*
X38521333Y-2065000D01*
X38238667Y-2065000D01*
X37820091Y-2148260D01*
X37345423Y-2465423D01*
X37159214Y-2744104D01*
X36958163Y-2784096D01*
X36706771Y-2952071D01*
X36664371Y-3015527D01*
X34590130Y-5089769D01*
X34526671Y-5132171D01*
X34358696Y-5383564D01*
X34314600Y-5605249D01*
X34314600Y-5605253D01*
X34299712Y-5680100D01*
X34314600Y-5754947D01*
X34314601Y-8659848D01*
X34299712Y-8734700D01*
X34358697Y-9031237D01*
X34458808Y-9181063D01*
X34526672Y-9282629D01*
X34590128Y-9325029D01*
X34674969Y-9409870D01*
X34717371Y-9473329D01*
X34968763Y-9641304D01*
X35190448Y-9685400D01*
X35190452Y-9685400D01*
X35265300Y-9700288D01*
X35340148Y-9685400D01*
X35781899Y-9685400D01*
X36349058Y-10252560D01*
X35400000Y-10252560D01*
X35152235Y-10301843D01*
X34942191Y-10442191D01*
X34801843Y-10652235D01*
X34801825Y-10652324D01*
X29940534Y-5791033D01*
X30188839Y-5419418D01*
X30304092Y-4840000D01*
X30188839Y-4260582D01*
X29860625Y-3769375D01*
X29369418Y-3441161D01*
X28936256Y-3355000D01*
X28643744Y-3355000D01*
X28210582Y-3441161D01*
X27719375Y-3769375D01*
X27520000Y-4067761D01*
X27320625Y-3769375D01*
X26829418Y-3441161D01*
X26396256Y-3355000D01*
X26103744Y-3355000D01*
X25670582Y-3441161D01*
X25179375Y-3769375D01*
X24851161Y-4260582D01*
X24735908Y-4840000D01*
X735000Y-4840000D01*
X735000Y-1650000D01*
X2502560Y-1650000D01*
X2502560Y-3350000D01*
X2551843Y-3597765D01*
X2692191Y-3807809D01*
X2902235Y-3948157D01*
X3150000Y-3997440D01*
X4850000Y-3997440D01*
X5097765Y-3948157D01*
X5307809Y-3807809D01*
X5448157Y-3597765D01*
X5457184Y-3552381D01*
X5469375Y-3570625D01*
X5960582Y-3898839D01*
X6393744Y-3985000D01*
X6686256Y-3985000D01*
X7119418Y-3898839D01*
X7610625Y-3570625D01*
X7823843Y-3251522D01*
X7884817Y-3381358D01*
X8313076Y-3771645D01*
X8723110Y-3941476D01*
X8953000Y-3820155D01*
X8953000Y-2627000D01*
X9207000Y-2627000D01*
X9207000Y-3820155D01*
X9436890Y-3941476D01*
X9846924Y-3771645D01*
X10275183Y-3381358D01*
X10521486Y-2856892D01*
X10400819Y-2627000D01*
X9207000Y-2627000D01*
X8953000Y-2627000D01*
X8933000Y-2627000D01*
X8933000Y-2373000D01*
X8953000Y-2373000D01*
X8953000Y-1179845D01*
X9207000Y-1179845D01*
X9207000Y-2373000D01*
X10400819Y-2373000D01*
X10521486Y-2143108D01*
X10289910Y-1650000D01*
X15502560Y-1650000D01*
X15502560Y-3350000D01*
X15551843Y-3597765D01*
X15692191Y-3807809D01*
X15902235Y-3948157D01*
X16150000Y-3997440D01*
X17850000Y-3997440D01*
X18097765Y-3948157D01*
X18307809Y-3807809D01*
X18448157Y-3597765D01*
X18457184Y-3552381D01*
X18469375Y-3570625D01*
X18960582Y-3898839D01*
X19393744Y-3985000D01*
X19686256Y-3985000D01*
X20119418Y-3898839D01*
X20610625Y-3570625D01*
X20823843Y-3251522D01*
X20884817Y-3381358D01*
X21313076Y-3771645D01*
X21723110Y-3941476D01*
X21953000Y-3820155D01*
X21953000Y-2627000D01*
X22207000Y-2627000D01*
X22207000Y-3820155D01*
X22436890Y-3941476D01*
X22846924Y-3771645D01*
X23275183Y-3381358D01*
X23521486Y-2856892D01*
X23400819Y-2627000D01*
X22207000Y-2627000D01*
X21953000Y-2627000D01*
X21933000Y-2627000D01*
X21933000Y-2373000D01*
X21953000Y-2373000D01*
X21953000Y-1179845D01*
X22207000Y-1179845D01*
X22207000Y-2373000D01*
X23400819Y-2373000D01*
X23521486Y-2143108D01*
X23275183Y-1618642D01*
X22846924Y-1228355D01*
X22436890Y-1058524D01*
X22207000Y-1179845D01*
X21953000Y-1179845D01*
X21723110Y-1058524D01*
X21313076Y-1228355D01*
X20884817Y-1618642D01*
X20823843Y-1748478D01*
X20610625Y-1429375D01*
X20119418Y-1101161D01*
X19686256Y-1015000D01*
X19393744Y-1015000D01*
X18960582Y-1101161D01*
X18469375Y-1429375D01*
X18457184Y-1447619D01*
X18448157Y-1402235D01*
X18307809Y-1192191D01*
X18097765Y-1051843D01*
X17850000Y-1002560D01*
X16150000Y-1002560D01*
X15902235Y-1051843D01*
X15692191Y-1192191D01*
X15551843Y-1402235D01*
X15502560Y-1650000D01*
X10289910Y-1650000D01*
X10275183Y-1618642D01*
X9846924Y-1228355D01*
X9436890Y-1058524D01*
X9207000Y-1179845D01*
X8953000Y-1179845D01*
X8723110Y-1058524D01*
X8313076Y-1228355D01*
X7884817Y-1618642D01*
X7823843Y-1748478D01*
X7610625Y-1429375D01*
X7119418Y-1101161D01*
X6686256Y-1015000D01*
X6393744Y-1015000D01*
X5960582Y-1101161D01*
X5469375Y-1429375D01*
X5457184Y-1447619D01*
X5448157Y-1402235D01*
X5307809Y-1192191D01*
X5097765Y-1051843D01*
X4850000Y-1002560D01*
X3150000Y-1002560D01*
X2902235Y-1051843D01*
X2692191Y-1192191D01*
X2551843Y-1402235D01*
X2502560Y-1650000D01*
X735000Y-1650000D01*
X735000Y-735000D01*
X111157047Y-735000D01*
X111075226Y-789671D01*
G36*
X195553035Y-9783223D02*
X195580222Y-10353454D01*
X195746136Y-10754005D01*
X195992255Y-10828139D01*
X196820395Y-10000000D01*
X196806253Y-9985858D01*
X196985858Y-9806253D01*
X197000000Y-9820395D01*
X197014143Y-9806253D01*
X197193748Y-9985858D01*
X197179605Y-10000000D01*
X198007745Y-10828139D01*
X198253864Y-10754005D01*
X198446965Y-10216777D01*
X198419778Y-9646546D01*
X198396936Y-9591400D01*
X199807099Y-9591400D01*
X202834298Y-12618600D01*
X168795729Y-12618600D01*
X168882600Y-12408874D01*
X168882600Y-12242801D01*
X170152560Y-10972841D01*
X170152560Y-11800000D01*
X170201843Y-12047765D01*
X170342191Y-12257809D01*
X170552235Y-12398157D01*
X170800000Y-12447440D01*
X172400000Y-12447440D01*
X172647765Y-12398157D01*
X172857809Y-12257809D01*
X172998157Y-12047765D01*
X173024785Y-11913894D01*
X173105423Y-12034577D01*
X173580091Y-12351740D01*
X173998667Y-12435000D01*
X174281333Y-12435000D01*
X174699909Y-12351740D01*
X175174577Y-12034577D01*
X175430947Y-11650892D01*
X175527611Y-11855134D01*
X175942577Y-12231041D01*
X176330961Y-12391904D01*
X176553000Y-12269915D01*
X176553000Y-11127000D01*
X176533000Y-11127000D01*
X176533000Y-10873000D01*
X176553000Y-10873000D01*
X176553000Y-10853000D01*
X176807000Y-10853000D01*
X176807000Y-10873000D01*
X176827000Y-10873000D01*
X176827000Y-11127000D01*
X176807000Y-11127000D01*
X176807000Y-12269915D01*
X177029039Y-12391904D01*
X177417423Y-12231041D01*
X177832389Y-11855134D01*
X177929053Y-11650892D01*
X178185423Y-12034577D01*
X178660091Y-12351740D01*
X179078667Y-12435000D01*
X179361333Y-12435000D01*
X179779909Y-12351740D01*
X180254577Y-12034577D01*
X180510947Y-11650892D01*
X180607611Y-11855134D01*
X181022577Y-12231041D01*
X181410961Y-12391904D01*
X181633000Y-12269915D01*
X181633000Y-11127000D01*
X181613000Y-11127000D01*
X181613000Y-10873000D01*
X181633000Y-10873000D01*
X181633000Y-10853000D01*
X181887000Y-10853000D01*
X181887000Y-10873000D01*
X181907000Y-10873000D01*
X181907000Y-11127000D01*
X181887000Y-11127000D01*
X181887000Y-12269915D01*
X182109039Y-12391904D01*
X182497423Y-12231041D01*
X182912389Y-11855134D01*
X183009053Y-11650892D01*
X183265423Y-12034577D01*
X183740091Y-12351740D01*
X184158667Y-12435000D01*
X184441333Y-12435000D01*
X184859909Y-12351740D01*
X185334577Y-12034577D01*
X185570000Y-11682242D01*
X185805423Y-12034577D01*
X186280091Y-12351740D01*
X186698667Y-12435000D01*
X186981333Y-12435000D01*
X187399909Y-12351740D01*
X187874577Y-12034577D01*
X188191740Y-11559909D01*
X188301572Y-11007745D01*
X196171861Y-11007745D01*
X196245995Y-11253864D01*
X196783223Y-11446965D01*
X197353454Y-11419778D01*
X197754005Y-11253864D01*
X197828139Y-11007745D01*
X197000000Y-10179605D01*
X196171861Y-11007745D01*
X188301572Y-11007745D01*
X188303113Y-11000000D01*
X188191740Y-10440091D01*
X187874577Y-9965423D01*
X187399909Y-9648260D01*
X187114055Y-9591400D01*
X195621984Y-9591400D01*
X195553035Y-9783223D01*
X195553035Y-9783223D01*
G37*
X195553035Y-9783223D02*
X195580222Y-10353454D01*
X195746136Y-10754005D01*
X195992255Y-10828139D01*
X196820395Y-10000000D01*
X196806253Y-9985858D01*
X196985858Y-9806253D01*
X197000000Y-9820395D01*
X197014143Y-9806253D01*
X197193748Y-9985858D01*
X197179605Y-10000000D01*
X198007745Y-10828139D01*
X198253864Y-10754005D01*
X198446965Y-10216777D01*
X198419778Y-9646546D01*
X198396936Y-9591400D01*
X199807099Y-9591400D01*
X202834298Y-12618600D01*
X168795729Y-12618600D01*
X168882600Y-12408874D01*
X168882600Y-12242801D01*
X170152560Y-10972841D01*
X170152560Y-11800000D01*
X170201843Y-12047765D01*
X170342191Y-12257809D01*
X170552235Y-12398157D01*
X170800000Y-12447440D01*
X172400000Y-12447440D01*
X172647765Y-12398157D01*
X172857809Y-12257809D01*
X172998157Y-12047765D01*
X173024785Y-11913894D01*
X173105423Y-12034577D01*
X173580091Y-12351740D01*
X173998667Y-12435000D01*
X174281333Y-12435000D01*
X174699909Y-12351740D01*
X175174577Y-12034577D01*
X175430947Y-11650892D01*
X175527611Y-11855134D01*
X175942577Y-12231041D01*
X176330961Y-12391904D01*
X176553000Y-12269915D01*
X176553000Y-11127000D01*
X176533000Y-11127000D01*
X176533000Y-10873000D01*
X176553000Y-10873000D01*
X176553000Y-10853000D01*
X176807000Y-10853000D01*
X176807000Y-10873000D01*
X176827000Y-10873000D01*
X176827000Y-11127000D01*
X176807000Y-11127000D01*
X176807000Y-12269915D01*
X177029039Y-12391904D01*
X177417423Y-12231041D01*
X177832389Y-11855134D01*
X177929053Y-11650892D01*
X178185423Y-12034577D01*
X178660091Y-12351740D01*
X179078667Y-12435000D01*
X179361333Y-12435000D01*
X179779909Y-12351740D01*
X180254577Y-12034577D01*
X180510947Y-11650892D01*
X180607611Y-11855134D01*
X181022577Y-12231041D01*
X181410961Y-12391904D01*
X181633000Y-12269915D01*
X181633000Y-11127000D01*
X181613000Y-11127000D01*
X181613000Y-10873000D01*
X181633000Y-10873000D01*
X181633000Y-10853000D01*
X181887000Y-10853000D01*
X181887000Y-10873000D01*
X181907000Y-10873000D01*
X181907000Y-11127000D01*
X181887000Y-11127000D01*
X181887000Y-12269915D01*
X182109039Y-12391904D01*
X182497423Y-12231041D01*
X182912389Y-11855134D01*
X183009053Y-11650892D01*
X183265423Y-12034577D01*
X183740091Y-12351740D01*
X184158667Y-12435000D01*
X184441333Y-12435000D01*
X184859909Y-12351740D01*
X185334577Y-12034577D01*
X185570000Y-11682242D01*
X185805423Y-12034577D01*
X186280091Y-12351740D01*
X186698667Y-12435000D01*
X186981333Y-12435000D01*
X187399909Y-12351740D01*
X187874577Y-12034577D01*
X188191740Y-11559909D01*
X188301572Y-11007745D01*
X196171861Y-11007745D01*
X196245995Y-11253864D01*
X196783223Y-11446965D01*
X197353454Y-11419778D01*
X197754005Y-11253864D01*
X197828139Y-11007745D01*
X197000000Y-10179605D01*
X196171861Y-11007745D01*
X188301572Y-11007745D01*
X188303113Y-11000000D01*
X188191740Y-10440091D01*
X187874577Y-9965423D01*
X187399909Y-9648260D01*
X187114055Y-9591400D01*
X195621984Y-9591400D01*
X195553035Y-9783223D01*
G36*
X391953035Y-9783223D02*
X391980222Y-10353454D01*
X392146136Y-10754005D01*
X392392255Y-10828139D01*
X393220395Y-10000000D01*
X393206252Y-9985858D01*
X393385858Y-9806253D01*
X393400000Y-9820395D01*
X393414143Y-9806253D01*
X393593748Y-9985858D01*
X393579605Y-10000000D01*
X394407745Y-10828139D01*
X394653864Y-10754005D01*
X394846965Y-10216777D01*
X394819778Y-9646546D01*
X394788072Y-9570000D01*
X399642419Y-9570000D01*
X399556887Y-10000000D01*
X399668260Y-10559909D01*
X399985423Y-11034577D01*
X400460091Y-11351740D01*
X400750973Y-11409600D01*
X393778026Y-11409600D01*
X394154005Y-11253864D01*
X394228139Y-11007745D01*
X393400000Y-10179605D01*
X392571861Y-11007745D01*
X392645995Y-11253864D01*
X393079270Y-11409600D01*
X387021638Y-11409600D01*
X387103113Y-11000000D01*
X386991740Y-10440091D01*
X386674577Y-9965423D01*
X386199909Y-9648260D01*
X385806470Y-9570000D01*
X392029676Y-9570000D01*
X391953035Y-9783223D01*
X391953035Y-9783223D01*
G37*
X391953035Y-9783223D02*
X391980222Y-10353454D01*
X392146136Y-10754005D01*
X392392255Y-10828139D01*
X393220395Y-10000000D01*
X393206252Y-9985858D01*
X393385858Y-9806253D01*
X393400000Y-9820395D01*
X393414143Y-9806253D01*
X393593748Y-9985858D01*
X393579605Y-10000000D01*
X394407745Y-10828139D01*
X394653864Y-10754005D01*
X394846965Y-10216777D01*
X394819778Y-9646546D01*
X394788072Y-9570000D01*
X399642419Y-9570000D01*
X399556887Y-10000000D01*
X399668260Y-10559909D01*
X399985423Y-11034577D01*
X400460091Y-11351740D01*
X400750973Y-11409600D01*
X393778026Y-11409600D01*
X394154005Y-11253864D01*
X394228139Y-11007745D01*
X393400000Y-10179605D01*
X392571861Y-11007745D01*
X392645995Y-11253864D01*
X393079270Y-11409600D01*
X387021638Y-11409600D01*
X387103113Y-11000000D01*
X386991740Y-10440091D01*
X386674577Y-9965423D01*
X386199909Y-9648260D01*
X385806470Y-9570000D01*
X392029676Y-9570000D01*
X391953035Y-9783223D01*
G36*
X380687000Y-10873000D02*
X380707000Y-10873000D01*
X380707000Y-11127000D01*
X380687000Y-11127000D01*
X380687000Y-11147000D01*
X380433000Y-11147000D01*
X380433000Y-11127000D01*
X380413000Y-11127000D01*
X380413000Y-10873000D01*
X380433000Y-10873000D01*
X380433000Y-10853000D01*
X380687000Y-10853000D01*
X380687000Y-10873000D01*
X380687000Y-10873000D01*
G37*
X380687000Y-10873000D02*
X380707000Y-10873000D01*
X380707000Y-11127000D01*
X380687000Y-11127000D01*
X380687000Y-11147000D01*
X380433000Y-11147000D01*
X380433000Y-11127000D01*
X380413000Y-11127000D01*
X380413000Y-10873000D01*
X380433000Y-10873000D01*
X380433000Y-10853000D01*
X380687000Y-10853000D01*
X380687000Y-10873000D01*
G36*
X375607000Y-10873000D02*
X375627000Y-10873000D01*
X375627000Y-11127000D01*
X375607000Y-11127000D01*
X375607000Y-11147000D01*
X375353000Y-11147000D01*
X375353000Y-11127000D01*
X375333000Y-11127000D01*
X375333000Y-10873000D01*
X375353000Y-10873000D01*
X375353000Y-10853000D01*
X375607000Y-10853000D01*
X375607000Y-10873000D01*
X375607000Y-10873000D01*
G37*
X375607000Y-10873000D02*
X375627000Y-10873000D01*
X375627000Y-11127000D01*
X375607000Y-11127000D01*
X375607000Y-11147000D01*
X375353000Y-11147000D01*
X375353000Y-11127000D01*
X375333000Y-11127000D01*
X375333000Y-10873000D01*
X375353000Y-10873000D01*
X375353000Y-10853000D01*
X375607000Y-10853000D01*
X375607000Y-10873000D01*
G36*
X103715528Y-9284371D02*
X103652072Y-9326771D01*
X103609672Y-9390227D01*
X103609671Y-9390228D01*
X103484097Y-9578163D01*
X103444106Y-9779213D01*
X103165423Y-9965423D01*
X102909053Y-10349108D01*
X102812389Y-10144866D01*
X102397423Y-9768959D01*
X102009039Y-9608096D01*
X101787000Y-9730085D01*
X101787000Y-10873000D01*
X101807000Y-10873000D01*
X101807000Y-11127000D01*
X101787000Y-11127000D01*
X101787000Y-11147000D01*
X101533000Y-11147000D01*
X101533000Y-11127000D01*
X101513000Y-11127000D01*
X101513000Y-10873000D01*
X101533000Y-10873000D01*
X101533000Y-9730085D01*
X101310961Y-9608096D01*
X100922577Y-9768959D01*
X100507611Y-10144866D01*
X100410947Y-10349108D01*
X100154577Y-9965423D01*
X99679909Y-9648260D01*
X99261333Y-9565000D01*
X98978667Y-9565000D01*
X98560091Y-9648260D01*
X98085423Y-9965423D01*
X97829053Y-10349108D01*
X97732389Y-10144866D01*
X97317423Y-9768959D01*
X97227208Y-9731593D01*
X97898902Y-9059900D01*
X103939999Y-9059900D01*
X103715528Y-9284371D01*
X103715528Y-9284371D01*
G37*
X103715528Y-9284371D02*
X103652072Y-9326771D01*
X103609672Y-9390227D01*
X103609671Y-9390228D01*
X103484097Y-9578163D01*
X103444106Y-9779213D01*
X103165423Y-9965423D01*
X102909053Y-10349108D01*
X102812389Y-10144866D01*
X102397423Y-9768959D01*
X102009039Y-9608096D01*
X101787000Y-9730085D01*
X101787000Y-10873000D01*
X101807000Y-10873000D01*
X101807000Y-11127000D01*
X101787000Y-11127000D01*
X101787000Y-11147000D01*
X101533000Y-11147000D01*
X101533000Y-11127000D01*
X101513000Y-11127000D01*
X101513000Y-10873000D01*
X101533000Y-10873000D01*
X101533000Y-9730085D01*
X101310961Y-9608096D01*
X100922577Y-9768959D01*
X100507611Y-10144866D01*
X100410947Y-10349108D01*
X100154577Y-9965423D01*
X99679909Y-9648260D01*
X99261333Y-9565000D01*
X98978667Y-9565000D01*
X98560091Y-9648260D01*
X98085423Y-9965423D01*
X97829053Y-10349108D01*
X97732389Y-10144866D01*
X97317423Y-9768959D01*
X97227208Y-9731593D01*
X97898902Y-9059900D01*
X103939999Y-9059900D01*
X103715528Y-9284371D01*
G36*
X96707000Y-10873000D02*
X96727000Y-10873000D01*
X96727000Y-11127000D01*
X96707000Y-11127000D01*
X96707000Y-11147000D01*
X96453000Y-11147000D01*
X96453000Y-11127000D01*
X96433000Y-11127000D01*
X96433000Y-10873000D01*
X96453000Y-10873000D01*
X96453000Y-10853000D01*
X96707000Y-10853000D01*
X96707000Y-10873000D01*
X96707000Y-10873000D01*
G37*
X96707000Y-10873000D02*
X96727000Y-10873000D01*
X96727000Y-11127000D01*
X96707000Y-11127000D01*
X96707000Y-11147000D01*
X96453000Y-11147000D01*
X96453000Y-11127000D01*
X96433000Y-11127000D01*
X96433000Y-10873000D01*
X96453000Y-10873000D01*
X96453000Y-10853000D01*
X96707000Y-10853000D01*
X96707000Y-10873000D01*
G36*
X125264595Y-9771903D02*
X125253864Y-9745995D01*
X125007745Y-9671861D01*
X124179605Y-10500000D01*
X124193748Y-10514143D01*
X124014143Y-10693748D01*
X124000000Y-10679605D01*
X123985858Y-10693748D01*
X123806253Y-10514143D01*
X123820395Y-10500000D01*
X122992255Y-9671861D01*
X122746136Y-9745995D01*
X122553035Y-10283223D01*
X122574949Y-10742861D01*
X122515137Y-10702896D01*
X122293452Y-10658800D01*
X122293447Y-10658800D01*
X122218600Y-10643912D01*
X122143753Y-10658800D01*
X116177027Y-10658800D01*
X116223229Y-10627929D01*
X116265631Y-10564470D01*
X117337846Y-9492255D01*
X123171861Y-9492255D01*
X124000000Y-10320395D01*
X124828139Y-9492255D01*
X124754005Y-9246136D01*
X124216777Y-9053035D01*
X123646546Y-9080222D01*
X123245995Y-9246136D01*
X123171861Y-9492255D01*
X117337846Y-9492255D01*
X119142502Y-7687600D01*
X127348897Y-7687600D01*
X125264595Y-9771903D01*
X125264595Y-9771903D01*
G37*
X125264595Y-9771903D02*
X125253864Y-9745995D01*
X125007745Y-9671861D01*
X124179605Y-10500000D01*
X124193748Y-10514143D01*
X124014143Y-10693748D01*
X124000000Y-10679605D01*
X123985858Y-10693748D01*
X123806253Y-10514143D01*
X123820395Y-10500000D01*
X122992255Y-9671861D01*
X122746136Y-9745995D01*
X122553035Y-10283223D01*
X122574949Y-10742861D01*
X122515137Y-10702896D01*
X122293452Y-10658800D01*
X122293447Y-10658800D01*
X122218600Y-10643912D01*
X122143753Y-10658800D01*
X116177027Y-10658800D01*
X116223229Y-10627929D01*
X116265631Y-10564470D01*
X117337846Y-9492255D01*
X123171861Y-9492255D01*
X124000000Y-10320395D01*
X124828139Y-9492255D01*
X124754005Y-9246136D01*
X124216777Y-9053035D01*
X123646546Y-9080222D01*
X123245995Y-9246136D01*
X123171861Y-9492255D01*
X117337846Y-9492255D01*
X119142502Y-7687600D01*
X127348897Y-7687600D01*
X125264595Y-9771903D01*
G36*
X382540091Y-9648260D02*
X382065423Y-9965423D01*
X381809053Y-10349108D01*
X381712389Y-10144866D01*
X381297423Y-9768959D01*
X380909039Y-9608096D01*
X380687002Y-9730084D01*
X380687002Y-9570000D01*
X382933530Y-9570000D01*
X382540091Y-9648260D01*
X382540091Y-9648260D01*
G37*
X382540091Y-9648260D02*
X382065423Y-9965423D01*
X381809053Y-10349108D01*
X381712389Y-10144866D01*
X381297423Y-9768959D01*
X380909039Y-9608096D01*
X380687002Y-9730084D01*
X380687002Y-9570000D01*
X382933530Y-9570000D01*
X382540091Y-9648260D01*
G36*
X183740091Y-9648260D02*
X183265423Y-9965423D01*
X183009053Y-10349108D01*
X182912389Y-10144866D01*
X182497423Y-9768959D01*
X182109039Y-9608096D01*
X181887002Y-9730084D01*
X181887002Y-9591400D01*
X184025945Y-9591400D01*
X183740091Y-9648260D01*
X183740091Y-9648260D01*
G37*
X183740091Y-9648260D02*
X183265423Y-9965423D01*
X183009053Y-10349108D01*
X182912389Y-10144866D01*
X182497423Y-9768959D01*
X182109039Y-9608096D01*
X181887002Y-9730084D01*
X181887002Y-9591400D01*
X184025945Y-9591400D01*
X183740091Y-9648260D01*
G36*
X326878671Y-3458973D02*
X326921071Y-3522429D01*
X326984527Y-3564829D01*
X327172462Y-3690404D01*
X327220605Y-3699980D01*
X327394148Y-3734500D01*
X327394152Y-3734500D01*
X327469000Y-3749388D01*
X327543848Y-3734500D01*
X367272853Y-3734500D01*
X367347700Y-3749388D01*
X367422547Y-3734500D01*
X367422552Y-3734500D01*
X367644237Y-3690404D01*
X367895629Y-3522429D01*
X367938031Y-3458970D01*
X368382302Y-3014700D01*
X369009550Y-3014700D01*
X368936887Y-3380000D01*
X369048260Y-3939909D01*
X369365423Y-4414577D01*
X369840091Y-4731740D01*
X370258667Y-4815000D01*
X370541333Y-4815000D01*
X370959909Y-4731740D01*
X371434577Y-4414577D01*
X371618043Y-4140000D01*
X371721957Y-4140000D01*
X371905423Y-4414577D01*
X372380091Y-4731740D01*
X372798667Y-4815000D01*
X373081333Y-4815000D01*
X373499909Y-4731740D01*
X373974577Y-4414577D01*
X374230947Y-4030892D01*
X374327611Y-4235134D01*
X374742577Y-4611041D01*
X375130961Y-4771904D01*
X375353000Y-4649915D01*
X375353000Y-3507000D01*
X375333000Y-3507000D01*
X375333000Y-3253000D01*
X375353000Y-3253000D01*
X375353000Y-3233000D01*
X375607000Y-3233000D01*
X375607000Y-3253000D01*
X375627000Y-3253000D01*
X375627000Y-3507000D01*
X375607000Y-3507000D01*
X375607000Y-4649915D01*
X375829039Y-4771904D01*
X376217423Y-4611041D01*
X376632389Y-4235134D01*
X376689670Y-4114106D01*
X376799214Y-4135896D01*
X376985423Y-4414577D01*
X377460091Y-4731740D01*
X377878667Y-4815000D01*
X378161333Y-4815000D01*
X378579909Y-4731740D01*
X379054577Y-4414577D01*
X379290000Y-4062242D01*
X379525423Y-4414577D01*
X380000091Y-4731740D01*
X380418667Y-4815000D01*
X380701333Y-4815000D01*
X381119909Y-4731740D01*
X381456222Y-4507023D01*
X381838799Y-4889600D01*
X333025246Y-4889600D01*
X332950399Y-4874712D01*
X332875552Y-4889600D01*
X332875548Y-4889600D01*
X332653863Y-4933696D01*
X332402471Y-5101671D01*
X332360071Y-5165127D01*
X329938302Y-7586897D01*
X329885439Y-7565000D01*
X329314561Y-7565000D01*
X328787138Y-7783466D01*
X328383466Y-8187138D01*
X328165000Y-8714561D01*
X328165000Y-9285439D01*
X328199861Y-9369600D01*
X325218802Y-9369600D01*
X321445831Y-5596630D01*
X321403429Y-5533171D01*
X321152037Y-5365196D01*
X320930352Y-5321100D01*
X320930347Y-5321100D01*
X320855500Y-5306212D01*
X320780653Y-5321100D01*
X315760418Y-5321100D01*
X316012862Y-5216534D01*
X316416534Y-4812862D01*
X316635000Y-4285439D01*
X316635000Y-3714561D01*
X316416534Y-3187138D01*
X316243896Y-3014500D01*
X319634399Y-3014500D01*
X321104371Y-4484473D01*
X321146771Y-4547929D01*
X321210227Y-4590329D01*
X321398162Y-4715904D01*
X321446305Y-4725480D01*
X321599214Y-4755896D01*
X321785423Y-5034577D01*
X322260091Y-5351740D01*
X322678667Y-5435000D01*
X322961333Y-5435000D01*
X323379909Y-5351740D01*
X323854577Y-5034577D01*
X324171740Y-4559909D01*
X324283113Y-4000000D01*
X324171740Y-3440091D01*
X323854577Y-2965423D01*
X323379909Y-2648260D01*
X322961333Y-2565000D01*
X322678667Y-2565000D01*
X322260091Y-2648260D01*
X321785423Y-2965423D01*
X321765196Y-2995695D01*
X321323801Y-2554300D01*
X325973999Y-2554300D01*
X326878671Y-3458973D01*
X326878671Y-3458973D01*
G37*
X326878671Y-3458973D02*
X326921071Y-3522429D01*
X326984527Y-3564829D01*
X327172462Y-3690404D01*
X327220605Y-3699980D01*
X327394148Y-3734500D01*
X327394152Y-3734500D01*
X327469000Y-3749388D01*
X327543848Y-3734500D01*
X367272853Y-3734500D01*
X367347700Y-3749388D01*
X367422547Y-3734500D01*
X367422552Y-3734500D01*
X367644237Y-3690404D01*
X367895629Y-3522429D01*
X367938031Y-3458970D01*
X368382302Y-3014700D01*
X369009550Y-3014700D01*
X368936887Y-3380000D01*
X369048260Y-3939909D01*
X369365423Y-4414577D01*
X369840091Y-4731740D01*
X370258667Y-4815000D01*
X370541333Y-4815000D01*
X370959909Y-4731740D01*
X371434577Y-4414577D01*
X371618043Y-4140000D01*
X371721957Y-4140000D01*
X371905423Y-4414577D01*
X372380091Y-4731740D01*
X372798667Y-4815000D01*
X373081333Y-4815000D01*
X373499909Y-4731740D01*
X373974577Y-4414577D01*
X374230947Y-4030892D01*
X374327611Y-4235134D01*
X374742577Y-4611041D01*
X375130961Y-4771904D01*
X375353000Y-4649915D01*
X375353000Y-3507000D01*
X375333000Y-3507000D01*
X375333000Y-3253000D01*
X375353000Y-3253000D01*
X375353000Y-3233000D01*
X375607000Y-3233000D01*
X375607000Y-3253000D01*
X375627000Y-3253000D01*
X375627000Y-3507000D01*
X375607000Y-3507000D01*
X375607000Y-4649915D01*
X375829039Y-4771904D01*
X376217423Y-4611041D01*
X376632389Y-4235134D01*
X376689670Y-4114106D01*
X376799214Y-4135896D01*
X376985423Y-4414577D01*
X377460091Y-4731740D01*
X377878667Y-4815000D01*
X378161333Y-4815000D01*
X378579909Y-4731740D01*
X379054577Y-4414577D01*
X379290000Y-4062242D01*
X379525423Y-4414577D01*
X380000091Y-4731740D01*
X380418667Y-4815000D01*
X380701333Y-4815000D01*
X381119909Y-4731740D01*
X381456222Y-4507023D01*
X381838799Y-4889600D01*
X333025246Y-4889600D01*
X332950399Y-4874712D01*
X332875552Y-4889600D01*
X332875548Y-4889600D01*
X332653863Y-4933696D01*
X332402471Y-5101671D01*
X332360071Y-5165127D01*
X329938302Y-7586897D01*
X329885439Y-7565000D01*
X329314561Y-7565000D01*
X328787138Y-7783466D01*
X328383466Y-8187138D01*
X328165000Y-8714561D01*
X328165000Y-9285439D01*
X328199861Y-9369600D01*
X325218802Y-9369600D01*
X321445831Y-5596630D01*
X321403429Y-5533171D01*
X321152037Y-5365196D01*
X320930352Y-5321100D01*
X320930347Y-5321100D01*
X320855500Y-5306212D01*
X320780653Y-5321100D01*
X315760418Y-5321100D01*
X316012862Y-5216534D01*
X316416534Y-4812862D01*
X316635000Y-4285439D01*
X316635000Y-3714561D01*
X316416534Y-3187138D01*
X316243896Y-3014500D01*
X319634399Y-3014500D01*
X321104371Y-4484473D01*
X321146771Y-4547929D01*
X321210227Y-4590329D01*
X321398162Y-4715904D01*
X321446305Y-4725480D01*
X321599214Y-4755896D01*
X321785423Y-5034577D01*
X322260091Y-5351740D01*
X322678667Y-5435000D01*
X322961333Y-5435000D01*
X323379909Y-5351740D01*
X323854577Y-5034577D01*
X324171740Y-4559909D01*
X324283113Y-4000000D01*
X324171740Y-3440091D01*
X323854577Y-2965423D01*
X323379909Y-2648260D01*
X322961333Y-2565000D01*
X322678667Y-2565000D01*
X322260091Y-2648260D01*
X321785423Y-2965423D01*
X321765196Y-2995695D01*
X321323801Y-2554300D01*
X325973999Y-2554300D01*
X326878671Y-3458973D01*
G36*
X211048260Y-820091D02*
X210936887Y-1380000D01*
X211048260Y-1939909D01*
X211365423Y-2414577D01*
X211840091Y-2731740D01*
X212258667Y-2815000D01*
X212541333Y-2815000D01*
X212959909Y-2731740D01*
X213434577Y-2414577D01*
X213751740Y-1939909D01*
X213863113Y-1380000D01*
X213751740Y-820091D01*
X213694884Y-735000D01*
X215705116Y-735000D01*
X215648260Y-820091D01*
X215536887Y-1380000D01*
X215648260Y-1939909D01*
X215965423Y-2414577D01*
X216440091Y-2731740D01*
X216858667Y-2815000D01*
X217141333Y-2815000D01*
X217559909Y-2731740D01*
X218034577Y-2414577D01*
X218351740Y-1939909D01*
X218463113Y-1380000D01*
X218351740Y-820091D01*
X218294884Y-735000D01*
X220505116Y-735000D01*
X220448260Y-820091D01*
X220336887Y-1380000D01*
X220448260Y-1939909D01*
X220765423Y-2414577D01*
X221240091Y-2731740D01*
X221658667Y-2815000D01*
X221941333Y-2815000D01*
X222359909Y-2731740D01*
X222834577Y-2414577D01*
X223151740Y-1939909D01*
X223263113Y-1380000D01*
X223151740Y-820091D01*
X223094884Y-735000D01*
X225305116Y-735000D01*
X225248260Y-820091D01*
X225136887Y-1380000D01*
X225248260Y-1939909D01*
X225565423Y-2414577D01*
X226040091Y-2731740D01*
X226458667Y-2815000D01*
X226741333Y-2815000D01*
X227159909Y-2731740D01*
X227634577Y-2414577D01*
X227951740Y-1939909D01*
X228063113Y-1380000D01*
X227951740Y-820091D01*
X227894884Y-735000D01*
X229905116Y-735000D01*
X229848260Y-820091D01*
X229736887Y-1380000D01*
X229848260Y-1939909D01*
X230165423Y-2414577D01*
X230444106Y-2600787D01*
X230453549Y-2648260D01*
X230484097Y-2801837D01*
X230596864Y-2970604D01*
X230652072Y-3053229D01*
X230715528Y-3095629D01*
X231601400Y-3981502D01*
X231601401Y-7613033D01*
X231485439Y-7565000D01*
X230914561Y-7565000D01*
X230861698Y-7586897D01*
X230605031Y-7330230D01*
X230562629Y-7266771D01*
X230311237Y-7098796D01*
X230089552Y-7054700D01*
X230089547Y-7054700D01*
X230014700Y-7039812D01*
X229939853Y-7054700D01*
X225057848Y-7054700D01*
X224983000Y-7039812D01*
X224908152Y-7054700D01*
X224908148Y-7054700D01*
X224765875Y-7083000D01*
X224686462Y-7098796D01*
X224575859Y-7172699D01*
X224435071Y-7266771D01*
X224392671Y-7330227D01*
X223168612Y-8554286D01*
X223016534Y-8187138D01*
X222612862Y-7783466D01*
X222085439Y-7565000D01*
X221514561Y-7565000D01*
X220987138Y-7783466D01*
X220583466Y-8187138D01*
X220561570Y-8240000D01*
X219179947Y-8240000D01*
X219105100Y-8225112D01*
X219030253Y-8240000D01*
X219030248Y-8240000D01*
X218808563Y-8284096D01*
X218557171Y-8452071D01*
X218514772Y-8515526D01*
X218400069Y-8630229D01*
X218216534Y-8187138D01*
X217812862Y-7783466D01*
X217285439Y-7565000D01*
X216714561Y-7565000D01*
X216661698Y-7586896D01*
X214165931Y-5091130D01*
X214123529Y-5027671D01*
X213872137Y-4859696D01*
X213650452Y-4815600D01*
X213650447Y-4815600D01*
X213575600Y-4800712D01*
X213500753Y-4815600D01*
X205800893Y-4815600D01*
X205971740Y-4559909D01*
X206083113Y-4000000D01*
X205971740Y-3440091D01*
X205654577Y-2965423D01*
X205179909Y-2648260D01*
X204761333Y-2565000D01*
X204478667Y-2565000D01*
X204060091Y-2648260D01*
X203585423Y-2965423D01*
X203399214Y-3244104D01*
X203198163Y-3284096D01*
X202946771Y-3452071D01*
X202904371Y-3515527D01*
X202054599Y-4365300D01*
X198401920Y-4365300D01*
X198435000Y-4285439D01*
X198435000Y-3714561D01*
X198216534Y-3187138D01*
X197812862Y-2783466D01*
X197285439Y-2565000D01*
X196714561Y-2565000D01*
X196187138Y-2783466D01*
X195783466Y-3187138D01*
X195565000Y-3714561D01*
X195565000Y-3746200D01*
X188230271Y-3746200D01*
X188303113Y-3380000D01*
X188191740Y-2820091D01*
X187874577Y-2345423D01*
X187399909Y-2028260D01*
X186981333Y-1945000D01*
X186698667Y-1945000D01*
X186280091Y-2028260D01*
X185805423Y-2345423D01*
X185607667Y-2641386D01*
X185520786Y-2624104D01*
X185334577Y-2345423D01*
X184859909Y-2028260D01*
X184441333Y-1945000D01*
X184158667Y-1945000D01*
X183740091Y-2028260D01*
X183265423Y-2345423D01*
X183067667Y-2641386D01*
X182980786Y-2624104D01*
X182794577Y-2345423D01*
X182319909Y-2028260D01*
X181901333Y-1945000D01*
X181618667Y-1945000D01*
X181200091Y-2028260D01*
X180725423Y-2345423D01*
X180490000Y-2697758D01*
X180254577Y-2345423D01*
X179779909Y-2028260D01*
X179361333Y-1945000D01*
X179078667Y-1945000D01*
X178660091Y-2028260D01*
X178185423Y-2345423D01*
X177929053Y-2729108D01*
X177832389Y-2524866D01*
X177417423Y-2148959D01*
X177029039Y-1988096D01*
X176807000Y-2110085D01*
X176807000Y-3253000D01*
X176827000Y-3253000D01*
X176827000Y-3507000D01*
X176807000Y-3507000D01*
X176807000Y-4649915D01*
X177029039Y-4771904D01*
X177417423Y-4611041D01*
X177832389Y-4235134D01*
X177929053Y-4030892D01*
X178185423Y-4414577D01*
X178660091Y-4731740D01*
X179078667Y-4815000D01*
X179361333Y-4815000D01*
X179779909Y-4731740D01*
X180254577Y-4414577D01*
X180490000Y-4062242D01*
X180725423Y-4414577D01*
X181200091Y-4731740D01*
X181618667Y-4815000D01*
X181901333Y-4815000D01*
X182319909Y-4731740D01*
X182656222Y-4507023D01*
X182964799Y-4815600D01*
X168620303Y-4815600D01*
X167184702Y-3380000D01*
X170136887Y-3380000D01*
X170248260Y-3939909D01*
X170565423Y-4414577D01*
X171040091Y-4731740D01*
X171458667Y-4815000D01*
X171741333Y-4815000D01*
X172159909Y-4731740D01*
X172634577Y-4414577D01*
X172818043Y-4140000D01*
X172921957Y-4140000D01*
X173105423Y-4414577D01*
X173580091Y-4731740D01*
X173998667Y-4815000D01*
X174281333Y-4815000D01*
X174699909Y-4731740D01*
X175174577Y-4414577D01*
X175430947Y-4030892D01*
X175527611Y-4235134D01*
X175942577Y-4611041D01*
X176330961Y-4771904D01*
X176553000Y-4649915D01*
X176553000Y-3507000D01*
X176533000Y-3507000D01*
X176533000Y-3253000D01*
X176553000Y-3253000D01*
X176553000Y-2110085D01*
X176330961Y-1988096D01*
X175942577Y-2148959D01*
X175527611Y-2524866D01*
X175430947Y-2729108D01*
X175174577Y-2345423D01*
X174699909Y-2028260D01*
X174281333Y-1945000D01*
X173998667Y-1945000D01*
X173580091Y-2028260D01*
X173105423Y-2345423D01*
X172921957Y-2620000D01*
X172818043Y-2620000D01*
X172634577Y-2345423D01*
X172159909Y-2028260D01*
X171741333Y-1945000D01*
X171458667Y-1945000D01*
X171040091Y-2028260D01*
X170565423Y-2345423D01*
X170248260Y-2820091D01*
X170136887Y-3380000D01*
X167184702Y-3380000D01*
X166690231Y-2885530D01*
X166647829Y-2822071D01*
X166396437Y-2654096D01*
X166174752Y-2610000D01*
X166174747Y-2610000D01*
X166099900Y-2595112D01*
X166025053Y-2610000D01*
X156642106Y-2610000D01*
X156934577Y-2414577D01*
X157251740Y-1939909D01*
X157363113Y-1380000D01*
X157251740Y-820091D01*
X157194884Y-735000D01*
X211105116Y-735000D01*
X211048260Y-820091D01*
X211048260Y-820091D01*
G37*
X211048260Y-820091D02*
X210936887Y-1380000D01*
X211048260Y-1939909D01*
X211365423Y-2414577D01*
X211840091Y-2731740D01*
X212258667Y-2815000D01*
X212541333Y-2815000D01*
X212959909Y-2731740D01*
X213434577Y-2414577D01*
X213751740Y-1939909D01*
X213863113Y-1380000D01*
X213751740Y-820091D01*
X213694884Y-735000D01*
X215705116Y-735000D01*
X215648260Y-820091D01*
X215536887Y-1380000D01*
X215648260Y-1939909D01*
X215965423Y-2414577D01*
X216440091Y-2731740D01*
X216858667Y-2815000D01*
X217141333Y-2815000D01*
X217559909Y-2731740D01*
X218034577Y-2414577D01*
X218351740Y-1939909D01*
X218463113Y-1380000D01*
X218351740Y-820091D01*
X218294884Y-735000D01*
X220505116Y-735000D01*
X220448260Y-820091D01*
X220336887Y-1380000D01*
X220448260Y-1939909D01*
X220765423Y-2414577D01*
X221240091Y-2731740D01*
X221658667Y-2815000D01*
X221941333Y-2815000D01*
X222359909Y-2731740D01*
X222834577Y-2414577D01*
X223151740Y-1939909D01*
X223263113Y-1380000D01*
X223151740Y-820091D01*
X223094884Y-735000D01*
X225305116Y-735000D01*
X225248260Y-820091D01*
X225136887Y-1380000D01*
X225248260Y-1939909D01*
X225565423Y-2414577D01*
X226040091Y-2731740D01*
X226458667Y-2815000D01*
X226741333Y-2815000D01*
X227159909Y-2731740D01*
X227634577Y-2414577D01*
X227951740Y-1939909D01*
X228063113Y-1380000D01*
X227951740Y-820091D01*
X227894884Y-735000D01*
X229905116Y-735000D01*
X229848260Y-820091D01*
X229736887Y-1380000D01*
X229848260Y-1939909D01*
X230165423Y-2414577D01*
X230444106Y-2600787D01*
X230453549Y-2648260D01*
X230484097Y-2801837D01*
X230596864Y-2970604D01*
X230652072Y-3053229D01*
X230715528Y-3095629D01*
X231601400Y-3981502D01*
X231601401Y-7613033D01*
X231485439Y-7565000D01*
X230914561Y-7565000D01*
X230861698Y-7586897D01*
X230605031Y-7330230D01*
X230562629Y-7266771D01*
X230311237Y-7098796D01*
X230089552Y-7054700D01*
X230089547Y-7054700D01*
X230014700Y-7039812D01*
X229939853Y-7054700D01*
X225057848Y-7054700D01*
X224983000Y-7039812D01*
X224908152Y-7054700D01*
X224908148Y-7054700D01*
X224765875Y-7083000D01*
X224686462Y-7098796D01*
X224575859Y-7172699D01*
X224435071Y-7266771D01*
X224392671Y-7330227D01*
X223168612Y-8554286D01*
X223016534Y-8187138D01*
X222612862Y-7783466D01*
X222085439Y-7565000D01*
X221514561Y-7565000D01*
X220987138Y-7783466D01*
X220583466Y-8187138D01*
X220561570Y-8240000D01*
X219179947Y-8240000D01*
X219105100Y-8225112D01*
X219030253Y-8240000D01*
X219030248Y-8240000D01*
X218808563Y-8284096D01*
X218557171Y-8452071D01*
X218514772Y-8515526D01*
X218400069Y-8630229D01*
X218216534Y-8187138D01*
X217812862Y-7783466D01*
X217285439Y-7565000D01*
X216714561Y-7565000D01*
X216661698Y-7586896D01*
X214165931Y-5091130D01*
X214123529Y-5027671D01*
X213872137Y-4859696D01*
X213650452Y-4815600D01*
X213650447Y-4815600D01*
X213575600Y-4800712D01*
X213500753Y-4815600D01*
X205800893Y-4815600D01*
X205971740Y-4559909D01*
X206083113Y-4000000D01*
X205971740Y-3440091D01*
X205654577Y-2965423D01*
X205179909Y-2648260D01*
X204761333Y-2565000D01*
X204478667Y-2565000D01*
X204060091Y-2648260D01*
X203585423Y-2965423D01*
X203399214Y-3244104D01*
X203198163Y-3284096D01*
X202946771Y-3452071D01*
X202904371Y-3515527D01*
X202054599Y-4365300D01*
X198401920Y-4365300D01*
X198435000Y-4285439D01*
X198435000Y-3714561D01*
X198216534Y-3187138D01*
X197812862Y-2783466D01*
X197285439Y-2565000D01*
X196714561Y-2565000D01*
X196187138Y-2783466D01*
X195783466Y-3187138D01*
X195565000Y-3714561D01*
X195565000Y-3746200D01*
X188230271Y-3746200D01*
X188303113Y-3380000D01*
X188191740Y-2820091D01*
X187874577Y-2345423D01*
X187399909Y-2028260D01*
X186981333Y-1945000D01*
X186698667Y-1945000D01*
X186280091Y-2028260D01*
X185805423Y-2345423D01*
X185607667Y-2641386D01*
X185520786Y-2624104D01*
X185334577Y-2345423D01*
X184859909Y-2028260D01*
X184441333Y-1945000D01*
X184158667Y-1945000D01*
X183740091Y-2028260D01*
X183265423Y-2345423D01*
X183067667Y-2641386D01*
X182980786Y-2624104D01*
X182794577Y-2345423D01*
X182319909Y-2028260D01*
X181901333Y-1945000D01*
X181618667Y-1945000D01*
X181200091Y-2028260D01*
X180725423Y-2345423D01*
X180490000Y-2697758D01*
X180254577Y-2345423D01*
X179779909Y-2028260D01*
X179361333Y-1945000D01*
X179078667Y-1945000D01*
X178660091Y-2028260D01*
X178185423Y-2345423D01*
X177929053Y-2729108D01*
X177832389Y-2524866D01*
X177417423Y-2148959D01*
X177029039Y-1988096D01*
X176807000Y-2110085D01*
X176807000Y-3253000D01*
X176827000Y-3253000D01*
X176827000Y-3507000D01*
X176807000Y-3507000D01*
X176807000Y-4649915D01*
X177029039Y-4771904D01*
X177417423Y-4611041D01*
X177832389Y-4235134D01*
X177929053Y-4030892D01*
X178185423Y-4414577D01*
X178660091Y-4731740D01*
X179078667Y-4815000D01*
X179361333Y-4815000D01*
X179779909Y-4731740D01*
X180254577Y-4414577D01*
X180490000Y-4062242D01*
X180725423Y-4414577D01*
X181200091Y-4731740D01*
X181618667Y-4815000D01*
X181901333Y-4815000D01*
X182319909Y-4731740D01*
X182656222Y-4507023D01*
X182964799Y-4815600D01*
X168620303Y-4815600D01*
X167184702Y-3380000D01*
X170136887Y-3380000D01*
X170248260Y-3939909D01*
X170565423Y-4414577D01*
X171040091Y-4731740D01*
X171458667Y-4815000D01*
X171741333Y-4815000D01*
X172159909Y-4731740D01*
X172634577Y-4414577D01*
X172818043Y-4140000D01*
X172921957Y-4140000D01*
X173105423Y-4414577D01*
X173580091Y-4731740D01*
X173998667Y-4815000D01*
X174281333Y-4815000D01*
X174699909Y-4731740D01*
X175174577Y-4414577D01*
X175430947Y-4030892D01*
X175527611Y-4235134D01*
X175942577Y-4611041D01*
X176330961Y-4771904D01*
X176553000Y-4649915D01*
X176553000Y-3507000D01*
X176533000Y-3507000D01*
X176533000Y-3253000D01*
X176553000Y-3253000D01*
X176553000Y-2110085D01*
X176330961Y-1988096D01*
X175942577Y-2148959D01*
X175527611Y-2524866D01*
X175430947Y-2729108D01*
X175174577Y-2345423D01*
X174699909Y-2028260D01*
X174281333Y-1945000D01*
X173998667Y-1945000D01*
X173580091Y-2028260D01*
X173105423Y-2345423D01*
X172921957Y-2620000D01*
X172818043Y-2620000D01*
X172634577Y-2345423D01*
X172159909Y-2028260D01*
X171741333Y-1945000D01*
X171458667Y-1945000D01*
X171040091Y-2028260D01*
X170565423Y-2345423D01*
X170248260Y-2820091D01*
X170136887Y-3380000D01*
X167184702Y-3380000D01*
X166690231Y-2885530D01*
X166647829Y-2822071D01*
X166396437Y-2654096D01*
X166174752Y-2610000D01*
X166174747Y-2610000D01*
X166099900Y-2595112D01*
X166025053Y-2610000D01*
X156642106Y-2610000D01*
X156934577Y-2414577D01*
X157251740Y-1939909D01*
X157363113Y-1380000D01*
X157251740Y-820091D01*
X157194884Y-735000D01*
X211105116Y-735000D01*
X211048260Y-820091D01*
G36*
X77713699Y-7871200D02*
X75050808Y-7871200D01*
X75007747Y-7828139D01*
X75253864Y-7754005D01*
X75446965Y-7216777D01*
X75419778Y-6646546D01*
X75253864Y-6245995D01*
X75007745Y-6171861D01*
X74179605Y-7000000D01*
X74193748Y-7014142D01*
X74014142Y-7193748D01*
X74000000Y-7179605D01*
X73985858Y-7193748D01*
X73806252Y-7014142D01*
X73820395Y-7000000D01*
X72992255Y-6171861D01*
X72746136Y-6245995D01*
X72553035Y-6783223D01*
X72580222Y-7353454D01*
X72746136Y-7754005D01*
X72992253Y-7828139D01*
X72949192Y-7871200D01*
X70158196Y-7871200D01*
X70216534Y-7812862D01*
X70435000Y-7285439D01*
X70435000Y-6714561D01*
X70413103Y-6661698D01*
X71082546Y-5992255D01*
X73171861Y-5992255D01*
X74000000Y-6820395D01*
X74828139Y-5992255D01*
X74754005Y-5746136D01*
X74216777Y-5553035D01*
X73646546Y-5580222D01*
X73245995Y-5746136D01*
X73171861Y-5992255D01*
X71082546Y-5992255D01*
X71809502Y-5265300D01*
X80319598Y-5265300D01*
X77713699Y-7871200D01*
X77713699Y-7871200D01*
G37*
X77713699Y-7871200D02*
X75050808Y-7871200D01*
X75007747Y-7828139D01*
X75253864Y-7754005D01*
X75446965Y-7216777D01*
X75419778Y-6646546D01*
X75253864Y-6245995D01*
X75007745Y-6171861D01*
X74179605Y-7000000D01*
X74193748Y-7014142D01*
X74014142Y-7193748D01*
X74000000Y-7179605D01*
X73985858Y-7193748D01*
X73806252Y-7014142D01*
X73820395Y-7000000D01*
X72992255Y-6171861D01*
X72746136Y-6245995D01*
X72553035Y-6783223D01*
X72580222Y-7353454D01*
X72746136Y-7754005D01*
X72992253Y-7828139D01*
X72949192Y-7871200D01*
X70158196Y-7871200D01*
X70216534Y-7812862D01*
X70435000Y-7285439D01*
X70435000Y-6714561D01*
X70413103Y-6661698D01*
X71082546Y-5992255D01*
X73171861Y-5992255D01*
X74000000Y-6820395D01*
X74828139Y-5992255D01*
X74754005Y-5746136D01*
X74216777Y-5553035D01*
X73646546Y-5580222D01*
X73245995Y-5746136D01*
X73171861Y-5992255D01*
X71082546Y-5992255D01*
X71809502Y-5265300D01*
X80319598Y-5265300D01*
X77713699Y-7871200D01*
G04 #@! TD*
M02*
