G04 #@! TF.GenerationSoftware,KiCad,Pcbnew,(5.0.0)*
G04 #@! TF.CreationDate,2019-01-12T18:13:59+01:00*
G04 #@! TF.ProjectId,1u_complex_bus_frontboard,31755F636F6D706C65785F6275735F66,rev?*
G04 #@! TF.SameCoordinates,Original*
G04 #@! TF.FileFunction,Soldermask,Bot*
G04 #@! TF.FilePolarity,Negative*
%FSLAX46Y46*%
G04 Gerber Fmt 4.6, Leading zero omitted, Abs format (unit mm)*
G04 Created by KiCad (PCBNEW (5.0.0)) date 01/12/19 18:13:59*
%MOMM*%
%LPD*%
G01*
G04 APERTURE LIST*
%ADD10R,2.200000X2.200000*%
%ADD11C,2.200000*%
%ADD12O,2.100000X2.100000*%
%ADD13R,2.100000X2.100000*%
%ADD14C,3.600000*%
%ADD15C,2.048460*%
G04 APERTURE END LIST*
D10*
G04 #@! TO.C,D_POS_1_3*
X276750000Y-6500000D03*
D11*
X279290000Y-6500000D03*
G04 #@! TD*
D10*
G04 #@! TO.C,D_POS_3_3*
X336750000Y-6500000D03*
D11*
X339290000Y-6500000D03*
G04 #@! TD*
D10*
G04 #@! TO.C,D_POS_2_3*
X306750000Y-6500000D03*
D11*
X309290000Y-6500000D03*
G04 #@! TD*
D10*
G04 #@! TO.C,D_NEG_2_4*
X426750000Y-13500000D03*
D11*
X429290000Y-13500000D03*
G04 #@! TD*
D10*
G04 #@! TO.C,D_NEG_3_3*
X336750000Y-13500000D03*
D11*
X339290000Y-13500000D03*
G04 #@! TD*
D10*
G04 #@! TO.C,D_NEG_4_2*
X246750000Y-13500000D03*
D11*
X249290000Y-13500000D03*
G04 #@! TD*
G04 #@! TO.C,D_POS_1_1*
X39290000Y-6500000D03*
D10*
X36750000Y-6500000D03*
G04 #@! TD*
G04 #@! TO.C,D_POS_1_2*
X156750000Y-6500000D03*
D11*
X159290000Y-6500000D03*
G04 #@! TD*
G04 #@! TO.C,D_POS_2_2*
X189290000Y-6500000D03*
D10*
X186750000Y-6500000D03*
G04 #@! TD*
D11*
G04 #@! TO.C,D_NEG_3_1*
X99290000Y-13500000D03*
D10*
X96750000Y-13500000D03*
G04 #@! TD*
D11*
G04 #@! TO.C,D_POS_3_1*
X99290000Y-6500000D03*
D10*
X96750000Y-6500000D03*
G04 #@! TD*
D11*
G04 #@! TO.C,D_POS_2_1*
X69290000Y-6500000D03*
D10*
X66750000Y-6500000D03*
G04 #@! TD*
D11*
G04 #@! TO.C,D_NEG_3_2*
X219290000Y-13500000D03*
D10*
X216750000Y-13500000D03*
G04 #@! TD*
G04 #@! TO.C,D_NEG_4_1*
X126750000Y-13500000D03*
D11*
X129290000Y-13500000D03*
G04 #@! TD*
G04 #@! TO.C,D_POS_3_2*
X219290000Y-6500000D03*
D10*
X216750000Y-6500000D03*
G04 #@! TD*
D11*
G04 #@! TO.C,D_NEG_2_3*
X309290000Y-13500000D03*
D10*
X306750000Y-13500000D03*
G04 #@! TD*
D11*
G04 #@! TO.C,D_NEG_4_3*
X369290000Y-13500000D03*
D10*
X366750000Y-13500000D03*
G04 #@! TD*
D11*
G04 #@! TO.C,D_POS_2_4*
X429290000Y-6500000D03*
D10*
X426750000Y-6500000D03*
G04 #@! TD*
D12*
G04 #@! TO.C,J_FB2*
X15160000Y-16040000D03*
X15160000Y-13500000D03*
X12620000Y-16040000D03*
X12620000Y-13500000D03*
X10080000Y-16040000D03*
X10080000Y-13500000D03*
X7540000Y-16040000D03*
X7540000Y-13500000D03*
X5000000Y-16040000D03*
D13*
X5000000Y-13500000D03*
G04 #@! TD*
D10*
G04 #@! TO.C,D_NEG_2_2*
X186750000Y-13500000D03*
D11*
X189290000Y-13500000D03*
G04 #@! TD*
D10*
G04 #@! TO.C,D_NEG_4_4*
X486750000Y-13500000D03*
D11*
X489290000Y-13500000D03*
G04 #@! TD*
G04 #@! TO.C,D_NEG_1_1*
X39290000Y-13500000D03*
D10*
X36750000Y-13500000D03*
G04 #@! TD*
G04 #@! TO.C,D_POS_4_3*
X366750000Y-6500000D03*
D11*
X369290000Y-6500000D03*
G04 #@! TD*
D13*
G04 #@! TO.C,J_FB3*
X510000000Y-4000000D03*
D12*
X510000000Y-6540000D03*
X512540000Y-4000000D03*
X512540000Y-6540000D03*
X515080000Y-4000000D03*
X515080000Y-6540000D03*
X517620000Y-4000000D03*
X517620000Y-6540000D03*
X520160000Y-4000000D03*
X520160000Y-6540000D03*
G04 #@! TD*
D13*
G04 #@! TO.C,J_FB4*
X510000000Y-13500000D03*
D12*
X510000000Y-16040000D03*
X512540000Y-13500000D03*
X512540000Y-16040000D03*
X515080000Y-13500000D03*
X515080000Y-16040000D03*
X517620000Y-13500000D03*
X517620000Y-16040000D03*
X520160000Y-13500000D03*
X520160000Y-16040000D03*
G04 #@! TD*
D10*
G04 #@! TO.C,D_NEG_2_1*
X66750000Y-13500000D03*
D11*
X69290000Y-13500000D03*
G04 #@! TD*
G04 #@! TO.C,D_POS_4_2*
X249290000Y-6500000D03*
D10*
X246750000Y-6500000D03*
G04 #@! TD*
G04 #@! TO.C,D_NEG_3_4*
X456750000Y-13500000D03*
D11*
X459290000Y-13500000D03*
G04 #@! TD*
D10*
G04 #@! TO.C,D_POS_3_4*
X456750000Y-6500000D03*
D11*
X459290000Y-6500000D03*
G04 #@! TD*
G04 #@! TO.C,D_POS_4_4*
X489290000Y-6500000D03*
D10*
X486750000Y-6500000D03*
G04 #@! TD*
D11*
G04 #@! TO.C,D_POS_4_1*
X129290000Y-6500000D03*
D10*
X126750000Y-6500000D03*
G04 #@! TD*
D13*
G04 #@! TO.C,J_FB1*
X5000000Y-4000000D03*
D12*
X5000000Y-6540000D03*
X7540000Y-4000000D03*
X7540000Y-6540000D03*
X10080000Y-4000000D03*
X10080000Y-6540000D03*
X12620000Y-4000000D03*
X12620000Y-6540000D03*
X15160000Y-4000000D03*
X15160000Y-6540000D03*
X17700000Y-4000000D03*
X17700000Y-6540000D03*
G04 #@! TD*
D14*
G04 #@! TO.C,U_IN_2_1*
X61000000Y-10000000D03*
D15*
X61000000Y-16499860D03*
X61000000Y-13497580D03*
X61000000Y-5001280D03*
G04 #@! TD*
D14*
G04 #@! TO.C,U_IN_2_3*
X301000000Y-10000000D03*
D15*
X301000000Y-16499860D03*
X301000000Y-13497580D03*
X301000000Y-5001280D03*
G04 #@! TD*
D14*
G04 #@! TO.C,U_IN_4_2*
X241000000Y-10000000D03*
D15*
X241000000Y-16499860D03*
X241000000Y-13497580D03*
X241000000Y-5001280D03*
G04 #@! TD*
G04 #@! TO.C,U_IN_1_3*
X271000000Y-5001280D03*
X271000000Y-13497580D03*
X271000000Y-16499860D03*
D14*
X271000000Y-10000000D03*
G04 #@! TD*
G04 #@! TO.C,U_OUT_1_1*
X45000000Y-10000000D03*
D15*
X45000000Y-16499860D03*
X45000000Y-13497580D03*
X45000000Y-5001280D03*
G04 #@! TD*
D14*
G04 #@! TO.C,U_IN_1_2*
X151000000Y-10000000D03*
D15*
X151000000Y-16499860D03*
X151000000Y-13497580D03*
X151000000Y-5001280D03*
G04 #@! TD*
G04 #@! TO.C,U_IN_2_2*
X181000000Y-5001280D03*
X181000000Y-13497580D03*
X181000000Y-16499860D03*
D14*
X181000000Y-10000000D03*
G04 #@! TD*
D15*
G04 #@! TO.C,U_IN_2_4*
X421000000Y-5001280D03*
X421000000Y-13497580D03*
X421000000Y-16499860D03*
D14*
X421000000Y-10000000D03*
G04 #@! TD*
D15*
G04 #@! TO.C,U_IN_3_1*
X91000000Y-5001280D03*
X91000000Y-13497580D03*
X91000000Y-16499860D03*
D14*
X91000000Y-10000000D03*
G04 #@! TD*
D15*
G04 #@! TO.C,U_IN_3_2*
X211000000Y-5001280D03*
X211000000Y-13497580D03*
X211000000Y-16499860D03*
D14*
X211000000Y-10000000D03*
G04 #@! TD*
G04 #@! TO.C,U_IN_3_3*
X331000000Y-10000000D03*
D15*
X331000000Y-16499860D03*
X331000000Y-13497580D03*
X331000000Y-5001280D03*
G04 #@! TD*
D14*
G04 #@! TO.C,U_IN_3_4*
X451000000Y-10000000D03*
D15*
X451000000Y-16499860D03*
X451000000Y-13497580D03*
X451000000Y-5001280D03*
G04 #@! TD*
G04 #@! TO.C,U_IN_4_1*
X121000000Y-5001280D03*
X121000000Y-13497580D03*
X121000000Y-16499860D03*
D14*
X121000000Y-10000000D03*
G04 #@! TD*
D15*
G04 #@! TO.C,U_IN_4_3*
X361000000Y-5001280D03*
X361000000Y-13497580D03*
X361000000Y-16499860D03*
D14*
X361000000Y-10000000D03*
G04 #@! TD*
D15*
G04 #@! TO.C,U_IN_4_4*
X481000000Y-5001280D03*
X481000000Y-13497580D03*
X481000000Y-16499860D03*
D14*
X481000000Y-10000000D03*
G04 #@! TD*
G04 #@! TO.C,U_OUT_1_3*
X285000000Y-10000000D03*
D15*
X285000000Y-16499860D03*
X285000000Y-13497580D03*
X285000000Y-5001280D03*
G04 #@! TD*
G04 #@! TO.C,U_OUT_1_4*
X405000000Y-5001280D03*
X405000000Y-13497580D03*
X405000000Y-16499860D03*
D14*
X405000000Y-10000000D03*
G04 #@! TD*
D15*
G04 #@! TO.C,U_OUT_1_2*
X165000000Y-5001280D03*
X165000000Y-13497580D03*
X165000000Y-16499860D03*
D14*
X165000000Y-10000000D03*
G04 #@! TD*
G04 #@! TO.C,U_OUT_2_2*
X195000000Y-10000000D03*
D15*
X195000000Y-16499860D03*
X195000000Y-13497580D03*
X195000000Y-5001280D03*
G04 #@! TD*
G04 #@! TO.C,U_OUT_2_4*
X435000000Y-5001280D03*
X435000000Y-13497580D03*
X435000000Y-16499860D03*
D14*
X435000000Y-10000000D03*
G04 #@! TD*
G04 #@! TO.C,U_OUT_3_1*
X105000000Y-10000000D03*
D15*
X105000000Y-16499860D03*
X105000000Y-13497580D03*
X105000000Y-5001280D03*
G04 #@! TD*
D14*
G04 #@! TO.C,U_OUT_3_2*
X225000000Y-10000000D03*
D15*
X225000000Y-16499860D03*
X225000000Y-13497580D03*
X225000000Y-5001280D03*
G04 #@! TD*
G04 #@! TO.C,U_OUT_3_3*
X345000000Y-5001280D03*
X345000000Y-13497580D03*
X345000000Y-16499860D03*
D14*
X345000000Y-10000000D03*
G04 #@! TD*
G04 #@! TO.C,U_OUT_3_4*
X465000000Y-10000000D03*
D15*
X465000000Y-16499860D03*
X465000000Y-13497580D03*
X465000000Y-5001280D03*
G04 #@! TD*
D14*
G04 #@! TO.C,U_OUT_2_3*
X315000000Y-10000000D03*
D15*
X315000000Y-16499860D03*
X315000000Y-13497580D03*
X315000000Y-5001280D03*
G04 #@! TD*
G04 #@! TO.C,U_OUT_4_1*
X135000000Y-5001280D03*
X135000000Y-13497580D03*
X135000000Y-16499860D03*
D14*
X135000000Y-10000000D03*
G04 #@! TD*
G04 #@! TO.C,U_OUT_4_2*
X255000000Y-10000000D03*
D15*
X255000000Y-16499860D03*
X255000000Y-13497580D03*
X255000000Y-5001280D03*
G04 #@! TD*
G04 #@! TO.C,U_OUT_4_3*
X375000000Y-5001280D03*
X375000000Y-13497580D03*
X375000000Y-16499860D03*
D14*
X375000000Y-10000000D03*
G04 #@! TD*
D15*
G04 #@! TO.C,U_OUT_2_1*
X75000000Y-5001280D03*
X75000000Y-13497580D03*
X75000000Y-16499860D03*
D14*
X75000000Y-10000000D03*
G04 #@! TD*
G04 #@! TO.C,U_OUT_4_4*
X495000000Y-10000000D03*
D15*
X495000000Y-16499860D03*
X495000000Y-13497580D03*
X495000000Y-5001280D03*
G04 #@! TD*
D10*
G04 #@! TO.C,D_NEG_1_2*
X156750000Y-13500000D03*
D11*
X159290000Y-13500000D03*
G04 #@! TD*
G04 #@! TO.C,D_NEG_1_3*
X279290000Y-13500000D03*
D10*
X276750000Y-13500000D03*
G04 #@! TD*
G04 #@! TO.C,D_NEG_1_4*
X396750000Y-13500000D03*
D11*
X399290000Y-13500000D03*
G04 #@! TD*
G04 #@! TO.C,D_POS_1_4*
X399290000Y-6500000D03*
D10*
X396750000Y-6500000D03*
G04 #@! TD*
D14*
G04 #@! TO.C,U_IN_1_1*
X31000000Y-10000000D03*
D15*
X31000000Y-16499860D03*
X31000000Y-13497580D03*
X31000000Y-5001280D03*
G04 #@! TD*
G04 #@! TO.C,U_IN_1_4*
X391000000Y-5001280D03*
X391000000Y-13497580D03*
X391000000Y-16499860D03*
D14*
X391000000Y-10000000D03*
G04 #@! TD*
G04 #@! TO.C,H_FB_1*
X444500000Y-10000000D03*
G04 #@! TD*
G04 #@! TO.C,H_FB_2*
X81500000Y-10000000D03*
G04 #@! TD*
M02*
