G04 #@! TF.GenerationSoftware,KiCad,Pcbnew,(5.0.0)*
G04 #@! TF.CreationDate,2019-01-13T18:35:45+01:00*
G04 #@! TF.ProjectId,1u_complex_bus_mainboard,31755F636F6D706C65785F6275735F6D,rev?*
G04 #@! TF.SameCoordinates,Original*
G04 #@! TF.FileFunction,Legend,Top*
G04 #@! TF.FilePolarity,Positive*
%FSLAX46Y46*%
G04 Gerber Fmt 4.6, Leading zero omitted, Abs format (unit mm)*
G04 Created by KiCad (PCBNEW (5.0.0)) date 01/13/19 18:35:45*
%MOMM*%
%LPD*%
G01*
G04 APERTURE LIST*
%ADD10C,0.150000*%
%ADD11C,0.200000*%
%ADD12C,0.120000*%
G04 APERTURE END LIST*
D10*
X87904761Y-12690476D02*
X87952380Y-12785714D01*
X87952380Y-12976190D01*
X87904761Y-13071428D01*
X87857142Y-13119047D01*
X87761904Y-13166666D01*
X87476190Y-13166666D01*
X87380952Y-13119047D01*
X87333333Y-13071428D01*
X87285714Y-12976190D01*
X87285714Y-12785714D01*
X87333333Y-12690476D01*
X87285714Y-12357142D02*
X87952380Y-12119047D01*
X87285714Y-11880952D01*
X87952380Y-10738095D02*
X86952380Y-10738095D01*
X87333333Y-10738095D02*
X87285714Y-10642857D01*
X87285714Y-10452380D01*
X87333333Y-10357142D01*
X87380952Y-10309523D01*
X87476190Y-10261904D01*
X87761904Y-10261904D01*
X87857142Y-10309523D01*
X87904761Y-10357142D01*
X87952380Y-10452380D01*
X87952380Y-10642857D01*
X87904761Y-10738095D01*
X87285714Y-9404761D02*
X87952380Y-9404761D01*
X87285714Y-9833333D02*
X87809523Y-9833333D01*
X87904761Y-9785714D01*
X87952380Y-9690476D01*
X87952380Y-9547619D01*
X87904761Y-9452380D01*
X87857142Y-9404761D01*
X87904761Y-8976190D02*
X87952380Y-8880952D01*
X87952380Y-8690476D01*
X87904761Y-8595238D01*
X87809523Y-8547619D01*
X87761904Y-8547619D01*
X87666666Y-8595238D01*
X87619047Y-8690476D01*
X87619047Y-8833333D01*
X87571428Y-8928571D01*
X87476190Y-8976190D01*
X87428571Y-8976190D01*
X87333333Y-8928571D01*
X87285714Y-8833333D01*
X87285714Y-8690476D01*
X87333333Y-8595238D01*
X87952380Y-6833333D02*
X87952380Y-7404761D01*
X87952380Y-7119047D02*
X86952380Y-7119047D01*
X87095238Y-7214285D01*
X87190476Y-7309523D01*
X87238095Y-7404761D01*
X166404761Y-12690476D02*
X166452380Y-12785714D01*
X166452380Y-12976190D01*
X166404761Y-13071428D01*
X166357142Y-13119047D01*
X166261904Y-13166666D01*
X165976190Y-13166666D01*
X165880952Y-13119047D01*
X165833333Y-13071428D01*
X165785714Y-12976190D01*
X165785714Y-12785714D01*
X165833333Y-12690476D01*
X165785714Y-12357142D02*
X166452380Y-12119047D01*
X165785714Y-11880952D01*
X166452380Y-10738095D02*
X165452380Y-10738095D01*
X165833333Y-10738095D02*
X165785714Y-10642857D01*
X165785714Y-10452380D01*
X165833333Y-10357142D01*
X165880952Y-10309523D01*
X165976190Y-10261904D01*
X166261904Y-10261904D01*
X166357142Y-10309523D01*
X166404761Y-10357142D01*
X166452380Y-10452380D01*
X166452380Y-10642857D01*
X166404761Y-10738095D01*
X165785714Y-9404761D02*
X166452380Y-9404761D01*
X165785714Y-9833333D02*
X166309523Y-9833333D01*
X166404761Y-9785714D01*
X166452380Y-9690476D01*
X166452380Y-9547619D01*
X166404761Y-9452380D01*
X166357142Y-9404761D01*
X166404761Y-8976190D02*
X166452380Y-8880952D01*
X166452380Y-8690476D01*
X166404761Y-8595238D01*
X166309523Y-8547619D01*
X166261904Y-8547619D01*
X166166666Y-8595238D01*
X166119047Y-8690476D01*
X166119047Y-8833333D01*
X166071428Y-8928571D01*
X165976190Y-8976190D01*
X165928571Y-8976190D01*
X165833333Y-8928571D01*
X165785714Y-8833333D01*
X165785714Y-8690476D01*
X165833333Y-8595238D01*
X165547619Y-7404761D02*
X165500000Y-7357142D01*
X165452380Y-7261904D01*
X165452380Y-7023809D01*
X165500000Y-6928571D01*
X165547619Y-6880952D01*
X165642857Y-6833333D01*
X165738095Y-6833333D01*
X165880952Y-6880952D01*
X166452380Y-7452380D01*
X166452380Y-6833333D01*
X286404761Y-12690476D02*
X286452380Y-12785714D01*
X286452380Y-12976190D01*
X286404761Y-13071428D01*
X286357142Y-13119047D01*
X286261904Y-13166666D01*
X285976190Y-13166666D01*
X285880952Y-13119047D01*
X285833333Y-13071428D01*
X285785714Y-12976190D01*
X285785714Y-12785714D01*
X285833333Y-12690476D01*
X285785714Y-12357142D02*
X286452380Y-12119047D01*
X285785714Y-11880952D01*
X286452380Y-10738095D02*
X285452380Y-10738095D01*
X285833333Y-10738095D02*
X285785714Y-10642857D01*
X285785714Y-10452380D01*
X285833333Y-10357142D01*
X285880952Y-10309523D01*
X285976190Y-10261904D01*
X286261904Y-10261904D01*
X286357142Y-10309523D01*
X286404761Y-10357142D01*
X286452380Y-10452380D01*
X286452380Y-10642857D01*
X286404761Y-10738095D01*
X285785714Y-9404761D02*
X286452380Y-9404761D01*
X285785714Y-9833333D02*
X286309523Y-9833333D01*
X286404761Y-9785714D01*
X286452380Y-9690476D01*
X286452380Y-9547619D01*
X286404761Y-9452380D01*
X286357142Y-9404761D01*
X286404761Y-8976190D02*
X286452380Y-8880952D01*
X286452380Y-8690476D01*
X286404761Y-8595238D01*
X286309523Y-8547619D01*
X286261904Y-8547619D01*
X286166666Y-8595238D01*
X286119047Y-8690476D01*
X286119047Y-8833333D01*
X286071428Y-8928571D01*
X285976190Y-8976190D01*
X285928571Y-8976190D01*
X285833333Y-8928571D01*
X285785714Y-8833333D01*
X285785714Y-8690476D01*
X285833333Y-8595238D01*
X285452380Y-7452380D02*
X285452380Y-6833333D01*
X285833333Y-7166666D01*
X285833333Y-7023809D01*
X285880952Y-6928571D01*
X285928571Y-6880952D01*
X286023809Y-6833333D01*
X286261904Y-6833333D01*
X286357142Y-6880952D01*
X286404761Y-6928571D01*
X286452380Y-7023809D01*
X286452380Y-7309523D01*
X286404761Y-7404761D01*
X286357142Y-7452380D01*
X364404761Y-12690476D02*
X364452380Y-12785714D01*
X364452380Y-12976190D01*
X364404761Y-13071428D01*
X364357142Y-13119047D01*
X364261904Y-13166666D01*
X363976190Y-13166666D01*
X363880952Y-13119047D01*
X363833333Y-13071428D01*
X363785714Y-12976190D01*
X363785714Y-12785714D01*
X363833333Y-12690476D01*
X363785714Y-12357142D02*
X364452380Y-12119047D01*
X363785714Y-11880952D01*
X364452380Y-10738095D02*
X363452380Y-10738095D01*
X363833333Y-10738095D02*
X363785714Y-10642857D01*
X363785714Y-10452380D01*
X363833333Y-10357142D01*
X363880952Y-10309523D01*
X363976190Y-10261904D01*
X364261904Y-10261904D01*
X364357142Y-10309523D01*
X364404761Y-10357142D01*
X364452380Y-10452380D01*
X364452380Y-10642857D01*
X364404761Y-10738095D01*
X363785714Y-9404761D02*
X364452380Y-9404761D01*
X363785714Y-9833333D02*
X364309523Y-9833333D01*
X364404761Y-9785714D01*
X364452380Y-9690476D01*
X364452380Y-9547619D01*
X364404761Y-9452380D01*
X364357142Y-9404761D01*
X364404761Y-8976190D02*
X364452380Y-8880952D01*
X364452380Y-8690476D01*
X364404761Y-8595238D01*
X364309523Y-8547619D01*
X364261904Y-8547619D01*
X364166666Y-8595238D01*
X364119047Y-8690476D01*
X364119047Y-8833333D01*
X364071428Y-8928571D01*
X363976190Y-8976190D01*
X363928571Y-8976190D01*
X363833333Y-8928571D01*
X363785714Y-8833333D01*
X363785714Y-8690476D01*
X363833333Y-8595238D01*
X363785714Y-6928571D02*
X364452380Y-6928571D01*
X363404761Y-7166666D02*
X364119047Y-7404761D01*
X364119047Y-6785714D01*
D11*
X164000000Y-19000000D02*
X164000000Y-1000000D01*
X362000000Y-19000000D02*
X362000000Y-1000000D01*
X263000000Y-1000000D02*
X263000000Y-19000000D01*
D10*
X508166666Y-7785714D02*
X508547619Y-7785714D01*
X508309523Y-7452380D02*
X508309523Y-8309523D01*
X508357142Y-8404761D01*
X508452380Y-8452380D01*
X508547619Y-8452380D01*
X509023809Y-8452380D02*
X508928571Y-8404761D01*
X508880952Y-8357142D01*
X508833333Y-8261904D01*
X508833333Y-7976190D01*
X508880952Y-7880952D01*
X508928571Y-7833333D01*
X509023809Y-7785714D01*
X509166666Y-7785714D01*
X509261904Y-7833333D01*
X509309523Y-7880952D01*
X509357142Y-7976190D01*
X509357142Y-8261904D01*
X509309523Y-8357142D01*
X509261904Y-8404761D01*
X509166666Y-8452380D01*
X509023809Y-8452380D01*
X510547619Y-8452380D02*
X510547619Y-7785714D01*
X510547619Y-7880952D02*
X510595238Y-7833333D01*
X510690476Y-7785714D01*
X510833333Y-7785714D01*
X510928571Y-7833333D01*
X510976190Y-7928571D01*
X510976190Y-8452380D01*
X510976190Y-7928571D02*
X511023809Y-7833333D01*
X511119047Y-7785714D01*
X511261904Y-7785714D01*
X511357142Y-7833333D01*
X511404761Y-7928571D01*
X511404761Y-8452380D01*
X512309523Y-8452380D02*
X512309523Y-7928571D01*
X512261904Y-7833333D01*
X512166666Y-7785714D01*
X511976190Y-7785714D01*
X511880952Y-7833333D01*
X512309523Y-8404761D02*
X512214285Y-8452380D01*
X511976190Y-8452380D01*
X511880952Y-8404761D01*
X511833333Y-8309523D01*
X511833333Y-8214285D01*
X511880952Y-8119047D01*
X511976190Y-8071428D01*
X512214285Y-8071428D01*
X512309523Y-8023809D01*
X512785714Y-8452380D02*
X512785714Y-7785714D01*
X512785714Y-7452380D02*
X512738095Y-7500000D01*
X512785714Y-7547619D01*
X512833333Y-7500000D01*
X512785714Y-7452380D01*
X512785714Y-7547619D01*
X513261904Y-7785714D02*
X513261904Y-8452380D01*
X513261904Y-7880952D02*
X513309523Y-7833333D01*
X513404761Y-7785714D01*
X513547619Y-7785714D01*
X513642857Y-7833333D01*
X513690476Y-7928571D01*
X513690476Y-8452380D01*
X514928571Y-8452380D02*
X514928571Y-7452380D01*
X514928571Y-7833333D02*
X515023809Y-7785714D01*
X515214285Y-7785714D01*
X515309523Y-7833333D01*
X515357142Y-7880952D01*
X515404761Y-7976190D01*
X515404761Y-8261904D01*
X515357142Y-8357142D01*
X515309523Y-8404761D01*
X515214285Y-8452380D01*
X515023809Y-8452380D01*
X514928571Y-8404761D01*
X515976190Y-8452380D02*
X515880952Y-8404761D01*
X515833333Y-8357142D01*
X515785714Y-8261904D01*
X515785714Y-7976190D01*
X515833333Y-7880952D01*
X515880952Y-7833333D01*
X515976190Y-7785714D01*
X516119047Y-7785714D01*
X516214285Y-7833333D01*
X516261904Y-7880952D01*
X516309523Y-7976190D01*
X516309523Y-8261904D01*
X516261904Y-8357142D01*
X516214285Y-8404761D01*
X516119047Y-8452380D01*
X515976190Y-8452380D01*
X517166666Y-8452380D02*
X517166666Y-7928571D01*
X517119047Y-7833333D01*
X517023809Y-7785714D01*
X516833333Y-7785714D01*
X516738095Y-7833333D01*
X517166666Y-8404761D02*
X517071428Y-8452380D01*
X516833333Y-8452380D01*
X516738095Y-8404761D01*
X516690476Y-8309523D01*
X516690476Y-8214285D01*
X516738095Y-8119047D01*
X516833333Y-8071428D01*
X517071428Y-8071428D01*
X517166666Y-8023809D01*
X517642857Y-8452380D02*
X517642857Y-7785714D01*
X517642857Y-7976190D02*
X517690476Y-7880952D01*
X517738095Y-7833333D01*
X517833333Y-7785714D01*
X517928571Y-7785714D01*
X518690476Y-8452380D02*
X518690476Y-7452380D01*
X518690476Y-8404761D02*
X518595238Y-8452380D01*
X518404761Y-8452380D01*
X518309523Y-8404761D01*
X518261904Y-8357142D01*
X518214285Y-8261904D01*
X518214285Y-7976190D01*
X518261904Y-7880952D01*
X518309523Y-7833333D01*
X518404761Y-7785714D01*
X518595238Y-7785714D01*
X518690476Y-7833333D01*
D12*
G04 #@! TO.C,C1*
X64120000Y-15000000D02*
G75*
G03X64120000Y-15000000I-2120000J0D01*
G01*
X62000000Y-12920000D02*
X62000000Y-17080000D01*
X62040000Y-12920000D02*
X62040000Y-17080000D01*
X62080000Y-12921000D02*
X62080000Y-17079000D01*
X62120000Y-12923000D02*
X62120000Y-17077000D01*
X62160000Y-12926000D02*
X62160000Y-17074000D01*
X62200000Y-12929000D02*
X62200000Y-14160000D01*
X62200000Y-15840000D02*
X62200000Y-17071000D01*
X62240000Y-12933000D02*
X62240000Y-14160000D01*
X62240000Y-15840000D02*
X62240000Y-17067000D01*
X62280000Y-12938000D02*
X62280000Y-14160000D01*
X62280000Y-15840000D02*
X62280000Y-17062000D01*
X62320000Y-12944000D02*
X62320000Y-14160000D01*
X62320000Y-15840000D02*
X62320000Y-17056000D01*
X62360000Y-12950000D02*
X62360000Y-14160000D01*
X62360000Y-15840000D02*
X62360000Y-17050000D01*
X62400000Y-12958000D02*
X62400000Y-14160000D01*
X62400000Y-15840000D02*
X62400000Y-17042000D01*
X62440000Y-12966000D02*
X62440000Y-14160000D01*
X62440000Y-15840000D02*
X62440000Y-17034000D01*
X62480000Y-12975000D02*
X62480000Y-14160000D01*
X62480000Y-15840000D02*
X62480000Y-17025000D01*
X62520000Y-12984000D02*
X62520000Y-14160000D01*
X62520000Y-15840000D02*
X62520000Y-17016000D01*
X62560000Y-12995000D02*
X62560000Y-14160000D01*
X62560000Y-15840000D02*
X62560000Y-17005000D01*
X62600000Y-13006000D02*
X62600000Y-14160000D01*
X62600000Y-15840000D02*
X62600000Y-16994000D01*
X62640000Y-13018000D02*
X62640000Y-14160000D01*
X62640000Y-15840000D02*
X62640000Y-16982000D01*
X62680000Y-13032000D02*
X62680000Y-14160000D01*
X62680000Y-15840000D02*
X62680000Y-16968000D01*
X62721000Y-13046000D02*
X62721000Y-14160000D01*
X62721000Y-15840000D02*
X62721000Y-16954000D01*
X62761000Y-13060000D02*
X62761000Y-14160000D01*
X62761000Y-15840000D02*
X62761000Y-16940000D01*
X62801000Y-13076000D02*
X62801000Y-14160000D01*
X62801000Y-15840000D02*
X62801000Y-16924000D01*
X62841000Y-13093000D02*
X62841000Y-14160000D01*
X62841000Y-15840000D02*
X62841000Y-16907000D01*
X62881000Y-13111000D02*
X62881000Y-14160000D01*
X62881000Y-15840000D02*
X62881000Y-16889000D01*
X62921000Y-13130000D02*
X62921000Y-14160000D01*
X62921000Y-15840000D02*
X62921000Y-16870000D01*
X62961000Y-13149000D02*
X62961000Y-14160000D01*
X62961000Y-15840000D02*
X62961000Y-16851000D01*
X63001000Y-13170000D02*
X63001000Y-14160000D01*
X63001000Y-15840000D02*
X63001000Y-16830000D01*
X63041000Y-13192000D02*
X63041000Y-14160000D01*
X63041000Y-15840000D02*
X63041000Y-16808000D01*
X63081000Y-13215000D02*
X63081000Y-14160000D01*
X63081000Y-15840000D02*
X63081000Y-16785000D01*
X63121000Y-13240000D02*
X63121000Y-14160000D01*
X63121000Y-15840000D02*
X63121000Y-16760000D01*
X63161000Y-13265000D02*
X63161000Y-14160000D01*
X63161000Y-15840000D02*
X63161000Y-16735000D01*
X63201000Y-13292000D02*
X63201000Y-14160000D01*
X63201000Y-15840000D02*
X63201000Y-16708000D01*
X63241000Y-13320000D02*
X63241000Y-14160000D01*
X63241000Y-15840000D02*
X63241000Y-16680000D01*
X63281000Y-13350000D02*
X63281000Y-14160000D01*
X63281000Y-15840000D02*
X63281000Y-16650000D01*
X63321000Y-13381000D02*
X63321000Y-14160000D01*
X63321000Y-15840000D02*
X63321000Y-16619000D01*
X63361000Y-13413000D02*
X63361000Y-14160000D01*
X63361000Y-15840000D02*
X63361000Y-16587000D01*
X63401000Y-13448000D02*
X63401000Y-14160000D01*
X63401000Y-15840000D02*
X63401000Y-16552000D01*
X63441000Y-13484000D02*
X63441000Y-14160000D01*
X63441000Y-15840000D02*
X63441000Y-16516000D01*
X63481000Y-13522000D02*
X63481000Y-14160000D01*
X63481000Y-15840000D02*
X63481000Y-16478000D01*
X63521000Y-13562000D02*
X63521000Y-14160000D01*
X63521000Y-15840000D02*
X63521000Y-16438000D01*
X63561000Y-13604000D02*
X63561000Y-14160000D01*
X63561000Y-15840000D02*
X63561000Y-16396000D01*
X63601000Y-13649000D02*
X63601000Y-14160000D01*
X63601000Y-15840000D02*
X63601000Y-16351000D01*
X63641000Y-13696000D02*
X63641000Y-14160000D01*
X63641000Y-15840000D02*
X63641000Y-16304000D01*
X63681000Y-13746000D02*
X63681000Y-14160000D01*
X63681000Y-15840000D02*
X63681000Y-16254000D01*
X63721000Y-13800000D02*
X63721000Y-14160000D01*
X63721000Y-15840000D02*
X63721000Y-16200000D01*
X63761000Y-13858000D02*
X63761000Y-14160000D01*
X63761000Y-15840000D02*
X63761000Y-16142000D01*
X63801000Y-13920000D02*
X63801000Y-14160000D01*
X63801000Y-15840000D02*
X63801000Y-16080000D01*
X63841000Y-13987000D02*
X63841000Y-16013000D01*
X63881000Y-14060000D02*
X63881000Y-15940000D01*
X63921000Y-14141000D02*
X63921000Y-15859000D01*
X63961000Y-14232000D02*
X63961000Y-15768000D01*
X64001000Y-14336000D02*
X64001000Y-15664000D01*
X64041000Y-14463000D02*
X64041000Y-15537000D01*
X64081000Y-14630000D02*
X64081000Y-15370000D01*
X59730199Y-13805000D02*
X60130199Y-13805000D01*
X59930199Y-13605000D02*
X59930199Y-14005000D01*
G04 #@! TO.C,C2*
X59930199Y-3605000D02*
X59930199Y-4005000D01*
X59730199Y-3805000D02*
X60130199Y-3805000D01*
X64081000Y-4630000D02*
X64081000Y-5370000D01*
X64041000Y-4463000D02*
X64041000Y-5537000D01*
X64001000Y-4336000D02*
X64001000Y-5664000D01*
X63961000Y-4232000D02*
X63961000Y-5768000D01*
X63921000Y-4141000D02*
X63921000Y-5859000D01*
X63881000Y-4060000D02*
X63881000Y-5940000D01*
X63841000Y-3987000D02*
X63841000Y-6013000D01*
X63801000Y-5840000D02*
X63801000Y-6080000D01*
X63801000Y-3920000D02*
X63801000Y-4160000D01*
X63761000Y-5840000D02*
X63761000Y-6142000D01*
X63761000Y-3858000D02*
X63761000Y-4160000D01*
X63721000Y-5840000D02*
X63721000Y-6200000D01*
X63721000Y-3800000D02*
X63721000Y-4160000D01*
X63681000Y-5840000D02*
X63681000Y-6254000D01*
X63681000Y-3746000D02*
X63681000Y-4160000D01*
X63641000Y-5840000D02*
X63641000Y-6304000D01*
X63641000Y-3696000D02*
X63641000Y-4160000D01*
X63601000Y-5840000D02*
X63601000Y-6351000D01*
X63601000Y-3649000D02*
X63601000Y-4160000D01*
X63561000Y-5840000D02*
X63561000Y-6396000D01*
X63561000Y-3604000D02*
X63561000Y-4160000D01*
X63521000Y-5840000D02*
X63521000Y-6438000D01*
X63521000Y-3562000D02*
X63521000Y-4160000D01*
X63481000Y-5840000D02*
X63481000Y-6478000D01*
X63481000Y-3522000D02*
X63481000Y-4160000D01*
X63441000Y-5840000D02*
X63441000Y-6516000D01*
X63441000Y-3484000D02*
X63441000Y-4160000D01*
X63401000Y-5840000D02*
X63401000Y-6552000D01*
X63401000Y-3448000D02*
X63401000Y-4160000D01*
X63361000Y-5840000D02*
X63361000Y-6587000D01*
X63361000Y-3413000D02*
X63361000Y-4160000D01*
X63321000Y-5840000D02*
X63321000Y-6619000D01*
X63321000Y-3381000D02*
X63321000Y-4160000D01*
X63281000Y-5840000D02*
X63281000Y-6650000D01*
X63281000Y-3350000D02*
X63281000Y-4160000D01*
X63241000Y-5840000D02*
X63241000Y-6680000D01*
X63241000Y-3320000D02*
X63241000Y-4160000D01*
X63201000Y-5840000D02*
X63201000Y-6708000D01*
X63201000Y-3292000D02*
X63201000Y-4160000D01*
X63161000Y-5840000D02*
X63161000Y-6735000D01*
X63161000Y-3265000D02*
X63161000Y-4160000D01*
X63121000Y-5840000D02*
X63121000Y-6760000D01*
X63121000Y-3240000D02*
X63121000Y-4160000D01*
X63081000Y-5840000D02*
X63081000Y-6785000D01*
X63081000Y-3215000D02*
X63081000Y-4160000D01*
X63041000Y-5840000D02*
X63041000Y-6808000D01*
X63041000Y-3192000D02*
X63041000Y-4160000D01*
X63001000Y-5840000D02*
X63001000Y-6830000D01*
X63001000Y-3170000D02*
X63001000Y-4160000D01*
X62961000Y-5840000D02*
X62961000Y-6851000D01*
X62961000Y-3149000D02*
X62961000Y-4160000D01*
X62921000Y-5840000D02*
X62921000Y-6870000D01*
X62921000Y-3130000D02*
X62921000Y-4160000D01*
X62881000Y-5840000D02*
X62881000Y-6889000D01*
X62881000Y-3111000D02*
X62881000Y-4160000D01*
X62841000Y-5840000D02*
X62841000Y-6907000D01*
X62841000Y-3093000D02*
X62841000Y-4160000D01*
X62801000Y-5840000D02*
X62801000Y-6924000D01*
X62801000Y-3076000D02*
X62801000Y-4160000D01*
X62761000Y-5840000D02*
X62761000Y-6940000D01*
X62761000Y-3060000D02*
X62761000Y-4160000D01*
X62721000Y-5840000D02*
X62721000Y-6954000D01*
X62721000Y-3046000D02*
X62721000Y-4160000D01*
X62680000Y-5840000D02*
X62680000Y-6968000D01*
X62680000Y-3032000D02*
X62680000Y-4160000D01*
X62640000Y-5840000D02*
X62640000Y-6982000D01*
X62640000Y-3018000D02*
X62640000Y-4160000D01*
X62600000Y-5840000D02*
X62600000Y-6994000D01*
X62600000Y-3006000D02*
X62600000Y-4160000D01*
X62560000Y-5840000D02*
X62560000Y-7005000D01*
X62560000Y-2995000D02*
X62560000Y-4160000D01*
X62520000Y-5840000D02*
X62520000Y-7016000D01*
X62520000Y-2984000D02*
X62520000Y-4160000D01*
X62480000Y-5840000D02*
X62480000Y-7025000D01*
X62480000Y-2975000D02*
X62480000Y-4160000D01*
X62440000Y-5840000D02*
X62440000Y-7034000D01*
X62440000Y-2966000D02*
X62440000Y-4160000D01*
X62400000Y-5840000D02*
X62400000Y-7042000D01*
X62400000Y-2958000D02*
X62400000Y-4160000D01*
X62360000Y-5840000D02*
X62360000Y-7050000D01*
X62360000Y-2950000D02*
X62360000Y-4160000D01*
X62320000Y-5840000D02*
X62320000Y-7056000D01*
X62320000Y-2944000D02*
X62320000Y-4160000D01*
X62280000Y-5840000D02*
X62280000Y-7062000D01*
X62280000Y-2938000D02*
X62280000Y-4160000D01*
X62240000Y-5840000D02*
X62240000Y-7067000D01*
X62240000Y-2933000D02*
X62240000Y-4160000D01*
X62200000Y-5840000D02*
X62200000Y-7071000D01*
X62200000Y-2929000D02*
X62200000Y-4160000D01*
X62160000Y-2926000D02*
X62160000Y-7074000D01*
X62120000Y-2923000D02*
X62120000Y-7077000D01*
X62080000Y-2921000D02*
X62080000Y-7079000D01*
X62040000Y-2920000D02*
X62040000Y-7080000D01*
X62000000Y-2920000D02*
X62000000Y-7080000D01*
X64120000Y-5000000D02*
G75*
G03X64120000Y-5000000I-2120000J0D01*
G01*
G04 #@! TO.C,C3*
X67880000Y-11630000D02*
X75120000Y-11630000D01*
X67880000Y-14370000D02*
X75120000Y-14370000D01*
X67880000Y-11630000D02*
X67880000Y-14370000D01*
X75120000Y-11630000D02*
X75120000Y-14370000D01*
G04 #@! TO.C,C4*
X67880000Y-8370000D02*
X67880000Y-5630000D01*
X75120000Y-8370000D02*
X75120000Y-5630000D01*
X75120000Y-5630000D02*
X67880000Y-5630000D01*
X75120000Y-8370000D02*
X67880000Y-8370000D01*
G04 #@! TO.C,D1*
X39640000Y-10530000D02*
X39640000Y-13470000D01*
X39880000Y-10530000D02*
X39880000Y-13470000D01*
X39760000Y-10530000D02*
X39760000Y-13470000D01*
X45320000Y-12000000D02*
X44300000Y-12000000D01*
X37840000Y-12000000D02*
X38860000Y-12000000D01*
X44300000Y-10530000D02*
X38860000Y-10530000D01*
X44300000Y-13470000D02*
X44300000Y-10530000D01*
X38860000Y-13470000D02*
X44300000Y-13470000D01*
X38860000Y-10530000D02*
X38860000Y-13470000D01*
G04 #@! TO.C,D2*
X38860000Y-6030000D02*
X38860000Y-8970000D01*
X38860000Y-8970000D02*
X44300000Y-8970000D01*
X44300000Y-8970000D02*
X44300000Y-6030000D01*
X44300000Y-6030000D02*
X38860000Y-6030000D01*
X37840000Y-7500000D02*
X38860000Y-7500000D01*
X45320000Y-7500000D02*
X44300000Y-7500000D01*
X39760000Y-6030000D02*
X39760000Y-8970000D01*
X39880000Y-6030000D02*
X39880000Y-8970000D01*
X39640000Y-6030000D02*
X39640000Y-8970000D01*
G04 #@! TO.C,R_FUSE_1*
X45460000Y-17540000D02*
X45460000Y-17870000D01*
X45460000Y-17870000D02*
X38920000Y-17870000D01*
X38920000Y-17870000D02*
X38920000Y-17540000D01*
X45460000Y-15460000D02*
X45460000Y-15130000D01*
X45460000Y-15130000D02*
X38920000Y-15130000D01*
X38920000Y-15130000D02*
X38920000Y-15460000D01*
G04 #@! TO.C,R_FUSE_2*
X38920000Y-2130000D02*
X38920000Y-2460000D01*
X45460000Y-2130000D02*
X38920000Y-2130000D01*
X45460000Y-2460000D02*
X45460000Y-2130000D01*
X38920000Y-4870000D02*
X38920000Y-4540000D01*
X45460000Y-4870000D02*
X38920000Y-4870000D01*
X45460000Y-4540000D02*
X45460000Y-4870000D01*
G04 #@! TO.C,C5*
X131620000Y-14630000D02*
X131620000Y-17370000D01*
X124380000Y-14630000D02*
X124380000Y-17370000D01*
X124380000Y-17370000D02*
X131620000Y-17370000D01*
X124380000Y-14630000D02*
X131620000Y-14630000D01*
G04 #@! TO.C,C6*
X197280000Y-14630000D02*
X204520000Y-14630000D01*
X197280000Y-17370000D02*
X204520000Y-17370000D01*
X197280000Y-14630000D02*
X197280000Y-17370000D01*
X204520000Y-14630000D02*
X204520000Y-17370000D01*
G04 #@! TO.C,C7*
X322520000Y-15130000D02*
X322520000Y-17870000D01*
X315280000Y-15130000D02*
X315280000Y-17870000D01*
X315280000Y-17870000D02*
X322520000Y-17870000D01*
X315280000Y-15130000D02*
X322520000Y-15130000D01*
G04 #@! TO.C,C8*
X393480000Y-15130000D02*
X400720000Y-15130000D01*
X393480000Y-17870000D02*
X400720000Y-17870000D01*
X393480000Y-15130000D02*
X393480000Y-17870000D01*
X400720000Y-15130000D02*
X400720000Y-17870000D01*
G04 #@! TO.C,J_MB2.1*
X110630000Y-3670000D02*
X113230000Y-3670000D01*
X110630000Y-3670000D02*
X110630000Y-16490000D01*
X110630000Y-16490000D02*
X115830000Y-16490000D01*
X115830000Y-6270000D02*
X115830000Y-16490000D01*
X113230000Y-6270000D02*
X115830000Y-6270000D01*
X113230000Y-3670000D02*
X113230000Y-6270000D01*
X115830000Y-3670000D02*
X115830000Y-5000000D01*
X114500000Y-3670000D02*
X115830000Y-3670000D01*
G04 #@! TO.C,J_MB3.1*
X410630000Y-3670000D02*
X413230000Y-3670000D01*
X410630000Y-3670000D02*
X410630000Y-16490000D01*
X410630000Y-16490000D02*
X415830000Y-16490000D01*
X415830000Y-6270000D02*
X415830000Y-16490000D01*
X413230000Y-6270000D02*
X415830000Y-6270000D01*
X413230000Y-3670000D02*
X413230000Y-6270000D01*
X415830000Y-3670000D02*
X415830000Y-5000000D01*
X414500000Y-3670000D02*
X415830000Y-3670000D01*
G04 #@! TO.C,J_MB4.1*
X474500000Y-3670000D02*
X475830000Y-3670000D01*
X475830000Y-3670000D02*
X475830000Y-5000000D01*
X473230000Y-3670000D02*
X473230000Y-6270000D01*
X473230000Y-6270000D02*
X475830000Y-6270000D01*
X475830000Y-6270000D02*
X475830000Y-16490000D01*
X470630000Y-16490000D02*
X475830000Y-16490000D01*
X470630000Y-3670000D02*
X470630000Y-16490000D01*
X470630000Y-3670000D02*
X473230000Y-3670000D01*
G04 #@! TO.C,R2*
X99040000Y-15460000D02*
X99040000Y-15130000D01*
X99040000Y-15130000D02*
X105580000Y-15130000D01*
X105580000Y-15130000D02*
X105580000Y-15460000D01*
X99040000Y-17540000D02*
X99040000Y-17870000D01*
X99040000Y-17870000D02*
X105580000Y-17870000D01*
X105580000Y-17870000D02*
X105580000Y-17540000D01*
G04 #@! TO.C,R4*
X180540000Y-15960000D02*
X180540000Y-15630000D01*
X180540000Y-15630000D02*
X187080000Y-15630000D01*
X187080000Y-15630000D02*
X187080000Y-15960000D01*
X180540000Y-18040000D02*
X180540000Y-18370000D01*
X180540000Y-18370000D02*
X187080000Y-18370000D01*
X187080000Y-18370000D02*
X187080000Y-18040000D01*
G04 #@! TO.C,R6*
X301040000Y-15560000D02*
X301040000Y-15230000D01*
X301040000Y-15230000D02*
X307580000Y-15230000D01*
X307580000Y-15230000D02*
X307580000Y-15560000D01*
X301040000Y-17640000D02*
X301040000Y-17970000D01*
X301040000Y-17970000D02*
X307580000Y-17970000D01*
X307580000Y-17970000D02*
X307580000Y-17640000D01*
G04 #@! TO.C,R8*
X385580000Y-17870000D02*
X385580000Y-17540000D01*
X379040000Y-17870000D02*
X385580000Y-17870000D01*
X379040000Y-17540000D02*
X379040000Y-17870000D01*
X385580000Y-15130000D02*
X385580000Y-15460000D01*
X379040000Y-15130000D02*
X385580000Y-15130000D01*
X379040000Y-15460000D02*
X379040000Y-15130000D01*
G04 #@! TO.C,R_IN_1*
X138370000Y-1920000D02*
X138040000Y-1920000D01*
X138370000Y-8460000D02*
X138370000Y-1920000D01*
X138040000Y-8460000D02*
X138370000Y-8460000D01*
X135630000Y-1920000D02*
X135960000Y-1920000D01*
X135630000Y-8460000D02*
X135630000Y-1920000D01*
X135960000Y-8460000D02*
X135630000Y-8460000D01*
G04 #@! TO.C,R_IN_2*
X140660000Y-8460000D02*
X140330000Y-8460000D01*
X140330000Y-8460000D02*
X140330000Y-1920000D01*
X140330000Y-1920000D02*
X140660000Y-1920000D01*
X142740000Y-8460000D02*
X143070000Y-8460000D01*
X143070000Y-8460000D02*
X143070000Y-1920000D01*
X143070000Y-1920000D02*
X142740000Y-1920000D01*
G04 #@! TO.C,R_IN_3*
X145460000Y-8460000D02*
X145130000Y-8460000D01*
X145130000Y-8460000D02*
X145130000Y-1920000D01*
X145130000Y-1920000D02*
X145460000Y-1920000D01*
X147540000Y-8460000D02*
X147870000Y-8460000D01*
X147870000Y-8460000D02*
X147870000Y-1920000D01*
X147870000Y-1920000D02*
X147540000Y-1920000D01*
G04 #@! TO.C,R_IN_4*
X152670000Y-1920000D02*
X152340000Y-1920000D01*
X152670000Y-8460000D02*
X152670000Y-1920000D01*
X152340000Y-8460000D02*
X152670000Y-8460000D01*
X149930000Y-1920000D02*
X150260000Y-1920000D01*
X149930000Y-8460000D02*
X149930000Y-1920000D01*
X150260000Y-8460000D02*
X149930000Y-8460000D01*
G04 #@! TO.C,R_IN_5*
X157270000Y-1920000D02*
X156940000Y-1920000D01*
X157270000Y-8460000D02*
X157270000Y-1920000D01*
X156940000Y-8460000D02*
X157270000Y-8460000D01*
X154530000Y-1920000D02*
X154860000Y-1920000D01*
X154530000Y-8460000D02*
X154530000Y-1920000D01*
X154860000Y-8460000D02*
X154530000Y-8460000D01*
G04 #@! TO.C,R_IN_6*
X213770000Y-1920000D02*
X213440000Y-1920000D01*
X213770000Y-8460000D02*
X213770000Y-1920000D01*
X213440000Y-8460000D02*
X213770000Y-8460000D01*
X211030000Y-1920000D02*
X211360000Y-1920000D01*
X211030000Y-8460000D02*
X211030000Y-1920000D01*
X211360000Y-8460000D02*
X211030000Y-8460000D01*
G04 #@! TO.C,R_IN_7*
X215960000Y-8460000D02*
X215630000Y-8460000D01*
X215630000Y-8460000D02*
X215630000Y-1920000D01*
X215630000Y-1920000D02*
X215960000Y-1920000D01*
X218040000Y-8460000D02*
X218370000Y-8460000D01*
X218370000Y-8460000D02*
X218370000Y-1920000D01*
X218370000Y-1920000D02*
X218040000Y-1920000D01*
G04 #@! TO.C,R_IN_8*
X223170000Y-1920000D02*
X222840000Y-1920000D01*
X223170000Y-8460000D02*
X223170000Y-1920000D01*
X222840000Y-8460000D02*
X223170000Y-8460000D01*
X220430000Y-1920000D02*
X220760000Y-1920000D01*
X220430000Y-8460000D02*
X220430000Y-1920000D01*
X220760000Y-8460000D02*
X220430000Y-8460000D01*
G04 #@! TO.C,R_IN_9*
X225560000Y-8460000D02*
X225230000Y-8460000D01*
X225230000Y-8460000D02*
X225230000Y-1920000D01*
X225230000Y-1920000D02*
X225560000Y-1920000D01*
X227640000Y-8460000D02*
X227970000Y-8460000D01*
X227970000Y-8460000D02*
X227970000Y-1920000D01*
X227970000Y-1920000D02*
X227640000Y-1920000D01*
G04 #@! TO.C,R_IN_10*
X232570000Y-1920000D02*
X232240000Y-1920000D01*
X232570000Y-8460000D02*
X232570000Y-1920000D01*
X232240000Y-8460000D02*
X232570000Y-8460000D01*
X229830000Y-1920000D02*
X230160000Y-1920000D01*
X229830000Y-8460000D02*
X229830000Y-1920000D01*
X230160000Y-8460000D02*
X229830000Y-8460000D01*
G04 #@! TO.C,R_IN_11*
X330970000Y-1920000D02*
X330640000Y-1920000D01*
X330970000Y-8460000D02*
X330970000Y-1920000D01*
X330640000Y-8460000D02*
X330970000Y-8460000D01*
X328230000Y-1920000D02*
X328560000Y-1920000D01*
X328230000Y-8460000D02*
X328230000Y-1920000D01*
X328560000Y-8460000D02*
X328230000Y-8460000D01*
G04 #@! TO.C,R_IN_12*
X335770000Y-1920000D02*
X335440000Y-1920000D01*
X335770000Y-8460000D02*
X335770000Y-1920000D01*
X335440000Y-8460000D02*
X335770000Y-8460000D01*
X333030000Y-1920000D02*
X333360000Y-1920000D01*
X333030000Y-8460000D02*
X333030000Y-1920000D01*
X333360000Y-8460000D02*
X333030000Y-8460000D01*
G04 #@! TO.C,R_IN_13*
X338160000Y-8460000D02*
X337830000Y-8460000D01*
X337830000Y-8460000D02*
X337830000Y-1920000D01*
X337830000Y-1920000D02*
X338160000Y-1920000D01*
X340240000Y-8460000D02*
X340570000Y-8460000D01*
X340570000Y-8460000D02*
X340570000Y-1920000D01*
X340570000Y-1920000D02*
X340240000Y-1920000D01*
G04 #@! TO.C,R_IN_14*
X345370000Y-1920000D02*
X345040000Y-1920000D01*
X345370000Y-8460000D02*
X345370000Y-1920000D01*
X345040000Y-8460000D02*
X345370000Y-8460000D01*
X342630000Y-1920000D02*
X342960000Y-1920000D01*
X342630000Y-8460000D02*
X342630000Y-1920000D01*
X342960000Y-8460000D02*
X342630000Y-8460000D01*
G04 #@! TO.C,R_IN_15*
X347760000Y-8460000D02*
X347430000Y-8460000D01*
X347430000Y-8460000D02*
X347430000Y-1920000D01*
X347430000Y-1920000D02*
X347760000Y-1920000D01*
X349840000Y-8460000D02*
X350170000Y-8460000D01*
X350170000Y-8460000D02*
X350170000Y-1920000D01*
X350170000Y-1920000D02*
X349840000Y-1920000D01*
G04 #@! TO.C,R_IN_16*
X421360000Y-8460000D02*
X421030000Y-8460000D01*
X421030000Y-8460000D02*
X421030000Y-1920000D01*
X421030000Y-1920000D02*
X421360000Y-1920000D01*
X423440000Y-8460000D02*
X423770000Y-8460000D01*
X423770000Y-8460000D02*
X423770000Y-1920000D01*
X423770000Y-1920000D02*
X423440000Y-1920000D01*
G04 #@! TO.C,R_IN_17*
X428570000Y-1920000D02*
X428240000Y-1920000D01*
X428570000Y-8460000D02*
X428570000Y-1920000D01*
X428240000Y-8460000D02*
X428570000Y-8460000D01*
X425830000Y-1920000D02*
X426160000Y-1920000D01*
X425830000Y-8460000D02*
X425830000Y-1920000D01*
X426160000Y-8460000D02*
X425830000Y-8460000D01*
G04 #@! TO.C,R_IN_18*
X430960000Y-8460000D02*
X430630000Y-8460000D01*
X430630000Y-8460000D02*
X430630000Y-1920000D01*
X430630000Y-1920000D02*
X430960000Y-1920000D01*
X433040000Y-8460000D02*
X433370000Y-8460000D01*
X433370000Y-8460000D02*
X433370000Y-1920000D01*
X433370000Y-1920000D02*
X433040000Y-1920000D01*
G04 #@! TO.C,R_IN_19*
X453170000Y-1920000D02*
X452840000Y-1920000D01*
X453170000Y-8460000D02*
X453170000Y-1920000D01*
X452840000Y-8460000D02*
X453170000Y-8460000D01*
X450430000Y-1920000D02*
X450760000Y-1920000D01*
X450430000Y-8460000D02*
X450430000Y-1920000D01*
X450760000Y-8460000D02*
X450430000Y-8460000D01*
G04 #@! TO.C,R_IN_20*
X455560000Y-8460000D02*
X455230000Y-8460000D01*
X455230000Y-8460000D02*
X455230000Y-1920000D01*
X455230000Y-1920000D02*
X455560000Y-1920000D01*
X457640000Y-8460000D02*
X457970000Y-8460000D01*
X457970000Y-8460000D02*
X457970000Y-1920000D01*
X457970000Y-1920000D02*
X457640000Y-1920000D01*
G04 #@! TO.C,R_LED_1_1*
X157460000Y-18080000D02*
X157130000Y-18080000D01*
X157130000Y-18080000D02*
X157130000Y-11540000D01*
X157130000Y-11540000D02*
X157460000Y-11540000D01*
X159540000Y-18080000D02*
X159870000Y-18080000D01*
X159870000Y-18080000D02*
X159870000Y-11540000D01*
X159870000Y-11540000D02*
X159540000Y-11540000D01*
G04 #@! TO.C,R_LED_2_1*
X232760000Y-18060000D02*
X232430000Y-18060000D01*
X232430000Y-18060000D02*
X232430000Y-11520000D01*
X232430000Y-11520000D02*
X232760000Y-11520000D01*
X234840000Y-18060000D02*
X235170000Y-18060000D01*
X235170000Y-18060000D02*
X235170000Y-11520000D01*
X235170000Y-11520000D02*
X234840000Y-11520000D01*
G04 #@! TO.C,R_LED_3_1*
X352570000Y-11520000D02*
X352240000Y-11520000D01*
X352570000Y-18060000D02*
X352570000Y-11520000D01*
X352240000Y-18060000D02*
X352570000Y-18060000D01*
X349830000Y-11520000D02*
X350160000Y-11520000D01*
X349830000Y-18060000D02*
X349830000Y-11520000D01*
X350160000Y-18060000D02*
X349830000Y-18060000D01*
G04 #@! TO.C,R_LED_4_1*
X457960000Y-18060000D02*
X457630000Y-18060000D01*
X457630000Y-18060000D02*
X457630000Y-11520000D01*
X457630000Y-11520000D02*
X457960000Y-11520000D01*
X460040000Y-18060000D02*
X460370000Y-18060000D01*
X460370000Y-18060000D02*
X460370000Y-11520000D01*
X460370000Y-11520000D02*
X460040000Y-11520000D01*
G04 #@! TO.C,R_OUT_1*
X138260000Y-18080000D02*
X137930000Y-18080000D01*
X137930000Y-18080000D02*
X137930000Y-11540000D01*
X137930000Y-11540000D02*
X138260000Y-11540000D01*
X140340000Y-18080000D02*
X140670000Y-18080000D01*
X140670000Y-18080000D02*
X140670000Y-11540000D01*
X140670000Y-11540000D02*
X140340000Y-11540000D01*
G04 #@! TO.C,R_OUT_2*
X145470000Y-11540000D02*
X145140000Y-11540000D01*
X145470000Y-18080000D02*
X145470000Y-11540000D01*
X145140000Y-18080000D02*
X145470000Y-18080000D01*
X142730000Y-11540000D02*
X143060000Y-11540000D01*
X142730000Y-18080000D02*
X142730000Y-11540000D01*
X143060000Y-18080000D02*
X142730000Y-18080000D01*
G04 #@! TO.C,R_OUT_3*
X148060000Y-18080000D02*
X147730000Y-18080000D01*
X147730000Y-18080000D02*
X147730000Y-11540000D01*
X147730000Y-11540000D02*
X148060000Y-11540000D01*
X150140000Y-18080000D02*
X150470000Y-18080000D01*
X150470000Y-18080000D02*
X150470000Y-11540000D01*
X150470000Y-11540000D02*
X150140000Y-11540000D01*
G04 #@! TO.C,R_OUT_4*
X155070000Y-11540000D02*
X154740000Y-11540000D01*
X155070000Y-18080000D02*
X155070000Y-11540000D01*
X154740000Y-18080000D02*
X155070000Y-18080000D01*
X152330000Y-11540000D02*
X152660000Y-11540000D01*
X152330000Y-18080000D02*
X152330000Y-11540000D01*
X152660000Y-18080000D02*
X152330000Y-18080000D01*
G04 #@! TO.C,R_OUT_5*
X213560000Y-18060000D02*
X213230000Y-18060000D01*
X213230000Y-18060000D02*
X213230000Y-11520000D01*
X213230000Y-11520000D02*
X213560000Y-11520000D01*
X215640000Y-18060000D02*
X215970000Y-18060000D01*
X215970000Y-18060000D02*
X215970000Y-11520000D01*
X215970000Y-11520000D02*
X215640000Y-11520000D01*
G04 #@! TO.C,R_OUT_6*
X220770000Y-11520000D02*
X220440000Y-11520000D01*
X220770000Y-18060000D02*
X220770000Y-11520000D01*
X220440000Y-18060000D02*
X220770000Y-18060000D01*
X218030000Y-11520000D02*
X218360000Y-11520000D01*
X218030000Y-18060000D02*
X218030000Y-11520000D01*
X218360000Y-18060000D02*
X218030000Y-18060000D01*
G04 #@! TO.C,R_OUT_7*
X223160000Y-18060000D02*
X222830000Y-18060000D01*
X222830000Y-18060000D02*
X222830000Y-11520000D01*
X222830000Y-11520000D02*
X223160000Y-11520000D01*
X225240000Y-18060000D02*
X225570000Y-18060000D01*
X225570000Y-18060000D02*
X225570000Y-11520000D01*
X225570000Y-11520000D02*
X225240000Y-11520000D01*
G04 #@! TO.C,R_OUT_8*
X230370000Y-11520000D02*
X230040000Y-11520000D01*
X230370000Y-18060000D02*
X230370000Y-11520000D01*
X230040000Y-18060000D02*
X230370000Y-18060000D01*
X227630000Y-11520000D02*
X227960000Y-11520000D01*
X227630000Y-18060000D02*
X227630000Y-11520000D01*
X227960000Y-18060000D02*
X227630000Y-18060000D01*
G04 #@! TO.C,R_OUT_9*
X330960000Y-18060000D02*
X330630000Y-18060000D01*
X330630000Y-18060000D02*
X330630000Y-11520000D01*
X330630000Y-11520000D02*
X330960000Y-11520000D01*
X333040000Y-18060000D02*
X333370000Y-18060000D01*
X333370000Y-18060000D02*
X333370000Y-11520000D01*
X333370000Y-11520000D02*
X333040000Y-11520000D01*
G04 #@! TO.C,R_OUT_10*
X338170000Y-11520000D02*
X337840000Y-11520000D01*
X338170000Y-18060000D02*
X338170000Y-11520000D01*
X337840000Y-18060000D02*
X338170000Y-18060000D01*
X335430000Y-11520000D02*
X335760000Y-11520000D01*
X335430000Y-18060000D02*
X335430000Y-11520000D01*
X335760000Y-18060000D02*
X335430000Y-18060000D01*
G04 #@! TO.C,R_OUT_11*
X342970000Y-11520000D02*
X342640000Y-11520000D01*
X342970000Y-18060000D02*
X342970000Y-11520000D01*
X342640000Y-18060000D02*
X342970000Y-18060000D01*
X340230000Y-11520000D02*
X340560000Y-11520000D01*
X340230000Y-18060000D02*
X340230000Y-11520000D01*
X340560000Y-18060000D02*
X340230000Y-18060000D01*
G04 #@! TO.C,R_OUT_12*
X347770000Y-11520000D02*
X347440000Y-11520000D01*
X347770000Y-18060000D02*
X347770000Y-11520000D01*
X347440000Y-18060000D02*
X347770000Y-18060000D01*
X345030000Y-11520000D02*
X345360000Y-11520000D01*
X345030000Y-18060000D02*
X345030000Y-11520000D01*
X345360000Y-18060000D02*
X345030000Y-18060000D01*
G04 #@! TO.C,R_OUT_13*
X423760000Y-18060000D02*
X423430000Y-18060000D01*
X423430000Y-18060000D02*
X423430000Y-11520000D01*
X423430000Y-11520000D02*
X423760000Y-11520000D01*
X425840000Y-18060000D02*
X426170000Y-18060000D01*
X426170000Y-18060000D02*
X426170000Y-11520000D01*
X426170000Y-11520000D02*
X425840000Y-11520000D01*
G04 #@! TO.C,R_OUT_14*
X430970000Y-11520000D02*
X430640000Y-11520000D01*
X430970000Y-18060000D02*
X430970000Y-11520000D01*
X430640000Y-18060000D02*
X430970000Y-18060000D01*
X428230000Y-11520000D02*
X428560000Y-11520000D01*
X428230000Y-18060000D02*
X428230000Y-11520000D01*
X428560000Y-18060000D02*
X428230000Y-18060000D01*
G04 #@! TO.C,R_OUT_15*
X433360000Y-18060000D02*
X433030000Y-18060000D01*
X433030000Y-18060000D02*
X433030000Y-11520000D01*
X433030000Y-11520000D02*
X433360000Y-11520000D01*
X435440000Y-18060000D02*
X435770000Y-18060000D01*
X435770000Y-18060000D02*
X435770000Y-11520000D01*
X435770000Y-11520000D02*
X435440000Y-11520000D01*
G04 #@! TO.C,R_OUT_16*
X455570000Y-11520000D02*
X455240000Y-11520000D01*
X455570000Y-18060000D02*
X455570000Y-11520000D01*
X455240000Y-18060000D02*
X455570000Y-18060000D01*
X452830000Y-11520000D02*
X453160000Y-11520000D01*
X452830000Y-18060000D02*
X452830000Y-11520000D01*
X453160000Y-18060000D02*
X452830000Y-18060000D01*
G04 #@! TO.C,R_Split_1_1*
X131080000Y-5870000D02*
X131080000Y-5540000D01*
X124540000Y-5870000D02*
X131080000Y-5870000D01*
X124540000Y-5540000D02*
X124540000Y-5870000D01*
X131080000Y-3130000D02*
X131080000Y-3460000D01*
X124540000Y-3130000D02*
X131080000Y-3130000D01*
X124540000Y-3460000D02*
X124540000Y-3130000D01*
G04 #@! TO.C,R_Split_1_2*
X131080000Y-11870000D02*
X131080000Y-11540000D01*
X124540000Y-11870000D02*
X131080000Y-11870000D01*
X124540000Y-11540000D02*
X124540000Y-11870000D01*
X131080000Y-9130000D02*
X131080000Y-9460000D01*
X124540000Y-9130000D02*
X131080000Y-9130000D01*
X124540000Y-9460000D02*
X124540000Y-9130000D01*
G04 #@! TO.C,R_Split_2_1*
X197540000Y-2960000D02*
X197540000Y-2630000D01*
X197540000Y-2630000D02*
X204080000Y-2630000D01*
X204080000Y-2630000D02*
X204080000Y-2960000D01*
X197540000Y-5040000D02*
X197540000Y-5370000D01*
X197540000Y-5370000D02*
X204080000Y-5370000D01*
X204080000Y-5370000D02*
X204080000Y-5040000D01*
G04 #@! TO.C,R_Split_2_2*
X197540000Y-8960000D02*
X197540000Y-8630000D01*
X197540000Y-8630000D02*
X204080000Y-8630000D01*
X204080000Y-8630000D02*
X204080000Y-8960000D01*
X197540000Y-11040000D02*
X197540000Y-11370000D01*
X197540000Y-11370000D02*
X204080000Y-11370000D01*
X204080000Y-11370000D02*
X204080000Y-11040000D01*
G04 #@! TO.C,R_Split_3_1*
X315740000Y-2960000D02*
X315740000Y-2630000D01*
X315740000Y-2630000D02*
X322280000Y-2630000D01*
X322280000Y-2630000D02*
X322280000Y-2960000D01*
X315740000Y-5040000D02*
X315740000Y-5370000D01*
X315740000Y-5370000D02*
X322280000Y-5370000D01*
X322280000Y-5370000D02*
X322280000Y-5040000D01*
G04 #@! TO.C,R_Split_3_2*
X315740000Y-8960000D02*
X315740000Y-8630000D01*
X315740000Y-8630000D02*
X322280000Y-8630000D01*
X322280000Y-8630000D02*
X322280000Y-8960000D01*
X315740000Y-11040000D02*
X315740000Y-11370000D01*
X315740000Y-11370000D02*
X322280000Y-11370000D01*
X322280000Y-11370000D02*
X322280000Y-11040000D01*
G04 #@! TO.C,R_Split_4_1*
X400280000Y-5370000D02*
X400280000Y-5040000D01*
X393740000Y-5370000D02*
X400280000Y-5370000D01*
X393740000Y-5040000D02*
X393740000Y-5370000D01*
X400280000Y-2630000D02*
X400280000Y-2960000D01*
X393740000Y-2630000D02*
X400280000Y-2630000D01*
X393740000Y-2960000D02*
X393740000Y-2630000D01*
G04 #@! TO.C,R_Split_4_2*
X400480000Y-11370000D02*
X400480000Y-11040000D01*
X393940000Y-11370000D02*
X400480000Y-11370000D01*
X393940000Y-11040000D02*
X393940000Y-11370000D01*
X400480000Y-8630000D02*
X400480000Y-8960000D01*
X393940000Y-8630000D02*
X400480000Y-8630000D01*
X393940000Y-8960000D02*
X393940000Y-8630000D01*
G04 #@! TO.C,U1*
X90170000Y-6190000D02*
G75*
G02X90170000Y-8190000I0J-1000000D01*
G01*
X90170000Y-8190000D02*
X90170000Y-9840000D01*
X90170000Y-9840000D02*
X108070000Y-9840000D01*
X108070000Y-9840000D02*
X108070000Y-4540000D01*
X108070000Y-4540000D02*
X90170000Y-4540000D01*
X90170000Y-4540000D02*
X90170000Y-6190000D01*
X90110000Y-12330000D02*
X108130000Y-12330000D01*
X108130000Y-12330000D02*
X108130000Y-2050000D01*
X108130000Y-2050000D02*
X90110000Y-2050000D01*
X90110000Y-2050000D02*
X90110000Y-12330000D01*
G04 #@! TO.C,U2*
X170210000Y-2050000D02*
X170210000Y-12330000D01*
X188230000Y-2050000D02*
X170210000Y-2050000D01*
X188230000Y-12330000D02*
X188230000Y-2050000D01*
X170210000Y-12330000D02*
X188230000Y-12330000D01*
X170270000Y-4540000D02*
X170270000Y-6190000D01*
X188170000Y-4540000D02*
X170270000Y-4540000D01*
X188170000Y-9840000D02*
X188170000Y-4540000D01*
X170270000Y-9840000D02*
X188170000Y-9840000D01*
X170270000Y-8190000D02*
X170270000Y-9840000D01*
X170270000Y-6190000D02*
G75*
G02X170270000Y-8190000I0J-1000000D01*
G01*
G04 #@! TO.C,U3*
X290810000Y-2050000D02*
X290810000Y-12330000D01*
X308830000Y-2050000D02*
X290810000Y-2050000D01*
X308830000Y-12330000D02*
X308830000Y-2050000D01*
X290810000Y-12330000D02*
X308830000Y-12330000D01*
X290870000Y-4540000D02*
X290870000Y-6190000D01*
X308770000Y-4540000D02*
X290870000Y-4540000D01*
X308770000Y-9840000D02*
X308770000Y-4540000D01*
X290870000Y-9840000D02*
X308770000Y-9840000D01*
X290870000Y-8190000D02*
X290870000Y-9840000D01*
X290870000Y-6190000D02*
G75*
G02X290870000Y-8190000I0J-1000000D01*
G01*
G04 #@! TO.C,U4*
X369070000Y-6190000D02*
G75*
G02X369070000Y-8190000I0J-1000000D01*
G01*
X369070000Y-8190000D02*
X369070000Y-9840000D01*
X369070000Y-9840000D02*
X386970000Y-9840000D01*
X386970000Y-9840000D02*
X386970000Y-4540000D01*
X386970000Y-4540000D02*
X369070000Y-4540000D01*
X369070000Y-4540000D02*
X369070000Y-6190000D01*
X369010000Y-12330000D02*
X387030000Y-12330000D01*
X387030000Y-12330000D02*
X387030000Y-2050000D01*
X387030000Y-2050000D02*
X369010000Y-2050000D01*
X369010000Y-2050000D02*
X369010000Y-12330000D01*
G04 #@! TO.C,J_MB1.1*
X50630000Y-3670000D02*
X53230000Y-3670000D01*
X50630000Y-3670000D02*
X50630000Y-16490000D01*
X50630000Y-16490000D02*
X55830000Y-16490000D01*
X55830000Y-6270000D02*
X55830000Y-16490000D01*
X53230000Y-6270000D02*
X55830000Y-6270000D01*
X53230000Y-3670000D02*
X53230000Y-6270000D01*
X55830000Y-3670000D02*
X55830000Y-5000000D01*
X54500000Y-3670000D02*
X55830000Y-3670000D01*
G04 #@! TO.C,J_MB1.2*
X5270000Y-3830000D02*
X5270000Y-1170000D01*
X5270000Y-3830000D02*
X10410000Y-3830000D01*
X10410000Y-3830000D02*
X10410000Y-1170000D01*
X5270000Y-1170000D02*
X10410000Y-1170000D01*
X2670000Y-1170000D02*
X4000000Y-1170000D01*
X2670000Y-2500000D02*
X2670000Y-1170000D01*
G04 #@! TO.C,J_MB2.2*
X15670000Y-2500000D02*
X15670000Y-1170000D01*
X15670000Y-1170000D02*
X17000000Y-1170000D01*
X18270000Y-1170000D02*
X23410000Y-1170000D01*
X23410000Y-3830000D02*
X23410000Y-1170000D01*
X18270000Y-3830000D02*
X23410000Y-3830000D01*
X18270000Y-3830000D02*
X18270000Y-1170000D01*
G04 #@! TO.C,J_MB3.2*
X507730000Y-1470000D02*
X507730000Y-4130000D01*
X507730000Y-1470000D02*
X502590000Y-1470000D01*
X502590000Y-1470000D02*
X502590000Y-4130000D01*
X507730000Y-4130000D02*
X502590000Y-4130000D01*
X510330000Y-4130000D02*
X509000000Y-4130000D01*
X510330000Y-2800000D02*
X510330000Y-4130000D01*
G04 #@! TO.C,J_MB4.2*
X523330000Y-2500000D02*
X523330000Y-3830000D01*
X523330000Y-3830000D02*
X522000000Y-3830000D01*
X520730000Y-3830000D02*
X515590000Y-3830000D01*
X515590000Y-1170000D02*
X515590000Y-3830000D01*
X520730000Y-1170000D02*
X515590000Y-1170000D01*
X520730000Y-1170000D02*
X520730000Y-3830000D01*
G04 #@! TO.C,C1*
D10*
X65333333Y-16607142D02*
X65285714Y-16654761D01*
X65142857Y-16702380D01*
X65047619Y-16702380D01*
X64904761Y-16654761D01*
X64809523Y-16559523D01*
X64761904Y-16464285D01*
X64714285Y-16273809D01*
X64714285Y-16130952D01*
X64761904Y-15940476D01*
X64809523Y-15845238D01*
X64904761Y-15750000D01*
X65047619Y-15702380D01*
X65142857Y-15702380D01*
X65285714Y-15750000D01*
X65333333Y-15797619D01*
X66285714Y-16702380D02*
X65714285Y-16702380D01*
X66000000Y-16702380D02*
X66000000Y-15702380D01*
X65904761Y-15845238D01*
X65809523Y-15940476D01*
X65714285Y-15988095D01*
G04 #@! TO.C,C2*
X65583333Y-6607142D02*
X65535714Y-6654761D01*
X65392857Y-6702380D01*
X65297619Y-6702380D01*
X65154761Y-6654761D01*
X65059523Y-6559523D01*
X65011904Y-6464285D01*
X64964285Y-6273809D01*
X64964285Y-6130952D01*
X65011904Y-5940476D01*
X65059523Y-5845238D01*
X65154761Y-5750000D01*
X65297619Y-5702380D01*
X65392857Y-5702380D01*
X65535714Y-5750000D01*
X65583333Y-5797619D01*
X65964285Y-5797619D02*
X66011904Y-5750000D01*
X66107142Y-5702380D01*
X66345238Y-5702380D01*
X66440476Y-5750000D01*
X66488095Y-5797619D01*
X66535714Y-5892857D01*
X66535714Y-5988095D01*
X66488095Y-6130952D01*
X65916666Y-6702380D01*
X66535714Y-6702380D01*
G04 #@! TO.C,C3*
X76583333Y-13357142D02*
X76535714Y-13404761D01*
X76392857Y-13452380D01*
X76297619Y-13452380D01*
X76154761Y-13404761D01*
X76059523Y-13309523D01*
X76011904Y-13214285D01*
X75964285Y-13023809D01*
X75964285Y-12880952D01*
X76011904Y-12690476D01*
X76059523Y-12595238D01*
X76154761Y-12500000D01*
X76297619Y-12452380D01*
X76392857Y-12452380D01*
X76535714Y-12500000D01*
X76583333Y-12547619D01*
X76916666Y-12452380D02*
X77535714Y-12452380D01*
X77202380Y-12833333D01*
X77345238Y-12833333D01*
X77440476Y-12880952D01*
X77488095Y-12928571D01*
X77535714Y-13023809D01*
X77535714Y-13261904D01*
X77488095Y-13357142D01*
X77440476Y-13404761D01*
X77345238Y-13452380D01*
X77059523Y-13452380D01*
X76964285Y-13404761D01*
X76916666Y-13357142D01*
G04 #@! TO.C,C4*
X76583333Y-7357142D02*
X76535714Y-7404761D01*
X76392857Y-7452380D01*
X76297619Y-7452380D01*
X76154761Y-7404761D01*
X76059523Y-7309523D01*
X76011904Y-7214285D01*
X75964285Y-7023809D01*
X75964285Y-6880952D01*
X76011904Y-6690476D01*
X76059523Y-6595238D01*
X76154761Y-6500000D01*
X76297619Y-6452380D01*
X76392857Y-6452380D01*
X76535714Y-6500000D01*
X76583333Y-6547619D01*
X77440476Y-6785714D02*
X77440476Y-7452380D01*
X77202380Y-6404761D02*
X76964285Y-7119047D01*
X77583333Y-7119047D01*
G04 #@! TO.C,D1*
X48761904Y-12452380D02*
X48761904Y-11452380D01*
X49000000Y-11452380D01*
X49142857Y-11500000D01*
X49238095Y-11595238D01*
X49285714Y-11690476D01*
X49333333Y-11880952D01*
X49333333Y-12023809D01*
X49285714Y-12214285D01*
X49238095Y-12309523D01*
X49142857Y-12404761D01*
X49000000Y-12452380D01*
X48761904Y-12452380D01*
X50285714Y-12452380D02*
X49714285Y-12452380D01*
X50000000Y-12452380D02*
X50000000Y-11452380D01*
X49904761Y-11595238D01*
X49809523Y-11690476D01*
X49714285Y-11738095D01*
X36238095Y-10352380D02*
X36238095Y-9352380D01*
X36809523Y-10352380D02*
X36380952Y-9780952D01*
X36809523Y-9352380D02*
X36238095Y-9923809D01*
G04 #@! TO.C,D2*
X48761904Y-7952380D02*
X48761904Y-6952380D01*
X49000000Y-6952380D01*
X49142857Y-7000000D01*
X49238095Y-7095238D01*
X49285714Y-7190476D01*
X49333333Y-7380952D01*
X49333333Y-7523809D01*
X49285714Y-7714285D01*
X49238095Y-7809523D01*
X49142857Y-7904761D01*
X49000000Y-7952380D01*
X48761904Y-7952380D01*
X49714285Y-7047619D02*
X49761904Y-7000000D01*
X49857142Y-6952380D01*
X50095238Y-6952380D01*
X50190476Y-7000000D01*
X50238095Y-7047619D01*
X50285714Y-7142857D01*
X50285714Y-7238095D01*
X50238095Y-7380952D01*
X49666666Y-7952380D01*
X50285714Y-7952380D01*
X36238095Y-5852380D02*
X36238095Y-4852380D01*
X36809523Y-5852380D02*
X36380952Y-5280952D01*
X36809523Y-4852380D02*
X36238095Y-5423809D01*
G04 #@! TO.C,R_FUSE_1*
X39380476Y-19322380D02*
X39047142Y-18846190D01*
X38809047Y-19322380D02*
X38809047Y-18322380D01*
X39190000Y-18322380D01*
X39285238Y-18370000D01*
X39332857Y-18417619D01*
X39380476Y-18512857D01*
X39380476Y-18655714D01*
X39332857Y-18750952D01*
X39285238Y-18798571D01*
X39190000Y-18846190D01*
X38809047Y-18846190D01*
X39570952Y-19417619D02*
X40332857Y-19417619D01*
X40904285Y-18798571D02*
X40570952Y-18798571D01*
X40570952Y-19322380D02*
X40570952Y-18322380D01*
X41047142Y-18322380D01*
X41428095Y-18322380D02*
X41428095Y-19131904D01*
X41475714Y-19227142D01*
X41523333Y-19274761D01*
X41618571Y-19322380D01*
X41809047Y-19322380D01*
X41904285Y-19274761D01*
X41951904Y-19227142D01*
X41999523Y-19131904D01*
X41999523Y-18322380D01*
X42428095Y-19274761D02*
X42570952Y-19322380D01*
X42809047Y-19322380D01*
X42904285Y-19274761D01*
X42951904Y-19227142D01*
X42999523Y-19131904D01*
X42999523Y-19036666D01*
X42951904Y-18941428D01*
X42904285Y-18893809D01*
X42809047Y-18846190D01*
X42618571Y-18798571D01*
X42523333Y-18750952D01*
X42475714Y-18703333D01*
X42428095Y-18608095D01*
X42428095Y-18512857D01*
X42475714Y-18417619D01*
X42523333Y-18370000D01*
X42618571Y-18322380D01*
X42856666Y-18322380D01*
X42999523Y-18370000D01*
X43428095Y-18798571D02*
X43761428Y-18798571D01*
X43904285Y-19322380D02*
X43428095Y-19322380D01*
X43428095Y-18322380D01*
X43904285Y-18322380D01*
X44094761Y-19417619D02*
X44856666Y-19417619D01*
X45618571Y-19322380D02*
X45047142Y-19322380D01*
X45332857Y-19322380D02*
X45332857Y-18322380D01*
X45237619Y-18465238D01*
X45142380Y-18560476D01*
X45047142Y-18608095D01*
G04 #@! TO.C,R_FUSE_2*
X39380476Y-1452380D02*
X39047142Y-976190D01*
X38809047Y-1452380D02*
X38809047Y-452380D01*
X39190000Y-452380D01*
X39285238Y-500000D01*
X39332857Y-547619D01*
X39380476Y-642857D01*
X39380476Y-785714D01*
X39332857Y-880952D01*
X39285238Y-928571D01*
X39190000Y-976190D01*
X38809047Y-976190D01*
X39570952Y-1547619D02*
X40332857Y-1547619D01*
X40904285Y-928571D02*
X40570952Y-928571D01*
X40570952Y-1452380D02*
X40570952Y-452380D01*
X41047142Y-452380D01*
X41428095Y-452380D02*
X41428095Y-1261904D01*
X41475714Y-1357142D01*
X41523333Y-1404761D01*
X41618571Y-1452380D01*
X41809047Y-1452380D01*
X41904285Y-1404761D01*
X41951904Y-1357142D01*
X41999523Y-1261904D01*
X41999523Y-452380D01*
X42428095Y-1404761D02*
X42570952Y-1452380D01*
X42809047Y-1452380D01*
X42904285Y-1404761D01*
X42951904Y-1357142D01*
X42999523Y-1261904D01*
X42999523Y-1166666D01*
X42951904Y-1071428D01*
X42904285Y-1023809D01*
X42809047Y-976190D01*
X42618571Y-928571D01*
X42523333Y-880952D01*
X42475714Y-833333D01*
X42428095Y-738095D01*
X42428095Y-642857D01*
X42475714Y-547619D01*
X42523333Y-500000D01*
X42618571Y-452380D01*
X42856666Y-452380D01*
X42999523Y-500000D01*
X43428095Y-928571D02*
X43761428Y-928571D01*
X43904285Y-1452380D02*
X43428095Y-1452380D01*
X43428095Y-452380D01*
X43904285Y-452380D01*
X44094761Y-1547619D02*
X44856666Y-1547619D01*
X45047142Y-547619D02*
X45094761Y-500000D01*
X45190000Y-452380D01*
X45428095Y-452380D01*
X45523333Y-500000D01*
X45570952Y-547619D01*
X45618571Y-642857D01*
X45618571Y-738095D01*
X45570952Y-880952D01*
X44999523Y-1452380D01*
X45618571Y-1452380D01*
G04 #@! TO.C,C5*
X127833333Y-13857142D02*
X127785714Y-13904761D01*
X127642857Y-13952380D01*
X127547619Y-13952380D01*
X127404761Y-13904761D01*
X127309523Y-13809523D01*
X127261904Y-13714285D01*
X127214285Y-13523809D01*
X127214285Y-13380952D01*
X127261904Y-13190476D01*
X127309523Y-13095238D01*
X127404761Y-13000000D01*
X127547619Y-12952380D01*
X127642857Y-12952380D01*
X127785714Y-13000000D01*
X127833333Y-13047619D01*
X128738095Y-12952380D02*
X128261904Y-12952380D01*
X128214285Y-13428571D01*
X128261904Y-13380952D01*
X128357142Y-13333333D01*
X128595238Y-13333333D01*
X128690476Y-13380952D01*
X128738095Y-13428571D01*
X128785714Y-13523809D01*
X128785714Y-13761904D01*
X128738095Y-13857142D01*
X128690476Y-13904761D01*
X128595238Y-13952380D01*
X128357142Y-13952380D01*
X128261904Y-13904761D01*
X128214285Y-13857142D01*
G04 #@! TO.C,C6*
X200733333Y-13857142D02*
X200685714Y-13904761D01*
X200542857Y-13952380D01*
X200447619Y-13952380D01*
X200304761Y-13904761D01*
X200209523Y-13809523D01*
X200161904Y-13714285D01*
X200114285Y-13523809D01*
X200114285Y-13380952D01*
X200161904Y-13190476D01*
X200209523Y-13095238D01*
X200304761Y-13000000D01*
X200447619Y-12952380D01*
X200542857Y-12952380D01*
X200685714Y-13000000D01*
X200733333Y-13047619D01*
X201590476Y-12952380D02*
X201400000Y-12952380D01*
X201304761Y-13000000D01*
X201257142Y-13047619D01*
X201161904Y-13190476D01*
X201114285Y-13380952D01*
X201114285Y-13761904D01*
X201161904Y-13857142D01*
X201209523Y-13904761D01*
X201304761Y-13952380D01*
X201495238Y-13952380D01*
X201590476Y-13904761D01*
X201638095Y-13857142D01*
X201685714Y-13761904D01*
X201685714Y-13523809D01*
X201638095Y-13428571D01*
X201590476Y-13380952D01*
X201495238Y-13333333D01*
X201304761Y-13333333D01*
X201209523Y-13380952D01*
X201161904Y-13428571D01*
X201114285Y-13523809D01*
G04 #@! TO.C,C7*
X318733333Y-14357142D02*
X318685714Y-14404761D01*
X318542857Y-14452380D01*
X318447619Y-14452380D01*
X318304761Y-14404761D01*
X318209523Y-14309523D01*
X318161904Y-14214285D01*
X318114285Y-14023809D01*
X318114285Y-13880952D01*
X318161904Y-13690476D01*
X318209523Y-13595238D01*
X318304761Y-13500000D01*
X318447619Y-13452380D01*
X318542857Y-13452380D01*
X318685714Y-13500000D01*
X318733333Y-13547619D01*
X319066666Y-13452380D02*
X319733333Y-13452380D01*
X319304761Y-14452380D01*
G04 #@! TO.C,C8*
X396933333Y-14357142D02*
X396885714Y-14404761D01*
X396742857Y-14452380D01*
X396647619Y-14452380D01*
X396504761Y-14404761D01*
X396409523Y-14309523D01*
X396361904Y-14214285D01*
X396314285Y-14023809D01*
X396314285Y-13880952D01*
X396361904Y-13690476D01*
X396409523Y-13595238D01*
X396504761Y-13500000D01*
X396647619Y-13452380D01*
X396742857Y-13452380D01*
X396885714Y-13500000D01*
X396933333Y-13547619D01*
X397504761Y-13880952D02*
X397409523Y-13833333D01*
X397361904Y-13785714D01*
X397314285Y-13690476D01*
X397314285Y-13642857D01*
X397361904Y-13547619D01*
X397409523Y-13500000D01*
X397504761Y-13452380D01*
X397695238Y-13452380D01*
X397790476Y-13500000D01*
X397838095Y-13547619D01*
X397885714Y-13642857D01*
X397885714Y-13690476D01*
X397838095Y-13785714D01*
X397790476Y-13833333D01*
X397695238Y-13880952D01*
X397504761Y-13880952D01*
X397409523Y-13928571D01*
X397361904Y-13976190D01*
X397314285Y-14071428D01*
X397314285Y-14261904D01*
X397361904Y-14357142D01*
X397409523Y-14404761D01*
X397504761Y-14452380D01*
X397695238Y-14452380D01*
X397790476Y-14404761D01*
X397838095Y-14357142D01*
X397885714Y-14261904D01*
X397885714Y-14071428D01*
X397838095Y-13976190D01*
X397790476Y-13928571D01*
X397695238Y-13880952D01*
G04 #@! TO.C,J_MB2.1*
X110730000Y-1682380D02*
X110730000Y-2396666D01*
X110682380Y-2539523D01*
X110587142Y-2634761D01*
X110444285Y-2682380D01*
X110349047Y-2682380D01*
X110968095Y-2777619D02*
X111730000Y-2777619D01*
X111968095Y-2682380D02*
X111968095Y-1682380D01*
X112301428Y-2396666D01*
X112634761Y-1682380D01*
X112634761Y-2682380D01*
X113444285Y-2158571D02*
X113587142Y-2206190D01*
X113634761Y-2253809D01*
X113682380Y-2349047D01*
X113682380Y-2491904D01*
X113634761Y-2587142D01*
X113587142Y-2634761D01*
X113491904Y-2682380D01*
X113110952Y-2682380D01*
X113110952Y-1682380D01*
X113444285Y-1682380D01*
X113539523Y-1730000D01*
X113587142Y-1777619D01*
X113634761Y-1872857D01*
X113634761Y-1968095D01*
X113587142Y-2063333D01*
X113539523Y-2110952D01*
X113444285Y-2158571D01*
X113110952Y-2158571D01*
X114063333Y-1777619D02*
X114110952Y-1730000D01*
X114206190Y-1682380D01*
X114444285Y-1682380D01*
X114539523Y-1730000D01*
X114587142Y-1777619D01*
X114634761Y-1872857D01*
X114634761Y-1968095D01*
X114587142Y-2110952D01*
X114015714Y-2682380D01*
X114634761Y-2682380D01*
X115063333Y-2587142D02*
X115110952Y-2634761D01*
X115063333Y-2682380D01*
X115015714Y-2634761D01*
X115063333Y-2587142D01*
X115063333Y-2682380D01*
X116063333Y-2682380D02*
X115491904Y-2682380D01*
X115777619Y-2682380D02*
X115777619Y-1682380D01*
X115682380Y-1825238D01*
X115587142Y-1920476D01*
X115491904Y-1968095D01*
G04 #@! TO.C,J_MB3.1*
X410730000Y-1682380D02*
X410730000Y-2396666D01*
X410682380Y-2539523D01*
X410587142Y-2634761D01*
X410444285Y-2682380D01*
X410349047Y-2682380D01*
X410968095Y-2777619D02*
X411730000Y-2777619D01*
X411968095Y-2682380D02*
X411968095Y-1682380D01*
X412301428Y-2396666D01*
X412634761Y-1682380D01*
X412634761Y-2682380D01*
X413444285Y-2158571D02*
X413587142Y-2206190D01*
X413634761Y-2253809D01*
X413682380Y-2349047D01*
X413682380Y-2491904D01*
X413634761Y-2587142D01*
X413587142Y-2634761D01*
X413491904Y-2682380D01*
X413110952Y-2682380D01*
X413110952Y-1682380D01*
X413444285Y-1682380D01*
X413539523Y-1730000D01*
X413587142Y-1777619D01*
X413634761Y-1872857D01*
X413634761Y-1968095D01*
X413587142Y-2063333D01*
X413539523Y-2110952D01*
X413444285Y-2158571D01*
X413110952Y-2158571D01*
X414015714Y-1682380D02*
X414634761Y-1682380D01*
X414301428Y-2063333D01*
X414444285Y-2063333D01*
X414539523Y-2110952D01*
X414587142Y-2158571D01*
X414634761Y-2253809D01*
X414634761Y-2491904D01*
X414587142Y-2587142D01*
X414539523Y-2634761D01*
X414444285Y-2682380D01*
X414158571Y-2682380D01*
X414063333Y-2634761D01*
X414015714Y-2587142D01*
X415063333Y-2587142D02*
X415110952Y-2634761D01*
X415063333Y-2682380D01*
X415015714Y-2634761D01*
X415063333Y-2587142D01*
X415063333Y-2682380D01*
X416063333Y-2682380D02*
X415491904Y-2682380D01*
X415777619Y-2682380D02*
X415777619Y-1682380D01*
X415682380Y-1825238D01*
X415587142Y-1920476D01*
X415491904Y-1968095D01*
G04 #@! TO.C,J_MB4.1*
X470730000Y-1682380D02*
X470730000Y-2396666D01*
X470682380Y-2539523D01*
X470587142Y-2634761D01*
X470444285Y-2682380D01*
X470349047Y-2682380D01*
X470968095Y-2777619D02*
X471730000Y-2777619D01*
X471968095Y-2682380D02*
X471968095Y-1682380D01*
X472301428Y-2396666D01*
X472634761Y-1682380D01*
X472634761Y-2682380D01*
X473444285Y-2158571D02*
X473587142Y-2206190D01*
X473634761Y-2253809D01*
X473682380Y-2349047D01*
X473682380Y-2491904D01*
X473634761Y-2587142D01*
X473587142Y-2634761D01*
X473491904Y-2682380D01*
X473110952Y-2682380D01*
X473110952Y-1682380D01*
X473444285Y-1682380D01*
X473539523Y-1730000D01*
X473587142Y-1777619D01*
X473634761Y-1872857D01*
X473634761Y-1968095D01*
X473587142Y-2063333D01*
X473539523Y-2110952D01*
X473444285Y-2158571D01*
X473110952Y-2158571D01*
X474539523Y-2015714D02*
X474539523Y-2682380D01*
X474301428Y-1634761D02*
X474063333Y-2349047D01*
X474682380Y-2349047D01*
X475063333Y-2587142D02*
X475110952Y-2634761D01*
X475063333Y-2682380D01*
X475015714Y-2634761D01*
X475063333Y-2587142D01*
X475063333Y-2682380D01*
X476063333Y-2682380D02*
X475491904Y-2682380D01*
X475777619Y-2682380D02*
X475777619Y-1682380D01*
X475682380Y-1825238D01*
X475587142Y-1920476D01*
X475491904Y-1968095D01*
G04 #@! TO.C,R2*
X102143333Y-14582380D02*
X101810000Y-14106190D01*
X101571904Y-14582380D02*
X101571904Y-13582380D01*
X101952857Y-13582380D01*
X102048095Y-13630000D01*
X102095714Y-13677619D01*
X102143333Y-13772857D01*
X102143333Y-13915714D01*
X102095714Y-14010952D01*
X102048095Y-14058571D01*
X101952857Y-14106190D01*
X101571904Y-14106190D01*
X102524285Y-13677619D02*
X102571904Y-13630000D01*
X102667142Y-13582380D01*
X102905238Y-13582380D01*
X103000476Y-13630000D01*
X103048095Y-13677619D01*
X103095714Y-13772857D01*
X103095714Y-13868095D01*
X103048095Y-14010952D01*
X102476666Y-14582380D01*
X103095714Y-14582380D01*
G04 #@! TO.C,R4*
X183643333Y-15082380D02*
X183310000Y-14606190D01*
X183071904Y-15082380D02*
X183071904Y-14082380D01*
X183452857Y-14082380D01*
X183548095Y-14130000D01*
X183595714Y-14177619D01*
X183643333Y-14272857D01*
X183643333Y-14415714D01*
X183595714Y-14510952D01*
X183548095Y-14558571D01*
X183452857Y-14606190D01*
X183071904Y-14606190D01*
X184500476Y-14415714D02*
X184500476Y-15082380D01*
X184262380Y-14034761D02*
X184024285Y-14749047D01*
X184643333Y-14749047D01*
G04 #@! TO.C,R6*
X304143333Y-14682380D02*
X303810000Y-14206190D01*
X303571904Y-14682380D02*
X303571904Y-13682380D01*
X303952857Y-13682380D01*
X304048095Y-13730000D01*
X304095714Y-13777619D01*
X304143333Y-13872857D01*
X304143333Y-14015714D01*
X304095714Y-14110952D01*
X304048095Y-14158571D01*
X303952857Y-14206190D01*
X303571904Y-14206190D01*
X305000476Y-13682380D02*
X304810000Y-13682380D01*
X304714761Y-13730000D01*
X304667142Y-13777619D01*
X304571904Y-13920476D01*
X304524285Y-14110952D01*
X304524285Y-14491904D01*
X304571904Y-14587142D01*
X304619523Y-14634761D01*
X304714761Y-14682380D01*
X304905238Y-14682380D01*
X305000476Y-14634761D01*
X305048095Y-14587142D01*
X305095714Y-14491904D01*
X305095714Y-14253809D01*
X305048095Y-14158571D01*
X305000476Y-14110952D01*
X304905238Y-14063333D01*
X304714761Y-14063333D01*
X304619523Y-14110952D01*
X304571904Y-14158571D01*
X304524285Y-14253809D01*
G04 #@! TO.C,R8*
X382143333Y-14582380D02*
X381810000Y-14106190D01*
X381571904Y-14582380D02*
X381571904Y-13582380D01*
X381952857Y-13582380D01*
X382048095Y-13630000D01*
X382095714Y-13677619D01*
X382143333Y-13772857D01*
X382143333Y-13915714D01*
X382095714Y-14010952D01*
X382048095Y-14058571D01*
X381952857Y-14106190D01*
X381571904Y-14106190D01*
X382714761Y-14010952D02*
X382619523Y-13963333D01*
X382571904Y-13915714D01*
X382524285Y-13820476D01*
X382524285Y-13772857D01*
X382571904Y-13677619D01*
X382619523Y-13630000D01*
X382714761Y-13582380D01*
X382905238Y-13582380D01*
X383000476Y-13630000D01*
X383048095Y-13677619D01*
X383095714Y-13772857D01*
X383095714Y-13820476D01*
X383048095Y-13915714D01*
X383000476Y-13963333D01*
X382905238Y-14010952D01*
X382714761Y-14010952D01*
X382619523Y-14058571D01*
X382571904Y-14106190D01*
X382524285Y-14201428D01*
X382524285Y-14391904D01*
X382571904Y-14487142D01*
X382619523Y-14534761D01*
X382714761Y-14582380D01*
X382905238Y-14582380D01*
X383000476Y-14534761D01*
X383048095Y-14487142D01*
X383095714Y-14391904D01*
X383095714Y-14201428D01*
X383048095Y-14106190D01*
X383000476Y-14058571D01*
X382905238Y-14010952D01*
G04 #@! TO.C,R_IN_1*
X135082380Y-6880476D02*
X134606190Y-7213809D01*
X135082380Y-7451904D02*
X134082380Y-7451904D01*
X134082380Y-7070952D01*
X134130000Y-6975714D01*
X134177619Y-6928095D01*
X134272857Y-6880476D01*
X134415714Y-6880476D01*
X134510952Y-6928095D01*
X134558571Y-6975714D01*
X134606190Y-7070952D01*
X134606190Y-7451904D01*
X135177619Y-6690000D02*
X135177619Y-5928095D01*
X135082380Y-5690000D02*
X134082380Y-5690000D01*
X135082380Y-5213809D02*
X134082380Y-5213809D01*
X135082380Y-4642380D01*
X134082380Y-4642380D01*
X135177619Y-4404285D02*
X135177619Y-3642380D01*
X135082380Y-2880476D02*
X135082380Y-3451904D01*
X135082380Y-3166190D02*
X134082380Y-3166190D01*
X134225238Y-3261428D01*
X134320476Y-3356666D01*
X134368095Y-3451904D01*
G04 #@! TO.C,R_IN_2*
X139782380Y-6880476D02*
X139306190Y-7213809D01*
X139782380Y-7451904D02*
X138782380Y-7451904D01*
X138782380Y-7070952D01*
X138830000Y-6975714D01*
X138877619Y-6928095D01*
X138972857Y-6880476D01*
X139115714Y-6880476D01*
X139210952Y-6928095D01*
X139258571Y-6975714D01*
X139306190Y-7070952D01*
X139306190Y-7451904D01*
X139877619Y-6690000D02*
X139877619Y-5928095D01*
X139782380Y-5690000D02*
X138782380Y-5690000D01*
X139782380Y-5213809D02*
X138782380Y-5213809D01*
X139782380Y-4642380D01*
X138782380Y-4642380D01*
X139877619Y-4404285D02*
X139877619Y-3642380D01*
X138877619Y-3451904D02*
X138830000Y-3404285D01*
X138782380Y-3309047D01*
X138782380Y-3070952D01*
X138830000Y-2975714D01*
X138877619Y-2928095D01*
X138972857Y-2880476D01*
X139068095Y-2880476D01*
X139210952Y-2928095D01*
X139782380Y-3499523D01*
X139782380Y-2880476D01*
G04 #@! TO.C,R_IN_3*
X144582380Y-6880476D02*
X144106190Y-7213809D01*
X144582380Y-7451904D02*
X143582380Y-7451904D01*
X143582380Y-7070952D01*
X143630000Y-6975714D01*
X143677619Y-6928095D01*
X143772857Y-6880476D01*
X143915714Y-6880476D01*
X144010952Y-6928095D01*
X144058571Y-6975714D01*
X144106190Y-7070952D01*
X144106190Y-7451904D01*
X144677619Y-6690000D02*
X144677619Y-5928095D01*
X144582380Y-5690000D02*
X143582380Y-5690000D01*
X144582380Y-5213809D02*
X143582380Y-5213809D01*
X144582380Y-4642380D01*
X143582380Y-4642380D01*
X144677619Y-4404285D02*
X144677619Y-3642380D01*
X143582380Y-3499523D02*
X143582380Y-2880476D01*
X143963333Y-3213809D01*
X143963333Y-3070952D01*
X144010952Y-2975714D01*
X144058571Y-2928095D01*
X144153809Y-2880476D01*
X144391904Y-2880476D01*
X144487142Y-2928095D01*
X144534761Y-2975714D01*
X144582380Y-3070952D01*
X144582380Y-3356666D01*
X144534761Y-3451904D01*
X144487142Y-3499523D01*
G04 #@! TO.C,R_IN_4*
X149382380Y-6880476D02*
X148906190Y-7213809D01*
X149382380Y-7451904D02*
X148382380Y-7451904D01*
X148382380Y-7070952D01*
X148430000Y-6975714D01*
X148477619Y-6928095D01*
X148572857Y-6880476D01*
X148715714Y-6880476D01*
X148810952Y-6928095D01*
X148858571Y-6975714D01*
X148906190Y-7070952D01*
X148906190Y-7451904D01*
X149477619Y-6690000D02*
X149477619Y-5928095D01*
X149382380Y-5690000D02*
X148382380Y-5690000D01*
X149382380Y-5213809D02*
X148382380Y-5213809D01*
X149382380Y-4642380D01*
X148382380Y-4642380D01*
X149477619Y-4404285D02*
X149477619Y-3642380D01*
X148715714Y-2975714D02*
X149382380Y-2975714D01*
X148334761Y-3213809D02*
X149049047Y-3451904D01*
X149049047Y-2832857D01*
G04 #@! TO.C,R_IN_5*
X153982380Y-6880476D02*
X153506190Y-7213809D01*
X153982380Y-7451904D02*
X152982380Y-7451904D01*
X152982380Y-7070952D01*
X153030000Y-6975714D01*
X153077619Y-6928095D01*
X153172857Y-6880476D01*
X153315714Y-6880476D01*
X153410952Y-6928095D01*
X153458571Y-6975714D01*
X153506190Y-7070952D01*
X153506190Y-7451904D01*
X154077619Y-6690000D02*
X154077619Y-5928095D01*
X153982380Y-5690000D02*
X152982380Y-5690000D01*
X153982380Y-5213809D02*
X152982380Y-5213809D01*
X153982380Y-4642380D01*
X152982380Y-4642380D01*
X154077619Y-4404285D02*
X154077619Y-3642380D01*
X152982380Y-2928095D02*
X152982380Y-3404285D01*
X153458571Y-3451904D01*
X153410952Y-3404285D01*
X153363333Y-3309047D01*
X153363333Y-3070952D01*
X153410952Y-2975714D01*
X153458571Y-2928095D01*
X153553809Y-2880476D01*
X153791904Y-2880476D01*
X153887142Y-2928095D01*
X153934761Y-2975714D01*
X153982380Y-3070952D01*
X153982380Y-3309047D01*
X153934761Y-3404285D01*
X153887142Y-3451904D01*
G04 #@! TO.C,R_IN_6*
X210482380Y-6880476D02*
X210006190Y-7213809D01*
X210482380Y-7451904D02*
X209482380Y-7451904D01*
X209482380Y-7070952D01*
X209530000Y-6975714D01*
X209577619Y-6928095D01*
X209672857Y-6880476D01*
X209815714Y-6880476D01*
X209910952Y-6928095D01*
X209958571Y-6975714D01*
X210006190Y-7070952D01*
X210006190Y-7451904D01*
X210577619Y-6690000D02*
X210577619Y-5928095D01*
X210482380Y-5690000D02*
X209482380Y-5690000D01*
X210482380Y-5213809D02*
X209482380Y-5213809D01*
X210482380Y-4642380D01*
X209482380Y-4642380D01*
X210577619Y-4404285D02*
X210577619Y-3642380D01*
X209482380Y-2975714D02*
X209482380Y-3166190D01*
X209530000Y-3261428D01*
X209577619Y-3309047D01*
X209720476Y-3404285D01*
X209910952Y-3451904D01*
X210291904Y-3451904D01*
X210387142Y-3404285D01*
X210434761Y-3356666D01*
X210482380Y-3261428D01*
X210482380Y-3070952D01*
X210434761Y-2975714D01*
X210387142Y-2928095D01*
X210291904Y-2880476D01*
X210053809Y-2880476D01*
X209958571Y-2928095D01*
X209910952Y-2975714D01*
X209863333Y-3070952D01*
X209863333Y-3261428D01*
X209910952Y-3356666D01*
X209958571Y-3404285D01*
X210053809Y-3451904D01*
G04 #@! TO.C,R_IN_7*
X215082380Y-6880476D02*
X214606190Y-7213809D01*
X215082380Y-7451904D02*
X214082380Y-7451904D01*
X214082380Y-7070952D01*
X214130000Y-6975714D01*
X214177619Y-6928095D01*
X214272857Y-6880476D01*
X214415714Y-6880476D01*
X214510952Y-6928095D01*
X214558571Y-6975714D01*
X214606190Y-7070952D01*
X214606190Y-7451904D01*
X215177619Y-6690000D02*
X215177619Y-5928095D01*
X215082380Y-5690000D02*
X214082380Y-5690000D01*
X215082380Y-5213809D02*
X214082380Y-5213809D01*
X215082380Y-4642380D01*
X214082380Y-4642380D01*
X215177619Y-4404285D02*
X215177619Y-3642380D01*
X214082380Y-3499523D02*
X214082380Y-2832857D01*
X215082380Y-3261428D01*
G04 #@! TO.C,R_IN_8*
X219882380Y-6880476D02*
X219406190Y-7213809D01*
X219882380Y-7451904D02*
X218882380Y-7451904D01*
X218882380Y-7070952D01*
X218930000Y-6975714D01*
X218977619Y-6928095D01*
X219072857Y-6880476D01*
X219215714Y-6880476D01*
X219310952Y-6928095D01*
X219358571Y-6975714D01*
X219406190Y-7070952D01*
X219406190Y-7451904D01*
X219977619Y-6690000D02*
X219977619Y-5928095D01*
X219882380Y-5690000D02*
X218882380Y-5690000D01*
X219882380Y-5213809D02*
X218882380Y-5213809D01*
X219882380Y-4642380D01*
X218882380Y-4642380D01*
X219977619Y-4404285D02*
X219977619Y-3642380D01*
X219310952Y-3261428D02*
X219263333Y-3356666D01*
X219215714Y-3404285D01*
X219120476Y-3451904D01*
X219072857Y-3451904D01*
X218977619Y-3404285D01*
X218930000Y-3356666D01*
X218882380Y-3261428D01*
X218882380Y-3070952D01*
X218930000Y-2975714D01*
X218977619Y-2928095D01*
X219072857Y-2880476D01*
X219120476Y-2880476D01*
X219215714Y-2928095D01*
X219263333Y-2975714D01*
X219310952Y-3070952D01*
X219310952Y-3261428D01*
X219358571Y-3356666D01*
X219406190Y-3404285D01*
X219501428Y-3451904D01*
X219691904Y-3451904D01*
X219787142Y-3404285D01*
X219834761Y-3356666D01*
X219882380Y-3261428D01*
X219882380Y-3070952D01*
X219834761Y-2975714D01*
X219787142Y-2928095D01*
X219691904Y-2880476D01*
X219501428Y-2880476D01*
X219406190Y-2928095D01*
X219358571Y-2975714D01*
X219310952Y-3070952D01*
G04 #@! TO.C,R_IN_9*
X224682380Y-6880476D02*
X224206190Y-7213809D01*
X224682380Y-7451904D02*
X223682380Y-7451904D01*
X223682380Y-7070952D01*
X223730000Y-6975714D01*
X223777619Y-6928095D01*
X223872857Y-6880476D01*
X224015714Y-6880476D01*
X224110952Y-6928095D01*
X224158571Y-6975714D01*
X224206190Y-7070952D01*
X224206190Y-7451904D01*
X224777619Y-6690000D02*
X224777619Y-5928095D01*
X224682380Y-5690000D02*
X223682380Y-5690000D01*
X224682380Y-5213809D02*
X223682380Y-5213809D01*
X224682380Y-4642380D01*
X223682380Y-4642380D01*
X224777619Y-4404285D02*
X224777619Y-3642380D01*
X224682380Y-3356666D02*
X224682380Y-3166190D01*
X224634761Y-3070952D01*
X224587142Y-3023333D01*
X224444285Y-2928095D01*
X224253809Y-2880476D01*
X223872857Y-2880476D01*
X223777619Y-2928095D01*
X223730000Y-2975714D01*
X223682380Y-3070952D01*
X223682380Y-3261428D01*
X223730000Y-3356666D01*
X223777619Y-3404285D01*
X223872857Y-3451904D01*
X224110952Y-3451904D01*
X224206190Y-3404285D01*
X224253809Y-3356666D01*
X224301428Y-3261428D01*
X224301428Y-3070952D01*
X224253809Y-2975714D01*
X224206190Y-2928095D01*
X224110952Y-2880476D01*
G04 #@! TO.C,R_IN_10*
X229282380Y-7356666D02*
X228806190Y-7690000D01*
X229282380Y-7928095D02*
X228282380Y-7928095D01*
X228282380Y-7547142D01*
X228330000Y-7451904D01*
X228377619Y-7404285D01*
X228472857Y-7356666D01*
X228615714Y-7356666D01*
X228710952Y-7404285D01*
X228758571Y-7451904D01*
X228806190Y-7547142D01*
X228806190Y-7928095D01*
X229377619Y-7166190D02*
X229377619Y-6404285D01*
X229282380Y-6166190D02*
X228282380Y-6166190D01*
X229282380Y-5690000D02*
X228282380Y-5690000D01*
X229282380Y-5118571D01*
X228282380Y-5118571D01*
X229377619Y-4880476D02*
X229377619Y-4118571D01*
X229282380Y-3356666D02*
X229282380Y-3928095D01*
X229282380Y-3642380D02*
X228282380Y-3642380D01*
X228425238Y-3737619D01*
X228520476Y-3832857D01*
X228568095Y-3928095D01*
X228282380Y-2737619D02*
X228282380Y-2642380D01*
X228330000Y-2547142D01*
X228377619Y-2499523D01*
X228472857Y-2451904D01*
X228663333Y-2404285D01*
X228901428Y-2404285D01*
X229091904Y-2451904D01*
X229187142Y-2499523D01*
X229234761Y-2547142D01*
X229282380Y-2642380D01*
X229282380Y-2737619D01*
X229234761Y-2832857D01*
X229187142Y-2880476D01*
X229091904Y-2928095D01*
X228901428Y-2975714D01*
X228663333Y-2975714D01*
X228472857Y-2928095D01*
X228377619Y-2880476D01*
X228330000Y-2832857D01*
X228282380Y-2737619D01*
G04 #@! TO.C,R_IN_11*
X327682380Y-7356666D02*
X327206190Y-7690000D01*
X327682380Y-7928095D02*
X326682380Y-7928095D01*
X326682380Y-7547142D01*
X326730000Y-7451904D01*
X326777619Y-7404285D01*
X326872857Y-7356666D01*
X327015714Y-7356666D01*
X327110952Y-7404285D01*
X327158571Y-7451904D01*
X327206190Y-7547142D01*
X327206190Y-7928095D01*
X327777619Y-7166190D02*
X327777619Y-6404285D01*
X327682380Y-6166190D02*
X326682380Y-6166190D01*
X327682380Y-5690000D02*
X326682380Y-5690000D01*
X327682380Y-5118571D01*
X326682380Y-5118571D01*
X327777619Y-4880476D02*
X327777619Y-4118571D01*
X327682380Y-3356666D02*
X327682380Y-3928095D01*
X327682380Y-3642380D02*
X326682380Y-3642380D01*
X326825238Y-3737619D01*
X326920476Y-3832857D01*
X326968095Y-3928095D01*
X327682380Y-2404285D02*
X327682380Y-2975714D01*
X327682380Y-2690000D02*
X326682380Y-2690000D01*
X326825238Y-2785238D01*
X326920476Y-2880476D01*
X326968095Y-2975714D01*
G04 #@! TO.C,R_IN_12*
X332482380Y-7356666D02*
X332006190Y-7690000D01*
X332482380Y-7928095D02*
X331482380Y-7928095D01*
X331482380Y-7547142D01*
X331530000Y-7451904D01*
X331577619Y-7404285D01*
X331672857Y-7356666D01*
X331815714Y-7356666D01*
X331910952Y-7404285D01*
X331958571Y-7451904D01*
X332006190Y-7547142D01*
X332006190Y-7928095D01*
X332577619Y-7166190D02*
X332577619Y-6404285D01*
X332482380Y-6166190D02*
X331482380Y-6166190D01*
X332482380Y-5690000D02*
X331482380Y-5690000D01*
X332482380Y-5118571D01*
X331482380Y-5118571D01*
X332577619Y-4880476D02*
X332577619Y-4118571D01*
X332482380Y-3356666D02*
X332482380Y-3928095D01*
X332482380Y-3642380D02*
X331482380Y-3642380D01*
X331625238Y-3737619D01*
X331720476Y-3832857D01*
X331768095Y-3928095D01*
X331577619Y-2975714D02*
X331530000Y-2928095D01*
X331482380Y-2832857D01*
X331482380Y-2594761D01*
X331530000Y-2499523D01*
X331577619Y-2451904D01*
X331672857Y-2404285D01*
X331768095Y-2404285D01*
X331910952Y-2451904D01*
X332482380Y-3023333D01*
X332482380Y-2404285D01*
G04 #@! TO.C,R_IN_13*
X337282380Y-7356666D02*
X336806190Y-7690000D01*
X337282380Y-7928095D02*
X336282380Y-7928095D01*
X336282380Y-7547142D01*
X336330000Y-7451904D01*
X336377619Y-7404285D01*
X336472857Y-7356666D01*
X336615714Y-7356666D01*
X336710952Y-7404285D01*
X336758571Y-7451904D01*
X336806190Y-7547142D01*
X336806190Y-7928095D01*
X337377619Y-7166190D02*
X337377619Y-6404285D01*
X337282380Y-6166190D02*
X336282380Y-6166190D01*
X337282380Y-5690000D02*
X336282380Y-5690000D01*
X337282380Y-5118571D01*
X336282380Y-5118571D01*
X337377619Y-4880476D02*
X337377619Y-4118571D01*
X337282380Y-3356666D02*
X337282380Y-3928095D01*
X337282380Y-3642380D02*
X336282380Y-3642380D01*
X336425238Y-3737619D01*
X336520476Y-3832857D01*
X336568095Y-3928095D01*
X336282380Y-3023333D02*
X336282380Y-2404285D01*
X336663333Y-2737619D01*
X336663333Y-2594761D01*
X336710952Y-2499523D01*
X336758571Y-2451904D01*
X336853809Y-2404285D01*
X337091904Y-2404285D01*
X337187142Y-2451904D01*
X337234761Y-2499523D01*
X337282380Y-2594761D01*
X337282380Y-2880476D01*
X337234761Y-2975714D01*
X337187142Y-3023333D01*
G04 #@! TO.C,R_IN_14*
X342082380Y-7356666D02*
X341606190Y-7690000D01*
X342082380Y-7928095D02*
X341082380Y-7928095D01*
X341082380Y-7547142D01*
X341130000Y-7451904D01*
X341177619Y-7404285D01*
X341272857Y-7356666D01*
X341415714Y-7356666D01*
X341510952Y-7404285D01*
X341558571Y-7451904D01*
X341606190Y-7547142D01*
X341606190Y-7928095D01*
X342177619Y-7166190D02*
X342177619Y-6404285D01*
X342082380Y-6166190D02*
X341082380Y-6166190D01*
X342082380Y-5690000D02*
X341082380Y-5690000D01*
X342082380Y-5118571D01*
X341082380Y-5118571D01*
X342177619Y-4880476D02*
X342177619Y-4118571D01*
X342082380Y-3356666D02*
X342082380Y-3928095D01*
X342082380Y-3642380D02*
X341082380Y-3642380D01*
X341225238Y-3737619D01*
X341320476Y-3832857D01*
X341368095Y-3928095D01*
X341415714Y-2499523D02*
X342082380Y-2499523D01*
X341034761Y-2737619D02*
X341749047Y-2975714D01*
X341749047Y-2356666D01*
G04 #@! TO.C,R_IN_15*
X346882380Y-7356666D02*
X346406190Y-7690000D01*
X346882380Y-7928095D02*
X345882380Y-7928095D01*
X345882380Y-7547142D01*
X345930000Y-7451904D01*
X345977619Y-7404285D01*
X346072857Y-7356666D01*
X346215714Y-7356666D01*
X346310952Y-7404285D01*
X346358571Y-7451904D01*
X346406190Y-7547142D01*
X346406190Y-7928095D01*
X346977619Y-7166190D02*
X346977619Y-6404285D01*
X346882380Y-6166190D02*
X345882380Y-6166190D01*
X346882380Y-5690000D02*
X345882380Y-5690000D01*
X346882380Y-5118571D01*
X345882380Y-5118571D01*
X346977619Y-4880476D02*
X346977619Y-4118571D01*
X346882380Y-3356666D02*
X346882380Y-3928095D01*
X346882380Y-3642380D02*
X345882380Y-3642380D01*
X346025238Y-3737619D01*
X346120476Y-3832857D01*
X346168095Y-3928095D01*
X345882380Y-2451904D02*
X345882380Y-2928095D01*
X346358571Y-2975714D01*
X346310952Y-2928095D01*
X346263333Y-2832857D01*
X346263333Y-2594761D01*
X346310952Y-2499523D01*
X346358571Y-2451904D01*
X346453809Y-2404285D01*
X346691904Y-2404285D01*
X346787142Y-2451904D01*
X346834761Y-2499523D01*
X346882380Y-2594761D01*
X346882380Y-2832857D01*
X346834761Y-2928095D01*
X346787142Y-2975714D01*
G04 #@! TO.C,R_IN_16*
X420482380Y-7356666D02*
X420006190Y-7690000D01*
X420482380Y-7928095D02*
X419482380Y-7928095D01*
X419482380Y-7547142D01*
X419530000Y-7451904D01*
X419577619Y-7404285D01*
X419672857Y-7356666D01*
X419815714Y-7356666D01*
X419910952Y-7404285D01*
X419958571Y-7451904D01*
X420006190Y-7547142D01*
X420006190Y-7928095D01*
X420577619Y-7166190D02*
X420577619Y-6404285D01*
X420482380Y-6166190D02*
X419482380Y-6166190D01*
X420482380Y-5690000D02*
X419482380Y-5690000D01*
X420482380Y-5118571D01*
X419482380Y-5118571D01*
X420577619Y-4880476D02*
X420577619Y-4118571D01*
X420482380Y-3356666D02*
X420482380Y-3928095D01*
X420482380Y-3642380D02*
X419482380Y-3642380D01*
X419625238Y-3737619D01*
X419720476Y-3832857D01*
X419768095Y-3928095D01*
X419482380Y-2499523D02*
X419482380Y-2690000D01*
X419530000Y-2785238D01*
X419577619Y-2832857D01*
X419720476Y-2928095D01*
X419910952Y-2975714D01*
X420291904Y-2975714D01*
X420387142Y-2928095D01*
X420434761Y-2880476D01*
X420482380Y-2785238D01*
X420482380Y-2594761D01*
X420434761Y-2499523D01*
X420387142Y-2451904D01*
X420291904Y-2404285D01*
X420053809Y-2404285D01*
X419958571Y-2451904D01*
X419910952Y-2499523D01*
X419863333Y-2594761D01*
X419863333Y-2785238D01*
X419910952Y-2880476D01*
X419958571Y-2928095D01*
X420053809Y-2975714D01*
G04 #@! TO.C,R_IN_17*
X425282380Y-7356666D02*
X424806190Y-7690000D01*
X425282380Y-7928095D02*
X424282380Y-7928095D01*
X424282380Y-7547142D01*
X424330000Y-7451904D01*
X424377619Y-7404285D01*
X424472857Y-7356666D01*
X424615714Y-7356666D01*
X424710952Y-7404285D01*
X424758571Y-7451904D01*
X424806190Y-7547142D01*
X424806190Y-7928095D01*
X425377619Y-7166190D02*
X425377619Y-6404285D01*
X425282380Y-6166190D02*
X424282380Y-6166190D01*
X425282380Y-5690000D02*
X424282380Y-5690000D01*
X425282380Y-5118571D01*
X424282380Y-5118571D01*
X425377619Y-4880476D02*
X425377619Y-4118571D01*
X425282380Y-3356666D02*
X425282380Y-3928095D01*
X425282380Y-3642380D02*
X424282380Y-3642380D01*
X424425238Y-3737619D01*
X424520476Y-3832857D01*
X424568095Y-3928095D01*
X424282380Y-3023333D02*
X424282380Y-2356666D01*
X425282380Y-2785238D01*
G04 #@! TO.C,R_IN_18*
X430082380Y-7356666D02*
X429606190Y-7690000D01*
X430082380Y-7928095D02*
X429082380Y-7928095D01*
X429082380Y-7547142D01*
X429130000Y-7451904D01*
X429177619Y-7404285D01*
X429272857Y-7356666D01*
X429415714Y-7356666D01*
X429510952Y-7404285D01*
X429558571Y-7451904D01*
X429606190Y-7547142D01*
X429606190Y-7928095D01*
X430177619Y-7166190D02*
X430177619Y-6404285D01*
X430082380Y-6166190D02*
X429082380Y-6166190D01*
X430082380Y-5690000D02*
X429082380Y-5690000D01*
X430082380Y-5118571D01*
X429082380Y-5118571D01*
X430177619Y-4880476D02*
X430177619Y-4118571D01*
X430082380Y-3356666D02*
X430082380Y-3928095D01*
X430082380Y-3642380D02*
X429082380Y-3642380D01*
X429225238Y-3737619D01*
X429320476Y-3832857D01*
X429368095Y-3928095D01*
X429510952Y-2785238D02*
X429463333Y-2880476D01*
X429415714Y-2928095D01*
X429320476Y-2975714D01*
X429272857Y-2975714D01*
X429177619Y-2928095D01*
X429130000Y-2880476D01*
X429082380Y-2785238D01*
X429082380Y-2594761D01*
X429130000Y-2499523D01*
X429177619Y-2451904D01*
X429272857Y-2404285D01*
X429320476Y-2404285D01*
X429415714Y-2451904D01*
X429463333Y-2499523D01*
X429510952Y-2594761D01*
X429510952Y-2785238D01*
X429558571Y-2880476D01*
X429606190Y-2928095D01*
X429701428Y-2975714D01*
X429891904Y-2975714D01*
X429987142Y-2928095D01*
X430034761Y-2880476D01*
X430082380Y-2785238D01*
X430082380Y-2594761D01*
X430034761Y-2499523D01*
X429987142Y-2451904D01*
X429891904Y-2404285D01*
X429701428Y-2404285D01*
X429606190Y-2451904D01*
X429558571Y-2499523D01*
X429510952Y-2594761D01*
G04 #@! TO.C,R_IN_19*
X449882380Y-7356666D02*
X449406190Y-7690000D01*
X449882380Y-7928095D02*
X448882380Y-7928095D01*
X448882380Y-7547142D01*
X448930000Y-7451904D01*
X448977619Y-7404285D01*
X449072857Y-7356666D01*
X449215714Y-7356666D01*
X449310952Y-7404285D01*
X449358571Y-7451904D01*
X449406190Y-7547142D01*
X449406190Y-7928095D01*
X449977619Y-7166190D02*
X449977619Y-6404285D01*
X449882380Y-6166190D02*
X448882380Y-6166190D01*
X449882380Y-5690000D02*
X448882380Y-5690000D01*
X449882380Y-5118571D01*
X448882380Y-5118571D01*
X449977619Y-4880476D02*
X449977619Y-4118571D01*
X449882380Y-3356666D02*
X449882380Y-3928095D01*
X449882380Y-3642380D02*
X448882380Y-3642380D01*
X449025238Y-3737619D01*
X449120476Y-3832857D01*
X449168095Y-3928095D01*
X449882380Y-2880476D02*
X449882380Y-2690000D01*
X449834761Y-2594761D01*
X449787142Y-2547142D01*
X449644285Y-2451904D01*
X449453809Y-2404285D01*
X449072857Y-2404285D01*
X448977619Y-2451904D01*
X448930000Y-2499523D01*
X448882380Y-2594761D01*
X448882380Y-2785238D01*
X448930000Y-2880476D01*
X448977619Y-2928095D01*
X449072857Y-2975714D01*
X449310952Y-2975714D01*
X449406190Y-2928095D01*
X449453809Y-2880476D01*
X449501428Y-2785238D01*
X449501428Y-2594761D01*
X449453809Y-2499523D01*
X449406190Y-2451904D01*
X449310952Y-2404285D01*
G04 #@! TO.C,R_IN_20*
X454682380Y-7356666D02*
X454206190Y-7690000D01*
X454682380Y-7928095D02*
X453682380Y-7928095D01*
X453682380Y-7547142D01*
X453730000Y-7451904D01*
X453777619Y-7404285D01*
X453872857Y-7356666D01*
X454015714Y-7356666D01*
X454110952Y-7404285D01*
X454158571Y-7451904D01*
X454206190Y-7547142D01*
X454206190Y-7928095D01*
X454777619Y-7166190D02*
X454777619Y-6404285D01*
X454682380Y-6166190D02*
X453682380Y-6166190D01*
X454682380Y-5690000D02*
X453682380Y-5690000D01*
X454682380Y-5118571D01*
X453682380Y-5118571D01*
X454777619Y-4880476D02*
X454777619Y-4118571D01*
X453777619Y-3928095D02*
X453730000Y-3880476D01*
X453682380Y-3785238D01*
X453682380Y-3547142D01*
X453730000Y-3451904D01*
X453777619Y-3404285D01*
X453872857Y-3356666D01*
X453968095Y-3356666D01*
X454110952Y-3404285D01*
X454682380Y-3975714D01*
X454682380Y-3356666D01*
X453682380Y-2737619D02*
X453682380Y-2642380D01*
X453730000Y-2547142D01*
X453777619Y-2499523D01*
X453872857Y-2451904D01*
X454063333Y-2404285D01*
X454301428Y-2404285D01*
X454491904Y-2451904D01*
X454587142Y-2499523D01*
X454634761Y-2547142D01*
X454682380Y-2642380D01*
X454682380Y-2737619D01*
X454634761Y-2832857D01*
X454587142Y-2880476D01*
X454491904Y-2928095D01*
X454301428Y-2975714D01*
X454063333Y-2975714D01*
X453872857Y-2928095D01*
X453777619Y-2880476D01*
X453730000Y-2832857D01*
X453682380Y-2737619D01*
G04 #@! TO.C,R_LED_1_1*
X156582380Y-17952857D02*
X156106190Y-18286190D01*
X156582380Y-18524285D02*
X155582380Y-18524285D01*
X155582380Y-18143333D01*
X155630000Y-18048095D01*
X155677619Y-18000476D01*
X155772857Y-17952857D01*
X155915714Y-17952857D01*
X156010952Y-18000476D01*
X156058571Y-18048095D01*
X156106190Y-18143333D01*
X156106190Y-18524285D01*
X156677619Y-17762380D02*
X156677619Y-17000476D01*
X156582380Y-16286190D02*
X156582380Y-16762380D01*
X155582380Y-16762380D01*
X156058571Y-15952857D02*
X156058571Y-15619523D01*
X156582380Y-15476666D02*
X156582380Y-15952857D01*
X155582380Y-15952857D01*
X155582380Y-15476666D01*
X156582380Y-15048095D02*
X155582380Y-15048095D01*
X155582380Y-14810000D01*
X155630000Y-14667142D01*
X155725238Y-14571904D01*
X155820476Y-14524285D01*
X156010952Y-14476666D01*
X156153809Y-14476666D01*
X156344285Y-14524285D01*
X156439523Y-14571904D01*
X156534761Y-14667142D01*
X156582380Y-14810000D01*
X156582380Y-15048095D01*
X156677619Y-14286190D02*
X156677619Y-13524285D01*
X156582380Y-12762380D02*
X156582380Y-13333809D01*
X156582380Y-13048095D02*
X155582380Y-13048095D01*
X155725238Y-13143333D01*
X155820476Y-13238571D01*
X155868095Y-13333809D01*
X156677619Y-12571904D02*
X156677619Y-11810000D01*
X156582380Y-11048095D02*
X156582380Y-11619523D01*
X156582380Y-11333809D02*
X155582380Y-11333809D01*
X155725238Y-11429047D01*
X155820476Y-11524285D01*
X155868095Y-11619523D01*
G04 #@! TO.C,R_LED_2_1*
X231882380Y-17932857D02*
X231406190Y-18266190D01*
X231882380Y-18504285D02*
X230882380Y-18504285D01*
X230882380Y-18123333D01*
X230930000Y-18028095D01*
X230977619Y-17980476D01*
X231072857Y-17932857D01*
X231215714Y-17932857D01*
X231310952Y-17980476D01*
X231358571Y-18028095D01*
X231406190Y-18123333D01*
X231406190Y-18504285D01*
X231977619Y-17742380D02*
X231977619Y-16980476D01*
X231882380Y-16266190D02*
X231882380Y-16742380D01*
X230882380Y-16742380D01*
X231358571Y-15932857D02*
X231358571Y-15599523D01*
X231882380Y-15456666D02*
X231882380Y-15932857D01*
X230882380Y-15932857D01*
X230882380Y-15456666D01*
X231882380Y-15028095D02*
X230882380Y-15028095D01*
X230882380Y-14790000D01*
X230930000Y-14647142D01*
X231025238Y-14551904D01*
X231120476Y-14504285D01*
X231310952Y-14456666D01*
X231453809Y-14456666D01*
X231644285Y-14504285D01*
X231739523Y-14551904D01*
X231834761Y-14647142D01*
X231882380Y-14790000D01*
X231882380Y-15028095D01*
X231977619Y-14266190D02*
X231977619Y-13504285D01*
X230977619Y-13313809D02*
X230930000Y-13266190D01*
X230882380Y-13170952D01*
X230882380Y-12932857D01*
X230930000Y-12837619D01*
X230977619Y-12790000D01*
X231072857Y-12742380D01*
X231168095Y-12742380D01*
X231310952Y-12790000D01*
X231882380Y-13361428D01*
X231882380Y-12742380D01*
X231977619Y-12551904D02*
X231977619Y-11790000D01*
X231882380Y-11028095D02*
X231882380Y-11599523D01*
X231882380Y-11313809D02*
X230882380Y-11313809D01*
X231025238Y-11409047D01*
X231120476Y-11504285D01*
X231168095Y-11599523D01*
G04 #@! TO.C,R_LED_3_1*
X349282380Y-17932857D02*
X348806190Y-18266190D01*
X349282380Y-18504285D02*
X348282380Y-18504285D01*
X348282380Y-18123333D01*
X348330000Y-18028095D01*
X348377619Y-17980476D01*
X348472857Y-17932857D01*
X348615714Y-17932857D01*
X348710952Y-17980476D01*
X348758571Y-18028095D01*
X348806190Y-18123333D01*
X348806190Y-18504285D01*
X349377619Y-17742380D02*
X349377619Y-16980476D01*
X349282380Y-16266190D02*
X349282380Y-16742380D01*
X348282380Y-16742380D01*
X348758571Y-15932857D02*
X348758571Y-15599523D01*
X349282380Y-15456666D02*
X349282380Y-15932857D01*
X348282380Y-15932857D01*
X348282380Y-15456666D01*
X349282380Y-15028095D02*
X348282380Y-15028095D01*
X348282380Y-14790000D01*
X348330000Y-14647142D01*
X348425238Y-14551904D01*
X348520476Y-14504285D01*
X348710952Y-14456666D01*
X348853809Y-14456666D01*
X349044285Y-14504285D01*
X349139523Y-14551904D01*
X349234761Y-14647142D01*
X349282380Y-14790000D01*
X349282380Y-15028095D01*
X349377619Y-14266190D02*
X349377619Y-13504285D01*
X348282380Y-13361428D02*
X348282380Y-12742380D01*
X348663333Y-13075714D01*
X348663333Y-12932857D01*
X348710952Y-12837619D01*
X348758571Y-12790000D01*
X348853809Y-12742380D01*
X349091904Y-12742380D01*
X349187142Y-12790000D01*
X349234761Y-12837619D01*
X349282380Y-12932857D01*
X349282380Y-13218571D01*
X349234761Y-13313809D01*
X349187142Y-13361428D01*
X349377619Y-12551904D02*
X349377619Y-11790000D01*
X349282380Y-11028095D02*
X349282380Y-11599523D01*
X349282380Y-11313809D02*
X348282380Y-11313809D01*
X348425238Y-11409047D01*
X348520476Y-11504285D01*
X348568095Y-11599523D01*
G04 #@! TO.C,R_LED_4_1*
X457082380Y-17932857D02*
X456606190Y-18266190D01*
X457082380Y-18504285D02*
X456082380Y-18504285D01*
X456082380Y-18123333D01*
X456130000Y-18028095D01*
X456177619Y-17980476D01*
X456272857Y-17932857D01*
X456415714Y-17932857D01*
X456510952Y-17980476D01*
X456558571Y-18028095D01*
X456606190Y-18123333D01*
X456606190Y-18504285D01*
X457177619Y-17742380D02*
X457177619Y-16980476D01*
X457082380Y-16266190D02*
X457082380Y-16742380D01*
X456082380Y-16742380D01*
X456558571Y-15932857D02*
X456558571Y-15599523D01*
X457082380Y-15456666D02*
X457082380Y-15932857D01*
X456082380Y-15932857D01*
X456082380Y-15456666D01*
X457082380Y-15028095D02*
X456082380Y-15028095D01*
X456082380Y-14790000D01*
X456130000Y-14647142D01*
X456225238Y-14551904D01*
X456320476Y-14504285D01*
X456510952Y-14456666D01*
X456653809Y-14456666D01*
X456844285Y-14504285D01*
X456939523Y-14551904D01*
X457034761Y-14647142D01*
X457082380Y-14790000D01*
X457082380Y-15028095D01*
X457177619Y-14266190D02*
X457177619Y-13504285D01*
X456415714Y-12837619D02*
X457082380Y-12837619D01*
X456034761Y-13075714D02*
X456749047Y-13313809D01*
X456749047Y-12694761D01*
X457177619Y-12551904D02*
X457177619Y-11790000D01*
X457082380Y-11028095D02*
X457082380Y-11599523D01*
X457082380Y-11313809D02*
X456082380Y-11313809D01*
X456225238Y-11409047D01*
X456320476Y-11504285D01*
X456368095Y-11599523D01*
G04 #@! TO.C,R_OUT_1*
X137382380Y-17167142D02*
X136906190Y-17500476D01*
X137382380Y-17738571D02*
X136382380Y-17738571D01*
X136382380Y-17357619D01*
X136430000Y-17262380D01*
X136477619Y-17214761D01*
X136572857Y-17167142D01*
X136715714Y-17167142D01*
X136810952Y-17214761D01*
X136858571Y-17262380D01*
X136906190Y-17357619D01*
X136906190Y-17738571D01*
X137477619Y-16976666D02*
X137477619Y-16214761D01*
X136382380Y-15786190D02*
X136382380Y-15595714D01*
X136430000Y-15500476D01*
X136525238Y-15405238D01*
X136715714Y-15357619D01*
X137049047Y-15357619D01*
X137239523Y-15405238D01*
X137334761Y-15500476D01*
X137382380Y-15595714D01*
X137382380Y-15786190D01*
X137334761Y-15881428D01*
X137239523Y-15976666D01*
X137049047Y-16024285D01*
X136715714Y-16024285D01*
X136525238Y-15976666D01*
X136430000Y-15881428D01*
X136382380Y-15786190D01*
X136382380Y-14929047D02*
X137191904Y-14929047D01*
X137287142Y-14881428D01*
X137334761Y-14833809D01*
X137382380Y-14738571D01*
X137382380Y-14548095D01*
X137334761Y-14452857D01*
X137287142Y-14405238D01*
X137191904Y-14357619D01*
X136382380Y-14357619D01*
X136382380Y-14024285D02*
X136382380Y-13452857D01*
X137382380Y-13738571D02*
X136382380Y-13738571D01*
X137477619Y-13357619D02*
X137477619Y-12595714D01*
X137382380Y-11833809D02*
X137382380Y-12405238D01*
X137382380Y-12119523D02*
X136382380Y-12119523D01*
X136525238Y-12214761D01*
X136620476Y-12310000D01*
X136668095Y-12405238D01*
G04 #@! TO.C,R_OUT_2*
X142182380Y-17167142D02*
X141706190Y-17500476D01*
X142182380Y-17738571D02*
X141182380Y-17738571D01*
X141182380Y-17357619D01*
X141230000Y-17262380D01*
X141277619Y-17214761D01*
X141372857Y-17167142D01*
X141515714Y-17167142D01*
X141610952Y-17214761D01*
X141658571Y-17262380D01*
X141706190Y-17357619D01*
X141706190Y-17738571D01*
X142277619Y-16976666D02*
X142277619Y-16214761D01*
X141182380Y-15786190D02*
X141182380Y-15595714D01*
X141230000Y-15500476D01*
X141325238Y-15405238D01*
X141515714Y-15357619D01*
X141849047Y-15357619D01*
X142039523Y-15405238D01*
X142134761Y-15500476D01*
X142182380Y-15595714D01*
X142182380Y-15786190D01*
X142134761Y-15881428D01*
X142039523Y-15976666D01*
X141849047Y-16024285D01*
X141515714Y-16024285D01*
X141325238Y-15976666D01*
X141230000Y-15881428D01*
X141182380Y-15786190D01*
X141182380Y-14929047D02*
X141991904Y-14929047D01*
X142087142Y-14881428D01*
X142134761Y-14833809D01*
X142182380Y-14738571D01*
X142182380Y-14548095D01*
X142134761Y-14452857D01*
X142087142Y-14405238D01*
X141991904Y-14357619D01*
X141182380Y-14357619D01*
X141182380Y-14024285D02*
X141182380Y-13452857D01*
X142182380Y-13738571D02*
X141182380Y-13738571D01*
X142277619Y-13357619D02*
X142277619Y-12595714D01*
X141277619Y-12405238D02*
X141230000Y-12357619D01*
X141182380Y-12262380D01*
X141182380Y-12024285D01*
X141230000Y-11929047D01*
X141277619Y-11881428D01*
X141372857Y-11833809D01*
X141468095Y-11833809D01*
X141610952Y-11881428D01*
X142182380Y-12452857D01*
X142182380Y-11833809D01*
G04 #@! TO.C,R_OUT_3*
X147182380Y-17167142D02*
X146706190Y-17500476D01*
X147182380Y-17738571D02*
X146182380Y-17738571D01*
X146182380Y-17357619D01*
X146230000Y-17262380D01*
X146277619Y-17214761D01*
X146372857Y-17167142D01*
X146515714Y-17167142D01*
X146610952Y-17214761D01*
X146658571Y-17262380D01*
X146706190Y-17357619D01*
X146706190Y-17738571D01*
X147277619Y-16976666D02*
X147277619Y-16214761D01*
X146182380Y-15786190D02*
X146182380Y-15595714D01*
X146230000Y-15500476D01*
X146325238Y-15405238D01*
X146515714Y-15357619D01*
X146849047Y-15357619D01*
X147039523Y-15405238D01*
X147134761Y-15500476D01*
X147182380Y-15595714D01*
X147182380Y-15786190D01*
X147134761Y-15881428D01*
X147039523Y-15976666D01*
X146849047Y-16024285D01*
X146515714Y-16024285D01*
X146325238Y-15976666D01*
X146230000Y-15881428D01*
X146182380Y-15786190D01*
X146182380Y-14929047D02*
X146991904Y-14929047D01*
X147087142Y-14881428D01*
X147134761Y-14833809D01*
X147182380Y-14738571D01*
X147182380Y-14548095D01*
X147134761Y-14452857D01*
X147087142Y-14405238D01*
X146991904Y-14357619D01*
X146182380Y-14357619D01*
X146182380Y-14024285D02*
X146182380Y-13452857D01*
X147182380Y-13738571D02*
X146182380Y-13738571D01*
X147277619Y-13357619D02*
X147277619Y-12595714D01*
X146182380Y-12452857D02*
X146182380Y-11833809D01*
X146563333Y-12167142D01*
X146563333Y-12024285D01*
X146610952Y-11929047D01*
X146658571Y-11881428D01*
X146753809Y-11833809D01*
X146991904Y-11833809D01*
X147087142Y-11881428D01*
X147134761Y-11929047D01*
X147182380Y-12024285D01*
X147182380Y-12310000D01*
X147134761Y-12405238D01*
X147087142Y-12452857D01*
G04 #@! TO.C,R_OUT_4*
X151782380Y-17167142D02*
X151306190Y-17500476D01*
X151782380Y-17738571D02*
X150782380Y-17738571D01*
X150782380Y-17357619D01*
X150830000Y-17262380D01*
X150877619Y-17214761D01*
X150972857Y-17167142D01*
X151115714Y-17167142D01*
X151210952Y-17214761D01*
X151258571Y-17262380D01*
X151306190Y-17357619D01*
X151306190Y-17738571D01*
X151877619Y-16976666D02*
X151877619Y-16214761D01*
X150782380Y-15786190D02*
X150782380Y-15595714D01*
X150830000Y-15500476D01*
X150925238Y-15405238D01*
X151115714Y-15357619D01*
X151449047Y-15357619D01*
X151639523Y-15405238D01*
X151734761Y-15500476D01*
X151782380Y-15595714D01*
X151782380Y-15786190D01*
X151734761Y-15881428D01*
X151639523Y-15976666D01*
X151449047Y-16024285D01*
X151115714Y-16024285D01*
X150925238Y-15976666D01*
X150830000Y-15881428D01*
X150782380Y-15786190D01*
X150782380Y-14929047D02*
X151591904Y-14929047D01*
X151687142Y-14881428D01*
X151734761Y-14833809D01*
X151782380Y-14738571D01*
X151782380Y-14548095D01*
X151734761Y-14452857D01*
X151687142Y-14405238D01*
X151591904Y-14357619D01*
X150782380Y-14357619D01*
X150782380Y-14024285D02*
X150782380Y-13452857D01*
X151782380Y-13738571D02*
X150782380Y-13738571D01*
X151877619Y-13357619D02*
X151877619Y-12595714D01*
X151115714Y-11929047D02*
X151782380Y-11929047D01*
X150734761Y-12167142D02*
X151449047Y-12405238D01*
X151449047Y-11786190D01*
G04 #@! TO.C,R_OUT_5*
X212682380Y-17147142D02*
X212206190Y-17480476D01*
X212682380Y-17718571D02*
X211682380Y-17718571D01*
X211682380Y-17337619D01*
X211730000Y-17242380D01*
X211777619Y-17194761D01*
X211872857Y-17147142D01*
X212015714Y-17147142D01*
X212110952Y-17194761D01*
X212158571Y-17242380D01*
X212206190Y-17337619D01*
X212206190Y-17718571D01*
X212777619Y-16956666D02*
X212777619Y-16194761D01*
X211682380Y-15766190D02*
X211682380Y-15575714D01*
X211730000Y-15480476D01*
X211825238Y-15385238D01*
X212015714Y-15337619D01*
X212349047Y-15337619D01*
X212539523Y-15385238D01*
X212634761Y-15480476D01*
X212682380Y-15575714D01*
X212682380Y-15766190D01*
X212634761Y-15861428D01*
X212539523Y-15956666D01*
X212349047Y-16004285D01*
X212015714Y-16004285D01*
X211825238Y-15956666D01*
X211730000Y-15861428D01*
X211682380Y-15766190D01*
X211682380Y-14909047D02*
X212491904Y-14909047D01*
X212587142Y-14861428D01*
X212634761Y-14813809D01*
X212682380Y-14718571D01*
X212682380Y-14528095D01*
X212634761Y-14432857D01*
X212587142Y-14385238D01*
X212491904Y-14337619D01*
X211682380Y-14337619D01*
X211682380Y-14004285D02*
X211682380Y-13432857D01*
X212682380Y-13718571D02*
X211682380Y-13718571D01*
X212777619Y-13337619D02*
X212777619Y-12575714D01*
X211682380Y-11861428D02*
X211682380Y-12337619D01*
X212158571Y-12385238D01*
X212110952Y-12337619D01*
X212063333Y-12242380D01*
X212063333Y-12004285D01*
X212110952Y-11909047D01*
X212158571Y-11861428D01*
X212253809Y-11813809D01*
X212491904Y-11813809D01*
X212587142Y-11861428D01*
X212634761Y-11909047D01*
X212682380Y-12004285D01*
X212682380Y-12242380D01*
X212634761Y-12337619D01*
X212587142Y-12385238D01*
G04 #@! TO.C,R_OUT_6*
X217482380Y-17147142D02*
X217006190Y-17480476D01*
X217482380Y-17718571D02*
X216482380Y-17718571D01*
X216482380Y-17337619D01*
X216530000Y-17242380D01*
X216577619Y-17194761D01*
X216672857Y-17147142D01*
X216815714Y-17147142D01*
X216910952Y-17194761D01*
X216958571Y-17242380D01*
X217006190Y-17337619D01*
X217006190Y-17718571D01*
X217577619Y-16956666D02*
X217577619Y-16194761D01*
X216482380Y-15766190D02*
X216482380Y-15575714D01*
X216530000Y-15480476D01*
X216625238Y-15385238D01*
X216815714Y-15337619D01*
X217149047Y-15337619D01*
X217339523Y-15385238D01*
X217434761Y-15480476D01*
X217482380Y-15575714D01*
X217482380Y-15766190D01*
X217434761Y-15861428D01*
X217339523Y-15956666D01*
X217149047Y-16004285D01*
X216815714Y-16004285D01*
X216625238Y-15956666D01*
X216530000Y-15861428D01*
X216482380Y-15766190D01*
X216482380Y-14909047D02*
X217291904Y-14909047D01*
X217387142Y-14861428D01*
X217434761Y-14813809D01*
X217482380Y-14718571D01*
X217482380Y-14528095D01*
X217434761Y-14432857D01*
X217387142Y-14385238D01*
X217291904Y-14337619D01*
X216482380Y-14337619D01*
X216482380Y-14004285D02*
X216482380Y-13432857D01*
X217482380Y-13718571D02*
X216482380Y-13718571D01*
X217577619Y-13337619D02*
X217577619Y-12575714D01*
X216482380Y-11909047D02*
X216482380Y-12099523D01*
X216530000Y-12194761D01*
X216577619Y-12242380D01*
X216720476Y-12337619D01*
X216910952Y-12385238D01*
X217291904Y-12385238D01*
X217387142Y-12337619D01*
X217434761Y-12290000D01*
X217482380Y-12194761D01*
X217482380Y-12004285D01*
X217434761Y-11909047D01*
X217387142Y-11861428D01*
X217291904Y-11813809D01*
X217053809Y-11813809D01*
X216958571Y-11861428D01*
X216910952Y-11909047D01*
X216863333Y-12004285D01*
X216863333Y-12194761D01*
X216910952Y-12290000D01*
X216958571Y-12337619D01*
X217053809Y-12385238D01*
G04 #@! TO.C,R_OUT_7*
X222282380Y-17147142D02*
X221806190Y-17480476D01*
X222282380Y-17718571D02*
X221282380Y-17718571D01*
X221282380Y-17337619D01*
X221330000Y-17242380D01*
X221377619Y-17194761D01*
X221472857Y-17147142D01*
X221615714Y-17147142D01*
X221710952Y-17194761D01*
X221758571Y-17242380D01*
X221806190Y-17337619D01*
X221806190Y-17718571D01*
X222377619Y-16956666D02*
X222377619Y-16194761D01*
X221282380Y-15766190D02*
X221282380Y-15575714D01*
X221330000Y-15480476D01*
X221425238Y-15385238D01*
X221615714Y-15337619D01*
X221949047Y-15337619D01*
X222139523Y-15385238D01*
X222234761Y-15480476D01*
X222282380Y-15575714D01*
X222282380Y-15766190D01*
X222234761Y-15861428D01*
X222139523Y-15956666D01*
X221949047Y-16004285D01*
X221615714Y-16004285D01*
X221425238Y-15956666D01*
X221330000Y-15861428D01*
X221282380Y-15766190D01*
X221282380Y-14909047D02*
X222091904Y-14909047D01*
X222187142Y-14861428D01*
X222234761Y-14813809D01*
X222282380Y-14718571D01*
X222282380Y-14528095D01*
X222234761Y-14432857D01*
X222187142Y-14385238D01*
X222091904Y-14337619D01*
X221282380Y-14337619D01*
X221282380Y-14004285D02*
X221282380Y-13432857D01*
X222282380Y-13718571D02*
X221282380Y-13718571D01*
X222377619Y-13337619D02*
X222377619Y-12575714D01*
X221282380Y-12432857D02*
X221282380Y-11766190D01*
X222282380Y-12194761D01*
G04 #@! TO.C,R_OUT_8*
X227082380Y-17147142D02*
X226606190Y-17480476D01*
X227082380Y-17718571D02*
X226082380Y-17718571D01*
X226082380Y-17337619D01*
X226130000Y-17242380D01*
X226177619Y-17194761D01*
X226272857Y-17147142D01*
X226415714Y-17147142D01*
X226510952Y-17194761D01*
X226558571Y-17242380D01*
X226606190Y-17337619D01*
X226606190Y-17718571D01*
X227177619Y-16956666D02*
X227177619Y-16194761D01*
X226082380Y-15766190D02*
X226082380Y-15575714D01*
X226130000Y-15480476D01*
X226225238Y-15385238D01*
X226415714Y-15337619D01*
X226749047Y-15337619D01*
X226939523Y-15385238D01*
X227034761Y-15480476D01*
X227082380Y-15575714D01*
X227082380Y-15766190D01*
X227034761Y-15861428D01*
X226939523Y-15956666D01*
X226749047Y-16004285D01*
X226415714Y-16004285D01*
X226225238Y-15956666D01*
X226130000Y-15861428D01*
X226082380Y-15766190D01*
X226082380Y-14909047D02*
X226891904Y-14909047D01*
X226987142Y-14861428D01*
X227034761Y-14813809D01*
X227082380Y-14718571D01*
X227082380Y-14528095D01*
X227034761Y-14432857D01*
X226987142Y-14385238D01*
X226891904Y-14337619D01*
X226082380Y-14337619D01*
X226082380Y-14004285D02*
X226082380Y-13432857D01*
X227082380Y-13718571D02*
X226082380Y-13718571D01*
X227177619Y-13337619D02*
X227177619Y-12575714D01*
X226510952Y-12194761D02*
X226463333Y-12290000D01*
X226415714Y-12337619D01*
X226320476Y-12385238D01*
X226272857Y-12385238D01*
X226177619Y-12337619D01*
X226130000Y-12290000D01*
X226082380Y-12194761D01*
X226082380Y-12004285D01*
X226130000Y-11909047D01*
X226177619Y-11861428D01*
X226272857Y-11813809D01*
X226320476Y-11813809D01*
X226415714Y-11861428D01*
X226463333Y-11909047D01*
X226510952Y-12004285D01*
X226510952Y-12194761D01*
X226558571Y-12290000D01*
X226606190Y-12337619D01*
X226701428Y-12385238D01*
X226891904Y-12385238D01*
X226987142Y-12337619D01*
X227034761Y-12290000D01*
X227082380Y-12194761D01*
X227082380Y-12004285D01*
X227034761Y-11909047D01*
X226987142Y-11861428D01*
X226891904Y-11813809D01*
X226701428Y-11813809D01*
X226606190Y-11861428D01*
X226558571Y-11909047D01*
X226510952Y-12004285D01*
G04 #@! TO.C,R_OUT_9*
X330082380Y-17147142D02*
X329606190Y-17480476D01*
X330082380Y-17718571D02*
X329082380Y-17718571D01*
X329082380Y-17337619D01*
X329130000Y-17242380D01*
X329177619Y-17194761D01*
X329272857Y-17147142D01*
X329415714Y-17147142D01*
X329510952Y-17194761D01*
X329558571Y-17242380D01*
X329606190Y-17337619D01*
X329606190Y-17718571D01*
X330177619Y-16956666D02*
X330177619Y-16194761D01*
X329082380Y-15766190D02*
X329082380Y-15575714D01*
X329130000Y-15480476D01*
X329225238Y-15385238D01*
X329415714Y-15337619D01*
X329749047Y-15337619D01*
X329939523Y-15385238D01*
X330034761Y-15480476D01*
X330082380Y-15575714D01*
X330082380Y-15766190D01*
X330034761Y-15861428D01*
X329939523Y-15956666D01*
X329749047Y-16004285D01*
X329415714Y-16004285D01*
X329225238Y-15956666D01*
X329130000Y-15861428D01*
X329082380Y-15766190D01*
X329082380Y-14909047D02*
X329891904Y-14909047D01*
X329987142Y-14861428D01*
X330034761Y-14813809D01*
X330082380Y-14718571D01*
X330082380Y-14528095D01*
X330034761Y-14432857D01*
X329987142Y-14385238D01*
X329891904Y-14337619D01*
X329082380Y-14337619D01*
X329082380Y-14004285D02*
X329082380Y-13432857D01*
X330082380Y-13718571D02*
X329082380Y-13718571D01*
X330177619Y-13337619D02*
X330177619Y-12575714D01*
X330082380Y-12290000D02*
X330082380Y-12099523D01*
X330034761Y-12004285D01*
X329987142Y-11956666D01*
X329844285Y-11861428D01*
X329653809Y-11813809D01*
X329272857Y-11813809D01*
X329177619Y-11861428D01*
X329130000Y-11909047D01*
X329082380Y-12004285D01*
X329082380Y-12194761D01*
X329130000Y-12290000D01*
X329177619Y-12337619D01*
X329272857Y-12385238D01*
X329510952Y-12385238D01*
X329606190Y-12337619D01*
X329653809Y-12290000D01*
X329701428Y-12194761D01*
X329701428Y-12004285D01*
X329653809Y-11909047D01*
X329606190Y-11861428D01*
X329510952Y-11813809D01*
G04 #@! TO.C,R_OUT_10*
X334882380Y-17623333D02*
X334406190Y-17956666D01*
X334882380Y-18194761D02*
X333882380Y-18194761D01*
X333882380Y-17813809D01*
X333930000Y-17718571D01*
X333977619Y-17670952D01*
X334072857Y-17623333D01*
X334215714Y-17623333D01*
X334310952Y-17670952D01*
X334358571Y-17718571D01*
X334406190Y-17813809D01*
X334406190Y-18194761D01*
X334977619Y-17432857D02*
X334977619Y-16670952D01*
X333882380Y-16242380D02*
X333882380Y-16051904D01*
X333930000Y-15956666D01*
X334025238Y-15861428D01*
X334215714Y-15813809D01*
X334549047Y-15813809D01*
X334739523Y-15861428D01*
X334834761Y-15956666D01*
X334882380Y-16051904D01*
X334882380Y-16242380D01*
X334834761Y-16337619D01*
X334739523Y-16432857D01*
X334549047Y-16480476D01*
X334215714Y-16480476D01*
X334025238Y-16432857D01*
X333930000Y-16337619D01*
X333882380Y-16242380D01*
X333882380Y-15385238D02*
X334691904Y-15385238D01*
X334787142Y-15337619D01*
X334834761Y-15290000D01*
X334882380Y-15194761D01*
X334882380Y-15004285D01*
X334834761Y-14909047D01*
X334787142Y-14861428D01*
X334691904Y-14813809D01*
X333882380Y-14813809D01*
X333882380Y-14480476D02*
X333882380Y-13909047D01*
X334882380Y-14194761D02*
X333882380Y-14194761D01*
X334977619Y-13813809D02*
X334977619Y-13051904D01*
X334882380Y-12290000D02*
X334882380Y-12861428D01*
X334882380Y-12575714D02*
X333882380Y-12575714D01*
X334025238Y-12670952D01*
X334120476Y-12766190D01*
X334168095Y-12861428D01*
X333882380Y-11670952D02*
X333882380Y-11575714D01*
X333930000Y-11480476D01*
X333977619Y-11432857D01*
X334072857Y-11385238D01*
X334263333Y-11337619D01*
X334501428Y-11337619D01*
X334691904Y-11385238D01*
X334787142Y-11432857D01*
X334834761Y-11480476D01*
X334882380Y-11575714D01*
X334882380Y-11670952D01*
X334834761Y-11766190D01*
X334787142Y-11813809D01*
X334691904Y-11861428D01*
X334501428Y-11909047D01*
X334263333Y-11909047D01*
X334072857Y-11861428D01*
X333977619Y-11813809D01*
X333930000Y-11766190D01*
X333882380Y-11670952D01*
G04 #@! TO.C,R_OUT_11*
X339682380Y-17623333D02*
X339206190Y-17956666D01*
X339682380Y-18194761D02*
X338682380Y-18194761D01*
X338682380Y-17813809D01*
X338730000Y-17718571D01*
X338777619Y-17670952D01*
X338872857Y-17623333D01*
X339015714Y-17623333D01*
X339110952Y-17670952D01*
X339158571Y-17718571D01*
X339206190Y-17813809D01*
X339206190Y-18194761D01*
X339777619Y-17432857D02*
X339777619Y-16670952D01*
X338682380Y-16242380D02*
X338682380Y-16051904D01*
X338730000Y-15956666D01*
X338825238Y-15861428D01*
X339015714Y-15813809D01*
X339349047Y-15813809D01*
X339539523Y-15861428D01*
X339634761Y-15956666D01*
X339682380Y-16051904D01*
X339682380Y-16242380D01*
X339634761Y-16337619D01*
X339539523Y-16432857D01*
X339349047Y-16480476D01*
X339015714Y-16480476D01*
X338825238Y-16432857D01*
X338730000Y-16337619D01*
X338682380Y-16242380D01*
X338682380Y-15385238D02*
X339491904Y-15385238D01*
X339587142Y-15337619D01*
X339634761Y-15290000D01*
X339682380Y-15194761D01*
X339682380Y-15004285D01*
X339634761Y-14909047D01*
X339587142Y-14861428D01*
X339491904Y-14813809D01*
X338682380Y-14813809D01*
X338682380Y-14480476D02*
X338682380Y-13909047D01*
X339682380Y-14194761D02*
X338682380Y-14194761D01*
X339777619Y-13813809D02*
X339777619Y-13051904D01*
X339682380Y-12290000D02*
X339682380Y-12861428D01*
X339682380Y-12575714D02*
X338682380Y-12575714D01*
X338825238Y-12670952D01*
X338920476Y-12766190D01*
X338968095Y-12861428D01*
X339682380Y-11337619D02*
X339682380Y-11909047D01*
X339682380Y-11623333D02*
X338682380Y-11623333D01*
X338825238Y-11718571D01*
X338920476Y-11813809D01*
X338968095Y-11909047D01*
G04 #@! TO.C,R_OUT_12*
X344482380Y-17623333D02*
X344006190Y-17956666D01*
X344482380Y-18194761D02*
X343482380Y-18194761D01*
X343482380Y-17813809D01*
X343530000Y-17718571D01*
X343577619Y-17670952D01*
X343672857Y-17623333D01*
X343815714Y-17623333D01*
X343910952Y-17670952D01*
X343958571Y-17718571D01*
X344006190Y-17813809D01*
X344006190Y-18194761D01*
X344577619Y-17432857D02*
X344577619Y-16670952D01*
X343482380Y-16242380D02*
X343482380Y-16051904D01*
X343530000Y-15956666D01*
X343625238Y-15861428D01*
X343815714Y-15813809D01*
X344149047Y-15813809D01*
X344339523Y-15861428D01*
X344434761Y-15956666D01*
X344482380Y-16051904D01*
X344482380Y-16242380D01*
X344434761Y-16337619D01*
X344339523Y-16432857D01*
X344149047Y-16480476D01*
X343815714Y-16480476D01*
X343625238Y-16432857D01*
X343530000Y-16337619D01*
X343482380Y-16242380D01*
X343482380Y-15385238D02*
X344291904Y-15385238D01*
X344387142Y-15337619D01*
X344434761Y-15290000D01*
X344482380Y-15194761D01*
X344482380Y-15004285D01*
X344434761Y-14909047D01*
X344387142Y-14861428D01*
X344291904Y-14813809D01*
X343482380Y-14813809D01*
X343482380Y-14480476D02*
X343482380Y-13909047D01*
X344482380Y-14194761D02*
X343482380Y-14194761D01*
X344577619Y-13813809D02*
X344577619Y-13051904D01*
X344482380Y-12290000D02*
X344482380Y-12861428D01*
X344482380Y-12575714D02*
X343482380Y-12575714D01*
X343625238Y-12670952D01*
X343720476Y-12766190D01*
X343768095Y-12861428D01*
X343577619Y-11909047D02*
X343530000Y-11861428D01*
X343482380Y-11766190D01*
X343482380Y-11528095D01*
X343530000Y-11432857D01*
X343577619Y-11385238D01*
X343672857Y-11337619D01*
X343768095Y-11337619D01*
X343910952Y-11385238D01*
X344482380Y-11956666D01*
X344482380Y-11337619D01*
G04 #@! TO.C,R_OUT_13*
X422882380Y-17623333D02*
X422406190Y-17956666D01*
X422882380Y-18194761D02*
X421882380Y-18194761D01*
X421882380Y-17813809D01*
X421930000Y-17718571D01*
X421977619Y-17670952D01*
X422072857Y-17623333D01*
X422215714Y-17623333D01*
X422310952Y-17670952D01*
X422358571Y-17718571D01*
X422406190Y-17813809D01*
X422406190Y-18194761D01*
X422977619Y-17432857D02*
X422977619Y-16670952D01*
X421882380Y-16242380D02*
X421882380Y-16051904D01*
X421930000Y-15956666D01*
X422025238Y-15861428D01*
X422215714Y-15813809D01*
X422549047Y-15813809D01*
X422739523Y-15861428D01*
X422834761Y-15956666D01*
X422882380Y-16051904D01*
X422882380Y-16242380D01*
X422834761Y-16337619D01*
X422739523Y-16432857D01*
X422549047Y-16480476D01*
X422215714Y-16480476D01*
X422025238Y-16432857D01*
X421930000Y-16337619D01*
X421882380Y-16242380D01*
X421882380Y-15385238D02*
X422691904Y-15385238D01*
X422787142Y-15337619D01*
X422834761Y-15290000D01*
X422882380Y-15194761D01*
X422882380Y-15004285D01*
X422834761Y-14909047D01*
X422787142Y-14861428D01*
X422691904Y-14813809D01*
X421882380Y-14813809D01*
X421882380Y-14480476D02*
X421882380Y-13909047D01*
X422882380Y-14194761D02*
X421882380Y-14194761D01*
X422977619Y-13813809D02*
X422977619Y-13051904D01*
X422882380Y-12290000D02*
X422882380Y-12861428D01*
X422882380Y-12575714D02*
X421882380Y-12575714D01*
X422025238Y-12670952D01*
X422120476Y-12766190D01*
X422168095Y-12861428D01*
X421882380Y-11956666D02*
X421882380Y-11337619D01*
X422263333Y-11670952D01*
X422263333Y-11528095D01*
X422310952Y-11432857D01*
X422358571Y-11385238D01*
X422453809Y-11337619D01*
X422691904Y-11337619D01*
X422787142Y-11385238D01*
X422834761Y-11432857D01*
X422882380Y-11528095D01*
X422882380Y-11813809D01*
X422834761Y-11909047D01*
X422787142Y-11956666D01*
G04 #@! TO.C,R_OUT_14*
X427682380Y-17623333D02*
X427206190Y-17956666D01*
X427682380Y-18194761D02*
X426682380Y-18194761D01*
X426682380Y-17813809D01*
X426730000Y-17718571D01*
X426777619Y-17670952D01*
X426872857Y-17623333D01*
X427015714Y-17623333D01*
X427110952Y-17670952D01*
X427158571Y-17718571D01*
X427206190Y-17813809D01*
X427206190Y-18194761D01*
X427777619Y-17432857D02*
X427777619Y-16670952D01*
X426682380Y-16242380D02*
X426682380Y-16051904D01*
X426730000Y-15956666D01*
X426825238Y-15861428D01*
X427015714Y-15813809D01*
X427349047Y-15813809D01*
X427539523Y-15861428D01*
X427634761Y-15956666D01*
X427682380Y-16051904D01*
X427682380Y-16242380D01*
X427634761Y-16337619D01*
X427539523Y-16432857D01*
X427349047Y-16480476D01*
X427015714Y-16480476D01*
X426825238Y-16432857D01*
X426730000Y-16337619D01*
X426682380Y-16242380D01*
X426682380Y-15385238D02*
X427491904Y-15385238D01*
X427587142Y-15337619D01*
X427634761Y-15290000D01*
X427682380Y-15194761D01*
X427682380Y-15004285D01*
X427634761Y-14909047D01*
X427587142Y-14861428D01*
X427491904Y-14813809D01*
X426682380Y-14813809D01*
X426682380Y-14480476D02*
X426682380Y-13909047D01*
X427682380Y-14194761D02*
X426682380Y-14194761D01*
X427777619Y-13813809D02*
X427777619Y-13051904D01*
X427682380Y-12290000D02*
X427682380Y-12861428D01*
X427682380Y-12575714D02*
X426682380Y-12575714D01*
X426825238Y-12670952D01*
X426920476Y-12766190D01*
X426968095Y-12861428D01*
X427015714Y-11432857D02*
X427682380Y-11432857D01*
X426634761Y-11670952D02*
X427349047Y-11909047D01*
X427349047Y-11290000D01*
G04 #@! TO.C,R_OUT_15*
X432482380Y-17623333D02*
X432006190Y-17956666D01*
X432482380Y-18194761D02*
X431482380Y-18194761D01*
X431482380Y-17813809D01*
X431530000Y-17718571D01*
X431577619Y-17670952D01*
X431672857Y-17623333D01*
X431815714Y-17623333D01*
X431910952Y-17670952D01*
X431958571Y-17718571D01*
X432006190Y-17813809D01*
X432006190Y-18194761D01*
X432577619Y-17432857D02*
X432577619Y-16670952D01*
X431482380Y-16242380D02*
X431482380Y-16051904D01*
X431530000Y-15956666D01*
X431625238Y-15861428D01*
X431815714Y-15813809D01*
X432149047Y-15813809D01*
X432339523Y-15861428D01*
X432434761Y-15956666D01*
X432482380Y-16051904D01*
X432482380Y-16242380D01*
X432434761Y-16337619D01*
X432339523Y-16432857D01*
X432149047Y-16480476D01*
X431815714Y-16480476D01*
X431625238Y-16432857D01*
X431530000Y-16337619D01*
X431482380Y-16242380D01*
X431482380Y-15385238D02*
X432291904Y-15385238D01*
X432387142Y-15337619D01*
X432434761Y-15290000D01*
X432482380Y-15194761D01*
X432482380Y-15004285D01*
X432434761Y-14909047D01*
X432387142Y-14861428D01*
X432291904Y-14813809D01*
X431482380Y-14813809D01*
X431482380Y-14480476D02*
X431482380Y-13909047D01*
X432482380Y-14194761D02*
X431482380Y-14194761D01*
X432577619Y-13813809D02*
X432577619Y-13051904D01*
X432482380Y-12290000D02*
X432482380Y-12861428D01*
X432482380Y-12575714D02*
X431482380Y-12575714D01*
X431625238Y-12670952D01*
X431720476Y-12766190D01*
X431768095Y-12861428D01*
X431482380Y-11385238D02*
X431482380Y-11861428D01*
X431958571Y-11909047D01*
X431910952Y-11861428D01*
X431863333Y-11766190D01*
X431863333Y-11528095D01*
X431910952Y-11432857D01*
X431958571Y-11385238D01*
X432053809Y-11337619D01*
X432291904Y-11337619D01*
X432387142Y-11385238D01*
X432434761Y-11432857D01*
X432482380Y-11528095D01*
X432482380Y-11766190D01*
X432434761Y-11861428D01*
X432387142Y-11909047D01*
G04 #@! TO.C,R_OUT_16*
X452282380Y-17623333D02*
X451806190Y-17956666D01*
X452282380Y-18194761D02*
X451282380Y-18194761D01*
X451282380Y-17813809D01*
X451330000Y-17718571D01*
X451377619Y-17670952D01*
X451472857Y-17623333D01*
X451615714Y-17623333D01*
X451710952Y-17670952D01*
X451758571Y-17718571D01*
X451806190Y-17813809D01*
X451806190Y-18194761D01*
X452377619Y-17432857D02*
X452377619Y-16670952D01*
X451282380Y-16242380D02*
X451282380Y-16051904D01*
X451330000Y-15956666D01*
X451425238Y-15861428D01*
X451615714Y-15813809D01*
X451949047Y-15813809D01*
X452139523Y-15861428D01*
X452234761Y-15956666D01*
X452282380Y-16051904D01*
X452282380Y-16242380D01*
X452234761Y-16337619D01*
X452139523Y-16432857D01*
X451949047Y-16480476D01*
X451615714Y-16480476D01*
X451425238Y-16432857D01*
X451330000Y-16337619D01*
X451282380Y-16242380D01*
X451282380Y-15385238D02*
X452091904Y-15385238D01*
X452187142Y-15337619D01*
X452234761Y-15290000D01*
X452282380Y-15194761D01*
X452282380Y-15004285D01*
X452234761Y-14909047D01*
X452187142Y-14861428D01*
X452091904Y-14813809D01*
X451282380Y-14813809D01*
X451282380Y-14480476D02*
X451282380Y-13909047D01*
X452282380Y-14194761D02*
X451282380Y-14194761D01*
X452377619Y-13813809D02*
X452377619Y-13051904D01*
X452282380Y-12290000D02*
X452282380Y-12861428D01*
X452282380Y-12575714D02*
X451282380Y-12575714D01*
X451425238Y-12670952D01*
X451520476Y-12766190D01*
X451568095Y-12861428D01*
X451282380Y-11432857D02*
X451282380Y-11623333D01*
X451330000Y-11718571D01*
X451377619Y-11766190D01*
X451520476Y-11861428D01*
X451710952Y-11909047D01*
X452091904Y-11909047D01*
X452187142Y-11861428D01*
X452234761Y-11813809D01*
X452282380Y-11718571D01*
X452282380Y-11528095D01*
X452234761Y-11432857D01*
X452187142Y-11385238D01*
X452091904Y-11337619D01*
X451853809Y-11337619D01*
X451758571Y-11385238D01*
X451710952Y-11432857D01*
X451663333Y-11528095D01*
X451663333Y-11718571D01*
X451710952Y-11813809D01*
X451758571Y-11861428D01*
X451853809Y-11909047D01*
G04 #@! TO.C,R_Split_1_1*
X124310000Y-2582380D02*
X123976666Y-2106190D01*
X123738571Y-2582380D02*
X123738571Y-1582380D01*
X124119523Y-1582380D01*
X124214761Y-1630000D01*
X124262380Y-1677619D01*
X124310000Y-1772857D01*
X124310000Y-1915714D01*
X124262380Y-2010952D01*
X124214761Y-2058571D01*
X124119523Y-2106190D01*
X123738571Y-2106190D01*
X124500476Y-2677619D02*
X125262380Y-2677619D01*
X125452857Y-2534761D02*
X125595714Y-2582380D01*
X125833809Y-2582380D01*
X125929047Y-2534761D01*
X125976666Y-2487142D01*
X126024285Y-2391904D01*
X126024285Y-2296666D01*
X125976666Y-2201428D01*
X125929047Y-2153809D01*
X125833809Y-2106190D01*
X125643333Y-2058571D01*
X125548095Y-2010952D01*
X125500476Y-1963333D01*
X125452857Y-1868095D01*
X125452857Y-1772857D01*
X125500476Y-1677619D01*
X125548095Y-1630000D01*
X125643333Y-1582380D01*
X125881428Y-1582380D01*
X126024285Y-1630000D01*
X126452857Y-1915714D02*
X126452857Y-2915714D01*
X126452857Y-1963333D02*
X126548095Y-1915714D01*
X126738571Y-1915714D01*
X126833809Y-1963333D01*
X126881428Y-2010952D01*
X126929047Y-2106190D01*
X126929047Y-2391904D01*
X126881428Y-2487142D01*
X126833809Y-2534761D01*
X126738571Y-2582380D01*
X126548095Y-2582380D01*
X126452857Y-2534761D01*
X127500476Y-2582380D02*
X127405238Y-2534761D01*
X127357619Y-2439523D01*
X127357619Y-1582380D01*
X127881428Y-2582380D02*
X127881428Y-1915714D01*
X127881428Y-1582380D02*
X127833809Y-1630000D01*
X127881428Y-1677619D01*
X127929047Y-1630000D01*
X127881428Y-1582380D01*
X127881428Y-1677619D01*
X128214761Y-1915714D02*
X128595714Y-1915714D01*
X128357619Y-1582380D02*
X128357619Y-2439523D01*
X128405238Y-2534761D01*
X128500476Y-2582380D01*
X128595714Y-2582380D01*
X128690952Y-2677619D02*
X129452857Y-2677619D01*
X130214761Y-2582380D02*
X129643333Y-2582380D01*
X129929047Y-2582380D02*
X129929047Y-1582380D01*
X129833809Y-1725238D01*
X129738571Y-1820476D01*
X129643333Y-1868095D01*
X130405238Y-2677619D02*
X131167142Y-2677619D01*
X131929047Y-2582380D02*
X131357619Y-2582380D01*
X131643333Y-2582380D02*
X131643333Y-1582380D01*
X131548095Y-1725238D01*
X131452857Y-1820476D01*
X131357619Y-1868095D01*
G04 #@! TO.C,R_Split_1_2*
X124310000Y-8582380D02*
X123976666Y-8106190D01*
X123738571Y-8582380D02*
X123738571Y-7582380D01*
X124119523Y-7582380D01*
X124214761Y-7630000D01*
X124262380Y-7677619D01*
X124310000Y-7772857D01*
X124310000Y-7915714D01*
X124262380Y-8010952D01*
X124214761Y-8058571D01*
X124119523Y-8106190D01*
X123738571Y-8106190D01*
X124500476Y-8677619D02*
X125262380Y-8677619D01*
X125452857Y-8534761D02*
X125595714Y-8582380D01*
X125833809Y-8582380D01*
X125929047Y-8534761D01*
X125976666Y-8487142D01*
X126024285Y-8391904D01*
X126024285Y-8296666D01*
X125976666Y-8201428D01*
X125929047Y-8153809D01*
X125833809Y-8106190D01*
X125643333Y-8058571D01*
X125548095Y-8010952D01*
X125500476Y-7963333D01*
X125452857Y-7868095D01*
X125452857Y-7772857D01*
X125500476Y-7677619D01*
X125548095Y-7630000D01*
X125643333Y-7582380D01*
X125881428Y-7582380D01*
X126024285Y-7630000D01*
X126452857Y-7915714D02*
X126452857Y-8915714D01*
X126452857Y-7963333D02*
X126548095Y-7915714D01*
X126738571Y-7915714D01*
X126833809Y-7963333D01*
X126881428Y-8010952D01*
X126929047Y-8106190D01*
X126929047Y-8391904D01*
X126881428Y-8487142D01*
X126833809Y-8534761D01*
X126738571Y-8582380D01*
X126548095Y-8582380D01*
X126452857Y-8534761D01*
X127500476Y-8582380D02*
X127405238Y-8534761D01*
X127357619Y-8439523D01*
X127357619Y-7582380D01*
X127881428Y-8582380D02*
X127881428Y-7915714D01*
X127881428Y-7582380D02*
X127833809Y-7630000D01*
X127881428Y-7677619D01*
X127929047Y-7630000D01*
X127881428Y-7582380D01*
X127881428Y-7677619D01*
X128214761Y-7915714D02*
X128595714Y-7915714D01*
X128357619Y-7582380D02*
X128357619Y-8439523D01*
X128405238Y-8534761D01*
X128500476Y-8582380D01*
X128595714Y-8582380D01*
X128690952Y-8677619D02*
X129452857Y-8677619D01*
X130214761Y-8582380D02*
X129643333Y-8582380D01*
X129929047Y-8582380D02*
X129929047Y-7582380D01*
X129833809Y-7725238D01*
X129738571Y-7820476D01*
X129643333Y-7868095D01*
X130405238Y-8677619D02*
X131167142Y-8677619D01*
X131357619Y-7677619D02*
X131405238Y-7630000D01*
X131500476Y-7582380D01*
X131738571Y-7582380D01*
X131833809Y-7630000D01*
X131881428Y-7677619D01*
X131929047Y-7772857D01*
X131929047Y-7868095D01*
X131881428Y-8010952D01*
X131310000Y-8582380D01*
X131929047Y-8582380D01*
G04 #@! TO.C,R_Split_2_1*
X197310000Y-2082380D02*
X196976666Y-1606190D01*
X196738571Y-2082380D02*
X196738571Y-1082380D01*
X197119523Y-1082380D01*
X197214761Y-1130000D01*
X197262380Y-1177619D01*
X197310000Y-1272857D01*
X197310000Y-1415714D01*
X197262380Y-1510952D01*
X197214761Y-1558571D01*
X197119523Y-1606190D01*
X196738571Y-1606190D01*
X197500476Y-2177619D02*
X198262380Y-2177619D01*
X198452857Y-2034761D02*
X198595714Y-2082380D01*
X198833809Y-2082380D01*
X198929047Y-2034761D01*
X198976666Y-1987142D01*
X199024285Y-1891904D01*
X199024285Y-1796666D01*
X198976666Y-1701428D01*
X198929047Y-1653809D01*
X198833809Y-1606190D01*
X198643333Y-1558571D01*
X198548095Y-1510952D01*
X198500476Y-1463333D01*
X198452857Y-1368095D01*
X198452857Y-1272857D01*
X198500476Y-1177619D01*
X198548095Y-1130000D01*
X198643333Y-1082380D01*
X198881428Y-1082380D01*
X199024285Y-1130000D01*
X199452857Y-1415714D02*
X199452857Y-2415714D01*
X199452857Y-1463333D02*
X199548095Y-1415714D01*
X199738571Y-1415714D01*
X199833809Y-1463333D01*
X199881428Y-1510952D01*
X199929047Y-1606190D01*
X199929047Y-1891904D01*
X199881428Y-1987142D01*
X199833809Y-2034761D01*
X199738571Y-2082380D01*
X199548095Y-2082380D01*
X199452857Y-2034761D01*
X200500476Y-2082380D02*
X200405238Y-2034761D01*
X200357619Y-1939523D01*
X200357619Y-1082380D01*
X200881428Y-2082380D02*
X200881428Y-1415714D01*
X200881428Y-1082380D02*
X200833809Y-1130000D01*
X200881428Y-1177619D01*
X200929047Y-1130000D01*
X200881428Y-1082380D01*
X200881428Y-1177619D01*
X201214761Y-1415714D02*
X201595714Y-1415714D01*
X201357619Y-1082380D02*
X201357619Y-1939523D01*
X201405238Y-2034761D01*
X201500476Y-2082380D01*
X201595714Y-2082380D01*
X201690952Y-2177619D02*
X202452857Y-2177619D01*
X202643333Y-1177619D02*
X202690952Y-1130000D01*
X202786190Y-1082380D01*
X203024285Y-1082380D01*
X203119523Y-1130000D01*
X203167142Y-1177619D01*
X203214761Y-1272857D01*
X203214761Y-1368095D01*
X203167142Y-1510952D01*
X202595714Y-2082380D01*
X203214761Y-2082380D01*
X203405238Y-2177619D02*
X204167142Y-2177619D01*
X204929047Y-2082380D02*
X204357619Y-2082380D01*
X204643333Y-2082380D02*
X204643333Y-1082380D01*
X204548095Y-1225238D01*
X204452857Y-1320476D01*
X204357619Y-1368095D01*
G04 #@! TO.C,R_Split_2_2*
X197310000Y-8082380D02*
X196976666Y-7606190D01*
X196738571Y-8082380D02*
X196738571Y-7082380D01*
X197119523Y-7082380D01*
X197214761Y-7130000D01*
X197262380Y-7177619D01*
X197310000Y-7272857D01*
X197310000Y-7415714D01*
X197262380Y-7510952D01*
X197214761Y-7558571D01*
X197119523Y-7606190D01*
X196738571Y-7606190D01*
X197500476Y-8177619D02*
X198262380Y-8177619D01*
X198452857Y-8034761D02*
X198595714Y-8082380D01*
X198833809Y-8082380D01*
X198929047Y-8034761D01*
X198976666Y-7987142D01*
X199024285Y-7891904D01*
X199024285Y-7796666D01*
X198976666Y-7701428D01*
X198929047Y-7653809D01*
X198833809Y-7606190D01*
X198643333Y-7558571D01*
X198548095Y-7510952D01*
X198500476Y-7463333D01*
X198452857Y-7368095D01*
X198452857Y-7272857D01*
X198500476Y-7177619D01*
X198548095Y-7130000D01*
X198643333Y-7082380D01*
X198881428Y-7082380D01*
X199024285Y-7130000D01*
X199452857Y-7415714D02*
X199452857Y-8415714D01*
X199452857Y-7463333D02*
X199548095Y-7415714D01*
X199738571Y-7415714D01*
X199833809Y-7463333D01*
X199881428Y-7510952D01*
X199929047Y-7606190D01*
X199929047Y-7891904D01*
X199881428Y-7987142D01*
X199833809Y-8034761D01*
X199738571Y-8082380D01*
X199548095Y-8082380D01*
X199452857Y-8034761D01*
X200500476Y-8082380D02*
X200405238Y-8034761D01*
X200357619Y-7939523D01*
X200357619Y-7082380D01*
X200881428Y-8082380D02*
X200881428Y-7415714D01*
X200881428Y-7082380D02*
X200833809Y-7130000D01*
X200881428Y-7177619D01*
X200929047Y-7130000D01*
X200881428Y-7082380D01*
X200881428Y-7177619D01*
X201214761Y-7415714D02*
X201595714Y-7415714D01*
X201357619Y-7082380D02*
X201357619Y-7939523D01*
X201405238Y-8034761D01*
X201500476Y-8082380D01*
X201595714Y-8082380D01*
X201690952Y-8177619D02*
X202452857Y-8177619D01*
X202643333Y-7177619D02*
X202690952Y-7130000D01*
X202786190Y-7082380D01*
X203024285Y-7082380D01*
X203119523Y-7130000D01*
X203167142Y-7177619D01*
X203214761Y-7272857D01*
X203214761Y-7368095D01*
X203167142Y-7510952D01*
X202595714Y-8082380D01*
X203214761Y-8082380D01*
X203405238Y-8177619D02*
X204167142Y-8177619D01*
X204357619Y-7177619D02*
X204405238Y-7130000D01*
X204500476Y-7082380D01*
X204738571Y-7082380D01*
X204833809Y-7130000D01*
X204881428Y-7177619D01*
X204929047Y-7272857D01*
X204929047Y-7368095D01*
X204881428Y-7510952D01*
X204310000Y-8082380D01*
X204929047Y-8082380D01*
G04 #@! TO.C,R_Split_3_1*
X315510000Y-2082380D02*
X315176666Y-1606190D01*
X314938571Y-2082380D02*
X314938571Y-1082380D01*
X315319523Y-1082380D01*
X315414761Y-1130000D01*
X315462380Y-1177619D01*
X315510000Y-1272857D01*
X315510000Y-1415714D01*
X315462380Y-1510952D01*
X315414761Y-1558571D01*
X315319523Y-1606190D01*
X314938571Y-1606190D01*
X315700476Y-2177619D02*
X316462380Y-2177619D01*
X316652857Y-2034761D02*
X316795714Y-2082380D01*
X317033809Y-2082380D01*
X317129047Y-2034761D01*
X317176666Y-1987142D01*
X317224285Y-1891904D01*
X317224285Y-1796666D01*
X317176666Y-1701428D01*
X317129047Y-1653809D01*
X317033809Y-1606190D01*
X316843333Y-1558571D01*
X316748095Y-1510952D01*
X316700476Y-1463333D01*
X316652857Y-1368095D01*
X316652857Y-1272857D01*
X316700476Y-1177619D01*
X316748095Y-1130000D01*
X316843333Y-1082380D01*
X317081428Y-1082380D01*
X317224285Y-1130000D01*
X317652857Y-1415714D02*
X317652857Y-2415714D01*
X317652857Y-1463333D02*
X317748095Y-1415714D01*
X317938571Y-1415714D01*
X318033809Y-1463333D01*
X318081428Y-1510952D01*
X318129047Y-1606190D01*
X318129047Y-1891904D01*
X318081428Y-1987142D01*
X318033809Y-2034761D01*
X317938571Y-2082380D01*
X317748095Y-2082380D01*
X317652857Y-2034761D01*
X318700476Y-2082380D02*
X318605238Y-2034761D01*
X318557619Y-1939523D01*
X318557619Y-1082380D01*
X319081428Y-2082380D02*
X319081428Y-1415714D01*
X319081428Y-1082380D02*
X319033809Y-1130000D01*
X319081428Y-1177619D01*
X319129047Y-1130000D01*
X319081428Y-1082380D01*
X319081428Y-1177619D01*
X319414761Y-1415714D02*
X319795714Y-1415714D01*
X319557619Y-1082380D02*
X319557619Y-1939523D01*
X319605238Y-2034761D01*
X319700476Y-2082380D01*
X319795714Y-2082380D01*
X319890952Y-2177619D02*
X320652857Y-2177619D01*
X320795714Y-1082380D02*
X321414761Y-1082380D01*
X321081428Y-1463333D01*
X321224285Y-1463333D01*
X321319523Y-1510952D01*
X321367142Y-1558571D01*
X321414761Y-1653809D01*
X321414761Y-1891904D01*
X321367142Y-1987142D01*
X321319523Y-2034761D01*
X321224285Y-2082380D01*
X320938571Y-2082380D01*
X320843333Y-2034761D01*
X320795714Y-1987142D01*
X321605238Y-2177619D02*
X322367142Y-2177619D01*
X323129047Y-2082380D02*
X322557619Y-2082380D01*
X322843333Y-2082380D02*
X322843333Y-1082380D01*
X322748095Y-1225238D01*
X322652857Y-1320476D01*
X322557619Y-1368095D01*
G04 #@! TO.C,R_Split_3_2*
X315510000Y-8082380D02*
X315176666Y-7606190D01*
X314938571Y-8082380D02*
X314938571Y-7082380D01*
X315319523Y-7082380D01*
X315414761Y-7130000D01*
X315462380Y-7177619D01*
X315510000Y-7272857D01*
X315510000Y-7415714D01*
X315462380Y-7510952D01*
X315414761Y-7558571D01*
X315319523Y-7606190D01*
X314938571Y-7606190D01*
X315700476Y-8177619D02*
X316462380Y-8177619D01*
X316652857Y-8034761D02*
X316795714Y-8082380D01*
X317033809Y-8082380D01*
X317129047Y-8034761D01*
X317176666Y-7987142D01*
X317224285Y-7891904D01*
X317224285Y-7796666D01*
X317176666Y-7701428D01*
X317129047Y-7653809D01*
X317033809Y-7606190D01*
X316843333Y-7558571D01*
X316748095Y-7510952D01*
X316700476Y-7463333D01*
X316652857Y-7368095D01*
X316652857Y-7272857D01*
X316700476Y-7177619D01*
X316748095Y-7130000D01*
X316843333Y-7082380D01*
X317081428Y-7082380D01*
X317224285Y-7130000D01*
X317652857Y-7415714D02*
X317652857Y-8415714D01*
X317652857Y-7463333D02*
X317748095Y-7415714D01*
X317938571Y-7415714D01*
X318033809Y-7463333D01*
X318081428Y-7510952D01*
X318129047Y-7606190D01*
X318129047Y-7891904D01*
X318081428Y-7987142D01*
X318033809Y-8034761D01*
X317938571Y-8082380D01*
X317748095Y-8082380D01*
X317652857Y-8034761D01*
X318700476Y-8082380D02*
X318605238Y-8034761D01*
X318557619Y-7939523D01*
X318557619Y-7082380D01*
X319081428Y-8082380D02*
X319081428Y-7415714D01*
X319081428Y-7082380D02*
X319033809Y-7130000D01*
X319081428Y-7177619D01*
X319129047Y-7130000D01*
X319081428Y-7082380D01*
X319081428Y-7177619D01*
X319414761Y-7415714D02*
X319795714Y-7415714D01*
X319557619Y-7082380D02*
X319557619Y-7939523D01*
X319605238Y-8034761D01*
X319700476Y-8082380D01*
X319795714Y-8082380D01*
X319890952Y-8177619D02*
X320652857Y-8177619D01*
X320795714Y-7082380D02*
X321414761Y-7082380D01*
X321081428Y-7463333D01*
X321224285Y-7463333D01*
X321319523Y-7510952D01*
X321367142Y-7558571D01*
X321414761Y-7653809D01*
X321414761Y-7891904D01*
X321367142Y-7987142D01*
X321319523Y-8034761D01*
X321224285Y-8082380D01*
X320938571Y-8082380D01*
X320843333Y-8034761D01*
X320795714Y-7987142D01*
X321605238Y-8177619D02*
X322367142Y-8177619D01*
X322557619Y-7177619D02*
X322605238Y-7130000D01*
X322700476Y-7082380D01*
X322938571Y-7082380D01*
X323033809Y-7130000D01*
X323081428Y-7177619D01*
X323129047Y-7272857D01*
X323129047Y-7368095D01*
X323081428Y-7510952D01*
X322510000Y-8082380D01*
X323129047Y-8082380D01*
G04 #@! TO.C,R_Split_4_1*
X393510000Y-2082380D02*
X393176666Y-1606190D01*
X392938571Y-2082380D02*
X392938571Y-1082380D01*
X393319523Y-1082380D01*
X393414761Y-1130000D01*
X393462380Y-1177619D01*
X393510000Y-1272857D01*
X393510000Y-1415714D01*
X393462380Y-1510952D01*
X393414761Y-1558571D01*
X393319523Y-1606190D01*
X392938571Y-1606190D01*
X393700476Y-2177619D02*
X394462380Y-2177619D01*
X394652857Y-2034761D02*
X394795714Y-2082380D01*
X395033809Y-2082380D01*
X395129047Y-2034761D01*
X395176666Y-1987142D01*
X395224285Y-1891904D01*
X395224285Y-1796666D01*
X395176666Y-1701428D01*
X395129047Y-1653809D01*
X395033809Y-1606190D01*
X394843333Y-1558571D01*
X394748095Y-1510952D01*
X394700476Y-1463333D01*
X394652857Y-1368095D01*
X394652857Y-1272857D01*
X394700476Y-1177619D01*
X394748095Y-1130000D01*
X394843333Y-1082380D01*
X395081428Y-1082380D01*
X395224285Y-1130000D01*
X395652857Y-1415714D02*
X395652857Y-2415714D01*
X395652857Y-1463333D02*
X395748095Y-1415714D01*
X395938571Y-1415714D01*
X396033809Y-1463333D01*
X396081428Y-1510952D01*
X396129047Y-1606190D01*
X396129047Y-1891904D01*
X396081428Y-1987142D01*
X396033809Y-2034761D01*
X395938571Y-2082380D01*
X395748095Y-2082380D01*
X395652857Y-2034761D01*
X396700476Y-2082380D02*
X396605238Y-2034761D01*
X396557619Y-1939523D01*
X396557619Y-1082380D01*
X397081428Y-2082380D02*
X397081428Y-1415714D01*
X397081428Y-1082380D02*
X397033809Y-1130000D01*
X397081428Y-1177619D01*
X397129047Y-1130000D01*
X397081428Y-1082380D01*
X397081428Y-1177619D01*
X397414761Y-1415714D02*
X397795714Y-1415714D01*
X397557619Y-1082380D02*
X397557619Y-1939523D01*
X397605238Y-2034761D01*
X397700476Y-2082380D01*
X397795714Y-2082380D01*
X397890952Y-2177619D02*
X398652857Y-2177619D01*
X399319523Y-1415714D02*
X399319523Y-2082380D01*
X399081428Y-1034761D02*
X398843333Y-1749047D01*
X399462380Y-1749047D01*
X399605238Y-2177619D02*
X400367142Y-2177619D01*
X401129047Y-2082380D02*
X400557619Y-2082380D01*
X400843333Y-2082380D02*
X400843333Y-1082380D01*
X400748095Y-1225238D01*
X400652857Y-1320476D01*
X400557619Y-1368095D01*
G04 #@! TO.C,R_Split_4_2*
X393710000Y-8082380D02*
X393376666Y-7606190D01*
X393138571Y-8082380D02*
X393138571Y-7082380D01*
X393519523Y-7082380D01*
X393614761Y-7130000D01*
X393662380Y-7177619D01*
X393710000Y-7272857D01*
X393710000Y-7415714D01*
X393662380Y-7510952D01*
X393614761Y-7558571D01*
X393519523Y-7606190D01*
X393138571Y-7606190D01*
X393900476Y-8177619D02*
X394662380Y-8177619D01*
X394852857Y-8034761D02*
X394995714Y-8082380D01*
X395233809Y-8082380D01*
X395329047Y-8034761D01*
X395376666Y-7987142D01*
X395424285Y-7891904D01*
X395424285Y-7796666D01*
X395376666Y-7701428D01*
X395329047Y-7653809D01*
X395233809Y-7606190D01*
X395043333Y-7558571D01*
X394948095Y-7510952D01*
X394900476Y-7463333D01*
X394852857Y-7368095D01*
X394852857Y-7272857D01*
X394900476Y-7177619D01*
X394948095Y-7130000D01*
X395043333Y-7082380D01*
X395281428Y-7082380D01*
X395424285Y-7130000D01*
X395852857Y-7415714D02*
X395852857Y-8415714D01*
X395852857Y-7463333D02*
X395948095Y-7415714D01*
X396138571Y-7415714D01*
X396233809Y-7463333D01*
X396281428Y-7510952D01*
X396329047Y-7606190D01*
X396329047Y-7891904D01*
X396281428Y-7987142D01*
X396233809Y-8034761D01*
X396138571Y-8082380D01*
X395948095Y-8082380D01*
X395852857Y-8034761D01*
X396900476Y-8082380D02*
X396805238Y-8034761D01*
X396757619Y-7939523D01*
X396757619Y-7082380D01*
X397281428Y-8082380D02*
X397281428Y-7415714D01*
X397281428Y-7082380D02*
X397233809Y-7130000D01*
X397281428Y-7177619D01*
X397329047Y-7130000D01*
X397281428Y-7082380D01*
X397281428Y-7177619D01*
X397614761Y-7415714D02*
X397995714Y-7415714D01*
X397757619Y-7082380D02*
X397757619Y-7939523D01*
X397805238Y-8034761D01*
X397900476Y-8082380D01*
X397995714Y-8082380D01*
X398090952Y-8177619D02*
X398852857Y-8177619D01*
X399519523Y-7415714D02*
X399519523Y-8082380D01*
X399281428Y-7034761D02*
X399043333Y-7749047D01*
X399662380Y-7749047D01*
X399805238Y-8177619D02*
X400567142Y-8177619D01*
X400757619Y-7177619D02*
X400805238Y-7130000D01*
X400900476Y-7082380D01*
X401138571Y-7082380D01*
X401233809Y-7130000D01*
X401281428Y-7177619D01*
X401329047Y-7272857D01*
X401329047Y-7368095D01*
X401281428Y-7510952D01*
X400710000Y-8082380D01*
X401329047Y-8082380D01*
G04 #@! TO.C,U1*
X88622380Y-7951904D02*
X89431904Y-7951904D01*
X89527142Y-7904285D01*
X89574761Y-7856666D01*
X89622380Y-7761428D01*
X89622380Y-7570952D01*
X89574761Y-7475714D01*
X89527142Y-7428095D01*
X89431904Y-7380476D01*
X88622380Y-7380476D01*
X89622380Y-6380476D02*
X89622380Y-6951904D01*
X89622380Y-6666190D02*
X88622380Y-6666190D01*
X88765238Y-6761428D01*
X88860476Y-6856666D01*
X88908095Y-6951904D01*
G04 #@! TO.C,U2*
X168722380Y-7951904D02*
X169531904Y-7951904D01*
X169627142Y-7904285D01*
X169674761Y-7856666D01*
X169722380Y-7761428D01*
X169722380Y-7570952D01*
X169674761Y-7475714D01*
X169627142Y-7428095D01*
X169531904Y-7380476D01*
X168722380Y-7380476D01*
X168817619Y-6951904D02*
X168770000Y-6904285D01*
X168722380Y-6809047D01*
X168722380Y-6570952D01*
X168770000Y-6475714D01*
X168817619Y-6428095D01*
X168912857Y-6380476D01*
X169008095Y-6380476D01*
X169150952Y-6428095D01*
X169722380Y-6999523D01*
X169722380Y-6380476D01*
G04 #@! TO.C,U3*
X289322380Y-7951904D02*
X290131904Y-7951904D01*
X290227142Y-7904285D01*
X290274761Y-7856666D01*
X290322380Y-7761428D01*
X290322380Y-7570952D01*
X290274761Y-7475714D01*
X290227142Y-7428095D01*
X290131904Y-7380476D01*
X289322380Y-7380476D01*
X289322380Y-6999523D02*
X289322380Y-6380476D01*
X289703333Y-6713809D01*
X289703333Y-6570952D01*
X289750952Y-6475714D01*
X289798571Y-6428095D01*
X289893809Y-6380476D01*
X290131904Y-6380476D01*
X290227142Y-6428095D01*
X290274761Y-6475714D01*
X290322380Y-6570952D01*
X290322380Y-6856666D01*
X290274761Y-6951904D01*
X290227142Y-6999523D01*
G04 #@! TO.C,U4*
X367522380Y-7951904D02*
X368331904Y-7951904D01*
X368427142Y-7904285D01*
X368474761Y-7856666D01*
X368522380Y-7761428D01*
X368522380Y-7570952D01*
X368474761Y-7475714D01*
X368427142Y-7428095D01*
X368331904Y-7380476D01*
X367522380Y-7380476D01*
X367855714Y-6475714D02*
X368522380Y-6475714D01*
X367474761Y-6713809D02*
X368189047Y-6951904D01*
X368189047Y-6332857D01*
G04 #@! TO.C,H_MB_1*
X80404761Y-6252380D02*
X80404761Y-5252380D01*
X80404761Y-5728571D02*
X80976190Y-5728571D01*
X80976190Y-6252380D02*
X80976190Y-5252380D01*
X81214285Y-6347619D02*
X81976190Y-6347619D01*
X82214285Y-6252380D02*
X82214285Y-5252380D01*
X82547619Y-5966666D01*
X82880952Y-5252380D01*
X82880952Y-6252380D01*
X83690476Y-5728571D02*
X83833333Y-5776190D01*
X83880952Y-5823809D01*
X83928571Y-5919047D01*
X83928571Y-6061904D01*
X83880952Y-6157142D01*
X83833333Y-6204761D01*
X83738095Y-6252380D01*
X83357142Y-6252380D01*
X83357142Y-5252380D01*
X83690476Y-5252380D01*
X83785714Y-5300000D01*
X83833333Y-5347619D01*
X83880952Y-5442857D01*
X83880952Y-5538095D01*
X83833333Y-5633333D01*
X83785714Y-5680952D01*
X83690476Y-5728571D01*
X83357142Y-5728571D01*
X84119047Y-6347619D02*
X84880952Y-6347619D01*
X85642857Y-6252380D02*
X85071428Y-6252380D01*
X85357142Y-6252380D02*
X85357142Y-5252380D01*
X85261904Y-5395238D01*
X85166666Y-5490476D01*
X85071428Y-5538095D01*
G04 #@! TO.C,H_MB_2*
X440404761Y-6252380D02*
X440404761Y-5252380D01*
X440404761Y-5728571D02*
X440976190Y-5728571D01*
X440976190Y-6252380D02*
X440976190Y-5252380D01*
X441214285Y-6347619D02*
X441976190Y-6347619D01*
X442214285Y-6252380D02*
X442214285Y-5252380D01*
X442547619Y-5966666D01*
X442880952Y-5252380D01*
X442880952Y-6252380D01*
X443690476Y-5728571D02*
X443833333Y-5776190D01*
X443880952Y-5823809D01*
X443928571Y-5919047D01*
X443928571Y-6061904D01*
X443880952Y-6157142D01*
X443833333Y-6204761D01*
X443738095Y-6252380D01*
X443357142Y-6252380D01*
X443357142Y-5252380D01*
X443690476Y-5252380D01*
X443785714Y-5300000D01*
X443833333Y-5347619D01*
X443880952Y-5442857D01*
X443880952Y-5538095D01*
X443833333Y-5633333D01*
X443785714Y-5680952D01*
X443690476Y-5728571D01*
X443357142Y-5728571D01*
X444119047Y-6347619D02*
X444880952Y-6347619D01*
X445071428Y-5347619D02*
X445119047Y-5300000D01*
X445214285Y-5252380D01*
X445452380Y-5252380D01*
X445547619Y-5300000D01*
X445595238Y-5347619D01*
X445642857Y-5442857D01*
X445642857Y-5538095D01*
X445595238Y-5680952D01*
X445023809Y-6252380D01*
X445642857Y-6252380D01*
G04 #@! TO.C,J_MB1.1*
X50730000Y-1682380D02*
X50730000Y-2396666D01*
X50682380Y-2539523D01*
X50587142Y-2634761D01*
X50444285Y-2682380D01*
X50349047Y-2682380D01*
X50968095Y-2777619D02*
X51730000Y-2777619D01*
X51968095Y-2682380D02*
X51968095Y-1682380D01*
X52301428Y-2396666D01*
X52634761Y-1682380D01*
X52634761Y-2682380D01*
X53444285Y-2158571D02*
X53587142Y-2206190D01*
X53634761Y-2253809D01*
X53682380Y-2349047D01*
X53682380Y-2491904D01*
X53634761Y-2587142D01*
X53587142Y-2634761D01*
X53491904Y-2682380D01*
X53110952Y-2682380D01*
X53110952Y-1682380D01*
X53444285Y-1682380D01*
X53539523Y-1730000D01*
X53587142Y-1777619D01*
X53634761Y-1872857D01*
X53634761Y-1968095D01*
X53587142Y-2063333D01*
X53539523Y-2110952D01*
X53444285Y-2158571D01*
X53110952Y-2158571D01*
X54634761Y-2682380D02*
X54063333Y-2682380D01*
X54349047Y-2682380D02*
X54349047Y-1682380D01*
X54253809Y-1825238D01*
X54158571Y-1920476D01*
X54063333Y-1968095D01*
X55063333Y-2587142D02*
X55110952Y-2634761D01*
X55063333Y-2682380D01*
X55015714Y-2634761D01*
X55063333Y-2587142D01*
X55063333Y-2682380D01*
X56063333Y-2682380D02*
X55491904Y-2682380D01*
X55777619Y-2682380D02*
X55777619Y-1682380D01*
X55682380Y-1825238D01*
X55587142Y-1920476D01*
X55491904Y-1968095D01*
G04 #@! TO.C,J_MB1.2*
X952380Y-6000000D02*
X1666666Y-6000000D01*
X1809523Y-6047619D01*
X1904761Y-6142857D01*
X1952380Y-6285714D01*
X1952380Y-6380952D01*
X2047619Y-5761904D02*
X2047619Y-5000000D01*
X1952380Y-4761904D02*
X952380Y-4761904D01*
X1666666Y-4428571D01*
X952380Y-4095238D01*
X1952380Y-4095238D01*
X1428571Y-3285714D02*
X1476190Y-3142857D01*
X1523809Y-3095238D01*
X1619047Y-3047619D01*
X1761904Y-3047619D01*
X1857142Y-3095238D01*
X1904761Y-3142857D01*
X1952380Y-3238095D01*
X1952380Y-3619047D01*
X952380Y-3619047D01*
X952380Y-3285714D01*
X1000000Y-3190476D01*
X1047619Y-3142857D01*
X1142857Y-3095238D01*
X1238095Y-3095238D01*
X1333333Y-3142857D01*
X1380952Y-3190476D01*
X1428571Y-3285714D01*
X1428571Y-3619047D01*
X1952380Y-2095238D02*
X1952380Y-2666666D01*
X1952380Y-2380952D02*
X952380Y-2380952D01*
X1095238Y-2476190D01*
X1190476Y-2571428D01*
X1238095Y-2666666D01*
X1857142Y-1666666D02*
X1904761Y-1619047D01*
X1952380Y-1666666D01*
X1904761Y-1714285D01*
X1857142Y-1666666D01*
X1952380Y-1666666D01*
X1047619Y-1238095D02*
X1000000Y-1190476D01*
X952380Y-1095238D01*
X952380Y-857142D01*
X1000000Y-761904D01*
X1047619Y-714285D01*
X1142857Y-666666D01*
X1238095Y-666666D01*
X1380952Y-714285D01*
X1952380Y-1285714D01*
X1952380Y-666666D01*
G04 #@! TO.C,J_MB2.2*
X13952380Y-6000000D02*
X14666666Y-6000000D01*
X14809523Y-6047619D01*
X14904761Y-6142857D01*
X14952380Y-6285714D01*
X14952380Y-6380952D01*
X15047619Y-5761904D02*
X15047619Y-5000000D01*
X14952380Y-4761904D02*
X13952380Y-4761904D01*
X14666666Y-4428571D01*
X13952380Y-4095238D01*
X14952380Y-4095238D01*
X14428571Y-3285714D02*
X14476190Y-3142857D01*
X14523809Y-3095238D01*
X14619047Y-3047619D01*
X14761904Y-3047619D01*
X14857142Y-3095238D01*
X14904761Y-3142857D01*
X14952380Y-3238095D01*
X14952380Y-3619047D01*
X13952380Y-3619047D01*
X13952380Y-3285714D01*
X14000000Y-3190476D01*
X14047619Y-3142857D01*
X14142857Y-3095238D01*
X14238095Y-3095238D01*
X14333333Y-3142857D01*
X14380952Y-3190476D01*
X14428571Y-3285714D01*
X14428571Y-3619047D01*
X14047619Y-2666666D02*
X14000000Y-2619047D01*
X13952380Y-2523809D01*
X13952380Y-2285714D01*
X14000000Y-2190476D01*
X14047619Y-2142857D01*
X14142857Y-2095238D01*
X14238095Y-2095238D01*
X14380952Y-2142857D01*
X14952380Y-2714285D01*
X14952380Y-2095238D01*
X14857142Y-1666666D02*
X14904761Y-1619047D01*
X14952380Y-1666666D01*
X14904761Y-1714285D01*
X14857142Y-1666666D01*
X14952380Y-1666666D01*
X14047619Y-1238095D02*
X14000000Y-1190476D01*
X13952380Y-1095238D01*
X13952380Y-857142D01*
X14000000Y-761904D01*
X14047619Y-714285D01*
X14142857Y-666666D01*
X14238095Y-666666D01*
X14380952Y-714285D01*
X14952380Y-1285714D01*
X14952380Y-666666D01*
G04 #@! TO.C,J_MB3.2*
X511222380Y-6500000D02*
X511936666Y-6500000D01*
X512079523Y-6547619D01*
X512174761Y-6642857D01*
X512222380Y-6785714D01*
X512222380Y-6880952D01*
X512317619Y-6261904D02*
X512317619Y-5500000D01*
X512222380Y-5261904D02*
X511222380Y-5261904D01*
X511936666Y-4928571D01*
X511222380Y-4595238D01*
X512222380Y-4595238D01*
X511698571Y-3785714D02*
X511746190Y-3642857D01*
X511793809Y-3595238D01*
X511889047Y-3547619D01*
X512031904Y-3547619D01*
X512127142Y-3595238D01*
X512174761Y-3642857D01*
X512222380Y-3738095D01*
X512222380Y-4119047D01*
X511222380Y-4119047D01*
X511222380Y-3785714D01*
X511270000Y-3690476D01*
X511317619Y-3642857D01*
X511412857Y-3595238D01*
X511508095Y-3595238D01*
X511603333Y-3642857D01*
X511650952Y-3690476D01*
X511698571Y-3785714D01*
X511698571Y-4119047D01*
X511222380Y-3214285D02*
X511222380Y-2595238D01*
X511603333Y-2928571D01*
X511603333Y-2785714D01*
X511650952Y-2690476D01*
X511698571Y-2642857D01*
X511793809Y-2595238D01*
X512031904Y-2595238D01*
X512127142Y-2642857D01*
X512174761Y-2690476D01*
X512222380Y-2785714D01*
X512222380Y-3071428D01*
X512174761Y-3166666D01*
X512127142Y-3214285D01*
X512127142Y-2166666D02*
X512174761Y-2119047D01*
X512222380Y-2166666D01*
X512174761Y-2214285D01*
X512127142Y-2166666D01*
X512222380Y-2166666D01*
X511317619Y-1738095D02*
X511270000Y-1690476D01*
X511222380Y-1595238D01*
X511222380Y-1357142D01*
X511270000Y-1261904D01*
X511317619Y-1214285D01*
X511412857Y-1166666D01*
X511508095Y-1166666D01*
X511650952Y-1214285D01*
X512222380Y-1785714D01*
X512222380Y-1166666D01*
G04 #@! TO.C,J_MB4.2*
X524222380Y-6000000D02*
X524936666Y-6000000D01*
X525079523Y-6047619D01*
X525174761Y-6142857D01*
X525222380Y-6285714D01*
X525222380Y-6380952D01*
X525317619Y-5761904D02*
X525317619Y-5000000D01*
X525222380Y-4761904D02*
X524222380Y-4761904D01*
X524936666Y-4428571D01*
X524222380Y-4095238D01*
X525222380Y-4095238D01*
X524698571Y-3285714D02*
X524746190Y-3142857D01*
X524793809Y-3095238D01*
X524889047Y-3047619D01*
X525031904Y-3047619D01*
X525127142Y-3095238D01*
X525174761Y-3142857D01*
X525222380Y-3238095D01*
X525222380Y-3619047D01*
X524222380Y-3619047D01*
X524222380Y-3285714D01*
X524270000Y-3190476D01*
X524317619Y-3142857D01*
X524412857Y-3095238D01*
X524508095Y-3095238D01*
X524603333Y-3142857D01*
X524650952Y-3190476D01*
X524698571Y-3285714D01*
X524698571Y-3619047D01*
X524555714Y-2190476D02*
X525222380Y-2190476D01*
X524174761Y-2428571D02*
X524889047Y-2666666D01*
X524889047Y-2047619D01*
X525127142Y-1666666D02*
X525174761Y-1619047D01*
X525222380Y-1666666D01*
X525174761Y-1714285D01*
X525127142Y-1666666D01*
X525222380Y-1666666D01*
X524317619Y-1238095D02*
X524270000Y-1190476D01*
X524222380Y-1095238D01*
X524222380Y-857142D01*
X524270000Y-761904D01*
X524317619Y-714285D01*
X524412857Y-666666D01*
X524508095Y-666666D01*
X524650952Y-714285D01*
X525222380Y-1285714D01*
X525222380Y-666666D01*
G04 #@! TD*
M02*
