G04 #@! TF.GenerationSoftware,KiCad,Pcbnew,(5.0.0)*
G04 #@! TF.CreationDate,2019-01-11T14:00:02+01:00*
G04 #@! TF.ProjectId,1u_complex_bus_frontboard,31755F636F6D706C65785F6275735F66,rev?*
G04 #@! TF.SameCoordinates,Original*
G04 #@! TF.FileFunction,Copper,L1,Top,Signal*
G04 #@! TF.FilePolarity,Positive*
%FSLAX46Y46*%
G04 Gerber Fmt 4.6, Leading zero omitted, Abs format (unit mm)*
G04 Created by KiCad (PCBNEW (5.0.0)) date 01/11/19 14:00:02*
%MOMM*%
%LPD*%
G01*
G04 APERTURE LIST*
G04 #@! TA.AperFunction,ComponentPad*
%ADD10R,1.800000X1.800000*%
G04 #@! TD*
G04 #@! TA.AperFunction,ComponentPad*
%ADD11C,1.800000*%
G04 #@! TD*
G04 #@! TA.AperFunction,ComponentPad*
%ADD12O,1.700000X1.700000*%
G04 #@! TD*
G04 #@! TA.AperFunction,ComponentPad*
%ADD13R,1.700000X1.700000*%
G04 #@! TD*
G04 #@! TA.AperFunction,ComponentPad*
%ADD14C,1.648460*%
G04 #@! TD*
G04 #@! TA.AperFunction,ViaPad*
%ADD15C,0.800000*%
G04 #@! TD*
G04 #@! TA.AperFunction,Conductor*
%ADD16C,0.250000*%
G04 #@! TD*
G04 APERTURE END LIST*
D10*
G04 #@! TO.P,D_POS_1_3,1*
G04 #@! TO.N,Net-(D_POS_1_3-Pad1)*
X285500000Y-5000000D03*
D11*
G04 #@! TO.P,D_POS_1_3,2*
G04 #@! TO.N,Net-(D_POS_1_2-Pad1)*
X288040000Y-5000000D03*
G04 #@! TD*
D10*
G04 #@! TO.P,D_POS_3_3,1*
G04 #@! TO.N,Net-(D_POS_3_3-Pad1)*
X345500000Y-5000000D03*
D11*
G04 #@! TO.P,D_POS_3_3,2*
G04 #@! TO.N,Net-(D_POS_3_2-Pad1)*
X348040000Y-5000000D03*
G04 #@! TD*
D10*
G04 #@! TO.P,D_POS_2_3,1*
G04 #@! TO.N,Net-(D_POS_2_3-Pad1)*
X315500000Y-5000000D03*
D11*
G04 #@! TO.P,D_POS_2_3,2*
G04 #@! TO.N,Net-(D_POS_2_2-Pad1)*
X318040000Y-5000000D03*
G04 #@! TD*
D10*
G04 #@! TO.P,D_NEG_2_4,1*
G04 #@! TO.N,Net-(D_NEG_2_3-Pad2)*
X435500000Y-15000000D03*
D11*
G04 #@! TO.P,D_NEG_2_4,2*
G04 #@! TO.N,/cv_bus2/FB_LEDS_OUT_2*
X438040000Y-15000000D03*
G04 #@! TD*
D10*
G04 #@! TO.P,D_NEG_3_3,1*
G04 #@! TO.N,Net-(D_NEG_3_2-Pad2)*
X345500000Y-15000000D03*
D11*
G04 #@! TO.P,D_NEG_3_3,2*
G04 #@! TO.N,Net-(D_NEG_3_3-Pad2)*
X348040000Y-15000000D03*
G04 #@! TD*
D10*
G04 #@! TO.P,D_NEG_4_2,1*
G04 #@! TO.N,Net-(D_NEG_4_1-Pad2)*
X238000000Y-15000000D03*
D11*
G04 #@! TO.P,D_NEG_4_2,2*
G04 #@! TO.N,Net-(D_NEG_4_2-Pad2)*
X240540000Y-15000000D03*
G04 #@! TD*
G04 #@! TO.P,D_POS_1_1,2*
G04 #@! TO.N,/cv_bus1/FB_LEDS_IN_1*
X30540000Y-5000000D03*
D10*
G04 #@! TO.P,D_POS_1_1,1*
G04 #@! TO.N,Net-(D_POS_1_1-Pad1)*
X28000000Y-5000000D03*
G04 #@! TD*
G04 #@! TO.P,D_POS_1_2,1*
G04 #@! TO.N,Net-(D_POS_1_2-Pad1)*
X148000000Y-5000000D03*
D11*
G04 #@! TO.P,D_POS_1_2,2*
G04 #@! TO.N,Net-(D_POS_1_1-Pad1)*
X150540000Y-5000000D03*
G04 #@! TD*
G04 #@! TO.P,D_POS_2_2,2*
G04 #@! TO.N,Net-(D_POS_2_1-Pad1)*
X180540000Y-5000000D03*
D10*
G04 #@! TO.P,D_POS_2_2,1*
G04 #@! TO.N,Net-(D_POS_2_2-Pad1)*
X178000000Y-5000000D03*
G04 #@! TD*
D11*
G04 #@! TO.P,D_NEG_3_1,2*
G04 #@! TO.N,Net-(D_NEG_3_1-Pad2)*
X90540000Y-15000000D03*
D10*
G04 #@! TO.P,D_NEG_3_1,1*
G04 #@! TO.N,/cv_bus3/FB_LEDS_IN_3*
X88000000Y-15000000D03*
G04 #@! TD*
D11*
G04 #@! TO.P,D_POS_3_1,2*
G04 #@! TO.N,/cv_bus3/FB_LEDS_IN_3*
X90540000Y-5000000D03*
D10*
G04 #@! TO.P,D_POS_3_1,1*
G04 #@! TO.N,Net-(D_POS_3_1-Pad1)*
X88000000Y-5000000D03*
G04 #@! TD*
D11*
G04 #@! TO.P,D_POS_2_1,2*
G04 #@! TO.N,/cv_bus2/FB_LEDS_IN_2*
X60540000Y-5000000D03*
D10*
G04 #@! TO.P,D_POS_2_1,1*
G04 #@! TO.N,Net-(D_POS_2_1-Pad1)*
X58000000Y-5000000D03*
G04 #@! TD*
D11*
G04 #@! TO.P,D_NEG_3_2,2*
G04 #@! TO.N,Net-(D_NEG_3_2-Pad2)*
X210540000Y-15000000D03*
D10*
G04 #@! TO.P,D_NEG_3_2,1*
G04 #@! TO.N,Net-(D_NEG_3_1-Pad2)*
X208000000Y-15000000D03*
G04 #@! TD*
G04 #@! TO.P,D_NEG_4_1,1*
G04 #@! TO.N,/cv_bus4/FB_LEDS_IN_4*
X118000000Y-15000000D03*
D11*
G04 #@! TO.P,D_NEG_4_1,2*
G04 #@! TO.N,Net-(D_NEG_4_1-Pad2)*
X120540000Y-15000000D03*
G04 #@! TD*
G04 #@! TO.P,D_POS_3_2,2*
G04 #@! TO.N,Net-(D_POS_3_1-Pad1)*
X210540000Y-5000000D03*
D10*
G04 #@! TO.P,D_POS_3_2,1*
G04 #@! TO.N,Net-(D_POS_3_2-Pad1)*
X208000000Y-5000000D03*
G04 #@! TD*
D11*
G04 #@! TO.P,D_NEG_2_3,2*
G04 #@! TO.N,Net-(D_NEG_2_3-Pad2)*
X318040000Y-15000000D03*
D10*
G04 #@! TO.P,D_NEG_2_3,1*
G04 #@! TO.N,Net-(D_NEG_2_2-Pad2)*
X315500000Y-15000000D03*
G04 #@! TD*
D11*
G04 #@! TO.P,D_NEG_4_3,2*
G04 #@! TO.N,Net-(D_NEG_4_3-Pad2)*
X378040000Y-15000000D03*
D10*
G04 #@! TO.P,D_NEG_4_3,1*
G04 #@! TO.N,Net-(D_NEG_4_2-Pad2)*
X375500000Y-15000000D03*
G04 #@! TD*
D11*
G04 #@! TO.P,D_POS_2_4,2*
G04 #@! TO.N,Net-(D_POS_2_3-Pad1)*
X438040000Y-5000000D03*
D10*
G04 #@! TO.P,D_POS_2_4,1*
G04 #@! TO.N,/cv_bus2/FB_LEDS_OUT_2*
X435500000Y-5000000D03*
G04 #@! TD*
D12*
G04 #@! TO.P,J_FB2,10*
G04 #@! TO.N,/cv_bus2/FB_LEDS_OUT_2*
X15160000Y-16040000D03*
G04 #@! TO.P,J_FB2,9*
G04 #@! TO.N,/cv_bus2/FB_LEDS_IN_2*
X15160000Y-13500000D03*
G04 #@! TO.P,J_FB2,8*
G04 #@! TO.N,/cv_bus2/FB_OUT_2_4*
X12620000Y-16040000D03*
G04 #@! TO.P,J_FB2,7*
G04 #@! TO.N,/cv_bus2/FB_OUT_2_3*
X12620000Y-13500000D03*
G04 #@! TO.P,J_FB2,6*
G04 #@! TO.N,/cv_bus2/FB_OUT_2_2*
X10080000Y-16040000D03*
G04 #@! TO.P,J_FB2,5*
G04 #@! TO.N,/cv_bus2/FB_OUT_2_1*
X10080000Y-13500000D03*
G04 #@! TO.P,J_FB2,4*
G04 #@! TO.N,/cv_bus2/FB_IN_2_4*
X7540000Y-16040000D03*
G04 #@! TO.P,J_FB2,3*
G04 #@! TO.N,/cv_bus2/FB_IN_2_3*
X7540000Y-13500000D03*
G04 #@! TO.P,J_FB2,2*
G04 #@! TO.N,/cv_bus2/FB_IN_2_2*
X5000000Y-16040000D03*
D13*
G04 #@! TO.P,J_FB2,1*
G04 #@! TO.N,/cv_bus2/FB_IN_2_1*
X5000000Y-13500000D03*
G04 #@! TD*
D10*
G04 #@! TO.P,D_NEG_2_2,1*
G04 #@! TO.N,Net-(D_NEG_2_1-Pad2)*
X178000000Y-15000000D03*
D11*
G04 #@! TO.P,D_NEG_2_2,2*
G04 #@! TO.N,Net-(D_NEG_2_2-Pad2)*
X180540000Y-15000000D03*
G04 #@! TD*
D10*
G04 #@! TO.P,D_NEG_4_4,1*
G04 #@! TO.N,Net-(D_NEG_4_3-Pad2)*
X495500000Y-15000000D03*
D11*
G04 #@! TO.P,D_NEG_4_4,2*
G04 #@! TO.N,/cv_bus4/FB_LEDS_OUT_4*
X498040000Y-15000000D03*
G04 #@! TD*
G04 #@! TO.P,D_NEG_1_1,2*
G04 #@! TO.N,Net-(D_NEG_1_1-Pad2)*
X30540000Y-15000000D03*
D10*
G04 #@! TO.P,D_NEG_1_1,1*
G04 #@! TO.N,/cv_bus1/FB_LEDS_IN_1*
X28000000Y-15000000D03*
G04 #@! TD*
G04 #@! TO.P,D_POS_4_3,1*
G04 #@! TO.N,Net-(D_POS_4_3-Pad1)*
X375500000Y-5000000D03*
D11*
G04 #@! TO.P,D_POS_4_3,2*
G04 #@! TO.N,Net-(D_POS_4_2-Pad1)*
X378040000Y-5000000D03*
G04 #@! TD*
D13*
G04 #@! TO.P,J_FB3,1*
G04 #@! TO.N,/cv_bus3/FB_IN_3_1*
X510000000Y-4000000D03*
D12*
G04 #@! TO.P,J_FB3,2*
G04 #@! TO.N,/cv_bus3/FB_IN_3_2*
X510000000Y-6540000D03*
G04 #@! TO.P,J_FB3,3*
G04 #@! TO.N,/cv_bus3/FB_IN_3_3*
X512540000Y-4000000D03*
G04 #@! TO.P,J_FB3,4*
G04 #@! TO.N,/cv_bus3/FB_IN_3_4*
X512540000Y-6540000D03*
G04 #@! TO.P,J_FB3,5*
G04 #@! TO.N,/cv_bus3/FB_OUT_3_1*
X515080000Y-4000000D03*
G04 #@! TO.P,J_FB3,6*
G04 #@! TO.N,/cv_bus3/FB_OUT_3_2*
X515080000Y-6540000D03*
G04 #@! TO.P,J_FB3,7*
G04 #@! TO.N,/cv_bus3/FB_OUT_3_3*
X517620000Y-4000000D03*
G04 #@! TO.P,J_FB3,8*
G04 #@! TO.N,/cv_bus3/FB_OUT_3_4*
X517620000Y-6540000D03*
G04 #@! TO.P,J_FB3,9*
G04 #@! TO.N,/cv_bus3/FB_LEDS_IN_3*
X520160000Y-4000000D03*
G04 #@! TO.P,J_FB3,10*
G04 #@! TO.N,/cv_bus3/FB_LEDS_OUT_3*
X520160000Y-6540000D03*
G04 #@! TD*
D13*
G04 #@! TO.P,J_FB4,1*
G04 #@! TO.N,/cv_bus4/FB_IN_4_1*
X510000000Y-13500000D03*
D12*
G04 #@! TO.P,J_FB4,2*
G04 #@! TO.N,/cv_bus4/FB_IN_4_2*
X510000000Y-16040000D03*
G04 #@! TO.P,J_FB4,3*
G04 #@! TO.N,/cv_bus4/FB_IN_4_3*
X512540000Y-13500000D03*
G04 #@! TO.P,J_FB4,4*
G04 #@! TO.N,/cv_bus4/FB_IN_4_4*
X512540000Y-16040000D03*
G04 #@! TO.P,J_FB4,5*
G04 #@! TO.N,/cv_bus4/FB_OUT_4_1*
X515080000Y-13500000D03*
G04 #@! TO.P,J_FB4,6*
G04 #@! TO.N,/cv_bus4/FB_OUT_4_2*
X515080000Y-16040000D03*
G04 #@! TO.P,J_FB4,7*
G04 #@! TO.N,/cv_bus4/FB_OUT_4_3*
X517620000Y-13500000D03*
G04 #@! TO.P,J_FB4,8*
G04 #@! TO.N,/cv_bus4/FB_OUT_4_4*
X517620000Y-16040000D03*
G04 #@! TO.P,J_FB4,9*
G04 #@! TO.N,/cv_bus4/FB_LEDS_IN_4*
X520160000Y-13500000D03*
G04 #@! TO.P,J_FB4,10*
G04 #@! TO.N,/cv_bus4/FB_LEDS_OUT_4*
X520160000Y-16040000D03*
G04 #@! TD*
D10*
G04 #@! TO.P,D_NEG_2_1,1*
G04 #@! TO.N,/cv_bus2/FB_LEDS_IN_2*
X58000000Y-15000000D03*
D11*
G04 #@! TO.P,D_NEG_2_1,2*
G04 #@! TO.N,Net-(D_NEG_2_1-Pad2)*
X60540000Y-15000000D03*
G04 #@! TD*
G04 #@! TO.P,D_POS_4_2,2*
G04 #@! TO.N,Net-(D_POS_4_1-Pad1)*
X240540000Y-5000000D03*
D10*
G04 #@! TO.P,D_POS_4_2,1*
G04 #@! TO.N,Net-(D_POS_4_2-Pad1)*
X238000000Y-5000000D03*
G04 #@! TD*
G04 #@! TO.P,D_NEG_3_4,1*
G04 #@! TO.N,Net-(D_NEG_3_3-Pad2)*
X465500000Y-15000000D03*
D11*
G04 #@! TO.P,D_NEG_3_4,2*
G04 #@! TO.N,/cv_bus3/FB_LEDS_OUT_3*
X468040000Y-15000000D03*
G04 #@! TD*
D10*
G04 #@! TO.P,D_POS_3_4,1*
G04 #@! TO.N,/cv_bus3/FB_LEDS_OUT_3*
X465500000Y-5000000D03*
D11*
G04 #@! TO.P,D_POS_3_4,2*
G04 #@! TO.N,Net-(D_POS_3_3-Pad1)*
X468040000Y-5000000D03*
G04 #@! TD*
G04 #@! TO.P,D_POS_4_4,2*
G04 #@! TO.N,Net-(D_POS_4_3-Pad1)*
X498040000Y-5000000D03*
D10*
G04 #@! TO.P,D_POS_4_4,1*
G04 #@! TO.N,/cv_bus4/FB_LEDS_OUT_4*
X495500000Y-5000000D03*
G04 #@! TD*
D11*
G04 #@! TO.P,D_POS_4_1,2*
G04 #@! TO.N,/cv_bus4/FB_LEDS_IN_4*
X120540000Y-5000000D03*
D10*
G04 #@! TO.P,D_POS_4_1,1*
G04 #@! TO.N,Net-(D_POS_4_1-Pad1)*
X118000000Y-5000000D03*
G04 #@! TD*
D13*
G04 #@! TO.P,J_FB1,1*
G04 #@! TO.N,/cv_bus1/FB_IN_1_1*
X5000000Y-4000000D03*
D12*
G04 #@! TO.P,J_FB1,2*
G04 #@! TO.N,/cv_bus1/FB_IN_1_2*
X5000000Y-6540000D03*
G04 #@! TO.P,J_FB1,3*
G04 #@! TO.N,/cv_bus1/FB_IN_1_3*
X7540000Y-4000000D03*
G04 #@! TO.P,J_FB1,4*
G04 #@! TO.N,/cv_bus1/FB_IN_1_4*
X7540000Y-6540000D03*
G04 #@! TO.P,J_FB1,5*
G04 #@! TO.N,/cv_bus1/FB_OUT_1_1*
X10080000Y-4000000D03*
G04 #@! TO.P,J_FB1,6*
G04 #@! TO.N,/cv_bus1/FB_OUT_1_2*
X10080000Y-6540000D03*
G04 #@! TO.P,J_FB1,7*
G04 #@! TO.N,/cv_bus1/FB_OUT_1_3*
X12620000Y-4000000D03*
G04 #@! TO.P,J_FB1,8*
G04 #@! TO.N,/cv_bus1/FB_OUT_1_4*
X12620000Y-6540000D03*
G04 #@! TO.P,J_FB1,9*
G04 #@! TO.N,/cv_bus1/FB_LEDS_IN_1*
X15160000Y-4000000D03*
G04 #@! TO.P,J_FB1,10*
G04 #@! TO.N,/cv_bus1/FB_LEDS_OUT_1*
X15160000Y-6540000D03*
G04 #@! TO.P,J_FB1,11*
G04 #@! TO.N,N/C*
X17700000Y-4000000D03*
G04 #@! TO.P,J_FB1,12*
G04 #@! TO.N,FB_GND*
X17700000Y-6540000D03*
G04 #@! TD*
D14*
G04 #@! TO.P,U_IN_2_1,P$3_SLEEVE*
G04 #@! TO.N,FB_GND*
X74499860Y-5000000D03*
G04 #@! TO.P,U_IN_2_1,P$2_SWITCH*
X71497580Y-5000000D03*
G04 #@! TO.P,U_IN_2_1,P$1_TIP*
G04 #@! TO.N,/cv_bus2/FB_IN_2_1*
X63001280Y-5000000D03*
G04 #@! TD*
G04 #@! TO.P,U_IN_2_3,P$3_SLEEVE*
G04 #@! TO.N,FB_GND*
X301500140Y-5000000D03*
G04 #@! TO.P,U_IN_2_3,P$2_SWITCH*
X304502420Y-5000000D03*
G04 #@! TO.P,U_IN_2_3,P$1_TIP*
G04 #@! TO.N,/cv_bus2/FB_IN_2_3*
X312998720Y-5000000D03*
G04 #@! TD*
G04 #@! TO.P,U_IN_4_2,P$3_SLEEVE*
G04 #@! TO.N,FB_GND*
X254499860Y-5000000D03*
G04 #@! TO.P,U_IN_4_2,P$2_SWITCH*
X251497580Y-5000000D03*
G04 #@! TO.P,U_IN_4_2,P$1_TIP*
G04 #@! TO.N,/cv_bus4/FB_IN_4_2*
X243001280Y-5000000D03*
G04 #@! TD*
G04 #@! TO.P,U_IN_1_3,P$1_TIP*
G04 #@! TO.N,/cv_bus1/FB_IN_1_3*
X282998720Y-5000000D03*
G04 #@! TO.P,U_IN_1_3,P$2_SWITCH*
G04 #@! TO.N,FB_GND*
X274502420Y-5000000D03*
G04 #@! TO.P,U_IN_1_3,P$3_SLEEVE*
X271500140Y-5000000D03*
G04 #@! TD*
G04 #@! TO.P,U_OUT_1_1,P$3_SLEEVE*
G04 #@! TO.N,FB_GND*
X44499860Y-15000000D03*
G04 #@! TO.P,U_OUT_1_1,P$2_SWITCH*
G04 #@! TO.N,N/C*
X41497580Y-15000000D03*
G04 #@! TO.P,U_OUT_1_1,P$1_TIP*
G04 #@! TO.N,/cv_bus1/FB_OUT_1_1*
X33001280Y-15000000D03*
G04 #@! TD*
G04 #@! TO.P,U_IN_1_2,P$3_SLEEVE*
G04 #@! TO.N,FB_GND*
X164499860Y-5000000D03*
G04 #@! TO.P,U_IN_1_2,P$2_SWITCH*
X161497580Y-5000000D03*
G04 #@! TO.P,U_IN_1_2,P$1_TIP*
G04 #@! TO.N,/cv_bus1/FB_IN_1_2*
X153001280Y-5000000D03*
G04 #@! TD*
G04 #@! TO.P,U_IN_2_2,P$1_TIP*
G04 #@! TO.N,/cv_bus2/FB_IN_2_2*
X183001280Y-5000000D03*
G04 #@! TO.P,U_IN_2_2,P$2_SWITCH*
G04 #@! TO.N,FB_GND*
X191497580Y-5000000D03*
G04 #@! TO.P,U_IN_2_2,P$3_SLEEVE*
X194499860Y-5000000D03*
G04 #@! TD*
G04 #@! TO.P,U_IN_2_4,P$1_TIP*
G04 #@! TO.N,/cv_bus2/FB_IN_2_4*
X432998720Y-5000000D03*
G04 #@! TO.P,U_IN_2_4,P$2_SWITCH*
G04 #@! TO.N,FB_GND*
X424502420Y-5000000D03*
G04 #@! TO.P,U_IN_2_4,P$3_SLEEVE*
X421500140Y-5000000D03*
G04 #@! TD*
G04 #@! TO.P,U_IN_3_1,P$1_TIP*
G04 #@! TO.N,/cv_bus3/FB_IN_3_1*
X93001280Y-5000000D03*
G04 #@! TO.P,U_IN_3_1,P$2_SWITCH*
G04 #@! TO.N,FB_GND*
X101497580Y-5000000D03*
G04 #@! TO.P,U_IN_3_1,P$3_SLEEVE*
X104499860Y-5000000D03*
G04 #@! TD*
G04 #@! TO.P,U_IN_3_2,P$1_TIP*
G04 #@! TO.N,/cv_bus3/FB_IN_3_2*
X213001280Y-5000000D03*
G04 #@! TO.P,U_IN_3_2,P$2_SWITCH*
G04 #@! TO.N,FB_GND*
X221497580Y-5000000D03*
G04 #@! TO.P,U_IN_3_2,P$3_SLEEVE*
X224499860Y-5000000D03*
G04 #@! TD*
G04 #@! TO.P,U_IN_3_3,P$3_SLEEVE*
G04 #@! TO.N,FB_GND*
X331500140Y-5000000D03*
G04 #@! TO.P,U_IN_3_3,P$2_SWITCH*
X334502420Y-5000000D03*
G04 #@! TO.P,U_IN_3_3,P$1_TIP*
G04 #@! TO.N,/cv_bus3/FB_IN_3_3*
X342998720Y-5000000D03*
G04 #@! TD*
G04 #@! TO.P,U_IN_3_4,P$3_SLEEVE*
G04 #@! TO.N,FB_GND*
X451500140Y-5000000D03*
G04 #@! TO.P,U_IN_3_4,P$2_SWITCH*
X454502420Y-5000000D03*
G04 #@! TO.P,U_IN_3_4,P$1_TIP*
G04 #@! TO.N,/cv_bus3/FB_IN_3_4*
X462998720Y-5000000D03*
G04 #@! TD*
G04 #@! TO.P,U_IN_4_1,P$1_TIP*
G04 #@! TO.N,/cv_bus4/FB_IN_4_1*
X123001280Y-5000000D03*
G04 #@! TO.P,U_IN_4_1,P$2_SWITCH*
G04 #@! TO.N,FB_GND*
X131497580Y-5000000D03*
G04 #@! TO.P,U_IN_4_1,P$3_SLEEVE*
X134499860Y-5000000D03*
G04 #@! TD*
G04 #@! TO.P,U_IN_4_3,P$1_TIP*
G04 #@! TO.N,/cv_bus4/FB_IN_4_3*
X372998720Y-5000000D03*
G04 #@! TO.P,U_IN_4_3,P$2_SWITCH*
G04 #@! TO.N,FB_GND*
X364502420Y-5000000D03*
G04 #@! TO.P,U_IN_4_3,P$3_SLEEVE*
X361500140Y-5000000D03*
G04 #@! TD*
G04 #@! TO.P,U_IN_4_4,P$1_TIP*
G04 #@! TO.N,/cv_bus4/FB_IN_4_4*
X492998720Y-5000000D03*
G04 #@! TO.P,U_IN_4_4,P$2_SWITCH*
G04 #@! TO.N,FB_GND*
X484502420Y-5000000D03*
G04 #@! TO.P,U_IN_4_4,P$3_SLEEVE*
X481500140Y-5000000D03*
G04 #@! TD*
G04 #@! TO.P,U_OUT_1_3,P$3_SLEEVE*
G04 #@! TO.N,FB_GND*
X271500140Y-15000000D03*
G04 #@! TO.P,U_OUT_1_3,P$2_SWITCH*
G04 #@! TO.N,N/C*
X274502420Y-15000000D03*
G04 #@! TO.P,U_OUT_1_3,P$1_TIP*
G04 #@! TO.N,/cv_bus1/FB_OUT_1_3*
X282998720Y-15000000D03*
G04 #@! TD*
G04 #@! TO.P,U_OUT_1_4,P$1_TIP*
G04 #@! TO.N,/cv_bus1/FB_OUT_1_4*
X402998720Y-15000000D03*
G04 #@! TO.P,U_OUT_1_4,P$2_SWITCH*
G04 #@! TO.N,N/C*
X394502420Y-15000000D03*
G04 #@! TO.P,U_OUT_1_4,P$3_SLEEVE*
G04 #@! TO.N,FB_GND*
X391500140Y-15000000D03*
G04 #@! TD*
G04 #@! TO.P,U_OUT_1_2,P$1_TIP*
G04 #@! TO.N,/cv_bus1/FB_OUT_1_2*
X153001280Y-15000000D03*
G04 #@! TO.P,U_OUT_1_2,P$2_SWITCH*
G04 #@! TO.N,N/C*
X161497580Y-15000000D03*
G04 #@! TO.P,U_OUT_1_2,P$3_SLEEVE*
G04 #@! TO.N,FB_GND*
X164499860Y-15000000D03*
G04 #@! TD*
G04 #@! TO.P,U_OUT_2_2,P$3_SLEEVE*
G04 #@! TO.N,FB_GND*
X194499860Y-15000000D03*
G04 #@! TO.P,U_OUT_2_2,P$2_SWITCH*
G04 #@! TO.N,N/C*
X191497580Y-15000000D03*
G04 #@! TO.P,U_OUT_2_2,P$1_TIP*
G04 #@! TO.N,/cv_bus2/FB_OUT_2_2*
X183001280Y-15000000D03*
G04 #@! TD*
G04 #@! TO.P,U_OUT_2_4,P$1_TIP*
G04 #@! TO.N,/cv_bus2/FB_OUT_2_4*
X432998720Y-15000000D03*
G04 #@! TO.P,U_OUT_2_4,P$2_SWITCH*
G04 #@! TO.N,N/C*
X424502420Y-15000000D03*
G04 #@! TO.P,U_OUT_2_4,P$3_SLEEVE*
G04 #@! TO.N,FB_GND*
X421500140Y-15000000D03*
G04 #@! TD*
G04 #@! TO.P,U_OUT_3_1,P$3_SLEEVE*
G04 #@! TO.N,FB_GND*
X104499860Y-15000000D03*
G04 #@! TO.P,U_OUT_3_1,P$2_SWITCH*
G04 #@! TO.N,N/C*
X101497580Y-15000000D03*
G04 #@! TO.P,U_OUT_3_1,P$1_TIP*
G04 #@! TO.N,/cv_bus3/FB_OUT_3_1*
X93001280Y-15000000D03*
G04 #@! TD*
G04 #@! TO.P,U_OUT_3_2,P$3_SLEEVE*
G04 #@! TO.N,FB_GND*
X224499860Y-15000000D03*
G04 #@! TO.P,U_OUT_3_2,P$2_SWITCH*
G04 #@! TO.N,N/C*
X221497580Y-15000000D03*
G04 #@! TO.P,U_OUT_3_2,P$1_TIP*
G04 #@! TO.N,/cv_bus3/FB_OUT_3_2*
X213001280Y-15000000D03*
G04 #@! TD*
G04 #@! TO.P,U_OUT_3_3,P$1_TIP*
G04 #@! TO.N,/cv_bus3/FB_OUT_3_3*
X342998720Y-15000000D03*
G04 #@! TO.P,U_OUT_3_3,P$2_SWITCH*
G04 #@! TO.N,N/C*
X334502420Y-15000000D03*
G04 #@! TO.P,U_OUT_3_3,P$3_SLEEVE*
G04 #@! TO.N,FB_GND*
X331500140Y-15000000D03*
G04 #@! TD*
G04 #@! TO.P,U_OUT_3_4,P$3_SLEEVE*
G04 #@! TO.N,FB_GND*
X451500140Y-15000000D03*
G04 #@! TO.P,U_OUT_3_4,P$2_SWITCH*
G04 #@! TO.N,N/C*
X454502420Y-15000000D03*
G04 #@! TO.P,U_OUT_3_4,P$1_TIP*
G04 #@! TO.N,/cv_bus3/FB_OUT_3_4*
X462998720Y-15000000D03*
G04 #@! TD*
G04 #@! TO.P,U_OUT_2_3,P$3_SLEEVE*
G04 #@! TO.N,FB_GND*
X301500140Y-15000000D03*
G04 #@! TO.P,U_OUT_2_3,P$2_SWITCH*
G04 #@! TO.N,N/C*
X304502420Y-15000000D03*
G04 #@! TO.P,U_OUT_2_3,P$1_TIP*
G04 #@! TO.N,/cv_bus2/FB_OUT_2_3*
X312998720Y-15000000D03*
G04 #@! TD*
G04 #@! TO.P,U_OUT_4_1,P$1_TIP*
G04 #@! TO.N,/cv_bus4/FB_OUT_4_1*
X123001280Y-15000000D03*
G04 #@! TO.P,U_OUT_4_1,P$2_SWITCH*
G04 #@! TO.N,N/C*
X131497580Y-15000000D03*
G04 #@! TO.P,U_OUT_4_1,P$3_SLEEVE*
G04 #@! TO.N,FB_GND*
X134499860Y-15000000D03*
G04 #@! TD*
G04 #@! TO.P,U_OUT_4_2,P$3_SLEEVE*
G04 #@! TO.N,FB_GND*
X254499860Y-15000000D03*
G04 #@! TO.P,U_OUT_4_2,P$2_SWITCH*
G04 #@! TO.N,N/C*
X251497580Y-15000000D03*
G04 #@! TO.P,U_OUT_4_2,P$1_TIP*
G04 #@! TO.N,/cv_bus4/FB_OUT_4_2*
X243001280Y-15000000D03*
G04 #@! TD*
G04 #@! TO.P,U_OUT_4_3,P$1_TIP*
G04 #@! TO.N,/cv_bus4/FB_OUT_4_3*
X372998720Y-15000000D03*
G04 #@! TO.P,U_OUT_4_3,P$2_SWITCH*
G04 #@! TO.N,N/C*
X364502420Y-15000000D03*
G04 #@! TO.P,U_OUT_4_3,P$3_SLEEVE*
G04 #@! TO.N,FB_GND*
X361500140Y-15000000D03*
G04 #@! TD*
G04 #@! TO.P,U_OUT_2_1,P$1_TIP*
G04 #@! TO.N,/cv_bus2/FB_OUT_2_1*
X63001280Y-15000000D03*
G04 #@! TO.P,U_OUT_2_1,P$2_SWITCH*
G04 #@! TO.N,N/C*
X71497580Y-15000000D03*
G04 #@! TO.P,U_OUT_2_1,P$3_SLEEVE*
G04 #@! TO.N,FB_GND*
X74499860Y-15000000D03*
G04 #@! TD*
G04 #@! TO.P,U_OUT_4_4,P$3_SLEEVE*
G04 #@! TO.N,FB_GND*
X481500140Y-15000000D03*
G04 #@! TO.P,U_OUT_4_4,P$2_SWITCH*
G04 #@! TO.N,N/C*
X484502420Y-15000000D03*
G04 #@! TO.P,U_OUT_4_4,P$1_TIP*
G04 #@! TO.N,/cv_bus4/FB_OUT_4_4*
X492998720Y-15000000D03*
G04 #@! TD*
D10*
G04 #@! TO.P,D_NEG_1_2,1*
G04 #@! TO.N,Net-(D_NEG_1_1-Pad2)*
X148000000Y-15000000D03*
D11*
G04 #@! TO.P,D_NEG_1_2,2*
G04 #@! TO.N,Net-(D_NEG_1_2-Pad2)*
X150540000Y-15000000D03*
G04 #@! TD*
G04 #@! TO.P,D_NEG_1_3,2*
G04 #@! TO.N,Net-(D_NEG_1_3-Pad2)*
X288040000Y-15000000D03*
D10*
G04 #@! TO.P,D_NEG_1_3,1*
G04 #@! TO.N,Net-(D_NEG_1_2-Pad2)*
X285500000Y-15000000D03*
G04 #@! TD*
G04 #@! TO.P,D_NEG_1_4,1*
G04 #@! TO.N,Net-(D_NEG_1_3-Pad2)*
X405500000Y-15000000D03*
D11*
G04 #@! TO.P,D_NEG_1_4,2*
G04 #@! TO.N,/cv_bus1/FB_LEDS_OUT_1*
X408040000Y-15000000D03*
G04 #@! TD*
G04 #@! TO.P,D_POS_1_4,2*
G04 #@! TO.N,Net-(D_POS_1_3-Pad1)*
X408040000Y-5000000D03*
D10*
G04 #@! TO.P,D_POS_1_4,1*
G04 #@! TO.N,/cv_bus1/FB_LEDS_OUT_1*
X405500000Y-5000000D03*
G04 #@! TD*
D14*
G04 #@! TO.P,U_IN_1_1,P$3_SLEEVE*
G04 #@! TO.N,FB_GND*
X44499860Y-5000000D03*
G04 #@! TO.P,U_IN_1_1,P$2_SWITCH*
X41497580Y-5000000D03*
G04 #@! TO.P,U_IN_1_1,P$1_TIP*
G04 #@! TO.N,/cv_bus1/FB_IN_1_1*
X33001280Y-5000000D03*
G04 #@! TD*
G04 #@! TO.P,U_IN_1_4,P$1_TIP*
G04 #@! TO.N,/cv_bus1/FB_IN_1_4*
X402998720Y-5000000D03*
G04 #@! TO.P,U_IN_1_4,P$2_SWITCH*
G04 #@! TO.N,FB_GND*
X394502420Y-5000000D03*
G04 #@! TO.P,U_IN_1_4,P$3_SLEEVE*
X391500140Y-5000000D03*
G04 #@! TD*
D15*
G04 #@! TO.N,Net-(D_POS_3_2-Pad1)*
X280728600Y-3072500D03*
G04 #@! TO.N,Net-(D_POS_4_2-Pad1)*
X299783000Y-4441600D03*
G04 #@! TO.N,/cv_bus1/FB_OUT_1_4*
X21196700Y-13123700D03*
G04 #@! TO.N,/cv_bus3/FB_OUT_3_1*
X101852800Y-10857300D03*
G04 #@! TD*
D16*
G04 #@! TO.N,Net-(D_NEG_1_1-Pad2)*
X148000000Y-15000000D02*
X146774700Y-15000000D01*
X30540000Y-15000000D02*
X32938300Y-17398300D01*
X32938300Y-17398300D02*
X81391600Y-17398300D01*
X81391600Y-17398300D02*
X86191600Y-12598300D01*
X86191600Y-12598300D02*
X144373000Y-12598300D01*
X144373000Y-12598300D02*
X146774700Y-15000000D01*
G04 #@! TO.N,Net-(D_NEG_1_2-Pad2)*
X150540000Y-15000000D02*
X153873100Y-11666900D01*
X153873100Y-11666900D02*
X215060600Y-11666900D01*
X215060600Y-11666900D02*
X215510900Y-11216600D01*
X215510900Y-11216600D02*
X280874200Y-11216600D01*
X280874200Y-11216600D02*
X284274700Y-14617100D01*
X284274700Y-14617100D02*
X284274700Y-15000000D01*
X285500000Y-15000000D02*
X284274700Y-15000000D01*
G04 #@! TO.N,Net-(D_NEG_1_3-Pad2)*
X405500000Y-15000000D02*
X404274700Y-15000000D01*
X288040000Y-15000000D02*
X290962400Y-12077600D01*
X290962400Y-12077600D02*
X398531500Y-12077600D01*
X398531500Y-12077600D02*
X400743600Y-14289700D01*
X400743600Y-14289700D02*
X400743600Y-14442500D01*
X400743600Y-14442500D02*
X402499900Y-16198800D01*
X402499900Y-16198800D02*
X403450600Y-16198800D01*
X403450600Y-16198800D02*
X404274700Y-15374700D01*
X404274700Y-15374700D02*
X404274700Y-15000000D01*
G04 #@! TO.N,Net-(D_NEG_2_2-Pad2)*
X180540000Y-15000000D02*
X182517200Y-13022800D01*
X182517200Y-13022800D02*
X208365800Y-13022800D01*
X208365800Y-13022800D02*
X209225400Y-13882400D01*
X209225400Y-13882400D02*
X209225400Y-15421100D01*
X209225400Y-15421100D02*
X210430300Y-16626000D01*
X210430300Y-16626000D02*
X213738400Y-16626000D01*
X213738400Y-16626000D02*
X215077000Y-15287400D01*
X215077000Y-15287400D02*
X215077000Y-15128200D01*
X215077000Y-15128200D02*
X217588200Y-12617000D01*
X217588200Y-12617000D02*
X255393700Y-12617000D01*
X255393700Y-12617000D02*
X260199200Y-17422500D01*
X260199200Y-17422500D02*
X308937300Y-17422500D01*
X308937300Y-17422500D02*
X312530800Y-13829000D01*
X312530800Y-13829000D02*
X313469800Y-13829000D01*
X313469800Y-13829000D02*
X314274700Y-14633900D01*
X314274700Y-14633900D02*
X314274700Y-15000000D01*
X315500000Y-15000000D02*
X314274700Y-15000000D01*
G04 #@! TO.N,Net-(D_NEG_3_1-Pad2)*
X208000000Y-15000000D02*
X206774700Y-15000000D01*
X206774700Y-15000000D02*
X204849300Y-16925400D01*
X204849300Y-16925400D02*
X140222800Y-16925400D01*
X140222800Y-16925400D02*
X136346100Y-13048700D01*
X136346100Y-13048700D02*
X92491300Y-13048700D01*
X92491300Y-13048700D02*
X90540000Y-15000000D01*
G04 #@! TO.N,Net-(D_NEG_3_2-Pad2)*
X210540000Y-15000000D02*
X211691300Y-16151300D01*
X211691300Y-16151300D02*
X213496800Y-16151300D01*
X213496800Y-16151300D02*
X214467400Y-15180700D01*
X214467400Y-15180700D02*
X214467400Y-15100900D01*
X214467400Y-15100900D02*
X217451100Y-12117200D01*
X217451100Y-12117200D02*
X256182800Y-12117200D01*
X256182800Y-12117200D02*
X261037800Y-16972200D01*
X261037800Y-16972200D02*
X295816200Y-16972200D01*
X295816200Y-16972200D02*
X299751400Y-13037000D01*
X299751400Y-13037000D02*
X342694600Y-13037000D01*
X342694600Y-13037000D02*
X344274700Y-14617100D01*
X344274700Y-14617100D02*
X344274700Y-15000000D01*
X345500000Y-15000000D02*
X344274700Y-15000000D01*
G04 #@! TO.N,Net-(D_NEG_4_1-Pad2)*
X238000000Y-15000000D02*
X236774700Y-15000000D01*
X120540000Y-15000000D02*
X122928100Y-17388100D01*
X122928100Y-17388100D02*
X234386600Y-17388100D01*
X234386600Y-17388100D02*
X236774700Y-15000000D01*
G04 #@! TO.N,Net-(D_NEG_4_2-Pad2)*
X240540000Y-15000000D02*
X243863100Y-18323100D01*
X243863100Y-18323100D02*
X371334500Y-18323100D01*
X371334500Y-18323100D02*
X374274700Y-15382900D01*
X374274700Y-15382900D02*
X374274700Y-15000000D01*
X375500000Y-15000000D02*
X374274700Y-15000000D01*
G04 #@! TO.N,Net-(D_POS_1_1-Pad1)*
X29225300Y-5000000D02*
X29225300Y-4540500D01*
X29225300Y-4540500D02*
X31686900Y-2078900D01*
X31686900Y-2078900D02*
X147618900Y-2078900D01*
X147618900Y-2078900D02*
X150540000Y-5000000D01*
X28000000Y-5000000D02*
X29225300Y-5000000D01*
G04 #@! TO.N,Net-(D_POS_1_3-Pad1)*
X285500000Y-5000000D02*
X286725300Y-5000000D01*
X408040000Y-5000000D02*
X404280800Y-1240800D01*
X404280800Y-1240800D02*
X290025000Y-1240800D01*
X290025000Y-1240800D02*
X286725300Y-4540500D01*
X286725300Y-4540500D02*
X286725300Y-5000000D01*
G04 #@! TO.N,Net-(D_POS_2_1-Pad1)*
X59225300Y-5000000D02*
X59225300Y-4540500D01*
X59225300Y-4540500D02*
X60712500Y-3053300D01*
X60712500Y-3053300D02*
X82685100Y-3053300D01*
X82685100Y-3053300D02*
X88410200Y-8778400D01*
X88410200Y-8778400D02*
X176761600Y-8778400D01*
X176761600Y-8778400D02*
X180540000Y-5000000D01*
X58000000Y-5000000D02*
X59225300Y-5000000D01*
G04 #@! TO.N,Net-(D_POS_3_1-Pad1)*
X210540000Y-5000000D02*
X207681000Y-2141000D01*
X207681000Y-2141000D02*
X169051000Y-2141000D01*
X169051000Y-2141000D02*
X164251500Y-6940500D01*
X164251500Y-6940500D02*
X145345300Y-6940500D01*
X145345300Y-6940500D02*
X140979200Y-2574400D01*
X140979200Y-2574400D02*
X91191400Y-2574400D01*
X91191400Y-2574400D02*
X89225300Y-4540500D01*
X89225300Y-4540500D02*
X89225300Y-5000000D01*
X88000000Y-5000000D02*
X89225300Y-5000000D01*
G04 #@! TO.N,Net-(D_POS_3_2-Pad1)*
X208000000Y-5000000D02*
X209225300Y-5000000D01*
X209225300Y-5000000D02*
X209225300Y-5459500D01*
X209225300Y-5459500D02*
X210708400Y-6942600D01*
X210708400Y-6942600D02*
X231463500Y-6942600D01*
X231463500Y-6942600D02*
X235333600Y-3072500D01*
X235333600Y-3072500D02*
X280728600Y-3072500D01*
G04 #@! TO.N,Net-(D_POS_3_3-Pad1)*
X346725300Y-5000000D02*
X346725300Y-5459500D01*
X346725300Y-5459500D02*
X349666700Y-8400900D01*
X349666700Y-8400900D02*
X430922400Y-8400900D01*
X430922400Y-8400900D02*
X431485300Y-7838000D01*
X431485300Y-7838000D02*
X465202000Y-7838000D01*
X465202000Y-7838000D02*
X468040000Y-5000000D01*
X345500000Y-5000000D02*
X346725300Y-5000000D01*
G04 #@! TO.N,Net-(D_POS_4_1-Pad1)*
X119225300Y-5000000D02*
X119225300Y-4540500D01*
X119225300Y-4540500D02*
X120741000Y-3024800D01*
X120741000Y-3024800D02*
X138962100Y-3024800D01*
X138962100Y-3024800D02*
X143354100Y-7416800D01*
X143354100Y-7416800D02*
X164598600Y-7416800D01*
X164598600Y-7416800D02*
X169424100Y-2591300D01*
X169424100Y-2591300D02*
X202081700Y-2591300D01*
X202081700Y-2591300D02*
X206883400Y-7393000D01*
X206883400Y-7393000D02*
X238147000Y-7393000D01*
X238147000Y-7393000D02*
X240540000Y-5000000D01*
X118000000Y-5000000D02*
X119225300Y-5000000D01*
G04 #@! TO.N,Net-(D_POS_4_2-Pad1)*
X378040000Y-5000000D02*
X375631700Y-2591700D01*
X375631700Y-2591700D02*
X301632900Y-2591700D01*
X301632900Y-2591700D02*
X299783000Y-4441600D01*
G04 #@! TO.N,Net-(D_POS_4_3-Pad1)*
X375500000Y-5000000D02*
X376725300Y-5000000D01*
X498040000Y-5000000D02*
X495641300Y-2601300D01*
X495641300Y-2601300D02*
X433736300Y-2601300D01*
X433736300Y-2601300D02*
X429371900Y-6965700D01*
X429371900Y-6965700D02*
X378231500Y-6965700D01*
X378231500Y-6965700D02*
X376725300Y-5459500D01*
X376725300Y-5459500D02*
X376725300Y-5000000D01*
G04 #@! TO.N,/cv_bus1/FB_LEDS_OUT_1*
X16335300Y-6540000D02*
X16335300Y-6907300D01*
X16335300Y-6907300D02*
X17170100Y-7742100D01*
X17170100Y-7742100D02*
X52236700Y-7742100D01*
X52236700Y-7742100D02*
X57421100Y-2557700D01*
X57421100Y-2557700D02*
X83028800Y-2557700D01*
X83028800Y-2557700D02*
X88799200Y-8328100D01*
X88799200Y-8328100D02*
X166298000Y-8328100D01*
X166298000Y-8328100D02*
X170903600Y-3722500D01*
X170903600Y-3722500D02*
X183986400Y-3722500D01*
X183986400Y-3722500D02*
X188557500Y-8293600D01*
X188557500Y-8293600D02*
X293631500Y-8293600D01*
X293631500Y-8293600D02*
X300234000Y-1691100D01*
X300234000Y-1691100D02*
X401348700Y-1691100D01*
X401348700Y-1691100D02*
X404274700Y-4617100D01*
X404274700Y-4617100D02*
X404274700Y-5000000D01*
X405500000Y-5000000D02*
X404274700Y-5000000D01*
X15160000Y-6540000D02*
X16335300Y-6540000D01*
G04 #@! TO.N,/cv_bus2/FB_LEDS_IN_2*
X56774700Y-15000000D02*
X54173100Y-12398400D01*
X54173100Y-12398400D02*
X17436900Y-12398400D01*
X17436900Y-12398400D02*
X16335300Y-13500000D01*
X58000000Y-15000000D02*
X56774700Y-15000000D01*
X15160000Y-13500000D02*
X16335300Y-13500000D01*
G04 #@! TO.N,/cv_bus2/FB_LEDS_OUT_2*
X16335300Y-16040000D02*
X19068700Y-18773400D01*
X19068700Y-18773400D02*
X427021500Y-18773400D01*
X427021500Y-18773400D02*
X432020300Y-13774600D01*
X432020300Y-13774600D02*
X436814600Y-13774600D01*
X436814600Y-13774600D02*
X438040000Y-15000000D01*
X15160000Y-16040000D02*
X16335300Y-16040000D01*
G04 #@! TO.N,/cv_bus3/FB_LEDS_OUT_3*
X518984700Y-6540000D02*
X518984700Y-6907300D01*
X518984700Y-6907300D02*
X514918300Y-10973700D01*
X514918300Y-10973700D02*
X472066300Y-10973700D01*
X472066300Y-10973700D02*
X468040000Y-15000000D01*
X520160000Y-6540000D02*
X518984700Y-6540000D01*
G04 #@! TO.N,/cv_bus4/FB_LEDS_OUT_4*
X520160000Y-16040000D02*
X518984700Y-16040000D01*
X518984700Y-16040000D02*
X518984700Y-15672700D01*
X518984700Y-15672700D02*
X518158800Y-14846800D01*
X518158800Y-14846800D02*
X498193200Y-14846800D01*
X498193200Y-14846800D02*
X498040000Y-15000000D01*
G04 #@! TO.N,/cv_bus1/FB_IN_1_2*
X5000000Y-6540000D02*
X6175300Y-6540000D01*
X153001300Y-5000000D02*
X149587300Y-1586000D01*
X149587300Y-1586000D02*
X24022200Y-1586000D01*
X24022200Y-1586000D02*
X20243500Y-5364700D01*
X20243500Y-5364700D02*
X6983200Y-5364700D01*
X6983200Y-5364700D02*
X6175300Y-6172600D01*
X6175300Y-6172600D02*
X6175300Y-6540000D01*
G04 #@! TO.N,/cv_bus1/FB_IN_1_3*
X282998700Y-5000000D02*
X282998700Y-4316800D01*
X282998700Y-4316800D02*
X281029100Y-2347200D01*
X281029100Y-2347200D02*
X217906600Y-2347200D01*
X217906600Y-2347200D02*
X214054500Y-6199300D01*
X214054500Y-6199300D02*
X212567700Y-6199300D01*
X212567700Y-6199300D02*
X211824300Y-5455900D01*
X211824300Y-5455900D02*
X211824300Y-4510200D01*
X211824300Y-4510200D02*
X208395000Y-1080900D01*
X208395000Y-1080900D02*
X11267100Y-1080900D01*
X11267100Y-1080900D02*
X8715300Y-3632700D01*
X8715300Y-3632700D02*
X8715300Y-4000000D01*
X7540000Y-4000000D02*
X8715300Y-4000000D01*
G04 #@! TO.N,/cv_bus1/FB_IN_1_4*
X8715300Y-6540000D02*
X8715300Y-6907300D01*
X8715300Y-6907300D02*
X10051300Y-8243300D01*
X10051300Y-8243300D02*
X59041500Y-8243300D01*
X59041500Y-8243300D02*
X61851700Y-5433100D01*
X61851700Y-5433100D02*
X61851700Y-4510600D01*
X61851700Y-4510600D02*
X62558700Y-3803600D01*
X62558700Y-3803600D02*
X64080800Y-3803600D01*
X64080800Y-3803600D02*
X67202500Y-6925300D01*
X67202500Y-6925300D02*
X68797600Y-6925300D01*
X68797600Y-6925300D02*
X69925300Y-5797600D01*
X69925300Y-5797600D02*
X69925300Y-4900100D01*
X69925300Y-4900100D02*
X70981200Y-3844200D01*
X70981200Y-3844200D02*
X82331300Y-3844200D01*
X82331300Y-3844200D02*
X87715800Y-9228700D01*
X87715800Y-9228700D02*
X214314300Y-9228700D01*
X214314300Y-9228700D02*
X214577900Y-8965100D01*
X214577900Y-8965100D02*
X293597000Y-8965100D01*
X293597000Y-8965100D02*
X300420700Y-2141400D01*
X300420700Y-2141400D02*
X400140100Y-2141400D01*
X400140100Y-2141400D02*
X402998700Y-5000000D01*
X7540000Y-6540000D02*
X8715300Y-6540000D01*
G04 #@! TO.N,/cv_bus1/FB_OUT_1_4*
X21196700Y-13123700D02*
X21245800Y-13074600D01*
X21245800Y-13074600D02*
X46805200Y-13074600D01*
X46805200Y-13074600D02*
X50667800Y-16937200D01*
X50667800Y-16937200D02*
X79775000Y-16937200D01*
X79775000Y-16937200D02*
X84621500Y-12090700D01*
X84621500Y-12090700D02*
X101888400Y-12090700D01*
X101888400Y-12090700D02*
X102762600Y-11216500D01*
X102762600Y-11216500D02*
X214874100Y-11216500D01*
X214874100Y-11216500D02*
X215324300Y-10766300D01*
X215324300Y-10766300D02*
X398765000Y-10766300D01*
X398765000Y-10766300D02*
X402998700Y-15000000D01*
G04 #@! TO.N,/cv_bus2/FB_OUT_2_4*
X13795300Y-16040000D02*
X13795300Y-16407300D01*
X13795300Y-16407300D02*
X16611700Y-19223700D01*
X16611700Y-19223700D02*
X428775000Y-19223700D01*
X428775000Y-19223700D02*
X432998700Y-15000000D01*
X12620000Y-16040000D02*
X13795300Y-16040000D01*
G04 #@! TO.N,/cv_bus2/FB_OUT_2_3*
X13795300Y-13500000D02*
X13795300Y-13867400D01*
X13795300Y-13867400D02*
X14603200Y-14675300D01*
X14603200Y-14675300D02*
X16559300Y-14675300D01*
X16559300Y-14675300D02*
X19732700Y-17848700D01*
X19732700Y-17848700D02*
X237494100Y-17848700D01*
X237494100Y-17848700D02*
X239225400Y-16117400D01*
X239225400Y-16117400D02*
X239225400Y-14496800D01*
X239225400Y-14496800D02*
X240654800Y-13067400D01*
X240654800Y-13067400D02*
X254213700Y-13067400D01*
X254213700Y-13067400D02*
X259019100Y-17872800D01*
X259019100Y-17872800D02*
X310125900Y-17872800D01*
X310125900Y-17872800D02*
X312998700Y-15000000D01*
X12620000Y-13500000D02*
X13795300Y-13500000D01*
G04 #@! TO.N,/cv_bus2/FB_IN_2_4*
X8715300Y-16040000D02*
X8715300Y-15672600D01*
X8715300Y-15672600D02*
X9523200Y-14864700D01*
X9523200Y-14864700D02*
X10416300Y-14864700D01*
X10416300Y-14864700D02*
X11255400Y-14025600D01*
X11255400Y-14025600D02*
X11255400Y-13193700D01*
X11255400Y-13193700D02*
X12501800Y-11947300D01*
X12501800Y-11947300D02*
X83427200Y-11947300D01*
X83427200Y-11947300D02*
X85245100Y-10129400D01*
X85245100Y-10129400D02*
X214687400Y-10129400D01*
X214687400Y-10129400D02*
X214951100Y-9865700D01*
X214951100Y-9865700D02*
X336435400Y-9865700D01*
X336435400Y-9865700D02*
X343004900Y-3296200D01*
X343004900Y-3296200D02*
X357544300Y-3296200D01*
X357544300Y-3296200D02*
X361731300Y-7483200D01*
X361731300Y-7483200D02*
X430515500Y-7483200D01*
X430515500Y-7483200D02*
X432998700Y-5000000D01*
X7540000Y-16040000D02*
X8715300Y-16040000D01*
G04 #@! TO.N,/cv_bus2/FB_IN_2_3*
X8715300Y-13500000D02*
X8715300Y-13132700D01*
X8715300Y-13132700D02*
X10412300Y-11435700D01*
X10412300Y-11435700D02*
X77341500Y-11435700D01*
X77341500Y-11435700D02*
X80710400Y-8066800D01*
X80710400Y-8066800D02*
X84328700Y-8066800D01*
X84328700Y-8066800D02*
X85940900Y-9679000D01*
X85940900Y-9679000D02*
X214500900Y-9679000D01*
X214500900Y-9679000D02*
X214764500Y-9415400D01*
X214764500Y-9415400D02*
X298778800Y-9415400D01*
X298778800Y-9415400D02*
X303001300Y-5192900D01*
X303001300Y-5192900D02*
X303001300Y-4845900D01*
X303001300Y-4845900D02*
X304805100Y-3042100D01*
X304805100Y-3042100D02*
X311040800Y-3042100D01*
X311040800Y-3042100D02*
X312998700Y-5000000D01*
X7540000Y-13500000D02*
X8715300Y-13500000D01*
G04 #@! TO.N,/cv_bus2/FB_IN_2_1*
X5000000Y-13500000D02*
X6175300Y-13500000D01*
X63001300Y-5000000D02*
X57894000Y-10107300D01*
X57894000Y-10107300D02*
X9200700Y-10107300D01*
X9200700Y-10107300D02*
X6175300Y-13132700D01*
X6175300Y-13132700D02*
X6175300Y-13500000D01*
G04 #@! TO.N,/cv_bus3/FB_IN_3_1*
X93001300Y-5000000D02*
X95879100Y-7877800D01*
X95879100Y-7877800D02*
X164812900Y-7877800D01*
X164812900Y-7877800D02*
X169649100Y-3041600D01*
X169649100Y-3041600D02*
X201181700Y-3041600D01*
X201181700Y-3041600D02*
X205983400Y-7843300D01*
X205983400Y-7843300D02*
X281817400Y-7843300D01*
X281817400Y-7843300D02*
X284191000Y-5469700D01*
X284191000Y-5469700D02*
X284191000Y-4011900D01*
X284191000Y-4011900D02*
X287412400Y-790500D01*
X287412400Y-790500D02*
X505615200Y-790500D01*
X505615200Y-790500D02*
X508824700Y-4000000D01*
X510000000Y-4000000D02*
X508824700Y-4000000D01*
G04 #@! TO.N,/cv_bus3/FB_IN_3_2*
X511175300Y-6540000D02*
X511175300Y-6220200D01*
X511175300Y-6220200D02*
X512125500Y-5270000D01*
X512125500Y-5270000D02*
X512971000Y-5270000D01*
X512971000Y-5270000D02*
X513715400Y-4525600D01*
X513715400Y-4525600D02*
X513715400Y-3488700D01*
X513715400Y-3488700D02*
X510566900Y-340200D01*
X510566900Y-340200D02*
X217661100Y-340200D01*
X217661100Y-340200D02*
X213001300Y-5000000D01*
X510000000Y-6540000D02*
X511175300Y-6540000D01*
G04 #@! TO.N,/cv_bus3/FB_IN_3_3*
X512540000Y-4000000D02*
X511364700Y-4000000D01*
X342998700Y-5000000D02*
X344252200Y-3746500D01*
X344252200Y-3746500D02*
X356557400Y-3746500D01*
X356557400Y-3746500D02*
X360748600Y-7937700D01*
X360748600Y-7937700D02*
X430697900Y-7937700D01*
X430697900Y-7937700D02*
X431528100Y-7107500D01*
X431528100Y-7107500D02*
X447140600Y-7107500D01*
X447140600Y-7107500D02*
X451181400Y-3066700D01*
X451181400Y-3066700D02*
X488861600Y-3066700D01*
X488861600Y-3066700D02*
X492040200Y-6245300D01*
X492040200Y-6245300D02*
X503420600Y-6245300D01*
X503420600Y-6245300D02*
X504490600Y-5175300D01*
X504490600Y-5175300D02*
X510997500Y-5175300D01*
X510997500Y-5175300D02*
X511364700Y-4808100D01*
X511364700Y-4808100D02*
X511364700Y-4000000D01*
G04 #@! TO.N,/cv_bus3/FB_IN_3_4*
X462998700Y-5000000D02*
X464240400Y-3758300D01*
X464240400Y-3758300D02*
X478006400Y-3758300D01*
X478006400Y-3758300D02*
X481975700Y-7727600D01*
X481975700Y-7727600D02*
X511352400Y-7727600D01*
X511352400Y-7727600D02*
X512540000Y-6540000D01*
G04 #@! TO.N,/cv_bus3/FB_OUT_3_1*
X101852800Y-10857300D02*
X101970000Y-10740100D01*
X101970000Y-10740100D02*
X214713600Y-10740100D01*
X214713600Y-10740100D02*
X215137700Y-10316000D01*
X215137700Y-10316000D02*
X441618300Y-10316000D01*
X441618300Y-10316000D02*
X443230300Y-11928000D01*
X443230300Y-11928000D02*
X445487400Y-11928000D01*
X445487400Y-11928000D02*
X448965700Y-8449700D01*
X448965700Y-8449700D02*
X512305800Y-8449700D01*
X512305800Y-8449700D02*
X513904700Y-6850800D01*
X513904700Y-6850800D02*
X513904700Y-5983200D01*
X513904700Y-5983200D02*
X514712600Y-5175300D01*
X514712600Y-5175300D02*
X515080000Y-5175300D01*
X515080000Y-4000000D02*
X515080000Y-5175300D01*
G04 #@! TO.N,/cv_bus3/FB_OUT_3_2*
X213001300Y-15000000D02*
X216334400Y-11666900D01*
X216334400Y-11666900D02*
X277461800Y-11666900D01*
X277461800Y-11666900D02*
X282046400Y-16251500D01*
X282046400Y-16251500D02*
X295263100Y-16251500D01*
X295263100Y-16251500D02*
X298932100Y-12582500D01*
X298932100Y-12582500D02*
X398348300Y-12582500D01*
X398348300Y-12582500D02*
X400293200Y-14527400D01*
X400293200Y-14527400D02*
X400293200Y-14629000D01*
X400293200Y-14629000D02*
X402313400Y-16649200D01*
X402313400Y-16649200D02*
X409096400Y-16649200D01*
X409096400Y-16649200D02*
X413606900Y-12138700D01*
X413606900Y-12138700D02*
X440983800Y-12138700D01*
X440983800Y-12138700D02*
X441271100Y-12426000D01*
X441271100Y-12426000D02*
X462637600Y-12426000D01*
X462637600Y-12426000D02*
X466010000Y-9053600D01*
X466010000Y-9053600D02*
X512566400Y-9053600D01*
X512566400Y-9053600D02*
X515080000Y-6540000D01*
G04 #@! TO.N,/cv_bus3/FB_OUT_3_3*
X517620000Y-4000000D02*
X518795300Y-4000000D01*
X342998700Y-15000000D02*
X344281500Y-16282800D01*
X344281500Y-16282800D02*
X357965300Y-16282800D01*
X357965300Y-16282800D02*
X361215200Y-13032900D01*
X361215200Y-13032900D02*
X385206500Y-13032900D01*
X385206500Y-13032900D02*
X389276800Y-17103200D01*
X389276800Y-17103200D02*
X409279300Y-17103200D01*
X409279300Y-17103200D02*
X413776700Y-12605800D01*
X413776700Y-12605800D02*
X438015900Y-12605800D01*
X438015900Y-12605800D02*
X442371300Y-16961200D01*
X442371300Y-16961200D02*
X469299300Y-16961200D01*
X469299300Y-16961200D02*
X474386200Y-11874300D01*
X474386200Y-11874300D02*
X516506800Y-11874300D01*
X516506800Y-11874300D02*
X521346300Y-7034800D01*
X521346300Y-7034800D02*
X521346300Y-5999500D01*
X521346300Y-5999500D02*
X520522100Y-5175300D01*
X520522100Y-5175300D02*
X519603200Y-5175300D01*
X519603200Y-5175300D02*
X518795300Y-4367400D01*
X518795300Y-4367400D02*
X518795300Y-4000000D01*
G04 #@! TO.N,/cv_bus3/FB_OUT_3_4*
X516444700Y-6540000D02*
X516444700Y-6907300D01*
X516444700Y-6907300D02*
X512828600Y-10523400D01*
X512828600Y-10523400D02*
X467475300Y-10523400D01*
X467475300Y-10523400D02*
X462998700Y-15000000D01*
X517620000Y-6540000D02*
X516444700Y-6540000D01*
G04 #@! TO.N,/cv_bus4/FB_OUT_4_3*
X372998700Y-15000000D02*
X374224000Y-13774700D01*
X374224000Y-13774700D02*
X379548100Y-13774700D01*
X379548100Y-13774700D02*
X383331200Y-17557800D01*
X383331200Y-17557800D02*
X415811000Y-17557800D01*
X415811000Y-17557800D02*
X420312600Y-13056200D01*
X420312600Y-13056200D02*
X437829400Y-13056200D01*
X437829400Y-13056200D02*
X442184800Y-17411600D01*
X442184800Y-17411600D02*
X475526000Y-17411600D01*
X475526000Y-17411600D02*
X480612900Y-12324700D01*
X480612900Y-12324700D02*
X515636800Y-12324700D01*
X515636800Y-12324700D02*
X516444700Y-13132600D01*
X516444700Y-13132600D02*
X516444700Y-13500000D01*
X517620000Y-13500000D02*
X516444700Y-13500000D01*
G04 #@! TO.N,/cv_bus4/FB_OUT_4_4*
X492998700Y-15000000D02*
X495214000Y-17215300D01*
X495214000Y-17215300D02*
X515636800Y-17215300D01*
X515636800Y-17215300D02*
X516444700Y-16407400D01*
X516444700Y-16407400D02*
X516444700Y-16040000D01*
X517620000Y-16040000D02*
X516444700Y-16040000D01*
G04 #@! TO.N,FB_GND*
X421500100Y-5000000D02*
X420245200Y-6254900D01*
X420245200Y-6254900D02*
X401977800Y-6254900D01*
X401977800Y-6254900D02*
X398797600Y-3074700D01*
X398797600Y-3074700D02*
X396427700Y-3074700D01*
X396427700Y-3074700D02*
X394502400Y-5000000D01*
X391500100Y-5000000D02*
X394502400Y-5000000D01*
X331500100Y-5000000D02*
X329570800Y-6929300D01*
X329570800Y-6929300D02*
X306431700Y-6929300D01*
X306431700Y-6929300D02*
X304502400Y-5000000D01*
X254499900Y-5000000D02*
X251497600Y-5000000D01*
X271500100Y-5000000D02*
X254499900Y-5000000D01*
X131497600Y-5000000D02*
X129550000Y-6947600D01*
X129550000Y-6947600D02*
X106447500Y-6947600D01*
X106447500Y-6947600D02*
X104499900Y-5000000D01*
X134499900Y-5000000D02*
X131497600Y-5000000D01*
X41497600Y-5000000D02*
X39567400Y-6930200D01*
X39567400Y-6930200D02*
X19265500Y-6930200D01*
X19265500Y-6930200D02*
X18875300Y-6540000D01*
X44499900Y-5000000D02*
X41497600Y-5000000D01*
X17700000Y-6540000D02*
X18875300Y-6540000D01*
X454502400Y-5000000D02*
X451500100Y-5000000D01*
X421500100Y-5000000D02*
X424502400Y-5000000D01*
X104499900Y-5000000D02*
X101497600Y-5000000D01*
X224499900Y-5000000D02*
X221497600Y-5000000D01*
X481500100Y-5000000D02*
X484502400Y-5000000D01*
G04 #@! TD*
M02*
