G04 #@! TF.GenerationSoftware,KiCad,Pcbnew,(5.0.0)*
G04 #@! TF.CreationDate,2019-01-12T18:13:59+01:00*
G04 #@! TF.ProjectId,1u_complex_bus_frontboard,31755F636F6D706C65785F6275735F66,rev?*
G04 #@! TF.SameCoordinates,Original*
G04 #@! TF.FileFunction,Copper,L2,Bot,Signal*
G04 #@! TF.FilePolarity,Positive*
%FSLAX46Y46*%
G04 Gerber Fmt 4.6, Leading zero omitted, Abs format (unit mm)*
G04 Created by KiCad (PCBNEW (5.0.0)) date 01/12/19 18:13:59*
%MOMM*%
%LPD*%
G01*
G04 APERTURE LIST*
G04 #@! TA.AperFunction,ComponentPad*
%ADD10R,1.800000X1.800000*%
G04 #@! TD*
G04 #@! TA.AperFunction,ComponentPad*
%ADD11C,1.800000*%
G04 #@! TD*
G04 #@! TA.AperFunction,ComponentPad*
%ADD12O,1.700000X1.700000*%
G04 #@! TD*
G04 #@! TA.AperFunction,ComponentPad*
%ADD13R,1.700000X1.700000*%
G04 #@! TD*
G04 #@! TA.AperFunction,ComponentPad*
%ADD14C,1.648460*%
G04 #@! TD*
G04 #@! TA.AperFunction,ViaPad*
%ADD15C,0.800000*%
G04 #@! TD*
G04 #@! TA.AperFunction,Conductor*
%ADD16C,0.250000*%
G04 #@! TD*
G04 #@! TA.AperFunction,Conductor*
%ADD17C,0.254000*%
G04 #@! TD*
G04 APERTURE END LIST*
D10*
G04 #@! TO.P,D_POS_1_3,1*
G04 #@! TO.N,Net-(D_POS_1_3-Pad1)*
X276750000Y-6500000D03*
D11*
G04 #@! TO.P,D_POS_1_3,2*
G04 #@! TO.N,Net-(D_POS_1_2-Pad1)*
X279290000Y-6500000D03*
G04 #@! TD*
D10*
G04 #@! TO.P,D_POS_3_3,1*
G04 #@! TO.N,Net-(D_POS_3_3-Pad1)*
X336750000Y-6500000D03*
D11*
G04 #@! TO.P,D_POS_3_3,2*
G04 #@! TO.N,Net-(D_POS_3_2-Pad1)*
X339290000Y-6500000D03*
G04 #@! TD*
D10*
G04 #@! TO.P,D_POS_2_3,1*
G04 #@! TO.N,Net-(D_POS_2_3-Pad1)*
X306750000Y-6500000D03*
D11*
G04 #@! TO.P,D_POS_2_3,2*
G04 #@! TO.N,Net-(D_POS_2_2-Pad1)*
X309290000Y-6500000D03*
G04 #@! TD*
D10*
G04 #@! TO.P,D_NEG_2_4,1*
G04 #@! TO.N,Net-(D_NEG_2_3-Pad2)*
X426750000Y-13500000D03*
D11*
G04 #@! TO.P,D_NEG_2_4,2*
G04 #@! TO.N,/cv_bus2/FB_LEDS_OUT_2*
X429290000Y-13500000D03*
G04 #@! TD*
D10*
G04 #@! TO.P,D_NEG_3_3,1*
G04 #@! TO.N,Net-(D_NEG_3_2-Pad2)*
X336750000Y-13500000D03*
D11*
G04 #@! TO.P,D_NEG_3_3,2*
G04 #@! TO.N,Net-(D_NEG_3_3-Pad2)*
X339290000Y-13500000D03*
G04 #@! TD*
D10*
G04 #@! TO.P,D_NEG_4_2,1*
G04 #@! TO.N,Net-(D_NEG_4_1-Pad2)*
X246750000Y-13500000D03*
D11*
G04 #@! TO.P,D_NEG_4_2,2*
G04 #@! TO.N,Net-(D_NEG_4_2-Pad2)*
X249290000Y-13500000D03*
G04 #@! TD*
G04 #@! TO.P,D_POS_1_1,2*
G04 #@! TO.N,/cv_bus1/FB_LEDS_IN_1*
X39290000Y-6500000D03*
D10*
G04 #@! TO.P,D_POS_1_1,1*
G04 #@! TO.N,Net-(D_POS_1_1-Pad1)*
X36750000Y-6500000D03*
G04 #@! TD*
G04 #@! TO.P,D_POS_1_2,1*
G04 #@! TO.N,Net-(D_POS_1_2-Pad1)*
X156750000Y-6500000D03*
D11*
G04 #@! TO.P,D_POS_1_2,2*
G04 #@! TO.N,Net-(D_POS_1_1-Pad1)*
X159290000Y-6500000D03*
G04 #@! TD*
G04 #@! TO.P,D_POS_2_2,2*
G04 #@! TO.N,Net-(D_POS_2_1-Pad1)*
X189290000Y-6500000D03*
D10*
G04 #@! TO.P,D_POS_2_2,1*
G04 #@! TO.N,Net-(D_POS_2_2-Pad1)*
X186750000Y-6500000D03*
G04 #@! TD*
D11*
G04 #@! TO.P,D_NEG_3_1,2*
G04 #@! TO.N,Net-(D_NEG_3_1-Pad2)*
X99290000Y-13500000D03*
D10*
G04 #@! TO.P,D_NEG_3_1,1*
G04 #@! TO.N,/cv_bus3/FB_LEDS_IN_3*
X96750000Y-13500000D03*
G04 #@! TD*
D11*
G04 #@! TO.P,D_POS_3_1,2*
G04 #@! TO.N,/cv_bus3/FB_LEDS_IN_3*
X99290000Y-6500000D03*
D10*
G04 #@! TO.P,D_POS_3_1,1*
G04 #@! TO.N,Net-(D_POS_3_1-Pad1)*
X96750000Y-6500000D03*
G04 #@! TD*
D11*
G04 #@! TO.P,D_POS_2_1,2*
G04 #@! TO.N,/cv_bus2/FB_LEDS_IN_2*
X69290000Y-6500000D03*
D10*
G04 #@! TO.P,D_POS_2_1,1*
G04 #@! TO.N,Net-(D_POS_2_1-Pad1)*
X66750000Y-6500000D03*
G04 #@! TD*
D11*
G04 #@! TO.P,D_NEG_3_2,2*
G04 #@! TO.N,Net-(D_NEG_3_2-Pad2)*
X219290000Y-13500000D03*
D10*
G04 #@! TO.P,D_NEG_3_2,1*
G04 #@! TO.N,Net-(D_NEG_3_1-Pad2)*
X216750000Y-13500000D03*
G04 #@! TD*
G04 #@! TO.P,D_NEG_4_1,1*
G04 #@! TO.N,/cv_bus4/FB_LEDS_IN_4*
X126750000Y-13500000D03*
D11*
G04 #@! TO.P,D_NEG_4_1,2*
G04 #@! TO.N,Net-(D_NEG_4_1-Pad2)*
X129290000Y-13500000D03*
G04 #@! TD*
G04 #@! TO.P,D_POS_3_2,2*
G04 #@! TO.N,Net-(D_POS_3_1-Pad1)*
X219290000Y-6500000D03*
D10*
G04 #@! TO.P,D_POS_3_2,1*
G04 #@! TO.N,Net-(D_POS_3_2-Pad1)*
X216750000Y-6500000D03*
G04 #@! TD*
D11*
G04 #@! TO.P,D_NEG_2_3,2*
G04 #@! TO.N,Net-(D_NEG_2_3-Pad2)*
X309290000Y-13500000D03*
D10*
G04 #@! TO.P,D_NEG_2_3,1*
G04 #@! TO.N,Net-(D_NEG_2_2-Pad2)*
X306750000Y-13500000D03*
G04 #@! TD*
D11*
G04 #@! TO.P,D_NEG_4_3,2*
G04 #@! TO.N,Net-(D_NEG_4_3-Pad2)*
X369290000Y-13500000D03*
D10*
G04 #@! TO.P,D_NEG_4_3,1*
G04 #@! TO.N,Net-(D_NEG_4_2-Pad2)*
X366750000Y-13500000D03*
G04 #@! TD*
D11*
G04 #@! TO.P,D_POS_2_4,2*
G04 #@! TO.N,Net-(D_POS_2_3-Pad1)*
X429290000Y-6500000D03*
D10*
G04 #@! TO.P,D_POS_2_4,1*
G04 #@! TO.N,/cv_bus2/FB_LEDS_OUT_2*
X426750000Y-6500000D03*
G04 #@! TD*
D12*
G04 #@! TO.P,J_FB2,10*
G04 #@! TO.N,/cv_bus2/FB_LEDS_OUT_2*
X15160000Y-16040000D03*
G04 #@! TO.P,J_FB2,9*
G04 #@! TO.N,/cv_bus2/FB_LEDS_IN_2*
X15160000Y-13500000D03*
G04 #@! TO.P,J_FB2,8*
G04 #@! TO.N,/cv_bus2/FB_OUT_2_4*
X12620000Y-16040000D03*
G04 #@! TO.P,J_FB2,7*
G04 #@! TO.N,/cv_bus2/FB_OUT_2_3*
X12620000Y-13500000D03*
G04 #@! TO.P,J_FB2,6*
G04 #@! TO.N,/cv_bus2/FB_OUT_2_2*
X10080000Y-16040000D03*
G04 #@! TO.P,J_FB2,5*
G04 #@! TO.N,/cv_bus2/FB_OUT_2_1*
X10080000Y-13500000D03*
G04 #@! TO.P,J_FB2,4*
G04 #@! TO.N,/cv_bus2/FB_IN_2_4*
X7540000Y-16040000D03*
G04 #@! TO.P,J_FB2,3*
G04 #@! TO.N,/cv_bus2/FB_IN_2_3*
X7540000Y-13500000D03*
G04 #@! TO.P,J_FB2,2*
G04 #@! TO.N,/cv_bus2/FB_IN_2_2*
X5000000Y-16040000D03*
D13*
G04 #@! TO.P,J_FB2,1*
G04 #@! TO.N,/cv_bus2/FB_IN_2_1*
X5000000Y-13500000D03*
G04 #@! TD*
D10*
G04 #@! TO.P,D_NEG_2_2,1*
G04 #@! TO.N,Net-(D_NEG_2_1-Pad2)*
X186750000Y-13500000D03*
D11*
G04 #@! TO.P,D_NEG_2_2,2*
G04 #@! TO.N,Net-(D_NEG_2_2-Pad2)*
X189290000Y-13500000D03*
G04 #@! TD*
D10*
G04 #@! TO.P,D_NEG_4_4,1*
G04 #@! TO.N,Net-(D_NEG_4_3-Pad2)*
X486750000Y-13500000D03*
D11*
G04 #@! TO.P,D_NEG_4_4,2*
G04 #@! TO.N,/cv_bus4/FB_LEDS_OUT_4*
X489290000Y-13500000D03*
G04 #@! TD*
G04 #@! TO.P,D_NEG_1_1,2*
G04 #@! TO.N,Net-(D_NEG_1_1-Pad2)*
X39290000Y-13500000D03*
D10*
G04 #@! TO.P,D_NEG_1_1,1*
G04 #@! TO.N,/cv_bus1/FB_LEDS_IN_1*
X36750000Y-13500000D03*
G04 #@! TD*
G04 #@! TO.P,D_POS_4_3,1*
G04 #@! TO.N,Net-(D_POS_4_3-Pad1)*
X366750000Y-6500000D03*
D11*
G04 #@! TO.P,D_POS_4_3,2*
G04 #@! TO.N,Net-(D_POS_4_2-Pad1)*
X369290000Y-6500000D03*
G04 #@! TD*
D13*
G04 #@! TO.P,J_FB3,1*
G04 #@! TO.N,/cv_bus3/FB_IN_3_1*
X510000000Y-4000000D03*
D12*
G04 #@! TO.P,J_FB3,2*
G04 #@! TO.N,/cv_bus3/FB_IN_3_2*
X510000000Y-6540000D03*
G04 #@! TO.P,J_FB3,3*
G04 #@! TO.N,/cv_bus3/FB_IN_3_3*
X512540000Y-4000000D03*
G04 #@! TO.P,J_FB3,4*
G04 #@! TO.N,/cv_bus3/FB_IN_3_4*
X512540000Y-6540000D03*
G04 #@! TO.P,J_FB3,5*
G04 #@! TO.N,/cv_bus3/FB_OUT_3_1*
X515080000Y-4000000D03*
G04 #@! TO.P,J_FB3,6*
G04 #@! TO.N,/cv_bus3/FB_OUT_3_2*
X515080000Y-6540000D03*
G04 #@! TO.P,J_FB3,7*
G04 #@! TO.N,/cv_bus3/FB_OUT_3_3*
X517620000Y-4000000D03*
G04 #@! TO.P,J_FB3,8*
G04 #@! TO.N,/cv_bus3/FB_OUT_3_4*
X517620000Y-6540000D03*
G04 #@! TO.P,J_FB3,9*
G04 #@! TO.N,/cv_bus3/FB_LEDS_IN_3*
X520160000Y-4000000D03*
G04 #@! TO.P,J_FB3,10*
G04 #@! TO.N,/cv_bus3/FB_LEDS_OUT_3*
X520160000Y-6540000D03*
G04 #@! TD*
D13*
G04 #@! TO.P,J_FB4,1*
G04 #@! TO.N,/cv_bus4/FB_IN_4_1*
X510000000Y-13500000D03*
D12*
G04 #@! TO.P,J_FB4,2*
G04 #@! TO.N,/cv_bus4/FB_IN_4_2*
X510000000Y-16040000D03*
G04 #@! TO.P,J_FB4,3*
G04 #@! TO.N,/cv_bus4/FB_IN_4_3*
X512540000Y-13500000D03*
G04 #@! TO.P,J_FB4,4*
G04 #@! TO.N,/cv_bus4/FB_IN_4_4*
X512540000Y-16040000D03*
G04 #@! TO.P,J_FB4,5*
G04 #@! TO.N,/cv_bus4/FB_OUT_4_1*
X515080000Y-13500000D03*
G04 #@! TO.P,J_FB4,6*
G04 #@! TO.N,/cv_bus4/FB_OUT_4_2*
X515080000Y-16040000D03*
G04 #@! TO.P,J_FB4,7*
G04 #@! TO.N,/cv_bus4/FB_OUT_4_3*
X517620000Y-13500000D03*
G04 #@! TO.P,J_FB4,8*
G04 #@! TO.N,/cv_bus4/FB_OUT_4_4*
X517620000Y-16040000D03*
G04 #@! TO.P,J_FB4,9*
G04 #@! TO.N,/cv_bus4/FB_LEDS_IN_4*
X520160000Y-13500000D03*
G04 #@! TO.P,J_FB4,10*
G04 #@! TO.N,/cv_bus4/FB_LEDS_OUT_4*
X520160000Y-16040000D03*
G04 #@! TD*
D10*
G04 #@! TO.P,D_NEG_2_1,1*
G04 #@! TO.N,/cv_bus2/FB_LEDS_IN_2*
X66750000Y-13500000D03*
D11*
G04 #@! TO.P,D_NEG_2_1,2*
G04 #@! TO.N,Net-(D_NEG_2_1-Pad2)*
X69290000Y-13500000D03*
G04 #@! TD*
G04 #@! TO.P,D_POS_4_2,2*
G04 #@! TO.N,Net-(D_POS_4_1-Pad1)*
X249290000Y-6500000D03*
D10*
G04 #@! TO.P,D_POS_4_2,1*
G04 #@! TO.N,Net-(D_POS_4_2-Pad1)*
X246750000Y-6500000D03*
G04 #@! TD*
G04 #@! TO.P,D_NEG_3_4,1*
G04 #@! TO.N,Net-(D_NEG_3_3-Pad2)*
X456750000Y-13500000D03*
D11*
G04 #@! TO.P,D_NEG_3_4,2*
G04 #@! TO.N,/cv_bus3/FB_LEDS_OUT_3*
X459290000Y-13500000D03*
G04 #@! TD*
D10*
G04 #@! TO.P,D_POS_3_4,1*
G04 #@! TO.N,/cv_bus3/FB_LEDS_OUT_3*
X456750000Y-6500000D03*
D11*
G04 #@! TO.P,D_POS_3_4,2*
G04 #@! TO.N,Net-(D_POS_3_3-Pad1)*
X459290000Y-6500000D03*
G04 #@! TD*
G04 #@! TO.P,D_POS_4_4,2*
G04 #@! TO.N,Net-(D_POS_4_3-Pad1)*
X489290000Y-6500000D03*
D10*
G04 #@! TO.P,D_POS_4_4,1*
G04 #@! TO.N,/cv_bus4/FB_LEDS_OUT_4*
X486750000Y-6500000D03*
G04 #@! TD*
D11*
G04 #@! TO.P,D_POS_4_1,2*
G04 #@! TO.N,/cv_bus4/FB_LEDS_IN_4*
X129290000Y-6500000D03*
D10*
G04 #@! TO.P,D_POS_4_1,1*
G04 #@! TO.N,Net-(D_POS_4_1-Pad1)*
X126750000Y-6500000D03*
G04 #@! TD*
D13*
G04 #@! TO.P,J_FB1,1*
G04 #@! TO.N,/cv_bus1/FB_IN_1_1*
X5000000Y-4000000D03*
D12*
G04 #@! TO.P,J_FB1,2*
G04 #@! TO.N,/cv_bus1/FB_IN_1_2*
X5000000Y-6540000D03*
G04 #@! TO.P,J_FB1,3*
G04 #@! TO.N,/cv_bus1/FB_IN_1_3*
X7540000Y-4000000D03*
G04 #@! TO.P,J_FB1,4*
G04 #@! TO.N,/cv_bus1/FB_IN_1_4*
X7540000Y-6540000D03*
G04 #@! TO.P,J_FB1,5*
G04 #@! TO.N,/cv_bus1/FB_OUT_1_1*
X10080000Y-4000000D03*
G04 #@! TO.P,J_FB1,6*
G04 #@! TO.N,/cv_bus1/FB_OUT_1_2*
X10080000Y-6540000D03*
G04 #@! TO.P,J_FB1,7*
G04 #@! TO.N,/cv_bus1/FB_OUT_1_3*
X12620000Y-4000000D03*
G04 #@! TO.P,J_FB1,8*
G04 #@! TO.N,/cv_bus1/FB_OUT_1_4*
X12620000Y-6540000D03*
G04 #@! TO.P,J_FB1,9*
G04 #@! TO.N,/cv_bus1/FB_LEDS_IN_1*
X15160000Y-4000000D03*
G04 #@! TO.P,J_FB1,10*
G04 #@! TO.N,/cv_bus1/FB_LEDS_OUT_1*
X15160000Y-6540000D03*
G04 #@! TO.P,J_FB1,11*
G04 #@! TO.N,N/C*
X17700000Y-4000000D03*
G04 #@! TO.P,J_FB1,12*
G04 #@! TO.N,FB_GND*
X17700000Y-6540000D03*
G04 #@! TD*
D14*
G04 #@! TO.P,U_IN_2_1,P$3_SLEEVE*
G04 #@! TO.N,FB_GND*
X61000000Y-16499860D03*
G04 #@! TO.P,U_IN_2_1,P$2_SWITCH*
X61000000Y-13497580D03*
G04 #@! TO.P,U_IN_2_1,P$1_TIP*
G04 #@! TO.N,/cv_bus2/FB_IN_2_1*
X61000000Y-5001280D03*
G04 #@! TD*
G04 #@! TO.P,U_IN_2_3,P$3_SLEEVE*
G04 #@! TO.N,FB_GND*
X301000000Y-16499860D03*
G04 #@! TO.P,U_IN_2_3,P$2_SWITCH*
X301000000Y-13497580D03*
G04 #@! TO.P,U_IN_2_3,P$1_TIP*
G04 #@! TO.N,/cv_bus2/FB_IN_2_3*
X301000000Y-5001280D03*
G04 #@! TD*
G04 #@! TO.P,U_IN_4_2,P$3_SLEEVE*
G04 #@! TO.N,FB_GND*
X241000000Y-16499860D03*
G04 #@! TO.P,U_IN_4_2,P$2_SWITCH*
X241000000Y-13497580D03*
G04 #@! TO.P,U_IN_4_2,P$1_TIP*
G04 #@! TO.N,/cv_bus4/FB_IN_4_2*
X241000000Y-5001280D03*
G04 #@! TD*
G04 #@! TO.P,U_IN_1_3,P$1_TIP*
G04 #@! TO.N,/cv_bus1/FB_IN_1_3*
X271000000Y-5001280D03*
G04 #@! TO.P,U_IN_1_3,P$2_SWITCH*
G04 #@! TO.N,FB_GND*
X271000000Y-13497580D03*
G04 #@! TO.P,U_IN_1_3,P$3_SLEEVE*
X271000000Y-16499860D03*
G04 #@! TD*
G04 #@! TO.P,U_OUT_1_1,P$3_SLEEVE*
G04 #@! TO.N,FB_GND*
X45000000Y-16499860D03*
G04 #@! TO.P,U_OUT_1_1,P$2_SWITCH*
G04 #@! TO.N,N/C*
X45000000Y-13497580D03*
G04 #@! TO.P,U_OUT_1_1,P$1_TIP*
G04 #@! TO.N,/cv_bus1/FB_OUT_1_1*
X45000000Y-5001280D03*
G04 #@! TD*
G04 #@! TO.P,U_IN_1_2,P$3_SLEEVE*
G04 #@! TO.N,FB_GND*
X151000000Y-16499860D03*
G04 #@! TO.P,U_IN_1_2,P$2_SWITCH*
X151000000Y-13497580D03*
G04 #@! TO.P,U_IN_1_2,P$1_TIP*
G04 #@! TO.N,/cv_bus1/FB_IN_1_2*
X151000000Y-5001280D03*
G04 #@! TD*
G04 #@! TO.P,U_IN_2_2,P$1_TIP*
G04 #@! TO.N,/cv_bus2/FB_IN_2_2*
X181000000Y-5001280D03*
G04 #@! TO.P,U_IN_2_2,P$2_SWITCH*
G04 #@! TO.N,FB_GND*
X181000000Y-13497580D03*
G04 #@! TO.P,U_IN_2_2,P$3_SLEEVE*
X181000000Y-16499860D03*
G04 #@! TD*
G04 #@! TO.P,U_IN_2_4,P$1_TIP*
G04 #@! TO.N,/cv_bus2/FB_IN_2_4*
X421000000Y-5001280D03*
G04 #@! TO.P,U_IN_2_4,P$2_SWITCH*
G04 #@! TO.N,FB_GND*
X421000000Y-13497580D03*
G04 #@! TO.P,U_IN_2_4,P$3_SLEEVE*
X421000000Y-16499860D03*
G04 #@! TD*
G04 #@! TO.P,U_IN_3_1,P$1_TIP*
G04 #@! TO.N,/cv_bus3/FB_IN_3_1*
X91000000Y-5001280D03*
G04 #@! TO.P,U_IN_3_1,P$2_SWITCH*
G04 #@! TO.N,FB_GND*
X91000000Y-13497580D03*
G04 #@! TO.P,U_IN_3_1,P$3_SLEEVE*
X91000000Y-16499860D03*
G04 #@! TD*
G04 #@! TO.P,U_IN_3_2,P$1_TIP*
G04 #@! TO.N,/cv_bus3/FB_IN_3_2*
X211000000Y-5001280D03*
G04 #@! TO.P,U_IN_3_2,P$2_SWITCH*
G04 #@! TO.N,FB_GND*
X211000000Y-13497580D03*
G04 #@! TO.P,U_IN_3_2,P$3_SLEEVE*
X211000000Y-16499860D03*
G04 #@! TD*
G04 #@! TO.P,U_IN_3_3,P$3_SLEEVE*
G04 #@! TO.N,FB_GND*
X331000000Y-16499860D03*
G04 #@! TO.P,U_IN_3_3,P$2_SWITCH*
X331000000Y-13497580D03*
G04 #@! TO.P,U_IN_3_3,P$1_TIP*
G04 #@! TO.N,/cv_bus3/FB_IN_3_3*
X331000000Y-5001280D03*
G04 #@! TD*
G04 #@! TO.P,U_IN_3_4,P$3_SLEEVE*
G04 #@! TO.N,FB_GND*
X451000000Y-16499860D03*
G04 #@! TO.P,U_IN_3_4,P$2_SWITCH*
X451000000Y-13497580D03*
G04 #@! TO.P,U_IN_3_4,P$1_TIP*
G04 #@! TO.N,/cv_bus3/FB_IN_3_4*
X451000000Y-5001280D03*
G04 #@! TD*
G04 #@! TO.P,U_IN_4_1,P$1_TIP*
G04 #@! TO.N,/cv_bus4/FB_IN_4_1*
X121000000Y-5001280D03*
G04 #@! TO.P,U_IN_4_1,P$2_SWITCH*
G04 #@! TO.N,FB_GND*
X121000000Y-13497580D03*
G04 #@! TO.P,U_IN_4_1,P$3_SLEEVE*
X121000000Y-16499860D03*
G04 #@! TD*
G04 #@! TO.P,U_IN_4_3,P$1_TIP*
G04 #@! TO.N,/cv_bus4/FB_IN_4_3*
X361000000Y-5001280D03*
G04 #@! TO.P,U_IN_4_3,P$2_SWITCH*
G04 #@! TO.N,FB_GND*
X361000000Y-13497580D03*
G04 #@! TO.P,U_IN_4_3,P$3_SLEEVE*
X361000000Y-16499860D03*
G04 #@! TD*
G04 #@! TO.P,U_IN_4_4,P$1_TIP*
G04 #@! TO.N,/cv_bus4/FB_IN_4_4*
X481000000Y-5001280D03*
G04 #@! TO.P,U_IN_4_4,P$2_SWITCH*
G04 #@! TO.N,FB_GND*
X481000000Y-13497580D03*
G04 #@! TO.P,U_IN_4_4,P$3_SLEEVE*
X481000000Y-16499860D03*
G04 #@! TD*
G04 #@! TO.P,U_OUT_1_3,P$3_SLEEVE*
G04 #@! TO.N,FB_GND*
X285000000Y-16499860D03*
G04 #@! TO.P,U_OUT_1_3,P$2_SWITCH*
G04 #@! TO.N,N/C*
X285000000Y-13497580D03*
G04 #@! TO.P,U_OUT_1_3,P$1_TIP*
G04 #@! TO.N,/cv_bus1/FB_OUT_1_3*
X285000000Y-5001280D03*
G04 #@! TD*
G04 #@! TO.P,U_OUT_1_4,P$1_TIP*
G04 #@! TO.N,/cv_bus1/FB_OUT_1_4*
X405000000Y-5001280D03*
G04 #@! TO.P,U_OUT_1_4,P$2_SWITCH*
G04 #@! TO.N,N/C*
X405000000Y-13497580D03*
G04 #@! TO.P,U_OUT_1_4,P$3_SLEEVE*
G04 #@! TO.N,FB_GND*
X405000000Y-16499860D03*
G04 #@! TD*
G04 #@! TO.P,U_OUT_1_2,P$1_TIP*
G04 #@! TO.N,/cv_bus1/FB_OUT_1_2*
X165000000Y-5001280D03*
G04 #@! TO.P,U_OUT_1_2,P$2_SWITCH*
G04 #@! TO.N,N/C*
X165000000Y-13497580D03*
G04 #@! TO.P,U_OUT_1_2,P$3_SLEEVE*
G04 #@! TO.N,FB_GND*
X165000000Y-16499860D03*
G04 #@! TD*
G04 #@! TO.P,U_OUT_2_2,P$3_SLEEVE*
G04 #@! TO.N,FB_GND*
X195000000Y-16499860D03*
G04 #@! TO.P,U_OUT_2_2,P$2_SWITCH*
G04 #@! TO.N,N/C*
X195000000Y-13497580D03*
G04 #@! TO.P,U_OUT_2_2,P$1_TIP*
G04 #@! TO.N,/cv_bus2/FB_OUT_2_2*
X195000000Y-5001280D03*
G04 #@! TD*
G04 #@! TO.P,U_OUT_2_4,P$1_TIP*
G04 #@! TO.N,/cv_bus2/FB_OUT_2_4*
X435000000Y-5001280D03*
G04 #@! TO.P,U_OUT_2_4,P$2_SWITCH*
G04 #@! TO.N,N/C*
X435000000Y-13497580D03*
G04 #@! TO.P,U_OUT_2_4,P$3_SLEEVE*
G04 #@! TO.N,FB_GND*
X435000000Y-16499860D03*
G04 #@! TD*
G04 #@! TO.P,U_OUT_3_1,P$3_SLEEVE*
G04 #@! TO.N,FB_GND*
X105000000Y-16499860D03*
G04 #@! TO.P,U_OUT_3_1,P$2_SWITCH*
G04 #@! TO.N,N/C*
X105000000Y-13497580D03*
G04 #@! TO.P,U_OUT_3_1,P$1_TIP*
G04 #@! TO.N,/cv_bus3/FB_OUT_3_1*
X105000000Y-5001280D03*
G04 #@! TD*
G04 #@! TO.P,U_OUT_3_2,P$3_SLEEVE*
G04 #@! TO.N,FB_GND*
X225000000Y-16499860D03*
G04 #@! TO.P,U_OUT_3_2,P$2_SWITCH*
G04 #@! TO.N,N/C*
X225000000Y-13497580D03*
G04 #@! TO.P,U_OUT_3_2,P$1_TIP*
G04 #@! TO.N,/cv_bus3/FB_OUT_3_2*
X225000000Y-5001280D03*
G04 #@! TD*
G04 #@! TO.P,U_OUT_3_3,P$1_TIP*
G04 #@! TO.N,/cv_bus3/FB_OUT_3_3*
X345000000Y-5001280D03*
G04 #@! TO.P,U_OUT_3_3,P$2_SWITCH*
G04 #@! TO.N,N/C*
X345000000Y-13497580D03*
G04 #@! TO.P,U_OUT_3_3,P$3_SLEEVE*
G04 #@! TO.N,FB_GND*
X345000000Y-16499860D03*
G04 #@! TD*
G04 #@! TO.P,U_OUT_3_4,P$3_SLEEVE*
G04 #@! TO.N,FB_GND*
X465000000Y-16499860D03*
G04 #@! TO.P,U_OUT_3_4,P$2_SWITCH*
G04 #@! TO.N,N/C*
X465000000Y-13497580D03*
G04 #@! TO.P,U_OUT_3_4,P$1_TIP*
G04 #@! TO.N,/cv_bus3/FB_OUT_3_4*
X465000000Y-5001280D03*
G04 #@! TD*
G04 #@! TO.P,U_OUT_2_3,P$3_SLEEVE*
G04 #@! TO.N,FB_GND*
X315000000Y-16499860D03*
G04 #@! TO.P,U_OUT_2_3,P$2_SWITCH*
G04 #@! TO.N,N/C*
X315000000Y-13497580D03*
G04 #@! TO.P,U_OUT_2_3,P$1_TIP*
G04 #@! TO.N,/cv_bus2/FB_OUT_2_3*
X315000000Y-5001280D03*
G04 #@! TD*
G04 #@! TO.P,U_OUT_4_1,P$1_TIP*
G04 #@! TO.N,/cv_bus4/FB_OUT_4_1*
X135000000Y-5001280D03*
G04 #@! TO.P,U_OUT_4_1,P$2_SWITCH*
G04 #@! TO.N,N/C*
X135000000Y-13497580D03*
G04 #@! TO.P,U_OUT_4_1,P$3_SLEEVE*
G04 #@! TO.N,FB_GND*
X135000000Y-16499860D03*
G04 #@! TD*
G04 #@! TO.P,U_OUT_4_2,P$3_SLEEVE*
G04 #@! TO.N,FB_GND*
X255000000Y-16499860D03*
G04 #@! TO.P,U_OUT_4_2,P$2_SWITCH*
G04 #@! TO.N,N/C*
X255000000Y-13497580D03*
G04 #@! TO.P,U_OUT_4_2,P$1_TIP*
G04 #@! TO.N,/cv_bus4/FB_OUT_4_2*
X255000000Y-5001280D03*
G04 #@! TD*
G04 #@! TO.P,U_OUT_4_3,P$1_TIP*
G04 #@! TO.N,/cv_bus4/FB_OUT_4_3*
X375000000Y-5001280D03*
G04 #@! TO.P,U_OUT_4_3,P$2_SWITCH*
G04 #@! TO.N,N/C*
X375000000Y-13497580D03*
G04 #@! TO.P,U_OUT_4_3,P$3_SLEEVE*
G04 #@! TO.N,FB_GND*
X375000000Y-16499860D03*
G04 #@! TD*
G04 #@! TO.P,U_OUT_2_1,P$1_TIP*
G04 #@! TO.N,/cv_bus2/FB_OUT_2_1*
X75000000Y-5001280D03*
G04 #@! TO.P,U_OUT_2_1,P$2_SWITCH*
G04 #@! TO.N,N/C*
X75000000Y-13497580D03*
G04 #@! TO.P,U_OUT_2_1,P$3_SLEEVE*
G04 #@! TO.N,FB_GND*
X75000000Y-16499860D03*
G04 #@! TD*
G04 #@! TO.P,U_OUT_4_4,P$3_SLEEVE*
G04 #@! TO.N,FB_GND*
X495000000Y-16499860D03*
G04 #@! TO.P,U_OUT_4_4,P$2_SWITCH*
G04 #@! TO.N,N/C*
X495000000Y-13497580D03*
G04 #@! TO.P,U_OUT_4_4,P$1_TIP*
G04 #@! TO.N,/cv_bus4/FB_OUT_4_4*
X495000000Y-5001280D03*
G04 #@! TD*
D10*
G04 #@! TO.P,D_NEG_1_2,1*
G04 #@! TO.N,Net-(D_NEG_1_1-Pad2)*
X156750000Y-13500000D03*
D11*
G04 #@! TO.P,D_NEG_1_2,2*
G04 #@! TO.N,Net-(D_NEG_1_2-Pad2)*
X159290000Y-13500000D03*
G04 #@! TD*
G04 #@! TO.P,D_NEG_1_3,2*
G04 #@! TO.N,Net-(D_NEG_1_3-Pad2)*
X279290000Y-13500000D03*
D10*
G04 #@! TO.P,D_NEG_1_3,1*
G04 #@! TO.N,Net-(D_NEG_1_2-Pad2)*
X276750000Y-13500000D03*
G04 #@! TD*
G04 #@! TO.P,D_NEG_1_4,1*
G04 #@! TO.N,Net-(D_NEG_1_3-Pad2)*
X396750000Y-13500000D03*
D11*
G04 #@! TO.P,D_NEG_1_4,2*
G04 #@! TO.N,/cv_bus1/FB_LEDS_OUT_1*
X399290000Y-13500000D03*
G04 #@! TD*
G04 #@! TO.P,D_POS_1_4,2*
G04 #@! TO.N,Net-(D_POS_1_3-Pad1)*
X399290000Y-6500000D03*
D10*
G04 #@! TO.P,D_POS_1_4,1*
G04 #@! TO.N,/cv_bus1/FB_LEDS_OUT_1*
X396750000Y-6500000D03*
G04 #@! TD*
D14*
G04 #@! TO.P,U_IN_1_1,P$3_SLEEVE*
G04 #@! TO.N,FB_GND*
X31000000Y-16499860D03*
G04 #@! TO.P,U_IN_1_1,P$2_SWITCH*
X31000000Y-13497580D03*
G04 #@! TO.P,U_IN_1_1,P$1_TIP*
G04 #@! TO.N,/cv_bus1/FB_IN_1_1*
X31000000Y-5001280D03*
G04 #@! TD*
G04 #@! TO.P,U_IN_1_4,P$1_TIP*
G04 #@! TO.N,/cv_bus1/FB_IN_1_4*
X391000000Y-5001280D03*
G04 #@! TO.P,U_IN_1_4,P$2_SWITCH*
G04 #@! TO.N,FB_GND*
X391000000Y-13497580D03*
G04 #@! TO.P,U_IN_1_4,P$3_SLEEVE*
X391000000Y-16499860D03*
G04 #@! TD*
D15*
G04 #@! TO.N,Net-(D_NEG_1_1-Pad2)*
X86071300Y-14447100D03*
G04 #@! TO.N,Net-(D_NEG_1_2-Pad2)*
X226293500Y-15179800D03*
G04 #@! TO.N,Net-(D_NEG_3_3-Pad2)*
X393576800Y-8925100D03*
G04 #@! TO.N,Net-(D_POS_1_3-Pad1)*
X304519400Y-4571300D03*
G04 #@! TO.N,Net-(D_POS_3_3-Pad1)*
X352725300Y-5324000D03*
G04 #@! TO.N,Net-(D_POS_4_1-Pad1)*
X232197200Y-4094900D03*
G04 #@! TO.N,/cv_bus3/FB_LEDS_IN_3*
X118661500Y-4579800D03*
G04 #@! TO.N,/cv_bus4/FB_LEDS_IN_4*
X137775300Y-15901000D03*
G04 #@! TO.N,/cv_bus3/FB_OUT_3_2*
X302164300Y-3970100D03*
G04 #@! TO.N,/cv_bus4/FB_IN_4_2*
X293497300Y-16392200D03*
G04 #@! TO.N,/cv_bus4/FB_OUT_4_2*
X290158000Y-15885600D03*
G04 #@! TD*
D16*
G04 #@! TO.N,Net-(D_NEG_1_1-Pad2)*
X39290000Y-13500000D02*
X40486200Y-12303800D01*
X40486200Y-12303800D02*
X62353100Y-12303800D01*
X62353100Y-12303800D02*
X65225000Y-15175700D01*
X65225000Y-15175700D02*
X85342700Y-15175700D01*
X85342700Y-15175700D02*
X86071300Y-14447100D01*
G04 #@! TO.N,Net-(D_NEG_1_2-Pad2)*
X276750000Y-13500000D02*
X275524700Y-13500000D01*
X275524700Y-13500000D02*
X274351700Y-12327000D01*
X274351700Y-12327000D02*
X258514000Y-12327000D01*
X258514000Y-12327000D02*
X255661200Y-15179800D01*
X255661200Y-15179800D02*
X226293500Y-15179800D01*
G04 #@! TO.N,Net-(D_NEG_2_3-Pad2)*
X309290000Y-13500000D02*
X310597500Y-12192500D01*
X310597500Y-12192500D02*
X353125800Y-12192500D01*
X353125800Y-12192500D02*
X357809300Y-7509000D01*
X357809300Y-7509000D02*
X362575200Y-7509000D01*
X362575200Y-7509000D02*
X366258900Y-3825300D01*
X366258900Y-3825300D02*
X417548300Y-3825300D01*
X417548300Y-3825300D02*
X425997700Y-12274700D01*
X425997700Y-12274700D02*
X426750000Y-12274700D01*
X426750000Y-13500000D02*
X426750000Y-12274700D01*
G04 #@! TO.N,Net-(D_NEG_3_1-Pad2)*
X216750000Y-13500000D02*
X215524700Y-13500000D01*
X215524700Y-13500000D02*
X215524700Y-13653200D01*
X215524700Y-13653200D02*
X211508300Y-17669600D01*
X211508300Y-17669600D02*
X112151400Y-17669600D01*
X112151400Y-17669600D02*
X109480600Y-14998800D01*
X109480600Y-14998800D02*
X100788800Y-14998800D01*
X100788800Y-14998800D02*
X99290000Y-13500000D01*
G04 #@! TO.N,Net-(D_NEG_3_2-Pad2)*
X335524700Y-13500000D02*
X335524700Y-13616000D01*
X335524700Y-13616000D02*
X331488400Y-17652300D01*
X331488400Y-17652300D02*
X223442300Y-17652300D01*
X223442300Y-17652300D02*
X219290000Y-13500000D01*
X336750000Y-13500000D02*
X335524700Y-13500000D01*
G04 #@! TO.N,Net-(D_NEG_3_3-Pad2)*
X393576800Y-8925100D02*
X392671500Y-8019800D01*
X392671500Y-8019800D02*
X358425700Y-8019800D01*
X358425700Y-8019800D02*
X351727800Y-14717700D01*
X351727800Y-14717700D02*
X340507700Y-14717700D01*
X340507700Y-14717700D02*
X339290000Y-13500000D01*
G04 #@! TO.N,Net-(D_NEG_4_1-Pad2)*
X246750000Y-13500000D02*
X245524700Y-13500000D01*
X129290000Y-13500000D02*
X130515300Y-12274700D01*
X130515300Y-12274700D02*
X244299400Y-12274700D01*
X244299400Y-12274700D02*
X245524700Y-13500000D01*
G04 #@! TO.N,Net-(D_POS_1_1-Pad1)*
X36750000Y-6500000D02*
X37975300Y-6500000D01*
X37975300Y-6500000D02*
X37975300Y-6040500D01*
X37975300Y-6040500D02*
X38764400Y-5251400D01*
X38764400Y-5251400D02*
X42974400Y-5251400D01*
X42974400Y-5251400D02*
X45448400Y-7725400D01*
X45448400Y-7725400D02*
X61453500Y-7725400D01*
X61453500Y-7725400D02*
X65308800Y-11580700D01*
X65308800Y-11580700D02*
X65308800Y-14332400D01*
X65308800Y-14332400D02*
X65701700Y-14725300D01*
X65701700Y-14725300D02*
X83425000Y-14725300D01*
X83425000Y-14725300D02*
X94312000Y-3838300D01*
X94312000Y-3838300D02*
X156628300Y-3838300D01*
X156628300Y-3838300D02*
X159290000Y-6500000D01*
G04 #@! TO.N,Net-(D_POS_1_3-Pad1)*
X304519400Y-4571300D02*
X302921000Y-6169700D01*
X302921000Y-6169700D02*
X281134900Y-6169700D01*
X281134900Y-6169700D02*
X280234700Y-5269500D01*
X280234700Y-5269500D02*
X278774100Y-5269500D01*
X278774100Y-5269500D02*
X277975300Y-6068300D01*
X277975300Y-6068300D02*
X277975300Y-6500000D01*
X276750000Y-6500000D02*
X277975300Y-6500000D01*
G04 #@! TO.N,Net-(D_POS_2_1-Pad1)*
X67975300Y-6500000D02*
X67975300Y-6040500D01*
X67975300Y-6040500D02*
X70627800Y-3388000D01*
X70627800Y-3388000D02*
X158113900Y-3388000D01*
X158113900Y-3388000D02*
X161834300Y-7108400D01*
X161834300Y-7108400D02*
X183636100Y-7108400D01*
X183636100Y-7108400D02*
X185469900Y-5274600D01*
X185469900Y-5274600D02*
X188064600Y-5274600D01*
X188064600Y-5274600D02*
X189290000Y-6500000D01*
X66750000Y-6500000D02*
X67975300Y-6500000D01*
G04 #@! TO.N,Net-(D_POS_2_3-Pad1)*
X307975300Y-6500000D02*
X307975300Y-6040400D01*
X307975300Y-6040400D02*
X308741000Y-5274700D01*
X308741000Y-5274700D02*
X310284200Y-5274700D01*
X310284200Y-5274700D02*
X312117900Y-7108400D01*
X312117900Y-7108400D02*
X333690800Y-7108400D01*
X333690800Y-7108400D02*
X335524600Y-5274600D01*
X335524600Y-5274600D02*
X340363700Y-5274600D01*
X340363700Y-5274600D02*
X342614100Y-7525000D01*
X342614100Y-7525000D02*
X350779600Y-7525000D01*
X350779600Y-7525000D02*
X351381700Y-6922900D01*
X351381700Y-6922900D02*
X361295900Y-6922900D01*
X361295900Y-6922900D02*
X364843900Y-3374900D01*
X364843900Y-3374900D02*
X417734800Y-3374900D01*
X417734800Y-3374900D02*
X420565800Y-6205900D01*
X420565800Y-6205900D02*
X423558300Y-6205900D01*
X423558300Y-6205900D02*
X424489600Y-5274600D01*
X424489600Y-5274600D02*
X428064600Y-5274600D01*
X428064600Y-5274600D02*
X429290000Y-6500000D01*
X306750000Y-6500000D02*
X307975300Y-6500000D01*
G04 #@! TO.N,Net-(D_POS_3_1-Pad1)*
X96750000Y-6500000D02*
X97975300Y-6500000D01*
X219290000Y-6500000D02*
X218064600Y-7725400D01*
X218064600Y-7725400D02*
X134355300Y-7725400D01*
X134355300Y-7725400D02*
X131904500Y-5274600D01*
X131904500Y-5274600D02*
X123002500Y-5274600D01*
X123002500Y-5274600D02*
X120551800Y-7725300D01*
X120551800Y-7725300D02*
X98741000Y-7725300D01*
X98741000Y-7725300D02*
X97975300Y-6959600D01*
X97975300Y-6959600D02*
X97975300Y-6500000D01*
G04 #@! TO.N,Net-(D_POS_3_2-Pad1)*
X339290000Y-6500000D02*
X337837900Y-7952100D01*
X337837900Y-7952100D02*
X283106500Y-7952100D01*
X283106500Y-7952100D02*
X282863400Y-8195200D01*
X282863400Y-8195200D02*
X274575000Y-8195200D01*
X274575000Y-8195200D02*
X273431600Y-7051800D01*
X273431600Y-7051800D02*
X260116500Y-7051800D01*
X260116500Y-7051800D02*
X256413300Y-3348600D01*
X256413300Y-3348600D02*
X220667200Y-3348600D01*
X220667200Y-3348600D02*
X217975300Y-6040500D01*
X217975300Y-6040500D02*
X217975300Y-6500000D01*
X216750000Y-6500000D02*
X217975300Y-6500000D01*
G04 #@! TO.N,Net-(D_POS_3_3-Pad1)*
X459290000Y-6500000D02*
X458064600Y-5274600D01*
X458064600Y-5274600D02*
X452575300Y-5274600D01*
X452575300Y-5274600D02*
X451677700Y-6172200D01*
X451677700Y-6172200D02*
X440814600Y-6172200D01*
X440814600Y-6172200D02*
X437072800Y-2430400D01*
X437072800Y-2430400D02*
X355618900Y-2430400D01*
X355618900Y-2430400D02*
X352725300Y-5324000D01*
G04 #@! TO.N,Net-(D_POS_4_1-Pad1)*
X249290000Y-6500000D02*
X246632000Y-3842000D01*
X246632000Y-3842000D02*
X232450100Y-3842000D01*
X232450100Y-3842000D02*
X232197200Y-4094900D01*
G04 #@! TO.N,/cv_bus1/FB_LEDS_IN_1*
X36137400Y-13500000D02*
X39290000Y-10347400D01*
X39290000Y-10347400D02*
X39290000Y-6500000D01*
X36137400Y-13500000D02*
X35524700Y-13500000D01*
X36750000Y-13500000D02*
X36137400Y-13500000D01*
X15160000Y-4000000D02*
X16335300Y-4000000D01*
X16335300Y-4000000D02*
X16335300Y-4367400D01*
X16335300Y-4367400D02*
X17143200Y-5175300D01*
X17143200Y-5175300D02*
X21489900Y-5175300D01*
X21489900Y-5175300D02*
X28589300Y-12274700D01*
X28589300Y-12274700D02*
X34299400Y-12274700D01*
X34299400Y-12274700D02*
X35524700Y-13500000D01*
G04 #@! TO.N,/cv_bus1/FB_LEDS_OUT_1*
X395132700Y-9342600D02*
X396750000Y-7725300D01*
X16335300Y-6540000D02*
X16335300Y-6907300D01*
X16335300Y-6907300D02*
X27556900Y-18128900D01*
X27556900Y-18128900D02*
X353229600Y-18128900D01*
X353229600Y-18128900D02*
X359166000Y-12192500D01*
X359166000Y-12192500D02*
X392282800Y-12192500D01*
X392282800Y-12192500D02*
X395132700Y-9342600D01*
X395132700Y-9342600D02*
X399290000Y-13500000D01*
X396750000Y-6500000D02*
X396750000Y-7725300D01*
X15160000Y-6540000D02*
X16335300Y-6540000D01*
G04 #@! TO.N,/cv_bus2/FB_LEDS_IN_2*
X66750000Y-13500000D02*
X66750000Y-12274700D01*
X66750000Y-12274700D02*
X69290000Y-9734700D01*
X69290000Y-9734700D02*
X69290000Y-6500000D01*
G04 #@! TO.N,/cv_bus2/FB_LEDS_OUT_2*
X16335300Y-16040000D02*
X19324900Y-19029600D01*
X19324900Y-19029600D02*
X423760400Y-19029600D01*
X423760400Y-19029600D02*
X429290000Y-13500000D01*
X15160000Y-16040000D02*
X16335300Y-16040000D01*
X426750000Y-7725300D02*
X429290000Y-10265300D01*
X429290000Y-10265300D02*
X429290000Y-13500000D01*
X426750000Y-6500000D02*
X426750000Y-7725300D01*
G04 #@! TO.N,/cv_bus3/FB_LEDS_IN_3*
X99290000Y-6500000D02*
X116741300Y-6500000D01*
X116741300Y-6500000D02*
X118661500Y-4579800D01*
X99290000Y-6500000D02*
X98064600Y-5274600D01*
X98064600Y-5274600D02*
X95667700Y-5274600D01*
X95667700Y-5274600D02*
X95524700Y-5417600D01*
X95524700Y-5417600D02*
X95524700Y-11049400D01*
X95524700Y-11049400D02*
X96750000Y-12274700D01*
X96750000Y-13500000D02*
X96750000Y-12274700D01*
G04 #@! TO.N,/cv_bus3/FB_LEDS_OUT_3*
X459290000Y-13500000D02*
X463504400Y-17714400D01*
X463504400Y-17714400D02*
X520153400Y-17714400D01*
X520153400Y-17714400D02*
X521355400Y-16512400D01*
X521355400Y-16512400D02*
X521355400Y-8910700D01*
X521355400Y-8910700D02*
X520160000Y-7715300D01*
X520160000Y-6540000D02*
X520160000Y-7715300D01*
G04 #@! TO.N,/cv_bus4/FB_LEDS_IN_4*
X127975300Y-13500000D02*
X127975300Y-13959500D01*
X127975300Y-13959500D02*
X129320200Y-15304400D01*
X129320200Y-15304400D02*
X137178700Y-15304400D01*
X137178700Y-15304400D02*
X137775300Y-15901000D01*
X126750000Y-12274700D02*
X126750000Y-9040000D01*
X126750000Y-9040000D02*
X129290000Y-6500000D01*
X126750000Y-13500000D02*
X127975300Y-13500000D01*
X126750000Y-13500000D02*
X126750000Y-12274700D01*
G04 #@! TO.N,/cv_bus4/FB_LEDS_OUT_4*
X489290000Y-13500000D02*
X490915700Y-15125700D01*
X490915700Y-15125700D02*
X504837700Y-15125700D01*
X504837700Y-15125700D02*
X506940000Y-17228000D01*
X506940000Y-17228000D02*
X518164000Y-17228000D01*
X518164000Y-17228000D02*
X518984700Y-16407300D01*
X518984700Y-16407300D02*
X518984700Y-16040000D01*
X520160000Y-16040000D02*
X518984700Y-16040000D01*
X489290000Y-13500000D02*
X489290000Y-10265300D01*
X489290000Y-10265300D02*
X486750000Y-7725300D01*
X486750000Y-6500000D02*
X486750000Y-7725300D01*
G04 #@! TO.N,/cv_bus1/FB_IN_1_3*
X8715300Y-4000000D02*
X8715300Y-3632700D01*
X8715300Y-3632700D02*
X10935300Y-1412700D01*
X10935300Y-1412700D02*
X267411400Y-1412700D01*
X267411400Y-1412700D02*
X271000000Y-5001300D01*
X7540000Y-4000000D02*
X8715300Y-4000000D01*
G04 #@! TO.N,/cv_bus1/FB_OUT_1_2*
X10080000Y-6540000D02*
X10080000Y-5364700D01*
X165000000Y-5001300D02*
X161861800Y-1863100D01*
X161861800Y-1863100D02*
X13093500Y-1863100D01*
X13093500Y-1863100D02*
X11255300Y-3701300D01*
X11255300Y-3701300D02*
X11255300Y-4556800D01*
X11255300Y-4556800D02*
X10447400Y-5364700D01*
X10447400Y-5364700D02*
X10080000Y-5364700D01*
G04 #@! TO.N,/cv_bus1/FB_OUT_1_3*
X12620000Y-4000000D02*
X14271100Y-2348900D01*
X14271100Y-2348900D02*
X159785300Y-2348900D01*
X159785300Y-2348900D02*
X163629800Y-6193400D01*
X163629800Y-6193400D02*
X167677700Y-6193400D01*
X167677700Y-6193400D02*
X171427700Y-2443400D01*
X171427700Y-2443400D02*
X265879200Y-2443400D01*
X265879200Y-2443400D02*
X269586900Y-6151100D01*
X269586900Y-6151100D02*
X273563600Y-6151100D01*
X273563600Y-6151100D02*
X274896400Y-4818300D01*
X274896400Y-4818300D02*
X284817000Y-4818300D01*
X284817000Y-4818300D02*
X285000000Y-5001300D01*
G04 #@! TO.N,/cv_bus1/FB_OUT_1_4*
X12620000Y-6540000D02*
X13795300Y-6540000D01*
X405000000Y-5001300D02*
X412191200Y-12192500D01*
X412191200Y-12192500D02*
X421349000Y-12192500D01*
X421349000Y-12192500D02*
X422163300Y-13006800D01*
X422163300Y-13006800D02*
X422163300Y-17018300D01*
X422163300Y-17018300D02*
X420602300Y-18579300D01*
X420602300Y-18579300D02*
X25467200Y-18579300D01*
X25467200Y-18579300D02*
X13795300Y-6907400D01*
X13795300Y-6907400D02*
X13795300Y-6540000D01*
G04 #@! TO.N,/cv_bus2/FB_OUT_2_3*
X315000000Y-5001300D02*
X310510700Y-512000D01*
X310510700Y-512000D02*
X6321100Y-512000D01*
X6321100Y-512000D02*
X3803200Y-3029900D01*
X3803200Y-3029900D02*
X3803200Y-14496700D01*
X3803200Y-14496700D02*
X3981800Y-14675300D01*
X3981800Y-14675300D02*
X10636800Y-14675300D01*
X10636800Y-14675300D02*
X11444700Y-13867400D01*
X11444700Y-13867400D02*
X11444700Y-13500000D01*
X12620000Y-13500000D02*
X11444700Y-13500000D01*
G04 #@! TO.N,/cv_bus2/FB_OUT_2_2*
X10080000Y-16040000D02*
X11255300Y-16040000D01*
X195000000Y-5001300D02*
X194822900Y-4824200D01*
X194822900Y-4824200D02*
X183950100Y-4824200D01*
X183950100Y-4824200D02*
X182116300Y-6658000D01*
X182116300Y-6658000D02*
X162739300Y-6658000D01*
X162739300Y-6658000D02*
X158890100Y-2808800D01*
X158890100Y-2808800D02*
X14581100Y-2808800D01*
X14581100Y-2808800D02*
X13890000Y-3499900D01*
X13890000Y-3499900D02*
X13890000Y-4431000D01*
X13890000Y-4431000D02*
X13145600Y-5175400D01*
X13145600Y-5175400D02*
X12283600Y-5175400D01*
X12283600Y-5175400D02*
X11401000Y-6058000D01*
X11401000Y-6058000D02*
X11401000Y-9442000D01*
X11401000Y-9442000D02*
X13795400Y-11836400D01*
X13795400Y-11836400D02*
X13795400Y-13989400D01*
X13795400Y-13989400D02*
X12920100Y-14864700D01*
X12920100Y-14864700D02*
X12063200Y-14864700D01*
X12063200Y-14864700D02*
X11255300Y-15672600D01*
X11255300Y-15672600D02*
X11255300Y-16040000D01*
G04 #@! TO.N,/cv_bus2/FB_IN_2_4*
X8715300Y-16040000D02*
X8715300Y-16407300D01*
X8715300Y-16407300D02*
X11844200Y-19536200D01*
X11844200Y-19536200D02*
X425038500Y-19536200D01*
X425038500Y-19536200D02*
X430545500Y-14029200D01*
X430545500Y-14029200D02*
X430545500Y-6018600D01*
X430545500Y-6018600D02*
X429303000Y-4776100D01*
X429303000Y-4776100D02*
X421225200Y-4776100D01*
X421225200Y-4776100D02*
X421000000Y-5001300D01*
X7540000Y-16040000D02*
X8715300Y-16040000D01*
G04 #@! TO.N,/cv_bus2/FB_IN_2_3*
X7540000Y-13500000D02*
X7540000Y-12324700D01*
X301000000Y-5001300D02*
X296961000Y-962300D01*
X296961000Y-962300D02*
X8905200Y-962300D01*
X8905200Y-962300D02*
X6364700Y-3502800D01*
X6364700Y-3502800D02*
X6364700Y-11149400D01*
X6364700Y-11149400D02*
X7540000Y-12324700D01*
G04 #@! TO.N,/cv_bus3/FB_IN_3_2*
X508824700Y-6540000D02*
X504264800Y-1980100D01*
X504264800Y-1980100D02*
X352734500Y-1980100D01*
X352734500Y-1980100D02*
X347640000Y-7074600D01*
X347640000Y-7074600D02*
X343629500Y-7074600D01*
X343629500Y-7074600D02*
X341374000Y-4819100D01*
X341374000Y-4819100D02*
X335343200Y-4819100D01*
X335343200Y-4819100D02*
X333504300Y-6658000D01*
X333504300Y-6658000D02*
X313326500Y-6658000D01*
X313326500Y-6658000D02*
X311477500Y-4809000D01*
X311477500Y-4809000D02*
X305766900Y-4809000D01*
X305766900Y-4809000D02*
X303955800Y-6620100D01*
X303955800Y-6620100D02*
X282577600Y-6620100D01*
X282577600Y-6620100D02*
X281472300Y-7725400D01*
X281472300Y-7725400D02*
X274835100Y-7725400D01*
X274835100Y-7725400D02*
X273711100Y-6601400D01*
X273711100Y-6601400D02*
X268044900Y-6601400D01*
X268044900Y-6601400D02*
X264337300Y-2893800D01*
X264337300Y-2893800D02*
X213107500Y-2893800D01*
X213107500Y-2893800D02*
X211000000Y-5001300D01*
X510000000Y-6540000D02*
X508824700Y-6540000D01*
G04 #@! TO.N,/cv_bus3/FB_IN_3_3*
X511364700Y-4000000D02*
X511364700Y-3191900D01*
X511364700Y-3191900D02*
X509252300Y-1079500D01*
X509252300Y-1079500D02*
X350593500Y-1079500D01*
X350593500Y-1079500D02*
X345522100Y-6150900D01*
X345522100Y-6150900D02*
X343979600Y-6150900D01*
X343979600Y-6150900D02*
X341745500Y-3916800D01*
X341745500Y-3916800D02*
X332084500Y-3916800D01*
X332084500Y-3916800D02*
X331000000Y-5001300D01*
X512540000Y-4000000D02*
X511364700Y-4000000D01*
G04 #@! TO.N,/cv_bus3/FB_IN_3_4*
X451000000Y-5001300D02*
X453059300Y-2942000D01*
X453059300Y-2942000D02*
X504478100Y-2942000D01*
X504478100Y-2942000D02*
X509251400Y-7715300D01*
X509251400Y-7715300D02*
X510490700Y-7715300D01*
X510490700Y-7715300D02*
X511364700Y-6841300D01*
X511364700Y-6841300D02*
X511364700Y-6540000D01*
X512540000Y-6540000D02*
X511364700Y-6540000D01*
G04 #@! TO.N,/cv_bus3/FB_OUT_3_2*
X513904700Y-6540000D02*
X513904700Y-6172600D01*
X513904700Y-6172600D02*
X513096800Y-5364700D01*
X513096800Y-5364700D02*
X508490800Y-5364700D01*
X508490800Y-5364700D02*
X504655900Y-1529800D01*
X504655900Y-1529800D02*
X350780100Y-1529800D01*
X350780100Y-1529800D02*
X345708700Y-6601200D01*
X345708700Y-6601200D02*
X343793000Y-6601200D01*
X343793000Y-6601200D02*
X341560500Y-4368700D01*
X341560500Y-4368700D02*
X333641300Y-4368700D01*
X333641300Y-4368700D02*
X331843000Y-6167000D01*
X331843000Y-6167000D02*
X314043800Y-6167000D01*
X314043800Y-6167000D02*
X311692900Y-3816100D01*
X311692900Y-3816100D02*
X302318300Y-3816100D01*
X302318300Y-3816100D02*
X302164300Y-3970100D01*
X515080000Y-6540000D02*
X513904700Y-6540000D01*
G04 #@! TO.N,/cv_bus3/FB_OUT_3_3*
X516444700Y-4000000D02*
X516444700Y-3632700D01*
X516444700Y-3632700D02*
X513441200Y-629200D01*
X513441200Y-629200D02*
X349372100Y-629200D01*
X349372100Y-629200D02*
X345000000Y-5001300D01*
X517620000Y-4000000D02*
X516444700Y-4000000D01*
G04 #@! TO.N,/cv_bus3/FB_OUT_3_4*
X465000000Y-5001300D02*
X466605400Y-3395900D01*
X466605400Y-3395900D02*
X504295100Y-3395900D01*
X504295100Y-3395900D02*
X509064800Y-8165600D01*
X509064800Y-8165600D02*
X515186500Y-8165600D01*
X515186500Y-8165600D02*
X516444700Y-6907400D01*
X516444700Y-6907400D02*
X516444700Y-6540000D01*
X517620000Y-6540000D02*
X516444700Y-6540000D01*
G04 #@! TO.N,/cv_bus4/FB_IN_4_2*
X241000000Y-5001300D02*
X243951300Y-7952600D01*
X243951300Y-7952600D02*
X272166300Y-7952600D01*
X272166300Y-7952600D02*
X276416200Y-12202500D01*
X276416200Y-12202500D02*
X279725500Y-12202500D01*
X279725500Y-12202500D02*
X282521700Y-14998700D01*
X282521700Y-14998700D02*
X286334900Y-14998700D01*
X286334900Y-14998700D02*
X287959800Y-16623600D01*
X287959800Y-16623600D02*
X293265900Y-16623600D01*
X293265900Y-16623600D02*
X293497300Y-16392200D01*
G04 #@! TO.N,/cv_bus4/FB_IN_4_3*
X511364700Y-13500000D02*
X511364700Y-12691900D01*
X511364700Y-12691900D02*
X510997500Y-12324700D01*
X510997500Y-12324700D02*
X501612900Y-12324700D01*
X501612900Y-12324700D02*
X495439100Y-6150900D01*
X495439100Y-6150900D02*
X493653600Y-6150900D01*
X493653600Y-6150900D02*
X491349700Y-3847000D01*
X491349700Y-3847000D02*
X469371400Y-3847000D01*
X469371400Y-3847000D02*
X465485400Y-7733000D01*
X465485400Y-7733000D02*
X435190800Y-7733000D01*
X435190800Y-7733000D02*
X430379500Y-2921700D01*
X430379500Y-2921700D02*
X363079600Y-2921700D01*
X363079600Y-2921700D02*
X361000000Y-5001300D01*
X512540000Y-13500000D02*
X511364700Y-13500000D01*
G04 #@! TO.N,/cv_bus4/FB_IN_4_4*
X512540000Y-16040000D02*
X511364700Y-16040000D01*
X481000000Y-5001300D02*
X491503300Y-5001300D01*
X491503300Y-5001300D02*
X493680600Y-7178600D01*
X493680600Y-7178600D02*
X494931300Y-7178600D01*
X494931300Y-7178600D02*
X502428100Y-14675400D01*
X502428100Y-14675400D02*
X510367400Y-14675400D01*
X510367400Y-14675400D02*
X511364700Y-15672700D01*
X511364700Y-15672700D02*
X511364700Y-16040000D01*
G04 #@! TO.N,/cv_bus4/FB_OUT_4_2*
X290158000Y-15885600D02*
X286249800Y-11977400D01*
X286249800Y-11977400D02*
X280260300Y-11977400D01*
X280260300Y-11977400D02*
X278307900Y-10025000D01*
X278307900Y-10025000D02*
X274915500Y-10025000D01*
X274915500Y-10025000D02*
X272392700Y-7502200D01*
X272392700Y-7502200D02*
X257500900Y-7502200D01*
X257500900Y-7502200D02*
X255000000Y-5001300D01*
G04 #@! TO.N,/cv_bus4/FB_OUT_4_4*
X517620000Y-16040000D02*
X516444700Y-16040000D01*
X495000000Y-5001300D02*
X501552700Y-11554000D01*
X501552700Y-11554000D02*
X512256600Y-11554000D01*
X512256600Y-11554000D02*
X513904600Y-13202000D01*
X513904600Y-13202000D02*
X513904600Y-14025600D01*
X513904600Y-14025600D02*
X514743700Y-14864700D01*
X514743700Y-14864700D02*
X515636800Y-14864700D01*
X515636800Y-14864700D02*
X516444700Y-15672600D01*
X516444700Y-15672600D02*
X516444700Y-16040000D01*
G04 #@! TO.N,FB_GND*
X285000000Y-16499900D02*
X285630300Y-17130200D01*
X285630300Y-17130200D02*
X300369700Y-17130200D01*
X300369700Y-17130200D02*
X301000000Y-16499900D01*
X301000000Y-16499900D02*
X301000000Y-13497600D01*
X135000000Y-16499900D02*
X135126400Y-16626300D01*
X135126400Y-16626300D02*
X150873600Y-16626300D01*
X150873600Y-16626300D02*
X151000000Y-16499900D01*
X31000000Y-13497600D02*
X25832900Y-13497600D01*
X25832900Y-13497600D02*
X18875300Y-6540000D01*
X17700000Y-6540000D02*
X18875300Y-6540000D01*
X31000000Y-16499900D02*
X31000000Y-13497600D01*
X91000000Y-16499900D02*
X75000000Y-16499900D01*
X91000000Y-16499900D02*
X91000000Y-13497600D01*
X105000000Y-16499900D02*
X91000000Y-16499900D01*
X271000000Y-16499900D02*
X255000000Y-16499900D01*
X285000000Y-16499900D02*
X271000000Y-16499900D01*
X451000000Y-16499900D02*
X451000000Y-13497600D01*
X435000000Y-16499900D02*
X451000000Y-16499900D01*
X315000000Y-16499900D02*
X331000000Y-16499900D01*
X225000000Y-16499900D02*
X241000000Y-16499900D01*
X165000000Y-16499900D02*
X181000000Y-16499900D01*
X151000000Y-16499900D02*
X165000000Y-16499900D01*
X181000000Y-16499900D02*
X181000000Y-13497600D01*
X195000000Y-16499900D02*
X181000000Y-16499900D01*
X61000000Y-16499900D02*
X45000000Y-16499900D01*
X61000000Y-13497600D02*
X61000000Y-16499900D01*
X211000000Y-13497600D02*
X211000000Y-16499900D01*
X211000000Y-16499900D02*
X195000000Y-16499900D01*
X241000000Y-16499900D02*
X255000000Y-16499900D01*
X151000000Y-16499900D02*
X151000000Y-13497600D01*
X391000000Y-16499900D02*
X391000000Y-13497600D01*
X31000000Y-16499900D02*
X45000000Y-16499900D01*
X331000000Y-13497600D02*
X331000000Y-16499900D01*
X315000000Y-16499900D02*
X301000000Y-16499900D01*
X271000000Y-16499900D02*
X271000000Y-13497600D01*
X421000000Y-16499900D02*
X421000000Y-13497600D01*
X405000000Y-16499900D02*
X421000000Y-16499900D01*
X121000000Y-16499900D02*
X121000000Y-13497600D01*
X391000000Y-16499900D02*
X405000000Y-16499900D01*
X361000000Y-16499900D02*
X361000000Y-13497600D01*
X375000000Y-16499900D02*
X361000000Y-16499900D01*
X481000000Y-16499900D02*
X495000000Y-16499900D01*
X481000000Y-16499900D02*
X481000000Y-13497600D01*
X391000000Y-16499900D02*
X375000000Y-16499900D01*
G04 #@! TD*
D17*
G04 #@! TO.N,FB_GND*
G36*
X525265000Y-19265000D02*
X426384501Y-19265000D01*
X428124346Y-17525155D01*
X434154310Y-17525155D01*
X434231419Y-17773786D01*
X434777435Y-17970937D01*
X435357334Y-17944130D01*
X435768581Y-17773786D01*
X435845690Y-17525155D01*
X450154310Y-17525155D01*
X450231419Y-17773786D01*
X450777435Y-17970937D01*
X451357334Y-17944130D01*
X451768581Y-17773786D01*
X451845690Y-17525155D01*
X451000000Y-16679465D01*
X450154310Y-17525155D01*
X435845690Y-17525155D01*
X435000000Y-16679465D01*
X434154310Y-17525155D01*
X428124346Y-17525155D01*
X429372206Y-16277295D01*
X433528923Y-16277295D01*
X433555730Y-16857194D01*
X433726074Y-17268441D01*
X433974705Y-17345550D01*
X434820395Y-16499860D01*
X435179605Y-16499860D01*
X436025295Y-17345550D01*
X436273926Y-17268441D01*
X436471077Y-16722425D01*
X436450500Y-16277295D01*
X449528923Y-16277295D01*
X449555730Y-16857194D01*
X449726074Y-17268441D01*
X449974705Y-17345550D01*
X450820395Y-16499860D01*
X451179605Y-16499860D01*
X452025295Y-17345550D01*
X452273926Y-17268441D01*
X452471077Y-16722425D01*
X452444270Y-16142526D01*
X452273926Y-15731279D01*
X452025295Y-15654170D01*
X451179605Y-16499860D01*
X450820395Y-16499860D01*
X449974705Y-15654170D01*
X449726074Y-15731279D01*
X449528923Y-16277295D01*
X436450500Y-16277295D01*
X436444270Y-16142526D01*
X436273926Y-15731279D01*
X436025295Y-15654170D01*
X435179605Y-16499860D01*
X434820395Y-16499860D01*
X433974705Y-15654170D01*
X433726074Y-15731279D01*
X433528923Y-16277295D01*
X429372206Y-16277295D01*
X430174936Y-15474565D01*
X434154310Y-15474565D01*
X435000000Y-16320255D01*
X435845690Y-15474565D01*
X450154310Y-15474565D01*
X451000000Y-16320255D01*
X451845690Y-15474565D01*
X451768581Y-15225934D01*
X451222565Y-15028783D01*
X450642666Y-15055590D01*
X450231419Y-15225934D01*
X450154310Y-15474565D01*
X435845690Y-15474565D01*
X435768581Y-15225934D01*
X435222565Y-15028783D01*
X434642666Y-15055590D01*
X434231419Y-15225934D01*
X434154310Y-15474565D01*
X430174936Y-15474565D01*
X431029973Y-14619529D01*
X431093429Y-14577129D01*
X431261404Y-14325737D01*
X431305500Y-14104052D01*
X431305500Y-14104048D01*
X431320388Y-14029201D01*
X431305500Y-13954354D01*
X431305500Y-6093446D01*
X431320388Y-6018599D01*
X431305500Y-5943752D01*
X431305500Y-5943748D01*
X431261404Y-5722063D01*
X431196329Y-5624671D01*
X431135829Y-5534126D01*
X431135827Y-5534124D01*
X431093429Y-5470671D01*
X431029976Y-5428273D01*
X429893330Y-4291629D01*
X429850929Y-4228171D01*
X429599537Y-4060196D01*
X429377852Y-4016100D01*
X429377847Y-4016100D01*
X429303000Y-4001212D01*
X429228153Y-4016100D01*
X422078482Y-4016100D01*
X421826587Y-3764205D01*
X421627403Y-3681700D01*
X430064699Y-3681700D01*
X434267333Y-7884334D01*
X433733974Y-8105259D01*
X433105259Y-8733974D01*
X432765000Y-9555431D01*
X432765000Y-10444569D01*
X433105259Y-11266026D01*
X433733974Y-11894741D01*
X434395209Y-12168634D01*
X434173413Y-12260505D01*
X433762925Y-12670993D01*
X433540770Y-13207321D01*
X433540770Y-13787839D01*
X433762925Y-14324167D01*
X434173413Y-14734655D01*
X434709741Y-14956810D01*
X435290259Y-14956810D01*
X435826587Y-14734655D01*
X436038367Y-14522875D01*
X450154310Y-14522875D01*
X450231419Y-14771506D01*
X450777435Y-14968657D01*
X451357334Y-14941850D01*
X451768581Y-14771506D01*
X451845690Y-14522875D01*
X451000000Y-13677185D01*
X450154310Y-14522875D01*
X436038367Y-14522875D01*
X436237075Y-14324167D01*
X436459230Y-13787839D01*
X436459230Y-13275015D01*
X449528923Y-13275015D01*
X449555730Y-13854914D01*
X449726074Y-14266161D01*
X449974705Y-14343270D01*
X450820395Y-13497580D01*
X451179605Y-13497580D01*
X452025295Y-14343270D01*
X452273926Y-14266161D01*
X452471077Y-13720145D01*
X452444270Y-13140246D01*
X452273926Y-12728999D01*
X452025295Y-12651890D01*
X451179605Y-13497580D01*
X450820395Y-13497580D01*
X449974705Y-12651890D01*
X449726074Y-12728999D01*
X449528923Y-13275015D01*
X436459230Y-13275015D01*
X436459230Y-13207321D01*
X436237075Y-12670993D01*
X435826587Y-12260505D01*
X435604791Y-12168634D01*
X436266026Y-11894741D01*
X436894741Y-11266026D01*
X437235000Y-10444569D01*
X437235000Y-9555431D01*
X436894741Y-8733974D01*
X436653767Y-8493000D01*
X442846233Y-8493000D01*
X442605259Y-8733974D01*
X442265000Y-9555431D01*
X442265000Y-10444569D01*
X442605259Y-11266026D01*
X443233974Y-11894741D01*
X444055431Y-12235000D01*
X444944569Y-12235000D01*
X445766026Y-11894741D01*
X446394741Y-11266026D01*
X446735000Y-10444569D01*
X446735000Y-9555431D01*
X446394741Y-8733974D01*
X446153767Y-8493000D01*
X449346233Y-8493000D01*
X449105259Y-8733974D01*
X448765000Y-9555431D01*
X448765000Y-10444569D01*
X449105259Y-11266026D01*
X449733974Y-11894741D01*
X450379729Y-12162222D01*
X450231419Y-12223654D01*
X450154310Y-12472285D01*
X451000000Y-13317975D01*
X451845690Y-12472285D01*
X451768581Y-12223654D01*
X451610105Y-12166433D01*
X452266026Y-11894741D01*
X452894741Y-11266026D01*
X453235000Y-10444569D01*
X453235000Y-9555431D01*
X452894741Y-8733974D01*
X452653767Y-8493000D01*
X463346233Y-8493000D01*
X463105259Y-8733974D01*
X462765000Y-9555431D01*
X462765000Y-10444569D01*
X463105259Y-11266026D01*
X463733974Y-11894741D01*
X464395209Y-12168634D01*
X464173413Y-12260505D01*
X463762925Y-12670993D01*
X463540770Y-13207321D01*
X463540770Y-13787839D01*
X463762925Y-14324167D01*
X464173413Y-14734655D01*
X464709741Y-14956810D01*
X465290259Y-14956810D01*
X465826587Y-14734655D01*
X466038367Y-14522875D01*
X480154310Y-14522875D01*
X480231419Y-14771506D01*
X480777435Y-14968657D01*
X481357334Y-14941850D01*
X481768581Y-14771506D01*
X481845690Y-14522875D01*
X481000000Y-13677185D01*
X480154310Y-14522875D01*
X466038367Y-14522875D01*
X466237075Y-14324167D01*
X466459230Y-13787839D01*
X466459230Y-13275015D01*
X479528923Y-13275015D01*
X479555730Y-13854914D01*
X479726074Y-14266161D01*
X479974705Y-14343270D01*
X480820395Y-13497580D01*
X481179605Y-13497580D01*
X482025295Y-14343270D01*
X482273926Y-14266161D01*
X482471077Y-13720145D01*
X482444270Y-13140246D01*
X482273926Y-12728999D01*
X482025295Y-12651890D01*
X481179605Y-13497580D01*
X480820395Y-13497580D01*
X479974705Y-12651890D01*
X479726074Y-12728999D01*
X479528923Y-13275015D01*
X466459230Y-13275015D01*
X466459230Y-13207321D01*
X466237075Y-12670993D01*
X465826587Y-12260505D01*
X465604791Y-12168634D01*
X466266026Y-11894741D01*
X466894741Y-11266026D01*
X467235000Y-10444569D01*
X467235000Y-9555431D01*
X478765000Y-9555431D01*
X478765000Y-10444569D01*
X479105259Y-11266026D01*
X479733974Y-11894741D01*
X480379729Y-12162222D01*
X480231419Y-12223654D01*
X480154310Y-12472285D01*
X481000000Y-13317975D01*
X481845690Y-12472285D01*
X481768581Y-12223654D01*
X481610105Y-12166433D01*
X482266026Y-11894741D01*
X482894741Y-11266026D01*
X483235000Y-10444569D01*
X483235000Y-9555431D01*
X482894741Y-8733974D01*
X482266026Y-8105259D01*
X481444569Y-7765000D01*
X480555431Y-7765000D01*
X479733974Y-8105259D01*
X479105259Y-8733974D01*
X478765000Y-9555431D01*
X467235000Y-9555431D01*
X466894741Y-8733974D01*
X466266026Y-8105259D01*
X466210812Y-8082389D01*
X469686202Y-4607000D01*
X479583857Y-4607000D01*
X479540770Y-4711021D01*
X479540770Y-5291539D01*
X479762925Y-5827867D01*
X480173413Y-6238355D01*
X480709741Y-6460510D01*
X481290259Y-6460510D01*
X481826587Y-6238355D01*
X482237075Y-5827867D01*
X482264648Y-5761300D01*
X485202560Y-5761300D01*
X485202560Y-7400000D01*
X485251843Y-7647765D01*
X485392191Y-7857809D01*
X485602235Y-7998157D01*
X485850000Y-8047440D01*
X486051204Y-8047440D01*
X486152990Y-8199772D01*
X486202072Y-8273229D01*
X486265528Y-8315629D01*
X488530001Y-10580104D01*
X488530000Y-12153330D01*
X488420493Y-12198690D01*
X488251275Y-12367908D01*
X488248157Y-12352235D01*
X488107809Y-12142191D01*
X487897765Y-12001843D01*
X487650000Y-11952560D01*
X485850000Y-11952560D01*
X485602235Y-12001843D01*
X485392191Y-12142191D01*
X485251843Y-12352235D01*
X485202560Y-12600000D01*
X485202560Y-14400000D01*
X485251843Y-14647765D01*
X485392191Y-14857809D01*
X485602235Y-14998157D01*
X485850000Y-15047440D01*
X487650000Y-15047440D01*
X487897765Y-14998157D01*
X488107809Y-14857809D01*
X488248157Y-14647765D01*
X488251275Y-14632092D01*
X488420493Y-14801310D01*
X488984670Y-15035000D01*
X489595330Y-15035000D01*
X489704838Y-14989640D01*
X490325370Y-15610172D01*
X490367771Y-15673629D01*
X490619163Y-15841604D01*
X490840848Y-15885700D01*
X490840853Y-15885700D01*
X490915700Y-15900588D01*
X490990547Y-15885700D01*
X493670317Y-15885700D01*
X493528923Y-16277295D01*
X493555730Y-16857194D01*
X493595994Y-16954400D01*
X482387317Y-16954400D01*
X482471077Y-16722425D01*
X482444270Y-16142526D01*
X482273926Y-15731279D01*
X482025295Y-15654170D01*
X481179605Y-16499860D01*
X481193748Y-16514003D01*
X481014143Y-16693608D01*
X481000000Y-16679465D01*
X480985858Y-16693608D01*
X480806253Y-16514003D01*
X480820395Y-16499860D01*
X479974705Y-15654170D01*
X479726074Y-15731279D01*
X479528923Y-16277295D01*
X479555730Y-16857194D01*
X479595994Y-16954400D01*
X466387317Y-16954400D01*
X466471077Y-16722425D01*
X466444270Y-16142526D01*
X466273926Y-15731279D01*
X466025295Y-15654170D01*
X465179605Y-16499860D01*
X465193748Y-16514003D01*
X465014143Y-16693608D01*
X465000000Y-16679465D01*
X464985858Y-16693608D01*
X464806253Y-16514003D01*
X464820395Y-16499860D01*
X463974705Y-15654170D01*
X463726074Y-15731279D01*
X463528923Y-16277295D01*
X463547672Y-16682870D01*
X462339367Y-15474565D01*
X464154310Y-15474565D01*
X465000000Y-16320255D01*
X465845690Y-15474565D01*
X480154310Y-15474565D01*
X481000000Y-16320255D01*
X481845690Y-15474565D01*
X481768581Y-15225934D01*
X481222565Y-15028783D01*
X480642666Y-15055590D01*
X480231419Y-15225934D01*
X480154310Y-15474565D01*
X465845690Y-15474565D01*
X465768581Y-15225934D01*
X465222565Y-15028783D01*
X464642666Y-15055590D01*
X464231419Y-15225934D01*
X464154310Y-15474565D01*
X462339367Y-15474565D01*
X460779640Y-13914839D01*
X460825000Y-13805330D01*
X460825000Y-13194670D01*
X460591310Y-12630493D01*
X460159507Y-12198690D01*
X459595330Y-11965000D01*
X458984670Y-11965000D01*
X458420493Y-12198690D01*
X458251275Y-12367908D01*
X458248157Y-12352235D01*
X458107809Y-12142191D01*
X457897765Y-12001843D01*
X457650000Y-11952560D01*
X455850000Y-11952560D01*
X455602235Y-12001843D01*
X455392191Y-12142191D01*
X455251843Y-12352235D01*
X455202560Y-12600000D01*
X455202560Y-14400000D01*
X455251843Y-14647765D01*
X455392191Y-14857809D01*
X455602235Y-14998157D01*
X455850000Y-15047440D01*
X457650000Y-15047440D01*
X457897765Y-14998157D01*
X458107809Y-14857809D01*
X458248157Y-14647765D01*
X458251275Y-14632092D01*
X458420493Y-14801310D01*
X458984670Y-15035000D01*
X459595330Y-15035000D01*
X459704839Y-14989640D01*
X462914071Y-18198873D01*
X462956471Y-18262329D01*
X463207863Y-18430304D01*
X463429548Y-18474400D01*
X463429552Y-18474400D01*
X463504400Y-18489288D01*
X463579248Y-18474400D01*
X520078553Y-18474400D01*
X520153400Y-18489288D01*
X520228247Y-18474400D01*
X520228252Y-18474400D01*
X520449937Y-18430304D01*
X520701329Y-18262329D01*
X520743731Y-18198870D01*
X521839873Y-17102729D01*
X521903329Y-17060329D01*
X521974579Y-16953696D01*
X522071304Y-16808938D01*
X522088644Y-16721764D01*
X522115400Y-16587252D01*
X522115400Y-16587248D01*
X522130288Y-16512400D01*
X522115400Y-16437552D01*
X522115400Y-8985547D01*
X522130288Y-8910700D01*
X522115400Y-8835853D01*
X522115400Y-8835848D01*
X522071304Y-8614163D01*
X521903329Y-8362771D01*
X521839873Y-8320371D01*
X521170380Y-7650879D01*
X521230625Y-7610625D01*
X521558839Y-7119418D01*
X521674092Y-6540000D01*
X521558839Y-5960582D01*
X521230625Y-5469375D01*
X520932239Y-5270000D01*
X521230625Y-5070625D01*
X521558839Y-4579418D01*
X521674092Y-4000000D01*
X521558839Y-3420582D01*
X521230625Y-2929375D01*
X520739418Y-2601161D01*
X520306256Y-2515000D01*
X520013744Y-2515000D01*
X519580582Y-2601161D01*
X519089375Y-2929375D01*
X518890000Y-3227761D01*
X518690625Y-2929375D01*
X518199418Y-2601161D01*
X517766256Y-2515000D01*
X517473744Y-2515000D01*
X517040582Y-2601161D01*
X516709312Y-2822509D01*
X514621801Y-735000D01*
X525265001Y-735000D01*
X525265000Y-19265000D01*
X525265000Y-19265000D01*
G37*
X525265000Y-19265000D02*
X426384501Y-19265000D01*
X428124346Y-17525155D01*
X434154310Y-17525155D01*
X434231419Y-17773786D01*
X434777435Y-17970937D01*
X435357334Y-17944130D01*
X435768581Y-17773786D01*
X435845690Y-17525155D01*
X450154310Y-17525155D01*
X450231419Y-17773786D01*
X450777435Y-17970937D01*
X451357334Y-17944130D01*
X451768581Y-17773786D01*
X451845690Y-17525155D01*
X451000000Y-16679465D01*
X450154310Y-17525155D01*
X435845690Y-17525155D01*
X435000000Y-16679465D01*
X434154310Y-17525155D01*
X428124346Y-17525155D01*
X429372206Y-16277295D01*
X433528923Y-16277295D01*
X433555730Y-16857194D01*
X433726074Y-17268441D01*
X433974705Y-17345550D01*
X434820395Y-16499860D01*
X435179605Y-16499860D01*
X436025295Y-17345550D01*
X436273926Y-17268441D01*
X436471077Y-16722425D01*
X436450500Y-16277295D01*
X449528923Y-16277295D01*
X449555730Y-16857194D01*
X449726074Y-17268441D01*
X449974705Y-17345550D01*
X450820395Y-16499860D01*
X451179605Y-16499860D01*
X452025295Y-17345550D01*
X452273926Y-17268441D01*
X452471077Y-16722425D01*
X452444270Y-16142526D01*
X452273926Y-15731279D01*
X452025295Y-15654170D01*
X451179605Y-16499860D01*
X450820395Y-16499860D01*
X449974705Y-15654170D01*
X449726074Y-15731279D01*
X449528923Y-16277295D01*
X436450500Y-16277295D01*
X436444270Y-16142526D01*
X436273926Y-15731279D01*
X436025295Y-15654170D01*
X435179605Y-16499860D01*
X434820395Y-16499860D01*
X433974705Y-15654170D01*
X433726074Y-15731279D01*
X433528923Y-16277295D01*
X429372206Y-16277295D01*
X430174936Y-15474565D01*
X434154310Y-15474565D01*
X435000000Y-16320255D01*
X435845690Y-15474565D01*
X450154310Y-15474565D01*
X451000000Y-16320255D01*
X451845690Y-15474565D01*
X451768581Y-15225934D01*
X451222565Y-15028783D01*
X450642666Y-15055590D01*
X450231419Y-15225934D01*
X450154310Y-15474565D01*
X435845690Y-15474565D01*
X435768581Y-15225934D01*
X435222565Y-15028783D01*
X434642666Y-15055590D01*
X434231419Y-15225934D01*
X434154310Y-15474565D01*
X430174936Y-15474565D01*
X431029973Y-14619529D01*
X431093429Y-14577129D01*
X431261404Y-14325737D01*
X431305500Y-14104052D01*
X431305500Y-14104048D01*
X431320388Y-14029201D01*
X431305500Y-13954354D01*
X431305500Y-6093446D01*
X431320388Y-6018599D01*
X431305500Y-5943752D01*
X431305500Y-5943748D01*
X431261404Y-5722063D01*
X431196329Y-5624671D01*
X431135829Y-5534126D01*
X431135827Y-5534124D01*
X431093429Y-5470671D01*
X431029976Y-5428273D01*
X429893330Y-4291629D01*
X429850929Y-4228171D01*
X429599537Y-4060196D01*
X429377852Y-4016100D01*
X429377847Y-4016100D01*
X429303000Y-4001212D01*
X429228153Y-4016100D01*
X422078482Y-4016100D01*
X421826587Y-3764205D01*
X421627403Y-3681700D01*
X430064699Y-3681700D01*
X434267333Y-7884334D01*
X433733974Y-8105259D01*
X433105259Y-8733974D01*
X432765000Y-9555431D01*
X432765000Y-10444569D01*
X433105259Y-11266026D01*
X433733974Y-11894741D01*
X434395209Y-12168634D01*
X434173413Y-12260505D01*
X433762925Y-12670993D01*
X433540770Y-13207321D01*
X433540770Y-13787839D01*
X433762925Y-14324167D01*
X434173413Y-14734655D01*
X434709741Y-14956810D01*
X435290259Y-14956810D01*
X435826587Y-14734655D01*
X436038367Y-14522875D01*
X450154310Y-14522875D01*
X450231419Y-14771506D01*
X450777435Y-14968657D01*
X451357334Y-14941850D01*
X451768581Y-14771506D01*
X451845690Y-14522875D01*
X451000000Y-13677185D01*
X450154310Y-14522875D01*
X436038367Y-14522875D01*
X436237075Y-14324167D01*
X436459230Y-13787839D01*
X436459230Y-13275015D01*
X449528923Y-13275015D01*
X449555730Y-13854914D01*
X449726074Y-14266161D01*
X449974705Y-14343270D01*
X450820395Y-13497580D01*
X451179605Y-13497580D01*
X452025295Y-14343270D01*
X452273926Y-14266161D01*
X452471077Y-13720145D01*
X452444270Y-13140246D01*
X452273926Y-12728999D01*
X452025295Y-12651890D01*
X451179605Y-13497580D01*
X450820395Y-13497580D01*
X449974705Y-12651890D01*
X449726074Y-12728999D01*
X449528923Y-13275015D01*
X436459230Y-13275015D01*
X436459230Y-13207321D01*
X436237075Y-12670993D01*
X435826587Y-12260505D01*
X435604791Y-12168634D01*
X436266026Y-11894741D01*
X436894741Y-11266026D01*
X437235000Y-10444569D01*
X437235000Y-9555431D01*
X436894741Y-8733974D01*
X436653767Y-8493000D01*
X442846233Y-8493000D01*
X442605259Y-8733974D01*
X442265000Y-9555431D01*
X442265000Y-10444569D01*
X442605259Y-11266026D01*
X443233974Y-11894741D01*
X444055431Y-12235000D01*
X444944569Y-12235000D01*
X445766026Y-11894741D01*
X446394741Y-11266026D01*
X446735000Y-10444569D01*
X446735000Y-9555431D01*
X446394741Y-8733974D01*
X446153767Y-8493000D01*
X449346233Y-8493000D01*
X449105259Y-8733974D01*
X448765000Y-9555431D01*
X448765000Y-10444569D01*
X449105259Y-11266026D01*
X449733974Y-11894741D01*
X450379729Y-12162222D01*
X450231419Y-12223654D01*
X450154310Y-12472285D01*
X451000000Y-13317975D01*
X451845690Y-12472285D01*
X451768581Y-12223654D01*
X451610105Y-12166433D01*
X452266026Y-11894741D01*
X452894741Y-11266026D01*
X453235000Y-10444569D01*
X453235000Y-9555431D01*
X452894741Y-8733974D01*
X452653767Y-8493000D01*
X463346233Y-8493000D01*
X463105259Y-8733974D01*
X462765000Y-9555431D01*
X462765000Y-10444569D01*
X463105259Y-11266026D01*
X463733974Y-11894741D01*
X464395209Y-12168634D01*
X464173413Y-12260505D01*
X463762925Y-12670993D01*
X463540770Y-13207321D01*
X463540770Y-13787839D01*
X463762925Y-14324167D01*
X464173413Y-14734655D01*
X464709741Y-14956810D01*
X465290259Y-14956810D01*
X465826587Y-14734655D01*
X466038367Y-14522875D01*
X480154310Y-14522875D01*
X480231419Y-14771506D01*
X480777435Y-14968657D01*
X481357334Y-14941850D01*
X481768581Y-14771506D01*
X481845690Y-14522875D01*
X481000000Y-13677185D01*
X480154310Y-14522875D01*
X466038367Y-14522875D01*
X466237075Y-14324167D01*
X466459230Y-13787839D01*
X466459230Y-13275015D01*
X479528923Y-13275015D01*
X479555730Y-13854914D01*
X479726074Y-14266161D01*
X479974705Y-14343270D01*
X480820395Y-13497580D01*
X481179605Y-13497580D01*
X482025295Y-14343270D01*
X482273926Y-14266161D01*
X482471077Y-13720145D01*
X482444270Y-13140246D01*
X482273926Y-12728999D01*
X482025295Y-12651890D01*
X481179605Y-13497580D01*
X480820395Y-13497580D01*
X479974705Y-12651890D01*
X479726074Y-12728999D01*
X479528923Y-13275015D01*
X466459230Y-13275015D01*
X466459230Y-13207321D01*
X466237075Y-12670993D01*
X465826587Y-12260505D01*
X465604791Y-12168634D01*
X466266026Y-11894741D01*
X466894741Y-11266026D01*
X467235000Y-10444569D01*
X467235000Y-9555431D01*
X478765000Y-9555431D01*
X478765000Y-10444569D01*
X479105259Y-11266026D01*
X479733974Y-11894741D01*
X480379729Y-12162222D01*
X480231419Y-12223654D01*
X480154310Y-12472285D01*
X481000000Y-13317975D01*
X481845690Y-12472285D01*
X481768581Y-12223654D01*
X481610105Y-12166433D01*
X482266026Y-11894741D01*
X482894741Y-11266026D01*
X483235000Y-10444569D01*
X483235000Y-9555431D01*
X482894741Y-8733974D01*
X482266026Y-8105259D01*
X481444569Y-7765000D01*
X480555431Y-7765000D01*
X479733974Y-8105259D01*
X479105259Y-8733974D01*
X478765000Y-9555431D01*
X467235000Y-9555431D01*
X466894741Y-8733974D01*
X466266026Y-8105259D01*
X466210812Y-8082389D01*
X469686202Y-4607000D01*
X479583857Y-4607000D01*
X479540770Y-4711021D01*
X479540770Y-5291539D01*
X479762925Y-5827867D01*
X480173413Y-6238355D01*
X480709741Y-6460510D01*
X481290259Y-6460510D01*
X481826587Y-6238355D01*
X482237075Y-5827867D01*
X482264648Y-5761300D01*
X485202560Y-5761300D01*
X485202560Y-7400000D01*
X485251843Y-7647765D01*
X485392191Y-7857809D01*
X485602235Y-7998157D01*
X485850000Y-8047440D01*
X486051204Y-8047440D01*
X486152990Y-8199772D01*
X486202072Y-8273229D01*
X486265528Y-8315629D01*
X488530001Y-10580104D01*
X488530000Y-12153330D01*
X488420493Y-12198690D01*
X488251275Y-12367908D01*
X488248157Y-12352235D01*
X488107809Y-12142191D01*
X487897765Y-12001843D01*
X487650000Y-11952560D01*
X485850000Y-11952560D01*
X485602235Y-12001843D01*
X485392191Y-12142191D01*
X485251843Y-12352235D01*
X485202560Y-12600000D01*
X485202560Y-14400000D01*
X485251843Y-14647765D01*
X485392191Y-14857809D01*
X485602235Y-14998157D01*
X485850000Y-15047440D01*
X487650000Y-15047440D01*
X487897765Y-14998157D01*
X488107809Y-14857809D01*
X488248157Y-14647765D01*
X488251275Y-14632092D01*
X488420493Y-14801310D01*
X488984670Y-15035000D01*
X489595330Y-15035000D01*
X489704838Y-14989640D01*
X490325370Y-15610172D01*
X490367771Y-15673629D01*
X490619163Y-15841604D01*
X490840848Y-15885700D01*
X490840853Y-15885700D01*
X490915700Y-15900588D01*
X490990547Y-15885700D01*
X493670317Y-15885700D01*
X493528923Y-16277295D01*
X493555730Y-16857194D01*
X493595994Y-16954400D01*
X482387317Y-16954400D01*
X482471077Y-16722425D01*
X482444270Y-16142526D01*
X482273926Y-15731279D01*
X482025295Y-15654170D01*
X481179605Y-16499860D01*
X481193748Y-16514003D01*
X481014143Y-16693608D01*
X481000000Y-16679465D01*
X480985858Y-16693608D01*
X480806253Y-16514003D01*
X480820395Y-16499860D01*
X479974705Y-15654170D01*
X479726074Y-15731279D01*
X479528923Y-16277295D01*
X479555730Y-16857194D01*
X479595994Y-16954400D01*
X466387317Y-16954400D01*
X466471077Y-16722425D01*
X466444270Y-16142526D01*
X466273926Y-15731279D01*
X466025295Y-15654170D01*
X465179605Y-16499860D01*
X465193748Y-16514003D01*
X465014143Y-16693608D01*
X465000000Y-16679465D01*
X464985858Y-16693608D01*
X464806253Y-16514003D01*
X464820395Y-16499860D01*
X463974705Y-15654170D01*
X463726074Y-15731279D01*
X463528923Y-16277295D01*
X463547672Y-16682870D01*
X462339367Y-15474565D01*
X464154310Y-15474565D01*
X465000000Y-16320255D01*
X465845690Y-15474565D01*
X480154310Y-15474565D01*
X481000000Y-16320255D01*
X481845690Y-15474565D01*
X481768581Y-15225934D01*
X481222565Y-15028783D01*
X480642666Y-15055590D01*
X480231419Y-15225934D01*
X480154310Y-15474565D01*
X465845690Y-15474565D01*
X465768581Y-15225934D01*
X465222565Y-15028783D01*
X464642666Y-15055590D01*
X464231419Y-15225934D01*
X464154310Y-15474565D01*
X462339367Y-15474565D01*
X460779640Y-13914839D01*
X460825000Y-13805330D01*
X460825000Y-13194670D01*
X460591310Y-12630493D01*
X460159507Y-12198690D01*
X459595330Y-11965000D01*
X458984670Y-11965000D01*
X458420493Y-12198690D01*
X458251275Y-12367908D01*
X458248157Y-12352235D01*
X458107809Y-12142191D01*
X457897765Y-12001843D01*
X457650000Y-11952560D01*
X455850000Y-11952560D01*
X455602235Y-12001843D01*
X455392191Y-12142191D01*
X455251843Y-12352235D01*
X455202560Y-12600000D01*
X455202560Y-14400000D01*
X455251843Y-14647765D01*
X455392191Y-14857809D01*
X455602235Y-14998157D01*
X455850000Y-15047440D01*
X457650000Y-15047440D01*
X457897765Y-14998157D01*
X458107809Y-14857809D01*
X458248157Y-14647765D01*
X458251275Y-14632092D01*
X458420493Y-14801310D01*
X458984670Y-15035000D01*
X459595330Y-15035000D01*
X459704839Y-14989640D01*
X462914071Y-18198873D01*
X462956471Y-18262329D01*
X463207863Y-18430304D01*
X463429548Y-18474400D01*
X463429552Y-18474400D01*
X463504400Y-18489288D01*
X463579248Y-18474400D01*
X520078553Y-18474400D01*
X520153400Y-18489288D01*
X520228247Y-18474400D01*
X520228252Y-18474400D01*
X520449937Y-18430304D01*
X520701329Y-18262329D01*
X520743731Y-18198870D01*
X521839873Y-17102729D01*
X521903329Y-17060329D01*
X521974579Y-16953696D01*
X522071304Y-16808938D01*
X522088644Y-16721764D01*
X522115400Y-16587252D01*
X522115400Y-16587248D01*
X522130288Y-16512400D01*
X522115400Y-16437552D01*
X522115400Y-8985547D01*
X522130288Y-8910700D01*
X522115400Y-8835853D01*
X522115400Y-8835848D01*
X522071304Y-8614163D01*
X521903329Y-8362771D01*
X521839873Y-8320371D01*
X521170380Y-7650879D01*
X521230625Y-7610625D01*
X521558839Y-7119418D01*
X521674092Y-6540000D01*
X521558839Y-5960582D01*
X521230625Y-5469375D01*
X520932239Y-5270000D01*
X521230625Y-5070625D01*
X521558839Y-4579418D01*
X521674092Y-4000000D01*
X521558839Y-3420582D01*
X521230625Y-2929375D01*
X520739418Y-2601161D01*
X520306256Y-2515000D01*
X520013744Y-2515000D01*
X519580582Y-2601161D01*
X519089375Y-2929375D01*
X518890000Y-3227761D01*
X518690625Y-2929375D01*
X518199418Y-2601161D01*
X517766256Y-2515000D01*
X517473744Y-2515000D01*
X517040582Y-2601161D01*
X516709312Y-2822509D01*
X514621801Y-735000D01*
X525265001Y-735000D01*
X525265000Y-19265000D01*
G36*
X373540770Y-4711021D02*
X373540770Y-5291539D01*
X373762925Y-5827867D01*
X374173413Y-6238355D01*
X374709741Y-6460510D01*
X375290259Y-6460510D01*
X375826587Y-6238355D01*
X376237075Y-5827867D01*
X376459230Y-5291539D01*
X376459230Y-4711021D01*
X376407155Y-4585300D01*
X389592845Y-4585300D01*
X389540770Y-4711021D01*
X389540770Y-5291539D01*
X389762925Y-5827867D01*
X390173413Y-6238355D01*
X390709741Y-6460510D01*
X391290259Y-6460510D01*
X391826587Y-6238355D01*
X392237075Y-5827867D01*
X392459230Y-5291539D01*
X392459230Y-4711021D01*
X392407155Y-4585300D01*
X403592845Y-4585300D01*
X403540770Y-4711021D01*
X403540770Y-5291539D01*
X403762925Y-5827867D01*
X404173413Y-6238355D01*
X404709741Y-6460510D01*
X405290259Y-6460510D01*
X405356833Y-6432934D01*
X411600870Y-12676972D01*
X411643271Y-12740429D01*
X411894663Y-12908404D01*
X412116348Y-12952500D01*
X412116352Y-12952500D01*
X412191200Y-12967388D01*
X412266048Y-12952500D01*
X419645374Y-12952500D01*
X419528923Y-13275015D01*
X419555730Y-13854914D01*
X419726074Y-14266161D01*
X419974705Y-14343270D01*
X420820395Y-13497580D01*
X420806253Y-13483438D01*
X420985858Y-13303833D01*
X421000000Y-13317975D01*
X421014143Y-13303833D01*
X421193748Y-13483438D01*
X421179605Y-13497580D01*
X421193748Y-13511723D01*
X421014143Y-13691328D01*
X421000000Y-13677185D01*
X420154310Y-14522875D01*
X420231419Y-14771506D01*
X420777435Y-14968657D01*
X421357334Y-14941850D01*
X421403300Y-14922810D01*
X421403301Y-15094042D01*
X421222565Y-15028783D01*
X420642666Y-15055590D01*
X420231419Y-15225934D01*
X420154310Y-15474565D01*
X421000000Y-16320255D01*
X421014143Y-16306113D01*
X421193748Y-16485718D01*
X421179605Y-16499860D01*
X421193748Y-16514003D01*
X421014143Y-16693608D01*
X421000000Y-16679465D01*
X420154310Y-17525155D01*
X420231419Y-17773786D01*
X420306061Y-17800737D01*
X420287499Y-17819300D01*
X405658700Y-17819300D01*
X405768581Y-17773786D01*
X405845690Y-17525155D01*
X405000000Y-16679465D01*
X404154310Y-17525155D01*
X404231419Y-17773786D01*
X404357471Y-17819300D01*
X391658700Y-17819300D01*
X391768581Y-17773786D01*
X391845690Y-17525155D01*
X391000000Y-16679465D01*
X390154310Y-17525155D01*
X390231419Y-17773786D01*
X390357471Y-17819300D01*
X375658700Y-17819300D01*
X375768581Y-17773786D01*
X375845690Y-17525155D01*
X375000000Y-16679465D01*
X374154310Y-17525155D01*
X374231419Y-17773786D01*
X374357471Y-17819300D01*
X361658700Y-17819300D01*
X361768581Y-17773786D01*
X361845690Y-17525155D01*
X361000000Y-16679465D01*
X360154310Y-17525155D01*
X360231419Y-17773786D01*
X360357471Y-17819300D01*
X354614001Y-17819300D01*
X356156006Y-16277295D01*
X359528923Y-16277295D01*
X359555730Y-16857194D01*
X359726074Y-17268441D01*
X359974705Y-17345550D01*
X360820395Y-16499860D01*
X361179605Y-16499860D01*
X362025295Y-17345550D01*
X362273926Y-17268441D01*
X362471077Y-16722425D01*
X362450500Y-16277295D01*
X373528923Y-16277295D01*
X373555730Y-16857194D01*
X373726074Y-17268441D01*
X373974705Y-17345550D01*
X374820395Y-16499860D01*
X375179605Y-16499860D01*
X376025295Y-17345550D01*
X376273926Y-17268441D01*
X376471077Y-16722425D01*
X376450500Y-16277295D01*
X389528923Y-16277295D01*
X389555730Y-16857194D01*
X389726074Y-17268441D01*
X389974705Y-17345550D01*
X390820395Y-16499860D01*
X391179605Y-16499860D01*
X392025295Y-17345550D01*
X392273926Y-17268441D01*
X392471077Y-16722425D01*
X392450500Y-16277295D01*
X403528923Y-16277295D01*
X403555730Y-16857194D01*
X403726074Y-17268441D01*
X403974705Y-17345550D01*
X404820395Y-16499860D01*
X405179605Y-16499860D01*
X406025295Y-17345550D01*
X406273926Y-17268441D01*
X406471077Y-16722425D01*
X406450500Y-16277295D01*
X419528923Y-16277295D01*
X419555730Y-16857194D01*
X419726074Y-17268441D01*
X419974705Y-17345550D01*
X420820395Y-16499860D01*
X419974705Y-15654170D01*
X419726074Y-15731279D01*
X419528923Y-16277295D01*
X406450500Y-16277295D01*
X406444270Y-16142526D01*
X406273926Y-15731279D01*
X406025295Y-15654170D01*
X405179605Y-16499860D01*
X404820395Y-16499860D01*
X403974705Y-15654170D01*
X403726074Y-15731279D01*
X403528923Y-16277295D01*
X392450500Y-16277295D01*
X392444270Y-16142526D01*
X392273926Y-15731279D01*
X392025295Y-15654170D01*
X391179605Y-16499860D01*
X390820395Y-16499860D01*
X389974705Y-15654170D01*
X389726074Y-15731279D01*
X389528923Y-16277295D01*
X376450500Y-16277295D01*
X376444270Y-16142526D01*
X376273926Y-15731279D01*
X376025295Y-15654170D01*
X375179605Y-16499860D01*
X374820395Y-16499860D01*
X373974705Y-15654170D01*
X373726074Y-15731279D01*
X373528923Y-16277295D01*
X362450500Y-16277295D01*
X362444270Y-16142526D01*
X362273926Y-15731279D01*
X362025295Y-15654170D01*
X361179605Y-16499860D01*
X360820395Y-16499860D01*
X359974705Y-15654170D01*
X359726074Y-15731279D01*
X359528923Y-16277295D01*
X356156006Y-16277295D01*
X356958736Y-15474565D01*
X360154310Y-15474565D01*
X361000000Y-16320255D01*
X361845690Y-15474565D01*
X374154310Y-15474565D01*
X375000000Y-16320255D01*
X375845690Y-15474565D01*
X390154310Y-15474565D01*
X391000000Y-16320255D01*
X391845690Y-15474565D01*
X404154310Y-15474565D01*
X405000000Y-16320255D01*
X405845690Y-15474565D01*
X405768581Y-15225934D01*
X405222565Y-15028783D01*
X404642666Y-15055590D01*
X404231419Y-15225934D01*
X404154310Y-15474565D01*
X391845690Y-15474565D01*
X391768581Y-15225934D01*
X391222565Y-15028783D01*
X390642666Y-15055590D01*
X390231419Y-15225934D01*
X390154310Y-15474565D01*
X375845690Y-15474565D01*
X375768581Y-15225934D01*
X375222565Y-15028783D01*
X374642666Y-15055590D01*
X374231419Y-15225934D01*
X374154310Y-15474565D01*
X361845690Y-15474565D01*
X361768581Y-15225934D01*
X361222565Y-15028783D01*
X360642666Y-15055590D01*
X360231419Y-15225934D01*
X360154310Y-15474565D01*
X356958736Y-15474565D01*
X357910426Y-14522875D01*
X360154310Y-14522875D01*
X360231419Y-14771506D01*
X360777435Y-14968657D01*
X361357334Y-14941850D01*
X361768581Y-14771506D01*
X361845690Y-14522875D01*
X361000000Y-13677185D01*
X360154310Y-14522875D01*
X357910426Y-14522875D01*
X359480803Y-12952500D01*
X359645374Y-12952500D01*
X359528923Y-13275015D01*
X359555730Y-13854914D01*
X359726074Y-14266161D01*
X359974705Y-14343270D01*
X360820395Y-13497580D01*
X360806253Y-13483438D01*
X360985858Y-13303833D01*
X361000000Y-13317975D01*
X361014143Y-13303833D01*
X361193748Y-13483438D01*
X361179605Y-13497580D01*
X362025295Y-14343270D01*
X362273926Y-14266161D01*
X362471077Y-13720145D01*
X362444270Y-13140246D01*
X362366503Y-12952500D01*
X365202560Y-12952500D01*
X365202560Y-14400000D01*
X365251843Y-14647765D01*
X365392191Y-14857809D01*
X365602235Y-14998157D01*
X365850000Y-15047440D01*
X367650000Y-15047440D01*
X367897765Y-14998157D01*
X368107809Y-14857809D01*
X368248157Y-14647765D01*
X368251275Y-14632092D01*
X368420493Y-14801310D01*
X368984670Y-15035000D01*
X369595330Y-15035000D01*
X370159507Y-14801310D01*
X370591310Y-14369507D01*
X370825000Y-13805330D01*
X370825000Y-13194670D01*
X370724690Y-12952500D01*
X373646321Y-12952500D01*
X373540770Y-13207321D01*
X373540770Y-13787839D01*
X373762925Y-14324167D01*
X374173413Y-14734655D01*
X374709741Y-14956810D01*
X375290259Y-14956810D01*
X375826587Y-14734655D01*
X376038367Y-14522875D01*
X390154310Y-14522875D01*
X390231419Y-14771506D01*
X390777435Y-14968657D01*
X391357334Y-14941850D01*
X391768581Y-14771506D01*
X391845690Y-14522875D01*
X391000000Y-13677185D01*
X390154310Y-14522875D01*
X376038367Y-14522875D01*
X376237075Y-14324167D01*
X376459230Y-13787839D01*
X376459230Y-13207321D01*
X376353679Y-12952500D01*
X389645374Y-12952500D01*
X389528923Y-13275015D01*
X389555730Y-13854914D01*
X389726074Y-14266161D01*
X389974705Y-14343270D01*
X390820395Y-13497580D01*
X390806253Y-13483438D01*
X390985858Y-13303833D01*
X391000000Y-13317975D01*
X391014143Y-13303833D01*
X391193748Y-13483438D01*
X391179605Y-13497580D01*
X392025295Y-14343270D01*
X392273926Y-14266161D01*
X392471077Y-13720145D01*
X392444270Y-13140246D01*
X392365829Y-12950873D01*
X392579337Y-12908404D01*
X392830729Y-12740429D01*
X392873131Y-12676970D01*
X395132694Y-10417408D01*
X396667809Y-11952560D01*
X395850000Y-11952560D01*
X395602235Y-12001843D01*
X395392191Y-12142191D01*
X395251843Y-12352235D01*
X395202560Y-12600000D01*
X395202560Y-14400000D01*
X395251843Y-14647765D01*
X395392191Y-14857809D01*
X395602235Y-14998157D01*
X395850000Y-15047440D01*
X397650000Y-15047440D01*
X397897765Y-14998157D01*
X398107809Y-14857809D01*
X398248157Y-14647765D01*
X398251275Y-14632092D01*
X398420493Y-14801310D01*
X398984670Y-15035000D01*
X399595330Y-15035000D01*
X400159507Y-14801310D01*
X400591310Y-14369507D01*
X400825000Y-13805330D01*
X400825000Y-13194670D01*
X400591310Y-12630493D01*
X400159507Y-12198690D01*
X399595330Y-11965000D01*
X398984670Y-11965000D01*
X398875178Y-12010353D01*
X396420314Y-9555431D01*
X402765000Y-9555431D01*
X402765000Y-10444569D01*
X403105259Y-11266026D01*
X403733974Y-11894741D01*
X404395209Y-12168634D01*
X404173413Y-12260505D01*
X403762925Y-12670993D01*
X403540770Y-13207321D01*
X403540770Y-13787839D01*
X403762925Y-14324167D01*
X404173413Y-14734655D01*
X404709741Y-14956810D01*
X405290259Y-14956810D01*
X405826587Y-14734655D01*
X406237075Y-14324167D01*
X406459230Y-13787839D01*
X406459230Y-13207321D01*
X406237075Y-12670993D01*
X405826587Y-12260505D01*
X405604791Y-12168634D01*
X406266026Y-11894741D01*
X406894741Y-11266026D01*
X407235000Y-10444569D01*
X407235000Y-9555431D01*
X406894741Y-8733974D01*
X406266026Y-8105259D01*
X405444569Y-7765000D01*
X404555431Y-7765000D01*
X403733974Y-8105259D01*
X403105259Y-8733974D01*
X402765000Y-9555431D01*
X396420314Y-9555431D01*
X396207495Y-9342607D01*
X397234473Y-8315629D01*
X397297929Y-8273229D01*
X397448797Y-8047440D01*
X397650000Y-8047440D01*
X397897765Y-7998157D01*
X398107809Y-7857809D01*
X398248157Y-7647765D01*
X398251275Y-7632092D01*
X398420493Y-7801310D01*
X398984670Y-8035000D01*
X399595330Y-8035000D01*
X400159507Y-7801310D01*
X400591310Y-7369507D01*
X400825000Y-6805330D01*
X400825000Y-6194670D01*
X400591310Y-5630493D01*
X400159507Y-5198690D01*
X399595330Y-4965000D01*
X398984670Y-4965000D01*
X398420493Y-5198690D01*
X398251275Y-5367908D01*
X398248157Y-5352235D01*
X398107809Y-5142191D01*
X397897765Y-5001843D01*
X397650000Y-4952560D01*
X395850000Y-4952560D01*
X395602235Y-5001843D01*
X395392191Y-5142191D01*
X395251843Y-5352235D01*
X395202560Y-5600000D01*
X395202560Y-7400000D01*
X395251843Y-7647765D01*
X395392191Y-7857809D01*
X395482408Y-7918091D01*
X394648231Y-8752268D01*
X394611800Y-8776610D01*
X394611800Y-8719226D01*
X394454231Y-8338820D01*
X394163080Y-8047669D01*
X393782674Y-7890100D01*
X393616601Y-7890100D01*
X393261831Y-7535330D01*
X393219429Y-7471871D01*
X392968037Y-7303896D01*
X392746352Y-7259800D01*
X392746347Y-7259800D01*
X392671500Y-7244912D01*
X392596653Y-7259800D01*
X370636752Y-7259800D01*
X370825000Y-6805330D01*
X370825000Y-6194670D01*
X370591310Y-5630493D01*
X370159507Y-5198690D01*
X369595330Y-4965000D01*
X368984670Y-4965000D01*
X368420493Y-5198690D01*
X368251275Y-5367908D01*
X368248157Y-5352235D01*
X368107809Y-5142191D01*
X367897765Y-5001843D01*
X367650000Y-4952560D01*
X366206443Y-4952560D01*
X366573703Y-4585300D01*
X373592845Y-4585300D01*
X373540770Y-4711021D01*
X373540770Y-4711021D01*
G37*
X373540770Y-4711021D02*
X373540770Y-5291539D01*
X373762925Y-5827867D01*
X374173413Y-6238355D01*
X374709741Y-6460510D01*
X375290259Y-6460510D01*
X375826587Y-6238355D01*
X376237075Y-5827867D01*
X376459230Y-5291539D01*
X376459230Y-4711021D01*
X376407155Y-4585300D01*
X389592845Y-4585300D01*
X389540770Y-4711021D01*
X389540770Y-5291539D01*
X389762925Y-5827867D01*
X390173413Y-6238355D01*
X390709741Y-6460510D01*
X391290259Y-6460510D01*
X391826587Y-6238355D01*
X392237075Y-5827867D01*
X392459230Y-5291539D01*
X392459230Y-4711021D01*
X392407155Y-4585300D01*
X403592845Y-4585300D01*
X403540770Y-4711021D01*
X403540770Y-5291539D01*
X403762925Y-5827867D01*
X404173413Y-6238355D01*
X404709741Y-6460510D01*
X405290259Y-6460510D01*
X405356833Y-6432934D01*
X411600870Y-12676972D01*
X411643271Y-12740429D01*
X411894663Y-12908404D01*
X412116348Y-12952500D01*
X412116352Y-12952500D01*
X412191200Y-12967388D01*
X412266048Y-12952500D01*
X419645374Y-12952500D01*
X419528923Y-13275015D01*
X419555730Y-13854914D01*
X419726074Y-14266161D01*
X419974705Y-14343270D01*
X420820395Y-13497580D01*
X420806253Y-13483438D01*
X420985858Y-13303833D01*
X421000000Y-13317975D01*
X421014143Y-13303833D01*
X421193748Y-13483438D01*
X421179605Y-13497580D01*
X421193748Y-13511723D01*
X421014143Y-13691328D01*
X421000000Y-13677185D01*
X420154310Y-14522875D01*
X420231419Y-14771506D01*
X420777435Y-14968657D01*
X421357334Y-14941850D01*
X421403300Y-14922810D01*
X421403301Y-15094042D01*
X421222565Y-15028783D01*
X420642666Y-15055590D01*
X420231419Y-15225934D01*
X420154310Y-15474565D01*
X421000000Y-16320255D01*
X421014143Y-16306113D01*
X421193748Y-16485718D01*
X421179605Y-16499860D01*
X421193748Y-16514003D01*
X421014143Y-16693608D01*
X421000000Y-16679465D01*
X420154310Y-17525155D01*
X420231419Y-17773786D01*
X420306061Y-17800737D01*
X420287499Y-17819300D01*
X405658700Y-17819300D01*
X405768581Y-17773786D01*
X405845690Y-17525155D01*
X405000000Y-16679465D01*
X404154310Y-17525155D01*
X404231419Y-17773786D01*
X404357471Y-17819300D01*
X391658700Y-17819300D01*
X391768581Y-17773786D01*
X391845690Y-17525155D01*
X391000000Y-16679465D01*
X390154310Y-17525155D01*
X390231419Y-17773786D01*
X390357471Y-17819300D01*
X375658700Y-17819300D01*
X375768581Y-17773786D01*
X375845690Y-17525155D01*
X375000000Y-16679465D01*
X374154310Y-17525155D01*
X374231419Y-17773786D01*
X374357471Y-17819300D01*
X361658700Y-17819300D01*
X361768581Y-17773786D01*
X361845690Y-17525155D01*
X361000000Y-16679465D01*
X360154310Y-17525155D01*
X360231419Y-17773786D01*
X360357471Y-17819300D01*
X354614001Y-17819300D01*
X356156006Y-16277295D01*
X359528923Y-16277295D01*
X359555730Y-16857194D01*
X359726074Y-17268441D01*
X359974705Y-17345550D01*
X360820395Y-16499860D01*
X361179605Y-16499860D01*
X362025295Y-17345550D01*
X362273926Y-17268441D01*
X362471077Y-16722425D01*
X362450500Y-16277295D01*
X373528923Y-16277295D01*
X373555730Y-16857194D01*
X373726074Y-17268441D01*
X373974705Y-17345550D01*
X374820395Y-16499860D01*
X375179605Y-16499860D01*
X376025295Y-17345550D01*
X376273926Y-17268441D01*
X376471077Y-16722425D01*
X376450500Y-16277295D01*
X389528923Y-16277295D01*
X389555730Y-16857194D01*
X389726074Y-17268441D01*
X389974705Y-17345550D01*
X390820395Y-16499860D01*
X391179605Y-16499860D01*
X392025295Y-17345550D01*
X392273926Y-17268441D01*
X392471077Y-16722425D01*
X392450500Y-16277295D01*
X403528923Y-16277295D01*
X403555730Y-16857194D01*
X403726074Y-17268441D01*
X403974705Y-17345550D01*
X404820395Y-16499860D01*
X405179605Y-16499860D01*
X406025295Y-17345550D01*
X406273926Y-17268441D01*
X406471077Y-16722425D01*
X406450500Y-16277295D01*
X419528923Y-16277295D01*
X419555730Y-16857194D01*
X419726074Y-17268441D01*
X419974705Y-17345550D01*
X420820395Y-16499860D01*
X419974705Y-15654170D01*
X419726074Y-15731279D01*
X419528923Y-16277295D01*
X406450500Y-16277295D01*
X406444270Y-16142526D01*
X406273926Y-15731279D01*
X406025295Y-15654170D01*
X405179605Y-16499860D01*
X404820395Y-16499860D01*
X403974705Y-15654170D01*
X403726074Y-15731279D01*
X403528923Y-16277295D01*
X392450500Y-16277295D01*
X392444270Y-16142526D01*
X392273926Y-15731279D01*
X392025295Y-15654170D01*
X391179605Y-16499860D01*
X390820395Y-16499860D01*
X389974705Y-15654170D01*
X389726074Y-15731279D01*
X389528923Y-16277295D01*
X376450500Y-16277295D01*
X376444270Y-16142526D01*
X376273926Y-15731279D01*
X376025295Y-15654170D01*
X375179605Y-16499860D01*
X374820395Y-16499860D01*
X373974705Y-15654170D01*
X373726074Y-15731279D01*
X373528923Y-16277295D01*
X362450500Y-16277295D01*
X362444270Y-16142526D01*
X362273926Y-15731279D01*
X362025295Y-15654170D01*
X361179605Y-16499860D01*
X360820395Y-16499860D01*
X359974705Y-15654170D01*
X359726074Y-15731279D01*
X359528923Y-16277295D01*
X356156006Y-16277295D01*
X356958736Y-15474565D01*
X360154310Y-15474565D01*
X361000000Y-16320255D01*
X361845690Y-15474565D01*
X374154310Y-15474565D01*
X375000000Y-16320255D01*
X375845690Y-15474565D01*
X390154310Y-15474565D01*
X391000000Y-16320255D01*
X391845690Y-15474565D01*
X404154310Y-15474565D01*
X405000000Y-16320255D01*
X405845690Y-15474565D01*
X405768581Y-15225934D01*
X405222565Y-15028783D01*
X404642666Y-15055590D01*
X404231419Y-15225934D01*
X404154310Y-15474565D01*
X391845690Y-15474565D01*
X391768581Y-15225934D01*
X391222565Y-15028783D01*
X390642666Y-15055590D01*
X390231419Y-15225934D01*
X390154310Y-15474565D01*
X375845690Y-15474565D01*
X375768581Y-15225934D01*
X375222565Y-15028783D01*
X374642666Y-15055590D01*
X374231419Y-15225934D01*
X374154310Y-15474565D01*
X361845690Y-15474565D01*
X361768581Y-15225934D01*
X361222565Y-15028783D01*
X360642666Y-15055590D01*
X360231419Y-15225934D01*
X360154310Y-15474565D01*
X356958736Y-15474565D01*
X357910426Y-14522875D01*
X360154310Y-14522875D01*
X360231419Y-14771506D01*
X360777435Y-14968657D01*
X361357334Y-14941850D01*
X361768581Y-14771506D01*
X361845690Y-14522875D01*
X361000000Y-13677185D01*
X360154310Y-14522875D01*
X357910426Y-14522875D01*
X359480803Y-12952500D01*
X359645374Y-12952500D01*
X359528923Y-13275015D01*
X359555730Y-13854914D01*
X359726074Y-14266161D01*
X359974705Y-14343270D01*
X360820395Y-13497580D01*
X360806253Y-13483438D01*
X360985858Y-13303833D01*
X361000000Y-13317975D01*
X361014143Y-13303833D01*
X361193748Y-13483438D01*
X361179605Y-13497580D01*
X362025295Y-14343270D01*
X362273926Y-14266161D01*
X362471077Y-13720145D01*
X362444270Y-13140246D01*
X362366503Y-12952500D01*
X365202560Y-12952500D01*
X365202560Y-14400000D01*
X365251843Y-14647765D01*
X365392191Y-14857809D01*
X365602235Y-14998157D01*
X365850000Y-15047440D01*
X367650000Y-15047440D01*
X367897765Y-14998157D01*
X368107809Y-14857809D01*
X368248157Y-14647765D01*
X368251275Y-14632092D01*
X368420493Y-14801310D01*
X368984670Y-15035000D01*
X369595330Y-15035000D01*
X370159507Y-14801310D01*
X370591310Y-14369507D01*
X370825000Y-13805330D01*
X370825000Y-13194670D01*
X370724690Y-12952500D01*
X373646321Y-12952500D01*
X373540770Y-13207321D01*
X373540770Y-13787839D01*
X373762925Y-14324167D01*
X374173413Y-14734655D01*
X374709741Y-14956810D01*
X375290259Y-14956810D01*
X375826587Y-14734655D01*
X376038367Y-14522875D01*
X390154310Y-14522875D01*
X390231419Y-14771506D01*
X390777435Y-14968657D01*
X391357334Y-14941850D01*
X391768581Y-14771506D01*
X391845690Y-14522875D01*
X391000000Y-13677185D01*
X390154310Y-14522875D01*
X376038367Y-14522875D01*
X376237075Y-14324167D01*
X376459230Y-13787839D01*
X376459230Y-13207321D01*
X376353679Y-12952500D01*
X389645374Y-12952500D01*
X389528923Y-13275015D01*
X389555730Y-13854914D01*
X389726074Y-14266161D01*
X389974705Y-14343270D01*
X390820395Y-13497580D01*
X390806253Y-13483438D01*
X390985858Y-13303833D01*
X391000000Y-13317975D01*
X391014143Y-13303833D01*
X391193748Y-13483438D01*
X391179605Y-13497580D01*
X392025295Y-14343270D01*
X392273926Y-14266161D01*
X392471077Y-13720145D01*
X392444270Y-13140246D01*
X392365829Y-12950873D01*
X392579337Y-12908404D01*
X392830729Y-12740429D01*
X392873131Y-12676970D01*
X395132694Y-10417408D01*
X396667809Y-11952560D01*
X395850000Y-11952560D01*
X395602235Y-12001843D01*
X395392191Y-12142191D01*
X395251843Y-12352235D01*
X395202560Y-12600000D01*
X395202560Y-14400000D01*
X395251843Y-14647765D01*
X395392191Y-14857809D01*
X395602235Y-14998157D01*
X395850000Y-15047440D01*
X397650000Y-15047440D01*
X397897765Y-14998157D01*
X398107809Y-14857809D01*
X398248157Y-14647765D01*
X398251275Y-14632092D01*
X398420493Y-14801310D01*
X398984670Y-15035000D01*
X399595330Y-15035000D01*
X400159507Y-14801310D01*
X400591310Y-14369507D01*
X400825000Y-13805330D01*
X400825000Y-13194670D01*
X400591310Y-12630493D01*
X400159507Y-12198690D01*
X399595330Y-11965000D01*
X398984670Y-11965000D01*
X398875178Y-12010353D01*
X396420314Y-9555431D01*
X402765000Y-9555431D01*
X402765000Y-10444569D01*
X403105259Y-11266026D01*
X403733974Y-11894741D01*
X404395209Y-12168634D01*
X404173413Y-12260505D01*
X403762925Y-12670993D01*
X403540770Y-13207321D01*
X403540770Y-13787839D01*
X403762925Y-14324167D01*
X404173413Y-14734655D01*
X404709741Y-14956810D01*
X405290259Y-14956810D01*
X405826587Y-14734655D01*
X406237075Y-14324167D01*
X406459230Y-13787839D01*
X406459230Y-13207321D01*
X406237075Y-12670993D01*
X405826587Y-12260505D01*
X405604791Y-12168634D01*
X406266026Y-11894741D01*
X406894741Y-11266026D01*
X407235000Y-10444569D01*
X407235000Y-9555431D01*
X406894741Y-8733974D01*
X406266026Y-8105259D01*
X405444569Y-7765000D01*
X404555431Y-7765000D01*
X403733974Y-8105259D01*
X403105259Y-8733974D01*
X402765000Y-9555431D01*
X396420314Y-9555431D01*
X396207495Y-9342607D01*
X397234473Y-8315629D01*
X397297929Y-8273229D01*
X397448797Y-8047440D01*
X397650000Y-8047440D01*
X397897765Y-7998157D01*
X398107809Y-7857809D01*
X398248157Y-7647765D01*
X398251275Y-7632092D01*
X398420493Y-7801310D01*
X398984670Y-8035000D01*
X399595330Y-8035000D01*
X400159507Y-7801310D01*
X400591310Y-7369507D01*
X400825000Y-6805330D01*
X400825000Y-6194670D01*
X400591310Y-5630493D01*
X400159507Y-5198690D01*
X399595330Y-4965000D01*
X398984670Y-4965000D01*
X398420493Y-5198690D01*
X398251275Y-5367908D01*
X398248157Y-5352235D01*
X398107809Y-5142191D01*
X397897765Y-5001843D01*
X397650000Y-4952560D01*
X395850000Y-4952560D01*
X395602235Y-5001843D01*
X395392191Y-5142191D01*
X395251843Y-5352235D01*
X395202560Y-5600000D01*
X395202560Y-7400000D01*
X395251843Y-7647765D01*
X395392191Y-7857809D01*
X395482408Y-7918091D01*
X394648231Y-8752268D01*
X394611800Y-8776610D01*
X394611800Y-8719226D01*
X394454231Y-8338820D01*
X394163080Y-8047669D01*
X393782674Y-7890100D01*
X393616601Y-7890100D01*
X393261831Y-7535330D01*
X393219429Y-7471871D01*
X392968037Y-7303896D01*
X392746352Y-7259800D01*
X392746347Y-7259800D01*
X392671500Y-7244912D01*
X392596653Y-7259800D01*
X370636752Y-7259800D01*
X370825000Y-6805330D01*
X370825000Y-6194670D01*
X370591310Y-5630493D01*
X370159507Y-5198690D01*
X369595330Y-4965000D01*
X368984670Y-4965000D01*
X368420493Y-5198690D01*
X368251275Y-5367908D01*
X368248157Y-5352235D01*
X368107809Y-5142191D01*
X367897765Y-5001843D01*
X367650000Y-4952560D01*
X366206443Y-4952560D01*
X366573703Y-4585300D01*
X373592845Y-4585300D01*
X373540770Y-4711021D01*
G36*
X27998970Y-12759172D02*
X28041371Y-12822629D01*
X28104827Y-12865029D01*
X28292762Y-12990604D01*
X28340905Y-13000180D01*
X28514448Y-13034700D01*
X28514452Y-13034700D01*
X28589300Y-13049588D01*
X28664148Y-13034700D01*
X29615694Y-13034700D01*
X29528923Y-13275015D01*
X29555730Y-13854914D01*
X29726074Y-14266161D01*
X29974705Y-14343270D01*
X30820395Y-13497580D01*
X30806253Y-13483438D01*
X30985858Y-13303833D01*
X31000000Y-13317975D01*
X31014143Y-13303833D01*
X31193748Y-13483438D01*
X31179605Y-13497580D01*
X32025295Y-14343270D01*
X32273926Y-14266161D01*
X32471077Y-13720145D01*
X32444270Y-13140246D01*
X32400551Y-13034700D01*
X33984599Y-13034700D01*
X34934370Y-13984472D01*
X34976771Y-14047929D01*
X35202560Y-14198797D01*
X35202560Y-14400000D01*
X35251843Y-14647765D01*
X35392191Y-14857809D01*
X35602235Y-14998157D01*
X35850000Y-15047440D01*
X37650000Y-15047440D01*
X37897765Y-14998157D01*
X38107809Y-14857809D01*
X38248157Y-14647765D01*
X38251275Y-14632092D01*
X38420493Y-14801310D01*
X38984670Y-15035000D01*
X39595330Y-15035000D01*
X40159507Y-14801310D01*
X40591310Y-14369507D01*
X40825000Y-13805330D01*
X40825000Y-13194670D01*
X40779640Y-13085162D01*
X40801002Y-13063800D01*
X43600219Y-13063800D01*
X43540770Y-13207321D01*
X43540770Y-13787839D01*
X43762925Y-14324167D01*
X44173413Y-14734655D01*
X44709741Y-14956810D01*
X45290259Y-14956810D01*
X45826587Y-14734655D01*
X46038367Y-14522875D01*
X60154310Y-14522875D01*
X60231419Y-14771506D01*
X60777435Y-14968657D01*
X61357334Y-14941850D01*
X61768581Y-14771506D01*
X61845690Y-14522875D01*
X61000000Y-13677185D01*
X60154310Y-14522875D01*
X46038367Y-14522875D01*
X46237075Y-14324167D01*
X46459230Y-13787839D01*
X46459230Y-13207321D01*
X46399781Y-13063800D01*
X59605187Y-13063800D01*
X59528923Y-13275015D01*
X59555730Y-13854914D01*
X59726074Y-14266161D01*
X59974705Y-14343270D01*
X60820395Y-13497580D01*
X60806253Y-13483438D01*
X60985858Y-13303833D01*
X61000000Y-13317975D01*
X61014143Y-13303833D01*
X61193748Y-13483438D01*
X61179605Y-13497580D01*
X62025295Y-14343270D01*
X62273926Y-14266161D01*
X62471077Y-13720145D01*
X62460241Y-13485743D01*
X64634671Y-15660173D01*
X64677071Y-15723629D01*
X64928463Y-15891604D01*
X65150148Y-15935700D01*
X65150153Y-15935700D01*
X65225000Y-15950588D01*
X65299847Y-15935700D01*
X73652263Y-15935700D01*
X73528923Y-16277295D01*
X73555730Y-16857194D01*
X73726074Y-17268441D01*
X73974703Y-17345549D01*
X73951352Y-17368900D01*
X62048648Y-17368900D01*
X62025297Y-17345549D01*
X62273926Y-17268441D01*
X62471077Y-16722425D01*
X62444270Y-16142526D01*
X62273926Y-15731279D01*
X62025295Y-15654170D01*
X61179605Y-16499860D01*
X61193748Y-16514003D01*
X61014143Y-16693608D01*
X61000000Y-16679465D01*
X60985858Y-16693608D01*
X60806253Y-16514003D01*
X60820395Y-16499860D01*
X59974705Y-15654170D01*
X59726074Y-15731279D01*
X59528923Y-16277295D01*
X59555730Y-16857194D01*
X59726074Y-17268441D01*
X59974703Y-17345549D01*
X59951352Y-17368900D01*
X46048648Y-17368900D01*
X46025297Y-17345549D01*
X46273926Y-17268441D01*
X46471077Y-16722425D01*
X46444270Y-16142526D01*
X46273926Y-15731279D01*
X46025295Y-15654170D01*
X45179605Y-16499860D01*
X45193748Y-16514003D01*
X45014143Y-16693608D01*
X45000000Y-16679465D01*
X44985858Y-16693608D01*
X44806253Y-16514003D01*
X44820395Y-16499860D01*
X43974705Y-15654170D01*
X43726074Y-15731279D01*
X43528923Y-16277295D01*
X43555730Y-16857194D01*
X43726074Y-17268441D01*
X43974703Y-17345549D01*
X43951352Y-17368900D01*
X32048648Y-17368900D01*
X32025297Y-17345549D01*
X32273926Y-17268441D01*
X32471077Y-16722425D01*
X32444270Y-16142526D01*
X32273926Y-15731279D01*
X32025295Y-15654170D01*
X31179605Y-16499860D01*
X31193748Y-16514003D01*
X31014143Y-16693608D01*
X31000000Y-16679465D01*
X30985858Y-16693608D01*
X30806253Y-16514003D01*
X30820395Y-16499860D01*
X29974705Y-15654170D01*
X29726074Y-15731279D01*
X29528923Y-16277295D01*
X29555730Y-16857194D01*
X29726074Y-17268441D01*
X29974703Y-17345549D01*
X29951352Y-17368900D01*
X27871702Y-17368900D01*
X25977367Y-15474565D01*
X30154310Y-15474565D01*
X31000000Y-16320255D01*
X31845690Y-15474565D01*
X44154310Y-15474565D01*
X45000000Y-16320255D01*
X45845690Y-15474565D01*
X60154310Y-15474565D01*
X61000000Y-16320255D01*
X61845690Y-15474565D01*
X61768581Y-15225934D01*
X61222565Y-15028783D01*
X60642666Y-15055590D01*
X60231419Y-15225934D01*
X60154310Y-15474565D01*
X45845690Y-15474565D01*
X45768581Y-15225934D01*
X45222565Y-15028783D01*
X44642666Y-15055590D01*
X44231419Y-15225934D01*
X44154310Y-15474565D01*
X31845690Y-15474565D01*
X31768581Y-15225934D01*
X31222565Y-15028783D01*
X30642666Y-15055590D01*
X30231419Y-15225934D01*
X30154310Y-15474565D01*
X25977367Y-15474565D01*
X25025677Y-14522875D01*
X30154310Y-14522875D01*
X30231419Y-14771506D01*
X30777435Y-14968657D01*
X31357334Y-14941850D01*
X31768581Y-14771506D01*
X31845690Y-14522875D01*
X31000000Y-13677185D01*
X30154310Y-14522875D01*
X25025677Y-14522875D01*
X18359104Y-7856303D01*
X18466924Y-7811645D01*
X18895183Y-7421358D01*
X19141486Y-6896892D01*
X19020819Y-6667000D01*
X17827000Y-6667000D01*
X17827000Y-6687000D01*
X17573000Y-6687000D01*
X17573000Y-6667000D01*
X17553000Y-6667000D01*
X17553000Y-6413000D01*
X17573000Y-6413000D01*
X17573000Y-6393000D01*
X17827000Y-6393000D01*
X17827000Y-6413000D01*
X19020819Y-6413000D01*
X19141486Y-6183108D01*
X19025109Y-5935300D01*
X21175099Y-5935300D01*
X27998970Y-12759172D01*
X27998970Y-12759172D01*
G37*
X27998970Y-12759172D02*
X28041371Y-12822629D01*
X28104827Y-12865029D01*
X28292762Y-12990604D01*
X28340905Y-13000180D01*
X28514448Y-13034700D01*
X28514452Y-13034700D01*
X28589300Y-13049588D01*
X28664148Y-13034700D01*
X29615694Y-13034700D01*
X29528923Y-13275015D01*
X29555730Y-13854914D01*
X29726074Y-14266161D01*
X29974705Y-14343270D01*
X30820395Y-13497580D01*
X30806253Y-13483438D01*
X30985858Y-13303833D01*
X31000000Y-13317975D01*
X31014143Y-13303833D01*
X31193748Y-13483438D01*
X31179605Y-13497580D01*
X32025295Y-14343270D01*
X32273926Y-14266161D01*
X32471077Y-13720145D01*
X32444270Y-13140246D01*
X32400551Y-13034700D01*
X33984599Y-13034700D01*
X34934370Y-13984472D01*
X34976771Y-14047929D01*
X35202560Y-14198797D01*
X35202560Y-14400000D01*
X35251843Y-14647765D01*
X35392191Y-14857809D01*
X35602235Y-14998157D01*
X35850000Y-15047440D01*
X37650000Y-15047440D01*
X37897765Y-14998157D01*
X38107809Y-14857809D01*
X38248157Y-14647765D01*
X38251275Y-14632092D01*
X38420493Y-14801310D01*
X38984670Y-15035000D01*
X39595330Y-15035000D01*
X40159507Y-14801310D01*
X40591310Y-14369507D01*
X40825000Y-13805330D01*
X40825000Y-13194670D01*
X40779640Y-13085162D01*
X40801002Y-13063800D01*
X43600219Y-13063800D01*
X43540770Y-13207321D01*
X43540770Y-13787839D01*
X43762925Y-14324167D01*
X44173413Y-14734655D01*
X44709741Y-14956810D01*
X45290259Y-14956810D01*
X45826587Y-14734655D01*
X46038367Y-14522875D01*
X60154310Y-14522875D01*
X60231419Y-14771506D01*
X60777435Y-14968657D01*
X61357334Y-14941850D01*
X61768581Y-14771506D01*
X61845690Y-14522875D01*
X61000000Y-13677185D01*
X60154310Y-14522875D01*
X46038367Y-14522875D01*
X46237075Y-14324167D01*
X46459230Y-13787839D01*
X46459230Y-13207321D01*
X46399781Y-13063800D01*
X59605187Y-13063800D01*
X59528923Y-13275015D01*
X59555730Y-13854914D01*
X59726074Y-14266161D01*
X59974705Y-14343270D01*
X60820395Y-13497580D01*
X60806253Y-13483438D01*
X60985858Y-13303833D01*
X61000000Y-13317975D01*
X61014143Y-13303833D01*
X61193748Y-13483438D01*
X61179605Y-13497580D01*
X62025295Y-14343270D01*
X62273926Y-14266161D01*
X62471077Y-13720145D01*
X62460241Y-13485743D01*
X64634671Y-15660173D01*
X64677071Y-15723629D01*
X64928463Y-15891604D01*
X65150148Y-15935700D01*
X65150153Y-15935700D01*
X65225000Y-15950588D01*
X65299847Y-15935700D01*
X73652263Y-15935700D01*
X73528923Y-16277295D01*
X73555730Y-16857194D01*
X73726074Y-17268441D01*
X73974703Y-17345549D01*
X73951352Y-17368900D01*
X62048648Y-17368900D01*
X62025297Y-17345549D01*
X62273926Y-17268441D01*
X62471077Y-16722425D01*
X62444270Y-16142526D01*
X62273926Y-15731279D01*
X62025295Y-15654170D01*
X61179605Y-16499860D01*
X61193748Y-16514003D01*
X61014143Y-16693608D01*
X61000000Y-16679465D01*
X60985858Y-16693608D01*
X60806253Y-16514003D01*
X60820395Y-16499860D01*
X59974705Y-15654170D01*
X59726074Y-15731279D01*
X59528923Y-16277295D01*
X59555730Y-16857194D01*
X59726074Y-17268441D01*
X59974703Y-17345549D01*
X59951352Y-17368900D01*
X46048648Y-17368900D01*
X46025297Y-17345549D01*
X46273926Y-17268441D01*
X46471077Y-16722425D01*
X46444270Y-16142526D01*
X46273926Y-15731279D01*
X46025295Y-15654170D01*
X45179605Y-16499860D01*
X45193748Y-16514003D01*
X45014143Y-16693608D01*
X45000000Y-16679465D01*
X44985858Y-16693608D01*
X44806253Y-16514003D01*
X44820395Y-16499860D01*
X43974705Y-15654170D01*
X43726074Y-15731279D01*
X43528923Y-16277295D01*
X43555730Y-16857194D01*
X43726074Y-17268441D01*
X43974703Y-17345549D01*
X43951352Y-17368900D01*
X32048648Y-17368900D01*
X32025297Y-17345549D01*
X32273926Y-17268441D01*
X32471077Y-16722425D01*
X32444270Y-16142526D01*
X32273926Y-15731279D01*
X32025295Y-15654170D01*
X31179605Y-16499860D01*
X31193748Y-16514003D01*
X31014143Y-16693608D01*
X31000000Y-16679465D01*
X30985858Y-16693608D01*
X30806253Y-16514003D01*
X30820395Y-16499860D01*
X29974705Y-15654170D01*
X29726074Y-15731279D01*
X29528923Y-16277295D01*
X29555730Y-16857194D01*
X29726074Y-17268441D01*
X29974703Y-17345549D01*
X29951352Y-17368900D01*
X27871702Y-17368900D01*
X25977367Y-15474565D01*
X30154310Y-15474565D01*
X31000000Y-16320255D01*
X31845690Y-15474565D01*
X44154310Y-15474565D01*
X45000000Y-16320255D01*
X45845690Y-15474565D01*
X60154310Y-15474565D01*
X61000000Y-16320255D01*
X61845690Y-15474565D01*
X61768581Y-15225934D01*
X61222565Y-15028783D01*
X60642666Y-15055590D01*
X60231419Y-15225934D01*
X60154310Y-15474565D01*
X45845690Y-15474565D01*
X45768581Y-15225934D01*
X45222565Y-15028783D01*
X44642666Y-15055590D01*
X44231419Y-15225934D01*
X44154310Y-15474565D01*
X31845690Y-15474565D01*
X31768581Y-15225934D01*
X31222565Y-15028783D01*
X30642666Y-15055590D01*
X30231419Y-15225934D01*
X30154310Y-15474565D01*
X25977367Y-15474565D01*
X25025677Y-14522875D01*
X30154310Y-14522875D01*
X30231419Y-14771506D01*
X30777435Y-14968657D01*
X31357334Y-14941850D01*
X31768581Y-14771506D01*
X31845690Y-14522875D01*
X31000000Y-13677185D01*
X30154310Y-14522875D01*
X25025677Y-14522875D01*
X18359104Y-7856303D01*
X18466924Y-7811645D01*
X18895183Y-7421358D01*
X19141486Y-6896892D01*
X19020819Y-6667000D01*
X17827000Y-6667000D01*
X17827000Y-6687000D01*
X17573000Y-6687000D01*
X17573000Y-6667000D01*
X17553000Y-6667000D01*
X17553000Y-6413000D01*
X17573000Y-6413000D01*
X17573000Y-6393000D01*
X17827000Y-6393000D01*
X17827000Y-6413000D01*
X19020819Y-6413000D01*
X19141486Y-6183108D01*
X19025109Y-5935300D01*
X21175099Y-5935300D01*
X27998970Y-12759172D01*
G36*
X95119771Y-4726671D02*
X95077369Y-4790130D01*
X95040230Y-4827269D01*
X94976771Y-4869671D01*
X94808796Y-5121064D01*
X94764700Y-5342749D01*
X94764700Y-5342753D01*
X94749812Y-5417600D01*
X94764700Y-5492447D01*
X94764701Y-10974548D01*
X94749812Y-11049400D01*
X94808797Y-11345937D01*
X94907013Y-11492927D01*
X94976772Y-11597329D01*
X95040228Y-11639729D01*
X95482408Y-12081909D01*
X95392191Y-12142191D01*
X95251843Y-12352235D01*
X95202560Y-12600000D01*
X95202560Y-14400000D01*
X95251843Y-14647765D01*
X95392191Y-14857809D01*
X95602235Y-14998157D01*
X95850000Y-15047440D01*
X97650000Y-15047440D01*
X97897765Y-14998157D01*
X98107809Y-14857809D01*
X98248157Y-14647765D01*
X98251275Y-14632092D01*
X98420493Y-14801310D01*
X98984670Y-15035000D01*
X99595330Y-15035000D01*
X99704838Y-14989640D01*
X100198473Y-15483276D01*
X100240871Y-15546729D01*
X100304324Y-15589127D01*
X100304326Y-15589129D01*
X100429250Y-15672600D01*
X100492263Y-15714704D01*
X100713948Y-15758800D01*
X100713952Y-15758800D01*
X100788799Y-15773688D01*
X100863646Y-15758800D01*
X103716137Y-15758800D01*
X103528923Y-16277295D01*
X103555730Y-16857194D01*
X103726074Y-17268441D01*
X103974703Y-17345549D01*
X103951352Y-17368900D01*
X92048648Y-17368900D01*
X92025297Y-17345549D01*
X92273926Y-17268441D01*
X92471077Y-16722425D01*
X92444270Y-16142526D01*
X92273926Y-15731279D01*
X92025295Y-15654170D01*
X91179605Y-16499860D01*
X91193748Y-16514003D01*
X91014143Y-16693608D01*
X91000000Y-16679465D01*
X90985858Y-16693608D01*
X90806253Y-16514003D01*
X90820395Y-16499860D01*
X89974705Y-15654170D01*
X89726074Y-15731279D01*
X89528923Y-16277295D01*
X89555730Y-16857194D01*
X89726074Y-17268441D01*
X89974703Y-17345549D01*
X89951352Y-17368900D01*
X76048648Y-17368900D01*
X76025297Y-17345549D01*
X76273926Y-17268441D01*
X76471077Y-16722425D01*
X76444270Y-16142526D01*
X76358600Y-15935700D01*
X85267853Y-15935700D01*
X85342700Y-15950588D01*
X85417547Y-15935700D01*
X85417552Y-15935700D01*
X85639237Y-15891604D01*
X85890629Y-15723629D01*
X85933031Y-15660170D01*
X86111101Y-15482100D01*
X86277174Y-15482100D01*
X86295365Y-15474565D01*
X90154310Y-15474565D01*
X91000000Y-16320255D01*
X91845690Y-15474565D01*
X91768581Y-15225934D01*
X91222565Y-15028783D01*
X90642666Y-15055590D01*
X90231419Y-15225934D01*
X90154310Y-15474565D01*
X86295365Y-15474565D01*
X86657580Y-15324531D01*
X86948731Y-15033380D01*
X87106300Y-14652974D01*
X87106300Y-14522875D01*
X90154310Y-14522875D01*
X90231419Y-14771506D01*
X90777435Y-14968657D01*
X91357334Y-14941850D01*
X91768581Y-14771506D01*
X91845690Y-14522875D01*
X91000000Y-13677185D01*
X90154310Y-14522875D01*
X87106300Y-14522875D01*
X87106300Y-14241226D01*
X86948731Y-13860820D01*
X86657580Y-13569669D01*
X86277174Y-13412100D01*
X85865426Y-13412100D01*
X85775931Y-13449170D01*
X85950086Y-13275015D01*
X89528923Y-13275015D01*
X89555730Y-13854914D01*
X89726074Y-14266161D01*
X89974705Y-14343270D01*
X90820395Y-13497580D01*
X91179605Y-13497580D01*
X92025295Y-14343270D01*
X92273926Y-14266161D01*
X92471077Y-13720145D01*
X92444270Y-13140246D01*
X92273926Y-12728999D01*
X92025295Y-12651890D01*
X91179605Y-13497580D01*
X90820395Y-13497580D01*
X89974705Y-12651890D01*
X89726074Y-12728999D01*
X89528923Y-13275015D01*
X85950086Y-13275015D01*
X88769549Y-10455552D01*
X89105259Y-11266026D01*
X89733974Y-11894741D01*
X90379729Y-12162222D01*
X90231419Y-12223654D01*
X90154310Y-12472285D01*
X91000000Y-13317975D01*
X91845690Y-12472285D01*
X91768581Y-12223654D01*
X91610105Y-12166433D01*
X92266026Y-11894741D01*
X92894741Y-11266026D01*
X93235000Y-10444569D01*
X93235000Y-9555431D01*
X92894741Y-8733974D01*
X92266026Y-8105259D01*
X91455552Y-7769549D01*
X94626802Y-4598300D01*
X95311892Y-4598300D01*
X95119771Y-4726671D01*
X95119771Y-4726671D01*
G37*
X95119771Y-4726671D02*
X95077369Y-4790130D01*
X95040230Y-4827269D01*
X94976771Y-4869671D01*
X94808796Y-5121064D01*
X94764700Y-5342749D01*
X94764700Y-5342753D01*
X94749812Y-5417600D01*
X94764700Y-5492447D01*
X94764701Y-10974548D01*
X94749812Y-11049400D01*
X94808797Y-11345937D01*
X94907013Y-11492927D01*
X94976772Y-11597329D01*
X95040228Y-11639729D01*
X95482408Y-12081909D01*
X95392191Y-12142191D01*
X95251843Y-12352235D01*
X95202560Y-12600000D01*
X95202560Y-14400000D01*
X95251843Y-14647765D01*
X95392191Y-14857809D01*
X95602235Y-14998157D01*
X95850000Y-15047440D01*
X97650000Y-15047440D01*
X97897765Y-14998157D01*
X98107809Y-14857809D01*
X98248157Y-14647765D01*
X98251275Y-14632092D01*
X98420493Y-14801310D01*
X98984670Y-15035000D01*
X99595330Y-15035000D01*
X99704838Y-14989640D01*
X100198473Y-15483276D01*
X100240871Y-15546729D01*
X100304324Y-15589127D01*
X100304326Y-15589129D01*
X100429250Y-15672600D01*
X100492263Y-15714704D01*
X100713948Y-15758800D01*
X100713952Y-15758800D01*
X100788799Y-15773688D01*
X100863646Y-15758800D01*
X103716137Y-15758800D01*
X103528923Y-16277295D01*
X103555730Y-16857194D01*
X103726074Y-17268441D01*
X103974703Y-17345549D01*
X103951352Y-17368900D01*
X92048648Y-17368900D01*
X92025297Y-17345549D01*
X92273926Y-17268441D01*
X92471077Y-16722425D01*
X92444270Y-16142526D01*
X92273926Y-15731279D01*
X92025295Y-15654170D01*
X91179605Y-16499860D01*
X91193748Y-16514003D01*
X91014143Y-16693608D01*
X91000000Y-16679465D01*
X90985858Y-16693608D01*
X90806253Y-16514003D01*
X90820395Y-16499860D01*
X89974705Y-15654170D01*
X89726074Y-15731279D01*
X89528923Y-16277295D01*
X89555730Y-16857194D01*
X89726074Y-17268441D01*
X89974703Y-17345549D01*
X89951352Y-17368900D01*
X76048648Y-17368900D01*
X76025297Y-17345549D01*
X76273926Y-17268441D01*
X76471077Y-16722425D01*
X76444270Y-16142526D01*
X76358600Y-15935700D01*
X85267853Y-15935700D01*
X85342700Y-15950588D01*
X85417547Y-15935700D01*
X85417552Y-15935700D01*
X85639237Y-15891604D01*
X85890629Y-15723629D01*
X85933031Y-15660170D01*
X86111101Y-15482100D01*
X86277174Y-15482100D01*
X86295365Y-15474565D01*
X90154310Y-15474565D01*
X91000000Y-16320255D01*
X91845690Y-15474565D01*
X91768581Y-15225934D01*
X91222565Y-15028783D01*
X90642666Y-15055590D01*
X90231419Y-15225934D01*
X90154310Y-15474565D01*
X86295365Y-15474565D01*
X86657580Y-15324531D01*
X86948731Y-15033380D01*
X87106300Y-14652974D01*
X87106300Y-14522875D01*
X90154310Y-14522875D01*
X90231419Y-14771506D01*
X90777435Y-14968657D01*
X91357334Y-14941850D01*
X91768581Y-14771506D01*
X91845690Y-14522875D01*
X91000000Y-13677185D01*
X90154310Y-14522875D01*
X87106300Y-14522875D01*
X87106300Y-14241226D01*
X86948731Y-13860820D01*
X86657580Y-13569669D01*
X86277174Y-13412100D01*
X85865426Y-13412100D01*
X85775931Y-13449170D01*
X85950086Y-13275015D01*
X89528923Y-13275015D01*
X89555730Y-13854914D01*
X89726074Y-14266161D01*
X89974705Y-14343270D01*
X90820395Y-13497580D01*
X91179605Y-13497580D01*
X92025295Y-14343270D01*
X92273926Y-14266161D01*
X92471077Y-13720145D01*
X92444270Y-13140246D01*
X92273926Y-12728999D01*
X92025295Y-12651890D01*
X91179605Y-13497580D01*
X90820395Y-13497580D01*
X89974705Y-12651890D01*
X89726074Y-12728999D01*
X89528923Y-13275015D01*
X85950086Y-13275015D01*
X88769549Y-10455552D01*
X89105259Y-11266026D01*
X89733974Y-11894741D01*
X90379729Y-12162222D01*
X90231419Y-12223654D01*
X90154310Y-12472285D01*
X91000000Y-13317975D01*
X91845690Y-12472285D01*
X91768581Y-12223654D01*
X91610105Y-12166433D01*
X92266026Y-11894741D01*
X92894741Y-11266026D01*
X93235000Y-10444569D01*
X93235000Y-9555431D01*
X92894741Y-8733974D01*
X92266026Y-8105259D01*
X91455552Y-7769549D01*
X94626802Y-4598300D01*
X95311892Y-4598300D01*
X95119771Y-4726671D01*
G36*
X149528923Y-13275015D02*
X149555730Y-13854914D01*
X149726074Y-14266161D01*
X149974705Y-14343270D01*
X150820395Y-13497580D01*
X150806253Y-13483438D01*
X150985858Y-13303833D01*
X151000000Y-13317975D01*
X151014143Y-13303833D01*
X151193748Y-13483438D01*
X151179605Y-13497580D01*
X152025295Y-14343270D01*
X152273926Y-14266161D01*
X152471077Y-13720145D01*
X152444270Y-13140246D01*
X152400551Y-13034700D01*
X155202560Y-13034700D01*
X155202560Y-14400000D01*
X155251843Y-14647765D01*
X155392191Y-14857809D01*
X155602235Y-14998157D01*
X155850000Y-15047440D01*
X157650000Y-15047440D01*
X157897765Y-14998157D01*
X158107809Y-14857809D01*
X158248157Y-14647765D01*
X158251275Y-14632092D01*
X158420493Y-14801310D01*
X158984670Y-15035000D01*
X159595330Y-15035000D01*
X160159507Y-14801310D01*
X160591310Y-14369507D01*
X160825000Y-13805330D01*
X160825000Y-13194670D01*
X160758738Y-13034700D01*
X163612272Y-13034700D01*
X163540770Y-13207321D01*
X163540770Y-13787839D01*
X163762925Y-14324167D01*
X164173413Y-14734655D01*
X164709741Y-14956810D01*
X165290259Y-14956810D01*
X165826587Y-14734655D01*
X166038367Y-14522875D01*
X180154310Y-14522875D01*
X180231419Y-14771506D01*
X180777435Y-14968657D01*
X181357334Y-14941850D01*
X181768581Y-14771506D01*
X181845690Y-14522875D01*
X181000000Y-13677185D01*
X180154310Y-14522875D01*
X166038367Y-14522875D01*
X166237075Y-14324167D01*
X166459230Y-13787839D01*
X166459230Y-13207321D01*
X166387728Y-13034700D01*
X179615694Y-13034700D01*
X179528923Y-13275015D01*
X179555730Y-13854914D01*
X179726074Y-14266161D01*
X179974705Y-14343270D01*
X180820395Y-13497580D01*
X180806253Y-13483438D01*
X180985858Y-13303833D01*
X181000000Y-13317975D01*
X181014143Y-13303833D01*
X181193748Y-13483438D01*
X181179605Y-13497580D01*
X182025295Y-14343270D01*
X182273926Y-14266161D01*
X182471077Y-13720145D01*
X182444270Y-13140246D01*
X182400551Y-13034700D01*
X185202560Y-13034700D01*
X185202560Y-14400000D01*
X185251843Y-14647765D01*
X185392191Y-14857809D01*
X185602235Y-14998157D01*
X185850000Y-15047440D01*
X187650000Y-15047440D01*
X187897765Y-14998157D01*
X188107809Y-14857809D01*
X188248157Y-14647765D01*
X188251275Y-14632092D01*
X188420493Y-14801310D01*
X188984670Y-15035000D01*
X189595330Y-15035000D01*
X190159507Y-14801310D01*
X190591310Y-14369507D01*
X190825000Y-13805330D01*
X190825000Y-13194670D01*
X190758738Y-13034700D01*
X193612272Y-13034700D01*
X193540770Y-13207321D01*
X193540770Y-13787839D01*
X193762925Y-14324167D01*
X194173413Y-14734655D01*
X194709741Y-14956810D01*
X195290259Y-14956810D01*
X195826587Y-14734655D01*
X196038367Y-14522875D01*
X210154310Y-14522875D01*
X210231419Y-14771506D01*
X210777435Y-14968657D01*
X211357334Y-14941850D01*
X211768581Y-14771506D01*
X211845690Y-14522875D01*
X211000000Y-13677185D01*
X210154310Y-14522875D01*
X196038367Y-14522875D01*
X196237075Y-14324167D01*
X196459230Y-13787839D01*
X196459230Y-13207321D01*
X196387728Y-13034700D01*
X209615694Y-13034700D01*
X209528923Y-13275015D01*
X209555730Y-13854914D01*
X209726074Y-14266161D01*
X209974705Y-14343270D01*
X210820395Y-13497580D01*
X210806253Y-13483438D01*
X210985858Y-13303833D01*
X211000000Y-13317975D01*
X211014143Y-13303833D01*
X211193748Y-13483438D01*
X211179605Y-13497580D01*
X212025295Y-14343270D01*
X212273926Y-14266161D01*
X212471077Y-13720145D01*
X212444270Y-13140246D01*
X212400551Y-13034700D01*
X214921560Y-13034700D01*
X214808796Y-13203463D01*
X214786241Y-13316857D01*
X212302598Y-15800500D01*
X212273926Y-15731279D01*
X212025295Y-15654170D01*
X211179605Y-16499860D01*
X211193748Y-16514003D01*
X211014143Y-16693608D01*
X211000000Y-16679465D01*
X210985858Y-16693608D01*
X210806253Y-16514003D01*
X210820395Y-16499860D01*
X209974705Y-15654170D01*
X209726074Y-15731279D01*
X209528923Y-16277295D01*
X209555730Y-16857194D01*
X209577437Y-16909600D01*
X196403493Y-16909600D01*
X196471077Y-16722425D01*
X196444270Y-16142526D01*
X196273926Y-15731279D01*
X196025295Y-15654170D01*
X195179605Y-16499860D01*
X195193748Y-16514003D01*
X195014143Y-16693608D01*
X195000000Y-16679465D01*
X194985858Y-16693608D01*
X194806253Y-16514003D01*
X194820395Y-16499860D01*
X193974705Y-15654170D01*
X193726074Y-15731279D01*
X193528923Y-16277295D01*
X193555730Y-16857194D01*
X193577437Y-16909600D01*
X182403493Y-16909600D01*
X182471077Y-16722425D01*
X182444270Y-16142526D01*
X182273926Y-15731279D01*
X182025295Y-15654170D01*
X181179605Y-16499860D01*
X181193748Y-16514003D01*
X181014143Y-16693608D01*
X181000000Y-16679465D01*
X180985858Y-16693608D01*
X180806253Y-16514003D01*
X180820395Y-16499860D01*
X179974705Y-15654170D01*
X179726074Y-15731279D01*
X179528923Y-16277295D01*
X179555730Y-16857194D01*
X179577437Y-16909600D01*
X166403493Y-16909600D01*
X166471077Y-16722425D01*
X166444270Y-16142526D01*
X166273926Y-15731279D01*
X166025295Y-15654170D01*
X165179605Y-16499860D01*
X165193748Y-16514003D01*
X165014143Y-16693608D01*
X165000000Y-16679465D01*
X164985858Y-16693608D01*
X164806253Y-16514003D01*
X164820395Y-16499860D01*
X163974705Y-15654170D01*
X163726074Y-15731279D01*
X163528923Y-16277295D01*
X163555730Y-16857194D01*
X163577437Y-16909600D01*
X152403493Y-16909600D01*
X152471077Y-16722425D01*
X152444270Y-16142526D01*
X152273926Y-15731279D01*
X152025295Y-15654170D01*
X151179605Y-16499860D01*
X151193748Y-16514003D01*
X151014143Y-16693608D01*
X151000000Y-16679465D01*
X150985858Y-16693608D01*
X150806253Y-16514003D01*
X150820395Y-16499860D01*
X149974705Y-15654170D01*
X149726074Y-15731279D01*
X149528923Y-16277295D01*
X149555730Y-16857194D01*
X149577437Y-16909600D01*
X138044909Y-16909600D01*
X138361580Y-16778431D01*
X138652731Y-16487280D01*
X138810300Y-16106874D01*
X138810300Y-15695126D01*
X138718941Y-15474565D01*
X150154310Y-15474565D01*
X151000000Y-16320255D01*
X151845690Y-15474565D01*
X164154310Y-15474565D01*
X165000000Y-16320255D01*
X165845690Y-15474565D01*
X180154310Y-15474565D01*
X181000000Y-16320255D01*
X181845690Y-15474565D01*
X194154310Y-15474565D01*
X195000000Y-16320255D01*
X195845690Y-15474565D01*
X210154310Y-15474565D01*
X211000000Y-16320255D01*
X211845690Y-15474565D01*
X211768581Y-15225934D01*
X211222565Y-15028783D01*
X210642666Y-15055590D01*
X210231419Y-15225934D01*
X210154310Y-15474565D01*
X195845690Y-15474565D01*
X195768581Y-15225934D01*
X195222565Y-15028783D01*
X194642666Y-15055590D01*
X194231419Y-15225934D01*
X194154310Y-15474565D01*
X181845690Y-15474565D01*
X181768581Y-15225934D01*
X181222565Y-15028783D01*
X180642666Y-15055590D01*
X180231419Y-15225934D01*
X180154310Y-15474565D01*
X165845690Y-15474565D01*
X165768581Y-15225934D01*
X165222565Y-15028783D01*
X164642666Y-15055590D01*
X164231419Y-15225934D01*
X164154310Y-15474565D01*
X151845690Y-15474565D01*
X151768581Y-15225934D01*
X151222565Y-15028783D01*
X150642666Y-15055590D01*
X150231419Y-15225934D01*
X150154310Y-15474565D01*
X138718941Y-15474565D01*
X138652731Y-15314720D01*
X138361580Y-15023569D01*
X137981174Y-14866000D01*
X137815101Y-14866000D01*
X137769031Y-14819930D01*
X137726629Y-14756471D01*
X137475237Y-14588496D01*
X137253552Y-14544400D01*
X137253547Y-14544400D01*
X137178700Y-14529512D01*
X137103853Y-14544400D01*
X136016842Y-14544400D01*
X136038367Y-14522875D01*
X150154310Y-14522875D01*
X150231419Y-14771506D01*
X150777435Y-14968657D01*
X151357334Y-14941850D01*
X151768581Y-14771506D01*
X151845690Y-14522875D01*
X151000000Y-13677185D01*
X150154310Y-14522875D01*
X136038367Y-14522875D01*
X136237075Y-14324167D01*
X136459230Y-13787839D01*
X136459230Y-13207321D01*
X136387728Y-13034700D01*
X149615694Y-13034700D01*
X149528923Y-13275015D01*
X149528923Y-13275015D01*
G37*
X149528923Y-13275015D02*
X149555730Y-13854914D01*
X149726074Y-14266161D01*
X149974705Y-14343270D01*
X150820395Y-13497580D01*
X150806253Y-13483438D01*
X150985858Y-13303833D01*
X151000000Y-13317975D01*
X151014143Y-13303833D01*
X151193748Y-13483438D01*
X151179605Y-13497580D01*
X152025295Y-14343270D01*
X152273926Y-14266161D01*
X152471077Y-13720145D01*
X152444270Y-13140246D01*
X152400551Y-13034700D01*
X155202560Y-13034700D01*
X155202560Y-14400000D01*
X155251843Y-14647765D01*
X155392191Y-14857809D01*
X155602235Y-14998157D01*
X155850000Y-15047440D01*
X157650000Y-15047440D01*
X157897765Y-14998157D01*
X158107809Y-14857809D01*
X158248157Y-14647765D01*
X158251275Y-14632092D01*
X158420493Y-14801310D01*
X158984670Y-15035000D01*
X159595330Y-15035000D01*
X160159507Y-14801310D01*
X160591310Y-14369507D01*
X160825000Y-13805330D01*
X160825000Y-13194670D01*
X160758738Y-13034700D01*
X163612272Y-13034700D01*
X163540770Y-13207321D01*
X163540770Y-13787839D01*
X163762925Y-14324167D01*
X164173413Y-14734655D01*
X164709741Y-14956810D01*
X165290259Y-14956810D01*
X165826587Y-14734655D01*
X166038367Y-14522875D01*
X180154310Y-14522875D01*
X180231419Y-14771506D01*
X180777435Y-14968657D01*
X181357334Y-14941850D01*
X181768581Y-14771506D01*
X181845690Y-14522875D01*
X181000000Y-13677185D01*
X180154310Y-14522875D01*
X166038367Y-14522875D01*
X166237075Y-14324167D01*
X166459230Y-13787839D01*
X166459230Y-13207321D01*
X166387728Y-13034700D01*
X179615694Y-13034700D01*
X179528923Y-13275015D01*
X179555730Y-13854914D01*
X179726074Y-14266161D01*
X179974705Y-14343270D01*
X180820395Y-13497580D01*
X180806253Y-13483438D01*
X180985858Y-13303833D01*
X181000000Y-13317975D01*
X181014143Y-13303833D01*
X181193748Y-13483438D01*
X181179605Y-13497580D01*
X182025295Y-14343270D01*
X182273926Y-14266161D01*
X182471077Y-13720145D01*
X182444270Y-13140246D01*
X182400551Y-13034700D01*
X185202560Y-13034700D01*
X185202560Y-14400000D01*
X185251843Y-14647765D01*
X185392191Y-14857809D01*
X185602235Y-14998157D01*
X185850000Y-15047440D01*
X187650000Y-15047440D01*
X187897765Y-14998157D01*
X188107809Y-14857809D01*
X188248157Y-14647765D01*
X188251275Y-14632092D01*
X188420493Y-14801310D01*
X188984670Y-15035000D01*
X189595330Y-15035000D01*
X190159507Y-14801310D01*
X190591310Y-14369507D01*
X190825000Y-13805330D01*
X190825000Y-13194670D01*
X190758738Y-13034700D01*
X193612272Y-13034700D01*
X193540770Y-13207321D01*
X193540770Y-13787839D01*
X193762925Y-14324167D01*
X194173413Y-14734655D01*
X194709741Y-14956810D01*
X195290259Y-14956810D01*
X195826587Y-14734655D01*
X196038367Y-14522875D01*
X210154310Y-14522875D01*
X210231419Y-14771506D01*
X210777435Y-14968657D01*
X211357334Y-14941850D01*
X211768581Y-14771506D01*
X211845690Y-14522875D01*
X211000000Y-13677185D01*
X210154310Y-14522875D01*
X196038367Y-14522875D01*
X196237075Y-14324167D01*
X196459230Y-13787839D01*
X196459230Y-13207321D01*
X196387728Y-13034700D01*
X209615694Y-13034700D01*
X209528923Y-13275015D01*
X209555730Y-13854914D01*
X209726074Y-14266161D01*
X209974705Y-14343270D01*
X210820395Y-13497580D01*
X210806253Y-13483438D01*
X210985858Y-13303833D01*
X211000000Y-13317975D01*
X211014143Y-13303833D01*
X211193748Y-13483438D01*
X211179605Y-13497580D01*
X212025295Y-14343270D01*
X212273926Y-14266161D01*
X212471077Y-13720145D01*
X212444270Y-13140246D01*
X212400551Y-13034700D01*
X214921560Y-13034700D01*
X214808796Y-13203463D01*
X214786241Y-13316857D01*
X212302598Y-15800500D01*
X212273926Y-15731279D01*
X212025295Y-15654170D01*
X211179605Y-16499860D01*
X211193748Y-16514003D01*
X211014143Y-16693608D01*
X211000000Y-16679465D01*
X210985858Y-16693608D01*
X210806253Y-16514003D01*
X210820395Y-16499860D01*
X209974705Y-15654170D01*
X209726074Y-15731279D01*
X209528923Y-16277295D01*
X209555730Y-16857194D01*
X209577437Y-16909600D01*
X196403493Y-16909600D01*
X196471077Y-16722425D01*
X196444270Y-16142526D01*
X196273926Y-15731279D01*
X196025295Y-15654170D01*
X195179605Y-16499860D01*
X195193748Y-16514003D01*
X195014143Y-16693608D01*
X195000000Y-16679465D01*
X194985858Y-16693608D01*
X194806253Y-16514003D01*
X194820395Y-16499860D01*
X193974705Y-15654170D01*
X193726074Y-15731279D01*
X193528923Y-16277295D01*
X193555730Y-16857194D01*
X193577437Y-16909600D01*
X182403493Y-16909600D01*
X182471077Y-16722425D01*
X182444270Y-16142526D01*
X182273926Y-15731279D01*
X182025295Y-15654170D01*
X181179605Y-16499860D01*
X181193748Y-16514003D01*
X181014143Y-16693608D01*
X181000000Y-16679465D01*
X180985858Y-16693608D01*
X180806253Y-16514003D01*
X180820395Y-16499860D01*
X179974705Y-15654170D01*
X179726074Y-15731279D01*
X179528923Y-16277295D01*
X179555730Y-16857194D01*
X179577437Y-16909600D01*
X166403493Y-16909600D01*
X166471077Y-16722425D01*
X166444270Y-16142526D01*
X166273926Y-15731279D01*
X166025295Y-15654170D01*
X165179605Y-16499860D01*
X165193748Y-16514003D01*
X165014143Y-16693608D01*
X165000000Y-16679465D01*
X164985858Y-16693608D01*
X164806253Y-16514003D01*
X164820395Y-16499860D01*
X163974705Y-15654170D01*
X163726074Y-15731279D01*
X163528923Y-16277295D01*
X163555730Y-16857194D01*
X163577437Y-16909600D01*
X152403493Y-16909600D01*
X152471077Y-16722425D01*
X152444270Y-16142526D01*
X152273926Y-15731279D01*
X152025295Y-15654170D01*
X151179605Y-16499860D01*
X151193748Y-16514003D01*
X151014143Y-16693608D01*
X151000000Y-16679465D01*
X150985858Y-16693608D01*
X150806253Y-16514003D01*
X150820395Y-16499860D01*
X149974705Y-15654170D01*
X149726074Y-15731279D01*
X149528923Y-16277295D01*
X149555730Y-16857194D01*
X149577437Y-16909600D01*
X138044909Y-16909600D01*
X138361580Y-16778431D01*
X138652731Y-16487280D01*
X138810300Y-16106874D01*
X138810300Y-15695126D01*
X138718941Y-15474565D01*
X150154310Y-15474565D01*
X151000000Y-16320255D01*
X151845690Y-15474565D01*
X164154310Y-15474565D01*
X165000000Y-16320255D01*
X165845690Y-15474565D01*
X180154310Y-15474565D01*
X181000000Y-16320255D01*
X181845690Y-15474565D01*
X194154310Y-15474565D01*
X195000000Y-16320255D01*
X195845690Y-15474565D01*
X210154310Y-15474565D01*
X211000000Y-16320255D01*
X211845690Y-15474565D01*
X211768581Y-15225934D01*
X211222565Y-15028783D01*
X210642666Y-15055590D01*
X210231419Y-15225934D01*
X210154310Y-15474565D01*
X195845690Y-15474565D01*
X195768581Y-15225934D01*
X195222565Y-15028783D01*
X194642666Y-15055590D01*
X194231419Y-15225934D01*
X194154310Y-15474565D01*
X181845690Y-15474565D01*
X181768581Y-15225934D01*
X181222565Y-15028783D01*
X180642666Y-15055590D01*
X180231419Y-15225934D01*
X180154310Y-15474565D01*
X165845690Y-15474565D01*
X165768581Y-15225934D01*
X165222565Y-15028783D01*
X164642666Y-15055590D01*
X164231419Y-15225934D01*
X164154310Y-15474565D01*
X151845690Y-15474565D01*
X151768581Y-15225934D01*
X151222565Y-15028783D01*
X150642666Y-15055590D01*
X150231419Y-15225934D01*
X150154310Y-15474565D01*
X138718941Y-15474565D01*
X138652731Y-15314720D01*
X138361580Y-15023569D01*
X137981174Y-14866000D01*
X137815101Y-14866000D01*
X137769031Y-14819930D01*
X137726629Y-14756471D01*
X137475237Y-14588496D01*
X137253552Y-14544400D01*
X137253547Y-14544400D01*
X137178700Y-14529512D01*
X137103853Y-14544400D01*
X136016842Y-14544400D01*
X136038367Y-14522875D01*
X150154310Y-14522875D01*
X150231419Y-14771506D01*
X150777435Y-14968657D01*
X151357334Y-14941850D01*
X151768581Y-14771506D01*
X151845690Y-14522875D01*
X151000000Y-13677185D01*
X150154310Y-14522875D01*
X136038367Y-14522875D01*
X136237075Y-14324167D01*
X136459230Y-13787839D01*
X136459230Y-13207321D01*
X136387728Y-13034700D01*
X149615694Y-13034700D01*
X149528923Y-13275015D01*
G36*
X125202560Y-7400000D02*
X125251843Y-7647765D01*
X125392191Y-7857809D01*
X125602235Y-7998157D01*
X125850000Y-8047440D01*
X126667759Y-8047440D01*
X126265528Y-8449671D01*
X126202072Y-8492071D01*
X126159672Y-8555527D01*
X126159671Y-8555528D01*
X126034097Y-8743463D01*
X125975112Y-9040000D01*
X125990001Y-9114852D01*
X125990000Y-11952560D01*
X125850000Y-11952560D01*
X125602235Y-12001843D01*
X125392191Y-12142191D01*
X125251843Y-12352235D01*
X125202560Y-12600000D01*
X125202560Y-14400000D01*
X125251843Y-14647765D01*
X125392191Y-14857809D01*
X125602235Y-14998157D01*
X125850000Y-15047440D01*
X127650000Y-15047440D01*
X127897765Y-14998157D01*
X127922577Y-14981578D01*
X128729870Y-15788872D01*
X128772271Y-15852329D01*
X128835727Y-15894729D01*
X129023662Y-16020304D01*
X129071805Y-16029880D01*
X129245348Y-16064400D01*
X129245352Y-16064400D01*
X129320200Y-16079288D01*
X129395048Y-16064400D01*
X133605793Y-16064400D01*
X133528923Y-16277295D01*
X133555730Y-16857194D01*
X133577437Y-16909600D01*
X122403493Y-16909600D01*
X122471077Y-16722425D01*
X122444270Y-16142526D01*
X122273926Y-15731279D01*
X122025295Y-15654170D01*
X121179605Y-16499860D01*
X121193748Y-16514003D01*
X121014143Y-16693608D01*
X121000000Y-16679465D01*
X120985858Y-16693608D01*
X120806253Y-16514003D01*
X120820395Y-16499860D01*
X119974705Y-15654170D01*
X119726074Y-15731279D01*
X119528923Y-16277295D01*
X119555730Y-16857194D01*
X119577437Y-16909600D01*
X112466202Y-16909600D01*
X111031167Y-15474565D01*
X120154310Y-15474565D01*
X121000000Y-16320255D01*
X121845690Y-15474565D01*
X121768581Y-15225934D01*
X121222565Y-15028783D01*
X120642666Y-15055590D01*
X120231419Y-15225934D01*
X120154310Y-15474565D01*
X111031167Y-15474565D01*
X110079477Y-14522875D01*
X120154310Y-14522875D01*
X120231419Y-14771506D01*
X120777435Y-14968657D01*
X121357334Y-14941850D01*
X121768581Y-14771506D01*
X121845690Y-14522875D01*
X121000000Y-13677185D01*
X120154310Y-14522875D01*
X110079477Y-14522875D01*
X110070931Y-14514330D01*
X110028529Y-14450871D01*
X109777137Y-14282896D01*
X109555452Y-14238800D01*
X109555447Y-14238800D01*
X109480600Y-14223912D01*
X109405753Y-14238800D01*
X106272435Y-14238800D01*
X106459230Y-13787839D01*
X106459230Y-13275015D01*
X119528923Y-13275015D01*
X119555730Y-13854914D01*
X119726074Y-14266161D01*
X119974705Y-14343270D01*
X120820395Y-13497580D01*
X121179605Y-13497580D01*
X122025295Y-14343270D01*
X122273926Y-14266161D01*
X122471077Y-13720145D01*
X122444270Y-13140246D01*
X122273926Y-12728999D01*
X122025295Y-12651890D01*
X121179605Y-13497580D01*
X120820395Y-13497580D01*
X119974705Y-12651890D01*
X119726074Y-12728999D01*
X119528923Y-13275015D01*
X106459230Y-13275015D01*
X106459230Y-13207321D01*
X106237075Y-12670993D01*
X105826587Y-12260505D01*
X105604791Y-12168634D01*
X106266026Y-11894741D01*
X106894741Y-11266026D01*
X107235000Y-10444569D01*
X107235000Y-9555431D01*
X106894741Y-8733974D01*
X106646067Y-8485300D01*
X119353933Y-8485300D01*
X119105259Y-8733974D01*
X118765000Y-9555431D01*
X118765000Y-10444569D01*
X119105259Y-11266026D01*
X119733974Y-11894741D01*
X120379729Y-12162222D01*
X120231419Y-12223654D01*
X120154310Y-12472285D01*
X121000000Y-13317975D01*
X121845690Y-12472285D01*
X121768581Y-12223654D01*
X121610105Y-12166433D01*
X122266026Y-11894741D01*
X122894741Y-11266026D01*
X123235000Y-10444569D01*
X123235000Y-9555431D01*
X122894741Y-8733974D01*
X122266026Y-8105259D01*
X121545213Y-7806688D01*
X123317302Y-6034600D01*
X125202560Y-6034600D01*
X125202560Y-7400000D01*
X125202560Y-7400000D01*
G37*
X125202560Y-7400000D02*
X125251843Y-7647765D01*
X125392191Y-7857809D01*
X125602235Y-7998157D01*
X125850000Y-8047440D01*
X126667759Y-8047440D01*
X126265528Y-8449671D01*
X126202072Y-8492071D01*
X126159672Y-8555527D01*
X126159671Y-8555528D01*
X126034097Y-8743463D01*
X125975112Y-9040000D01*
X125990001Y-9114852D01*
X125990000Y-11952560D01*
X125850000Y-11952560D01*
X125602235Y-12001843D01*
X125392191Y-12142191D01*
X125251843Y-12352235D01*
X125202560Y-12600000D01*
X125202560Y-14400000D01*
X125251843Y-14647765D01*
X125392191Y-14857809D01*
X125602235Y-14998157D01*
X125850000Y-15047440D01*
X127650000Y-15047440D01*
X127897765Y-14998157D01*
X127922577Y-14981578D01*
X128729870Y-15788872D01*
X128772271Y-15852329D01*
X128835727Y-15894729D01*
X129023662Y-16020304D01*
X129071805Y-16029880D01*
X129245348Y-16064400D01*
X129245352Y-16064400D01*
X129320200Y-16079288D01*
X129395048Y-16064400D01*
X133605793Y-16064400D01*
X133528923Y-16277295D01*
X133555730Y-16857194D01*
X133577437Y-16909600D01*
X122403493Y-16909600D01*
X122471077Y-16722425D01*
X122444270Y-16142526D01*
X122273926Y-15731279D01*
X122025295Y-15654170D01*
X121179605Y-16499860D01*
X121193748Y-16514003D01*
X121014143Y-16693608D01*
X121000000Y-16679465D01*
X120985858Y-16693608D01*
X120806253Y-16514003D01*
X120820395Y-16499860D01*
X119974705Y-15654170D01*
X119726074Y-15731279D01*
X119528923Y-16277295D01*
X119555730Y-16857194D01*
X119577437Y-16909600D01*
X112466202Y-16909600D01*
X111031167Y-15474565D01*
X120154310Y-15474565D01*
X121000000Y-16320255D01*
X121845690Y-15474565D01*
X121768581Y-15225934D01*
X121222565Y-15028783D01*
X120642666Y-15055590D01*
X120231419Y-15225934D01*
X120154310Y-15474565D01*
X111031167Y-15474565D01*
X110079477Y-14522875D01*
X120154310Y-14522875D01*
X120231419Y-14771506D01*
X120777435Y-14968657D01*
X121357334Y-14941850D01*
X121768581Y-14771506D01*
X121845690Y-14522875D01*
X121000000Y-13677185D01*
X120154310Y-14522875D01*
X110079477Y-14522875D01*
X110070931Y-14514330D01*
X110028529Y-14450871D01*
X109777137Y-14282896D01*
X109555452Y-14238800D01*
X109555447Y-14238800D01*
X109480600Y-14223912D01*
X109405753Y-14238800D01*
X106272435Y-14238800D01*
X106459230Y-13787839D01*
X106459230Y-13275015D01*
X119528923Y-13275015D01*
X119555730Y-13854914D01*
X119726074Y-14266161D01*
X119974705Y-14343270D01*
X120820395Y-13497580D01*
X121179605Y-13497580D01*
X122025295Y-14343270D01*
X122273926Y-14266161D01*
X122471077Y-13720145D01*
X122444270Y-13140246D01*
X122273926Y-12728999D01*
X122025295Y-12651890D01*
X121179605Y-13497580D01*
X120820395Y-13497580D01*
X119974705Y-12651890D01*
X119726074Y-12728999D01*
X119528923Y-13275015D01*
X106459230Y-13275015D01*
X106459230Y-13207321D01*
X106237075Y-12670993D01*
X105826587Y-12260505D01*
X105604791Y-12168634D01*
X106266026Y-11894741D01*
X106894741Y-11266026D01*
X107235000Y-10444569D01*
X107235000Y-9555431D01*
X106894741Y-8733974D01*
X106646067Y-8485300D01*
X119353933Y-8485300D01*
X119105259Y-8733974D01*
X118765000Y-9555431D01*
X118765000Y-10444569D01*
X119105259Y-11266026D01*
X119733974Y-11894741D01*
X120379729Y-12162222D01*
X120231419Y-12223654D01*
X120154310Y-12472285D01*
X121000000Y-13317975D01*
X121845690Y-12472285D01*
X121768581Y-12223654D01*
X121610105Y-12166433D01*
X122266026Y-11894741D01*
X122894741Y-11266026D01*
X123235000Y-10444569D01*
X123235000Y-9555431D01*
X122894741Y-8733974D01*
X122266026Y-8105259D01*
X121545213Y-7806688D01*
X123317302Y-6034600D01*
X125202560Y-6034600D01*
X125202560Y-7400000D01*
G36*
X269528923Y-13275015D02*
X269555730Y-13854914D01*
X269726074Y-14266161D01*
X269974705Y-14343270D01*
X270820395Y-13497580D01*
X270806253Y-13483438D01*
X270985858Y-13303833D01*
X271000000Y-13317975D01*
X271014143Y-13303833D01*
X271193748Y-13483438D01*
X271179605Y-13497580D01*
X272025295Y-14343270D01*
X272273926Y-14266161D01*
X272471077Y-13720145D01*
X272444270Y-13140246D01*
X272422215Y-13087000D01*
X274036899Y-13087000D01*
X274934370Y-13984472D01*
X274976771Y-14047929D01*
X275202560Y-14198797D01*
X275202560Y-14400000D01*
X275251843Y-14647765D01*
X275392191Y-14857809D01*
X275602235Y-14998157D01*
X275850000Y-15047440D01*
X277650000Y-15047440D01*
X277897765Y-14998157D01*
X278107809Y-14857809D01*
X278248157Y-14647765D01*
X278251275Y-14632092D01*
X278420493Y-14801310D01*
X278984670Y-15035000D01*
X279595330Y-15035000D01*
X280159507Y-14801310D01*
X280591310Y-14369507D01*
X280657620Y-14209421D01*
X281931370Y-15483172D01*
X281973771Y-15546629D01*
X282225163Y-15714604D01*
X282446848Y-15758700D01*
X282446853Y-15758700D01*
X282521700Y-15773588D01*
X282596547Y-15758700D01*
X283716173Y-15758700D01*
X283528923Y-16277295D01*
X283555730Y-16857194D01*
X283570271Y-16892300D01*
X272409740Y-16892300D01*
X272471077Y-16722425D01*
X272444270Y-16142526D01*
X272273926Y-15731279D01*
X272025295Y-15654170D01*
X271179605Y-16499860D01*
X271193748Y-16514003D01*
X271014143Y-16693608D01*
X271000000Y-16679465D01*
X270985858Y-16693608D01*
X270806253Y-16514003D01*
X270820395Y-16499860D01*
X269974705Y-15654170D01*
X269726074Y-15731279D01*
X269528923Y-16277295D01*
X269555730Y-16857194D01*
X269570271Y-16892300D01*
X256409740Y-16892300D01*
X256471077Y-16722425D01*
X256444270Y-16142526D01*
X256273926Y-15731279D01*
X256218287Y-15714023D01*
X256251531Y-15664270D01*
X256441236Y-15474565D01*
X270154310Y-15474565D01*
X271000000Y-16320255D01*
X271845690Y-15474565D01*
X271768581Y-15225934D01*
X271222565Y-15028783D01*
X270642666Y-15055590D01*
X270231419Y-15225934D01*
X270154310Y-15474565D01*
X256441236Y-15474565D01*
X257392926Y-14522875D01*
X270154310Y-14522875D01*
X270231419Y-14771506D01*
X270777435Y-14968657D01*
X271357334Y-14941850D01*
X271768581Y-14771506D01*
X271845690Y-14522875D01*
X271000000Y-13677185D01*
X270154310Y-14522875D01*
X257392926Y-14522875D01*
X258828803Y-13087000D01*
X269596810Y-13087000D01*
X269528923Y-13275015D01*
X269528923Y-13275015D01*
G37*
X269528923Y-13275015D02*
X269555730Y-13854914D01*
X269726074Y-14266161D01*
X269974705Y-14343270D01*
X270820395Y-13497580D01*
X270806253Y-13483438D01*
X270985858Y-13303833D01*
X271000000Y-13317975D01*
X271014143Y-13303833D01*
X271193748Y-13483438D01*
X271179605Y-13497580D01*
X272025295Y-14343270D01*
X272273926Y-14266161D01*
X272471077Y-13720145D01*
X272444270Y-13140246D01*
X272422215Y-13087000D01*
X274036899Y-13087000D01*
X274934370Y-13984472D01*
X274976771Y-14047929D01*
X275202560Y-14198797D01*
X275202560Y-14400000D01*
X275251843Y-14647765D01*
X275392191Y-14857809D01*
X275602235Y-14998157D01*
X275850000Y-15047440D01*
X277650000Y-15047440D01*
X277897765Y-14998157D01*
X278107809Y-14857809D01*
X278248157Y-14647765D01*
X278251275Y-14632092D01*
X278420493Y-14801310D01*
X278984670Y-15035000D01*
X279595330Y-15035000D01*
X280159507Y-14801310D01*
X280591310Y-14369507D01*
X280657620Y-14209421D01*
X281931370Y-15483172D01*
X281973771Y-15546629D01*
X282225163Y-15714604D01*
X282446848Y-15758700D01*
X282446853Y-15758700D01*
X282521700Y-15773588D01*
X282596547Y-15758700D01*
X283716173Y-15758700D01*
X283528923Y-16277295D01*
X283555730Y-16857194D01*
X283570271Y-16892300D01*
X272409740Y-16892300D01*
X272471077Y-16722425D01*
X272444270Y-16142526D01*
X272273926Y-15731279D01*
X272025295Y-15654170D01*
X271179605Y-16499860D01*
X271193748Y-16514003D01*
X271014143Y-16693608D01*
X271000000Y-16679465D01*
X270985858Y-16693608D01*
X270806253Y-16514003D01*
X270820395Y-16499860D01*
X269974705Y-15654170D01*
X269726074Y-15731279D01*
X269528923Y-16277295D01*
X269555730Y-16857194D01*
X269570271Y-16892300D01*
X256409740Y-16892300D01*
X256471077Y-16722425D01*
X256444270Y-16142526D01*
X256273926Y-15731279D01*
X256218287Y-15714023D01*
X256251531Y-15664270D01*
X256441236Y-15474565D01*
X270154310Y-15474565D01*
X271000000Y-16320255D01*
X271845690Y-15474565D01*
X271768581Y-15225934D01*
X271222565Y-15028783D01*
X270642666Y-15055590D01*
X270231419Y-15225934D01*
X270154310Y-15474565D01*
X256441236Y-15474565D01*
X257392926Y-14522875D01*
X270154310Y-14522875D01*
X270231419Y-14771506D01*
X270777435Y-14968657D01*
X271357334Y-14941850D01*
X271768581Y-14771506D01*
X271845690Y-14522875D01*
X271000000Y-13677185D01*
X270154310Y-14522875D01*
X257392926Y-14522875D01*
X258828803Y-13087000D01*
X269596810Y-13087000D01*
X269528923Y-13275015D01*
G36*
X299105259Y-8733974D02*
X298765000Y-9555431D01*
X298765000Y-10444569D01*
X299105259Y-11266026D01*
X299733974Y-11894741D01*
X300379729Y-12162222D01*
X300231419Y-12223654D01*
X300154310Y-12472285D01*
X301000000Y-13317975D01*
X301845690Y-12472285D01*
X301768581Y-12223654D01*
X301610105Y-12166433D01*
X302266026Y-11894741D01*
X302894741Y-11266026D01*
X303235000Y-10444569D01*
X303235000Y-9555431D01*
X302894741Y-8733974D01*
X302872867Y-8712100D01*
X313127133Y-8712100D01*
X313105259Y-8733974D01*
X312765000Y-9555431D01*
X312765000Y-10444569D01*
X313105259Y-11266026D01*
X313271733Y-11432500D01*
X310672346Y-11432500D01*
X310597499Y-11417612D01*
X310522652Y-11432500D01*
X310522648Y-11432500D01*
X310300963Y-11476596D01*
X310049571Y-11644571D01*
X310007171Y-11708027D01*
X309704838Y-12010360D01*
X309595330Y-11965000D01*
X308984670Y-11965000D01*
X308420493Y-12198690D01*
X308251275Y-12367908D01*
X308248157Y-12352235D01*
X308107809Y-12142191D01*
X307897765Y-12001843D01*
X307650000Y-11952560D01*
X305850000Y-11952560D01*
X305602235Y-12001843D01*
X305392191Y-12142191D01*
X305251843Y-12352235D01*
X305202560Y-12600000D01*
X305202560Y-14400000D01*
X305251843Y-14647765D01*
X305392191Y-14857809D01*
X305602235Y-14998157D01*
X305850000Y-15047440D01*
X307650000Y-15047440D01*
X307897765Y-14998157D01*
X308107809Y-14857809D01*
X308248157Y-14647765D01*
X308251275Y-14632092D01*
X308420493Y-14801310D01*
X308984670Y-15035000D01*
X309595330Y-15035000D01*
X310159507Y-14801310D01*
X310591310Y-14369507D01*
X310825000Y-13805330D01*
X310825000Y-13194670D01*
X310779640Y-13085162D01*
X310912302Y-12952500D01*
X313646321Y-12952500D01*
X313540770Y-13207321D01*
X313540770Y-13787839D01*
X313762925Y-14324167D01*
X314173413Y-14734655D01*
X314709741Y-14956810D01*
X315290259Y-14956810D01*
X315826587Y-14734655D01*
X316038367Y-14522875D01*
X330154310Y-14522875D01*
X330231419Y-14771506D01*
X330777435Y-14968657D01*
X331357334Y-14941850D01*
X331768581Y-14771506D01*
X331845690Y-14522875D01*
X331000000Y-13677185D01*
X330154310Y-14522875D01*
X316038367Y-14522875D01*
X316237075Y-14324167D01*
X316459230Y-13787839D01*
X316459230Y-13207321D01*
X316353679Y-12952500D01*
X329645374Y-12952500D01*
X329528923Y-13275015D01*
X329555730Y-13854914D01*
X329726074Y-14266161D01*
X329974705Y-14343270D01*
X330820395Y-13497580D01*
X330806253Y-13483438D01*
X330985858Y-13303833D01*
X331000000Y-13317975D01*
X331014143Y-13303833D01*
X331193748Y-13483438D01*
X331179605Y-13497580D01*
X332025295Y-14343270D01*
X332273926Y-14266161D01*
X332471077Y-13720145D01*
X332444270Y-13140246D01*
X332366503Y-12952500D01*
X334976484Y-12952500D01*
X334808796Y-13203463D01*
X334795477Y-13270421D01*
X332291703Y-15774196D01*
X332273926Y-15731279D01*
X332025295Y-15654170D01*
X331179605Y-16499860D01*
X331193748Y-16514003D01*
X331014143Y-16693608D01*
X331000000Y-16679465D01*
X330985858Y-16693608D01*
X330806253Y-16514003D01*
X330820395Y-16499860D01*
X329974705Y-15654170D01*
X329726074Y-15731279D01*
X329528923Y-16277295D01*
X329555730Y-16857194D01*
X329570271Y-16892300D01*
X316409740Y-16892300D01*
X316471077Y-16722425D01*
X316444270Y-16142526D01*
X316273926Y-15731279D01*
X316025295Y-15654170D01*
X315179605Y-16499860D01*
X315193748Y-16514003D01*
X315014143Y-16693608D01*
X315000000Y-16679465D01*
X314985858Y-16693608D01*
X314806253Y-16514003D01*
X314820395Y-16499860D01*
X313974705Y-15654170D01*
X313726074Y-15731279D01*
X313528923Y-16277295D01*
X313555730Y-16857194D01*
X313570271Y-16892300D01*
X302409740Y-16892300D01*
X302471077Y-16722425D01*
X302444270Y-16142526D01*
X302273926Y-15731279D01*
X302025295Y-15654170D01*
X301179605Y-16499860D01*
X301193748Y-16514003D01*
X301014143Y-16693608D01*
X301000000Y-16679465D01*
X300985858Y-16693608D01*
X300806253Y-16514003D01*
X300820395Y-16499860D01*
X299974705Y-15654170D01*
X299726074Y-15731279D01*
X299528923Y-16277295D01*
X299555730Y-16857194D01*
X299570271Y-16892300D01*
X294410428Y-16892300D01*
X294532300Y-16598074D01*
X294532300Y-16186326D01*
X294374731Y-15805920D01*
X294083580Y-15514769D01*
X293986519Y-15474565D01*
X300154310Y-15474565D01*
X301000000Y-16320255D01*
X301845690Y-15474565D01*
X314154310Y-15474565D01*
X315000000Y-16320255D01*
X315845690Y-15474565D01*
X330154310Y-15474565D01*
X331000000Y-16320255D01*
X331845690Y-15474565D01*
X331768581Y-15225934D01*
X331222565Y-15028783D01*
X330642666Y-15055590D01*
X330231419Y-15225934D01*
X330154310Y-15474565D01*
X315845690Y-15474565D01*
X315768581Y-15225934D01*
X315222565Y-15028783D01*
X314642666Y-15055590D01*
X314231419Y-15225934D01*
X314154310Y-15474565D01*
X301845690Y-15474565D01*
X301768581Y-15225934D01*
X301222565Y-15028783D01*
X300642666Y-15055590D01*
X300231419Y-15225934D01*
X300154310Y-15474565D01*
X293986519Y-15474565D01*
X293703174Y-15357200D01*
X293291426Y-15357200D01*
X292911020Y-15514769D01*
X292619869Y-15805920D01*
X292595977Y-15863600D01*
X291193000Y-15863600D01*
X291193000Y-15679726D01*
X291035431Y-15299320D01*
X290744280Y-15008169D01*
X290363874Y-14850600D01*
X290197803Y-14850600D01*
X289870078Y-14522875D01*
X300154310Y-14522875D01*
X300231419Y-14771506D01*
X300777435Y-14968657D01*
X301357334Y-14941850D01*
X301768581Y-14771506D01*
X301845690Y-14522875D01*
X301000000Y-13677185D01*
X300154310Y-14522875D01*
X289870078Y-14522875D01*
X288622218Y-13275015D01*
X299528923Y-13275015D01*
X299555730Y-13854914D01*
X299726074Y-14266161D01*
X299974705Y-14343270D01*
X300820395Y-13497580D01*
X301179605Y-13497580D01*
X302025295Y-14343270D01*
X302273926Y-14266161D01*
X302471077Y-13720145D01*
X302444270Y-13140246D01*
X302273926Y-12728999D01*
X302025295Y-12651890D01*
X301179605Y-13497580D01*
X300820395Y-13497580D01*
X299974705Y-12651890D01*
X299726074Y-12728999D01*
X299528923Y-13275015D01*
X288622218Y-13275015D01*
X286840131Y-11492930D01*
X286797729Y-11429471D01*
X286757905Y-11402862D01*
X286894741Y-11266026D01*
X287235000Y-10444569D01*
X287235000Y-9555431D01*
X286894741Y-8733974D01*
X286872867Y-8712100D01*
X299127133Y-8712100D01*
X299105259Y-8733974D01*
X299105259Y-8733974D01*
G37*
X299105259Y-8733974D02*
X298765000Y-9555431D01*
X298765000Y-10444569D01*
X299105259Y-11266026D01*
X299733974Y-11894741D01*
X300379729Y-12162222D01*
X300231419Y-12223654D01*
X300154310Y-12472285D01*
X301000000Y-13317975D01*
X301845690Y-12472285D01*
X301768581Y-12223654D01*
X301610105Y-12166433D01*
X302266026Y-11894741D01*
X302894741Y-11266026D01*
X303235000Y-10444569D01*
X303235000Y-9555431D01*
X302894741Y-8733974D01*
X302872867Y-8712100D01*
X313127133Y-8712100D01*
X313105259Y-8733974D01*
X312765000Y-9555431D01*
X312765000Y-10444569D01*
X313105259Y-11266026D01*
X313271733Y-11432500D01*
X310672346Y-11432500D01*
X310597499Y-11417612D01*
X310522652Y-11432500D01*
X310522648Y-11432500D01*
X310300963Y-11476596D01*
X310049571Y-11644571D01*
X310007171Y-11708027D01*
X309704838Y-12010360D01*
X309595330Y-11965000D01*
X308984670Y-11965000D01*
X308420493Y-12198690D01*
X308251275Y-12367908D01*
X308248157Y-12352235D01*
X308107809Y-12142191D01*
X307897765Y-12001843D01*
X307650000Y-11952560D01*
X305850000Y-11952560D01*
X305602235Y-12001843D01*
X305392191Y-12142191D01*
X305251843Y-12352235D01*
X305202560Y-12600000D01*
X305202560Y-14400000D01*
X305251843Y-14647765D01*
X305392191Y-14857809D01*
X305602235Y-14998157D01*
X305850000Y-15047440D01*
X307650000Y-15047440D01*
X307897765Y-14998157D01*
X308107809Y-14857809D01*
X308248157Y-14647765D01*
X308251275Y-14632092D01*
X308420493Y-14801310D01*
X308984670Y-15035000D01*
X309595330Y-15035000D01*
X310159507Y-14801310D01*
X310591310Y-14369507D01*
X310825000Y-13805330D01*
X310825000Y-13194670D01*
X310779640Y-13085162D01*
X310912302Y-12952500D01*
X313646321Y-12952500D01*
X313540770Y-13207321D01*
X313540770Y-13787839D01*
X313762925Y-14324167D01*
X314173413Y-14734655D01*
X314709741Y-14956810D01*
X315290259Y-14956810D01*
X315826587Y-14734655D01*
X316038367Y-14522875D01*
X330154310Y-14522875D01*
X330231419Y-14771506D01*
X330777435Y-14968657D01*
X331357334Y-14941850D01*
X331768581Y-14771506D01*
X331845690Y-14522875D01*
X331000000Y-13677185D01*
X330154310Y-14522875D01*
X316038367Y-14522875D01*
X316237075Y-14324167D01*
X316459230Y-13787839D01*
X316459230Y-13207321D01*
X316353679Y-12952500D01*
X329645374Y-12952500D01*
X329528923Y-13275015D01*
X329555730Y-13854914D01*
X329726074Y-14266161D01*
X329974705Y-14343270D01*
X330820395Y-13497580D01*
X330806253Y-13483438D01*
X330985858Y-13303833D01*
X331000000Y-13317975D01*
X331014143Y-13303833D01*
X331193748Y-13483438D01*
X331179605Y-13497580D01*
X332025295Y-14343270D01*
X332273926Y-14266161D01*
X332471077Y-13720145D01*
X332444270Y-13140246D01*
X332366503Y-12952500D01*
X334976484Y-12952500D01*
X334808796Y-13203463D01*
X334795477Y-13270421D01*
X332291703Y-15774196D01*
X332273926Y-15731279D01*
X332025295Y-15654170D01*
X331179605Y-16499860D01*
X331193748Y-16514003D01*
X331014143Y-16693608D01*
X331000000Y-16679465D01*
X330985858Y-16693608D01*
X330806253Y-16514003D01*
X330820395Y-16499860D01*
X329974705Y-15654170D01*
X329726074Y-15731279D01*
X329528923Y-16277295D01*
X329555730Y-16857194D01*
X329570271Y-16892300D01*
X316409740Y-16892300D01*
X316471077Y-16722425D01*
X316444270Y-16142526D01*
X316273926Y-15731279D01*
X316025295Y-15654170D01*
X315179605Y-16499860D01*
X315193748Y-16514003D01*
X315014143Y-16693608D01*
X315000000Y-16679465D01*
X314985858Y-16693608D01*
X314806253Y-16514003D01*
X314820395Y-16499860D01*
X313974705Y-15654170D01*
X313726074Y-15731279D01*
X313528923Y-16277295D01*
X313555730Y-16857194D01*
X313570271Y-16892300D01*
X302409740Y-16892300D01*
X302471077Y-16722425D01*
X302444270Y-16142526D01*
X302273926Y-15731279D01*
X302025295Y-15654170D01*
X301179605Y-16499860D01*
X301193748Y-16514003D01*
X301014143Y-16693608D01*
X301000000Y-16679465D01*
X300985858Y-16693608D01*
X300806253Y-16514003D01*
X300820395Y-16499860D01*
X299974705Y-15654170D01*
X299726074Y-15731279D01*
X299528923Y-16277295D01*
X299555730Y-16857194D01*
X299570271Y-16892300D01*
X294410428Y-16892300D01*
X294532300Y-16598074D01*
X294532300Y-16186326D01*
X294374731Y-15805920D01*
X294083580Y-15514769D01*
X293986519Y-15474565D01*
X300154310Y-15474565D01*
X301000000Y-16320255D01*
X301845690Y-15474565D01*
X314154310Y-15474565D01*
X315000000Y-16320255D01*
X315845690Y-15474565D01*
X330154310Y-15474565D01*
X331000000Y-16320255D01*
X331845690Y-15474565D01*
X331768581Y-15225934D01*
X331222565Y-15028783D01*
X330642666Y-15055590D01*
X330231419Y-15225934D01*
X330154310Y-15474565D01*
X315845690Y-15474565D01*
X315768581Y-15225934D01*
X315222565Y-15028783D01*
X314642666Y-15055590D01*
X314231419Y-15225934D01*
X314154310Y-15474565D01*
X301845690Y-15474565D01*
X301768581Y-15225934D01*
X301222565Y-15028783D01*
X300642666Y-15055590D01*
X300231419Y-15225934D01*
X300154310Y-15474565D01*
X293986519Y-15474565D01*
X293703174Y-15357200D01*
X293291426Y-15357200D01*
X292911020Y-15514769D01*
X292619869Y-15805920D01*
X292595977Y-15863600D01*
X291193000Y-15863600D01*
X291193000Y-15679726D01*
X291035431Y-15299320D01*
X290744280Y-15008169D01*
X290363874Y-14850600D01*
X290197803Y-14850600D01*
X289870078Y-14522875D01*
X300154310Y-14522875D01*
X300231419Y-14771506D01*
X300777435Y-14968657D01*
X301357334Y-14941850D01*
X301768581Y-14771506D01*
X301845690Y-14522875D01*
X301000000Y-13677185D01*
X300154310Y-14522875D01*
X289870078Y-14522875D01*
X288622218Y-13275015D01*
X299528923Y-13275015D01*
X299555730Y-13854914D01*
X299726074Y-14266161D01*
X299974705Y-14343270D01*
X300820395Y-13497580D01*
X301179605Y-13497580D01*
X302025295Y-14343270D01*
X302273926Y-14266161D01*
X302471077Y-13720145D01*
X302444270Y-13140246D01*
X302273926Y-12728999D01*
X302025295Y-12651890D01*
X301179605Y-13497580D01*
X300820395Y-13497580D01*
X299974705Y-12651890D01*
X299726074Y-12728999D01*
X299528923Y-13275015D01*
X288622218Y-13275015D01*
X286840131Y-11492930D01*
X286797729Y-11429471D01*
X286757905Y-11402862D01*
X286894741Y-11266026D01*
X287235000Y-10444569D01*
X287235000Y-9555431D01*
X286894741Y-8733974D01*
X286872867Y-8712100D01*
X299127133Y-8712100D01*
X299105259Y-8733974D01*
G36*
X345193748Y-16485718D02*
X345179605Y-16499860D01*
X345193748Y-16514003D01*
X345014143Y-16693608D01*
X345000000Y-16679465D01*
X344985858Y-16693608D01*
X344806253Y-16514003D01*
X344820395Y-16499860D01*
X344806253Y-16485718D01*
X344985858Y-16306113D01*
X345000000Y-16320255D01*
X345014143Y-16306113D01*
X345193748Y-16485718D01*
X345193748Y-16485718D01*
G37*
X345193748Y-16485718D02*
X345179605Y-16499860D01*
X345193748Y-16514003D01*
X345014143Y-16693608D01*
X345000000Y-16679465D01*
X344985858Y-16693608D01*
X344806253Y-16514003D01*
X344820395Y-16499860D01*
X344806253Y-16485718D01*
X344985858Y-16306113D01*
X345000000Y-16320255D01*
X345014143Y-16306113D01*
X345193748Y-16485718D01*
G36*
X495193748Y-16485718D02*
X495179605Y-16499860D01*
X495193748Y-16514003D01*
X495014143Y-16693608D01*
X495000000Y-16679465D01*
X494985858Y-16693608D01*
X494806253Y-16514003D01*
X494820395Y-16499860D01*
X494806253Y-16485718D01*
X494985858Y-16306113D01*
X495000000Y-16320255D01*
X495014143Y-16306113D01*
X495193748Y-16485718D01*
X495193748Y-16485718D01*
G37*
X495193748Y-16485718D02*
X495179605Y-16499860D01*
X495193748Y-16514003D01*
X495014143Y-16693608D01*
X495000000Y-16679465D01*
X494985858Y-16693608D01*
X494806253Y-16514003D01*
X494820395Y-16499860D01*
X494806253Y-16485718D01*
X494985858Y-16306113D01*
X495000000Y-16320255D01*
X495014143Y-16306113D01*
X495193748Y-16485718D01*
G36*
X75193748Y-16485718D02*
X75179605Y-16499860D01*
X75193748Y-16514003D01*
X75014143Y-16693608D01*
X75000000Y-16679465D01*
X74985858Y-16693608D01*
X74806253Y-16514003D01*
X74820395Y-16499860D01*
X74806253Y-16485718D01*
X74985858Y-16306113D01*
X75000000Y-16320255D01*
X75014143Y-16306113D01*
X75193748Y-16485718D01*
X75193748Y-16485718D01*
G37*
X75193748Y-16485718D02*
X75179605Y-16499860D01*
X75193748Y-16514003D01*
X75014143Y-16693608D01*
X75000000Y-16679465D01*
X74985858Y-16693608D01*
X74806253Y-16514003D01*
X74820395Y-16499860D01*
X74806253Y-16485718D01*
X74985858Y-16306113D01*
X75000000Y-16320255D01*
X75014143Y-16306113D01*
X75193748Y-16485718D01*
G36*
X105193748Y-16485718D02*
X105179605Y-16499860D01*
X105193748Y-16514003D01*
X105014143Y-16693608D01*
X105000000Y-16679465D01*
X104985858Y-16693608D01*
X104806253Y-16514003D01*
X104820395Y-16499860D01*
X104806253Y-16485718D01*
X104985858Y-16306113D01*
X105000000Y-16320255D01*
X105014143Y-16306113D01*
X105193748Y-16485718D01*
X105193748Y-16485718D01*
G37*
X105193748Y-16485718D02*
X105179605Y-16499860D01*
X105193748Y-16514003D01*
X105014143Y-16693608D01*
X105000000Y-16679465D01*
X104985858Y-16693608D01*
X104806253Y-16514003D01*
X104820395Y-16499860D01*
X104806253Y-16485718D01*
X104985858Y-16306113D01*
X105000000Y-16320255D01*
X105014143Y-16306113D01*
X105193748Y-16485718D01*
G36*
X135193748Y-16485718D02*
X135179605Y-16499860D01*
X135193748Y-16514003D01*
X135014143Y-16693608D01*
X135000000Y-16679465D01*
X134985858Y-16693608D01*
X134806253Y-16514003D01*
X134820395Y-16499860D01*
X134806253Y-16485718D01*
X134985858Y-16306113D01*
X135000000Y-16320255D01*
X135014143Y-16306113D01*
X135193748Y-16485718D01*
X135193748Y-16485718D01*
G37*
X135193748Y-16485718D02*
X135179605Y-16499860D01*
X135193748Y-16514003D01*
X135014143Y-16693608D01*
X135000000Y-16679465D01*
X134985858Y-16693608D01*
X134806253Y-16514003D01*
X134820395Y-16499860D01*
X134806253Y-16485718D01*
X134985858Y-16306113D01*
X135000000Y-16320255D01*
X135014143Y-16306113D01*
X135193748Y-16485718D01*
G36*
X285193748Y-16485718D02*
X285179605Y-16499860D01*
X285193748Y-16514003D01*
X285014143Y-16693608D01*
X285000000Y-16679465D01*
X284985858Y-16693608D01*
X284806253Y-16514003D01*
X284820395Y-16499860D01*
X284806253Y-16485718D01*
X284985858Y-16306113D01*
X285000000Y-16320255D01*
X285014143Y-16306113D01*
X285193748Y-16485718D01*
X285193748Y-16485718D01*
G37*
X285193748Y-16485718D02*
X285179605Y-16499860D01*
X285193748Y-16514003D01*
X285014143Y-16693608D01*
X285000000Y-16679465D01*
X284985858Y-16693608D01*
X284806253Y-16514003D01*
X284820395Y-16499860D01*
X284806253Y-16485718D01*
X284985858Y-16306113D01*
X285000000Y-16320255D01*
X285014143Y-16306113D01*
X285193748Y-16485718D01*
G36*
X255193748Y-16485718D02*
X255179605Y-16499860D01*
X255193748Y-16514003D01*
X255014143Y-16693608D01*
X255000000Y-16679465D01*
X254985858Y-16693608D01*
X254806253Y-16514003D01*
X254820395Y-16499860D01*
X254806253Y-16485718D01*
X254985858Y-16306113D01*
X255000000Y-16320255D01*
X255014143Y-16306113D01*
X255193748Y-16485718D01*
X255193748Y-16485718D01*
G37*
X255193748Y-16485718D02*
X255179605Y-16499860D01*
X255193748Y-16514003D01*
X255014143Y-16693608D01*
X255000000Y-16679465D01*
X254985858Y-16693608D01*
X254806253Y-16514003D01*
X254820395Y-16499860D01*
X254806253Y-16485718D01*
X254985858Y-16306113D01*
X255000000Y-16320255D01*
X255014143Y-16306113D01*
X255193748Y-16485718D01*
G36*
X241193748Y-16485718D02*
X241179605Y-16499860D01*
X241193748Y-16514003D01*
X241014143Y-16693608D01*
X241000000Y-16679465D01*
X240985858Y-16693608D01*
X240806253Y-16514003D01*
X240820395Y-16499860D01*
X240806253Y-16485718D01*
X240985858Y-16306113D01*
X241000000Y-16320255D01*
X241014143Y-16306113D01*
X241193748Y-16485718D01*
X241193748Y-16485718D01*
G37*
X241193748Y-16485718D02*
X241179605Y-16499860D01*
X241193748Y-16514003D01*
X241014143Y-16693608D01*
X241000000Y-16679465D01*
X240985858Y-16693608D01*
X240806253Y-16514003D01*
X240820395Y-16499860D01*
X240806253Y-16485718D01*
X240985858Y-16306113D01*
X241000000Y-16320255D01*
X241014143Y-16306113D01*
X241193748Y-16485718D01*
G36*
X223540770Y-13207321D02*
X223540770Y-13787839D01*
X223762925Y-14324167D01*
X224173413Y-14734655D01*
X224709741Y-14956810D01*
X225265590Y-14956810D01*
X225258500Y-14973926D01*
X225258500Y-15041758D01*
X225222565Y-15028783D01*
X224642666Y-15055590D01*
X224231419Y-15225934D01*
X224154310Y-15474565D01*
X225000000Y-16320255D01*
X225014143Y-16306113D01*
X225193748Y-16485718D01*
X225179605Y-16499860D01*
X225193748Y-16514003D01*
X225014143Y-16693608D01*
X225000000Y-16679465D01*
X224985858Y-16693608D01*
X224806253Y-16514003D01*
X224820395Y-16499860D01*
X223974705Y-15654170D01*
X223726074Y-15731279D01*
X223528923Y-16277295D01*
X223547672Y-16682870D01*
X220779640Y-13914839D01*
X220825000Y-13805330D01*
X220825000Y-13194670D01*
X220758738Y-13034700D01*
X223612272Y-13034700D01*
X223540770Y-13207321D01*
X223540770Y-13207321D01*
G37*
X223540770Y-13207321D02*
X223540770Y-13787839D01*
X223762925Y-14324167D01*
X224173413Y-14734655D01*
X224709741Y-14956810D01*
X225265590Y-14956810D01*
X225258500Y-14973926D01*
X225258500Y-15041758D01*
X225222565Y-15028783D01*
X224642666Y-15055590D01*
X224231419Y-15225934D01*
X224154310Y-15474565D01*
X225000000Y-16320255D01*
X225014143Y-16306113D01*
X225193748Y-16485718D01*
X225179605Y-16499860D01*
X225193748Y-16514003D01*
X225014143Y-16693608D01*
X225000000Y-16679465D01*
X224985858Y-16693608D01*
X224806253Y-16514003D01*
X224820395Y-16499860D01*
X223974705Y-15654170D01*
X223726074Y-15731279D01*
X223528923Y-16277295D01*
X223547672Y-16682870D01*
X220779640Y-13914839D01*
X220825000Y-13805330D01*
X220825000Y-13194670D01*
X220758738Y-13034700D01*
X223612272Y-13034700D01*
X223540770Y-13207321D01*
G36*
X241193748Y-13483438D02*
X241179605Y-13497580D01*
X241193748Y-13511723D01*
X241014143Y-13691328D01*
X241000000Y-13677185D01*
X240985858Y-13691328D01*
X240806253Y-13511723D01*
X240820395Y-13497580D01*
X240806253Y-13483438D01*
X240985858Y-13303833D01*
X241000000Y-13317975D01*
X241014143Y-13303833D01*
X241193748Y-13483438D01*
X241193748Y-13483438D01*
G37*
X241193748Y-13483438D02*
X241179605Y-13497580D01*
X241193748Y-13511723D01*
X241014143Y-13691328D01*
X241000000Y-13677185D01*
X240985858Y-13691328D01*
X240806253Y-13511723D01*
X240820395Y-13497580D01*
X240806253Y-13483438D01*
X240985858Y-13303833D01*
X241000000Y-13317975D01*
X241014143Y-13303833D01*
X241193748Y-13483438D01*
G04 #@! TD*
M02*
