M48
;DRILL file {KiCad (5.0.0)} date 01/12/19 18:14:02
;FORMAT={-:-/ absolute / inch / decimal}
FMAT,2
INCH,TZ
T1C0.0157
T2C0.0354
T3C0.0394
T4C0.0433
%
G90
G05
M72
T1
X3.3886Y-0.5688
X4.6717Y-0.1803
X5.4242Y-0.626
X8.9092Y-0.5976
X9.1416Y-0.1612
X11.4235Y-0.6254
X11.555Y-0.6454
X11.8962Y-0.1563
X11.989Y-0.18
X13.8868Y-0.2096
X15.4951Y-0.3514
T2
X17.9823Y-0.5315
X18.0823Y-0.5315
X1.4469Y-0.5315
X1.5469Y-0.5315
X7.3524Y-0.2559
X7.4524Y-0.2559
X6.1713Y-0.5315
X6.2713Y-0.5315
X1.4469Y-0.2559
X1.5469Y-0.2559
X12.0768Y-0.5315
X12.1768Y-0.5315
X19.1634Y-0.5315
X19.2634Y-0.5315
X13.2579Y-0.5315
X13.3579Y-0.5315
X8.5335Y-0.5315
X8.6335Y-0.5315
X10.8957Y-0.2559
X10.9957Y-0.2559
X14.439Y-0.5315
X14.539Y-0.5315
X14.439Y-0.2559
X14.539Y-0.2559
X16.8012Y-0.2559
X16.9012Y-0.2559
X12.0768Y-0.2559
X12.1768Y-0.2559
X6.1713Y-0.2559
X6.2713Y-0.2559
X2.628Y-0.5315
X2.728Y-0.5315
X17.9823Y-0.2559
X18.0823Y-0.2559
X16.8012Y-0.5315
X16.9012Y-0.5315
X4.9902Y-0.2559
X5.0902Y-0.2559
X13.2579Y-0.2559
X13.3579Y-0.2559
X15.6201Y-0.2559
X15.7201Y-0.2559
X4.9902Y-0.5315
X5.0902Y-0.5315
X19.1634Y-0.2559
X19.2634Y-0.2559
X7.3524Y-0.5315
X7.4524Y-0.5315
X2.628Y-0.2559
X2.728Y-0.2559
X15.6201Y-0.5315
X15.7201Y-0.5315
X9.7146Y-0.2559
X9.8146Y-0.2559
X8.5335Y-0.2559
X8.6335Y-0.2559
X9.7146Y-0.5315
X9.8146Y-0.5315
X3.8091Y-0.5315
X3.9091Y-0.5315
X3.8091Y-0.2559
X3.9091Y-0.2559
X10.8957Y-0.5315
X10.9957Y-0.5315
T3
X0.1969Y-0.5315
X0.1969Y-0.6315
X0.2969Y-0.5315
X0.2969Y-0.6315
X0.3969Y-0.5315
X0.3969Y-0.6315
X0.4969Y-0.5315
X0.4969Y-0.6315
X0.5969Y-0.5315
X0.5969Y-0.6315
X20.0787Y-0.5315
X20.0787Y-0.6315
X20.1787Y-0.5315
X20.1787Y-0.6315
X20.2787Y-0.5315
X20.2787Y-0.6315
X20.3787Y-0.5315
X20.3787Y-0.6315
X20.4787Y-0.5315
X20.4787Y-0.6315
X0.1969Y-0.1575
X0.1969Y-0.2575
X0.2969Y-0.1575
X0.2969Y-0.2575
X0.3969Y-0.1575
X0.3969Y-0.2575
X0.4969Y-0.1575
X0.4969Y-0.2575
X0.5969Y-0.1575
X0.5969Y-0.2575
X0.6969Y-0.1575
X0.6969Y-0.2575
X20.0787Y-0.1575
X20.0787Y-0.2575
X20.1787Y-0.1575
X20.1787Y-0.2575
X20.2787Y-0.1575
X20.2787Y-0.2575
X20.3787Y-0.1575
X20.3787Y-0.2575
X20.4787Y-0.1575
X20.4787Y-0.2575
T4
X2.4016Y-0.1969
X2.4016Y-0.5314
X2.4016Y-0.6496
X3.5827Y-0.1969
X3.5827Y-0.5314
X3.5827Y-0.6496
X16.5748Y-0.1969
X16.5748Y-0.5314
X16.5748Y-0.6496
X1.2205Y-0.1969
X1.2205Y-0.5314
X1.2205Y-0.6496
X5.9449Y-0.1969
X5.9449Y-0.5314
X5.9449Y-0.6496
X10.6693Y-0.1969
X10.6693Y-0.5314
X10.6693Y-0.6496
X4.7638Y-0.1969
X4.7638Y-0.5314
X4.7638Y-0.6496
X14.7638Y-0.1969
X14.7638Y-0.5314
X14.7638Y-0.6496
X6.4961Y-0.1969
X6.4961Y-0.5314
X6.4961Y-0.6496
X17.7559Y-0.1969
X17.7559Y-0.5314
X17.7559Y-0.6496
X8.3071Y-0.1969
X8.3071Y-0.5314
X8.3071Y-0.6496
X19.4882Y-0.1969
X19.4882Y-0.5314
X19.4882Y-0.6496
X5.315Y-0.1969
X5.315Y-0.5314
X5.315Y-0.6496
X15.9449Y-0.1969
X15.9449Y-0.5314
X15.9449Y-0.6496
X18.937Y-0.1969
X18.937Y-0.5314
X18.937Y-0.6496
X2.9528Y-0.1969
X2.9528Y-0.5314
X2.9528Y-0.6496
X13.5827Y-0.1969
X13.5827Y-0.5314
X13.5827Y-0.6496
X7.6772Y-0.1969
X7.6772Y-0.5314
X7.6772Y-0.6496
X14.2126Y-0.1969
X14.2126Y-0.5314
X14.2126Y-0.6496
X13.0315Y-0.1969
X13.0315Y-0.5314
X13.0315Y-0.6496
X4.1339Y-0.1969
X4.1339Y-0.5314
X4.1339Y-0.6496
X10.0394Y-0.1969
X10.0394Y-0.5314
X10.0394Y-0.6496
X17.126Y-0.1969
X17.126Y-0.5314
X17.126Y-0.6496
X1.7717Y-0.1969
X1.7717Y-0.5314
X1.7717Y-0.6496
X11.8504Y-0.1969
X11.8504Y-0.5314
X11.8504Y-0.6496
X12.4016Y-0.1969
X12.4016Y-0.5314
X12.4016Y-0.6496
X8.8583Y-0.1969
X8.8583Y-0.5314
X8.8583Y-0.6496
X7.126Y-0.1969
X7.126Y-0.5314
X7.126Y-0.6496
X11.2205Y-0.1969
X11.2205Y-0.5314
X11.2205Y-0.6496
X9.4882Y-0.1969
X9.4882Y-0.5314
X9.4882Y-0.6496
X15.3937Y-0.1969
X15.3937Y-0.5314
X15.3937Y-0.6496
X18.3071Y-0.1969
X18.3071Y-0.5314
X18.3071Y-0.6496
T0
M30
