G04 #@! TF.GenerationSoftware,KiCad,Pcbnew,(5.0.0)*
G04 #@! TF.CreationDate,2019-01-13T17:55:36+01:00*
G04 #@! TF.ProjectId,1u_complex_bus_frontboard,31755F636F6D706C65785F6275735F66,rev?*
G04 #@! TF.SameCoordinates,Original*
G04 #@! TF.FileFunction,Copper,L1,Top,Signal*
G04 #@! TF.FilePolarity,Positive*
%FSLAX46Y46*%
G04 Gerber Fmt 4.6, Leading zero omitted, Abs format (unit mm)*
G04 Created by KiCad (PCBNEW (5.0.0)) date 01/13/19 17:55:36*
%MOMM*%
%LPD*%
G01*
G04 APERTURE LIST*
G04 #@! TA.AperFunction,ComponentPad*
%ADD10R,1.800000X1.800000*%
G04 #@! TD*
G04 #@! TA.AperFunction,ComponentPad*
%ADD11C,1.800000*%
G04 #@! TD*
G04 #@! TA.AperFunction,ComponentPad*
%ADD12C,1.648460*%
G04 #@! TD*
G04 #@! TA.AperFunction,ComponentPad*
%ADD13R,1.648460X1.648460*%
G04 #@! TD*
G04 #@! TA.AperFunction,ComponentPad*
%ADD14C,2.794000*%
G04 #@! TD*
G04 #@! TA.AperFunction,ComponentPad*
%ADD15R,1.700000X1.700000*%
G04 #@! TD*
G04 #@! TA.AperFunction,ComponentPad*
%ADD16O,1.700000X1.700000*%
G04 #@! TD*
G04 #@! TA.AperFunction,ViaPad*
%ADD17C,0.800000*%
G04 #@! TD*
G04 #@! TA.AperFunction,Conductor*
%ADD18C,0.250000*%
G04 #@! TD*
G04 #@! TA.AperFunction,Conductor*
%ADD19C,0.254000*%
G04 #@! TD*
G04 APERTURE END LIST*
D10*
G04 #@! TO.P,D_POS_1_3,1*
G04 #@! TO.N,Net-(D_POS_1_3-Pad1)*
X276750000Y-6500000D03*
D11*
G04 #@! TO.P,D_POS_1_3,2*
G04 #@! TO.N,Net-(D_POS_1_2-Pad1)*
X279290000Y-6500000D03*
G04 #@! TD*
D10*
G04 #@! TO.P,D_POS_3_3,1*
G04 #@! TO.N,Net-(D_POS_3_3-Pad1)*
X336750000Y-6500000D03*
D11*
G04 #@! TO.P,D_POS_3_3,2*
G04 #@! TO.N,Net-(D_POS_3_2-Pad1)*
X339290000Y-6500000D03*
G04 #@! TD*
D10*
G04 #@! TO.P,D_POS_2_3,1*
G04 #@! TO.N,Net-(D_POS_2_3-Pad1)*
X306750000Y-6500000D03*
D11*
G04 #@! TO.P,D_POS_2_3,2*
G04 #@! TO.N,Net-(D_POS_2_2-Pad1)*
X309290000Y-6500000D03*
G04 #@! TD*
D10*
G04 #@! TO.P,D_NEG_2_4,1*
G04 #@! TO.N,Net-(D_NEG_2_3-Pad2)*
X426750000Y-13500000D03*
D11*
G04 #@! TO.P,D_NEG_2_4,2*
G04 #@! TO.N,/cv_bus2/FB_LEDS_OUT_2*
X429290000Y-13500000D03*
G04 #@! TD*
D10*
G04 #@! TO.P,D_NEG_3_3,1*
G04 #@! TO.N,Net-(D_NEG_3_2-Pad2)*
X336750000Y-13500000D03*
D11*
G04 #@! TO.P,D_NEG_3_3,2*
G04 #@! TO.N,Net-(D_NEG_3_3-Pad2)*
X339290000Y-13500000D03*
G04 #@! TD*
D10*
G04 #@! TO.P,D_NEG_4_2,1*
G04 #@! TO.N,Net-(D_NEG_4_1-Pad2)*
X246750000Y-13500000D03*
D11*
G04 #@! TO.P,D_NEG_4_2,2*
G04 #@! TO.N,Net-(D_NEG_4_2-Pad2)*
X249290000Y-13500000D03*
G04 #@! TD*
G04 #@! TO.P,D_POS_1_1,2*
G04 #@! TO.N,/cv_bus1/FB_LEDS_IN_1*
X39290000Y-6500000D03*
D10*
G04 #@! TO.P,D_POS_1_1,1*
G04 #@! TO.N,Net-(D_POS_1_1-Pad1)*
X36750000Y-6500000D03*
G04 #@! TD*
G04 #@! TO.P,D_POS_1_2,1*
G04 #@! TO.N,Net-(D_POS_1_2-Pad1)*
X156750000Y-6500000D03*
D11*
G04 #@! TO.P,D_POS_1_2,2*
G04 #@! TO.N,Net-(D_POS_1_1-Pad1)*
X159290000Y-6500000D03*
G04 #@! TD*
G04 #@! TO.P,D_POS_2_2,2*
G04 #@! TO.N,Net-(D_POS_2_1-Pad1)*
X189290000Y-6500000D03*
D10*
G04 #@! TO.P,D_POS_2_2,1*
G04 #@! TO.N,Net-(D_POS_2_2-Pad1)*
X186750000Y-6500000D03*
G04 #@! TD*
D11*
G04 #@! TO.P,D_NEG_3_1,2*
G04 #@! TO.N,Net-(D_NEG_3_1-Pad2)*
X99290000Y-13500000D03*
D10*
G04 #@! TO.P,D_NEG_3_1,1*
G04 #@! TO.N,/cv_bus3/FB_LEDS_IN_3*
X96750000Y-13500000D03*
G04 #@! TD*
D11*
G04 #@! TO.P,D_POS_3_1,2*
G04 #@! TO.N,/cv_bus3/FB_LEDS_IN_3*
X99290000Y-6500000D03*
D10*
G04 #@! TO.P,D_POS_3_1,1*
G04 #@! TO.N,Net-(D_POS_3_1-Pad1)*
X96750000Y-6500000D03*
G04 #@! TD*
D11*
G04 #@! TO.P,D_POS_2_1,2*
G04 #@! TO.N,/cv_bus2/FB_LEDS_IN_2*
X69290000Y-6500000D03*
D10*
G04 #@! TO.P,D_POS_2_1,1*
G04 #@! TO.N,Net-(D_POS_2_1-Pad1)*
X66750000Y-6500000D03*
G04 #@! TD*
D11*
G04 #@! TO.P,D_NEG_3_2,2*
G04 #@! TO.N,Net-(D_NEG_3_2-Pad2)*
X219290000Y-13500000D03*
D10*
G04 #@! TO.P,D_NEG_3_2,1*
G04 #@! TO.N,Net-(D_NEG_3_1-Pad2)*
X216750000Y-13500000D03*
G04 #@! TD*
G04 #@! TO.P,D_NEG_4_1,1*
G04 #@! TO.N,/cv_bus4/FB_LEDS_IN_4*
X126750000Y-13500000D03*
D11*
G04 #@! TO.P,D_NEG_4_1,2*
G04 #@! TO.N,Net-(D_NEG_4_1-Pad2)*
X129290000Y-13500000D03*
G04 #@! TD*
G04 #@! TO.P,D_POS_3_2,2*
G04 #@! TO.N,Net-(D_POS_3_1-Pad1)*
X219290000Y-6500000D03*
D10*
G04 #@! TO.P,D_POS_3_2,1*
G04 #@! TO.N,Net-(D_POS_3_2-Pad1)*
X216750000Y-6500000D03*
G04 #@! TD*
D11*
G04 #@! TO.P,D_NEG_2_3,2*
G04 #@! TO.N,Net-(D_NEG_2_3-Pad2)*
X309290000Y-13500000D03*
D10*
G04 #@! TO.P,D_NEG_2_3,1*
G04 #@! TO.N,Net-(D_NEG_2_2-Pad2)*
X306750000Y-13500000D03*
G04 #@! TD*
D11*
G04 #@! TO.P,D_NEG_4_3,2*
G04 #@! TO.N,Net-(D_NEG_4_3-Pad2)*
X369290000Y-13500000D03*
D10*
G04 #@! TO.P,D_NEG_4_3,1*
G04 #@! TO.N,Net-(D_NEG_4_2-Pad2)*
X366750000Y-13500000D03*
G04 #@! TD*
D11*
G04 #@! TO.P,D_POS_2_4,2*
G04 #@! TO.N,Net-(D_POS_2_3-Pad1)*
X429290000Y-6500000D03*
D10*
G04 #@! TO.P,D_POS_2_4,1*
G04 #@! TO.N,/cv_bus2/FB_LEDS_OUT_2*
X426750000Y-6500000D03*
G04 #@! TD*
G04 #@! TO.P,D_NEG_2_2,1*
G04 #@! TO.N,Net-(D_NEG_2_1-Pad2)*
X186750000Y-13500000D03*
D11*
G04 #@! TO.P,D_NEG_2_2,2*
G04 #@! TO.N,Net-(D_NEG_2_2-Pad2)*
X189290000Y-13500000D03*
G04 #@! TD*
D10*
G04 #@! TO.P,D_NEG_4_4,1*
G04 #@! TO.N,Net-(D_NEG_4_3-Pad2)*
X486750000Y-13500000D03*
D11*
G04 #@! TO.P,D_NEG_4_4,2*
G04 #@! TO.N,/cv_bus4/FB_LEDS_OUT_4*
X489290000Y-13500000D03*
G04 #@! TD*
G04 #@! TO.P,D_NEG_1_1,2*
G04 #@! TO.N,Net-(D_NEG_1_1-Pad2)*
X39290000Y-13500000D03*
D10*
G04 #@! TO.P,D_NEG_1_1,1*
G04 #@! TO.N,/cv_bus1/FB_LEDS_IN_1*
X36750000Y-13500000D03*
G04 #@! TD*
G04 #@! TO.P,D_POS_4_3,1*
G04 #@! TO.N,Net-(D_POS_4_3-Pad1)*
X366750000Y-6500000D03*
D11*
G04 #@! TO.P,D_POS_4_3,2*
G04 #@! TO.N,Net-(D_POS_4_2-Pad1)*
X369290000Y-6500000D03*
G04 #@! TD*
D10*
G04 #@! TO.P,D_NEG_2_1,1*
G04 #@! TO.N,/cv_bus2/FB_LEDS_IN_2*
X66750000Y-13500000D03*
D11*
G04 #@! TO.P,D_NEG_2_1,2*
G04 #@! TO.N,Net-(D_NEG_2_1-Pad2)*
X69290000Y-13500000D03*
G04 #@! TD*
G04 #@! TO.P,D_POS_4_2,2*
G04 #@! TO.N,Net-(D_POS_4_1-Pad1)*
X249290000Y-6500000D03*
D10*
G04 #@! TO.P,D_POS_4_2,1*
G04 #@! TO.N,Net-(D_POS_4_2-Pad1)*
X246750000Y-6500000D03*
G04 #@! TD*
G04 #@! TO.P,D_NEG_3_4,1*
G04 #@! TO.N,Net-(D_NEG_3_3-Pad2)*
X456750000Y-13500000D03*
D11*
G04 #@! TO.P,D_NEG_3_4,2*
G04 #@! TO.N,/cv_bus3/FB_LEDS_OUT_3*
X459290000Y-13500000D03*
G04 #@! TD*
D10*
G04 #@! TO.P,D_POS_3_4,1*
G04 #@! TO.N,/cv_bus3/FB_LEDS_OUT_3*
X456750000Y-6500000D03*
D11*
G04 #@! TO.P,D_POS_3_4,2*
G04 #@! TO.N,Net-(D_POS_3_3-Pad1)*
X459290000Y-6500000D03*
G04 #@! TD*
G04 #@! TO.P,D_POS_4_4,2*
G04 #@! TO.N,Net-(D_POS_4_3-Pad1)*
X489290000Y-6500000D03*
D10*
G04 #@! TO.P,D_POS_4_4,1*
G04 #@! TO.N,/cv_bus4/FB_LEDS_OUT_4*
X486750000Y-6500000D03*
G04 #@! TD*
D11*
G04 #@! TO.P,D_POS_4_1,2*
G04 #@! TO.N,/cv_bus4/FB_LEDS_IN_4*
X129290000Y-6500000D03*
D10*
G04 #@! TO.P,D_POS_4_1,1*
G04 #@! TO.N,Net-(D_POS_4_1-Pad1)*
X126750000Y-6500000D03*
G04 #@! TD*
D12*
G04 #@! TO.P,U_IN_2_1,P$3_SLEEVE*
G04 #@! TO.N,FB_GND*
X61000000Y-16499860D03*
G04 #@! TO.P,U_IN_2_1,P$2_SWITCH*
X61000000Y-13497580D03*
G04 #@! TO.P,U_IN_2_1,P$1_TIP*
G04 #@! TO.N,/cv_bus2/FB_IN_2_1*
X61000000Y-5001280D03*
G04 #@! TD*
G04 #@! TO.P,U_IN_2_3,P$3_SLEEVE*
G04 #@! TO.N,FB_GND*
X301000000Y-16499860D03*
G04 #@! TO.P,U_IN_2_3,P$2_SWITCH*
X301000000Y-13497580D03*
G04 #@! TO.P,U_IN_2_3,P$1_TIP*
G04 #@! TO.N,/cv_bus2/FB_IN_2_3*
X301000000Y-5001280D03*
G04 #@! TD*
G04 #@! TO.P,U_IN_4_2,P$3_SLEEVE*
G04 #@! TO.N,FB_GND*
X241000000Y-16499860D03*
G04 #@! TO.P,U_IN_4_2,P$2_SWITCH*
X241000000Y-13497580D03*
G04 #@! TO.P,U_IN_4_2,P$1_TIP*
G04 #@! TO.N,/cv_bus4/FB_IN_4_2*
X241000000Y-5001280D03*
G04 #@! TD*
G04 #@! TO.P,U_IN_1_3,P$1_TIP*
G04 #@! TO.N,/cv_bus1/FB_IN_1_3*
X271000000Y-5001280D03*
G04 #@! TO.P,U_IN_1_3,P$2_SWITCH*
G04 #@! TO.N,FB_GND*
X271000000Y-13497580D03*
G04 #@! TO.P,U_IN_1_3,P$3_SLEEVE*
X271000000Y-16499860D03*
G04 #@! TD*
G04 #@! TO.P,U_OUT_1_1,P$3_SLEEVE*
G04 #@! TO.N,FB_GND*
X45000000Y-16499860D03*
G04 #@! TO.P,U_OUT_1_1,P$2_SWITCH*
G04 #@! TO.N,N/C*
X45000000Y-13497580D03*
G04 #@! TO.P,U_OUT_1_1,P$1_TIP*
G04 #@! TO.N,/cv_bus1/FB_OUT_1_1*
X45000000Y-5001280D03*
G04 #@! TD*
G04 #@! TO.P,U_IN_1_2,P$3_SLEEVE*
G04 #@! TO.N,FB_GND*
X151000000Y-16499860D03*
G04 #@! TO.P,U_IN_1_2,P$2_SWITCH*
X151000000Y-13497580D03*
G04 #@! TO.P,U_IN_1_2,P$1_TIP*
G04 #@! TO.N,/cv_bus1/FB_IN_1_2*
X151000000Y-5001280D03*
G04 #@! TD*
G04 #@! TO.P,U_IN_2_2,P$1_TIP*
G04 #@! TO.N,/cv_bus2/FB_IN_2_2*
X181000000Y-5001280D03*
G04 #@! TO.P,U_IN_2_2,P$2_SWITCH*
G04 #@! TO.N,FB_GND*
X181000000Y-13497580D03*
G04 #@! TO.P,U_IN_2_2,P$3_SLEEVE*
X181000000Y-16499860D03*
G04 #@! TD*
G04 #@! TO.P,U_IN_2_4,P$1_TIP*
G04 #@! TO.N,/cv_bus2/FB_IN_2_4*
X421000000Y-5001280D03*
G04 #@! TO.P,U_IN_2_4,P$2_SWITCH*
G04 #@! TO.N,FB_GND*
X421000000Y-13497580D03*
G04 #@! TO.P,U_IN_2_4,P$3_SLEEVE*
X421000000Y-16499860D03*
G04 #@! TD*
G04 #@! TO.P,U_IN_3_1,P$1_TIP*
G04 #@! TO.N,/cv_bus3/FB_IN_3_1*
X91000000Y-5001280D03*
G04 #@! TO.P,U_IN_3_1,P$2_SWITCH*
G04 #@! TO.N,FB_GND*
X91000000Y-13497580D03*
G04 #@! TO.P,U_IN_3_1,P$3_SLEEVE*
X91000000Y-16499860D03*
G04 #@! TD*
G04 #@! TO.P,U_IN_3_2,P$1_TIP*
G04 #@! TO.N,/cv_bus3/FB_IN_3_2*
X211000000Y-5001280D03*
G04 #@! TO.P,U_IN_3_2,P$2_SWITCH*
G04 #@! TO.N,FB_GND*
X211000000Y-13497580D03*
G04 #@! TO.P,U_IN_3_2,P$3_SLEEVE*
X211000000Y-16499860D03*
G04 #@! TD*
G04 #@! TO.P,U_IN_3_3,P$3_SLEEVE*
G04 #@! TO.N,FB_GND*
X331000000Y-16499860D03*
G04 #@! TO.P,U_IN_3_3,P$2_SWITCH*
X331000000Y-13497580D03*
G04 #@! TO.P,U_IN_3_3,P$1_TIP*
G04 #@! TO.N,/cv_bus3/FB_IN_3_3*
X331000000Y-5001280D03*
G04 #@! TD*
G04 #@! TO.P,U_IN_3_4,P$3_SLEEVE*
G04 #@! TO.N,FB_GND*
X451000000Y-16499860D03*
G04 #@! TO.P,U_IN_3_4,P$2_SWITCH*
X451000000Y-13497580D03*
G04 #@! TO.P,U_IN_3_4,P$1_TIP*
G04 #@! TO.N,/cv_bus3/FB_IN_3_4*
X451000000Y-5001280D03*
G04 #@! TD*
G04 #@! TO.P,U_IN_4_1,P$1_TIP*
G04 #@! TO.N,/cv_bus4/FB_IN_4_1*
X121000000Y-5001280D03*
G04 #@! TO.P,U_IN_4_1,P$2_SWITCH*
G04 #@! TO.N,FB_GND*
X121000000Y-13497580D03*
G04 #@! TO.P,U_IN_4_1,P$3_SLEEVE*
X121000000Y-16499860D03*
G04 #@! TD*
G04 #@! TO.P,U_IN_4_3,P$1_TIP*
G04 #@! TO.N,/cv_bus4/FB_IN_4_3*
X361000000Y-5001280D03*
G04 #@! TO.P,U_IN_4_3,P$2_SWITCH*
G04 #@! TO.N,FB_GND*
X361000000Y-13497580D03*
G04 #@! TO.P,U_IN_4_3,P$3_SLEEVE*
X361000000Y-16499860D03*
G04 #@! TD*
G04 #@! TO.P,U_IN_4_4,P$1_TIP*
G04 #@! TO.N,/cv_bus4/FB_IN_4_4*
X481000000Y-5001280D03*
G04 #@! TO.P,U_IN_4_4,P$2_SWITCH*
G04 #@! TO.N,FB_GND*
X481000000Y-13497580D03*
G04 #@! TO.P,U_IN_4_4,P$3_SLEEVE*
X481000000Y-16499860D03*
G04 #@! TD*
G04 #@! TO.P,U_OUT_1_3,P$3_SLEEVE*
G04 #@! TO.N,FB_GND*
X285000000Y-16499860D03*
G04 #@! TO.P,U_OUT_1_3,P$2_SWITCH*
G04 #@! TO.N,N/C*
X285000000Y-13497580D03*
G04 #@! TO.P,U_OUT_1_3,P$1_TIP*
G04 #@! TO.N,/cv_bus1/FB_OUT_1_3*
X285000000Y-5001280D03*
G04 #@! TD*
G04 #@! TO.P,U_OUT_1_4,P$1_TIP*
G04 #@! TO.N,/cv_bus1/FB_OUT_1_4*
X405000000Y-5001280D03*
G04 #@! TO.P,U_OUT_1_4,P$2_SWITCH*
G04 #@! TO.N,N/C*
X405000000Y-13497580D03*
G04 #@! TO.P,U_OUT_1_4,P$3_SLEEVE*
G04 #@! TO.N,FB_GND*
X405000000Y-16499860D03*
G04 #@! TD*
G04 #@! TO.P,U_OUT_1_2,P$1_TIP*
G04 #@! TO.N,/cv_bus1/FB_OUT_1_2*
X165000000Y-5001280D03*
G04 #@! TO.P,U_OUT_1_2,P$2_SWITCH*
G04 #@! TO.N,N/C*
X165000000Y-13497580D03*
G04 #@! TO.P,U_OUT_1_2,P$3_SLEEVE*
G04 #@! TO.N,FB_GND*
X165000000Y-16499860D03*
G04 #@! TD*
G04 #@! TO.P,U_OUT_2_2,P$3_SLEEVE*
G04 #@! TO.N,FB_GND*
X195000000Y-16499860D03*
G04 #@! TO.P,U_OUT_2_2,P$2_SWITCH*
G04 #@! TO.N,N/C*
X195000000Y-13497580D03*
G04 #@! TO.P,U_OUT_2_2,P$1_TIP*
G04 #@! TO.N,/cv_bus2/FB_OUT_2_2*
X195000000Y-5001280D03*
G04 #@! TD*
G04 #@! TO.P,U_OUT_2_4,P$1_TIP*
G04 #@! TO.N,/cv_bus2/FB_OUT_2_4*
X435000000Y-5001280D03*
G04 #@! TO.P,U_OUT_2_4,P$2_SWITCH*
G04 #@! TO.N,N/C*
X435000000Y-13497580D03*
G04 #@! TO.P,U_OUT_2_4,P$3_SLEEVE*
G04 #@! TO.N,FB_GND*
X435000000Y-16499860D03*
G04 #@! TD*
G04 #@! TO.P,U_OUT_3_1,P$3_SLEEVE*
G04 #@! TO.N,FB_GND*
X105000000Y-16499860D03*
G04 #@! TO.P,U_OUT_3_1,P$2_SWITCH*
G04 #@! TO.N,N/C*
X105000000Y-13497580D03*
G04 #@! TO.P,U_OUT_3_1,P$1_TIP*
G04 #@! TO.N,/cv_bus3/FB_OUT_3_1*
X105000000Y-5001280D03*
G04 #@! TD*
G04 #@! TO.P,U_OUT_3_2,P$3_SLEEVE*
G04 #@! TO.N,FB_GND*
X225000000Y-16499860D03*
G04 #@! TO.P,U_OUT_3_2,P$2_SWITCH*
G04 #@! TO.N,N/C*
X225000000Y-13497580D03*
G04 #@! TO.P,U_OUT_3_2,P$1_TIP*
G04 #@! TO.N,/cv_bus3/FB_OUT_3_2*
X225000000Y-5001280D03*
G04 #@! TD*
G04 #@! TO.P,U_OUT_3_3,P$1_TIP*
G04 #@! TO.N,/cv_bus3/FB_OUT_3_3*
X345000000Y-5001280D03*
G04 #@! TO.P,U_OUT_3_3,P$2_SWITCH*
G04 #@! TO.N,N/C*
X345000000Y-13497580D03*
G04 #@! TO.P,U_OUT_3_3,P$3_SLEEVE*
G04 #@! TO.N,FB_GND*
X345000000Y-16499860D03*
G04 #@! TD*
G04 #@! TO.P,U_OUT_3_4,P$3_SLEEVE*
G04 #@! TO.N,FB_GND*
X465000000Y-16499860D03*
G04 #@! TO.P,U_OUT_3_4,P$2_SWITCH*
G04 #@! TO.N,N/C*
X465000000Y-13497580D03*
G04 #@! TO.P,U_OUT_3_4,P$1_TIP*
G04 #@! TO.N,/cv_bus3/FB_OUT_3_4*
X465000000Y-5001280D03*
G04 #@! TD*
G04 #@! TO.P,U_OUT_2_3,P$3_SLEEVE*
G04 #@! TO.N,FB_GND*
X315000000Y-16499860D03*
G04 #@! TO.P,U_OUT_2_3,P$2_SWITCH*
G04 #@! TO.N,N/C*
X315000000Y-13497580D03*
G04 #@! TO.P,U_OUT_2_3,P$1_TIP*
G04 #@! TO.N,/cv_bus2/FB_OUT_2_3*
X315000000Y-5001280D03*
G04 #@! TD*
G04 #@! TO.P,U_OUT_4_1,P$1_TIP*
G04 #@! TO.N,/cv_bus4/FB_OUT_4_1*
X135000000Y-5001280D03*
G04 #@! TO.P,U_OUT_4_1,P$2_SWITCH*
G04 #@! TO.N,N/C*
X135000000Y-13497580D03*
G04 #@! TO.P,U_OUT_4_1,P$3_SLEEVE*
G04 #@! TO.N,FB_GND*
X135000000Y-16499860D03*
G04 #@! TD*
G04 #@! TO.P,U_OUT_4_2,P$3_SLEEVE*
G04 #@! TO.N,FB_GND*
X255000000Y-16499860D03*
G04 #@! TO.P,U_OUT_4_2,P$2_SWITCH*
G04 #@! TO.N,N/C*
X255000000Y-13497580D03*
G04 #@! TO.P,U_OUT_4_2,P$1_TIP*
G04 #@! TO.N,/cv_bus4/FB_OUT_4_2*
X255000000Y-5001280D03*
G04 #@! TD*
G04 #@! TO.P,U_OUT_4_3,P$1_TIP*
G04 #@! TO.N,/cv_bus4/FB_OUT_4_3*
X375000000Y-5001280D03*
G04 #@! TO.P,U_OUT_4_3,P$2_SWITCH*
G04 #@! TO.N,N/C*
X375000000Y-13497580D03*
G04 #@! TO.P,U_OUT_4_3,P$3_SLEEVE*
G04 #@! TO.N,FB_GND*
X375000000Y-16499860D03*
G04 #@! TD*
G04 #@! TO.P,U_OUT_2_1,P$1_TIP*
G04 #@! TO.N,/cv_bus2/FB_OUT_2_1*
X75000000Y-5001280D03*
G04 #@! TO.P,U_OUT_2_1,P$2_SWITCH*
G04 #@! TO.N,N/C*
X75000000Y-13497580D03*
G04 #@! TO.P,U_OUT_2_1,P$3_SLEEVE*
G04 #@! TO.N,FB_GND*
X75000000Y-16499860D03*
G04 #@! TD*
G04 #@! TO.P,U_OUT_4_4,P$3_SLEEVE*
G04 #@! TO.N,FB_GND*
X495000000Y-16499860D03*
G04 #@! TO.P,U_OUT_4_4,P$2_SWITCH*
G04 #@! TO.N,N/C*
X495000000Y-13497580D03*
G04 #@! TO.P,U_OUT_4_4,P$1_TIP*
G04 #@! TO.N,/cv_bus4/FB_OUT_4_4*
X495000000Y-5001280D03*
G04 #@! TD*
D10*
G04 #@! TO.P,D_NEG_1_2,1*
G04 #@! TO.N,Net-(D_NEG_1_1-Pad2)*
X156750000Y-13500000D03*
D11*
G04 #@! TO.P,D_NEG_1_2,2*
G04 #@! TO.N,Net-(D_NEG_1_2-Pad2)*
X159290000Y-13500000D03*
G04 #@! TD*
G04 #@! TO.P,D_NEG_1_3,2*
G04 #@! TO.N,Net-(D_NEG_1_3-Pad2)*
X279290000Y-13500000D03*
D10*
G04 #@! TO.P,D_NEG_1_3,1*
G04 #@! TO.N,Net-(D_NEG_1_2-Pad2)*
X276750000Y-13500000D03*
G04 #@! TD*
G04 #@! TO.P,D_NEG_1_4,1*
G04 #@! TO.N,Net-(D_NEG_1_3-Pad2)*
X396750000Y-13500000D03*
D11*
G04 #@! TO.P,D_NEG_1_4,2*
G04 #@! TO.N,/cv_bus1/FB_LEDS_OUT_1*
X399290000Y-13500000D03*
G04 #@! TD*
G04 #@! TO.P,D_POS_1_4,2*
G04 #@! TO.N,Net-(D_POS_1_3-Pad1)*
X399290000Y-6500000D03*
D10*
G04 #@! TO.P,D_POS_1_4,1*
G04 #@! TO.N,/cv_bus1/FB_LEDS_OUT_1*
X396750000Y-6500000D03*
G04 #@! TD*
D12*
G04 #@! TO.P,U_IN_1_1,P$3_SLEEVE*
G04 #@! TO.N,FB_GND*
X31000000Y-16499860D03*
G04 #@! TO.P,U_IN_1_1,P$2_SWITCH*
X31000000Y-13497580D03*
G04 #@! TO.P,U_IN_1_1,P$1_TIP*
G04 #@! TO.N,/cv_bus1/FB_IN_1_1*
X31000000Y-5001280D03*
G04 #@! TD*
G04 #@! TO.P,U_IN_1_4,P$1_TIP*
G04 #@! TO.N,/cv_bus1/FB_IN_1_4*
X391000000Y-5001280D03*
G04 #@! TO.P,U_IN_1_4,P$2_SWITCH*
G04 #@! TO.N,FB_GND*
X391000000Y-13497580D03*
G04 #@! TO.P,U_IN_1_4,P$3_SLEEVE*
X391000000Y-16499860D03*
G04 #@! TD*
D13*
G04 #@! TO.P,RV1,1*
G04 #@! TO.N,/cv_bus1/FB_POT_1*
X4000640Y-16997700D03*
D12*
G04 #@! TO.P,RV1,2*
G04 #@! TO.N,/cv_bus1/FB_POT_2*
X6500000Y-16997700D03*
G04 #@! TO.P,RV1,3*
X8999360Y-16997700D03*
D14*
G04 #@! TO.P,RV1,CHASSIS1*
G04 #@! TO.N,N/C*
X2001660Y-10000000D03*
G04 #@! TO.P,RV1,CHASSIS2*
X10998340Y-10000000D03*
G04 #@! TD*
D13*
G04 #@! TO.P,RV2,1*
G04 #@! TO.N,/cv_bus2/FB_POT_1*
X17000640Y-16997700D03*
D12*
G04 #@! TO.P,RV2,2*
G04 #@! TO.N,/cv_bus2/FB_POT_2*
X19500000Y-16997700D03*
G04 #@! TO.P,RV2,3*
X21999360Y-16997700D03*
D14*
G04 #@! TO.P,RV2,CHASSIS1*
G04 #@! TO.N,N/C*
X15001660Y-10000000D03*
G04 #@! TO.P,RV2,CHASSIS2*
X23998340Y-10000000D03*
G04 #@! TD*
G04 #@! TO.P,RV3,CHASSIS2*
G04 #@! TO.N,N/C*
X510998340Y-10000000D03*
G04 #@! TO.P,RV3,CHASSIS1*
X502001660Y-10000000D03*
D12*
G04 #@! TO.P,RV3,3*
G04 #@! TO.N,/cv_bus3/FB_POT_2*
X508999360Y-16997700D03*
G04 #@! TO.P,RV3,2*
X506500000Y-16997700D03*
D13*
G04 #@! TO.P,RV3,1*
G04 #@! TO.N,/cv_bus3/FB_POT_1*
X504000640Y-16997700D03*
G04 #@! TD*
D14*
G04 #@! TO.P,RV4,CHASSIS2*
G04 #@! TO.N,N/C*
X523998340Y-10000000D03*
G04 #@! TO.P,RV4,CHASSIS1*
X515001660Y-10000000D03*
D12*
G04 #@! TO.P,RV4,3*
G04 #@! TO.N,/cv_bus4/FB_POT_2*
X521999360Y-16997700D03*
G04 #@! TO.P,RV4,2*
X519500000Y-16997700D03*
D13*
G04 #@! TO.P,RV4,1*
G04 #@! TO.N,/cv_bus4/FB_POT_1*
X517000640Y-16997700D03*
G04 #@! TD*
D15*
G04 #@! TO.P,J_FB1.2,1*
G04 #@! TO.N,/cv_bus1/FB_POT_1*
X4000000Y-2500000D03*
D16*
G04 #@! TO.P,J_FB1.2,2*
G04 #@! TO.N,/cv_bus1/FB_POT_2*
X6540000Y-2500000D03*
G04 #@! TO.P,J_FB1.2,3*
G04 #@! TO.N,FB_GND*
X9080000Y-2500000D03*
G04 #@! TD*
D15*
G04 #@! TO.P,J_FB1.1,1*
G04 #@! TO.N,/cv_bus1/FB_IN_1_1*
X54500000Y-5000000D03*
D16*
G04 #@! TO.P,J_FB1.1,2*
G04 #@! TO.N,/cv_bus1/FB_IN_1_2*
X51960000Y-5000000D03*
G04 #@! TO.P,J_FB1.1,3*
G04 #@! TO.N,/cv_bus1/FB_IN_1_3*
X54500000Y-7540000D03*
G04 #@! TO.P,J_FB1.1,4*
G04 #@! TO.N,/cv_bus1/FB_IN_1_4*
X51960000Y-7540000D03*
G04 #@! TO.P,J_FB1.1,5*
G04 #@! TO.N,/cv_bus1/FB_OUT_1_1*
X54500000Y-10080000D03*
G04 #@! TO.P,J_FB1.1,6*
G04 #@! TO.N,/cv_bus1/FB_OUT_1_2*
X51960000Y-10080000D03*
G04 #@! TO.P,J_FB1.1,7*
G04 #@! TO.N,/cv_bus1/FB_OUT_1_3*
X54500000Y-12620000D03*
G04 #@! TO.P,J_FB1.1,8*
G04 #@! TO.N,/cv_bus1/FB_OUT_1_4*
X51960000Y-12620000D03*
G04 #@! TO.P,J_FB1.1,9*
G04 #@! TO.N,/cv_bus1/FB_LEDS_IN_1*
X54500000Y-15160000D03*
G04 #@! TO.P,J_FB1.1,10*
G04 #@! TO.N,/cv_bus1/FB_LEDS_OUT_1*
X51960000Y-15160000D03*
G04 #@! TD*
G04 #@! TO.P,J_FB2.2,3*
G04 #@! TO.N,FB_GND*
X22080000Y-2500000D03*
G04 #@! TO.P,J_FB2.2,2*
G04 #@! TO.N,/cv_bus2/FB_POT_2*
X19540000Y-2500000D03*
D15*
G04 #@! TO.P,J_FB2.2,1*
G04 #@! TO.N,/cv_bus2/FB_POT_1*
X17000000Y-2500000D03*
G04 #@! TD*
D16*
G04 #@! TO.P,J_FB2.1,10*
G04 #@! TO.N,/cv_bus2/FB_LEDS_OUT_2*
X111960000Y-15160000D03*
G04 #@! TO.P,J_FB2.1,9*
G04 #@! TO.N,/cv_bus2/FB_LEDS_IN_2*
X114500000Y-15160000D03*
G04 #@! TO.P,J_FB2.1,8*
G04 #@! TO.N,/cv_bus2/FB_OUT_2_4*
X111960000Y-12620000D03*
G04 #@! TO.P,J_FB2.1,7*
G04 #@! TO.N,/cv_bus2/FB_OUT_2_3*
X114500000Y-12620000D03*
G04 #@! TO.P,J_FB2.1,6*
G04 #@! TO.N,/cv_bus2/FB_OUT_2_2*
X111960000Y-10080000D03*
G04 #@! TO.P,J_FB2.1,5*
G04 #@! TO.N,/cv_bus2/FB_OUT_2_1*
X114500000Y-10080000D03*
G04 #@! TO.P,J_FB2.1,4*
G04 #@! TO.N,/cv_bus2/FB_IN_2_4*
X111960000Y-7540000D03*
G04 #@! TO.P,J_FB2.1,3*
G04 #@! TO.N,/cv_bus2/FB_IN_2_3*
X114500000Y-7540000D03*
G04 #@! TO.P,J_FB2.1,2*
G04 #@! TO.N,/cv_bus2/FB_IN_2_2*
X111960000Y-5000000D03*
D15*
G04 #@! TO.P,J_FB2.1,1*
G04 #@! TO.N,/cv_bus2/FB_IN_2_1*
X114500000Y-5000000D03*
G04 #@! TD*
G04 #@! TO.P,J_FB3.1,1*
G04 #@! TO.N,/cv_bus3/FB_IN_3_1*
X414500000Y-5000000D03*
D16*
G04 #@! TO.P,J_FB3.1,2*
G04 #@! TO.N,/cv_bus3/FB_IN_3_2*
X411960000Y-5000000D03*
G04 #@! TO.P,J_FB3.1,3*
G04 #@! TO.N,/cv_bus3/FB_IN_3_3*
X414500000Y-7540000D03*
G04 #@! TO.P,J_FB3.1,4*
G04 #@! TO.N,/cv_bus3/FB_IN_3_4*
X411960000Y-7540000D03*
G04 #@! TO.P,J_FB3.1,5*
G04 #@! TO.N,/cv_bus3/FB_OUT_3_1*
X414500000Y-10080000D03*
G04 #@! TO.P,J_FB3.1,6*
G04 #@! TO.N,/cv_bus3/FB_OUT_3_2*
X411960000Y-10080000D03*
G04 #@! TO.P,J_FB3.1,7*
G04 #@! TO.N,/cv_bus3/FB_OUT_3_3*
X414500000Y-12620000D03*
G04 #@! TO.P,J_FB3.1,8*
G04 #@! TO.N,/cv_bus3/FB_OUT_3_4*
X411960000Y-12620000D03*
G04 #@! TO.P,J_FB3.1,9*
G04 #@! TO.N,/cv_bus3/FB_LEDS_IN_3*
X414500000Y-15160000D03*
G04 #@! TO.P,J_FB3.1,10*
G04 #@! TO.N,/cv_bus3/FB_LEDS_OUT_3*
X411960000Y-15160000D03*
G04 #@! TD*
D15*
G04 #@! TO.P,J_FB3.2,1*
G04 #@! TO.N,/cv_bus3/FB_POT_1*
X509000000Y-2500000D03*
D16*
G04 #@! TO.P,J_FB3.2,2*
G04 #@! TO.N,/cv_bus3/FB_POT_2*
X506460000Y-2500000D03*
G04 #@! TO.P,J_FB3.2,3*
G04 #@! TO.N,FB_GND*
X503920000Y-2500000D03*
G04 #@! TD*
G04 #@! TO.P,J_FB4.2,3*
G04 #@! TO.N,FB_GND*
X516920000Y-2500000D03*
G04 #@! TO.P,J_FB4.2,2*
G04 #@! TO.N,/cv_bus4/FB_POT_2*
X519460000Y-2500000D03*
D15*
G04 #@! TO.P,J_FB4.2,1*
G04 #@! TO.N,/cv_bus4/FB_POT_1*
X522000000Y-2500000D03*
G04 #@! TD*
D16*
G04 #@! TO.P,J_FB4.1,10*
G04 #@! TO.N,/cv_bus4/FB_LEDS_OUT_4*
X471960000Y-15160000D03*
G04 #@! TO.P,J_FB4.1,9*
G04 #@! TO.N,/cv_bus4/FB_LEDS_IN_4*
X474500000Y-15160000D03*
G04 #@! TO.P,J_FB4.1,8*
G04 #@! TO.N,/cv_bus4/FB_OUT_4_4*
X471960000Y-12620000D03*
G04 #@! TO.P,J_FB4.1,7*
G04 #@! TO.N,/cv_bus4/FB_OUT_4_3*
X474500000Y-12620000D03*
G04 #@! TO.P,J_FB4.1,6*
G04 #@! TO.N,/cv_bus4/FB_OUT_4_2*
X471960000Y-10080000D03*
G04 #@! TO.P,J_FB4.1,5*
G04 #@! TO.N,/cv_bus4/FB_OUT_4_1*
X474500000Y-10080000D03*
G04 #@! TO.P,J_FB4.1,4*
G04 #@! TO.N,/cv_bus4/FB_IN_4_4*
X471960000Y-7540000D03*
G04 #@! TO.P,J_FB4.1,3*
G04 #@! TO.N,/cv_bus4/FB_IN_4_3*
X474500000Y-7540000D03*
G04 #@! TO.P,J_FB4.1,2*
G04 #@! TO.N,/cv_bus4/FB_IN_4_2*
X471960000Y-5000000D03*
D15*
G04 #@! TO.P,J_FB4.1,1*
G04 #@! TO.N,/cv_bus4/FB_IN_4_1*
X474500000Y-5000000D03*
G04 #@! TD*
D17*
G04 #@! TO.N,Net-(D_NEG_1_1-Pad2)*
X81621200Y-18369600D03*
G04 #@! TO.N,Net-(D_NEG_3_1-Pad2)*
X129348100Y-17465200D03*
G04 #@! TO.N,Net-(D_POS_1_1-Pad1)*
X110020400Y-15411800D03*
G04 #@! TO.N,Net-(D_POS_1_2-Pad1)*
X219269500Y-4071600D03*
G04 #@! TO.N,Net-(D_POS_4_1-Pad1)*
X232942200Y-6648700D03*
G04 #@! TO.N,/cv_bus3/FB_LEDS_IN_3*
X220636000Y-17633500D03*
G04 #@! TO.N,/cv_bus4/FB_LEDS_IN_4*
X202416100Y-17411400D03*
G04 #@! TO.N,/cv_bus1/FB_IN_1_2*
X118847900Y-4034100D03*
G04 #@! TO.N,/cv_bus1/FB_OUT_1_2*
X110052600Y-4480800D03*
G04 #@! TO.N,/cv_bus2/FB_IN_2_4*
X118769100Y-5036400D03*
G04 #@! TO.N,/cv_bus2/FB_IN_2_3*
X231860500Y-2722900D03*
G04 #@! TO.N,/cv_bus3/FB_IN_3_1*
X253036400Y-2015600D03*
G04 #@! TO.N,/cv_bus3/FB_IN_3_2*
X244298300Y-3458500D03*
G04 #@! TO.N,/cv_bus3/FB_IN_3_3*
X370175200Y-3118400D03*
G04 #@! TO.N,/cv_bus4/FB_IN_4_2*
X256313700Y-1537500D03*
G04 #@! TO.N,/cv_bus4/FB_OUT_4_1*
X205058000Y-15470200D03*
G04 #@! TD*
D18*
G04 #@! TO.N,Net-(D_NEG_1_1-Pad2)*
X81621200Y-18369600D02*
X81892400Y-18640800D01*
X81892400Y-18640800D02*
X151149700Y-18640800D01*
X151149700Y-18640800D02*
X155524700Y-14265800D01*
X155524700Y-14265800D02*
X155524700Y-13500000D01*
X156750000Y-13500000D02*
X155524700Y-13500000D01*
G04 #@! TO.N,Net-(D_NEG_1_2-Pad2)*
X275524700Y-13500000D02*
X274296800Y-14727900D01*
X274296800Y-14727900D02*
X205978400Y-14727900D01*
X205978400Y-14727900D02*
X205545100Y-14294600D01*
X205545100Y-14294600D02*
X204571000Y-14294600D01*
X204571000Y-14294600D02*
X204137700Y-14727900D01*
X204137700Y-14727900D02*
X160517900Y-14727900D01*
X160517900Y-14727900D02*
X159290000Y-13500000D01*
X276750000Y-13500000D02*
X275524700Y-13500000D01*
G04 #@! TO.N,Net-(D_NEG_1_3-Pad2)*
X396750000Y-13500000D02*
X395524700Y-13500000D01*
X279290000Y-13500000D02*
X280515300Y-14725300D01*
X280515300Y-14725300D02*
X394299400Y-14725300D01*
X394299400Y-14725300D02*
X395524700Y-13500000D01*
G04 #@! TO.N,Net-(D_NEG_2_1-Pad2)*
X185524700Y-13500000D02*
X184269000Y-12244300D01*
X184269000Y-12244300D02*
X158752100Y-12244300D01*
X158752100Y-12244300D02*
X157975400Y-13021000D01*
X157975400Y-13021000D02*
X157975400Y-14568200D01*
X157975400Y-14568200D02*
X153448700Y-19094900D01*
X153448700Y-19094900D02*
X74884900Y-19094900D01*
X74884900Y-19094900D02*
X69290000Y-13500000D01*
X186750000Y-13500000D02*
X185524700Y-13500000D01*
G04 #@! TO.N,Net-(D_NEG_2_2-Pad2)*
X306750000Y-13500000D02*
X305524700Y-13500000D01*
X305524700Y-13500000D02*
X304298900Y-12274200D01*
X304298900Y-12274200D02*
X190515800Y-12274200D01*
X190515800Y-12274200D02*
X189290000Y-13500000D01*
G04 #@! TO.N,Net-(D_NEG_3_1-Pad2)*
X129348100Y-17465200D02*
X129161300Y-17652000D01*
X129161300Y-17652000D02*
X103442000Y-17652000D01*
X103442000Y-17652000D02*
X99290000Y-13500000D01*
G04 #@! TO.N,Net-(D_NEG_3_3-Pad2)*
X339290000Y-13500000D02*
X340597500Y-12192500D01*
X340597500Y-12192500D02*
X395967400Y-12192500D01*
X395967400Y-12192500D02*
X404330800Y-3829100D01*
X404330800Y-3829100D02*
X405460700Y-3829100D01*
X405460700Y-3829100D02*
X408623100Y-6991500D01*
X408623100Y-6991500D02*
X408623100Y-8410900D01*
X408623100Y-8410900D02*
X411562200Y-11350000D01*
X411562200Y-11350000D02*
X416664800Y-11350000D01*
X416664800Y-11350000D02*
X417589500Y-12274700D01*
X417589500Y-12274700D02*
X454299400Y-12274700D01*
X454299400Y-12274700D02*
X455524700Y-13500000D01*
X456750000Y-13500000D02*
X455524700Y-13500000D01*
G04 #@! TO.N,Net-(D_POS_1_1-Pad1)*
X110020400Y-15411800D02*
X110991200Y-16382600D01*
X110991200Y-16382600D02*
X116998600Y-16382600D01*
X116998600Y-16382600D02*
X118382400Y-14998800D01*
X118382400Y-14998800D02*
X151193900Y-14998800D01*
X151193900Y-14998800D02*
X159290000Y-6902700D01*
X159290000Y-6902700D02*
X159290000Y-6500000D01*
G04 #@! TO.N,Net-(D_POS_1_2-Pad1)*
X279290000Y-6500000D02*
X278006800Y-5216800D01*
X278006800Y-5216800D02*
X273120000Y-5216800D01*
X273120000Y-5216800D02*
X272185900Y-6150900D01*
X272185900Y-6150900D02*
X253707600Y-6150900D01*
X253707600Y-6150900D02*
X252333700Y-4777000D01*
X252333700Y-4777000D02*
X243683400Y-4777000D01*
X243683400Y-4777000D02*
X242309500Y-6150900D01*
X242309500Y-6150900D02*
X233470200Y-6150900D01*
X233470200Y-6150900D02*
X233187400Y-5868100D01*
X233187400Y-5868100D02*
X232398100Y-5868100D01*
X232398100Y-5868100D02*
X232115300Y-6150900D01*
X232115300Y-6150900D02*
X221348800Y-6150900D01*
X221348800Y-6150900D02*
X219269500Y-4071600D01*
G04 #@! TO.N,Net-(D_POS_2_1-Pad1)*
X66750000Y-6500000D02*
X67975300Y-6500000D01*
X67975300Y-6500000D02*
X67975300Y-6040500D01*
X67975300Y-6040500D02*
X70197700Y-3818100D01*
X70197700Y-3818100D02*
X76149600Y-3818100D01*
X76149600Y-3818100D02*
X79479900Y-7148400D01*
X79479900Y-7148400D02*
X94511600Y-7148400D01*
X94511600Y-7148400D02*
X95146600Y-7783400D01*
X95146600Y-7783400D02*
X103405500Y-7783400D01*
X103405500Y-7783400D02*
X104577700Y-6611200D01*
X104577700Y-6611200D02*
X105607100Y-6611200D01*
X105607100Y-6611200D02*
X109366200Y-2852100D01*
X109366200Y-2852100D02*
X185642100Y-2852100D01*
X185642100Y-2852100D02*
X189290000Y-6500000D01*
G04 #@! TO.N,Net-(D_POS_2_3-Pad1)*
X307975300Y-6500000D02*
X307975300Y-6040400D01*
X307975300Y-6040400D02*
X308741000Y-5274700D01*
X308741000Y-5274700D02*
X310229600Y-5274700D01*
X310229600Y-5274700D02*
X312022500Y-7067600D01*
X312022500Y-7067600D02*
X333890800Y-7067600D01*
X333890800Y-7067600D02*
X335683800Y-5274600D01*
X335683800Y-5274600D02*
X340326900Y-5274600D01*
X340326900Y-5274600D02*
X342327100Y-7274800D01*
X342327100Y-7274800D02*
X363281600Y-7274800D01*
X363281600Y-7274800D02*
X364709100Y-8702300D01*
X364709100Y-8702300D02*
X372252000Y-8702300D01*
X372252000Y-8702300D02*
X373378300Y-7576000D01*
X373378300Y-7576000D02*
X394529700Y-7576000D01*
X394529700Y-7576000D02*
X394679000Y-7725300D01*
X394679000Y-7725300D02*
X397784900Y-7725300D01*
X397784900Y-7725300D02*
X397975400Y-7534800D01*
X397975400Y-7534800D02*
X397975400Y-6067300D01*
X397975400Y-6067300D02*
X401166200Y-2876500D01*
X401166200Y-2876500D02*
X425666500Y-2876500D01*
X425666500Y-2876500D02*
X429290000Y-6500000D01*
X306750000Y-6500000D02*
X307975300Y-6500000D01*
G04 #@! TO.N,Net-(D_POS_3_1-Pad1)*
X96750000Y-6500000D02*
X97975300Y-6500000D01*
X219290000Y-6500000D02*
X218064600Y-5274600D01*
X218064600Y-5274600D02*
X212575300Y-5274600D01*
X212575300Y-5274600D02*
X211667200Y-6182700D01*
X211667200Y-6182700D02*
X200051200Y-6182700D01*
X200051200Y-6182700D02*
X196270100Y-2401600D01*
X196270100Y-2401600D02*
X101614200Y-2401600D01*
X101614200Y-2401600D02*
X97975300Y-6040500D01*
X97975300Y-6040500D02*
X97975300Y-6500000D01*
G04 #@! TO.N,Net-(D_POS_4_1-Pad1)*
X232942200Y-6648700D02*
X243140300Y-6648700D01*
X243140300Y-6648700D02*
X244514400Y-5274600D01*
X244514400Y-5274600D02*
X248064600Y-5274600D01*
X248064600Y-5274600D02*
X249290000Y-6500000D01*
G04 #@! TO.N,Net-(D_POS_4_3-Pad1)*
X489290000Y-6500000D02*
X488064700Y-7725300D01*
X488064700Y-7725300D02*
X478022700Y-7725300D01*
X478022700Y-7725300D02*
X476995700Y-8752300D01*
X476995700Y-8752300D02*
X467153800Y-8752300D01*
X467153800Y-8752300D02*
X465339300Y-6937800D01*
X465339300Y-6937800D02*
X462412200Y-6937800D01*
X462412200Y-6937800D02*
X457434600Y-1960200D01*
X457434600Y-1960200D02*
X372996100Y-1960200D01*
X372996100Y-1960200D02*
X370662300Y-4294000D01*
X370662300Y-4294000D02*
X369721700Y-4294000D01*
X369721700Y-4294000D02*
X367975300Y-6040400D01*
X367975300Y-6040400D02*
X367975300Y-6500000D01*
X366750000Y-6500000D02*
X367975300Y-6500000D01*
G04 #@! TO.N,/cv_bus1/FB_LEDS_OUT_1*
X396750000Y-6500000D02*
X395524700Y-6500000D01*
X51960000Y-15160000D02*
X51960000Y-13984700D01*
X51960000Y-13984700D02*
X51592700Y-13984700D01*
X51592700Y-13984700D02*
X50760700Y-13152700D01*
X50760700Y-13152700D02*
X50760700Y-12142600D01*
X50760700Y-12142600D02*
X51553300Y-11350000D01*
X51553300Y-11350000D02*
X56823700Y-11350000D01*
X56823700Y-11350000D02*
X66898600Y-1275100D01*
X66898600Y-1275100D02*
X254070200Y-1275100D01*
X254070200Y-1275100D02*
X255508400Y-2713300D01*
X255508400Y-2713300D02*
X321300800Y-2713300D01*
X321300800Y-2713300D02*
X325204800Y-6617300D01*
X325204800Y-6617300D02*
X332807700Y-6617300D01*
X332807700Y-6617300D02*
X334644400Y-4780600D01*
X334644400Y-4780600D02*
X343153700Y-4780600D01*
X343153700Y-4780600D02*
X344974400Y-6601300D01*
X344974400Y-6601300D02*
X363295000Y-6601300D01*
X363295000Y-6601300D02*
X364895200Y-8201500D01*
X364895200Y-8201500D02*
X371797700Y-8201500D01*
X371797700Y-8201500D02*
X372873600Y-7125600D01*
X372873600Y-7125600D02*
X394899100Y-7125600D01*
X394899100Y-7125600D02*
X395524700Y-6500000D01*
G04 #@! TO.N,/cv_bus2/FB_LEDS_IN_2*
X114500000Y-15160000D02*
X113324700Y-15160000D01*
X113324700Y-15160000D02*
X113324700Y-14792600D01*
X113324700Y-14792600D02*
X112516800Y-13984700D01*
X112516800Y-13984700D02*
X108053900Y-13984700D01*
X108053900Y-13984700D02*
X106036600Y-11967400D01*
X106036600Y-11967400D02*
X80340400Y-11967400D01*
X80340400Y-11967400D02*
X74873000Y-6500000D01*
X74873000Y-6500000D02*
X69290000Y-6500000D01*
G04 #@! TO.N,/cv_bus3/FB_LEDS_IN_3*
X414500000Y-15160000D02*
X413284900Y-13944900D01*
X413284900Y-13944900D02*
X406247900Y-13944900D01*
X406247900Y-13944900D02*
X405194100Y-14998700D01*
X405194100Y-14998700D02*
X403850400Y-14998700D01*
X403850400Y-14998700D02*
X401146800Y-17702300D01*
X401146800Y-17702300D02*
X220704800Y-17702300D01*
X220704800Y-17702300D02*
X220636000Y-17633500D01*
G04 #@! TO.N,/cv_bus3/FB_LEDS_OUT_3*
X411960000Y-15160000D02*
X413135300Y-15160000D01*
X413135300Y-15160000D02*
X413135300Y-15527300D01*
X413135300Y-15527300D02*
X413948500Y-16340500D01*
X413948500Y-16340500D02*
X419423000Y-16340500D01*
X419423000Y-16340500D02*
X420989900Y-14773600D01*
X420989900Y-14773600D02*
X458016400Y-14773600D01*
X458016400Y-14773600D02*
X459290000Y-13500000D01*
G04 #@! TO.N,/cv_bus4/FB_LEDS_IN_4*
X474500000Y-15160000D02*
X473324700Y-15160000D01*
X473324700Y-15160000D02*
X473324700Y-15527300D01*
X473324700Y-15527300D02*
X469966700Y-18885300D01*
X469966700Y-18885300D02*
X203890000Y-18885300D01*
X203890000Y-18885300D02*
X202416100Y-17411400D01*
G04 #@! TO.N,/cv_bus1/FB_IN_1_1*
X54500000Y-5000000D02*
X53324700Y-5000000D01*
X53324700Y-5000000D02*
X53324700Y-4632700D01*
X53324700Y-4632700D02*
X52491700Y-3799700D01*
X52491700Y-3799700D02*
X32201600Y-3799700D01*
X32201600Y-3799700D02*
X31000000Y-5001300D01*
G04 #@! TO.N,/cv_bus1/FB_IN_1_2*
X118847900Y-4034100D02*
X119042400Y-3839600D01*
X119042400Y-3839600D02*
X149838300Y-3839600D01*
X149838300Y-3839600D02*
X151000000Y-5001300D01*
G04 #@! TO.N,/cv_bus1/FB_IN_1_4*
X391000000Y-5001300D02*
X389516600Y-6484700D01*
X389516600Y-6484700D02*
X371285300Y-6484700D01*
X371285300Y-6484700D02*
X370042400Y-7727600D01*
X370042400Y-7727600D02*
X365108300Y-7727600D01*
X365108300Y-7727600D02*
X363531600Y-6150900D01*
X363531600Y-6150900D02*
X358279900Y-6150900D01*
X358279900Y-6150900D02*
X355971100Y-3842100D01*
X355971100Y-3842100D02*
X333981400Y-3842100D01*
X333981400Y-3842100D02*
X331659300Y-6164200D01*
X331659300Y-6164200D02*
X330066900Y-6164200D01*
X330066900Y-6164200D02*
X326165600Y-2262900D01*
X326165600Y-2262900D02*
X256013200Y-2262900D01*
X256013200Y-2262900D02*
X254575100Y-824800D01*
X254575100Y-824800D02*
X63461400Y-824800D01*
X63461400Y-824800D02*
X57921500Y-6364700D01*
X57921500Y-6364700D02*
X53943200Y-6364700D01*
X53943200Y-6364700D02*
X53135300Y-7172600D01*
X53135300Y-7172600D02*
X53135300Y-7540000D01*
X51960000Y-7540000D02*
X53135300Y-7540000D01*
G04 #@! TO.N,/cv_bus1/FB_OUT_1_2*
X165000000Y-5001300D02*
X163302700Y-3304000D01*
X163302700Y-3304000D02*
X111229400Y-3304000D01*
X111229400Y-3304000D02*
X110052600Y-4480800D01*
G04 #@! TO.N,/cv_bus1/FB_OUT_1_3*
X55675300Y-12620000D02*
X56062200Y-12233100D01*
X56062200Y-12233100D02*
X78393100Y-12233100D01*
X78393100Y-12233100D02*
X84350500Y-18190500D01*
X84350500Y-18190500D02*
X150946100Y-18190500D01*
X150946100Y-18190500D02*
X152377000Y-16759600D01*
X152377000Y-16759600D02*
X152377000Y-15610800D01*
X152377000Y-15610800D02*
X159924500Y-8063300D01*
X159924500Y-8063300D02*
X182401100Y-8063300D01*
X182401100Y-8063300D02*
X182550300Y-8212500D01*
X182550300Y-8212500D02*
X193414600Y-8212500D01*
X193414600Y-8212500D02*
X193552500Y-8074600D01*
X193552500Y-8074600D02*
X281926700Y-8074600D01*
X281926700Y-8074600D02*
X285000000Y-5001300D01*
X54500000Y-12620000D02*
X55675300Y-12620000D01*
G04 #@! TO.N,/cv_bus1/FB_OUT_1_4*
X405000000Y-5001300D02*
X397975400Y-12025900D01*
X397975400Y-12025900D02*
X397975400Y-14600500D01*
X397975400Y-14600500D02*
X397381600Y-15194300D01*
X397381600Y-15194300D02*
X205807900Y-15194300D01*
X205807900Y-15194300D02*
X205358500Y-14744900D01*
X205358500Y-14744900D02*
X204757600Y-14744900D01*
X204757600Y-14744900D02*
X202816400Y-16686100D01*
X202816400Y-16686100D02*
X202115700Y-16686100D01*
X202115700Y-16686100D02*
X199208200Y-19593600D01*
X199208200Y-19593600D02*
X68272600Y-19593600D01*
X68272600Y-19593600D02*
X63677700Y-14998700D01*
X63677700Y-14998700D02*
X58342000Y-14998700D01*
X58342000Y-14998700D02*
X57138600Y-13795300D01*
X57138600Y-13795300D02*
X53943200Y-13795300D01*
X53943200Y-13795300D02*
X53135300Y-12987400D01*
X53135300Y-12987400D02*
X53135300Y-12620000D01*
X51960000Y-12620000D02*
X53135300Y-12620000D01*
G04 #@! TO.N,/cv_bus2/FB_OUT_2_2*
X111960000Y-10080000D02*
X113230000Y-11350000D01*
X113230000Y-11350000D02*
X118949800Y-11350000D01*
X118949800Y-11350000D02*
X119529000Y-11929200D01*
X119529000Y-11929200D02*
X144195800Y-11929200D01*
X144195800Y-11929200D02*
X148603900Y-7521100D01*
X148603900Y-7521100D02*
X152729400Y-7521100D01*
X152729400Y-7521100D02*
X154987500Y-5263000D01*
X154987500Y-5263000D02*
X161609500Y-5263000D01*
X161609500Y-5263000D02*
X163931100Y-7584600D01*
X163931100Y-7584600D02*
X182559300Y-7584600D01*
X182559300Y-7584600D02*
X182736800Y-7762100D01*
X182736800Y-7762100D02*
X192239200Y-7762100D01*
X192239200Y-7762100D02*
X195000000Y-5001300D01*
G04 #@! TO.N,/cv_bus2/FB_OUT_2_1*
X75000000Y-5001300D02*
X77985600Y-7986900D01*
X77985600Y-7986900D02*
X94581300Y-7986900D01*
X94581300Y-7986900D02*
X94828200Y-8233800D01*
X94828200Y-8233800D02*
X103662700Y-8233800D01*
X103662700Y-8233800D02*
X103825500Y-8071000D01*
X103825500Y-8071000D02*
X108399300Y-8071000D01*
X108399300Y-8071000D02*
X109233000Y-8904700D01*
X109233000Y-8904700D02*
X112516800Y-8904700D01*
X112516800Y-8904700D02*
X113324700Y-9712600D01*
X113324700Y-9712600D02*
X113324700Y-10080000D01*
X114500000Y-10080000D02*
X113324700Y-10080000D01*
G04 #@! TO.N,/cv_bus2/FB_IN_2_4*
X111960000Y-6364700D02*
X111592700Y-6364700D01*
X111592700Y-6364700D02*
X110778600Y-5550600D01*
X110778600Y-5550600D02*
X110778600Y-4499700D01*
X110778600Y-4499700D02*
X111473500Y-3804800D01*
X111473500Y-3804800D02*
X117537500Y-3804800D01*
X117537500Y-3804800D02*
X118769100Y-5036400D01*
X111960000Y-7540000D02*
X111960000Y-6364700D01*
G04 #@! TO.N,/cv_bus2/FB_IN_2_3*
X231860500Y-2722900D02*
X251444200Y-2722900D01*
X251444200Y-2722900D02*
X252116400Y-3395100D01*
X252116400Y-3395100D02*
X299393800Y-3395100D01*
X299393800Y-3395100D02*
X301000000Y-5001300D01*
G04 #@! TO.N,/cv_bus2/FB_IN_2_2*
X181000000Y-5001300D02*
X179850500Y-6150800D01*
X179850500Y-6150800D02*
X163452600Y-6150800D01*
X163452600Y-6150800D02*
X162084700Y-4782900D01*
X162084700Y-4782900D02*
X154600600Y-4782900D01*
X154600600Y-4782900D02*
X153184800Y-6198700D01*
X153184800Y-6198700D02*
X133267200Y-6198700D01*
X133267200Y-6198700D02*
X132327600Y-5259100D01*
X132327600Y-5259100D02*
X124121700Y-5259100D01*
X124121700Y-5259100D02*
X123191400Y-6189400D01*
X123191400Y-6189400D02*
X113529300Y-6189400D01*
X113529300Y-6189400D02*
X113135300Y-5795400D01*
X113135300Y-5795400D02*
X113135300Y-5000000D01*
X111960000Y-5000000D02*
X113135300Y-5000000D01*
G04 #@! TO.N,/cv_bus3/FB_IN_3_1*
X91000000Y-5001300D02*
X94057300Y-1944000D01*
X94057300Y-1944000D02*
X252964800Y-1944000D01*
X252964800Y-1944000D02*
X253036400Y-2015600D01*
G04 #@! TO.N,/cv_bus3/FB_IN_3_2*
X211000000Y-5001300D02*
X212655000Y-3346300D01*
X212655000Y-3346300D02*
X231182200Y-3346300D01*
X231182200Y-3346300D02*
X231325500Y-3489600D01*
X231325500Y-3489600D02*
X232119600Y-3489600D01*
X232119600Y-3489600D02*
X232216100Y-3393100D01*
X232216100Y-3393100D02*
X244232900Y-3393100D01*
X244232900Y-3393100D02*
X244298300Y-3458500D01*
G04 #@! TO.N,/cv_bus3/FB_IN_3_3*
X331000000Y-5001300D02*
X332882900Y-3118400D01*
X332882900Y-3118400D02*
X370175200Y-3118400D01*
G04 #@! TO.N,/cv_bus3/FB_IN_3_4*
X411960000Y-7540000D02*
X413135300Y-7540000D01*
X413135300Y-7540000D02*
X413135300Y-7907300D01*
X413135300Y-7907300D02*
X413947100Y-8719100D01*
X413947100Y-8719100D02*
X419544800Y-8719100D01*
X419544800Y-8719100D02*
X420189300Y-8074600D01*
X420189300Y-8074600D02*
X447926700Y-8074600D01*
X447926700Y-8074600D02*
X451000000Y-5001300D01*
G04 #@! TO.N,/cv_bus3/FB_OUT_3_2*
X225000000Y-5001300D02*
X231244800Y-5001300D01*
X231244800Y-5001300D02*
X232400700Y-3845400D01*
X232400700Y-3845400D02*
X243594000Y-3845400D01*
X243594000Y-3845400D02*
X243947400Y-4198800D01*
X243947400Y-4198800D02*
X253789700Y-4198800D01*
X253789700Y-4198800D02*
X254143100Y-3845400D01*
X254143100Y-3845400D02*
X287591000Y-3845400D01*
X287591000Y-3845400D02*
X291471000Y-7725400D01*
X291471000Y-7725400D02*
X362846100Y-7725400D01*
X362846100Y-7725400D02*
X364273300Y-9152600D01*
X364273300Y-9152600D02*
X372438700Y-9152600D01*
X372438700Y-9152600D02*
X373564900Y-8026400D01*
X373564900Y-8026400D02*
X394343200Y-8026400D01*
X394343200Y-8026400D02*
X394529400Y-8212600D01*
X394529400Y-8212600D02*
X399310300Y-8212600D01*
X399310300Y-8212600D02*
X404170100Y-3352800D01*
X404170100Y-3352800D02*
X405621300Y-3352800D01*
X405621300Y-3352800D02*
X411173200Y-8904700D01*
X411173200Y-8904700D02*
X411960000Y-8904700D01*
X411960000Y-10080000D02*
X411960000Y-8904700D01*
G04 #@! TO.N,/cv_bus4/FB_IN_4_2*
X470784700Y-5000000D02*
X466844300Y-1059600D01*
X466844300Y-1059600D02*
X256791600Y-1059600D01*
X256791600Y-1059600D02*
X256313700Y-1537500D01*
X471960000Y-5000000D02*
X470784700Y-5000000D01*
G04 #@! TO.N,/cv_bus4/FB_IN_4_3*
X473324700Y-7540000D02*
X473324700Y-7172600D01*
X473324700Y-7172600D02*
X472516800Y-6364700D01*
X472516800Y-6364700D02*
X462476000Y-6364700D01*
X462476000Y-6364700D02*
X457621200Y-1509900D01*
X457621200Y-1509900D02*
X372809500Y-1509900D01*
X372809500Y-1509900D02*
X370475700Y-3843700D01*
X370475700Y-3843700D02*
X362157600Y-3843700D01*
X362157600Y-3843700D02*
X361000000Y-5001300D01*
X474500000Y-7540000D02*
X473324700Y-7540000D01*
G04 #@! TO.N,/cv_bus4/FB_OUT_4_1*
X474500000Y-11255300D02*
X474867400Y-11255300D01*
X474867400Y-11255300D02*
X475675300Y-12063200D01*
X475675300Y-12063200D02*
X475675300Y-13108500D01*
X475675300Y-13108500D02*
X474893800Y-13890000D01*
X474893800Y-13890000D02*
X471465600Y-13890000D01*
X471465600Y-13890000D02*
X466996600Y-18359000D01*
X466996600Y-18359000D02*
X207946800Y-18359000D01*
X207946800Y-18359000D02*
X205058000Y-15470200D01*
X474500000Y-10080000D02*
X474500000Y-11255300D01*
G04 #@! TO.N,/cv_bus4/FB_OUT_4_3*
X474500000Y-12620000D02*
X473324700Y-12620000D01*
X473324700Y-12620000D02*
X473324700Y-12252600D01*
X473324700Y-12252600D02*
X472516800Y-11444700D01*
X472516800Y-11444700D02*
X469209200Y-11444700D01*
X469209200Y-11444700D02*
X465812200Y-8047700D01*
X465812200Y-8047700D02*
X462885200Y-8047700D01*
X462885200Y-8047700D02*
X457248100Y-2410600D01*
X457248100Y-2410600D02*
X377590700Y-2410600D01*
X377590700Y-2410600D02*
X375000000Y-5001300D01*
G04 #@! TO.N,FB_GND*
X225000000Y-16499900D02*
X211000000Y-16499900D01*
X121000000Y-16499900D02*
X120666900Y-16833000D01*
X120666900Y-16833000D02*
X105333100Y-16833000D01*
X105333100Y-16833000D02*
X105000000Y-16499900D01*
X135000000Y-16499900D02*
X121000000Y-16499900D01*
X255000000Y-16499900D02*
X241000000Y-16499900D01*
X91000000Y-16499900D02*
X91000000Y-13497600D01*
X435000000Y-16499900D02*
X421000000Y-16499900D01*
X301000000Y-16499900D02*
X285000000Y-16499900D01*
X345000000Y-16499900D02*
X331000000Y-16499900D01*
X45000000Y-16499900D02*
X61000000Y-16499900D01*
G04 #@! TO.N,/cv_bus3/FB_POT_1*
X504000600Y-16997700D02*
X504000600Y-15848200D01*
X509000000Y-2500000D02*
X509000000Y-10848800D01*
X509000000Y-10848800D02*
X504000600Y-15848200D01*
G04 #@! TO.N,/cv_bus3/FB_POT_2*
X506500000Y-16997700D02*
X508999400Y-16997700D01*
G04 #@! TD*
D19*
G04 #@! TO.N,FB_GND*
G36*
X525265001Y-8392980D02*
X525149375Y-8277354D01*
X524402530Y-7968000D01*
X523594150Y-7968000D01*
X522847305Y-8277354D01*
X522275694Y-8848965D01*
X521966340Y-9595810D01*
X521966340Y-10404190D01*
X522275694Y-11151035D01*
X522847305Y-11722646D01*
X523594150Y-12032000D01*
X524402530Y-12032000D01*
X525149375Y-11722646D01*
X525265000Y-11607021D01*
X525265000Y-19265000D01*
X470661801Y-19265000D01*
X472401646Y-17525155D01*
X480154310Y-17525155D01*
X480231419Y-17773786D01*
X480777435Y-17970937D01*
X481357334Y-17944130D01*
X481768581Y-17773786D01*
X481845690Y-17525155D01*
X494154310Y-17525155D01*
X494231419Y-17773786D01*
X494777435Y-17970937D01*
X495357334Y-17944130D01*
X495768581Y-17773786D01*
X495845690Y-17525155D01*
X495000000Y-16679465D01*
X494154310Y-17525155D01*
X481845690Y-17525155D01*
X481000000Y-16679465D01*
X480154310Y-17525155D01*
X472401646Y-17525155D01*
X473589311Y-16337491D01*
X473920582Y-16558839D01*
X474353744Y-16645000D01*
X474646256Y-16645000D01*
X475079418Y-16558839D01*
X475500778Y-16277295D01*
X479528923Y-16277295D01*
X479555730Y-16857194D01*
X479726074Y-17268441D01*
X479974705Y-17345550D01*
X480820395Y-16499860D01*
X481179605Y-16499860D01*
X482025295Y-17345550D01*
X482273926Y-17268441D01*
X482471077Y-16722425D01*
X482450500Y-16277295D01*
X493528923Y-16277295D01*
X493555730Y-16857194D01*
X493726074Y-17268441D01*
X493974705Y-17345550D01*
X494820395Y-16499860D01*
X495179605Y-16499860D01*
X496025295Y-17345550D01*
X496273926Y-17268441D01*
X496471077Y-16722425D01*
X496445701Y-16173470D01*
X502528970Y-16173470D01*
X502528970Y-17821930D01*
X502578253Y-18069695D01*
X502718601Y-18279739D01*
X502928645Y-18420087D01*
X503176410Y-18469370D01*
X504824870Y-18469370D01*
X505072635Y-18420087D01*
X505282679Y-18279739D01*
X505423027Y-18069695D01*
X505437180Y-17998542D01*
X505673413Y-18234775D01*
X506209741Y-18456930D01*
X506790259Y-18456930D01*
X507326587Y-18234775D01*
X507737075Y-17824287D01*
X507749680Y-17793856D01*
X507762285Y-17824287D01*
X508172773Y-18234775D01*
X508709101Y-18456930D01*
X509289619Y-18456930D01*
X509825947Y-18234775D01*
X510236435Y-17824287D01*
X510458590Y-17287959D01*
X510458590Y-16707441D01*
X510237412Y-16173470D01*
X515528970Y-16173470D01*
X515528970Y-17821930D01*
X515578253Y-18069695D01*
X515718601Y-18279739D01*
X515928645Y-18420087D01*
X516176410Y-18469370D01*
X517824870Y-18469370D01*
X518072635Y-18420087D01*
X518282679Y-18279739D01*
X518423027Y-18069695D01*
X518437180Y-17998542D01*
X518673413Y-18234775D01*
X519209741Y-18456930D01*
X519790259Y-18456930D01*
X520326587Y-18234775D01*
X520737075Y-17824287D01*
X520749680Y-17793856D01*
X520762285Y-17824287D01*
X521172773Y-18234775D01*
X521709101Y-18456930D01*
X522289619Y-18456930D01*
X522825947Y-18234775D01*
X523236435Y-17824287D01*
X523458590Y-17287959D01*
X523458590Y-16707441D01*
X523236435Y-16171113D01*
X522825947Y-15760625D01*
X522289619Y-15538470D01*
X521709101Y-15538470D01*
X521172773Y-15760625D01*
X520762285Y-16171113D01*
X520749680Y-16201544D01*
X520737075Y-16171113D01*
X520326587Y-15760625D01*
X519790259Y-15538470D01*
X519209741Y-15538470D01*
X518673413Y-15760625D01*
X518437180Y-15996858D01*
X518423027Y-15925705D01*
X518282679Y-15715661D01*
X518072635Y-15575313D01*
X517824870Y-15526030D01*
X516176410Y-15526030D01*
X515928645Y-15575313D01*
X515718601Y-15715661D01*
X515578253Y-15925705D01*
X515528970Y-16173470D01*
X510237412Y-16173470D01*
X510236435Y-16171113D01*
X509825947Y-15760625D01*
X509289619Y-15538470D01*
X508709101Y-15538470D01*
X508172773Y-15760625D01*
X507762285Y-16171113D01*
X507749680Y-16201544D01*
X507737075Y-16171113D01*
X507326587Y-15760625D01*
X506790259Y-15538470D01*
X506209741Y-15538470D01*
X505673413Y-15760625D01*
X505437180Y-15996858D01*
X505423027Y-15925705D01*
X505282679Y-15715661D01*
X505237876Y-15685725D01*
X509484473Y-11439129D01*
X509532019Y-11407360D01*
X509847305Y-11722646D01*
X510594150Y-12032000D01*
X511402530Y-12032000D01*
X512149375Y-11722646D01*
X512720986Y-11151035D01*
X513000000Y-10477437D01*
X513279014Y-11151035D01*
X513850625Y-11722646D01*
X514597470Y-12032000D01*
X515405850Y-12032000D01*
X516152695Y-11722646D01*
X516724306Y-11151035D01*
X517033660Y-10404190D01*
X517033660Y-9595810D01*
X516724306Y-8848965D01*
X516152695Y-8277354D01*
X515405850Y-7968000D01*
X514597470Y-7968000D01*
X513850625Y-8277354D01*
X513279014Y-8848965D01*
X513000000Y-9522563D01*
X512720986Y-8848965D01*
X512149375Y-8277354D01*
X511402530Y-7968000D01*
X510594150Y-7968000D01*
X509847305Y-8277354D01*
X509760000Y-8364659D01*
X509760000Y-3997440D01*
X509850000Y-3997440D01*
X510097765Y-3948157D01*
X510307809Y-3807809D01*
X510448157Y-3597765D01*
X510497440Y-3350000D01*
X510497440Y-2856892D01*
X515478514Y-2856892D01*
X515724817Y-3381358D01*
X516153076Y-3771645D01*
X516563110Y-3941476D01*
X516793000Y-3820155D01*
X516793000Y-2627000D01*
X515599181Y-2627000D01*
X515478514Y-2856892D01*
X510497440Y-2856892D01*
X510497440Y-2143108D01*
X515478514Y-2143108D01*
X515599181Y-2373000D01*
X516793000Y-2373000D01*
X516793000Y-1179845D01*
X517047000Y-1179845D01*
X517047000Y-2373000D01*
X517067000Y-2373000D01*
X517067000Y-2627000D01*
X517047000Y-2627000D01*
X517047000Y-3820155D01*
X517276890Y-3941476D01*
X517686924Y-3771645D01*
X518115183Y-3381358D01*
X518176157Y-3251522D01*
X518389375Y-3570625D01*
X518880582Y-3898839D01*
X519313744Y-3985000D01*
X519606256Y-3985000D01*
X520039418Y-3898839D01*
X520530625Y-3570625D01*
X520542816Y-3552381D01*
X520551843Y-3597765D01*
X520692191Y-3807809D01*
X520902235Y-3948157D01*
X521150000Y-3997440D01*
X522850000Y-3997440D01*
X523097765Y-3948157D01*
X523307809Y-3807809D01*
X523448157Y-3597765D01*
X523497440Y-3350000D01*
X523497440Y-1650000D01*
X523448157Y-1402235D01*
X523307809Y-1192191D01*
X523097765Y-1051843D01*
X522850000Y-1002560D01*
X521150000Y-1002560D01*
X520902235Y-1051843D01*
X520692191Y-1192191D01*
X520551843Y-1402235D01*
X520542816Y-1447619D01*
X520530625Y-1429375D01*
X520039418Y-1101161D01*
X519606256Y-1015000D01*
X519313744Y-1015000D01*
X518880582Y-1101161D01*
X518389375Y-1429375D01*
X518176157Y-1748478D01*
X518115183Y-1618642D01*
X517686924Y-1228355D01*
X517276890Y-1058524D01*
X517047000Y-1179845D01*
X516793000Y-1179845D01*
X516563110Y-1058524D01*
X516153076Y-1228355D01*
X515724817Y-1618642D01*
X515478514Y-2143108D01*
X510497440Y-2143108D01*
X510497440Y-1650000D01*
X510448157Y-1402235D01*
X510307809Y-1192191D01*
X510097765Y-1051843D01*
X509850000Y-1002560D01*
X508150000Y-1002560D01*
X507902235Y-1051843D01*
X507692191Y-1192191D01*
X507551843Y-1402235D01*
X507542816Y-1447619D01*
X507530625Y-1429375D01*
X507039418Y-1101161D01*
X506606256Y-1015000D01*
X506313744Y-1015000D01*
X505880582Y-1101161D01*
X505389375Y-1429375D01*
X505176157Y-1748478D01*
X505115183Y-1618642D01*
X504686924Y-1228355D01*
X504276890Y-1058524D01*
X504047000Y-1179845D01*
X504047000Y-2373000D01*
X504067000Y-2373000D01*
X504067000Y-2627000D01*
X504047000Y-2627000D01*
X504047000Y-3820155D01*
X504276890Y-3941476D01*
X504686924Y-3771645D01*
X505115183Y-3381358D01*
X505176157Y-3251522D01*
X505389375Y-3570625D01*
X505880582Y-3898839D01*
X506313744Y-3985000D01*
X506606256Y-3985000D01*
X507039418Y-3898839D01*
X507530625Y-3570625D01*
X507542816Y-3552381D01*
X507551843Y-3597765D01*
X507692191Y-3807809D01*
X507902235Y-3948157D01*
X508150000Y-3997440D01*
X508240000Y-3997440D01*
X508240001Y-10533997D01*
X503516128Y-15257871D01*
X503452672Y-15300271D01*
X503410272Y-15363727D01*
X503410271Y-15363728D01*
X503301824Y-15526030D01*
X503176410Y-15526030D01*
X502928645Y-15575313D01*
X502718601Y-15715661D01*
X502578253Y-15925705D01*
X502528970Y-16173470D01*
X496445701Y-16173470D01*
X496444270Y-16142526D01*
X496273926Y-15731279D01*
X496025295Y-15654170D01*
X495179605Y-16499860D01*
X494820395Y-16499860D01*
X493974705Y-15654170D01*
X493726074Y-15731279D01*
X493528923Y-16277295D01*
X482450500Y-16277295D01*
X482444270Y-16142526D01*
X482273926Y-15731279D01*
X482025295Y-15654170D01*
X481179605Y-16499860D01*
X480820395Y-16499860D01*
X479974705Y-15654170D01*
X479726074Y-15731279D01*
X479528923Y-16277295D01*
X475500778Y-16277295D01*
X475570625Y-16230625D01*
X475898839Y-15739418D01*
X475951521Y-15474565D01*
X480154310Y-15474565D01*
X481000000Y-16320255D01*
X481845690Y-15474565D01*
X494154310Y-15474565D01*
X495000000Y-16320255D01*
X495845690Y-15474565D01*
X495768581Y-15225934D01*
X495222565Y-15028783D01*
X494642666Y-15055590D01*
X494231419Y-15225934D01*
X494154310Y-15474565D01*
X481845690Y-15474565D01*
X481768581Y-15225934D01*
X481222565Y-15028783D01*
X480642666Y-15055590D01*
X480231419Y-15225934D01*
X480154310Y-15474565D01*
X475951521Y-15474565D01*
X476014092Y-15160000D01*
X475898839Y-14580582D01*
X475860281Y-14522875D01*
X480154310Y-14522875D01*
X480231419Y-14771506D01*
X480777435Y-14968657D01*
X481357334Y-14941850D01*
X481768581Y-14771506D01*
X481845690Y-14522875D01*
X481000000Y-13677185D01*
X480154310Y-14522875D01*
X475860281Y-14522875D01*
X475650174Y-14208428D01*
X476159773Y-13698829D01*
X476223229Y-13656429D01*
X476391204Y-13405037D01*
X476417067Y-13275015D01*
X479528923Y-13275015D01*
X479555730Y-13854914D01*
X479726074Y-14266161D01*
X479974705Y-14343270D01*
X480820395Y-13497580D01*
X481179605Y-13497580D01*
X482025295Y-14343270D01*
X482273926Y-14266161D01*
X482471077Y-13720145D01*
X482444270Y-13140246D01*
X482273926Y-12728999D01*
X482025295Y-12651890D01*
X481179605Y-13497580D01*
X480820395Y-13497580D01*
X479974705Y-12651890D01*
X479726074Y-12728999D01*
X479528923Y-13275015D01*
X476417067Y-13275015D01*
X476435300Y-13183352D01*
X476435300Y-13183347D01*
X476450188Y-13108500D01*
X476435300Y-13033653D01*
X476435300Y-12138046D01*
X476450188Y-12063199D01*
X476435300Y-11988352D01*
X476435300Y-11988348D01*
X476391204Y-11766663D01*
X476223229Y-11515271D01*
X476159773Y-11472871D01*
X475677531Y-10990629D01*
X475898839Y-10659418D01*
X476014092Y-10080000D01*
X475901170Y-9512300D01*
X476920853Y-9512300D01*
X476995700Y-9527188D01*
X477070547Y-9512300D01*
X477070552Y-9512300D01*
X477292237Y-9468204D01*
X477543629Y-9300229D01*
X477586031Y-9236771D01*
X478337503Y-8485300D01*
X479353933Y-8485300D01*
X479105259Y-8733974D01*
X478765000Y-9555431D01*
X478765000Y-10444569D01*
X479105259Y-11266026D01*
X479733974Y-11894741D01*
X480379729Y-12162222D01*
X480231419Y-12223654D01*
X480154310Y-12472285D01*
X481000000Y-13317975D01*
X481717975Y-12600000D01*
X485202560Y-12600000D01*
X485202560Y-14400000D01*
X485251843Y-14647765D01*
X485392191Y-14857809D01*
X485602235Y-14998157D01*
X485850000Y-15047440D01*
X487650000Y-15047440D01*
X487897765Y-14998157D01*
X488107809Y-14857809D01*
X488248157Y-14647765D01*
X488251275Y-14632092D01*
X488420493Y-14801310D01*
X488984670Y-15035000D01*
X489595330Y-15035000D01*
X490159507Y-14801310D01*
X490591310Y-14369507D01*
X490825000Y-13805330D01*
X490825000Y-13194670D01*
X490591310Y-12630493D01*
X490159507Y-12198690D01*
X489595330Y-11965000D01*
X488984670Y-11965000D01*
X488420493Y-12198690D01*
X488251275Y-12367908D01*
X488248157Y-12352235D01*
X488107809Y-12142191D01*
X487897765Y-12001843D01*
X487650000Y-11952560D01*
X485850000Y-11952560D01*
X485602235Y-12001843D01*
X485392191Y-12142191D01*
X485251843Y-12352235D01*
X485202560Y-12600000D01*
X481717975Y-12600000D01*
X481845690Y-12472285D01*
X481768581Y-12223654D01*
X481610105Y-12166433D01*
X482266026Y-11894741D01*
X482894741Y-11266026D01*
X483235000Y-10444569D01*
X483235000Y-9555431D01*
X492765000Y-9555431D01*
X492765000Y-10444569D01*
X493105259Y-11266026D01*
X493733974Y-11894741D01*
X494395209Y-12168634D01*
X494173413Y-12260505D01*
X493762925Y-12670993D01*
X493540770Y-13207321D01*
X493540770Y-13787839D01*
X493762925Y-14324167D01*
X494173413Y-14734655D01*
X494709741Y-14956810D01*
X495290259Y-14956810D01*
X495826587Y-14734655D01*
X496237075Y-14324167D01*
X496459230Y-13787839D01*
X496459230Y-13207321D01*
X496237075Y-12670993D01*
X495826587Y-12260505D01*
X495604791Y-12168634D01*
X496266026Y-11894741D01*
X496894741Y-11266026D01*
X497235000Y-10444569D01*
X497235000Y-9595810D01*
X499969660Y-9595810D01*
X499969660Y-10404190D01*
X500279014Y-11151035D01*
X500850625Y-11722646D01*
X501597470Y-12032000D01*
X502405850Y-12032000D01*
X503152695Y-11722646D01*
X503724306Y-11151035D01*
X504033660Y-10404190D01*
X504033660Y-9595810D01*
X503724306Y-8848965D01*
X503152695Y-8277354D01*
X502405850Y-7968000D01*
X501597470Y-7968000D01*
X500850625Y-8277354D01*
X500279014Y-8848965D01*
X499969660Y-9595810D01*
X497235000Y-9595810D01*
X497235000Y-9555431D01*
X496894741Y-8733974D01*
X496266026Y-8105259D01*
X495444569Y-7765000D01*
X494555431Y-7765000D01*
X493733974Y-8105259D01*
X493105259Y-8733974D01*
X492765000Y-9555431D01*
X483235000Y-9555431D01*
X482894741Y-8733974D01*
X482646067Y-8485300D01*
X487989853Y-8485300D01*
X488064700Y-8500188D01*
X488139547Y-8485300D01*
X488139552Y-8485300D01*
X488361237Y-8441204D01*
X488612629Y-8273229D01*
X488655031Y-8209770D01*
X488875161Y-7989640D01*
X488984670Y-8035000D01*
X489595330Y-8035000D01*
X490159507Y-7801310D01*
X490591310Y-7369507D01*
X490825000Y-6805330D01*
X490825000Y-6194670D01*
X490591310Y-5630493D01*
X490159507Y-5198690D01*
X489595330Y-4965000D01*
X488984670Y-4965000D01*
X488420493Y-5198690D01*
X488251275Y-5367908D01*
X488248157Y-5352235D01*
X488107809Y-5142191D01*
X487897765Y-5001843D01*
X487650000Y-4952560D01*
X485850000Y-4952560D01*
X485602235Y-5001843D01*
X485392191Y-5142191D01*
X485251843Y-5352235D01*
X485202560Y-5600000D01*
X485202560Y-6965300D01*
X478097546Y-6965300D01*
X478022699Y-6950412D01*
X477947852Y-6965300D01*
X477947848Y-6965300D01*
X477726163Y-7009396D01*
X477685343Y-7036671D01*
X477538226Y-7134971D01*
X477538224Y-7134973D01*
X477474771Y-7177371D01*
X477432373Y-7240825D01*
X476680899Y-7992300D01*
X475924124Y-7992300D01*
X476014092Y-7540000D01*
X475898839Y-6960582D01*
X475570625Y-6469375D01*
X475552381Y-6457184D01*
X475597765Y-6448157D01*
X475807809Y-6307809D01*
X475948157Y-6097765D01*
X475997440Y-5850000D01*
X475997440Y-4711021D01*
X479540770Y-4711021D01*
X479540770Y-5291539D01*
X479762925Y-5827867D01*
X480173413Y-6238355D01*
X480709741Y-6460510D01*
X481290259Y-6460510D01*
X481826587Y-6238355D01*
X482237075Y-5827867D01*
X482459230Y-5291539D01*
X482459230Y-4711021D01*
X493540770Y-4711021D01*
X493540770Y-5291539D01*
X493762925Y-5827867D01*
X494173413Y-6238355D01*
X494709741Y-6460510D01*
X495290259Y-6460510D01*
X495826587Y-6238355D01*
X496237075Y-5827867D01*
X496459230Y-5291539D01*
X496459230Y-4711021D01*
X496237075Y-4174693D01*
X495826587Y-3764205D01*
X495290259Y-3542050D01*
X494709741Y-3542050D01*
X494173413Y-3764205D01*
X493762925Y-4174693D01*
X493540770Y-4711021D01*
X482459230Y-4711021D01*
X482237075Y-4174693D01*
X481826587Y-3764205D01*
X481290259Y-3542050D01*
X480709741Y-3542050D01*
X480173413Y-3764205D01*
X479762925Y-4174693D01*
X479540770Y-4711021D01*
X475997440Y-4711021D01*
X475997440Y-4150000D01*
X475948157Y-3902235D01*
X475807809Y-3692191D01*
X475597765Y-3551843D01*
X475350000Y-3502560D01*
X473650000Y-3502560D01*
X473402235Y-3551843D01*
X473192191Y-3692191D01*
X473051843Y-3902235D01*
X473042816Y-3947619D01*
X473030625Y-3929375D01*
X472539418Y-3601161D01*
X472106256Y-3515000D01*
X471813744Y-3515000D01*
X471380582Y-3601161D01*
X470889375Y-3929375D01*
X470849121Y-3989619D01*
X469716394Y-2856892D01*
X502478514Y-2856892D01*
X502724817Y-3381358D01*
X503153076Y-3771645D01*
X503563110Y-3941476D01*
X503793000Y-3820155D01*
X503793000Y-2627000D01*
X502599181Y-2627000D01*
X502478514Y-2856892D01*
X469716394Y-2856892D01*
X469002610Y-2143108D01*
X502478514Y-2143108D01*
X502599181Y-2373000D01*
X503793000Y-2373000D01*
X503793000Y-1179845D01*
X503563110Y-1058524D01*
X503153076Y-1228355D01*
X502724817Y-1618642D01*
X502478514Y-2143108D01*
X469002610Y-2143108D01*
X467594501Y-735000D01*
X525265001Y-735000D01*
X525265001Y-8392980D01*
X525265001Y-8392980D01*
G37*
X525265001Y-8392980D02*
X525149375Y-8277354D01*
X524402530Y-7968000D01*
X523594150Y-7968000D01*
X522847305Y-8277354D01*
X522275694Y-8848965D01*
X521966340Y-9595810D01*
X521966340Y-10404190D01*
X522275694Y-11151035D01*
X522847305Y-11722646D01*
X523594150Y-12032000D01*
X524402530Y-12032000D01*
X525149375Y-11722646D01*
X525265000Y-11607021D01*
X525265000Y-19265000D01*
X470661801Y-19265000D01*
X472401646Y-17525155D01*
X480154310Y-17525155D01*
X480231419Y-17773786D01*
X480777435Y-17970937D01*
X481357334Y-17944130D01*
X481768581Y-17773786D01*
X481845690Y-17525155D01*
X494154310Y-17525155D01*
X494231419Y-17773786D01*
X494777435Y-17970937D01*
X495357334Y-17944130D01*
X495768581Y-17773786D01*
X495845690Y-17525155D01*
X495000000Y-16679465D01*
X494154310Y-17525155D01*
X481845690Y-17525155D01*
X481000000Y-16679465D01*
X480154310Y-17525155D01*
X472401646Y-17525155D01*
X473589311Y-16337491D01*
X473920582Y-16558839D01*
X474353744Y-16645000D01*
X474646256Y-16645000D01*
X475079418Y-16558839D01*
X475500778Y-16277295D01*
X479528923Y-16277295D01*
X479555730Y-16857194D01*
X479726074Y-17268441D01*
X479974705Y-17345550D01*
X480820395Y-16499860D01*
X481179605Y-16499860D01*
X482025295Y-17345550D01*
X482273926Y-17268441D01*
X482471077Y-16722425D01*
X482450500Y-16277295D01*
X493528923Y-16277295D01*
X493555730Y-16857194D01*
X493726074Y-17268441D01*
X493974705Y-17345550D01*
X494820395Y-16499860D01*
X495179605Y-16499860D01*
X496025295Y-17345550D01*
X496273926Y-17268441D01*
X496471077Y-16722425D01*
X496445701Y-16173470D01*
X502528970Y-16173470D01*
X502528970Y-17821930D01*
X502578253Y-18069695D01*
X502718601Y-18279739D01*
X502928645Y-18420087D01*
X503176410Y-18469370D01*
X504824870Y-18469370D01*
X505072635Y-18420087D01*
X505282679Y-18279739D01*
X505423027Y-18069695D01*
X505437180Y-17998542D01*
X505673413Y-18234775D01*
X506209741Y-18456930D01*
X506790259Y-18456930D01*
X507326587Y-18234775D01*
X507737075Y-17824287D01*
X507749680Y-17793856D01*
X507762285Y-17824287D01*
X508172773Y-18234775D01*
X508709101Y-18456930D01*
X509289619Y-18456930D01*
X509825947Y-18234775D01*
X510236435Y-17824287D01*
X510458590Y-17287959D01*
X510458590Y-16707441D01*
X510237412Y-16173470D01*
X515528970Y-16173470D01*
X515528970Y-17821930D01*
X515578253Y-18069695D01*
X515718601Y-18279739D01*
X515928645Y-18420087D01*
X516176410Y-18469370D01*
X517824870Y-18469370D01*
X518072635Y-18420087D01*
X518282679Y-18279739D01*
X518423027Y-18069695D01*
X518437180Y-17998542D01*
X518673413Y-18234775D01*
X519209741Y-18456930D01*
X519790259Y-18456930D01*
X520326587Y-18234775D01*
X520737075Y-17824287D01*
X520749680Y-17793856D01*
X520762285Y-17824287D01*
X521172773Y-18234775D01*
X521709101Y-18456930D01*
X522289619Y-18456930D01*
X522825947Y-18234775D01*
X523236435Y-17824287D01*
X523458590Y-17287959D01*
X523458590Y-16707441D01*
X523236435Y-16171113D01*
X522825947Y-15760625D01*
X522289619Y-15538470D01*
X521709101Y-15538470D01*
X521172773Y-15760625D01*
X520762285Y-16171113D01*
X520749680Y-16201544D01*
X520737075Y-16171113D01*
X520326587Y-15760625D01*
X519790259Y-15538470D01*
X519209741Y-15538470D01*
X518673413Y-15760625D01*
X518437180Y-15996858D01*
X518423027Y-15925705D01*
X518282679Y-15715661D01*
X518072635Y-15575313D01*
X517824870Y-15526030D01*
X516176410Y-15526030D01*
X515928645Y-15575313D01*
X515718601Y-15715661D01*
X515578253Y-15925705D01*
X515528970Y-16173470D01*
X510237412Y-16173470D01*
X510236435Y-16171113D01*
X509825947Y-15760625D01*
X509289619Y-15538470D01*
X508709101Y-15538470D01*
X508172773Y-15760625D01*
X507762285Y-16171113D01*
X507749680Y-16201544D01*
X507737075Y-16171113D01*
X507326587Y-15760625D01*
X506790259Y-15538470D01*
X506209741Y-15538470D01*
X505673413Y-15760625D01*
X505437180Y-15996858D01*
X505423027Y-15925705D01*
X505282679Y-15715661D01*
X505237876Y-15685725D01*
X509484473Y-11439129D01*
X509532019Y-11407360D01*
X509847305Y-11722646D01*
X510594150Y-12032000D01*
X511402530Y-12032000D01*
X512149375Y-11722646D01*
X512720986Y-11151035D01*
X513000000Y-10477437D01*
X513279014Y-11151035D01*
X513850625Y-11722646D01*
X514597470Y-12032000D01*
X515405850Y-12032000D01*
X516152695Y-11722646D01*
X516724306Y-11151035D01*
X517033660Y-10404190D01*
X517033660Y-9595810D01*
X516724306Y-8848965D01*
X516152695Y-8277354D01*
X515405850Y-7968000D01*
X514597470Y-7968000D01*
X513850625Y-8277354D01*
X513279014Y-8848965D01*
X513000000Y-9522563D01*
X512720986Y-8848965D01*
X512149375Y-8277354D01*
X511402530Y-7968000D01*
X510594150Y-7968000D01*
X509847305Y-8277354D01*
X509760000Y-8364659D01*
X509760000Y-3997440D01*
X509850000Y-3997440D01*
X510097765Y-3948157D01*
X510307809Y-3807809D01*
X510448157Y-3597765D01*
X510497440Y-3350000D01*
X510497440Y-2856892D01*
X515478514Y-2856892D01*
X515724817Y-3381358D01*
X516153076Y-3771645D01*
X516563110Y-3941476D01*
X516793000Y-3820155D01*
X516793000Y-2627000D01*
X515599181Y-2627000D01*
X515478514Y-2856892D01*
X510497440Y-2856892D01*
X510497440Y-2143108D01*
X515478514Y-2143108D01*
X515599181Y-2373000D01*
X516793000Y-2373000D01*
X516793000Y-1179845D01*
X517047000Y-1179845D01*
X517047000Y-2373000D01*
X517067000Y-2373000D01*
X517067000Y-2627000D01*
X517047000Y-2627000D01*
X517047000Y-3820155D01*
X517276890Y-3941476D01*
X517686924Y-3771645D01*
X518115183Y-3381358D01*
X518176157Y-3251522D01*
X518389375Y-3570625D01*
X518880582Y-3898839D01*
X519313744Y-3985000D01*
X519606256Y-3985000D01*
X520039418Y-3898839D01*
X520530625Y-3570625D01*
X520542816Y-3552381D01*
X520551843Y-3597765D01*
X520692191Y-3807809D01*
X520902235Y-3948157D01*
X521150000Y-3997440D01*
X522850000Y-3997440D01*
X523097765Y-3948157D01*
X523307809Y-3807809D01*
X523448157Y-3597765D01*
X523497440Y-3350000D01*
X523497440Y-1650000D01*
X523448157Y-1402235D01*
X523307809Y-1192191D01*
X523097765Y-1051843D01*
X522850000Y-1002560D01*
X521150000Y-1002560D01*
X520902235Y-1051843D01*
X520692191Y-1192191D01*
X520551843Y-1402235D01*
X520542816Y-1447619D01*
X520530625Y-1429375D01*
X520039418Y-1101161D01*
X519606256Y-1015000D01*
X519313744Y-1015000D01*
X518880582Y-1101161D01*
X518389375Y-1429375D01*
X518176157Y-1748478D01*
X518115183Y-1618642D01*
X517686924Y-1228355D01*
X517276890Y-1058524D01*
X517047000Y-1179845D01*
X516793000Y-1179845D01*
X516563110Y-1058524D01*
X516153076Y-1228355D01*
X515724817Y-1618642D01*
X515478514Y-2143108D01*
X510497440Y-2143108D01*
X510497440Y-1650000D01*
X510448157Y-1402235D01*
X510307809Y-1192191D01*
X510097765Y-1051843D01*
X509850000Y-1002560D01*
X508150000Y-1002560D01*
X507902235Y-1051843D01*
X507692191Y-1192191D01*
X507551843Y-1402235D01*
X507542816Y-1447619D01*
X507530625Y-1429375D01*
X507039418Y-1101161D01*
X506606256Y-1015000D01*
X506313744Y-1015000D01*
X505880582Y-1101161D01*
X505389375Y-1429375D01*
X505176157Y-1748478D01*
X505115183Y-1618642D01*
X504686924Y-1228355D01*
X504276890Y-1058524D01*
X504047000Y-1179845D01*
X504047000Y-2373000D01*
X504067000Y-2373000D01*
X504067000Y-2627000D01*
X504047000Y-2627000D01*
X504047000Y-3820155D01*
X504276890Y-3941476D01*
X504686924Y-3771645D01*
X505115183Y-3381358D01*
X505176157Y-3251522D01*
X505389375Y-3570625D01*
X505880582Y-3898839D01*
X506313744Y-3985000D01*
X506606256Y-3985000D01*
X507039418Y-3898839D01*
X507530625Y-3570625D01*
X507542816Y-3552381D01*
X507551843Y-3597765D01*
X507692191Y-3807809D01*
X507902235Y-3948157D01*
X508150000Y-3997440D01*
X508240000Y-3997440D01*
X508240001Y-10533997D01*
X503516128Y-15257871D01*
X503452672Y-15300271D01*
X503410272Y-15363727D01*
X503410271Y-15363728D01*
X503301824Y-15526030D01*
X503176410Y-15526030D01*
X502928645Y-15575313D01*
X502718601Y-15715661D01*
X502578253Y-15925705D01*
X502528970Y-16173470D01*
X496445701Y-16173470D01*
X496444270Y-16142526D01*
X496273926Y-15731279D01*
X496025295Y-15654170D01*
X495179605Y-16499860D01*
X494820395Y-16499860D01*
X493974705Y-15654170D01*
X493726074Y-15731279D01*
X493528923Y-16277295D01*
X482450500Y-16277295D01*
X482444270Y-16142526D01*
X482273926Y-15731279D01*
X482025295Y-15654170D01*
X481179605Y-16499860D01*
X480820395Y-16499860D01*
X479974705Y-15654170D01*
X479726074Y-15731279D01*
X479528923Y-16277295D01*
X475500778Y-16277295D01*
X475570625Y-16230625D01*
X475898839Y-15739418D01*
X475951521Y-15474565D01*
X480154310Y-15474565D01*
X481000000Y-16320255D01*
X481845690Y-15474565D01*
X494154310Y-15474565D01*
X495000000Y-16320255D01*
X495845690Y-15474565D01*
X495768581Y-15225934D01*
X495222565Y-15028783D01*
X494642666Y-15055590D01*
X494231419Y-15225934D01*
X494154310Y-15474565D01*
X481845690Y-15474565D01*
X481768581Y-15225934D01*
X481222565Y-15028783D01*
X480642666Y-15055590D01*
X480231419Y-15225934D01*
X480154310Y-15474565D01*
X475951521Y-15474565D01*
X476014092Y-15160000D01*
X475898839Y-14580582D01*
X475860281Y-14522875D01*
X480154310Y-14522875D01*
X480231419Y-14771506D01*
X480777435Y-14968657D01*
X481357334Y-14941850D01*
X481768581Y-14771506D01*
X481845690Y-14522875D01*
X481000000Y-13677185D01*
X480154310Y-14522875D01*
X475860281Y-14522875D01*
X475650174Y-14208428D01*
X476159773Y-13698829D01*
X476223229Y-13656429D01*
X476391204Y-13405037D01*
X476417067Y-13275015D01*
X479528923Y-13275015D01*
X479555730Y-13854914D01*
X479726074Y-14266161D01*
X479974705Y-14343270D01*
X480820395Y-13497580D01*
X481179605Y-13497580D01*
X482025295Y-14343270D01*
X482273926Y-14266161D01*
X482471077Y-13720145D01*
X482444270Y-13140246D01*
X482273926Y-12728999D01*
X482025295Y-12651890D01*
X481179605Y-13497580D01*
X480820395Y-13497580D01*
X479974705Y-12651890D01*
X479726074Y-12728999D01*
X479528923Y-13275015D01*
X476417067Y-13275015D01*
X476435300Y-13183352D01*
X476435300Y-13183347D01*
X476450188Y-13108500D01*
X476435300Y-13033653D01*
X476435300Y-12138046D01*
X476450188Y-12063199D01*
X476435300Y-11988352D01*
X476435300Y-11988348D01*
X476391204Y-11766663D01*
X476223229Y-11515271D01*
X476159773Y-11472871D01*
X475677531Y-10990629D01*
X475898839Y-10659418D01*
X476014092Y-10080000D01*
X475901170Y-9512300D01*
X476920853Y-9512300D01*
X476995700Y-9527188D01*
X477070547Y-9512300D01*
X477070552Y-9512300D01*
X477292237Y-9468204D01*
X477543629Y-9300229D01*
X477586031Y-9236771D01*
X478337503Y-8485300D01*
X479353933Y-8485300D01*
X479105259Y-8733974D01*
X478765000Y-9555431D01*
X478765000Y-10444569D01*
X479105259Y-11266026D01*
X479733974Y-11894741D01*
X480379729Y-12162222D01*
X480231419Y-12223654D01*
X480154310Y-12472285D01*
X481000000Y-13317975D01*
X481717975Y-12600000D01*
X485202560Y-12600000D01*
X485202560Y-14400000D01*
X485251843Y-14647765D01*
X485392191Y-14857809D01*
X485602235Y-14998157D01*
X485850000Y-15047440D01*
X487650000Y-15047440D01*
X487897765Y-14998157D01*
X488107809Y-14857809D01*
X488248157Y-14647765D01*
X488251275Y-14632092D01*
X488420493Y-14801310D01*
X488984670Y-15035000D01*
X489595330Y-15035000D01*
X490159507Y-14801310D01*
X490591310Y-14369507D01*
X490825000Y-13805330D01*
X490825000Y-13194670D01*
X490591310Y-12630493D01*
X490159507Y-12198690D01*
X489595330Y-11965000D01*
X488984670Y-11965000D01*
X488420493Y-12198690D01*
X488251275Y-12367908D01*
X488248157Y-12352235D01*
X488107809Y-12142191D01*
X487897765Y-12001843D01*
X487650000Y-11952560D01*
X485850000Y-11952560D01*
X485602235Y-12001843D01*
X485392191Y-12142191D01*
X485251843Y-12352235D01*
X485202560Y-12600000D01*
X481717975Y-12600000D01*
X481845690Y-12472285D01*
X481768581Y-12223654D01*
X481610105Y-12166433D01*
X482266026Y-11894741D01*
X482894741Y-11266026D01*
X483235000Y-10444569D01*
X483235000Y-9555431D01*
X492765000Y-9555431D01*
X492765000Y-10444569D01*
X493105259Y-11266026D01*
X493733974Y-11894741D01*
X494395209Y-12168634D01*
X494173413Y-12260505D01*
X493762925Y-12670993D01*
X493540770Y-13207321D01*
X493540770Y-13787839D01*
X493762925Y-14324167D01*
X494173413Y-14734655D01*
X494709741Y-14956810D01*
X495290259Y-14956810D01*
X495826587Y-14734655D01*
X496237075Y-14324167D01*
X496459230Y-13787839D01*
X496459230Y-13207321D01*
X496237075Y-12670993D01*
X495826587Y-12260505D01*
X495604791Y-12168634D01*
X496266026Y-11894741D01*
X496894741Y-11266026D01*
X497235000Y-10444569D01*
X497235000Y-9595810D01*
X499969660Y-9595810D01*
X499969660Y-10404190D01*
X500279014Y-11151035D01*
X500850625Y-11722646D01*
X501597470Y-12032000D01*
X502405850Y-12032000D01*
X503152695Y-11722646D01*
X503724306Y-11151035D01*
X504033660Y-10404190D01*
X504033660Y-9595810D01*
X503724306Y-8848965D01*
X503152695Y-8277354D01*
X502405850Y-7968000D01*
X501597470Y-7968000D01*
X500850625Y-8277354D01*
X500279014Y-8848965D01*
X499969660Y-9595810D01*
X497235000Y-9595810D01*
X497235000Y-9555431D01*
X496894741Y-8733974D01*
X496266026Y-8105259D01*
X495444569Y-7765000D01*
X494555431Y-7765000D01*
X493733974Y-8105259D01*
X493105259Y-8733974D01*
X492765000Y-9555431D01*
X483235000Y-9555431D01*
X482894741Y-8733974D01*
X482646067Y-8485300D01*
X487989853Y-8485300D01*
X488064700Y-8500188D01*
X488139547Y-8485300D01*
X488139552Y-8485300D01*
X488361237Y-8441204D01*
X488612629Y-8273229D01*
X488655031Y-8209770D01*
X488875161Y-7989640D01*
X488984670Y-8035000D01*
X489595330Y-8035000D01*
X490159507Y-7801310D01*
X490591310Y-7369507D01*
X490825000Y-6805330D01*
X490825000Y-6194670D01*
X490591310Y-5630493D01*
X490159507Y-5198690D01*
X489595330Y-4965000D01*
X488984670Y-4965000D01*
X488420493Y-5198690D01*
X488251275Y-5367908D01*
X488248157Y-5352235D01*
X488107809Y-5142191D01*
X487897765Y-5001843D01*
X487650000Y-4952560D01*
X485850000Y-4952560D01*
X485602235Y-5001843D01*
X485392191Y-5142191D01*
X485251843Y-5352235D01*
X485202560Y-5600000D01*
X485202560Y-6965300D01*
X478097546Y-6965300D01*
X478022699Y-6950412D01*
X477947852Y-6965300D01*
X477947848Y-6965300D01*
X477726163Y-7009396D01*
X477685343Y-7036671D01*
X477538226Y-7134971D01*
X477538224Y-7134973D01*
X477474771Y-7177371D01*
X477432373Y-7240825D01*
X476680899Y-7992300D01*
X475924124Y-7992300D01*
X476014092Y-7540000D01*
X475898839Y-6960582D01*
X475570625Y-6469375D01*
X475552381Y-6457184D01*
X475597765Y-6448157D01*
X475807809Y-6307809D01*
X475948157Y-6097765D01*
X475997440Y-5850000D01*
X475997440Y-4711021D01*
X479540770Y-4711021D01*
X479540770Y-5291539D01*
X479762925Y-5827867D01*
X480173413Y-6238355D01*
X480709741Y-6460510D01*
X481290259Y-6460510D01*
X481826587Y-6238355D01*
X482237075Y-5827867D01*
X482459230Y-5291539D01*
X482459230Y-4711021D01*
X493540770Y-4711021D01*
X493540770Y-5291539D01*
X493762925Y-5827867D01*
X494173413Y-6238355D01*
X494709741Y-6460510D01*
X495290259Y-6460510D01*
X495826587Y-6238355D01*
X496237075Y-5827867D01*
X496459230Y-5291539D01*
X496459230Y-4711021D01*
X496237075Y-4174693D01*
X495826587Y-3764205D01*
X495290259Y-3542050D01*
X494709741Y-3542050D01*
X494173413Y-3764205D01*
X493762925Y-4174693D01*
X493540770Y-4711021D01*
X482459230Y-4711021D01*
X482237075Y-4174693D01*
X481826587Y-3764205D01*
X481290259Y-3542050D01*
X480709741Y-3542050D01*
X480173413Y-3764205D01*
X479762925Y-4174693D01*
X479540770Y-4711021D01*
X475997440Y-4711021D01*
X475997440Y-4150000D01*
X475948157Y-3902235D01*
X475807809Y-3692191D01*
X475597765Y-3551843D01*
X475350000Y-3502560D01*
X473650000Y-3502560D01*
X473402235Y-3551843D01*
X473192191Y-3692191D01*
X473051843Y-3902235D01*
X473042816Y-3947619D01*
X473030625Y-3929375D01*
X472539418Y-3601161D01*
X472106256Y-3515000D01*
X471813744Y-3515000D01*
X471380582Y-3601161D01*
X470889375Y-3929375D01*
X470849121Y-3989619D01*
X469716394Y-2856892D01*
X502478514Y-2856892D01*
X502724817Y-3381358D01*
X503153076Y-3771645D01*
X503563110Y-3941476D01*
X503793000Y-3820155D01*
X503793000Y-2627000D01*
X502599181Y-2627000D01*
X502478514Y-2856892D01*
X469716394Y-2856892D01*
X469002610Y-2143108D01*
X502478514Y-2143108D01*
X502599181Y-2373000D01*
X503793000Y-2373000D01*
X503793000Y-1179845D01*
X503563110Y-1058524D01*
X503153076Y-1228355D01*
X502724817Y-1618642D01*
X502478514Y-2143108D01*
X469002610Y-2143108D01*
X467594501Y-735000D01*
X525265001Y-735000D01*
X525265001Y-8392980D01*
G36*
X57606699Y-5604700D02*
X55997440Y-5604700D01*
X55997440Y-4150000D01*
X55948157Y-3902235D01*
X55807809Y-3692191D01*
X55597765Y-3551843D01*
X55350000Y-3502560D01*
X53650000Y-3502560D01*
X53402235Y-3551843D01*
X53352126Y-3585325D01*
X53082031Y-3315230D01*
X53039629Y-3251771D01*
X52788237Y-3083796D01*
X52566552Y-3039700D01*
X52566547Y-3039700D01*
X52491700Y-3024812D01*
X52416853Y-3039700D01*
X32276446Y-3039700D01*
X32201599Y-3024812D01*
X32126752Y-3039700D01*
X32126748Y-3039700D01*
X31905063Y-3083796D01*
X31653671Y-3251771D01*
X31611271Y-3315227D01*
X31356861Y-3569637D01*
X31290259Y-3542050D01*
X30709741Y-3542050D01*
X30173413Y-3764205D01*
X29762925Y-4174693D01*
X29540770Y-4711021D01*
X29540770Y-5291539D01*
X29762925Y-5827867D01*
X30173413Y-6238355D01*
X30709741Y-6460510D01*
X31290259Y-6460510D01*
X31826587Y-6238355D01*
X32237075Y-5827867D01*
X32331460Y-5600000D01*
X35202560Y-5600000D01*
X35202560Y-7400000D01*
X35251843Y-7647765D01*
X35392191Y-7857809D01*
X35602235Y-7998157D01*
X35850000Y-8047440D01*
X37650000Y-8047440D01*
X37897765Y-7998157D01*
X38107809Y-7857809D01*
X38248157Y-7647765D01*
X38251275Y-7632092D01*
X38420493Y-7801310D01*
X38984670Y-8035000D01*
X39595330Y-8035000D01*
X40159507Y-7801310D01*
X40591310Y-7369507D01*
X40825000Y-6805330D01*
X40825000Y-6194670D01*
X40591310Y-5630493D01*
X40159507Y-5198690D01*
X39595330Y-4965000D01*
X38984670Y-4965000D01*
X38420493Y-5198690D01*
X38251275Y-5367908D01*
X38248157Y-5352235D01*
X38107809Y-5142191D01*
X37897765Y-5001843D01*
X37650000Y-4952560D01*
X35850000Y-4952560D01*
X35602235Y-5001843D01*
X35392191Y-5142191D01*
X35251843Y-5352235D01*
X35202560Y-5600000D01*
X32331460Y-5600000D01*
X32459230Y-5291539D01*
X32459230Y-4711021D01*
X32431654Y-4644447D01*
X32516402Y-4559700D01*
X43603449Y-4559700D01*
X43540770Y-4711021D01*
X43540770Y-5291539D01*
X43762925Y-5827867D01*
X44173413Y-6238355D01*
X44709741Y-6460510D01*
X45290259Y-6460510D01*
X45826587Y-6238355D01*
X46237075Y-5827867D01*
X46459230Y-5291539D01*
X46459230Y-4711021D01*
X46396551Y-4559700D01*
X50533489Y-4559700D01*
X50445908Y-5000000D01*
X50561161Y-5579418D01*
X50889375Y-6070625D01*
X51187761Y-6270000D01*
X50889375Y-6469375D01*
X50561161Y-6960582D01*
X50445908Y-7540000D01*
X50561161Y-8119418D01*
X50889375Y-8610625D01*
X51187761Y-8810000D01*
X50889375Y-9009375D01*
X50561161Y-9500582D01*
X50445908Y-10080000D01*
X50561161Y-10659418D01*
X50804659Y-11023839D01*
X50276228Y-11552271D01*
X50212772Y-11594671D01*
X50170372Y-11658127D01*
X50170371Y-11658128D01*
X50044797Y-11846063D01*
X49985812Y-12142600D01*
X50000701Y-12217451D01*
X50000700Y-13077852D01*
X49985812Y-13152700D01*
X50000700Y-13227547D01*
X50000700Y-13227551D01*
X50044796Y-13449236D01*
X50212771Y-13700629D01*
X50276230Y-13743031D01*
X50782509Y-14249311D01*
X50561161Y-14580582D01*
X50445908Y-15160000D01*
X50561161Y-15739418D01*
X50889375Y-16230625D01*
X51380582Y-16558839D01*
X51813744Y-16645000D01*
X52106256Y-16645000D01*
X52539418Y-16558839D01*
X53030625Y-16230625D01*
X53230000Y-15932239D01*
X53429375Y-16230625D01*
X53920582Y-16558839D01*
X54353744Y-16645000D01*
X54646256Y-16645000D01*
X55079418Y-16558839D01*
X55570625Y-16230625D01*
X55898839Y-15739418D01*
X56014092Y-15160000D01*
X55898839Y-14580582D01*
X55881946Y-14555300D01*
X56823799Y-14555300D01*
X57751670Y-15483172D01*
X57794071Y-15546629D01*
X58045463Y-15714604D01*
X58267148Y-15758700D01*
X58267152Y-15758700D01*
X58342000Y-15773588D01*
X58416848Y-15758700D01*
X59716173Y-15758700D01*
X59528923Y-16277295D01*
X59555730Y-16857194D01*
X59726074Y-17268441D01*
X59974705Y-17345550D01*
X60820395Y-16499860D01*
X60806253Y-16485718D01*
X60985858Y-16306113D01*
X61000000Y-16320255D01*
X61014143Y-16306113D01*
X61193748Y-16485718D01*
X61179605Y-16499860D01*
X62025295Y-17345550D01*
X62273926Y-17268441D01*
X62471077Y-16722425D01*
X62444270Y-16142526D01*
X62285284Y-15758700D01*
X63362899Y-15758700D01*
X66869198Y-19265000D01*
X735000Y-19265000D01*
X735000Y-16173470D01*
X2528970Y-16173470D01*
X2528970Y-17821930D01*
X2578253Y-18069695D01*
X2718601Y-18279739D01*
X2928645Y-18420087D01*
X3176410Y-18469370D01*
X4824870Y-18469370D01*
X5072635Y-18420087D01*
X5282679Y-18279739D01*
X5423027Y-18069695D01*
X5437180Y-17998542D01*
X5673413Y-18234775D01*
X6209741Y-18456930D01*
X6790259Y-18456930D01*
X7326587Y-18234775D01*
X7737075Y-17824287D01*
X7749680Y-17793856D01*
X7762285Y-17824287D01*
X8172773Y-18234775D01*
X8709101Y-18456930D01*
X9289619Y-18456930D01*
X9825947Y-18234775D01*
X10236435Y-17824287D01*
X10458590Y-17287959D01*
X10458590Y-16707441D01*
X10237412Y-16173470D01*
X15528970Y-16173470D01*
X15528970Y-17821930D01*
X15578253Y-18069695D01*
X15718601Y-18279739D01*
X15928645Y-18420087D01*
X16176410Y-18469370D01*
X17824870Y-18469370D01*
X18072635Y-18420087D01*
X18282679Y-18279739D01*
X18423027Y-18069695D01*
X18437180Y-17998542D01*
X18673413Y-18234775D01*
X19209741Y-18456930D01*
X19790259Y-18456930D01*
X20326587Y-18234775D01*
X20737075Y-17824287D01*
X20749680Y-17793856D01*
X20762285Y-17824287D01*
X21172773Y-18234775D01*
X21709101Y-18456930D01*
X22289619Y-18456930D01*
X22825947Y-18234775D01*
X23236435Y-17824287D01*
X23360339Y-17525155D01*
X30154310Y-17525155D01*
X30231419Y-17773786D01*
X30777435Y-17970937D01*
X31357334Y-17944130D01*
X31768581Y-17773786D01*
X31845690Y-17525155D01*
X44154310Y-17525155D01*
X44231419Y-17773786D01*
X44777435Y-17970937D01*
X45357334Y-17944130D01*
X45768581Y-17773786D01*
X45845690Y-17525155D01*
X60154310Y-17525155D01*
X60231419Y-17773786D01*
X60777435Y-17970937D01*
X61357334Y-17944130D01*
X61768581Y-17773786D01*
X61845690Y-17525155D01*
X61000000Y-16679465D01*
X60154310Y-17525155D01*
X45845690Y-17525155D01*
X45000000Y-16679465D01*
X44154310Y-17525155D01*
X31845690Y-17525155D01*
X31000000Y-16679465D01*
X30154310Y-17525155D01*
X23360339Y-17525155D01*
X23458590Y-17287959D01*
X23458590Y-16707441D01*
X23280418Y-16277295D01*
X29528923Y-16277295D01*
X29555730Y-16857194D01*
X29726074Y-17268441D01*
X29974705Y-17345550D01*
X30820395Y-16499860D01*
X31179605Y-16499860D01*
X32025295Y-17345550D01*
X32273926Y-17268441D01*
X32471077Y-16722425D01*
X32450500Y-16277295D01*
X43528923Y-16277295D01*
X43555730Y-16857194D01*
X43726074Y-17268441D01*
X43974705Y-17345550D01*
X44820395Y-16499860D01*
X45179605Y-16499860D01*
X46025295Y-17345550D01*
X46273926Y-17268441D01*
X46471077Y-16722425D01*
X46444270Y-16142526D01*
X46273926Y-15731279D01*
X46025295Y-15654170D01*
X45179605Y-16499860D01*
X44820395Y-16499860D01*
X43974705Y-15654170D01*
X43726074Y-15731279D01*
X43528923Y-16277295D01*
X32450500Y-16277295D01*
X32444270Y-16142526D01*
X32273926Y-15731279D01*
X32025295Y-15654170D01*
X31179605Y-16499860D01*
X30820395Y-16499860D01*
X29974705Y-15654170D01*
X29726074Y-15731279D01*
X29528923Y-16277295D01*
X23280418Y-16277295D01*
X23236435Y-16171113D01*
X22825947Y-15760625D01*
X22289619Y-15538470D01*
X21709101Y-15538470D01*
X21172773Y-15760625D01*
X20762285Y-16171113D01*
X20749680Y-16201544D01*
X20737075Y-16171113D01*
X20326587Y-15760625D01*
X19790259Y-15538470D01*
X19209741Y-15538470D01*
X18673413Y-15760625D01*
X18437180Y-15996858D01*
X18423027Y-15925705D01*
X18282679Y-15715661D01*
X18072635Y-15575313D01*
X17824870Y-15526030D01*
X16176410Y-15526030D01*
X15928645Y-15575313D01*
X15718601Y-15715661D01*
X15578253Y-15925705D01*
X15528970Y-16173470D01*
X10237412Y-16173470D01*
X10236435Y-16171113D01*
X9825947Y-15760625D01*
X9289619Y-15538470D01*
X8709101Y-15538470D01*
X8172773Y-15760625D01*
X7762285Y-16171113D01*
X7749680Y-16201544D01*
X7737075Y-16171113D01*
X7326587Y-15760625D01*
X6790259Y-15538470D01*
X6209741Y-15538470D01*
X5673413Y-15760625D01*
X5437180Y-15996858D01*
X5423027Y-15925705D01*
X5282679Y-15715661D01*
X5072635Y-15575313D01*
X4824870Y-15526030D01*
X3176410Y-15526030D01*
X2928645Y-15575313D01*
X2718601Y-15715661D01*
X2578253Y-15925705D01*
X2528970Y-16173470D01*
X735000Y-16173470D01*
X735000Y-15474565D01*
X30154310Y-15474565D01*
X31000000Y-16320255D01*
X31845690Y-15474565D01*
X44154310Y-15474565D01*
X45000000Y-16320255D01*
X45845690Y-15474565D01*
X45768581Y-15225934D01*
X45222565Y-15028783D01*
X44642666Y-15055590D01*
X44231419Y-15225934D01*
X44154310Y-15474565D01*
X31845690Y-15474565D01*
X31768581Y-15225934D01*
X31222565Y-15028783D01*
X30642666Y-15055590D01*
X30231419Y-15225934D01*
X30154310Y-15474565D01*
X735000Y-15474565D01*
X735000Y-14522875D01*
X30154310Y-14522875D01*
X30231419Y-14771506D01*
X30777435Y-14968657D01*
X31357334Y-14941850D01*
X31768581Y-14771506D01*
X31845690Y-14522875D01*
X31000000Y-13677185D01*
X30154310Y-14522875D01*
X735000Y-14522875D01*
X735000Y-13275015D01*
X29528923Y-13275015D01*
X29555730Y-13854914D01*
X29726074Y-14266161D01*
X29974705Y-14343270D01*
X30820395Y-13497580D01*
X31179605Y-13497580D01*
X32025295Y-14343270D01*
X32273926Y-14266161D01*
X32471077Y-13720145D01*
X32444270Y-13140246D01*
X32273926Y-12728999D01*
X32025295Y-12651890D01*
X31179605Y-13497580D01*
X30820395Y-13497580D01*
X29974705Y-12651890D01*
X29726074Y-12728999D01*
X29528923Y-13275015D01*
X735000Y-13275015D01*
X735000Y-11607021D01*
X850625Y-11722646D01*
X1597470Y-12032000D01*
X2405850Y-12032000D01*
X3152695Y-11722646D01*
X3724306Y-11151035D01*
X4033660Y-10404190D01*
X4033660Y-9595810D01*
X8966340Y-9595810D01*
X8966340Y-10404190D01*
X9275694Y-11151035D01*
X9847305Y-11722646D01*
X10594150Y-12032000D01*
X11402530Y-12032000D01*
X12149375Y-11722646D01*
X12720986Y-11151035D01*
X13000000Y-10477437D01*
X13279014Y-11151035D01*
X13850625Y-11722646D01*
X14597470Y-12032000D01*
X15405850Y-12032000D01*
X16152695Y-11722646D01*
X16724306Y-11151035D01*
X17033660Y-10404190D01*
X17033660Y-9595810D01*
X21966340Y-9595810D01*
X21966340Y-10404190D01*
X22275694Y-11151035D01*
X22847305Y-11722646D01*
X23594150Y-12032000D01*
X24402530Y-12032000D01*
X25149375Y-11722646D01*
X25720986Y-11151035D01*
X26030340Y-10404190D01*
X26030340Y-9595810D01*
X26013615Y-9555431D01*
X28765000Y-9555431D01*
X28765000Y-10444569D01*
X29105259Y-11266026D01*
X29733974Y-11894741D01*
X30379729Y-12162222D01*
X30231419Y-12223654D01*
X30154310Y-12472285D01*
X31000000Y-13317975D01*
X31717975Y-12600000D01*
X35202560Y-12600000D01*
X35202560Y-14400000D01*
X35251843Y-14647765D01*
X35392191Y-14857809D01*
X35602235Y-14998157D01*
X35850000Y-15047440D01*
X37650000Y-15047440D01*
X37897765Y-14998157D01*
X38107809Y-14857809D01*
X38248157Y-14647765D01*
X38251275Y-14632092D01*
X38420493Y-14801310D01*
X38984670Y-15035000D01*
X39595330Y-15035000D01*
X40159507Y-14801310D01*
X40591310Y-14369507D01*
X40825000Y-13805330D01*
X40825000Y-13194670D01*
X40591310Y-12630493D01*
X40159507Y-12198690D01*
X39595330Y-11965000D01*
X38984670Y-11965000D01*
X38420493Y-12198690D01*
X38251275Y-12367908D01*
X38248157Y-12352235D01*
X38107809Y-12142191D01*
X37897765Y-12001843D01*
X37650000Y-11952560D01*
X35850000Y-11952560D01*
X35602235Y-12001843D01*
X35392191Y-12142191D01*
X35251843Y-12352235D01*
X35202560Y-12600000D01*
X31717975Y-12600000D01*
X31845690Y-12472285D01*
X31768581Y-12223654D01*
X31610105Y-12166433D01*
X32266026Y-11894741D01*
X32894741Y-11266026D01*
X33235000Y-10444569D01*
X33235000Y-9555431D01*
X42765000Y-9555431D01*
X42765000Y-10444569D01*
X43105259Y-11266026D01*
X43733974Y-11894741D01*
X44395209Y-12168634D01*
X44173413Y-12260505D01*
X43762925Y-12670993D01*
X43540770Y-13207321D01*
X43540770Y-13787839D01*
X43762925Y-14324167D01*
X44173413Y-14734655D01*
X44709741Y-14956810D01*
X45290259Y-14956810D01*
X45826587Y-14734655D01*
X46237075Y-14324167D01*
X46459230Y-13787839D01*
X46459230Y-13207321D01*
X46237075Y-12670993D01*
X45826587Y-12260505D01*
X45604791Y-12168634D01*
X46266026Y-11894741D01*
X46894741Y-11266026D01*
X47235000Y-10444569D01*
X47235000Y-9555431D01*
X46894741Y-8733974D01*
X46266026Y-8105259D01*
X45444569Y-7765000D01*
X44555431Y-7765000D01*
X43733974Y-8105259D01*
X43105259Y-8733974D01*
X42765000Y-9555431D01*
X33235000Y-9555431D01*
X32894741Y-8733974D01*
X32266026Y-8105259D01*
X31444569Y-7765000D01*
X30555431Y-7765000D01*
X29733974Y-8105259D01*
X29105259Y-8733974D01*
X28765000Y-9555431D01*
X26013615Y-9555431D01*
X25720986Y-8848965D01*
X25149375Y-8277354D01*
X24402530Y-7968000D01*
X23594150Y-7968000D01*
X22847305Y-8277354D01*
X22275694Y-8848965D01*
X21966340Y-9595810D01*
X17033660Y-9595810D01*
X16724306Y-8848965D01*
X16152695Y-8277354D01*
X15405850Y-7968000D01*
X14597470Y-7968000D01*
X13850625Y-8277354D01*
X13279014Y-8848965D01*
X13000000Y-9522563D01*
X12720986Y-8848965D01*
X12149375Y-8277354D01*
X11402530Y-7968000D01*
X10594150Y-7968000D01*
X9847305Y-8277354D01*
X9275694Y-8848965D01*
X8966340Y-9595810D01*
X4033660Y-9595810D01*
X3724306Y-8848965D01*
X3152695Y-8277354D01*
X2405850Y-7968000D01*
X1597470Y-7968000D01*
X850625Y-8277354D01*
X735000Y-8392979D01*
X735000Y-1650000D01*
X2502560Y-1650000D01*
X2502560Y-3350000D01*
X2551843Y-3597765D01*
X2692191Y-3807809D01*
X2902235Y-3948157D01*
X3150000Y-3997440D01*
X4850000Y-3997440D01*
X5097765Y-3948157D01*
X5307809Y-3807809D01*
X5448157Y-3597765D01*
X5457184Y-3552381D01*
X5469375Y-3570625D01*
X5960582Y-3898839D01*
X6393744Y-3985000D01*
X6686256Y-3985000D01*
X7119418Y-3898839D01*
X7610625Y-3570625D01*
X7823843Y-3251522D01*
X7884817Y-3381358D01*
X8313076Y-3771645D01*
X8723110Y-3941476D01*
X8953000Y-3820155D01*
X8953000Y-2627000D01*
X9207000Y-2627000D01*
X9207000Y-3820155D01*
X9436890Y-3941476D01*
X9846924Y-3771645D01*
X10275183Y-3381358D01*
X10521486Y-2856892D01*
X10400819Y-2627000D01*
X9207000Y-2627000D01*
X8953000Y-2627000D01*
X8933000Y-2627000D01*
X8933000Y-2373000D01*
X8953000Y-2373000D01*
X8953000Y-1179845D01*
X9207000Y-1179845D01*
X9207000Y-2373000D01*
X10400819Y-2373000D01*
X10521486Y-2143108D01*
X10289910Y-1650000D01*
X15502560Y-1650000D01*
X15502560Y-3350000D01*
X15551843Y-3597765D01*
X15692191Y-3807809D01*
X15902235Y-3948157D01*
X16150000Y-3997440D01*
X17850000Y-3997440D01*
X18097765Y-3948157D01*
X18307809Y-3807809D01*
X18448157Y-3597765D01*
X18457184Y-3552381D01*
X18469375Y-3570625D01*
X18960582Y-3898839D01*
X19393744Y-3985000D01*
X19686256Y-3985000D01*
X20119418Y-3898839D01*
X20610625Y-3570625D01*
X20823843Y-3251522D01*
X20884817Y-3381358D01*
X21313076Y-3771645D01*
X21723110Y-3941476D01*
X21953000Y-3820155D01*
X21953000Y-2627000D01*
X22207000Y-2627000D01*
X22207000Y-3820155D01*
X22436890Y-3941476D01*
X22846924Y-3771645D01*
X23275183Y-3381358D01*
X23521486Y-2856892D01*
X23400819Y-2627000D01*
X22207000Y-2627000D01*
X21953000Y-2627000D01*
X21933000Y-2627000D01*
X21933000Y-2373000D01*
X21953000Y-2373000D01*
X21953000Y-1179845D01*
X22207000Y-1179845D01*
X22207000Y-2373000D01*
X23400819Y-2373000D01*
X23521486Y-2143108D01*
X23275183Y-1618642D01*
X22846924Y-1228355D01*
X22436890Y-1058524D01*
X22207000Y-1179845D01*
X21953000Y-1179845D01*
X21723110Y-1058524D01*
X21313076Y-1228355D01*
X20884817Y-1618642D01*
X20823843Y-1748478D01*
X20610625Y-1429375D01*
X20119418Y-1101161D01*
X19686256Y-1015000D01*
X19393744Y-1015000D01*
X18960582Y-1101161D01*
X18469375Y-1429375D01*
X18457184Y-1447619D01*
X18448157Y-1402235D01*
X18307809Y-1192191D01*
X18097765Y-1051843D01*
X17850000Y-1002560D01*
X16150000Y-1002560D01*
X15902235Y-1051843D01*
X15692191Y-1192191D01*
X15551843Y-1402235D01*
X15502560Y-1650000D01*
X10289910Y-1650000D01*
X10275183Y-1618642D01*
X9846924Y-1228355D01*
X9436890Y-1058524D01*
X9207000Y-1179845D01*
X8953000Y-1179845D01*
X8723110Y-1058524D01*
X8313076Y-1228355D01*
X7884817Y-1618642D01*
X7823843Y-1748478D01*
X7610625Y-1429375D01*
X7119418Y-1101161D01*
X6686256Y-1015000D01*
X6393744Y-1015000D01*
X5960582Y-1101161D01*
X5469375Y-1429375D01*
X5457184Y-1447619D01*
X5448157Y-1402235D01*
X5307809Y-1192191D01*
X5097765Y-1051843D01*
X4850000Y-1002560D01*
X3150000Y-1002560D01*
X2902235Y-1051843D01*
X2692191Y-1192191D01*
X2551843Y-1402235D01*
X2502560Y-1650000D01*
X735000Y-1650000D01*
X735000Y-735000D01*
X62476398Y-735000D01*
X57606699Y-5604700D01*
X57606699Y-5604700D01*
G37*
X57606699Y-5604700D02*
X55997440Y-5604700D01*
X55997440Y-4150000D01*
X55948157Y-3902235D01*
X55807809Y-3692191D01*
X55597765Y-3551843D01*
X55350000Y-3502560D01*
X53650000Y-3502560D01*
X53402235Y-3551843D01*
X53352126Y-3585325D01*
X53082031Y-3315230D01*
X53039629Y-3251771D01*
X52788237Y-3083796D01*
X52566552Y-3039700D01*
X52566547Y-3039700D01*
X52491700Y-3024812D01*
X52416853Y-3039700D01*
X32276446Y-3039700D01*
X32201599Y-3024812D01*
X32126752Y-3039700D01*
X32126748Y-3039700D01*
X31905063Y-3083796D01*
X31653671Y-3251771D01*
X31611271Y-3315227D01*
X31356861Y-3569637D01*
X31290259Y-3542050D01*
X30709741Y-3542050D01*
X30173413Y-3764205D01*
X29762925Y-4174693D01*
X29540770Y-4711021D01*
X29540770Y-5291539D01*
X29762925Y-5827867D01*
X30173413Y-6238355D01*
X30709741Y-6460510D01*
X31290259Y-6460510D01*
X31826587Y-6238355D01*
X32237075Y-5827867D01*
X32331460Y-5600000D01*
X35202560Y-5600000D01*
X35202560Y-7400000D01*
X35251843Y-7647765D01*
X35392191Y-7857809D01*
X35602235Y-7998157D01*
X35850000Y-8047440D01*
X37650000Y-8047440D01*
X37897765Y-7998157D01*
X38107809Y-7857809D01*
X38248157Y-7647765D01*
X38251275Y-7632092D01*
X38420493Y-7801310D01*
X38984670Y-8035000D01*
X39595330Y-8035000D01*
X40159507Y-7801310D01*
X40591310Y-7369507D01*
X40825000Y-6805330D01*
X40825000Y-6194670D01*
X40591310Y-5630493D01*
X40159507Y-5198690D01*
X39595330Y-4965000D01*
X38984670Y-4965000D01*
X38420493Y-5198690D01*
X38251275Y-5367908D01*
X38248157Y-5352235D01*
X38107809Y-5142191D01*
X37897765Y-5001843D01*
X37650000Y-4952560D01*
X35850000Y-4952560D01*
X35602235Y-5001843D01*
X35392191Y-5142191D01*
X35251843Y-5352235D01*
X35202560Y-5600000D01*
X32331460Y-5600000D01*
X32459230Y-5291539D01*
X32459230Y-4711021D01*
X32431654Y-4644447D01*
X32516402Y-4559700D01*
X43603449Y-4559700D01*
X43540770Y-4711021D01*
X43540770Y-5291539D01*
X43762925Y-5827867D01*
X44173413Y-6238355D01*
X44709741Y-6460510D01*
X45290259Y-6460510D01*
X45826587Y-6238355D01*
X46237075Y-5827867D01*
X46459230Y-5291539D01*
X46459230Y-4711021D01*
X46396551Y-4559700D01*
X50533489Y-4559700D01*
X50445908Y-5000000D01*
X50561161Y-5579418D01*
X50889375Y-6070625D01*
X51187761Y-6270000D01*
X50889375Y-6469375D01*
X50561161Y-6960582D01*
X50445908Y-7540000D01*
X50561161Y-8119418D01*
X50889375Y-8610625D01*
X51187761Y-8810000D01*
X50889375Y-9009375D01*
X50561161Y-9500582D01*
X50445908Y-10080000D01*
X50561161Y-10659418D01*
X50804659Y-11023839D01*
X50276228Y-11552271D01*
X50212772Y-11594671D01*
X50170372Y-11658127D01*
X50170371Y-11658128D01*
X50044797Y-11846063D01*
X49985812Y-12142600D01*
X50000701Y-12217451D01*
X50000700Y-13077852D01*
X49985812Y-13152700D01*
X50000700Y-13227547D01*
X50000700Y-13227551D01*
X50044796Y-13449236D01*
X50212771Y-13700629D01*
X50276230Y-13743031D01*
X50782509Y-14249311D01*
X50561161Y-14580582D01*
X50445908Y-15160000D01*
X50561161Y-15739418D01*
X50889375Y-16230625D01*
X51380582Y-16558839D01*
X51813744Y-16645000D01*
X52106256Y-16645000D01*
X52539418Y-16558839D01*
X53030625Y-16230625D01*
X53230000Y-15932239D01*
X53429375Y-16230625D01*
X53920582Y-16558839D01*
X54353744Y-16645000D01*
X54646256Y-16645000D01*
X55079418Y-16558839D01*
X55570625Y-16230625D01*
X55898839Y-15739418D01*
X56014092Y-15160000D01*
X55898839Y-14580582D01*
X55881946Y-14555300D01*
X56823799Y-14555300D01*
X57751670Y-15483172D01*
X57794071Y-15546629D01*
X58045463Y-15714604D01*
X58267148Y-15758700D01*
X58267152Y-15758700D01*
X58342000Y-15773588D01*
X58416848Y-15758700D01*
X59716173Y-15758700D01*
X59528923Y-16277295D01*
X59555730Y-16857194D01*
X59726074Y-17268441D01*
X59974705Y-17345550D01*
X60820395Y-16499860D01*
X60806253Y-16485718D01*
X60985858Y-16306113D01*
X61000000Y-16320255D01*
X61014143Y-16306113D01*
X61193748Y-16485718D01*
X61179605Y-16499860D01*
X62025295Y-17345550D01*
X62273926Y-17268441D01*
X62471077Y-16722425D01*
X62444270Y-16142526D01*
X62285284Y-15758700D01*
X63362899Y-15758700D01*
X66869198Y-19265000D01*
X735000Y-19265000D01*
X735000Y-16173470D01*
X2528970Y-16173470D01*
X2528970Y-17821930D01*
X2578253Y-18069695D01*
X2718601Y-18279739D01*
X2928645Y-18420087D01*
X3176410Y-18469370D01*
X4824870Y-18469370D01*
X5072635Y-18420087D01*
X5282679Y-18279739D01*
X5423027Y-18069695D01*
X5437180Y-17998542D01*
X5673413Y-18234775D01*
X6209741Y-18456930D01*
X6790259Y-18456930D01*
X7326587Y-18234775D01*
X7737075Y-17824287D01*
X7749680Y-17793856D01*
X7762285Y-17824287D01*
X8172773Y-18234775D01*
X8709101Y-18456930D01*
X9289619Y-18456930D01*
X9825947Y-18234775D01*
X10236435Y-17824287D01*
X10458590Y-17287959D01*
X10458590Y-16707441D01*
X10237412Y-16173470D01*
X15528970Y-16173470D01*
X15528970Y-17821930D01*
X15578253Y-18069695D01*
X15718601Y-18279739D01*
X15928645Y-18420087D01*
X16176410Y-18469370D01*
X17824870Y-18469370D01*
X18072635Y-18420087D01*
X18282679Y-18279739D01*
X18423027Y-18069695D01*
X18437180Y-17998542D01*
X18673413Y-18234775D01*
X19209741Y-18456930D01*
X19790259Y-18456930D01*
X20326587Y-18234775D01*
X20737075Y-17824287D01*
X20749680Y-17793856D01*
X20762285Y-17824287D01*
X21172773Y-18234775D01*
X21709101Y-18456930D01*
X22289619Y-18456930D01*
X22825947Y-18234775D01*
X23236435Y-17824287D01*
X23360339Y-17525155D01*
X30154310Y-17525155D01*
X30231419Y-17773786D01*
X30777435Y-17970937D01*
X31357334Y-17944130D01*
X31768581Y-17773786D01*
X31845690Y-17525155D01*
X44154310Y-17525155D01*
X44231419Y-17773786D01*
X44777435Y-17970937D01*
X45357334Y-17944130D01*
X45768581Y-17773786D01*
X45845690Y-17525155D01*
X60154310Y-17525155D01*
X60231419Y-17773786D01*
X60777435Y-17970937D01*
X61357334Y-17944130D01*
X61768581Y-17773786D01*
X61845690Y-17525155D01*
X61000000Y-16679465D01*
X60154310Y-17525155D01*
X45845690Y-17525155D01*
X45000000Y-16679465D01*
X44154310Y-17525155D01*
X31845690Y-17525155D01*
X31000000Y-16679465D01*
X30154310Y-17525155D01*
X23360339Y-17525155D01*
X23458590Y-17287959D01*
X23458590Y-16707441D01*
X23280418Y-16277295D01*
X29528923Y-16277295D01*
X29555730Y-16857194D01*
X29726074Y-17268441D01*
X29974705Y-17345550D01*
X30820395Y-16499860D01*
X31179605Y-16499860D01*
X32025295Y-17345550D01*
X32273926Y-17268441D01*
X32471077Y-16722425D01*
X32450500Y-16277295D01*
X43528923Y-16277295D01*
X43555730Y-16857194D01*
X43726074Y-17268441D01*
X43974705Y-17345550D01*
X44820395Y-16499860D01*
X45179605Y-16499860D01*
X46025295Y-17345550D01*
X46273926Y-17268441D01*
X46471077Y-16722425D01*
X46444270Y-16142526D01*
X46273926Y-15731279D01*
X46025295Y-15654170D01*
X45179605Y-16499860D01*
X44820395Y-16499860D01*
X43974705Y-15654170D01*
X43726074Y-15731279D01*
X43528923Y-16277295D01*
X32450500Y-16277295D01*
X32444270Y-16142526D01*
X32273926Y-15731279D01*
X32025295Y-15654170D01*
X31179605Y-16499860D01*
X30820395Y-16499860D01*
X29974705Y-15654170D01*
X29726074Y-15731279D01*
X29528923Y-16277295D01*
X23280418Y-16277295D01*
X23236435Y-16171113D01*
X22825947Y-15760625D01*
X22289619Y-15538470D01*
X21709101Y-15538470D01*
X21172773Y-15760625D01*
X20762285Y-16171113D01*
X20749680Y-16201544D01*
X20737075Y-16171113D01*
X20326587Y-15760625D01*
X19790259Y-15538470D01*
X19209741Y-15538470D01*
X18673413Y-15760625D01*
X18437180Y-15996858D01*
X18423027Y-15925705D01*
X18282679Y-15715661D01*
X18072635Y-15575313D01*
X17824870Y-15526030D01*
X16176410Y-15526030D01*
X15928645Y-15575313D01*
X15718601Y-15715661D01*
X15578253Y-15925705D01*
X15528970Y-16173470D01*
X10237412Y-16173470D01*
X10236435Y-16171113D01*
X9825947Y-15760625D01*
X9289619Y-15538470D01*
X8709101Y-15538470D01*
X8172773Y-15760625D01*
X7762285Y-16171113D01*
X7749680Y-16201544D01*
X7737075Y-16171113D01*
X7326587Y-15760625D01*
X6790259Y-15538470D01*
X6209741Y-15538470D01*
X5673413Y-15760625D01*
X5437180Y-15996858D01*
X5423027Y-15925705D01*
X5282679Y-15715661D01*
X5072635Y-15575313D01*
X4824870Y-15526030D01*
X3176410Y-15526030D01*
X2928645Y-15575313D01*
X2718601Y-15715661D01*
X2578253Y-15925705D01*
X2528970Y-16173470D01*
X735000Y-16173470D01*
X735000Y-15474565D01*
X30154310Y-15474565D01*
X31000000Y-16320255D01*
X31845690Y-15474565D01*
X44154310Y-15474565D01*
X45000000Y-16320255D01*
X45845690Y-15474565D01*
X45768581Y-15225934D01*
X45222565Y-15028783D01*
X44642666Y-15055590D01*
X44231419Y-15225934D01*
X44154310Y-15474565D01*
X31845690Y-15474565D01*
X31768581Y-15225934D01*
X31222565Y-15028783D01*
X30642666Y-15055590D01*
X30231419Y-15225934D01*
X30154310Y-15474565D01*
X735000Y-15474565D01*
X735000Y-14522875D01*
X30154310Y-14522875D01*
X30231419Y-14771506D01*
X30777435Y-14968657D01*
X31357334Y-14941850D01*
X31768581Y-14771506D01*
X31845690Y-14522875D01*
X31000000Y-13677185D01*
X30154310Y-14522875D01*
X735000Y-14522875D01*
X735000Y-13275015D01*
X29528923Y-13275015D01*
X29555730Y-13854914D01*
X29726074Y-14266161D01*
X29974705Y-14343270D01*
X30820395Y-13497580D01*
X31179605Y-13497580D01*
X32025295Y-14343270D01*
X32273926Y-14266161D01*
X32471077Y-13720145D01*
X32444270Y-13140246D01*
X32273926Y-12728999D01*
X32025295Y-12651890D01*
X31179605Y-13497580D01*
X30820395Y-13497580D01*
X29974705Y-12651890D01*
X29726074Y-12728999D01*
X29528923Y-13275015D01*
X735000Y-13275015D01*
X735000Y-11607021D01*
X850625Y-11722646D01*
X1597470Y-12032000D01*
X2405850Y-12032000D01*
X3152695Y-11722646D01*
X3724306Y-11151035D01*
X4033660Y-10404190D01*
X4033660Y-9595810D01*
X8966340Y-9595810D01*
X8966340Y-10404190D01*
X9275694Y-11151035D01*
X9847305Y-11722646D01*
X10594150Y-12032000D01*
X11402530Y-12032000D01*
X12149375Y-11722646D01*
X12720986Y-11151035D01*
X13000000Y-10477437D01*
X13279014Y-11151035D01*
X13850625Y-11722646D01*
X14597470Y-12032000D01*
X15405850Y-12032000D01*
X16152695Y-11722646D01*
X16724306Y-11151035D01*
X17033660Y-10404190D01*
X17033660Y-9595810D01*
X21966340Y-9595810D01*
X21966340Y-10404190D01*
X22275694Y-11151035D01*
X22847305Y-11722646D01*
X23594150Y-12032000D01*
X24402530Y-12032000D01*
X25149375Y-11722646D01*
X25720986Y-11151035D01*
X26030340Y-10404190D01*
X26030340Y-9595810D01*
X26013615Y-9555431D01*
X28765000Y-9555431D01*
X28765000Y-10444569D01*
X29105259Y-11266026D01*
X29733974Y-11894741D01*
X30379729Y-12162222D01*
X30231419Y-12223654D01*
X30154310Y-12472285D01*
X31000000Y-13317975D01*
X31717975Y-12600000D01*
X35202560Y-12600000D01*
X35202560Y-14400000D01*
X35251843Y-14647765D01*
X35392191Y-14857809D01*
X35602235Y-14998157D01*
X35850000Y-15047440D01*
X37650000Y-15047440D01*
X37897765Y-14998157D01*
X38107809Y-14857809D01*
X38248157Y-14647765D01*
X38251275Y-14632092D01*
X38420493Y-14801310D01*
X38984670Y-15035000D01*
X39595330Y-15035000D01*
X40159507Y-14801310D01*
X40591310Y-14369507D01*
X40825000Y-13805330D01*
X40825000Y-13194670D01*
X40591310Y-12630493D01*
X40159507Y-12198690D01*
X39595330Y-11965000D01*
X38984670Y-11965000D01*
X38420493Y-12198690D01*
X38251275Y-12367908D01*
X38248157Y-12352235D01*
X38107809Y-12142191D01*
X37897765Y-12001843D01*
X37650000Y-11952560D01*
X35850000Y-11952560D01*
X35602235Y-12001843D01*
X35392191Y-12142191D01*
X35251843Y-12352235D01*
X35202560Y-12600000D01*
X31717975Y-12600000D01*
X31845690Y-12472285D01*
X31768581Y-12223654D01*
X31610105Y-12166433D01*
X32266026Y-11894741D01*
X32894741Y-11266026D01*
X33235000Y-10444569D01*
X33235000Y-9555431D01*
X42765000Y-9555431D01*
X42765000Y-10444569D01*
X43105259Y-11266026D01*
X43733974Y-11894741D01*
X44395209Y-12168634D01*
X44173413Y-12260505D01*
X43762925Y-12670993D01*
X43540770Y-13207321D01*
X43540770Y-13787839D01*
X43762925Y-14324167D01*
X44173413Y-14734655D01*
X44709741Y-14956810D01*
X45290259Y-14956810D01*
X45826587Y-14734655D01*
X46237075Y-14324167D01*
X46459230Y-13787839D01*
X46459230Y-13207321D01*
X46237075Y-12670993D01*
X45826587Y-12260505D01*
X45604791Y-12168634D01*
X46266026Y-11894741D01*
X46894741Y-11266026D01*
X47235000Y-10444569D01*
X47235000Y-9555431D01*
X46894741Y-8733974D01*
X46266026Y-8105259D01*
X45444569Y-7765000D01*
X44555431Y-7765000D01*
X43733974Y-8105259D01*
X43105259Y-8733974D01*
X42765000Y-9555431D01*
X33235000Y-9555431D01*
X32894741Y-8733974D01*
X32266026Y-8105259D01*
X31444569Y-7765000D01*
X30555431Y-7765000D01*
X29733974Y-8105259D01*
X29105259Y-8733974D01*
X28765000Y-9555431D01*
X26013615Y-9555431D01*
X25720986Y-8848965D01*
X25149375Y-8277354D01*
X24402530Y-7968000D01*
X23594150Y-7968000D01*
X22847305Y-8277354D01*
X22275694Y-8848965D01*
X21966340Y-9595810D01*
X17033660Y-9595810D01*
X16724306Y-8848965D01*
X16152695Y-8277354D01*
X15405850Y-7968000D01*
X14597470Y-7968000D01*
X13850625Y-8277354D01*
X13279014Y-8848965D01*
X13000000Y-9522563D01*
X12720986Y-8848965D01*
X12149375Y-8277354D01*
X11402530Y-7968000D01*
X10594150Y-7968000D01*
X9847305Y-8277354D01*
X9275694Y-8848965D01*
X8966340Y-9595810D01*
X4033660Y-9595810D01*
X3724306Y-8848965D01*
X3152695Y-8277354D01*
X2405850Y-7968000D01*
X1597470Y-7968000D01*
X850625Y-8277354D01*
X735000Y-8392979D01*
X735000Y-1650000D01*
X2502560Y-1650000D01*
X2502560Y-3350000D01*
X2551843Y-3597765D01*
X2692191Y-3807809D01*
X2902235Y-3948157D01*
X3150000Y-3997440D01*
X4850000Y-3997440D01*
X5097765Y-3948157D01*
X5307809Y-3807809D01*
X5448157Y-3597765D01*
X5457184Y-3552381D01*
X5469375Y-3570625D01*
X5960582Y-3898839D01*
X6393744Y-3985000D01*
X6686256Y-3985000D01*
X7119418Y-3898839D01*
X7610625Y-3570625D01*
X7823843Y-3251522D01*
X7884817Y-3381358D01*
X8313076Y-3771645D01*
X8723110Y-3941476D01*
X8953000Y-3820155D01*
X8953000Y-2627000D01*
X9207000Y-2627000D01*
X9207000Y-3820155D01*
X9436890Y-3941476D01*
X9846924Y-3771645D01*
X10275183Y-3381358D01*
X10521486Y-2856892D01*
X10400819Y-2627000D01*
X9207000Y-2627000D01*
X8953000Y-2627000D01*
X8933000Y-2627000D01*
X8933000Y-2373000D01*
X8953000Y-2373000D01*
X8953000Y-1179845D01*
X9207000Y-1179845D01*
X9207000Y-2373000D01*
X10400819Y-2373000D01*
X10521486Y-2143108D01*
X10289910Y-1650000D01*
X15502560Y-1650000D01*
X15502560Y-3350000D01*
X15551843Y-3597765D01*
X15692191Y-3807809D01*
X15902235Y-3948157D01*
X16150000Y-3997440D01*
X17850000Y-3997440D01*
X18097765Y-3948157D01*
X18307809Y-3807809D01*
X18448157Y-3597765D01*
X18457184Y-3552381D01*
X18469375Y-3570625D01*
X18960582Y-3898839D01*
X19393744Y-3985000D01*
X19686256Y-3985000D01*
X20119418Y-3898839D01*
X20610625Y-3570625D01*
X20823843Y-3251522D01*
X20884817Y-3381358D01*
X21313076Y-3771645D01*
X21723110Y-3941476D01*
X21953000Y-3820155D01*
X21953000Y-2627000D01*
X22207000Y-2627000D01*
X22207000Y-3820155D01*
X22436890Y-3941476D01*
X22846924Y-3771645D01*
X23275183Y-3381358D01*
X23521486Y-2856892D01*
X23400819Y-2627000D01*
X22207000Y-2627000D01*
X21953000Y-2627000D01*
X21933000Y-2627000D01*
X21933000Y-2373000D01*
X21953000Y-2373000D01*
X21953000Y-1179845D01*
X22207000Y-1179845D01*
X22207000Y-2373000D01*
X23400819Y-2373000D01*
X23521486Y-2143108D01*
X23275183Y-1618642D01*
X22846924Y-1228355D01*
X22436890Y-1058524D01*
X22207000Y-1179845D01*
X21953000Y-1179845D01*
X21723110Y-1058524D01*
X21313076Y-1228355D01*
X20884817Y-1618642D01*
X20823843Y-1748478D01*
X20610625Y-1429375D01*
X20119418Y-1101161D01*
X19686256Y-1015000D01*
X19393744Y-1015000D01*
X18960582Y-1101161D01*
X18469375Y-1429375D01*
X18457184Y-1447619D01*
X18448157Y-1402235D01*
X18307809Y-1192191D01*
X18097765Y-1051843D01*
X17850000Y-1002560D01*
X16150000Y-1002560D01*
X15902235Y-1051843D01*
X15692191Y-1192191D01*
X15551843Y-1402235D01*
X15502560Y-1650000D01*
X10289910Y-1650000D01*
X10275183Y-1618642D01*
X9846924Y-1228355D01*
X9436890Y-1058524D01*
X9207000Y-1179845D01*
X8953000Y-1179845D01*
X8723110Y-1058524D01*
X8313076Y-1228355D01*
X7884817Y-1618642D01*
X7823843Y-1748478D01*
X7610625Y-1429375D01*
X7119418Y-1101161D01*
X6686256Y-1015000D01*
X6393744Y-1015000D01*
X5960582Y-1101161D01*
X5469375Y-1429375D01*
X5457184Y-1447619D01*
X5448157Y-1402235D01*
X5307809Y-1192191D01*
X5097765Y-1051843D01*
X4850000Y-1002560D01*
X3150000Y-1002560D01*
X2902235Y-1051843D01*
X2692191Y-1192191D01*
X2551843Y-1402235D01*
X2502560Y-1650000D01*
X735000Y-1650000D01*
X735000Y-735000D01*
X62476398Y-735000D01*
X57606699Y-5604700D01*
G36*
X158984670Y-15035000D02*
X159595330Y-15035000D01*
X159704838Y-14989640D01*
X159927571Y-15212373D01*
X159969971Y-15275829D01*
X160033427Y-15318229D01*
X160221362Y-15443804D01*
X160269505Y-15453380D01*
X160443048Y-15487900D01*
X160443052Y-15487900D01*
X160517900Y-15502788D01*
X160592748Y-15487900D01*
X163911386Y-15487900D01*
X163859909Y-15539377D01*
X163974703Y-15654171D01*
X163726074Y-15731279D01*
X163528923Y-16277295D01*
X163555730Y-16857194D01*
X163726074Y-17268441D01*
X163974705Y-17345550D01*
X164820395Y-16499860D01*
X164806253Y-16485718D01*
X164985858Y-16306113D01*
X165000000Y-16320255D01*
X165014143Y-16306113D01*
X165193748Y-16485718D01*
X165179605Y-16499860D01*
X166025295Y-17345550D01*
X166273926Y-17268441D01*
X166471077Y-16722425D01*
X166444270Y-16142526D01*
X166273926Y-15731279D01*
X166025297Y-15654171D01*
X166140091Y-15539377D01*
X166088614Y-15487900D01*
X179911386Y-15487900D01*
X179859909Y-15539377D01*
X179974703Y-15654171D01*
X179726074Y-15731279D01*
X179528923Y-16277295D01*
X179555730Y-16857194D01*
X179726074Y-17268441D01*
X179974705Y-17345550D01*
X180820395Y-16499860D01*
X180806253Y-16485718D01*
X180985858Y-16306113D01*
X181000000Y-16320255D01*
X181014143Y-16306113D01*
X181193748Y-16485718D01*
X181179605Y-16499860D01*
X182025295Y-17345550D01*
X182273926Y-17268441D01*
X182471077Y-16722425D01*
X182444270Y-16142526D01*
X182273926Y-15731279D01*
X182025297Y-15654171D01*
X182140091Y-15539377D01*
X182088614Y-15487900D01*
X193911386Y-15487900D01*
X193859909Y-15539377D01*
X193974703Y-15654171D01*
X193726074Y-15731279D01*
X193528923Y-16277295D01*
X193555730Y-16857194D01*
X193726074Y-17268441D01*
X193974705Y-17345550D01*
X194820395Y-16499860D01*
X194806253Y-16485718D01*
X194985858Y-16306113D01*
X195000000Y-16320255D01*
X195014143Y-16306113D01*
X195193748Y-16485718D01*
X195179605Y-16499860D01*
X196025295Y-17345550D01*
X196273926Y-17268441D01*
X196471077Y-16722425D01*
X196444270Y-16142526D01*
X196273926Y-15731279D01*
X196025297Y-15654171D01*
X196140091Y-15539377D01*
X196088614Y-15487900D01*
X202939798Y-15487900D01*
X202501599Y-15926100D01*
X202190547Y-15926100D01*
X202115700Y-15911212D01*
X202040853Y-15926100D01*
X202040848Y-15926100D01*
X201819163Y-15970196D01*
X201567771Y-16138171D01*
X201525371Y-16201627D01*
X198893399Y-18833600D01*
X154784801Y-18833600D01*
X156093246Y-17525155D01*
X164154310Y-17525155D01*
X164231419Y-17773786D01*
X164777435Y-17970937D01*
X165357334Y-17944130D01*
X165768581Y-17773786D01*
X165845690Y-17525155D01*
X180154310Y-17525155D01*
X180231419Y-17773786D01*
X180777435Y-17970937D01*
X181357334Y-17944130D01*
X181768581Y-17773786D01*
X181845690Y-17525155D01*
X194154310Y-17525155D01*
X194231419Y-17773786D01*
X194777435Y-17970937D01*
X195357334Y-17944130D01*
X195768581Y-17773786D01*
X195845690Y-17525155D01*
X195000000Y-16679465D01*
X194154310Y-17525155D01*
X181845690Y-17525155D01*
X181000000Y-16679465D01*
X180154310Y-17525155D01*
X165845690Y-17525155D01*
X165000000Y-16679465D01*
X164154310Y-17525155D01*
X156093246Y-17525155D01*
X158459873Y-15158529D01*
X158523329Y-15116129D01*
X158665793Y-14902917D01*
X158984670Y-15035000D01*
X158984670Y-15035000D01*
G37*
X158984670Y-15035000D02*
X159595330Y-15035000D01*
X159704838Y-14989640D01*
X159927571Y-15212373D01*
X159969971Y-15275829D01*
X160033427Y-15318229D01*
X160221362Y-15443804D01*
X160269505Y-15453380D01*
X160443048Y-15487900D01*
X160443052Y-15487900D01*
X160517900Y-15502788D01*
X160592748Y-15487900D01*
X163911386Y-15487900D01*
X163859909Y-15539377D01*
X163974703Y-15654171D01*
X163726074Y-15731279D01*
X163528923Y-16277295D01*
X163555730Y-16857194D01*
X163726074Y-17268441D01*
X163974705Y-17345550D01*
X164820395Y-16499860D01*
X164806253Y-16485718D01*
X164985858Y-16306113D01*
X165000000Y-16320255D01*
X165014143Y-16306113D01*
X165193748Y-16485718D01*
X165179605Y-16499860D01*
X166025295Y-17345550D01*
X166273926Y-17268441D01*
X166471077Y-16722425D01*
X166444270Y-16142526D01*
X166273926Y-15731279D01*
X166025297Y-15654171D01*
X166140091Y-15539377D01*
X166088614Y-15487900D01*
X179911386Y-15487900D01*
X179859909Y-15539377D01*
X179974703Y-15654171D01*
X179726074Y-15731279D01*
X179528923Y-16277295D01*
X179555730Y-16857194D01*
X179726074Y-17268441D01*
X179974705Y-17345550D01*
X180820395Y-16499860D01*
X180806253Y-16485718D01*
X180985858Y-16306113D01*
X181000000Y-16320255D01*
X181014143Y-16306113D01*
X181193748Y-16485718D01*
X181179605Y-16499860D01*
X182025295Y-17345550D01*
X182273926Y-17268441D01*
X182471077Y-16722425D01*
X182444270Y-16142526D01*
X182273926Y-15731279D01*
X182025297Y-15654171D01*
X182140091Y-15539377D01*
X182088614Y-15487900D01*
X193911386Y-15487900D01*
X193859909Y-15539377D01*
X193974703Y-15654171D01*
X193726074Y-15731279D01*
X193528923Y-16277295D01*
X193555730Y-16857194D01*
X193726074Y-17268441D01*
X193974705Y-17345550D01*
X194820395Y-16499860D01*
X194806253Y-16485718D01*
X194985858Y-16306113D01*
X195000000Y-16320255D01*
X195014143Y-16306113D01*
X195193748Y-16485718D01*
X195179605Y-16499860D01*
X196025295Y-17345550D01*
X196273926Y-17268441D01*
X196471077Y-16722425D01*
X196444270Y-16142526D01*
X196273926Y-15731279D01*
X196025297Y-15654171D01*
X196140091Y-15539377D01*
X196088614Y-15487900D01*
X202939798Y-15487900D01*
X202501599Y-15926100D01*
X202190547Y-15926100D01*
X202115700Y-15911212D01*
X202040853Y-15926100D01*
X202040848Y-15926100D01*
X201819163Y-15970196D01*
X201567771Y-16138171D01*
X201525371Y-16201627D01*
X198893399Y-18833600D01*
X154784801Y-18833600D01*
X156093246Y-17525155D01*
X164154310Y-17525155D01*
X164231419Y-17773786D01*
X164777435Y-17970937D01*
X165357334Y-17944130D01*
X165768581Y-17773786D01*
X165845690Y-17525155D01*
X180154310Y-17525155D01*
X180231419Y-17773786D01*
X180777435Y-17970937D01*
X181357334Y-17944130D01*
X181768581Y-17773786D01*
X181845690Y-17525155D01*
X194154310Y-17525155D01*
X194231419Y-17773786D01*
X194777435Y-17970937D01*
X195357334Y-17944130D01*
X195768581Y-17773786D01*
X195845690Y-17525155D01*
X195000000Y-16679465D01*
X194154310Y-17525155D01*
X181845690Y-17525155D01*
X181000000Y-16679465D01*
X180154310Y-17525155D01*
X165845690Y-17525155D01*
X165000000Y-16679465D01*
X164154310Y-17525155D01*
X156093246Y-17525155D01*
X158459873Y-15158529D01*
X158523329Y-15116129D01*
X158665793Y-14902917D01*
X158984670Y-15035000D01*
G36*
X73540770Y-13207321D02*
X73540770Y-13787839D01*
X73762925Y-14324167D01*
X74173413Y-14734655D01*
X74709741Y-14956810D01*
X75290259Y-14956810D01*
X75826587Y-14734655D01*
X76237075Y-14324167D01*
X76459230Y-13787839D01*
X76459230Y-13207321D01*
X76370496Y-12993100D01*
X78078299Y-12993100D01*
X82965998Y-17880800D01*
X82539008Y-17880800D01*
X82498631Y-17783320D01*
X82207480Y-17492169D01*
X81827074Y-17334600D01*
X81415326Y-17334600D01*
X81034920Y-17492169D01*
X80743769Y-17783320D01*
X80586200Y-18163726D01*
X80586200Y-18334900D01*
X75199703Y-18334900D01*
X74833164Y-17968361D01*
X75357334Y-17944130D01*
X75768581Y-17773786D01*
X75845690Y-17525155D01*
X75000000Y-16679465D01*
X74985858Y-16693608D01*
X74806253Y-16514003D01*
X74820395Y-16499860D01*
X75179605Y-16499860D01*
X76025295Y-17345550D01*
X76273926Y-17268441D01*
X76471077Y-16722425D01*
X76444270Y-16142526D01*
X76273926Y-15731279D01*
X76025295Y-15654170D01*
X75179605Y-16499860D01*
X74820395Y-16499860D01*
X73974705Y-15654170D01*
X73726074Y-15731279D01*
X73528923Y-16277295D01*
X73547671Y-16682869D01*
X72339367Y-15474565D01*
X74154310Y-15474565D01*
X75000000Y-16320255D01*
X75845690Y-15474565D01*
X75768581Y-15225934D01*
X75222565Y-15028783D01*
X74642666Y-15055590D01*
X74231419Y-15225934D01*
X74154310Y-15474565D01*
X72339367Y-15474565D01*
X70779640Y-13914839D01*
X70825000Y-13805330D01*
X70825000Y-13194670D01*
X70741507Y-12993100D01*
X73629504Y-12993100D01*
X73540770Y-13207321D01*
X73540770Y-13207321D01*
G37*
X73540770Y-13207321D02*
X73540770Y-13787839D01*
X73762925Y-14324167D01*
X74173413Y-14734655D01*
X74709741Y-14956810D01*
X75290259Y-14956810D01*
X75826587Y-14734655D01*
X76237075Y-14324167D01*
X76459230Y-13787839D01*
X76459230Y-13207321D01*
X76370496Y-12993100D01*
X78078299Y-12993100D01*
X82965998Y-17880800D01*
X82539008Y-17880800D01*
X82498631Y-17783320D01*
X82207480Y-17492169D01*
X81827074Y-17334600D01*
X81415326Y-17334600D01*
X81034920Y-17492169D01*
X80743769Y-17783320D01*
X80586200Y-18163726D01*
X80586200Y-18334900D01*
X75199703Y-18334900D01*
X74833164Y-17968361D01*
X75357334Y-17944130D01*
X75768581Y-17773786D01*
X75845690Y-17525155D01*
X75000000Y-16679465D01*
X74985858Y-16693608D01*
X74806253Y-16514003D01*
X74820395Y-16499860D01*
X75179605Y-16499860D01*
X76025295Y-17345550D01*
X76273926Y-17268441D01*
X76471077Y-16722425D01*
X76444270Y-16142526D01*
X76273926Y-15731279D01*
X76025295Y-15654170D01*
X75179605Y-16499860D01*
X74820395Y-16499860D01*
X73974705Y-15654170D01*
X73726074Y-15731279D01*
X73528923Y-16277295D01*
X73547671Y-16682869D01*
X72339367Y-15474565D01*
X74154310Y-15474565D01*
X75000000Y-16320255D01*
X75845690Y-15474565D01*
X75768581Y-15225934D01*
X75222565Y-15028783D01*
X74642666Y-15055590D01*
X74231419Y-15225934D01*
X74154310Y-15474565D01*
X72339367Y-15474565D01*
X70779640Y-13914839D01*
X70825000Y-13805330D01*
X70825000Y-13194670D01*
X70741507Y-12993100D01*
X73629504Y-12993100D01*
X73540770Y-13207321D01*
G36*
X209528923Y-16277295D02*
X209555730Y-16857194D01*
X209726074Y-17268441D01*
X209974705Y-17345550D01*
X210820395Y-16499860D01*
X210806253Y-16485718D01*
X210985858Y-16306113D01*
X211000000Y-16320255D01*
X211014143Y-16306113D01*
X211193748Y-16485718D01*
X211179605Y-16499860D01*
X212025295Y-17345550D01*
X212273926Y-17268441D01*
X212471077Y-16722425D01*
X212444270Y-16142526D01*
X212366304Y-15954300D01*
X223645547Y-15954300D01*
X223528923Y-16277295D01*
X223555730Y-16857194D01*
X223590982Y-16942300D01*
X221408511Y-16942300D01*
X221222280Y-16756069D01*
X220841874Y-16598500D01*
X220430126Y-16598500D01*
X220049720Y-16756069D01*
X219758569Y-17047220D01*
X219601000Y-17427626D01*
X219601000Y-17599000D01*
X211822788Y-17599000D01*
X211845690Y-17525155D01*
X211000000Y-16679465D01*
X210154310Y-17525155D01*
X210177212Y-17599000D01*
X208261602Y-17599000D01*
X206616901Y-15954300D01*
X209645547Y-15954300D01*
X209528923Y-16277295D01*
X209528923Y-16277295D01*
G37*
X209528923Y-16277295D02*
X209555730Y-16857194D01*
X209726074Y-17268441D01*
X209974705Y-17345550D01*
X210820395Y-16499860D01*
X210806253Y-16485718D01*
X210985858Y-16306113D01*
X211000000Y-16320255D01*
X211014143Y-16306113D01*
X211193748Y-16485718D01*
X211179605Y-16499860D01*
X212025295Y-17345550D01*
X212273926Y-17268441D01*
X212471077Y-16722425D01*
X212444270Y-16142526D01*
X212366304Y-15954300D01*
X223645547Y-15954300D01*
X223528923Y-16277295D01*
X223555730Y-16857194D01*
X223590982Y-16942300D01*
X221408511Y-16942300D01*
X221222280Y-16756069D01*
X220841874Y-16598500D01*
X220430126Y-16598500D01*
X220049720Y-16756069D01*
X219758569Y-17047220D01*
X219601000Y-17427626D01*
X219601000Y-17599000D01*
X211822788Y-17599000D01*
X211845690Y-17525155D01*
X211000000Y-16679465D01*
X210154310Y-17525155D01*
X210177212Y-17599000D01*
X208261602Y-17599000D01*
X206616901Y-15954300D01*
X209645547Y-15954300D01*
X209528923Y-16277295D01*
G36*
X458802964Y-5040265D02*
X458420493Y-5198690D01*
X458251275Y-5367908D01*
X458248157Y-5352235D01*
X458107809Y-5142191D01*
X457897765Y-5001843D01*
X457650000Y-4952560D01*
X455850000Y-4952560D01*
X455602235Y-5001843D01*
X455392191Y-5142191D01*
X455251843Y-5352235D01*
X455202560Y-5600000D01*
X455202560Y-7400000D01*
X455251843Y-7647765D01*
X455392191Y-7857809D01*
X455602235Y-7998157D01*
X455850000Y-8047440D01*
X457650000Y-8047440D01*
X457897765Y-7998157D01*
X458107809Y-7857809D01*
X458248157Y-7647765D01*
X458251275Y-7632092D01*
X458420493Y-7801310D01*
X458984670Y-8035000D01*
X459595330Y-8035000D01*
X460159507Y-7801310D01*
X460591310Y-7369507D01*
X460749735Y-6987036D01*
X462294870Y-8532172D01*
X462337271Y-8595629D01*
X462588663Y-8763604D01*
X462810348Y-8807700D01*
X462810352Y-8807700D01*
X462885199Y-8822588D01*
X462960046Y-8807700D01*
X463074721Y-8807700D01*
X462765000Y-9555431D01*
X462765000Y-10444569D01*
X463105259Y-11266026D01*
X463733974Y-11894741D01*
X464395209Y-12168634D01*
X464173413Y-12260505D01*
X463762925Y-12670993D01*
X463540770Y-13207321D01*
X463540770Y-13787839D01*
X463762925Y-14324167D01*
X464173413Y-14734655D01*
X464709741Y-14956810D01*
X465290259Y-14956810D01*
X465826587Y-14734655D01*
X466237075Y-14324167D01*
X466459230Y-13787839D01*
X466459230Y-13207321D01*
X466237075Y-12670993D01*
X465826587Y-12260505D01*
X465604791Y-12168634D01*
X466266026Y-11894741D01*
X466894741Y-11266026D01*
X467205496Y-10515798D01*
X468618873Y-11929176D01*
X468661271Y-11992629D01*
X468724724Y-12035027D01*
X468724726Y-12035029D01*
X468773694Y-12067748D01*
X468912663Y-12160604D01*
X469134348Y-12204700D01*
X469134352Y-12204700D01*
X469209199Y-12219588D01*
X469284046Y-12204700D01*
X470528516Y-12204700D01*
X470445908Y-12620000D01*
X470561161Y-13199418D01*
X470769531Y-13511266D01*
X466681799Y-17599000D01*
X465822788Y-17599000D01*
X465845690Y-17525155D01*
X465000000Y-16679465D01*
X464154310Y-17525155D01*
X464177212Y-17599000D01*
X451822788Y-17599000D01*
X451845690Y-17525155D01*
X451000000Y-16679465D01*
X450154310Y-17525155D01*
X450177212Y-17599000D01*
X435822788Y-17599000D01*
X435845690Y-17525155D01*
X435000000Y-16679465D01*
X434154310Y-17525155D01*
X434177212Y-17599000D01*
X421822788Y-17599000D01*
X421845690Y-17525155D01*
X421000000Y-16679465D01*
X420154310Y-17525155D01*
X420177212Y-17599000D01*
X405822788Y-17599000D01*
X405845690Y-17525155D01*
X405000000Y-16679465D01*
X404154310Y-17525155D01*
X404177212Y-17599000D01*
X402324901Y-17599000D01*
X403534123Y-16389779D01*
X403555730Y-16857194D01*
X403726074Y-17268441D01*
X403974705Y-17345550D01*
X404820395Y-16499860D01*
X405179605Y-16499860D01*
X406025295Y-17345550D01*
X406273926Y-17268441D01*
X406471077Y-16722425D01*
X406444270Y-16142526D01*
X406273926Y-15731279D01*
X406025295Y-15654170D01*
X405179605Y-16499860D01*
X404820395Y-16499860D01*
X404806253Y-16485718D01*
X404985858Y-16306113D01*
X405000000Y-16320255D01*
X405845690Y-15474565D01*
X405833226Y-15434375D01*
X406562702Y-14704900D01*
X410536433Y-14704900D01*
X410445908Y-15160000D01*
X410561161Y-15739418D01*
X410889375Y-16230625D01*
X411380582Y-16558839D01*
X411813744Y-16645000D01*
X412106256Y-16645000D01*
X412539418Y-16558839D01*
X412870689Y-16337491D01*
X413358173Y-16824975D01*
X413400571Y-16888429D01*
X413464024Y-16930827D01*
X413464026Y-16930829D01*
X413564106Y-16997700D01*
X413651963Y-17056404D01*
X413873648Y-17100500D01*
X413873652Y-17100500D01*
X413948499Y-17115388D01*
X414023346Y-17100500D01*
X419348153Y-17100500D01*
X419423000Y-17115388D01*
X419497847Y-17100500D01*
X419497852Y-17100500D01*
X419644433Y-17071343D01*
X419726074Y-17268441D01*
X419974705Y-17345550D01*
X420820395Y-16499860D01*
X420806253Y-16485718D01*
X420985858Y-16306113D01*
X421000000Y-16320255D01*
X421014143Y-16306113D01*
X421193748Y-16485718D01*
X421179605Y-16499860D01*
X422025295Y-17345550D01*
X422273926Y-17268441D01*
X422471077Y-16722425D01*
X422444270Y-16142526D01*
X422273926Y-15731279D01*
X422025297Y-15654171D01*
X422140091Y-15539377D01*
X422134314Y-15533600D01*
X433865686Y-15533600D01*
X433859909Y-15539377D01*
X433974703Y-15654171D01*
X433726074Y-15731279D01*
X433528923Y-16277295D01*
X433555730Y-16857194D01*
X433726074Y-17268441D01*
X433974705Y-17345550D01*
X434820395Y-16499860D01*
X434806253Y-16485718D01*
X434985858Y-16306113D01*
X435000000Y-16320255D01*
X435014143Y-16306113D01*
X435193748Y-16485718D01*
X435179605Y-16499860D01*
X436025295Y-17345550D01*
X436273926Y-17268441D01*
X436471077Y-16722425D01*
X436444270Y-16142526D01*
X436273926Y-15731279D01*
X436025297Y-15654171D01*
X436140091Y-15539377D01*
X436134314Y-15533600D01*
X449865686Y-15533600D01*
X449859909Y-15539377D01*
X449974703Y-15654171D01*
X449726074Y-15731279D01*
X449528923Y-16277295D01*
X449555730Y-16857194D01*
X449726074Y-17268441D01*
X449974705Y-17345550D01*
X450820395Y-16499860D01*
X450806253Y-16485718D01*
X450985858Y-16306113D01*
X451000000Y-16320255D01*
X451014143Y-16306113D01*
X451193748Y-16485718D01*
X451179605Y-16499860D01*
X452025295Y-17345550D01*
X452273926Y-17268441D01*
X452471077Y-16722425D01*
X452450500Y-16277295D01*
X463528923Y-16277295D01*
X463555730Y-16857194D01*
X463726074Y-17268441D01*
X463974705Y-17345550D01*
X464820395Y-16499860D01*
X465179605Y-16499860D01*
X466025295Y-17345550D01*
X466273926Y-17268441D01*
X466471077Y-16722425D01*
X466444270Y-16142526D01*
X466273926Y-15731279D01*
X466025295Y-15654170D01*
X465179605Y-16499860D01*
X464820395Y-16499860D01*
X463974705Y-15654170D01*
X463726074Y-15731279D01*
X463528923Y-16277295D01*
X452450500Y-16277295D01*
X452444270Y-16142526D01*
X452273926Y-15731279D01*
X452025297Y-15654171D01*
X452140091Y-15539377D01*
X452134314Y-15533600D01*
X457941553Y-15533600D01*
X458016400Y-15548488D01*
X458091247Y-15533600D01*
X458091252Y-15533600D01*
X458312937Y-15489504D01*
X458335294Y-15474565D01*
X464154310Y-15474565D01*
X465000000Y-16320255D01*
X465845690Y-15474565D01*
X465768581Y-15225934D01*
X465222565Y-15028783D01*
X464642666Y-15055590D01*
X464231419Y-15225934D01*
X464154310Y-15474565D01*
X458335294Y-15474565D01*
X458564329Y-15321529D01*
X458606731Y-15258070D01*
X458875161Y-14989640D01*
X458984670Y-15035000D01*
X459595330Y-15035000D01*
X460159507Y-14801310D01*
X460591310Y-14369507D01*
X460825000Y-13805330D01*
X460825000Y-13194670D01*
X460591310Y-12630493D01*
X460159507Y-12198690D01*
X459595330Y-11965000D01*
X458984670Y-11965000D01*
X458420493Y-12198690D01*
X458251275Y-12367908D01*
X458248157Y-12352235D01*
X458107809Y-12142191D01*
X457897765Y-12001843D01*
X457650000Y-11952560D01*
X455850000Y-11952560D01*
X455602235Y-12001843D01*
X455392191Y-12142191D01*
X455331909Y-12232408D01*
X454889731Y-11790230D01*
X454847329Y-11726771D01*
X454595937Y-11558796D01*
X454374252Y-11514700D01*
X454374247Y-11514700D01*
X454299400Y-11499812D01*
X454224553Y-11514700D01*
X452646067Y-11514700D01*
X452894741Y-11266026D01*
X453235000Y-10444569D01*
X453235000Y-9555431D01*
X452894741Y-8733974D01*
X452266026Y-8105259D01*
X451444569Y-7765000D01*
X450555431Y-7765000D01*
X449733974Y-8105259D01*
X449105259Y-8733974D01*
X448765000Y-9555431D01*
X448765000Y-10444569D01*
X449105259Y-11266026D01*
X449353933Y-11514700D01*
X444646067Y-11514700D01*
X444894741Y-11266026D01*
X445235000Y-10444569D01*
X445235000Y-9555431D01*
X444936422Y-8834600D01*
X447851853Y-8834600D01*
X447926700Y-8849488D01*
X448001547Y-8834600D01*
X448001552Y-8834600D01*
X448223237Y-8790504D01*
X448474629Y-8622529D01*
X448517031Y-8559070D01*
X450643167Y-6432934D01*
X450709741Y-6460510D01*
X451290259Y-6460510D01*
X451826587Y-6238355D01*
X452237075Y-5827867D01*
X452459230Y-5291539D01*
X452459230Y-4711021D01*
X452237075Y-4174693D01*
X451826587Y-3764205D01*
X451290259Y-3542050D01*
X450709741Y-3542050D01*
X450173413Y-3764205D01*
X449762925Y-4174693D01*
X449540770Y-4711021D01*
X449540770Y-5291539D01*
X449568357Y-5358141D01*
X447611899Y-7314600D01*
X430614053Y-7314600D01*
X430825000Y-6805330D01*
X430825000Y-6194670D01*
X430591310Y-5630493D01*
X430159507Y-5198690D01*
X429595330Y-4965000D01*
X428984670Y-4965000D01*
X428875162Y-5010360D01*
X428575823Y-4711021D01*
X433540770Y-4711021D01*
X433540770Y-5291539D01*
X433762925Y-5827867D01*
X434173413Y-6238355D01*
X434709741Y-6460510D01*
X435290259Y-6460510D01*
X435826587Y-6238355D01*
X436237075Y-5827867D01*
X436459230Y-5291539D01*
X436459230Y-4711021D01*
X436237075Y-4174693D01*
X435826587Y-3764205D01*
X435290259Y-3542050D01*
X434709741Y-3542050D01*
X434173413Y-3764205D01*
X433762925Y-4174693D01*
X433540770Y-4711021D01*
X428575823Y-4711021D01*
X427035401Y-3170600D01*
X456933299Y-3170600D01*
X458802964Y-5040265D01*
X458802964Y-5040265D01*
G37*
X458802964Y-5040265D02*
X458420493Y-5198690D01*
X458251275Y-5367908D01*
X458248157Y-5352235D01*
X458107809Y-5142191D01*
X457897765Y-5001843D01*
X457650000Y-4952560D01*
X455850000Y-4952560D01*
X455602235Y-5001843D01*
X455392191Y-5142191D01*
X455251843Y-5352235D01*
X455202560Y-5600000D01*
X455202560Y-7400000D01*
X455251843Y-7647765D01*
X455392191Y-7857809D01*
X455602235Y-7998157D01*
X455850000Y-8047440D01*
X457650000Y-8047440D01*
X457897765Y-7998157D01*
X458107809Y-7857809D01*
X458248157Y-7647765D01*
X458251275Y-7632092D01*
X458420493Y-7801310D01*
X458984670Y-8035000D01*
X459595330Y-8035000D01*
X460159507Y-7801310D01*
X460591310Y-7369507D01*
X460749735Y-6987036D01*
X462294870Y-8532172D01*
X462337271Y-8595629D01*
X462588663Y-8763604D01*
X462810348Y-8807700D01*
X462810352Y-8807700D01*
X462885199Y-8822588D01*
X462960046Y-8807700D01*
X463074721Y-8807700D01*
X462765000Y-9555431D01*
X462765000Y-10444569D01*
X463105259Y-11266026D01*
X463733974Y-11894741D01*
X464395209Y-12168634D01*
X464173413Y-12260505D01*
X463762925Y-12670993D01*
X463540770Y-13207321D01*
X463540770Y-13787839D01*
X463762925Y-14324167D01*
X464173413Y-14734655D01*
X464709741Y-14956810D01*
X465290259Y-14956810D01*
X465826587Y-14734655D01*
X466237075Y-14324167D01*
X466459230Y-13787839D01*
X466459230Y-13207321D01*
X466237075Y-12670993D01*
X465826587Y-12260505D01*
X465604791Y-12168634D01*
X466266026Y-11894741D01*
X466894741Y-11266026D01*
X467205496Y-10515798D01*
X468618873Y-11929176D01*
X468661271Y-11992629D01*
X468724724Y-12035027D01*
X468724726Y-12035029D01*
X468773694Y-12067748D01*
X468912663Y-12160604D01*
X469134348Y-12204700D01*
X469134352Y-12204700D01*
X469209199Y-12219588D01*
X469284046Y-12204700D01*
X470528516Y-12204700D01*
X470445908Y-12620000D01*
X470561161Y-13199418D01*
X470769531Y-13511266D01*
X466681799Y-17599000D01*
X465822788Y-17599000D01*
X465845690Y-17525155D01*
X465000000Y-16679465D01*
X464154310Y-17525155D01*
X464177212Y-17599000D01*
X451822788Y-17599000D01*
X451845690Y-17525155D01*
X451000000Y-16679465D01*
X450154310Y-17525155D01*
X450177212Y-17599000D01*
X435822788Y-17599000D01*
X435845690Y-17525155D01*
X435000000Y-16679465D01*
X434154310Y-17525155D01*
X434177212Y-17599000D01*
X421822788Y-17599000D01*
X421845690Y-17525155D01*
X421000000Y-16679465D01*
X420154310Y-17525155D01*
X420177212Y-17599000D01*
X405822788Y-17599000D01*
X405845690Y-17525155D01*
X405000000Y-16679465D01*
X404154310Y-17525155D01*
X404177212Y-17599000D01*
X402324901Y-17599000D01*
X403534123Y-16389779D01*
X403555730Y-16857194D01*
X403726074Y-17268441D01*
X403974705Y-17345550D01*
X404820395Y-16499860D01*
X405179605Y-16499860D01*
X406025295Y-17345550D01*
X406273926Y-17268441D01*
X406471077Y-16722425D01*
X406444270Y-16142526D01*
X406273926Y-15731279D01*
X406025295Y-15654170D01*
X405179605Y-16499860D01*
X404820395Y-16499860D01*
X404806253Y-16485718D01*
X404985858Y-16306113D01*
X405000000Y-16320255D01*
X405845690Y-15474565D01*
X405833226Y-15434375D01*
X406562702Y-14704900D01*
X410536433Y-14704900D01*
X410445908Y-15160000D01*
X410561161Y-15739418D01*
X410889375Y-16230625D01*
X411380582Y-16558839D01*
X411813744Y-16645000D01*
X412106256Y-16645000D01*
X412539418Y-16558839D01*
X412870689Y-16337491D01*
X413358173Y-16824975D01*
X413400571Y-16888429D01*
X413464024Y-16930827D01*
X413464026Y-16930829D01*
X413564106Y-16997700D01*
X413651963Y-17056404D01*
X413873648Y-17100500D01*
X413873652Y-17100500D01*
X413948499Y-17115388D01*
X414023346Y-17100500D01*
X419348153Y-17100500D01*
X419423000Y-17115388D01*
X419497847Y-17100500D01*
X419497852Y-17100500D01*
X419644433Y-17071343D01*
X419726074Y-17268441D01*
X419974705Y-17345550D01*
X420820395Y-16499860D01*
X420806253Y-16485718D01*
X420985858Y-16306113D01*
X421000000Y-16320255D01*
X421014143Y-16306113D01*
X421193748Y-16485718D01*
X421179605Y-16499860D01*
X422025295Y-17345550D01*
X422273926Y-17268441D01*
X422471077Y-16722425D01*
X422444270Y-16142526D01*
X422273926Y-15731279D01*
X422025297Y-15654171D01*
X422140091Y-15539377D01*
X422134314Y-15533600D01*
X433865686Y-15533600D01*
X433859909Y-15539377D01*
X433974703Y-15654171D01*
X433726074Y-15731279D01*
X433528923Y-16277295D01*
X433555730Y-16857194D01*
X433726074Y-17268441D01*
X433974705Y-17345550D01*
X434820395Y-16499860D01*
X434806253Y-16485718D01*
X434985858Y-16306113D01*
X435000000Y-16320255D01*
X435014143Y-16306113D01*
X435193748Y-16485718D01*
X435179605Y-16499860D01*
X436025295Y-17345550D01*
X436273926Y-17268441D01*
X436471077Y-16722425D01*
X436444270Y-16142526D01*
X436273926Y-15731279D01*
X436025297Y-15654171D01*
X436140091Y-15539377D01*
X436134314Y-15533600D01*
X449865686Y-15533600D01*
X449859909Y-15539377D01*
X449974703Y-15654171D01*
X449726074Y-15731279D01*
X449528923Y-16277295D01*
X449555730Y-16857194D01*
X449726074Y-17268441D01*
X449974705Y-17345550D01*
X450820395Y-16499860D01*
X450806253Y-16485718D01*
X450985858Y-16306113D01*
X451000000Y-16320255D01*
X451014143Y-16306113D01*
X451193748Y-16485718D01*
X451179605Y-16499860D01*
X452025295Y-17345550D01*
X452273926Y-17268441D01*
X452471077Y-16722425D01*
X452450500Y-16277295D01*
X463528923Y-16277295D01*
X463555730Y-16857194D01*
X463726074Y-17268441D01*
X463974705Y-17345550D01*
X464820395Y-16499860D01*
X465179605Y-16499860D01*
X466025295Y-17345550D01*
X466273926Y-17268441D01*
X466471077Y-16722425D01*
X466444270Y-16142526D01*
X466273926Y-15731279D01*
X466025295Y-15654170D01*
X465179605Y-16499860D01*
X464820395Y-16499860D01*
X463974705Y-15654170D01*
X463726074Y-15731279D01*
X463528923Y-16277295D01*
X452450500Y-16277295D01*
X452444270Y-16142526D01*
X452273926Y-15731279D01*
X452025297Y-15654171D01*
X452140091Y-15539377D01*
X452134314Y-15533600D01*
X457941553Y-15533600D01*
X458016400Y-15548488D01*
X458091247Y-15533600D01*
X458091252Y-15533600D01*
X458312937Y-15489504D01*
X458335294Y-15474565D01*
X464154310Y-15474565D01*
X465000000Y-16320255D01*
X465845690Y-15474565D01*
X465768581Y-15225934D01*
X465222565Y-15028783D01*
X464642666Y-15055590D01*
X464231419Y-15225934D01*
X464154310Y-15474565D01*
X458335294Y-15474565D01*
X458564329Y-15321529D01*
X458606731Y-15258070D01*
X458875161Y-14989640D01*
X458984670Y-15035000D01*
X459595330Y-15035000D01*
X460159507Y-14801310D01*
X460591310Y-14369507D01*
X460825000Y-13805330D01*
X460825000Y-13194670D01*
X460591310Y-12630493D01*
X460159507Y-12198690D01*
X459595330Y-11965000D01*
X458984670Y-11965000D01*
X458420493Y-12198690D01*
X458251275Y-12367908D01*
X458248157Y-12352235D01*
X458107809Y-12142191D01*
X457897765Y-12001843D01*
X457650000Y-11952560D01*
X455850000Y-11952560D01*
X455602235Y-12001843D01*
X455392191Y-12142191D01*
X455331909Y-12232408D01*
X454889731Y-11790230D01*
X454847329Y-11726771D01*
X454595937Y-11558796D01*
X454374252Y-11514700D01*
X454374247Y-11514700D01*
X454299400Y-11499812D01*
X454224553Y-11514700D01*
X452646067Y-11514700D01*
X452894741Y-11266026D01*
X453235000Y-10444569D01*
X453235000Y-9555431D01*
X452894741Y-8733974D01*
X452266026Y-8105259D01*
X451444569Y-7765000D01*
X450555431Y-7765000D01*
X449733974Y-8105259D01*
X449105259Y-8733974D01*
X448765000Y-9555431D01*
X448765000Y-10444569D01*
X449105259Y-11266026D01*
X449353933Y-11514700D01*
X444646067Y-11514700D01*
X444894741Y-11266026D01*
X445235000Y-10444569D01*
X445235000Y-9555431D01*
X444936422Y-8834600D01*
X447851853Y-8834600D01*
X447926700Y-8849488D01*
X448001547Y-8834600D01*
X448001552Y-8834600D01*
X448223237Y-8790504D01*
X448474629Y-8622529D01*
X448517031Y-8559070D01*
X450643167Y-6432934D01*
X450709741Y-6460510D01*
X451290259Y-6460510D01*
X451826587Y-6238355D01*
X452237075Y-5827867D01*
X452459230Y-5291539D01*
X452459230Y-4711021D01*
X452237075Y-4174693D01*
X451826587Y-3764205D01*
X451290259Y-3542050D01*
X450709741Y-3542050D01*
X450173413Y-3764205D01*
X449762925Y-4174693D01*
X449540770Y-4711021D01*
X449540770Y-5291539D01*
X449568357Y-5358141D01*
X447611899Y-7314600D01*
X430614053Y-7314600D01*
X430825000Y-6805330D01*
X430825000Y-6194670D01*
X430591310Y-5630493D01*
X430159507Y-5198690D01*
X429595330Y-4965000D01*
X428984670Y-4965000D01*
X428875162Y-5010360D01*
X428575823Y-4711021D01*
X433540770Y-4711021D01*
X433540770Y-5291539D01*
X433762925Y-5827867D01*
X434173413Y-6238355D01*
X434709741Y-6460510D01*
X435290259Y-6460510D01*
X435826587Y-6238355D01*
X436237075Y-5827867D01*
X436459230Y-5291539D01*
X436459230Y-4711021D01*
X436237075Y-4174693D01*
X435826587Y-3764205D01*
X435290259Y-3542050D01*
X434709741Y-3542050D01*
X434173413Y-3764205D01*
X433762925Y-4174693D01*
X433540770Y-4711021D01*
X428575823Y-4711021D01*
X427035401Y-3170600D01*
X456933299Y-3170600D01*
X458802964Y-5040265D01*
G36*
X79750070Y-12451872D02*
X79792471Y-12515329D01*
X80043863Y-12683304D01*
X80265548Y-12727400D01*
X80265552Y-12727400D01*
X80340399Y-12742288D01*
X80415246Y-12727400D01*
X89731230Y-12727400D01*
X89726074Y-12728999D01*
X89528923Y-13275015D01*
X89555730Y-13854914D01*
X89726074Y-14266161D01*
X89974705Y-14343270D01*
X90820395Y-13497580D01*
X90806253Y-13483438D01*
X90985858Y-13303833D01*
X91000000Y-13317975D01*
X91014143Y-13303833D01*
X91193748Y-13483438D01*
X91179605Y-13497580D01*
X92025295Y-14343270D01*
X92273926Y-14266161D01*
X92471077Y-13720145D01*
X92444270Y-13140246D01*
X92273926Y-12728999D01*
X92268770Y-12727400D01*
X95202560Y-12727400D01*
X95202560Y-14400000D01*
X95251843Y-14647765D01*
X95392191Y-14857809D01*
X95602235Y-14998157D01*
X95850000Y-15047440D01*
X97650000Y-15047440D01*
X97897765Y-14998157D01*
X98107809Y-14857809D01*
X98248157Y-14647765D01*
X98251275Y-14632092D01*
X98420493Y-14801310D01*
X98984670Y-15035000D01*
X99595330Y-15035000D01*
X99704839Y-14989640D01*
X102145698Y-17430500D01*
X92110248Y-17430500D01*
X92025297Y-17345549D01*
X92273926Y-17268441D01*
X92471077Y-16722425D01*
X92444270Y-16142526D01*
X92273926Y-15731279D01*
X92025295Y-15654170D01*
X91179605Y-16499860D01*
X91193748Y-16514003D01*
X91014143Y-16693608D01*
X91000000Y-16679465D01*
X90985858Y-16693608D01*
X90806253Y-16514003D01*
X90820395Y-16499860D01*
X89974705Y-15654170D01*
X89726074Y-15731279D01*
X89528923Y-16277295D01*
X89555730Y-16857194D01*
X89726074Y-17268441D01*
X89974703Y-17345549D01*
X89889752Y-17430500D01*
X84665302Y-17430500D01*
X82709367Y-15474565D01*
X90154310Y-15474565D01*
X91000000Y-16320255D01*
X91845690Y-15474565D01*
X91768581Y-15225934D01*
X91222565Y-15028783D01*
X90642666Y-15055590D01*
X90231419Y-15225934D01*
X90154310Y-15474565D01*
X82709367Y-15474565D01*
X81757677Y-14522875D01*
X90154310Y-14522875D01*
X90231419Y-14771506D01*
X90777435Y-14968657D01*
X91357334Y-14941850D01*
X91768581Y-14771506D01*
X91845690Y-14522875D01*
X91000000Y-13677185D01*
X90154310Y-14522875D01*
X81757677Y-14522875D01*
X78983431Y-11748630D01*
X78941029Y-11685171D01*
X78689637Y-11517196D01*
X78467952Y-11473100D01*
X78467947Y-11473100D01*
X78393100Y-11458212D01*
X78318253Y-11473100D01*
X76687667Y-11473100D01*
X76894741Y-11266026D01*
X77235000Y-10444569D01*
X77235000Y-9936802D01*
X79750070Y-12451872D01*
X79750070Y-12451872D01*
G37*
X79750070Y-12451872D02*
X79792471Y-12515329D01*
X80043863Y-12683304D01*
X80265548Y-12727400D01*
X80265552Y-12727400D01*
X80340399Y-12742288D01*
X80415246Y-12727400D01*
X89731230Y-12727400D01*
X89726074Y-12728999D01*
X89528923Y-13275015D01*
X89555730Y-13854914D01*
X89726074Y-14266161D01*
X89974705Y-14343270D01*
X90820395Y-13497580D01*
X90806253Y-13483438D01*
X90985858Y-13303833D01*
X91000000Y-13317975D01*
X91014143Y-13303833D01*
X91193748Y-13483438D01*
X91179605Y-13497580D01*
X92025295Y-14343270D01*
X92273926Y-14266161D01*
X92471077Y-13720145D01*
X92444270Y-13140246D01*
X92273926Y-12728999D01*
X92268770Y-12727400D01*
X95202560Y-12727400D01*
X95202560Y-14400000D01*
X95251843Y-14647765D01*
X95392191Y-14857809D01*
X95602235Y-14998157D01*
X95850000Y-15047440D01*
X97650000Y-15047440D01*
X97897765Y-14998157D01*
X98107809Y-14857809D01*
X98248157Y-14647765D01*
X98251275Y-14632092D01*
X98420493Y-14801310D01*
X98984670Y-15035000D01*
X99595330Y-15035000D01*
X99704839Y-14989640D01*
X102145698Y-17430500D01*
X92110248Y-17430500D01*
X92025297Y-17345549D01*
X92273926Y-17268441D01*
X92471077Y-16722425D01*
X92444270Y-16142526D01*
X92273926Y-15731279D01*
X92025295Y-15654170D01*
X91179605Y-16499860D01*
X91193748Y-16514003D01*
X91014143Y-16693608D01*
X91000000Y-16679465D01*
X90985858Y-16693608D01*
X90806253Y-16514003D01*
X90820395Y-16499860D01*
X89974705Y-15654170D01*
X89726074Y-15731279D01*
X89528923Y-16277295D01*
X89555730Y-16857194D01*
X89726074Y-17268441D01*
X89974703Y-17345549D01*
X89889752Y-17430500D01*
X84665302Y-17430500D01*
X82709367Y-15474565D01*
X90154310Y-15474565D01*
X91000000Y-16320255D01*
X91845690Y-15474565D01*
X91768581Y-15225934D01*
X91222565Y-15028783D01*
X90642666Y-15055590D01*
X90231419Y-15225934D01*
X90154310Y-15474565D01*
X82709367Y-15474565D01*
X81757677Y-14522875D01*
X90154310Y-14522875D01*
X90231419Y-14771506D01*
X90777435Y-14968657D01*
X91357334Y-14941850D01*
X91768581Y-14771506D01*
X91845690Y-14522875D01*
X91000000Y-13677185D01*
X90154310Y-14522875D01*
X81757677Y-14522875D01*
X78983431Y-11748630D01*
X78941029Y-11685171D01*
X78689637Y-11517196D01*
X78467952Y-11473100D01*
X78467947Y-11473100D01*
X78393100Y-11458212D01*
X78318253Y-11473100D01*
X76687667Y-11473100D01*
X76894741Y-11266026D01*
X77235000Y-10444569D01*
X77235000Y-9936802D01*
X79750070Y-12451872D01*
G36*
X103540770Y-13207321D02*
X103540770Y-13787839D01*
X103762925Y-14324167D01*
X104173413Y-14734655D01*
X104709741Y-14956810D01*
X105290259Y-14956810D01*
X105826587Y-14734655D01*
X106237075Y-14324167D01*
X106459230Y-13787839D01*
X106459230Y-13464831D01*
X107463570Y-14469172D01*
X107505971Y-14532629D01*
X107757363Y-14700604D01*
X107979048Y-14744700D01*
X107979052Y-14744700D01*
X108053899Y-14759588D01*
X108128746Y-14744700D01*
X109223789Y-14744700D01*
X109142969Y-14825520D01*
X108985400Y-15205926D01*
X108985400Y-15617674D01*
X109142969Y-15998080D01*
X109434120Y-16289231D01*
X109814526Y-16446800D01*
X109980598Y-16446800D01*
X110400871Y-16867073D01*
X110417527Y-16892000D01*
X106409848Y-16892000D01*
X106471077Y-16722425D01*
X106444270Y-16142526D01*
X106273926Y-15731279D01*
X106025295Y-15654170D01*
X105179605Y-16499860D01*
X105193748Y-16514003D01*
X105014143Y-16693608D01*
X105000000Y-16679465D01*
X104985858Y-16693608D01*
X104806253Y-16514003D01*
X104820395Y-16499860D01*
X103974705Y-15654170D01*
X103726074Y-15731279D01*
X103528923Y-16277295D01*
X103547672Y-16682870D01*
X102339367Y-15474565D01*
X104154310Y-15474565D01*
X105000000Y-16320255D01*
X105845690Y-15474565D01*
X105768581Y-15225934D01*
X105222565Y-15028783D01*
X104642666Y-15055590D01*
X104231419Y-15225934D01*
X104154310Y-15474565D01*
X102339367Y-15474565D01*
X100779640Y-13914839D01*
X100825000Y-13805330D01*
X100825000Y-13194670D01*
X100631450Y-12727400D01*
X103739560Y-12727400D01*
X103540770Y-13207321D01*
X103540770Y-13207321D01*
G37*
X103540770Y-13207321D02*
X103540770Y-13787839D01*
X103762925Y-14324167D01*
X104173413Y-14734655D01*
X104709741Y-14956810D01*
X105290259Y-14956810D01*
X105826587Y-14734655D01*
X106237075Y-14324167D01*
X106459230Y-13787839D01*
X106459230Y-13464831D01*
X107463570Y-14469172D01*
X107505971Y-14532629D01*
X107757363Y-14700604D01*
X107979048Y-14744700D01*
X107979052Y-14744700D01*
X108053899Y-14759588D01*
X108128746Y-14744700D01*
X109223789Y-14744700D01*
X109142969Y-14825520D01*
X108985400Y-15205926D01*
X108985400Y-15617674D01*
X109142969Y-15998080D01*
X109434120Y-16289231D01*
X109814526Y-16446800D01*
X109980598Y-16446800D01*
X110400871Y-16867073D01*
X110417527Y-16892000D01*
X106409848Y-16892000D01*
X106471077Y-16722425D01*
X106444270Y-16142526D01*
X106273926Y-15731279D01*
X106025295Y-15654170D01*
X105179605Y-16499860D01*
X105193748Y-16514003D01*
X105014143Y-16693608D01*
X105000000Y-16679465D01*
X104985858Y-16693608D01*
X104806253Y-16514003D01*
X104820395Y-16499860D01*
X103974705Y-15654170D01*
X103726074Y-15731279D01*
X103528923Y-16277295D01*
X103547672Y-16682870D01*
X102339367Y-15474565D01*
X104154310Y-15474565D01*
X105000000Y-16320255D01*
X105845690Y-15474565D01*
X105768581Y-15225934D01*
X105222565Y-15028783D01*
X104642666Y-15055590D01*
X104231419Y-15225934D01*
X104154310Y-15474565D01*
X102339367Y-15474565D01*
X100779640Y-13914839D01*
X100825000Y-13805330D01*
X100825000Y-13194670D01*
X100631450Y-12727400D01*
X103739560Y-12727400D01*
X103540770Y-13207321D01*
G36*
X361193748Y-16485718D02*
X361179605Y-16499860D01*
X361193748Y-16514003D01*
X361014143Y-16693608D01*
X361000000Y-16679465D01*
X360985858Y-16693608D01*
X360806253Y-16514003D01*
X360820395Y-16499860D01*
X360806253Y-16485718D01*
X360985858Y-16306113D01*
X361000000Y-16320255D01*
X361014143Y-16306113D01*
X361193748Y-16485718D01*
X361193748Y-16485718D01*
G37*
X361193748Y-16485718D02*
X361179605Y-16499860D01*
X361193748Y-16514003D01*
X361014143Y-16693608D01*
X361000000Y-16679465D01*
X360985858Y-16693608D01*
X360806253Y-16514003D01*
X360820395Y-16499860D01*
X360806253Y-16485718D01*
X360985858Y-16306113D01*
X361000000Y-16320255D01*
X361014143Y-16306113D01*
X361193748Y-16485718D01*
G36*
X135193748Y-16485718D02*
X135179605Y-16499860D01*
X135193748Y-16514003D01*
X135014143Y-16693608D01*
X135000000Y-16679465D01*
X134985858Y-16693608D01*
X134806253Y-16514003D01*
X134820395Y-16499860D01*
X134806253Y-16485718D01*
X134985858Y-16306113D01*
X135000000Y-16320255D01*
X135014143Y-16306113D01*
X135193748Y-16485718D01*
X135193748Y-16485718D01*
G37*
X135193748Y-16485718D02*
X135179605Y-16499860D01*
X135193748Y-16514003D01*
X135014143Y-16693608D01*
X135000000Y-16679465D01*
X134985858Y-16693608D01*
X134806253Y-16514003D01*
X134820395Y-16499860D01*
X134806253Y-16485718D01*
X134985858Y-16306113D01*
X135000000Y-16320255D01*
X135014143Y-16306113D01*
X135193748Y-16485718D01*
G36*
X121193748Y-16485718D02*
X121179605Y-16499860D01*
X121193748Y-16514003D01*
X121014143Y-16693608D01*
X121000000Y-16679465D01*
X120985858Y-16693608D01*
X120806253Y-16514003D01*
X120820395Y-16499860D01*
X120806253Y-16485718D01*
X120985858Y-16306113D01*
X121000000Y-16320255D01*
X121014143Y-16306113D01*
X121193748Y-16485718D01*
X121193748Y-16485718D01*
G37*
X121193748Y-16485718D02*
X121179605Y-16499860D01*
X121193748Y-16514003D01*
X121014143Y-16693608D01*
X121000000Y-16679465D01*
X120985858Y-16693608D01*
X120806253Y-16514003D01*
X120820395Y-16499860D01*
X120806253Y-16485718D01*
X120985858Y-16306113D01*
X121000000Y-16320255D01*
X121014143Y-16306113D01*
X121193748Y-16485718D01*
G36*
X151193748Y-16485718D02*
X151179605Y-16499860D01*
X151193748Y-16514003D01*
X151014143Y-16693608D01*
X151000000Y-16679465D01*
X150985858Y-16693608D01*
X150806253Y-16514003D01*
X150820395Y-16499860D01*
X150806253Y-16485718D01*
X150985858Y-16306113D01*
X151000000Y-16320255D01*
X151014143Y-16306113D01*
X151193748Y-16485718D01*
X151193748Y-16485718D01*
G37*
X151193748Y-16485718D02*
X151179605Y-16499860D01*
X151193748Y-16514003D01*
X151014143Y-16693608D01*
X151000000Y-16679465D01*
X150985858Y-16693608D01*
X150806253Y-16514003D01*
X150820395Y-16499860D01*
X150806253Y-16485718D01*
X150985858Y-16306113D01*
X151000000Y-16320255D01*
X151014143Y-16306113D01*
X151193748Y-16485718D01*
G36*
X391193748Y-16485718D02*
X391179605Y-16499860D01*
X391193748Y-16514003D01*
X391014143Y-16693608D01*
X391000000Y-16679465D01*
X390985858Y-16693608D01*
X390806253Y-16514003D01*
X390820395Y-16499860D01*
X390806253Y-16485718D01*
X390985858Y-16306113D01*
X391000000Y-16320255D01*
X391014143Y-16306113D01*
X391193748Y-16485718D01*
X391193748Y-16485718D01*
G37*
X391193748Y-16485718D02*
X391179605Y-16499860D01*
X391193748Y-16514003D01*
X391014143Y-16693608D01*
X391000000Y-16679465D01*
X390985858Y-16693608D01*
X390806253Y-16514003D01*
X390820395Y-16499860D01*
X390806253Y-16485718D01*
X390985858Y-16306113D01*
X391000000Y-16320255D01*
X391014143Y-16306113D01*
X391193748Y-16485718D01*
G36*
X375193748Y-16485718D02*
X375179605Y-16499860D01*
X375193748Y-16514003D01*
X375014143Y-16693608D01*
X375000000Y-16679465D01*
X374985858Y-16693608D01*
X374806253Y-16514003D01*
X374820395Y-16499860D01*
X374806253Y-16485718D01*
X374985858Y-16306113D01*
X375000000Y-16320255D01*
X375014143Y-16306113D01*
X375193748Y-16485718D01*
X375193748Y-16485718D01*
G37*
X375193748Y-16485718D02*
X375179605Y-16499860D01*
X375193748Y-16514003D01*
X375014143Y-16693608D01*
X375000000Y-16679465D01*
X374985858Y-16693608D01*
X374806253Y-16514003D01*
X374820395Y-16499860D01*
X374806253Y-16485718D01*
X374985858Y-16306113D01*
X375000000Y-16320255D01*
X375014143Y-16306113D01*
X375193748Y-16485718D01*
G36*
X331193748Y-16485718D02*
X331179605Y-16499860D01*
X331193748Y-16514003D01*
X331014143Y-16693608D01*
X331000000Y-16679465D01*
X330985858Y-16693608D01*
X330806253Y-16514003D01*
X330820395Y-16499860D01*
X330806253Y-16485718D01*
X330985858Y-16306113D01*
X331000000Y-16320255D01*
X331014143Y-16306113D01*
X331193748Y-16485718D01*
X331193748Y-16485718D01*
G37*
X331193748Y-16485718D02*
X331179605Y-16499860D01*
X331193748Y-16514003D01*
X331014143Y-16693608D01*
X331000000Y-16679465D01*
X330985858Y-16693608D01*
X330806253Y-16514003D01*
X330820395Y-16499860D01*
X330806253Y-16485718D01*
X330985858Y-16306113D01*
X331000000Y-16320255D01*
X331014143Y-16306113D01*
X331193748Y-16485718D01*
G36*
X345193748Y-16485718D02*
X345179605Y-16499860D01*
X345193748Y-16514003D01*
X345014143Y-16693608D01*
X345000000Y-16679465D01*
X344985858Y-16693608D01*
X344806253Y-16514003D01*
X344820395Y-16499860D01*
X344806253Y-16485718D01*
X344985858Y-16306113D01*
X345000000Y-16320255D01*
X345014143Y-16306113D01*
X345193748Y-16485718D01*
X345193748Y-16485718D01*
G37*
X345193748Y-16485718D02*
X345179605Y-16499860D01*
X345193748Y-16514003D01*
X345014143Y-16693608D01*
X345000000Y-16679465D01*
X344985858Y-16693608D01*
X344806253Y-16514003D01*
X344820395Y-16499860D01*
X344806253Y-16485718D01*
X344985858Y-16306113D01*
X345000000Y-16320255D01*
X345014143Y-16306113D01*
X345193748Y-16485718D01*
G36*
X315193748Y-16485718D02*
X315179605Y-16499860D01*
X315193748Y-16514003D01*
X315014143Y-16693608D01*
X315000000Y-16679465D01*
X314985858Y-16693608D01*
X314806253Y-16514003D01*
X314820395Y-16499860D01*
X314806253Y-16485718D01*
X314985858Y-16306113D01*
X315000000Y-16320255D01*
X315014143Y-16306113D01*
X315193748Y-16485718D01*
X315193748Y-16485718D01*
G37*
X315193748Y-16485718D02*
X315179605Y-16499860D01*
X315193748Y-16514003D01*
X315014143Y-16693608D01*
X315000000Y-16679465D01*
X314985858Y-16693608D01*
X314806253Y-16514003D01*
X314820395Y-16499860D01*
X314806253Y-16485718D01*
X314985858Y-16306113D01*
X315000000Y-16320255D01*
X315014143Y-16306113D01*
X315193748Y-16485718D01*
G36*
X301193748Y-16485718D02*
X301179605Y-16499860D01*
X301193748Y-16514003D01*
X301014143Y-16693608D01*
X301000000Y-16679465D01*
X300985858Y-16693608D01*
X300806253Y-16514003D01*
X300820395Y-16499860D01*
X300806253Y-16485718D01*
X300985858Y-16306113D01*
X301000000Y-16320255D01*
X301014143Y-16306113D01*
X301193748Y-16485718D01*
X301193748Y-16485718D01*
G37*
X301193748Y-16485718D02*
X301179605Y-16499860D01*
X301193748Y-16514003D01*
X301014143Y-16693608D01*
X301000000Y-16679465D01*
X300985858Y-16693608D01*
X300806253Y-16514003D01*
X300820395Y-16499860D01*
X300806253Y-16485718D01*
X300985858Y-16306113D01*
X301000000Y-16320255D01*
X301014143Y-16306113D01*
X301193748Y-16485718D01*
G36*
X285193748Y-16485718D02*
X285179605Y-16499860D01*
X285193748Y-16514003D01*
X285014143Y-16693608D01*
X285000000Y-16679465D01*
X284985858Y-16693608D01*
X284806253Y-16514003D01*
X284820395Y-16499860D01*
X284806253Y-16485718D01*
X284985858Y-16306113D01*
X285000000Y-16320255D01*
X285014143Y-16306113D01*
X285193748Y-16485718D01*
X285193748Y-16485718D01*
G37*
X285193748Y-16485718D02*
X285179605Y-16499860D01*
X285193748Y-16514003D01*
X285014143Y-16693608D01*
X285000000Y-16679465D01*
X284985858Y-16693608D01*
X284806253Y-16514003D01*
X284820395Y-16499860D01*
X284806253Y-16485718D01*
X284985858Y-16306113D01*
X285000000Y-16320255D01*
X285014143Y-16306113D01*
X285193748Y-16485718D01*
G36*
X271193748Y-16485718D02*
X271179605Y-16499860D01*
X271193748Y-16514003D01*
X271014143Y-16693608D01*
X271000000Y-16679465D01*
X270985858Y-16693608D01*
X270806253Y-16514003D01*
X270820395Y-16499860D01*
X270806253Y-16485718D01*
X270985858Y-16306113D01*
X271000000Y-16320255D01*
X271014143Y-16306113D01*
X271193748Y-16485718D01*
X271193748Y-16485718D01*
G37*
X271193748Y-16485718D02*
X271179605Y-16499860D01*
X271193748Y-16514003D01*
X271014143Y-16693608D01*
X271000000Y-16679465D01*
X270985858Y-16693608D01*
X270806253Y-16514003D01*
X270820395Y-16499860D01*
X270806253Y-16485718D01*
X270985858Y-16306113D01*
X271000000Y-16320255D01*
X271014143Y-16306113D01*
X271193748Y-16485718D01*
G36*
X255193748Y-16485718D02*
X255179605Y-16499860D01*
X255193748Y-16514003D01*
X255014143Y-16693608D01*
X255000000Y-16679465D01*
X254985858Y-16693608D01*
X254806253Y-16514003D01*
X254820395Y-16499860D01*
X254806253Y-16485718D01*
X254985858Y-16306113D01*
X255000000Y-16320255D01*
X255014143Y-16306113D01*
X255193748Y-16485718D01*
X255193748Y-16485718D01*
G37*
X255193748Y-16485718D02*
X255179605Y-16499860D01*
X255193748Y-16514003D01*
X255014143Y-16693608D01*
X255000000Y-16679465D01*
X254985858Y-16693608D01*
X254806253Y-16514003D01*
X254820395Y-16499860D01*
X254806253Y-16485718D01*
X254985858Y-16306113D01*
X255000000Y-16320255D01*
X255014143Y-16306113D01*
X255193748Y-16485718D01*
G36*
X225193748Y-16485718D02*
X225179605Y-16499860D01*
X225193748Y-16514003D01*
X225014143Y-16693608D01*
X225000000Y-16679465D01*
X224985858Y-16693608D01*
X224806253Y-16514003D01*
X224820395Y-16499860D01*
X224806253Y-16485718D01*
X224985858Y-16306113D01*
X225000000Y-16320255D01*
X225014143Y-16306113D01*
X225193748Y-16485718D01*
X225193748Y-16485718D01*
G37*
X225193748Y-16485718D02*
X225179605Y-16499860D01*
X225193748Y-16514003D01*
X225014143Y-16693608D01*
X225000000Y-16679465D01*
X224985858Y-16693608D01*
X224806253Y-16514003D01*
X224820395Y-16499860D01*
X224806253Y-16485718D01*
X224985858Y-16306113D01*
X225000000Y-16320255D01*
X225014143Y-16306113D01*
X225193748Y-16485718D01*
G36*
X241193748Y-16485718D02*
X241179605Y-16499860D01*
X241193748Y-16514003D01*
X241014143Y-16693608D01*
X241000000Y-16679465D01*
X240985858Y-16693608D01*
X240806253Y-16514003D01*
X240820395Y-16499860D01*
X240806253Y-16485718D01*
X240985858Y-16306113D01*
X241000000Y-16320255D01*
X241014143Y-16306113D01*
X241193748Y-16485718D01*
X241193748Y-16485718D01*
G37*
X241193748Y-16485718D02*
X241179605Y-16499860D01*
X241193748Y-16514003D01*
X241014143Y-16693608D01*
X241000000Y-16679465D01*
X240985858Y-16693608D01*
X240806253Y-16514003D01*
X240820395Y-16499860D01*
X240806253Y-16485718D01*
X240985858Y-16306113D01*
X241000000Y-16320255D01*
X241014143Y-16306113D01*
X241193748Y-16485718D01*
G36*
X416999170Y-12759172D02*
X417041571Y-12822629D01*
X417292963Y-12990604D01*
X417514648Y-13034700D01*
X417514652Y-13034700D01*
X417589499Y-13049588D01*
X417664346Y-13034700D01*
X419615694Y-13034700D01*
X419528923Y-13275015D01*
X419555730Y-13854914D01*
X419726074Y-14266161D01*
X419974705Y-14343270D01*
X420820395Y-13497580D01*
X420806253Y-13483438D01*
X420985858Y-13303833D01*
X421000000Y-13317975D01*
X421014143Y-13303833D01*
X421193748Y-13483438D01*
X421179605Y-13497580D01*
X421193748Y-13511723D01*
X421014143Y-13691328D01*
X421000000Y-13677185D01*
X420470731Y-14206454D01*
X420441971Y-14225671D01*
X420422754Y-14254431D01*
X420154310Y-14522875D01*
X420157035Y-14531663D01*
X419108199Y-15580500D01*
X415930450Y-15580500D01*
X416014092Y-15160000D01*
X415898839Y-14580582D01*
X415570625Y-14089375D01*
X415272239Y-13890000D01*
X415570625Y-13690625D01*
X415898839Y-13199418D01*
X416014092Y-12620000D01*
X415912647Y-12110000D01*
X416349999Y-12110000D01*
X416999170Y-12759172D01*
X416999170Y-12759172D01*
G37*
X416999170Y-12759172D02*
X417041571Y-12822629D01*
X417292963Y-12990604D01*
X417514648Y-13034700D01*
X417514652Y-13034700D01*
X417589499Y-13049588D01*
X417664346Y-13034700D01*
X419615694Y-13034700D01*
X419528923Y-13275015D01*
X419555730Y-13854914D01*
X419726074Y-14266161D01*
X419974705Y-14343270D01*
X420820395Y-13497580D01*
X420806253Y-13483438D01*
X420985858Y-13303833D01*
X421000000Y-13317975D01*
X421014143Y-13303833D01*
X421193748Y-13483438D01*
X421179605Y-13497580D01*
X421193748Y-13511723D01*
X421014143Y-13691328D01*
X421000000Y-13677185D01*
X420470731Y-14206454D01*
X420441971Y-14225671D01*
X420422754Y-14254431D01*
X420154310Y-14522875D01*
X420157035Y-14531663D01*
X419108199Y-15580500D01*
X415930450Y-15580500D01*
X416014092Y-15160000D01*
X415898839Y-14580582D01*
X415570625Y-14089375D01*
X415272239Y-13890000D01*
X415570625Y-13690625D01*
X415898839Y-13199418D01*
X416014092Y-12620000D01*
X415912647Y-12110000D01*
X416349999Y-12110000D01*
X416999170Y-12759172D01*
G36*
X155202560Y-7400000D02*
X155251843Y-7647765D01*
X155392191Y-7857809D01*
X155602235Y-7998157D01*
X155850000Y-8047440D01*
X157070457Y-8047440D01*
X152307601Y-12810298D01*
X152273926Y-12728999D01*
X152025295Y-12651890D01*
X151179605Y-13497580D01*
X151193748Y-13511723D01*
X151014143Y-13691328D01*
X151000000Y-13677185D01*
X150985858Y-13691328D01*
X150806253Y-13511723D01*
X150820395Y-13497580D01*
X149974705Y-12651890D01*
X149726074Y-12728999D01*
X149528923Y-13275015D01*
X149555730Y-13854914D01*
X149714741Y-14238800D01*
X136272435Y-14238800D01*
X136459230Y-13787839D01*
X136459230Y-13207321D01*
X136244617Y-12689200D01*
X144120953Y-12689200D01*
X144195800Y-12704088D01*
X144270647Y-12689200D01*
X144270652Y-12689200D01*
X144492337Y-12645104D01*
X144743729Y-12477129D01*
X144786131Y-12413670D01*
X148918702Y-8281100D01*
X149558133Y-8281100D01*
X149105259Y-8733974D01*
X148765000Y-9555431D01*
X148765000Y-10444569D01*
X149105259Y-11266026D01*
X149733974Y-11894741D01*
X150379729Y-12162222D01*
X150231419Y-12223654D01*
X150154310Y-12472285D01*
X151000000Y-13317975D01*
X151845690Y-12472285D01*
X151768581Y-12223654D01*
X151610105Y-12166433D01*
X152266026Y-11894741D01*
X152894741Y-11266026D01*
X153235000Y-10444569D01*
X153235000Y-9555431D01*
X152894741Y-8733974D01*
X152441867Y-8281100D01*
X152654553Y-8281100D01*
X152729400Y-8295988D01*
X152804247Y-8281100D01*
X152804252Y-8281100D01*
X153025937Y-8237004D01*
X153277329Y-8069029D01*
X153319731Y-8005570D01*
X155202560Y-6122742D01*
X155202560Y-7400000D01*
X155202560Y-7400000D01*
G37*
X155202560Y-7400000D02*
X155251843Y-7647765D01*
X155392191Y-7857809D01*
X155602235Y-7998157D01*
X155850000Y-8047440D01*
X157070457Y-8047440D01*
X152307601Y-12810298D01*
X152273926Y-12728999D01*
X152025295Y-12651890D01*
X151179605Y-13497580D01*
X151193748Y-13511723D01*
X151014143Y-13691328D01*
X151000000Y-13677185D01*
X150985858Y-13691328D01*
X150806253Y-13511723D01*
X150820395Y-13497580D01*
X149974705Y-12651890D01*
X149726074Y-12728999D01*
X149528923Y-13275015D01*
X149555730Y-13854914D01*
X149714741Y-14238800D01*
X136272435Y-14238800D01*
X136459230Y-13787839D01*
X136459230Y-13207321D01*
X136244617Y-12689200D01*
X144120953Y-12689200D01*
X144195800Y-12704088D01*
X144270647Y-12689200D01*
X144270652Y-12689200D01*
X144492337Y-12645104D01*
X144743729Y-12477129D01*
X144786131Y-12413670D01*
X148918702Y-8281100D01*
X149558133Y-8281100D01*
X149105259Y-8733974D01*
X148765000Y-9555431D01*
X148765000Y-10444569D01*
X149105259Y-11266026D01*
X149733974Y-11894741D01*
X150379729Y-12162222D01*
X150231419Y-12223654D01*
X150154310Y-12472285D01*
X151000000Y-13317975D01*
X151845690Y-12472285D01*
X151768581Y-12223654D01*
X151610105Y-12166433D01*
X152266026Y-11894741D01*
X152894741Y-11266026D01*
X153235000Y-10444569D01*
X153235000Y-9555431D01*
X152894741Y-8733974D01*
X152441867Y-8281100D01*
X152654553Y-8281100D01*
X152729400Y-8295988D01*
X152804247Y-8281100D01*
X152804252Y-8281100D01*
X153025937Y-8237004D01*
X153277329Y-8069029D01*
X153319731Y-8005570D01*
X155202560Y-6122742D01*
X155202560Y-7400000D01*
G36*
X329105259Y-8733974D02*
X328765000Y-9555431D01*
X328765000Y-10444569D01*
X329105259Y-11266026D01*
X329733974Y-11894741D01*
X330379729Y-12162222D01*
X330231419Y-12223654D01*
X330154310Y-12472285D01*
X331000000Y-13317975D01*
X331845690Y-12472285D01*
X331768581Y-12223654D01*
X331610105Y-12166433D01*
X332266026Y-11894741D01*
X332894741Y-11266026D01*
X333235000Y-10444569D01*
X333235000Y-9555431D01*
X332894741Y-8733974D01*
X332646167Y-8485400D01*
X343353833Y-8485400D01*
X343105259Y-8733974D01*
X342765000Y-9555431D01*
X342765000Y-10444569D01*
X343105259Y-11266026D01*
X343271733Y-11432500D01*
X340672346Y-11432500D01*
X340597499Y-11417612D01*
X340522652Y-11432500D01*
X340522648Y-11432500D01*
X340300963Y-11476596D01*
X340049571Y-11644571D01*
X340007171Y-11708027D01*
X339704838Y-12010360D01*
X339595330Y-11965000D01*
X338984670Y-11965000D01*
X338420493Y-12198690D01*
X338251275Y-12367908D01*
X338248157Y-12352235D01*
X338107809Y-12142191D01*
X337897765Y-12001843D01*
X337650000Y-11952560D01*
X335850000Y-11952560D01*
X335602235Y-12001843D01*
X335392191Y-12142191D01*
X335251843Y-12352235D01*
X335202560Y-12600000D01*
X335202560Y-13965300D01*
X332382558Y-13965300D01*
X332471077Y-13720145D01*
X332444270Y-13140246D01*
X332273926Y-12728999D01*
X332025295Y-12651890D01*
X331179605Y-13497580D01*
X331193748Y-13511723D01*
X331014143Y-13691328D01*
X331000000Y-13677185D01*
X330985858Y-13691328D01*
X330806253Y-13511723D01*
X330820395Y-13497580D01*
X329974705Y-12651890D01*
X329726074Y-12728999D01*
X329528923Y-13275015D01*
X329555730Y-13854914D01*
X329601453Y-13965300D01*
X316385723Y-13965300D01*
X316459230Y-13787839D01*
X316459230Y-13207321D01*
X316237075Y-12670993D01*
X315826587Y-12260505D01*
X315604791Y-12168634D01*
X316266026Y-11894741D01*
X316894741Y-11266026D01*
X317235000Y-10444569D01*
X317235000Y-9555431D01*
X316894741Y-8733974D01*
X316646167Y-8485400D01*
X329353833Y-8485400D01*
X329105259Y-8733974D01*
X329105259Y-8733974D01*
G37*
X329105259Y-8733974D02*
X328765000Y-9555431D01*
X328765000Y-10444569D01*
X329105259Y-11266026D01*
X329733974Y-11894741D01*
X330379729Y-12162222D01*
X330231419Y-12223654D01*
X330154310Y-12472285D01*
X331000000Y-13317975D01*
X331845690Y-12472285D01*
X331768581Y-12223654D01*
X331610105Y-12166433D01*
X332266026Y-11894741D01*
X332894741Y-11266026D01*
X333235000Y-10444569D01*
X333235000Y-9555431D01*
X332894741Y-8733974D01*
X332646167Y-8485400D01*
X343353833Y-8485400D01*
X343105259Y-8733974D01*
X342765000Y-9555431D01*
X342765000Y-10444569D01*
X343105259Y-11266026D01*
X343271733Y-11432500D01*
X340672346Y-11432500D01*
X340597499Y-11417612D01*
X340522652Y-11432500D01*
X340522648Y-11432500D01*
X340300963Y-11476596D01*
X340049571Y-11644571D01*
X340007171Y-11708027D01*
X339704838Y-12010360D01*
X339595330Y-11965000D01*
X338984670Y-11965000D01*
X338420493Y-12198690D01*
X338251275Y-12367908D01*
X338248157Y-12352235D01*
X338107809Y-12142191D01*
X337897765Y-12001843D01*
X337650000Y-11952560D01*
X335850000Y-11952560D01*
X335602235Y-12001843D01*
X335392191Y-12142191D01*
X335251843Y-12352235D01*
X335202560Y-12600000D01*
X335202560Y-13965300D01*
X332382558Y-13965300D01*
X332471077Y-13720145D01*
X332444270Y-13140246D01*
X332273926Y-12728999D01*
X332025295Y-12651890D01*
X331179605Y-13497580D01*
X331193748Y-13511723D01*
X331014143Y-13691328D01*
X331000000Y-13677185D01*
X330985858Y-13691328D01*
X330806253Y-13511723D01*
X330820395Y-13497580D01*
X329974705Y-12651890D01*
X329726074Y-12728999D01*
X329528923Y-13275015D01*
X329555730Y-13854914D01*
X329601453Y-13965300D01*
X316385723Y-13965300D01*
X316459230Y-13787839D01*
X316459230Y-13207321D01*
X316237075Y-12670993D01*
X315826587Y-12260505D01*
X315604791Y-12168634D01*
X316266026Y-11894741D01*
X316894741Y-11266026D01*
X317235000Y-10444569D01*
X317235000Y-9555431D01*
X316894741Y-8733974D01*
X316646167Y-8485400D01*
X329353833Y-8485400D01*
X329105259Y-8733974D01*
G36*
X271193748Y-13483438D02*
X271179605Y-13497580D01*
X271193748Y-13511723D01*
X271014143Y-13691328D01*
X271000000Y-13677185D01*
X270985858Y-13691328D01*
X270806253Y-13511723D01*
X270820395Y-13497580D01*
X270806253Y-13483438D01*
X270985858Y-13303833D01*
X271000000Y-13317975D01*
X271014143Y-13303833D01*
X271193748Y-13483438D01*
X271193748Y-13483438D01*
G37*
X271193748Y-13483438D02*
X271179605Y-13497580D01*
X271193748Y-13511723D01*
X271014143Y-13691328D01*
X271000000Y-13677185D01*
X270985858Y-13691328D01*
X270806253Y-13511723D01*
X270820395Y-13497580D01*
X270806253Y-13483438D01*
X270985858Y-13303833D01*
X271000000Y-13317975D01*
X271014143Y-13303833D01*
X271193748Y-13483438D01*
G36*
X211193748Y-13483438D02*
X211179605Y-13497580D01*
X211193748Y-13511723D01*
X211014143Y-13691328D01*
X211000000Y-13677185D01*
X210985858Y-13691328D01*
X210806253Y-13511723D01*
X210820395Y-13497580D01*
X210806253Y-13483438D01*
X210985858Y-13303833D01*
X211000000Y-13317975D01*
X211014143Y-13303833D01*
X211193748Y-13483438D01*
X211193748Y-13483438D01*
G37*
X211193748Y-13483438D02*
X211179605Y-13497580D01*
X211193748Y-13511723D01*
X211014143Y-13691328D01*
X211000000Y-13677185D01*
X210985858Y-13691328D01*
X210806253Y-13511723D01*
X210820395Y-13497580D01*
X210806253Y-13483438D01*
X210985858Y-13303833D01*
X211000000Y-13317975D01*
X211014143Y-13303833D01*
X211193748Y-13483438D01*
G36*
X451193748Y-13483438D02*
X451179605Y-13497580D01*
X451193748Y-13511723D01*
X451014143Y-13691328D01*
X451000000Y-13677185D01*
X450985858Y-13691328D01*
X450806253Y-13511723D01*
X450820395Y-13497580D01*
X450806253Y-13483438D01*
X450985858Y-13303833D01*
X451000000Y-13317975D01*
X451014143Y-13303833D01*
X451193748Y-13483438D01*
X451193748Y-13483438D01*
G37*
X451193748Y-13483438D02*
X451179605Y-13497580D01*
X451193748Y-13511723D01*
X451014143Y-13691328D01*
X451000000Y-13677185D01*
X450985858Y-13691328D01*
X450806253Y-13511723D01*
X450820395Y-13497580D01*
X450806253Y-13483438D01*
X450985858Y-13303833D01*
X451000000Y-13317975D01*
X451014143Y-13303833D01*
X451193748Y-13483438D01*
G36*
X61193748Y-13483438D02*
X61179605Y-13497580D01*
X61193748Y-13511723D01*
X61014143Y-13691328D01*
X61000000Y-13677185D01*
X60985858Y-13691328D01*
X60806253Y-13511723D01*
X60820395Y-13497580D01*
X60806253Y-13483438D01*
X60985858Y-13303833D01*
X61000000Y-13317975D01*
X61014143Y-13303833D01*
X61193748Y-13483438D01*
X61193748Y-13483438D01*
G37*
X61193748Y-13483438D02*
X61179605Y-13497580D01*
X61193748Y-13511723D01*
X61014143Y-13691328D01*
X61000000Y-13677185D01*
X60985858Y-13691328D01*
X60806253Y-13511723D01*
X60820395Y-13497580D01*
X60806253Y-13483438D01*
X60985858Y-13303833D01*
X61000000Y-13317975D01*
X61014143Y-13303833D01*
X61193748Y-13483438D01*
G36*
X241193748Y-13483438D02*
X241179605Y-13497580D01*
X241193748Y-13511723D01*
X241014143Y-13691328D01*
X241000000Y-13677185D01*
X240985858Y-13691328D01*
X240806253Y-13511723D01*
X240820395Y-13497580D01*
X240806253Y-13483438D01*
X240985858Y-13303833D01*
X241000000Y-13317975D01*
X241014143Y-13303833D01*
X241193748Y-13483438D01*
X241193748Y-13483438D01*
G37*
X241193748Y-13483438D02*
X241179605Y-13497580D01*
X241193748Y-13511723D01*
X241014143Y-13691328D01*
X241000000Y-13677185D01*
X240985858Y-13691328D01*
X240806253Y-13511723D01*
X240820395Y-13497580D01*
X240806253Y-13483438D01*
X240985858Y-13303833D01*
X241000000Y-13317975D01*
X241014143Y-13303833D01*
X241193748Y-13483438D01*
G36*
X391193748Y-13483438D02*
X391179605Y-13497580D01*
X391193748Y-13511723D01*
X391014143Y-13691328D01*
X391000000Y-13677185D01*
X390985858Y-13691328D01*
X390806253Y-13511723D01*
X390820395Y-13497580D01*
X390806253Y-13483438D01*
X390985858Y-13303833D01*
X391000000Y-13317975D01*
X391014143Y-13303833D01*
X391193748Y-13483438D01*
X391193748Y-13483438D01*
G37*
X391193748Y-13483438D02*
X391179605Y-13497580D01*
X391193748Y-13511723D01*
X391014143Y-13691328D01*
X391000000Y-13677185D01*
X390985858Y-13691328D01*
X390806253Y-13511723D01*
X390820395Y-13497580D01*
X390806253Y-13483438D01*
X390985858Y-13303833D01*
X391000000Y-13317975D01*
X391014143Y-13303833D01*
X391193748Y-13483438D01*
G36*
X361193748Y-13483438D02*
X361179605Y-13497580D01*
X361193748Y-13511723D01*
X361014143Y-13691328D01*
X361000000Y-13677185D01*
X360985858Y-13691328D01*
X360806253Y-13511723D01*
X360820395Y-13497580D01*
X360806253Y-13483438D01*
X360985858Y-13303833D01*
X361000000Y-13317975D01*
X361014143Y-13303833D01*
X361193748Y-13483438D01*
X361193748Y-13483438D01*
G37*
X361193748Y-13483438D02*
X361179605Y-13497580D01*
X361193748Y-13511723D01*
X361014143Y-13691328D01*
X361000000Y-13677185D01*
X360985858Y-13691328D01*
X360806253Y-13511723D01*
X360820395Y-13497580D01*
X360806253Y-13483438D01*
X360985858Y-13303833D01*
X361000000Y-13317975D01*
X361014143Y-13303833D01*
X361193748Y-13483438D01*
G36*
X301193748Y-13483438D02*
X301179605Y-13497580D01*
X301193748Y-13511723D01*
X301014143Y-13691328D01*
X301000000Y-13677185D01*
X300985858Y-13691328D01*
X300806253Y-13511723D01*
X300820395Y-13497580D01*
X300806253Y-13483438D01*
X300985858Y-13303833D01*
X301000000Y-13317975D01*
X301014143Y-13303833D01*
X301193748Y-13483438D01*
X301193748Y-13483438D01*
G37*
X301193748Y-13483438D02*
X301179605Y-13497580D01*
X301193748Y-13511723D01*
X301014143Y-13691328D01*
X301000000Y-13677185D01*
X300985858Y-13691328D01*
X300806253Y-13511723D01*
X300820395Y-13497580D01*
X300806253Y-13483438D01*
X300985858Y-13303833D01*
X301000000Y-13317975D01*
X301014143Y-13303833D01*
X301193748Y-13483438D01*
G36*
X181193748Y-13483438D02*
X181179605Y-13497580D01*
X181193748Y-13511723D01*
X181014143Y-13691328D01*
X181000000Y-13677185D01*
X180985858Y-13691328D01*
X180806253Y-13511723D01*
X180820395Y-13497580D01*
X180806253Y-13483438D01*
X180985858Y-13303833D01*
X181000000Y-13317975D01*
X181014143Y-13303833D01*
X181193748Y-13483438D01*
X181193748Y-13483438D01*
G37*
X181193748Y-13483438D02*
X181179605Y-13497580D01*
X181193748Y-13511723D01*
X181014143Y-13691328D01*
X181000000Y-13677185D01*
X180985858Y-13691328D01*
X180806253Y-13511723D01*
X180820395Y-13497580D01*
X180806253Y-13483438D01*
X180985858Y-13303833D01*
X181000000Y-13317975D01*
X181014143Y-13303833D01*
X181193748Y-13483438D01*
G36*
X121193748Y-13483438D02*
X121179605Y-13497580D01*
X121193748Y-13511723D01*
X121014143Y-13691328D01*
X121000000Y-13677185D01*
X120985858Y-13691328D01*
X120806253Y-13511723D01*
X120820395Y-13497580D01*
X120806253Y-13483438D01*
X120985858Y-13303833D01*
X121000000Y-13317975D01*
X121014143Y-13303833D01*
X121193748Y-13483438D01*
X121193748Y-13483438D01*
G37*
X121193748Y-13483438D02*
X121179605Y-13497580D01*
X121193748Y-13511723D01*
X121014143Y-13691328D01*
X121000000Y-13677185D01*
X120985858Y-13691328D01*
X120806253Y-13511723D01*
X120820395Y-13497580D01*
X120806253Y-13483438D01*
X120985858Y-13303833D01*
X121000000Y-13317975D01*
X121014143Y-13303833D01*
X121193748Y-13483438D01*
G04 #@! TD*
M02*
