G04 #@! TF.GenerationSoftware,KiCad,Pcbnew,(5.0.0)*
G04 #@! TF.CreationDate,2019-01-12T18:13:59+01:00*
G04 #@! TF.ProjectId,1u_complex_bus_frontboard,31755F636F6D706C65785F6275735F66,rev?*
G04 #@! TF.SameCoordinates,Original*
G04 #@! TF.FileFunction,Paste,Top*
G04 #@! TF.FilePolarity,Positive*
%FSLAX46Y46*%
G04 Gerber Fmt 4.6, Leading zero omitted, Abs format (unit mm)*
G04 Created by KiCad (PCBNEW (5.0.0)) date 01/12/19 18:13:59*
%MOMM*%
%LPD*%
G01*
G04 APERTURE LIST*
%ADD10C,1.648460*%
G04 APERTURE END LIST*
D10*
G04 #@! TO.C,U_IN_2_1*
X61000000Y-16499860D03*
X61000000Y-13497580D03*
X61000000Y-5001280D03*
G04 #@! TD*
G04 #@! TO.C,U_IN_2_3*
X301000000Y-16499860D03*
X301000000Y-13497580D03*
X301000000Y-5001280D03*
G04 #@! TD*
G04 #@! TO.C,U_IN_4_2*
X241000000Y-16499860D03*
X241000000Y-13497580D03*
X241000000Y-5001280D03*
G04 #@! TD*
G04 #@! TO.C,U_IN_1_3*
X271000000Y-5001280D03*
X271000000Y-13497580D03*
X271000000Y-16499860D03*
G04 #@! TD*
G04 #@! TO.C,U_OUT_1_1*
X45000000Y-16499860D03*
X45000000Y-13497580D03*
X45000000Y-5001280D03*
G04 #@! TD*
G04 #@! TO.C,U_IN_1_2*
X151000000Y-16499860D03*
X151000000Y-13497580D03*
X151000000Y-5001280D03*
G04 #@! TD*
G04 #@! TO.C,U_IN_2_2*
X181000000Y-5001280D03*
X181000000Y-13497580D03*
X181000000Y-16499860D03*
G04 #@! TD*
G04 #@! TO.C,U_IN_2_4*
X421000000Y-5001280D03*
X421000000Y-13497580D03*
X421000000Y-16499860D03*
G04 #@! TD*
G04 #@! TO.C,U_IN_3_1*
X91000000Y-5001280D03*
X91000000Y-13497580D03*
X91000000Y-16499860D03*
G04 #@! TD*
G04 #@! TO.C,U_IN_3_2*
X211000000Y-5001280D03*
X211000000Y-13497580D03*
X211000000Y-16499860D03*
G04 #@! TD*
G04 #@! TO.C,U_IN_3_3*
X331000000Y-16499860D03*
X331000000Y-13497580D03*
X331000000Y-5001280D03*
G04 #@! TD*
G04 #@! TO.C,U_IN_3_4*
X451000000Y-16499860D03*
X451000000Y-13497580D03*
X451000000Y-5001280D03*
G04 #@! TD*
G04 #@! TO.C,U_IN_4_1*
X121000000Y-5001280D03*
X121000000Y-13497580D03*
X121000000Y-16499860D03*
G04 #@! TD*
G04 #@! TO.C,U_IN_4_3*
X361000000Y-5001280D03*
X361000000Y-13497580D03*
X361000000Y-16499860D03*
G04 #@! TD*
G04 #@! TO.C,U_IN_4_4*
X481000000Y-5001280D03*
X481000000Y-13497580D03*
X481000000Y-16499860D03*
G04 #@! TD*
G04 #@! TO.C,U_OUT_1_3*
X285000000Y-16499860D03*
X285000000Y-13497580D03*
X285000000Y-5001280D03*
G04 #@! TD*
G04 #@! TO.C,U_OUT_1_4*
X405000000Y-5001280D03*
X405000000Y-13497580D03*
X405000000Y-16499860D03*
G04 #@! TD*
G04 #@! TO.C,U_OUT_1_2*
X165000000Y-5001280D03*
X165000000Y-13497580D03*
X165000000Y-16499860D03*
G04 #@! TD*
G04 #@! TO.C,U_OUT_2_2*
X195000000Y-16499860D03*
X195000000Y-13497580D03*
X195000000Y-5001280D03*
G04 #@! TD*
G04 #@! TO.C,U_OUT_2_4*
X435000000Y-5001280D03*
X435000000Y-13497580D03*
X435000000Y-16499860D03*
G04 #@! TD*
G04 #@! TO.C,U_OUT_3_1*
X105000000Y-16499860D03*
X105000000Y-13497580D03*
X105000000Y-5001280D03*
G04 #@! TD*
G04 #@! TO.C,U_OUT_3_2*
X225000000Y-16499860D03*
X225000000Y-13497580D03*
X225000000Y-5001280D03*
G04 #@! TD*
G04 #@! TO.C,U_OUT_3_3*
X345000000Y-5001280D03*
X345000000Y-13497580D03*
X345000000Y-16499860D03*
G04 #@! TD*
G04 #@! TO.C,U_OUT_3_4*
X465000000Y-16499860D03*
X465000000Y-13497580D03*
X465000000Y-5001280D03*
G04 #@! TD*
G04 #@! TO.C,U_OUT_2_3*
X315000000Y-16499860D03*
X315000000Y-13497580D03*
X315000000Y-5001280D03*
G04 #@! TD*
G04 #@! TO.C,U_OUT_4_1*
X135000000Y-5001280D03*
X135000000Y-13497580D03*
X135000000Y-16499860D03*
G04 #@! TD*
G04 #@! TO.C,U_OUT_4_2*
X255000000Y-16499860D03*
X255000000Y-13497580D03*
X255000000Y-5001280D03*
G04 #@! TD*
G04 #@! TO.C,U_OUT_4_3*
X375000000Y-5001280D03*
X375000000Y-13497580D03*
X375000000Y-16499860D03*
G04 #@! TD*
G04 #@! TO.C,U_OUT_2_1*
X75000000Y-5001280D03*
X75000000Y-13497580D03*
X75000000Y-16499860D03*
G04 #@! TD*
G04 #@! TO.C,U_OUT_4_4*
X495000000Y-16499860D03*
X495000000Y-13497580D03*
X495000000Y-5001280D03*
G04 #@! TD*
G04 #@! TO.C,U_IN_1_1*
X31000000Y-16499860D03*
X31000000Y-13497580D03*
X31000000Y-5001280D03*
G04 #@! TD*
G04 #@! TO.C,U_IN_1_4*
X391000000Y-5001280D03*
X391000000Y-13497580D03*
X391000000Y-16499860D03*
G04 #@! TD*
M02*
