G04 #@! TF.GenerationSoftware,KiCad,Pcbnew,(5.0.0)*
G04 #@! TF.CreationDate,2019-01-13T18:35:45+01:00*
G04 #@! TF.ProjectId,1u_complex_bus_mainboard,31755F636F6D706C65785F6275735F6D,rev?*
G04 #@! TF.SameCoordinates,Original*
G04 #@! TF.FileFunction,Copper,L2,Bot,Signal*
G04 #@! TF.FilePolarity,Positive*
%FSLAX46Y46*%
G04 Gerber Fmt 4.6, Leading zero omitted, Abs format (unit mm)*
G04 Created by KiCad (PCBNEW (5.0.0)) date 01/13/19 18:35:45*
%MOMM*%
%LPD*%
G01*
G04 APERTURE LIST*
G04 #@! TA.AperFunction,ComponentPad*
%ADD10R,1.700000X1.700000*%
G04 #@! TD*
G04 #@! TA.AperFunction,ComponentPad*
%ADD11O,1.700000X1.700000*%
G04 #@! TD*
G04 #@! TA.AperFunction,ComponentPad*
%ADD12R,1.200000X1.200000*%
G04 #@! TD*
G04 #@! TA.AperFunction,ComponentPad*
%ADD13C,1.200000*%
G04 #@! TD*
G04 #@! TA.AperFunction,ComponentPad*
%ADD14C,1.600000*%
G04 #@! TD*
G04 #@! TA.AperFunction,ComponentPad*
%ADD15O,2.200000X2.200000*%
G04 #@! TD*
G04 #@! TA.AperFunction,ComponentPad*
%ADD16R,2.200000X2.200000*%
G04 #@! TD*
G04 #@! TA.AperFunction,ComponentPad*
%ADD17O,1.600000X1.600000*%
G04 #@! TD*
G04 #@! TA.AperFunction,ComponentPad*
%ADD18R,1.600000X1.600000*%
G04 #@! TD*
G04 #@! TA.AperFunction,ViaPad*
%ADD19C,0.800000*%
G04 #@! TD*
G04 #@! TA.AperFunction,Conductor*
%ADD20C,0.250000*%
G04 #@! TD*
G04 #@! TA.AperFunction,Conductor*
%ADD21C,0.254000*%
G04 #@! TD*
G04 APERTURE END LIST*
D10*
G04 #@! TO.P,J_PWR1,1*
G04 #@! TO.N,Net-(D2-Pad2)*
X26250000Y-15000000D03*
D11*
G04 #@! TO.P,J_PWR1,2*
X28790000Y-15000000D03*
G04 #@! TO.P,J_PWR1,3*
G04 #@! TO.N,GND*
X26250000Y-12460000D03*
G04 #@! TO.P,J_PWR1,4*
X28790000Y-12460000D03*
G04 #@! TO.P,J_PWR1,5*
X26250000Y-9920000D03*
G04 #@! TO.P,J_PWR1,6*
X28790000Y-9920000D03*
G04 #@! TO.P,J_PWR1,7*
X26250000Y-7380000D03*
G04 #@! TO.P,J_PWR1,8*
X28790000Y-7380000D03*
G04 #@! TO.P,J_PWR1,9*
G04 #@! TO.N,Net-(D1-Pad1)*
X26250000Y-4840000D03*
G04 #@! TO.P,J_PWR1,10*
X28790000Y-4840000D03*
G04 #@! TD*
D12*
G04 #@! TO.P,C1,1*
G04 #@! TO.N,+12V*
X61000000Y-15000000D03*
D13*
G04 #@! TO.P,C1,2*
G04 #@! TO.N,GND*
X63000000Y-15000000D03*
G04 #@! TD*
G04 #@! TO.P,C2,2*
G04 #@! TO.N,-12V*
X63000000Y-5000000D03*
D12*
G04 #@! TO.P,C2,1*
G04 #@! TO.N,GND*
X61000000Y-5000000D03*
G04 #@! TD*
D14*
G04 #@! TO.P,C3,1*
G04 #@! TO.N,+12V*
X69000000Y-13000000D03*
G04 #@! TO.P,C3,2*
G04 #@! TO.N,GND*
X74000000Y-13000000D03*
G04 #@! TD*
G04 #@! TO.P,C4,2*
G04 #@! TO.N,-12V*
X69000000Y-7000000D03*
G04 #@! TO.P,C4,1*
G04 #@! TO.N,GND*
X74000000Y-7000000D03*
G04 #@! TD*
D15*
G04 #@! TO.P,D1,2*
G04 #@! TO.N,GND*
X46660000Y-12000000D03*
D16*
G04 #@! TO.P,D1,1*
G04 #@! TO.N,Net-(D1-Pad1)*
X36500000Y-12000000D03*
G04 #@! TD*
G04 #@! TO.P,D2,1*
G04 #@! TO.N,GND*
X36500000Y-7500000D03*
D15*
G04 #@! TO.P,D2,2*
G04 #@! TO.N,Net-(D2-Pad2)*
X46660000Y-7500000D03*
G04 #@! TD*
D14*
G04 #@! TO.P,R_FUSE_1,1*
G04 #@! TO.N,+12V*
X46000000Y-16500000D03*
D17*
G04 #@! TO.P,R_FUSE_1,2*
G04 #@! TO.N,Net-(D1-Pad1)*
X38380000Y-16500000D03*
G04 #@! TD*
G04 #@! TO.P,R_FUSE_2,2*
G04 #@! TO.N,Net-(D2-Pad2)*
X38380000Y-3500000D03*
D14*
G04 #@! TO.P,R_FUSE_2,1*
G04 #@! TO.N,-12V*
X46000000Y-3500000D03*
G04 #@! TD*
G04 #@! TO.P,C5,2*
G04 #@! TO.N,Net-(C5-Pad2)*
X130500000Y-16000000D03*
G04 #@! TO.P,C5,1*
G04 #@! TO.N,/cv_bus1/LEDS_OUT_1*
X125500000Y-16000000D03*
G04 #@! TD*
G04 #@! TO.P,C6,1*
G04 #@! TO.N,/cv_bus2/LEDS_OUT_2*
X198400000Y-16000000D03*
G04 #@! TO.P,C6,2*
G04 #@! TO.N,Net-(C6-Pad2)*
X203400000Y-16000000D03*
G04 #@! TD*
G04 #@! TO.P,C7,2*
G04 #@! TO.N,Net-(C7-Pad2)*
X321400000Y-16500000D03*
G04 #@! TO.P,C7,1*
G04 #@! TO.N,Net-(C7-Pad1)*
X316400000Y-16500000D03*
G04 #@! TD*
G04 #@! TO.P,C8,1*
G04 #@! TO.N,/cv_bus4/LEDS_OUT_4*
X394600000Y-16500000D03*
G04 #@! TO.P,C8,2*
G04 #@! TO.N,Net-(C8-Pad2)*
X399600000Y-16500000D03*
G04 #@! TD*
D10*
G04 #@! TO.P,J_MB2.1,1*
G04 #@! TO.N,/cv_bus2/IN_2_1*
X114500000Y-5000000D03*
D11*
G04 #@! TO.P,J_MB2.1,2*
G04 #@! TO.N,/cv_bus2/IN_2_2*
X111960000Y-5000000D03*
G04 #@! TO.P,J_MB2.1,3*
G04 #@! TO.N,/cv_bus2/IN_2_3*
X114500000Y-7540000D03*
G04 #@! TO.P,J_MB2.1,4*
G04 #@! TO.N,/cv_bus2/IN_2_4*
X111960000Y-7540000D03*
G04 #@! TO.P,J_MB2.1,5*
G04 #@! TO.N,/cv_bus2/OUT_2_1*
X114500000Y-10080000D03*
G04 #@! TO.P,J_MB2.1,6*
G04 #@! TO.N,/cv_bus2/OUT_2_2*
X111960000Y-10080000D03*
G04 #@! TO.P,J_MB2.1,7*
G04 #@! TO.N,/cv_bus2/OUT_2_3*
X114500000Y-12620000D03*
G04 #@! TO.P,J_MB2.1,8*
G04 #@! TO.N,/cv_bus2/OUT_2_4*
X111960000Y-12620000D03*
G04 #@! TO.P,J_MB2.1,9*
G04 #@! TO.N,/cv_bus2/LEDS_IN_2*
X114500000Y-15160000D03*
G04 #@! TO.P,J_MB2.1,10*
G04 #@! TO.N,/cv_bus2/LEDS_OUT_2*
X111960000Y-15160000D03*
G04 #@! TD*
D10*
G04 #@! TO.P,J_MB3.1,1*
G04 #@! TO.N,/cv_bus3/IN_3_1*
X414500000Y-5000000D03*
D11*
G04 #@! TO.P,J_MB3.1,2*
G04 #@! TO.N,/cv_bus3/IN_3_2*
X411960000Y-5000000D03*
G04 #@! TO.P,J_MB3.1,3*
G04 #@! TO.N,/cv_bus3/IN_3_3*
X414500000Y-7540000D03*
G04 #@! TO.P,J_MB3.1,4*
G04 #@! TO.N,/cv_bus3/IN_3_4*
X411960000Y-7540000D03*
G04 #@! TO.P,J_MB3.1,5*
G04 #@! TO.N,/cv_bus3/OUT_3_1*
X414500000Y-10080000D03*
G04 #@! TO.P,J_MB3.1,6*
G04 #@! TO.N,/cv_bus3/OUT_3_2*
X411960000Y-10080000D03*
G04 #@! TO.P,J_MB3.1,7*
G04 #@! TO.N,/cv_bus3/OUT_3_3*
X414500000Y-12620000D03*
G04 #@! TO.P,J_MB3.1,8*
G04 #@! TO.N,/cv_bus3/OUT_3_4*
X411960000Y-12620000D03*
G04 #@! TO.P,J_MB3.1,9*
G04 #@! TO.N,/cv_bus3/LEDS_IN_3*
X414500000Y-15160000D03*
G04 #@! TO.P,J_MB3.1,10*
G04 #@! TO.N,/cv_bus3/LEDS_OUT_3*
X411960000Y-15160000D03*
G04 #@! TD*
G04 #@! TO.P,J_MB4.1,10*
G04 #@! TO.N,/cv_bus4/LEDS_OUT_4*
X471960000Y-15160000D03*
G04 #@! TO.P,J_MB4.1,9*
G04 #@! TO.N,/cv_bus4/LEDS_IN_4*
X474500000Y-15160000D03*
G04 #@! TO.P,J_MB4.1,8*
G04 #@! TO.N,/cv_bus4/OUT_4_4*
X471960000Y-12620000D03*
G04 #@! TO.P,J_MB4.1,7*
G04 #@! TO.N,/cv_bus4/OUT_4_3*
X474500000Y-12620000D03*
G04 #@! TO.P,J_MB4.1,6*
G04 #@! TO.N,/cv_bus4/OUT_4_2*
X471960000Y-10080000D03*
G04 #@! TO.P,J_MB4.1,5*
G04 #@! TO.N,/cv_bus4/OUT_4_1*
X474500000Y-10080000D03*
G04 #@! TO.P,J_MB4.1,4*
G04 #@! TO.N,/cv_bus4/IN_4_4*
X471960000Y-7540000D03*
G04 #@! TO.P,J_MB4.1,3*
G04 #@! TO.N,/cv_bus4/IN_4_3*
X474500000Y-7540000D03*
G04 #@! TO.P,J_MB4.1,2*
G04 #@! TO.N,/cv_bus4/IN_4_2*
X471960000Y-5000000D03*
D10*
G04 #@! TO.P,J_MB4.1,1*
G04 #@! TO.N,/cv_bus4/IN_4_1*
X474500000Y-5000000D03*
G04 #@! TD*
D14*
G04 #@! TO.P,R2,1*
G04 #@! TO.N,Net-(C5-Pad2)*
X98500000Y-16500000D03*
D17*
G04 #@! TO.P,R2,2*
G04 #@! TO.N,/cv_bus1/LEDS_OUT_1*
X106120000Y-16500000D03*
G04 #@! TD*
D14*
G04 #@! TO.P,R4,1*
G04 #@! TO.N,Net-(C6-Pad2)*
X180000000Y-17000000D03*
D17*
G04 #@! TO.P,R4,2*
G04 #@! TO.N,/cv_bus2/LEDS_OUT_2*
X187620000Y-17000000D03*
G04 #@! TD*
D14*
G04 #@! TO.P,R6,1*
G04 #@! TO.N,Net-(C7-Pad2)*
X300500000Y-16600000D03*
D17*
G04 #@! TO.P,R6,2*
G04 #@! TO.N,Net-(C7-Pad1)*
X308120000Y-16600000D03*
G04 #@! TD*
G04 #@! TO.P,R8,2*
G04 #@! TO.N,/cv_bus4/LEDS_OUT_4*
X386120000Y-16500000D03*
D14*
G04 #@! TO.P,R8,1*
G04 #@! TO.N,Net-(C8-Pad2)*
X378500000Y-16500000D03*
G04 #@! TD*
D17*
G04 #@! TO.P,R_IN_1,2*
G04 #@! TO.N,/cv_bus1/POT_2*
X137000000Y-1380000D03*
D14*
G04 #@! TO.P,R_IN_1,1*
G04 #@! TO.N,/cv_bus1/IN_1_1*
X137000000Y-9000000D03*
G04 #@! TD*
G04 #@! TO.P,R_IN_2,1*
G04 #@! TO.N,/cv_bus1/IN_1_2*
X141700000Y-9000000D03*
D17*
G04 #@! TO.P,R_IN_2,2*
G04 #@! TO.N,/cv_bus1/POT_2*
X141700000Y-1380000D03*
G04 #@! TD*
D14*
G04 #@! TO.P,R_IN_3,1*
G04 #@! TO.N,/cv_bus1/IN_1_3*
X146500000Y-9000000D03*
D17*
G04 #@! TO.P,R_IN_3,2*
G04 #@! TO.N,/cv_bus1/POT_2*
X146500000Y-1380000D03*
G04 #@! TD*
G04 #@! TO.P,R_IN_4,2*
G04 #@! TO.N,/cv_bus1/POT_2*
X151300000Y-1380000D03*
D14*
G04 #@! TO.P,R_IN_4,1*
G04 #@! TO.N,/cv_bus1/IN_1_4*
X151300000Y-9000000D03*
G04 #@! TD*
D17*
G04 #@! TO.P,R_IN_5,2*
G04 #@! TO.N,Net-(C5-Pad2)*
X155900000Y-1380000D03*
D14*
G04 #@! TO.P,R_IN_5,1*
G04 #@! TO.N,/cv_bus1/POT_1*
X155900000Y-9000000D03*
G04 #@! TD*
D17*
G04 #@! TO.P,R_IN_6,2*
G04 #@! TO.N,/cv_bus2/POT_2*
X212400000Y-1380000D03*
D14*
G04 #@! TO.P,R_IN_6,1*
G04 #@! TO.N,/cv_bus2/IN_2_1*
X212400000Y-9000000D03*
G04 #@! TD*
G04 #@! TO.P,R_IN_7,1*
G04 #@! TO.N,/cv_bus2/IN_2_2*
X217000000Y-9000000D03*
D17*
G04 #@! TO.P,R_IN_7,2*
G04 #@! TO.N,/cv_bus2/POT_2*
X217000000Y-1380000D03*
G04 #@! TD*
G04 #@! TO.P,R_IN_8,2*
G04 #@! TO.N,/cv_bus2/POT_2*
X221800000Y-1380000D03*
D14*
G04 #@! TO.P,R_IN_8,1*
G04 #@! TO.N,/cv_bus2/IN_2_3*
X221800000Y-9000000D03*
G04 #@! TD*
G04 #@! TO.P,R_IN_9,1*
G04 #@! TO.N,/cv_bus2/IN_2_4*
X226600000Y-9000000D03*
D17*
G04 #@! TO.P,R_IN_9,2*
G04 #@! TO.N,/cv_bus2/POT_2*
X226600000Y-1380000D03*
G04 #@! TD*
G04 #@! TO.P,R_IN_10,2*
G04 #@! TO.N,Net-(C6-Pad2)*
X231200000Y-1380000D03*
D14*
G04 #@! TO.P,R_IN_10,1*
G04 #@! TO.N,/cv_bus2/POT_1*
X231200000Y-9000000D03*
G04 #@! TD*
D17*
G04 #@! TO.P,R_IN_11,2*
G04 #@! TO.N,/cv_bus3/POT_2*
X329600000Y-1380000D03*
D14*
G04 #@! TO.P,R_IN_11,1*
G04 #@! TO.N,/cv_bus3/IN_3_1*
X329600000Y-9000000D03*
G04 #@! TD*
D17*
G04 #@! TO.P,R_IN_12,2*
G04 #@! TO.N,/cv_bus3/POT_2*
X334400000Y-1380000D03*
D14*
G04 #@! TO.P,R_IN_12,1*
G04 #@! TO.N,/cv_bus3/IN_3_2*
X334400000Y-9000000D03*
G04 #@! TD*
G04 #@! TO.P,R_IN_13,1*
G04 #@! TO.N,/cv_bus3/IN_3_3*
X339200000Y-9000000D03*
D17*
G04 #@! TO.P,R_IN_13,2*
G04 #@! TO.N,/cv_bus3/POT_2*
X339200000Y-1380000D03*
G04 #@! TD*
G04 #@! TO.P,R_IN_14,2*
G04 #@! TO.N,/cv_bus3/POT_2*
X344000000Y-1380000D03*
D14*
G04 #@! TO.P,R_IN_14,1*
G04 #@! TO.N,/cv_bus3/IN_3_4*
X344000000Y-9000000D03*
G04 #@! TD*
G04 #@! TO.P,R_IN_15,1*
G04 #@! TO.N,/cv_bus3/POT_1*
X348800000Y-9000000D03*
D17*
G04 #@! TO.P,R_IN_15,2*
G04 #@! TO.N,Net-(C7-Pad2)*
X348800000Y-1380000D03*
G04 #@! TD*
D14*
G04 #@! TO.P,R_IN_16,1*
G04 #@! TO.N,/cv_bus4/IN_4_1*
X422400000Y-9000000D03*
D17*
G04 #@! TO.P,R_IN_16,2*
G04 #@! TO.N,/cv_bus4/POT_2*
X422400000Y-1380000D03*
G04 #@! TD*
G04 #@! TO.P,R_IN_17,2*
G04 #@! TO.N,/cv_bus4/POT_2*
X427200000Y-1380000D03*
D14*
G04 #@! TO.P,R_IN_17,1*
G04 #@! TO.N,/cv_bus4/IN_4_2*
X427200000Y-9000000D03*
G04 #@! TD*
G04 #@! TO.P,R_IN_18,1*
G04 #@! TO.N,/cv_bus4/IN_4_3*
X432000000Y-9000000D03*
D17*
G04 #@! TO.P,R_IN_18,2*
G04 #@! TO.N,/cv_bus4/POT_2*
X432000000Y-1380000D03*
G04 #@! TD*
G04 #@! TO.P,R_IN_19,2*
G04 #@! TO.N,/cv_bus4/POT_2*
X451800000Y-1380000D03*
D14*
G04 #@! TO.P,R_IN_19,1*
G04 #@! TO.N,/cv_bus4/IN_4_4*
X451800000Y-9000000D03*
G04 #@! TD*
G04 #@! TO.P,R_IN_20,1*
G04 #@! TO.N,/cv_bus4/POT_1*
X456600000Y-9000000D03*
D17*
G04 #@! TO.P,R_IN_20,2*
G04 #@! TO.N,Net-(C8-Pad2)*
X456600000Y-1380000D03*
G04 #@! TD*
D14*
G04 #@! TO.P,R_LED_1_1,1*
G04 #@! TO.N,GND*
X158500000Y-18620000D03*
D17*
G04 #@! TO.P,R_LED_1_1,2*
G04 #@! TO.N,/cv_bus1/LEDS_OUT_1*
X158500000Y-11000000D03*
G04 #@! TD*
D14*
G04 #@! TO.P,R_LED_2_1,1*
G04 #@! TO.N,GND*
X233800000Y-18600000D03*
D17*
G04 #@! TO.P,R_LED_2_1,2*
G04 #@! TO.N,/cv_bus2/LEDS_OUT_2*
X233800000Y-10980000D03*
G04 #@! TD*
G04 #@! TO.P,R_LED_3_1,2*
G04 #@! TO.N,/cv_bus3/LEDS_OUT_3*
X351200000Y-10980000D03*
D14*
G04 #@! TO.P,R_LED_3_1,1*
G04 #@! TO.N,GND*
X351200000Y-18600000D03*
G04 #@! TD*
G04 #@! TO.P,R_LED_4_1,1*
G04 #@! TO.N,GND*
X459000000Y-18600000D03*
D17*
G04 #@! TO.P,R_LED_4_1,2*
G04 #@! TO.N,/cv_bus4/LEDS_OUT_4*
X459000000Y-10980000D03*
G04 #@! TD*
D14*
G04 #@! TO.P,R_OUT_1,1*
G04 #@! TO.N,/cv_bus1/LEDS_OUT_1*
X139300000Y-18620000D03*
D17*
G04 #@! TO.P,R_OUT_1,2*
G04 #@! TO.N,/cv_bus1/OUT_1_1*
X139300000Y-11000000D03*
G04 #@! TD*
G04 #@! TO.P,R_OUT_2,2*
G04 #@! TO.N,/cv_bus1/OUT_1_2*
X144100000Y-11000000D03*
D14*
G04 #@! TO.P,R_OUT_2,1*
G04 #@! TO.N,/cv_bus1/LEDS_OUT_1*
X144100000Y-18620000D03*
G04 #@! TD*
G04 #@! TO.P,R_OUT_3,1*
G04 #@! TO.N,/cv_bus1/LEDS_OUT_1*
X149100000Y-18620000D03*
D17*
G04 #@! TO.P,R_OUT_3,2*
G04 #@! TO.N,/cv_bus1/OUT_1_3*
X149100000Y-11000000D03*
G04 #@! TD*
G04 #@! TO.P,R_OUT_4,2*
G04 #@! TO.N,/cv_bus1/OUT_1_4*
X153700000Y-11000000D03*
D14*
G04 #@! TO.P,R_OUT_4,1*
G04 #@! TO.N,/cv_bus1/LEDS_OUT_1*
X153700000Y-18620000D03*
G04 #@! TD*
G04 #@! TO.P,R_OUT_5,1*
G04 #@! TO.N,/cv_bus2/LEDS_OUT_2*
X214600000Y-18600000D03*
D17*
G04 #@! TO.P,R_OUT_5,2*
G04 #@! TO.N,/cv_bus2/OUT_2_1*
X214600000Y-10980000D03*
G04 #@! TD*
G04 #@! TO.P,R_OUT_6,2*
G04 #@! TO.N,/cv_bus2/OUT_2_2*
X219400000Y-10980000D03*
D14*
G04 #@! TO.P,R_OUT_6,1*
G04 #@! TO.N,/cv_bus2/LEDS_OUT_2*
X219400000Y-18600000D03*
G04 #@! TD*
G04 #@! TO.P,R_OUT_7,1*
G04 #@! TO.N,/cv_bus2/LEDS_OUT_2*
X224200000Y-18600000D03*
D17*
G04 #@! TO.P,R_OUT_7,2*
G04 #@! TO.N,/cv_bus2/OUT_2_3*
X224200000Y-10980000D03*
G04 #@! TD*
G04 #@! TO.P,R_OUT_8,2*
G04 #@! TO.N,/cv_bus2/OUT_2_4*
X229000000Y-10980000D03*
D14*
G04 #@! TO.P,R_OUT_8,1*
G04 #@! TO.N,/cv_bus2/LEDS_OUT_2*
X229000000Y-18600000D03*
G04 #@! TD*
G04 #@! TO.P,R_OUT_9,1*
G04 #@! TO.N,Net-(C7-Pad1)*
X332000000Y-18600000D03*
D17*
G04 #@! TO.P,R_OUT_9,2*
G04 #@! TO.N,/cv_bus3/OUT_3_1*
X332000000Y-10980000D03*
G04 #@! TD*
G04 #@! TO.P,R_OUT_10,2*
G04 #@! TO.N,/cv_bus3/OUT_3_2*
X336800000Y-10980000D03*
D14*
G04 #@! TO.P,R_OUT_10,1*
G04 #@! TO.N,Net-(C7-Pad1)*
X336800000Y-18600000D03*
G04 #@! TD*
D17*
G04 #@! TO.P,R_OUT_11,2*
G04 #@! TO.N,/cv_bus3/OUT_3_3*
X341600000Y-10980000D03*
D14*
G04 #@! TO.P,R_OUT_11,1*
G04 #@! TO.N,Net-(C7-Pad1)*
X341600000Y-18600000D03*
G04 #@! TD*
D17*
G04 #@! TO.P,R_OUT_12,2*
G04 #@! TO.N,/cv_bus3/OUT_3_4*
X346400000Y-10980000D03*
D14*
G04 #@! TO.P,R_OUT_12,1*
G04 #@! TO.N,Net-(C7-Pad1)*
X346400000Y-18600000D03*
G04 #@! TD*
G04 #@! TO.P,R_OUT_13,1*
G04 #@! TO.N,/cv_bus4/LEDS_OUT_4*
X424800000Y-18600000D03*
D17*
G04 #@! TO.P,R_OUT_13,2*
G04 #@! TO.N,/cv_bus4/OUT_4_1*
X424800000Y-10980000D03*
G04 #@! TD*
G04 #@! TO.P,R_OUT_14,2*
G04 #@! TO.N,/cv_bus4/OUT_4_2*
X429600000Y-10980000D03*
D14*
G04 #@! TO.P,R_OUT_14,1*
G04 #@! TO.N,/cv_bus4/LEDS_OUT_4*
X429600000Y-18600000D03*
G04 #@! TD*
G04 #@! TO.P,R_OUT_15,1*
G04 #@! TO.N,/cv_bus4/LEDS_OUT_4*
X434400000Y-18600000D03*
D17*
G04 #@! TO.P,R_OUT_15,2*
G04 #@! TO.N,/cv_bus4/OUT_4_3*
X434400000Y-10980000D03*
G04 #@! TD*
G04 #@! TO.P,R_OUT_16,2*
G04 #@! TO.N,/cv_bus4/OUT_4_4*
X454200000Y-10980000D03*
D14*
G04 #@! TO.P,R_OUT_16,1*
G04 #@! TO.N,/cv_bus4/LEDS_OUT_4*
X454200000Y-18600000D03*
G04 #@! TD*
D17*
G04 #@! TO.P,R_Split_1_1,2*
G04 #@! TO.N,Net-(R_Split_1_1-Pad2)*
X131620000Y-4500000D03*
D14*
G04 #@! TO.P,R_Split_1_1,1*
G04 #@! TO.N,/cv_bus1/LEDS_OUT_1*
X124000000Y-4500000D03*
G04 #@! TD*
D17*
G04 #@! TO.P,R_Split_1_2,2*
G04 #@! TO.N,Net-(R_Split_1_1-Pad2)*
X131620000Y-10500000D03*
D14*
G04 #@! TO.P,R_Split_1_2,1*
G04 #@! TO.N,GND*
X124000000Y-10500000D03*
G04 #@! TD*
G04 #@! TO.P,R_Split_2_1,1*
G04 #@! TO.N,/cv_bus2/LEDS_OUT_2*
X197000000Y-4000000D03*
D17*
G04 #@! TO.P,R_Split_2_1,2*
G04 #@! TO.N,Net-(R_Split_2_1-Pad2)*
X204620000Y-4000000D03*
G04 #@! TD*
D14*
G04 #@! TO.P,R_Split_2_2,1*
G04 #@! TO.N,GND*
X197000000Y-10000000D03*
D17*
G04 #@! TO.P,R_Split_2_2,2*
G04 #@! TO.N,Net-(R_Split_2_1-Pad2)*
X204620000Y-10000000D03*
G04 #@! TD*
D14*
G04 #@! TO.P,R_Split_3_1,1*
G04 #@! TO.N,Net-(C7-Pad1)*
X315200000Y-4000000D03*
D17*
G04 #@! TO.P,R_Split_3_1,2*
G04 #@! TO.N,Net-(R_Split_3_1-Pad2)*
X322820000Y-4000000D03*
G04 #@! TD*
D14*
G04 #@! TO.P,R_Split_3_2,1*
G04 #@! TO.N,GND*
X315200000Y-10000000D03*
D17*
G04 #@! TO.P,R_Split_3_2,2*
G04 #@! TO.N,Net-(R_Split_3_1-Pad2)*
X322820000Y-10000000D03*
G04 #@! TD*
G04 #@! TO.P,R_Split_4_1,2*
G04 #@! TO.N,Net-(R_Split_4_1-Pad2)*
X400820000Y-4000000D03*
D14*
G04 #@! TO.P,R_Split_4_1,1*
G04 #@! TO.N,/cv_bus4/LEDS_OUT_4*
X393200000Y-4000000D03*
G04 #@! TD*
D17*
G04 #@! TO.P,R_Split_4_2,2*
G04 #@! TO.N,Net-(R_Split_4_1-Pad2)*
X401020000Y-10000000D03*
D14*
G04 #@! TO.P,R_Split_4_2,1*
G04 #@! TO.N,GND*
X393400000Y-10000000D03*
G04 #@! TD*
D18*
G04 #@! TO.P,U1,1*
G04 #@! TO.N,/cv_bus1/POT_1*
X91500000Y-11000000D03*
D17*
G04 #@! TO.P,U1,8*
G04 #@! TO.N,/cv_bus1/LEDS_IN_1*
X106740000Y-3380000D03*
G04 #@! TO.P,U1,2*
G04 #@! TO.N,/cv_bus1/POT_2*
X94040000Y-11000000D03*
G04 #@! TO.P,U1,9*
G04 #@! TO.N,/cv_bus1/LEDS_OUT_1*
X104200000Y-3380000D03*
G04 #@! TO.P,U1,3*
G04 #@! TO.N,GND*
X96580000Y-11000000D03*
G04 #@! TO.P,U1,10*
G04 #@! TO.N,Net-(R_Split_1_1-Pad2)*
X101660000Y-3380000D03*
G04 #@! TO.P,U1,4*
G04 #@! TO.N,+12V*
X99120000Y-11000000D03*
G04 #@! TO.P,U1,11*
G04 #@! TO.N,-12V*
X99120000Y-3380000D03*
G04 #@! TO.P,U1,5*
G04 #@! TO.N,GND*
X101660000Y-11000000D03*
G04 #@! TO.P,U1,12*
X96580000Y-3380000D03*
G04 #@! TO.P,U1,6*
G04 #@! TO.N,Net-(C5-Pad2)*
X104200000Y-11000000D03*
G04 #@! TO.P,U1,13*
G04 #@! TO.N,Net-(U1-Pad13)*
X94040000Y-3380000D03*
G04 #@! TO.P,U1,7*
G04 #@! TO.N,/cv_bus1/LEDS_OUT_1*
X106740000Y-11000000D03*
G04 #@! TO.P,U1,14*
G04 #@! TO.N,Net-(U1-Pad13)*
X91500000Y-3380000D03*
G04 #@! TD*
G04 #@! TO.P,U2,14*
G04 #@! TO.N,Net-(U2-Pad13)*
X171600000Y-3380000D03*
G04 #@! TO.P,U2,7*
G04 #@! TO.N,/cv_bus2/LEDS_OUT_2*
X186840000Y-11000000D03*
G04 #@! TO.P,U2,13*
G04 #@! TO.N,Net-(U2-Pad13)*
X174140000Y-3380000D03*
G04 #@! TO.P,U2,6*
G04 #@! TO.N,Net-(C6-Pad2)*
X184300000Y-11000000D03*
G04 #@! TO.P,U2,12*
G04 #@! TO.N,GND*
X176680000Y-3380000D03*
G04 #@! TO.P,U2,5*
X181760000Y-11000000D03*
G04 #@! TO.P,U2,11*
G04 #@! TO.N,-12V*
X179220000Y-3380000D03*
G04 #@! TO.P,U2,4*
G04 #@! TO.N,+12V*
X179220000Y-11000000D03*
G04 #@! TO.P,U2,10*
G04 #@! TO.N,Net-(R_Split_2_1-Pad2)*
X181760000Y-3380000D03*
G04 #@! TO.P,U2,3*
G04 #@! TO.N,GND*
X176680000Y-11000000D03*
G04 #@! TO.P,U2,9*
G04 #@! TO.N,/cv_bus2/LEDS_OUT_2*
X184300000Y-3380000D03*
G04 #@! TO.P,U2,2*
G04 #@! TO.N,/cv_bus2/POT_2*
X174140000Y-11000000D03*
G04 #@! TO.P,U2,8*
G04 #@! TO.N,/cv_bus2/LEDS_IN_2*
X186840000Y-3380000D03*
D18*
G04 #@! TO.P,U2,1*
G04 #@! TO.N,/cv_bus2/POT_1*
X171600000Y-11000000D03*
G04 #@! TD*
D17*
G04 #@! TO.P,U3,14*
G04 #@! TO.N,Net-(U3-Pad13)*
X292200000Y-3380000D03*
G04 #@! TO.P,U3,7*
G04 #@! TO.N,Net-(C7-Pad1)*
X307440000Y-11000000D03*
G04 #@! TO.P,U3,13*
G04 #@! TO.N,Net-(U3-Pad13)*
X294740000Y-3380000D03*
G04 #@! TO.P,U3,6*
G04 #@! TO.N,Net-(C7-Pad2)*
X304900000Y-11000000D03*
G04 #@! TO.P,U3,12*
G04 #@! TO.N,GND*
X297280000Y-3380000D03*
G04 #@! TO.P,U3,5*
X302360000Y-11000000D03*
G04 #@! TO.P,U3,11*
G04 #@! TO.N,-12V*
X299820000Y-3380000D03*
G04 #@! TO.P,U3,4*
G04 #@! TO.N,+12V*
X299820000Y-11000000D03*
G04 #@! TO.P,U3,10*
G04 #@! TO.N,Net-(R_Split_3_1-Pad2)*
X302360000Y-3380000D03*
G04 #@! TO.P,U3,3*
G04 #@! TO.N,GND*
X297280000Y-11000000D03*
G04 #@! TO.P,U3,9*
G04 #@! TO.N,/cv_bus3/LEDS_OUT_3*
X304900000Y-3380000D03*
G04 #@! TO.P,U3,2*
G04 #@! TO.N,/cv_bus3/POT_2*
X294740000Y-11000000D03*
G04 #@! TO.P,U3,8*
G04 #@! TO.N,/cv_bus3/LEDS_IN_3*
X307440000Y-3380000D03*
D18*
G04 #@! TO.P,U3,1*
G04 #@! TO.N,/cv_bus3/POT_1*
X292200000Y-11000000D03*
G04 #@! TD*
G04 #@! TO.P,U4,1*
G04 #@! TO.N,/cv_bus4/POT_1*
X370400000Y-11000000D03*
D17*
G04 #@! TO.P,U4,8*
G04 #@! TO.N,/cv_bus4/LEDS_IN_4*
X385640000Y-3380000D03*
G04 #@! TO.P,U4,2*
G04 #@! TO.N,/cv_bus4/POT_2*
X372940000Y-11000000D03*
G04 #@! TO.P,U4,9*
G04 #@! TO.N,/cv_bus4/LEDS_OUT_4*
X383100000Y-3380000D03*
G04 #@! TO.P,U4,3*
G04 #@! TO.N,GND*
X375480000Y-11000000D03*
G04 #@! TO.P,U4,10*
G04 #@! TO.N,Net-(R_Split_4_1-Pad2)*
X380560000Y-3380000D03*
G04 #@! TO.P,U4,4*
G04 #@! TO.N,+12V*
X378020000Y-11000000D03*
G04 #@! TO.P,U4,11*
G04 #@! TO.N,-12V*
X378020000Y-3380000D03*
G04 #@! TO.P,U4,5*
G04 #@! TO.N,GND*
X380560000Y-11000000D03*
G04 #@! TO.P,U4,12*
X375480000Y-3380000D03*
G04 #@! TO.P,U4,6*
G04 #@! TO.N,Net-(C8-Pad2)*
X383100000Y-11000000D03*
G04 #@! TO.P,U4,13*
G04 #@! TO.N,Net-(U4-Pad13)*
X372940000Y-3380000D03*
G04 #@! TO.P,U4,7*
G04 #@! TO.N,/cv_bus4/LEDS_OUT_4*
X385640000Y-11000000D03*
G04 #@! TO.P,U4,14*
G04 #@! TO.N,Net-(U4-Pad13)*
X370400000Y-3380000D03*
G04 #@! TD*
D10*
G04 #@! TO.P,J_MB1.1,1*
G04 #@! TO.N,/cv_bus1/IN_1_1*
X54500000Y-5000000D03*
D11*
G04 #@! TO.P,J_MB1.1,2*
G04 #@! TO.N,/cv_bus1/IN_1_2*
X51960000Y-5000000D03*
G04 #@! TO.P,J_MB1.1,3*
G04 #@! TO.N,/cv_bus1/IN_1_3*
X54500000Y-7540000D03*
G04 #@! TO.P,J_MB1.1,4*
G04 #@! TO.N,/cv_bus1/IN_1_4*
X51960000Y-7540000D03*
G04 #@! TO.P,J_MB1.1,5*
G04 #@! TO.N,/cv_bus1/OUT_1_1*
X54500000Y-10080000D03*
G04 #@! TO.P,J_MB1.1,6*
G04 #@! TO.N,/cv_bus1/OUT_1_2*
X51960000Y-10080000D03*
G04 #@! TO.P,J_MB1.1,7*
G04 #@! TO.N,/cv_bus1/OUT_1_3*
X54500000Y-12620000D03*
G04 #@! TO.P,J_MB1.1,8*
G04 #@! TO.N,/cv_bus1/OUT_1_4*
X51960000Y-12620000D03*
G04 #@! TO.P,J_MB1.1,9*
G04 #@! TO.N,/cv_bus1/LEDS_IN_1*
X54500000Y-15160000D03*
G04 #@! TO.P,J_MB1.1,10*
G04 #@! TO.N,/cv_bus1/LEDS_OUT_1*
X51960000Y-15160000D03*
G04 #@! TD*
D10*
G04 #@! TO.P,J_MB1.2,1*
G04 #@! TO.N,/cv_bus1/POT_1*
X4000000Y-2500000D03*
D11*
G04 #@! TO.P,J_MB1.2,2*
G04 #@! TO.N,/cv_bus1/POT_2*
X6540000Y-2500000D03*
G04 #@! TO.P,J_MB1.2,3*
G04 #@! TO.N,GND*
X9080000Y-2500000D03*
G04 #@! TD*
G04 #@! TO.P,J_MB2.2,3*
G04 #@! TO.N,GND*
X22080000Y-2500000D03*
G04 #@! TO.P,J_MB2.2,2*
G04 #@! TO.N,/cv_bus2/POT_2*
X19540000Y-2500000D03*
D10*
G04 #@! TO.P,J_MB2.2,1*
G04 #@! TO.N,/cv_bus2/POT_1*
X17000000Y-2500000D03*
G04 #@! TD*
G04 #@! TO.P,J_MB3.2,1*
G04 #@! TO.N,/cv_bus3/POT_1*
X509000000Y-2800000D03*
D11*
G04 #@! TO.P,J_MB3.2,2*
G04 #@! TO.N,/cv_bus3/POT_2*
X506460000Y-2800000D03*
G04 #@! TO.P,J_MB3.2,3*
G04 #@! TO.N,GND*
X503920000Y-2800000D03*
G04 #@! TD*
G04 #@! TO.P,J_MB4.2,3*
G04 #@! TO.N,GND*
X516920000Y-2500000D03*
G04 #@! TO.P,J_MB4.2,2*
G04 #@! TO.N,/cv_bus4/POT_2*
X519460000Y-2500000D03*
D10*
G04 #@! TO.P,J_MB4.2,1*
G04 #@! TO.N,/cv_bus4/POT_1*
X522000000Y-2500000D03*
G04 #@! TD*
D19*
G04 #@! TO.N,/cv_bus2/LEDS_OUT_2*
X161791200Y-15904500D03*
G04 #@! TO.N,/cv_bus2/IN_2_4*
X163347400Y-12791500D03*
G04 #@! TO.N,/cv_bus2/OUT_2_2*
X167847600Y-12203000D03*
G04 #@! TO.N,/cv_bus2/OUT_2_3*
X161772500Y-13685600D03*
G04 #@! TO.N,/cv_bus2/OUT_2_4*
X160764200Y-14210800D03*
G04 #@! TO.N,/cv_bus3/POT_1*
X413230000Y-8810000D03*
G04 #@! TO.N,/cv_bus3/POT_2*
X495736900Y-3328000D03*
G04 #@! TD*
D20*
G04 #@! TO.N,Net-(D1-Pad1)*
X36500000Y-12000000D02*
X36500000Y-13494700D01*
X36500000Y-13494700D02*
X38380000Y-15374700D01*
X38380000Y-16500000D02*
X38380000Y-15374700D01*
G04 #@! TO.N,Net-(R_Split_1_1-Pad2)*
X131620000Y-10500000D02*
X131620000Y-4500000D01*
X131620000Y-4500000D02*
X130494700Y-4500000D01*
X101660000Y-3380000D02*
X102785300Y-3380000D01*
X102785300Y-3380000D02*
X102785300Y-3098700D01*
X102785300Y-3098700D02*
X103652200Y-2231800D01*
X103652200Y-2231800D02*
X128226500Y-2231800D01*
X128226500Y-2231800D02*
X130494700Y-4500000D01*
G04 #@! TO.N,Net-(R_Split_2_1-Pad2)*
X204620000Y-4000000D02*
X204620000Y-10000000D01*
G04 #@! TO.N,Net-(R_Split_3_1-Pad2)*
X322820000Y-10000000D02*
X322820000Y-4000000D01*
G04 #@! TO.N,Net-(R_Split_4_1-Pad2)*
X400820000Y-4000000D02*
X400820000Y-5125300D01*
X400820000Y-5125300D02*
X401020000Y-5325300D01*
X401020000Y-5325300D02*
X401020000Y-10000000D01*
G04 #@! TO.N,Net-(C5-Pad2)*
X102161800Y-14163500D02*
X105626100Y-17627800D01*
X105626100Y-17627800D02*
X128872200Y-17627800D01*
X128872200Y-17627800D02*
X130500000Y-16000000D01*
X98500000Y-16500000D02*
X99825300Y-16500000D01*
X99825300Y-16500000D02*
X102161800Y-14163500D01*
X104200000Y-12125300D02*
X102161800Y-14163500D01*
X104200000Y-11000000D02*
X104200000Y-12125300D01*
G04 #@! TO.N,/cv_bus1/LEDS_OUT_1*
X124000000Y-4500000D02*
X122853500Y-3353500D01*
X122853500Y-3353500D02*
X109400400Y-3353500D01*
X109400400Y-3353500D02*
X108248500Y-4505400D01*
X108248500Y-4505400D02*
X106169400Y-4505400D01*
X106169400Y-4505400D02*
X105325300Y-3661300D01*
X105325300Y-3661300D02*
X105325300Y-3380000D01*
X158500000Y-11000000D02*
X155491800Y-11000000D01*
X155491800Y-11000000D02*
X154361800Y-9870000D01*
X154361800Y-9870000D02*
X152830000Y-9870000D01*
X152830000Y-9870000D02*
X152555800Y-10144200D01*
X152555800Y-10144200D02*
X150036000Y-10144200D01*
X150036000Y-10144200D02*
X149761800Y-9870000D01*
X149761800Y-9870000D02*
X148230000Y-9870000D01*
X148230000Y-9870000D02*
X147949900Y-10150100D01*
X147949900Y-10150100D02*
X145146100Y-10150100D01*
X145146100Y-10150100D02*
X144853000Y-9857000D01*
X144853000Y-9857000D02*
X143243000Y-9857000D01*
X143243000Y-9857000D02*
X142949900Y-10150100D01*
X142949900Y-10150100D02*
X140441700Y-10150100D01*
X140441700Y-10150100D02*
X140136600Y-9845000D01*
X140136600Y-9845000D02*
X138455000Y-9845000D01*
X138455000Y-9845000D02*
X136659500Y-11640500D01*
X136659500Y-11640500D02*
X131140500Y-11640500D01*
X131140500Y-11640500D02*
X124000000Y-4500000D01*
X53135300Y-15160000D02*
X53135300Y-14792600D01*
X53135300Y-14792600D02*
X53943200Y-13984700D01*
X53943200Y-13984700D02*
X64149600Y-13984700D01*
X64149600Y-13984700D02*
X66260700Y-11873600D01*
X66260700Y-11873600D02*
X77814600Y-11873600D01*
X77814600Y-11873600D02*
X78327500Y-12386500D01*
X78327500Y-12386500D02*
X96791000Y-12386500D01*
X96791000Y-12386500D02*
X97850000Y-11327500D01*
X97850000Y-11327500D02*
X97850000Y-10601000D01*
X97850000Y-10601000D02*
X98576400Y-9874600D01*
X98576400Y-9874600D02*
X99592100Y-9874600D01*
X99592100Y-9874600D02*
X100390000Y-10672500D01*
X100390000Y-10672500D02*
X100390000Y-11399000D01*
X100390000Y-11399000D02*
X101116400Y-12125400D01*
X101116400Y-12125400D02*
X102132100Y-12125400D01*
X102132100Y-12125400D02*
X102930000Y-11327500D01*
X102930000Y-11327500D02*
X102930000Y-10632700D01*
X102930000Y-10632700D02*
X103688000Y-9874700D01*
X103688000Y-9874700D02*
X104770800Y-9874700D01*
X104770800Y-9874700D02*
X105614700Y-10718600D01*
X105614700Y-10718600D02*
X105614700Y-11000000D01*
X104200000Y-3380000D02*
X105325300Y-3380000D01*
X106120000Y-16500000D02*
X107245300Y-16500000D01*
X107245300Y-16500000D02*
X107534900Y-16789600D01*
X107534900Y-16789600D02*
X124710400Y-16789600D01*
X124710400Y-16789600D02*
X125500000Y-16000000D01*
X106191800Y-11000000D02*
X106120000Y-11071800D01*
X106120000Y-11071800D02*
X106120000Y-16500000D01*
X106191800Y-11000000D02*
X105614700Y-11000000D01*
X106740000Y-11000000D02*
X106191800Y-11000000D01*
X51960000Y-15160000D02*
X53135300Y-15160000D01*
G04 #@! TO.N,/cv_bus2/LEDS_OUT_2*
X195847200Y-16000000D02*
X189745300Y-16000000D01*
X198400000Y-16000000D02*
X195847200Y-16000000D01*
X197000000Y-4000000D02*
X195847200Y-5152800D01*
X195847200Y-5152800D02*
X195847200Y-16000000D01*
X186840000Y-11000000D02*
X186840000Y-12125300D01*
X189745300Y-16000000D02*
X188745300Y-17000000D01*
X186840000Y-12125300D02*
X189745300Y-15030600D01*
X189745300Y-15030600D02*
X189745300Y-16000000D01*
X187620000Y-17000000D02*
X188745300Y-17000000D01*
X111960000Y-15160000D02*
X113135300Y-15160000D01*
X161791200Y-15904500D02*
X132887800Y-15904500D01*
X132887800Y-15904500D02*
X131820200Y-14836900D01*
X131820200Y-14836900D02*
X124527900Y-14836900D01*
X124527900Y-14836900D02*
X123029500Y-16335300D01*
X123029500Y-16335300D02*
X113943200Y-16335300D01*
X113943200Y-16335300D02*
X113135300Y-15527400D01*
X113135300Y-15527400D02*
X113135300Y-15160000D01*
G04 #@! TO.N,Net-(C6-Pad2)*
X182980400Y-14019600D02*
X187092100Y-18131400D01*
X187092100Y-18131400D02*
X201268600Y-18131400D01*
X201268600Y-18131400D02*
X203400000Y-16000000D01*
X184300000Y-12125300D02*
X182980300Y-13445000D01*
X182980300Y-13445000D02*
X182980300Y-14019600D01*
X182980300Y-14019600D02*
X182980400Y-14019600D01*
X182980400Y-14019600D02*
X180000000Y-17000000D01*
X184300000Y-11562600D02*
X184300000Y-11000000D01*
X184300000Y-11562600D02*
X184300000Y-12125300D01*
G04 #@! TO.N,Net-(C7-Pad2)*
X348800000Y-1380000D02*
X348800000Y-2505300D01*
X321400000Y-16500000D02*
X347289600Y-16500000D01*
X347289600Y-16500000D02*
X352326900Y-11462700D01*
X352326900Y-11462700D02*
X352326900Y-6032200D01*
X352326900Y-6032200D02*
X348800000Y-2505300D01*
G04 #@! TO.N,Net-(C7-Pad1)*
X316400000Y-16500000D02*
X316400000Y-5200000D01*
X316400000Y-5200000D02*
X315200000Y-4000000D01*
G04 #@! TO.N,/cv_bus4/LEDS_OUT_4*
X394600000Y-16500000D02*
X396700000Y-18600000D01*
X396700000Y-18600000D02*
X424800000Y-18600000D01*
X386202700Y-11000000D02*
X386202700Y-10997300D01*
X386202700Y-10997300D02*
X393200000Y-4000000D01*
X386120000Y-15374700D02*
X386202700Y-15292000D01*
X386202700Y-15292000D02*
X386202700Y-11000000D01*
X386120000Y-16500000D02*
X386120000Y-15374700D01*
X385640000Y-11000000D02*
X386202700Y-11000000D01*
X429600000Y-18600000D02*
X434400000Y-18600000D01*
X454200000Y-18600000D02*
X434400000Y-18600000D01*
G04 #@! TO.N,Net-(C8-Pad2)*
X456600000Y-1380000D02*
X455474700Y-1380000D01*
X399600000Y-16500000D02*
X409924600Y-6175400D01*
X409924600Y-6175400D02*
X420371400Y-6175400D01*
X420371400Y-6175400D02*
X424041500Y-2505300D01*
X424041500Y-2505300D02*
X454349400Y-2505300D01*
X454349400Y-2505300D02*
X455474700Y-1380000D01*
X383100000Y-11000000D02*
X383100000Y-12125300D01*
X378500000Y-16500000D02*
X378725300Y-16500000D01*
X378725300Y-16500000D02*
X383100000Y-12125300D01*
G04 #@! TO.N,/cv_bus1/IN_1_3*
X54500000Y-7540000D02*
X65550100Y-7540000D01*
X65550100Y-7540000D02*
X71308700Y-1781400D01*
X71308700Y-1781400D02*
X130492900Y-1781400D01*
X130492900Y-1781400D02*
X136555700Y-7844200D01*
X136555700Y-7844200D02*
X145344200Y-7844200D01*
X145344200Y-7844200D02*
X146500000Y-9000000D01*
G04 #@! TO.N,/cv_bus1/IN_1_4*
X51960000Y-7540000D02*
X53135300Y-7540000D01*
X53135300Y-7540000D02*
X53135300Y-7172600D01*
X53135300Y-7172600D02*
X53943200Y-6364700D01*
X53943200Y-6364700D02*
X64227500Y-6364700D01*
X64227500Y-6364700D02*
X69261200Y-1331000D01*
X69261200Y-1331000D02*
X130679400Y-1331000D01*
X130679400Y-1331000D02*
X136221100Y-6872700D01*
X136221100Y-6872700D02*
X149172700Y-6872700D01*
X149172700Y-6872700D02*
X151300000Y-9000000D01*
G04 #@! TO.N,/cv_bus2/IN_2_4*
X163347400Y-12791500D02*
X163065800Y-12509900D01*
X163065800Y-12509900D02*
X159675500Y-12509900D01*
X159675500Y-12509900D02*
X159600000Y-12585400D01*
X159600000Y-12585400D02*
X130076800Y-12585400D01*
X130076800Y-12585400D02*
X123825200Y-6333800D01*
X123825200Y-6333800D02*
X113974200Y-6333800D01*
X113974200Y-6333800D02*
X113135300Y-7172700D01*
X113135300Y-7172700D02*
X113135300Y-7540000D01*
X111960000Y-7540000D02*
X113135300Y-7540000D01*
G04 #@! TO.N,/cv_bus2/OUT_2_2*
X113135300Y-10080000D02*
X113135300Y-10447400D01*
X113135300Y-10447400D02*
X113943200Y-11255300D01*
X113943200Y-11255300D02*
X121346100Y-11255300D01*
X121346100Y-11255300D02*
X123126500Y-13035700D01*
X123126500Y-13035700D02*
X159786600Y-13035700D01*
X159786600Y-13035700D02*
X159862100Y-12960200D01*
X159862100Y-12960200D02*
X162425500Y-12960200D01*
X162425500Y-12960200D02*
X162982200Y-13516900D01*
X162982200Y-13516900D02*
X166533700Y-13516900D01*
X166533700Y-13516900D02*
X167847600Y-12203000D01*
X111960000Y-10080000D02*
X113135300Y-10080000D01*
G04 #@! TO.N,/cv_bus2/OUT_2_3*
X161772500Y-13685600D02*
X161572300Y-13485400D01*
X161572300Y-13485400D02*
X159973800Y-13485400D01*
X159973800Y-13485400D02*
X159973200Y-13486000D01*
X159973200Y-13486000D02*
X116541300Y-13486000D01*
X116541300Y-13486000D02*
X115675300Y-12620000D01*
X114500000Y-12620000D02*
X115675300Y-12620000D01*
G04 #@! TO.N,/cv_bus2/OUT_2_4*
X160764200Y-14210800D02*
X160489700Y-13936300D01*
X160489700Y-13936300D02*
X114084300Y-13936300D01*
X114084300Y-13936300D02*
X113135300Y-12987300D01*
X113135300Y-12987300D02*
X113135300Y-12620000D01*
X111960000Y-12620000D02*
X113135300Y-12620000D01*
G04 #@! TO.N,/cv_bus2/LEDS_IN_2*
X186840000Y-3380000D02*
X185714700Y-3380000D01*
X185714700Y-3380000D02*
X185714700Y-3661400D01*
X185714700Y-3661400D02*
X184870800Y-4505300D01*
X184870800Y-4505300D02*
X184058300Y-4505300D01*
X184058300Y-4505300D02*
X177950000Y-10613600D01*
X177950000Y-10613600D02*
X177950000Y-11369500D01*
X177950000Y-11369500D02*
X174368800Y-14950700D01*
X174368800Y-14950700D02*
X132570900Y-14950700D01*
X132570900Y-14950700D02*
X132006800Y-14386600D01*
X132006800Y-14386600D02*
X116448700Y-14386600D01*
X116448700Y-14386600D02*
X115675300Y-15160000D01*
X114500000Y-15160000D02*
X115675300Y-15160000D01*
G04 #@! TO.N,/cv_bus3/LEDS_OUT_3*
X351200000Y-10980000D02*
X349016900Y-10980000D01*
X349016900Y-10980000D02*
X345071100Y-7034200D01*
X345071100Y-7034200D02*
X328579000Y-7034200D01*
X328579000Y-7034200D02*
X323790100Y-2245300D01*
X323790100Y-2245300D02*
X306878700Y-2245300D01*
X306878700Y-2245300D02*
X306025300Y-3098700D01*
X306025300Y-3098700D02*
X306025300Y-3380000D01*
X304900000Y-3380000D02*
X306025300Y-3380000D01*
G04 #@! TO.N,/cv_bus4/OUT_4_2*
X470784700Y-10080000D02*
X468759400Y-12105300D01*
X468759400Y-12105300D02*
X431850600Y-12105300D01*
X431850600Y-12105300D02*
X430725300Y-10980000D01*
X471960000Y-10080000D02*
X470784700Y-10080000D01*
X429600000Y-10980000D02*
X430725300Y-10980000D01*
G04 #@! TO.N,/cv_bus4/OUT_4_1*
X424800000Y-10980000D02*
X425925300Y-10980000D01*
X474500000Y-10080000D02*
X473324700Y-10080000D01*
X473324700Y-10080000D02*
X473324700Y-10447400D01*
X473324700Y-10447400D02*
X472516800Y-11255300D01*
X472516800Y-11255300D02*
X470879300Y-11255300D01*
X470879300Y-11255300D02*
X469577000Y-12557600D01*
X469577000Y-12557600D02*
X427502900Y-12557600D01*
X427502900Y-12557600D02*
X425925300Y-10980000D01*
G04 #@! TO.N,/cv_bus4/IN_4_4*
X471960000Y-7540000D02*
X453260000Y-7540000D01*
X453260000Y-7540000D02*
X451800000Y-9000000D01*
G04 #@! TO.N,/cv_bus4/IN_4_1*
X473324700Y-5000000D02*
X473324700Y-5367400D01*
X473324700Y-5367400D02*
X472516800Y-6175300D01*
X472516800Y-6175300D02*
X425224700Y-6175300D01*
X425224700Y-6175300D02*
X422400000Y-9000000D01*
X474500000Y-5000000D02*
X473324700Y-5000000D01*
G04 #@! TO.N,+12V*
X299820000Y-11000000D02*
X298694700Y-11000000D01*
X179220000Y-11000000D02*
X180345300Y-11000000D01*
X180345300Y-11000000D02*
X180345300Y-10718600D01*
X180345300Y-10718600D02*
X181189200Y-9874700D01*
X181189200Y-9874700D02*
X187292700Y-9874700D01*
X187292700Y-9874700D02*
X194320100Y-2847300D01*
X194320100Y-2847300D02*
X205058900Y-2847300D01*
X205058900Y-2847300D02*
X209428300Y-7216700D01*
X209428300Y-7216700D02*
X281392100Y-7216700D01*
X281392100Y-7216700D02*
X286788500Y-12613100D01*
X286788500Y-12613100D02*
X297362900Y-12613100D01*
X297362900Y-12613100D02*
X298694700Y-11281300D01*
X298694700Y-11281300D02*
X298694700Y-11000000D01*
X97113100Y-14132200D02*
X97113100Y-16745000D01*
X97113100Y-16745000D02*
X98498800Y-18130700D01*
X98498800Y-18130700D02*
X129854000Y-18130700D01*
X129854000Y-18130700D02*
X130605900Y-17378800D01*
X130605900Y-17378800D02*
X172841200Y-17378800D01*
X172841200Y-17378800D02*
X179220000Y-11000000D01*
X299820000Y-11000000D02*
X300945300Y-11000000D01*
X300945300Y-11000000D02*
X300945300Y-11281300D01*
X300945300Y-11281300D02*
X307471000Y-17807000D01*
X307471000Y-17807000D02*
X322193000Y-17807000D01*
X322193000Y-17807000D02*
X322525400Y-17474600D01*
X322525400Y-17474600D02*
X359000500Y-17474600D01*
X359000500Y-17474600D02*
X367100500Y-9374600D01*
X367100500Y-9374600D02*
X376394600Y-9374600D01*
X376394600Y-9374600D02*
X378020000Y-11000000D01*
X97113100Y-14132200D02*
X70132200Y-14132200D01*
X70132200Y-14132200D02*
X69000000Y-13000000D01*
X99120000Y-12125300D02*
X97113100Y-14132200D01*
X99120000Y-11000000D02*
X99120000Y-12125300D01*
G04 #@! TO.N,GND*
X176680000Y-11000000D02*
X176680000Y-3380000D01*
X197000000Y-10000000D02*
X200060400Y-13060400D01*
X200060400Y-13060400D02*
X228260400Y-13060400D01*
X228260400Y-13060400D02*
X233800000Y-18600000D01*
X46660000Y-12000000D02*
X48085300Y-12000000D01*
X48085300Y-12000000D02*
X48085300Y-12979900D01*
X48085300Y-12979900D02*
X51519000Y-16413600D01*
X51519000Y-16413600D02*
X61586400Y-16413600D01*
X61586400Y-16413600D02*
X63000000Y-15000000D01*
X393400000Y-10000000D02*
X393400000Y-12588100D01*
X393400000Y-12588100D02*
X398943700Y-18131800D01*
X398943700Y-18131800D02*
X400715100Y-18131800D01*
X400715100Y-18131800D02*
X401390500Y-17456400D01*
X401390500Y-17456400D02*
X457856400Y-17456400D01*
X457856400Y-17456400D02*
X459000000Y-18600000D01*
X124000000Y-10500000D02*
X122386900Y-8886900D01*
X122386900Y-8886900D02*
X102647800Y-8886900D01*
X102647800Y-8886900D02*
X101660000Y-9874700D01*
X96580000Y-9421200D02*
X101206500Y-9421200D01*
X101206500Y-9421200D02*
X101660000Y-9874700D01*
X93137400Y-5978600D02*
X95454700Y-3661300D01*
X95454700Y-3661300D02*
X95454700Y-3380000D01*
X74000000Y-7000000D02*
X92116000Y-7000000D01*
X92116000Y-7000000D02*
X93137400Y-5978600D01*
X93137400Y-5978600D02*
X96580000Y-9421200D01*
X96580000Y-9421200D02*
X96580000Y-9874700D01*
X101660000Y-11000000D02*
X101660000Y-9874700D01*
X96580000Y-11000000D02*
X96580000Y-9874700D01*
X96580000Y-3380000D02*
X95454700Y-3380000D01*
X351200000Y-18600000D02*
X360679900Y-18600000D01*
X360679900Y-18600000D02*
X369405200Y-9874700D01*
X369405200Y-9874700D02*
X373510800Y-9874700D01*
X373510800Y-9874700D02*
X374354700Y-10718600D01*
X374354700Y-10718600D02*
X374354700Y-11000000D01*
X375480000Y-11000000D02*
X374354700Y-11000000D01*
X375480000Y-4505300D02*
X379434700Y-8460000D01*
X379434700Y-8460000D02*
X379434700Y-11000000D01*
X375480000Y-3380000D02*
X375480000Y-4505300D01*
X375480000Y-11000000D02*
X376605300Y-11000000D01*
X380560000Y-11000000D02*
X379434700Y-11000000D01*
X379434700Y-11000000D02*
X379434700Y-11281400D01*
X379434700Y-11281400D02*
X378590800Y-12125300D01*
X378590800Y-12125300D02*
X377449200Y-12125300D01*
X377449200Y-12125300D02*
X376605300Y-11281400D01*
X376605300Y-11281400D02*
X376605300Y-11000000D01*
X302360000Y-11000000D02*
X303485300Y-11000000D01*
X315200000Y-10000000D02*
X315074700Y-9874700D01*
X315074700Y-9874700D02*
X304329200Y-9874700D01*
X304329200Y-9874700D02*
X303485300Y-10718600D01*
X303485300Y-10718600D02*
X303485300Y-11000000D01*
X9080000Y-2500000D02*
X10255300Y-2500000D01*
X22080000Y-3675300D02*
X11430600Y-3675300D01*
X11430600Y-3675300D02*
X10255300Y-2500000D01*
X22080000Y-3562700D02*
X22080000Y-3675300D01*
X22080000Y-2500000D02*
X22080000Y-3562700D01*
X26250000Y-7380000D02*
X25074700Y-7380000D01*
X22080000Y-3675300D02*
X25074700Y-6670000D01*
X25074700Y-6670000D02*
X25074700Y-7380000D01*
X28790000Y-7380000D02*
X34954700Y-7380000D01*
X34954700Y-7380000D02*
X35074700Y-7500000D01*
X36500000Y-7500000D02*
X35074700Y-7500000D01*
G04 #@! TO.N,-12V*
X179220000Y-3380000D02*
X180345300Y-3380000D01*
X299820000Y-3380000D02*
X298694700Y-3380000D01*
X298694700Y-3380000D02*
X298694700Y-3098700D01*
X298694700Y-3098700D02*
X297850600Y-2254600D01*
X297850600Y-2254600D02*
X262050700Y-2254600D01*
X262050700Y-2254600D02*
X261768500Y-2536800D01*
X261768500Y-2536800D02*
X211556800Y-2536800D01*
X211556800Y-2536800D02*
X211274700Y-2254700D01*
X211274700Y-2254700D02*
X181189200Y-2254700D01*
X181189200Y-2254700D02*
X180345300Y-3098600D01*
X180345300Y-3098600D02*
X180345300Y-3380000D01*
X100245300Y-3380000D02*
X100245300Y-3661300D01*
X100245300Y-3661300D02*
X101542700Y-4958700D01*
X101542700Y-4958700D02*
X108575000Y-4958700D01*
X108575000Y-4958700D02*
X109729800Y-3803900D01*
X109729800Y-3803900D02*
X117473800Y-3803900D01*
X117473800Y-3803900D02*
X119394700Y-5724800D01*
X119394700Y-5724800D02*
X123951900Y-5724800D01*
X123951900Y-5724800D02*
X130362200Y-12135100D01*
X130362200Y-12135100D02*
X159413400Y-12135100D01*
X159413400Y-12135100D02*
X160154300Y-11394200D01*
X160154300Y-11394200D02*
X168701600Y-11394200D01*
X168701600Y-11394200D02*
X169901100Y-12593700D01*
X169901100Y-12593700D02*
X174215400Y-12593700D01*
X174215400Y-12593700D02*
X175410000Y-11399100D01*
X175410000Y-11399100D02*
X175410000Y-3007900D01*
X175410000Y-3007900D02*
X176166500Y-2251400D01*
X176166500Y-2251400D02*
X177247400Y-2251400D01*
X177247400Y-2251400D02*
X178094700Y-3098700D01*
X178094700Y-3098700D02*
X178094700Y-3380000D01*
X99120000Y-3380000D02*
X100245300Y-3380000D01*
X179220000Y-3380000D02*
X178094700Y-3380000D01*
X63000000Y-5000000D02*
X61500000Y-3500000D01*
X61500000Y-3500000D02*
X46000000Y-3500000D01*
G04 #@! TO.N,/cv_bus1/POT_1*
X91500000Y-11000000D02*
X90374700Y-11000000D01*
X4000000Y-2500000D02*
X5175300Y-2500000D01*
X5175300Y-2500000D02*
X5175300Y-2867300D01*
X5175300Y-2867300D02*
X13415100Y-11107100D01*
X13415100Y-11107100D02*
X29432900Y-11107100D01*
X29432900Y-11107100D02*
X29989500Y-10550500D01*
X29989500Y-10550500D02*
X47380500Y-10550500D01*
X47380500Y-10550500D02*
X48179800Y-11349800D01*
X48179800Y-11349800D02*
X79552000Y-11349800D01*
X79552000Y-11349800D02*
X80138200Y-11936000D01*
X80138200Y-11936000D02*
X89438700Y-11936000D01*
X89438700Y-11936000D02*
X90374700Y-11000000D01*
G04 #@! TO.N,/cv_bus1/POT_2*
X7715300Y-2500000D02*
X7715300Y-2867300D01*
X7715300Y-2867300D02*
X13498000Y-8650000D01*
X13498000Y-8650000D02*
X29690000Y-8650000D01*
X29690000Y-8650000D02*
X30003500Y-8963500D01*
X30003500Y-8963500D02*
X49087900Y-8963500D01*
X49087900Y-8963500D02*
X49164600Y-8886800D01*
X49164600Y-8886800D02*
X80713000Y-8886800D01*
X80713000Y-8886800D02*
X81539900Y-8059900D01*
X81539900Y-8059900D02*
X90677900Y-8059900D01*
X90677900Y-8059900D02*
X92914700Y-10296700D01*
X92914700Y-10296700D02*
X92914700Y-11000000D01*
X94040000Y-11000000D02*
X92914700Y-11000000D01*
X6540000Y-2500000D02*
X7715300Y-2500000D01*
G04 #@! TO.N,/cv_bus2/POT_2*
X212400000Y-1380000D02*
X211274700Y-1380000D01*
X173014700Y-11000000D02*
X173014700Y-2901400D01*
X173014700Y-2901400D02*
X174536100Y-1380000D01*
X174536100Y-1380000D02*
X211274700Y-1380000D01*
X173127300Y-11000000D02*
X173014700Y-11000000D01*
X174140000Y-11000000D02*
X173127300Y-11000000D01*
X19540000Y-2500000D02*
X20715300Y-2500000D01*
X20715300Y-2500000D02*
X20715300Y-2132700D01*
X20715300Y-2132700D02*
X21983500Y-864500D01*
X21983500Y-864500D02*
X130849800Y-864500D01*
X130849800Y-864500D02*
X135891100Y-5905800D01*
X135891100Y-5905800D02*
X163893300Y-5905800D01*
X163893300Y-5905800D02*
X170112800Y-12125300D01*
X170112800Y-12125300D02*
X172592800Y-12125300D01*
X172592800Y-12125300D02*
X173014700Y-11703400D01*
X173014700Y-11703400D02*
X173014700Y-11000000D01*
X212400000Y-1380000D02*
X217000000Y-1380000D01*
X221800000Y-1380000D02*
X217000000Y-1380000D01*
X226600000Y-1380000D02*
X221800000Y-1380000D01*
G04 #@! TO.N,/cv_bus2/POT_1*
X170474700Y-11000000D02*
X162571700Y-3097000D01*
X162571700Y-3097000D02*
X133916100Y-3097000D01*
X133916100Y-3097000D02*
X131233200Y-414100D01*
X131233200Y-414100D02*
X19893900Y-414100D01*
X19893900Y-414100D02*
X18175300Y-2132700D01*
X18175300Y-2132700D02*
X18175300Y-2500000D01*
X171600000Y-11000000D02*
X170474700Y-11000000D01*
X17000000Y-2500000D02*
X18175300Y-2500000D01*
G04 #@! TO.N,/cv_bus3/POT_1*
X348800000Y-9000000D02*
X342354100Y-2554100D01*
X342354100Y-2554100D02*
X325620000Y-2554100D01*
X325620000Y-2554100D02*
X324860800Y-1794900D01*
X324860800Y-1794900D02*
X304860300Y-1794900D01*
X304860300Y-1794900D02*
X303630000Y-3025200D01*
X303630000Y-3025200D02*
X303630000Y-3707500D01*
X303630000Y-3707500D02*
X297606800Y-9730700D01*
X297606800Y-9730700D02*
X296945000Y-9730700D01*
X296945000Y-9730700D02*
X296010000Y-10665700D01*
X296010000Y-10665700D02*
X296010000Y-11395600D01*
X296010000Y-11395600D02*
X295280300Y-12125300D01*
X295280300Y-12125300D02*
X294257800Y-12125300D01*
X294257800Y-12125300D02*
X293325300Y-11192800D01*
X293325300Y-11192800D02*
X293325300Y-11000000D01*
X292200000Y-11000000D02*
X293325300Y-11000000D01*
X413230000Y-8810000D02*
X420631200Y-8810000D01*
X420631200Y-8810000D02*
X425616600Y-3824600D01*
X425616600Y-3824600D02*
X495011500Y-3824600D01*
X495011500Y-3824600D02*
X495645400Y-4458500D01*
X495645400Y-4458500D02*
X506533500Y-4458500D01*
X506533500Y-4458500D02*
X507824700Y-3167300D01*
X507824700Y-3167300D02*
X507824700Y-2800000D01*
X509000000Y-2800000D02*
X507824700Y-2800000D01*
G04 #@! TO.N,/cv_bus3/POT_2*
X294740000Y-11000000D02*
X294740000Y-9874700D01*
X329600000Y-1380000D02*
X328474700Y-1380000D01*
X328474700Y-1380000D02*
X328413600Y-1318900D01*
X328413600Y-1318900D02*
X302819900Y-1318900D01*
X302819900Y-1318900D02*
X301090000Y-3048800D01*
X301090000Y-3048800D02*
X301090000Y-3806000D01*
X301090000Y-3806000D02*
X295021300Y-9874700D01*
X295021300Y-9874700D02*
X294740000Y-9874700D01*
X505284700Y-2800000D02*
X505284700Y-3167300D01*
X505284700Y-3167300D02*
X504448100Y-4003900D01*
X504448100Y-4003900D02*
X496412800Y-4003900D01*
X496412800Y-4003900D02*
X495736900Y-3328000D01*
X506460000Y-2800000D02*
X505284700Y-2800000D01*
G04 #@! TO.N,/cv_bus4/POT_2*
X422400000Y-1380000D02*
X391072300Y-1380000D01*
X391072300Y-1380000D02*
X381830000Y-10622300D01*
X381830000Y-10622300D02*
X381830000Y-11354900D01*
X381830000Y-11354900D02*
X380558500Y-12626400D01*
X380558500Y-12626400D02*
X374566400Y-12626400D01*
X374566400Y-12626400D02*
X372940000Y-11000000D01*
G04 #@! TO.N,/cv_bus4/POT_1*
X371525300Y-11000000D02*
X371525300Y-11281300D01*
X371525300Y-11281300D02*
X377903800Y-17659800D01*
X377903800Y-17659800D02*
X386624900Y-17659800D01*
X386624900Y-17659800D02*
X391498600Y-12786100D01*
X391498600Y-12786100D02*
X391498600Y-10268900D01*
X391498600Y-10268900D02*
X392952100Y-8815400D01*
X392952100Y-8815400D02*
X393866100Y-8815400D01*
X393866100Y-8815400D02*
X397463000Y-12412300D01*
X397463000Y-12412300D02*
X397463000Y-16014100D01*
X397463000Y-16014100D02*
X399079900Y-17631000D01*
X399079900Y-17631000D02*
X400097800Y-17631000D01*
X400097800Y-17631000D02*
X406378800Y-11350000D01*
X406378800Y-11350000D02*
X422450000Y-11350000D01*
X422450000Y-11350000D02*
X425971300Y-7828700D01*
X425971300Y-7828700D02*
X444767700Y-7828700D01*
X444767700Y-7828700D02*
X447080700Y-10141700D01*
X447080700Y-10141700D02*
X452319900Y-10141700D01*
X452319900Y-10141700D02*
X453461600Y-9000000D01*
X453461600Y-9000000D02*
X456600000Y-9000000D01*
X520824700Y-2500000D02*
X520824700Y-2867300D01*
X520824700Y-2867300D02*
X514832700Y-8859300D01*
X514832700Y-8859300D02*
X456740700Y-8859300D01*
X456740700Y-8859300D02*
X456600000Y-9000000D01*
X370400000Y-11000000D02*
X371525300Y-11000000D01*
X522000000Y-2500000D02*
X520824700Y-2500000D01*
G04 #@! TD*
D21*
G04 #@! TO.N,GND*
G36*
X203156887Y-4000000D02*
X203268260Y-4559909D01*
X203585423Y-5034577D01*
X203860000Y-5218044D01*
X203860001Y-8781956D01*
X203585423Y-8965423D01*
X203268260Y-9440091D01*
X203156887Y-10000000D01*
X203268260Y-10559909D01*
X203585423Y-11034577D01*
X204060091Y-11351740D01*
X204478667Y-11435000D01*
X204761333Y-11435000D01*
X205179909Y-11351740D01*
X205654577Y-11034577D01*
X205691044Y-10980000D01*
X213136887Y-10980000D01*
X213248260Y-11539909D01*
X213565423Y-12014577D01*
X214040091Y-12331740D01*
X214458667Y-12415000D01*
X214741333Y-12415000D01*
X215159909Y-12331740D01*
X215634577Y-12014577D01*
X215951740Y-11539909D01*
X216063113Y-10980000D01*
X217936887Y-10980000D01*
X218048260Y-11539909D01*
X218365423Y-12014577D01*
X218840091Y-12331740D01*
X219258667Y-12415000D01*
X219541333Y-12415000D01*
X219959909Y-12331740D01*
X220434577Y-12014577D01*
X220751740Y-11539909D01*
X220863113Y-10980000D01*
X222736887Y-10980000D01*
X222848260Y-11539909D01*
X223165423Y-12014577D01*
X223640091Y-12331740D01*
X224058667Y-12415000D01*
X224341333Y-12415000D01*
X224759909Y-12331740D01*
X225234577Y-12014577D01*
X225551740Y-11539909D01*
X225663113Y-10980000D01*
X227536887Y-10980000D01*
X227648260Y-11539909D01*
X227965423Y-12014577D01*
X228440091Y-12331740D01*
X228858667Y-12415000D01*
X229141333Y-12415000D01*
X229559909Y-12331740D01*
X230034577Y-12014577D01*
X230351740Y-11539909D01*
X230463113Y-10980000D01*
X232336887Y-10980000D01*
X232448260Y-11539909D01*
X232765423Y-12014577D01*
X233240091Y-12331740D01*
X233658667Y-12415000D01*
X233941333Y-12415000D01*
X234359909Y-12331740D01*
X234834577Y-12014577D01*
X235151740Y-11539909D01*
X235263113Y-10980000D01*
X235151740Y-10420091D01*
X234834577Y-9945423D01*
X234359909Y-9628260D01*
X233941333Y-9545000D01*
X233658667Y-9545000D01*
X233240091Y-9628260D01*
X232765423Y-9945423D01*
X232448260Y-10420091D01*
X232336887Y-10980000D01*
X230463113Y-10980000D01*
X230351740Y-10420091D01*
X230034577Y-9945423D01*
X229559909Y-9628260D01*
X229141333Y-9545000D01*
X228858667Y-9545000D01*
X228440091Y-9628260D01*
X227965423Y-9945423D01*
X227648260Y-10420091D01*
X227536887Y-10980000D01*
X225663113Y-10980000D01*
X225551740Y-10420091D01*
X225234577Y-9945423D01*
X224759909Y-9628260D01*
X224341333Y-9545000D01*
X224058667Y-9545000D01*
X223640091Y-9628260D01*
X223165423Y-9945423D01*
X222848260Y-10420091D01*
X222736887Y-10980000D01*
X220863113Y-10980000D01*
X220751740Y-10420091D01*
X220434577Y-9945423D01*
X219959909Y-9628260D01*
X219541333Y-9545000D01*
X219258667Y-9545000D01*
X218840091Y-9628260D01*
X218365423Y-9945423D01*
X218048260Y-10420091D01*
X217936887Y-10980000D01*
X216063113Y-10980000D01*
X215951740Y-10420091D01*
X215634577Y-9945423D01*
X215159909Y-9628260D01*
X214741333Y-9545000D01*
X214458667Y-9545000D01*
X214040091Y-9628260D01*
X213565423Y-9945423D01*
X213248260Y-10420091D01*
X213136887Y-10980000D01*
X205691044Y-10980000D01*
X205971740Y-10559909D01*
X206083113Y-10000000D01*
X205971740Y-9440091D01*
X205654577Y-8965423D01*
X205380000Y-8781957D01*
X205380000Y-5218043D01*
X205654577Y-5034577D01*
X205861578Y-4724779D01*
X208837970Y-7701172D01*
X208880371Y-7764629D01*
X208943827Y-7807029D01*
X209131762Y-7932604D01*
X209179905Y-7942180D01*
X209353448Y-7976700D01*
X209353452Y-7976700D01*
X209428300Y-7991588D01*
X209503148Y-7976700D01*
X211393904Y-7976700D01*
X211183466Y-8187138D01*
X210965000Y-8714561D01*
X210965000Y-9285439D01*
X211183466Y-9812862D01*
X211587138Y-10216534D01*
X212114561Y-10435000D01*
X212685439Y-10435000D01*
X213212862Y-10216534D01*
X213616534Y-9812862D01*
X213835000Y-9285439D01*
X213835000Y-8714561D01*
X213616534Y-8187138D01*
X213406096Y-7976700D01*
X215993904Y-7976700D01*
X215783466Y-8187138D01*
X215565000Y-8714561D01*
X215565000Y-9285439D01*
X215783466Y-9812862D01*
X216187138Y-10216534D01*
X216714561Y-10435000D01*
X217285439Y-10435000D01*
X217812862Y-10216534D01*
X218216534Y-9812862D01*
X218435000Y-9285439D01*
X218435000Y-8714561D01*
X218216534Y-8187138D01*
X218006096Y-7976700D01*
X220793904Y-7976700D01*
X220583466Y-8187138D01*
X220365000Y-8714561D01*
X220365000Y-9285439D01*
X220583466Y-9812862D01*
X220987138Y-10216534D01*
X221514561Y-10435000D01*
X222085439Y-10435000D01*
X222612862Y-10216534D01*
X223016534Y-9812862D01*
X223235000Y-9285439D01*
X223235000Y-8714561D01*
X223016534Y-8187138D01*
X222806096Y-7976700D01*
X225593904Y-7976700D01*
X225383466Y-8187138D01*
X225165000Y-8714561D01*
X225165000Y-9285439D01*
X225383466Y-9812862D01*
X225787138Y-10216534D01*
X226314561Y-10435000D01*
X226885439Y-10435000D01*
X227412862Y-10216534D01*
X227816534Y-9812862D01*
X228035000Y-9285439D01*
X228035000Y-8714561D01*
X227816534Y-8187138D01*
X227606096Y-7976700D01*
X230193904Y-7976700D01*
X229983466Y-8187138D01*
X229765000Y-8714561D01*
X229765000Y-9285439D01*
X229983466Y-9812862D01*
X230387138Y-10216534D01*
X230914561Y-10435000D01*
X231485439Y-10435000D01*
X232012862Y-10216534D01*
X232416534Y-9812862D01*
X232635000Y-9285439D01*
X232635000Y-8714561D01*
X232416534Y-8187138D01*
X232206096Y-7976700D01*
X281077299Y-7976700D01*
X286198171Y-13097573D01*
X286240571Y-13161029D01*
X286491963Y-13329004D01*
X286713648Y-13373100D01*
X286713652Y-13373100D01*
X286788499Y-13387988D01*
X286863346Y-13373100D01*
X297288053Y-13373100D01*
X297362900Y-13387988D01*
X297437747Y-13373100D01*
X297437752Y-13373100D01*
X297659437Y-13329004D01*
X297910829Y-13161029D01*
X297953231Y-13097570D01*
X298923779Y-12127023D01*
X299260091Y-12351740D01*
X299678667Y-12435000D01*
X299961333Y-12435000D01*
X300379909Y-12351740D01*
X300716222Y-12127023D01*
X306880673Y-18291476D01*
X306923071Y-18354929D01*
X306986524Y-18397327D01*
X306986526Y-18397329D01*
X307111902Y-18481102D01*
X307174463Y-18522904D01*
X307396148Y-18567000D01*
X307396152Y-18567000D01*
X307470999Y-18581888D01*
X307545846Y-18567000D01*
X322118153Y-18567000D01*
X322193000Y-18581888D01*
X322267847Y-18567000D01*
X322267852Y-18567000D01*
X322489537Y-18522904D01*
X322740929Y-18354929D01*
X322783331Y-18291470D01*
X322840201Y-18234600D01*
X330598121Y-18234600D01*
X330565000Y-18314561D01*
X330565000Y-18885439D01*
X330722219Y-19265000D01*
X235085856Y-19265000D01*
X235246965Y-18816777D01*
X235219778Y-18246546D01*
X235053864Y-17845995D01*
X234807745Y-17771861D01*
X233979605Y-18600000D01*
X233993748Y-18614142D01*
X233814142Y-18793748D01*
X233800000Y-18779605D01*
X233785858Y-18793748D01*
X233606252Y-18614142D01*
X233620395Y-18600000D01*
X232792255Y-17771861D01*
X232546136Y-17845995D01*
X232353035Y-18383223D01*
X232380222Y-18953454D01*
X232509269Y-19265000D01*
X230277781Y-19265000D01*
X230435000Y-18885439D01*
X230435000Y-18314561D01*
X230216534Y-17787138D01*
X230021651Y-17592255D01*
X232971861Y-17592255D01*
X233800000Y-18420395D01*
X234628139Y-17592255D01*
X234554005Y-17346136D01*
X234016777Y-17153035D01*
X233446546Y-17180222D01*
X233045995Y-17346136D01*
X232971861Y-17592255D01*
X230021651Y-17592255D01*
X229812862Y-17383466D01*
X229285439Y-17165000D01*
X228714561Y-17165000D01*
X228187138Y-17383466D01*
X227783466Y-17787138D01*
X227565000Y-18314561D01*
X227565000Y-18885439D01*
X227722219Y-19265000D01*
X225477781Y-19265000D01*
X225635000Y-18885439D01*
X225635000Y-18314561D01*
X225416534Y-17787138D01*
X225012862Y-17383466D01*
X224485439Y-17165000D01*
X223914561Y-17165000D01*
X223387138Y-17383466D01*
X222983466Y-17787138D01*
X222765000Y-18314561D01*
X222765000Y-18885439D01*
X222922219Y-19265000D01*
X220677781Y-19265000D01*
X220835000Y-18885439D01*
X220835000Y-18314561D01*
X220616534Y-17787138D01*
X220212862Y-17383466D01*
X219685439Y-17165000D01*
X219114561Y-17165000D01*
X218587138Y-17383466D01*
X218183466Y-17787138D01*
X217965000Y-18314561D01*
X217965000Y-18885439D01*
X218122219Y-19265000D01*
X215877781Y-19265000D01*
X216035000Y-18885439D01*
X216035000Y-18314561D01*
X215816534Y-17787138D01*
X215412862Y-17383466D01*
X214885439Y-17165000D01*
X214314561Y-17165000D01*
X213787138Y-17383466D01*
X213383466Y-17787138D01*
X213165000Y-18314561D01*
X213165000Y-18885439D01*
X213322219Y-19265000D01*
X159793045Y-19265000D01*
X159946965Y-18836777D01*
X159919778Y-18266546D01*
X159866864Y-18138800D01*
X172766353Y-18138800D01*
X172841200Y-18153688D01*
X172916047Y-18138800D01*
X172916052Y-18138800D01*
X173137737Y-18094704D01*
X173389129Y-17926729D01*
X173431531Y-17863270D01*
X178896115Y-12398688D01*
X179078667Y-12435000D01*
X179361333Y-12435000D01*
X179779909Y-12351740D01*
X180254577Y-12034577D01*
X180440786Y-11755896D01*
X180550330Y-11734106D01*
X180607611Y-11855134D01*
X181022577Y-12231041D01*
X181410961Y-12391904D01*
X181633000Y-12269915D01*
X181633000Y-11127000D01*
X181613000Y-11127000D01*
X181613000Y-10873000D01*
X181633000Y-10873000D01*
X181633000Y-10853000D01*
X181887000Y-10853000D01*
X181887000Y-10873000D01*
X181907000Y-10873000D01*
X181907000Y-11127000D01*
X181887000Y-11127000D01*
X181887000Y-12269915D01*
X182109039Y-12391904D01*
X182497423Y-12231041D01*
X182912389Y-11855134D01*
X183009053Y-11650892D01*
X183265423Y-12034577D01*
X183295695Y-12054804D01*
X182495830Y-12854669D01*
X182432371Y-12897071D01*
X182264396Y-13148464D01*
X182220300Y-13370149D01*
X182220300Y-13370153D01*
X182205412Y-13445000D01*
X182220300Y-13519847D01*
X182220300Y-13704898D01*
X180338302Y-15586897D01*
X180285439Y-15565000D01*
X179714561Y-15565000D01*
X179187138Y-15783466D01*
X178783466Y-16187138D01*
X178565000Y-16714561D01*
X178565000Y-17285439D01*
X178783466Y-17812862D01*
X179187138Y-18216534D01*
X179714561Y-18435000D01*
X180285439Y-18435000D01*
X180812862Y-18216534D01*
X181216534Y-17812862D01*
X181435000Y-17285439D01*
X181435000Y-16714561D01*
X181413103Y-16661698D01*
X182980394Y-15094408D01*
X186501768Y-18615868D01*
X186544171Y-18679329D01*
X186682237Y-18771582D01*
X186795554Y-18847300D01*
X186795558Y-18847301D01*
X186795563Y-18847304D01*
X187002096Y-18888386D01*
X187092090Y-18906288D01*
X187166942Y-18891400D01*
X201193753Y-18891400D01*
X201268600Y-18906288D01*
X201343447Y-18891400D01*
X201343452Y-18891400D01*
X201565137Y-18847304D01*
X201816529Y-18679329D01*
X201858931Y-18615870D01*
X203061698Y-17413103D01*
X203114561Y-17435000D01*
X203685439Y-17435000D01*
X204212862Y-17216534D01*
X204616534Y-16812862D01*
X204822937Y-16314561D01*
X299065000Y-16314561D01*
X299065000Y-16885439D01*
X299283466Y-17412862D01*
X299687138Y-17816534D01*
X300214561Y-18035000D01*
X300785439Y-18035000D01*
X301312862Y-17816534D01*
X301716534Y-17412862D01*
X301935000Y-16885439D01*
X301935000Y-16314561D01*
X301716534Y-15787138D01*
X301312862Y-15383466D01*
X300785439Y-15165000D01*
X300214561Y-15165000D01*
X299687138Y-15383466D01*
X299283466Y-15787138D01*
X299065000Y-16314561D01*
X204822937Y-16314561D01*
X204835000Y-16285439D01*
X204835000Y-15714561D01*
X204616534Y-15187138D01*
X204212862Y-14783466D01*
X203685439Y-14565000D01*
X203114561Y-14565000D01*
X202587138Y-14783466D01*
X202183466Y-15187138D01*
X201965000Y-15714561D01*
X201965000Y-16285439D01*
X201986897Y-16338302D01*
X200953799Y-17371400D01*
X198838983Y-17371400D01*
X199212862Y-17216534D01*
X199616534Y-16812862D01*
X199835000Y-16285439D01*
X199835000Y-15714561D01*
X199616534Y-15187138D01*
X199212862Y-14783466D01*
X198685439Y-14565000D01*
X198114561Y-14565000D01*
X197587138Y-14783466D01*
X197183466Y-15187138D01*
X197161570Y-15240000D01*
X196607200Y-15240000D01*
X196607200Y-11383695D01*
X196783223Y-11446965D01*
X197353454Y-11419778D01*
X197754005Y-11253864D01*
X197828139Y-11007745D01*
X197000000Y-10179605D01*
X196985858Y-10193748D01*
X196806253Y-10014143D01*
X196820395Y-10000000D01*
X197179605Y-10000000D01*
X198007745Y-10828139D01*
X198253864Y-10754005D01*
X198446965Y-10216777D01*
X198419778Y-9646546D01*
X198253864Y-9245995D01*
X198007745Y-9171861D01*
X197179605Y-10000000D01*
X196820395Y-10000000D01*
X196806253Y-9985858D01*
X196985858Y-9806253D01*
X197000000Y-9820395D01*
X197828139Y-8992255D01*
X197754005Y-8746136D01*
X197216777Y-8553035D01*
X196646546Y-8580222D01*
X196607200Y-8596520D01*
X196607200Y-5467601D01*
X196661698Y-5413103D01*
X196714561Y-5435000D01*
X197285439Y-5435000D01*
X197812862Y-5216534D01*
X198216534Y-4812862D01*
X198435000Y-4285439D01*
X198435000Y-3714561D01*
X198390571Y-3607300D01*
X203235000Y-3607300D01*
X203156887Y-4000000D01*
X203156887Y-4000000D01*
G37*
X203156887Y-4000000D02*
X203268260Y-4559909D01*
X203585423Y-5034577D01*
X203860000Y-5218044D01*
X203860001Y-8781956D01*
X203585423Y-8965423D01*
X203268260Y-9440091D01*
X203156887Y-10000000D01*
X203268260Y-10559909D01*
X203585423Y-11034577D01*
X204060091Y-11351740D01*
X204478667Y-11435000D01*
X204761333Y-11435000D01*
X205179909Y-11351740D01*
X205654577Y-11034577D01*
X205691044Y-10980000D01*
X213136887Y-10980000D01*
X213248260Y-11539909D01*
X213565423Y-12014577D01*
X214040091Y-12331740D01*
X214458667Y-12415000D01*
X214741333Y-12415000D01*
X215159909Y-12331740D01*
X215634577Y-12014577D01*
X215951740Y-11539909D01*
X216063113Y-10980000D01*
X217936887Y-10980000D01*
X218048260Y-11539909D01*
X218365423Y-12014577D01*
X218840091Y-12331740D01*
X219258667Y-12415000D01*
X219541333Y-12415000D01*
X219959909Y-12331740D01*
X220434577Y-12014577D01*
X220751740Y-11539909D01*
X220863113Y-10980000D01*
X222736887Y-10980000D01*
X222848260Y-11539909D01*
X223165423Y-12014577D01*
X223640091Y-12331740D01*
X224058667Y-12415000D01*
X224341333Y-12415000D01*
X224759909Y-12331740D01*
X225234577Y-12014577D01*
X225551740Y-11539909D01*
X225663113Y-10980000D01*
X227536887Y-10980000D01*
X227648260Y-11539909D01*
X227965423Y-12014577D01*
X228440091Y-12331740D01*
X228858667Y-12415000D01*
X229141333Y-12415000D01*
X229559909Y-12331740D01*
X230034577Y-12014577D01*
X230351740Y-11539909D01*
X230463113Y-10980000D01*
X232336887Y-10980000D01*
X232448260Y-11539909D01*
X232765423Y-12014577D01*
X233240091Y-12331740D01*
X233658667Y-12415000D01*
X233941333Y-12415000D01*
X234359909Y-12331740D01*
X234834577Y-12014577D01*
X235151740Y-11539909D01*
X235263113Y-10980000D01*
X235151740Y-10420091D01*
X234834577Y-9945423D01*
X234359909Y-9628260D01*
X233941333Y-9545000D01*
X233658667Y-9545000D01*
X233240091Y-9628260D01*
X232765423Y-9945423D01*
X232448260Y-10420091D01*
X232336887Y-10980000D01*
X230463113Y-10980000D01*
X230351740Y-10420091D01*
X230034577Y-9945423D01*
X229559909Y-9628260D01*
X229141333Y-9545000D01*
X228858667Y-9545000D01*
X228440091Y-9628260D01*
X227965423Y-9945423D01*
X227648260Y-10420091D01*
X227536887Y-10980000D01*
X225663113Y-10980000D01*
X225551740Y-10420091D01*
X225234577Y-9945423D01*
X224759909Y-9628260D01*
X224341333Y-9545000D01*
X224058667Y-9545000D01*
X223640091Y-9628260D01*
X223165423Y-9945423D01*
X222848260Y-10420091D01*
X222736887Y-10980000D01*
X220863113Y-10980000D01*
X220751740Y-10420091D01*
X220434577Y-9945423D01*
X219959909Y-9628260D01*
X219541333Y-9545000D01*
X219258667Y-9545000D01*
X218840091Y-9628260D01*
X218365423Y-9945423D01*
X218048260Y-10420091D01*
X217936887Y-10980000D01*
X216063113Y-10980000D01*
X215951740Y-10420091D01*
X215634577Y-9945423D01*
X215159909Y-9628260D01*
X214741333Y-9545000D01*
X214458667Y-9545000D01*
X214040091Y-9628260D01*
X213565423Y-9945423D01*
X213248260Y-10420091D01*
X213136887Y-10980000D01*
X205691044Y-10980000D01*
X205971740Y-10559909D01*
X206083113Y-10000000D01*
X205971740Y-9440091D01*
X205654577Y-8965423D01*
X205380000Y-8781957D01*
X205380000Y-5218043D01*
X205654577Y-5034577D01*
X205861578Y-4724779D01*
X208837970Y-7701172D01*
X208880371Y-7764629D01*
X208943827Y-7807029D01*
X209131762Y-7932604D01*
X209179905Y-7942180D01*
X209353448Y-7976700D01*
X209353452Y-7976700D01*
X209428300Y-7991588D01*
X209503148Y-7976700D01*
X211393904Y-7976700D01*
X211183466Y-8187138D01*
X210965000Y-8714561D01*
X210965000Y-9285439D01*
X211183466Y-9812862D01*
X211587138Y-10216534D01*
X212114561Y-10435000D01*
X212685439Y-10435000D01*
X213212862Y-10216534D01*
X213616534Y-9812862D01*
X213835000Y-9285439D01*
X213835000Y-8714561D01*
X213616534Y-8187138D01*
X213406096Y-7976700D01*
X215993904Y-7976700D01*
X215783466Y-8187138D01*
X215565000Y-8714561D01*
X215565000Y-9285439D01*
X215783466Y-9812862D01*
X216187138Y-10216534D01*
X216714561Y-10435000D01*
X217285439Y-10435000D01*
X217812862Y-10216534D01*
X218216534Y-9812862D01*
X218435000Y-9285439D01*
X218435000Y-8714561D01*
X218216534Y-8187138D01*
X218006096Y-7976700D01*
X220793904Y-7976700D01*
X220583466Y-8187138D01*
X220365000Y-8714561D01*
X220365000Y-9285439D01*
X220583466Y-9812862D01*
X220987138Y-10216534D01*
X221514561Y-10435000D01*
X222085439Y-10435000D01*
X222612862Y-10216534D01*
X223016534Y-9812862D01*
X223235000Y-9285439D01*
X223235000Y-8714561D01*
X223016534Y-8187138D01*
X222806096Y-7976700D01*
X225593904Y-7976700D01*
X225383466Y-8187138D01*
X225165000Y-8714561D01*
X225165000Y-9285439D01*
X225383466Y-9812862D01*
X225787138Y-10216534D01*
X226314561Y-10435000D01*
X226885439Y-10435000D01*
X227412862Y-10216534D01*
X227816534Y-9812862D01*
X228035000Y-9285439D01*
X228035000Y-8714561D01*
X227816534Y-8187138D01*
X227606096Y-7976700D01*
X230193904Y-7976700D01*
X229983466Y-8187138D01*
X229765000Y-8714561D01*
X229765000Y-9285439D01*
X229983466Y-9812862D01*
X230387138Y-10216534D01*
X230914561Y-10435000D01*
X231485439Y-10435000D01*
X232012862Y-10216534D01*
X232416534Y-9812862D01*
X232635000Y-9285439D01*
X232635000Y-8714561D01*
X232416534Y-8187138D01*
X232206096Y-7976700D01*
X281077299Y-7976700D01*
X286198171Y-13097573D01*
X286240571Y-13161029D01*
X286491963Y-13329004D01*
X286713648Y-13373100D01*
X286713652Y-13373100D01*
X286788499Y-13387988D01*
X286863346Y-13373100D01*
X297288053Y-13373100D01*
X297362900Y-13387988D01*
X297437747Y-13373100D01*
X297437752Y-13373100D01*
X297659437Y-13329004D01*
X297910829Y-13161029D01*
X297953231Y-13097570D01*
X298923779Y-12127023D01*
X299260091Y-12351740D01*
X299678667Y-12435000D01*
X299961333Y-12435000D01*
X300379909Y-12351740D01*
X300716222Y-12127023D01*
X306880673Y-18291476D01*
X306923071Y-18354929D01*
X306986524Y-18397327D01*
X306986526Y-18397329D01*
X307111902Y-18481102D01*
X307174463Y-18522904D01*
X307396148Y-18567000D01*
X307396152Y-18567000D01*
X307470999Y-18581888D01*
X307545846Y-18567000D01*
X322118153Y-18567000D01*
X322193000Y-18581888D01*
X322267847Y-18567000D01*
X322267852Y-18567000D01*
X322489537Y-18522904D01*
X322740929Y-18354929D01*
X322783331Y-18291470D01*
X322840201Y-18234600D01*
X330598121Y-18234600D01*
X330565000Y-18314561D01*
X330565000Y-18885439D01*
X330722219Y-19265000D01*
X235085856Y-19265000D01*
X235246965Y-18816777D01*
X235219778Y-18246546D01*
X235053864Y-17845995D01*
X234807745Y-17771861D01*
X233979605Y-18600000D01*
X233993748Y-18614142D01*
X233814142Y-18793748D01*
X233800000Y-18779605D01*
X233785858Y-18793748D01*
X233606252Y-18614142D01*
X233620395Y-18600000D01*
X232792255Y-17771861D01*
X232546136Y-17845995D01*
X232353035Y-18383223D01*
X232380222Y-18953454D01*
X232509269Y-19265000D01*
X230277781Y-19265000D01*
X230435000Y-18885439D01*
X230435000Y-18314561D01*
X230216534Y-17787138D01*
X230021651Y-17592255D01*
X232971861Y-17592255D01*
X233800000Y-18420395D01*
X234628139Y-17592255D01*
X234554005Y-17346136D01*
X234016777Y-17153035D01*
X233446546Y-17180222D01*
X233045995Y-17346136D01*
X232971861Y-17592255D01*
X230021651Y-17592255D01*
X229812862Y-17383466D01*
X229285439Y-17165000D01*
X228714561Y-17165000D01*
X228187138Y-17383466D01*
X227783466Y-17787138D01*
X227565000Y-18314561D01*
X227565000Y-18885439D01*
X227722219Y-19265000D01*
X225477781Y-19265000D01*
X225635000Y-18885439D01*
X225635000Y-18314561D01*
X225416534Y-17787138D01*
X225012862Y-17383466D01*
X224485439Y-17165000D01*
X223914561Y-17165000D01*
X223387138Y-17383466D01*
X222983466Y-17787138D01*
X222765000Y-18314561D01*
X222765000Y-18885439D01*
X222922219Y-19265000D01*
X220677781Y-19265000D01*
X220835000Y-18885439D01*
X220835000Y-18314561D01*
X220616534Y-17787138D01*
X220212862Y-17383466D01*
X219685439Y-17165000D01*
X219114561Y-17165000D01*
X218587138Y-17383466D01*
X218183466Y-17787138D01*
X217965000Y-18314561D01*
X217965000Y-18885439D01*
X218122219Y-19265000D01*
X215877781Y-19265000D01*
X216035000Y-18885439D01*
X216035000Y-18314561D01*
X215816534Y-17787138D01*
X215412862Y-17383466D01*
X214885439Y-17165000D01*
X214314561Y-17165000D01*
X213787138Y-17383466D01*
X213383466Y-17787138D01*
X213165000Y-18314561D01*
X213165000Y-18885439D01*
X213322219Y-19265000D01*
X159793045Y-19265000D01*
X159946965Y-18836777D01*
X159919778Y-18266546D01*
X159866864Y-18138800D01*
X172766353Y-18138800D01*
X172841200Y-18153688D01*
X172916047Y-18138800D01*
X172916052Y-18138800D01*
X173137737Y-18094704D01*
X173389129Y-17926729D01*
X173431531Y-17863270D01*
X178896115Y-12398688D01*
X179078667Y-12435000D01*
X179361333Y-12435000D01*
X179779909Y-12351740D01*
X180254577Y-12034577D01*
X180440786Y-11755896D01*
X180550330Y-11734106D01*
X180607611Y-11855134D01*
X181022577Y-12231041D01*
X181410961Y-12391904D01*
X181633000Y-12269915D01*
X181633000Y-11127000D01*
X181613000Y-11127000D01*
X181613000Y-10873000D01*
X181633000Y-10873000D01*
X181633000Y-10853000D01*
X181887000Y-10853000D01*
X181887000Y-10873000D01*
X181907000Y-10873000D01*
X181907000Y-11127000D01*
X181887000Y-11127000D01*
X181887000Y-12269915D01*
X182109039Y-12391904D01*
X182497423Y-12231041D01*
X182912389Y-11855134D01*
X183009053Y-11650892D01*
X183265423Y-12034577D01*
X183295695Y-12054804D01*
X182495830Y-12854669D01*
X182432371Y-12897071D01*
X182264396Y-13148464D01*
X182220300Y-13370149D01*
X182220300Y-13370153D01*
X182205412Y-13445000D01*
X182220300Y-13519847D01*
X182220300Y-13704898D01*
X180338302Y-15586897D01*
X180285439Y-15565000D01*
X179714561Y-15565000D01*
X179187138Y-15783466D01*
X178783466Y-16187138D01*
X178565000Y-16714561D01*
X178565000Y-17285439D01*
X178783466Y-17812862D01*
X179187138Y-18216534D01*
X179714561Y-18435000D01*
X180285439Y-18435000D01*
X180812862Y-18216534D01*
X181216534Y-17812862D01*
X181435000Y-17285439D01*
X181435000Y-16714561D01*
X181413103Y-16661698D01*
X182980394Y-15094408D01*
X186501768Y-18615868D01*
X186544171Y-18679329D01*
X186682237Y-18771582D01*
X186795554Y-18847300D01*
X186795558Y-18847301D01*
X186795563Y-18847304D01*
X187002096Y-18888386D01*
X187092090Y-18906288D01*
X187166942Y-18891400D01*
X201193753Y-18891400D01*
X201268600Y-18906288D01*
X201343447Y-18891400D01*
X201343452Y-18891400D01*
X201565137Y-18847304D01*
X201816529Y-18679329D01*
X201858931Y-18615870D01*
X203061698Y-17413103D01*
X203114561Y-17435000D01*
X203685439Y-17435000D01*
X204212862Y-17216534D01*
X204616534Y-16812862D01*
X204822937Y-16314561D01*
X299065000Y-16314561D01*
X299065000Y-16885439D01*
X299283466Y-17412862D01*
X299687138Y-17816534D01*
X300214561Y-18035000D01*
X300785439Y-18035000D01*
X301312862Y-17816534D01*
X301716534Y-17412862D01*
X301935000Y-16885439D01*
X301935000Y-16314561D01*
X301716534Y-15787138D01*
X301312862Y-15383466D01*
X300785439Y-15165000D01*
X300214561Y-15165000D01*
X299687138Y-15383466D01*
X299283466Y-15787138D01*
X299065000Y-16314561D01*
X204822937Y-16314561D01*
X204835000Y-16285439D01*
X204835000Y-15714561D01*
X204616534Y-15187138D01*
X204212862Y-14783466D01*
X203685439Y-14565000D01*
X203114561Y-14565000D01*
X202587138Y-14783466D01*
X202183466Y-15187138D01*
X201965000Y-15714561D01*
X201965000Y-16285439D01*
X201986897Y-16338302D01*
X200953799Y-17371400D01*
X198838983Y-17371400D01*
X199212862Y-17216534D01*
X199616534Y-16812862D01*
X199835000Y-16285439D01*
X199835000Y-15714561D01*
X199616534Y-15187138D01*
X199212862Y-14783466D01*
X198685439Y-14565000D01*
X198114561Y-14565000D01*
X197587138Y-14783466D01*
X197183466Y-15187138D01*
X197161570Y-15240000D01*
X196607200Y-15240000D01*
X196607200Y-11383695D01*
X196783223Y-11446965D01*
X197353454Y-11419778D01*
X197754005Y-11253864D01*
X197828139Y-11007745D01*
X197000000Y-10179605D01*
X196985858Y-10193748D01*
X196806253Y-10014143D01*
X196820395Y-10000000D01*
X197179605Y-10000000D01*
X198007745Y-10828139D01*
X198253864Y-10754005D01*
X198446965Y-10216777D01*
X198419778Y-9646546D01*
X198253864Y-9245995D01*
X198007745Y-9171861D01*
X197179605Y-10000000D01*
X196820395Y-10000000D01*
X196806253Y-9985858D01*
X196985858Y-9806253D01*
X197000000Y-9820395D01*
X197828139Y-8992255D01*
X197754005Y-8746136D01*
X197216777Y-8553035D01*
X196646546Y-8580222D01*
X196607200Y-8596520D01*
X196607200Y-5467601D01*
X196661698Y-5413103D01*
X196714561Y-5435000D01*
X197285439Y-5435000D01*
X197812862Y-5216534D01*
X198216534Y-4812862D01*
X198435000Y-4285439D01*
X198435000Y-3714561D01*
X198390571Y-3607300D01*
X203235000Y-3607300D01*
X203156887Y-4000000D01*
G36*
X18147874Y-1085325D02*
X18097765Y-1051843D01*
X17850000Y-1002560D01*
X16150000Y-1002560D01*
X15902235Y-1051843D01*
X15692191Y-1192191D01*
X15551843Y-1402235D01*
X15502560Y-1650000D01*
X15502560Y-3350000D01*
X15551843Y-3597765D01*
X15692191Y-3807809D01*
X15902235Y-3948157D01*
X16150000Y-3997440D01*
X17850000Y-3997440D01*
X18097765Y-3948157D01*
X18307809Y-3807809D01*
X18448157Y-3597765D01*
X18457184Y-3552381D01*
X18469375Y-3570625D01*
X18960582Y-3898839D01*
X19393744Y-3985000D01*
X19686256Y-3985000D01*
X20119418Y-3898839D01*
X20610625Y-3570625D01*
X20822474Y-3253571D01*
X20824606Y-3253147D01*
X20884817Y-3381358D01*
X21313076Y-3771645D01*
X21723110Y-3941476D01*
X21953000Y-3820155D01*
X21953000Y-2627000D01*
X22207000Y-2627000D01*
X22207000Y-3820155D01*
X22436890Y-3941476D01*
X22846924Y-3771645D01*
X23275183Y-3381358D01*
X23521486Y-2856892D01*
X23400819Y-2627000D01*
X22207000Y-2627000D01*
X21953000Y-2627000D01*
X21933000Y-2627000D01*
X21933000Y-2373000D01*
X21953000Y-2373000D01*
X21953000Y-2353000D01*
X22207000Y-2353000D01*
X22207000Y-2373000D01*
X23400819Y-2373000D01*
X23521486Y-2143108D01*
X23277934Y-1624500D01*
X67892898Y-1624500D01*
X64209019Y-5308379D01*
X64235000Y-5245657D01*
X64235000Y-4754343D01*
X64046982Y-4300429D01*
X63699571Y-3953018D01*
X63245657Y-3765000D01*
X62839802Y-3765000D01*
X62090331Y-3015530D01*
X62047929Y-2952071D01*
X61796537Y-2784096D01*
X61574852Y-2740000D01*
X61574847Y-2740000D01*
X61500000Y-2725112D01*
X61425153Y-2740000D01*
X47238430Y-2740000D01*
X47216534Y-2687138D01*
X46812862Y-2283466D01*
X46285439Y-2065000D01*
X45714561Y-2065000D01*
X45187138Y-2283466D01*
X44783466Y-2687138D01*
X44565000Y-3214561D01*
X44565000Y-3785439D01*
X44783466Y-4312862D01*
X45187138Y-4716534D01*
X45714561Y-4935000D01*
X46285439Y-4935000D01*
X46812862Y-4716534D01*
X47216534Y-4312862D01*
X47238430Y-4260000D01*
X50668458Y-4260000D01*
X50561161Y-4420582D01*
X50445908Y-5000000D01*
X50561161Y-5579418D01*
X50889375Y-6070625D01*
X51187761Y-6270000D01*
X50889375Y-6469375D01*
X50561161Y-6960582D01*
X50445908Y-7540000D01*
X50561161Y-8119418D01*
X50566093Y-8126800D01*
X49239446Y-8126800D01*
X49164599Y-8111912D01*
X49089752Y-8126800D01*
X49089748Y-8126800D01*
X48868063Y-8170896D01*
X48819268Y-8203500D01*
X48276603Y-8203500D01*
X48294334Y-8176963D01*
X48428990Y-7500000D01*
X48294334Y-6823037D01*
X47910865Y-6249135D01*
X47336963Y-5865666D01*
X46830880Y-5765000D01*
X46489120Y-5765000D01*
X45983037Y-5865666D01*
X45409135Y-6249135D01*
X45025666Y-6823037D01*
X44891010Y-7500000D01*
X45025666Y-8176963D01*
X45043397Y-8203500D01*
X38235000Y-8203500D01*
X38235000Y-7785750D01*
X38076250Y-7627000D01*
X36627000Y-7627000D01*
X36627000Y-7647000D01*
X36373000Y-7647000D01*
X36373000Y-7627000D01*
X34923750Y-7627000D01*
X34765000Y-7785750D01*
X34765000Y-8203500D01*
X30318301Y-8203500D01*
X30280331Y-8165530D01*
X30237929Y-8102071D01*
X30114407Y-8019536D01*
X30231476Y-7736890D01*
X30110155Y-7507000D01*
X28917000Y-7507000D01*
X28917000Y-7527000D01*
X28663000Y-7527000D01*
X28663000Y-7507000D01*
X26377000Y-7507000D01*
X26377000Y-7527000D01*
X26123000Y-7527000D01*
X26123000Y-7507000D01*
X24929845Y-7507000D01*
X24808524Y-7736890D01*
X24871940Y-7890000D01*
X13812802Y-7890000D01*
X10762802Y-4840000D01*
X24735908Y-4840000D01*
X24851161Y-5419418D01*
X25179375Y-5910625D01*
X25498478Y-6123843D01*
X25368642Y-6184817D01*
X24978355Y-6613076D01*
X24808524Y-7023110D01*
X24929845Y-7253000D01*
X26123000Y-7253000D01*
X26123000Y-7233000D01*
X26377000Y-7233000D01*
X26377000Y-7253000D01*
X28663000Y-7253000D01*
X28663000Y-7233000D01*
X28917000Y-7233000D01*
X28917000Y-7253000D01*
X30110155Y-7253000D01*
X30231476Y-7023110D01*
X30061645Y-6613076D01*
X29752351Y-6273690D01*
X34765000Y-6273690D01*
X34765000Y-7214250D01*
X34923750Y-7373000D01*
X36373000Y-7373000D01*
X36373000Y-5923750D01*
X36627000Y-5923750D01*
X36627000Y-7373000D01*
X38076250Y-7373000D01*
X38235000Y-7214250D01*
X38235000Y-6273690D01*
X38138327Y-6040301D01*
X37959698Y-5861673D01*
X37726309Y-5765000D01*
X36785750Y-5765000D01*
X36627000Y-5923750D01*
X36373000Y-5923750D01*
X36214250Y-5765000D01*
X35273691Y-5765000D01*
X35040302Y-5861673D01*
X34861673Y-6040301D01*
X34765000Y-6273690D01*
X29752351Y-6273690D01*
X29671358Y-6184817D01*
X29541522Y-6123843D01*
X29860625Y-5910625D01*
X30188839Y-5419418D01*
X30304092Y-4840000D01*
X30188839Y-4260582D01*
X29860625Y-3769375D01*
X29457477Y-3500000D01*
X36916887Y-3500000D01*
X37028260Y-4059909D01*
X37345423Y-4534577D01*
X37820091Y-4851740D01*
X38238667Y-4935000D01*
X38521333Y-4935000D01*
X38939909Y-4851740D01*
X39414577Y-4534577D01*
X39731740Y-4059909D01*
X39843113Y-3500000D01*
X39731740Y-2940091D01*
X39414577Y-2465423D01*
X38939909Y-2148260D01*
X38521333Y-2065000D01*
X38238667Y-2065000D01*
X37820091Y-2148260D01*
X37345423Y-2465423D01*
X37028260Y-2940091D01*
X36916887Y-3500000D01*
X29457477Y-3500000D01*
X29369418Y-3441161D01*
X28936256Y-3355000D01*
X28643744Y-3355000D01*
X28210582Y-3441161D01*
X27719375Y-3769375D01*
X27520000Y-4067761D01*
X27320625Y-3769375D01*
X26829418Y-3441161D01*
X26396256Y-3355000D01*
X26103744Y-3355000D01*
X25670582Y-3441161D01*
X25179375Y-3769375D01*
X24851161Y-4260582D01*
X24735908Y-4840000D01*
X10762802Y-4840000D01*
X9739104Y-3816303D01*
X9846924Y-3771645D01*
X10275183Y-3381358D01*
X10521486Y-2856892D01*
X10400819Y-2627000D01*
X9207000Y-2627000D01*
X9207000Y-2647000D01*
X8953000Y-2647000D01*
X8953000Y-2627000D01*
X8933000Y-2627000D01*
X8933000Y-2373000D01*
X8953000Y-2373000D01*
X8953000Y-1179845D01*
X9207000Y-1179845D01*
X9207000Y-2373000D01*
X10400819Y-2373000D01*
X10521486Y-2143108D01*
X10275183Y-1618642D01*
X9846924Y-1228355D01*
X9436890Y-1058524D01*
X9207000Y-1179845D01*
X8953000Y-1179845D01*
X8723110Y-1058524D01*
X8313076Y-1228355D01*
X7884817Y-1618642D01*
X7824606Y-1746853D01*
X7822474Y-1746429D01*
X7610625Y-1429375D01*
X7119418Y-1101161D01*
X6686256Y-1015000D01*
X6393744Y-1015000D01*
X5960582Y-1101161D01*
X5469375Y-1429375D01*
X5457184Y-1447619D01*
X5448157Y-1402235D01*
X5307809Y-1192191D01*
X5097765Y-1051843D01*
X4850000Y-1002560D01*
X3150000Y-1002560D01*
X2902235Y-1051843D01*
X2692191Y-1192191D01*
X2551843Y-1402235D01*
X2502560Y-1650000D01*
X2502560Y-3350000D01*
X2551843Y-3597765D01*
X2692191Y-3807809D01*
X2902235Y-3948157D01*
X3150000Y-3997440D01*
X4850000Y-3997440D01*
X5097765Y-3948157D01*
X5147874Y-3914675D01*
X12824771Y-11591573D01*
X12867171Y-11655029D01*
X13118563Y-11823004D01*
X13340248Y-11867100D01*
X13340253Y-11867100D01*
X13415100Y-11881988D01*
X13489947Y-11867100D01*
X24906276Y-11867100D01*
X24808524Y-12103110D01*
X24929845Y-12333000D01*
X26123000Y-12333000D01*
X26123000Y-12313000D01*
X26377000Y-12313000D01*
X26377000Y-12333000D01*
X28663000Y-12333000D01*
X28663000Y-12313000D01*
X28917000Y-12313000D01*
X28917000Y-12333000D01*
X30110155Y-12333000D01*
X30231476Y-12103110D01*
X30061645Y-11693076D01*
X30000349Y-11625816D01*
X30023231Y-11591570D01*
X30304302Y-11310500D01*
X34752560Y-11310500D01*
X34752560Y-13100000D01*
X34801843Y-13347765D01*
X34942191Y-13557809D01*
X35152235Y-13698157D01*
X35400000Y-13747440D01*
X35775385Y-13747440D01*
X35784097Y-13791237D01*
X35858264Y-13902235D01*
X35952072Y-14042629D01*
X36015528Y-14085029D01*
X37375694Y-15445197D01*
X37345423Y-15465423D01*
X37028260Y-15940091D01*
X36916887Y-16500000D01*
X37028260Y-17059909D01*
X37345423Y-17534577D01*
X37820091Y-17851740D01*
X38238667Y-17935000D01*
X38521333Y-17935000D01*
X38939909Y-17851740D01*
X39414577Y-17534577D01*
X39731740Y-17059909D01*
X39843113Y-16500000D01*
X39786336Y-16214561D01*
X44565000Y-16214561D01*
X44565000Y-16785439D01*
X44783466Y-17312862D01*
X45187138Y-17716534D01*
X45714561Y-17935000D01*
X46285439Y-17935000D01*
X46812862Y-17716534D01*
X47216534Y-17312862D01*
X47435000Y-16785439D01*
X47435000Y-16214561D01*
X47216534Y-15687138D01*
X46812862Y-15283466D01*
X46285439Y-15065000D01*
X45714561Y-15065000D01*
X45187138Y-15283466D01*
X44783466Y-15687138D01*
X44565000Y-16214561D01*
X39786336Y-16214561D01*
X39731740Y-15940091D01*
X39414577Y-15465423D01*
X39135896Y-15279214D01*
X39095904Y-15078163D01*
X39029960Y-14979471D01*
X38970329Y-14890226D01*
X38970327Y-14890224D01*
X38927929Y-14826771D01*
X38864476Y-14784373D01*
X37789791Y-13709689D01*
X37847765Y-13698157D01*
X38057809Y-13557809D01*
X38198157Y-13347765D01*
X38247440Y-13100000D01*
X38247440Y-12396122D01*
X44970825Y-12396122D01*
X45185466Y-12914332D01*
X45647608Y-13409012D01*
X46263877Y-13689183D01*
X46533000Y-13571604D01*
X46533000Y-12127000D01*
X45088875Y-12127000D01*
X44970825Y-12396122D01*
X38247440Y-12396122D01*
X38247440Y-11310500D01*
X45092341Y-11310500D01*
X44970825Y-11603878D01*
X45088875Y-11873000D01*
X46533000Y-11873000D01*
X46533000Y-11853000D01*
X46787000Y-11853000D01*
X46787000Y-11873000D01*
X46807000Y-11873000D01*
X46807000Y-12127000D01*
X46787000Y-12127000D01*
X46787000Y-13571604D01*
X47056123Y-13689183D01*
X47672392Y-13409012D01*
X48134534Y-12914332D01*
X48349175Y-12396122D01*
X48231126Y-12127002D01*
X48395000Y-12127002D01*
X48395000Y-12109800D01*
X50547393Y-12109800D01*
X50445908Y-12620000D01*
X50561161Y-13199418D01*
X50889375Y-13690625D01*
X51187761Y-13890000D01*
X50889375Y-14089375D01*
X50561161Y-14580582D01*
X50445908Y-15160000D01*
X50561161Y-15739418D01*
X50889375Y-16230625D01*
X51380582Y-16558839D01*
X51813744Y-16645000D01*
X52106256Y-16645000D01*
X52539418Y-16558839D01*
X53030625Y-16230625D01*
X53230000Y-15932239D01*
X53429375Y-16230625D01*
X53920582Y-16558839D01*
X54353744Y-16645000D01*
X54646256Y-16645000D01*
X55079418Y-16558839D01*
X55570625Y-16230625D01*
X55898839Y-15739418D01*
X56014092Y-15160000D01*
X55931484Y-14744700D01*
X59752560Y-14744700D01*
X59752560Y-15600000D01*
X59801843Y-15847765D01*
X59942191Y-16057809D01*
X60152235Y-16198157D01*
X60400000Y-16247440D01*
X61600000Y-16247440D01*
X61847765Y-16198157D01*
X62057809Y-16057809D01*
X62147030Y-15924282D01*
X62201178Y-15978430D01*
X62316871Y-15862737D01*
X62366383Y-16088164D01*
X62831036Y-16247807D01*
X63321413Y-16217482D01*
X63633617Y-16088164D01*
X63683130Y-15862735D01*
X63000000Y-15179605D01*
X62985858Y-15193748D01*
X62806253Y-15014143D01*
X62820395Y-15000000D01*
X62806253Y-14985858D01*
X62985858Y-14806253D01*
X63000000Y-14820395D01*
X63014143Y-14806253D01*
X63193748Y-14985858D01*
X63179605Y-15000000D01*
X63862735Y-15683130D01*
X64088164Y-15633617D01*
X64247807Y-15168964D01*
X64221605Y-14745265D01*
X64224447Y-14744700D01*
X64224452Y-14744700D01*
X64446137Y-14700604D01*
X64697529Y-14532629D01*
X64739931Y-14469170D01*
X66575502Y-12633600D01*
X67598535Y-12633600D01*
X67565000Y-12714561D01*
X67565000Y-13285439D01*
X67783466Y-13812862D01*
X68187138Y-14216534D01*
X68714561Y-14435000D01*
X69285439Y-14435000D01*
X69338302Y-14413104D01*
X69541871Y-14616673D01*
X69584271Y-14680129D01*
X69835663Y-14848104D01*
X70057348Y-14892200D01*
X70057352Y-14892200D01*
X70132200Y-14907088D01*
X70207048Y-14892200D01*
X96353100Y-14892200D01*
X96353101Y-16670148D01*
X96338212Y-16745000D01*
X96397197Y-17041537D01*
X96513705Y-17215903D01*
X96565172Y-17292929D01*
X96628628Y-17335329D01*
X97908471Y-18615173D01*
X97950871Y-18678629D01*
X98014327Y-18721029D01*
X98202262Y-18846604D01*
X98250405Y-18856180D01*
X98423948Y-18890700D01*
X98423952Y-18890700D01*
X98498800Y-18905588D01*
X98573648Y-18890700D01*
X129779153Y-18890700D01*
X129854000Y-18905588D01*
X129928847Y-18890700D01*
X129928852Y-18890700D01*
X130150537Y-18846604D01*
X130401929Y-18678629D01*
X130444331Y-18615170D01*
X130920702Y-18138800D01*
X137946087Y-18138800D01*
X137865000Y-18334561D01*
X137865000Y-18905439D01*
X138013935Y-19265000D01*
X735000Y-19265000D01*
X735000Y-14150000D01*
X24752560Y-14150000D01*
X24752560Y-15850000D01*
X24801843Y-16097765D01*
X24942191Y-16307809D01*
X25152235Y-16448157D01*
X25400000Y-16497440D01*
X27100000Y-16497440D01*
X27347765Y-16448157D01*
X27557809Y-16307809D01*
X27698157Y-16097765D01*
X27707184Y-16052381D01*
X27719375Y-16070625D01*
X28210582Y-16398839D01*
X28643744Y-16485000D01*
X28936256Y-16485000D01*
X29369418Y-16398839D01*
X29860625Y-16070625D01*
X30188839Y-15579418D01*
X30304092Y-15000000D01*
X30188839Y-14420582D01*
X29860625Y-13929375D01*
X29541522Y-13716157D01*
X29671358Y-13655183D01*
X30061645Y-13226924D01*
X30231476Y-12816890D01*
X30110155Y-12587000D01*
X28917000Y-12587000D01*
X28917000Y-12607000D01*
X28663000Y-12607000D01*
X28663000Y-12587000D01*
X26377000Y-12587000D01*
X26377000Y-12607000D01*
X26123000Y-12607000D01*
X26123000Y-12587000D01*
X24929845Y-12587000D01*
X24808524Y-12816890D01*
X24978355Y-13226924D01*
X25255708Y-13531261D01*
X25152235Y-13551843D01*
X24942191Y-13692191D01*
X24801843Y-13902235D01*
X24752560Y-14150000D01*
X735000Y-14150000D01*
X735000Y-735000D01*
X18498198Y-735000D01*
X18147874Y-1085325D01*
X18147874Y-1085325D01*
G37*
X18147874Y-1085325D02*
X18097765Y-1051843D01*
X17850000Y-1002560D01*
X16150000Y-1002560D01*
X15902235Y-1051843D01*
X15692191Y-1192191D01*
X15551843Y-1402235D01*
X15502560Y-1650000D01*
X15502560Y-3350000D01*
X15551843Y-3597765D01*
X15692191Y-3807809D01*
X15902235Y-3948157D01*
X16150000Y-3997440D01*
X17850000Y-3997440D01*
X18097765Y-3948157D01*
X18307809Y-3807809D01*
X18448157Y-3597765D01*
X18457184Y-3552381D01*
X18469375Y-3570625D01*
X18960582Y-3898839D01*
X19393744Y-3985000D01*
X19686256Y-3985000D01*
X20119418Y-3898839D01*
X20610625Y-3570625D01*
X20822474Y-3253571D01*
X20824606Y-3253147D01*
X20884817Y-3381358D01*
X21313076Y-3771645D01*
X21723110Y-3941476D01*
X21953000Y-3820155D01*
X21953000Y-2627000D01*
X22207000Y-2627000D01*
X22207000Y-3820155D01*
X22436890Y-3941476D01*
X22846924Y-3771645D01*
X23275183Y-3381358D01*
X23521486Y-2856892D01*
X23400819Y-2627000D01*
X22207000Y-2627000D01*
X21953000Y-2627000D01*
X21933000Y-2627000D01*
X21933000Y-2373000D01*
X21953000Y-2373000D01*
X21953000Y-2353000D01*
X22207000Y-2353000D01*
X22207000Y-2373000D01*
X23400819Y-2373000D01*
X23521486Y-2143108D01*
X23277934Y-1624500D01*
X67892898Y-1624500D01*
X64209019Y-5308379D01*
X64235000Y-5245657D01*
X64235000Y-4754343D01*
X64046982Y-4300429D01*
X63699571Y-3953018D01*
X63245657Y-3765000D01*
X62839802Y-3765000D01*
X62090331Y-3015530D01*
X62047929Y-2952071D01*
X61796537Y-2784096D01*
X61574852Y-2740000D01*
X61574847Y-2740000D01*
X61500000Y-2725112D01*
X61425153Y-2740000D01*
X47238430Y-2740000D01*
X47216534Y-2687138D01*
X46812862Y-2283466D01*
X46285439Y-2065000D01*
X45714561Y-2065000D01*
X45187138Y-2283466D01*
X44783466Y-2687138D01*
X44565000Y-3214561D01*
X44565000Y-3785439D01*
X44783466Y-4312862D01*
X45187138Y-4716534D01*
X45714561Y-4935000D01*
X46285439Y-4935000D01*
X46812862Y-4716534D01*
X47216534Y-4312862D01*
X47238430Y-4260000D01*
X50668458Y-4260000D01*
X50561161Y-4420582D01*
X50445908Y-5000000D01*
X50561161Y-5579418D01*
X50889375Y-6070625D01*
X51187761Y-6270000D01*
X50889375Y-6469375D01*
X50561161Y-6960582D01*
X50445908Y-7540000D01*
X50561161Y-8119418D01*
X50566093Y-8126800D01*
X49239446Y-8126800D01*
X49164599Y-8111912D01*
X49089752Y-8126800D01*
X49089748Y-8126800D01*
X48868063Y-8170896D01*
X48819268Y-8203500D01*
X48276603Y-8203500D01*
X48294334Y-8176963D01*
X48428990Y-7500000D01*
X48294334Y-6823037D01*
X47910865Y-6249135D01*
X47336963Y-5865666D01*
X46830880Y-5765000D01*
X46489120Y-5765000D01*
X45983037Y-5865666D01*
X45409135Y-6249135D01*
X45025666Y-6823037D01*
X44891010Y-7500000D01*
X45025666Y-8176963D01*
X45043397Y-8203500D01*
X38235000Y-8203500D01*
X38235000Y-7785750D01*
X38076250Y-7627000D01*
X36627000Y-7627000D01*
X36627000Y-7647000D01*
X36373000Y-7647000D01*
X36373000Y-7627000D01*
X34923750Y-7627000D01*
X34765000Y-7785750D01*
X34765000Y-8203500D01*
X30318301Y-8203500D01*
X30280331Y-8165530D01*
X30237929Y-8102071D01*
X30114407Y-8019536D01*
X30231476Y-7736890D01*
X30110155Y-7507000D01*
X28917000Y-7507000D01*
X28917000Y-7527000D01*
X28663000Y-7527000D01*
X28663000Y-7507000D01*
X26377000Y-7507000D01*
X26377000Y-7527000D01*
X26123000Y-7527000D01*
X26123000Y-7507000D01*
X24929845Y-7507000D01*
X24808524Y-7736890D01*
X24871940Y-7890000D01*
X13812802Y-7890000D01*
X10762802Y-4840000D01*
X24735908Y-4840000D01*
X24851161Y-5419418D01*
X25179375Y-5910625D01*
X25498478Y-6123843D01*
X25368642Y-6184817D01*
X24978355Y-6613076D01*
X24808524Y-7023110D01*
X24929845Y-7253000D01*
X26123000Y-7253000D01*
X26123000Y-7233000D01*
X26377000Y-7233000D01*
X26377000Y-7253000D01*
X28663000Y-7253000D01*
X28663000Y-7233000D01*
X28917000Y-7233000D01*
X28917000Y-7253000D01*
X30110155Y-7253000D01*
X30231476Y-7023110D01*
X30061645Y-6613076D01*
X29752351Y-6273690D01*
X34765000Y-6273690D01*
X34765000Y-7214250D01*
X34923750Y-7373000D01*
X36373000Y-7373000D01*
X36373000Y-5923750D01*
X36627000Y-5923750D01*
X36627000Y-7373000D01*
X38076250Y-7373000D01*
X38235000Y-7214250D01*
X38235000Y-6273690D01*
X38138327Y-6040301D01*
X37959698Y-5861673D01*
X37726309Y-5765000D01*
X36785750Y-5765000D01*
X36627000Y-5923750D01*
X36373000Y-5923750D01*
X36214250Y-5765000D01*
X35273691Y-5765000D01*
X35040302Y-5861673D01*
X34861673Y-6040301D01*
X34765000Y-6273690D01*
X29752351Y-6273690D01*
X29671358Y-6184817D01*
X29541522Y-6123843D01*
X29860625Y-5910625D01*
X30188839Y-5419418D01*
X30304092Y-4840000D01*
X30188839Y-4260582D01*
X29860625Y-3769375D01*
X29457477Y-3500000D01*
X36916887Y-3500000D01*
X37028260Y-4059909D01*
X37345423Y-4534577D01*
X37820091Y-4851740D01*
X38238667Y-4935000D01*
X38521333Y-4935000D01*
X38939909Y-4851740D01*
X39414577Y-4534577D01*
X39731740Y-4059909D01*
X39843113Y-3500000D01*
X39731740Y-2940091D01*
X39414577Y-2465423D01*
X38939909Y-2148260D01*
X38521333Y-2065000D01*
X38238667Y-2065000D01*
X37820091Y-2148260D01*
X37345423Y-2465423D01*
X37028260Y-2940091D01*
X36916887Y-3500000D01*
X29457477Y-3500000D01*
X29369418Y-3441161D01*
X28936256Y-3355000D01*
X28643744Y-3355000D01*
X28210582Y-3441161D01*
X27719375Y-3769375D01*
X27520000Y-4067761D01*
X27320625Y-3769375D01*
X26829418Y-3441161D01*
X26396256Y-3355000D01*
X26103744Y-3355000D01*
X25670582Y-3441161D01*
X25179375Y-3769375D01*
X24851161Y-4260582D01*
X24735908Y-4840000D01*
X10762802Y-4840000D01*
X9739104Y-3816303D01*
X9846924Y-3771645D01*
X10275183Y-3381358D01*
X10521486Y-2856892D01*
X10400819Y-2627000D01*
X9207000Y-2627000D01*
X9207000Y-2647000D01*
X8953000Y-2647000D01*
X8953000Y-2627000D01*
X8933000Y-2627000D01*
X8933000Y-2373000D01*
X8953000Y-2373000D01*
X8953000Y-1179845D01*
X9207000Y-1179845D01*
X9207000Y-2373000D01*
X10400819Y-2373000D01*
X10521486Y-2143108D01*
X10275183Y-1618642D01*
X9846924Y-1228355D01*
X9436890Y-1058524D01*
X9207000Y-1179845D01*
X8953000Y-1179845D01*
X8723110Y-1058524D01*
X8313076Y-1228355D01*
X7884817Y-1618642D01*
X7824606Y-1746853D01*
X7822474Y-1746429D01*
X7610625Y-1429375D01*
X7119418Y-1101161D01*
X6686256Y-1015000D01*
X6393744Y-1015000D01*
X5960582Y-1101161D01*
X5469375Y-1429375D01*
X5457184Y-1447619D01*
X5448157Y-1402235D01*
X5307809Y-1192191D01*
X5097765Y-1051843D01*
X4850000Y-1002560D01*
X3150000Y-1002560D01*
X2902235Y-1051843D01*
X2692191Y-1192191D01*
X2551843Y-1402235D01*
X2502560Y-1650000D01*
X2502560Y-3350000D01*
X2551843Y-3597765D01*
X2692191Y-3807809D01*
X2902235Y-3948157D01*
X3150000Y-3997440D01*
X4850000Y-3997440D01*
X5097765Y-3948157D01*
X5147874Y-3914675D01*
X12824771Y-11591573D01*
X12867171Y-11655029D01*
X13118563Y-11823004D01*
X13340248Y-11867100D01*
X13340253Y-11867100D01*
X13415100Y-11881988D01*
X13489947Y-11867100D01*
X24906276Y-11867100D01*
X24808524Y-12103110D01*
X24929845Y-12333000D01*
X26123000Y-12333000D01*
X26123000Y-12313000D01*
X26377000Y-12313000D01*
X26377000Y-12333000D01*
X28663000Y-12333000D01*
X28663000Y-12313000D01*
X28917000Y-12313000D01*
X28917000Y-12333000D01*
X30110155Y-12333000D01*
X30231476Y-12103110D01*
X30061645Y-11693076D01*
X30000349Y-11625816D01*
X30023231Y-11591570D01*
X30304302Y-11310500D01*
X34752560Y-11310500D01*
X34752560Y-13100000D01*
X34801843Y-13347765D01*
X34942191Y-13557809D01*
X35152235Y-13698157D01*
X35400000Y-13747440D01*
X35775385Y-13747440D01*
X35784097Y-13791237D01*
X35858264Y-13902235D01*
X35952072Y-14042629D01*
X36015528Y-14085029D01*
X37375694Y-15445197D01*
X37345423Y-15465423D01*
X37028260Y-15940091D01*
X36916887Y-16500000D01*
X37028260Y-17059909D01*
X37345423Y-17534577D01*
X37820091Y-17851740D01*
X38238667Y-17935000D01*
X38521333Y-17935000D01*
X38939909Y-17851740D01*
X39414577Y-17534577D01*
X39731740Y-17059909D01*
X39843113Y-16500000D01*
X39786336Y-16214561D01*
X44565000Y-16214561D01*
X44565000Y-16785439D01*
X44783466Y-17312862D01*
X45187138Y-17716534D01*
X45714561Y-17935000D01*
X46285439Y-17935000D01*
X46812862Y-17716534D01*
X47216534Y-17312862D01*
X47435000Y-16785439D01*
X47435000Y-16214561D01*
X47216534Y-15687138D01*
X46812862Y-15283466D01*
X46285439Y-15065000D01*
X45714561Y-15065000D01*
X45187138Y-15283466D01*
X44783466Y-15687138D01*
X44565000Y-16214561D01*
X39786336Y-16214561D01*
X39731740Y-15940091D01*
X39414577Y-15465423D01*
X39135896Y-15279214D01*
X39095904Y-15078163D01*
X39029960Y-14979471D01*
X38970329Y-14890226D01*
X38970327Y-14890224D01*
X38927929Y-14826771D01*
X38864476Y-14784373D01*
X37789791Y-13709689D01*
X37847765Y-13698157D01*
X38057809Y-13557809D01*
X38198157Y-13347765D01*
X38247440Y-13100000D01*
X38247440Y-12396122D01*
X44970825Y-12396122D01*
X45185466Y-12914332D01*
X45647608Y-13409012D01*
X46263877Y-13689183D01*
X46533000Y-13571604D01*
X46533000Y-12127000D01*
X45088875Y-12127000D01*
X44970825Y-12396122D01*
X38247440Y-12396122D01*
X38247440Y-11310500D01*
X45092341Y-11310500D01*
X44970825Y-11603878D01*
X45088875Y-11873000D01*
X46533000Y-11873000D01*
X46533000Y-11853000D01*
X46787000Y-11853000D01*
X46787000Y-11873000D01*
X46807000Y-11873000D01*
X46807000Y-12127000D01*
X46787000Y-12127000D01*
X46787000Y-13571604D01*
X47056123Y-13689183D01*
X47672392Y-13409012D01*
X48134534Y-12914332D01*
X48349175Y-12396122D01*
X48231126Y-12127002D01*
X48395000Y-12127002D01*
X48395000Y-12109800D01*
X50547393Y-12109800D01*
X50445908Y-12620000D01*
X50561161Y-13199418D01*
X50889375Y-13690625D01*
X51187761Y-13890000D01*
X50889375Y-14089375D01*
X50561161Y-14580582D01*
X50445908Y-15160000D01*
X50561161Y-15739418D01*
X50889375Y-16230625D01*
X51380582Y-16558839D01*
X51813744Y-16645000D01*
X52106256Y-16645000D01*
X52539418Y-16558839D01*
X53030625Y-16230625D01*
X53230000Y-15932239D01*
X53429375Y-16230625D01*
X53920582Y-16558839D01*
X54353744Y-16645000D01*
X54646256Y-16645000D01*
X55079418Y-16558839D01*
X55570625Y-16230625D01*
X55898839Y-15739418D01*
X56014092Y-15160000D01*
X55931484Y-14744700D01*
X59752560Y-14744700D01*
X59752560Y-15600000D01*
X59801843Y-15847765D01*
X59942191Y-16057809D01*
X60152235Y-16198157D01*
X60400000Y-16247440D01*
X61600000Y-16247440D01*
X61847765Y-16198157D01*
X62057809Y-16057809D01*
X62147030Y-15924282D01*
X62201178Y-15978430D01*
X62316871Y-15862737D01*
X62366383Y-16088164D01*
X62831036Y-16247807D01*
X63321413Y-16217482D01*
X63633617Y-16088164D01*
X63683130Y-15862735D01*
X63000000Y-15179605D01*
X62985858Y-15193748D01*
X62806253Y-15014143D01*
X62820395Y-15000000D01*
X62806253Y-14985858D01*
X62985858Y-14806253D01*
X63000000Y-14820395D01*
X63014143Y-14806253D01*
X63193748Y-14985858D01*
X63179605Y-15000000D01*
X63862735Y-15683130D01*
X64088164Y-15633617D01*
X64247807Y-15168964D01*
X64221605Y-14745265D01*
X64224447Y-14744700D01*
X64224452Y-14744700D01*
X64446137Y-14700604D01*
X64697529Y-14532629D01*
X64739931Y-14469170D01*
X66575502Y-12633600D01*
X67598535Y-12633600D01*
X67565000Y-12714561D01*
X67565000Y-13285439D01*
X67783466Y-13812862D01*
X68187138Y-14216534D01*
X68714561Y-14435000D01*
X69285439Y-14435000D01*
X69338302Y-14413104D01*
X69541871Y-14616673D01*
X69584271Y-14680129D01*
X69835663Y-14848104D01*
X70057348Y-14892200D01*
X70057352Y-14892200D01*
X70132200Y-14907088D01*
X70207048Y-14892200D01*
X96353100Y-14892200D01*
X96353101Y-16670148D01*
X96338212Y-16745000D01*
X96397197Y-17041537D01*
X96513705Y-17215903D01*
X96565172Y-17292929D01*
X96628628Y-17335329D01*
X97908471Y-18615173D01*
X97950871Y-18678629D01*
X98014327Y-18721029D01*
X98202262Y-18846604D01*
X98250405Y-18856180D01*
X98423948Y-18890700D01*
X98423952Y-18890700D01*
X98498800Y-18905588D01*
X98573648Y-18890700D01*
X129779153Y-18890700D01*
X129854000Y-18905588D01*
X129928847Y-18890700D01*
X129928852Y-18890700D01*
X130150537Y-18846604D01*
X130401929Y-18678629D01*
X130444331Y-18615170D01*
X130920702Y-18138800D01*
X137946087Y-18138800D01*
X137865000Y-18334561D01*
X137865000Y-18905439D01*
X138013935Y-19265000D01*
X735000Y-19265000D01*
X735000Y-14150000D01*
X24752560Y-14150000D01*
X24752560Y-15850000D01*
X24801843Y-16097765D01*
X24942191Y-16307809D01*
X25152235Y-16448157D01*
X25400000Y-16497440D01*
X27100000Y-16497440D01*
X27347765Y-16448157D01*
X27557809Y-16307809D01*
X27698157Y-16097765D01*
X27707184Y-16052381D01*
X27719375Y-16070625D01*
X28210582Y-16398839D01*
X28643744Y-16485000D01*
X28936256Y-16485000D01*
X29369418Y-16398839D01*
X29860625Y-16070625D01*
X30188839Y-15579418D01*
X30304092Y-15000000D01*
X30188839Y-14420582D01*
X29860625Y-13929375D01*
X29541522Y-13716157D01*
X29671358Y-13655183D01*
X30061645Y-13226924D01*
X30231476Y-12816890D01*
X30110155Y-12587000D01*
X28917000Y-12587000D01*
X28917000Y-12607000D01*
X28663000Y-12607000D01*
X28663000Y-12587000D01*
X26377000Y-12587000D01*
X26377000Y-12607000D01*
X26123000Y-12607000D01*
X26123000Y-12587000D01*
X24929845Y-12587000D01*
X24808524Y-12816890D01*
X24978355Y-13226924D01*
X25255708Y-13531261D01*
X25152235Y-13551843D01*
X24942191Y-13692191D01*
X24801843Y-13902235D01*
X24752560Y-14150000D01*
X735000Y-14150000D01*
X735000Y-735000D01*
X18498198Y-735000D01*
X18147874Y-1085325D01*
G36*
X525265000Y-19265000D02*
X460285856Y-19265000D01*
X460446965Y-18816777D01*
X460419778Y-18246546D01*
X460253864Y-17845995D01*
X460007745Y-17771861D01*
X459179605Y-18600000D01*
X459193748Y-18614142D01*
X459014142Y-18793748D01*
X459000000Y-18779605D01*
X458985858Y-18793748D01*
X458806252Y-18614142D01*
X458820395Y-18600000D01*
X457992255Y-17771861D01*
X457746136Y-17845995D01*
X457553035Y-18383223D01*
X457580222Y-18953454D01*
X457709269Y-19265000D01*
X455477781Y-19265000D01*
X455635000Y-18885439D01*
X455635000Y-18314561D01*
X455416534Y-17787138D01*
X455221651Y-17592255D01*
X458171861Y-17592255D01*
X459000000Y-18420395D01*
X459828139Y-17592255D01*
X459754005Y-17346136D01*
X459216777Y-17153035D01*
X458646546Y-17180222D01*
X458245995Y-17346136D01*
X458171861Y-17592255D01*
X455221651Y-17592255D01*
X455012862Y-17383466D01*
X454485439Y-17165000D01*
X453914561Y-17165000D01*
X453387138Y-17383466D01*
X452983466Y-17787138D01*
X452961570Y-17840000D01*
X435638430Y-17840000D01*
X435616534Y-17787138D01*
X435212862Y-17383466D01*
X434685439Y-17165000D01*
X434114561Y-17165000D01*
X433587138Y-17383466D01*
X433183466Y-17787138D01*
X433161570Y-17840000D01*
X430838430Y-17840000D01*
X430816534Y-17787138D01*
X430412862Y-17383466D01*
X429885439Y-17165000D01*
X429314561Y-17165000D01*
X428787138Y-17383466D01*
X428383466Y-17787138D01*
X428165000Y-18314561D01*
X428165000Y-18885439D01*
X428322219Y-19265000D01*
X426077781Y-19265000D01*
X426235000Y-18885439D01*
X426235000Y-18314561D01*
X426016534Y-17787138D01*
X425612862Y-17383466D01*
X425085439Y-17165000D01*
X424514561Y-17165000D01*
X423987138Y-17383466D01*
X423583466Y-17787138D01*
X423561570Y-17840000D01*
X400963601Y-17840000D01*
X406693603Y-12110000D01*
X410547353Y-12110000D01*
X410445908Y-12620000D01*
X410561161Y-13199418D01*
X410889375Y-13690625D01*
X411187761Y-13890000D01*
X410889375Y-14089375D01*
X410561161Y-14580582D01*
X410445908Y-15160000D01*
X410561161Y-15739418D01*
X410889375Y-16230625D01*
X411380582Y-16558839D01*
X411813744Y-16645000D01*
X412106256Y-16645000D01*
X412539418Y-16558839D01*
X413030625Y-16230625D01*
X413230000Y-15932239D01*
X413429375Y-16230625D01*
X413920582Y-16558839D01*
X414353744Y-16645000D01*
X414646256Y-16645000D01*
X415079418Y-16558839D01*
X415570625Y-16230625D01*
X415898839Y-15739418D01*
X416014092Y-15160000D01*
X415898839Y-14580582D01*
X415570625Y-14089375D01*
X415272239Y-13890000D01*
X415570625Y-13690625D01*
X415898839Y-13199418D01*
X416014092Y-12620000D01*
X415912647Y-12110000D01*
X422375153Y-12110000D01*
X422450000Y-12124888D01*
X422524847Y-12110000D01*
X422524852Y-12110000D01*
X422746537Y-12065904D01*
X422997929Y-11897929D01*
X423040331Y-11834470D01*
X423429451Y-11445350D01*
X423448260Y-11539909D01*
X423765423Y-12014577D01*
X424240091Y-12331740D01*
X424658667Y-12415000D01*
X424941333Y-12415000D01*
X425359909Y-12331740D01*
X425834577Y-12014577D01*
X425854804Y-11984305D01*
X426912573Y-13042076D01*
X426954971Y-13105529D01*
X427018424Y-13147927D01*
X427018426Y-13147929D01*
X427101488Y-13203429D01*
X427206363Y-13273504D01*
X427428048Y-13317600D01*
X427428052Y-13317600D01*
X427502899Y-13332488D01*
X427577746Y-13317600D01*
X469502153Y-13317600D01*
X469577000Y-13332488D01*
X469651847Y-13317600D01*
X469651852Y-13317600D01*
X469873537Y-13273504D01*
X470124929Y-13105529D01*
X470167331Y-13042070D01*
X470469715Y-12739687D01*
X470561161Y-13199418D01*
X470889375Y-13690625D01*
X471187761Y-13890000D01*
X470889375Y-14089375D01*
X470561161Y-14580582D01*
X470445908Y-15160000D01*
X470561161Y-15739418D01*
X470889375Y-16230625D01*
X471380582Y-16558839D01*
X471813744Y-16645000D01*
X472106256Y-16645000D01*
X472539418Y-16558839D01*
X473030625Y-16230625D01*
X473230000Y-15932239D01*
X473429375Y-16230625D01*
X473920582Y-16558839D01*
X474353744Y-16645000D01*
X474646256Y-16645000D01*
X475079418Y-16558839D01*
X475570625Y-16230625D01*
X475898839Y-15739418D01*
X476014092Y-15160000D01*
X475898839Y-14580582D01*
X475570625Y-14089375D01*
X475272239Y-13890000D01*
X475570625Y-13690625D01*
X475898839Y-13199418D01*
X476014092Y-12620000D01*
X475898839Y-12040582D01*
X475570625Y-11549375D01*
X475272239Y-11350000D01*
X475570625Y-11150625D01*
X475898839Y-10659418D01*
X476014092Y-10080000D01*
X475922453Y-9619300D01*
X514757853Y-9619300D01*
X514832700Y-9634188D01*
X514907547Y-9619300D01*
X514907552Y-9619300D01*
X515129237Y-9575204D01*
X515380629Y-9407229D01*
X515423031Y-9343770D01*
X520852127Y-3914675D01*
X520902235Y-3948157D01*
X521150000Y-3997440D01*
X522850000Y-3997440D01*
X523097765Y-3948157D01*
X523307809Y-3807809D01*
X523448157Y-3597765D01*
X523497440Y-3350000D01*
X523497440Y-1650000D01*
X523448157Y-1402235D01*
X523307809Y-1192191D01*
X523097765Y-1051843D01*
X522850000Y-1002560D01*
X521150000Y-1002560D01*
X520902235Y-1051843D01*
X520692191Y-1192191D01*
X520551843Y-1402235D01*
X520542816Y-1447619D01*
X520530625Y-1429375D01*
X520039418Y-1101161D01*
X519606256Y-1015000D01*
X519313744Y-1015000D01*
X518880582Y-1101161D01*
X518389375Y-1429375D01*
X518176157Y-1748478D01*
X518115183Y-1618642D01*
X517686924Y-1228355D01*
X517276890Y-1058524D01*
X517047000Y-1179845D01*
X517047000Y-2373000D01*
X517067000Y-2373000D01*
X517067000Y-2627000D01*
X517047000Y-2627000D01*
X517047000Y-3820155D01*
X517276890Y-3941476D01*
X517686924Y-3771645D01*
X518115183Y-3381358D01*
X518176157Y-3251522D01*
X518389375Y-3570625D01*
X518783337Y-3833862D01*
X514517899Y-8099300D01*
X475902841Y-8099300D01*
X476014092Y-7540000D01*
X475898839Y-6960582D01*
X475570625Y-6469375D01*
X475552381Y-6457184D01*
X475597765Y-6448157D01*
X475807809Y-6307809D01*
X475948157Y-6097765D01*
X475997440Y-5850000D01*
X475997440Y-4584600D01*
X494696699Y-4584600D01*
X495055071Y-4942973D01*
X495097471Y-5006429D01*
X495348863Y-5174404D01*
X495570548Y-5218500D01*
X495570553Y-5218500D01*
X495645400Y-5233388D01*
X495720247Y-5218500D01*
X506458653Y-5218500D01*
X506533500Y-5233388D01*
X506608347Y-5218500D01*
X506608352Y-5218500D01*
X506830037Y-5174404D01*
X507081429Y-5006429D01*
X507123831Y-4942970D01*
X507852126Y-4214675D01*
X507902235Y-4248157D01*
X508150000Y-4297440D01*
X509850000Y-4297440D01*
X510097765Y-4248157D01*
X510307809Y-4107809D01*
X510448157Y-3897765D01*
X510497440Y-3650000D01*
X510497440Y-2856892D01*
X515478514Y-2856892D01*
X515724817Y-3381358D01*
X516153076Y-3771645D01*
X516563110Y-3941476D01*
X516793000Y-3820155D01*
X516793000Y-2627000D01*
X515599181Y-2627000D01*
X515478514Y-2856892D01*
X510497440Y-2856892D01*
X510497440Y-2143108D01*
X515478514Y-2143108D01*
X515599181Y-2373000D01*
X516793000Y-2373000D01*
X516793000Y-1179845D01*
X516563110Y-1058524D01*
X516153076Y-1228355D01*
X515724817Y-1618642D01*
X515478514Y-2143108D01*
X510497440Y-2143108D01*
X510497440Y-1950000D01*
X510448157Y-1702235D01*
X510307809Y-1492191D01*
X510097765Y-1351843D01*
X509850000Y-1302560D01*
X508150000Y-1302560D01*
X507902235Y-1351843D01*
X507692191Y-1492191D01*
X507551843Y-1702235D01*
X507542816Y-1747619D01*
X507530625Y-1729375D01*
X507039418Y-1401161D01*
X506606256Y-1315000D01*
X506313744Y-1315000D01*
X505880582Y-1401161D01*
X505389375Y-1729375D01*
X505177526Y-2046429D01*
X505175394Y-2046853D01*
X505115183Y-1918642D01*
X504686924Y-1528355D01*
X504276890Y-1358524D01*
X504047000Y-1479845D01*
X504047000Y-2673000D01*
X504067000Y-2673000D01*
X504067000Y-2927000D01*
X504047000Y-2927000D01*
X504047000Y-2947000D01*
X503793000Y-2947000D01*
X503793000Y-2927000D01*
X502599181Y-2927000D01*
X502478514Y-3156892D01*
X502519375Y-3243900D01*
X496771900Y-3243900D01*
X496771900Y-3122126D01*
X496614331Y-2741720D01*
X496323180Y-2450569D01*
X496305168Y-2443108D01*
X502478514Y-2443108D01*
X502599181Y-2673000D01*
X503793000Y-2673000D01*
X503793000Y-1479845D01*
X503563110Y-1358524D01*
X503153076Y-1528355D01*
X502724817Y-1918642D01*
X502478514Y-2443108D01*
X496305168Y-2443108D01*
X495942774Y-2293000D01*
X495531026Y-2293000D01*
X495150620Y-2450569D01*
X494859469Y-2741720D01*
X494725728Y-3064600D01*
X454880311Y-3064600D01*
X454897329Y-3053229D01*
X454939731Y-2989770D01*
X455545196Y-2384305D01*
X455565423Y-2414577D01*
X456040091Y-2731740D01*
X456458667Y-2815000D01*
X456741333Y-2815000D01*
X457159909Y-2731740D01*
X457634577Y-2414577D01*
X457951740Y-1939909D01*
X458063113Y-1380000D01*
X457951740Y-820091D01*
X457894884Y-735000D01*
X525265001Y-735000D01*
X525265000Y-19265000D01*
X525265000Y-19265000D01*
G37*
X525265000Y-19265000D02*
X460285856Y-19265000D01*
X460446965Y-18816777D01*
X460419778Y-18246546D01*
X460253864Y-17845995D01*
X460007745Y-17771861D01*
X459179605Y-18600000D01*
X459193748Y-18614142D01*
X459014142Y-18793748D01*
X459000000Y-18779605D01*
X458985858Y-18793748D01*
X458806252Y-18614142D01*
X458820395Y-18600000D01*
X457992255Y-17771861D01*
X457746136Y-17845995D01*
X457553035Y-18383223D01*
X457580222Y-18953454D01*
X457709269Y-19265000D01*
X455477781Y-19265000D01*
X455635000Y-18885439D01*
X455635000Y-18314561D01*
X455416534Y-17787138D01*
X455221651Y-17592255D01*
X458171861Y-17592255D01*
X459000000Y-18420395D01*
X459828139Y-17592255D01*
X459754005Y-17346136D01*
X459216777Y-17153035D01*
X458646546Y-17180222D01*
X458245995Y-17346136D01*
X458171861Y-17592255D01*
X455221651Y-17592255D01*
X455012862Y-17383466D01*
X454485439Y-17165000D01*
X453914561Y-17165000D01*
X453387138Y-17383466D01*
X452983466Y-17787138D01*
X452961570Y-17840000D01*
X435638430Y-17840000D01*
X435616534Y-17787138D01*
X435212862Y-17383466D01*
X434685439Y-17165000D01*
X434114561Y-17165000D01*
X433587138Y-17383466D01*
X433183466Y-17787138D01*
X433161570Y-17840000D01*
X430838430Y-17840000D01*
X430816534Y-17787138D01*
X430412862Y-17383466D01*
X429885439Y-17165000D01*
X429314561Y-17165000D01*
X428787138Y-17383466D01*
X428383466Y-17787138D01*
X428165000Y-18314561D01*
X428165000Y-18885439D01*
X428322219Y-19265000D01*
X426077781Y-19265000D01*
X426235000Y-18885439D01*
X426235000Y-18314561D01*
X426016534Y-17787138D01*
X425612862Y-17383466D01*
X425085439Y-17165000D01*
X424514561Y-17165000D01*
X423987138Y-17383466D01*
X423583466Y-17787138D01*
X423561570Y-17840000D01*
X400963601Y-17840000D01*
X406693603Y-12110000D01*
X410547353Y-12110000D01*
X410445908Y-12620000D01*
X410561161Y-13199418D01*
X410889375Y-13690625D01*
X411187761Y-13890000D01*
X410889375Y-14089375D01*
X410561161Y-14580582D01*
X410445908Y-15160000D01*
X410561161Y-15739418D01*
X410889375Y-16230625D01*
X411380582Y-16558839D01*
X411813744Y-16645000D01*
X412106256Y-16645000D01*
X412539418Y-16558839D01*
X413030625Y-16230625D01*
X413230000Y-15932239D01*
X413429375Y-16230625D01*
X413920582Y-16558839D01*
X414353744Y-16645000D01*
X414646256Y-16645000D01*
X415079418Y-16558839D01*
X415570625Y-16230625D01*
X415898839Y-15739418D01*
X416014092Y-15160000D01*
X415898839Y-14580582D01*
X415570625Y-14089375D01*
X415272239Y-13890000D01*
X415570625Y-13690625D01*
X415898839Y-13199418D01*
X416014092Y-12620000D01*
X415912647Y-12110000D01*
X422375153Y-12110000D01*
X422450000Y-12124888D01*
X422524847Y-12110000D01*
X422524852Y-12110000D01*
X422746537Y-12065904D01*
X422997929Y-11897929D01*
X423040331Y-11834470D01*
X423429451Y-11445350D01*
X423448260Y-11539909D01*
X423765423Y-12014577D01*
X424240091Y-12331740D01*
X424658667Y-12415000D01*
X424941333Y-12415000D01*
X425359909Y-12331740D01*
X425834577Y-12014577D01*
X425854804Y-11984305D01*
X426912573Y-13042076D01*
X426954971Y-13105529D01*
X427018424Y-13147927D01*
X427018426Y-13147929D01*
X427101488Y-13203429D01*
X427206363Y-13273504D01*
X427428048Y-13317600D01*
X427428052Y-13317600D01*
X427502899Y-13332488D01*
X427577746Y-13317600D01*
X469502153Y-13317600D01*
X469577000Y-13332488D01*
X469651847Y-13317600D01*
X469651852Y-13317600D01*
X469873537Y-13273504D01*
X470124929Y-13105529D01*
X470167331Y-13042070D01*
X470469715Y-12739687D01*
X470561161Y-13199418D01*
X470889375Y-13690625D01*
X471187761Y-13890000D01*
X470889375Y-14089375D01*
X470561161Y-14580582D01*
X470445908Y-15160000D01*
X470561161Y-15739418D01*
X470889375Y-16230625D01*
X471380582Y-16558839D01*
X471813744Y-16645000D01*
X472106256Y-16645000D01*
X472539418Y-16558839D01*
X473030625Y-16230625D01*
X473230000Y-15932239D01*
X473429375Y-16230625D01*
X473920582Y-16558839D01*
X474353744Y-16645000D01*
X474646256Y-16645000D01*
X475079418Y-16558839D01*
X475570625Y-16230625D01*
X475898839Y-15739418D01*
X476014092Y-15160000D01*
X475898839Y-14580582D01*
X475570625Y-14089375D01*
X475272239Y-13890000D01*
X475570625Y-13690625D01*
X475898839Y-13199418D01*
X476014092Y-12620000D01*
X475898839Y-12040582D01*
X475570625Y-11549375D01*
X475272239Y-11350000D01*
X475570625Y-11150625D01*
X475898839Y-10659418D01*
X476014092Y-10080000D01*
X475922453Y-9619300D01*
X514757853Y-9619300D01*
X514832700Y-9634188D01*
X514907547Y-9619300D01*
X514907552Y-9619300D01*
X515129237Y-9575204D01*
X515380629Y-9407229D01*
X515423031Y-9343770D01*
X520852127Y-3914675D01*
X520902235Y-3948157D01*
X521150000Y-3997440D01*
X522850000Y-3997440D01*
X523097765Y-3948157D01*
X523307809Y-3807809D01*
X523448157Y-3597765D01*
X523497440Y-3350000D01*
X523497440Y-1650000D01*
X523448157Y-1402235D01*
X523307809Y-1192191D01*
X523097765Y-1051843D01*
X522850000Y-1002560D01*
X521150000Y-1002560D01*
X520902235Y-1051843D01*
X520692191Y-1192191D01*
X520551843Y-1402235D01*
X520542816Y-1447619D01*
X520530625Y-1429375D01*
X520039418Y-1101161D01*
X519606256Y-1015000D01*
X519313744Y-1015000D01*
X518880582Y-1101161D01*
X518389375Y-1429375D01*
X518176157Y-1748478D01*
X518115183Y-1618642D01*
X517686924Y-1228355D01*
X517276890Y-1058524D01*
X517047000Y-1179845D01*
X517047000Y-2373000D01*
X517067000Y-2373000D01*
X517067000Y-2627000D01*
X517047000Y-2627000D01*
X517047000Y-3820155D01*
X517276890Y-3941476D01*
X517686924Y-3771645D01*
X518115183Y-3381358D01*
X518176157Y-3251522D01*
X518389375Y-3570625D01*
X518783337Y-3833862D01*
X514517899Y-8099300D01*
X475902841Y-8099300D01*
X476014092Y-7540000D01*
X475898839Y-6960582D01*
X475570625Y-6469375D01*
X475552381Y-6457184D01*
X475597765Y-6448157D01*
X475807809Y-6307809D01*
X475948157Y-6097765D01*
X475997440Y-5850000D01*
X475997440Y-4584600D01*
X494696699Y-4584600D01*
X495055071Y-4942973D01*
X495097471Y-5006429D01*
X495348863Y-5174404D01*
X495570548Y-5218500D01*
X495570553Y-5218500D01*
X495645400Y-5233388D01*
X495720247Y-5218500D01*
X506458653Y-5218500D01*
X506533500Y-5233388D01*
X506608347Y-5218500D01*
X506608352Y-5218500D01*
X506830037Y-5174404D01*
X507081429Y-5006429D01*
X507123831Y-4942970D01*
X507852126Y-4214675D01*
X507902235Y-4248157D01*
X508150000Y-4297440D01*
X509850000Y-4297440D01*
X510097765Y-4248157D01*
X510307809Y-4107809D01*
X510448157Y-3897765D01*
X510497440Y-3650000D01*
X510497440Y-2856892D01*
X515478514Y-2856892D01*
X515724817Y-3381358D01*
X516153076Y-3771645D01*
X516563110Y-3941476D01*
X516793000Y-3820155D01*
X516793000Y-2627000D01*
X515599181Y-2627000D01*
X515478514Y-2856892D01*
X510497440Y-2856892D01*
X510497440Y-2143108D01*
X515478514Y-2143108D01*
X515599181Y-2373000D01*
X516793000Y-2373000D01*
X516793000Y-1179845D01*
X516563110Y-1058524D01*
X516153076Y-1228355D01*
X515724817Y-1618642D01*
X515478514Y-2143108D01*
X510497440Y-2143108D01*
X510497440Y-1950000D01*
X510448157Y-1702235D01*
X510307809Y-1492191D01*
X510097765Y-1351843D01*
X509850000Y-1302560D01*
X508150000Y-1302560D01*
X507902235Y-1351843D01*
X507692191Y-1492191D01*
X507551843Y-1702235D01*
X507542816Y-1747619D01*
X507530625Y-1729375D01*
X507039418Y-1401161D01*
X506606256Y-1315000D01*
X506313744Y-1315000D01*
X505880582Y-1401161D01*
X505389375Y-1729375D01*
X505177526Y-2046429D01*
X505175394Y-2046853D01*
X505115183Y-1918642D01*
X504686924Y-1528355D01*
X504276890Y-1358524D01*
X504047000Y-1479845D01*
X504047000Y-2673000D01*
X504067000Y-2673000D01*
X504067000Y-2927000D01*
X504047000Y-2927000D01*
X504047000Y-2947000D01*
X503793000Y-2947000D01*
X503793000Y-2927000D01*
X502599181Y-2927000D01*
X502478514Y-3156892D01*
X502519375Y-3243900D01*
X496771900Y-3243900D01*
X496771900Y-3122126D01*
X496614331Y-2741720D01*
X496323180Y-2450569D01*
X496305168Y-2443108D01*
X502478514Y-2443108D01*
X502599181Y-2673000D01*
X503793000Y-2673000D01*
X503793000Y-1479845D01*
X503563110Y-1358524D01*
X503153076Y-1528355D01*
X502724817Y-1918642D01*
X502478514Y-2443108D01*
X496305168Y-2443108D01*
X495942774Y-2293000D01*
X495531026Y-2293000D01*
X495150620Y-2450569D01*
X494859469Y-2741720D01*
X494725728Y-3064600D01*
X454880311Y-3064600D01*
X454897329Y-3053229D01*
X454939731Y-2989770D01*
X455545196Y-2384305D01*
X455565423Y-2414577D01*
X456040091Y-2731740D01*
X456458667Y-2815000D01*
X456741333Y-2815000D01*
X457159909Y-2731740D01*
X457634577Y-2414577D01*
X457951740Y-1939909D01*
X458063113Y-1380000D01*
X457951740Y-820091D01*
X457894884Y-735000D01*
X525265001Y-735000D01*
X525265000Y-19265000D01*
G36*
X393593748Y-9985858D02*
X393579605Y-10000000D01*
X394407745Y-10828139D01*
X394653864Y-10754005D01*
X394673969Y-10698070D01*
X396703000Y-12727102D01*
X396703001Y-15939248D01*
X396688112Y-16014100D01*
X396747097Y-16310637D01*
X396863603Y-16485000D01*
X396915072Y-16562029D01*
X396978528Y-16604429D01*
X398214098Y-17840000D01*
X397014803Y-17840000D01*
X396013104Y-16838302D01*
X396035000Y-16785439D01*
X396035000Y-16214561D01*
X395816534Y-15687138D01*
X395412862Y-15283466D01*
X394885439Y-15065000D01*
X394314561Y-15065000D01*
X393787138Y-15283466D01*
X393383466Y-15687138D01*
X393165000Y-16214561D01*
X393165000Y-16785439D01*
X393383466Y-17312862D01*
X393787138Y-17716534D01*
X394314561Y-17935000D01*
X394885439Y-17935000D01*
X394938302Y-17913104D01*
X396109673Y-19084476D01*
X396152071Y-19147929D01*
X396215524Y-19190327D01*
X396215526Y-19190329D01*
X396327280Y-19265000D01*
X352485856Y-19265000D01*
X352646965Y-18816777D01*
X352619778Y-18246546D01*
X352614830Y-18234600D01*
X358925653Y-18234600D01*
X359000500Y-18249488D01*
X359075347Y-18234600D01*
X359075352Y-18234600D01*
X359297037Y-18190504D01*
X359548429Y-18022529D01*
X359590831Y-17959070D01*
X367415302Y-10134600D01*
X368965569Y-10134600D01*
X368952560Y-10200000D01*
X368952560Y-11800000D01*
X369001843Y-12047765D01*
X369142191Y-12257809D01*
X369352235Y-12398157D01*
X369600000Y-12447440D01*
X371200000Y-12447440D01*
X371447765Y-12398157D01*
X371519454Y-12350255D01*
X377313471Y-18144273D01*
X377355871Y-18207729D01*
X377607263Y-18375704D01*
X377828948Y-18419800D01*
X377828952Y-18419800D01*
X377903799Y-18434688D01*
X377978646Y-18419800D01*
X386550053Y-18419800D01*
X386624900Y-18434688D01*
X386699747Y-18419800D01*
X386699752Y-18419800D01*
X386921437Y-18375704D01*
X387172829Y-18207729D01*
X387215231Y-18144270D01*
X391983073Y-13376429D01*
X392046529Y-13334029D01*
X392214504Y-13082637D01*
X392258600Y-12860952D01*
X392258600Y-12860948D01*
X392273488Y-12786100D01*
X392258600Y-12711252D01*
X392258600Y-11007745D01*
X392571861Y-11007745D01*
X392645995Y-11253864D01*
X393183223Y-11446965D01*
X393753454Y-11419778D01*
X394154005Y-11253864D01*
X394228139Y-11007745D01*
X393400000Y-10179605D01*
X392571861Y-11007745D01*
X392258600Y-11007745D01*
X392258600Y-10787881D01*
X392392255Y-10828139D01*
X393220395Y-10000000D01*
X393206253Y-9985858D01*
X393385858Y-9806253D01*
X393400000Y-9820395D01*
X393414143Y-9806253D01*
X393593748Y-9985858D01*
X393593748Y-9985858D01*
G37*
X393593748Y-9985858D02*
X393579605Y-10000000D01*
X394407745Y-10828139D01*
X394653864Y-10754005D01*
X394673969Y-10698070D01*
X396703000Y-12727102D01*
X396703001Y-15939248D01*
X396688112Y-16014100D01*
X396747097Y-16310637D01*
X396863603Y-16485000D01*
X396915072Y-16562029D01*
X396978528Y-16604429D01*
X398214098Y-17840000D01*
X397014803Y-17840000D01*
X396013104Y-16838302D01*
X396035000Y-16785439D01*
X396035000Y-16214561D01*
X395816534Y-15687138D01*
X395412862Y-15283466D01*
X394885439Y-15065000D01*
X394314561Y-15065000D01*
X393787138Y-15283466D01*
X393383466Y-15687138D01*
X393165000Y-16214561D01*
X393165000Y-16785439D01*
X393383466Y-17312862D01*
X393787138Y-17716534D01*
X394314561Y-17935000D01*
X394885439Y-17935000D01*
X394938302Y-17913104D01*
X396109673Y-19084476D01*
X396152071Y-19147929D01*
X396215524Y-19190327D01*
X396215526Y-19190329D01*
X396327280Y-19265000D01*
X352485856Y-19265000D01*
X352646965Y-18816777D01*
X352619778Y-18246546D01*
X352614830Y-18234600D01*
X358925653Y-18234600D01*
X359000500Y-18249488D01*
X359075347Y-18234600D01*
X359075352Y-18234600D01*
X359297037Y-18190504D01*
X359548429Y-18022529D01*
X359590831Y-17959070D01*
X367415302Y-10134600D01*
X368965569Y-10134600D01*
X368952560Y-10200000D01*
X368952560Y-11800000D01*
X369001843Y-12047765D01*
X369142191Y-12257809D01*
X369352235Y-12398157D01*
X369600000Y-12447440D01*
X371200000Y-12447440D01*
X371447765Y-12398157D01*
X371519454Y-12350255D01*
X377313471Y-18144273D01*
X377355871Y-18207729D01*
X377607263Y-18375704D01*
X377828948Y-18419800D01*
X377828952Y-18419800D01*
X377903799Y-18434688D01*
X377978646Y-18419800D01*
X386550053Y-18419800D01*
X386624900Y-18434688D01*
X386699747Y-18419800D01*
X386699752Y-18419800D01*
X386921437Y-18375704D01*
X387172829Y-18207729D01*
X387215231Y-18144270D01*
X391983073Y-13376429D01*
X392046529Y-13334029D01*
X392214504Y-13082637D01*
X392258600Y-12860952D01*
X392258600Y-12860948D01*
X392273488Y-12786100D01*
X392258600Y-12711252D01*
X392258600Y-11007745D01*
X392571861Y-11007745D01*
X392645995Y-11253864D01*
X393183223Y-11446965D01*
X393753454Y-11419778D01*
X394154005Y-11253864D01*
X394228139Y-11007745D01*
X393400000Y-10179605D01*
X392571861Y-11007745D01*
X392258600Y-11007745D01*
X392258600Y-10787881D01*
X392392255Y-10828139D01*
X393220395Y-10000000D01*
X393206253Y-9985858D01*
X393385858Y-9806253D01*
X393400000Y-9820395D01*
X393414143Y-9806253D01*
X393593748Y-9985858D01*
G36*
X158693748Y-18605858D02*
X158679605Y-18620000D01*
X158693748Y-18634142D01*
X158514142Y-18813748D01*
X158500000Y-18799605D01*
X158485858Y-18813748D01*
X158306252Y-18634142D01*
X158320395Y-18620000D01*
X158306252Y-18605858D01*
X158485858Y-18426253D01*
X158500000Y-18440395D01*
X158514143Y-18426253D01*
X158693748Y-18605858D01*
X158693748Y-18605858D01*
G37*
X158693748Y-18605858D02*
X158679605Y-18620000D01*
X158693748Y-18634142D01*
X158514142Y-18813748D01*
X158500000Y-18799605D01*
X158485858Y-18813748D01*
X158306252Y-18634142D01*
X158320395Y-18620000D01*
X158306252Y-18605858D01*
X158485858Y-18426253D01*
X158500000Y-18440395D01*
X158514143Y-18426253D01*
X158693748Y-18605858D01*
G36*
X351393748Y-18585858D02*
X351379605Y-18600000D01*
X351393748Y-18614142D01*
X351214142Y-18793748D01*
X351200000Y-18779605D01*
X351185858Y-18793748D01*
X351006252Y-18614142D01*
X351020395Y-18600000D01*
X351006253Y-18585858D01*
X351185858Y-18406253D01*
X351200000Y-18420395D01*
X351214143Y-18406253D01*
X351393748Y-18585858D01*
X351393748Y-18585858D01*
G37*
X351393748Y-18585858D02*
X351379605Y-18600000D01*
X351393748Y-18614142D01*
X351214142Y-18793748D01*
X351200000Y-18779605D01*
X351185858Y-18793748D01*
X351006252Y-18614142D01*
X351020395Y-18600000D01*
X351006253Y-18585858D01*
X351185858Y-18406253D01*
X351200000Y-18420395D01*
X351214143Y-18406253D01*
X351393748Y-18585858D01*
G36*
X313983466Y-3187138D02*
X313765000Y-3714561D01*
X313765000Y-4285439D01*
X313983466Y-4812862D01*
X314387138Y-5216534D01*
X314914561Y-5435000D01*
X315485439Y-5435000D01*
X315538302Y-5413103D01*
X315640001Y-5514803D01*
X315640001Y-8633270D01*
X315416777Y-8553035D01*
X314846546Y-8580222D01*
X314445995Y-8746136D01*
X314371861Y-8992255D01*
X315200000Y-9820395D01*
X315214143Y-9806253D01*
X315393748Y-9985858D01*
X315379605Y-10000000D01*
X315393748Y-10014142D01*
X315214143Y-10193748D01*
X315200000Y-10179605D01*
X314371861Y-11007745D01*
X314445995Y-11253864D01*
X314983223Y-11446965D01*
X315553454Y-11419778D01*
X315640000Y-11383929D01*
X315640000Y-15261570D01*
X315587138Y-15283466D01*
X315183466Y-15687138D01*
X314965000Y-16214561D01*
X314965000Y-16785439D01*
X315073342Y-17047000D01*
X309494199Y-17047000D01*
X309583113Y-16600000D01*
X309471740Y-16040091D01*
X309154577Y-15565423D01*
X308679909Y-15248260D01*
X308261333Y-15165000D01*
X307978667Y-15165000D01*
X307560091Y-15248260D01*
X307085423Y-15565423D01*
X306772519Y-16033717D01*
X303007208Y-12268407D01*
X303097423Y-12231041D01*
X303512389Y-11855134D01*
X303609053Y-11650892D01*
X303865423Y-12034577D01*
X304340091Y-12351740D01*
X304758667Y-12435000D01*
X305041333Y-12435000D01*
X305459909Y-12351740D01*
X305934577Y-12034577D01*
X306170000Y-11682242D01*
X306405423Y-12034577D01*
X306880091Y-12351740D01*
X307298667Y-12435000D01*
X307581333Y-12435000D01*
X307999909Y-12351740D01*
X308474577Y-12034577D01*
X308791740Y-11559909D01*
X308903113Y-11000000D01*
X308791740Y-10440091D01*
X308474577Y-9965423D01*
X308201896Y-9783223D01*
X313753035Y-9783223D01*
X313780222Y-10353454D01*
X313946136Y-10754005D01*
X314192255Y-10828139D01*
X315020395Y-10000000D01*
X314192255Y-9171861D01*
X313946136Y-9245995D01*
X313753035Y-9783223D01*
X308201896Y-9783223D01*
X307999909Y-9648260D01*
X307581333Y-9565000D01*
X307298667Y-9565000D01*
X306880091Y-9648260D01*
X306405423Y-9965423D01*
X306170000Y-10317758D01*
X305934577Y-9965423D01*
X305459909Y-9648260D01*
X305041333Y-9565000D01*
X304758667Y-9565000D01*
X304340091Y-9648260D01*
X303865423Y-9965423D01*
X303609053Y-10349108D01*
X303512389Y-10144866D01*
X303097423Y-9768959D01*
X302709039Y-9608096D01*
X302487000Y-9730085D01*
X302487000Y-10873000D01*
X302507000Y-10873000D01*
X302507000Y-11127000D01*
X302487000Y-11127000D01*
X302487000Y-11147000D01*
X302233000Y-11147000D01*
X302233000Y-11127000D01*
X302213000Y-11127000D01*
X302213000Y-10873000D01*
X302233000Y-10873000D01*
X302233000Y-9730085D01*
X302010961Y-9608096D01*
X301622577Y-9768959D01*
X301207611Y-10144866D01*
X301150330Y-10265894D01*
X301040786Y-10244104D01*
X300854577Y-9965423D01*
X300379909Y-9648260D01*
X299961333Y-9565000D01*
X299678667Y-9565000D01*
X299260091Y-9648260D01*
X298785423Y-9965423D01*
X298599214Y-10244104D01*
X298489670Y-10265894D01*
X298432389Y-10144866D01*
X298345839Y-10066462D01*
X303944732Y-4467570D01*
X304340091Y-4731740D01*
X304758667Y-4815000D01*
X305041333Y-4815000D01*
X305459909Y-4731740D01*
X305934577Y-4414577D01*
X306120786Y-4135896D01*
X306207667Y-4118614D01*
X306405423Y-4414577D01*
X306880091Y-4731740D01*
X307298667Y-4815000D01*
X307581333Y-4815000D01*
X307999909Y-4731740D01*
X308474577Y-4414577D01*
X308791740Y-3939909D01*
X308903113Y-3380000D01*
X308828580Y-3005300D01*
X314165304Y-3005300D01*
X313983466Y-3187138D01*
X313983466Y-3187138D01*
G37*
X313983466Y-3187138D02*
X313765000Y-3714561D01*
X313765000Y-4285439D01*
X313983466Y-4812862D01*
X314387138Y-5216534D01*
X314914561Y-5435000D01*
X315485439Y-5435000D01*
X315538302Y-5413103D01*
X315640001Y-5514803D01*
X315640001Y-8633270D01*
X315416777Y-8553035D01*
X314846546Y-8580222D01*
X314445995Y-8746136D01*
X314371861Y-8992255D01*
X315200000Y-9820395D01*
X315214143Y-9806253D01*
X315393748Y-9985858D01*
X315379605Y-10000000D01*
X315393748Y-10014142D01*
X315214143Y-10193748D01*
X315200000Y-10179605D01*
X314371861Y-11007745D01*
X314445995Y-11253864D01*
X314983223Y-11446965D01*
X315553454Y-11419778D01*
X315640000Y-11383929D01*
X315640000Y-15261570D01*
X315587138Y-15283466D01*
X315183466Y-15687138D01*
X314965000Y-16214561D01*
X314965000Y-16785439D01*
X315073342Y-17047000D01*
X309494199Y-17047000D01*
X309583113Y-16600000D01*
X309471740Y-16040091D01*
X309154577Y-15565423D01*
X308679909Y-15248260D01*
X308261333Y-15165000D01*
X307978667Y-15165000D01*
X307560091Y-15248260D01*
X307085423Y-15565423D01*
X306772519Y-16033717D01*
X303007208Y-12268407D01*
X303097423Y-12231041D01*
X303512389Y-11855134D01*
X303609053Y-11650892D01*
X303865423Y-12034577D01*
X304340091Y-12351740D01*
X304758667Y-12435000D01*
X305041333Y-12435000D01*
X305459909Y-12351740D01*
X305934577Y-12034577D01*
X306170000Y-11682242D01*
X306405423Y-12034577D01*
X306880091Y-12351740D01*
X307298667Y-12435000D01*
X307581333Y-12435000D01*
X307999909Y-12351740D01*
X308474577Y-12034577D01*
X308791740Y-11559909D01*
X308903113Y-11000000D01*
X308791740Y-10440091D01*
X308474577Y-9965423D01*
X308201896Y-9783223D01*
X313753035Y-9783223D01*
X313780222Y-10353454D01*
X313946136Y-10754005D01*
X314192255Y-10828139D01*
X315020395Y-10000000D01*
X314192255Y-9171861D01*
X313946136Y-9245995D01*
X313753035Y-9783223D01*
X308201896Y-9783223D01*
X307999909Y-9648260D01*
X307581333Y-9565000D01*
X307298667Y-9565000D01*
X306880091Y-9648260D01*
X306405423Y-9965423D01*
X306170000Y-10317758D01*
X305934577Y-9965423D01*
X305459909Y-9648260D01*
X305041333Y-9565000D01*
X304758667Y-9565000D01*
X304340091Y-9648260D01*
X303865423Y-9965423D01*
X303609053Y-10349108D01*
X303512389Y-10144866D01*
X303097423Y-9768959D01*
X302709039Y-9608096D01*
X302487000Y-9730085D01*
X302487000Y-10873000D01*
X302507000Y-10873000D01*
X302507000Y-11127000D01*
X302487000Y-11127000D01*
X302487000Y-11147000D01*
X302233000Y-11147000D01*
X302233000Y-11127000D01*
X302213000Y-11127000D01*
X302213000Y-10873000D01*
X302233000Y-10873000D01*
X302233000Y-9730085D01*
X302010961Y-9608096D01*
X301622577Y-9768959D01*
X301207611Y-10144866D01*
X301150330Y-10265894D01*
X301040786Y-10244104D01*
X300854577Y-9965423D01*
X300379909Y-9648260D01*
X299961333Y-9565000D01*
X299678667Y-9565000D01*
X299260091Y-9648260D01*
X298785423Y-9965423D01*
X298599214Y-10244104D01*
X298489670Y-10265894D01*
X298432389Y-10144866D01*
X298345839Y-10066462D01*
X303944732Y-4467570D01*
X304340091Y-4731740D01*
X304758667Y-4815000D01*
X305041333Y-4815000D01*
X305459909Y-4731740D01*
X305934577Y-4414577D01*
X306120786Y-4135896D01*
X306207667Y-4118614D01*
X306405423Y-4414577D01*
X306880091Y-4731740D01*
X307298667Y-4815000D01*
X307581333Y-4815000D01*
X307999909Y-4731740D01*
X308474577Y-4414577D01*
X308791740Y-3939909D01*
X308903113Y-3380000D01*
X308828580Y-3005300D01*
X314165304Y-3005300D01*
X313983466Y-3187138D01*
G36*
X390524371Y-832071D02*
X390481971Y-895527D01*
X381460664Y-9916835D01*
X381297423Y-9768959D01*
X380909039Y-9608096D01*
X380687000Y-9730085D01*
X380687000Y-10873000D01*
X380707000Y-10873000D01*
X380707000Y-11127000D01*
X380687000Y-11127000D01*
X380687000Y-11147000D01*
X380433000Y-11147000D01*
X380433000Y-11127000D01*
X380413000Y-11127000D01*
X380413000Y-10873000D01*
X380433000Y-10873000D01*
X380433000Y-9730085D01*
X380210961Y-9608096D01*
X379822577Y-9768959D01*
X379407611Y-10144866D01*
X379310947Y-10349108D01*
X379054577Y-9965423D01*
X378579909Y-9648260D01*
X378161333Y-9565000D01*
X377878667Y-9565000D01*
X377696114Y-9601312D01*
X376984931Y-8890130D01*
X376942529Y-8826671D01*
X376691137Y-8658696D01*
X376469452Y-8614600D01*
X376469447Y-8614600D01*
X376394600Y-8599712D01*
X376319753Y-8614600D01*
X367175347Y-8614600D01*
X367100500Y-8599712D01*
X367025653Y-8614600D01*
X367025648Y-8614600D01*
X366803963Y-8658696D01*
X366552571Y-8826671D01*
X366510171Y-8890127D01*
X358685699Y-16714600D01*
X348149801Y-16714600D01*
X352811373Y-12053029D01*
X352874829Y-12010629D01*
X353042804Y-11759237D01*
X353086900Y-11537552D01*
X353086900Y-11537547D01*
X353101788Y-11462700D01*
X353086900Y-11387853D01*
X353086900Y-6107048D01*
X353101788Y-6032200D01*
X353086900Y-5957352D01*
X353086900Y-5957348D01*
X353042804Y-5735663D01*
X353042804Y-5735662D01*
X352917229Y-5547727D01*
X352874829Y-5484271D01*
X352811373Y-5441871D01*
X350749502Y-3380000D01*
X368936887Y-3380000D01*
X369048260Y-3939909D01*
X369365423Y-4414577D01*
X369840091Y-4731740D01*
X370258667Y-4815000D01*
X370541333Y-4815000D01*
X370959909Y-4731740D01*
X371434577Y-4414577D01*
X371670000Y-4062242D01*
X371905423Y-4414577D01*
X372380091Y-4731740D01*
X372798667Y-4815000D01*
X373081333Y-4815000D01*
X373499909Y-4731740D01*
X373974577Y-4414577D01*
X374230947Y-4030892D01*
X374327611Y-4235134D01*
X374742577Y-4611041D01*
X375130961Y-4771904D01*
X375353000Y-4649915D01*
X375353000Y-3507000D01*
X375333000Y-3507000D01*
X375333000Y-3253000D01*
X375353000Y-3253000D01*
X375353000Y-2110085D01*
X375607000Y-2110085D01*
X375607000Y-3253000D01*
X375627000Y-3253000D01*
X375627000Y-3507000D01*
X375607000Y-3507000D01*
X375607000Y-4649915D01*
X375829039Y-4771904D01*
X376217423Y-4611041D01*
X376632389Y-4235134D01*
X376729053Y-4030892D01*
X376985423Y-4414577D01*
X377460091Y-4731740D01*
X377878667Y-4815000D01*
X378161333Y-4815000D01*
X378579909Y-4731740D01*
X379054577Y-4414577D01*
X379290000Y-4062242D01*
X379525423Y-4414577D01*
X380000091Y-4731740D01*
X380418667Y-4815000D01*
X380701333Y-4815000D01*
X381119909Y-4731740D01*
X381594577Y-4414577D01*
X381830000Y-4062242D01*
X382065423Y-4414577D01*
X382540091Y-4731740D01*
X382958667Y-4815000D01*
X383241333Y-4815000D01*
X383659909Y-4731740D01*
X384134577Y-4414577D01*
X384370000Y-4062242D01*
X384605423Y-4414577D01*
X385080091Y-4731740D01*
X385498667Y-4815000D01*
X385781333Y-4815000D01*
X386199909Y-4731740D01*
X386674577Y-4414577D01*
X386991740Y-3939909D01*
X387103113Y-3380000D01*
X386991740Y-2820091D01*
X386674577Y-2345423D01*
X386199909Y-2028260D01*
X385781333Y-1945000D01*
X385498667Y-1945000D01*
X385080091Y-2028260D01*
X384605423Y-2345423D01*
X384370000Y-2697758D01*
X384134577Y-2345423D01*
X383659909Y-2028260D01*
X383241333Y-1945000D01*
X382958667Y-1945000D01*
X382540091Y-2028260D01*
X382065423Y-2345423D01*
X381830000Y-2697758D01*
X381594577Y-2345423D01*
X381119909Y-2028260D01*
X380701333Y-1945000D01*
X380418667Y-1945000D01*
X380000091Y-2028260D01*
X379525423Y-2345423D01*
X379290000Y-2697758D01*
X379054577Y-2345423D01*
X378579909Y-2028260D01*
X378161333Y-1945000D01*
X377878667Y-1945000D01*
X377460091Y-2028260D01*
X376985423Y-2345423D01*
X376729053Y-2729108D01*
X376632389Y-2524866D01*
X376217423Y-2148959D01*
X375829039Y-1988096D01*
X375607000Y-2110085D01*
X375353000Y-2110085D01*
X375130961Y-1988096D01*
X374742577Y-2148959D01*
X374327611Y-2524866D01*
X374230947Y-2729108D01*
X373974577Y-2345423D01*
X373499909Y-2028260D01*
X373081333Y-1945000D01*
X372798667Y-1945000D01*
X372380091Y-2028260D01*
X371905423Y-2345423D01*
X371670000Y-2697758D01*
X371434577Y-2345423D01*
X370959909Y-2028260D01*
X370541333Y-1945000D01*
X370258667Y-1945000D01*
X369840091Y-2028260D01*
X369365423Y-2345423D01*
X369048260Y-2820091D01*
X368936887Y-3380000D01*
X350749502Y-3380000D01*
X349804305Y-2434804D01*
X349834577Y-2414577D01*
X350151740Y-1939909D01*
X350263113Y-1380000D01*
X350151740Y-820091D01*
X350094884Y-735000D01*
X390669648Y-735000D01*
X390524371Y-832071D01*
X390524371Y-832071D01*
G37*
X390524371Y-832071D02*
X390481971Y-895527D01*
X381460664Y-9916835D01*
X381297423Y-9768959D01*
X380909039Y-9608096D01*
X380687000Y-9730085D01*
X380687000Y-10873000D01*
X380707000Y-10873000D01*
X380707000Y-11127000D01*
X380687000Y-11127000D01*
X380687000Y-11147000D01*
X380433000Y-11147000D01*
X380433000Y-11127000D01*
X380413000Y-11127000D01*
X380413000Y-10873000D01*
X380433000Y-10873000D01*
X380433000Y-9730085D01*
X380210961Y-9608096D01*
X379822577Y-9768959D01*
X379407611Y-10144866D01*
X379310947Y-10349108D01*
X379054577Y-9965423D01*
X378579909Y-9648260D01*
X378161333Y-9565000D01*
X377878667Y-9565000D01*
X377696114Y-9601312D01*
X376984931Y-8890130D01*
X376942529Y-8826671D01*
X376691137Y-8658696D01*
X376469452Y-8614600D01*
X376469447Y-8614600D01*
X376394600Y-8599712D01*
X376319753Y-8614600D01*
X367175347Y-8614600D01*
X367100500Y-8599712D01*
X367025653Y-8614600D01*
X367025648Y-8614600D01*
X366803963Y-8658696D01*
X366552571Y-8826671D01*
X366510171Y-8890127D01*
X358685699Y-16714600D01*
X348149801Y-16714600D01*
X352811373Y-12053029D01*
X352874829Y-12010629D01*
X353042804Y-11759237D01*
X353086900Y-11537552D01*
X353086900Y-11537547D01*
X353101788Y-11462700D01*
X353086900Y-11387853D01*
X353086900Y-6107048D01*
X353101788Y-6032200D01*
X353086900Y-5957352D01*
X353086900Y-5957348D01*
X353042804Y-5735663D01*
X353042804Y-5735662D01*
X352917229Y-5547727D01*
X352874829Y-5484271D01*
X352811373Y-5441871D01*
X350749502Y-3380000D01*
X368936887Y-3380000D01*
X369048260Y-3939909D01*
X369365423Y-4414577D01*
X369840091Y-4731740D01*
X370258667Y-4815000D01*
X370541333Y-4815000D01*
X370959909Y-4731740D01*
X371434577Y-4414577D01*
X371670000Y-4062242D01*
X371905423Y-4414577D01*
X372380091Y-4731740D01*
X372798667Y-4815000D01*
X373081333Y-4815000D01*
X373499909Y-4731740D01*
X373974577Y-4414577D01*
X374230947Y-4030892D01*
X374327611Y-4235134D01*
X374742577Y-4611041D01*
X375130961Y-4771904D01*
X375353000Y-4649915D01*
X375353000Y-3507000D01*
X375333000Y-3507000D01*
X375333000Y-3253000D01*
X375353000Y-3253000D01*
X375353000Y-2110085D01*
X375607000Y-2110085D01*
X375607000Y-3253000D01*
X375627000Y-3253000D01*
X375627000Y-3507000D01*
X375607000Y-3507000D01*
X375607000Y-4649915D01*
X375829039Y-4771904D01*
X376217423Y-4611041D01*
X376632389Y-4235134D01*
X376729053Y-4030892D01*
X376985423Y-4414577D01*
X377460091Y-4731740D01*
X377878667Y-4815000D01*
X378161333Y-4815000D01*
X378579909Y-4731740D01*
X379054577Y-4414577D01*
X379290000Y-4062242D01*
X379525423Y-4414577D01*
X380000091Y-4731740D01*
X380418667Y-4815000D01*
X380701333Y-4815000D01*
X381119909Y-4731740D01*
X381594577Y-4414577D01*
X381830000Y-4062242D01*
X382065423Y-4414577D01*
X382540091Y-4731740D01*
X382958667Y-4815000D01*
X383241333Y-4815000D01*
X383659909Y-4731740D01*
X384134577Y-4414577D01*
X384370000Y-4062242D01*
X384605423Y-4414577D01*
X385080091Y-4731740D01*
X385498667Y-4815000D01*
X385781333Y-4815000D01*
X386199909Y-4731740D01*
X386674577Y-4414577D01*
X386991740Y-3939909D01*
X387103113Y-3380000D01*
X386991740Y-2820091D01*
X386674577Y-2345423D01*
X386199909Y-2028260D01*
X385781333Y-1945000D01*
X385498667Y-1945000D01*
X385080091Y-2028260D01*
X384605423Y-2345423D01*
X384370000Y-2697758D01*
X384134577Y-2345423D01*
X383659909Y-2028260D01*
X383241333Y-1945000D01*
X382958667Y-1945000D01*
X382540091Y-2028260D01*
X382065423Y-2345423D01*
X381830000Y-2697758D01*
X381594577Y-2345423D01*
X381119909Y-2028260D01*
X380701333Y-1945000D01*
X380418667Y-1945000D01*
X380000091Y-2028260D01*
X379525423Y-2345423D01*
X379290000Y-2697758D01*
X379054577Y-2345423D01*
X378579909Y-2028260D01*
X378161333Y-1945000D01*
X377878667Y-1945000D01*
X377460091Y-2028260D01*
X376985423Y-2345423D01*
X376729053Y-2729108D01*
X376632389Y-2524866D01*
X376217423Y-2148959D01*
X375829039Y-1988096D01*
X375607000Y-2110085D01*
X375353000Y-2110085D01*
X375130961Y-1988096D01*
X374742577Y-2148959D01*
X374327611Y-2524866D01*
X374230947Y-2729108D01*
X373974577Y-2345423D01*
X373499909Y-2028260D01*
X373081333Y-1945000D01*
X372798667Y-1945000D01*
X372380091Y-2028260D01*
X371905423Y-2345423D01*
X371670000Y-2697758D01*
X371434577Y-2345423D01*
X370959909Y-2028260D01*
X370541333Y-1945000D01*
X370258667Y-1945000D01*
X369840091Y-2028260D01*
X369365423Y-2345423D01*
X369048260Y-2820091D01*
X368936887Y-3380000D01*
X350749502Y-3380000D01*
X349804305Y-2434804D01*
X349834577Y-2414577D01*
X350151740Y-1939909D01*
X350263113Y-1380000D01*
X350151740Y-820091D01*
X350094884Y-735000D01*
X390669648Y-735000D01*
X390524371Y-832071D01*
G36*
X90148260Y-2820091D02*
X90036887Y-3380000D01*
X90148260Y-3939909D01*
X90465423Y-4414577D01*
X90940091Y-4731740D01*
X91358667Y-4815000D01*
X91641333Y-4815000D01*
X92059909Y-4731740D01*
X92534577Y-4414577D01*
X92770000Y-4062242D01*
X93005423Y-4414577D01*
X93480091Y-4731740D01*
X93898667Y-4815000D01*
X94181333Y-4815000D01*
X94599909Y-4731740D01*
X95074577Y-4414577D01*
X95330947Y-4030892D01*
X95427611Y-4235134D01*
X95842577Y-4611041D01*
X96230961Y-4771904D01*
X96453000Y-4649915D01*
X96453000Y-3507000D01*
X96433000Y-3507000D01*
X96433000Y-3253000D01*
X96453000Y-3253000D01*
X96453000Y-3233000D01*
X96707000Y-3233000D01*
X96707000Y-3253000D01*
X96727000Y-3253000D01*
X96727000Y-3507000D01*
X96707000Y-3507000D01*
X96707000Y-4649915D01*
X96929039Y-4771904D01*
X97317423Y-4611041D01*
X97732389Y-4235134D01*
X97829053Y-4030892D01*
X98085423Y-4414577D01*
X98560091Y-4731740D01*
X98978667Y-4815000D01*
X99261333Y-4815000D01*
X99679909Y-4731740D01*
X100016222Y-4507023D01*
X100952371Y-5443173D01*
X100994771Y-5506629D01*
X101058227Y-5549029D01*
X101246162Y-5674604D01*
X101294305Y-5684180D01*
X101467848Y-5718700D01*
X101467852Y-5718700D01*
X101542700Y-5733588D01*
X101617548Y-5718700D01*
X108500153Y-5718700D01*
X108575000Y-5733588D01*
X108649847Y-5718700D01*
X108649852Y-5718700D01*
X108871537Y-5674604D01*
X109122929Y-5506629D01*
X109165331Y-5443170D01*
X110044602Y-4563900D01*
X110532653Y-4563900D01*
X110445908Y-5000000D01*
X110561161Y-5579418D01*
X110889375Y-6070625D01*
X111187761Y-6270000D01*
X110889375Y-6469375D01*
X110561161Y-6960582D01*
X110445908Y-7540000D01*
X110561161Y-8119418D01*
X110889375Y-8610625D01*
X111187761Y-8810000D01*
X110889375Y-9009375D01*
X110561161Y-9500582D01*
X110445908Y-10080000D01*
X110561161Y-10659418D01*
X110889375Y-11150625D01*
X111187761Y-11350000D01*
X110889375Y-11549375D01*
X110561161Y-12040582D01*
X110445908Y-12620000D01*
X110561161Y-13199418D01*
X110889375Y-13690625D01*
X111187761Y-13890000D01*
X110889375Y-14089375D01*
X110561161Y-14580582D01*
X110445908Y-15160000D01*
X110561161Y-15739418D01*
X110755054Y-16029600D01*
X107849701Y-16029600D01*
X107835631Y-16015530D01*
X107793229Y-15952071D01*
X107541837Y-15784096D01*
X107340786Y-15744104D01*
X107154577Y-15465423D01*
X106880000Y-15281957D01*
X106880000Y-12435000D01*
X106881333Y-12435000D01*
X107299909Y-12351740D01*
X107774577Y-12034577D01*
X108091740Y-11559909D01*
X108203113Y-11000000D01*
X108091740Y-10440091D01*
X107774577Y-9965423D01*
X107299909Y-9648260D01*
X106881333Y-9565000D01*
X106598667Y-9565000D01*
X106180091Y-9648260D01*
X105843838Y-9872937D01*
X105361131Y-9390230D01*
X105318729Y-9326771D01*
X105067337Y-9158796D01*
X104845652Y-9114700D01*
X104845647Y-9114700D01*
X104770800Y-9099812D01*
X104695953Y-9114700D01*
X103762847Y-9114700D01*
X103688000Y-9099812D01*
X103613153Y-9114700D01*
X103613148Y-9114700D01*
X103391463Y-9158796D01*
X103140071Y-9326771D01*
X103097671Y-9390227D01*
X102566121Y-9921778D01*
X102397423Y-9768959D01*
X102009039Y-9608096D01*
X101787000Y-9730085D01*
X101787000Y-10873000D01*
X101807000Y-10873000D01*
X101807000Y-11127000D01*
X101787000Y-11127000D01*
X101787000Y-11147000D01*
X101533000Y-11147000D01*
X101533000Y-11127000D01*
X101513000Y-11127000D01*
X101513000Y-10873000D01*
X101533000Y-10873000D01*
X101533000Y-9730085D01*
X101310961Y-9608096D01*
X100922577Y-9768959D01*
X100732997Y-9940695D01*
X100182431Y-9390130D01*
X100140029Y-9326671D01*
X99888637Y-9158696D01*
X99666952Y-9114600D01*
X99666947Y-9114600D01*
X99592100Y-9099712D01*
X99517253Y-9114600D01*
X98651248Y-9114600D01*
X98576400Y-9099712D01*
X98501552Y-9114600D01*
X98501548Y-9114600D01*
X98332328Y-9148260D01*
X98279862Y-9158696D01*
X98118267Y-9266671D01*
X98028471Y-9326671D01*
X97986071Y-9390127D01*
X97469488Y-9906711D01*
X97317423Y-9768959D01*
X96929039Y-9608096D01*
X96707000Y-9730085D01*
X96707000Y-10873000D01*
X96727000Y-10873000D01*
X96727000Y-11127000D01*
X96707000Y-11127000D01*
X96707000Y-11147000D01*
X96453000Y-11147000D01*
X96453000Y-11127000D01*
X96433000Y-11127000D01*
X96433000Y-10873000D01*
X96453000Y-10873000D01*
X96453000Y-9730085D01*
X96230961Y-9608096D01*
X95842577Y-9768959D01*
X95427611Y-10144866D01*
X95330947Y-10349108D01*
X95074577Y-9965423D01*
X94599909Y-9648260D01*
X94181333Y-9565000D01*
X93898667Y-9565000D01*
X93480091Y-9648260D01*
X93396749Y-9703947D01*
X91268231Y-7575430D01*
X91225829Y-7511971D01*
X90974437Y-7343996D01*
X90752752Y-7299900D01*
X90752747Y-7299900D01*
X90677900Y-7285012D01*
X90603053Y-7299900D01*
X81614746Y-7299900D01*
X81539899Y-7285012D01*
X81465052Y-7299900D01*
X81465048Y-7299900D01*
X81243363Y-7343996D01*
X80991971Y-7511971D01*
X80949571Y-7575427D01*
X80398199Y-8126800D01*
X74792278Y-8126800D01*
X74828139Y-8007745D01*
X74000000Y-7179605D01*
X73171861Y-8007745D01*
X73207722Y-8126800D01*
X69902596Y-8126800D01*
X70216534Y-7812862D01*
X70435000Y-7285439D01*
X70435000Y-6783223D01*
X72553035Y-6783223D01*
X72580222Y-7353454D01*
X72746136Y-7754005D01*
X72992255Y-7828139D01*
X73820395Y-7000000D01*
X74179605Y-7000000D01*
X75007745Y-7828139D01*
X75253864Y-7754005D01*
X75446965Y-7216777D01*
X75419778Y-6646546D01*
X75253864Y-6245995D01*
X75007745Y-6171861D01*
X74179605Y-7000000D01*
X73820395Y-7000000D01*
X72992255Y-6171861D01*
X72746136Y-6245995D01*
X72553035Y-6783223D01*
X70435000Y-6783223D01*
X70435000Y-6714561D01*
X70216534Y-6187138D01*
X70021651Y-5992255D01*
X73171861Y-5992255D01*
X74000000Y-6820395D01*
X74828139Y-5992255D01*
X74754005Y-5746136D01*
X74216777Y-5553035D01*
X73646546Y-5580222D01*
X73245995Y-5746136D01*
X73171861Y-5992255D01*
X70021651Y-5992255D01*
X69812862Y-5783466D01*
X69285439Y-5565000D01*
X68714561Y-5565000D01*
X68518825Y-5646077D01*
X71623502Y-2541400D01*
X90334475Y-2541400D01*
X90148260Y-2820091D01*
X90148260Y-2820091D01*
G37*
X90148260Y-2820091D02*
X90036887Y-3380000D01*
X90148260Y-3939909D01*
X90465423Y-4414577D01*
X90940091Y-4731740D01*
X91358667Y-4815000D01*
X91641333Y-4815000D01*
X92059909Y-4731740D01*
X92534577Y-4414577D01*
X92770000Y-4062242D01*
X93005423Y-4414577D01*
X93480091Y-4731740D01*
X93898667Y-4815000D01*
X94181333Y-4815000D01*
X94599909Y-4731740D01*
X95074577Y-4414577D01*
X95330947Y-4030892D01*
X95427611Y-4235134D01*
X95842577Y-4611041D01*
X96230961Y-4771904D01*
X96453000Y-4649915D01*
X96453000Y-3507000D01*
X96433000Y-3507000D01*
X96433000Y-3253000D01*
X96453000Y-3253000D01*
X96453000Y-3233000D01*
X96707000Y-3233000D01*
X96707000Y-3253000D01*
X96727000Y-3253000D01*
X96727000Y-3507000D01*
X96707000Y-3507000D01*
X96707000Y-4649915D01*
X96929039Y-4771904D01*
X97317423Y-4611041D01*
X97732389Y-4235134D01*
X97829053Y-4030892D01*
X98085423Y-4414577D01*
X98560091Y-4731740D01*
X98978667Y-4815000D01*
X99261333Y-4815000D01*
X99679909Y-4731740D01*
X100016222Y-4507023D01*
X100952371Y-5443173D01*
X100994771Y-5506629D01*
X101058227Y-5549029D01*
X101246162Y-5674604D01*
X101294305Y-5684180D01*
X101467848Y-5718700D01*
X101467852Y-5718700D01*
X101542700Y-5733588D01*
X101617548Y-5718700D01*
X108500153Y-5718700D01*
X108575000Y-5733588D01*
X108649847Y-5718700D01*
X108649852Y-5718700D01*
X108871537Y-5674604D01*
X109122929Y-5506629D01*
X109165331Y-5443170D01*
X110044602Y-4563900D01*
X110532653Y-4563900D01*
X110445908Y-5000000D01*
X110561161Y-5579418D01*
X110889375Y-6070625D01*
X111187761Y-6270000D01*
X110889375Y-6469375D01*
X110561161Y-6960582D01*
X110445908Y-7540000D01*
X110561161Y-8119418D01*
X110889375Y-8610625D01*
X111187761Y-8810000D01*
X110889375Y-9009375D01*
X110561161Y-9500582D01*
X110445908Y-10080000D01*
X110561161Y-10659418D01*
X110889375Y-11150625D01*
X111187761Y-11350000D01*
X110889375Y-11549375D01*
X110561161Y-12040582D01*
X110445908Y-12620000D01*
X110561161Y-13199418D01*
X110889375Y-13690625D01*
X111187761Y-13890000D01*
X110889375Y-14089375D01*
X110561161Y-14580582D01*
X110445908Y-15160000D01*
X110561161Y-15739418D01*
X110755054Y-16029600D01*
X107849701Y-16029600D01*
X107835631Y-16015530D01*
X107793229Y-15952071D01*
X107541837Y-15784096D01*
X107340786Y-15744104D01*
X107154577Y-15465423D01*
X106880000Y-15281957D01*
X106880000Y-12435000D01*
X106881333Y-12435000D01*
X107299909Y-12351740D01*
X107774577Y-12034577D01*
X108091740Y-11559909D01*
X108203113Y-11000000D01*
X108091740Y-10440091D01*
X107774577Y-9965423D01*
X107299909Y-9648260D01*
X106881333Y-9565000D01*
X106598667Y-9565000D01*
X106180091Y-9648260D01*
X105843838Y-9872937D01*
X105361131Y-9390230D01*
X105318729Y-9326771D01*
X105067337Y-9158796D01*
X104845652Y-9114700D01*
X104845647Y-9114700D01*
X104770800Y-9099812D01*
X104695953Y-9114700D01*
X103762847Y-9114700D01*
X103688000Y-9099812D01*
X103613153Y-9114700D01*
X103613148Y-9114700D01*
X103391463Y-9158796D01*
X103140071Y-9326771D01*
X103097671Y-9390227D01*
X102566121Y-9921778D01*
X102397423Y-9768959D01*
X102009039Y-9608096D01*
X101787000Y-9730085D01*
X101787000Y-10873000D01*
X101807000Y-10873000D01*
X101807000Y-11127000D01*
X101787000Y-11127000D01*
X101787000Y-11147000D01*
X101533000Y-11147000D01*
X101533000Y-11127000D01*
X101513000Y-11127000D01*
X101513000Y-10873000D01*
X101533000Y-10873000D01*
X101533000Y-9730085D01*
X101310961Y-9608096D01*
X100922577Y-9768959D01*
X100732997Y-9940695D01*
X100182431Y-9390130D01*
X100140029Y-9326671D01*
X99888637Y-9158696D01*
X99666952Y-9114600D01*
X99666947Y-9114600D01*
X99592100Y-9099712D01*
X99517253Y-9114600D01*
X98651248Y-9114600D01*
X98576400Y-9099712D01*
X98501552Y-9114600D01*
X98501548Y-9114600D01*
X98332328Y-9148260D01*
X98279862Y-9158696D01*
X98118267Y-9266671D01*
X98028471Y-9326671D01*
X97986071Y-9390127D01*
X97469488Y-9906711D01*
X97317423Y-9768959D01*
X96929039Y-9608096D01*
X96707000Y-9730085D01*
X96707000Y-10873000D01*
X96727000Y-10873000D01*
X96727000Y-11127000D01*
X96707000Y-11127000D01*
X96707000Y-11147000D01*
X96453000Y-11147000D01*
X96453000Y-11127000D01*
X96433000Y-11127000D01*
X96433000Y-10873000D01*
X96453000Y-10873000D01*
X96453000Y-9730085D01*
X96230961Y-9608096D01*
X95842577Y-9768959D01*
X95427611Y-10144866D01*
X95330947Y-10349108D01*
X95074577Y-9965423D01*
X94599909Y-9648260D01*
X94181333Y-9565000D01*
X93898667Y-9565000D01*
X93480091Y-9648260D01*
X93396749Y-9703947D01*
X91268231Y-7575430D01*
X91225829Y-7511971D01*
X90974437Y-7343996D01*
X90752752Y-7299900D01*
X90752747Y-7299900D01*
X90677900Y-7285012D01*
X90603053Y-7299900D01*
X81614746Y-7299900D01*
X81539899Y-7285012D01*
X81465052Y-7299900D01*
X81465048Y-7299900D01*
X81243363Y-7343996D01*
X80991971Y-7511971D01*
X80949571Y-7575427D01*
X80398199Y-8126800D01*
X74792278Y-8126800D01*
X74828139Y-8007745D01*
X74000000Y-7179605D01*
X73171861Y-8007745D01*
X73207722Y-8126800D01*
X69902596Y-8126800D01*
X70216534Y-7812862D01*
X70435000Y-7285439D01*
X70435000Y-6783223D01*
X72553035Y-6783223D01*
X72580222Y-7353454D01*
X72746136Y-7754005D01*
X72992255Y-7828139D01*
X73820395Y-7000000D01*
X74179605Y-7000000D01*
X75007745Y-7828139D01*
X75253864Y-7754005D01*
X75446965Y-7216777D01*
X75419778Y-6646546D01*
X75253864Y-6245995D01*
X75007745Y-6171861D01*
X74179605Y-7000000D01*
X73820395Y-7000000D01*
X72992255Y-6171861D01*
X72746136Y-6245995D01*
X72553035Y-6783223D01*
X70435000Y-6783223D01*
X70435000Y-6714561D01*
X70216534Y-6187138D01*
X70021651Y-5992255D01*
X73171861Y-5992255D01*
X74000000Y-6820395D01*
X74828139Y-5992255D01*
X74754005Y-5746136D01*
X74216777Y-5553035D01*
X73646546Y-5580222D01*
X73245995Y-5746136D01*
X73171861Y-5992255D01*
X70021651Y-5992255D01*
X69812862Y-5783466D01*
X69285439Y-5565000D01*
X68714561Y-5565000D01*
X68518825Y-5646077D01*
X71623502Y-2541400D01*
X90334475Y-2541400D01*
X90148260Y-2820091D01*
G36*
X74193748Y-12985858D02*
X74179605Y-13000000D01*
X74193748Y-13014143D01*
X74014143Y-13193748D01*
X74000000Y-13179605D01*
X73985858Y-13193748D01*
X73806253Y-13014143D01*
X73820395Y-13000000D01*
X73806253Y-12985858D01*
X73985858Y-12806253D01*
X74000000Y-12820395D01*
X74014143Y-12806253D01*
X74193748Y-12985858D01*
X74193748Y-12985858D01*
G37*
X74193748Y-12985858D02*
X74179605Y-13000000D01*
X74193748Y-13014143D01*
X74014143Y-13193748D01*
X74000000Y-13179605D01*
X73985858Y-13193748D01*
X73806253Y-13014143D01*
X73820395Y-13000000D01*
X73806253Y-12985858D01*
X73985858Y-12806253D01*
X74000000Y-12820395D01*
X74014143Y-12806253D01*
X74193748Y-12985858D01*
G36*
X128692298Y-12275700D02*
X123441302Y-12275700D01*
X122673347Y-11507745D01*
X123171861Y-11507745D01*
X123245995Y-11753864D01*
X123783223Y-11946965D01*
X124353454Y-11919778D01*
X124754005Y-11753864D01*
X124828139Y-11507745D01*
X124000000Y-10679605D01*
X123171861Y-11507745D01*
X122673347Y-11507745D01*
X121936431Y-10770830D01*
X121894029Y-10707371D01*
X121642637Y-10539396D01*
X121420952Y-10495300D01*
X121420947Y-10495300D01*
X121346100Y-10480412D01*
X121271253Y-10495300D01*
X115931484Y-10495300D01*
X115973668Y-10283223D01*
X122553035Y-10283223D01*
X122580222Y-10853454D01*
X122746136Y-11254005D01*
X122992255Y-11328139D01*
X123820395Y-10500000D01*
X124179605Y-10500000D01*
X125007745Y-11328139D01*
X125253864Y-11254005D01*
X125446965Y-10716777D01*
X125419778Y-10146546D01*
X125253864Y-9745995D01*
X125007745Y-9671861D01*
X124179605Y-10500000D01*
X123820395Y-10500000D01*
X122992255Y-9671861D01*
X122746136Y-9745995D01*
X122553035Y-10283223D01*
X115973668Y-10283223D01*
X116014092Y-10080000D01*
X115898839Y-9500582D01*
X115893276Y-9492255D01*
X123171861Y-9492255D01*
X124000000Y-10320395D01*
X124828139Y-9492255D01*
X124754005Y-9246136D01*
X124216777Y-9053035D01*
X123646546Y-9080222D01*
X123245995Y-9246136D01*
X123171861Y-9492255D01*
X115893276Y-9492255D01*
X115570625Y-9009375D01*
X115272239Y-8810000D01*
X115570625Y-8610625D01*
X115898839Y-8119418D01*
X116014092Y-7540000D01*
X115925338Y-7093800D01*
X123510399Y-7093800D01*
X128692298Y-12275700D01*
X128692298Y-12275700D01*
G37*
X128692298Y-12275700D02*
X123441302Y-12275700D01*
X122673347Y-11507745D01*
X123171861Y-11507745D01*
X123245995Y-11753864D01*
X123783223Y-11946965D01*
X124353454Y-11919778D01*
X124754005Y-11753864D01*
X124828139Y-11507745D01*
X124000000Y-10679605D01*
X123171861Y-11507745D01*
X122673347Y-11507745D01*
X121936431Y-10770830D01*
X121894029Y-10707371D01*
X121642637Y-10539396D01*
X121420952Y-10495300D01*
X121420947Y-10495300D01*
X121346100Y-10480412D01*
X121271253Y-10495300D01*
X115931484Y-10495300D01*
X115973668Y-10283223D01*
X122553035Y-10283223D01*
X122580222Y-10853454D01*
X122746136Y-11254005D01*
X122992255Y-11328139D01*
X123820395Y-10500000D01*
X124179605Y-10500000D01*
X125007745Y-11328139D01*
X125253864Y-11254005D01*
X125446965Y-10716777D01*
X125419778Y-10146546D01*
X125253864Y-9745995D01*
X125007745Y-9671861D01*
X124179605Y-10500000D01*
X123820395Y-10500000D01*
X122992255Y-9671861D01*
X122746136Y-9745995D01*
X122553035Y-10283223D01*
X115973668Y-10283223D01*
X116014092Y-10080000D01*
X115898839Y-9500582D01*
X115893276Y-9492255D01*
X123171861Y-9492255D01*
X124000000Y-10320395D01*
X124828139Y-9492255D01*
X124754005Y-9246136D01*
X124216777Y-9053035D01*
X123646546Y-9080222D01*
X123245995Y-9246136D01*
X123171861Y-9492255D01*
X115893276Y-9492255D01*
X115570625Y-9009375D01*
X115272239Y-8810000D01*
X115570625Y-8610625D01*
X115898839Y-8119418D01*
X116014092Y-7540000D01*
X115925338Y-7093800D01*
X123510399Y-7093800D01*
X128692298Y-12275700D01*
G36*
X290736887Y-3380000D02*
X290848260Y-3939909D01*
X291165423Y-4414577D01*
X291640091Y-4731740D01*
X292058667Y-4815000D01*
X292341333Y-4815000D01*
X292759909Y-4731740D01*
X293234577Y-4414577D01*
X293470000Y-4062242D01*
X293705423Y-4414577D01*
X294180091Y-4731740D01*
X294598667Y-4815000D01*
X294881333Y-4815000D01*
X295299909Y-4731740D01*
X295774577Y-4414577D01*
X296030947Y-4030892D01*
X296127611Y-4235134D01*
X296542577Y-4611041D01*
X296930961Y-4771904D01*
X297153000Y-4649915D01*
X297153000Y-3507000D01*
X297133000Y-3507000D01*
X297133000Y-3253000D01*
X297153000Y-3253000D01*
X297153000Y-3233000D01*
X297407000Y-3233000D01*
X297407000Y-3253000D01*
X297427000Y-3253000D01*
X297427000Y-3507000D01*
X297407000Y-3507000D01*
X297407000Y-4649915D01*
X297629039Y-4771904D01*
X298017423Y-4611041D01*
X298432389Y-4235134D01*
X298489670Y-4114106D01*
X298599214Y-4135896D01*
X298785423Y-4414577D01*
X299157804Y-4663394D01*
X294716766Y-9104432D01*
X294665148Y-9114700D01*
X294443463Y-9158796D01*
X294192071Y-9326771D01*
X294024096Y-9578163D01*
X293984104Y-9779214D01*
X293705423Y-9965423D01*
X293624785Y-10086106D01*
X293598157Y-9952235D01*
X293457809Y-9742191D01*
X293247765Y-9601843D01*
X293000000Y-9552560D01*
X291400000Y-9552560D01*
X291152235Y-9601843D01*
X290942191Y-9742191D01*
X290801843Y-9952235D01*
X290752560Y-10200000D01*
X290752560Y-11800000D01*
X290763122Y-11853100D01*
X287103302Y-11853100D01*
X281982431Y-6732230D01*
X281940029Y-6668771D01*
X281688637Y-6500796D01*
X281466952Y-6456700D01*
X281466947Y-6456700D01*
X281392100Y-6441812D01*
X281317253Y-6456700D01*
X209743102Y-6456700D01*
X206301101Y-3014700D01*
X210959899Y-3014700D01*
X210966469Y-3021270D01*
X211008871Y-3084729D01*
X211260263Y-3252704D01*
X211481948Y-3296800D01*
X211481952Y-3296800D01*
X211556800Y-3311688D01*
X211631648Y-3296800D01*
X261693653Y-3296800D01*
X261768500Y-3311688D01*
X261843347Y-3296800D01*
X261843352Y-3296800D01*
X262065037Y-3252704D01*
X262316429Y-3084729D01*
X262358831Y-3021270D01*
X262365501Y-3014600D01*
X290809570Y-3014600D01*
X290736887Y-3380000D01*
X290736887Y-3380000D01*
G37*
X290736887Y-3380000D02*
X290848260Y-3939909D01*
X291165423Y-4414577D01*
X291640091Y-4731740D01*
X292058667Y-4815000D01*
X292341333Y-4815000D01*
X292759909Y-4731740D01*
X293234577Y-4414577D01*
X293470000Y-4062242D01*
X293705423Y-4414577D01*
X294180091Y-4731740D01*
X294598667Y-4815000D01*
X294881333Y-4815000D01*
X295299909Y-4731740D01*
X295774577Y-4414577D01*
X296030947Y-4030892D01*
X296127611Y-4235134D01*
X296542577Y-4611041D01*
X296930961Y-4771904D01*
X297153000Y-4649915D01*
X297153000Y-3507000D01*
X297133000Y-3507000D01*
X297133000Y-3253000D01*
X297153000Y-3253000D01*
X297153000Y-3233000D01*
X297407000Y-3233000D01*
X297407000Y-3253000D01*
X297427000Y-3253000D01*
X297427000Y-3507000D01*
X297407000Y-3507000D01*
X297407000Y-4649915D01*
X297629039Y-4771904D01*
X298017423Y-4611041D01*
X298432389Y-4235134D01*
X298489670Y-4114106D01*
X298599214Y-4135896D01*
X298785423Y-4414577D01*
X299157804Y-4663394D01*
X294716766Y-9104432D01*
X294665148Y-9114700D01*
X294443463Y-9158796D01*
X294192071Y-9326771D01*
X294024096Y-9578163D01*
X293984104Y-9779214D01*
X293705423Y-9965423D01*
X293624785Y-10086106D01*
X293598157Y-9952235D01*
X293457809Y-9742191D01*
X293247765Y-9601843D01*
X293000000Y-9552560D01*
X291400000Y-9552560D01*
X291152235Y-9601843D01*
X290942191Y-9742191D01*
X290801843Y-9952235D01*
X290752560Y-10200000D01*
X290752560Y-11800000D01*
X290763122Y-11853100D01*
X287103302Y-11853100D01*
X281982431Y-6732230D01*
X281940029Y-6668771D01*
X281688637Y-6500796D01*
X281466952Y-6456700D01*
X281466947Y-6456700D01*
X281392100Y-6441812D01*
X281317253Y-6456700D01*
X209743102Y-6456700D01*
X206301101Y-3014700D01*
X210959899Y-3014700D01*
X210966469Y-3021270D01*
X211008871Y-3084729D01*
X211260263Y-3252704D01*
X211481948Y-3296800D01*
X211481952Y-3296800D01*
X211556800Y-3311688D01*
X211631648Y-3296800D01*
X261693653Y-3296800D01*
X261768500Y-3311688D01*
X261843347Y-3296800D01*
X261843352Y-3296800D01*
X262065037Y-3252704D01*
X262316429Y-3084729D01*
X262358831Y-3021270D01*
X262365501Y-3014600D01*
X290809570Y-3014600D01*
X290736887Y-3380000D01*
G36*
X375607000Y-10873000D02*
X375627000Y-10873000D01*
X375627000Y-11127000D01*
X375607000Y-11127000D01*
X375607000Y-11147000D01*
X375353000Y-11147000D01*
X375353000Y-11127000D01*
X375333000Y-11127000D01*
X375333000Y-10873000D01*
X375353000Y-10873000D01*
X375353000Y-10853000D01*
X375607000Y-10853000D01*
X375607000Y-10873000D01*
X375607000Y-10873000D01*
G37*
X375607000Y-10873000D02*
X375627000Y-10873000D01*
X375627000Y-11127000D01*
X375607000Y-11127000D01*
X375607000Y-11147000D01*
X375353000Y-11147000D01*
X375353000Y-11127000D01*
X375333000Y-11127000D01*
X375333000Y-10873000D01*
X375353000Y-10873000D01*
X375353000Y-10853000D01*
X375607000Y-10853000D01*
X375607000Y-10873000D01*
G36*
X297407000Y-10873000D02*
X297427000Y-10873000D01*
X297427000Y-11127000D01*
X297407000Y-11127000D01*
X297407000Y-11147000D01*
X297153000Y-11147000D01*
X297153000Y-11127000D01*
X297133000Y-11127000D01*
X297133000Y-10873000D01*
X297153000Y-10873000D01*
X297153000Y-10853000D01*
X297407000Y-10853000D01*
X297407000Y-10873000D01*
X297407000Y-10873000D01*
G37*
X297407000Y-10873000D02*
X297427000Y-10873000D01*
X297427000Y-11127000D01*
X297407000Y-11127000D01*
X297407000Y-11147000D01*
X297153000Y-11147000D01*
X297153000Y-11127000D01*
X297133000Y-11127000D01*
X297133000Y-10873000D01*
X297153000Y-10873000D01*
X297153000Y-10853000D01*
X297407000Y-10853000D01*
X297407000Y-10873000D01*
G36*
X176807000Y-3253000D02*
X176827000Y-3253000D01*
X176827000Y-3507000D01*
X176807000Y-3507000D01*
X176807000Y-4649915D01*
X177029039Y-4771904D01*
X177417423Y-4611041D01*
X177832389Y-4235134D01*
X177889670Y-4114106D01*
X177999214Y-4135896D01*
X178185423Y-4414577D01*
X178660091Y-4731740D01*
X179078667Y-4815000D01*
X179361333Y-4815000D01*
X179779909Y-4731740D01*
X180254577Y-4414577D01*
X180440786Y-4135896D01*
X180527667Y-4118614D01*
X180725423Y-4414577D01*
X181200091Y-4731740D01*
X181618667Y-4815000D01*
X181901333Y-4815000D01*
X182319909Y-4731740D01*
X182794577Y-4414577D01*
X183030000Y-4062242D01*
X183188838Y-4299960D01*
X177576099Y-9912700D01*
X177417423Y-9768959D01*
X177029039Y-9608096D01*
X176807000Y-9730085D01*
X176807000Y-10873000D01*
X176827000Y-10873000D01*
X176827000Y-11127000D01*
X176807000Y-11127000D01*
X176807000Y-11147000D01*
X176553000Y-11147000D01*
X176553000Y-11127000D01*
X176533000Y-11127000D01*
X176533000Y-10873000D01*
X176553000Y-10873000D01*
X176553000Y-9730085D01*
X176330961Y-9608096D01*
X176170000Y-9674764D01*
X176170000Y-4705236D01*
X176330961Y-4771904D01*
X176553000Y-4649915D01*
X176553000Y-3507000D01*
X176533000Y-3507000D01*
X176533000Y-3253000D01*
X176553000Y-3253000D01*
X176553000Y-3233000D01*
X176807000Y-3233000D01*
X176807000Y-3253000D01*
X176807000Y-3253000D01*
G37*
X176807000Y-3253000D02*
X176827000Y-3253000D01*
X176827000Y-3507000D01*
X176807000Y-3507000D01*
X176807000Y-4649915D01*
X177029039Y-4771904D01*
X177417423Y-4611041D01*
X177832389Y-4235134D01*
X177889670Y-4114106D01*
X177999214Y-4135896D01*
X178185423Y-4414577D01*
X178660091Y-4731740D01*
X179078667Y-4815000D01*
X179361333Y-4815000D01*
X179779909Y-4731740D01*
X180254577Y-4414577D01*
X180440786Y-4135896D01*
X180527667Y-4118614D01*
X180725423Y-4414577D01*
X181200091Y-4731740D01*
X181618667Y-4815000D01*
X181901333Y-4815000D01*
X182319909Y-4731740D01*
X182794577Y-4414577D01*
X183030000Y-4062242D01*
X183188838Y-4299960D01*
X177576099Y-9912700D01*
X177417423Y-9768959D01*
X177029039Y-9608096D01*
X176807000Y-9730085D01*
X176807000Y-10873000D01*
X176827000Y-10873000D01*
X176827000Y-11127000D01*
X176807000Y-11127000D01*
X176807000Y-11147000D01*
X176553000Y-11147000D01*
X176553000Y-11127000D01*
X176533000Y-11127000D01*
X176533000Y-10873000D01*
X176553000Y-10873000D01*
X176553000Y-9730085D01*
X176330961Y-9608096D01*
X176170000Y-9674764D01*
X176170000Y-4705236D01*
X176330961Y-4771904D01*
X176553000Y-4649915D01*
X176553000Y-3507000D01*
X176533000Y-3507000D01*
X176533000Y-3253000D01*
X176553000Y-3253000D01*
X176553000Y-3233000D01*
X176807000Y-3233000D01*
X176807000Y-3253000D01*
G36*
X12907670Y-9134472D02*
X12950071Y-9197929D01*
X13013527Y-9240329D01*
X13201462Y-9365904D01*
X13245181Y-9374600D01*
X13423148Y-9410000D01*
X13423152Y-9410000D01*
X13498000Y-9424888D01*
X13572848Y-9410000D01*
X24871940Y-9410000D01*
X24808524Y-9563110D01*
X24929845Y-9793000D01*
X26123000Y-9793000D01*
X26123000Y-9773000D01*
X26377000Y-9773000D01*
X26377000Y-9793000D01*
X28663000Y-9793000D01*
X28663000Y-9773000D01*
X28917000Y-9773000D01*
X28917000Y-9793000D01*
X28937000Y-9793000D01*
X28937000Y-10047000D01*
X28917000Y-10047000D01*
X28917000Y-10067000D01*
X28663000Y-10067000D01*
X28663000Y-10047000D01*
X26377000Y-10047000D01*
X26377000Y-10067000D01*
X26123000Y-10067000D01*
X26123000Y-10047000D01*
X24929845Y-10047000D01*
X24808524Y-10276890D01*
X24837604Y-10347100D01*
X13729902Y-10347100D01*
X7216663Y-3833862D01*
X7450689Y-3677491D01*
X12907670Y-9134472D01*
X12907670Y-9134472D01*
G37*
X12907670Y-9134472D02*
X12950071Y-9197929D01*
X13013527Y-9240329D01*
X13201462Y-9365904D01*
X13245181Y-9374600D01*
X13423148Y-9410000D01*
X13423152Y-9410000D01*
X13498000Y-9424888D01*
X13572848Y-9410000D01*
X24871940Y-9410000D01*
X24808524Y-9563110D01*
X24929845Y-9793000D01*
X26123000Y-9793000D01*
X26123000Y-9773000D01*
X26377000Y-9773000D01*
X26377000Y-9793000D01*
X28663000Y-9793000D01*
X28663000Y-9773000D01*
X28917000Y-9773000D01*
X28917000Y-9793000D01*
X28937000Y-9793000D01*
X28937000Y-10047000D01*
X28917000Y-10047000D01*
X28917000Y-10067000D01*
X28663000Y-10067000D01*
X28663000Y-10047000D01*
X26377000Y-10047000D01*
X26377000Y-10067000D01*
X26123000Y-10067000D01*
X26123000Y-10047000D01*
X24929845Y-10047000D01*
X24808524Y-10276890D01*
X24837604Y-10347100D01*
X13729902Y-10347100D01*
X7216663Y-3833862D01*
X7450689Y-3677491D01*
X12907670Y-9134472D01*
G36*
X59765000Y-4273690D02*
X59765000Y-4714250D01*
X59923750Y-4873000D01*
X60873000Y-4873000D01*
X60873000Y-4853000D01*
X61127000Y-4853000D01*
X61127000Y-4873000D01*
X61147000Y-4873000D01*
X61147000Y-5127000D01*
X61127000Y-5127000D01*
X61127000Y-5147000D01*
X60873000Y-5147000D01*
X60873000Y-5127000D01*
X59923750Y-5127000D01*
X59765000Y-5285750D01*
X59765000Y-5604700D01*
X55997440Y-5604700D01*
X55997440Y-4260000D01*
X59770671Y-4260000D01*
X59765000Y-4273690D01*
X59765000Y-4273690D01*
G37*
X59765000Y-4273690D02*
X59765000Y-4714250D01*
X59923750Y-4873000D01*
X60873000Y-4873000D01*
X60873000Y-4853000D01*
X61127000Y-4853000D01*
X61127000Y-4873000D01*
X61147000Y-4873000D01*
X61147000Y-5127000D01*
X61127000Y-5127000D01*
X61127000Y-5147000D01*
X60873000Y-5147000D01*
X60873000Y-5127000D01*
X59923750Y-5127000D01*
X59765000Y-5285750D01*
X59765000Y-5604700D01*
X55997440Y-5604700D01*
X55997440Y-4260000D01*
X59770671Y-4260000D01*
X59765000Y-4273690D01*
G04 #@! TD*
M02*
