G04 #@! TF.GenerationSoftware,KiCad,Pcbnew,(5.0.0)*
G04 #@! TF.CreationDate,2019-01-11T14:00:02+01:00*
G04 #@! TF.ProjectId,1u_complex_bus_frontboard,31755F636F6D706C65785F6275735F66,rev?*
G04 #@! TF.SameCoordinates,Original*
G04 #@! TF.FileFunction,Paste,Top*
G04 #@! TF.FilePolarity,Positive*
%FSLAX46Y46*%
G04 Gerber Fmt 4.6, Leading zero omitted, Abs format (unit mm)*
G04 Created by KiCad (PCBNEW (5.0.0)) date 01/11/19 14:00:02*
%MOMM*%
%LPD*%
G01*
G04 APERTURE LIST*
%ADD10C,1.648460*%
G04 APERTURE END LIST*
D10*
G04 #@! TO.C,U_IN_2_1*
X74499860Y-5000000D03*
X71497580Y-5000000D03*
X63001280Y-5000000D03*
G04 #@! TD*
G04 #@! TO.C,U_IN_2_3*
X301500140Y-5000000D03*
X304502420Y-5000000D03*
X312998720Y-5000000D03*
G04 #@! TD*
G04 #@! TO.C,U_IN_4_2*
X254499860Y-5000000D03*
X251497580Y-5000000D03*
X243001280Y-5000000D03*
G04 #@! TD*
G04 #@! TO.C,U_IN_1_3*
X282998720Y-5000000D03*
X274502420Y-5000000D03*
X271500140Y-5000000D03*
G04 #@! TD*
G04 #@! TO.C,U_OUT_1_1*
X44499860Y-15000000D03*
X41497580Y-15000000D03*
X33001280Y-15000000D03*
G04 #@! TD*
G04 #@! TO.C,U_IN_1_2*
X164499860Y-5000000D03*
X161497580Y-5000000D03*
X153001280Y-5000000D03*
G04 #@! TD*
G04 #@! TO.C,U_IN_2_2*
X183001280Y-5000000D03*
X191497580Y-5000000D03*
X194499860Y-5000000D03*
G04 #@! TD*
G04 #@! TO.C,U_IN_2_4*
X432998720Y-5000000D03*
X424502420Y-5000000D03*
X421500140Y-5000000D03*
G04 #@! TD*
G04 #@! TO.C,U_IN_3_1*
X93001280Y-5000000D03*
X101497580Y-5000000D03*
X104499860Y-5000000D03*
G04 #@! TD*
G04 #@! TO.C,U_IN_3_2*
X213001280Y-5000000D03*
X221497580Y-5000000D03*
X224499860Y-5000000D03*
G04 #@! TD*
G04 #@! TO.C,U_IN_3_3*
X331500140Y-5000000D03*
X334502420Y-5000000D03*
X342998720Y-5000000D03*
G04 #@! TD*
G04 #@! TO.C,U_IN_3_4*
X451500140Y-5000000D03*
X454502420Y-5000000D03*
X462998720Y-5000000D03*
G04 #@! TD*
G04 #@! TO.C,U_IN_4_1*
X123001280Y-5000000D03*
X131497580Y-5000000D03*
X134499860Y-5000000D03*
G04 #@! TD*
G04 #@! TO.C,U_IN_4_3*
X372998720Y-5000000D03*
X364502420Y-5000000D03*
X361500140Y-5000000D03*
G04 #@! TD*
G04 #@! TO.C,U_IN_4_4*
X492998720Y-5000000D03*
X484502420Y-5000000D03*
X481500140Y-5000000D03*
G04 #@! TD*
G04 #@! TO.C,U_OUT_1_3*
X271500140Y-15000000D03*
X274502420Y-15000000D03*
X282998720Y-15000000D03*
G04 #@! TD*
G04 #@! TO.C,U_OUT_1_4*
X402998720Y-15000000D03*
X394502420Y-15000000D03*
X391500140Y-15000000D03*
G04 #@! TD*
G04 #@! TO.C,U_OUT_1_2*
X153001280Y-15000000D03*
X161497580Y-15000000D03*
X164499860Y-15000000D03*
G04 #@! TD*
G04 #@! TO.C,U_OUT_2_2*
X194499860Y-15000000D03*
X191497580Y-15000000D03*
X183001280Y-15000000D03*
G04 #@! TD*
G04 #@! TO.C,U_OUT_2_4*
X432998720Y-15000000D03*
X424502420Y-15000000D03*
X421500140Y-15000000D03*
G04 #@! TD*
G04 #@! TO.C,U_OUT_3_1*
X104499860Y-15000000D03*
X101497580Y-15000000D03*
X93001280Y-15000000D03*
G04 #@! TD*
G04 #@! TO.C,U_OUT_3_2*
X224499860Y-15000000D03*
X221497580Y-15000000D03*
X213001280Y-15000000D03*
G04 #@! TD*
G04 #@! TO.C,U_OUT_3_3*
X342998720Y-15000000D03*
X334502420Y-15000000D03*
X331500140Y-15000000D03*
G04 #@! TD*
G04 #@! TO.C,U_OUT_3_4*
X451500140Y-15000000D03*
X454502420Y-15000000D03*
X462998720Y-15000000D03*
G04 #@! TD*
G04 #@! TO.C,U_OUT_2_3*
X301500140Y-15000000D03*
X304502420Y-15000000D03*
X312998720Y-15000000D03*
G04 #@! TD*
G04 #@! TO.C,U_OUT_4_1*
X123001280Y-15000000D03*
X131497580Y-15000000D03*
X134499860Y-15000000D03*
G04 #@! TD*
G04 #@! TO.C,U_OUT_4_2*
X254499860Y-15000000D03*
X251497580Y-15000000D03*
X243001280Y-15000000D03*
G04 #@! TD*
G04 #@! TO.C,U_OUT_4_3*
X372998720Y-15000000D03*
X364502420Y-15000000D03*
X361500140Y-15000000D03*
G04 #@! TD*
G04 #@! TO.C,U_OUT_2_1*
X63001280Y-15000000D03*
X71497580Y-15000000D03*
X74499860Y-15000000D03*
G04 #@! TD*
G04 #@! TO.C,U_OUT_4_4*
X481500140Y-15000000D03*
X484502420Y-15000000D03*
X492998720Y-15000000D03*
G04 #@! TD*
G04 #@! TO.C,U_IN_1_1*
X44499860Y-5000000D03*
X41497580Y-5000000D03*
X33001280Y-5000000D03*
G04 #@! TD*
G04 #@! TO.C,U_IN_1_4*
X402998720Y-5000000D03*
X394502420Y-5000000D03*
X391500140Y-5000000D03*
G04 #@! TD*
M02*
