G04 #@! TF.GenerationSoftware,KiCad,Pcbnew,(5.0.2)-1*
G04 #@! TF.CreationDate,2019-04-04T13:53:56+02:00*
G04 #@! TF.ProjectId,Corona_controlBoard,436f726f-6e61-45f6-936f-6e74726f6c42,1*
G04 #@! TF.SameCoordinates,Original*
G04 #@! TF.FileFunction,Copper,L1,Top*
G04 #@! TF.FilePolarity,Positive*
%FSLAX46Y46*%
G04 Gerber Fmt 4.6, Leading zero omitted, Abs format (unit mm)*
G04 Created by KiCad (PCBNEW (5.0.2)-1) date 04/04/2019 13:53:56*
%MOMM*%
%LPD*%
G01*
G04 APERTURE LIST*
G04 #@! TA.AperFunction,ComponentPad*
%ADD10C,1.648460*%
G04 #@! TD*
G04 #@! TA.AperFunction,ComponentPad*
%ADD11R,1.648460X1.648460*%
G04 #@! TD*
G04 #@! TA.AperFunction,ComponentPad*
%ADD12C,2.794000*%
G04 #@! TD*
G04 #@! TA.AperFunction,ComponentPad*
%ADD13C,1.422400*%
G04 #@! TD*
G04 #@! TA.AperFunction,ComponentPad*
%ADD14R,1.700000X1.700000*%
G04 #@! TD*
G04 #@! TA.AperFunction,ComponentPad*
%ADD15O,1.700000X1.700000*%
G04 #@! TD*
G04 #@! TA.AperFunction,ComponentPad*
%ADD16C,1.800000*%
G04 #@! TD*
G04 #@! TA.AperFunction,ComponentPad*
%ADD17R,1.800000X1.800000*%
G04 #@! TD*
G04 #@! TA.AperFunction,Conductor*
%ADD18C,0.100000*%
G04 #@! TD*
G04 #@! TA.AperFunction,SMDPad,CuDef*
%ADD19C,1.150000*%
G04 #@! TD*
G04 #@! TA.AperFunction,ViaPad*
%ADD20C,0.800000*%
G04 #@! TD*
G04 #@! TA.AperFunction,Conductor*
%ADD21C,0.250000*%
G04 #@! TD*
G04 #@! TA.AperFunction,Conductor*
%ADD22C,0.254000*%
G04 #@! TD*
G04 APERTURE END LIST*
D10*
G04 #@! TO.P,J_IN1,2*
G04 #@! TO.N,/gnd.cb*
X4500000Y-95500140D03*
G04 #@! TO.P,J_IN1,3*
G04 #@! TO.N,N/C*
X4500000Y-98502420D03*
G04 #@! TO.P,J_IN1,1*
G04 #@! TO.N,Net-(J_IN1-Pad1)*
X4500000Y-106998720D03*
G04 #@! TD*
G04 #@! TO.P,J_OUT1,1*
G04 #@! TO.N,Net-(J_OUT1-Pad1)*
X33500000Y-106998720D03*
G04 #@! TO.P,J_OUT1,3*
G04 #@! TO.N,N/C*
X33500000Y-98502420D03*
G04 #@! TO.P,J_OUT1,2*
G04 #@! TO.N,/gnd.cb*
X33500000Y-95500140D03*
G04 #@! TD*
D11*
G04 #@! TO.P,RV_FB1,1*
G04 #@! TO.N,/gnd.cb*
X28500640Y-42997700D03*
D10*
G04 #@! TO.P,RV_FB1,2*
G04 #@! TO.N,/fb.level.cb*
X31000000Y-42997700D03*
G04 #@! TO.P,RV_FB1,3*
G04 #@! TO.N,/+12V.cb*
X33499360Y-42997700D03*
D12*
G04 #@! TO.P,RV_FB1,CHASSIS1*
G04 #@! TO.N,N/C*
X26501660Y-36000000D03*
G04 #@! TO.P,RV_FB1,CHASSIS2*
X35498340Y-36000000D03*
G04 #@! TD*
D13*
G04 #@! TO.P,SW1,1*
G04 #@! TO.N,/gnd.cb*
X19000000Y-37540000D03*
G04 #@! TO.P,SW1,3*
G04 #@! TO.N,/-12V.cb*
X19000000Y-32460000D03*
G04 #@! TO.P,SW1,2*
G04 #@! TO.N,/tube.gnd.cb*
X19000000Y-35000000D03*
G04 #@! TD*
D12*
G04 #@! TO.P,RV_GAIN1,CHASSIS2*
G04 #@! TO.N,N/C*
X35498340Y-72000000D03*
G04 #@! TO.P,RV_GAIN1,CHASSIS1*
X26501660Y-72000000D03*
D10*
G04 #@! TO.P,RV_GAIN1,3*
G04 #@! TO.N,/R.gain.3.cb*
X33499360Y-78997700D03*
G04 #@! TO.P,RV_GAIN1,2*
X31000000Y-78997700D03*
D11*
G04 #@! TO.P,RV_GAIN1,1*
G04 #@! TO.N,/R.gain.1.cb*
X28500640Y-78997700D03*
G04 #@! TD*
D10*
G04 #@! TO.P,J_IN_DRV1,1*
G04 #@! TO.N,Net-(J_IN_DRV1-Pad1)*
X14250000Y-106998720D03*
G04 #@! TO.P,J_IN_DRV1,3*
G04 #@! TO.N,N/C*
X14250000Y-98502420D03*
G04 #@! TO.P,J_IN_DRV1,2*
G04 #@! TO.N,/gnd.cb*
X14250000Y-95500140D03*
G04 #@! TD*
G04 #@! TO.P,J_IN_FB1,2*
G04 #@! TO.N,/gnd.cb*
X23750000Y-95500140D03*
G04 #@! TO.P,J_IN_FB1,3*
G04 #@! TO.N,N/C*
X23750000Y-98502420D03*
G04 #@! TO.P,J_IN_FB1,1*
G04 #@! TO.N,Net-(J_IN_FB1-Pad1)*
X23750000Y-106998720D03*
G04 #@! TD*
D11*
G04 #@! TO.P,RV_DRV1,1*
G04 #@! TO.N,/gnd.cb*
X16500640Y-60997700D03*
D10*
G04 #@! TO.P,RV_DRV1,2*
G04 #@! TO.N,/drv.level.cb*
X19000000Y-60997700D03*
G04 #@! TO.P,RV_DRV1,3*
G04 #@! TO.N,/+12V.cb*
X21499360Y-60997700D03*
D12*
G04 #@! TO.P,RV_DRV1,CHASSIS1*
G04 #@! TO.N,N/C*
X14501660Y-54000000D03*
G04 #@! TO.P,RV_DRV1,CHASSIS2*
X23498340Y-54000000D03*
G04 #@! TD*
G04 #@! TO.P,RV_DRV_CV1,CHASSIS2*
G04 #@! TO.N,N/C*
X17498340Y-86000000D03*
G04 #@! TO.P,RV_DRV_CV1,CHASSIS1*
X8501660Y-86000000D03*
D10*
G04 #@! TO.P,RV_DRV_CV1,3*
G04 #@! TO.N,Net-(J_IN_DRV1-Pad1)*
X15499360Y-92997700D03*
G04 #@! TO.P,RV_DRV_CV1,2*
G04 #@! TO.N,/drv.cv.level.cb*
X13000000Y-92997700D03*
D11*
G04 #@! TO.P,RV_DRV_CV1,1*
G04 #@! TO.N,/gnd.cb*
X10500640Y-92997700D03*
G04 #@! TD*
D12*
G04 #@! TO.P,RV_FB_CV1,CHASSIS2*
G04 #@! TO.N,N/C*
X29498340Y-86000000D03*
G04 #@! TO.P,RV_FB_CV1,CHASSIS1*
X20501660Y-86000000D03*
D10*
G04 #@! TO.P,RV_FB_CV1,3*
G04 #@! TO.N,Net-(J_IN_FB1-Pad1)*
X27499360Y-92997700D03*
G04 #@! TO.P,RV_FB_CV1,2*
G04 #@! TO.N,/fb.cv.level.cb*
X25000000Y-92997700D03*
D11*
G04 #@! TO.P,RV_FB_CV1,1*
G04 #@! TO.N,/gnd.cb*
X22500640Y-92997700D03*
G04 #@! TD*
D12*
G04 #@! TO.P,RV_IN1,CHASSIS2*
G04 #@! TO.N,N/C*
X11498340Y-72000000D03*
G04 #@! TO.P,RV_IN1,CHASSIS1*
X2501660Y-72000000D03*
D10*
G04 #@! TO.P,RV_IN1,3*
G04 #@! TO.N,Net-(R4-Pad1)*
X9499360Y-78997700D03*
G04 #@! TO.P,RV_IN1,2*
G04 #@! TO.N,/audio.in.cb*
X7000000Y-78997700D03*
D11*
G04 #@! TO.P,RV_IN1,1*
G04 #@! TO.N,/gnd.cb*
X4500640Y-78997700D03*
G04 #@! TD*
G04 #@! TO.P,RV_TONE1,1*
G04 #@! TO.N,/gnd.cb*
X4500640Y-42997700D03*
D10*
G04 #@! TO.P,RV_TONE1,2*
X7000000Y-42997700D03*
G04 #@! TO.P,RV_TONE1,3*
G04 #@! TO.N,/tone.level.cb*
X9499360Y-42997700D03*
D12*
G04 #@! TO.P,RV_TONE1,CHASSIS1*
G04 #@! TO.N,N/C*
X2501660Y-36000000D03*
G04 #@! TO.P,RV_TONE1,CHASSIS2*
X11498340Y-36000000D03*
G04 #@! TD*
D14*
G04 #@! TO.P,J1,1*
G04 #@! TO.N,/+12V.cb*
X2000000Y-1500000D03*
D15*
G04 #@! TO.P,J1,2*
G04 #@! TO.N,/gnd.cb*
X2000000Y-4040000D03*
G04 #@! TO.P,J1,3*
G04 #@! TO.N,/-12V.cb*
X2000000Y-6580000D03*
G04 #@! TO.P,J1,4*
G04 #@! TO.N,N/C*
X2000000Y-9120000D03*
G04 #@! TO.P,J1,5*
G04 #@! TO.N,/audio.in.cb*
X2000000Y-11660000D03*
G04 #@! TO.P,J1,6*
G04 #@! TO.N,/audio.out.cb*
X2000000Y-14200000D03*
G04 #@! TO.P,J1,7*
G04 #@! TO.N,/led.clip.in.cb*
X2000000Y-16740000D03*
G04 #@! TO.P,J1,8*
G04 #@! TO.N,/led.clip.out.cb*
X2000000Y-19280000D03*
G04 #@! TO.P,J1,9*
G04 #@! TO.N,/led.fb.in.cb*
X2000000Y-21820000D03*
G04 #@! TO.P,J1,10*
G04 #@! TO.N,/led.fb.out.cb*
X2000000Y-24360000D03*
G04 #@! TD*
D16*
G04 #@! TO.P,D3,2*
G04 #@! TO.N,/led.fb.in.cb*
X32460000Y-54000000D03*
D17*
G04 #@! TO.P,D3,1*
G04 #@! TO.N,/led.fb.out.cb*
X35000000Y-54000000D03*
G04 #@! TD*
G04 #@! TO.P,D7,1*
G04 #@! TO.N,/led.clip.out.cb*
X35000000Y-86000000D03*
D16*
G04 #@! TO.P,D7,2*
G04 #@! TO.N,/led.clip.in.cb*
X32460000Y-86000000D03*
G04 #@! TD*
D18*
G04 #@! TO.N,/fb.cv.in.cb*
G04 #@! TO.C,R1*
G36*
X3324505Y-48301204D02*
X3348773Y-48304804D01*
X3372572Y-48310765D01*
X3395671Y-48319030D01*
X3417850Y-48329520D01*
X3438893Y-48342132D01*
X3458599Y-48356747D01*
X3476777Y-48373223D01*
X3493253Y-48391401D01*
X3507868Y-48411107D01*
X3520480Y-48432150D01*
X3530970Y-48454329D01*
X3539235Y-48477428D01*
X3545196Y-48501227D01*
X3548796Y-48525495D01*
X3550000Y-48549999D01*
X3550000Y-49450001D01*
X3548796Y-49474505D01*
X3545196Y-49498773D01*
X3539235Y-49522572D01*
X3530970Y-49545671D01*
X3520480Y-49567850D01*
X3507868Y-49588893D01*
X3493253Y-49608599D01*
X3476777Y-49626777D01*
X3458599Y-49643253D01*
X3438893Y-49657868D01*
X3417850Y-49670480D01*
X3395671Y-49680970D01*
X3372572Y-49689235D01*
X3348773Y-49695196D01*
X3324505Y-49698796D01*
X3300001Y-49700000D01*
X2649999Y-49700000D01*
X2625495Y-49698796D01*
X2601227Y-49695196D01*
X2577428Y-49689235D01*
X2554329Y-49680970D01*
X2532150Y-49670480D01*
X2511107Y-49657868D01*
X2491401Y-49643253D01*
X2473223Y-49626777D01*
X2456747Y-49608599D01*
X2442132Y-49588893D01*
X2429520Y-49567850D01*
X2419030Y-49545671D01*
X2410765Y-49522572D01*
X2404804Y-49498773D01*
X2401204Y-49474505D01*
X2400000Y-49450001D01*
X2400000Y-48549999D01*
X2401204Y-48525495D01*
X2404804Y-48501227D01*
X2410765Y-48477428D01*
X2419030Y-48454329D01*
X2429520Y-48432150D01*
X2442132Y-48411107D01*
X2456747Y-48391401D01*
X2473223Y-48373223D01*
X2491401Y-48356747D01*
X2511107Y-48342132D01*
X2532150Y-48329520D01*
X2554329Y-48319030D01*
X2577428Y-48310765D01*
X2601227Y-48304804D01*
X2625495Y-48301204D01*
X2649999Y-48300000D01*
X3300001Y-48300000D01*
X3324505Y-48301204D01*
X3324505Y-48301204D01*
G37*
D19*
G04 #@! TD*
G04 #@! TO.P,R1,1*
G04 #@! TO.N,/fb.cv.in.cb*
X2975000Y-49000000D03*
D18*
G04 #@! TO.N,Net-(J_IN_FB1-Pad1)*
G04 #@! TO.C,R1*
G36*
X5374505Y-48301204D02*
X5398773Y-48304804D01*
X5422572Y-48310765D01*
X5445671Y-48319030D01*
X5467850Y-48329520D01*
X5488893Y-48342132D01*
X5508599Y-48356747D01*
X5526777Y-48373223D01*
X5543253Y-48391401D01*
X5557868Y-48411107D01*
X5570480Y-48432150D01*
X5580970Y-48454329D01*
X5589235Y-48477428D01*
X5595196Y-48501227D01*
X5598796Y-48525495D01*
X5600000Y-48549999D01*
X5600000Y-49450001D01*
X5598796Y-49474505D01*
X5595196Y-49498773D01*
X5589235Y-49522572D01*
X5580970Y-49545671D01*
X5570480Y-49567850D01*
X5557868Y-49588893D01*
X5543253Y-49608599D01*
X5526777Y-49626777D01*
X5508599Y-49643253D01*
X5488893Y-49657868D01*
X5467850Y-49670480D01*
X5445671Y-49680970D01*
X5422572Y-49689235D01*
X5398773Y-49695196D01*
X5374505Y-49698796D01*
X5350001Y-49700000D01*
X4699999Y-49700000D01*
X4675495Y-49698796D01*
X4651227Y-49695196D01*
X4627428Y-49689235D01*
X4604329Y-49680970D01*
X4582150Y-49670480D01*
X4561107Y-49657868D01*
X4541401Y-49643253D01*
X4523223Y-49626777D01*
X4506747Y-49608599D01*
X4492132Y-49588893D01*
X4479520Y-49567850D01*
X4469030Y-49545671D01*
X4460765Y-49522572D01*
X4454804Y-49498773D01*
X4451204Y-49474505D01*
X4450000Y-49450001D01*
X4450000Y-48549999D01*
X4451204Y-48525495D01*
X4454804Y-48501227D01*
X4460765Y-48477428D01*
X4469030Y-48454329D01*
X4479520Y-48432150D01*
X4492132Y-48411107D01*
X4506747Y-48391401D01*
X4523223Y-48373223D01*
X4541401Y-48356747D01*
X4561107Y-48342132D01*
X4582150Y-48329520D01*
X4604329Y-48319030D01*
X4627428Y-48310765D01*
X4651227Y-48304804D01*
X4675495Y-48301204D01*
X4699999Y-48300000D01*
X5350001Y-48300000D01*
X5374505Y-48301204D01*
X5374505Y-48301204D01*
G37*
D19*
G04 #@! TD*
G04 #@! TO.P,R1,2*
G04 #@! TO.N,Net-(J_IN_FB1-Pad1)*
X5025000Y-49000000D03*
D18*
G04 #@! TO.N,/drv.cv.in.cb*
G04 #@! TO.C,R2*
G36*
X3324505Y-51801204D02*
X3348773Y-51804804D01*
X3372572Y-51810765D01*
X3395671Y-51819030D01*
X3417850Y-51829520D01*
X3438893Y-51842132D01*
X3458599Y-51856747D01*
X3476777Y-51873223D01*
X3493253Y-51891401D01*
X3507868Y-51911107D01*
X3520480Y-51932150D01*
X3530970Y-51954329D01*
X3539235Y-51977428D01*
X3545196Y-52001227D01*
X3548796Y-52025495D01*
X3550000Y-52049999D01*
X3550000Y-52950001D01*
X3548796Y-52974505D01*
X3545196Y-52998773D01*
X3539235Y-53022572D01*
X3530970Y-53045671D01*
X3520480Y-53067850D01*
X3507868Y-53088893D01*
X3493253Y-53108599D01*
X3476777Y-53126777D01*
X3458599Y-53143253D01*
X3438893Y-53157868D01*
X3417850Y-53170480D01*
X3395671Y-53180970D01*
X3372572Y-53189235D01*
X3348773Y-53195196D01*
X3324505Y-53198796D01*
X3300001Y-53200000D01*
X2649999Y-53200000D01*
X2625495Y-53198796D01*
X2601227Y-53195196D01*
X2577428Y-53189235D01*
X2554329Y-53180970D01*
X2532150Y-53170480D01*
X2511107Y-53157868D01*
X2491401Y-53143253D01*
X2473223Y-53126777D01*
X2456747Y-53108599D01*
X2442132Y-53088893D01*
X2429520Y-53067850D01*
X2419030Y-53045671D01*
X2410765Y-53022572D01*
X2404804Y-52998773D01*
X2401204Y-52974505D01*
X2400000Y-52950001D01*
X2400000Y-52049999D01*
X2401204Y-52025495D01*
X2404804Y-52001227D01*
X2410765Y-51977428D01*
X2419030Y-51954329D01*
X2429520Y-51932150D01*
X2442132Y-51911107D01*
X2456747Y-51891401D01*
X2473223Y-51873223D01*
X2491401Y-51856747D01*
X2511107Y-51842132D01*
X2532150Y-51829520D01*
X2554329Y-51819030D01*
X2577428Y-51810765D01*
X2601227Y-51804804D01*
X2625495Y-51801204D01*
X2649999Y-51800000D01*
X3300001Y-51800000D01*
X3324505Y-51801204D01*
X3324505Y-51801204D01*
G37*
D19*
G04 #@! TD*
G04 #@! TO.P,R2,1*
G04 #@! TO.N,/drv.cv.in.cb*
X2975000Y-52500000D03*
D18*
G04 #@! TO.N,Net-(J_IN_DRV1-Pad1)*
G04 #@! TO.C,R2*
G36*
X5374505Y-51801204D02*
X5398773Y-51804804D01*
X5422572Y-51810765D01*
X5445671Y-51819030D01*
X5467850Y-51829520D01*
X5488893Y-51842132D01*
X5508599Y-51856747D01*
X5526777Y-51873223D01*
X5543253Y-51891401D01*
X5557868Y-51911107D01*
X5570480Y-51932150D01*
X5580970Y-51954329D01*
X5589235Y-51977428D01*
X5595196Y-52001227D01*
X5598796Y-52025495D01*
X5600000Y-52049999D01*
X5600000Y-52950001D01*
X5598796Y-52974505D01*
X5595196Y-52998773D01*
X5589235Y-53022572D01*
X5580970Y-53045671D01*
X5570480Y-53067850D01*
X5557868Y-53088893D01*
X5543253Y-53108599D01*
X5526777Y-53126777D01*
X5508599Y-53143253D01*
X5488893Y-53157868D01*
X5467850Y-53170480D01*
X5445671Y-53180970D01*
X5422572Y-53189235D01*
X5398773Y-53195196D01*
X5374505Y-53198796D01*
X5350001Y-53200000D01*
X4699999Y-53200000D01*
X4675495Y-53198796D01*
X4651227Y-53195196D01*
X4627428Y-53189235D01*
X4604329Y-53180970D01*
X4582150Y-53170480D01*
X4561107Y-53157868D01*
X4541401Y-53143253D01*
X4523223Y-53126777D01*
X4506747Y-53108599D01*
X4492132Y-53088893D01*
X4479520Y-53067850D01*
X4469030Y-53045671D01*
X4460765Y-53022572D01*
X4454804Y-52998773D01*
X4451204Y-52974505D01*
X4450000Y-52950001D01*
X4450000Y-52049999D01*
X4451204Y-52025495D01*
X4454804Y-52001227D01*
X4460765Y-51977428D01*
X4469030Y-51954329D01*
X4479520Y-51932150D01*
X4492132Y-51911107D01*
X4506747Y-51891401D01*
X4523223Y-51873223D01*
X4541401Y-51856747D01*
X4561107Y-51842132D01*
X4582150Y-51829520D01*
X4604329Y-51819030D01*
X4627428Y-51810765D01*
X4651227Y-51804804D01*
X4675495Y-51801204D01*
X4699999Y-51800000D01*
X5350001Y-51800000D01*
X5374505Y-51801204D01*
X5374505Y-51801204D01*
G37*
D19*
G04 #@! TD*
G04 #@! TO.P,R2,2*
G04 #@! TO.N,Net-(J_IN_DRV1-Pad1)*
X5025000Y-52500000D03*
D18*
G04 #@! TO.N,Net-(R4-Pad1)*
G04 #@! TO.C,R4*
G36*
X3349505Y-55301204D02*
X3373773Y-55304804D01*
X3397572Y-55310765D01*
X3420671Y-55319030D01*
X3442850Y-55329520D01*
X3463893Y-55342132D01*
X3483599Y-55356747D01*
X3501777Y-55373223D01*
X3518253Y-55391401D01*
X3532868Y-55411107D01*
X3545480Y-55432150D01*
X3555970Y-55454329D01*
X3564235Y-55477428D01*
X3570196Y-55501227D01*
X3573796Y-55525495D01*
X3575000Y-55549999D01*
X3575000Y-56450001D01*
X3573796Y-56474505D01*
X3570196Y-56498773D01*
X3564235Y-56522572D01*
X3555970Y-56545671D01*
X3545480Y-56567850D01*
X3532868Y-56588893D01*
X3518253Y-56608599D01*
X3501777Y-56626777D01*
X3483599Y-56643253D01*
X3463893Y-56657868D01*
X3442850Y-56670480D01*
X3420671Y-56680970D01*
X3397572Y-56689235D01*
X3373773Y-56695196D01*
X3349505Y-56698796D01*
X3325001Y-56700000D01*
X2674999Y-56700000D01*
X2650495Y-56698796D01*
X2626227Y-56695196D01*
X2602428Y-56689235D01*
X2579329Y-56680970D01*
X2557150Y-56670480D01*
X2536107Y-56657868D01*
X2516401Y-56643253D01*
X2498223Y-56626777D01*
X2481747Y-56608599D01*
X2467132Y-56588893D01*
X2454520Y-56567850D01*
X2444030Y-56545671D01*
X2435765Y-56522572D01*
X2429804Y-56498773D01*
X2426204Y-56474505D01*
X2425000Y-56450001D01*
X2425000Y-55549999D01*
X2426204Y-55525495D01*
X2429804Y-55501227D01*
X2435765Y-55477428D01*
X2444030Y-55454329D01*
X2454520Y-55432150D01*
X2467132Y-55411107D01*
X2481747Y-55391401D01*
X2498223Y-55373223D01*
X2516401Y-55356747D01*
X2536107Y-55342132D01*
X2557150Y-55329520D01*
X2579329Y-55319030D01*
X2602428Y-55310765D01*
X2626227Y-55304804D01*
X2650495Y-55301204D01*
X2674999Y-55300000D01*
X3325001Y-55300000D01*
X3349505Y-55301204D01*
X3349505Y-55301204D01*
G37*
D19*
G04 #@! TD*
G04 #@! TO.P,R4,1*
G04 #@! TO.N,Net-(R4-Pad1)*
X3000000Y-56000000D03*
D18*
G04 #@! TO.N,Net-(J_IN1-Pad1)*
G04 #@! TO.C,R4*
G36*
X5399505Y-55301204D02*
X5423773Y-55304804D01*
X5447572Y-55310765D01*
X5470671Y-55319030D01*
X5492850Y-55329520D01*
X5513893Y-55342132D01*
X5533599Y-55356747D01*
X5551777Y-55373223D01*
X5568253Y-55391401D01*
X5582868Y-55411107D01*
X5595480Y-55432150D01*
X5605970Y-55454329D01*
X5614235Y-55477428D01*
X5620196Y-55501227D01*
X5623796Y-55525495D01*
X5625000Y-55549999D01*
X5625000Y-56450001D01*
X5623796Y-56474505D01*
X5620196Y-56498773D01*
X5614235Y-56522572D01*
X5605970Y-56545671D01*
X5595480Y-56567850D01*
X5582868Y-56588893D01*
X5568253Y-56608599D01*
X5551777Y-56626777D01*
X5533599Y-56643253D01*
X5513893Y-56657868D01*
X5492850Y-56670480D01*
X5470671Y-56680970D01*
X5447572Y-56689235D01*
X5423773Y-56695196D01*
X5399505Y-56698796D01*
X5375001Y-56700000D01*
X4724999Y-56700000D01*
X4700495Y-56698796D01*
X4676227Y-56695196D01*
X4652428Y-56689235D01*
X4629329Y-56680970D01*
X4607150Y-56670480D01*
X4586107Y-56657868D01*
X4566401Y-56643253D01*
X4548223Y-56626777D01*
X4531747Y-56608599D01*
X4517132Y-56588893D01*
X4504520Y-56567850D01*
X4494030Y-56545671D01*
X4485765Y-56522572D01*
X4479804Y-56498773D01*
X4476204Y-56474505D01*
X4475000Y-56450001D01*
X4475000Y-55549999D01*
X4476204Y-55525495D01*
X4479804Y-55501227D01*
X4485765Y-55477428D01*
X4494030Y-55454329D01*
X4504520Y-55432150D01*
X4517132Y-55411107D01*
X4531747Y-55391401D01*
X4548223Y-55373223D01*
X4566401Y-55356747D01*
X4586107Y-55342132D01*
X4607150Y-55329520D01*
X4629329Y-55319030D01*
X4652428Y-55310765D01*
X4676227Y-55304804D01*
X4700495Y-55301204D01*
X4724999Y-55300000D01*
X5375001Y-55300000D01*
X5399505Y-55301204D01*
X5399505Y-55301204D01*
G37*
D19*
G04 #@! TD*
G04 #@! TO.P,R4,2*
G04 #@! TO.N,Net-(J_IN1-Pad1)*
X5050000Y-56000000D03*
D18*
G04 #@! TO.N,/audio.out.cb*
G04 #@! TO.C,R5*
G36*
X5374505Y-58801204D02*
X5398773Y-58804804D01*
X5422572Y-58810765D01*
X5445671Y-58819030D01*
X5467850Y-58829520D01*
X5488893Y-58842132D01*
X5508599Y-58856747D01*
X5526777Y-58873223D01*
X5543253Y-58891401D01*
X5557868Y-58911107D01*
X5570480Y-58932150D01*
X5580970Y-58954329D01*
X5589235Y-58977428D01*
X5595196Y-59001227D01*
X5598796Y-59025495D01*
X5600000Y-59049999D01*
X5600000Y-59950001D01*
X5598796Y-59974505D01*
X5595196Y-59998773D01*
X5589235Y-60022572D01*
X5580970Y-60045671D01*
X5570480Y-60067850D01*
X5557868Y-60088893D01*
X5543253Y-60108599D01*
X5526777Y-60126777D01*
X5508599Y-60143253D01*
X5488893Y-60157868D01*
X5467850Y-60170480D01*
X5445671Y-60180970D01*
X5422572Y-60189235D01*
X5398773Y-60195196D01*
X5374505Y-60198796D01*
X5350001Y-60200000D01*
X4699999Y-60200000D01*
X4675495Y-60198796D01*
X4651227Y-60195196D01*
X4627428Y-60189235D01*
X4604329Y-60180970D01*
X4582150Y-60170480D01*
X4561107Y-60157868D01*
X4541401Y-60143253D01*
X4523223Y-60126777D01*
X4506747Y-60108599D01*
X4492132Y-60088893D01*
X4479520Y-60067850D01*
X4469030Y-60045671D01*
X4460765Y-60022572D01*
X4454804Y-59998773D01*
X4451204Y-59974505D01*
X4450000Y-59950001D01*
X4450000Y-59049999D01*
X4451204Y-59025495D01*
X4454804Y-59001227D01*
X4460765Y-58977428D01*
X4469030Y-58954329D01*
X4479520Y-58932150D01*
X4492132Y-58911107D01*
X4506747Y-58891401D01*
X4523223Y-58873223D01*
X4541401Y-58856747D01*
X4561107Y-58842132D01*
X4582150Y-58829520D01*
X4604329Y-58819030D01*
X4627428Y-58810765D01*
X4651227Y-58804804D01*
X4675495Y-58801204D01*
X4699999Y-58800000D01*
X5350001Y-58800000D01*
X5374505Y-58801204D01*
X5374505Y-58801204D01*
G37*
D19*
G04 #@! TD*
G04 #@! TO.P,R5,2*
G04 #@! TO.N,/audio.out.cb*
X5025000Y-59500000D03*
D18*
G04 #@! TO.N,Net-(J_OUT1-Pad1)*
G04 #@! TO.C,R5*
G36*
X3324505Y-58801204D02*
X3348773Y-58804804D01*
X3372572Y-58810765D01*
X3395671Y-58819030D01*
X3417850Y-58829520D01*
X3438893Y-58842132D01*
X3458599Y-58856747D01*
X3476777Y-58873223D01*
X3493253Y-58891401D01*
X3507868Y-58911107D01*
X3520480Y-58932150D01*
X3530970Y-58954329D01*
X3539235Y-58977428D01*
X3545196Y-59001227D01*
X3548796Y-59025495D01*
X3550000Y-59049999D01*
X3550000Y-59950001D01*
X3548796Y-59974505D01*
X3545196Y-59998773D01*
X3539235Y-60022572D01*
X3530970Y-60045671D01*
X3520480Y-60067850D01*
X3507868Y-60088893D01*
X3493253Y-60108599D01*
X3476777Y-60126777D01*
X3458599Y-60143253D01*
X3438893Y-60157868D01*
X3417850Y-60170480D01*
X3395671Y-60180970D01*
X3372572Y-60189235D01*
X3348773Y-60195196D01*
X3324505Y-60198796D01*
X3300001Y-60200000D01*
X2649999Y-60200000D01*
X2625495Y-60198796D01*
X2601227Y-60195196D01*
X2577428Y-60189235D01*
X2554329Y-60180970D01*
X2532150Y-60170480D01*
X2511107Y-60157868D01*
X2491401Y-60143253D01*
X2473223Y-60126777D01*
X2456747Y-60108599D01*
X2442132Y-60088893D01*
X2429520Y-60067850D01*
X2419030Y-60045671D01*
X2410765Y-60022572D01*
X2404804Y-59998773D01*
X2401204Y-59974505D01*
X2400000Y-59950001D01*
X2400000Y-59049999D01*
X2401204Y-59025495D01*
X2404804Y-59001227D01*
X2410765Y-58977428D01*
X2419030Y-58954329D01*
X2429520Y-58932150D01*
X2442132Y-58911107D01*
X2456747Y-58891401D01*
X2473223Y-58873223D01*
X2491401Y-58856747D01*
X2511107Y-58842132D01*
X2532150Y-58829520D01*
X2554329Y-58819030D01*
X2577428Y-58810765D01*
X2601227Y-58804804D01*
X2625495Y-58801204D01*
X2649999Y-58800000D01*
X3300001Y-58800000D01*
X3324505Y-58801204D01*
X3324505Y-58801204D01*
G37*
D19*
G04 #@! TD*
G04 #@! TO.P,R5,1*
G04 #@! TO.N,Net-(J_OUT1-Pad1)*
X2975000Y-59500000D03*
D14*
G04 #@! TO.P,J2,1*
G04 #@! TO.N,/R.gain.1.cb*
X36000000Y-1500000D03*
D15*
G04 #@! TO.P,J2,2*
G04 #@! TO.N,/R.gain.3.cb*
X36000000Y-4040000D03*
G04 #@! TO.P,J2,3*
G04 #@! TO.N,/fb.cv.in.cb*
X36000000Y-6580000D03*
G04 #@! TO.P,J2,4*
G04 #@! TO.N,/fb.cv.level.cb*
X36000000Y-9120000D03*
G04 #@! TO.P,J2,5*
G04 #@! TO.N,/fb.level.cb*
X36000000Y-11660000D03*
G04 #@! TO.P,J2,6*
G04 #@! TO.N,/drv.cv.in.cb*
X36000000Y-14200000D03*
G04 #@! TO.P,J2,7*
G04 #@! TO.N,/drv.cv.level.cb*
X36000000Y-16740000D03*
G04 #@! TO.P,J2,8*
G04 #@! TO.N,/drv.level.cb*
X36000000Y-19280000D03*
G04 #@! TO.P,J2,9*
G04 #@! TO.N,/tone.level.cb*
X36000000Y-21820000D03*
G04 #@! TO.P,J2,10*
G04 #@! TO.N,/tube.gnd.cb*
X36000000Y-24360000D03*
G04 #@! TD*
D20*
G04 #@! TO.N,Net-(J_OUT1-Pad1)*
X4751700Y-68524300D03*
G04 #@! TO.N,/led.fb.out.cb*
X19623400Y-44339000D03*
G04 #@! TO.N,/led.fb.in.cb*
X19672200Y-41240800D03*
G04 #@! TO.N,/gnd.cb*
X31500000Y-1500000D03*
X31000000Y-61000000D03*
X8000000Y-62500000D03*
G04 #@! TO.N,/fb.cv.in.cb*
X4927000Y-39539700D03*
G04 #@! TO.N,/drv.cv.in.cb*
X4893200Y-40748300D03*
G04 #@! TO.N,/drv.cv.level.cb*
X6795700Y-57344300D03*
G04 #@! TO.N,/drv.level.cb*
X33819200Y-25717300D03*
G04 #@! TD*
D21*
G04 #@! TO.N,Net-(J_IN1-Pad1)*
X5050000Y-56000000D02*
X5926400Y-56876400D01*
X5926400Y-56876400D02*
X5926400Y-70273600D01*
X5926400Y-70273600D02*
X10656800Y-75004000D01*
X10656800Y-75004000D02*
X10656800Y-86416600D01*
X10656800Y-86416600D02*
X7673300Y-89400100D01*
X7673300Y-89400100D02*
X7673300Y-103825400D01*
X7673300Y-103825400D02*
X4500000Y-106998700D01*
G04 #@! TO.N,Net-(J_OUT1-Pad1)*
X2975000Y-59500000D02*
X4751700Y-61276700D01*
X4751700Y-61276700D02*
X4751700Y-68524300D01*
G04 #@! TO.N,/led.fb.out.cb*
X19623400Y-44339000D02*
X16145100Y-40860700D01*
X16145100Y-40860700D02*
X16145100Y-38154700D01*
X16145100Y-38154700D02*
X2350400Y-24360000D01*
X2350400Y-24360000D02*
X2000000Y-24360000D01*
G04 #@! TO.N,/led.fb.in.cb*
X2000000Y-21820000D02*
X2000000Y-22995300D01*
X19672200Y-41240800D02*
X19672200Y-40524300D01*
X19672200Y-40524300D02*
X3175300Y-24027400D01*
X3175300Y-24027400D02*
X3175300Y-23769300D01*
X3175300Y-23769300D02*
X2401300Y-22995300D01*
X2401300Y-22995300D02*
X2000000Y-22995300D01*
G04 #@! TO.N,/led.clip.in.cb*
X32460000Y-86000000D02*
X24039200Y-77579200D01*
X24039200Y-77579200D02*
X24039200Y-66797600D01*
X24039200Y-66797600D02*
X20348700Y-63107100D01*
X20348700Y-63107100D02*
X20348700Y-43224000D01*
X20348700Y-43224000D02*
X20410000Y-43162700D01*
X20410000Y-43162700D02*
X20410000Y-40625200D01*
X20410000Y-40625200D02*
X4379700Y-24594900D01*
X4379700Y-24594900D02*
X4379700Y-19927700D01*
X4379700Y-19927700D02*
X2367300Y-17915300D01*
X2367300Y-17915300D02*
X2000000Y-17915300D01*
X2000000Y-16740000D02*
X2000000Y-17915300D01*
G04 #@! TO.N,/+12V.cb*
X2000000Y-1500000D02*
X2000000Y-2675300D01*
X2000000Y-2675300D02*
X2367300Y-2675300D01*
X2367300Y-2675300D02*
X6208900Y-6516900D01*
X6208900Y-6516900D02*
X6208900Y-18635900D01*
X6208900Y-18635900D02*
X18478700Y-30905700D01*
X18478700Y-30905700D02*
X18911700Y-30905700D01*
X18911700Y-30905700D02*
X29522800Y-41516800D01*
X29522800Y-41516800D02*
X32018500Y-41516800D01*
X32018500Y-41516800D02*
X33499400Y-42997700D01*
X21499400Y-60997700D02*
X33499400Y-48997700D01*
X33499400Y-48997700D02*
X33499400Y-42997700D01*
G04 #@! TO.N,/gnd.cb*
X10500600Y-92997700D02*
X11650100Y-92997700D01*
X14250000Y-95500100D02*
X13865100Y-95500100D01*
X13865100Y-95500100D02*
X11650100Y-93285100D01*
X11650100Y-93285100D02*
X11650100Y-92997700D01*
X16649000Y-92997700D02*
X16649000Y-93476100D01*
X16649000Y-93476100D02*
X14625000Y-95500100D01*
X14625000Y-95500100D02*
X14250000Y-95500100D01*
X19000000Y-37540000D02*
X21893400Y-37540000D01*
X21893400Y-37540000D02*
X27351100Y-42997700D01*
X16500600Y-60997700D02*
X16500600Y-62147200D01*
X16500600Y-62147200D02*
X15724500Y-62923300D01*
X15724500Y-62923300D02*
X15724500Y-86797900D01*
X15724500Y-86797900D02*
X16649000Y-87722400D01*
X16649000Y-87722400D02*
X16649000Y-92997700D01*
X21351100Y-92997700D02*
X16649000Y-92997700D01*
X28500600Y-42997700D02*
X27351100Y-42997700D01*
X22500600Y-92997700D02*
X21351100Y-92997700D01*
X4500600Y-78997700D02*
X4500600Y-80147200D01*
X4500000Y-95500100D02*
X4500000Y-80147800D01*
X4500000Y-80147800D02*
X4500600Y-80147200D01*
X7000000Y-42997700D02*
X4500600Y-42997700D01*
G04 #@! TO.N,/audio.out.cb*
X2000000Y-14200000D02*
X2000000Y-15375300D01*
X5025000Y-59500000D02*
X4025000Y-58500000D01*
X4025000Y-58500000D02*
X4025000Y-55413100D01*
X4025000Y-55413100D02*
X776700Y-52164800D01*
X776700Y-52164800D02*
X776700Y-16233300D01*
X776700Y-16233300D02*
X1634700Y-15375300D01*
X1634700Y-15375300D02*
X2000000Y-15375300D01*
G04 #@! TO.N,/R.gain.1.cb*
X36000000Y-2675300D02*
X35632700Y-2675300D01*
X35632700Y-2675300D02*
X33093900Y-5214100D01*
X33093900Y-5214100D02*
X33093900Y-40474400D01*
X33093900Y-40474400D02*
X34661500Y-42042000D01*
X34661500Y-42042000D02*
X34661500Y-50702800D01*
X34661500Y-50702800D02*
X33774700Y-51589600D01*
X33774700Y-51589600D02*
X33774700Y-72574100D01*
X33774700Y-72574100D02*
X28500600Y-77848200D01*
X28500600Y-78997700D02*
X28500600Y-77848200D01*
X36000000Y-1500000D02*
X36000000Y-2675300D01*
G04 #@! TO.N,/R.gain.3.cb*
X36000000Y-4040000D02*
X36000000Y-5215300D01*
X36000000Y-5215300D02*
X36367300Y-5215300D01*
X36367300Y-5215300D02*
X37251600Y-6099600D01*
X37251600Y-6099600D02*
X37251600Y-75245500D01*
X37251600Y-75245500D02*
X33499400Y-78997700D01*
X33499400Y-78997700D02*
X31000000Y-78997700D01*
G04 #@! TO.N,/fb.cv.in.cb*
X2975000Y-49000000D02*
X2881500Y-48906500D01*
X2881500Y-48906500D02*
X2881500Y-41585200D01*
X2881500Y-41585200D02*
X4927000Y-39539700D01*
G04 #@! TO.N,/drv.cv.in.cb*
X2975000Y-52500000D02*
X3899800Y-51575200D01*
X3899800Y-51575200D02*
X3899800Y-46625800D01*
X3899800Y-46625800D02*
X3351000Y-46077000D01*
X3351000Y-46077000D02*
X3351000Y-41958700D01*
X3351000Y-41958700D02*
X4561400Y-40748300D01*
X4561400Y-40748300D02*
X4893200Y-40748300D01*
G04 #@! TO.N,/drv.cv.level.cb*
X6795700Y-57344300D02*
X6795700Y-70344900D01*
X6795700Y-70344900D02*
X13000000Y-76549200D01*
X13000000Y-76549200D02*
X13000000Y-92997700D01*
G04 #@! TO.N,/drv.level.cb*
X36000000Y-19280000D02*
X36000000Y-20455300D01*
X36000000Y-20455300D02*
X35632700Y-20455300D01*
X35632700Y-20455300D02*
X33819200Y-22268800D01*
X33819200Y-22268800D02*
X33819200Y-25717300D01*
G04 #@! TO.N,Net-(J_IN_DRV1-Pad1)*
X5025000Y-52500000D02*
X15049100Y-62524100D01*
X15049100Y-62524100D02*
X15049100Y-92547400D01*
X15049100Y-92547400D02*
X15499400Y-92997700D01*
G04 #@! TO.N,Net-(J_IN_FB1-Pad1)*
X5025000Y-49000000D02*
X6628600Y-49000000D01*
X6628600Y-49000000D02*
X17650200Y-60021600D01*
X17650200Y-60021600D02*
X17650200Y-63731800D01*
X17650200Y-63731800D02*
X22224100Y-68305700D01*
X22224100Y-68305700D02*
X22224100Y-87722400D01*
X22224100Y-87722400D02*
X27499400Y-92997700D01*
X27499400Y-92997700D02*
X27499400Y-103249300D01*
X27499400Y-103249300D02*
X23750000Y-106998700D01*
G04 #@! TO.N,Net-(R4-Pad1)*
X3000000Y-56000000D02*
X2063000Y-56937000D01*
X2063000Y-56937000D02*
X2063000Y-68586600D01*
X2063000Y-68586600D02*
X9499400Y-76023000D01*
X9499400Y-76023000D02*
X9499400Y-78997700D01*
G04 #@! TO.N,/-12V.cb*
X2000000Y-6580000D02*
X2000000Y-7755300D01*
X2000000Y-7755300D02*
X2367400Y-7755300D01*
X2367400Y-7755300D02*
X3175300Y-8563200D01*
X3175300Y-8563200D02*
X3175300Y-16635300D01*
X3175300Y-16635300D02*
X19000000Y-32460000D01*
G04 #@! TD*
D22*
G04 #@! TO.N,/gnd.cb*
G36*
X8739400Y-76337802D02*
X8739401Y-77733027D01*
X8672773Y-77760625D01*
X8262285Y-78171113D01*
X8249680Y-78201544D01*
X8237075Y-78171113D01*
X7826587Y-77760625D01*
X7290259Y-77538470D01*
X6709741Y-77538470D01*
X6173413Y-77760625D01*
X5938491Y-77995547D01*
X5863197Y-77813771D01*
X5684568Y-77635143D01*
X5451179Y-77538470D01*
X4786390Y-77538470D01*
X4627640Y-77697220D01*
X4627640Y-78870700D01*
X4647640Y-78870700D01*
X4647640Y-79124700D01*
X4627640Y-79124700D01*
X4627640Y-80298180D01*
X4786390Y-80456930D01*
X5451179Y-80456930D01*
X5684568Y-80360257D01*
X5863197Y-80181629D01*
X5938491Y-79999853D01*
X6173413Y-80234775D01*
X6709741Y-80456930D01*
X7290259Y-80456930D01*
X7826587Y-80234775D01*
X8237075Y-79824287D01*
X8249680Y-79793856D01*
X8262285Y-79824287D01*
X8672773Y-80234775D01*
X9209101Y-80456930D01*
X9789619Y-80456930D01*
X9896800Y-80412534D01*
X9896801Y-84521460D01*
X9652695Y-84277354D01*
X8905850Y-83968000D01*
X8097470Y-83968000D01*
X7350625Y-84277354D01*
X6779014Y-84848965D01*
X6469660Y-85595810D01*
X6469660Y-86404190D01*
X6779014Y-87151035D01*
X7350625Y-87722646D01*
X8004930Y-87993669D01*
X7188830Y-88809769D01*
X7125371Y-88852171D01*
X6957396Y-89103564D01*
X6913300Y-89325249D01*
X6913300Y-89325253D01*
X6898412Y-89400100D01*
X6913300Y-89474947D01*
X6913301Y-103510597D01*
X4856833Y-105567066D01*
X4790259Y-105539490D01*
X4209741Y-105539490D01*
X3673413Y-105761645D01*
X3262925Y-106172133D01*
X3040770Y-106708461D01*
X3040770Y-107265000D01*
X735000Y-107265000D01*
X735000Y-101575322D01*
X2365000Y-101575322D01*
X2365000Y-102424678D01*
X2690034Y-103209380D01*
X3290620Y-103809966D01*
X4075322Y-104135000D01*
X4924678Y-104135000D01*
X5709380Y-103809966D01*
X6309966Y-103209380D01*
X6635000Y-102424678D01*
X6635000Y-101575322D01*
X6309966Y-100790620D01*
X5709380Y-100190034D01*
X4974135Y-99885486D01*
X5326587Y-99739495D01*
X5737075Y-99329007D01*
X5959230Y-98792679D01*
X5959230Y-98212161D01*
X5737075Y-97675833D01*
X5326587Y-97265345D01*
X4790259Y-97043190D01*
X4209741Y-97043190D01*
X3673413Y-97265345D01*
X3262925Y-97675833D01*
X3040770Y-98212161D01*
X3040770Y-98792679D01*
X3262925Y-99329007D01*
X3673413Y-99739495D01*
X4025865Y-99885486D01*
X3290620Y-100190034D01*
X2690034Y-100790620D01*
X2365000Y-101575322D01*
X735000Y-101575322D01*
X735000Y-96525435D01*
X3654310Y-96525435D01*
X3731419Y-96774066D01*
X4277435Y-96971217D01*
X4857334Y-96944410D01*
X5268581Y-96774066D01*
X5345690Y-96525435D01*
X4500000Y-95679745D01*
X3654310Y-96525435D01*
X735000Y-96525435D01*
X735000Y-95277575D01*
X3028923Y-95277575D01*
X3055730Y-95857474D01*
X3226074Y-96268721D01*
X3474705Y-96345830D01*
X4320395Y-95500140D01*
X4679605Y-95500140D01*
X5525295Y-96345830D01*
X5773926Y-96268721D01*
X5971077Y-95722705D01*
X5944270Y-95142806D01*
X5773926Y-94731559D01*
X5525295Y-94654450D01*
X4679605Y-95500140D01*
X4320395Y-95500140D01*
X3474705Y-94654450D01*
X3226074Y-94731559D01*
X3028923Y-95277575D01*
X735000Y-95277575D01*
X735000Y-94474845D01*
X3654310Y-94474845D01*
X4500000Y-95320535D01*
X5345690Y-94474845D01*
X5268581Y-94226214D01*
X4722565Y-94029063D01*
X4142666Y-94055870D01*
X3731419Y-94226214D01*
X3654310Y-94474845D01*
X735000Y-94474845D01*
X735000Y-79283450D01*
X3041410Y-79283450D01*
X3041410Y-79948240D01*
X3138083Y-80181629D01*
X3316712Y-80360257D01*
X3550101Y-80456930D01*
X4214890Y-80456930D01*
X4373640Y-80298180D01*
X4373640Y-79124700D01*
X3200160Y-79124700D01*
X3041410Y-79283450D01*
X735000Y-79283450D01*
X735000Y-78047160D01*
X3041410Y-78047160D01*
X3041410Y-78711950D01*
X3200160Y-78870700D01*
X4373640Y-78870700D01*
X4373640Y-77697220D01*
X4214890Y-77538470D01*
X3550101Y-77538470D01*
X3316712Y-77635143D01*
X3138083Y-77813771D01*
X3041410Y-78047160D01*
X735000Y-78047160D01*
X735000Y-73044776D01*
X779014Y-73151035D01*
X1350625Y-73722646D01*
X2097470Y-74032000D01*
X2905850Y-74032000D01*
X3652695Y-73722646D01*
X4224306Y-73151035D01*
X4533660Y-72404190D01*
X4533660Y-72132061D01*
X8739400Y-76337802D01*
X8739400Y-76337802D01*
G37*
X8739400Y-76337802D02*
X8739401Y-77733027D01*
X8672773Y-77760625D01*
X8262285Y-78171113D01*
X8249680Y-78201544D01*
X8237075Y-78171113D01*
X7826587Y-77760625D01*
X7290259Y-77538470D01*
X6709741Y-77538470D01*
X6173413Y-77760625D01*
X5938491Y-77995547D01*
X5863197Y-77813771D01*
X5684568Y-77635143D01*
X5451179Y-77538470D01*
X4786390Y-77538470D01*
X4627640Y-77697220D01*
X4627640Y-78870700D01*
X4647640Y-78870700D01*
X4647640Y-79124700D01*
X4627640Y-79124700D01*
X4627640Y-80298180D01*
X4786390Y-80456930D01*
X5451179Y-80456930D01*
X5684568Y-80360257D01*
X5863197Y-80181629D01*
X5938491Y-79999853D01*
X6173413Y-80234775D01*
X6709741Y-80456930D01*
X7290259Y-80456930D01*
X7826587Y-80234775D01*
X8237075Y-79824287D01*
X8249680Y-79793856D01*
X8262285Y-79824287D01*
X8672773Y-80234775D01*
X9209101Y-80456930D01*
X9789619Y-80456930D01*
X9896800Y-80412534D01*
X9896801Y-84521460D01*
X9652695Y-84277354D01*
X8905850Y-83968000D01*
X8097470Y-83968000D01*
X7350625Y-84277354D01*
X6779014Y-84848965D01*
X6469660Y-85595810D01*
X6469660Y-86404190D01*
X6779014Y-87151035D01*
X7350625Y-87722646D01*
X8004930Y-87993669D01*
X7188830Y-88809769D01*
X7125371Y-88852171D01*
X6957396Y-89103564D01*
X6913300Y-89325249D01*
X6913300Y-89325253D01*
X6898412Y-89400100D01*
X6913300Y-89474947D01*
X6913301Y-103510597D01*
X4856833Y-105567066D01*
X4790259Y-105539490D01*
X4209741Y-105539490D01*
X3673413Y-105761645D01*
X3262925Y-106172133D01*
X3040770Y-106708461D01*
X3040770Y-107265000D01*
X735000Y-107265000D01*
X735000Y-101575322D01*
X2365000Y-101575322D01*
X2365000Y-102424678D01*
X2690034Y-103209380D01*
X3290620Y-103809966D01*
X4075322Y-104135000D01*
X4924678Y-104135000D01*
X5709380Y-103809966D01*
X6309966Y-103209380D01*
X6635000Y-102424678D01*
X6635000Y-101575322D01*
X6309966Y-100790620D01*
X5709380Y-100190034D01*
X4974135Y-99885486D01*
X5326587Y-99739495D01*
X5737075Y-99329007D01*
X5959230Y-98792679D01*
X5959230Y-98212161D01*
X5737075Y-97675833D01*
X5326587Y-97265345D01*
X4790259Y-97043190D01*
X4209741Y-97043190D01*
X3673413Y-97265345D01*
X3262925Y-97675833D01*
X3040770Y-98212161D01*
X3040770Y-98792679D01*
X3262925Y-99329007D01*
X3673413Y-99739495D01*
X4025865Y-99885486D01*
X3290620Y-100190034D01*
X2690034Y-100790620D01*
X2365000Y-101575322D01*
X735000Y-101575322D01*
X735000Y-96525435D01*
X3654310Y-96525435D01*
X3731419Y-96774066D01*
X4277435Y-96971217D01*
X4857334Y-96944410D01*
X5268581Y-96774066D01*
X5345690Y-96525435D01*
X4500000Y-95679745D01*
X3654310Y-96525435D01*
X735000Y-96525435D01*
X735000Y-95277575D01*
X3028923Y-95277575D01*
X3055730Y-95857474D01*
X3226074Y-96268721D01*
X3474705Y-96345830D01*
X4320395Y-95500140D01*
X4679605Y-95500140D01*
X5525295Y-96345830D01*
X5773926Y-96268721D01*
X5971077Y-95722705D01*
X5944270Y-95142806D01*
X5773926Y-94731559D01*
X5525295Y-94654450D01*
X4679605Y-95500140D01*
X4320395Y-95500140D01*
X3474705Y-94654450D01*
X3226074Y-94731559D01*
X3028923Y-95277575D01*
X735000Y-95277575D01*
X735000Y-94474845D01*
X3654310Y-94474845D01*
X4500000Y-95320535D01*
X5345690Y-94474845D01*
X5268581Y-94226214D01*
X4722565Y-94029063D01*
X4142666Y-94055870D01*
X3731419Y-94226214D01*
X3654310Y-94474845D01*
X735000Y-94474845D01*
X735000Y-79283450D01*
X3041410Y-79283450D01*
X3041410Y-79948240D01*
X3138083Y-80181629D01*
X3316712Y-80360257D01*
X3550101Y-80456930D01*
X4214890Y-80456930D01*
X4373640Y-80298180D01*
X4373640Y-79124700D01*
X3200160Y-79124700D01*
X3041410Y-79283450D01*
X735000Y-79283450D01*
X735000Y-78047160D01*
X3041410Y-78047160D01*
X3041410Y-78711950D01*
X3200160Y-78870700D01*
X4373640Y-78870700D01*
X4373640Y-77697220D01*
X4214890Y-77538470D01*
X3550101Y-77538470D01*
X3316712Y-77635143D01*
X3138083Y-77813771D01*
X3041410Y-78047160D01*
X735000Y-78047160D01*
X735000Y-73044776D01*
X779014Y-73151035D01*
X1350625Y-73722646D01*
X2097470Y-74032000D01*
X2905850Y-74032000D01*
X3652695Y-73722646D01*
X4224306Y-73151035D01*
X4533660Y-72404190D01*
X4533660Y-72132061D01*
X8739400Y-76337802D01*
G36*
X12240000Y-76864002D02*
X12240001Y-91733043D01*
X12173413Y-91760625D01*
X11938491Y-91995547D01*
X11863197Y-91813771D01*
X11684568Y-91635143D01*
X11451179Y-91538470D01*
X10786390Y-91538470D01*
X10627640Y-91697220D01*
X10627640Y-92870700D01*
X10647640Y-92870700D01*
X10647640Y-93124700D01*
X10627640Y-93124700D01*
X10627640Y-94298180D01*
X10786390Y-94456930D01*
X11451179Y-94456930D01*
X11684568Y-94360257D01*
X11863197Y-94181629D01*
X11938491Y-93999853D01*
X12173413Y-94234775D01*
X12709741Y-94456930D01*
X13192636Y-94456930D01*
X13109909Y-94539657D01*
X13224703Y-94654451D01*
X12976074Y-94731559D01*
X12778923Y-95277575D01*
X12805730Y-95857474D01*
X12976074Y-96268721D01*
X13224705Y-96345830D01*
X14070395Y-95500140D01*
X14056253Y-95485998D01*
X14235858Y-95306393D01*
X14250000Y-95320535D01*
X14264143Y-95306393D01*
X14443748Y-95485998D01*
X14429605Y-95500140D01*
X15275295Y-96345830D01*
X15523926Y-96268721D01*
X15721077Y-95722705D01*
X15700500Y-95277575D01*
X22278923Y-95277575D01*
X22305730Y-95857474D01*
X22476074Y-96268721D01*
X22724705Y-96345830D01*
X23570395Y-95500140D01*
X22724705Y-94654450D01*
X22476074Y-94731559D01*
X22278923Y-95277575D01*
X15700500Y-95277575D01*
X15694270Y-95142806D01*
X15523926Y-94731559D01*
X15275297Y-94654451D01*
X15390091Y-94539657D01*
X15307364Y-94456930D01*
X15789619Y-94456930D01*
X16325947Y-94234775D01*
X16736435Y-93824287D01*
X16958590Y-93287959D01*
X16958590Y-93283450D01*
X21041410Y-93283450D01*
X21041410Y-93948240D01*
X21138083Y-94181629D01*
X21316712Y-94360257D01*
X21550101Y-94456930D01*
X22214890Y-94456930D01*
X22373640Y-94298180D01*
X22373640Y-93124700D01*
X21200160Y-93124700D01*
X21041410Y-93283450D01*
X16958590Y-93283450D01*
X16958590Y-92707441D01*
X16736435Y-92171113D01*
X16612482Y-92047160D01*
X21041410Y-92047160D01*
X21041410Y-92711950D01*
X21200160Y-92870700D01*
X22373640Y-92870700D01*
X22373640Y-91697220D01*
X22214890Y-91538470D01*
X21550101Y-91538470D01*
X21316712Y-91635143D01*
X21138083Y-91813771D01*
X21041410Y-92047160D01*
X16612482Y-92047160D01*
X16325947Y-91760625D01*
X15809100Y-91546539D01*
X15809100Y-87184441D01*
X16347305Y-87722646D01*
X17094150Y-88032000D01*
X17902530Y-88032000D01*
X18649375Y-87722646D01*
X19000000Y-87372021D01*
X19350625Y-87722646D01*
X20097470Y-88032000D01*
X20905850Y-88032000D01*
X21464746Y-87800497D01*
X21508197Y-88018937D01*
X21676172Y-88270329D01*
X21739628Y-88312729D01*
X24965368Y-91538470D01*
X24709741Y-91538470D01*
X24173413Y-91760625D01*
X23938491Y-91995547D01*
X23863197Y-91813771D01*
X23684568Y-91635143D01*
X23451179Y-91538470D01*
X22786390Y-91538470D01*
X22627640Y-91697220D01*
X22627640Y-92870700D01*
X22647640Y-92870700D01*
X22647640Y-93124700D01*
X22627640Y-93124700D01*
X22627640Y-94298180D01*
X22786390Y-94456930D01*
X22909866Y-94456930D01*
X22904310Y-94474845D01*
X23750000Y-95320535D01*
X23764143Y-95306393D01*
X23943748Y-95485998D01*
X23929605Y-95500140D01*
X24775295Y-96345830D01*
X25023926Y-96268721D01*
X25221077Y-95722705D01*
X25194270Y-95142806D01*
X25023926Y-94731559D01*
X24775297Y-94654451D01*
X24890091Y-94539657D01*
X24807364Y-94456930D01*
X25290259Y-94456930D01*
X25826587Y-94234775D01*
X26237075Y-93824287D01*
X26249680Y-93793856D01*
X26262285Y-93824287D01*
X26672773Y-94234775D01*
X26739400Y-94262373D01*
X26739401Y-102934496D01*
X24106833Y-105567066D01*
X24040259Y-105539490D01*
X23459741Y-105539490D01*
X22923413Y-105761645D01*
X22512925Y-106172133D01*
X22290770Y-106708461D01*
X22290770Y-107265000D01*
X15709230Y-107265000D01*
X15709230Y-106708461D01*
X15487075Y-106172133D01*
X15076587Y-105761645D01*
X14540259Y-105539490D01*
X13959741Y-105539490D01*
X13423413Y-105761645D01*
X13012925Y-106172133D01*
X12790770Y-106708461D01*
X12790770Y-107265000D01*
X5959230Y-107265000D01*
X5959230Y-106708461D01*
X5931642Y-106641859D01*
X8157773Y-104415729D01*
X8221229Y-104373329D01*
X8389204Y-104121937D01*
X8433300Y-103900252D01*
X8433300Y-103900247D01*
X8448188Y-103825400D01*
X8433300Y-103750553D01*
X8433300Y-101575322D01*
X12115000Y-101575322D01*
X12115000Y-102424678D01*
X12440034Y-103209380D01*
X13040620Y-103809966D01*
X13825322Y-104135000D01*
X14674678Y-104135000D01*
X15459380Y-103809966D01*
X16059966Y-103209380D01*
X16385000Y-102424678D01*
X16385000Y-101575322D01*
X21615000Y-101575322D01*
X21615000Y-102424678D01*
X21940034Y-103209380D01*
X22540620Y-103809966D01*
X23325322Y-104135000D01*
X24174678Y-104135000D01*
X24959380Y-103809966D01*
X25559966Y-103209380D01*
X25885000Y-102424678D01*
X25885000Y-101575322D01*
X25559966Y-100790620D01*
X24959380Y-100190034D01*
X24224135Y-99885486D01*
X24576587Y-99739495D01*
X24987075Y-99329007D01*
X25209230Y-98792679D01*
X25209230Y-98212161D01*
X24987075Y-97675833D01*
X24576587Y-97265345D01*
X24040259Y-97043190D01*
X23459741Y-97043190D01*
X22923413Y-97265345D01*
X22512925Y-97675833D01*
X22290770Y-98212161D01*
X22290770Y-98792679D01*
X22512925Y-99329007D01*
X22923413Y-99739495D01*
X23275865Y-99885486D01*
X22540620Y-100190034D01*
X21940034Y-100790620D01*
X21615000Y-101575322D01*
X16385000Y-101575322D01*
X16059966Y-100790620D01*
X15459380Y-100190034D01*
X14724135Y-99885486D01*
X15076587Y-99739495D01*
X15487075Y-99329007D01*
X15709230Y-98792679D01*
X15709230Y-98212161D01*
X15487075Y-97675833D01*
X15076587Y-97265345D01*
X14540259Y-97043190D01*
X13959741Y-97043190D01*
X13423413Y-97265345D01*
X13012925Y-97675833D01*
X12790770Y-98212161D01*
X12790770Y-98792679D01*
X13012925Y-99329007D01*
X13423413Y-99739495D01*
X13775865Y-99885486D01*
X13040620Y-100190034D01*
X12440034Y-100790620D01*
X12115000Y-101575322D01*
X8433300Y-101575322D01*
X8433300Y-96525435D01*
X13404310Y-96525435D01*
X13481419Y-96774066D01*
X14027435Y-96971217D01*
X14607334Y-96944410D01*
X15018581Y-96774066D01*
X15095690Y-96525435D01*
X22904310Y-96525435D01*
X22981419Y-96774066D01*
X23527435Y-96971217D01*
X24107334Y-96944410D01*
X24518581Y-96774066D01*
X24595690Y-96525435D01*
X23750000Y-95679745D01*
X22904310Y-96525435D01*
X15095690Y-96525435D01*
X14250000Y-95679745D01*
X13404310Y-96525435D01*
X8433300Y-96525435D01*
X8433300Y-93283450D01*
X9041410Y-93283450D01*
X9041410Y-93948240D01*
X9138083Y-94181629D01*
X9316712Y-94360257D01*
X9550101Y-94456930D01*
X10214890Y-94456930D01*
X10373640Y-94298180D01*
X10373640Y-93124700D01*
X9200160Y-93124700D01*
X9041410Y-93283450D01*
X8433300Y-93283450D01*
X8433300Y-92047160D01*
X9041410Y-92047160D01*
X9041410Y-92711950D01*
X9200160Y-92870700D01*
X10373640Y-92870700D01*
X10373640Y-91697220D01*
X10214890Y-91538470D01*
X9550101Y-91538470D01*
X9316712Y-91635143D01*
X9138083Y-91813771D01*
X9041410Y-92047160D01*
X8433300Y-92047160D01*
X8433300Y-89714901D01*
X11141273Y-87006929D01*
X11204729Y-86964529D01*
X11372704Y-86713137D01*
X11416800Y-86491452D01*
X11416800Y-86491448D01*
X11431688Y-86416601D01*
X11416800Y-86341754D01*
X11416800Y-76040802D01*
X12240000Y-76864002D01*
X12240000Y-76864002D01*
G37*
X12240000Y-76864002D02*
X12240001Y-91733043D01*
X12173413Y-91760625D01*
X11938491Y-91995547D01*
X11863197Y-91813771D01*
X11684568Y-91635143D01*
X11451179Y-91538470D01*
X10786390Y-91538470D01*
X10627640Y-91697220D01*
X10627640Y-92870700D01*
X10647640Y-92870700D01*
X10647640Y-93124700D01*
X10627640Y-93124700D01*
X10627640Y-94298180D01*
X10786390Y-94456930D01*
X11451179Y-94456930D01*
X11684568Y-94360257D01*
X11863197Y-94181629D01*
X11938491Y-93999853D01*
X12173413Y-94234775D01*
X12709741Y-94456930D01*
X13192636Y-94456930D01*
X13109909Y-94539657D01*
X13224703Y-94654451D01*
X12976074Y-94731559D01*
X12778923Y-95277575D01*
X12805730Y-95857474D01*
X12976074Y-96268721D01*
X13224705Y-96345830D01*
X14070395Y-95500140D01*
X14056253Y-95485998D01*
X14235858Y-95306393D01*
X14250000Y-95320535D01*
X14264143Y-95306393D01*
X14443748Y-95485998D01*
X14429605Y-95500140D01*
X15275295Y-96345830D01*
X15523926Y-96268721D01*
X15721077Y-95722705D01*
X15700500Y-95277575D01*
X22278923Y-95277575D01*
X22305730Y-95857474D01*
X22476074Y-96268721D01*
X22724705Y-96345830D01*
X23570395Y-95500140D01*
X22724705Y-94654450D01*
X22476074Y-94731559D01*
X22278923Y-95277575D01*
X15700500Y-95277575D01*
X15694270Y-95142806D01*
X15523926Y-94731559D01*
X15275297Y-94654451D01*
X15390091Y-94539657D01*
X15307364Y-94456930D01*
X15789619Y-94456930D01*
X16325947Y-94234775D01*
X16736435Y-93824287D01*
X16958590Y-93287959D01*
X16958590Y-93283450D01*
X21041410Y-93283450D01*
X21041410Y-93948240D01*
X21138083Y-94181629D01*
X21316712Y-94360257D01*
X21550101Y-94456930D01*
X22214890Y-94456930D01*
X22373640Y-94298180D01*
X22373640Y-93124700D01*
X21200160Y-93124700D01*
X21041410Y-93283450D01*
X16958590Y-93283450D01*
X16958590Y-92707441D01*
X16736435Y-92171113D01*
X16612482Y-92047160D01*
X21041410Y-92047160D01*
X21041410Y-92711950D01*
X21200160Y-92870700D01*
X22373640Y-92870700D01*
X22373640Y-91697220D01*
X22214890Y-91538470D01*
X21550101Y-91538470D01*
X21316712Y-91635143D01*
X21138083Y-91813771D01*
X21041410Y-92047160D01*
X16612482Y-92047160D01*
X16325947Y-91760625D01*
X15809100Y-91546539D01*
X15809100Y-87184441D01*
X16347305Y-87722646D01*
X17094150Y-88032000D01*
X17902530Y-88032000D01*
X18649375Y-87722646D01*
X19000000Y-87372021D01*
X19350625Y-87722646D01*
X20097470Y-88032000D01*
X20905850Y-88032000D01*
X21464746Y-87800497D01*
X21508197Y-88018937D01*
X21676172Y-88270329D01*
X21739628Y-88312729D01*
X24965368Y-91538470D01*
X24709741Y-91538470D01*
X24173413Y-91760625D01*
X23938491Y-91995547D01*
X23863197Y-91813771D01*
X23684568Y-91635143D01*
X23451179Y-91538470D01*
X22786390Y-91538470D01*
X22627640Y-91697220D01*
X22627640Y-92870700D01*
X22647640Y-92870700D01*
X22647640Y-93124700D01*
X22627640Y-93124700D01*
X22627640Y-94298180D01*
X22786390Y-94456930D01*
X22909866Y-94456930D01*
X22904310Y-94474845D01*
X23750000Y-95320535D01*
X23764143Y-95306393D01*
X23943748Y-95485998D01*
X23929605Y-95500140D01*
X24775295Y-96345830D01*
X25023926Y-96268721D01*
X25221077Y-95722705D01*
X25194270Y-95142806D01*
X25023926Y-94731559D01*
X24775297Y-94654451D01*
X24890091Y-94539657D01*
X24807364Y-94456930D01*
X25290259Y-94456930D01*
X25826587Y-94234775D01*
X26237075Y-93824287D01*
X26249680Y-93793856D01*
X26262285Y-93824287D01*
X26672773Y-94234775D01*
X26739400Y-94262373D01*
X26739401Y-102934496D01*
X24106833Y-105567066D01*
X24040259Y-105539490D01*
X23459741Y-105539490D01*
X22923413Y-105761645D01*
X22512925Y-106172133D01*
X22290770Y-106708461D01*
X22290770Y-107265000D01*
X15709230Y-107265000D01*
X15709230Y-106708461D01*
X15487075Y-106172133D01*
X15076587Y-105761645D01*
X14540259Y-105539490D01*
X13959741Y-105539490D01*
X13423413Y-105761645D01*
X13012925Y-106172133D01*
X12790770Y-106708461D01*
X12790770Y-107265000D01*
X5959230Y-107265000D01*
X5959230Y-106708461D01*
X5931642Y-106641859D01*
X8157773Y-104415729D01*
X8221229Y-104373329D01*
X8389204Y-104121937D01*
X8433300Y-103900252D01*
X8433300Y-103900247D01*
X8448188Y-103825400D01*
X8433300Y-103750553D01*
X8433300Y-101575322D01*
X12115000Y-101575322D01*
X12115000Y-102424678D01*
X12440034Y-103209380D01*
X13040620Y-103809966D01*
X13825322Y-104135000D01*
X14674678Y-104135000D01*
X15459380Y-103809966D01*
X16059966Y-103209380D01*
X16385000Y-102424678D01*
X16385000Y-101575322D01*
X21615000Y-101575322D01*
X21615000Y-102424678D01*
X21940034Y-103209380D01*
X22540620Y-103809966D01*
X23325322Y-104135000D01*
X24174678Y-104135000D01*
X24959380Y-103809966D01*
X25559966Y-103209380D01*
X25885000Y-102424678D01*
X25885000Y-101575322D01*
X25559966Y-100790620D01*
X24959380Y-100190034D01*
X24224135Y-99885486D01*
X24576587Y-99739495D01*
X24987075Y-99329007D01*
X25209230Y-98792679D01*
X25209230Y-98212161D01*
X24987075Y-97675833D01*
X24576587Y-97265345D01*
X24040259Y-97043190D01*
X23459741Y-97043190D01*
X22923413Y-97265345D01*
X22512925Y-97675833D01*
X22290770Y-98212161D01*
X22290770Y-98792679D01*
X22512925Y-99329007D01*
X22923413Y-99739495D01*
X23275865Y-99885486D01*
X22540620Y-100190034D01*
X21940034Y-100790620D01*
X21615000Y-101575322D01*
X16385000Y-101575322D01*
X16059966Y-100790620D01*
X15459380Y-100190034D01*
X14724135Y-99885486D01*
X15076587Y-99739495D01*
X15487075Y-99329007D01*
X15709230Y-98792679D01*
X15709230Y-98212161D01*
X15487075Y-97675833D01*
X15076587Y-97265345D01*
X14540259Y-97043190D01*
X13959741Y-97043190D01*
X13423413Y-97265345D01*
X13012925Y-97675833D01*
X12790770Y-98212161D01*
X12790770Y-98792679D01*
X13012925Y-99329007D01*
X13423413Y-99739495D01*
X13775865Y-99885486D01*
X13040620Y-100190034D01*
X12440034Y-100790620D01*
X12115000Y-101575322D01*
X8433300Y-101575322D01*
X8433300Y-96525435D01*
X13404310Y-96525435D01*
X13481419Y-96774066D01*
X14027435Y-96971217D01*
X14607334Y-96944410D01*
X15018581Y-96774066D01*
X15095690Y-96525435D01*
X22904310Y-96525435D01*
X22981419Y-96774066D01*
X23527435Y-96971217D01*
X24107334Y-96944410D01*
X24518581Y-96774066D01*
X24595690Y-96525435D01*
X23750000Y-95679745D01*
X22904310Y-96525435D01*
X15095690Y-96525435D01*
X14250000Y-95679745D01*
X13404310Y-96525435D01*
X8433300Y-96525435D01*
X8433300Y-93283450D01*
X9041410Y-93283450D01*
X9041410Y-93948240D01*
X9138083Y-94181629D01*
X9316712Y-94360257D01*
X9550101Y-94456930D01*
X10214890Y-94456930D01*
X10373640Y-94298180D01*
X10373640Y-93124700D01*
X9200160Y-93124700D01*
X9041410Y-93283450D01*
X8433300Y-93283450D01*
X8433300Y-92047160D01*
X9041410Y-92047160D01*
X9041410Y-92711950D01*
X9200160Y-92870700D01*
X10373640Y-92870700D01*
X10373640Y-91697220D01*
X10214890Y-91538470D01*
X9550101Y-91538470D01*
X9316712Y-91635143D01*
X9138083Y-91813771D01*
X9041410Y-92047160D01*
X8433300Y-92047160D01*
X8433300Y-89714901D01*
X11141273Y-87006929D01*
X11204729Y-86964529D01*
X11372704Y-86713137D01*
X11416800Y-86491452D01*
X11416800Y-86491448D01*
X11431688Y-86416601D01*
X11416800Y-86341754D01*
X11416800Y-76040802D01*
X12240000Y-76864002D01*
G36*
X18709741Y-62456930D02*
X19290259Y-62456930D01*
X19588700Y-62333311D01*
X19588700Y-63032253D01*
X19573812Y-63107100D01*
X19588700Y-63181947D01*
X19588700Y-63181951D01*
X19632796Y-63403636D01*
X19800771Y-63655029D01*
X19864230Y-63697431D01*
X23279201Y-67112403D01*
X23279200Y-77504353D01*
X23264312Y-77579200D01*
X23279200Y-77654047D01*
X23279200Y-77654051D01*
X23323296Y-77875736D01*
X23491271Y-78127129D01*
X23554730Y-78169531D01*
X29353198Y-83968000D01*
X29094150Y-83968000D01*
X28347305Y-84277354D01*
X27775694Y-84848965D01*
X27466340Y-85595810D01*
X27466340Y-86404190D01*
X27775694Y-87151035D01*
X28347305Y-87722646D01*
X29094150Y-88032000D01*
X29902530Y-88032000D01*
X30649375Y-87722646D01*
X31220986Y-87151035D01*
X31285198Y-86996015D01*
X31590493Y-87301310D01*
X32154670Y-87535000D01*
X32765330Y-87535000D01*
X33329507Y-87301310D01*
X33498725Y-87132092D01*
X33501843Y-87147765D01*
X33642191Y-87357809D01*
X33852235Y-87498157D01*
X34100000Y-87547440D01*
X35900000Y-87547440D01*
X36147765Y-87498157D01*
X36357809Y-87357809D01*
X36498157Y-87147765D01*
X36547440Y-86900000D01*
X36547440Y-85100000D01*
X36498157Y-84852235D01*
X36357809Y-84642191D01*
X36147765Y-84501843D01*
X35900000Y-84452560D01*
X34100000Y-84452560D01*
X33852235Y-84501843D01*
X33642191Y-84642191D01*
X33501843Y-84852235D01*
X33498725Y-84867908D01*
X33329507Y-84698690D01*
X32765330Y-84465000D01*
X32154670Y-84465000D01*
X32045162Y-84510360D01*
X28004171Y-80469370D01*
X29324870Y-80469370D01*
X29572635Y-80420087D01*
X29782679Y-80279739D01*
X29923027Y-80069695D01*
X29937180Y-79998542D01*
X30173413Y-80234775D01*
X30709741Y-80456930D01*
X31290259Y-80456930D01*
X31826587Y-80234775D01*
X32237075Y-79824287D01*
X32249680Y-79793856D01*
X32262285Y-79824287D01*
X32672773Y-80234775D01*
X33209101Y-80456930D01*
X33789619Y-80456930D01*
X34325947Y-80234775D01*
X34736435Y-79824287D01*
X34958590Y-79287959D01*
X34958590Y-78707441D01*
X34931020Y-78640881D01*
X37265001Y-76306901D01*
X37265001Y-107265000D01*
X34959230Y-107265000D01*
X34959230Y-106708461D01*
X34737075Y-106172133D01*
X34326587Y-105761645D01*
X33790259Y-105539490D01*
X33209741Y-105539490D01*
X32673413Y-105761645D01*
X32262925Y-106172133D01*
X32040770Y-106708461D01*
X32040770Y-107265000D01*
X25209230Y-107265000D01*
X25209230Y-106708461D01*
X25181642Y-106641859D01*
X27983876Y-103839627D01*
X28047329Y-103797229D01*
X28089727Y-103733776D01*
X28089729Y-103733774D01*
X28215303Y-103545838D01*
X28215304Y-103545837D01*
X28259400Y-103324152D01*
X28259400Y-103324148D01*
X28274288Y-103249301D01*
X28259400Y-103174454D01*
X28259400Y-101575322D01*
X31365000Y-101575322D01*
X31365000Y-102424678D01*
X31690034Y-103209380D01*
X32290620Y-103809966D01*
X33075322Y-104135000D01*
X33924678Y-104135000D01*
X34709380Y-103809966D01*
X35309966Y-103209380D01*
X35635000Y-102424678D01*
X35635000Y-101575322D01*
X35309966Y-100790620D01*
X34709380Y-100190034D01*
X33974135Y-99885486D01*
X34326587Y-99739495D01*
X34737075Y-99329007D01*
X34959230Y-98792679D01*
X34959230Y-98212161D01*
X34737075Y-97675833D01*
X34326587Y-97265345D01*
X33790259Y-97043190D01*
X33209741Y-97043190D01*
X32673413Y-97265345D01*
X32262925Y-97675833D01*
X32040770Y-98212161D01*
X32040770Y-98792679D01*
X32262925Y-99329007D01*
X32673413Y-99739495D01*
X33025865Y-99885486D01*
X32290620Y-100190034D01*
X31690034Y-100790620D01*
X31365000Y-101575322D01*
X28259400Y-101575322D01*
X28259400Y-96525435D01*
X32654310Y-96525435D01*
X32731419Y-96774066D01*
X33277435Y-96971217D01*
X33857334Y-96944410D01*
X34268581Y-96774066D01*
X34345690Y-96525435D01*
X33500000Y-95679745D01*
X32654310Y-96525435D01*
X28259400Y-96525435D01*
X28259400Y-95277575D01*
X32028923Y-95277575D01*
X32055730Y-95857474D01*
X32226074Y-96268721D01*
X32474705Y-96345830D01*
X33320395Y-95500140D01*
X33679605Y-95500140D01*
X34525295Y-96345830D01*
X34773926Y-96268721D01*
X34971077Y-95722705D01*
X34944270Y-95142806D01*
X34773926Y-94731559D01*
X34525295Y-94654450D01*
X33679605Y-95500140D01*
X33320395Y-95500140D01*
X32474705Y-94654450D01*
X32226074Y-94731559D01*
X32028923Y-95277575D01*
X28259400Y-95277575D01*
X28259400Y-94474845D01*
X32654310Y-94474845D01*
X33500000Y-95320535D01*
X34345690Y-94474845D01*
X34268581Y-94226214D01*
X33722565Y-94029063D01*
X33142666Y-94055870D01*
X32731419Y-94226214D01*
X32654310Y-94474845D01*
X28259400Y-94474845D01*
X28259400Y-94262340D01*
X28325947Y-94234775D01*
X28736435Y-93824287D01*
X28958590Y-93287959D01*
X28958590Y-92707441D01*
X28736435Y-92171113D01*
X28325947Y-91760625D01*
X27789619Y-91538470D01*
X27209101Y-91538470D01*
X27142542Y-91566040D01*
X22984100Y-87407599D01*
X22984100Y-68380546D01*
X22998988Y-68305699D01*
X22984100Y-68230852D01*
X22984100Y-68230848D01*
X22940004Y-68009163D01*
X22847484Y-67870697D01*
X22814429Y-67821226D01*
X22814427Y-67821224D01*
X22772029Y-67757771D01*
X22708576Y-67715373D01*
X18410200Y-63416999D01*
X18410200Y-62332856D01*
X18709741Y-62456930D01*
X18709741Y-62456930D01*
G37*
X18709741Y-62456930D02*
X19290259Y-62456930D01*
X19588700Y-62333311D01*
X19588700Y-63032253D01*
X19573812Y-63107100D01*
X19588700Y-63181947D01*
X19588700Y-63181951D01*
X19632796Y-63403636D01*
X19800771Y-63655029D01*
X19864230Y-63697431D01*
X23279201Y-67112403D01*
X23279200Y-77504353D01*
X23264312Y-77579200D01*
X23279200Y-77654047D01*
X23279200Y-77654051D01*
X23323296Y-77875736D01*
X23491271Y-78127129D01*
X23554730Y-78169531D01*
X29353198Y-83968000D01*
X29094150Y-83968000D01*
X28347305Y-84277354D01*
X27775694Y-84848965D01*
X27466340Y-85595810D01*
X27466340Y-86404190D01*
X27775694Y-87151035D01*
X28347305Y-87722646D01*
X29094150Y-88032000D01*
X29902530Y-88032000D01*
X30649375Y-87722646D01*
X31220986Y-87151035D01*
X31285198Y-86996015D01*
X31590493Y-87301310D01*
X32154670Y-87535000D01*
X32765330Y-87535000D01*
X33329507Y-87301310D01*
X33498725Y-87132092D01*
X33501843Y-87147765D01*
X33642191Y-87357809D01*
X33852235Y-87498157D01*
X34100000Y-87547440D01*
X35900000Y-87547440D01*
X36147765Y-87498157D01*
X36357809Y-87357809D01*
X36498157Y-87147765D01*
X36547440Y-86900000D01*
X36547440Y-85100000D01*
X36498157Y-84852235D01*
X36357809Y-84642191D01*
X36147765Y-84501843D01*
X35900000Y-84452560D01*
X34100000Y-84452560D01*
X33852235Y-84501843D01*
X33642191Y-84642191D01*
X33501843Y-84852235D01*
X33498725Y-84867908D01*
X33329507Y-84698690D01*
X32765330Y-84465000D01*
X32154670Y-84465000D01*
X32045162Y-84510360D01*
X28004171Y-80469370D01*
X29324870Y-80469370D01*
X29572635Y-80420087D01*
X29782679Y-80279739D01*
X29923027Y-80069695D01*
X29937180Y-79998542D01*
X30173413Y-80234775D01*
X30709741Y-80456930D01*
X31290259Y-80456930D01*
X31826587Y-80234775D01*
X32237075Y-79824287D01*
X32249680Y-79793856D01*
X32262285Y-79824287D01*
X32672773Y-80234775D01*
X33209101Y-80456930D01*
X33789619Y-80456930D01*
X34325947Y-80234775D01*
X34736435Y-79824287D01*
X34958590Y-79287959D01*
X34958590Y-78707441D01*
X34931020Y-78640881D01*
X37265001Y-76306901D01*
X37265001Y-107265000D01*
X34959230Y-107265000D01*
X34959230Y-106708461D01*
X34737075Y-106172133D01*
X34326587Y-105761645D01*
X33790259Y-105539490D01*
X33209741Y-105539490D01*
X32673413Y-105761645D01*
X32262925Y-106172133D01*
X32040770Y-106708461D01*
X32040770Y-107265000D01*
X25209230Y-107265000D01*
X25209230Y-106708461D01*
X25181642Y-106641859D01*
X27983876Y-103839627D01*
X28047329Y-103797229D01*
X28089727Y-103733776D01*
X28089729Y-103733774D01*
X28215303Y-103545838D01*
X28215304Y-103545837D01*
X28259400Y-103324152D01*
X28259400Y-103324148D01*
X28274288Y-103249301D01*
X28259400Y-103174454D01*
X28259400Y-101575322D01*
X31365000Y-101575322D01*
X31365000Y-102424678D01*
X31690034Y-103209380D01*
X32290620Y-103809966D01*
X33075322Y-104135000D01*
X33924678Y-104135000D01*
X34709380Y-103809966D01*
X35309966Y-103209380D01*
X35635000Y-102424678D01*
X35635000Y-101575322D01*
X35309966Y-100790620D01*
X34709380Y-100190034D01*
X33974135Y-99885486D01*
X34326587Y-99739495D01*
X34737075Y-99329007D01*
X34959230Y-98792679D01*
X34959230Y-98212161D01*
X34737075Y-97675833D01*
X34326587Y-97265345D01*
X33790259Y-97043190D01*
X33209741Y-97043190D01*
X32673413Y-97265345D01*
X32262925Y-97675833D01*
X32040770Y-98212161D01*
X32040770Y-98792679D01*
X32262925Y-99329007D01*
X32673413Y-99739495D01*
X33025865Y-99885486D01*
X32290620Y-100190034D01*
X31690034Y-100790620D01*
X31365000Y-101575322D01*
X28259400Y-101575322D01*
X28259400Y-96525435D01*
X32654310Y-96525435D01*
X32731419Y-96774066D01*
X33277435Y-96971217D01*
X33857334Y-96944410D01*
X34268581Y-96774066D01*
X34345690Y-96525435D01*
X33500000Y-95679745D01*
X32654310Y-96525435D01*
X28259400Y-96525435D01*
X28259400Y-95277575D01*
X32028923Y-95277575D01*
X32055730Y-95857474D01*
X32226074Y-96268721D01*
X32474705Y-96345830D01*
X33320395Y-95500140D01*
X33679605Y-95500140D01*
X34525295Y-96345830D01*
X34773926Y-96268721D01*
X34971077Y-95722705D01*
X34944270Y-95142806D01*
X34773926Y-94731559D01*
X34525295Y-94654450D01*
X33679605Y-95500140D01*
X33320395Y-95500140D01*
X32474705Y-94654450D01*
X32226074Y-94731559D01*
X32028923Y-95277575D01*
X28259400Y-95277575D01*
X28259400Y-94474845D01*
X32654310Y-94474845D01*
X33500000Y-95320535D01*
X34345690Y-94474845D01*
X34268581Y-94226214D01*
X33722565Y-94029063D01*
X33142666Y-94055870D01*
X32731419Y-94226214D01*
X32654310Y-94474845D01*
X28259400Y-94474845D01*
X28259400Y-94262340D01*
X28325947Y-94234775D01*
X28736435Y-93824287D01*
X28958590Y-93287959D01*
X28958590Y-92707441D01*
X28736435Y-92171113D01*
X28325947Y-91760625D01*
X27789619Y-91538470D01*
X27209101Y-91538470D01*
X27142542Y-91566040D01*
X22984100Y-87407599D01*
X22984100Y-68380546D01*
X22998988Y-68305699D01*
X22984100Y-68230852D01*
X22984100Y-68230848D01*
X22940004Y-68009163D01*
X22847484Y-67870697D01*
X22814429Y-67821226D01*
X22814427Y-67821224D01*
X22772029Y-67757771D01*
X22708576Y-67715373D01*
X18410200Y-63416999D01*
X18410200Y-62332856D01*
X18709741Y-62456930D01*
G36*
X4065414Y-53584586D02*
X4356564Y-53779127D01*
X4699999Y-53847440D01*
X5297639Y-53847440D01*
X14289100Y-62838902D01*
X14289101Y-92144297D01*
X14262285Y-92171113D01*
X14249680Y-92201544D01*
X14237075Y-92171113D01*
X13826587Y-91760625D01*
X13760000Y-91733044D01*
X13760000Y-76624046D01*
X13774888Y-76549199D01*
X13760000Y-76474352D01*
X13760000Y-76474348D01*
X13715904Y-76252663D01*
X13547929Y-76001271D01*
X13484473Y-75958871D01*
X11557602Y-74032000D01*
X11902530Y-74032000D01*
X12649375Y-73722646D01*
X13220986Y-73151035D01*
X13530340Y-72404190D01*
X13530340Y-71595810D01*
X13220986Y-70848965D01*
X12649375Y-70277354D01*
X11902530Y-69968000D01*
X11094150Y-69968000D01*
X10347305Y-70277354D01*
X9775694Y-70848965D01*
X9466340Y-71595810D01*
X9466340Y-71940739D01*
X7555700Y-70030099D01*
X7555700Y-58048011D01*
X7673131Y-57930580D01*
X7830700Y-57550174D01*
X7830700Y-57138426D01*
X7673131Y-56758020D01*
X7381980Y-56466869D01*
X7001574Y-56309300D01*
X6589826Y-56309300D01*
X6489333Y-56350926D01*
X6474329Y-56328471D01*
X6410873Y-56286071D01*
X6272440Y-56147638D01*
X6272440Y-55549999D01*
X6204127Y-55206564D01*
X6009586Y-54915414D01*
X5718436Y-54720873D01*
X5375001Y-54652560D01*
X4724999Y-54652560D01*
X4403259Y-54716558D01*
X3495295Y-53808594D01*
X3643436Y-53779127D01*
X3934586Y-53584586D01*
X4000000Y-53486687D01*
X4065414Y-53584586D01*
X4065414Y-53584586D01*
G37*
X4065414Y-53584586D02*
X4356564Y-53779127D01*
X4699999Y-53847440D01*
X5297639Y-53847440D01*
X14289100Y-62838902D01*
X14289101Y-92144297D01*
X14262285Y-92171113D01*
X14249680Y-92201544D01*
X14237075Y-92171113D01*
X13826587Y-91760625D01*
X13760000Y-91733044D01*
X13760000Y-76624046D01*
X13774888Y-76549199D01*
X13760000Y-76474352D01*
X13760000Y-76474348D01*
X13715904Y-76252663D01*
X13547929Y-76001271D01*
X13484473Y-75958871D01*
X11557602Y-74032000D01*
X11902530Y-74032000D01*
X12649375Y-73722646D01*
X13220986Y-73151035D01*
X13530340Y-72404190D01*
X13530340Y-71595810D01*
X13220986Y-70848965D01*
X12649375Y-70277354D01*
X11902530Y-69968000D01*
X11094150Y-69968000D01*
X10347305Y-70277354D01*
X9775694Y-70848965D01*
X9466340Y-71595810D01*
X9466340Y-71940739D01*
X7555700Y-70030099D01*
X7555700Y-58048011D01*
X7673131Y-57930580D01*
X7830700Y-57550174D01*
X7830700Y-57138426D01*
X7673131Y-56758020D01*
X7381980Y-56466869D01*
X7001574Y-56309300D01*
X6589826Y-56309300D01*
X6489333Y-56350926D01*
X6474329Y-56328471D01*
X6410873Y-56286071D01*
X6272440Y-56147638D01*
X6272440Y-55549999D01*
X6204127Y-55206564D01*
X6009586Y-54915414D01*
X5718436Y-54720873D01*
X5375001Y-54652560D01*
X4724999Y-54652560D01*
X4403259Y-54716558D01*
X3495295Y-53808594D01*
X3643436Y-53779127D01*
X3934586Y-53584586D01*
X4000000Y-53486687D01*
X4065414Y-53584586D01*
G36*
X16092268Y-59538470D02*
X15550101Y-59538470D01*
X15316712Y-59635143D01*
X15138083Y-59813771D01*
X15041410Y-60047160D01*
X15041410Y-60711950D01*
X15200160Y-60870700D01*
X16373640Y-60870700D01*
X16373640Y-60850700D01*
X16627640Y-60850700D01*
X16627640Y-60870700D01*
X16647640Y-60870700D01*
X16647640Y-61124700D01*
X16627640Y-61124700D01*
X16627640Y-62298180D01*
X16786390Y-62456930D01*
X16890201Y-62456930D01*
X16890201Y-63656948D01*
X16875312Y-63731800D01*
X16890201Y-63806652D01*
X16934297Y-64028337D01*
X17102272Y-64279729D01*
X17165728Y-64322129D01*
X19724584Y-66880986D01*
X19444569Y-66765000D01*
X18555431Y-66765000D01*
X17733974Y-67105259D01*
X17105259Y-67733974D01*
X16765000Y-68555431D01*
X16765000Y-69444569D01*
X17105259Y-70266026D01*
X17733974Y-70894741D01*
X18555431Y-71235000D01*
X19444569Y-71235000D01*
X20266026Y-70894741D01*
X20894741Y-70266026D01*
X21235000Y-69444569D01*
X21235000Y-68555431D01*
X21119014Y-68275417D01*
X21464100Y-68620503D01*
X21464101Y-84199236D01*
X20905850Y-83968000D01*
X20097470Y-83968000D01*
X19350625Y-84277354D01*
X19000000Y-84627979D01*
X18649375Y-84277354D01*
X17902530Y-83968000D01*
X17094150Y-83968000D01*
X16347305Y-84277354D01*
X15809100Y-84815559D01*
X15809100Y-62598946D01*
X15823988Y-62524099D01*
X15810627Y-62456930D01*
X16214890Y-62456930D01*
X16373640Y-62298180D01*
X16373640Y-61124700D01*
X15200160Y-61124700D01*
X15041410Y-61283450D01*
X15041410Y-61441608D01*
X6247440Y-52647639D01*
X6247440Y-52049999D01*
X6179127Y-51706564D01*
X5984586Y-51415414D01*
X5693436Y-51220873D01*
X5350001Y-51152560D01*
X4699999Y-51152560D01*
X4659800Y-51160556D01*
X4659800Y-50339444D01*
X4699999Y-50347440D01*
X5350001Y-50347440D01*
X5693436Y-50279127D01*
X5984586Y-50084586D01*
X6179127Y-49793436D01*
X6185778Y-49760000D01*
X6313799Y-49760000D01*
X16092268Y-59538470D01*
X16092268Y-59538470D01*
G37*
X16092268Y-59538470D02*
X15550101Y-59538470D01*
X15316712Y-59635143D01*
X15138083Y-59813771D01*
X15041410Y-60047160D01*
X15041410Y-60711950D01*
X15200160Y-60870700D01*
X16373640Y-60870700D01*
X16373640Y-60850700D01*
X16627640Y-60850700D01*
X16627640Y-60870700D01*
X16647640Y-60870700D01*
X16647640Y-61124700D01*
X16627640Y-61124700D01*
X16627640Y-62298180D01*
X16786390Y-62456930D01*
X16890201Y-62456930D01*
X16890201Y-63656948D01*
X16875312Y-63731800D01*
X16890201Y-63806652D01*
X16934297Y-64028337D01*
X17102272Y-64279729D01*
X17165728Y-64322129D01*
X19724584Y-66880986D01*
X19444569Y-66765000D01*
X18555431Y-66765000D01*
X17733974Y-67105259D01*
X17105259Y-67733974D01*
X16765000Y-68555431D01*
X16765000Y-69444569D01*
X17105259Y-70266026D01*
X17733974Y-70894741D01*
X18555431Y-71235000D01*
X19444569Y-71235000D01*
X20266026Y-70894741D01*
X20894741Y-70266026D01*
X21235000Y-69444569D01*
X21235000Y-68555431D01*
X21119014Y-68275417D01*
X21464100Y-68620503D01*
X21464101Y-84199236D01*
X20905850Y-83968000D01*
X20097470Y-83968000D01*
X19350625Y-84277354D01*
X19000000Y-84627979D01*
X18649375Y-84277354D01*
X17902530Y-83968000D01*
X17094150Y-83968000D01*
X16347305Y-84277354D01*
X15809100Y-84815559D01*
X15809100Y-62598946D01*
X15823988Y-62524099D01*
X15810627Y-62456930D01*
X16214890Y-62456930D01*
X16373640Y-62298180D01*
X16373640Y-61124700D01*
X15200160Y-61124700D01*
X15041410Y-61283450D01*
X15041410Y-61441608D01*
X6247440Y-52647639D01*
X6247440Y-52049999D01*
X6179127Y-51706564D01*
X5984586Y-51415414D01*
X5693436Y-51220873D01*
X5350001Y-51152560D01*
X4699999Y-51152560D01*
X4659800Y-51160556D01*
X4659800Y-50339444D01*
X4699999Y-50347440D01*
X5350001Y-50347440D01*
X5693436Y-50279127D01*
X5984586Y-50084586D01*
X6179127Y-49793436D01*
X6185778Y-49760000D01*
X6313799Y-49760000D01*
X16092268Y-59538470D01*
G36*
X33901501Y-50387997D02*
X33290230Y-50999269D01*
X33226771Y-51041671D01*
X33058796Y-51293064D01*
X33014700Y-51514749D01*
X33014700Y-51514753D01*
X32999812Y-51589600D01*
X33014700Y-51664447D01*
X33014700Y-52568293D01*
X32765330Y-52465000D01*
X32154670Y-52465000D01*
X31590493Y-52698690D01*
X31158690Y-53130493D01*
X30925000Y-53694670D01*
X30925000Y-54305330D01*
X31158690Y-54869507D01*
X31590493Y-55301310D01*
X32154670Y-55535000D01*
X32765330Y-55535000D01*
X33014700Y-55431707D01*
X33014701Y-72259297D01*
X28016128Y-77257871D01*
X27952672Y-77300271D01*
X27910272Y-77363727D01*
X27910271Y-77363728D01*
X27801824Y-77526030D01*
X27676410Y-77526030D01*
X27428645Y-77575313D01*
X27218601Y-77715661D01*
X27078253Y-77925705D01*
X27028970Y-78173470D01*
X27028970Y-79494169D01*
X24799200Y-77264399D01*
X24799200Y-73171221D01*
X25350625Y-73722646D01*
X26097470Y-74032000D01*
X26905850Y-74032000D01*
X27652695Y-73722646D01*
X28224306Y-73151035D01*
X28533660Y-72404190D01*
X28533660Y-71595810D01*
X28224306Y-70848965D01*
X27652695Y-70277354D01*
X26905850Y-69968000D01*
X26097470Y-69968000D01*
X25350625Y-70277354D01*
X24799200Y-70828779D01*
X24799200Y-66872446D01*
X24814088Y-66797599D01*
X24799200Y-66722752D01*
X24799200Y-66722748D01*
X24755104Y-66501063D01*
X24587129Y-66249671D01*
X24523673Y-66207271D01*
X21108700Y-62792299D01*
X21108700Y-62415342D01*
X21209101Y-62456930D01*
X21789619Y-62456930D01*
X22325947Y-62234775D01*
X22736435Y-61824287D01*
X22958590Y-61287959D01*
X22958590Y-60707441D01*
X22931020Y-60640881D01*
X33901501Y-49670401D01*
X33901501Y-50387997D01*
X33901501Y-50387997D01*
G37*
X33901501Y-50387997D02*
X33290230Y-50999269D01*
X33226771Y-51041671D01*
X33058796Y-51293064D01*
X33014700Y-51514749D01*
X33014700Y-51514753D01*
X32999812Y-51589600D01*
X33014700Y-51664447D01*
X33014700Y-52568293D01*
X32765330Y-52465000D01*
X32154670Y-52465000D01*
X31590493Y-52698690D01*
X31158690Y-53130493D01*
X30925000Y-53694670D01*
X30925000Y-54305330D01*
X31158690Y-54869507D01*
X31590493Y-55301310D01*
X32154670Y-55535000D01*
X32765330Y-55535000D01*
X33014700Y-55431707D01*
X33014701Y-72259297D01*
X28016128Y-77257871D01*
X27952672Y-77300271D01*
X27910272Y-77363727D01*
X27910271Y-77363728D01*
X27801824Y-77526030D01*
X27676410Y-77526030D01*
X27428645Y-77575313D01*
X27218601Y-77715661D01*
X27078253Y-77925705D01*
X27028970Y-78173470D01*
X27028970Y-79494169D01*
X24799200Y-77264399D01*
X24799200Y-73171221D01*
X25350625Y-73722646D01*
X26097470Y-74032000D01*
X26905850Y-74032000D01*
X27652695Y-73722646D01*
X28224306Y-73151035D01*
X28533660Y-72404190D01*
X28533660Y-71595810D01*
X28224306Y-70848965D01*
X27652695Y-70277354D01*
X26905850Y-69968000D01*
X26097470Y-69968000D01*
X25350625Y-70277354D01*
X24799200Y-70828779D01*
X24799200Y-66872446D01*
X24814088Y-66797599D01*
X24799200Y-66722752D01*
X24799200Y-66722748D01*
X24755104Y-66501063D01*
X24587129Y-66249671D01*
X24523673Y-66207271D01*
X21108700Y-62792299D01*
X21108700Y-62415342D01*
X21209101Y-62456930D01*
X21789619Y-62456930D01*
X22325947Y-62234775D01*
X22736435Y-61824287D01*
X22958590Y-61287959D01*
X22958590Y-60707441D01*
X22931020Y-60640881D01*
X33901501Y-49670401D01*
X33901501Y-50387997D01*
G36*
X10945268Y-34029669D02*
X10347305Y-34277354D01*
X9775694Y-34848965D01*
X9466340Y-35595810D01*
X9466340Y-36404190D01*
X9775694Y-37151035D01*
X10347305Y-37722646D01*
X11094150Y-38032000D01*
X11902530Y-38032000D01*
X12649375Y-37722646D01*
X13220986Y-37151035D01*
X13468671Y-36553073D01*
X15385101Y-38469503D01*
X15385100Y-40785853D01*
X15370212Y-40860700D01*
X15385100Y-40935547D01*
X15385100Y-40935551D01*
X15429196Y-41157236D01*
X15597171Y-41408629D01*
X15660630Y-41451031D01*
X18588400Y-44378802D01*
X18588400Y-44544874D01*
X18745969Y-44925280D01*
X19037120Y-45216431D01*
X19417526Y-45374000D01*
X19588701Y-45374000D01*
X19588700Y-59662089D01*
X19290259Y-59538470D01*
X18709741Y-59538470D01*
X18342945Y-59690403D01*
X18198129Y-59473671D01*
X18134673Y-59431271D01*
X14735402Y-56032000D01*
X14905850Y-56032000D01*
X15652695Y-55722646D01*
X16224306Y-55151035D01*
X16533660Y-54404190D01*
X16533660Y-53595810D01*
X16224306Y-52848965D01*
X15652695Y-52277354D01*
X14905850Y-51968000D01*
X14097470Y-51968000D01*
X13350625Y-52277354D01*
X12779014Y-52848965D01*
X12469660Y-53595810D01*
X12469660Y-53766259D01*
X7218931Y-48515530D01*
X7176529Y-48452071D01*
X6925137Y-48284096D01*
X6703452Y-48240000D01*
X6703447Y-48240000D01*
X6628600Y-48225112D01*
X6553753Y-48240000D01*
X6185778Y-48240000D01*
X6179127Y-48206564D01*
X5984586Y-47915414D01*
X5693436Y-47720873D01*
X5350001Y-47652560D01*
X4699999Y-47652560D01*
X4659800Y-47660556D01*
X4659800Y-46700646D01*
X4674688Y-46625799D01*
X4659800Y-46550952D01*
X4659800Y-46550948D01*
X4615704Y-46329263D01*
X4497162Y-46151852D01*
X4490129Y-46141326D01*
X4490127Y-46141324D01*
X4447729Y-46077871D01*
X4384275Y-46035472D01*
X4111000Y-45762198D01*
X4111000Y-44456930D01*
X4214890Y-44456930D01*
X4373640Y-44298180D01*
X4373640Y-43124700D01*
X4353640Y-43124700D01*
X4353640Y-42870700D01*
X4373640Y-42870700D01*
X4373640Y-42850700D01*
X4627640Y-42850700D01*
X4627640Y-42870700D01*
X4647640Y-42870700D01*
X4647640Y-43124700D01*
X4627640Y-43124700D01*
X4627640Y-44298180D01*
X4786390Y-44456930D01*
X5451179Y-44456930D01*
X5684568Y-44360257D01*
X5863197Y-44181629D01*
X5928905Y-44022995D01*
X6154310Y-44022995D01*
X6231419Y-44271626D01*
X6777435Y-44468777D01*
X7357334Y-44441970D01*
X7768581Y-44271626D01*
X7845690Y-44022995D01*
X7000000Y-43177305D01*
X6154310Y-44022995D01*
X5928905Y-44022995D01*
X5959870Y-43948240D01*
X5959870Y-43838789D01*
X5974705Y-43843390D01*
X6820395Y-42997700D01*
X7179605Y-42997700D01*
X8025295Y-43843390D01*
X8242318Y-43776084D01*
X8262285Y-43824287D01*
X8672773Y-44234775D01*
X9209101Y-44456930D01*
X9789619Y-44456930D01*
X10325947Y-44234775D01*
X10736435Y-43824287D01*
X10958590Y-43287959D01*
X10958590Y-42707441D01*
X10736435Y-42171113D01*
X10325947Y-41760625D01*
X9789619Y-41538470D01*
X9209101Y-41538470D01*
X8672773Y-41760625D01*
X8262285Y-42171113D01*
X8242318Y-42219316D01*
X8025295Y-42152010D01*
X7179605Y-42997700D01*
X6820395Y-42997700D01*
X5974705Y-42152010D01*
X5959870Y-42156611D01*
X5959870Y-42047160D01*
X5928906Y-41972405D01*
X6154310Y-41972405D01*
X7000000Y-42818095D01*
X7845690Y-41972405D01*
X7768581Y-41723774D01*
X7222565Y-41526623D01*
X6642666Y-41553430D01*
X6231419Y-41723774D01*
X6154310Y-41972405D01*
X5928906Y-41972405D01*
X5863197Y-41813771D01*
X5684568Y-41635143D01*
X5532894Y-41572317D01*
X5770631Y-41334580D01*
X5928200Y-40954174D01*
X5928200Y-40542426D01*
X5770631Y-40162020D01*
X5769511Y-40160900D01*
X5804431Y-40125980D01*
X5962000Y-39745574D01*
X5962000Y-39333826D01*
X5804431Y-38953420D01*
X5513280Y-38662269D01*
X5132874Y-38504700D01*
X4721126Y-38504700D01*
X4340720Y-38662269D01*
X4049569Y-38953420D01*
X3892000Y-39333826D01*
X3892000Y-39499898D01*
X2397028Y-40994871D01*
X2333572Y-41037271D01*
X2291172Y-41100727D01*
X2291171Y-41100728D01*
X2165597Y-41288663D01*
X2106612Y-41585200D01*
X2121501Y-41660052D01*
X2121500Y-47844529D01*
X2015414Y-47915414D01*
X1820873Y-48206564D01*
X1752560Y-48549999D01*
X1752560Y-49450001D01*
X1820873Y-49793436D01*
X2015414Y-50084586D01*
X2306564Y-50279127D01*
X2649999Y-50347440D01*
X3139800Y-50347440D01*
X3139800Y-51152560D01*
X2649999Y-51152560D01*
X2306564Y-51220873D01*
X2015414Y-51415414D01*
X1820873Y-51706564D01*
X1752560Y-52049999D01*
X1752560Y-52065859D01*
X1536700Y-51849999D01*
X1536700Y-37799721D01*
X2097470Y-38032000D01*
X2905850Y-38032000D01*
X3652695Y-37722646D01*
X4224306Y-37151035D01*
X4533660Y-36404190D01*
X4533660Y-35595810D01*
X4224306Y-34848965D01*
X3652695Y-34277354D01*
X2905850Y-33968000D01*
X2097470Y-33968000D01*
X1536700Y-34200279D01*
X1536700Y-25781936D01*
X1853744Y-25845000D01*
X2146256Y-25845000D01*
X2579418Y-25758839D01*
X2636378Y-25720779D01*
X10945268Y-34029669D01*
X10945268Y-34029669D01*
G37*
X10945268Y-34029669D02*
X10347305Y-34277354D01*
X9775694Y-34848965D01*
X9466340Y-35595810D01*
X9466340Y-36404190D01*
X9775694Y-37151035D01*
X10347305Y-37722646D01*
X11094150Y-38032000D01*
X11902530Y-38032000D01*
X12649375Y-37722646D01*
X13220986Y-37151035D01*
X13468671Y-36553073D01*
X15385101Y-38469503D01*
X15385100Y-40785853D01*
X15370212Y-40860700D01*
X15385100Y-40935547D01*
X15385100Y-40935551D01*
X15429196Y-41157236D01*
X15597171Y-41408629D01*
X15660630Y-41451031D01*
X18588400Y-44378802D01*
X18588400Y-44544874D01*
X18745969Y-44925280D01*
X19037120Y-45216431D01*
X19417526Y-45374000D01*
X19588701Y-45374000D01*
X19588700Y-59662089D01*
X19290259Y-59538470D01*
X18709741Y-59538470D01*
X18342945Y-59690403D01*
X18198129Y-59473671D01*
X18134673Y-59431271D01*
X14735402Y-56032000D01*
X14905850Y-56032000D01*
X15652695Y-55722646D01*
X16224306Y-55151035D01*
X16533660Y-54404190D01*
X16533660Y-53595810D01*
X16224306Y-52848965D01*
X15652695Y-52277354D01*
X14905850Y-51968000D01*
X14097470Y-51968000D01*
X13350625Y-52277354D01*
X12779014Y-52848965D01*
X12469660Y-53595810D01*
X12469660Y-53766259D01*
X7218931Y-48515530D01*
X7176529Y-48452071D01*
X6925137Y-48284096D01*
X6703452Y-48240000D01*
X6703447Y-48240000D01*
X6628600Y-48225112D01*
X6553753Y-48240000D01*
X6185778Y-48240000D01*
X6179127Y-48206564D01*
X5984586Y-47915414D01*
X5693436Y-47720873D01*
X5350001Y-47652560D01*
X4699999Y-47652560D01*
X4659800Y-47660556D01*
X4659800Y-46700646D01*
X4674688Y-46625799D01*
X4659800Y-46550952D01*
X4659800Y-46550948D01*
X4615704Y-46329263D01*
X4497162Y-46151852D01*
X4490129Y-46141326D01*
X4490127Y-46141324D01*
X4447729Y-46077871D01*
X4384275Y-46035472D01*
X4111000Y-45762198D01*
X4111000Y-44456930D01*
X4214890Y-44456930D01*
X4373640Y-44298180D01*
X4373640Y-43124700D01*
X4353640Y-43124700D01*
X4353640Y-42870700D01*
X4373640Y-42870700D01*
X4373640Y-42850700D01*
X4627640Y-42850700D01*
X4627640Y-42870700D01*
X4647640Y-42870700D01*
X4647640Y-43124700D01*
X4627640Y-43124700D01*
X4627640Y-44298180D01*
X4786390Y-44456930D01*
X5451179Y-44456930D01*
X5684568Y-44360257D01*
X5863197Y-44181629D01*
X5928905Y-44022995D01*
X6154310Y-44022995D01*
X6231419Y-44271626D01*
X6777435Y-44468777D01*
X7357334Y-44441970D01*
X7768581Y-44271626D01*
X7845690Y-44022995D01*
X7000000Y-43177305D01*
X6154310Y-44022995D01*
X5928905Y-44022995D01*
X5959870Y-43948240D01*
X5959870Y-43838789D01*
X5974705Y-43843390D01*
X6820395Y-42997700D01*
X7179605Y-42997700D01*
X8025295Y-43843390D01*
X8242318Y-43776084D01*
X8262285Y-43824287D01*
X8672773Y-44234775D01*
X9209101Y-44456930D01*
X9789619Y-44456930D01*
X10325947Y-44234775D01*
X10736435Y-43824287D01*
X10958590Y-43287959D01*
X10958590Y-42707441D01*
X10736435Y-42171113D01*
X10325947Y-41760625D01*
X9789619Y-41538470D01*
X9209101Y-41538470D01*
X8672773Y-41760625D01*
X8262285Y-42171113D01*
X8242318Y-42219316D01*
X8025295Y-42152010D01*
X7179605Y-42997700D01*
X6820395Y-42997700D01*
X5974705Y-42152010D01*
X5959870Y-42156611D01*
X5959870Y-42047160D01*
X5928906Y-41972405D01*
X6154310Y-41972405D01*
X7000000Y-42818095D01*
X7845690Y-41972405D01*
X7768581Y-41723774D01*
X7222565Y-41526623D01*
X6642666Y-41553430D01*
X6231419Y-41723774D01*
X6154310Y-41972405D01*
X5928906Y-41972405D01*
X5863197Y-41813771D01*
X5684568Y-41635143D01*
X5532894Y-41572317D01*
X5770631Y-41334580D01*
X5928200Y-40954174D01*
X5928200Y-40542426D01*
X5770631Y-40162020D01*
X5769511Y-40160900D01*
X5804431Y-40125980D01*
X5962000Y-39745574D01*
X5962000Y-39333826D01*
X5804431Y-38953420D01*
X5513280Y-38662269D01*
X5132874Y-38504700D01*
X4721126Y-38504700D01*
X4340720Y-38662269D01*
X4049569Y-38953420D01*
X3892000Y-39333826D01*
X3892000Y-39499898D01*
X2397028Y-40994871D01*
X2333572Y-41037271D01*
X2291172Y-41100727D01*
X2291171Y-41100728D01*
X2165597Y-41288663D01*
X2106612Y-41585200D01*
X2121501Y-41660052D01*
X2121500Y-47844529D01*
X2015414Y-47915414D01*
X1820873Y-48206564D01*
X1752560Y-48549999D01*
X1752560Y-49450001D01*
X1820873Y-49793436D01*
X2015414Y-50084586D01*
X2306564Y-50279127D01*
X2649999Y-50347440D01*
X3139800Y-50347440D01*
X3139800Y-51152560D01*
X2649999Y-51152560D01*
X2306564Y-51220873D01*
X2015414Y-51415414D01*
X1820873Y-51706564D01*
X1752560Y-52049999D01*
X1752560Y-52065859D01*
X1536700Y-51849999D01*
X1536700Y-37799721D01*
X2097470Y-38032000D01*
X2905850Y-38032000D01*
X3652695Y-37722646D01*
X4224306Y-37151035D01*
X4533660Y-36404190D01*
X4533660Y-35595810D01*
X4224306Y-34848965D01*
X3652695Y-34277354D01*
X2905850Y-33968000D01*
X2097470Y-33968000D01*
X1536700Y-34200279D01*
X1536700Y-25781936D01*
X1853744Y-25845000D01*
X2146256Y-25845000D01*
X2579418Y-25758839D01*
X2636378Y-25720779D01*
X10945268Y-34029669D01*
G36*
X17654861Y-32189663D02*
X17653800Y-32192224D01*
X17653800Y-32727776D01*
X17858746Y-33222561D01*
X18237439Y-33601254D01*
X18548260Y-33730000D01*
X18237439Y-33858746D01*
X17858746Y-34237439D01*
X17653800Y-34732224D01*
X17653800Y-35267776D01*
X17858746Y-35762561D01*
X18237439Y-36141254D01*
X18532096Y-36263304D01*
X18299427Y-36359679D01*
X18236210Y-36596605D01*
X19000000Y-37360395D01*
X19763790Y-36596605D01*
X19700573Y-36359679D01*
X19449327Y-36270999D01*
X19762561Y-36141254D01*
X20141254Y-35762561D01*
X20346200Y-35267776D01*
X20346200Y-34732224D01*
X20141254Y-34237439D01*
X19762561Y-33858746D01*
X19451740Y-33730000D01*
X19762561Y-33601254D01*
X20141254Y-33222561D01*
X20144917Y-33213718D01*
X28469668Y-41538470D01*
X28373638Y-41538470D01*
X28373638Y-41697218D01*
X28214890Y-41538470D01*
X27550101Y-41538470D01*
X27316712Y-41635143D01*
X27138083Y-41813771D01*
X27041410Y-42047160D01*
X27041410Y-42711950D01*
X27200160Y-42870700D01*
X28373640Y-42870700D01*
X28373640Y-42850700D01*
X28627640Y-42850700D01*
X28627640Y-42870700D01*
X28647640Y-42870700D01*
X28647640Y-43124700D01*
X28627640Y-43124700D01*
X28627640Y-44298180D01*
X28786390Y-44456930D01*
X29451179Y-44456930D01*
X29684568Y-44360257D01*
X29863197Y-44181629D01*
X29938491Y-43999853D01*
X30173413Y-44234775D01*
X30709741Y-44456930D01*
X31290259Y-44456930D01*
X31826587Y-44234775D01*
X32237075Y-43824287D01*
X32249680Y-43793856D01*
X32262285Y-43824287D01*
X32672773Y-44234775D01*
X32739401Y-44262373D01*
X32739400Y-48682898D01*
X21856235Y-59566064D01*
X21789619Y-59538470D01*
X21209101Y-59538470D01*
X21108700Y-59580058D01*
X21108700Y-53595810D01*
X21466340Y-53595810D01*
X21466340Y-54404190D01*
X21775694Y-55151035D01*
X22347305Y-55722646D01*
X23094150Y-56032000D01*
X23902530Y-56032000D01*
X24649375Y-55722646D01*
X25220986Y-55151035D01*
X25530340Y-54404190D01*
X25530340Y-53595810D01*
X25220986Y-52848965D01*
X24649375Y-52277354D01*
X23902530Y-51968000D01*
X23094150Y-51968000D01*
X22347305Y-52277354D01*
X21775694Y-52848965D01*
X21466340Y-53595810D01*
X21108700Y-53595810D01*
X21108700Y-43484985D01*
X21125904Y-43459237D01*
X21160870Y-43283450D01*
X27041410Y-43283450D01*
X27041410Y-43948240D01*
X27138083Y-44181629D01*
X27316712Y-44360257D01*
X27550101Y-44456930D01*
X28214890Y-44456930D01*
X28373640Y-44298180D01*
X28373640Y-43124700D01*
X27200160Y-43124700D01*
X27041410Y-43283450D01*
X21160870Y-43283450D01*
X21170000Y-43237552D01*
X21170000Y-43237548D01*
X21184888Y-43162701D01*
X21170000Y-43087854D01*
X21170000Y-40700048D01*
X21184888Y-40625200D01*
X21170000Y-40550352D01*
X21170000Y-40550348D01*
X21135480Y-40376805D01*
X21125904Y-40328662D01*
X21000329Y-40140727D01*
X20957929Y-40077271D01*
X20894473Y-40034871D01*
X19615261Y-38755659D01*
X19700573Y-38720321D01*
X19763790Y-38483395D01*
X19000000Y-37719605D01*
X18985858Y-37733748D01*
X18806253Y-37554143D01*
X18820395Y-37540000D01*
X19179605Y-37540000D01*
X19943395Y-38303790D01*
X20180321Y-38240573D01*
X20358572Y-37735555D01*
X20329993Y-37200767D01*
X20180321Y-36839427D01*
X19943395Y-36776210D01*
X19179605Y-37540000D01*
X18820395Y-37540000D01*
X18056605Y-36776210D01*
X17819679Y-36839427D01*
X17788204Y-36928602D01*
X5139700Y-24280099D01*
X5139700Y-20002546D01*
X5154588Y-19927699D01*
X5139700Y-19852852D01*
X5139700Y-19852848D01*
X5095604Y-19631163D01*
X5094078Y-19628880D01*
X17654861Y-32189663D01*
X17654861Y-32189663D01*
G37*
X17654861Y-32189663D02*
X17653800Y-32192224D01*
X17653800Y-32727776D01*
X17858746Y-33222561D01*
X18237439Y-33601254D01*
X18548260Y-33730000D01*
X18237439Y-33858746D01*
X17858746Y-34237439D01*
X17653800Y-34732224D01*
X17653800Y-35267776D01*
X17858746Y-35762561D01*
X18237439Y-36141254D01*
X18532096Y-36263304D01*
X18299427Y-36359679D01*
X18236210Y-36596605D01*
X19000000Y-37360395D01*
X19763790Y-36596605D01*
X19700573Y-36359679D01*
X19449327Y-36270999D01*
X19762561Y-36141254D01*
X20141254Y-35762561D01*
X20346200Y-35267776D01*
X20346200Y-34732224D01*
X20141254Y-34237439D01*
X19762561Y-33858746D01*
X19451740Y-33730000D01*
X19762561Y-33601254D01*
X20141254Y-33222561D01*
X20144917Y-33213718D01*
X28469668Y-41538470D01*
X28373638Y-41538470D01*
X28373638Y-41697218D01*
X28214890Y-41538470D01*
X27550101Y-41538470D01*
X27316712Y-41635143D01*
X27138083Y-41813771D01*
X27041410Y-42047160D01*
X27041410Y-42711950D01*
X27200160Y-42870700D01*
X28373640Y-42870700D01*
X28373640Y-42850700D01*
X28627640Y-42850700D01*
X28627640Y-42870700D01*
X28647640Y-42870700D01*
X28647640Y-43124700D01*
X28627640Y-43124700D01*
X28627640Y-44298180D01*
X28786390Y-44456930D01*
X29451179Y-44456930D01*
X29684568Y-44360257D01*
X29863197Y-44181629D01*
X29938491Y-43999853D01*
X30173413Y-44234775D01*
X30709741Y-44456930D01*
X31290259Y-44456930D01*
X31826587Y-44234775D01*
X32237075Y-43824287D01*
X32249680Y-43793856D01*
X32262285Y-43824287D01*
X32672773Y-44234775D01*
X32739401Y-44262373D01*
X32739400Y-48682898D01*
X21856235Y-59566064D01*
X21789619Y-59538470D01*
X21209101Y-59538470D01*
X21108700Y-59580058D01*
X21108700Y-53595810D01*
X21466340Y-53595810D01*
X21466340Y-54404190D01*
X21775694Y-55151035D01*
X22347305Y-55722646D01*
X23094150Y-56032000D01*
X23902530Y-56032000D01*
X24649375Y-55722646D01*
X25220986Y-55151035D01*
X25530340Y-54404190D01*
X25530340Y-53595810D01*
X25220986Y-52848965D01*
X24649375Y-52277354D01*
X23902530Y-51968000D01*
X23094150Y-51968000D01*
X22347305Y-52277354D01*
X21775694Y-52848965D01*
X21466340Y-53595810D01*
X21108700Y-53595810D01*
X21108700Y-43484985D01*
X21125904Y-43459237D01*
X21160870Y-43283450D01*
X27041410Y-43283450D01*
X27041410Y-43948240D01*
X27138083Y-44181629D01*
X27316712Y-44360257D01*
X27550101Y-44456930D01*
X28214890Y-44456930D01*
X28373640Y-44298180D01*
X28373640Y-43124700D01*
X27200160Y-43124700D01*
X27041410Y-43283450D01*
X21160870Y-43283450D01*
X21170000Y-43237552D01*
X21170000Y-43237548D01*
X21184888Y-43162701D01*
X21170000Y-43087854D01*
X21170000Y-40700048D01*
X21184888Y-40625200D01*
X21170000Y-40550352D01*
X21170000Y-40550348D01*
X21135480Y-40376805D01*
X21125904Y-40328662D01*
X21000329Y-40140727D01*
X20957929Y-40077271D01*
X20894473Y-40034871D01*
X19615261Y-38755659D01*
X19700573Y-38720321D01*
X19763790Y-38483395D01*
X19000000Y-37719605D01*
X18985858Y-37733748D01*
X18806253Y-37554143D01*
X18820395Y-37540000D01*
X19179605Y-37540000D01*
X19943395Y-38303790D01*
X20180321Y-38240573D01*
X20358572Y-37735555D01*
X20329993Y-37200767D01*
X20180321Y-36839427D01*
X19943395Y-36776210D01*
X19179605Y-37540000D01*
X18820395Y-37540000D01*
X18056605Y-36776210D01*
X17819679Y-36839427D01*
X17788204Y-36928602D01*
X5139700Y-24280099D01*
X5139700Y-20002546D01*
X5154588Y-19927699D01*
X5139700Y-19852852D01*
X5139700Y-19852848D01*
X5095604Y-19631163D01*
X5094078Y-19628880D01*
X17654861Y-32189663D01*
G36*
X34502560Y-2350000D02*
X34551843Y-2597765D01*
X34585324Y-2647873D01*
X32609430Y-4623769D01*
X32545971Y-4666171D01*
X32377996Y-4917564D01*
X32333900Y-5139249D01*
X32333900Y-5139253D01*
X32319012Y-5214100D01*
X32333900Y-5288947D01*
X32333901Y-40399548D01*
X32319012Y-40474400D01*
X32377997Y-40770937D01*
X32464942Y-40901059D01*
X32315037Y-40800896D01*
X32093352Y-40756800D01*
X32093347Y-40756800D01*
X32018500Y-40741912D01*
X31943653Y-40756800D01*
X29837602Y-40756800D01*
X27052187Y-37971385D01*
X27652695Y-37722646D01*
X28224306Y-37151035D01*
X28533660Y-36404190D01*
X28533660Y-35595810D01*
X28224306Y-34848965D01*
X27652695Y-34277354D01*
X26905850Y-33968000D01*
X26097470Y-33968000D01*
X25350625Y-34277354D01*
X24779014Y-34848965D01*
X24530275Y-35449473D01*
X19502031Y-30421230D01*
X19459629Y-30357771D01*
X19208237Y-30189796D01*
X18986552Y-30145700D01*
X18986547Y-30145700D01*
X18911700Y-30130812D01*
X18836853Y-30145700D01*
X18793502Y-30145700D01*
X14601307Y-25953505D01*
X15569928Y-26285139D01*
X17004678Y-26597965D01*
X18465876Y-26743812D01*
X19934153Y-26720746D01*
X21390049Y-26529074D01*
X22814265Y-26171335D01*
X24187926Y-25652272D01*
X25492823Y-24978765D01*
X26711662Y-24159739D01*
X27828286Y-23206052D01*
X28827896Y-22130343D01*
X29697243Y-20946871D01*
X30424804Y-19671322D01*
X31000934Y-18320602D01*
X31417999Y-16912615D01*
X31670470Y-15466023D01*
X31755000Y-14000000D01*
X31729831Y-13199107D01*
X31553415Y-11741284D01*
X31210610Y-10313399D01*
X30705960Y-8934379D01*
X30046154Y-7622500D01*
X29239937Y-6395152D01*
X28297995Y-5268602D01*
X27232813Y-4257782D01*
X26058509Y-3376090D01*
X24790649Y-2635212D01*
X23446036Y-2044968D01*
X22042494Y-1613182D01*
X20598625Y-1345577D01*
X19133568Y-1245699D01*
X17666739Y-1314873D01*
X16217583Y-1552182D01*
X14805306Y-1954479D01*
X13448627Y-2516434D01*
X12165529Y-3230597D01*
X10973018Y-4087503D01*
X9886901Y-5075794D01*
X8921573Y-6182371D01*
X8089829Y-7392565D01*
X7402693Y-8690338D01*
X6968900Y-9802960D01*
X6968900Y-6591748D01*
X6983788Y-6516900D01*
X6968900Y-6442052D01*
X6968900Y-6442048D01*
X6924804Y-6220363D01*
X6924804Y-6220362D01*
X6799229Y-6032427D01*
X6756829Y-5968971D01*
X6693373Y-5926571D01*
X3414675Y-2647874D01*
X3448157Y-2597765D01*
X3497440Y-2350000D01*
X3497440Y-735000D01*
X34502560Y-735000D01*
X34502560Y-2350000D01*
X34502560Y-2350000D01*
G37*
X34502560Y-2350000D02*
X34551843Y-2597765D01*
X34585324Y-2647873D01*
X32609430Y-4623769D01*
X32545971Y-4666171D01*
X32377996Y-4917564D01*
X32333900Y-5139249D01*
X32333900Y-5139253D01*
X32319012Y-5214100D01*
X32333900Y-5288947D01*
X32333901Y-40399548D01*
X32319012Y-40474400D01*
X32377997Y-40770937D01*
X32464942Y-40901059D01*
X32315037Y-40800896D01*
X32093352Y-40756800D01*
X32093347Y-40756800D01*
X32018500Y-40741912D01*
X31943653Y-40756800D01*
X29837602Y-40756800D01*
X27052187Y-37971385D01*
X27652695Y-37722646D01*
X28224306Y-37151035D01*
X28533660Y-36404190D01*
X28533660Y-35595810D01*
X28224306Y-34848965D01*
X27652695Y-34277354D01*
X26905850Y-33968000D01*
X26097470Y-33968000D01*
X25350625Y-34277354D01*
X24779014Y-34848965D01*
X24530275Y-35449473D01*
X19502031Y-30421230D01*
X19459629Y-30357771D01*
X19208237Y-30189796D01*
X18986552Y-30145700D01*
X18986547Y-30145700D01*
X18911700Y-30130812D01*
X18836853Y-30145700D01*
X18793502Y-30145700D01*
X14601307Y-25953505D01*
X15569928Y-26285139D01*
X17004678Y-26597965D01*
X18465876Y-26743812D01*
X19934153Y-26720746D01*
X21390049Y-26529074D01*
X22814265Y-26171335D01*
X24187926Y-25652272D01*
X25492823Y-24978765D01*
X26711662Y-24159739D01*
X27828286Y-23206052D01*
X28827896Y-22130343D01*
X29697243Y-20946871D01*
X30424804Y-19671322D01*
X31000934Y-18320602D01*
X31417999Y-16912615D01*
X31670470Y-15466023D01*
X31755000Y-14000000D01*
X31729831Y-13199107D01*
X31553415Y-11741284D01*
X31210610Y-10313399D01*
X30705960Y-8934379D01*
X30046154Y-7622500D01*
X29239937Y-6395152D01*
X28297995Y-5268602D01*
X27232813Y-4257782D01*
X26058509Y-3376090D01*
X24790649Y-2635212D01*
X23446036Y-2044968D01*
X22042494Y-1613182D01*
X20598625Y-1345577D01*
X19133568Y-1245699D01*
X17666739Y-1314873D01*
X16217583Y-1552182D01*
X14805306Y-1954479D01*
X13448627Y-2516434D01*
X12165529Y-3230597D01*
X10973018Y-4087503D01*
X9886901Y-5075794D01*
X8921573Y-6182371D01*
X8089829Y-7392565D01*
X7402693Y-8690338D01*
X6968900Y-9802960D01*
X6968900Y-6591748D01*
X6983788Y-6516900D01*
X6968900Y-6442052D01*
X6968900Y-6442048D01*
X6924804Y-6220363D01*
X6924804Y-6220362D01*
X6799229Y-6032427D01*
X6756829Y-5968971D01*
X6693373Y-5926571D01*
X3414675Y-2647874D01*
X3448157Y-2597765D01*
X3497440Y-2350000D01*
X3497440Y-735000D01*
X34502560Y-735000D01*
X34502560Y-2350000D01*
G36*
X2127000Y-3913000D02*
X2147000Y-3913000D01*
X2147000Y-4167000D01*
X2127000Y-4167000D01*
X2127000Y-4187000D01*
X1873000Y-4187000D01*
X1873000Y-4167000D01*
X1853000Y-4167000D01*
X1853000Y-3913000D01*
X1873000Y-3913000D01*
X1873000Y-3893000D01*
X2127000Y-3893000D01*
X2127000Y-3913000D01*
X2127000Y-3913000D01*
G37*
X2127000Y-3913000D02*
X2147000Y-3913000D01*
X2147000Y-4167000D01*
X2127000Y-4167000D01*
X2127000Y-4187000D01*
X1873000Y-4187000D01*
X1873000Y-4167000D01*
X1853000Y-4167000D01*
X1853000Y-3913000D01*
X1873000Y-3913000D01*
X1873000Y-3893000D01*
X2127000Y-3893000D01*
X2127000Y-3913000D01*
G04 #@! TD*
M02*
