M48
;DRILL file {KiCad (5.0.2)-1} date 6-4-2019 15:29:38
;FORMAT={-:-/ absolute / inch / decimal}
FMAT,2
INCH,TZ
T1C0.0157
T2C0.0354
T3C0.0393
T4C0.0394
T5C0.0433
T6C0.0826
%
G90
G05
T1
X0.1568Y-2.3822
X0.4724Y-2.0472
X0.6241Y-1.4426
X0.68Y-1.4581
X0.748Y-1.1024
X0.8268Y-2.1063
X1.2205Y-2.5197
T2
X1.2878Y-2.1063
X1.3878Y-2.1063
X1.2878Y-3.5039
X1.3878Y-3.5039
T3
X0.748Y-1.2583
X0.748Y-1.3583
X0.748Y-1.4583
T4
X0.0787Y-0.0591
X0.0787Y-0.1591
X0.0787Y-0.2591
X0.0787Y-0.3591
X0.0787Y-0.4591
X0.0787Y-0.5591
X0.0787Y-0.6591
X0.0787Y-0.7591
X0.0787Y-0.8591
X0.0787Y-0.9591
X1.4173Y-0.0591
X1.4173Y-0.1591
X1.4173Y-0.2591
X1.4173Y-0.3591
X1.4173Y-0.4591
X1.4173Y-0.5591
X1.4173Y-0.6591
X1.4173Y-0.7591
X1.4173Y-0.8591
X1.4173Y-0.9591
T5
X0.6496Y-2.3818
X0.748Y-2.3818
X0.8464Y-2.3818
X0.1772Y-3.1298
X0.2756Y-3.1298
X0.374Y-3.1298
X0.1772Y-3.7598
X0.1772Y-3.878
X0.1772Y-4.2125
X1.1221Y-1.6338
X1.2205Y-1.6338
X1.3189Y-1.6338
X0.1772Y-1.6338
X0.2756Y-1.6338
X0.374Y-1.6338
X1.1221Y-3.1298
X1.2205Y-3.1298
X1.3189Y-3.1298
X0.935Y-3.7598
X0.935Y-3.878
X0.935Y-4.2125
X0.561Y-3.7598
X0.561Y-3.878
X0.561Y-4.2125
X0.8859Y-3.2284
X0.9843Y-3.2284
X1.0827Y-3.2284
X0.4134Y-3.2284
X0.5118Y-3.2284
X0.6102Y-3.2284
X1.3189Y-3.7598
X1.3189Y-3.878
X1.3189Y-4.2125
T6
X0.5709Y-2.1063
X0.9251Y-2.1063
X0.0985Y-2.8543
X0.4527Y-2.8543
X1.0434Y-1.3583
X1.3976Y-1.3583
X0.0985Y-1.3583
X0.4527Y-1.3583
X1.0434Y-2.8543
X1.3976Y-2.8543
X0.8072Y-3.5039
X1.1614Y-3.5039
X0.3347Y-3.5039
X0.6889Y-3.5039
T0
M30
