M48
;DRILL file {KiCad (5.0.2)-1} date 3-4-2019 22:17:53
;FORMAT={-:-/ absolute / inch / decimal}
FMAT,2
INCH,TZ
T1C0.0157
T2C0.0354
T3C0.0393
T4C0.0394
T5C0.0433
T6C0.0826
%
G90
G05
T1
X0.1606Y-1.5678
X0.8054Y-2.9806
T2
X1.2697Y-3.563
X1.3697Y-3.563
X1.2583Y-2.0866
X1.3583Y-2.0866
T3
X0.748Y-1.1795
X0.748Y-1.2795
X0.748Y-1.3795
T4
X0.0787Y-0.0591
X0.0787Y-0.1591
X0.0787Y-0.2591
X0.0787Y-0.3591
X0.0787Y-0.4591
X0.0787Y-0.5591
X0.0787Y-0.6591
X0.0787Y-0.7591
X0.0787Y-0.8591
X0.0787Y-0.9591
X1.4173Y-0.0591
X1.4173Y-0.1591
X1.4173Y-0.2591
X1.4173Y-0.3591
X1.4173Y-0.4591
X1.4173Y-0.5591
X1.4173Y-0.6591
X1.4173Y-0.7591
X1.4173Y-0.8591
X1.4173Y-0.9591
T5
X0.1772Y-3.7598
X0.1772Y-3.878
X0.1772Y-4.2125
X0.1772Y-3.0708
X0.2756Y-3.0708
X0.374Y-3.0708
X0.8859Y-3.622
X0.9843Y-3.622
X1.0827Y-3.622
X0.935Y-3.7598
X0.935Y-3.878
X0.935Y-4.2125
X0.1772Y-1.6535
X0.2756Y-1.6535
X0.374Y-1.6535
X1.1221Y-1.6535
X1.2205Y-1.6535
X1.3189Y-1.6535
X0.6496Y-2.3621
X0.748Y-2.3621
X0.8464Y-2.3621
X1.3189Y-3.7598
X1.3189Y-3.878
X1.3189Y-4.2125
X1.1221Y-3.0708
X1.2205Y-3.0708
X1.3189Y-3.0708
X0.4134Y-3.622
X0.5118Y-3.622
X0.6102Y-3.622
X0.561Y-3.7598
X0.561Y-3.878
X0.561Y-4.2125
T6
X0.0985Y-2.7953
X0.4527Y-2.7953
X0.8072Y-3.3465
X1.1614Y-3.3465
X0.0985Y-1.378
X0.4527Y-1.378
X1.0434Y-1.378
X1.3976Y-1.378
X0.5709Y-2.0866
X0.9251Y-2.0866
X1.0434Y-2.7953
X1.3976Y-2.7953
X0.3347Y-3.3465
X0.6889Y-3.3465
T0
M30
