G04 #@! TF.GenerationSoftware,KiCad,Pcbnew,(5.0.2)-1*
G04 #@! TF.CreationDate,2019-04-06T15:29:36+02:00*
G04 #@! TF.ProjectId,Corona_controlBoard,436f726f-6e61-45f6-936f-6e74726f6c42,1*
G04 #@! TF.SameCoordinates,Original*
G04 #@! TF.FileFunction,Copper,L1,Top*
G04 #@! TF.FilePolarity,Positive*
%FSLAX46Y46*%
G04 Gerber Fmt 4.6, Leading zero omitted, Abs format (unit mm)*
G04 Created by KiCad (PCBNEW (5.0.2)-1) date 6-4-2019 15:29:36*
%MOMM*%
%LPD*%
G01*
G04 APERTURE LIST*
G04 #@! TA.AperFunction,ComponentPad*
%ADD10C,1.800000*%
G04 #@! TD*
G04 #@! TA.AperFunction,ComponentPad*
%ADD11R,1.800000X1.800000*%
G04 #@! TD*
G04 #@! TA.AperFunction,ComponentPad*
%ADD12C,1.648460*%
G04 #@! TD*
G04 #@! TA.AperFunction,ComponentPad*
%ADD13R,1.648460X1.648460*%
G04 #@! TD*
G04 #@! TA.AperFunction,ComponentPad*
%ADD14C,2.794000*%
G04 #@! TD*
G04 #@! TA.AperFunction,ComponentPad*
%ADD15C,1.422400*%
G04 #@! TD*
G04 #@! TA.AperFunction,ComponentPad*
%ADD16R,1.700000X1.700000*%
G04 #@! TD*
G04 #@! TA.AperFunction,ComponentPad*
%ADD17O,1.700000X1.700000*%
G04 #@! TD*
G04 #@! TA.AperFunction,Conductor*
%ADD18C,0.100000*%
G04 #@! TD*
G04 #@! TA.AperFunction,SMDPad,CuDef*
%ADD19C,1.150000*%
G04 #@! TD*
G04 #@! TA.AperFunction,ViaPad*
%ADD20C,0.800000*%
G04 #@! TD*
G04 #@! TA.AperFunction,Conductor*
%ADD21C,0.250000*%
G04 #@! TD*
G04 #@! TA.AperFunction,Conductor*
%ADD22C,0.254000*%
G04 #@! TD*
G04 APERTURE END LIST*
D10*
G04 #@! TO.P,D3,2*
G04 #@! TO.N,/led.fb.in.cb*
X32710000Y-53500000D03*
D11*
G04 #@! TO.P,D3,1*
G04 #@! TO.N,/led.fb.out.cb*
X35250000Y-53500000D03*
G04 #@! TD*
D10*
G04 #@! TO.P,D7,2*
G04 #@! TO.N,/led.clip.in.cb*
X32710000Y-89000000D03*
D11*
G04 #@! TO.P,D7,1*
G04 #@! TO.N,/led.clip.out.cb*
X35250000Y-89000000D03*
G04 #@! TD*
D12*
G04 #@! TO.P,J_IN1,2*
G04 #@! TO.N,/gnd.cb*
X4500000Y-95500140D03*
G04 #@! TO.P,J_IN1,3*
G04 #@! TO.N,N/C*
X4500000Y-98502420D03*
G04 #@! TO.P,J_IN1,1*
G04 #@! TO.N,Net-(J_IN1-Pad1)*
X4500000Y-106998720D03*
G04 #@! TD*
G04 #@! TO.P,J_OUT1,1*
G04 #@! TO.N,Net-(J_OUT1-Pad1)*
X33500000Y-106998720D03*
G04 #@! TO.P,J_OUT1,3*
G04 #@! TO.N,N/C*
X33500000Y-98502420D03*
G04 #@! TO.P,J_OUT1,2*
G04 #@! TO.N,/gnd.cb*
X33500000Y-95500140D03*
G04 #@! TD*
D13*
G04 #@! TO.P,RV_FB1,1*
G04 #@! TO.N,/gnd.cb*
X28500640Y-41497700D03*
D12*
G04 #@! TO.P,RV_FB1,2*
G04 #@! TO.N,/fb.level.cb*
X31000000Y-41497700D03*
G04 #@! TO.P,RV_FB1,3*
G04 #@! TO.N,/+12V.cb*
X33499360Y-41497700D03*
D14*
G04 #@! TO.P,RV_FB1,CHASSIS1*
G04 #@! TO.N,N/C*
X26501660Y-34500000D03*
G04 #@! TO.P,RV_FB1,CHASSIS2*
X35498340Y-34500000D03*
G04 #@! TD*
D15*
G04 #@! TO.P,SW1,1*
G04 #@! TO.N,/gnd.cb*
X19000000Y-37040000D03*
G04 #@! TO.P,SW1,3*
G04 #@! TO.N,/-12V.cb*
X19000000Y-31960000D03*
G04 #@! TO.P,SW1,2*
G04 #@! TO.N,/tube.gnd.cb*
X19000000Y-34500000D03*
G04 #@! TD*
D14*
G04 #@! TO.P,RV_GAIN1,CHASSIS2*
G04 #@! TO.N,N/C*
X35498340Y-72500000D03*
G04 #@! TO.P,RV_GAIN1,CHASSIS1*
X26501660Y-72500000D03*
D12*
G04 #@! TO.P,RV_GAIN1,3*
G04 #@! TO.N,/R.gain.3.cb*
X33499360Y-79497700D03*
G04 #@! TO.P,RV_GAIN1,2*
X31000000Y-79497700D03*
D13*
G04 #@! TO.P,RV_GAIN1,1*
G04 #@! TO.N,/R.gain.1.cb*
X28500640Y-79497700D03*
G04 #@! TD*
D12*
G04 #@! TO.P,J_IN_DRV1,1*
G04 #@! TO.N,Net-(J_IN_DRV1-Pad1)*
X14250000Y-106998720D03*
G04 #@! TO.P,J_IN_DRV1,3*
G04 #@! TO.N,N/C*
X14250000Y-98502420D03*
G04 #@! TO.P,J_IN_DRV1,2*
G04 #@! TO.N,/gnd.cb*
X14250000Y-95500140D03*
G04 #@! TD*
G04 #@! TO.P,J_IN_FB1,2*
G04 #@! TO.N,/gnd.cb*
X23750000Y-95500140D03*
G04 #@! TO.P,J_IN_FB1,3*
G04 #@! TO.N,N/C*
X23750000Y-98502420D03*
G04 #@! TO.P,J_IN_FB1,1*
G04 #@! TO.N,Net-(J_IN_FB1-Pad1)*
X23750000Y-106998720D03*
G04 #@! TD*
D13*
G04 #@! TO.P,RV_DRV1,1*
G04 #@! TO.N,/gnd.cb*
X16500640Y-60497700D03*
D12*
G04 #@! TO.P,RV_DRV1,2*
G04 #@! TO.N,/drv.level.cb*
X19000000Y-60497700D03*
G04 #@! TO.P,RV_DRV1,3*
G04 #@! TO.N,/+12V.cb*
X21499360Y-60497700D03*
D14*
G04 #@! TO.P,RV_DRV1,CHASSIS1*
G04 #@! TO.N,N/C*
X14501660Y-53500000D03*
G04 #@! TO.P,RV_DRV1,CHASSIS2*
X23498340Y-53500000D03*
G04 #@! TD*
G04 #@! TO.P,RV_DRV_CV1,CHASSIS2*
G04 #@! TO.N,N/C*
X8501660Y-89000000D03*
G04 #@! TO.P,RV_DRV_CV1,CHASSIS1*
X17498340Y-89000000D03*
D12*
G04 #@! TO.P,RV_DRV_CV1,3*
G04 #@! TO.N,Net-(J_IN_DRV1-Pad1)*
X10500640Y-82002300D03*
G04 #@! TO.P,RV_DRV_CV1,2*
G04 #@! TO.N,/drv.cv.level.cb*
X13000000Y-82002300D03*
D13*
G04 #@! TO.P,RV_DRV_CV1,1*
G04 #@! TO.N,/gnd.cb*
X15499360Y-82002300D03*
G04 #@! TD*
D14*
G04 #@! TO.P,RV_FB_CV1,CHASSIS2*
G04 #@! TO.N,N/C*
X20501660Y-89000000D03*
G04 #@! TO.P,RV_FB_CV1,CHASSIS1*
X29498340Y-89000000D03*
D12*
G04 #@! TO.P,RV_FB_CV1,3*
G04 #@! TO.N,Net-(J_IN_FB1-Pad1)*
X22500640Y-82002300D03*
G04 #@! TO.P,RV_FB_CV1,2*
G04 #@! TO.N,/fb.cv.level.cb*
X25000000Y-82002300D03*
D13*
G04 #@! TO.P,RV_FB_CV1,1*
G04 #@! TO.N,/gnd.cb*
X27499360Y-82002300D03*
G04 #@! TD*
D14*
G04 #@! TO.P,RV_IN1,CHASSIS2*
G04 #@! TO.N,N/C*
X11498340Y-72500000D03*
G04 #@! TO.P,RV_IN1,CHASSIS1*
X2501660Y-72500000D03*
D12*
G04 #@! TO.P,RV_IN1,3*
G04 #@! TO.N,Net-(R4-Pad1)*
X9499360Y-79497700D03*
G04 #@! TO.P,RV_IN1,2*
G04 #@! TO.N,/audio.in.cb*
X7000000Y-79497700D03*
D13*
G04 #@! TO.P,RV_IN1,1*
G04 #@! TO.N,/gnd.cb*
X4500640Y-79497700D03*
G04 #@! TD*
G04 #@! TO.P,RV_TONE1,1*
G04 #@! TO.N,/gnd.cb*
X4500640Y-41497700D03*
D12*
G04 #@! TO.P,RV_TONE1,2*
X7000000Y-41497700D03*
G04 #@! TO.P,RV_TONE1,3*
G04 #@! TO.N,/tone.level.cb*
X9499360Y-41497700D03*
D14*
G04 #@! TO.P,RV_TONE1,CHASSIS1*
G04 #@! TO.N,N/C*
X2501660Y-34500000D03*
G04 #@! TO.P,RV_TONE1,CHASSIS2*
X11498340Y-34500000D03*
G04 #@! TD*
D16*
G04 #@! TO.P,J1,1*
G04 #@! TO.N,/+12V.cb*
X2000000Y-1500000D03*
D17*
G04 #@! TO.P,J1,2*
G04 #@! TO.N,/gnd.cb*
X2000000Y-4040000D03*
G04 #@! TO.P,J1,3*
G04 #@! TO.N,/-12V.cb*
X2000000Y-6580000D03*
G04 #@! TO.P,J1,4*
G04 #@! TO.N,N/C*
X2000000Y-9120000D03*
G04 #@! TO.P,J1,5*
G04 #@! TO.N,/audio.in.cb*
X2000000Y-11660000D03*
G04 #@! TO.P,J1,6*
G04 #@! TO.N,/audio.out.cb*
X2000000Y-14200000D03*
G04 #@! TO.P,J1,7*
G04 #@! TO.N,/led.clip.in.cb*
X2000000Y-16740000D03*
G04 #@! TO.P,J1,8*
G04 #@! TO.N,/led.clip.out.cb*
X2000000Y-19280000D03*
G04 #@! TO.P,J1,9*
G04 #@! TO.N,/led.fb.in.cb*
X2000000Y-21820000D03*
G04 #@! TO.P,J1,10*
G04 #@! TO.N,/led.fb.out.cb*
X2000000Y-24360000D03*
G04 #@! TD*
D18*
G04 #@! TO.N,/fb.cv.in.cb*
G04 #@! TO.C,R1*
G36*
X3324505Y-48301204D02*
X3348773Y-48304804D01*
X3372572Y-48310765D01*
X3395671Y-48319030D01*
X3417850Y-48329520D01*
X3438893Y-48342132D01*
X3458599Y-48356747D01*
X3476777Y-48373223D01*
X3493253Y-48391401D01*
X3507868Y-48411107D01*
X3520480Y-48432150D01*
X3530970Y-48454329D01*
X3539235Y-48477428D01*
X3545196Y-48501227D01*
X3548796Y-48525495D01*
X3550000Y-48549999D01*
X3550000Y-49450001D01*
X3548796Y-49474505D01*
X3545196Y-49498773D01*
X3539235Y-49522572D01*
X3530970Y-49545671D01*
X3520480Y-49567850D01*
X3507868Y-49588893D01*
X3493253Y-49608599D01*
X3476777Y-49626777D01*
X3458599Y-49643253D01*
X3438893Y-49657868D01*
X3417850Y-49670480D01*
X3395671Y-49680970D01*
X3372572Y-49689235D01*
X3348773Y-49695196D01*
X3324505Y-49698796D01*
X3300001Y-49700000D01*
X2649999Y-49700000D01*
X2625495Y-49698796D01*
X2601227Y-49695196D01*
X2577428Y-49689235D01*
X2554329Y-49680970D01*
X2532150Y-49670480D01*
X2511107Y-49657868D01*
X2491401Y-49643253D01*
X2473223Y-49626777D01*
X2456747Y-49608599D01*
X2442132Y-49588893D01*
X2429520Y-49567850D01*
X2419030Y-49545671D01*
X2410765Y-49522572D01*
X2404804Y-49498773D01*
X2401204Y-49474505D01*
X2400000Y-49450001D01*
X2400000Y-48549999D01*
X2401204Y-48525495D01*
X2404804Y-48501227D01*
X2410765Y-48477428D01*
X2419030Y-48454329D01*
X2429520Y-48432150D01*
X2442132Y-48411107D01*
X2456747Y-48391401D01*
X2473223Y-48373223D01*
X2491401Y-48356747D01*
X2511107Y-48342132D01*
X2532150Y-48329520D01*
X2554329Y-48319030D01*
X2577428Y-48310765D01*
X2601227Y-48304804D01*
X2625495Y-48301204D01*
X2649999Y-48300000D01*
X3300001Y-48300000D01*
X3324505Y-48301204D01*
X3324505Y-48301204D01*
G37*
D19*
G04 #@! TD*
G04 #@! TO.P,R1,1*
G04 #@! TO.N,/fb.cv.in.cb*
X2975000Y-49000000D03*
D18*
G04 #@! TO.N,Net-(J_IN_FB1-Pad1)*
G04 #@! TO.C,R1*
G36*
X5374505Y-48301204D02*
X5398773Y-48304804D01*
X5422572Y-48310765D01*
X5445671Y-48319030D01*
X5467850Y-48329520D01*
X5488893Y-48342132D01*
X5508599Y-48356747D01*
X5526777Y-48373223D01*
X5543253Y-48391401D01*
X5557868Y-48411107D01*
X5570480Y-48432150D01*
X5580970Y-48454329D01*
X5589235Y-48477428D01*
X5595196Y-48501227D01*
X5598796Y-48525495D01*
X5600000Y-48549999D01*
X5600000Y-49450001D01*
X5598796Y-49474505D01*
X5595196Y-49498773D01*
X5589235Y-49522572D01*
X5580970Y-49545671D01*
X5570480Y-49567850D01*
X5557868Y-49588893D01*
X5543253Y-49608599D01*
X5526777Y-49626777D01*
X5508599Y-49643253D01*
X5488893Y-49657868D01*
X5467850Y-49670480D01*
X5445671Y-49680970D01*
X5422572Y-49689235D01*
X5398773Y-49695196D01*
X5374505Y-49698796D01*
X5350001Y-49700000D01*
X4699999Y-49700000D01*
X4675495Y-49698796D01*
X4651227Y-49695196D01*
X4627428Y-49689235D01*
X4604329Y-49680970D01*
X4582150Y-49670480D01*
X4561107Y-49657868D01*
X4541401Y-49643253D01*
X4523223Y-49626777D01*
X4506747Y-49608599D01*
X4492132Y-49588893D01*
X4479520Y-49567850D01*
X4469030Y-49545671D01*
X4460765Y-49522572D01*
X4454804Y-49498773D01*
X4451204Y-49474505D01*
X4450000Y-49450001D01*
X4450000Y-48549999D01*
X4451204Y-48525495D01*
X4454804Y-48501227D01*
X4460765Y-48477428D01*
X4469030Y-48454329D01*
X4479520Y-48432150D01*
X4492132Y-48411107D01*
X4506747Y-48391401D01*
X4523223Y-48373223D01*
X4541401Y-48356747D01*
X4561107Y-48342132D01*
X4582150Y-48329520D01*
X4604329Y-48319030D01*
X4627428Y-48310765D01*
X4651227Y-48304804D01*
X4675495Y-48301204D01*
X4699999Y-48300000D01*
X5350001Y-48300000D01*
X5374505Y-48301204D01*
X5374505Y-48301204D01*
G37*
D19*
G04 #@! TD*
G04 #@! TO.P,R1,2*
G04 #@! TO.N,Net-(J_IN_FB1-Pad1)*
X5025000Y-49000000D03*
D18*
G04 #@! TO.N,/drv.cv.in.cb*
G04 #@! TO.C,R2*
G36*
X3324505Y-51801204D02*
X3348773Y-51804804D01*
X3372572Y-51810765D01*
X3395671Y-51819030D01*
X3417850Y-51829520D01*
X3438893Y-51842132D01*
X3458599Y-51856747D01*
X3476777Y-51873223D01*
X3493253Y-51891401D01*
X3507868Y-51911107D01*
X3520480Y-51932150D01*
X3530970Y-51954329D01*
X3539235Y-51977428D01*
X3545196Y-52001227D01*
X3548796Y-52025495D01*
X3550000Y-52049999D01*
X3550000Y-52950001D01*
X3548796Y-52974505D01*
X3545196Y-52998773D01*
X3539235Y-53022572D01*
X3530970Y-53045671D01*
X3520480Y-53067850D01*
X3507868Y-53088893D01*
X3493253Y-53108599D01*
X3476777Y-53126777D01*
X3458599Y-53143253D01*
X3438893Y-53157868D01*
X3417850Y-53170480D01*
X3395671Y-53180970D01*
X3372572Y-53189235D01*
X3348773Y-53195196D01*
X3324505Y-53198796D01*
X3300001Y-53200000D01*
X2649999Y-53200000D01*
X2625495Y-53198796D01*
X2601227Y-53195196D01*
X2577428Y-53189235D01*
X2554329Y-53180970D01*
X2532150Y-53170480D01*
X2511107Y-53157868D01*
X2491401Y-53143253D01*
X2473223Y-53126777D01*
X2456747Y-53108599D01*
X2442132Y-53088893D01*
X2429520Y-53067850D01*
X2419030Y-53045671D01*
X2410765Y-53022572D01*
X2404804Y-52998773D01*
X2401204Y-52974505D01*
X2400000Y-52950001D01*
X2400000Y-52049999D01*
X2401204Y-52025495D01*
X2404804Y-52001227D01*
X2410765Y-51977428D01*
X2419030Y-51954329D01*
X2429520Y-51932150D01*
X2442132Y-51911107D01*
X2456747Y-51891401D01*
X2473223Y-51873223D01*
X2491401Y-51856747D01*
X2511107Y-51842132D01*
X2532150Y-51829520D01*
X2554329Y-51819030D01*
X2577428Y-51810765D01*
X2601227Y-51804804D01*
X2625495Y-51801204D01*
X2649999Y-51800000D01*
X3300001Y-51800000D01*
X3324505Y-51801204D01*
X3324505Y-51801204D01*
G37*
D19*
G04 #@! TD*
G04 #@! TO.P,R2,1*
G04 #@! TO.N,/drv.cv.in.cb*
X2975000Y-52500000D03*
D18*
G04 #@! TO.N,Net-(J_IN_DRV1-Pad1)*
G04 #@! TO.C,R2*
G36*
X5374505Y-51801204D02*
X5398773Y-51804804D01*
X5422572Y-51810765D01*
X5445671Y-51819030D01*
X5467850Y-51829520D01*
X5488893Y-51842132D01*
X5508599Y-51856747D01*
X5526777Y-51873223D01*
X5543253Y-51891401D01*
X5557868Y-51911107D01*
X5570480Y-51932150D01*
X5580970Y-51954329D01*
X5589235Y-51977428D01*
X5595196Y-52001227D01*
X5598796Y-52025495D01*
X5600000Y-52049999D01*
X5600000Y-52950001D01*
X5598796Y-52974505D01*
X5595196Y-52998773D01*
X5589235Y-53022572D01*
X5580970Y-53045671D01*
X5570480Y-53067850D01*
X5557868Y-53088893D01*
X5543253Y-53108599D01*
X5526777Y-53126777D01*
X5508599Y-53143253D01*
X5488893Y-53157868D01*
X5467850Y-53170480D01*
X5445671Y-53180970D01*
X5422572Y-53189235D01*
X5398773Y-53195196D01*
X5374505Y-53198796D01*
X5350001Y-53200000D01*
X4699999Y-53200000D01*
X4675495Y-53198796D01*
X4651227Y-53195196D01*
X4627428Y-53189235D01*
X4604329Y-53180970D01*
X4582150Y-53170480D01*
X4561107Y-53157868D01*
X4541401Y-53143253D01*
X4523223Y-53126777D01*
X4506747Y-53108599D01*
X4492132Y-53088893D01*
X4479520Y-53067850D01*
X4469030Y-53045671D01*
X4460765Y-53022572D01*
X4454804Y-52998773D01*
X4451204Y-52974505D01*
X4450000Y-52950001D01*
X4450000Y-52049999D01*
X4451204Y-52025495D01*
X4454804Y-52001227D01*
X4460765Y-51977428D01*
X4469030Y-51954329D01*
X4479520Y-51932150D01*
X4492132Y-51911107D01*
X4506747Y-51891401D01*
X4523223Y-51873223D01*
X4541401Y-51856747D01*
X4561107Y-51842132D01*
X4582150Y-51829520D01*
X4604329Y-51819030D01*
X4627428Y-51810765D01*
X4651227Y-51804804D01*
X4675495Y-51801204D01*
X4699999Y-51800000D01*
X5350001Y-51800000D01*
X5374505Y-51801204D01*
X5374505Y-51801204D01*
G37*
D19*
G04 #@! TD*
G04 #@! TO.P,R2,2*
G04 #@! TO.N,Net-(J_IN_DRV1-Pad1)*
X5025000Y-52500000D03*
D18*
G04 #@! TO.N,Net-(R4-Pad1)*
G04 #@! TO.C,R4*
G36*
X3349505Y-55301204D02*
X3373773Y-55304804D01*
X3397572Y-55310765D01*
X3420671Y-55319030D01*
X3442850Y-55329520D01*
X3463893Y-55342132D01*
X3483599Y-55356747D01*
X3501777Y-55373223D01*
X3518253Y-55391401D01*
X3532868Y-55411107D01*
X3545480Y-55432150D01*
X3555970Y-55454329D01*
X3564235Y-55477428D01*
X3570196Y-55501227D01*
X3573796Y-55525495D01*
X3575000Y-55549999D01*
X3575000Y-56450001D01*
X3573796Y-56474505D01*
X3570196Y-56498773D01*
X3564235Y-56522572D01*
X3555970Y-56545671D01*
X3545480Y-56567850D01*
X3532868Y-56588893D01*
X3518253Y-56608599D01*
X3501777Y-56626777D01*
X3483599Y-56643253D01*
X3463893Y-56657868D01*
X3442850Y-56670480D01*
X3420671Y-56680970D01*
X3397572Y-56689235D01*
X3373773Y-56695196D01*
X3349505Y-56698796D01*
X3325001Y-56700000D01*
X2674999Y-56700000D01*
X2650495Y-56698796D01*
X2626227Y-56695196D01*
X2602428Y-56689235D01*
X2579329Y-56680970D01*
X2557150Y-56670480D01*
X2536107Y-56657868D01*
X2516401Y-56643253D01*
X2498223Y-56626777D01*
X2481747Y-56608599D01*
X2467132Y-56588893D01*
X2454520Y-56567850D01*
X2444030Y-56545671D01*
X2435765Y-56522572D01*
X2429804Y-56498773D01*
X2426204Y-56474505D01*
X2425000Y-56450001D01*
X2425000Y-55549999D01*
X2426204Y-55525495D01*
X2429804Y-55501227D01*
X2435765Y-55477428D01*
X2444030Y-55454329D01*
X2454520Y-55432150D01*
X2467132Y-55411107D01*
X2481747Y-55391401D01*
X2498223Y-55373223D01*
X2516401Y-55356747D01*
X2536107Y-55342132D01*
X2557150Y-55329520D01*
X2579329Y-55319030D01*
X2602428Y-55310765D01*
X2626227Y-55304804D01*
X2650495Y-55301204D01*
X2674999Y-55300000D01*
X3325001Y-55300000D01*
X3349505Y-55301204D01*
X3349505Y-55301204D01*
G37*
D19*
G04 #@! TD*
G04 #@! TO.P,R4,1*
G04 #@! TO.N,Net-(R4-Pad1)*
X3000000Y-56000000D03*
D18*
G04 #@! TO.N,Net-(J_IN1-Pad1)*
G04 #@! TO.C,R4*
G36*
X5399505Y-55301204D02*
X5423773Y-55304804D01*
X5447572Y-55310765D01*
X5470671Y-55319030D01*
X5492850Y-55329520D01*
X5513893Y-55342132D01*
X5533599Y-55356747D01*
X5551777Y-55373223D01*
X5568253Y-55391401D01*
X5582868Y-55411107D01*
X5595480Y-55432150D01*
X5605970Y-55454329D01*
X5614235Y-55477428D01*
X5620196Y-55501227D01*
X5623796Y-55525495D01*
X5625000Y-55549999D01*
X5625000Y-56450001D01*
X5623796Y-56474505D01*
X5620196Y-56498773D01*
X5614235Y-56522572D01*
X5605970Y-56545671D01*
X5595480Y-56567850D01*
X5582868Y-56588893D01*
X5568253Y-56608599D01*
X5551777Y-56626777D01*
X5533599Y-56643253D01*
X5513893Y-56657868D01*
X5492850Y-56670480D01*
X5470671Y-56680970D01*
X5447572Y-56689235D01*
X5423773Y-56695196D01*
X5399505Y-56698796D01*
X5375001Y-56700000D01*
X4724999Y-56700000D01*
X4700495Y-56698796D01*
X4676227Y-56695196D01*
X4652428Y-56689235D01*
X4629329Y-56680970D01*
X4607150Y-56670480D01*
X4586107Y-56657868D01*
X4566401Y-56643253D01*
X4548223Y-56626777D01*
X4531747Y-56608599D01*
X4517132Y-56588893D01*
X4504520Y-56567850D01*
X4494030Y-56545671D01*
X4485765Y-56522572D01*
X4479804Y-56498773D01*
X4476204Y-56474505D01*
X4475000Y-56450001D01*
X4475000Y-55549999D01*
X4476204Y-55525495D01*
X4479804Y-55501227D01*
X4485765Y-55477428D01*
X4494030Y-55454329D01*
X4504520Y-55432150D01*
X4517132Y-55411107D01*
X4531747Y-55391401D01*
X4548223Y-55373223D01*
X4566401Y-55356747D01*
X4586107Y-55342132D01*
X4607150Y-55329520D01*
X4629329Y-55319030D01*
X4652428Y-55310765D01*
X4676227Y-55304804D01*
X4700495Y-55301204D01*
X4724999Y-55300000D01*
X5375001Y-55300000D01*
X5399505Y-55301204D01*
X5399505Y-55301204D01*
G37*
D19*
G04 #@! TD*
G04 #@! TO.P,R4,2*
G04 #@! TO.N,Net-(J_IN1-Pad1)*
X5050000Y-56000000D03*
D18*
G04 #@! TO.N,/audio.out.cb*
G04 #@! TO.C,R5*
G36*
X5374505Y-58801204D02*
X5398773Y-58804804D01*
X5422572Y-58810765D01*
X5445671Y-58819030D01*
X5467850Y-58829520D01*
X5488893Y-58842132D01*
X5508599Y-58856747D01*
X5526777Y-58873223D01*
X5543253Y-58891401D01*
X5557868Y-58911107D01*
X5570480Y-58932150D01*
X5580970Y-58954329D01*
X5589235Y-58977428D01*
X5595196Y-59001227D01*
X5598796Y-59025495D01*
X5600000Y-59049999D01*
X5600000Y-59950001D01*
X5598796Y-59974505D01*
X5595196Y-59998773D01*
X5589235Y-60022572D01*
X5580970Y-60045671D01*
X5570480Y-60067850D01*
X5557868Y-60088893D01*
X5543253Y-60108599D01*
X5526777Y-60126777D01*
X5508599Y-60143253D01*
X5488893Y-60157868D01*
X5467850Y-60170480D01*
X5445671Y-60180970D01*
X5422572Y-60189235D01*
X5398773Y-60195196D01*
X5374505Y-60198796D01*
X5350001Y-60200000D01*
X4699999Y-60200000D01*
X4675495Y-60198796D01*
X4651227Y-60195196D01*
X4627428Y-60189235D01*
X4604329Y-60180970D01*
X4582150Y-60170480D01*
X4561107Y-60157868D01*
X4541401Y-60143253D01*
X4523223Y-60126777D01*
X4506747Y-60108599D01*
X4492132Y-60088893D01*
X4479520Y-60067850D01*
X4469030Y-60045671D01*
X4460765Y-60022572D01*
X4454804Y-59998773D01*
X4451204Y-59974505D01*
X4450000Y-59950001D01*
X4450000Y-59049999D01*
X4451204Y-59025495D01*
X4454804Y-59001227D01*
X4460765Y-58977428D01*
X4469030Y-58954329D01*
X4479520Y-58932150D01*
X4492132Y-58911107D01*
X4506747Y-58891401D01*
X4523223Y-58873223D01*
X4541401Y-58856747D01*
X4561107Y-58842132D01*
X4582150Y-58829520D01*
X4604329Y-58819030D01*
X4627428Y-58810765D01*
X4651227Y-58804804D01*
X4675495Y-58801204D01*
X4699999Y-58800000D01*
X5350001Y-58800000D01*
X5374505Y-58801204D01*
X5374505Y-58801204D01*
G37*
D19*
G04 #@! TD*
G04 #@! TO.P,R5,2*
G04 #@! TO.N,/audio.out.cb*
X5025000Y-59500000D03*
D18*
G04 #@! TO.N,Net-(J_OUT1-Pad1)*
G04 #@! TO.C,R5*
G36*
X3324505Y-58801204D02*
X3348773Y-58804804D01*
X3372572Y-58810765D01*
X3395671Y-58819030D01*
X3417850Y-58829520D01*
X3438893Y-58842132D01*
X3458599Y-58856747D01*
X3476777Y-58873223D01*
X3493253Y-58891401D01*
X3507868Y-58911107D01*
X3520480Y-58932150D01*
X3530970Y-58954329D01*
X3539235Y-58977428D01*
X3545196Y-59001227D01*
X3548796Y-59025495D01*
X3550000Y-59049999D01*
X3550000Y-59950001D01*
X3548796Y-59974505D01*
X3545196Y-59998773D01*
X3539235Y-60022572D01*
X3530970Y-60045671D01*
X3520480Y-60067850D01*
X3507868Y-60088893D01*
X3493253Y-60108599D01*
X3476777Y-60126777D01*
X3458599Y-60143253D01*
X3438893Y-60157868D01*
X3417850Y-60170480D01*
X3395671Y-60180970D01*
X3372572Y-60189235D01*
X3348773Y-60195196D01*
X3324505Y-60198796D01*
X3300001Y-60200000D01*
X2649999Y-60200000D01*
X2625495Y-60198796D01*
X2601227Y-60195196D01*
X2577428Y-60189235D01*
X2554329Y-60180970D01*
X2532150Y-60170480D01*
X2511107Y-60157868D01*
X2491401Y-60143253D01*
X2473223Y-60126777D01*
X2456747Y-60108599D01*
X2442132Y-60088893D01*
X2429520Y-60067850D01*
X2419030Y-60045671D01*
X2410765Y-60022572D01*
X2404804Y-59998773D01*
X2401204Y-59974505D01*
X2400000Y-59950001D01*
X2400000Y-59049999D01*
X2401204Y-59025495D01*
X2404804Y-59001227D01*
X2410765Y-58977428D01*
X2419030Y-58954329D01*
X2429520Y-58932150D01*
X2442132Y-58911107D01*
X2456747Y-58891401D01*
X2473223Y-58873223D01*
X2491401Y-58856747D01*
X2511107Y-58842132D01*
X2532150Y-58829520D01*
X2554329Y-58819030D01*
X2577428Y-58810765D01*
X2601227Y-58804804D01*
X2625495Y-58801204D01*
X2649999Y-58800000D01*
X3300001Y-58800000D01*
X3324505Y-58801204D01*
X3324505Y-58801204D01*
G37*
D19*
G04 #@! TD*
G04 #@! TO.P,R5,1*
G04 #@! TO.N,Net-(J_OUT1-Pad1)*
X2975000Y-59500000D03*
D16*
G04 #@! TO.P,J2,1*
G04 #@! TO.N,/R.gain.1.cb*
X36000000Y-1500000D03*
D17*
G04 #@! TO.P,J2,2*
G04 #@! TO.N,/R.gain.3.cb*
X36000000Y-4040000D03*
G04 #@! TO.P,J2,3*
G04 #@! TO.N,/fb.cv.in.cb*
X36000000Y-6580000D03*
G04 #@! TO.P,J2,4*
G04 #@! TO.N,/fb.cv.level.cb*
X36000000Y-9120000D03*
G04 #@! TO.P,J2,5*
G04 #@! TO.N,/fb.level.cb*
X36000000Y-11660000D03*
G04 #@! TO.P,J2,6*
G04 #@! TO.N,/drv.cv.in.cb*
X36000000Y-14200000D03*
G04 #@! TO.P,J2,7*
G04 #@! TO.N,/drv.cv.level.cb*
X36000000Y-16740000D03*
G04 #@! TO.P,J2,8*
G04 #@! TO.N,/drv.level.cb*
X36000000Y-19280000D03*
G04 #@! TO.P,J2,9*
G04 #@! TO.N,/tone.level.cb*
X36000000Y-21820000D03*
G04 #@! TO.P,J2,10*
G04 #@! TO.N,/tube.gnd.cb*
X36000000Y-24360000D03*
G04 #@! TD*
D20*
G04 #@! TO.N,Net-(J_OUT1-Pad1)*
X3982000Y-60507000D03*
G04 #@! TO.N,/led.fb.out.cb*
X17273200Y-37036800D03*
G04 #@! TO.N,/led.fb.in.cb*
X15852800Y-36642800D03*
G04 #@! TO.N,/gnd.cb*
X31000000Y-64000000D03*
X19000000Y-28000000D03*
X12000000Y-52000000D03*
X21000000Y-53500000D03*
G04 #@! TD*
D21*
G04 #@! TO.N,Net-(J_IN1-Pad1)*
X5050000Y-56000000D02*
X5938900Y-56888900D01*
X5938900Y-56888900D02*
X5938900Y-74232900D01*
X5938900Y-74232900D02*
X2664500Y-77507300D01*
X2664500Y-77507300D02*
X2664500Y-105163200D01*
X2664500Y-105163200D02*
X4500000Y-106998700D01*
G04 #@! TO.N,Net-(J_OUT1-Pad1)*
X2975000Y-59500000D02*
X3982000Y-60507000D01*
G04 #@! TO.N,/led.fb.out.cb*
X2000000Y-24360000D02*
X3798700Y-24360000D01*
X3798700Y-24360000D02*
X14450100Y-35011400D01*
X14450100Y-35011400D02*
X14450100Y-36290000D01*
X14450100Y-36290000D02*
X15528300Y-37368200D01*
X15528300Y-37368200D02*
X16941800Y-37368200D01*
X16941800Y-37368200D02*
X17273200Y-37036800D01*
G04 #@! TO.N,/led.fb.in.cb*
X15852800Y-36642800D02*
X15852800Y-35777200D01*
X15852800Y-35777200D02*
X3070900Y-22995300D01*
X3070900Y-22995300D02*
X2000000Y-22995300D01*
X2000000Y-21820000D02*
X2000000Y-22995300D01*
G04 #@! TO.N,/gnd.cb*
X7000000Y-41497700D02*
X10168400Y-38329300D01*
X10168400Y-38329300D02*
X17710700Y-38329300D01*
X17710700Y-38329300D02*
X19000000Y-37040000D01*
X16500600Y-60497700D02*
X16500600Y-61647200D01*
X16500600Y-61647200D02*
X15499400Y-62648400D01*
X15499400Y-62648400D02*
X15499400Y-80852800D01*
X27499400Y-94731700D02*
X24518400Y-94731700D01*
X24518400Y-94731700D02*
X23750000Y-95500100D01*
X33500000Y-95500100D02*
X32731600Y-94731700D01*
X32731600Y-94731700D02*
X27499400Y-94731700D01*
X27499400Y-94731700D02*
X27499400Y-82002300D01*
X15499400Y-82002300D02*
X15499400Y-80852800D01*
G04 #@! TO.N,/audio.out.cb*
X2000000Y-14200000D02*
X2000000Y-15375300D01*
X5025000Y-59500000D02*
X4898900Y-59500000D01*
X4898900Y-59500000D02*
X776700Y-55377800D01*
X776700Y-55377800D02*
X776700Y-16233300D01*
X776700Y-16233300D02*
X1634700Y-15375300D01*
X1634700Y-15375300D02*
X2000000Y-15375300D01*
G04 #@! TO.N,/R.gain.1.cb*
X36000000Y-1500000D02*
X36000000Y-2675300D01*
X36000000Y-2675300D02*
X36367300Y-2675300D01*
X36367300Y-2675300D02*
X37664600Y-3972600D01*
X37664600Y-3972600D02*
X37664600Y-66408200D01*
X37664600Y-66408200D02*
X28500600Y-75572200D01*
X28500600Y-75572200D02*
X28500600Y-79497700D01*
G04 #@! TO.N,/fb.cv.in.cb*
X36000000Y-7755300D02*
X35632600Y-7755300D01*
X35632600Y-7755300D02*
X34824700Y-8563200D01*
X34824700Y-8563200D02*
X34824700Y-15616100D01*
X34824700Y-15616100D02*
X22526700Y-27914100D01*
X22526700Y-27914100D02*
X22526700Y-34979500D01*
X22526700Y-34979500D02*
X10931500Y-46574700D01*
X10931500Y-46574700D02*
X5160400Y-46574700D01*
X5160400Y-46574700D02*
X2975000Y-48760100D01*
X2975000Y-48760100D02*
X2975000Y-49000000D01*
X36000000Y-6580000D02*
X36000000Y-7755300D01*
G04 #@! TO.N,/fb.cv.level.cb*
X36000000Y-9120000D02*
X36000000Y-10295300D01*
X36000000Y-10295300D02*
X36367300Y-10295300D01*
X36367300Y-10295300D02*
X37202100Y-11130100D01*
X37202100Y-11130100D02*
X37202100Y-19740700D01*
X37202100Y-19740700D02*
X36392800Y-20550000D01*
X36392800Y-20550000D02*
X35590200Y-20550000D01*
X35590200Y-20550000D02*
X32349800Y-23790400D01*
X32349800Y-23790400D02*
X32349800Y-51640100D01*
X32349800Y-51640100D02*
X24714500Y-59275400D01*
X24714500Y-59275400D02*
X24714500Y-81716800D01*
X24714500Y-81716800D02*
X25000000Y-82002300D01*
G04 #@! TO.N,/drv.cv.in.cb*
X36000000Y-14200000D02*
X36000000Y-15375300D01*
X2975000Y-52500000D02*
X4000000Y-51475000D01*
X4000000Y-51475000D02*
X4000000Y-48372100D01*
X4000000Y-48372100D02*
X4398500Y-47973600D01*
X4398500Y-47973600D02*
X10175400Y-47973600D01*
X10175400Y-47973600D02*
X28718800Y-29430200D01*
X28718800Y-29430200D02*
X28718800Y-22358900D01*
X28718800Y-22358900D02*
X35702400Y-15375300D01*
X35702400Y-15375300D02*
X36000000Y-15375300D01*
G04 #@! TO.N,/drv.cv.level.cb*
X36000000Y-16740000D02*
X36000000Y-17915300D01*
X36000000Y-17915300D02*
X35632700Y-17915300D01*
X35632700Y-17915300D02*
X30754300Y-22793700D01*
X30754300Y-22793700D02*
X30754300Y-34160200D01*
X30754300Y-34160200D02*
X17485800Y-47428700D01*
X17485800Y-47428700D02*
X17485800Y-56020900D01*
X17485800Y-56020900D02*
X14294200Y-59212500D01*
X14294200Y-59212500D02*
X14294200Y-80708100D01*
X14294200Y-80708100D02*
X13000000Y-82002300D01*
G04 #@! TO.N,/drv.level.cb*
X19000000Y-60497700D02*
X19000000Y-48806200D01*
X19000000Y-48806200D02*
X31655000Y-36151200D01*
X31655000Y-36151200D02*
X31655000Y-23625000D01*
X31655000Y-23625000D02*
X36000000Y-19280000D01*
G04 #@! TO.N,Net-(J_IN_DRV1-Pad1)*
X5025000Y-52500000D02*
X6852100Y-54327100D01*
X6852100Y-54327100D02*
X6852100Y-75207400D01*
X6852100Y-75207400D02*
X10659000Y-79014300D01*
X10659000Y-79014300D02*
X10659000Y-81843900D01*
X10659000Y-81843900D02*
X10500600Y-82002300D01*
X10500600Y-82002300D02*
X10500600Y-103249300D01*
X10500600Y-103249300D02*
X14250000Y-106998700D01*
G04 #@! TO.N,Net-(J_IN_FB1-Pad1)*
X21315900Y-83187000D02*
X22262500Y-84133600D01*
X22262500Y-84133600D02*
X22262500Y-100563000D01*
X22262500Y-100563000D02*
X21893700Y-100931800D01*
X21893700Y-100931800D02*
X21893700Y-105142400D01*
X21893700Y-105142400D02*
X23750000Y-106998700D01*
X21315900Y-83187000D02*
X22500600Y-82002300D01*
X5025000Y-49000000D02*
X8977700Y-52952700D01*
X8977700Y-52952700D02*
X8977700Y-75073000D01*
X8977700Y-75073000D02*
X11750300Y-77845600D01*
X11750300Y-77845600D02*
X11750300Y-82436300D01*
X11750300Y-82436300D02*
X12501000Y-83187000D01*
X12501000Y-83187000D02*
X21315900Y-83187000D01*
G04 #@! TO.N,Net-(R4-Pad1)*
X3000000Y-56000000D02*
X4034700Y-54965300D01*
X4034700Y-54965300D02*
X5610900Y-54965300D01*
X5610900Y-54965300D02*
X6401700Y-55756100D01*
X6401700Y-55756100D02*
X6401700Y-76400000D01*
X6401700Y-76400000D02*
X9499400Y-79497700D01*
G04 #@! TO.N,/-12V.cb*
X19000000Y-31960000D02*
X4372000Y-17332000D01*
X4372000Y-17332000D02*
X4372000Y-9815400D01*
X4372000Y-9815400D02*
X2311900Y-7755300D01*
X2311900Y-7755300D02*
X2000000Y-7755300D01*
X2000000Y-6580000D02*
X2000000Y-7755300D01*
G04 #@! TD*
D22*
G04 #@! TO.N,/gnd.cb*
G36*
X5641701Y-76325148D02*
X5626812Y-76400000D01*
X5641701Y-76474852D01*
X5685797Y-76696537D01*
X5853772Y-76947929D01*
X5917228Y-76990329D01*
X6965368Y-78038470D01*
X6709741Y-78038470D01*
X6173413Y-78260625D01*
X5938491Y-78495547D01*
X5863197Y-78313771D01*
X5684568Y-78135143D01*
X5451179Y-78038470D01*
X4786390Y-78038470D01*
X4627640Y-78197220D01*
X4627640Y-79370700D01*
X4647640Y-79370700D01*
X4647640Y-79624700D01*
X4627640Y-79624700D01*
X4627640Y-80798180D01*
X4786390Y-80956930D01*
X5451179Y-80956930D01*
X5684568Y-80860257D01*
X5863197Y-80681629D01*
X5938491Y-80499853D01*
X6173413Y-80734775D01*
X6709741Y-80956930D01*
X7290259Y-80956930D01*
X7826587Y-80734775D01*
X8237075Y-80324287D01*
X8249680Y-80293856D01*
X8262285Y-80324287D01*
X8672773Y-80734775D01*
X9209101Y-80956930D01*
X9482348Y-80956930D01*
X9263565Y-81175713D01*
X9041410Y-81712041D01*
X9041410Y-82292559D01*
X9263565Y-82828887D01*
X9674053Y-83239375D01*
X9740600Y-83266940D01*
X9740600Y-87365259D01*
X9652695Y-87277354D01*
X8905850Y-86968000D01*
X8097470Y-86968000D01*
X7350625Y-87277354D01*
X6779014Y-87848965D01*
X6469660Y-88595810D01*
X6469660Y-89404190D01*
X6779014Y-90151035D01*
X7350625Y-90722646D01*
X8097470Y-91032000D01*
X8905850Y-91032000D01*
X9652695Y-90722646D01*
X9740600Y-90634741D01*
X9740601Y-103174448D01*
X9725712Y-103249300D01*
X9740601Y-103324152D01*
X9784697Y-103545837D01*
X9952672Y-103797229D01*
X10016128Y-103839629D01*
X12818357Y-106641860D01*
X12790770Y-106708461D01*
X12790770Y-107265000D01*
X5959230Y-107265000D01*
X5959230Y-106708461D01*
X5737075Y-106172133D01*
X5326587Y-105761645D01*
X4790259Y-105539490D01*
X4209741Y-105539490D01*
X4143167Y-105567066D01*
X3424500Y-104848399D01*
X3424500Y-103865421D01*
X4075322Y-104135000D01*
X4924678Y-104135000D01*
X5709380Y-103809966D01*
X6309966Y-103209380D01*
X6635000Y-102424678D01*
X6635000Y-101575322D01*
X6309966Y-100790620D01*
X5709380Y-100190034D01*
X4974135Y-99885486D01*
X5326587Y-99739495D01*
X5737075Y-99329007D01*
X5959230Y-98792679D01*
X5959230Y-98212161D01*
X5737075Y-97675833D01*
X5326587Y-97265345D01*
X4790259Y-97043190D01*
X4209741Y-97043190D01*
X3673413Y-97265345D01*
X3424500Y-97514258D01*
X3424500Y-96525435D01*
X3654310Y-96525435D01*
X3731419Y-96774066D01*
X4277435Y-96971217D01*
X4857334Y-96944410D01*
X5268581Y-96774066D01*
X5345690Y-96525435D01*
X4500000Y-95679745D01*
X3654310Y-96525435D01*
X3424500Y-96525435D01*
X3424500Y-96330260D01*
X3474705Y-96345830D01*
X4320395Y-95500140D01*
X4679605Y-95500140D01*
X5525295Y-96345830D01*
X5773926Y-96268721D01*
X5971077Y-95722705D01*
X5944270Y-95142806D01*
X5773926Y-94731559D01*
X5525295Y-94654450D01*
X4679605Y-95500140D01*
X4320395Y-95500140D01*
X3474705Y-94654450D01*
X3424500Y-94670020D01*
X3424500Y-94474845D01*
X3654310Y-94474845D01*
X4500000Y-95320535D01*
X5345690Y-94474845D01*
X5268581Y-94226214D01*
X4722565Y-94029063D01*
X4142666Y-94055870D01*
X3731419Y-94226214D01*
X3654310Y-94474845D01*
X3424500Y-94474845D01*
X3424500Y-80904904D01*
X3550101Y-80956930D01*
X4214890Y-80956930D01*
X4373640Y-80798180D01*
X4373640Y-79624700D01*
X4353640Y-79624700D01*
X4353640Y-79370700D01*
X4373640Y-79370700D01*
X4373640Y-78197220D01*
X4214890Y-78038470D01*
X3550101Y-78038470D01*
X3424500Y-78090496D01*
X3424500Y-77822101D01*
X5641701Y-75604901D01*
X5641701Y-76325148D01*
X5641701Y-76325148D01*
G37*
X5641701Y-76325148D02*
X5626812Y-76400000D01*
X5641701Y-76474852D01*
X5685797Y-76696537D01*
X5853772Y-76947929D01*
X5917228Y-76990329D01*
X6965368Y-78038470D01*
X6709741Y-78038470D01*
X6173413Y-78260625D01*
X5938491Y-78495547D01*
X5863197Y-78313771D01*
X5684568Y-78135143D01*
X5451179Y-78038470D01*
X4786390Y-78038470D01*
X4627640Y-78197220D01*
X4627640Y-79370700D01*
X4647640Y-79370700D01*
X4647640Y-79624700D01*
X4627640Y-79624700D01*
X4627640Y-80798180D01*
X4786390Y-80956930D01*
X5451179Y-80956930D01*
X5684568Y-80860257D01*
X5863197Y-80681629D01*
X5938491Y-80499853D01*
X6173413Y-80734775D01*
X6709741Y-80956930D01*
X7290259Y-80956930D01*
X7826587Y-80734775D01*
X8237075Y-80324287D01*
X8249680Y-80293856D01*
X8262285Y-80324287D01*
X8672773Y-80734775D01*
X9209101Y-80956930D01*
X9482348Y-80956930D01*
X9263565Y-81175713D01*
X9041410Y-81712041D01*
X9041410Y-82292559D01*
X9263565Y-82828887D01*
X9674053Y-83239375D01*
X9740600Y-83266940D01*
X9740600Y-87365259D01*
X9652695Y-87277354D01*
X8905850Y-86968000D01*
X8097470Y-86968000D01*
X7350625Y-87277354D01*
X6779014Y-87848965D01*
X6469660Y-88595810D01*
X6469660Y-89404190D01*
X6779014Y-90151035D01*
X7350625Y-90722646D01*
X8097470Y-91032000D01*
X8905850Y-91032000D01*
X9652695Y-90722646D01*
X9740600Y-90634741D01*
X9740601Y-103174448D01*
X9725712Y-103249300D01*
X9740601Y-103324152D01*
X9784697Y-103545837D01*
X9952672Y-103797229D01*
X10016128Y-103839629D01*
X12818357Y-106641860D01*
X12790770Y-106708461D01*
X12790770Y-107265000D01*
X5959230Y-107265000D01*
X5959230Y-106708461D01*
X5737075Y-106172133D01*
X5326587Y-105761645D01*
X4790259Y-105539490D01*
X4209741Y-105539490D01*
X4143167Y-105567066D01*
X3424500Y-104848399D01*
X3424500Y-103865421D01*
X4075322Y-104135000D01*
X4924678Y-104135000D01*
X5709380Y-103809966D01*
X6309966Y-103209380D01*
X6635000Y-102424678D01*
X6635000Y-101575322D01*
X6309966Y-100790620D01*
X5709380Y-100190034D01*
X4974135Y-99885486D01*
X5326587Y-99739495D01*
X5737075Y-99329007D01*
X5959230Y-98792679D01*
X5959230Y-98212161D01*
X5737075Y-97675833D01*
X5326587Y-97265345D01*
X4790259Y-97043190D01*
X4209741Y-97043190D01*
X3673413Y-97265345D01*
X3424500Y-97514258D01*
X3424500Y-96525435D01*
X3654310Y-96525435D01*
X3731419Y-96774066D01*
X4277435Y-96971217D01*
X4857334Y-96944410D01*
X5268581Y-96774066D01*
X5345690Y-96525435D01*
X4500000Y-95679745D01*
X3654310Y-96525435D01*
X3424500Y-96525435D01*
X3424500Y-96330260D01*
X3474705Y-96345830D01*
X4320395Y-95500140D01*
X4679605Y-95500140D01*
X5525295Y-96345830D01*
X5773926Y-96268721D01*
X5971077Y-95722705D01*
X5944270Y-95142806D01*
X5773926Y-94731559D01*
X5525295Y-94654450D01*
X4679605Y-95500140D01*
X4320395Y-95500140D01*
X3474705Y-94654450D01*
X3424500Y-94670020D01*
X3424500Y-94474845D01*
X3654310Y-94474845D01*
X4500000Y-95320535D01*
X5345690Y-94474845D01*
X5268581Y-94226214D01*
X4722565Y-94029063D01*
X4142666Y-94055870D01*
X3731419Y-94226214D01*
X3654310Y-94474845D01*
X3424500Y-94474845D01*
X3424500Y-80904904D01*
X3550101Y-80956930D01*
X4214890Y-80956930D01*
X4373640Y-80798180D01*
X4373640Y-79624700D01*
X4353640Y-79624700D01*
X4353640Y-79370700D01*
X4373640Y-79370700D01*
X4373640Y-78197220D01*
X4214890Y-78038470D01*
X3550101Y-78038470D01*
X3424500Y-78090496D01*
X3424500Y-77822101D01*
X5641701Y-75604901D01*
X5641701Y-76325148D01*
G36*
X33466340Y-72095810D02*
X33466340Y-72904190D01*
X33775694Y-73651035D01*
X34347305Y-74222646D01*
X35094150Y-74532000D01*
X35902530Y-74532000D01*
X36649375Y-74222646D01*
X37220986Y-73651035D01*
X37265001Y-73544774D01*
X37265001Y-107265000D01*
X34959230Y-107265000D01*
X34959230Y-106708461D01*
X34737075Y-106172133D01*
X34326587Y-105761645D01*
X33790259Y-105539490D01*
X33209741Y-105539490D01*
X32673413Y-105761645D01*
X32262925Y-106172133D01*
X32040770Y-106708461D01*
X32040770Y-107265000D01*
X25209230Y-107265000D01*
X25209230Y-106708461D01*
X24987075Y-106172133D01*
X24576587Y-105761645D01*
X24040259Y-105539490D01*
X23459741Y-105539490D01*
X23393167Y-105567066D01*
X22653700Y-104827599D01*
X22653700Y-103856805D01*
X23325322Y-104135000D01*
X24174678Y-104135000D01*
X24959380Y-103809966D01*
X25559966Y-103209380D01*
X25885000Y-102424678D01*
X25885000Y-101575322D01*
X31365000Y-101575322D01*
X31365000Y-102424678D01*
X31690034Y-103209380D01*
X32290620Y-103809966D01*
X33075322Y-104135000D01*
X33924678Y-104135000D01*
X34709380Y-103809966D01*
X35309966Y-103209380D01*
X35635000Y-102424678D01*
X35635000Y-101575322D01*
X35309966Y-100790620D01*
X34709380Y-100190034D01*
X33974135Y-99885486D01*
X34326587Y-99739495D01*
X34737075Y-99329007D01*
X34959230Y-98792679D01*
X34959230Y-98212161D01*
X34737075Y-97675833D01*
X34326587Y-97265345D01*
X33790259Y-97043190D01*
X33209741Y-97043190D01*
X32673413Y-97265345D01*
X32262925Y-97675833D01*
X32040770Y-98212161D01*
X32040770Y-98792679D01*
X32262925Y-99329007D01*
X32673413Y-99739495D01*
X33025865Y-99885486D01*
X32290620Y-100190034D01*
X31690034Y-100790620D01*
X31365000Y-101575322D01*
X25885000Y-101575322D01*
X25559966Y-100790620D01*
X24959380Y-100190034D01*
X24224135Y-99885486D01*
X24576587Y-99739495D01*
X24987075Y-99329007D01*
X25209230Y-98792679D01*
X25209230Y-98212161D01*
X24987075Y-97675833D01*
X24576587Y-97265345D01*
X24040259Y-97043190D01*
X23459741Y-97043190D01*
X23022500Y-97224302D01*
X23022500Y-96788899D01*
X23527435Y-96971217D01*
X24107334Y-96944410D01*
X24518581Y-96774066D01*
X24595690Y-96525435D01*
X32654310Y-96525435D01*
X32731419Y-96774066D01*
X33277435Y-96971217D01*
X33857334Y-96944410D01*
X34268581Y-96774066D01*
X34345690Y-96525435D01*
X33500000Y-95679745D01*
X32654310Y-96525435D01*
X24595690Y-96525435D01*
X23750000Y-95679745D01*
X23735858Y-95693888D01*
X23556253Y-95514283D01*
X23570395Y-95500140D01*
X23929605Y-95500140D01*
X24775295Y-96345830D01*
X25023926Y-96268721D01*
X25221077Y-95722705D01*
X25200500Y-95277575D01*
X32028923Y-95277575D01*
X32055730Y-95857474D01*
X32226074Y-96268721D01*
X32474705Y-96345830D01*
X33320395Y-95500140D01*
X33679605Y-95500140D01*
X34525295Y-96345830D01*
X34773926Y-96268721D01*
X34971077Y-95722705D01*
X34944270Y-95142806D01*
X34773926Y-94731559D01*
X34525295Y-94654450D01*
X33679605Y-95500140D01*
X33320395Y-95500140D01*
X32474705Y-94654450D01*
X32226074Y-94731559D01*
X32028923Y-95277575D01*
X25200500Y-95277575D01*
X25194270Y-95142806D01*
X25023926Y-94731559D01*
X24775295Y-94654450D01*
X23929605Y-95500140D01*
X23570395Y-95500140D01*
X23556253Y-95485998D01*
X23735858Y-95306393D01*
X23750000Y-95320535D01*
X24595690Y-94474845D01*
X32654310Y-94474845D01*
X33500000Y-95320535D01*
X34345690Y-94474845D01*
X34268581Y-94226214D01*
X33722565Y-94029063D01*
X33142666Y-94055870D01*
X32731419Y-94226214D01*
X32654310Y-94474845D01*
X24595690Y-94474845D01*
X24518581Y-94226214D01*
X23972565Y-94029063D01*
X23392666Y-94055870D01*
X23022500Y-94209198D01*
X23022500Y-88595810D01*
X27466340Y-88595810D01*
X27466340Y-89404190D01*
X27775694Y-90151035D01*
X28347305Y-90722646D01*
X29094150Y-91032000D01*
X29902530Y-91032000D01*
X30649375Y-90722646D01*
X31220986Y-90151035D01*
X31373145Y-89783693D01*
X31408690Y-89869507D01*
X31840493Y-90301310D01*
X32404670Y-90535000D01*
X33015330Y-90535000D01*
X33579507Y-90301310D01*
X33748725Y-90132092D01*
X33751843Y-90147765D01*
X33892191Y-90357809D01*
X34102235Y-90498157D01*
X34350000Y-90547440D01*
X36150000Y-90547440D01*
X36397765Y-90498157D01*
X36607809Y-90357809D01*
X36748157Y-90147765D01*
X36797440Y-89900000D01*
X36797440Y-88100000D01*
X36748157Y-87852235D01*
X36607809Y-87642191D01*
X36397765Y-87501843D01*
X36150000Y-87452560D01*
X34350000Y-87452560D01*
X34102235Y-87501843D01*
X33892191Y-87642191D01*
X33751843Y-87852235D01*
X33748725Y-87867908D01*
X33579507Y-87698690D01*
X33015330Y-87465000D01*
X32404670Y-87465000D01*
X31840493Y-87698690D01*
X31408690Y-88130493D01*
X31373145Y-88216307D01*
X31220986Y-87848965D01*
X30649375Y-87277354D01*
X29902530Y-86968000D01*
X29094150Y-86968000D01*
X28347305Y-87277354D01*
X27775694Y-87848965D01*
X27466340Y-88595810D01*
X23022500Y-88595810D01*
X23022500Y-84208448D01*
X23037388Y-84133600D01*
X23022500Y-84058752D01*
X23022500Y-84058748D01*
X22978404Y-83837063D01*
X22810429Y-83585671D01*
X22746973Y-83543271D01*
X22665232Y-83461530D01*
X22790899Y-83461530D01*
X23327227Y-83239375D01*
X23737715Y-82828887D01*
X23750320Y-82798456D01*
X23762925Y-82828887D01*
X24173413Y-83239375D01*
X24709741Y-83461530D01*
X25290259Y-83461530D01*
X25826587Y-83239375D01*
X26061509Y-83004453D01*
X26136803Y-83186229D01*
X26315432Y-83364857D01*
X26548821Y-83461530D01*
X27213610Y-83461530D01*
X27372360Y-83302780D01*
X27372360Y-82129300D01*
X27626360Y-82129300D01*
X27626360Y-83302780D01*
X27785110Y-83461530D01*
X28449899Y-83461530D01*
X28683288Y-83364857D01*
X28861917Y-83186229D01*
X28958590Y-82952840D01*
X28958590Y-82288050D01*
X28799840Y-82129300D01*
X27626360Y-82129300D01*
X27372360Y-82129300D01*
X27352360Y-82129300D01*
X27352360Y-81875300D01*
X27372360Y-81875300D01*
X27372360Y-81855300D01*
X27626360Y-81855300D01*
X27626360Y-81875300D01*
X28799840Y-81875300D01*
X28958590Y-81716550D01*
X28958590Y-81051760D01*
X28924463Y-80969370D01*
X29324870Y-80969370D01*
X29572635Y-80920087D01*
X29782679Y-80779739D01*
X29923027Y-80569695D01*
X29937180Y-80498542D01*
X30173413Y-80734775D01*
X30709741Y-80956930D01*
X31290259Y-80956930D01*
X31826587Y-80734775D01*
X32237075Y-80324287D01*
X32249680Y-80293856D01*
X32262285Y-80324287D01*
X32672773Y-80734775D01*
X33209101Y-80956930D01*
X33789619Y-80956930D01*
X34325947Y-80734775D01*
X34736435Y-80324287D01*
X34958590Y-79787959D01*
X34958590Y-79207441D01*
X34736435Y-78671113D01*
X34325947Y-78260625D01*
X33789619Y-78038470D01*
X33209101Y-78038470D01*
X32672773Y-78260625D01*
X32262285Y-78671113D01*
X32249680Y-78701544D01*
X32237075Y-78671113D01*
X31826587Y-78260625D01*
X31290259Y-78038470D01*
X30709741Y-78038470D01*
X30173413Y-78260625D01*
X29937180Y-78496858D01*
X29923027Y-78425705D01*
X29782679Y-78215661D01*
X29572635Y-78075313D01*
X29324870Y-78026030D01*
X29260600Y-78026030D01*
X29260600Y-75887001D01*
X33759471Y-71388130D01*
X33466340Y-72095810D01*
X33466340Y-72095810D01*
G37*
X33466340Y-72095810D02*
X33466340Y-72904190D01*
X33775694Y-73651035D01*
X34347305Y-74222646D01*
X35094150Y-74532000D01*
X35902530Y-74532000D01*
X36649375Y-74222646D01*
X37220986Y-73651035D01*
X37265001Y-73544774D01*
X37265001Y-107265000D01*
X34959230Y-107265000D01*
X34959230Y-106708461D01*
X34737075Y-106172133D01*
X34326587Y-105761645D01*
X33790259Y-105539490D01*
X33209741Y-105539490D01*
X32673413Y-105761645D01*
X32262925Y-106172133D01*
X32040770Y-106708461D01*
X32040770Y-107265000D01*
X25209230Y-107265000D01*
X25209230Y-106708461D01*
X24987075Y-106172133D01*
X24576587Y-105761645D01*
X24040259Y-105539490D01*
X23459741Y-105539490D01*
X23393167Y-105567066D01*
X22653700Y-104827599D01*
X22653700Y-103856805D01*
X23325322Y-104135000D01*
X24174678Y-104135000D01*
X24959380Y-103809966D01*
X25559966Y-103209380D01*
X25885000Y-102424678D01*
X25885000Y-101575322D01*
X31365000Y-101575322D01*
X31365000Y-102424678D01*
X31690034Y-103209380D01*
X32290620Y-103809966D01*
X33075322Y-104135000D01*
X33924678Y-104135000D01*
X34709380Y-103809966D01*
X35309966Y-103209380D01*
X35635000Y-102424678D01*
X35635000Y-101575322D01*
X35309966Y-100790620D01*
X34709380Y-100190034D01*
X33974135Y-99885486D01*
X34326587Y-99739495D01*
X34737075Y-99329007D01*
X34959230Y-98792679D01*
X34959230Y-98212161D01*
X34737075Y-97675833D01*
X34326587Y-97265345D01*
X33790259Y-97043190D01*
X33209741Y-97043190D01*
X32673413Y-97265345D01*
X32262925Y-97675833D01*
X32040770Y-98212161D01*
X32040770Y-98792679D01*
X32262925Y-99329007D01*
X32673413Y-99739495D01*
X33025865Y-99885486D01*
X32290620Y-100190034D01*
X31690034Y-100790620D01*
X31365000Y-101575322D01*
X25885000Y-101575322D01*
X25559966Y-100790620D01*
X24959380Y-100190034D01*
X24224135Y-99885486D01*
X24576587Y-99739495D01*
X24987075Y-99329007D01*
X25209230Y-98792679D01*
X25209230Y-98212161D01*
X24987075Y-97675833D01*
X24576587Y-97265345D01*
X24040259Y-97043190D01*
X23459741Y-97043190D01*
X23022500Y-97224302D01*
X23022500Y-96788899D01*
X23527435Y-96971217D01*
X24107334Y-96944410D01*
X24518581Y-96774066D01*
X24595690Y-96525435D01*
X32654310Y-96525435D01*
X32731419Y-96774066D01*
X33277435Y-96971217D01*
X33857334Y-96944410D01*
X34268581Y-96774066D01*
X34345690Y-96525435D01*
X33500000Y-95679745D01*
X32654310Y-96525435D01*
X24595690Y-96525435D01*
X23750000Y-95679745D01*
X23735858Y-95693888D01*
X23556253Y-95514283D01*
X23570395Y-95500140D01*
X23929605Y-95500140D01*
X24775295Y-96345830D01*
X25023926Y-96268721D01*
X25221077Y-95722705D01*
X25200500Y-95277575D01*
X32028923Y-95277575D01*
X32055730Y-95857474D01*
X32226074Y-96268721D01*
X32474705Y-96345830D01*
X33320395Y-95500140D01*
X33679605Y-95500140D01*
X34525295Y-96345830D01*
X34773926Y-96268721D01*
X34971077Y-95722705D01*
X34944270Y-95142806D01*
X34773926Y-94731559D01*
X34525295Y-94654450D01*
X33679605Y-95500140D01*
X33320395Y-95500140D01*
X32474705Y-94654450D01*
X32226074Y-94731559D01*
X32028923Y-95277575D01*
X25200500Y-95277575D01*
X25194270Y-95142806D01*
X25023926Y-94731559D01*
X24775295Y-94654450D01*
X23929605Y-95500140D01*
X23570395Y-95500140D01*
X23556253Y-95485998D01*
X23735858Y-95306393D01*
X23750000Y-95320535D01*
X24595690Y-94474845D01*
X32654310Y-94474845D01*
X33500000Y-95320535D01*
X34345690Y-94474845D01*
X34268581Y-94226214D01*
X33722565Y-94029063D01*
X33142666Y-94055870D01*
X32731419Y-94226214D01*
X32654310Y-94474845D01*
X24595690Y-94474845D01*
X24518581Y-94226214D01*
X23972565Y-94029063D01*
X23392666Y-94055870D01*
X23022500Y-94209198D01*
X23022500Y-88595810D01*
X27466340Y-88595810D01*
X27466340Y-89404190D01*
X27775694Y-90151035D01*
X28347305Y-90722646D01*
X29094150Y-91032000D01*
X29902530Y-91032000D01*
X30649375Y-90722646D01*
X31220986Y-90151035D01*
X31373145Y-89783693D01*
X31408690Y-89869507D01*
X31840493Y-90301310D01*
X32404670Y-90535000D01*
X33015330Y-90535000D01*
X33579507Y-90301310D01*
X33748725Y-90132092D01*
X33751843Y-90147765D01*
X33892191Y-90357809D01*
X34102235Y-90498157D01*
X34350000Y-90547440D01*
X36150000Y-90547440D01*
X36397765Y-90498157D01*
X36607809Y-90357809D01*
X36748157Y-90147765D01*
X36797440Y-89900000D01*
X36797440Y-88100000D01*
X36748157Y-87852235D01*
X36607809Y-87642191D01*
X36397765Y-87501843D01*
X36150000Y-87452560D01*
X34350000Y-87452560D01*
X34102235Y-87501843D01*
X33892191Y-87642191D01*
X33751843Y-87852235D01*
X33748725Y-87867908D01*
X33579507Y-87698690D01*
X33015330Y-87465000D01*
X32404670Y-87465000D01*
X31840493Y-87698690D01*
X31408690Y-88130493D01*
X31373145Y-88216307D01*
X31220986Y-87848965D01*
X30649375Y-87277354D01*
X29902530Y-86968000D01*
X29094150Y-86968000D01*
X28347305Y-87277354D01*
X27775694Y-87848965D01*
X27466340Y-88595810D01*
X23022500Y-88595810D01*
X23022500Y-84208448D01*
X23037388Y-84133600D01*
X23022500Y-84058752D01*
X23022500Y-84058748D01*
X22978404Y-83837063D01*
X22810429Y-83585671D01*
X22746973Y-83543271D01*
X22665232Y-83461530D01*
X22790899Y-83461530D01*
X23327227Y-83239375D01*
X23737715Y-82828887D01*
X23750320Y-82798456D01*
X23762925Y-82828887D01*
X24173413Y-83239375D01*
X24709741Y-83461530D01*
X25290259Y-83461530D01*
X25826587Y-83239375D01*
X26061509Y-83004453D01*
X26136803Y-83186229D01*
X26315432Y-83364857D01*
X26548821Y-83461530D01*
X27213610Y-83461530D01*
X27372360Y-83302780D01*
X27372360Y-82129300D01*
X27626360Y-82129300D01*
X27626360Y-83302780D01*
X27785110Y-83461530D01*
X28449899Y-83461530D01*
X28683288Y-83364857D01*
X28861917Y-83186229D01*
X28958590Y-82952840D01*
X28958590Y-82288050D01*
X28799840Y-82129300D01*
X27626360Y-82129300D01*
X27372360Y-82129300D01*
X27352360Y-82129300D01*
X27352360Y-81875300D01*
X27372360Y-81875300D01*
X27372360Y-81855300D01*
X27626360Y-81855300D01*
X27626360Y-81875300D01*
X28799840Y-81875300D01*
X28958590Y-81716550D01*
X28958590Y-81051760D01*
X28924463Y-80969370D01*
X29324870Y-80969370D01*
X29572635Y-80920087D01*
X29782679Y-80779739D01*
X29923027Y-80569695D01*
X29937180Y-80498542D01*
X30173413Y-80734775D01*
X30709741Y-80956930D01*
X31290259Y-80956930D01*
X31826587Y-80734775D01*
X32237075Y-80324287D01*
X32249680Y-80293856D01*
X32262285Y-80324287D01*
X32672773Y-80734775D01*
X33209101Y-80956930D01*
X33789619Y-80956930D01*
X34325947Y-80734775D01*
X34736435Y-80324287D01*
X34958590Y-79787959D01*
X34958590Y-79207441D01*
X34736435Y-78671113D01*
X34325947Y-78260625D01*
X33789619Y-78038470D01*
X33209101Y-78038470D01*
X32672773Y-78260625D01*
X32262285Y-78671113D01*
X32249680Y-78701544D01*
X32237075Y-78671113D01*
X31826587Y-78260625D01*
X31290259Y-78038470D01*
X30709741Y-78038470D01*
X30173413Y-78260625D01*
X29937180Y-78496858D01*
X29923027Y-78425705D01*
X29782679Y-78215661D01*
X29572635Y-78075313D01*
X29324870Y-78026030D01*
X29260600Y-78026030D01*
X29260600Y-75887001D01*
X33759471Y-71388130D01*
X33466340Y-72095810D01*
G36*
X11910670Y-83671472D02*
X11953071Y-83734929D01*
X12204463Y-83902904D01*
X12426148Y-83947000D01*
X12426152Y-83947000D01*
X12500999Y-83961888D01*
X12575846Y-83947000D01*
X21001099Y-83947000D01*
X21502500Y-84448402D01*
X21502500Y-87215141D01*
X20905850Y-86968000D01*
X20097470Y-86968000D01*
X19350625Y-87277354D01*
X19000000Y-87627979D01*
X18649375Y-87277354D01*
X17902530Y-86968000D01*
X17094150Y-86968000D01*
X16347305Y-87277354D01*
X15775694Y-87848965D01*
X15466340Y-88595810D01*
X15466340Y-89404190D01*
X15775694Y-90151035D01*
X16347305Y-90722646D01*
X17094150Y-91032000D01*
X17902530Y-91032000D01*
X18649375Y-90722646D01*
X19000000Y-90372021D01*
X19350625Y-90722646D01*
X20097470Y-91032000D01*
X20905850Y-91032000D01*
X21502500Y-90784859D01*
X21502501Y-100248198D01*
X21409230Y-100341469D01*
X21345771Y-100383871D01*
X21177796Y-100635264D01*
X21133700Y-100856949D01*
X21133700Y-100856953D01*
X21118812Y-100931800D01*
X21133700Y-101006647D01*
X21133701Y-105067548D01*
X21118812Y-105142400D01*
X21133701Y-105217252D01*
X21177797Y-105438937D01*
X21345772Y-105690329D01*
X21409228Y-105732729D01*
X22318358Y-106641859D01*
X22290770Y-106708461D01*
X22290770Y-107265000D01*
X15709230Y-107265000D01*
X15709230Y-106708461D01*
X15487075Y-106172133D01*
X15076587Y-105761645D01*
X14540259Y-105539490D01*
X13959741Y-105539490D01*
X13893168Y-105567066D01*
X11260600Y-102934499D01*
X11260600Y-101575322D01*
X12115000Y-101575322D01*
X12115000Y-102424678D01*
X12440034Y-103209380D01*
X13040620Y-103809966D01*
X13825322Y-104135000D01*
X14674678Y-104135000D01*
X15459380Y-103809966D01*
X16059966Y-103209380D01*
X16385000Y-102424678D01*
X16385000Y-101575322D01*
X16059966Y-100790620D01*
X15459380Y-100190034D01*
X14724135Y-99885486D01*
X15076587Y-99739495D01*
X15487075Y-99329007D01*
X15709230Y-98792679D01*
X15709230Y-98212161D01*
X15487075Y-97675833D01*
X15076587Y-97265345D01*
X14540259Y-97043190D01*
X13959741Y-97043190D01*
X13423413Y-97265345D01*
X13012925Y-97675833D01*
X12790770Y-98212161D01*
X12790770Y-98792679D01*
X13012925Y-99329007D01*
X13423413Y-99739495D01*
X13775865Y-99885486D01*
X13040620Y-100190034D01*
X12440034Y-100790620D01*
X12115000Y-101575322D01*
X11260600Y-101575322D01*
X11260600Y-96525435D01*
X13404310Y-96525435D01*
X13481419Y-96774066D01*
X14027435Y-96971217D01*
X14607334Y-96944410D01*
X15018581Y-96774066D01*
X15095690Y-96525435D01*
X14250000Y-95679745D01*
X13404310Y-96525435D01*
X11260600Y-96525435D01*
X11260600Y-95277575D01*
X12778923Y-95277575D01*
X12805730Y-95857474D01*
X12976074Y-96268721D01*
X13224705Y-96345830D01*
X14070395Y-95500140D01*
X14429605Y-95500140D01*
X15275295Y-96345830D01*
X15523926Y-96268721D01*
X15721077Y-95722705D01*
X15694270Y-95142806D01*
X15523926Y-94731559D01*
X15275295Y-94654450D01*
X14429605Y-95500140D01*
X14070395Y-95500140D01*
X13224705Y-94654450D01*
X12976074Y-94731559D01*
X12778923Y-95277575D01*
X11260600Y-95277575D01*
X11260600Y-94474845D01*
X13404310Y-94474845D01*
X14250000Y-95320535D01*
X15095690Y-94474845D01*
X15018581Y-94226214D01*
X14472565Y-94029063D01*
X13892666Y-94055870D01*
X13481419Y-94226214D01*
X13404310Y-94474845D01*
X11260600Y-94474845D01*
X11260600Y-83266973D01*
X11327227Y-83239375D01*
X11402900Y-83163702D01*
X11910670Y-83671472D01*
X11910670Y-83671472D01*
G37*
X11910670Y-83671472D02*
X11953071Y-83734929D01*
X12204463Y-83902904D01*
X12426148Y-83947000D01*
X12426152Y-83947000D01*
X12500999Y-83961888D01*
X12575846Y-83947000D01*
X21001099Y-83947000D01*
X21502500Y-84448402D01*
X21502500Y-87215141D01*
X20905850Y-86968000D01*
X20097470Y-86968000D01*
X19350625Y-87277354D01*
X19000000Y-87627979D01*
X18649375Y-87277354D01*
X17902530Y-86968000D01*
X17094150Y-86968000D01*
X16347305Y-87277354D01*
X15775694Y-87848965D01*
X15466340Y-88595810D01*
X15466340Y-89404190D01*
X15775694Y-90151035D01*
X16347305Y-90722646D01*
X17094150Y-91032000D01*
X17902530Y-91032000D01*
X18649375Y-90722646D01*
X19000000Y-90372021D01*
X19350625Y-90722646D01*
X20097470Y-91032000D01*
X20905850Y-91032000D01*
X21502500Y-90784859D01*
X21502501Y-100248198D01*
X21409230Y-100341469D01*
X21345771Y-100383871D01*
X21177796Y-100635264D01*
X21133700Y-100856949D01*
X21133700Y-100856953D01*
X21118812Y-100931800D01*
X21133700Y-101006647D01*
X21133701Y-105067548D01*
X21118812Y-105142400D01*
X21133701Y-105217252D01*
X21177797Y-105438937D01*
X21345772Y-105690329D01*
X21409228Y-105732729D01*
X22318358Y-106641859D01*
X22290770Y-106708461D01*
X22290770Y-107265000D01*
X15709230Y-107265000D01*
X15709230Y-106708461D01*
X15487075Y-106172133D01*
X15076587Y-105761645D01*
X14540259Y-105539490D01*
X13959741Y-105539490D01*
X13893168Y-105567066D01*
X11260600Y-102934499D01*
X11260600Y-101575322D01*
X12115000Y-101575322D01*
X12115000Y-102424678D01*
X12440034Y-103209380D01*
X13040620Y-103809966D01*
X13825322Y-104135000D01*
X14674678Y-104135000D01*
X15459380Y-103809966D01*
X16059966Y-103209380D01*
X16385000Y-102424678D01*
X16385000Y-101575322D01*
X16059966Y-100790620D01*
X15459380Y-100190034D01*
X14724135Y-99885486D01*
X15076587Y-99739495D01*
X15487075Y-99329007D01*
X15709230Y-98792679D01*
X15709230Y-98212161D01*
X15487075Y-97675833D01*
X15076587Y-97265345D01*
X14540259Y-97043190D01*
X13959741Y-97043190D01*
X13423413Y-97265345D01*
X13012925Y-97675833D01*
X12790770Y-98212161D01*
X12790770Y-98792679D01*
X13012925Y-99329007D01*
X13423413Y-99739495D01*
X13775865Y-99885486D01*
X13040620Y-100190034D01*
X12440034Y-100790620D01*
X12115000Y-101575322D01*
X11260600Y-101575322D01*
X11260600Y-96525435D01*
X13404310Y-96525435D01*
X13481419Y-96774066D01*
X14027435Y-96971217D01*
X14607334Y-96944410D01*
X15018581Y-96774066D01*
X15095690Y-96525435D01*
X14250000Y-95679745D01*
X13404310Y-96525435D01*
X11260600Y-96525435D01*
X11260600Y-95277575D01*
X12778923Y-95277575D01*
X12805730Y-95857474D01*
X12976074Y-96268721D01*
X13224705Y-96345830D01*
X14070395Y-95500140D01*
X14429605Y-95500140D01*
X15275295Y-96345830D01*
X15523926Y-96268721D01*
X15721077Y-95722705D01*
X15694270Y-95142806D01*
X15523926Y-94731559D01*
X15275295Y-94654450D01*
X14429605Y-95500140D01*
X14070395Y-95500140D01*
X13224705Y-94654450D01*
X12976074Y-94731559D01*
X12778923Y-95277575D01*
X11260600Y-95277575D01*
X11260600Y-94474845D01*
X13404310Y-94474845D01*
X14250000Y-95320535D01*
X15095690Y-94474845D01*
X15018581Y-94226214D01*
X14472565Y-94029063D01*
X13892666Y-94055870D01*
X13481419Y-94226214D01*
X13404310Y-94474845D01*
X11260600Y-94474845D01*
X11260600Y-83266973D01*
X11327227Y-83239375D01*
X11402900Y-83163702D01*
X11910670Y-83671472D01*
G36*
X28627640Y-41370700D02*
X28647640Y-41370700D01*
X28647640Y-41624700D01*
X28627640Y-41624700D01*
X28627640Y-42798180D01*
X28786390Y-42956930D01*
X29451179Y-42956930D01*
X29684568Y-42860257D01*
X29863197Y-42681629D01*
X29938491Y-42499853D01*
X30173413Y-42734775D01*
X30709741Y-42956930D01*
X31290259Y-42956930D01*
X31589801Y-42832855D01*
X31589801Y-51325297D01*
X24230030Y-58685069D01*
X24166571Y-58727471D01*
X23998596Y-58978864D01*
X23954500Y-59200549D01*
X23954500Y-59200553D01*
X23939612Y-59275400D01*
X23954500Y-59350247D01*
X23954501Y-80984137D01*
X23762925Y-81175713D01*
X23750320Y-81206144D01*
X23737715Y-81175713D01*
X23327227Y-80765225D01*
X22790899Y-80543070D01*
X22210381Y-80543070D01*
X21674053Y-80765225D01*
X21263565Y-81175713D01*
X21041410Y-81712041D01*
X21041410Y-82292559D01*
X21068980Y-82359119D01*
X21001099Y-82427000D01*
X16958590Y-82427000D01*
X16958590Y-82288050D01*
X16799840Y-82129300D01*
X15626360Y-82129300D01*
X15626360Y-82149300D01*
X15372360Y-82149300D01*
X15372360Y-82129300D01*
X15352360Y-82129300D01*
X15352360Y-81875300D01*
X15372360Y-81875300D01*
X15372360Y-80701820D01*
X15626360Y-80701820D01*
X15626360Y-81875300D01*
X16799840Y-81875300D01*
X16958590Y-81716550D01*
X16958590Y-81051760D01*
X16861917Y-80818371D01*
X16683288Y-80639743D01*
X16449899Y-80543070D01*
X15785110Y-80543070D01*
X15626360Y-80701820D01*
X15372360Y-80701820D01*
X15213610Y-80543070D01*
X15054200Y-80543070D01*
X15054200Y-68555431D01*
X16765000Y-68555431D01*
X16765000Y-69444569D01*
X17105259Y-70266026D01*
X17733974Y-70894741D01*
X18555431Y-71235000D01*
X19444569Y-71235000D01*
X20266026Y-70894741D01*
X20894741Y-70266026D01*
X21235000Y-69444569D01*
X21235000Y-68555431D01*
X20894741Y-67733974D01*
X20266026Y-67105259D01*
X19444569Y-66765000D01*
X18555431Y-66765000D01*
X17733974Y-67105259D01*
X17105259Y-67733974D01*
X16765000Y-68555431D01*
X15054200Y-68555431D01*
X15054200Y-61479118D01*
X15138083Y-61681629D01*
X15316712Y-61860257D01*
X15550101Y-61956930D01*
X16214890Y-61956930D01*
X16373640Y-61798180D01*
X16373640Y-60624700D01*
X16353640Y-60624700D01*
X16353640Y-60370700D01*
X16373640Y-60370700D01*
X16373640Y-59197220D01*
X16214890Y-59038470D01*
X15550101Y-59038470D01*
X15538032Y-59043469D01*
X17970273Y-56611229D01*
X18033729Y-56568829D01*
X18201704Y-56317437D01*
X18240000Y-56124909D01*
X18240000Y-59233044D01*
X18173413Y-59260625D01*
X17938491Y-59495547D01*
X17863197Y-59313771D01*
X17684568Y-59135143D01*
X17451179Y-59038470D01*
X16786390Y-59038470D01*
X16627640Y-59197220D01*
X16627640Y-60370700D01*
X16647640Y-60370700D01*
X16647640Y-60624700D01*
X16627640Y-60624700D01*
X16627640Y-61798180D01*
X16786390Y-61956930D01*
X17451179Y-61956930D01*
X17684568Y-61860257D01*
X17863197Y-61681629D01*
X17938491Y-61499853D01*
X18173413Y-61734775D01*
X18709741Y-61956930D01*
X19290259Y-61956930D01*
X19826587Y-61734775D01*
X20237075Y-61324287D01*
X20249680Y-61293856D01*
X20262285Y-61324287D01*
X20672773Y-61734775D01*
X21209101Y-61956930D01*
X21789619Y-61956930D01*
X22325947Y-61734775D01*
X22736435Y-61324287D01*
X22958590Y-60787959D01*
X22958590Y-60207441D01*
X22736435Y-59671113D01*
X22325947Y-59260625D01*
X21789619Y-59038470D01*
X21209101Y-59038470D01*
X20672773Y-59260625D01*
X20262285Y-59671113D01*
X20249680Y-59701544D01*
X20237075Y-59671113D01*
X19826587Y-59260625D01*
X19760000Y-59233044D01*
X19760000Y-53095810D01*
X21466340Y-53095810D01*
X21466340Y-53904190D01*
X21775694Y-54651035D01*
X22347305Y-55222646D01*
X23094150Y-55532000D01*
X23902530Y-55532000D01*
X24649375Y-55222646D01*
X25220986Y-54651035D01*
X25530340Y-53904190D01*
X25530340Y-53095810D01*
X25220986Y-52348965D01*
X24649375Y-51777354D01*
X23902530Y-51468000D01*
X23094150Y-51468000D01*
X22347305Y-51777354D01*
X21775694Y-52348965D01*
X21466340Y-53095810D01*
X19760000Y-53095810D01*
X19760000Y-49121001D01*
X27041410Y-41839592D01*
X27041410Y-42448240D01*
X27138083Y-42681629D01*
X27316712Y-42860257D01*
X27550101Y-42956930D01*
X28214890Y-42956930D01*
X28373640Y-42798180D01*
X28373640Y-41624700D01*
X28353640Y-41624700D01*
X28353640Y-41370700D01*
X28373640Y-41370700D01*
X28373640Y-41350700D01*
X28627640Y-41350700D01*
X28627640Y-41370700D01*
X28627640Y-41370700D01*
G37*
X28627640Y-41370700D02*
X28647640Y-41370700D01*
X28647640Y-41624700D01*
X28627640Y-41624700D01*
X28627640Y-42798180D01*
X28786390Y-42956930D01*
X29451179Y-42956930D01*
X29684568Y-42860257D01*
X29863197Y-42681629D01*
X29938491Y-42499853D01*
X30173413Y-42734775D01*
X30709741Y-42956930D01*
X31290259Y-42956930D01*
X31589801Y-42832855D01*
X31589801Y-51325297D01*
X24230030Y-58685069D01*
X24166571Y-58727471D01*
X23998596Y-58978864D01*
X23954500Y-59200549D01*
X23954500Y-59200553D01*
X23939612Y-59275400D01*
X23954500Y-59350247D01*
X23954501Y-80984137D01*
X23762925Y-81175713D01*
X23750320Y-81206144D01*
X23737715Y-81175713D01*
X23327227Y-80765225D01*
X22790899Y-80543070D01*
X22210381Y-80543070D01*
X21674053Y-80765225D01*
X21263565Y-81175713D01*
X21041410Y-81712041D01*
X21041410Y-82292559D01*
X21068980Y-82359119D01*
X21001099Y-82427000D01*
X16958590Y-82427000D01*
X16958590Y-82288050D01*
X16799840Y-82129300D01*
X15626360Y-82129300D01*
X15626360Y-82149300D01*
X15372360Y-82149300D01*
X15372360Y-82129300D01*
X15352360Y-82129300D01*
X15352360Y-81875300D01*
X15372360Y-81875300D01*
X15372360Y-80701820D01*
X15626360Y-80701820D01*
X15626360Y-81875300D01*
X16799840Y-81875300D01*
X16958590Y-81716550D01*
X16958590Y-81051760D01*
X16861917Y-80818371D01*
X16683288Y-80639743D01*
X16449899Y-80543070D01*
X15785110Y-80543070D01*
X15626360Y-80701820D01*
X15372360Y-80701820D01*
X15213610Y-80543070D01*
X15054200Y-80543070D01*
X15054200Y-68555431D01*
X16765000Y-68555431D01*
X16765000Y-69444569D01*
X17105259Y-70266026D01*
X17733974Y-70894741D01*
X18555431Y-71235000D01*
X19444569Y-71235000D01*
X20266026Y-70894741D01*
X20894741Y-70266026D01*
X21235000Y-69444569D01*
X21235000Y-68555431D01*
X20894741Y-67733974D01*
X20266026Y-67105259D01*
X19444569Y-66765000D01*
X18555431Y-66765000D01*
X17733974Y-67105259D01*
X17105259Y-67733974D01*
X16765000Y-68555431D01*
X15054200Y-68555431D01*
X15054200Y-61479118D01*
X15138083Y-61681629D01*
X15316712Y-61860257D01*
X15550101Y-61956930D01*
X16214890Y-61956930D01*
X16373640Y-61798180D01*
X16373640Y-60624700D01*
X16353640Y-60624700D01*
X16353640Y-60370700D01*
X16373640Y-60370700D01*
X16373640Y-59197220D01*
X16214890Y-59038470D01*
X15550101Y-59038470D01*
X15538032Y-59043469D01*
X17970273Y-56611229D01*
X18033729Y-56568829D01*
X18201704Y-56317437D01*
X18240000Y-56124909D01*
X18240000Y-59233044D01*
X18173413Y-59260625D01*
X17938491Y-59495547D01*
X17863197Y-59313771D01*
X17684568Y-59135143D01*
X17451179Y-59038470D01*
X16786390Y-59038470D01*
X16627640Y-59197220D01*
X16627640Y-60370700D01*
X16647640Y-60370700D01*
X16647640Y-60624700D01*
X16627640Y-60624700D01*
X16627640Y-61798180D01*
X16786390Y-61956930D01*
X17451179Y-61956930D01*
X17684568Y-61860257D01*
X17863197Y-61681629D01*
X17938491Y-61499853D01*
X18173413Y-61734775D01*
X18709741Y-61956930D01*
X19290259Y-61956930D01*
X19826587Y-61734775D01*
X20237075Y-61324287D01*
X20249680Y-61293856D01*
X20262285Y-61324287D01*
X20672773Y-61734775D01*
X21209101Y-61956930D01*
X21789619Y-61956930D01*
X22325947Y-61734775D01*
X22736435Y-61324287D01*
X22958590Y-60787959D01*
X22958590Y-60207441D01*
X22736435Y-59671113D01*
X22325947Y-59260625D01*
X21789619Y-59038470D01*
X21209101Y-59038470D01*
X20672773Y-59260625D01*
X20262285Y-59671113D01*
X20249680Y-59701544D01*
X20237075Y-59671113D01*
X19826587Y-59260625D01*
X19760000Y-59233044D01*
X19760000Y-53095810D01*
X21466340Y-53095810D01*
X21466340Y-53904190D01*
X21775694Y-54651035D01*
X22347305Y-55222646D01*
X23094150Y-55532000D01*
X23902530Y-55532000D01*
X24649375Y-55222646D01*
X25220986Y-54651035D01*
X25530340Y-53904190D01*
X25530340Y-53095810D01*
X25220986Y-52348965D01*
X24649375Y-51777354D01*
X23902530Y-51468000D01*
X23094150Y-51468000D01*
X22347305Y-51777354D01*
X21775694Y-52348965D01*
X21466340Y-53095810D01*
X19760000Y-53095810D01*
X19760000Y-49121001D01*
X27041410Y-41839592D01*
X27041410Y-42448240D01*
X27138083Y-42681629D01*
X27316712Y-42860257D01*
X27550101Y-42956930D01*
X28214890Y-42956930D01*
X28373640Y-42798180D01*
X28373640Y-41624700D01*
X28353640Y-41624700D01*
X28353640Y-41370700D01*
X28373640Y-41370700D01*
X28373640Y-41350700D01*
X28627640Y-41350700D01*
X28627640Y-41370700D01*
G36*
X34929375Y-22890625D02*
X35227761Y-23090000D01*
X34929375Y-23289375D01*
X34601161Y-23780582D01*
X34485908Y-24360000D01*
X34601161Y-24939418D01*
X34929375Y-25430625D01*
X35420582Y-25758839D01*
X35853744Y-25845000D01*
X36146256Y-25845000D01*
X36579418Y-25758839D01*
X36904600Y-25541559D01*
X36904600Y-33032579D01*
X36649375Y-32777354D01*
X35902530Y-32468000D01*
X35094150Y-32468000D01*
X34347305Y-32777354D01*
X33775694Y-33348965D01*
X33466340Y-34095810D01*
X33466340Y-34904190D01*
X33775694Y-35651035D01*
X34347305Y-36222646D01*
X35094150Y-36532000D01*
X35902530Y-36532000D01*
X36649375Y-36222646D01*
X36904601Y-35967420D01*
X36904601Y-66093397D01*
X28016130Y-74981869D01*
X27952671Y-75024271D01*
X27784696Y-75275664D01*
X27740600Y-75497349D01*
X27740600Y-75497353D01*
X27725712Y-75572200D01*
X27740600Y-75647047D01*
X27740601Y-78026030D01*
X27676410Y-78026030D01*
X27428645Y-78075313D01*
X27218601Y-78215661D01*
X27078253Y-78425705D01*
X27028970Y-78673470D01*
X27028970Y-80321930D01*
X27072957Y-80543070D01*
X26548821Y-80543070D01*
X26315432Y-80639743D01*
X26136803Y-80818371D01*
X26061509Y-81000147D01*
X25826587Y-80765225D01*
X25474500Y-80619385D01*
X25474500Y-74273957D01*
X26097470Y-74532000D01*
X26905850Y-74532000D01*
X27652695Y-74222646D01*
X28224306Y-73651035D01*
X28533660Y-72904190D01*
X28533660Y-72095810D01*
X28224306Y-71348965D01*
X27652695Y-70777354D01*
X26905850Y-70468000D01*
X26097470Y-70468000D01*
X25474500Y-70726043D01*
X25474500Y-59590201D01*
X31199712Y-53864990D01*
X31408690Y-54369507D01*
X31840493Y-54801310D01*
X32404670Y-55035000D01*
X33015330Y-55035000D01*
X33579507Y-54801310D01*
X33748725Y-54632092D01*
X33751843Y-54647765D01*
X33892191Y-54857809D01*
X34102235Y-54998157D01*
X34350000Y-55047440D01*
X36150000Y-55047440D01*
X36397765Y-54998157D01*
X36607809Y-54857809D01*
X36748157Y-54647765D01*
X36797440Y-54400000D01*
X36797440Y-52600000D01*
X36748157Y-52352235D01*
X36607809Y-52142191D01*
X36397765Y-52001843D01*
X36150000Y-51952560D01*
X34350000Y-51952560D01*
X34102235Y-52001843D01*
X33892191Y-52142191D01*
X33751843Y-52352235D01*
X33748725Y-52367908D01*
X33579507Y-52198690D01*
X33039941Y-51975194D01*
X33065704Y-51936638D01*
X33098544Y-51771538D01*
X33109800Y-51714952D01*
X33109800Y-51714948D01*
X33124688Y-51640100D01*
X33109800Y-51565252D01*
X33109800Y-42915798D01*
X33209101Y-42956930D01*
X33789619Y-42956930D01*
X34325947Y-42734775D01*
X34736435Y-42324287D01*
X34958590Y-41787959D01*
X34958590Y-41207441D01*
X34736435Y-40671113D01*
X34325947Y-40260625D01*
X33789619Y-40038470D01*
X33209101Y-40038470D01*
X33109800Y-40079602D01*
X33109800Y-24105201D01*
X34687047Y-22527955D01*
X34929375Y-22890625D01*
X34929375Y-22890625D01*
G37*
X34929375Y-22890625D02*
X35227761Y-23090000D01*
X34929375Y-23289375D01*
X34601161Y-23780582D01*
X34485908Y-24360000D01*
X34601161Y-24939418D01*
X34929375Y-25430625D01*
X35420582Y-25758839D01*
X35853744Y-25845000D01*
X36146256Y-25845000D01*
X36579418Y-25758839D01*
X36904600Y-25541559D01*
X36904600Y-33032579D01*
X36649375Y-32777354D01*
X35902530Y-32468000D01*
X35094150Y-32468000D01*
X34347305Y-32777354D01*
X33775694Y-33348965D01*
X33466340Y-34095810D01*
X33466340Y-34904190D01*
X33775694Y-35651035D01*
X34347305Y-36222646D01*
X35094150Y-36532000D01*
X35902530Y-36532000D01*
X36649375Y-36222646D01*
X36904601Y-35967420D01*
X36904601Y-66093397D01*
X28016130Y-74981869D01*
X27952671Y-75024271D01*
X27784696Y-75275664D01*
X27740600Y-75497349D01*
X27740600Y-75497353D01*
X27725712Y-75572200D01*
X27740600Y-75647047D01*
X27740601Y-78026030D01*
X27676410Y-78026030D01*
X27428645Y-78075313D01*
X27218601Y-78215661D01*
X27078253Y-78425705D01*
X27028970Y-78673470D01*
X27028970Y-80321930D01*
X27072957Y-80543070D01*
X26548821Y-80543070D01*
X26315432Y-80639743D01*
X26136803Y-80818371D01*
X26061509Y-81000147D01*
X25826587Y-80765225D01*
X25474500Y-80619385D01*
X25474500Y-74273957D01*
X26097470Y-74532000D01*
X26905850Y-74532000D01*
X27652695Y-74222646D01*
X28224306Y-73651035D01*
X28533660Y-72904190D01*
X28533660Y-72095810D01*
X28224306Y-71348965D01*
X27652695Y-70777354D01*
X26905850Y-70468000D01*
X26097470Y-70468000D01*
X25474500Y-70726043D01*
X25474500Y-59590201D01*
X31199712Y-53864990D01*
X31408690Y-54369507D01*
X31840493Y-54801310D01*
X32404670Y-55035000D01*
X33015330Y-55035000D01*
X33579507Y-54801310D01*
X33748725Y-54632092D01*
X33751843Y-54647765D01*
X33892191Y-54857809D01*
X34102235Y-54998157D01*
X34350000Y-55047440D01*
X36150000Y-55047440D01*
X36397765Y-54998157D01*
X36607809Y-54857809D01*
X36748157Y-54647765D01*
X36797440Y-54400000D01*
X36797440Y-52600000D01*
X36748157Y-52352235D01*
X36607809Y-52142191D01*
X36397765Y-52001843D01*
X36150000Y-51952560D01*
X34350000Y-51952560D01*
X34102235Y-52001843D01*
X33892191Y-52142191D01*
X33751843Y-52352235D01*
X33748725Y-52367908D01*
X33579507Y-52198690D01*
X33039941Y-51975194D01*
X33065704Y-51936638D01*
X33098544Y-51771538D01*
X33109800Y-51714952D01*
X33109800Y-51714948D01*
X33124688Y-51640100D01*
X33109800Y-51565252D01*
X33109800Y-42915798D01*
X33209101Y-42956930D01*
X33789619Y-42956930D01*
X34325947Y-42734775D01*
X34736435Y-42324287D01*
X34958590Y-41787959D01*
X34958590Y-41207441D01*
X34736435Y-40671113D01*
X34325947Y-40260625D01*
X33789619Y-40038470D01*
X33209101Y-40038470D01*
X33109800Y-40079602D01*
X33109800Y-24105201D01*
X34687047Y-22527955D01*
X34929375Y-22890625D01*
G36*
X24469660Y-34904190D02*
X24779014Y-35651035D01*
X25350625Y-36222646D01*
X26097470Y-36532000D01*
X26905850Y-36532000D01*
X27591849Y-36247849D01*
X17001330Y-46838369D01*
X16937871Y-46880771D01*
X16769896Y-47132164D01*
X16725800Y-47353849D01*
X16725800Y-47353853D01*
X16710912Y-47428700D01*
X16725800Y-47503547D01*
X16725801Y-55706097D01*
X13809730Y-58622169D01*
X13746271Y-58664571D01*
X13578296Y-58915964D01*
X13534200Y-59137649D01*
X13534200Y-59137653D01*
X13519312Y-59212500D01*
X13534200Y-59287347D01*
X13534201Y-80393297D01*
X13356847Y-80570652D01*
X13290259Y-80543070D01*
X12709741Y-80543070D01*
X12510300Y-80625681D01*
X12510300Y-77920448D01*
X12525188Y-77845600D01*
X12510300Y-77770752D01*
X12510300Y-77770748D01*
X12466204Y-77549063D01*
X12298229Y-77297671D01*
X12234773Y-77255271D01*
X9737700Y-74758199D01*
X9737700Y-73559310D01*
X9775694Y-73651035D01*
X10347305Y-74222646D01*
X11094150Y-74532000D01*
X11902530Y-74532000D01*
X12649375Y-74222646D01*
X13220986Y-73651035D01*
X13530340Y-72904190D01*
X13530340Y-72095810D01*
X13220986Y-71348965D01*
X12649375Y-70777354D01*
X11902530Y-70468000D01*
X11094150Y-70468000D01*
X10347305Y-70777354D01*
X9775694Y-71348965D01*
X9737700Y-71440690D01*
X9737700Y-53095810D01*
X12469660Y-53095810D01*
X12469660Y-53904190D01*
X12779014Y-54651035D01*
X13350625Y-55222646D01*
X14097470Y-55532000D01*
X14905850Y-55532000D01*
X15652695Y-55222646D01*
X16224306Y-54651035D01*
X16533660Y-53904190D01*
X16533660Y-53095810D01*
X16224306Y-52348965D01*
X15652695Y-51777354D01*
X14905850Y-51468000D01*
X14097470Y-51468000D01*
X13350625Y-51777354D01*
X12779014Y-52348965D01*
X12469660Y-53095810D01*
X9737700Y-53095810D01*
X9737700Y-53027547D01*
X9752588Y-52952700D01*
X9737700Y-52877853D01*
X9737700Y-52877848D01*
X9693604Y-52656163D01*
X9525629Y-52404771D01*
X9462173Y-52362371D01*
X6247440Y-49147639D01*
X6247440Y-48733600D01*
X10100553Y-48733600D01*
X10175400Y-48748488D01*
X10250247Y-48733600D01*
X10250252Y-48733600D01*
X10471937Y-48689504D01*
X10723329Y-48521529D01*
X10765731Y-48458070D01*
X24469660Y-34754142D01*
X24469660Y-34904190D01*
X24469660Y-34904190D01*
G37*
X24469660Y-34904190D02*
X24779014Y-35651035D01*
X25350625Y-36222646D01*
X26097470Y-36532000D01*
X26905850Y-36532000D01*
X27591849Y-36247849D01*
X17001330Y-46838369D01*
X16937871Y-46880771D01*
X16769896Y-47132164D01*
X16725800Y-47353849D01*
X16725800Y-47353853D01*
X16710912Y-47428700D01*
X16725800Y-47503547D01*
X16725801Y-55706097D01*
X13809730Y-58622169D01*
X13746271Y-58664571D01*
X13578296Y-58915964D01*
X13534200Y-59137649D01*
X13534200Y-59137653D01*
X13519312Y-59212500D01*
X13534200Y-59287347D01*
X13534201Y-80393297D01*
X13356847Y-80570652D01*
X13290259Y-80543070D01*
X12709741Y-80543070D01*
X12510300Y-80625681D01*
X12510300Y-77920448D01*
X12525188Y-77845600D01*
X12510300Y-77770752D01*
X12510300Y-77770748D01*
X12466204Y-77549063D01*
X12298229Y-77297671D01*
X12234773Y-77255271D01*
X9737700Y-74758199D01*
X9737700Y-73559310D01*
X9775694Y-73651035D01*
X10347305Y-74222646D01*
X11094150Y-74532000D01*
X11902530Y-74532000D01*
X12649375Y-74222646D01*
X13220986Y-73651035D01*
X13530340Y-72904190D01*
X13530340Y-72095810D01*
X13220986Y-71348965D01*
X12649375Y-70777354D01*
X11902530Y-70468000D01*
X11094150Y-70468000D01*
X10347305Y-70777354D01*
X9775694Y-71348965D01*
X9737700Y-71440690D01*
X9737700Y-53095810D01*
X12469660Y-53095810D01*
X12469660Y-53904190D01*
X12779014Y-54651035D01*
X13350625Y-55222646D01*
X14097470Y-55532000D01*
X14905850Y-55532000D01*
X15652695Y-55222646D01*
X16224306Y-54651035D01*
X16533660Y-53904190D01*
X16533660Y-53095810D01*
X16224306Y-52348965D01*
X15652695Y-51777354D01*
X14905850Y-51468000D01*
X14097470Y-51468000D01*
X13350625Y-51777354D01*
X12779014Y-52348965D01*
X12469660Y-53095810D01*
X9737700Y-53095810D01*
X9737700Y-53027547D01*
X9752588Y-52952700D01*
X9737700Y-52877853D01*
X9737700Y-52877848D01*
X9693604Y-52656163D01*
X9525629Y-52404771D01*
X9462173Y-52362371D01*
X6247440Y-49147639D01*
X6247440Y-48733600D01*
X10100553Y-48733600D01*
X10175400Y-48748488D01*
X10250247Y-48733600D01*
X10250252Y-48733600D01*
X10471937Y-48689504D01*
X10723329Y-48521529D01*
X10765731Y-48458070D01*
X24469660Y-34754142D01*
X24469660Y-34904190D01*
G36*
X3612001Y-10130204D02*
X3612000Y-17257153D01*
X3597112Y-17332000D01*
X3612000Y-17406847D01*
X3612000Y-17406851D01*
X3656096Y-17628536D01*
X3824071Y-17879929D01*
X3887530Y-17922331D01*
X17654861Y-31689663D01*
X17653800Y-31692224D01*
X17653800Y-32227776D01*
X17858746Y-32722561D01*
X18237439Y-33101254D01*
X18548260Y-33230000D01*
X18237439Y-33358746D01*
X17858746Y-33737439D01*
X17653800Y-34232224D01*
X17653800Y-34767776D01*
X17858746Y-35262561D01*
X18237439Y-35641254D01*
X18532096Y-35763304D01*
X18299427Y-35859679D01*
X18236210Y-36096605D01*
X19000000Y-36860395D01*
X19763790Y-36096605D01*
X19700573Y-35859679D01*
X19449327Y-35770999D01*
X19762561Y-35641254D01*
X20141254Y-35262561D01*
X20346200Y-34767776D01*
X20346200Y-34232224D01*
X20141254Y-33737439D01*
X19762561Y-33358746D01*
X19451740Y-33230000D01*
X19762561Y-33101254D01*
X20141254Y-32722561D01*
X20346200Y-32227776D01*
X20346200Y-31692224D01*
X20141254Y-31197439D01*
X19762561Y-30818746D01*
X19267776Y-30613800D01*
X18732224Y-30613800D01*
X18729663Y-30614861D01*
X13690492Y-25575690D01*
X14180641Y-25809479D01*
X15569928Y-26285139D01*
X17004678Y-26597965D01*
X18465876Y-26743812D01*
X19934153Y-26720746D01*
X21390049Y-26529074D01*
X22814265Y-26171335D01*
X23425709Y-25940290D01*
X22042230Y-27323769D01*
X21978771Y-27366171D01*
X21810796Y-27617564D01*
X21766700Y-27839249D01*
X21766700Y-27839253D01*
X21751812Y-27914100D01*
X21766700Y-27988947D01*
X21766701Y-34664697D01*
X20110580Y-36320818D01*
X19943395Y-36276210D01*
X19179605Y-37040000D01*
X19193748Y-37054143D01*
X19014143Y-37233748D01*
X19000000Y-37219605D01*
X18236210Y-37983395D01*
X18280819Y-38150580D01*
X10616699Y-45814700D01*
X5235246Y-45814700D01*
X5160399Y-45799812D01*
X5085552Y-45814700D01*
X5085548Y-45814700D01*
X4863863Y-45858796D01*
X4863861Y-45858797D01*
X4863862Y-45858797D01*
X4675926Y-45984371D01*
X4675924Y-45984373D01*
X4612471Y-46026771D01*
X4570073Y-46090224D01*
X3007738Y-47652560D01*
X2649999Y-47652560D01*
X2306564Y-47720873D01*
X2015414Y-47915414D01*
X1820873Y-48206564D01*
X1752560Y-48549999D01*
X1752560Y-49450001D01*
X1820873Y-49793436D01*
X2015414Y-50084586D01*
X2306564Y-50279127D01*
X2649999Y-50347440D01*
X3240000Y-50347440D01*
X3240000Y-51152560D01*
X2649999Y-51152560D01*
X2306564Y-51220873D01*
X2015414Y-51415414D01*
X1820873Y-51706564D01*
X1752560Y-52049999D01*
X1752560Y-52950001D01*
X1820873Y-53293436D01*
X2015414Y-53584586D01*
X2306564Y-53779127D01*
X2649999Y-53847440D01*
X3300001Y-53847440D01*
X3643436Y-53779127D01*
X3934586Y-53584586D01*
X4000000Y-53486687D01*
X4065414Y-53584586D01*
X4356564Y-53779127D01*
X4699999Y-53847440D01*
X5297639Y-53847440D01*
X5647988Y-54197789D01*
X5610900Y-54190412D01*
X5536053Y-54205300D01*
X4109548Y-54205300D01*
X4034700Y-54190412D01*
X3959852Y-54205300D01*
X3959848Y-54205300D01*
X3786305Y-54239820D01*
X3738162Y-54249396D01*
X3621871Y-54327100D01*
X3486771Y-54417371D01*
X3444371Y-54480827D01*
X3272638Y-54652560D01*
X2674999Y-54652560D01*
X2331564Y-54720873D01*
X2040414Y-54915414D01*
X1845873Y-55206564D01*
X1818397Y-55344696D01*
X1536700Y-55062999D01*
X1536700Y-41783450D01*
X3041410Y-41783450D01*
X3041410Y-42448240D01*
X3138083Y-42681629D01*
X3316712Y-42860257D01*
X3550101Y-42956930D01*
X4214890Y-42956930D01*
X4373640Y-42798180D01*
X4373640Y-41624700D01*
X3200160Y-41624700D01*
X3041410Y-41783450D01*
X1536700Y-41783450D01*
X1536700Y-40547160D01*
X3041410Y-40547160D01*
X3041410Y-41211950D01*
X3200160Y-41370700D01*
X4373640Y-41370700D01*
X4373640Y-40197220D01*
X4627640Y-40197220D01*
X4627640Y-41370700D01*
X4647640Y-41370700D01*
X4647640Y-41624700D01*
X4627640Y-41624700D01*
X4627640Y-42798180D01*
X4786390Y-42956930D01*
X5451179Y-42956930D01*
X5684568Y-42860257D01*
X5863197Y-42681629D01*
X5928905Y-42522995D01*
X6154310Y-42522995D01*
X6231419Y-42771626D01*
X6777435Y-42968777D01*
X7357334Y-42941970D01*
X7768581Y-42771626D01*
X7845690Y-42522995D01*
X7000000Y-41677305D01*
X6154310Y-42522995D01*
X5928905Y-42522995D01*
X5959870Y-42448240D01*
X5959870Y-42338789D01*
X5974705Y-42343390D01*
X6820395Y-41497700D01*
X7179605Y-41497700D01*
X8025295Y-42343390D01*
X8242318Y-42276084D01*
X8262285Y-42324287D01*
X8672773Y-42734775D01*
X9209101Y-42956930D01*
X9789619Y-42956930D01*
X10325947Y-42734775D01*
X10736435Y-42324287D01*
X10958590Y-41787959D01*
X10958590Y-41207441D01*
X10736435Y-40671113D01*
X10325947Y-40260625D01*
X9789619Y-40038470D01*
X9209101Y-40038470D01*
X8672773Y-40260625D01*
X8262285Y-40671113D01*
X8242318Y-40719316D01*
X8025295Y-40652010D01*
X7179605Y-41497700D01*
X6820395Y-41497700D01*
X5974705Y-40652010D01*
X5959870Y-40656611D01*
X5959870Y-40547160D01*
X5928906Y-40472405D01*
X6154310Y-40472405D01*
X7000000Y-41318095D01*
X7845690Y-40472405D01*
X7768581Y-40223774D01*
X7222565Y-40026623D01*
X6642666Y-40053430D01*
X6231419Y-40223774D01*
X6154310Y-40472405D01*
X5928906Y-40472405D01*
X5863197Y-40313771D01*
X5684568Y-40135143D01*
X5451179Y-40038470D01*
X4786390Y-40038470D01*
X4627640Y-40197220D01*
X4373640Y-40197220D01*
X4214890Y-40038470D01*
X3550101Y-40038470D01*
X3316712Y-40135143D01*
X3138083Y-40313771D01*
X3041410Y-40547160D01*
X1536700Y-40547160D01*
X1536700Y-36299721D01*
X2097470Y-36532000D01*
X2905850Y-36532000D01*
X3652695Y-36222646D01*
X4224306Y-35651035D01*
X4533660Y-34904190D01*
X4533660Y-34095810D01*
X4224306Y-33348965D01*
X3652695Y-32777354D01*
X2905850Y-32468000D01*
X2097470Y-32468000D01*
X1536700Y-32700279D01*
X1536700Y-25781936D01*
X1853744Y-25845000D01*
X2146256Y-25845000D01*
X2579418Y-25758839D01*
X3070625Y-25430625D01*
X3278178Y-25120000D01*
X3483899Y-25120000D01*
X10908710Y-32544812D01*
X10347305Y-32777354D01*
X9775694Y-33348965D01*
X9466340Y-34095810D01*
X9466340Y-34904190D01*
X9775694Y-35651035D01*
X10347305Y-36222646D01*
X11094150Y-36532000D01*
X11902530Y-36532000D01*
X12649375Y-36222646D01*
X13220986Y-35651035D01*
X13453528Y-35089631D01*
X13690100Y-35326203D01*
X13690101Y-36215149D01*
X13675212Y-36290000D01*
X13690101Y-36364852D01*
X13704437Y-36436926D01*
X13734197Y-36586537D01*
X13821805Y-36717651D01*
X13902172Y-36837929D01*
X13965628Y-36880329D01*
X14937971Y-37852673D01*
X14980371Y-37916129D01*
X15231763Y-38084104D01*
X15453448Y-38128200D01*
X15453452Y-38128200D01*
X15528299Y-38143088D01*
X15603146Y-38128200D01*
X16866953Y-38128200D01*
X16941800Y-38143088D01*
X17016647Y-38128200D01*
X17016652Y-38128200D01*
X17238337Y-38084104D01*
X17256751Y-38071800D01*
X17479074Y-38071800D01*
X17859480Y-37914231D01*
X17988179Y-37785532D01*
X18056605Y-37803790D01*
X18820395Y-37040000D01*
X18056605Y-36276210D01*
X17993231Y-36293120D01*
X17859480Y-36159369D01*
X17479074Y-36001800D01*
X17067326Y-36001800D01*
X16760251Y-36128994D01*
X16730231Y-36056520D01*
X16612800Y-35939089D01*
X16612800Y-35852046D01*
X16627688Y-35777199D01*
X16612800Y-35702352D01*
X16612800Y-35702348D01*
X16568704Y-35480663D01*
X16498979Y-35376312D01*
X16443129Y-35292726D01*
X16443127Y-35292724D01*
X16400729Y-35229271D01*
X16337276Y-35186873D01*
X3661231Y-22510830D01*
X3618829Y-22447371D01*
X3416228Y-22311997D01*
X3514092Y-21820000D01*
X3398839Y-21240582D01*
X3070625Y-20749375D01*
X2772239Y-20550000D01*
X3070625Y-20350625D01*
X3398839Y-19859418D01*
X3514092Y-19280000D01*
X3398839Y-18700582D01*
X3070625Y-18209375D01*
X2772239Y-18010000D01*
X3070625Y-17810625D01*
X3398839Y-17319418D01*
X3514092Y-16740000D01*
X3398839Y-16160582D01*
X3070625Y-15669375D01*
X2772239Y-15470000D01*
X3070625Y-15270625D01*
X3398839Y-14779418D01*
X3514092Y-14200000D01*
X3398839Y-13620582D01*
X3070625Y-13129375D01*
X2772239Y-12930000D01*
X3070625Y-12730625D01*
X3398839Y-12239418D01*
X3514092Y-11660000D01*
X3398839Y-11080582D01*
X3070625Y-10589375D01*
X2772239Y-10390000D01*
X3070625Y-10190625D01*
X3311671Y-9829874D01*
X3612001Y-10130204D01*
X3612001Y-10130204D01*
G37*
X3612001Y-10130204D02*
X3612000Y-17257153D01*
X3597112Y-17332000D01*
X3612000Y-17406847D01*
X3612000Y-17406851D01*
X3656096Y-17628536D01*
X3824071Y-17879929D01*
X3887530Y-17922331D01*
X17654861Y-31689663D01*
X17653800Y-31692224D01*
X17653800Y-32227776D01*
X17858746Y-32722561D01*
X18237439Y-33101254D01*
X18548260Y-33230000D01*
X18237439Y-33358746D01*
X17858746Y-33737439D01*
X17653800Y-34232224D01*
X17653800Y-34767776D01*
X17858746Y-35262561D01*
X18237439Y-35641254D01*
X18532096Y-35763304D01*
X18299427Y-35859679D01*
X18236210Y-36096605D01*
X19000000Y-36860395D01*
X19763790Y-36096605D01*
X19700573Y-35859679D01*
X19449327Y-35770999D01*
X19762561Y-35641254D01*
X20141254Y-35262561D01*
X20346200Y-34767776D01*
X20346200Y-34232224D01*
X20141254Y-33737439D01*
X19762561Y-33358746D01*
X19451740Y-33230000D01*
X19762561Y-33101254D01*
X20141254Y-32722561D01*
X20346200Y-32227776D01*
X20346200Y-31692224D01*
X20141254Y-31197439D01*
X19762561Y-30818746D01*
X19267776Y-30613800D01*
X18732224Y-30613800D01*
X18729663Y-30614861D01*
X13690492Y-25575690D01*
X14180641Y-25809479D01*
X15569928Y-26285139D01*
X17004678Y-26597965D01*
X18465876Y-26743812D01*
X19934153Y-26720746D01*
X21390049Y-26529074D01*
X22814265Y-26171335D01*
X23425709Y-25940290D01*
X22042230Y-27323769D01*
X21978771Y-27366171D01*
X21810796Y-27617564D01*
X21766700Y-27839249D01*
X21766700Y-27839253D01*
X21751812Y-27914100D01*
X21766700Y-27988947D01*
X21766701Y-34664697D01*
X20110580Y-36320818D01*
X19943395Y-36276210D01*
X19179605Y-37040000D01*
X19193748Y-37054143D01*
X19014143Y-37233748D01*
X19000000Y-37219605D01*
X18236210Y-37983395D01*
X18280819Y-38150580D01*
X10616699Y-45814700D01*
X5235246Y-45814700D01*
X5160399Y-45799812D01*
X5085552Y-45814700D01*
X5085548Y-45814700D01*
X4863863Y-45858796D01*
X4863861Y-45858797D01*
X4863862Y-45858797D01*
X4675926Y-45984371D01*
X4675924Y-45984373D01*
X4612471Y-46026771D01*
X4570073Y-46090224D01*
X3007738Y-47652560D01*
X2649999Y-47652560D01*
X2306564Y-47720873D01*
X2015414Y-47915414D01*
X1820873Y-48206564D01*
X1752560Y-48549999D01*
X1752560Y-49450001D01*
X1820873Y-49793436D01*
X2015414Y-50084586D01*
X2306564Y-50279127D01*
X2649999Y-50347440D01*
X3240000Y-50347440D01*
X3240000Y-51152560D01*
X2649999Y-51152560D01*
X2306564Y-51220873D01*
X2015414Y-51415414D01*
X1820873Y-51706564D01*
X1752560Y-52049999D01*
X1752560Y-52950001D01*
X1820873Y-53293436D01*
X2015414Y-53584586D01*
X2306564Y-53779127D01*
X2649999Y-53847440D01*
X3300001Y-53847440D01*
X3643436Y-53779127D01*
X3934586Y-53584586D01*
X4000000Y-53486687D01*
X4065414Y-53584586D01*
X4356564Y-53779127D01*
X4699999Y-53847440D01*
X5297639Y-53847440D01*
X5647988Y-54197789D01*
X5610900Y-54190412D01*
X5536053Y-54205300D01*
X4109548Y-54205300D01*
X4034700Y-54190412D01*
X3959852Y-54205300D01*
X3959848Y-54205300D01*
X3786305Y-54239820D01*
X3738162Y-54249396D01*
X3621871Y-54327100D01*
X3486771Y-54417371D01*
X3444371Y-54480827D01*
X3272638Y-54652560D01*
X2674999Y-54652560D01*
X2331564Y-54720873D01*
X2040414Y-54915414D01*
X1845873Y-55206564D01*
X1818397Y-55344696D01*
X1536700Y-55062999D01*
X1536700Y-41783450D01*
X3041410Y-41783450D01*
X3041410Y-42448240D01*
X3138083Y-42681629D01*
X3316712Y-42860257D01*
X3550101Y-42956930D01*
X4214890Y-42956930D01*
X4373640Y-42798180D01*
X4373640Y-41624700D01*
X3200160Y-41624700D01*
X3041410Y-41783450D01*
X1536700Y-41783450D01*
X1536700Y-40547160D01*
X3041410Y-40547160D01*
X3041410Y-41211950D01*
X3200160Y-41370700D01*
X4373640Y-41370700D01*
X4373640Y-40197220D01*
X4627640Y-40197220D01*
X4627640Y-41370700D01*
X4647640Y-41370700D01*
X4647640Y-41624700D01*
X4627640Y-41624700D01*
X4627640Y-42798180D01*
X4786390Y-42956930D01*
X5451179Y-42956930D01*
X5684568Y-42860257D01*
X5863197Y-42681629D01*
X5928905Y-42522995D01*
X6154310Y-42522995D01*
X6231419Y-42771626D01*
X6777435Y-42968777D01*
X7357334Y-42941970D01*
X7768581Y-42771626D01*
X7845690Y-42522995D01*
X7000000Y-41677305D01*
X6154310Y-42522995D01*
X5928905Y-42522995D01*
X5959870Y-42448240D01*
X5959870Y-42338789D01*
X5974705Y-42343390D01*
X6820395Y-41497700D01*
X7179605Y-41497700D01*
X8025295Y-42343390D01*
X8242318Y-42276084D01*
X8262285Y-42324287D01*
X8672773Y-42734775D01*
X9209101Y-42956930D01*
X9789619Y-42956930D01*
X10325947Y-42734775D01*
X10736435Y-42324287D01*
X10958590Y-41787959D01*
X10958590Y-41207441D01*
X10736435Y-40671113D01*
X10325947Y-40260625D01*
X9789619Y-40038470D01*
X9209101Y-40038470D01*
X8672773Y-40260625D01*
X8262285Y-40671113D01*
X8242318Y-40719316D01*
X8025295Y-40652010D01*
X7179605Y-41497700D01*
X6820395Y-41497700D01*
X5974705Y-40652010D01*
X5959870Y-40656611D01*
X5959870Y-40547160D01*
X5928906Y-40472405D01*
X6154310Y-40472405D01*
X7000000Y-41318095D01*
X7845690Y-40472405D01*
X7768581Y-40223774D01*
X7222565Y-40026623D01*
X6642666Y-40053430D01*
X6231419Y-40223774D01*
X6154310Y-40472405D01*
X5928906Y-40472405D01*
X5863197Y-40313771D01*
X5684568Y-40135143D01*
X5451179Y-40038470D01*
X4786390Y-40038470D01*
X4627640Y-40197220D01*
X4373640Y-40197220D01*
X4214890Y-40038470D01*
X3550101Y-40038470D01*
X3316712Y-40135143D01*
X3138083Y-40313771D01*
X3041410Y-40547160D01*
X1536700Y-40547160D01*
X1536700Y-36299721D01*
X2097470Y-36532000D01*
X2905850Y-36532000D01*
X3652695Y-36222646D01*
X4224306Y-35651035D01*
X4533660Y-34904190D01*
X4533660Y-34095810D01*
X4224306Y-33348965D01*
X3652695Y-32777354D01*
X2905850Y-32468000D01*
X2097470Y-32468000D01*
X1536700Y-32700279D01*
X1536700Y-25781936D01*
X1853744Y-25845000D01*
X2146256Y-25845000D01*
X2579418Y-25758839D01*
X3070625Y-25430625D01*
X3278178Y-25120000D01*
X3483899Y-25120000D01*
X10908710Y-32544812D01*
X10347305Y-32777354D01*
X9775694Y-33348965D01*
X9466340Y-34095810D01*
X9466340Y-34904190D01*
X9775694Y-35651035D01*
X10347305Y-36222646D01*
X11094150Y-36532000D01*
X11902530Y-36532000D01*
X12649375Y-36222646D01*
X13220986Y-35651035D01*
X13453528Y-35089631D01*
X13690100Y-35326203D01*
X13690101Y-36215149D01*
X13675212Y-36290000D01*
X13690101Y-36364852D01*
X13704437Y-36436926D01*
X13734197Y-36586537D01*
X13821805Y-36717651D01*
X13902172Y-36837929D01*
X13965628Y-36880329D01*
X14937971Y-37852673D01*
X14980371Y-37916129D01*
X15231763Y-38084104D01*
X15453448Y-38128200D01*
X15453452Y-38128200D01*
X15528299Y-38143088D01*
X15603146Y-38128200D01*
X16866953Y-38128200D01*
X16941800Y-38143088D01*
X17016647Y-38128200D01*
X17016652Y-38128200D01*
X17238337Y-38084104D01*
X17256751Y-38071800D01*
X17479074Y-38071800D01*
X17859480Y-37914231D01*
X17988179Y-37785532D01*
X18056605Y-37803790D01*
X18820395Y-37040000D01*
X18056605Y-36276210D01*
X17993231Y-36293120D01*
X17859480Y-36159369D01*
X17479074Y-36001800D01*
X17067326Y-36001800D01*
X16760251Y-36128994D01*
X16730231Y-36056520D01*
X16612800Y-35939089D01*
X16612800Y-35852046D01*
X16627688Y-35777199D01*
X16612800Y-35702352D01*
X16612800Y-35702348D01*
X16568704Y-35480663D01*
X16498979Y-35376312D01*
X16443129Y-35292726D01*
X16443127Y-35292724D01*
X16400729Y-35229271D01*
X16337276Y-35186873D01*
X3661231Y-22510830D01*
X3618829Y-22447371D01*
X3416228Y-22311997D01*
X3514092Y-21820000D01*
X3398839Y-21240582D01*
X3070625Y-20749375D01*
X2772239Y-20550000D01*
X3070625Y-20350625D01*
X3398839Y-19859418D01*
X3514092Y-19280000D01*
X3398839Y-18700582D01*
X3070625Y-18209375D01*
X2772239Y-18010000D01*
X3070625Y-17810625D01*
X3398839Y-17319418D01*
X3514092Y-16740000D01*
X3398839Y-16160582D01*
X3070625Y-15669375D01*
X2772239Y-15470000D01*
X3070625Y-15270625D01*
X3398839Y-14779418D01*
X3514092Y-14200000D01*
X3398839Y-13620582D01*
X3070625Y-13129375D01*
X2772239Y-12930000D01*
X3070625Y-12730625D01*
X3398839Y-12239418D01*
X3514092Y-11660000D01*
X3398839Y-11080582D01*
X3070625Y-10589375D01*
X2772239Y-10390000D01*
X3070625Y-10190625D01*
X3311671Y-9829874D01*
X3612001Y-10130204D01*
G36*
X34502560Y-2350000D02*
X34551843Y-2597765D01*
X34692191Y-2807809D01*
X34902235Y-2948157D01*
X34947619Y-2957184D01*
X34929375Y-2969375D01*
X34601161Y-3460582D01*
X34485908Y-4040000D01*
X34601161Y-4619418D01*
X34929375Y-5110625D01*
X35227761Y-5310000D01*
X34929375Y-5509375D01*
X34601161Y-6000582D01*
X34485908Y-6580000D01*
X34601161Y-7159418D01*
X34822469Y-7490629D01*
X34340230Y-7972869D01*
X34276771Y-8015271D01*
X34108796Y-8266664D01*
X34064700Y-8488349D01*
X34064700Y-8488353D01*
X34049812Y-8563200D01*
X34064700Y-8638047D01*
X34064701Y-15301296D01*
X30967864Y-18398133D01*
X31000934Y-18320602D01*
X31417999Y-16912615D01*
X31670470Y-15466023D01*
X31755000Y-14000000D01*
X31729831Y-13199107D01*
X31553415Y-11741284D01*
X31210610Y-10313399D01*
X30705960Y-8934379D01*
X30046154Y-7622500D01*
X29239937Y-6395152D01*
X28297995Y-5268602D01*
X27232813Y-4257782D01*
X26058509Y-3376090D01*
X24790649Y-2635212D01*
X23446036Y-2044968D01*
X22042494Y-1613182D01*
X20598625Y-1345577D01*
X19133568Y-1245699D01*
X17666739Y-1314873D01*
X16217583Y-1552182D01*
X14805306Y-1954479D01*
X13448627Y-2516434D01*
X12165529Y-3230597D01*
X10973018Y-4087503D01*
X9886901Y-5075794D01*
X8921573Y-6182371D01*
X8089829Y-7392565D01*
X7402693Y-8690338D01*
X6869274Y-10058488D01*
X6496641Y-11478881D01*
X6289734Y-12932689D01*
X6251294Y-14400644D01*
X6381831Y-15863289D01*
X6679616Y-17301237D01*
X7140701Y-18695429D01*
X7426992Y-19312191D01*
X5132000Y-17017199D01*
X5132000Y-9890246D01*
X5146888Y-9815399D01*
X5132000Y-9740552D01*
X5132000Y-9740548D01*
X5087904Y-9518863D01*
X4967114Y-9338088D01*
X4962329Y-9330926D01*
X4962327Y-9330924D01*
X4919929Y-9267471D01*
X4856476Y-9225073D01*
X3155300Y-7523899D01*
X3398839Y-7159418D01*
X3514092Y-6580000D01*
X3398839Y-6000582D01*
X3070625Y-5509375D01*
X2751522Y-5296157D01*
X2881358Y-5235183D01*
X3271645Y-4806924D01*
X3441476Y-4396890D01*
X3320155Y-4167000D01*
X2127000Y-4167000D01*
X2127000Y-4187000D01*
X1873000Y-4187000D01*
X1873000Y-4167000D01*
X1853000Y-4167000D01*
X1853000Y-3913000D01*
X1873000Y-3913000D01*
X1873000Y-3893000D01*
X2127000Y-3893000D01*
X2127000Y-3913000D01*
X3320155Y-3913000D01*
X3441476Y-3683110D01*
X3271645Y-3273076D01*
X2994292Y-2968739D01*
X3097765Y-2948157D01*
X3307809Y-2807809D01*
X3448157Y-2597765D01*
X3497440Y-2350000D01*
X3497440Y-735000D01*
X34502560Y-735000D01*
X34502560Y-2350000D01*
X34502560Y-2350000D01*
G37*
X34502560Y-2350000D02*
X34551843Y-2597765D01*
X34692191Y-2807809D01*
X34902235Y-2948157D01*
X34947619Y-2957184D01*
X34929375Y-2969375D01*
X34601161Y-3460582D01*
X34485908Y-4040000D01*
X34601161Y-4619418D01*
X34929375Y-5110625D01*
X35227761Y-5310000D01*
X34929375Y-5509375D01*
X34601161Y-6000582D01*
X34485908Y-6580000D01*
X34601161Y-7159418D01*
X34822469Y-7490629D01*
X34340230Y-7972869D01*
X34276771Y-8015271D01*
X34108796Y-8266664D01*
X34064700Y-8488349D01*
X34064700Y-8488353D01*
X34049812Y-8563200D01*
X34064700Y-8638047D01*
X34064701Y-15301296D01*
X30967864Y-18398133D01*
X31000934Y-18320602D01*
X31417999Y-16912615D01*
X31670470Y-15466023D01*
X31755000Y-14000000D01*
X31729831Y-13199107D01*
X31553415Y-11741284D01*
X31210610Y-10313399D01*
X30705960Y-8934379D01*
X30046154Y-7622500D01*
X29239937Y-6395152D01*
X28297995Y-5268602D01*
X27232813Y-4257782D01*
X26058509Y-3376090D01*
X24790649Y-2635212D01*
X23446036Y-2044968D01*
X22042494Y-1613182D01*
X20598625Y-1345577D01*
X19133568Y-1245699D01*
X17666739Y-1314873D01*
X16217583Y-1552182D01*
X14805306Y-1954479D01*
X13448627Y-2516434D01*
X12165529Y-3230597D01*
X10973018Y-4087503D01*
X9886901Y-5075794D01*
X8921573Y-6182371D01*
X8089829Y-7392565D01*
X7402693Y-8690338D01*
X6869274Y-10058488D01*
X6496641Y-11478881D01*
X6289734Y-12932689D01*
X6251294Y-14400644D01*
X6381831Y-15863289D01*
X6679616Y-17301237D01*
X7140701Y-18695429D01*
X7426992Y-19312191D01*
X5132000Y-17017199D01*
X5132000Y-9890246D01*
X5146888Y-9815399D01*
X5132000Y-9740552D01*
X5132000Y-9740548D01*
X5087904Y-9518863D01*
X4967114Y-9338088D01*
X4962329Y-9330926D01*
X4962327Y-9330924D01*
X4919929Y-9267471D01*
X4856476Y-9225073D01*
X3155300Y-7523899D01*
X3398839Y-7159418D01*
X3514092Y-6580000D01*
X3398839Y-6000582D01*
X3070625Y-5509375D01*
X2751522Y-5296157D01*
X2881358Y-5235183D01*
X3271645Y-4806924D01*
X3441476Y-4396890D01*
X3320155Y-4167000D01*
X2127000Y-4167000D01*
X2127000Y-4187000D01*
X1873000Y-4187000D01*
X1873000Y-4167000D01*
X1853000Y-4167000D01*
X1853000Y-3913000D01*
X1873000Y-3913000D01*
X1873000Y-3893000D01*
X2127000Y-3893000D01*
X2127000Y-3913000D01*
X3320155Y-3913000D01*
X3441476Y-3683110D01*
X3271645Y-3273076D01*
X2994292Y-2968739D01*
X3097765Y-2948157D01*
X3307809Y-2807809D01*
X3448157Y-2597765D01*
X3497440Y-2350000D01*
X3497440Y-735000D01*
X34502560Y-735000D01*
X34502560Y-2350000D01*
G04 #@! TD*
M02*
