G04 #@! TF.GenerationSoftware,KiCad,Pcbnew,(5.0.2)-1*
G04 #@! TF.CreationDate,2019-04-03T22:17:55+02:00*
G04 #@! TF.ProjectId,Corona_controlBoard,436f726f-6e61-45f6-936f-6e74726f6c42,1*
G04 #@! TF.SameCoordinates,Original*
G04 #@! TF.FileFunction,Legend,Bot*
G04 #@! TF.FilePolarity,Positive*
%FSLAX46Y46*%
G04 Gerber Fmt 4.6, Leading zero omitted, Abs format (unit mm)*
G04 Created by KiCad (PCBNEW (5.0.2)-1) date 3-4-2019 22:17:55*
%MOMM*%
%LPD*%
G01*
G04 APERTURE LIST*
%ADD10C,0.100000*%
%ADD11C,0.120000*%
%ADD12C,0.150000*%
G04 APERTURE END LIST*
D10*
X22971428Y-74714285D02*
X23000000Y-74742857D01*
X23085714Y-74771428D01*
X23142857Y-74771428D01*
X23228571Y-74742857D01*
X23285714Y-74685714D01*
X23314285Y-74628571D01*
X23342857Y-74514285D01*
X23342857Y-74428571D01*
X23314285Y-74314285D01*
X23285714Y-74257142D01*
X23228571Y-74200000D01*
X23142857Y-74171428D01*
X23085714Y-74171428D01*
X23000000Y-74200000D01*
X22971428Y-74228571D01*
X22628571Y-74771428D02*
X22685714Y-74742857D01*
X22714285Y-74714285D01*
X22742857Y-74657142D01*
X22742857Y-74485714D01*
X22714285Y-74428571D01*
X22685714Y-74400000D01*
X22628571Y-74371428D01*
X22542857Y-74371428D01*
X22485714Y-74400000D01*
X22457142Y-74428571D01*
X22428571Y-74485714D01*
X22428571Y-74657142D01*
X22457142Y-74714285D01*
X22485714Y-74742857D01*
X22542857Y-74771428D01*
X22628571Y-74771428D01*
X22171428Y-74371428D02*
X22171428Y-74771428D01*
X22171428Y-74428571D02*
X22142857Y-74400000D01*
X22085714Y-74371428D01*
X22000000Y-74371428D01*
X21942857Y-74400000D01*
X21914285Y-74457142D01*
X21914285Y-74771428D01*
X21714285Y-74371428D02*
X21485714Y-74371428D01*
X21628571Y-74171428D02*
X21628571Y-74685714D01*
X21600000Y-74742857D01*
X21542857Y-74771428D01*
X21485714Y-74771428D01*
X21285714Y-74771428D02*
X21285714Y-74371428D01*
X21285714Y-74485714D02*
X21257142Y-74428571D01*
X21228571Y-74400000D01*
X21171428Y-74371428D01*
X21114285Y-74371428D01*
X20828571Y-74771428D02*
X20885714Y-74742857D01*
X20914285Y-74714285D01*
X20942857Y-74657142D01*
X20942857Y-74485714D01*
X20914285Y-74428571D01*
X20885714Y-74400000D01*
X20828571Y-74371428D01*
X20742857Y-74371428D01*
X20685714Y-74400000D01*
X20657142Y-74428571D01*
X20628571Y-74485714D01*
X20628571Y-74657142D01*
X20657142Y-74714285D01*
X20685714Y-74742857D01*
X20742857Y-74771428D01*
X20828571Y-74771428D01*
X20285714Y-74771428D02*
X20342857Y-74742857D01*
X20371428Y-74685714D01*
X20371428Y-74171428D01*
X19600000Y-74771428D02*
X19600000Y-74171428D01*
X19600000Y-74400000D02*
X19542857Y-74371428D01*
X19428571Y-74371428D01*
X19371428Y-74400000D01*
X19342857Y-74428571D01*
X19314285Y-74485714D01*
X19314285Y-74657142D01*
X19342857Y-74714285D01*
X19371428Y-74742857D01*
X19428571Y-74771428D01*
X19542857Y-74771428D01*
X19600000Y-74742857D01*
X18971428Y-74771428D02*
X19028571Y-74742857D01*
X19057142Y-74714285D01*
X19085714Y-74657142D01*
X19085714Y-74485714D01*
X19057142Y-74428571D01*
X19028571Y-74400000D01*
X18971428Y-74371428D01*
X18885714Y-74371428D01*
X18828571Y-74400000D01*
X18800000Y-74428571D01*
X18771428Y-74485714D01*
X18771428Y-74657142D01*
X18800000Y-74714285D01*
X18828571Y-74742857D01*
X18885714Y-74771428D01*
X18971428Y-74771428D01*
X18257142Y-74771428D02*
X18257142Y-74457142D01*
X18285714Y-74400000D01*
X18342857Y-74371428D01*
X18457142Y-74371428D01*
X18514285Y-74400000D01*
X18257142Y-74742857D02*
X18314285Y-74771428D01*
X18457142Y-74771428D01*
X18514285Y-74742857D01*
X18542857Y-74685714D01*
X18542857Y-74628571D01*
X18514285Y-74571428D01*
X18457142Y-74542857D01*
X18314285Y-74542857D01*
X18257142Y-74514285D01*
X17971428Y-74771428D02*
X17971428Y-74371428D01*
X17971428Y-74485714D02*
X17942857Y-74428571D01*
X17914285Y-74400000D01*
X17857142Y-74371428D01*
X17800000Y-74371428D01*
X17342857Y-74771428D02*
X17342857Y-74171428D01*
X17342857Y-74742857D02*
X17400000Y-74771428D01*
X17514285Y-74771428D01*
X17571428Y-74742857D01*
X17600000Y-74714285D01*
X17628571Y-74657142D01*
X17628571Y-74485714D01*
X17600000Y-74428571D01*
X17571428Y-74400000D01*
X17514285Y-74371428D01*
X17400000Y-74371428D01*
X17342857Y-74400000D01*
X16600000Y-74771428D02*
X16600000Y-74371428D01*
X16600000Y-74485714D02*
X16571428Y-74428571D01*
X16542857Y-74400000D01*
X16485714Y-74371428D01*
X16428571Y-74371428D01*
X16000000Y-74742857D02*
X16057142Y-74771428D01*
X16171428Y-74771428D01*
X16228571Y-74742857D01*
X16257142Y-74685714D01*
X16257142Y-74457142D01*
X16228571Y-74400000D01*
X16171428Y-74371428D01*
X16057142Y-74371428D01*
X16000000Y-74400000D01*
X15971428Y-74457142D01*
X15971428Y-74514285D01*
X16257142Y-74571428D01*
X15771428Y-74371428D02*
X15628571Y-74771428D01*
X15485714Y-74371428D01*
X15257142Y-74714285D02*
X15228571Y-74742857D01*
X15257142Y-74771428D01*
X15285714Y-74742857D01*
X15257142Y-74714285D01*
X15257142Y-74771428D01*
X15000000Y-74228571D02*
X14971428Y-74200000D01*
X14914285Y-74171428D01*
X14771428Y-74171428D01*
X14714285Y-74200000D01*
X14685714Y-74228571D01*
X14657142Y-74285714D01*
X14657142Y-74342857D01*
X14685714Y-74428571D01*
X15028571Y-74771428D01*
X14657142Y-74771428D01*
D11*
G04 #@! TO.C,J1*
X3330000Y-25690000D02*
X670000Y-25690000D01*
X3330000Y-2770000D02*
X3330000Y-25690000D01*
X670000Y-2770000D02*
X670000Y-25690000D01*
X3330000Y-2770000D02*
X670000Y-2770000D01*
X3330000Y-1500000D02*
X3330000Y-170000D01*
X3330000Y-170000D02*
X2000000Y-170000D01*
G04 #@! TO.C,J2*
X37330000Y-25690000D02*
X34670000Y-25690000D01*
X37330000Y-2770000D02*
X37330000Y-25690000D01*
X34670000Y-2770000D02*
X34670000Y-25690000D01*
X37330000Y-2770000D02*
X34670000Y-2770000D01*
X37330000Y-1500000D02*
X37330000Y-170000D01*
X37330000Y-170000D02*
X36000000Y-170000D01*
G04 #@! TO.C,J1*
D12*
X4833333Y-952380D02*
X4833333Y-1666666D01*
X4880952Y-1809523D01*
X4976190Y-1904761D01*
X5119047Y-1952380D01*
X5214285Y-1952380D01*
X3833333Y-1952380D02*
X4404761Y-1952380D01*
X4119047Y-1952380D02*
X4119047Y-952380D01*
X4214285Y-1095238D01*
X4309523Y-1190476D01*
X4404761Y-1238095D01*
G04 #@! TO.C,J2*
X33833333Y-952380D02*
X33833333Y-1666666D01*
X33880952Y-1809523D01*
X33976190Y-1904761D01*
X34119047Y-1952380D01*
X34214285Y-1952380D01*
X33404761Y-1047619D02*
X33357142Y-1000000D01*
X33261904Y-952380D01*
X33023809Y-952380D01*
X32928571Y-1000000D01*
X32880952Y-1047619D01*
X32833333Y-1142857D01*
X32833333Y-1238095D01*
X32880952Y-1380952D01*
X33452380Y-1952380D01*
X32833333Y-1952380D01*
G04 #@! TD*
M02*
