M48
INCH,TZ
T1C0.0157
T2C0.0354
T3C0.0393
T4C0.0394
T5C0.0433
T6C0.0826
%
G90
G05
T1
X0.1871Y-2.6978
X0.1926Y-1.6043
X0.194Y-1.5567
X0.2675Y-2.2576
X0.315Y-2.4606
X0.7726Y-1.7456
X0.7745Y-1.6237
X1.2205Y-2.4016
X1.2402Y-0.0591
X1.3315Y-1.0125
T2
X1.278Y-3.3858
X1.378Y-3.3858
X1.278Y-2.126
X1.378Y-2.126
T3
X0.748Y-1.278
X0.748Y-1.378
X0.748Y-1.478
T4
X1.4173Y-0.0591
X1.4173Y-0.1591
X1.4173Y-0.2591
X1.4173Y-0.3591
X1.4173Y-0.4591
X1.4173Y-0.5591
X1.4173Y-0.6591
X1.4173Y-0.7591
X1.4173Y-0.8591
X1.4173Y-0.9591
X0.0787Y-0.0591
X0.0787Y-0.1591
X0.0787Y-0.2591
X0.0787Y-0.3591
X0.0787Y-0.4591
X0.0787Y-0.5591
X0.0787Y-0.6591
X0.0787Y-0.7591
X0.0787Y-0.8591
X0.0787Y-0.9591
T5
X0.4134Y-3.6613
X0.5118Y-3.6613
X0.6102Y-3.6613
X0.561Y-3.7598
X0.561Y-3.878
X0.561Y-4.2125
X0.1772Y-3.7598
X0.1772Y-3.878
X0.1772Y-4.2125
X0.6496Y-2.4015
X0.748Y-2.4015
X0.8464Y-2.4015
X1.1221Y-1.6928
X1.2205Y-1.6928
X1.3189Y-1.6928
X1.1221Y-3.1101
X1.2205Y-3.1101
X1.3189Y-3.1101
X0.1772Y-1.6928
X0.2756Y-1.6928
X0.374Y-1.6928
X0.1772Y-3.1101
X0.2756Y-3.1101
X0.374Y-3.1101
X0.8859Y-3.6613
X0.9843Y-3.6613
X1.0827Y-3.6613
X1.3189Y-3.7598
X1.3189Y-3.878
X1.3189Y-4.2125
X0.935Y-3.7598
X0.935Y-3.878
X0.935Y-4.2125
T6
X0.3347Y-3.3858
X0.6889Y-3.3858
X0.5709Y-2.126
X0.9251Y-2.126
X1.0434Y-1.4173
X1.3976Y-1.4173
X1.0434Y-2.8346
X1.3976Y-2.8346
X0.0985Y-1.4173
X0.4527Y-1.4173
X0.0985Y-2.8346
X0.4527Y-2.8346
X0.8072Y-3.3858
X1.1614Y-3.3858
T0
M30
