G04 #@! TF.GenerationSoftware,KiCad,Pcbnew,(5.0.2)-1*
G04 #@! TF.CreationDate,2019-04-04T13:53:56+02:00*
G04 #@! TF.ProjectId,Corona_controlBoard,436f726f-6e61-45f6-936f-6e74726f6c42,1*
G04 #@! TF.SameCoordinates,Original*
G04 #@! TF.FileFunction,Paste,Bot*
G04 #@! TF.FilePolarity,Positive*
%FSLAX46Y46*%
G04 Gerber Fmt 4.6, Leading zero omitted, Abs format (unit mm)*
G04 Created by KiCad (PCBNEW (5.0.2)-1) date 04/04/2019 13:53:56*
%MOMM*%
%LPD*%
G01*
G04 APERTURE LIST*
%ADD10C,1.648460*%
%ADD11R,1.648460X1.648460*%
%ADD12C,2.794000*%
%ADD13C,1.422400*%
G04 APERTURE END LIST*
D10*
G04 #@! TO.C,J_IN1*
X4500000Y-95500140D03*
X4500000Y-98502420D03*
X4500000Y-106998720D03*
G04 #@! TD*
G04 #@! TO.C,J_OUT1*
X33500000Y-106998720D03*
X33500000Y-98502420D03*
X33500000Y-95500140D03*
G04 #@! TD*
D11*
G04 #@! TO.C,RV_FB1*
X28500640Y-42997700D03*
D10*
X31000000Y-42997700D03*
X33499360Y-42997700D03*
D12*
X26501660Y-36000000D03*
X35498340Y-36000000D03*
G04 #@! TD*
D13*
G04 #@! TO.C,SW1*
X19000000Y-37540000D03*
X19000000Y-32460000D03*
X19000000Y-35000000D03*
G04 #@! TD*
D12*
G04 #@! TO.C,RV_GAIN1*
X35498340Y-72000000D03*
X26501660Y-72000000D03*
D10*
X33499360Y-78997700D03*
X31000000Y-78997700D03*
D11*
X28500640Y-78997700D03*
G04 #@! TD*
D10*
G04 #@! TO.C,J_IN_DRV1*
X14250000Y-106998720D03*
X14250000Y-98502420D03*
X14250000Y-95500140D03*
G04 #@! TD*
G04 #@! TO.C,J_IN_FB1*
X23750000Y-95500140D03*
X23750000Y-98502420D03*
X23750000Y-106998720D03*
G04 #@! TD*
D11*
G04 #@! TO.C,RV_DRV1*
X16500640Y-60997700D03*
D10*
X19000000Y-60997700D03*
X21499360Y-60997700D03*
D12*
X14501660Y-54000000D03*
X23498340Y-54000000D03*
G04 #@! TD*
G04 #@! TO.C,RV_DRV_CV1*
X17498340Y-86000000D03*
X8501660Y-86000000D03*
D10*
X15499360Y-92997700D03*
X13000000Y-92997700D03*
D11*
X10500640Y-92997700D03*
G04 #@! TD*
D12*
G04 #@! TO.C,RV_FB_CV1*
X29498340Y-86000000D03*
X20501660Y-86000000D03*
D10*
X27499360Y-92997700D03*
X25000000Y-92997700D03*
D11*
X22500640Y-92997700D03*
G04 #@! TD*
D12*
G04 #@! TO.C,RV_IN1*
X11498340Y-72000000D03*
X2501660Y-72000000D03*
D10*
X9499360Y-78997700D03*
X7000000Y-78997700D03*
D11*
X4500640Y-78997700D03*
G04 #@! TD*
G04 #@! TO.C,RV_TONE1*
X4500640Y-42997700D03*
D10*
X7000000Y-42997700D03*
X9499360Y-42997700D03*
D12*
X2501660Y-36000000D03*
X11498340Y-36000000D03*
G04 #@! TD*
M02*
