G04 #@! TF.GenerationSoftware,KiCad,Pcbnew,(5.0.2)-1*
G04 #@! TF.CreationDate,2019-04-06T15:29:36+02:00*
G04 #@! TF.ProjectId,Corona_controlBoard,436f726f-6e61-45f6-936f-6e74726f6c42,1*
G04 #@! TF.SameCoordinates,Original*
G04 #@! TF.FileFunction,Paste,Bot*
G04 #@! TF.FilePolarity,Positive*
%FSLAX46Y46*%
G04 Gerber Fmt 4.6, Leading zero omitted, Abs format (unit mm)*
G04 Created by KiCad (PCBNEW (5.0.2)-1) date 6-4-2019 15:29:36*
%MOMM*%
%LPD*%
G01*
G04 APERTURE LIST*
%ADD10C,1.648460*%
%ADD11R,1.648460X1.648460*%
%ADD12C,2.794000*%
%ADD13C,1.422400*%
G04 APERTURE END LIST*
D10*
G04 #@! TO.C,J_IN1*
X4500000Y-95500140D03*
X4500000Y-98502420D03*
X4500000Y-106998720D03*
G04 #@! TD*
G04 #@! TO.C,J_OUT1*
X33500000Y-106998720D03*
X33500000Y-98502420D03*
X33500000Y-95500140D03*
G04 #@! TD*
D11*
G04 #@! TO.C,RV_FB1*
X28500640Y-41497700D03*
D10*
X31000000Y-41497700D03*
X33499360Y-41497700D03*
D12*
X26501660Y-34500000D03*
X35498340Y-34500000D03*
G04 #@! TD*
D13*
G04 #@! TO.C,SW1*
X19000000Y-37040000D03*
X19000000Y-31960000D03*
X19000000Y-34500000D03*
G04 #@! TD*
D12*
G04 #@! TO.C,RV_GAIN1*
X35498340Y-72500000D03*
X26501660Y-72500000D03*
D10*
X33499360Y-79497700D03*
X31000000Y-79497700D03*
D11*
X28500640Y-79497700D03*
G04 #@! TD*
D10*
G04 #@! TO.C,J_IN_DRV1*
X14250000Y-106998720D03*
X14250000Y-98502420D03*
X14250000Y-95500140D03*
G04 #@! TD*
G04 #@! TO.C,J_IN_FB1*
X23750000Y-95500140D03*
X23750000Y-98502420D03*
X23750000Y-106998720D03*
G04 #@! TD*
D11*
G04 #@! TO.C,RV_DRV1*
X16500640Y-60497700D03*
D10*
X19000000Y-60497700D03*
X21499360Y-60497700D03*
D12*
X14501660Y-53500000D03*
X23498340Y-53500000D03*
G04 #@! TD*
G04 #@! TO.C,RV_DRV_CV1*
X8501660Y-89000000D03*
X17498340Y-89000000D03*
D10*
X10500640Y-82002300D03*
X13000000Y-82002300D03*
D11*
X15499360Y-82002300D03*
G04 #@! TD*
D12*
G04 #@! TO.C,RV_FB_CV1*
X20501660Y-89000000D03*
X29498340Y-89000000D03*
D10*
X22500640Y-82002300D03*
X25000000Y-82002300D03*
D11*
X27499360Y-82002300D03*
G04 #@! TD*
D12*
G04 #@! TO.C,RV_IN1*
X11498340Y-72500000D03*
X2501660Y-72500000D03*
D10*
X9499360Y-79497700D03*
X7000000Y-79497700D03*
D11*
X4500640Y-79497700D03*
G04 #@! TD*
G04 #@! TO.C,RV_TONE1*
X4500640Y-41497700D03*
D10*
X7000000Y-41497700D03*
X9499360Y-41497700D03*
D12*
X2501660Y-34500000D03*
X11498340Y-34500000D03*
G04 #@! TD*
M02*
