G04 #@! TF.GenerationSoftware,KiCad,Pcbnew,(5.0.2)-1*
G04 #@! TF.CreationDate,2019-04-04T13:53:56+02:00*
G04 #@! TF.ProjectId,Corona_controlBoard,436f726f-6e61-45f6-936f-6e74726f6c42,1*
G04 #@! TF.SameCoordinates,Original*
G04 #@! TF.FileFunction,Soldermask,Top*
G04 #@! TF.FilePolarity,Negative*
%FSLAX46Y46*%
G04 Gerber Fmt 4.6, Leading zero omitted, Abs format (unit mm)*
G04 Created by KiCad (PCBNEW (5.0.2)-1) date 04/04/2019 13:53:56*
%MOMM*%
%LPD*%
G01*
G04 APERTURE LIST*
%ADD10C,0.100000*%
G04 APERTURE END LIST*
D10*
G36*
X14548757Y-106013850D02*
X14735155Y-106091058D01*
X14902912Y-106203150D01*
X15045570Y-106345808D01*
X15157662Y-106513565D01*
X15234870Y-106699963D01*
X15274230Y-106897841D01*
X15274230Y-107099599D01*
X15234870Y-107297477D01*
X15157662Y-107483875D01*
X15045570Y-107651632D01*
X14902912Y-107794290D01*
X14735155Y-107906382D01*
X14548757Y-107983590D01*
X14350879Y-108022950D01*
X14149121Y-108022950D01*
X13951243Y-107983590D01*
X13764845Y-107906382D01*
X13597088Y-107794290D01*
X13454430Y-107651632D01*
X13342338Y-107483875D01*
X13265130Y-107297477D01*
X13225770Y-107099599D01*
X13225770Y-106897841D01*
X13265130Y-106699963D01*
X13342338Y-106513565D01*
X13454430Y-106345808D01*
X13597088Y-106203150D01*
X13764845Y-106091058D01*
X13951243Y-106013850D01*
X14149121Y-105974490D01*
X14350879Y-105974490D01*
X14548757Y-106013850D01*
X14548757Y-106013850D01*
G37*
G36*
X24048757Y-106013850D02*
X24235155Y-106091058D01*
X24402912Y-106203150D01*
X24545570Y-106345808D01*
X24657662Y-106513565D01*
X24734870Y-106699963D01*
X24774230Y-106897841D01*
X24774230Y-107099599D01*
X24734870Y-107297477D01*
X24657662Y-107483875D01*
X24545570Y-107651632D01*
X24402912Y-107794290D01*
X24235155Y-107906382D01*
X24048757Y-107983590D01*
X23850879Y-108022950D01*
X23649121Y-108022950D01*
X23451243Y-107983590D01*
X23264845Y-107906382D01*
X23097088Y-107794290D01*
X22954430Y-107651632D01*
X22842338Y-107483875D01*
X22765130Y-107297477D01*
X22725770Y-107099599D01*
X22725770Y-106897841D01*
X22765130Y-106699963D01*
X22842338Y-106513565D01*
X22954430Y-106345808D01*
X23097088Y-106203150D01*
X23264845Y-106091058D01*
X23451243Y-106013850D01*
X23649121Y-105974490D01*
X23850879Y-105974490D01*
X24048757Y-106013850D01*
X24048757Y-106013850D01*
G37*
G36*
X4798757Y-106013850D02*
X4985155Y-106091058D01*
X5152912Y-106203150D01*
X5295570Y-106345808D01*
X5407662Y-106513565D01*
X5484870Y-106699963D01*
X5524230Y-106897841D01*
X5524230Y-107099599D01*
X5484870Y-107297477D01*
X5407662Y-107483875D01*
X5295570Y-107651632D01*
X5152912Y-107794290D01*
X4985155Y-107906382D01*
X4798757Y-107983590D01*
X4600879Y-108022950D01*
X4399121Y-108022950D01*
X4201243Y-107983590D01*
X4014845Y-107906382D01*
X3847088Y-107794290D01*
X3704430Y-107651632D01*
X3592338Y-107483875D01*
X3515130Y-107297477D01*
X3475770Y-107099599D01*
X3475770Y-106897841D01*
X3515130Y-106699963D01*
X3592338Y-106513565D01*
X3704430Y-106345808D01*
X3847088Y-106203150D01*
X4014845Y-106091058D01*
X4201243Y-106013850D01*
X4399121Y-105974490D01*
X4600879Y-105974490D01*
X4798757Y-106013850D01*
X4798757Y-106013850D01*
G37*
G36*
X33798757Y-106013850D02*
X33985155Y-106091058D01*
X34152912Y-106203150D01*
X34295570Y-106345808D01*
X34407662Y-106513565D01*
X34484870Y-106699963D01*
X34524230Y-106897841D01*
X34524230Y-107099599D01*
X34484870Y-107297477D01*
X34407662Y-107483875D01*
X34295570Y-107651632D01*
X34152912Y-107794290D01*
X33985155Y-107906382D01*
X33798757Y-107983590D01*
X33600879Y-108022950D01*
X33399121Y-108022950D01*
X33201243Y-107983590D01*
X33014845Y-107906382D01*
X32847088Y-107794290D01*
X32704430Y-107651632D01*
X32592338Y-107483875D01*
X32515130Y-107297477D01*
X32475770Y-107099599D01*
X32475770Y-106897841D01*
X32515130Y-106699963D01*
X32592338Y-106513565D01*
X32704430Y-106345808D01*
X32847088Y-106203150D01*
X33014845Y-106091058D01*
X33201243Y-106013850D01*
X33399121Y-105974490D01*
X33600879Y-105974490D01*
X33798757Y-106013850D01*
X33798757Y-106013850D01*
G37*
G36*
X4886393Y-100343553D02*
X4995872Y-100365330D01*
X5305252Y-100493479D01*
X5583687Y-100679523D01*
X5820477Y-100916313D01*
X6006521Y-101194748D01*
X6134670Y-101504128D01*
X6200000Y-101832565D01*
X6200000Y-102167435D01*
X6134670Y-102495872D01*
X6006521Y-102805252D01*
X5820477Y-103083687D01*
X5583687Y-103320477D01*
X5305252Y-103506521D01*
X4995872Y-103634670D01*
X4886393Y-103656447D01*
X4667437Y-103700000D01*
X4332563Y-103700000D01*
X4113607Y-103656447D01*
X4004128Y-103634670D01*
X3694748Y-103506521D01*
X3416313Y-103320477D01*
X3179523Y-103083687D01*
X2993479Y-102805252D01*
X2865330Y-102495872D01*
X2800000Y-102167435D01*
X2800000Y-101832565D01*
X2865330Y-101504128D01*
X2993479Y-101194748D01*
X3179523Y-100916313D01*
X3416313Y-100679523D01*
X3694748Y-100493479D01*
X4004128Y-100365330D01*
X4113607Y-100343553D01*
X4332563Y-100300000D01*
X4667437Y-100300000D01*
X4886393Y-100343553D01*
X4886393Y-100343553D01*
G37*
G36*
X24136393Y-100343553D02*
X24245872Y-100365330D01*
X24555252Y-100493479D01*
X24833687Y-100679523D01*
X25070477Y-100916313D01*
X25256521Y-101194748D01*
X25384670Y-101504128D01*
X25450000Y-101832565D01*
X25450000Y-102167435D01*
X25384670Y-102495872D01*
X25256521Y-102805252D01*
X25070477Y-103083687D01*
X24833687Y-103320477D01*
X24555252Y-103506521D01*
X24245872Y-103634670D01*
X24136393Y-103656447D01*
X23917437Y-103700000D01*
X23582563Y-103700000D01*
X23363607Y-103656447D01*
X23254128Y-103634670D01*
X22944748Y-103506521D01*
X22666313Y-103320477D01*
X22429523Y-103083687D01*
X22243479Y-102805252D01*
X22115330Y-102495872D01*
X22050000Y-102167435D01*
X22050000Y-101832565D01*
X22115330Y-101504128D01*
X22243479Y-101194748D01*
X22429523Y-100916313D01*
X22666313Y-100679523D01*
X22944748Y-100493479D01*
X23254128Y-100365330D01*
X23363607Y-100343553D01*
X23582563Y-100300000D01*
X23917437Y-100300000D01*
X24136393Y-100343553D01*
X24136393Y-100343553D01*
G37*
G36*
X33886393Y-100343553D02*
X33995872Y-100365330D01*
X34305252Y-100493479D01*
X34583687Y-100679523D01*
X34820477Y-100916313D01*
X35006521Y-101194748D01*
X35134670Y-101504128D01*
X35200000Y-101832565D01*
X35200000Y-102167435D01*
X35134670Y-102495872D01*
X35006521Y-102805252D01*
X34820477Y-103083687D01*
X34583687Y-103320477D01*
X34305252Y-103506521D01*
X33995872Y-103634670D01*
X33886393Y-103656447D01*
X33667437Y-103700000D01*
X33332563Y-103700000D01*
X33113607Y-103656447D01*
X33004128Y-103634670D01*
X32694748Y-103506521D01*
X32416313Y-103320477D01*
X32179523Y-103083687D01*
X31993479Y-102805252D01*
X31865330Y-102495872D01*
X31800000Y-102167435D01*
X31800000Y-101832565D01*
X31865330Y-101504128D01*
X31993479Y-101194748D01*
X32179523Y-100916313D01*
X32416313Y-100679523D01*
X32694748Y-100493479D01*
X33004128Y-100365330D01*
X33113607Y-100343553D01*
X33332563Y-100300000D01*
X33667437Y-100300000D01*
X33886393Y-100343553D01*
X33886393Y-100343553D01*
G37*
G36*
X14636393Y-100343553D02*
X14745872Y-100365330D01*
X15055252Y-100493479D01*
X15333687Y-100679523D01*
X15570477Y-100916313D01*
X15756521Y-101194748D01*
X15884670Y-101504128D01*
X15950000Y-101832565D01*
X15950000Y-102167435D01*
X15884670Y-102495872D01*
X15756521Y-102805252D01*
X15570477Y-103083687D01*
X15333687Y-103320477D01*
X15055252Y-103506521D01*
X14745872Y-103634670D01*
X14636393Y-103656447D01*
X14417437Y-103700000D01*
X14082563Y-103700000D01*
X13863607Y-103656447D01*
X13754128Y-103634670D01*
X13444748Y-103506521D01*
X13166313Y-103320477D01*
X12929523Y-103083687D01*
X12743479Y-102805252D01*
X12615330Y-102495872D01*
X12550000Y-102167435D01*
X12550000Y-101832565D01*
X12615330Y-101504128D01*
X12743479Y-101194748D01*
X12929523Y-100916313D01*
X13166313Y-100679523D01*
X13444748Y-100493479D01*
X13754128Y-100365330D01*
X13863607Y-100343553D01*
X14082563Y-100300000D01*
X14417437Y-100300000D01*
X14636393Y-100343553D01*
X14636393Y-100343553D01*
G37*
G36*
X4798757Y-97517550D02*
X4985155Y-97594758D01*
X5152912Y-97706850D01*
X5295570Y-97849508D01*
X5407662Y-98017265D01*
X5484870Y-98203663D01*
X5524230Y-98401541D01*
X5524230Y-98603299D01*
X5484870Y-98801177D01*
X5407662Y-98987575D01*
X5295570Y-99155332D01*
X5152912Y-99297990D01*
X4985155Y-99410082D01*
X4798757Y-99487290D01*
X4600879Y-99526650D01*
X4399121Y-99526650D01*
X4201243Y-99487290D01*
X4014845Y-99410082D01*
X3847088Y-99297990D01*
X3704430Y-99155332D01*
X3592338Y-98987575D01*
X3515130Y-98801177D01*
X3475770Y-98603299D01*
X3475770Y-98401541D01*
X3515130Y-98203663D01*
X3592338Y-98017265D01*
X3704430Y-97849508D01*
X3847088Y-97706850D01*
X4014845Y-97594758D01*
X4201243Y-97517550D01*
X4399121Y-97478190D01*
X4600879Y-97478190D01*
X4798757Y-97517550D01*
X4798757Y-97517550D01*
G37*
G36*
X33798757Y-97517550D02*
X33985155Y-97594758D01*
X34152912Y-97706850D01*
X34295570Y-97849508D01*
X34407662Y-98017265D01*
X34484870Y-98203663D01*
X34524230Y-98401541D01*
X34524230Y-98603299D01*
X34484870Y-98801177D01*
X34407662Y-98987575D01*
X34295570Y-99155332D01*
X34152912Y-99297990D01*
X33985155Y-99410082D01*
X33798757Y-99487290D01*
X33600879Y-99526650D01*
X33399121Y-99526650D01*
X33201243Y-99487290D01*
X33014845Y-99410082D01*
X32847088Y-99297990D01*
X32704430Y-99155332D01*
X32592338Y-98987575D01*
X32515130Y-98801177D01*
X32475770Y-98603299D01*
X32475770Y-98401541D01*
X32515130Y-98203663D01*
X32592338Y-98017265D01*
X32704430Y-97849508D01*
X32847088Y-97706850D01*
X33014845Y-97594758D01*
X33201243Y-97517550D01*
X33399121Y-97478190D01*
X33600879Y-97478190D01*
X33798757Y-97517550D01*
X33798757Y-97517550D01*
G37*
G36*
X24048757Y-97517550D02*
X24235155Y-97594758D01*
X24402912Y-97706850D01*
X24545570Y-97849508D01*
X24657662Y-98017265D01*
X24734870Y-98203663D01*
X24774230Y-98401541D01*
X24774230Y-98603299D01*
X24734870Y-98801177D01*
X24657662Y-98987575D01*
X24545570Y-99155332D01*
X24402912Y-99297990D01*
X24235155Y-99410082D01*
X24048757Y-99487290D01*
X23850879Y-99526650D01*
X23649121Y-99526650D01*
X23451243Y-99487290D01*
X23264845Y-99410082D01*
X23097088Y-99297990D01*
X22954430Y-99155332D01*
X22842338Y-98987575D01*
X22765130Y-98801177D01*
X22725770Y-98603299D01*
X22725770Y-98401541D01*
X22765130Y-98203663D01*
X22842338Y-98017265D01*
X22954430Y-97849508D01*
X23097088Y-97706850D01*
X23264845Y-97594758D01*
X23451243Y-97517550D01*
X23649121Y-97478190D01*
X23850879Y-97478190D01*
X24048757Y-97517550D01*
X24048757Y-97517550D01*
G37*
G36*
X14548757Y-97517550D02*
X14735155Y-97594758D01*
X14902912Y-97706850D01*
X15045570Y-97849508D01*
X15157662Y-98017265D01*
X15234870Y-98203663D01*
X15274230Y-98401541D01*
X15274230Y-98603299D01*
X15234870Y-98801177D01*
X15157662Y-98987575D01*
X15045570Y-99155332D01*
X14902912Y-99297990D01*
X14735155Y-99410082D01*
X14548757Y-99487290D01*
X14350879Y-99526650D01*
X14149121Y-99526650D01*
X13951243Y-99487290D01*
X13764845Y-99410082D01*
X13597088Y-99297990D01*
X13454430Y-99155332D01*
X13342338Y-98987575D01*
X13265130Y-98801177D01*
X13225770Y-98603299D01*
X13225770Y-98401541D01*
X13265130Y-98203663D01*
X13342338Y-98017265D01*
X13454430Y-97849508D01*
X13597088Y-97706850D01*
X13764845Y-97594758D01*
X13951243Y-97517550D01*
X14149121Y-97478190D01*
X14350879Y-97478190D01*
X14548757Y-97517550D01*
X14548757Y-97517550D01*
G37*
G36*
X24048757Y-94515270D02*
X24235155Y-94592478D01*
X24402912Y-94704570D01*
X24545570Y-94847228D01*
X24657662Y-95014985D01*
X24734870Y-95201383D01*
X24774230Y-95399261D01*
X24774230Y-95601019D01*
X24734870Y-95798897D01*
X24657662Y-95985295D01*
X24545570Y-96153052D01*
X24402912Y-96295710D01*
X24235155Y-96407802D01*
X24048757Y-96485010D01*
X23850879Y-96524370D01*
X23649121Y-96524370D01*
X23451243Y-96485010D01*
X23264845Y-96407802D01*
X23097088Y-96295710D01*
X22954430Y-96153052D01*
X22842338Y-95985295D01*
X22765130Y-95798897D01*
X22725770Y-95601019D01*
X22725770Y-95399261D01*
X22765130Y-95201383D01*
X22842338Y-95014985D01*
X22954430Y-94847228D01*
X23097088Y-94704570D01*
X23264845Y-94592478D01*
X23451243Y-94515270D01*
X23649121Y-94475910D01*
X23850879Y-94475910D01*
X24048757Y-94515270D01*
X24048757Y-94515270D01*
G37*
G36*
X33798757Y-94515270D02*
X33985155Y-94592478D01*
X34152912Y-94704570D01*
X34295570Y-94847228D01*
X34407662Y-95014985D01*
X34484870Y-95201383D01*
X34524230Y-95399261D01*
X34524230Y-95601019D01*
X34484870Y-95798897D01*
X34407662Y-95985295D01*
X34295570Y-96153052D01*
X34152912Y-96295710D01*
X33985155Y-96407802D01*
X33798757Y-96485010D01*
X33600879Y-96524370D01*
X33399121Y-96524370D01*
X33201243Y-96485010D01*
X33014845Y-96407802D01*
X32847088Y-96295710D01*
X32704430Y-96153052D01*
X32592338Y-95985295D01*
X32515130Y-95798897D01*
X32475770Y-95601019D01*
X32475770Y-95399261D01*
X32515130Y-95201383D01*
X32592338Y-95014985D01*
X32704430Y-94847228D01*
X32847088Y-94704570D01*
X33014845Y-94592478D01*
X33201243Y-94515270D01*
X33399121Y-94475910D01*
X33600879Y-94475910D01*
X33798757Y-94515270D01*
X33798757Y-94515270D01*
G37*
G36*
X14548757Y-94515270D02*
X14735155Y-94592478D01*
X14902912Y-94704570D01*
X15045570Y-94847228D01*
X15157662Y-95014985D01*
X15234870Y-95201383D01*
X15274230Y-95399261D01*
X15274230Y-95601019D01*
X15234870Y-95798897D01*
X15157662Y-95985295D01*
X15045570Y-96153052D01*
X14902912Y-96295710D01*
X14735155Y-96407802D01*
X14548757Y-96485010D01*
X14350879Y-96524370D01*
X14149121Y-96524370D01*
X13951243Y-96485010D01*
X13764845Y-96407802D01*
X13597088Y-96295710D01*
X13454430Y-96153052D01*
X13342338Y-95985295D01*
X13265130Y-95798897D01*
X13225770Y-95601019D01*
X13225770Y-95399261D01*
X13265130Y-95201383D01*
X13342338Y-95014985D01*
X13454430Y-94847228D01*
X13597088Y-94704570D01*
X13764845Y-94592478D01*
X13951243Y-94515270D01*
X14149121Y-94475910D01*
X14350879Y-94475910D01*
X14548757Y-94515270D01*
X14548757Y-94515270D01*
G37*
G36*
X4798757Y-94515270D02*
X4985155Y-94592478D01*
X5152912Y-94704570D01*
X5295570Y-94847228D01*
X5407662Y-95014985D01*
X5484870Y-95201383D01*
X5524230Y-95399261D01*
X5524230Y-95601019D01*
X5484870Y-95798897D01*
X5407662Y-95985295D01*
X5295570Y-96153052D01*
X5152912Y-96295710D01*
X4985155Y-96407802D01*
X4798757Y-96485010D01*
X4600879Y-96524370D01*
X4399121Y-96524370D01*
X4201243Y-96485010D01*
X4014845Y-96407802D01*
X3847088Y-96295710D01*
X3704430Y-96153052D01*
X3592338Y-95985295D01*
X3515130Y-95798897D01*
X3475770Y-95601019D01*
X3475770Y-95399261D01*
X3515130Y-95201383D01*
X3592338Y-95014985D01*
X3704430Y-94847228D01*
X3847088Y-94704570D01*
X4014845Y-94592478D01*
X4201243Y-94515270D01*
X4399121Y-94475910D01*
X4600879Y-94475910D01*
X4798757Y-94515270D01*
X4798757Y-94515270D01*
G37*
G36*
X25298757Y-92012830D02*
X25485155Y-92090038D01*
X25652912Y-92202130D01*
X25795570Y-92344788D01*
X25907662Y-92512545D01*
X25984870Y-92698943D01*
X26024230Y-92896821D01*
X26024230Y-93098579D01*
X25984870Y-93296457D01*
X25907662Y-93482855D01*
X25795570Y-93650612D01*
X25652912Y-93793270D01*
X25485155Y-93905362D01*
X25298757Y-93982570D01*
X25100879Y-94021930D01*
X24899121Y-94021930D01*
X24701243Y-93982570D01*
X24514845Y-93905362D01*
X24347088Y-93793270D01*
X24204430Y-93650612D01*
X24092338Y-93482855D01*
X24015130Y-93296457D01*
X23975770Y-93098579D01*
X23975770Y-92896821D01*
X24015130Y-92698943D01*
X24092338Y-92512545D01*
X24204430Y-92344788D01*
X24347088Y-92202130D01*
X24514845Y-92090038D01*
X24701243Y-92012830D01*
X24899121Y-91973470D01*
X25100879Y-91973470D01*
X25298757Y-92012830D01*
X25298757Y-92012830D01*
G37*
G36*
X15798117Y-92012830D02*
X15984515Y-92090038D01*
X16152272Y-92202130D01*
X16294930Y-92344788D01*
X16407022Y-92512545D01*
X16484230Y-92698943D01*
X16523590Y-92896821D01*
X16523590Y-93098579D01*
X16484230Y-93296457D01*
X16407022Y-93482855D01*
X16294930Y-93650612D01*
X16152272Y-93793270D01*
X15984515Y-93905362D01*
X15798117Y-93982570D01*
X15600239Y-94021930D01*
X15398481Y-94021930D01*
X15200603Y-93982570D01*
X15014205Y-93905362D01*
X14846448Y-93793270D01*
X14703790Y-93650612D01*
X14591698Y-93482855D01*
X14514490Y-93296457D01*
X14475130Y-93098579D01*
X14475130Y-92896821D01*
X14514490Y-92698943D01*
X14591698Y-92512545D01*
X14703790Y-92344788D01*
X14846448Y-92202130D01*
X15014205Y-92090038D01*
X15200603Y-92012830D01*
X15398481Y-91973470D01*
X15600239Y-91973470D01*
X15798117Y-92012830D01*
X15798117Y-92012830D01*
G37*
G36*
X13298757Y-92012830D02*
X13485155Y-92090038D01*
X13652912Y-92202130D01*
X13795570Y-92344788D01*
X13907662Y-92512545D01*
X13984870Y-92698943D01*
X14024230Y-92896821D01*
X14024230Y-93098579D01*
X13984870Y-93296457D01*
X13907662Y-93482855D01*
X13795570Y-93650612D01*
X13652912Y-93793270D01*
X13485155Y-93905362D01*
X13298757Y-93982570D01*
X13100879Y-94021930D01*
X12899121Y-94021930D01*
X12701243Y-93982570D01*
X12514845Y-93905362D01*
X12347088Y-93793270D01*
X12204430Y-93650612D01*
X12092338Y-93482855D01*
X12015130Y-93296457D01*
X11975770Y-93098579D01*
X11975770Y-92896821D01*
X12015130Y-92698943D01*
X12092338Y-92512545D01*
X12204430Y-92344788D01*
X12347088Y-92202130D01*
X12514845Y-92090038D01*
X12701243Y-92012830D01*
X12899121Y-91973470D01*
X13100879Y-91973470D01*
X13298757Y-92012830D01*
X13298757Y-92012830D01*
G37*
G36*
X11524870Y-94021930D02*
X9476410Y-94021930D01*
X9476410Y-91973470D01*
X11524870Y-91973470D01*
X11524870Y-94021930D01*
X11524870Y-94021930D01*
G37*
G36*
X27798117Y-92012830D02*
X27984515Y-92090038D01*
X28152272Y-92202130D01*
X28294930Y-92344788D01*
X28407022Y-92512545D01*
X28484230Y-92698943D01*
X28523590Y-92896821D01*
X28523590Y-93098579D01*
X28484230Y-93296457D01*
X28407022Y-93482855D01*
X28294930Y-93650612D01*
X28152272Y-93793270D01*
X27984515Y-93905362D01*
X27798117Y-93982570D01*
X27600239Y-94021930D01*
X27398481Y-94021930D01*
X27200603Y-93982570D01*
X27014205Y-93905362D01*
X26846448Y-93793270D01*
X26703790Y-93650612D01*
X26591698Y-93482855D01*
X26514490Y-93296457D01*
X26475130Y-93098579D01*
X26475130Y-92896821D01*
X26514490Y-92698943D01*
X26591698Y-92512545D01*
X26703790Y-92344788D01*
X26846448Y-92202130D01*
X27014205Y-92090038D01*
X27200603Y-92012830D01*
X27398481Y-91973470D01*
X27600239Y-91973470D01*
X27798117Y-92012830D01*
X27798117Y-92012830D01*
G37*
G36*
X23524870Y-94021930D02*
X21476410Y-94021930D01*
X21476410Y-91973470D01*
X23524870Y-91973470D01*
X23524870Y-94021930D01*
X23524870Y-94021930D01*
G37*
G36*
X29964168Y-84464372D02*
X30084552Y-84514237D01*
X30254802Y-84584756D01*
X30516371Y-84759531D01*
X30738809Y-84981969D01*
X30913584Y-85243538D01*
X30936470Y-85298791D01*
X31033968Y-85534172D01*
X31095340Y-85842709D01*
X31095340Y-86157291D01*
X31033968Y-86465828D01*
X31011096Y-86521045D01*
X30913584Y-86756462D01*
X30738809Y-87018031D01*
X30516371Y-87240469D01*
X30254802Y-87415244D01*
X30084552Y-87485763D01*
X29964168Y-87535628D01*
X29809899Y-87566314D01*
X29655632Y-87597000D01*
X29341048Y-87597000D01*
X29186781Y-87566314D01*
X29032512Y-87535628D01*
X28912128Y-87485763D01*
X28741878Y-87415244D01*
X28480309Y-87240469D01*
X28257871Y-87018031D01*
X28083096Y-86756462D01*
X27985584Y-86521045D01*
X27962712Y-86465828D01*
X27901340Y-86157291D01*
X27901340Y-85842709D01*
X27962712Y-85534172D01*
X28060210Y-85298791D01*
X28083096Y-85243538D01*
X28257871Y-84981969D01*
X28480309Y-84759531D01*
X28741878Y-84584756D01*
X28912128Y-84514237D01*
X29032512Y-84464372D01*
X29341048Y-84403000D01*
X29655632Y-84403000D01*
X29964168Y-84464372D01*
X29964168Y-84464372D01*
G37*
G36*
X17964168Y-84464372D02*
X18084552Y-84514237D01*
X18254802Y-84584756D01*
X18516371Y-84759531D01*
X18738809Y-84981969D01*
X18896066Y-85217320D01*
X18911612Y-85236262D01*
X18930554Y-85251808D01*
X18952165Y-85263359D01*
X18975614Y-85270472D01*
X19000000Y-85272874D01*
X19024386Y-85270472D01*
X19047836Y-85263359D01*
X19069446Y-85251808D01*
X19088388Y-85236262D01*
X19103934Y-85217320D01*
X19261191Y-84981969D01*
X19483629Y-84759531D01*
X19745198Y-84584756D01*
X19915448Y-84514237D01*
X20035832Y-84464372D01*
X20344368Y-84403000D01*
X20658952Y-84403000D01*
X20967488Y-84464372D01*
X21087872Y-84514237D01*
X21258122Y-84584756D01*
X21519691Y-84759531D01*
X21742129Y-84981969D01*
X21916904Y-85243538D01*
X21939790Y-85298791D01*
X22037288Y-85534172D01*
X22098660Y-85842709D01*
X22098660Y-86157291D01*
X22037288Y-86465828D01*
X22014416Y-86521045D01*
X21916904Y-86756462D01*
X21742129Y-87018031D01*
X21519691Y-87240469D01*
X21258122Y-87415244D01*
X21087872Y-87485763D01*
X20967488Y-87535628D01*
X20813219Y-87566314D01*
X20658952Y-87597000D01*
X20344368Y-87597000D01*
X20190101Y-87566314D01*
X20035832Y-87535628D01*
X19915448Y-87485763D01*
X19745198Y-87415244D01*
X19483629Y-87240469D01*
X19261191Y-87018031D01*
X19103934Y-86782680D01*
X19088388Y-86763738D01*
X19069446Y-86748192D01*
X19047835Y-86736641D01*
X19024386Y-86729528D01*
X19000000Y-86727126D01*
X18975614Y-86729528D01*
X18952164Y-86736641D01*
X18930554Y-86748192D01*
X18911612Y-86763738D01*
X18896066Y-86782680D01*
X18738809Y-87018031D01*
X18516371Y-87240469D01*
X18254802Y-87415244D01*
X18084552Y-87485763D01*
X17964168Y-87535628D01*
X17809899Y-87566314D01*
X17655632Y-87597000D01*
X17341048Y-87597000D01*
X17186781Y-87566314D01*
X17032512Y-87535628D01*
X16912128Y-87485763D01*
X16741878Y-87415244D01*
X16480309Y-87240469D01*
X16257871Y-87018031D01*
X16083096Y-86756462D01*
X15985584Y-86521045D01*
X15962712Y-86465828D01*
X15901340Y-86157291D01*
X15901340Y-85842709D01*
X15962712Y-85534172D01*
X16060210Y-85298791D01*
X16083096Y-85243538D01*
X16257871Y-84981969D01*
X16480309Y-84759531D01*
X16741878Y-84584756D01*
X16912128Y-84514237D01*
X17032512Y-84464372D01*
X17341048Y-84403000D01*
X17655632Y-84403000D01*
X17964168Y-84464372D01*
X17964168Y-84464372D01*
G37*
G36*
X8967488Y-84464372D02*
X9087872Y-84514237D01*
X9258122Y-84584756D01*
X9519691Y-84759531D01*
X9742129Y-84981969D01*
X9916904Y-85243538D01*
X9939790Y-85298791D01*
X10037288Y-85534172D01*
X10098660Y-85842709D01*
X10098660Y-86157291D01*
X10037288Y-86465828D01*
X10014416Y-86521045D01*
X9916904Y-86756462D01*
X9742129Y-87018031D01*
X9519691Y-87240469D01*
X9258122Y-87415244D01*
X9087872Y-87485763D01*
X8967488Y-87535628D01*
X8813219Y-87566314D01*
X8658952Y-87597000D01*
X8344368Y-87597000D01*
X8190101Y-87566314D01*
X8035832Y-87535628D01*
X7915448Y-87485763D01*
X7745198Y-87415244D01*
X7483629Y-87240469D01*
X7261191Y-87018031D01*
X7086416Y-86756462D01*
X6988904Y-86521045D01*
X6966032Y-86465828D01*
X6904660Y-86157291D01*
X6904660Y-85842709D01*
X6966032Y-85534172D01*
X7063530Y-85298791D01*
X7086416Y-85243538D01*
X7261191Y-84981969D01*
X7483629Y-84759531D01*
X7745198Y-84584756D01*
X7915448Y-84514237D01*
X8035832Y-84464372D01*
X8344368Y-84403000D01*
X8658952Y-84403000D01*
X8967488Y-84464372D01*
X8967488Y-84464372D01*
G37*
G36*
X36100000Y-87100000D02*
X33900000Y-87100000D01*
X33900000Y-84900000D01*
X36100000Y-84900000D01*
X36100000Y-87100000D01*
X36100000Y-87100000D01*
G37*
G36*
X32780857Y-84942272D02*
X32981042Y-85025191D01*
X33161213Y-85145578D01*
X33314422Y-85298787D01*
X33434809Y-85478958D01*
X33517728Y-85679143D01*
X33560000Y-85891658D01*
X33560000Y-86108342D01*
X33517728Y-86320857D01*
X33434809Y-86521042D01*
X33314422Y-86701213D01*
X33161213Y-86854422D01*
X32981042Y-86974809D01*
X32780857Y-87057728D01*
X32568342Y-87100000D01*
X32351658Y-87100000D01*
X32139143Y-87057728D01*
X31938958Y-86974809D01*
X31758787Y-86854422D01*
X31605578Y-86701213D01*
X31485191Y-86521042D01*
X31402272Y-86320857D01*
X31360000Y-86108342D01*
X31360000Y-85891658D01*
X31402272Y-85679143D01*
X31485191Y-85478958D01*
X31605578Y-85298787D01*
X31758787Y-85145578D01*
X31938958Y-85025191D01*
X32139143Y-84942272D01*
X32351658Y-84900000D01*
X32568342Y-84900000D01*
X32780857Y-84942272D01*
X32780857Y-84942272D01*
G37*
G36*
X9798117Y-78012830D02*
X9984515Y-78090038D01*
X10152272Y-78202130D01*
X10294930Y-78344788D01*
X10407022Y-78512545D01*
X10484230Y-78698943D01*
X10523590Y-78896821D01*
X10523590Y-79098579D01*
X10484230Y-79296457D01*
X10407022Y-79482855D01*
X10294930Y-79650612D01*
X10152272Y-79793270D01*
X9984515Y-79905362D01*
X9798117Y-79982570D01*
X9600239Y-80021930D01*
X9398481Y-80021930D01*
X9200603Y-79982570D01*
X9014205Y-79905362D01*
X8846448Y-79793270D01*
X8703790Y-79650612D01*
X8591698Y-79482855D01*
X8514490Y-79296457D01*
X8475130Y-79098579D01*
X8475130Y-78896821D01*
X8514490Y-78698943D01*
X8591698Y-78512545D01*
X8703790Y-78344788D01*
X8846448Y-78202130D01*
X9014205Y-78090038D01*
X9200603Y-78012830D01*
X9398481Y-77973470D01*
X9600239Y-77973470D01*
X9798117Y-78012830D01*
X9798117Y-78012830D01*
G37*
G36*
X7298757Y-78012830D02*
X7485155Y-78090038D01*
X7652912Y-78202130D01*
X7795570Y-78344788D01*
X7907662Y-78512545D01*
X7984870Y-78698943D01*
X8024230Y-78896821D01*
X8024230Y-79098579D01*
X7984870Y-79296457D01*
X7907662Y-79482855D01*
X7795570Y-79650612D01*
X7652912Y-79793270D01*
X7485155Y-79905362D01*
X7298757Y-79982570D01*
X7100879Y-80021930D01*
X6899121Y-80021930D01*
X6701243Y-79982570D01*
X6514845Y-79905362D01*
X6347088Y-79793270D01*
X6204430Y-79650612D01*
X6092338Y-79482855D01*
X6015130Y-79296457D01*
X5975770Y-79098579D01*
X5975770Y-78896821D01*
X6015130Y-78698943D01*
X6092338Y-78512545D01*
X6204430Y-78344788D01*
X6347088Y-78202130D01*
X6514845Y-78090038D01*
X6701243Y-78012830D01*
X6899121Y-77973470D01*
X7100879Y-77973470D01*
X7298757Y-78012830D01*
X7298757Y-78012830D01*
G37*
G36*
X29524870Y-80021930D02*
X27476410Y-80021930D01*
X27476410Y-77973470D01*
X29524870Y-77973470D01*
X29524870Y-80021930D01*
X29524870Y-80021930D01*
G37*
G36*
X31298757Y-78012830D02*
X31485155Y-78090038D01*
X31652912Y-78202130D01*
X31795570Y-78344788D01*
X31907662Y-78512545D01*
X31984870Y-78698943D01*
X32024230Y-78896821D01*
X32024230Y-79098579D01*
X31984870Y-79296457D01*
X31907662Y-79482855D01*
X31795570Y-79650612D01*
X31652912Y-79793270D01*
X31485155Y-79905362D01*
X31298757Y-79982570D01*
X31100879Y-80021930D01*
X30899121Y-80021930D01*
X30701243Y-79982570D01*
X30514845Y-79905362D01*
X30347088Y-79793270D01*
X30204430Y-79650612D01*
X30092338Y-79482855D01*
X30015130Y-79296457D01*
X29975770Y-79098579D01*
X29975770Y-78896821D01*
X30015130Y-78698943D01*
X30092338Y-78512545D01*
X30204430Y-78344788D01*
X30347088Y-78202130D01*
X30514845Y-78090038D01*
X30701243Y-78012830D01*
X30899121Y-77973470D01*
X31100879Y-77973470D01*
X31298757Y-78012830D01*
X31298757Y-78012830D01*
G37*
G36*
X33798117Y-78012830D02*
X33984515Y-78090038D01*
X34152272Y-78202130D01*
X34294930Y-78344788D01*
X34407022Y-78512545D01*
X34484230Y-78698943D01*
X34523590Y-78896821D01*
X34523590Y-79098579D01*
X34484230Y-79296457D01*
X34407022Y-79482855D01*
X34294930Y-79650612D01*
X34152272Y-79793270D01*
X33984515Y-79905362D01*
X33798117Y-79982570D01*
X33600239Y-80021930D01*
X33398481Y-80021930D01*
X33200603Y-79982570D01*
X33014205Y-79905362D01*
X32846448Y-79793270D01*
X32703790Y-79650612D01*
X32591698Y-79482855D01*
X32514490Y-79296457D01*
X32475130Y-79098579D01*
X32475130Y-78896821D01*
X32514490Y-78698943D01*
X32591698Y-78512545D01*
X32703790Y-78344788D01*
X32846448Y-78202130D01*
X33014205Y-78090038D01*
X33200603Y-78012830D01*
X33398481Y-77973470D01*
X33600239Y-77973470D01*
X33798117Y-78012830D01*
X33798117Y-78012830D01*
G37*
G36*
X5524870Y-80021930D02*
X3476410Y-80021930D01*
X3476410Y-77973470D01*
X5524870Y-77973470D01*
X5524870Y-80021930D01*
X5524870Y-80021930D01*
G37*
G36*
X11809899Y-70433686D02*
X11964168Y-70464372D01*
X12084552Y-70514237D01*
X12254802Y-70584756D01*
X12516371Y-70759531D01*
X12738809Y-70981969D01*
X12913584Y-71243538D01*
X13033968Y-71534173D01*
X13095340Y-71842708D01*
X13095340Y-72157292D01*
X13033968Y-72465827D01*
X12913584Y-72756462D01*
X12738809Y-73018031D01*
X12516371Y-73240469D01*
X12254802Y-73415244D01*
X12084552Y-73485763D01*
X11964168Y-73535628D01*
X11655632Y-73597000D01*
X11341048Y-73597000D01*
X11032512Y-73535628D01*
X10912128Y-73485763D01*
X10741878Y-73415244D01*
X10480309Y-73240469D01*
X10257871Y-73018031D01*
X10083096Y-72756462D01*
X9962712Y-72465827D01*
X9901340Y-72157292D01*
X9901340Y-71842708D01*
X9962712Y-71534173D01*
X10083096Y-71243538D01*
X10257871Y-70981969D01*
X10480309Y-70759531D01*
X10741878Y-70584756D01*
X10912128Y-70514237D01*
X11032512Y-70464372D01*
X11186781Y-70433686D01*
X11341048Y-70403000D01*
X11655632Y-70403000D01*
X11809899Y-70433686D01*
X11809899Y-70433686D01*
G37*
G36*
X35809899Y-70433686D02*
X35964168Y-70464372D01*
X36084552Y-70514237D01*
X36254802Y-70584756D01*
X36516371Y-70759531D01*
X36738809Y-70981969D01*
X36913584Y-71243538D01*
X37033968Y-71534173D01*
X37095340Y-71842708D01*
X37095340Y-72157292D01*
X37033968Y-72465827D01*
X36913584Y-72756462D01*
X36738809Y-73018031D01*
X36516371Y-73240469D01*
X36254802Y-73415244D01*
X36084552Y-73485763D01*
X35964168Y-73535628D01*
X35655632Y-73597000D01*
X35341048Y-73597000D01*
X35032512Y-73535628D01*
X34912128Y-73485763D01*
X34741878Y-73415244D01*
X34480309Y-73240469D01*
X34257871Y-73018031D01*
X34083096Y-72756462D01*
X33962712Y-72465827D01*
X33901340Y-72157292D01*
X33901340Y-71842708D01*
X33962712Y-71534173D01*
X34083096Y-71243538D01*
X34257871Y-70981969D01*
X34480309Y-70759531D01*
X34741878Y-70584756D01*
X34912128Y-70514237D01*
X35032512Y-70464372D01*
X35186781Y-70433686D01*
X35341048Y-70403000D01*
X35655632Y-70403000D01*
X35809899Y-70433686D01*
X35809899Y-70433686D01*
G37*
G36*
X26813219Y-70433686D02*
X26967488Y-70464372D01*
X27087872Y-70514237D01*
X27258122Y-70584756D01*
X27519691Y-70759531D01*
X27742129Y-70981969D01*
X27916904Y-71243538D01*
X28037288Y-71534173D01*
X28098660Y-71842708D01*
X28098660Y-72157292D01*
X28037288Y-72465827D01*
X27916904Y-72756462D01*
X27742129Y-73018031D01*
X27519691Y-73240469D01*
X27258122Y-73415244D01*
X27087872Y-73485763D01*
X26967488Y-73535628D01*
X26658952Y-73597000D01*
X26344368Y-73597000D01*
X26035832Y-73535628D01*
X25915448Y-73485763D01*
X25745198Y-73415244D01*
X25483629Y-73240469D01*
X25261191Y-73018031D01*
X25086416Y-72756462D01*
X24966032Y-72465827D01*
X24904660Y-72157292D01*
X24904660Y-71842708D01*
X24966032Y-71534173D01*
X25086416Y-71243538D01*
X25261191Y-70981969D01*
X25483629Y-70759531D01*
X25745198Y-70584756D01*
X25915448Y-70514237D01*
X26035832Y-70464372D01*
X26190101Y-70433686D01*
X26344368Y-70403000D01*
X26658952Y-70403000D01*
X26813219Y-70433686D01*
X26813219Y-70433686D01*
G37*
G36*
X2813219Y-70433686D02*
X2967488Y-70464372D01*
X3087872Y-70514237D01*
X3258122Y-70584756D01*
X3519691Y-70759531D01*
X3742129Y-70981969D01*
X3916904Y-71243538D01*
X4037288Y-71534173D01*
X4098660Y-71842708D01*
X4098660Y-72157292D01*
X4037288Y-72465827D01*
X3916904Y-72756462D01*
X3742129Y-73018031D01*
X3519691Y-73240469D01*
X3258122Y-73415244D01*
X3087872Y-73485763D01*
X2967488Y-73535628D01*
X2658952Y-73597000D01*
X2344368Y-73597000D01*
X2035832Y-73535628D01*
X1915448Y-73485763D01*
X1745198Y-73415244D01*
X1483629Y-73240469D01*
X1261191Y-73018031D01*
X1086416Y-72756462D01*
X966032Y-72465827D01*
X904660Y-72157292D01*
X904660Y-71842708D01*
X966032Y-71534173D01*
X1086416Y-71243538D01*
X1261191Y-70981969D01*
X1483629Y-70759531D01*
X1745198Y-70584756D01*
X1915448Y-70514237D01*
X2035832Y-70464372D01*
X2190101Y-70433686D01*
X2344368Y-70403000D01*
X2658952Y-70403000D01*
X2813219Y-70433686D01*
X2813219Y-70433686D01*
G37*
G36*
X19409122Y-67246115D02*
X19525041Y-67269173D01*
X19852620Y-67404861D01*
X20143511Y-67599228D01*
X20147436Y-67601851D01*
X20398149Y-67852564D01*
X20595140Y-68147382D01*
X20730827Y-68474960D01*
X20800000Y-68822714D01*
X20800000Y-69177286D01*
X20730827Y-69525040D01*
X20595140Y-69852618D01*
X20398149Y-70147436D01*
X20147436Y-70398149D01*
X20147433Y-70398151D01*
X19852620Y-70595139D01*
X19525041Y-70730827D01*
X19409122Y-70753885D01*
X19177286Y-70800000D01*
X18822714Y-70800000D01*
X18590878Y-70753885D01*
X18474959Y-70730827D01*
X18147380Y-70595139D01*
X17852567Y-70398151D01*
X17852564Y-70398149D01*
X17601851Y-70147436D01*
X17404860Y-69852618D01*
X17269173Y-69525040D01*
X17200000Y-69177286D01*
X17200000Y-68822714D01*
X17269173Y-68474960D01*
X17404860Y-68147382D01*
X17601851Y-67852564D01*
X17852564Y-67601851D01*
X17856489Y-67599228D01*
X18147380Y-67404861D01*
X18474959Y-67269173D01*
X18590878Y-67246115D01*
X18822714Y-67200000D01*
X19177286Y-67200000D01*
X19409122Y-67246115D01*
X19409122Y-67246115D01*
G37*
G36*
X17524870Y-62021930D02*
X15476410Y-62021930D01*
X15476410Y-59973470D01*
X17524870Y-59973470D01*
X17524870Y-62021930D01*
X17524870Y-62021930D01*
G37*
G36*
X19298757Y-60012830D02*
X19485155Y-60090038D01*
X19652912Y-60202130D01*
X19795570Y-60344788D01*
X19907662Y-60512545D01*
X19984870Y-60698943D01*
X20024230Y-60896821D01*
X20024230Y-61098579D01*
X19984870Y-61296457D01*
X19907662Y-61482855D01*
X19795570Y-61650612D01*
X19652912Y-61793270D01*
X19485155Y-61905362D01*
X19298757Y-61982570D01*
X19100879Y-62021930D01*
X18899121Y-62021930D01*
X18701243Y-61982570D01*
X18514845Y-61905362D01*
X18347088Y-61793270D01*
X18204430Y-61650612D01*
X18092338Y-61482855D01*
X18015130Y-61296457D01*
X17975770Y-61098579D01*
X17975770Y-60896821D01*
X18015130Y-60698943D01*
X18092338Y-60512545D01*
X18204430Y-60344788D01*
X18347088Y-60202130D01*
X18514845Y-60090038D01*
X18701243Y-60012830D01*
X18899121Y-59973470D01*
X19100879Y-59973470D01*
X19298757Y-60012830D01*
X19298757Y-60012830D01*
G37*
G36*
X21798117Y-60012830D02*
X21984515Y-60090038D01*
X22152272Y-60202130D01*
X22294930Y-60344788D01*
X22407022Y-60512545D01*
X22484230Y-60698943D01*
X22523590Y-60896821D01*
X22523590Y-61098579D01*
X22484230Y-61296457D01*
X22407022Y-61482855D01*
X22294930Y-61650612D01*
X22152272Y-61793270D01*
X21984515Y-61905362D01*
X21798117Y-61982570D01*
X21600239Y-62021930D01*
X21398481Y-62021930D01*
X21200603Y-61982570D01*
X21014205Y-61905362D01*
X20846448Y-61793270D01*
X20703790Y-61650612D01*
X20591698Y-61482855D01*
X20514490Y-61296457D01*
X20475130Y-61098579D01*
X20475130Y-60896821D01*
X20514490Y-60698943D01*
X20591698Y-60512545D01*
X20703790Y-60344788D01*
X20846448Y-60202130D01*
X21014205Y-60090038D01*
X21200603Y-60012830D01*
X21398481Y-59973470D01*
X21600239Y-59973470D01*
X21798117Y-60012830D01*
X21798117Y-60012830D01*
G37*
G36*
X5585530Y-58605710D02*
X5635379Y-58620831D01*
X5681311Y-58645382D01*
X5721574Y-58678426D01*
X5754618Y-58718689D01*
X5779169Y-58764621D01*
X5794290Y-58814470D01*
X5800000Y-58872444D01*
X5800000Y-60127556D01*
X5794290Y-60185530D01*
X5779169Y-60235379D01*
X5754618Y-60281311D01*
X5721574Y-60321574D01*
X5681311Y-60354618D01*
X5635379Y-60379169D01*
X5585530Y-60394290D01*
X5527556Y-60400000D01*
X4522444Y-60400000D01*
X4464470Y-60394290D01*
X4414621Y-60379169D01*
X4368689Y-60354618D01*
X4328426Y-60321574D01*
X4295382Y-60281311D01*
X4270831Y-60235379D01*
X4255710Y-60185530D01*
X4250000Y-60127556D01*
X4250000Y-58872444D01*
X4255710Y-58814470D01*
X4270831Y-58764621D01*
X4295382Y-58718689D01*
X4328426Y-58678426D01*
X4368689Y-58645382D01*
X4414621Y-58620831D01*
X4464470Y-58605710D01*
X4522444Y-58600000D01*
X5527556Y-58600000D01*
X5585530Y-58605710D01*
X5585530Y-58605710D01*
G37*
G36*
X3535530Y-58605710D02*
X3585379Y-58620831D01*
X3631311Y-58645382D01*
X3671574Y-58678426D01*
X3704618Y-58718689D01*
X3729169Y-58764621D01*
X3744290Y-58814470D01*
X3750000Y-58872444D01*
X3750000Y-60127556D01*
X3744290Y-60185530D01*
X3729169Y-60235379D01*
X3704618Y-60281311D01*
X3671574Y-60321574D01*
X3631311Y-60354618D01*
X3585379Y-60379169D01*
X3535530Y-60394290D01*
X3477556Y-60400000D01*
X2472444Y-60400000D01*
X2414470Y-60394290D01*
X2364621Y-60379169D01*
X2318689Y-60354618D01*
X2278426Y-60321574D01*
X2245382Y-60281311D01*
X2220831Y-60235379D01*
X2205710Y-60185530D01*
X2200000Y-60127556D01*
X2200000Y-58872444D01*
X2205710Y-58814470D01*
X2220831Y-58764621D01*
X2245382Y-58718689D01*
X2278426Y-58678426D01*
X2318689Y-58645382D01*
X2364621Y-58620831D01*
X2414470Y-58605710D01*
X2472444Y-58600000D01*
X3477556Y-58600000D01*
X3535530Y-58605710D01*
X3535530Y-58605710D01*
G37*
G36*
X5610530Y-55105710D02*
X5660379Y-55120831D01*
X5706311Y-55145382D01*
X5746574Y-55178426D01*
X5779618Y-55218689D01*
X5804169Y-55264621D01*
X5819290Y-55314470D01*
X5825000Y-55372444D01*
X5825000Y-56627556D01*
X5819290Y-56685530D01*
X5804169Y-56735379D01*
X5779618Y-56781311D01*
X5746574Y-56821574D01*
X5706311Y-56854618D01*
X5660379Y-56879169D01*
X5610530Y-56894290D01*
X5552556Y-56900000D01*
X4547444Y-56900000D01*
X4489470Y-56894290D01*
X4439621Y-56879169D01*
X4393689Y-56854618D01*
X4353426Y-56821574D01*
X4320382Y-56781311D01*
X4295831Y-56735379D01*
X4280710Y-56685530D01*
X4275000Y-56627556D01*
X4275000Y-55372444D01*
X4280710Y-55314470D01*
X4295831Y-55264621D01*
X4320382Y-55218689D01*
X4353426Y-55178426D01*
X4393689Y-55145382D01*
X4439621Y-55120831D01*
X4489470Y-55105710D01*
X4547444Y-55100000D01*
X5552556Y-55100000D01*
X5610530Y-55105710D01*
X5610530Y-55105710D01*
G37*
G36*
X3560530Y-55105710D02*
X3610379Y-55120831D01*
X3656311Y-55145382D01*
X3696574Y-55178426D01*
X3729618Y-55218689D01*
X3754169Y-55264621D01*
X3769290Y-55314470D01*
X3775000Y-55372444D01*
X3775000Y-56627556D01*
X3769290Y-56685530D01*
X3754169Y-56735379D01*
X3729618Y-56781311D01*
X3696574Y-56821574D01*
X3656311Y-56854618D01*
X3610379Y-56879169D01*
X3560530Y-56894290D01*
X3502556Y-56900000D01*
X2497444Y-56900000D01*
X2439470Y-56894290D01*
X2389621Y-56879169D01*
X2343689Y-56854618D01*
X2303426Y-56821574D01*
X2270382Y-56781311D01*
X2245831Y-56735379D01*
X2230710Y-56685530D01*
X2225000Y-56627556D01*
X2225000Y-55372444D01*
X2230710Y-55314470D01*
X2245831Y-55264621D01*
X2270382Y-55218689D01*
X2303426Y-55178426D01*
X2343689Y-55145382D01*
X2389621Y-55120831D01*
X2439470Y-55105710D01*
X2497444Y-55100000D01*
X3502556Y-55100000D01*
X3560530Y-55105710D01*
X3560530Y-55105710D01*
G37*
G36*
X14967488Y-52464372D02*
X15087872Y-52514237D01*
X15258122Y-52584756D01*
X15519691Y-52759531D01*
X15742129Y-52981969D01*
X15916904Y-53243538D01*
X15939790Y-53298791D01*
X16037288Y-53534172D01*
X16098660Y-53842709D01*
X16098660Y-54157291D01*
X16037288Y-54465828D01*
X16014416Y-54521045D01*
X15916904Y-54756462D01*
X15742129Y-55018031D01*
X15519691Y-55240469D01*
X15258122Y-55415244D01*
X15087872Y-55485763D01*
X14967488Y-55535628D01*
X14813219Y-55566314D01*
X14658952Y-55597000D01*
X14344368Y-55597000D01*
X14190101Y-55566314D01*
X14035832Y-55535628D01*
X13915448Y-55485763D01*
X13745198Y-55415244D01*
X13483629Y-55240469D01*
X13261191Y-55018031D01*
X13086416Y-54756462D01*
X12988904Y-54521045D01*
X12966032Y-54465828D01*
X12904660Y-54157291D01*
X12904660Y-53842709D01*
X12966032Y-53534172D01*
X13063530Y-53298791D01*
X13086416Y-53243538D01*
X13261191Y-52981969D01*
X13483629Y-52759531D01*
X13745198Y-52584756D01*
X13915448Y-52514237D01*
X14035832Y-52464372D01*
X14190101Y-52433686D01*
X14344368Y-52403000D01*
X14658952Y-52403000D01*
X14967488Y-52464372D01*
X14967488Y-52464372D01*
G37*
G36*
X23964168Y-52464372D02*
X24084552Y-52514237D01*
X24254802Y-52584756D01*
X24516371Y-52759531D01*
X24738809Y-52981969D01*
X24913584Y-53243538D01*
X24936470Y-53298791D01*
X25033968Y-53534172D01*
X25095340Y-53842709D01*
X25095340Y-54157291D01*
X25033968Y-54465828D01*
X25011096Y-54521045D01*
X24913584Y-54756462D01*
X24738809Y-55018031D01*
X24516371Y-55240469D01*
X24254802Y-55415244D01*
X24084552Y-55485763D01*
X23964168Y-55535628D01*
X23809899Y-55566314D01*
X23655632Y-55597000D01*
X23341048Y-55597000D01*
X23186781Y-55566314D01*
X23032512Y-55535628D01*
X22912128Y-55485763D01*
X22741878Y-55415244D01*
X22480309Y-55240469D01*
X22257871Y-55018031D01*
X22083096Y-54756462D01*
X21985584Y-54521045D01*
X21962712Y-54465828D01*
X21901340Y-54157291D01*
X21901340Y-53842709D01*
X21962712Y-53534172D01*
X22060210Y-53298791D01*
X22083096Y-53243538D01*
X22257871Y-52981969D01*
X22480309Y-52759531D01*
X22741878Y-52584756D01*
X22912128Y-52514237D01*
X23032512Y-52464372D01*
X23186781Y-52433686D01*
X23341048Y-52403000D01*
X23655632Y-52403000D01*
X23964168Y-52464372D01*
X23964168Y-52464372D01*
G37*
G36*
X32780857Y-52942272D02*
X32981042Y-53025191D01*
X32981045Y-53025193D01*
X33134242Y-53127556D01*
X33161213Y-53145578D01*
X33314422Y-53298787D01*
X33314424Y-53298790D01*
X33314425Y-53298791D01*
X33382051Y-53400000D01*
X33434809Y-53478958D01*
X33517728Y-53679143D01*
X33560000Y-53891658D01*
X33560000Y-54108342D01*
X33517728Y-54320857D01*
X33434809Y-54521042D01*
X33314422Y-54701213D01*
X33161213Y-54854422D01*
X32981042Y-54974809D01*
X32780857Y-55057728D01*
X32568342Y-55100000D01*
X32351658Y-55100000D01*
X32139143Y-55057728D01*
X31938958Y-54974809D01*
X31758787Y-54854422D01*
X31605578Y-54701213D01*
X31485191Y-54521042D01*
X31402272Y-54320857D01*
X31360000Y-54108342D01*
X31360000Y-53891658D01*
X31402272Y-53679143D01*
X31485191Y-53478958D01*
X31537949Y-53400000D01*
X31605575Y-53298791D01*
X31605576Y-53298790D01*
X31605578Y-53298787D01*
X31758787Y-53145578D01*
X31785759Y-53127556D01*
X31938955Y-53025193D01*
X31938958Y-53025191D01*
X32139143Y-52942272D01*
X32351658Y-52900000D01*
X32568342Y-52900000D01*
X32780857Y-52942272D01*
X32780857Y-52942272D01*
G37*
G36*
X36100000Y-55100000D02*
X33900000Y-55100000D01*
X33900000Y-52900000D01*
X36100000Y-52900000D01*
X36100000Y-55100000D01*
X36100000Y-55100000D01*
G37*
G36*
X3535530Y-51605710D02*
X3585379Y-51620831D01*
X3631311Y-51645382D01*
X3671574Y-51678426D01*
X3704618Y-51718689D01*
X3729169Y-51764621D01*
X3744290Y-51814470D01*
X3750000Y-51872444D01*
X3750000Y-53127556D01*
X3744290Y-53185530D01*
X3729169Y-53235379D01*
X3704618Y-53281311D01*
X3671574Y-53321574D01*
X3631311Y-53354618D01*
X3585379Y-53379169D01*
X3535530Y-53394290D01*
X3477556Y-53400000D01*
X2472444Y-53400000D01*
X2414470Y-53394290D01*
X2364621Y-53379169D01*
X2318689Y-53354618D01*
X2278426Y-53321574D01*
X2245382Y-53281311D01*
X2220831Y-53235379D01*
X2205710Y-53185530D01*
X2200000Y-53127556D01*
X2200000Y-51872444D01*
X2205710Y-51814470D01*
X2220831Y-51764621D01*
X2245382Y-51718689D01*
X2278426Y-51678426D01*
X2318689Y-51645382D01*
X2364621Y-51620831D01*
X2414470Y-51605710D01*
X2472444Y-51600000D01*
X3477556Y-51600000D01*
X3535530Y-51605710D01*
X3535530Y-51605710D01*
G37*
G36*
X5585530Y-51605710D02*
X5635379Y-51620831D01*
X5681311Y-51645382D01*
X5721574Y-51678426D01*
X5754618Y-51718689D01*
X5779169Y-51764621D01*
X5794290Y-51814470D01*
X5800000Y-51872444D01*
X5800000Y-53127556D01*
X5794290Y-53185530D01*
X5779169Y-53235379D01*
X5754618Y-53281311D01*
X5721574Y-53321574D01*
X5681311Y-53354618D01*
X5635379Y-53379169D01*
X5585530Y-53394290D01*
X5527556Y-53400000D01*
X4522444Y-53400000D01*
X4464470Y-53394290D01*
X4414621Y-53379169D01*
X4368689Y-53354618D01*
X4328426Y-53321574D01*
X4295382Y-53281311D01*
X4270831Y-53235379D01*
X4255710Y-53185530D01*
X4250000Y-53127556D01*
X4250000Y-51872444D01*
X4255710Y-51814470D01*
X4270831Y-51764621D01*
X4295382Y-51718689D01*
X4328426Y-51678426D01*
X4368689Y-51645382D01*
X4414621Y-51620831D01*
X4464470Y-51605710D01*
X4522444Y-51600000D01*
X5527556Y-51600000D01*
X5585530Y-51605710D01*
X5585530Y-51605710D01*
G37*
G36*
X5585530Y-48105710D02*
X5635379Y-48120831D01*
X5681311Y-48145382D01*
X5721574Y-48178426D01*
X5754618Y-48218689D01*
X5779169Y-48264621D01*
X5794290Y-48314470D01*
X5800000Y-48372444D01*
X5800000Y-49627556D01*
X5794290Y-49685530D01*
X5779169Y-49735379D01*
X5754618Y-49781311D01*
X5721574Y-49821574D01*
X5681311Y-49854618D01*
X5635379Y-49879169D01*
X5585530Y-49894290D01*
X5527556Y-49900000D01*
X4522444Y-49900000D01*
X4464470Y-49894290D01*
X4414621Y-49879169D01*
X4368689Y-49854618D01*
X4328426Y-49821574D01*
X4295382Y-49781311D01*
X4270831Y-49735379D01*
X4255710Y-49685530D01*
X4250000Y-49627556D01*
X4250000Y-48372444D01*
X4255710Y-48314470D01*
X4270831Y-48264621D01*
X4295382Y-48218689D01*
X4328426Y-48178426D01*
X4368689Y-48145382D01*
X4414621Y-48120831D01*
X4464470Y-48105710D01*
X4522444Y-48100000D01*
X5527556Y-48100000D01*
X5585530Y-48105710D01*
X5585530Y-48105710D01*
G37*
G36*
X3535530Y-48105710D02*
X3585379Y-48120831D01*
X3631311Y-48145382D01*
X3671574Y-48178426D01*
X3704618Y-48218689D01*
X3729169Y-48264621D01*
X3744290Y-48314470D01*
X3750000Y-48372444D01*
X3750000Y-49627556D01*
X3744290Y-49685530D01*
X3729169Y-49735379D01*
X3704618Y-49781311D01*
X3671574Y-49821574D01*
X3631311Y-49854618D01*
X3585379Y-49879169D01*
X3535530Y-49894290D01*
X3477556Y-49900000D01*
X2472444Y-49900000D01*
X2414470Y-49894290D01*
X2364621Y-49879169D01*
X2318689Y-49854618D01*
X2278426Y-49821574D01*
X2245382Y-49781311D01*
X2220831Y-49735379D01*
X2205710Y-49685530D01*
X2200000Y-49627556D01*
X2200000Y-48372444D01*
X2205710Y-48314470D01*
X2220831Y-48264621D01*
X2245382Y-48218689D01*
X2278426Y-48178426D01*
X2318689Y-48145382D01*
X2364621Y-48120831D01*
X2414470Y-48105710D01*
X2472444Y-48100000D01*
X3477556Y-48100000D01*
X3535530Y-48105710D01*
X3535530Y-48105710D01*
G37*
G36*
X5524870Y-44021930D02*
X3476410Y-44021930D01*
X3476410Y-41973470D01*
X5524870Y-41973470D01*
X5524870Y-44021930D01*
X5524870Y-44021930D01*
G37*
G36*
X9798117Y-42012830D02*
X9984515Y-42090038D01*
X10152272Y-42202130D01*
X10294930Y-42344788D01*
X10407022Y-42512545D01*
X10484230Y-42698943D01*
X10523590Y-42896821D01*
X10523590Y-43098579D01*
X10484230Y-43296457D01*
X10407022Y-43482855D01*
X10294930Y-43650612D01*
X10152272Y-43793270D01*
X9984515Y-43905362D01*
X9798117Y-43982570D01*
X9600239Y-44021930D01*
X9398481Y-44021930D01*
X9200603Y-43982570D01*
X9014205Y-43905362D01*
X8846448Y-43793270D01*
X8703790Y-43650612D01*
X8591698Y-43482855D01*
X8514490Y-43296457D01*
X8475130Y-43098579D01*
X8475130Y-42896821D01*
X8514490Y-42698943D01*
X8591698Y-42512545D01*
X8703790Y-42344788D01*
X8846448Y-42202130D01*
X9014205Y-42090038D01*
X9200603Y-42012830D01*
X9398481Y-41973470D01*
X9600239Y-41973470D01*
X9798117Y-42012830D01*
X9798117Y-42012830D01*
G37*
G36*
X29524870Y-44021930D02*
X27476410Y-44021930D01*
X27476410Y-41973470D01*
X29524870Y-41973470D01*
X29524870Y-44021930D01*
X29524870Y-44021930D01*
G37*
G36*
X31298757Y-42012830D02*
X31485155Y-42090038D01*
X31652912Y-42202130D01*
X31795570Y-42344788D01*
X31907662Y-42512545D01*
X31984870Y-42698943D01*
X32024230Y-42896821D01*
X32024230Y-43098579D01*
X31984870Y-43296457D01*
X31907662Y-43482855D01*
X31795570Y-43650612D01*
X31652912Y-43793270D01*
X31485155Y-43905362D01*
X31298757Y-43982570D01*
X31100879Y-44021930D01*
X30899121Y-44021930D01*
X30701243Y-43982570D01*
X30514845Y-43905362D01*
X30347088Y-43793270D01*
X30204430Y-43650612D01*
X30092338Y-43482855D01*
X30015130Y-43296457D01*
X29975770Y-43098579D01*
X29975770Y-42896821D01*
X30015130Y-42698943D01*
X30092338Y-42512545D01*
X30204430Y-42344788D01*
X30347088Y-42202130D01*
X30514845Y-42090038D01*
X30701243Y-42012830D01*
X30899121Y-41973470D01*
X31100879Y-41973470D01*
X31298757Y-42012830D01*
X31298757Y-42012830D01*
G37*
G36*
X33798117Y-42012830D02*
X33984515Y-42090038D01*
X34152272Y-42202130D01*
X34294930Y-42344788D01*
X34407022Y-42512545D01*
X34484230Y-42698943D01*
X34523590Y-42896821D01*
X34523590Y-43098579D01*
X34484230Y-43296457D01*
X34407022Y-43482855D01*
X34294930Y-43650612D01*
X34152272Y-43793270D01*
X33984515Y-43905362D01*
X33798117Y-43982570D01*
X33600239Y-44021930D01*
X33398481Y-44021930D01*
X33200603Y-43982570D01*
X33014205Y-43905362D01*
X32846448Y-43793270D01*
X32703790Y-43650612D01*
X32591698Y-43482855D01*
X32514490Y-43296457D01*
X32475130Y-43098579D01*
X32475130Y-42896821D01*
X32514490Y-42698943D01*
X32591698Y-42512545D01*
X32703790Y-42344788D01*
X32846448Y-42202130D01*
X33014205Y-42090038D01*
X33200603Y-42012830D01*
X33398481Y-41973470D01*
X33600239Y-41973470D01*
X33798117Y-42012830D01*
X33798117Y-42012830D01*
G37*
G36*
X7298757Y-42012830D02*
X7485155Y-42090038D01*
X7652912Y-42202130D01*
X7795570Y-42344788D01*
X7907662Y-42512545D01*
X7984870Y-42698943D01*
X8024230Y-42896821D01*
X8024230Y-43098579D01*
X7984870Y-43296457D01*
X7907662Y-43482855D01*
X7795570Y-43650612D01*
X7652912Y-43793270D01*
X7485155Y-43905362D01*
X7298757Y-43982570D01*
X7100879Y-44021930D01*
X6899121Y-44021930D01*
X6701243Y-43982570D01*
X6514845Y-43905362D01*
X6347088Y-43793270D01*
X6204430Y-43650612D01*
X6092338Y-43482855D01*
X6015130Y-43296457D01*
X5975770Y-43098579D01*
X5975770Y-42896821D01*
X6015130Y-42698943D01*
X6092338Y-42512545D01*
X6204430Y-42344788D01*
X6347088Y-42202130D01*
X6514845Y-42090038D01*
X6701243Y-42012830D01*
X6899121Y-41973470D01*
X7100879Y-41973470D01*
X7298757Y-42012830D01*
X7298757Y-42012830D01*
G37*
G36*
X19265787Y-36663816D02*
X19431616Y-36732505D01*
X19580857Y-36832225D01*
X19707775Y-36959143D01*
X19807495Y-37108384D01*
X19876184Y-37274213D01*
X19911200Y-37450253D01*
X19911200Y-37629747D01*
X19876184Y-37805787D01*
X19807495Y-37971616D01*
X19707775Y-38120857D01*
X19580857Y-38247775D01*
X19431616Y-38347495D01*
X19265787Y-38416184D01*
X19089747Y-38451200D01*
X18910253Y-38451200D01*
X18734213Y-38416184D01*
X18568384Y-38347495D01*
X18419143Y-38247775D01*
X18292225Y-38120857D01*
X18192505Y-37971616D01*
X18123816Y-37805787D01*
X18088800Y-37629747D01*
X18088800Y-37450253D01*
X18123816Y-37274213D01*
X18192505Y-37108384D01*
X18292225Y-36959143D01*
X18419143Y-36832225D01*
X18568384Y-36732505D01*
X18734213Y-36663816D01*
X18910253Y-36628800D01*
X19089747Y-36628800D01*
X19265787Y-36663816D01*
X19265787Y-36663816D01*
G37*
G36*
X35809899Y-34433686D02*
X35964168Y-34464372D01*
X36084552Y-34514237D01*
X36254802Y-34584756D01*
X36516371Y-34759531D01*
X36738809Y-34981969D01*
X36913584Y-35243538D01*
X37033968Y-35534173D01*
X37095340Y-35842708D01*
X37095340Y-36157292D01*
X37033968Y-36465827D01*
X36913584Y-36756462D01*
X36738809Y-37018031D01*
X36516371Y-37240469D01*
X36254802Y-37415244D01*
X36170277Y-37450255D01*
X35964168Y-37535628D01*
X35655632Y-37597000D01*
X35341048Y-37597000D01*
X35032512Y-37535628D01*
X34826403Y-37450255D01*
X34741878Y-37415244D01*
X34480309Y-37240469D01*
X34257871Y-37018031D01*
X34083096Y-36756462D01*
X33962712Y-36465827D01*
X33901340Y-36157292D01*
X33901340Y-35842708D01*
X33962712Y-35534173D01*
X34083096Y-35243538D01*
X34257871Y-34981969D01*
X34480309Y-34759531D01*
X34741878Y-34584756D01*
X34912128Y-34514237D01*
X35032512Y-34464372D01*
X35186781Y-34433686D01*
X35341048Y-34403000D01*
X35655632Y-34403000D01*
X35809899Y-34433686D01*
X35809899Y-34433686D01*
G37*
G36*
X26813219Y-34433686D02*
X26967488Y-34464372D01*
X27087872Y-34514237D01*
X27258122Y-34584756D01*
X27519691Y-34759531D01*
X27742129Y-34981969D01*
X27916904Y-35243538D01*
X28037288Y-35534173D01*
X28098660Y-35842708D01*
X28098660Y-36157292D01*
X28037288Y-36465827D01*
X27916904Y-36756462D01*
X27742129Y-37018031D01*
X27519691Y-37240469D01*
X27258122Y-37415244D01*
X27173597Y-37450255D01*
X26967488Y-37535628D01*
X26658952Y-37597000D01*
X26344368Y-37597000D01*
X26035832Y-37535628D01*
X25829723Y-37450255D01*
X25745198Y-37415244D01*
X25483629Y-37240469D01*
X25261191Y-37018031D01*
X25086416Y-36756462D01*
X24966032Y-36465827D01*
X24904660Y-36157292D01*
X24904660Y-35842708D01*
X24966032Y-35534173D01*
X25086416Y-35243538D01*
X25261191Y-34981969D01*
X25483629Y-34759531D01*
X25745198Y-34584756D01*
X25915448Y-34514237D01*
X26035832Y-34464372D01*
X26190101Y-34433686D01*
X26344368Y-34403000D01*
X26658952Y-34403000D01*
X26813219Y-34433686D01*
X26813219Y-34433686D01*
G37*
G36*
X2813219Y-34433686D02*
X2967488Y-34464372D01*
X3087872Y-34514237D01*
X3258122Y-34584756D01*
X3519691Y-34759531D01*
X3742129Y-34981969D01*
X3916904Y-35243538D01*
X4037288Y-35534173D01*
X4098660Y-35842708D01*
X4098660Y-36157292D01*
X4037288Y-36465827D01*
X3916904Y-36756462D01*
X3742129Y-37018031D01*
X3519691Y-37240469D01*
X3258122Y-37415244D01*
X3173597Y-37450255D01*
X2967488Y-37535628D01*
X2658952Y-37597000D01*
X2344368Y-37597000D01*
X2035832Y-37535628D01*
X1829723Y-37450255D01*
X1745198Y-37415244D01*
X1483629Y-37240469D01*
X1261191Y-37018031D01*
X1086416Y-36756462D01*
X966032Y-36465827D01*
X904660Y-36157292D01*
X904660Y-35842708D01*
X966032Y-35534173D01*
X1086416Y-35243538D01*
X1261191Y-34981969D01*
X1483629Y-34759531D01*
X1745198Y-34584756D01*
X1915448Y-34514237D01*
X2035832Y-34464372D01*
X2190101Y-34433686D01*
X2344368Y-34403000D01*
X2658952Y-34403000D01*
X2813219Y-34433686D01*
X2813219Y-34433686D01*
G37*
G36*
X11809899Y-34433686D02*
X11964168Y-34464372D01*
X12084552Y-34514237D01*
X12254802Y-34584756D01*
X12516371Y-34759531D01*
X12738809Y-34981969D01*
X12913584Y-35243538D01*
X13033968Y-35534173D01*
X13095340Y-35842708D01*
X13095340Y-36157292D01*
X13033968Y-36465827D01*
X12913584Y-36756462D01*
X12738809Y-37018031D01*
X12516371Y-37240469D01*
X12254802Y-37415244D01*
X12170277Y-37450255D01*
X11964168Y-37535628D01*
X11655632Y-37597000D01*
X11341048Y-37597000D01*
X11032512Y-37535628D01*
X10826403Y-37450255D01*
X10741878Y-37415244D01*
X10480309Y-37240469D01*
X10257871Y-37018031D01*
X10083096Y-36756462D01*
X9962712Y-36465827D01*
X9901340Y-36157292D01*
X9901340Y-35842708D01*
X9962712Y-35534173D01*
X10083096Y-35243538D01*
X10257871Y-34981969D01*
X10480309Y-34759531D01*
X10741878Y-34584756D01*
X10912128Y-34514237D01*
X11032512Y-34464372D01*
X11186781Y-34433686D01*
X11341048Y-34403000D01*
X11655632Y-34403000D01*
X11809899Y-34433686D01*
X11809899Y-34433686D01*
G37*
G36*
X19265787Y-34123816D02*
X19431616Y-34192505D01*
X19580857Y-34292225D01*
X19707775Y-34419143D01*
X19807495Y-34568384D01*
X19876184Y-34734213D01*
X19911200Y-34910253D01*
X19911200Y-35089747D01*
X19876184Y-35265787D01*
X19807495Y-35431616D01*
X19707775Y-35580857D01*
X19580857Y-35707775D01*
X19431616Y-35807495D01*
X19265787Y-35876184D01*
X19089747Y-35911200D01*
X18910253Y-35911200D01*
X18734213Y-35876184D01*
X18568384Y-35807495D01*
X18419143Y-35707775D01*
X18292225Y-35580857D01*
X18192505Y-35431616D01*
X18123816Y-35265787D01*
X18088800Y-35089747D01*
X18088800Y-34910253D01*
X18123816Y-34734213D01*
X18192505Y-34568384D01*
X18292225Y-34419143D01*
X18419143Y-34292225D01*
X18568384Y-34192505D01*
X18734213Y-34123816D01*
X18910253Y-34088800D01*
X19089747Y-34088800D01*
X19265787Y-34123816D01*
X19265787Y-34123816D01*
G37*
G36*
X19265787Y-31583816D02*
X19431616Y-31652505D01*
X19580857Y-31752225D01*
X19707775Y-31879143D01*
X19807495Y-32028384D01*
X19876184Y-32194213D01*
X19911200Y-32370253D01*
X19911200Y-32549747D01*
X19876184Y-32725787D01*
X19807495Y-32891616D01*
X19707775Y-33040857D01*
X19580857Y-33167775D01*
X19431616Y-33267495D01*
X19265787Y-33336184D01*
X19089747Y-33371200D01*
X18910253Y-33371200D01*
X18734213Y-33336184D01*
X18568384Y-33267495D01*
X18419143Y-33167775D01*
X18292225Y-33040857D01*
X18192505Y-32891616D01*
X18123816Y-32725787D01*
X18088800Y-32549747D01*
X18088800Y-32370253D01*
X18123816Y-32194213D01*
X18192505Y-32028384D01*
X18292225Y-31879143D01*
X18419143Y-31752225D01*
X18568384Y-31652505D01*
X18734213Y-31583816D01*
X18910253Y-31548800D01*
X19089747Y-31548800D01*
X19265787Y-31583816D01*
X19265787Y-31583816D01*
G37*
G36*
X36128707Y-23317597D02*
X36205836Y-23325193D01*
X36337787Y-23365220D01*
X36403763Y-23385233D01*
X36586172Y-23482733D01*
X36746054Y-23613946D01*
X36877267Y-23773828D01*
X36974767Y-23956237D01*
X36974767Y-23956238D01*
X37034807Y-24154164D01*
X37055080Y-24360000D01*
X37034807Y-24565836D01*
X36994780Y-24697787D01*
X36974767Y-24763763D01*
X36877267Y-24946172D01*
X36746054Y-25106054D01*
X36586172Y-25237267D01*
X36403763Y-25334767D01*
X36337787Y-25354780D01*
X36205836Y-25394807D01*
X36128707Y-25402403D01*
X36051580Y-25410000D01*
X35948420Y-25410000D01*
X35871293Y-25402404D01*
X35794164Y-25394807D01*
X35662213Y-25354780D01*
X35596237Y-25334767D01*
X35413828Y-25237267D01*
X35253946Y-25106054D01*
X35122733Y-24946172D01*
X35025233Y-24763763D01*
X35005220Y-24697787D01*
X34965193Y-24565836D01*
X34944920Y-24360000D01*
X34965193Y-24154164D01*
X35025233Y-23956238D01*
X35025233Y-23956237D01*
X35122733Y-23773828D01*
X35253946Y-23613946D01*
X35413828Y-23482733D01*
X35596237Y-23385233D01*
X35662213Y-23365220D01*
X35794164Y-23325193D01*
X35871293Y-23317596D01*
X35948420Y-23310000D01*
X36051580Y-23310000D01*
X36128707Y-23317597D01*
X36128707Y-23317597D01*
G37*
G36*
X2128707Y-23317597D02*
X2205836Y-23325193D01*
X2337787Y-23365220D01*
X2403763Y-23385233D01*
X2586172Y-23482733D01*
X2746054Y-23613946D01*
X2877267Y-23773828D01*
X2974767Y-23956237D01*
X2974767Y-23956238D01*
X3034807Y-24154164D01*
X3055080Y-24360000D01*
X3034807Y-24565836D01*
X2994780Y-24697787D01*
X2974767Y-24763763D01*
X2877267Y-24946172D01*
X2746054Y-25106054D01*
X2586172Y-25237267D01*
X2403763Y-25334767D01*
X2337787Y-25354780D01*
X2205836Y-25394807D01*
X2128707Y-25402404D01*
X2051580Y-25410000D01*
X1948420Y-25410000D01*
X1871293Y-25402404D01*
X1794164Y-25394807D01*
X1662213Y-25354780D01*
X1596237Y-25334767D01*
X1413828Y-25237267D01*
X1253946Y-25106054D01*
X1122733Y-24946172D01*
X1025233Y-24763763D01*
X1005220Y-24697787D01*
X965193Y-24565836D01*
X944920Y-24360000D01*
X965193Y-24154164D01*
X1025233Y-23956238D01*
X1025233Y-23956237D01*
X1122733Y-23773828D01*
X1253946Y-23613946D01*
X1413828Y-23482733D01*
X1596237Y-23385233D01*
X1662213Y-23365220D01*
X1794164Y-23325193D01*
X1871293Y-23317597D01*
X1948420Y-23310000D01*
X2051580Y-23310000D01*
X2128707Y-23317597D01*
X2128707Y-23317597D01*
G37*
G36*
X2128707Y-20777597D02*
X2205836Y-20785193D01*
X2337787Y-20825220D01*
X2403763Y-20845233D01*
X2586172Y-20942733D01*
X2746054Y-21073946D01*
X2877267Y-21233828D01*
X2974767Y-21416237D01*
X2974767Y-21416238D01*
X3034807Y-21614164D01*
X3055080Y-21820000D01*
X3034807Y-22025836D01*
X2994780Y-22157787D01*
X2974767Y-22223763D01*
X2877267Y-22406172D01*
X2746054Y-22566054D01*
X2586172Y-22697267D01*
X2403763Y-22794767D01*
X2337787Y-22814780D01*
X2205836Y-22854807D01*
X2128707Y-22862403D01*
X2051580Y-22870000D01*
X1948420Y-22870000D01*
X1871293Y-22862403D01*
X1794164Y-22854807D01*
X1662213Y-22814780D01*
X1596237Y-22794767D01*
X1413828Y-22697267D01*
X1253946Y-22566054D01*
X1122733Y-22406172D01*
X1025233Y-22223763D01*
X1005220Y-22157787D01*
X965193Y-22025836D01*
X944920Y-21820000D01*
X965193Y-21614164D01*
X1025233Y-21416238D01*
X1025233Y-21416237D01*
X1122733Y-21233828D01*
X1253946Y-21073946D01*
X1413828Y-20942733D01*
X1596237Y-20845233D01*
X1662213Y-20825220D01*
X1794164Y-20785193D01*
X1871293Y-20777597D01*
X1948420Y-20770000D01*
X2051580Y-20770000D01*
X2128707Y-20777597D01*
X2128707Y-20777597D01*
G37*
G36*
X36128707Y-20777597D02*
X36205836Y-20785193D01*
X36337787Y-20825220D01*
X36403763Y-20845233D01*
X36586172Y-20942733D01*
X36746054Y-21073946D01*
X36877267Y-21233828D01*
X36974767Y-21416237D01*
X36974767Y-21416238D01*
X37034807Y-21614164D01*
X37055080Y-21820000D01*
X37034807Y-22025836D01*
X36994780Y-22157787D01*
X36974767Y-22223763D01*
X36877267Y-22406172D01*
X36746054Y-22566054D01*
X36586172Y-22697267D01*
X36403763Y-22794767D01*
X36337787Y-22814780D01*
X36205836Y-22854807D01*
X36128707Y-22862403D01*
X36051580Y-22870000D01*
X35948420Y-22870000D01*
X35871293Y-22862403D01*
X35794164Y-22854807D01*
X35662213Y-22814780D01*
X35596237Y-22794767D01*
X35413828Y-22697267D01*
X35253946Y-22566054D01*
X35122733Y-22406172D01*
X35025233Y-22223763D01*
X35005220Y-22157787D01*
X34965193Y-22025836D01*
X34944920Y-21820000D01*
X34965193Y-21614164D01*
X35025233Y-21416238D01*
X35025233Y-21416237D01*
X35122733Y-21233828D01*
X35253946Y-21073946D01*
X35413828Y-20942733D01*
X35596237Y-20845233D01*
X35662213Y-20825220D01*
X35794164Y-20785193D01*
X35871293Y-20777597D01*
X35948420Y-20770000D01*
X36051580Y-20770000D01*
X36128707Y-20777597D01*
X36128707Y-20777597D01*
G37*
G36*
X36128707Y-18237596D02*
X36205836Y-18245193D01*
X36337787Y-18285220D01*
X36403763Y-18305233D01*
X36586172Y-18402733D01*
X36746054Y-18533946D01*
X36877267Y-18693828D01*
X36974767Y-18876237D01*
X36974767Y-18876238D01*
X37034807Y-19074164D01*
X37055080Y-19280000D01*
X37034807Y-19485836D01*
X36994780Y-19617787D01*
X36974767Y-19683763D01*
X36877267Y-19866172D01*
X36746054Y-20026054D01*
X36586172Y-20157267D01*
X36403763Y-20254767D01*
X36337787Y-20274780D01*
X36205836Y-20314807D01*
X36128707Y-20322403D01*
X36051580Y-20330000D01*
X35948420Y-20330000D01*
X35871293Y-20322403D01*
X35794164Y-20314807D01*
X35662213Y-20274780D01*
X35596237Y-20254767D01*
X35413828Y-20157267D01*
X35253946Y-20026054D01*
X35122733Y-19866172D01*
X35025233Y-19683763D01*
X35005220Y-19617787D01*
X34965193Y-19485836D01*
X34944920Y-19280000D01*
X34965193Y-19074164D01*
X35025233Y-18876238D01*
X35025233Y-18876237D01*
X35122733Y-18693828D01*
X35253946Y-18533946D01*
X35413828Y-18402733D01*
X35596237Y-18305233D01*
X35662213Y-18285220D01*
X35794164Y-18245193D01*
X35871293Y-18237596D01*
X35948420Y-18230000D01*
X36051580Y-18230000D01*
X36128707Y-18237596D01*
X36128707Y-18237596D01*
G37*
G36*
X2128707Y-18237596D02*
X2205836Y-18245193D01*
X2337787Y-18285220D01*
X2403763Y-18305233D01*
X2586172Y-18402733D01*
X2746054Y-18533946D01*
X2877267Y-18693828D01*
X2974767Y-18876237D01*
X2974767Y-18876238D01*
X3034807Y-19074164D01*
X3055080Y-19280000D01*
X3034807Y-19485836D01*
X2994780Y-19617787D01*
X2974767Y-19683763D01*
X2877267Y-19866172D01*
X2746054Y-20026054D01*
X2586172Y-20157267D01*
X2403763Y-20254767D01*
X2337787Y-20274780D01*
X2205836Y-20314807D01*
X2128707Y-20322403D01*
X2051580Y-20330000D01*
X1948420Y-20330000D01*
X1871293Y-20322403D01*
X1794164Y-20314807D01*
X1662213Y-20274780D01*
X1596237Y-20254767D01*
X1413828Y-20157267D01*
X1253946Y-20026054D01*
X1122733Y-19866172D01*
X1025233Y-19683763D01*
X1005220Y-19617787D01*
X965193Y-19485836D01*
X944920Y-19280000D01*
X965193Y-19074164D01*
X1025233Y-18876238D01*
X1025233Y-18876237D01*
X1122733Y-18693828D01*
X1253946Y-18533946D01*
X1413828Y-18402733D01*
X1596237Y-18305233D01*
X1662213Y-18285220D01*
X1794164Y-18245193D01*
X1871293Y-18237596D01*
X1948420Y-18230000D01*
X2051580Y-18230000D01*
X2128707Y-18237596D01*
X2128707Y-18237596D01*
G37*
G36*
X36128707Y-15697596D02*
X36205836Y-15705193D01*
X36337787Y-15745220D01*
X36403763Y-15765233D01*
X36586172Y-15862733D01*
X36746054Y-15993946D01*
X36877267Y-16153828D01*
X36974767Y-16336237D01*
X36974767Y-16336238D01*
X37034807Y-16534164D01*
X37055080Y-16740000D01*
X37034807Y-16945836D01*
X36994780Y-17077787D01*
X36974767Y-17143763D01*
X36877267Y-17326172D01*
X36746054Y-17486054D01*
X36586172Y-17617267D01*
X36403763Y-17714767D01*
X36337787Y-17734780D01*
X36205836Y-17774807D01*
X36128707Y-17782404D01*
X36051580Y-17790000D01*
X35948420Y-17790000D01*
X35871293Y-17782404D01*
X35794164Y-17774807D01*
X35662213Y-17734780D01*
X35596237Y-17714767D01*
X35413828Y-17617267D01*
X35253946Y-17486054D01*
X35122733Y-17326172D01*
X35025233Y-17143763D01*
X35005220Y-17077787D01*
X34965193Y-16945836D01*
X34944920Y-16740000D01*
X34965193Y-16534164D01*
X35025233Y-16336238D01*
X35025233Y-16336237D01*
X35122733Y-16153828D01*
X35253946Y-15993946D01*
X35413828Y-15862733D01*
X35596237Y-15765233D01*
X35662213Y-15745220D01*
X35794164Y-15705193D01*
X35871293Y-15697596D01*
X35948420Y-15690000D01*
X36051580Y-15690000D01*
X36128707Y-15697596D01*
X36128707Y-15697596D01*
G37*
G36*
X2128707Y-15697596D02*
X2205836Y-15705193D01*
X2337787Y-15745220D01*
X2403763Y-15765233D01*
X2586172Y-15862733D01*
X2746054Y-15993946D01*
X2877267Y-16153828D01*
X2974767Y-16336237D01*
X2974767Y-16336238D01*
X3034807Y-16534164D01*
X3055080Y-16740000D01*
X3034807Y-16945836D01*
X2994780Y-17077787D01*
X2974767Y-17143763D01*
X2877267Y-17326172D01*
X2746054Y-17486054D01*
X2586172Y-17617267D01*
X2403763Y-17714767D01*
X2337787Y-17734780D01*
X2205836Y-17774807D01*
X2128707Y-17782404D01*
X2051580Y-17790000D01*
X1948420Y-17790000D01*
X1871293Y-17782404D01*
X1794164Y-17774807D01*
X1662213Y-17734780D01*
X1596237Y-17714767D01*
X1413828Y-17617267D01*
X1253946Y-17486054D01*
X1122733Y-17326172D01*
X1025233Y-17143763D01*
X1005220Y-17077787D01*
X965193Y-16945836D01*
X944920Y-16740000D01*
X965193Y-16534164D01*
X1025233Y-16336238D01*
X1025233Y-16336237D01*
X1122733Y-16153828D01*
X1253946Y-15993946D01*
X1413828Y-15862733D01*
X1596237Y-15765233D01*
X1662213Y-15745220D01*
X1794164Y-15705193D01*
X1871293Y-15697596D01*
X1948420Y-15690000D01*
X2051580Y-15690000D01*
X2128707Y-15697596D01*
X2128707Y-15697596D01*
G37*
G36*
X2128707Y-13157596D02*
X2205836Y-13165193D01*
X2337787Y-13205220D01*
X2403763Y-13225233D01*
X2586172Y-13322733D01*
X2746054Y-13453946D01*
X2877267Y-13613828D01*
X2974767Y-13796237D01*
X2974767Y-13796238D01*
X3034807Y-13994164D01*
X3055080Y-14200000D01*
X3034807Y-14405836D01*
X2994780Y-14537787D01*
X2974767Y-14603763D01*
X2877267Y-14786172D01*
X2746054Y-14946054D01*
X2586172Y-15077267D01*
X2403763Y-15174767D01*
X2337787Y-15194780D01*
X2205836Y-15234807D01*
X2128707Y-15242404D01*
X2051580Y-15250000D01*
X1948420Y-15250000D01*
X1871293Y-15242404D01*
X1794164Y-15234807D01*
X1662213Y-15194780D01*
X1596237Y-15174767D01*
X1413828Y-15077267D01*
X1253946Y-14946054D01*
X1122733Y-14786172D01*
X1025233Y-14603763D01*
X1005220Y-14537787D01*
X965193Y-14405836D01*
X944920Y-14200000D01*
X965193Y-13994164D01*
X1025233Y-13796238D01*
X1025233Y-13796237D01*
X1122733Y-13613828D01*
X1253946Y-13453946D01*
X1413828Y-13322733D01*
X1596237Y-13225233D01*
X1662213Y-13205220D01*
X1794164Y-13165193D01*
X1871293Y-13157597D01*
X1948420Y-13150000D01*
X2051580Y-13150000D01*
X2128707Y-13157596D01*
X2128707Y-13157596D01*
G37*
G36*
X36128707Y-13157596D02*
X36205836Y-13165193D01*
X36337787Y-13205220D01*
X36403763Y-13225233D01*
X36586172Y-13322733D01*
X36746054Y-13453946D01*
X36877267Y-13613828D01*
X36974767Y-13796237D01*
X36974767Y-13796238D01*
X37034807Y-13994164D01*
X37055080Y-14200000D01*
X37034807Y-14405836D01*
X36994780Y-14537787D01*
X36974767Y-14603763D01*
X36877267Y-14786172D01*
X36746054Y-14946054D01*
X36586172Y-15077267D01*
X36403763Y-15174767D01*
X36337787Y-15194780D01*
X36205836Y-15234807D01*
X36128707Y-15242404D01*
X36051580Y-15250000D01*
X35948420Y-15250000D01*
X35871293Y-15242404D01*
X35794164Y-15234807D01*
X35662213Y-15194780D01*
X35596237Y-15174767D01*
X35413828Y-15077267D01*
X35253946Y-14946054D01*
X35122733Y-14786172D01*
X35025233Y-14603763D01*
X35005220Y-14537787D01*
X34965193Y-14405836D01*
X34944920Y-14200000D01*
X34965193Y-13994164D01*
X35025233Y-13796238D01*
X35025233Y-13796237D01*
X35122733Y-13613828D01*
X35253946Y-13453946D01*
X35413828Y-13322733D01*
X35596237Y-13225233D01*
X35662213Y-13205220D01*
X35794164Y-13165193D01*
X35871293Y-13157597D01*
X35948420Y-13150000D01*
X36051580Y-13150000D01*
X36128707Y-13157596D01*
X36128707Y-13157596D01*
G37*
G36*
X36128707Y-10617597D02*
X36205836Y-10625193D01*
X36337787Y-10665220D01*
X36403763Y-10685233D01*
X36586172Y-10782733D01*
X36746054Y-10913946D01*
X36877267Y-11073828D01*
X36974767Y-11256237D01*
X36974767Y-11256238D01*
X37034807Y-11454164D01*
X37055080Y-11660000D01*
X37034807Y-11865836D01*
X36994780Y-11997787D01*
X36974767Y-12063763D01*
X36877267Y-12246172D01*
X36746054Y-12406054D01*
X36586172Y-12537267D01*
X36403763Y-12634767D01*
X36337787Y-12654780D01*
X36205836Y-12694807D01*
X36128707Y-12702404D01*
X36051580Y-12710000D01*
X35948420Y-12710000D01*
X35871293Y-12702404D01*
X35794164Y-12694807D01*
X35662213Y-12654780D01*
X35596237Y-12634767D01*
X35413828Y-12537267D01*
X35253946Y-12406054D01*
X35122733Y-12246172D01*
X35025233Y-12063763D01*
X35005220Y-11997787D01*
X34965193Y-11865836D01*
X34944920Y-11660000D01*
X34965193Y-11454164D01*
X35025233Y-11256238D01*
X35025233Y-11256237D01*
X35122733Y-11073828D01*
X35253946Y-10913946D01*
X35413828Y-10782733D01*
X35596237Y-10685233D01*
X35662213Y-10665220D01*
X35794164Y-10625193D01*
X35871293Y-10617597D01*
X35948420Y-10610000D01*
X36051580Y-10610000D01*
X36128707Y-10617597D01*
X36128707Y-10617597D01*
G37*
G36*
X2128707Y-10617597D02*
X2205836Y-10625193D01*
X2337787Y-10665220D01*
X2403763Y-10685233D01*
X2586172Y-10782733D01*
X2746054Y-10913946D01*
X2877267Y-11073828D01*
X2974767Y-11256237D01*
X2974767Y-11256238D01*
X3034807Y-11454164D01*
X3055080Y-11660000D01*
X3034807Y-11865836D01*
X2994780Y-11997787D01*
X2974767Y-12063763D01*
X2877267Y-12246172D01*
X2746054Y-12406054D01*
X2586172Y-12537267D01*
X2403763Y-12634767D01*
X2337787Y-12654780D01*
X2205836Y-12694807D01*
X2128707Y-12702404D01*
X2051580Y-12710000D01*
X1948420Y-12710000D01*
X1871293Y-12702404D01*
X1794164Y-12694807D01*
X1662213Y-12654780D01*
X1596237Y-12634767D01*
X1413828Y-12537267D01*
X1253946Y-12406054D01*
X1122733Y-12246172D01*
X1025233Y-12063763D01*
X1005220Y-11997787D01*
X965193Y-11865836D01*
X944920Y-11660000D01*
X965193Y-11454164D01*
X1025233Y-11256238D01*
X1025233Y-11256237D01*
X1122733Y-11073828D01*
X1253946Y-10913946D01*
X1413828Y-10782733D01*
X1596237Y-10685233D01*
X1662213Y-10665220D01*
X1794164Y-10625193D01*
X1871293Y-10617597D01*
X1948420Y-10610000D01*
X2051580Y-10610000D01*
X2128707Y-10617597D01*
X2128707Y-10617597D01*
G37*
G36*
X36128707Y-8077596D02*
X36205836Y-8085193D01*
X36337787Y-8125220D01*
X36403763Y-8145233D01*
X36586172Y-8242733D01*
X36746054Y-8373946D01*
X36877267Y-8533828D01*
X36974767Y-8716237D01*
X36974767Y-8716238D01*
X37034807Y-8914164D01*
X37055080Y-9120000D01*
X37034807Y-9325836D01*
X36994780Y-9457787D01*
X36974767Y-9523763D01*
X36877267Y-9706172D01*
X36746054Y-9866054D01*
X36586172Y-9997267D01*
X36403763Y-10094767D01*
X36337787Y-10114780D01*
X36205836Y-10154807D01*
X36128707Y-10162404D01*
X36051580Y-10170000D01*
X35948420Y-10170000D01*
X35871293Y-10162404D01*
X35794164Y-10154807D01*
X35662213Y-10114780D01*
X35596237Y-10094767D01*
X35413828Y-9997267D01*
X35253946Y-9866054D01*
X35122733Y-9706172D01*
X35025233Y-9523763D01*
X35005220Y-9457787D01*
X34965193Y-9325836D01*
X34944920Y-9120000D01*
X34965193Y-8914164D01*
X35025233Y-8716238D01*
X35025233Y-8716237D01*
X35122733Y-8533828D01*
X35253946Y-8373946D01*
X35413828Y-8242733D01*
X35596237Y-8145233D01*
X35662213Y-8125220D01*
X35794164Y-8085193D01*
X35871293Y-8077596D01*
X35948420Y-8070000D01*
X36051580Y-8070000D01*
X36128707Y-8077596D01*
X36128707Y-8077596D01*
G37*
G36*
X2128707Y-8077596D02*
X2205836Y-8085193D01*
X2337787Y-8125220D01*
X2403763Y-8145233D01*
X2586172Y-8242733D01*
X2746054Y-8373946D01*
X2877267Y-8533828D01*
X2974767Y-8716237D01*
X2974767Y-8716238D01*
X3034807Y-8914164D01*
X3055080Y-9120000D01*
X3034807Y-9325836D01*
X2994780Y-9457787D01*
X2974767Y-9523763D01*
X2877267Y-9706172D01*
X2746054Y-9866054D01*
X2586172Y-9997267D01*
X2403763Y-10094767D01*
X2337787Y-10114780D01*
X2205836Y-10154807D01*
X2128707Y-10162404D01*
X2051580Y-10170000D01*
X1948420Y-10170000D01*
X1871293Y-10162404D01*
X1794164Y-10154807D01*
X1662213Y-10114780D01*
X1596237Y-10094767D01*
X1413828Y-9997267D01*
X1253946Y-9866054D01*
X1122733Y-9706172D01*
X1025233Y-9523763D01*
X1005220Y-9457787D01*
X965193Y-9325836D01*
X944920Y-9120000D01*
X965193Y-8914164D01*
X1025233Y-8716238D01*
X1025233Y-8716237D01*
X1122733Y-8533828D01*
X1253946Y-8373946D01*
X1413828Y-8242733D01*
X1596237Y-8145233D01*
X1662213Y-8125220D01*
X1794164Y-8085193D01*
X1871293Y-8077596D01*
X1948420Y-8070000D01*
X2051580Y-8070000D01*
X2128707Y-8077596D01*
X2128707Y-8077596D01*
G37*
G36*
X36128707Y-5537596D02*
X36205836Y-5545193D01*
X36337787Y-5585220D01*
X36403763Y-5605233D01*
X36586172Y-5702733D01*
X36746054Y-5833946D01*
X36877267Y-5993828D01*
X36974767Y-6176237D01*
X36974767Y-6176238D01*
X37034807Y-6374164D01*
X37055080Y-6580000D01*
X37034807Y-6785836D01*
X36994780Y-6917787D01*
X36974767Y-6983763D01*
X36877267Y-7166172D01*
X36746054Y-7326054D01*
X36586172Y-7457267D01*
X36403763Y-7554767D01*
X36337787Y-7574780D01*
X36205836Y-7614807D01*
X36128707Y-7622403D01*
X36051580Y-7630000D01*
X35948420Y-7630000D01*
X35871293Y-7622403D01*
X35794164Y-7614807D01*
X35662213Y-7574780D01*
X35596237Y-7554767D01*
X35413828Y-7457267D01*
X35253946Y-7326054D01*
X35122733Y-7166172D01*
X35025233Y-6983763D01*
X35005220Y-6917787D01*
X34965193Y-6785836D01*
X34944920Y-6580000D01*
X34965193Y-6374164D01*
X35025233Y-6176238D01*
X35025233Y-6176237D01*
X35122733Y-5993828D01*
X35253946Y-5833946D01*
X35413828Y-5702733D01*
X35596237Y-5605233D01*
X35662213Y-5585220D01*
X35794164Y-5545193D01*
X35871293Y-5537597D01*
X35948420Y-5530000D01*
X36051580Y-5530000D01*
X36128707Y-5537596D01*
X36128707Y-5537596D01*
G37*
G36*
X2128707Y-5537596D02*
X2205836Y-5545193D01*
X2337787Y-5585220D01*
X2403763Y-5605233D01*
X2586172Y-5702733D01*
X2746054Y-5833946D01*
X2877267Y-5993828D01*
X2974767Y-6176237D01*
X2974767Y-6176238D01*
X3034807Y-6374164D01*
X3055080Y-6580000D01*
X3034807Y-6785836D01*
X2994780Y-6917787D01*
X2974767Y-6983763D01*
X2877267Y-7166172D01*
X2746054Y-7326054D01*
X2586172Y-7457267D01*
X2403763Y-7554767D01*
X2337787Y-7574780D01*
X2205836Y-7614807D01*
X2128707Y-7622403D01*
X2051580Y-7630000D01*
X1948420Y-7630000D01*
X1871293Y-7622403D01*
X1794164Y-7614807D01*
X1662213Y-7574780D01*
X1596237Y-7554767D01*
X1413828Y-7457267D01*
X1253946Y-7326054D01*
X1122733Y-7166172D01*
X1025233Y-6983763D01*
X1005220Y-6917787D01*
X965193Y-6785836D01*
X944920Y-6580000D01*
X965193Y-6374164D01*
X1025233Y-6176238D01*
X1025233Y-6176237D01*
X1122733Y-5993828D01*
X1253946Y-5833946D01*
X1413828Y-5702733D01*
X1596237Y-5605233D01*
X1662213Y-5585220D01*
X1794164Y-5545193D01*
X1871293Y-5537596D01*
X1948420Y-5530000D01*
X2051580Y-5530000D01*
X2128707Y-5537596D01*
X2128707Y-5537596D01*
G37*
G36*
X2128707Y-2997597D02*
X2205836Y-3005193D01*
X2337787Y-3045220D01*
X2403763Y-3065233D01*
X2586172Y-3162733D01*
X2746054Y-3293946D01*
X2877267Y-3453828D01*
X2974767Y-3636237D01*
X2974767Y-3636238D01*
X3034807Y-3834164D01*
X3055080Y-4040000D01*
X3034807Y-4245836D01*
X2994780Y-4377787D01*
X2974767Y-4443763D01*
X2877267Y-4626172D01*
X2746054Y-4786054D01*
X2586172Y-4917267D01*
X2403763Y-5014767D01*
X2337787Y-5034780D01*
X2205836Y-5074807D01*
X2128707Y-5082404D01*
X2051580Y-5090000D01*
X1948420Y-5090000D01*
X1871293Y-5082404D01*
X1794164Y-5074807D01*
X1662213Y-5034780D01*
X1596237Y-5014767D01*
X1413828Y-4917267D01*
X1253946Y-4786054D01*
X1122733Y-4626172D01*
X1025233Y-4443763D01*
X1005220Y-4377787D01*
X965193Y-4245836D01*
X944920Y-4040000D01*
X965193Y-3834164D01*
X1025233Y-3636238D01*
X1025233Y-3636237D01*
X1122733Y-3453828D01*
X1253946Y-3293946D01*
X1413828Y-3162733D01*
X1596237Y-3065233D01*
X1662213Y-3045220D01*
X1794164Y-3005193D01*
X1871293Y-2997597D01*
X1948420Y-2990000D01*
X2051580Y-2990000D01*
X2128707Y-2997597D01*
X2128707Y-2997597D01*
G37*
G36*
X36128707Y-2997597D02*
X36205836Y-3005193D01*
X36337787Y-3045220D01*
X36403763Y-3065233D01*
X36586172Y-3162733D01*
X36746054Y-3293946D01*
X36877267Y-3453828D01*
X36974767Y-3636237D01*
X36974767Y-3636238D01*
X37034807Y-3834164D01*
X37055080Y-4040000D01*
X37034807Y-4245836D01*
X36994780Y-4377787D01*
X36974767Y-4443763D01*
X36877267Y-4626172D01*
X36746054Y-4786054D01*
X36586172Y-4917267D01*
X36403763Y-5014767D01*
X36337787Y-5034780D01*
X36205836Y-5074807D01*
X36128707Y-5082404D01*
X36051580Y-5090000D01*
X35948420Y-5090000D01*
X35871293Y-5082404D01*
X35794164Y-5074807D01*
X35662213Y-5034780D01*
X35596237Y-5014767D01*
X35413828Y-4917267D01*
X35253946Y-4786054D01*
X35122733Y-4626172D01*
X35025233Y-4443763D01*
X35005220Y-4377787D01*
X34965193Y-4245836D01*
X34944920Y-4040000D01*
X34965193Y-3834164D01*
X35025233Y-3636238D01*
X35025233Y-3636237D01*
X35122733Y-3453828D01*
X35253946Y-3293946D01*
X35413828Y-3162733D01*
X35596237Y-3065233D01*
X35662213Y-3045220D01*
X35794164Y-3005193D01*
X35871293Y-2997596D01*
X35948420Y-2990000D01*
X36051580Y-2990000D01*
X36128707Y-2997597D01*
X36128707Y-2997597D01*
G37*
G36*
X3050000Y-2550000D02*
X950000Y-2550000D01*
X950000Y-450000D01*
X3050000Y-450000D01*
X3050000Y-2550000D01*
X3050000Y-2550000D01*
G37*
G36*
X37050000Y-2550000D02*
X34950000Y-2550000D01*
X34950000Y-450000D01*
X37050000Y-450000D01*
X37050000Y-2550000D01*
X37050000Y-2550000D01*
G37*
M02*
