G04 #@! TF.GenerationSoftware,KiCad,Pcbnew,(5.0.0)*
G04 #@! TF.CreationDate,2018-08-19T10:20:34+02:00*
G04 #@! TF.ProjectId,1u_mute_panel,31755F6D7574655F70616E656C2E6B69,rev?*
G04 #@! TF.SameCoordinates,Original*
G04 #@! TF.FileFunction,Soldermask,Top*
G04 #@! TF.FilePolarity,Negative*
%FSLAX46Y46*%
G04 Gerber Fmt 4.6, Leading zero omitted, Abs format (unit mm)*
G04 Created by KiCad (PCBNEW (5.0.0)) date 08/19/18 10:20:34*
%MOMM*%
%LPD*%
G01*
G04 APERTURE LIST*
%ADD10C,0.010000*%
%ADD11C,0.100000*%
%ADD12C,4.600000*%
%ADD13C,7.500000*%
%ADD14C,7.900000*%
G04 APERTURE END LIST*
D10*
G04 #@! TO.C,G\002A\002A\002A*
G36*
X21715005Y-1792376D02*
X21732069Y-1812805D01*
X21738606Y-1833964D01*
X21737348Y-1865379D01*
X21736960Y-1868908D01*
X21735161Y-1887401D01*
X21733176Y-1903074D01*
X21729368Y-1916159D01*
X21722100Y-1926890D01*
X21709734Y-1935499D01*
X21690635Y-1942217D01*
X21663164Y-1947279D01*
X21625684Y-1950915D01*
X21576558Y-1953360D01*
X21514149Y-1954845D01*
X21436820Y-1955602D01*
X21342933Y-1955865D01*
X21230852Y-1955865D01*
X21124911Y-1955833D01*
X20565167Y-1955833D01*
X20565167Y-3003583D01*
X21433962Y-3003583D01*
X21459940Y-3029560D01*
X21479640Y-3058233D01*
X21485889Y-3095418D01*
X21485917Y-3098833D01*
X21480533Y-3137050D01*
X21461972Y-3166028D01*
X21459940Y-3168106D01*
X21433962Y-3194083D01*
X20565167Y-3194083D01*
X20565167Y-4231250D01*
X21687962Y-4231250D01*
X21715225Y-4258513D01*
X21732157Y-4278849D01*
X21738619Y-4300051D01*
X21737314Y-4331613D01*
X21736960Y-4334824D01*
X21735466Y-4351734D01*
X21734089Y-4366306D01*
X21731350Y-4378712D01*
X21725770Y-4389126D01*
X21715871Y-4397721D01*
X21700175Y-4404670D01*
X21677204Y-4410148D01*
X21645479Y-4414326D01*
X21603521Y-4417379D01*
X21549854Y-4419479D01*
X21482997Y-4420799D01*
X21401474Y-4421513D01*
X21303804Y-4421795D01*
X21188512Y-4421817D01*
X21054117Y-4421753D01*
X20995265Y-4421741D01*
X20857585Y-4421728D01*
X20739455Y-4421660D01*
X20639260Y-4421486D01*
X20555383Y-4421156D01*
X20486208Y-4420621D01*
X20430120Y-4419830D01*
X20385502Y-4418735D01*
X20350739Y-4417284D01*
X20324214Y-4415429D01*
X20304310Y-4413118D01*
X20289413Y-4410303D01*
X20277906Y-4406934D01*
X20268173Y-4402959D01*
X20260031Y-4399041D01*
X20219462Y-4371041D01*
X20186375Y-4334321D01*
X20185948Y-4333679D01*
X20157709Y-4291009D01*
X20154927Y-3105876D01*
X20152146Y-1920743D01*
X20174730Y-1874090D01*
X20205009Y-1830011D01*
X20240232Y-1799031D01*
X20283149Y-1770625D01*
X20985335Y-1767758D01*
X21687521Y-1764892D01*
X21715005Y-1792376D01*
X21715005Y-1792376D01*
G37*
X21715005Y-1792376D02*
X21732069Y-1812805D01*
X21738606Y-1833964D01*
X21737348Y-1865379D01*
X21736960Y-1868908D01*
X21735161Y-1887401D01*
X21733176Y-1903074D01*
X21729368Y-1916159D01*
X21722100Y-1926890D01*
X21709734Y-1935499D01*
X21690635Y-1942217D01*
X21663164Y-1947279D01*
X21625684Y-1950915D01*
X21576558Y-1953360D01*
X21514149Y-1954845D01*
X21436820Y-1955602D01*
X21342933Y-1955865D01*
X21230852Y-1955865D01*
X21124911Y-1955833D01*
X20565167Y-1955833D01*
X20565167Y-3003583D01*
X21433962Y-3003583D01*
X21459940Y-3029560D01*
X21479640Y-3058233D01*
X21485889Y-3095418D01*
X21485917Y-3098833D01*
X21480533Y-3137050D01*
X21461972Y-3166028D01*
X21459940Y-3168106D01*
X21433962Y-3194083D01*
X20565167Y-3194083D01*
X20565167Y-4231250D01*
X21687962Y-4231250D01*
X21715225Y-4258513D01*
X21732157Y-4278849D01*
X21738619Y-4300051D01*
X21737314Y-4331613D01*
X21736960Y-4334824D01*
X21735466Y-4351734D01*
X21734089Y-4366306D01*
X21731350Y-4378712D01*
X21725770Y-4389126D01*
X21715871Y-4397721D01*
X21700175Y-4404670D01*
X21677204Y-4410148D01*
X21645479Y-4414326D01*
X21603521Y-4417379D01*
X21549854Y-4419479D01*
X21482997Y-4420799D01*
X21401474Y-4421513D01*
X21303804Y-4421795D01*
X21188512Y-4421817D01*
X21054117Y-4421753D01*
X20995265Y-4421741D01*
X20857585Y-4421728D01*
X20739455Y-4421660D01*
X20639260Y-4421486D01*
X20555383Y-4421156D01*
X20486208Y-4420621D01*
X20430120Y-4419830D01*
X20385502Y-4418735D01*
X20350739Y-4417284D01*
X20324214Y-4415429D01*
X20304310Y-4413118D01*
X20289413Y-4410303D01*
X20277906Y-4406934D01*
X20268173Y-4402959D01*
X20260031Y-4399041D01*
X20219462Y-4371041D01*
X20186375Y-4334321D01*
X20185948Y-4333679D01*
X20157709Y-4291009D01*
X20154927Y-3105876D01*
X20152146Y-1920743D01*
X20174730Y-1874090D01*
X20205009Y-1830011D01*
X20240232Y-1799031D01*
X20283149Y-1770625D01*
X20985335Y-1767758D01*
X21687521Y-1764892D01*
X21715005Y-1792376D01*
G36*
X19937274Y-1790668D02*
X19957704Y-1813576D01*
X19965869Y-1841038D01*
X19966727Y-1860583D01*
X19963203Y-1894538D01*
X19949700Y-1918511D01*
X19937274Y-1930498D01*
X19907820Y-1955833D01*
X19189334Y-1955833D01*
X19189101Y-3106771D01*
X19189052Y-3287955D01*
X19188969Y-3449186D01*
X19188831Y-3591678D01*
X19188618Y-3716645D01*
X19188311Y-3825301D01*
X19187888Y-3918859D01*
X19187331Y-3998533D01*
X19186618Y-4065536D01*
X19185730Y-4121084D01*
X19184646Y-4166389D01*
X19183346Y-4202665D01*
X19181810Y-4231127D01*
X19180018Y-4252987D01*
X19177949Y-4269460D01*
X19175584Y-4281759D01*
X19172902Y-4291099D01*
X19169884Y-4298693D01*
X19169269Y-4300042D01*
X19138517Y-4348805D01*
X19097939Y-4388324D01*
X19058999Y-4410493D01*
X19016755Y-4419551D01*
X18967580Y-4420236D01*
X18921595Y-4412946D01*
X18898292Y-4404164D01*
X18843971Y-4366509D01*
X18805825Y-4318069D01*
X18796586Y-4300042D01*
X18793511Y-4292627D01*
X18790775Y-4283667D01*
X18788358Y-4271949D01*
X18786241Y-4256258D01*
X18784404Y-4235381D01*
X18782825Y-4208105D01*
X18781486Y-4173215D01*
X18780366Y-4129499D01*
X18779444Y-4075742D01*
X18778702Y-4010731D01*
X18778118Y-3933252D01*
X18777673Y-3842092D01*
X18777346Y-3736037D01*
X18777118Y-3613873D01*
X18776968Y-3474387D01*
X18776876Y-3316365D01*
X18776823Y-3138593D01*
X18776816Y-3106771D01*
X18776584Y-1955833D01*
X18055955Y-1955833D01*
X18029977Y-1929856D01*
X18010277Y-1901183D01*
X18004028Y-1863998D01*
X18004000Y-1860583D01*
X18009384Y-1822366D01*
X18027945Y-1793388D01*
X18029977Y-1791310D01*
X18055955Y-1765333D01*
X19907820Y-1765333D01*
X19937274Y-1790668D01*
X19937274Y-1790668D01*
G37*
X19937274Y-1790668D02*
X19957704Y-1813576D01*
X19965869Y-1841038D01*
X19966727Y-1860583D01*
X19963203Y-1894538D01*
X19949700Y-1918511D01*
X19937274Y-1930498D01*
X19907820Y-1955833D01*
X19189334Y-1955833D01*
X19189101Y-3106771D01*
X19189052Y-3287955D01*
X19188969Y-3449186D01*
X19188831Y-3591678D01*
X19188618Y-3716645D01*
X19188311Y-3825301D01*
X19187888Y-3918859D01*
X19187331Y-3998533D01*
X19186618Y-4065536D01*
X19185730Y-4121084D01*
X19184646Y-4166389D01*
X19183346Y-4202665D01*
X19181810Y-4231127D01*
X19180018Y-4252987D01*
X19177949Y-4269460D01*
X19175584Y-4281759D01*
X19172902Y-4291099D01*
X19169884Y-4298693D01*
X19169269Y-4300042D01*
X19138517Y-4348805D01*
X19097939Y-4388324D01*
X19058999Y-4410493D01*
X19016755Y-4419551D01*
X18967580Y-4420236D01*
X18921595Y-4412946D01*
X18898292Y-4404164D01*
X18843971Y-4366509D01*
X18805825Y-4318069D01*
X18796586Y-4300042D01*
X18793511Y-4292627D01*
X18790775Y-4283667D01*
X18788358Y-4271949D01*
X18786241Y-4256258D01*
X18784404Y-4235381D01*
X18782825Y-4208105D01*
X18781486Y-4173215D01*
X18780366Y-4129499D01*
X18779444Y-4075742D01*
X18778702Y-4010731D01*
X18778118Y-3933252D01*
X18777673Y-3842092D01*
X18777346Y-3736037D01*
X18777118Y-3613873D01*
X18776968Y-3474387D01*
X18776876Y-3316365D01*
X18776823Y-3138593D01*
X18776816Y-3106771D01*
X18776584Y-1955833D01*
X18055955Y-1955833D01*
X18029977Y-1929856D01*
X18010277Y-1901183D01*
X18004028Y-1863998D01*
X18004000Y-1860583D01*
X18009384Y-1822366D01*
X18027945Y-1793388D01*
X18029977Y-1791310D01*
X18055955Y-1765333D01*
X19907820Y-1765333D01*
X19937274Y-1790668D01*
G36*
X15225685Y-1776206D02*
X15277002Y-1800940D01*
X15319879Y-1839110D01*
X15350411Y-1889794D01*
X15357701Y-1911183D01*
X15359442Y-1928014D01*
X15361038Y-1964316D01*
X15362489Y-2018396D01*
X15363794Y-2088558D01*
X15364954Y-2173109D01*
X15365969Y-2270352D01*
X15366839Y-2378595D01*
X15367564Y-2496142D01*
X15368143Y-2621299D01*
X15368578Y-2752372D01*
X15368867Y-2887665D01*
X15369011Y-3025485D01*
X15369009Y-3164136D01*
X15368863Y-3301924D01*
X15368571Y-3437155D01*
X15368134Y-3568135D01*
X15367552Y-3693168D01*
X15366825Y-3810560D01*
X15365952Y-3918616D01*
X15364934Y-4015643D01*
X15363771Y-4099945D01*
X15362463Y-4169827D01*
X15361010Y-4223597D01*
X15359412Y-4259558D01*
X15357701Y-4275900D01*
X15332739Y-4330406D01*
X15294015Y-4372575D01*
X15245387Y-4401801D01*
X15190714Y-4417475D01*
X15133854Y-4418987D01*
X15078666Y-4405731D01*
X15029009Y-4377096D01*
X14989698Y-4333933D01*
X14961292Y-4291014D01*
X14956000Y-3303341D01*
X14950709Y-2315668D01*
X14755412Y-2651688D01*
X14701361Y-2744753D01*
X14639782Y-2850890D01*
X14573727Y-2964834D01*
X14506245Y-3081322D01*
X14440385Y-3195091D01*
X14379198Y-3300876D01*
X14349170Y-3352833D01*
X14302136Y-3433902D01*
X14257628Y-3509964D01*
X14216921Y-3578890D01*
X14181289Y-3638548D01*
X14152008Y-3686807D01*
X14130352Y-3721538D01*
X14117597Y-3740609D01*
X14115841Y-3742801D01*
X14071096Y-3778414D01*
X14017378Y-3799558D01*
X13959553Y-3806331D01*
X13902488Y-3798831D01*
X13851049Y-3777157D01*
X13810103Y-3741409D01*
X13806366Y-3736509D01*
X13797705Y-3722717D01*
X13779405Y-3692083D01*
X13752350Y-3646129D01*
X13717424Y-3586377D01*
X13675512Y-3514349D01*
X13627499Y-3431570D01*
X13574268Y-3339559D01*
X13516705Y-3239841D01*
X13455695Y-3133938D01*
X13399541Y-3036287D01*
X13013959Y-2365199D01*
X13008667Y-3373245D01*
X13003375Y-4381290D01*
X12978390Y-4401520D01*
X12941793Y-4419002D01*
X12899857Y-4421196D01*
X12860825Y-4408453D01*
X12844144Y-4395773D01*
X12818167Y-4369795D01*
X12818167Y-1920183D01*
X12840616Y-1873810D01*
X12875856Y-1824273D01*
X12925236Y-1788650D01*
X12985093Y-1769402D01*
X12998535Y-1767681D01*
X13054271Y-1769646D01*
X13107943Y-1784353D01*
X13152027Y-1809383D01*
X13164760Y-1821162D01*
X13173270Y-1833779D01*
X13191491Y-1863358D01*
X13218602Y-1908497D01*
X13253781Y-1967798D01*
X13296209Y-2039859D01*
X13345064Y-2123282D01*
X13399526Y-2216666D01*
X13458774Y-2318611D01*
X13521987Y-2427717D01*
X13588345Y-2542584D01*
X13628356Y-2612000D01*
X13695943Y-2729266D01*
X13760657Y-2841380D01*
X13821700Y-2946965D01*
X13878273Y-3044648D01*
X13929576Y-3133056D01*
X13974811Y-3210813D01*
X14013179Y-3276545D01*
X14043881Y-3328879D01*
X14066117Y-3366439D01*
X14079089Y-3387853D01*
X14082102Y-3392388D01*
X14086827Y-3390495D01*
X14096630Y-3379043D01*
X14112022Y-3357186D01*
X14133513Y-3324077D01*
X14161613Y-3278870D01*
X14196833Y-3220718D01*
X14239681Y-3148775D01*
X14290670Y-3062196D01*
X14350308Y-2960132D01*
X14419107Y-2841739D01*
X14497577Y-2706169D01*
X14538204Y-2635825D01*
X14606511Y-2517704D01*
X14672357Y-2404261D01*
X14734899Y-2296925D01*
X14793295Y-2197122D01*
X14846701Y-2106279D01*
X14894275Y-2025824D01*
X14935175Y-1957184D01*
X14968557Y-1901785D01*
X14993578Y-1861055D01*
X15009397Y-1836421D01*
X15014043Y-1830048D01*
X15060105Y-1791828D01*
X15113334Y-1770728D01*
X15169828Y-1765828D01*
X15225685Y-1776206D01*
X15225685Y-1776206D01*
G37*
X15225685Y-1776206D02*
X15277002Y-1800940D01*
X15319879Y-1839110D01*
X15350411Y-1889794D01*
X15357701Y-1911183D01*
X15359442Y-1928014D01*
X15361038Y-1964316D01*
X15362489Y-2018396D01*
X15363794Y-2088558D01*
X15364954Y-2173109D01*
X15365969Y-2270352D01*
X15366839Y-2378595D01*
X15367564Y-2496142D01*
X15368143Y-2621299D01*
X15368578Y-2752372D01*
X15368867Y-2887665D01*
X15369011Y-3025485D01*
X15369009Y-3164136D01*
X15368863Y-3301924D01*
X15368571Y-3437155D01*
X15368134Y-3568135D01*
X15367552Y-3693168D01*
X15366825Y-3810560D01*
X15365952Y-3918616D01*
X15364934Y-4015643D01*
X15363771Y-4099945D01*
X15362463Y-4169827D01*
X15361010Y-4223597D01*
X15359412Y-4259558D01*
X15357701Y-4275900D01*
X15332739Y-4330406D01*
X15294015Y-4372575D01*
X15245387Y-4401801D01*
X15190714Y-4417475D01*
X15133854Y-4418987D01*
X15078666Y-4405731D01*
X15029009Y-4377096D01*
X14989698Y-4333933D01*
X14961292Y-4291014D01*
X14956000Y-3303341D01*
X14950709Y-2315668D01*
X14755412Y-2651688D01*
X14701361Y-2744753D01*
X14639782Y-2850890D01*
X14573727Y-2964834D01*
X14506245Y-3081322D01*
X14440385Y-3195091D01*
X14379198Y-3300876D01*
X14349170Y-3352833D01*
X14302136Y-3433902D01*
X14257628Y-3509964D01*
X14216921Y-3578890D01*
X14181289Y-3638548D01*
X14152008Y-3686807D01*
X14130352Y-3721538D01*
X14117597Y-3740609D01*
X14115841Y-3742801D01*
X14071096Y-3778414D01*
X14017378Y-3799558D01*
X13959553Y-3806331D01*
X13902488Y-3798831D01*
X13851049Y-3777157D01*
X13810103Y-3741409D01*
X13806366Y-3736509D01*
X13797705Y-3722717D01*
X13779405Y-3692083D01*
X13752350Y-3646129D01*
X13717424Y-3586377D01*
X13675512Y-3514349D01*
X13627499Y-3431570D01*
X13574268Y-3339559D01*
X13516705Y-3239841D01*
X13455695Y-3133938D01*
X13399541Y-3036287D01*
X13013959Y-2365199D01*
X13008667Y-3373245D01*
X13003375Y-4381290D01*
X12978390Y-4401520D01*
X12941793Y-4419002D01*
X12899857Y-4421196D01*
X12860825Y-4408453D01*
X12844144Y-4395773D01*
X12818167Y-4369795D01*
X12818167Y-1920183D01*
X12840616Y-1873810D01*
X12875856Y-1824273D01*
X12925236Y-1788650D01*
X12985093Y-1769402D01*
X12998535Y-1767681D01*
X13054271Y-1769646D01*
X13107943Y-1784353D01*
X13152027Y-1809383D01*
X13164760Y-1821162D01*
X13173270Y-1833779D01*
X13191491Y-1863358D01*
X13218602Y-1908497D01*
X13253781Y-1967798D01*
X13296209Y-2039859D01*
X13345064Y-2123282D01*
X13399526Y-2216666D01*
X13458774Y-2318611D01*
X13521987Y-2427717D01*
X13588345Y-2542584D01*
X13628356Y-2612000D01*
X13695943Y-2729266D01*
X13760657Y-2841380D01*
X13821700Y-2946965D01*
X13878273Y-3044648D01*
X13929576Y-3133056D01*
X13974811Y-3210813D01*
X14013179Y-3276545D01*
X14043881Y-3328879D01*
X14066117Y-3366439D01*
X14079089Y-3387853D01*
X14082102Y-3392388D01*
X14086827Y-3390495D01*
X14096630Y-3379043D01*
X14112022Y-3357186D01*
X14133513Y-3324077D01*
X14161613Y-3278870D01*
X14196833Y-3220718D01*
X14239681Y-3148775D01*
X14290670Y-3062196D01*
X14350308Y-2960132D01*
X14419107Y-2841739D01*
X14497577Y-2706169D01*
X14538204Y-2635825D01*
X14606511Y-2517704D01*
X14672357Y-2404261D01*
X14734899Y-2296925D01*
X14793295Y-2197122D01*
X14846701Y-2106279D01*
X14894275Y-2025824D01*
X14935175Y-1957184D01*
X14968557Y-1901785D01*
X14993578Y-1861055D01*
X15009397Y-1836421D01*
X15014043Y-1830048D01*
X15060105Y-1791828D01*
X15113334Y-1770728D01*
X15169828Y-1765828D01*
X15225685Y-1776206D01*
G36*
X17598224Y-1770998D02*
X17644771Y-1790022D01*
X17684144Y-1821256D01*
X17696370Y-1833239D01*
X17706981Y-1844978D01*
X17716091Y-1857983D01*
X17723814Y-1873764D01*
X17730264Y-1893830D01*
X17735557Y-1919693D01*
X17739805Y-1952862D01*
X17743124Y-1994847D01*
X17745627Y-2047158D01*
X17747429Y-2111307D01*
X17748643Y-2188801D01*
X17749385Y-2281153D01*
X17749769Y-2389871D01*
X17749908Y-2516467D01*
X17749917Y-2662449D01*
X17749913Y-2690650D01*
X17749748Y-2818416D01*
X17749298Y-2941313D01*
X17748588Y-3057409D01*
X17747644Y-3164768D01*
X17746489Y-3261458D01*
X17745148Y-3345545D01*
X17743646Y-3415094D01*
X17742008Y-3468173D01*
X17740257Y-3502846D01*
X17739479Y-3511583D01*
X17713320Y-3659626D01*
X17669841Y-3796098D01*
X17608272Y-3922625D01*
X17527841Y-4040833D01*
X17443084Y-4136991D01*
X17341989Y-4230498D01*
X17238395Y-4305931D01*
X17127404Y-4366247D01*
X17004118Y-4414401D01*
X16961542Y-4427644D01*
X16879239Y-4445981D01*
X16784146Y-4457565D01*
X16683613Y-4462151D01*
X16584990Y-4459493D01*
X16495627Y-4449346D01*
X16468412Y-4444092D01*
X16323280Y-4401926D01*
X16188123Y-4341577D01*
X16064050Y-4264084D01*
X15952174Y-4170485D01*
X15853604Y-4061821D01*
X15769453Y-3939129D01*
X15700832Y-3803449D01*
X15657849Y-3686208D01*
X15628331Y-3590958D01*
X15625117Y-2756445D01*
X15621903Y-1921933D01*
X15644775Y-1874685D01*
X15679148Y-1825120D01*
X15724428Y-1790721D01*
X15776927Y-1771319D01*
X15832962Y-1766744D01*
X15888847Y-1776830D01*
X15940896Y-1801408D01*
X15985424Y-1840308D01*
X16018020Y-1891737D01*
X16020515Y-1904463D01*
X16022808Y-1931591D01*
X16024913Y-1973868D01*
X16026845Y-2032042D01*
X16028620Y-2106860D01*
X16030254Y-2199071D01*
X16031760Y-2309422D01*
X16033154Y-2438661D01*
X16034452Y-2587534D01*
X16035668Y-2756791D01*
X16035725Y-2765458D01*
X16041242Y-3612125D01*
X16070473Y-3706103D01*
X16118570Y-3834860D01*
X16177762Y-3948846D01*
X16247148Y-4047124D01*
X16325823Y-4128757D01*
X16412887Y-4192809D01*
X16507436Y-4238341D01*
X16608095Y-4264344D01*
X16707391Y-4269417D01*
X16804650Y-4254471D01*
X16898344Y-4220645D01*
X16986943Y-4169083D01*
X17068922Y-4100923D01*
X17142751Y-4017308D01*
X17206904Y-3919377D01*
X17259851Y-3808273D01*
X17275684Y-3765821D01*
X17285317Y-3738054D01*
X17293739Y-3712826D01*
X17301043Y-3688565D01*
X17307320Y-3663698D01*
X17312664Y-3636654D01*
X17317167Y-3605859D01*
X17320919Y-3569743D01*
X17324015Y-3526732D01*
X17326546Y-3475255D01*
X17328604Y-3413740D01*
X17330282Y-3340613D01*
X17331672Y-3254304D01*
X17332866Y-3153239D01*
X17333956Y-3035847D01*
X17335035Y-2900556D01*
X17336195Y-2745793D01*
X17336291Y-2732920D01*
X17342542Y-1896049D01*
X17370948Y-1853140D01*
X17411535Y-1809972D01*
X17464923Y-1779915D01*
X17525324Y-1765957D01*
X17540986Y-1765333D01*
X17598224Y-1770998D01*
X17598224Y-1770998D01*
G37*
X17598224Y-1770998D02*
X17644771Y-1790022D01*
X17684144Y-1821256D01*
X17696370Y-1833239D01*
X17706981Y-1844978D01*
X17716091Y-1857983D01*
X17723814Y-1873764D01*
X17730264Y-1893830D01*
X17735557Y-1919693D01*
X17739805Y-1952862D01*
X17743124Y-1994847D01*
X17745627Y-2047158D01*
X17747429Y-2111307D01*
X17748643Y-2188801D01*
X17749385Y-2281153D01*
X17749769Y-2389871D01*
X17749908Y-2516467D01*
X17749917Y-2662449D01*
X17749913Y-2690650D01*
X17749748Y-2818416D01*
X17749298Y-2941313D01*
X17748588Y-3057409D01*
X17747644Y-3164768D01*
X17746489Y-3261458D01*
X17745148Y-3345545D01*
X17743646Y-3415094D01*
X17742008Y-3468173D01*
X17740257Y-3502846D01*
X17739479Y-3511583D01*
X17713320Y-3659626D01*
X17669841Y-3796098D01*
X17608272Y-3922625D01*
X17527841Y-4040833D01*
X17443084Y-4136991D01*
X17341989Y-4230498D01*
X17238395Y-4305931D01*
X17127404Y-4366247D01*
X17004118Y-4414401D01*
X16961542Y-4427644D01*
X16879239Y-4445981D01*
X16784146Y-4457565D01*
X16683613Y-4462151D01*
X16584990Y-4459493D01*
X16495627Y-4449346D01*
X16468412Y-4444092D01*
X16323280Y-4401926D01*
X16188123Y-4341577D01*
X16064050Y-4264084D01*
X15952174Y-4170485D01*
X15853604Y-4061821D01*
X15769453Y-3939129D01*
X15700832Y-3803449D01*
X15657849Y-3686208D01*
X15628331Y-3590958D01*
X15625117Y-2756445D01*
X15621903Y-1921933D01*
X15644775Y-1874685D01*
X15679148Y-1825120D01*
X15724428Y-1790721D01*
X15776927Y-1771319D01*
X15832962Y-1766744D01*
X15888847Y-1776830D01*
X15940896Y-1801408D01*
X15985424Y-1840308D01*
X16018020Y-1891737D01*
X16020515Y-1904463D01*
X16022808Y-1931591D01*
X16024913Y-1973868D01*
X16026845Y-2032042D01*
X16028620Y-2106860D01*
X16030254Y-2199071D01*
X16031760Y-2309422D01*
X16033154Y-2438661D01*
X16034452Y-2587534D01*
X16035668Y-2756791D01*
X16035725Y-2765458D01*
X16041242Y-3612125D01*
X16070473Y-3706103D01*
X16118570Y-3834860D01*
X16177762Y-3948846D01*
X16247148Y-4047124D01*
X16325823Y-4128757D01*
X16412887Y-4192809D01*
X16507436Y-4238341D01*
X16608095Y-4264344D01*
X16707391Y-4269417D01*
X16804650Y-4254471D01*
X16898344Y-4220645D01*
X16986943Y-4169083D01*
X17068922Y-4100923D01*
X17142751Y-4017308D01*
X17206904Y-3919377D01*
X17259851Y-3808273D01*
X17275684Y-3765821D01*
X17285317Y-3738054D01*
X17293739Y-3712826D01*
X17301043Y-3688565D01*
X17307320Y-3663698D01*
X17312664Y-3636654D01*
X17317167Y-3605859D01*
X17320919Y-3569743D01*
X17324015Y-3526732D01*
X17326546Y-3475255D01*
X17328604Y-3413740D01*
X17330282Y-3340613D01*
X17331672Y-3254304D01*
X17332866Y-3153239D01*
X17333956Y-3035847D01*
X17335035Y-2900556D01*
X17336195Y-2745793D01*
X17336291Y-2732920D01*
X17342542Y-1896049D01*
X17370948Y-1853140D01*
X17411535Y-1809972D01*
X17464923Y-1779915D01*
X17525324Y-1765957D01*
X17540986Y-1765333D01*
X17598224Y-1770998D01*
G36*
X26961043Y-1473826D02*
X26990295Y-1487243D01*
X27032011Y-1507663D01*
X27083145Y-1533494D01*
X27140651Y-1563146D01*
X27201481Y-1595029D01*
X27262590Y-1627553D01*
X27320931Y-1659128D01*
X27373458Y-1688164D01*
X27417124Y-1713071D01*
X27433750Y-1722916D01*
X27564220Y-1803864D01*
X27678224Y-1879908D01*
X27779132Y-1953531D01*
X27870315Y-2027216D01*
X27955142Y-2103445D01*
X27971633Y-2119206D01*
X28058413Y-2210250D01*
X28125444Y-2297252D01*
X28173437Y-2381588D01*
X28203102Y-2464637D01*
X28215153Y-2547774D01*
X28214791Y-2589865D01*
X28209603Y-2642317D01*
X28199504Y-2683337D01*
X28182034Y-2722515D01*
X28179615Y-2727017D01*
X28141165Y-2782509D01*
X28087201Y-2839169D01*
X28022602Y-2892493D01*
X27952249Y-2937977D01*
X27949345Y-2939591D01*
X27874716Y-2975317D01*
X27782439Y-3010482D01*
X27676029Y-3044136D01*
X27559001Y-3075330D01*
X27434871Y-3103115D01*
X27307154Y-3126541D01*
X27199012Y-3142239D01*
X27096565Y-3155215D01*
X27090906Y-3230211D01*
X27089156Y-3261286D01*
X27087171Y-3309757D01*
X27085071Y-3371859D01*
X27082974Y-3443826D01*
X27081001Y-3521891D01*
X27079494Y-3590958D01*
X27076541Y-3726262D01*
X27073252Y-3856801D01*
X27069695Y-3980932D01*
X27065938Y-4097012D01*
X27062048Y-4203399D01*
X27058096Y-4298450D01*
X27054147Y-4380522D01*
X27050272Y-4447973D01*
X27046538Y-4499159D01*
X27043013Y-4532438D01*
X27039820Y-4546104D01*
X27021099Y-4556760D01*
X27006475Y-4558770D01*
X26990850Y-4554064D01*
X26959297Y-4541170D01*
X26914788Y-4521427D01*
X26860298Y-4496174D01*
X26798799Y-4466748D01*
X26761709Y-4448602D01*
X26619858Y-4376815D01*
X26495476Y-4309676D01*
X26385864Y-4245397D01*
X26288326Y-4182192D01*
X26200164Y-4118273D01*
X26118681Y-4051856D01*
X26041181Y-3981152D01*
X26010212Y-3950792D01*
X25946343Y-3884382D01*
X25897226Y-3826732D01*
X25860450Y-3774208D01*
X25833607Y-3723178D01*
X25814286Y-3670011D01*
X25807669Y-3645500D01*
X25796727Y-3560687D01*
X25797757Y-3552208D01*
X25975259Y-3552208D01*
X25977963Y-3614077D01*
X26001344Y-3680451D01*
X26016378Y-3708030D01*
X26061949Y-3773123D01*
X26124241Y-3844978D01*
X26200820Y-3921352D01*
X26289250Y-4000000D01*
X26387097Y-4078680D01*
X26491925Y-4155149D01*
X26529467Y-4180744D01*
X26569537Y-4206897D01*
X26618332Y-4237698D01*
X26672763Y-4271309D01*
X26729736Y-4305893D01*
X26786160Y-4339610D01*
X26838943Y-4370622D01*
X26884995Y-4397092D01*
X26921222Y-4417181D01*
X26944534Y-4429052D01*
X26951193Y-4431482D01*
X26954533Y-4421832D01*
X26956199Y-4394274D01*
X26956120Y-4352008D01*
X26954223Y-4298233D01*
X26954183Y-4297396D01*
X26952526Y-4258357D01*
X26950438Y-4201058D01*
X26948007Y-4128399D01*
X26945324Y-4043280D01*
X26942478Y-3948602D01*
X26939560Y-3847264D01*
X26936660Y-3742166D01*
X26934707Y-3668672D01*
X26921809Y-3174887D01*
X26884092Y-3180001D01*
X26708187Y-3206725D01*
X26549824Y-3236756D01*
X26409674Y-3269910D01*
X26288407Y-3306007D01*
X26186695Y-3344864D01*
X26105206Y-3386300D01*
X26090812Y-3395256D01*
X26031722Y-3442635D01*
X25993191Y-3495006D01*
X25975259Y-3552208D01*
X25797757Y-3552208D01*
X25806587Y-3479584D01*
X25837170Y-3402425D01*
X25888397Y-3329446D01*
X25926041Y-3290520D01*
X25999968Y-3232614D01*
X26093438Y-3179031D01*
X26206770Y-3129633D01*
X26340281Y-3084282D01*
X26494287Y-3042841D01*
X26502417Y-3040896D01*
X26545150Y-3031474D01*
X26598842Y-3020739D01*
X26659019Y-3009462D01*
X26721208Y-2998415D01*
X26780935Y-2988371D01*
X26833728Y-2980101D01*
X26875113Y-2974378D01*
X26900617Y-2971973D01*
X26901971Y-2971945D01*
X26904601Y-2968091D01*
X26906789Y-2955739D01*
X26907149Y-2951198D01*
X27097364Y-2951198D01*
X27130620Y-2945819D01*
X27153830Y-2942059D01*
X27192572Y-2935773D01*
X27241486Y-2927834D01*
X27295211Y-2919111D01*
X27296173Y-2918954D01*
X27430734Y-2893791D01*
X27555682Y-2863848D01*
X27669247Y-2829822D01*
X27769658Y-2792414D01*
X27855147Y-2752323D01*
X27923943Y-2710248D01*
X27974276Y-2666888D01*
X27992777Y-2643750D01*
X28007659Y-2617179D01*
X28014042Y-2590031D01*
X28013912Y-2552918D01*
X28013461Y-2546022D01*
X28009274Y-2511409D01*
X28000262Y-2481621D01*
X27983466Y-2449368D01*
X27959019Y-2411871D01*
X27894795Y-2330752D01*
X27810137Y-2245384D01*
X27705302Y-2155987D01*
X27580544Y-2062784D01*
X27476821Y-1992327D01*
X27426084Y-1959839D01*
X27371066Y-1925886D01*
X27314669Y-1892116D01*
X27259798Y-1860175D01*
X27209355Y-1831713D01*
X27166245Y-1808375D01*
X27133371Y-1791810D01*
X27113635Y-1783665D01*
X27109210Y-1783731D01*
X27108778Y-1795538D01*
X27108200Y-1826561D01*
X27107499Y-1874850D01*
X27106697Y-1938455D01*
X27105818Y-2015425D01*
X27104883Y-2103812D01*
X27103917Y-2201664D01*
X27102940Y-2307032D01*
X27102372Y-2371495D01*
X27097364Y-2951198D01*
X26907149Y-2951198D01*
X26908545Y-2933637D01*
X26909882Y-2900532D01*
X26910808Y-2855170D01*
X26911335Y-2796297D01*
X26911473Y-2722661D01*
X26911234Y-2633007D01*
X26910627Y-2526083D01*
X26909663Y-2400635D01*
X26908353Y-2255409D01*
X26908194Y-2238762D01*
X26906849Y-2096054D01*
X26905769Y-1973014D01*
X26904975Y-1868143D01*
X26904491Y-1779944D01*
X26904339Y-1706920D01*
X26904541Y-1647572D01*
X26905121Y-1600402D01*
X26906100Y-1563913D01*
X26907501Y-1536607D01*
X26909348Y-1516986D01*
X26911661Y-1503553D01*
X26914464Y-1494809D01*
X26917779Y-1489257D01*
X26919500Y-1487345D01*
X26937184Y-1473146D01*
X26947301Y-1469000D01*
X26961043Y-1473826D01*
X26961043Y-1473826D01*
G37*
X26961043Y-1473826D02*
X26990295Y-1487243D01*
X27032011Y-1507663D01*
X27083145Y-1533494D01*
X27140651Y-1563146D01*
X27201481Y-1595029D01*
X27262590Y-1627553D01*
X27320931Y-1659128D01*
X27373458Y-1688164D01*
X27417124Y-1713071D01*
X27433750Y-1722916D01*
X27564220Y-1803864D01*
X27678224Y-1879908D01*
X27779132Y-1953531D01*
X27870315Y-2027216D01*
X27955142Y-2103445D01*
X27971633Y-2119206D01*
X28058413Y-2210250D01*
X28125444Y-2297252D01*
X28173437Y-2381588D01*
X28203102Y-2464637D01*
X28215153Y-2547774D01*
X28214791Y-2589865D01*
X28209603Y-2642317D01*
X28199504Y-2683337D01*
X28182034Y-2722515D01*
X28179615Y-2727017D01*
X28141165Y-2782509D01*
X28087201Y-2839169D01*
X28022602Y-2892493D01*
X27952249Y-2937977D01*
X27949345Y-2939591D01*
X27874716Y-2975317D01*
X27782439Y-3010482D01*
X27676029Y-3044136D01*
X27559001Y-3075330D01*
X27434871Y-3103115D01*
X27307154Y-3126541D01*
X27199012Y-3142239D01*
X27096565Y-3155215D01*
X27090906Y-3230211D01*
X27089156Y-3261286D01*
X27087171Y-3309757D01*
X27085071Y-3371859D01*
X27082974Y-3443826D01*
X27081001Y-3521891D01*
X27079494Y-3590958D01*
X27076541Y-3726262D01*
X27073252Y-3856801D01*
X27069695Y-3980932D01*
X27065938Y-4097012D01*
X27062048Y-4203399D01*
X27058096Y-4298450D01*
X27054147Y-4380522D01*
X27050272Y-4447973D01*
X27046538Y-4499159D01*
X27043013Y-4532438D01*
X27039820Y-4546104D01*
X27021099Y-4556760D01*
X27006475Y-4558770D01*
X26990850Y-4554064D01*
X26959297Y-4541170D01*
X26914788Y-4521427D01*
X26860298Y-4496174D01*
X26798799Y-4466748D01*
X26761709Y-4448602D01*
X26619858Y-4376815D01*
X26495476Y-4309676D01*
X26385864Y-4245397D01*
X26288326Y-4182192D01*
X26200164Y-4118273D01*
X26118681Y-4051856D01*
X26041181Y-3981152D01*
X26010212Y-3950792D01*
X25946343Y-3884382D01*
X25897226Y-3826732D01*
X25860450Y-3774208D01*
X25833607Y-3723178D01*
X25814286Y-3670011D01*
X25807669Y-3645500D01*
X25796727Y-3560687D01*
X25797757Y-3552208D01*
X25975259Y-3552208D01*
X25977963Y-3614077D01*
X26001344Y-3680451D01*
X26016378Y-3708030D01*
X26061949Y-3773123D01*
X26124241Y-3844978D01*
X26200820Y-3921352D01*
X26289250Y-4000000D01*
X26387097Y-4078680D01*
X26491925Y-4155149D01*
X26529467Y-4180744D01*
X26569537Y-4206897D01*
X26618332Y-4237698D01*
X26672763Y-4271309D01*
X26729736Y-4305893D01*
X26786160Y-4339610D01*
X26838943Y-4370622D01*
X26884995Y-4397092D01*
X26921222Y-4417181D01*
X26944534Y-4429052D01*
X26951193Y-4431482D01*
X26954533Y-4421832D01*
X26956199Y-4394274D01*
X26956120Y-4352008D01*
X26954223Y-4298233D01*
X26954183Y-4297396D01*
X26952526Y-4258357D01*
X26950438Y-4201058D01*
X26948007Y-4128399D01*
X26945324Y-4043280D01*
X26942478Y-3948602D01*
X26939560Y-3847264D01*
X26936660Y-3742166D01*
X26934707Y-3668672D01*
X26921809Y-3174887D01*
X26884092Y-3180001D01*
X26708187Y-3206725D01*
X26549824Y-3236756D01*
X26409674Y-3269910D01*
X26288407Y-3306007D01*
X26186695Y-3344864D01*
X26105206Y-3386300D01*
X26090812Y-3395256D01*
X26031722Y-3442635D01*
X25993191Y-3495006D01*
X25975259Y-3552208D01*
X25797757Y-3552208D01*
X25806587Y-3479584D01*
X25837170Y-3402425D01*
X25888397Y-3329446D01*
X25926041Y-3290520D01*
X25999968Y-3232614D01*
X26093438Y-3179031D01*
X26206770Y-3129633D01*
X26340281Y-3084282D01*
X26494287Y-3042841D01*
X26502417Y-3040896D01*
X26545150Y-3031474D01*
X26598842Y-3020739D01*
X26659019Y-3009462D01*
X26721208Y-2998415D01*
X26780935Y-2988371D01*
X26833728Y-2980101D01*
X26875113Y-2974378D01*
X26900617Y-2971973D01*
X26901971Y-2971945D01*
X26904601Y-2968091D01*
X26906789Y-2955739D01*
X26907149Y-2951198D01*
X27097364Y-2951198D01*
X27130620Y-2945819D01*
X27153830Y-2942059D01*
X27192572Y-2935773D01*
X27241486Y-2927834D01*
X27295211Y-2919111D01*
X27296173Y-2918954D01*
X27430734Y-2893791D01*
X27555682Y-2863848D01*
X27669247Y-2829822D01*
X27769658Y-2792414D01*
X27855147Y-2752323D01*
X27923943Y-2710248D01*
X27974276Y-2666888D01*
X27992777Y-2643750D01*
X28007659Y-2617179D01*
X28014042Y-2590031D01*
X28013912Y-2552918D01*
X28013461Y-2546022D01*
X28009274Y-2511409D01*
X28000262Y-2481621D01*
X27983466Y-2449368D01*
X27959019Y-2411871D01*
X27894795Y-2330752D01*
X27810137Y-2245384D01*
X27705302Y-2155987D01*
X27580544Y-2062784D01*
X27476821Y-1992327D01*
X27426084Y-1959839D01*
X27371066Y-1925886D01*
X27314669Y-1892116D01*
X27259798Y-1860175D01*
X27209355Y-1831713D01*
X27166245Y-1808375D01*
X27133371Y-1791810D01*
X27113635Y-1783665D01*
X27109210Y-1783731D01*
X27108778Y-1795538D01*
X27108200Y-1826561D01*
X27107499Y-1874850D01*
X27106697Y-1938455D01*
X27105818Y-2015425D01*
X27104883Y-2103812D01*
X27103917Y-2201664D01*
X27102940Y-2307032D01*
X27102372Y-2371495D01*
X27097364Y-2951198D01*
X26907149Y-2951198D01*
X26908545Y-2933637D01*
X26909882Y-2900532D01*
X26910808Y-2855170D01*
X26911335Y-2796297D01*
X26911473Y-2722661D01*
X26911234Y-2633007D01*
X26910627Y-2526083D01*
X26909663Y-2400635D01*
X26908353Y-2255409D01*
X26908194Y-2238762D01*
X26906849Y-2096054D01*
X26905769Y-1973014D01*
X26904975Y-1868143D01*
X26904491Y-1779944D01*
X26904339Y-1706920D01*
X26904541Y-1647572D01*
X26905121Y-1600402D01*
X26906100Y-1563913D01*
X26907501Y-1536607D01*
X26909348Y-1516986D01*
X26911661Y-1503553D01*
X26914464Y-1494809D01*
X26917779Y-1489257D01*
X26919500Y-1487345D01*
X26937184Y-1473146D01*
X26947301Y-1469000D01*
X26961043Y-1473826D01*
G36*
X13562284Y-13154620D02*
X13739998Y-13154704D01*
X13902981Y-13154836D01*
X14051876Y-13155018D01*
X14187328Y-13155254D01*
X14309978Y-13155544D01*
X14420472Y-13155893D01*
X14519453Y-13156302D01*
X14607563Y-13156773D01*
X14685447Y-13157310D01*
X14753748Y-13157915D01*
X14813110Y-13158591D01*
X14864177Y-13159339D01*
X14907591Y-13160163D01*
X14943997Y-13161064D01*
X14974037Y-13162046D01*
X14998356Y-13163111D01*
X15017597Y-13164261D01*
X15032404Y-13165499D01*
X15043419Y-13166827D01*
X15051288Y-13168249D01*
X15056652Y-13169765D01*
X15058746Y-13170630D01*
X15089477Y-13191433D01*
X15114314Y-13218374D01*
X15115960Y-13220944D01*
X15118941Y-13226433D01*
X15121609Y-13233351D01*
X15123981Y-13242839D01*
X15126073Y-13256040D01*
X15127905Y-13274096D01*
X15129493Y-13298149D01*
X15130854Y-13329342D01*
X15132007Y-13368817D01*
X15132968Y-13417717D01*
X15133755Y-13477182D01*
X15134385Y-13548357D01*
X15134876Y-13632382D01*
X15135245Y-13730401D01*
X15135510Y-13843555D01*
X15135688Y-13972986D01*
X15135797Y-14119838D01*
X15135853Y-14285252D01*
X15135875Y-14470371D01*
X15135877Y-14525904D01*
X15135917Y-15798267D01*
X16200021Y-15804125D01*
X16270390Y-15838776D01*
X16340818Y-15883414D01*
X16402739Y-15941951D01*
X16451251Y-16009224D01*
X16471315Y-16050223D01*
X16495875Y-16111042D01*
X16498987Y-19757000D01*
X16499271Y-20112159D01*
X16499496Y-20446594D01*
X16499662Y-20760748D01*
X16499768Y-21055065D01*
X16499812Y-21329988D01*
X16499795Y-21585959D01*
X16499713Y-21823421D01*
X16499568Y-22042818D01*
X16499356Y-22244593D01*
X16499079Y-22429188D01*
X16498733Y-22597046D01*
X16498319Y-22748611D01*
X16497834Y-22884326D01*
X16497279Y-23004633D01*
X16496652Y-23109976D01*
X16495952Y-23200797D01*
X16495178Y-23277540D01*
X16494329Y-23340647D01*
X16493403Y-23390562D01*
X16492400Y-23427728D01*
X16491319Y-23452588D01*
X16490159Y-23465584D01*
X16490066Y-23466105D01*
X16463054Y-23556235D01*
X16419042Y-23634813D01*
X16359031Y-23700324D01*
X16313020Y-23734484D01*
X16290004Y-23748776D01*
X16268407Y-23760817D01*
X16246247Y-23770799D01*
X16221545Y-23778916D01*
X16192320Y-23785359D01*
X16156593Y-23790323D01*
X16112382Y-23794000D01*
X16057708Y-23796582D01*
X15990590Y-23798264D01*
X15909048Y-23799236D01*
X15811102Y-23799693D01*
X15694771Y-23799827D01*
X15641996Y-23799833D01*
X15135917Y-23799833D01*
X15135917Y-26336703D01*
X15111787Y-26372510D01*
X15089443Y-26399327D01*
X15065450Y-26419317D01*
X15061516Y-26421544D01*
X15055323Y-26422757D01*
X15041316Y-26423898D01*
X15018942Y-26424970D01*
X14987651Y-26425975D01*
X14946893Y-26426914D01*
X14896116Y-26427790D01*
X14834770Y-26428604D01*
X14762303Y-26429358D01*
X14678165Y-26430055D01*
X14581806Y-26430695D01*
X14472673Y-26431281D01*
X14350218Y-26431816D01*
X14213888Y-26432300D01*
X14063132Y-26432735D01*
X13897401Y-26433125D01*
X13716143Y-26433469D01*
X13518807Y-26433772D01*
X13304843Y-26434033D01*
X13073700Y-26434256D01*
X12824827Y-26434442D01*
X12557672Y-26434592D01*
X12271686Y-26434710D01*
X11966318Y-26434797D01*
X11641016Y-26434854D01*
X11295229Y-26434884D01*
X11209500Y-26434888D01*
X10871301Y-26434896D01*
X10553621Y-26434897D01*
X10255812Y-26434889D01*
X9977226Y-26434867D01*
X9717216Y-26434828D01*
X9475133Y-26434769D01*
X9250329Y-26434686D01*
X9042158Y-26434577D01*
X8849970Y-26434437D01*
X8673118Y-26434264D01*
X8510955Y-26434054D01*
X8362832Y-26433804D01*
X8228101Y-26433510D01*
X8106116Y-26433169D01*
X7996227Y-26432778D01*
X7897787Y-26432334D01*
X7810148Y-26431833D01*
X7732663Y-26431271D01*
X7664684Y-26430646D01*
X7605562Y-26429955D01*
X7554650Y-26429192D01*
X7511299Y-26428357D01*
X7474863Y-26427444D01*
X7444694Y-26426451D01*
X7420143Y-26425375D01*
X7400562Y-26424212D01*
X7385305Y-26422958D01*
X7373722Y-26421611D01*
X7365166Y-26420167D01*
X7358990Y-26418622D01*
X7354545Y-26416974D01*
X7351184Y-26415219D01*
X7350830Y-26415006D01*
X7319595Y-26385051D01*
X7297398Y-26342806D01*
X7287684Y-26296397D01*
X7289287Y-26269903D01*
X7307424Y-26226170D01*
X7341270Y-26189011D01*
X7385391Y-26164034D01*
X7394819Y-26161035D01*
X7406023Y-26159895D01*
X7431416Y-26158821D01*
X7471344Y-26157810D01*
X7526153Y-26156863D01*
X7596187Y-26155979D01*
X7681792Y-26155155D01*
X7783313Y-26154391D01*
X7901097Y-26153686D01*
X8035488Y-26153039D01*
X8186832Y-26152449D01*
X8355474Y-26151914D01*
X8541760Y-26151434D01*
X8746035Y-26151007D01*
X8968645Y-26150633D01*
X9209935Y-26150311D01*
X9470250Y-26150038D01*
X9749936Y-26149815D01*
X10049338Y-26149641D01*
X10368802Y-26149513D01*
X10708674Y-26149431D01*
X11069298Y-26149394D01*
X11143354Y-26149392D01*
X14850167Y-26149333D01*
X14850167Y-23800758D01*
X13797125Y-23794542D01*
X13736243Y-23766010D01*
X13666485Y-23723841D01*
X13603503Y-23667807D01*
X13552865Y-23603392D01*
X13531210Y-23564062D01*
X13500792Y-23498208D01*
X13500048Y-22487500D01*
X14352750Y-22487500D01*
X14356009Y-22519920D01*
X14368827Y-22545633D01*
X14388734Y-22567933D01*
X14424717Y-22603917D01*
X14994629Y-22603877D01*
X15119315Y-22603836D01*
X15224594Y-22603693D01*
X15312227Y-22603390D01*
X15383975Y-22602869D01*
X15441597Y-22602071D01*
X15486854Y-22600939D01*
X15521506Y-22599413D01*
X15547314Y-22597437D01*
X15566038Y-22594951D01*
X15579437Y-22591898D01*
X15589273Y-22588220D01*
X15597135Y-22583962D01*
X15630801Y-22552338D01*
X15648797Y-22511590D01*
X15650525Y-22467346D01*
X15635390Y-22425234D01*
X15616450Y-22401880D01*
X15589307Y-22376375D01*
X14425243Y-22370557D01*
X14388997Y-22406803D01*
X14365316Y-22434428D01*
X14354774Y-22460511D01*
X14352750Y-22487500D01*
X13500048Y-22487500D01*
X13498078Y-19815208D01*
X13497834Y-19483681D01*
X13497611Y-19172655D01*
X13497411Y-18881463D01*
X13497238Y-18609438D01*
X13497094Y-18355916D01*
X13496983Y-18120229D01*
X13496909Y-17901711D01*
X13496874Y-17699696D01*
X13496877Y-17608583D01*
X14342167Y-17608583D01*
X14345425Y-17641003D01*
X14358243Y-17666716D01*
X14378150Y-17689017D01*
X14414134Y-17725000D01*
X14871334Y-17725000D01*
X14871350Y-17939312D01*
X14871591Y-18014522D01*
X14872457Y-18071737D01*
X14874182Y-18114126D01*
X14876999Y-18144857D01*
X14881142Y-18167098D01*
X14886844Y-18184018D01*
X14889871Y-18190519D01*
X14919265Y-18229342D01*
X14957299Y-18250437D01*
X15000216Y-18253230D01*
X15044256Y-18237150D01*
X15069926Y-18217957D01*
X15109459Y-18181748D01*
X15112857Y-17953374D01*
X15116256Y-17725000D01*
X15335107Y-17724960D01*
X15409865Y-17724772D01*
X15466559Y-17724076D01*
X15508292Y-17722625D01*
X15538167Y-17720174D01*
X15559285Y-17716477D01*
X15574749Y-17711289D01*
X15586552Y-17705045D01*
X15620218Y-17673420D01*
X15638214Y-17632667D01*
X15639941Y-17588417D01*
X15624803Y-17546299D01*
X15605884Y-17522963D01*
X15596428Y-17514628D01*
X15586200Y-17508295D01*
X15572279Y-17503641D01*
X15551743Y-17500342D01*
X15521671Y-17498074D01*
X15479139Y-17496512D01*
X15421227Y-17495334D01*
X15346754Y-17494239D01*
X15114750Y-17491021D01*
X15114750Y-17278881D01*
X15114236Y-17195101D01*
X15112304Y-17129754D01*
X15108373Y-17080122D01*
X15101860Y-17043488D01*
X15092182Y-17017135D01*
X15078757Y-16998344D01*
X15061003Y-16984399D01*
X15050349Y-16978409D01*
X15008215Y-16965247D01*
X14964413Y-16965338D01*
X14927890Y-16978600D01*
X14926545Y-16979517D01*
X14909074Y-16993413D01*
X14895701Y-17009422D01*
X14885886Y-17030422D01*
X14879093Y-17059290D01*
X14874783Y-17098903D01*
X14872417Y-17152137D01*
X14871458Y-17221869D01*
X14871334Y-17274683D01*
X14871334Y-17492167D01*
X14414133Y-17492167D01*
X14378150Y-17528150D01*
X14354543Y-17555782D01*
X14344104Y-17582055D01*
X14342167Y-17608583D01*
X13496877Y-17608583D01*
X13496882Y-17513518D01*
X13496936Y-17342511D01*
X13497039Y-17186008D01*
X13497194Y-17043343D01*
X13497405Y-16913850D01*
X13497676Y-16796862D01*
X13498009Y-16691714D01*
X13498407Y-16597739D01*
X13498874Y-16514271D01*
X13499413Y-16440644D01*
X13500027Y-16376191D01*
X13500720Y-16320247D01*
X13501495Y-16272144D01*
X13502354Y-16231217D01*
X13503303Y-16196800D01*
X13504342Y-16168226D01*
X13505477Y-16144829D01*
X13506709Y-16125943D01*
X13508043Y-16110901D01*
X13509482Y-16099038D01*
X13511028Y-16089687D01*
X13512685Y-16082182D01*
X13514457Y-16075857D01*
X13516346Y-16070045D01*
X13516372Y-16069970D01*
X13553504Y-15990956D01*
X13606865Y-15921366D01*
X13673061Y-15864531D01*
X13748701Y-15823780D01*
X13777442Y-15813732D01*
X13793261Y-15810147D01*
X13815988Y-15807152D01*
X13847365Y-15804701D01*
X13889136Y-15802749D01*
X13943044Y-15801248D01*
X14010833Y-15800153D01*
X14094245Y-15799416D01*
X14195024Y-15798993D01*
X14314913Y-15798837D01*
X14338557Y-15798833D01*
X14850167Y-15798833D01*
X14850167Y-13438838D01*
X7379885Y-13433458D01*
X7350005Y-13411609D01*
X7325277Y-13387191D01*
X7303272Y-13355531D01*
X7300513Y-13350294D01*
X7286667Y-13301788D01*
X7293858Y-13254045D01*
X7322145Y-13206766D01*
X7330535Y-13197126D01*
X7366123Y-13158292D01*
X11193767Y-13155602D01*
X11533021Y-13155369D01*
X11851753Y-13155160D01*
X12150605Y-13154979D01*
X12430220Y-13154829D01*
X12691244Y-13154711D01*
X12934318Y-13154629D01*
X13160087Y-13154585D01*
X13369195Y-13154581D01*
X13562284Y-13154620D01*
X13562284Y-13154620D01*
G37*
X13562284Y-13154620D02*
X13739998Y-13154704D01*
X13902981Y-13154836D01*
X14051876Y-13155018D01*
X14187328Y-13155254D01*
X14309978Y-13155544D01*
X14420472Y-13155893D01*
X14519453Y-13156302D01*
X14607563Y-13156773D01*
X14685447Y-13157310D01*
X14753748Y-13157915D01*
X14813110Y-13158591D01*
X14864177Y-13159339D01*
X14907591Y-13160163D01*
X14943997Y-13161064D01*
X14974037Y-13162046D01*
X14998356Y-13163111D01*
X15017597Y-13164261D01*
X15032404Y-13165499D01*
X15043419Y-13166827D01*
X15051288Y-13168249D01*
X15056652Y-13169765D01*
X15058746Y-13170630D01*
X15089477Y-13191433D01*
X15114314Y-13218374D01*
X15115960Y-13220944D01*
X15118941Y-13226433D01*
X15121609Y-13233351D01*
X15123981Y-13242839D01*
X15126073Y-13256040D01*
X15127905Y-13274096D01*
X15129493Y-13298149D01*
X15130854Y-13329342D01*
X15132007Y-13368817D01*
X15132968Y-13417717D01*
X15133755Y-13477182D01*
X15134385Y-13548357D01*
X15134876Y-13632382D01*
X15135245Y-13730401D01*
X15135510Y-13843555D01*
X15135688Y-13972986D01*
X15135797Y-14119838D01*
X15135853Y-14285252D01*
X15135875Y-14470371D01*
X15135877Y-14525904D01*
X15135917Y-15798267D01*
X16200021Y-15804125D01*
X16270390Y-15838776D01*
X16340818Y-15883414D01*
X16402739Y-15941951D01*
X16451251Y-16009224D01*
X16471315Y-16050223D01*
X16495875Y-16111042D01*
X16498987Y-19757000D01*
X16499271Y-20112159D01*
X16499496Y-20446594D01*
X16499662Y-20760748D01*
X16499768Y-21055065D01*
X16499812Y-21329988D01*
X16499795Y-21585959D01*
X16499713Y-21823421D01*
X16499568Y-22042818D01*
X16499356Y-22244593D01*
X16499079Y-22429188D01*
X16498733Y-22597046D01*
X16498319Y-22748611D01*
X16497834Y-22884326D01*
X16497279Y-23004633D01*
X16496652Y-23109976D01*
X16495952Y-23200797D01*
X16495178Y-23277540D01*
X16494329Y-23340647D01*
X16493403Y-23390562D01*
X16492400Y-23427728D01*
X16491319Y-23452588D01*
X16490159Y-23465584D01*
X16490066Y-23466105D01*
X16463054Y-23556235D01*
X16419042Y-23634813D01*
X16359031Y-23700324D01*
X16313020Y-23734484D01*
X16290004Y-23748776D01*
X16268407Y-23760817D01*
X16246247Y-23770799D01*
X16221545Y-23778916D01*
X16192320Y-23785359D01*
X16156593Y-23790323D01*
X16112382Y-23794000D01*
X16057708Y-23796582D01*
X15990590Y-23798264D01*
X15909048Y-23799236D01*
X15811102Y-23799693D01*
X15694771Y-23799827D01*
X15641996Y-23799833D01*
X15135917Y-23799833D01*
X15135917Y-26336703D01*
X15111787Y-26372510D01*
X15089443Y-26399327D01*
X15065450Y-26419317D01*
X15061516Y-26421544D01*
X15055323Y-26422757D01*
X15041316Y-26423898D01*
X15018942Y-26424970D01*
X14987651Y-26425975D01*
X14946893Y-26426914D01*
X14896116Y-26427790D01*
X14834770Y-26428604D01*
X14762303Y-26429358D01*
X14678165Y-26430055D01*
X14581806Y-26430695D01*
X14472673Y-26431281D01*
X14350218Y-26431816D01*
X14213888Y-26432300D01*
X14063132Y-26432735D01*
X13897401Y-26433125D01*
X13716143Y-26433469D01*
X13518807Y-26433772D01*
X13304843Y-26434033D01*
X13073700Y-26434256D01*
X12824827Y-26434442D01*
X12557672Y-26434592D01*
X12271686Y-26434710D01*
X11966318Y-26434797D01*
X11641016Y-26434854D01*
X11295229Y-26434884D01*
X11209500Y-26434888D01*
X10871301Y-26434896D01*
X10553621Y-26434897D01*
X10255812Y-26434889D01*
X9977226Y-26434867D01*
X9717216Y-26434828D01*
X9475133Y-26434769D01*
X9250329Y-26434686D01*
X9042158Y-26434577D01*
X8849970Y-26434437D01*
X8673118Y-26434264D01*
X8510955Y-26434054D01*
X8362832Y-26433804D01*
X8228101Y-26433510D01*
X8106116Y-26433169D01*
X7996227Y-26432778D01*
X7897787Y-26432334D01*
X7810148Y-26431833D01*
X7732663Y-26431271D01*
X7664684Y-26430646D01*
X7605562Y-26429955D01*
X7554650Y-26429192D01*
X7511299Y-26428357D01*
X7474863Y-26427444D01*
X7444694Y-26426451D01*
X7420143Y-26425375D01*
X7400562Y-26424212D01*
X7385305Y-26422958D01*
X7373722Y-26421611D01*
X7365166Y-26420167D01*
X7358990Y-26418622D01*
X7354545Y-26416974D01*
X7351184Y-26415219D01*
X7350830Y-26415006D01*
X7319595Y-26385051D01*
X7297398Y-26342806D01*
X7287684Y-26296397D01*
X7289287Y-26269903D01*
X7307424Y-26226170D01*
X7341270Y-26189011D01*
X7385391Y-26164034D01*
X7394819Y-26161035D01*
X7406023Y-26159895D01*
X7431416Y-26158821D01*
X7471344Y-26157810D01*
X7526153Y-26156863D01*
X7596187Y-26155979D01*
X7681792Y-26155155D01*
X7783313Y-26154391D01*
X7901097Y-26153686D01*
X8035488Y-26153039D01*
X8186832Y-26152449D01*
X8355474Y-26151914D01*
X8541760Y-26151434D01*
X8746035Y-26151007D01*
X8968645Y-26150633D01*
X9209935Y-26150311D01*
X9470250Y-26150038D01*
X9749936Y-26149815D01*
X10049338Y-26149641D01*
X10368802Y-26149513D01*
X10708674Y-26149431D01*
X11069298Y-26149394D01*
X11143354Y-26149392D01*
X14850167Y-26149333D01*
X14850167Y-23800758D01*
X13797125Y-23794542D01*
X13736243Y-23766010D01*
X13666485Y-23723841D01*
X13603503Y-23667807D01*
X13552865Y-23603392D01*
X13531210Y-23564062D01*
X13500792Y-23498208D01*
X13500048Y-22487500D01*
X14352750Y-22487500D01*
X14356009Y-22519920D01*
X14368827Y-22545633D01*
X14388734Y-22567933D01*
X14424717Y-22603917D01*
X14994629Y-22603877D01*
X15119315Y-22603836D01*
X15224594Y-22603693D01*
X15312227Y-22603390D01*
X15383975Y-22602869D01*
X15441597Y-22602071D01*
X15486854Y-22600939D01*
X15521506Y-22599413D01*
X15547314Y-22597437D01*
X15566038Y-22594951D01*
X15579437Y-22591898D01*
X15589273Y-22588220D01*
X15597135Y-22583962D01*
X15630801Y-22552338D01*
X15648797Y-22511590D01*
X15650525Y-22467346D01*
X15635390Y-22425234D01*
X15616450Y-22401880D01*
X15589307Y-22376375D01*
X14425243Y-22370557D01*
X14388997Y-22406803D01*
X14365316Y-22434428D01*
X14354774Y-22460511D01*
X14352750Y-22487500D01*
X13500048Y-22487500D01*
X13498078Y-19815208D01*
X13497834Y-19483681D01*
X13497611Y-19172655D01*
X13497411Y-18881463D01*
X13497238Y-18609438D01*
X13497094Y-18355916D01*
X13496983Y-18120229D01*
X13496909Y-17901711D01*
X13496874Y-17699696D01*
X13496877Y-17608583D01*
X14342167Y-17608583D01*
X14345425Y-17641003D01*
X14358243Y-17666716D01*
X14378150Y-17689017D01*
X14414134Y-17725000D01*
X14871334Y-17725000D01*
X14871350Y-17939312D01*
X14871591Y-18014522D01*
X14872457Y-18071737D01*
X14874182Y-18114126D01*
X14876999Y-18144857D01*
X14881142Y-18167098D01*
X14886844Y-18184018D01*
X14889871Y-18190519D01*
X14919265Y-18229342D01*
X14957299Y-18250437D01*
X15000216Y-18253230D01*
X15044256Y-18237150D01*
X15069926Y-18217957D01*
X15109459Y-18181748D01*
X15112857Y-17953374D01*
X15116256Y-17725000D01*
X15335107Y-17724960D01*
X15409865Y-17724772D01*
X15466559Y-17724076D01*
X15508292Y-17722625D01*
X15538167Y-17720174D01*
X15559285Y-17716477D01*
X15574749Y-17711289D01*
X15586552Y-17705045D01*
X15620218Y-17673420D01*
X15638214Y-17632667D01*
X15639941Y-17588417D01*
X15624803Y-17546299D01*
X15605884Y-17522963D01*
X15596428Y-17514628D01*
X15586200Y-17508295D01*
X15572279Y-17503641D01*
X15551743Y-17500342D01*
X15521671Y-17498074D01*
X15479139Y-17496512D01*
X15421227Y-17495334D01*
X15346754Y-17494239D01*
X15114750Y-17491021D01*
X15114750Y-17278881D01*
X15114236Y-17195101D01*
X15112304Y-17129754D01*
X15108373Y-17080122D01*
X15101860Y-17043488D01*
X15092182Y-17017135D01*
X15078757Y-16998344D01*
X15061003Y-16984399D01*
X15050349Y-16978409D01*
X15008215Y-16965247D01*
X14964413Y-16965338D01*
X14927890Y-16978600D01*
X14926545Y-16979517D01*
X14909074Y-16993413D01*
X14895701Y-17009422D01*
X14885886Y-17030422D01*
X14879093Y-17059290D01*
X14874783Y-17098903D01*
X14872417Y-17152137D01*
X14871458Y-17221869D01*
X14871334Y-17274683D01*
X14871334Y-17492167D01*
X14414133Y-17492167D01*
X14378150Y-17528150D01*
X14354543Y-17555782D01*
X14344104Y-17582055D01*
X14342167Y-17608583D01*
X13496877Y-17608583D01*
X13496882Y-17513518D01*
X13496936Y-17342511D01*
X13497039Y-17186008D01*
X13497194Y-17043343D01*
X13497405Y-16913850D01*
X13497676Y-16796862D01*
X13498009Y-16691714D01*
X13498407Y-16597739D01*
X13498874Y-16514271D01*
X13499413Y-16440644D01*
X13500027Y-16376191D01*
X13500720Y-16320247D01*
X13501495Y-16272144D01*
X13502354Y-16231217D01*
X13503303Y-16196800D01*
X13504342Y-16168226D01*
X13505477Y-16144829D01*
X13506709Y-16125943D01*
X13508043Y-16110901D01*
X13509482Y-16099038D01*
X13511028Y-16089687D01*
X13512685Y-16082182D01*
X13514457Y-16075857D01*
X13516346Y-16070045D01*
X13516372Y-16069970D01*
X13553504Y-15990956D01*
X13606865Y-15921366D01*
X13673061Y-15864531D01*
X13748701Y-15823780D01*
X13777442Y-15813732D01*
X13793261Y-15810147D01*
X13815988Y-15807152D01*
X13847365Y-15804701D01*
X13889136Y-15802749D01*
X13943044Y-15801248D01*
X14010833Y-15800153D01*
X14094245Y-15799416D01*
X14195024Y-15798993D01*
X14314913Y-15798837D01*
X14338557Y-15798833D01*
X14850167Y-15798833D01*
X14850167Y-13438838D01*
X7379885Y-13433458D01*
X7350005Y-13411609D01*
X7325277Y-13387191D01*
X7303272Y-13355531D01*
X7300513Y-13350294D01*
X7286667Y-13301788D01*
X7293858Y-13254045D01*
X7322145Y-13206766D01*
X7330535Y-13197126D01*
X7366123Y-13158292D01*
X11193767Y-13155602D01*
X11533021Y-13155369D01*
X11851753Y-13155160D01*
X12150605Y-13154979D01*
X12430220Y-13154829D01*
X12691244Y-13154711D01*
X12934318Y-13154629D01*
X13160087Y-13154585D01*
X13369195Y-13154581D01*
X13562284Y-13154620D01*
G04 #@! TD*
D11*
G04 #@! TO.C,MH1*
G36*
X9325439Y-34011074D02*
X9548708Y-34044193D01*
X9767655Y-34099036D01*
X9980172Y-34175076D01*
X10184212Y-34271580D01*
X10377812Y-34387619D01*
X10559105Y-34522075D01*
X10726346Y-34673653D01*
X10877924Y-34840894D01*
X11012380Y-35022187D01*
X11128419Y-35215787D01*
X11224923Y-35419827D01*
X11300963Y-35632344D01*
X11355806Y-35851291D01*
X11388925Y-36074560D01*
X11400000Y-36299999D01*
X11400000Y-36300001D01*
X11388925Y-36525440D01*
X11355806Y-36748709D01*
X11300963Y-36967656D01*
X11224923Y-37180173D01*
X11128419Y-37384213D01*
X11012380Y-37577813D01*
X10877924Y-37759106D01*
X10726346Y-37926347D01*
X10559105Y-38077925D01*
X10377812Y-38212381D01*
X10184212Y-38328420D01*
X9980172Y-38424924D01*
X9767655Y-38500964D01*
X9548708Y-38555807D01*
X9325439Y-38588926D01*
X9100000Y-38600001D01*
X5900000Y-38600001D01*
X5674561Y-38588926D01*
X5451292Y-38555807D01*
X5232345Y-38500964D01*
X5019828Y-38424924D01*
X4815788Y-38328420D01*
X4622188Y-38212381D01*
X4440895Y-38077925D01*
X4273654Y-37926347D01*
X4122076Y-37759106D01*
X3987620Y-37577813D01*
X3871581Y-37384213D01*
X3775077Y-37180173D01*
X3699037Y-36967656D01*
X3644194Y-36748709D01*
X3611075Y-36525440D01*
X3600000Y-36300001D01*
X3600000Y-36299999D01*
X3611075Y-36074560D01*
X3644194Y-35851291D01*
X3699037Y-35632344D01*
X3775077Y-35419827D01*
X3871581Y-35215787D01*
X3987620Y-35022187D01*
X4122076Y-34840894D01*
X4273654Y-34673653D01*
X4440895Y-34522075D01*
X4622188Y-34387619D01*
X4815788Y-34271580D01*
X5019828Y-34175076D01*
X5232345Y-34099036D01*
X5451292Y-34044193D01*
X5674561Y-34011074D01*
X5900000Y-33999999D01*
X9100000Y-33999999D01*
X9325439Y-34011074D01*
X9325439Y-34011074D01*
G37*
D12*
X7500000Y-36300000D03*
G04 #@! TD*
D11*
G04 #@! TO.C,MH2*
G36*
X9325439Y-711074D02*
X9548708Y-744193D01*
X9767655Y-799036D01*
X9980172Y-875076D01*
X10184212Y-971580D01*
X10377812Y-1087619D01*
X10559105Y-1222075D01*
X10726346Y-1373653D01*
X10877924Y-1540894D01*
X11012380Y-1722187D01*
X11128419Y-1915787D01*
X11224923Y-2119827D01*
X11300963Y-2332344D01*
X11355806Y-2551291D01*
X11388925Y-2774560D01*
X11400000Y-2999999D01*
X11400000Y-3000001D01*
X11388925Y-3225440D01*
X11355806Y-3448709D01*
X11300963Y-3667656D01*
X11224923Y-3880173D01*
X11128419Y-4084213D01*
X11012380Y-4277813D01*
X10877924Y-4459106D01*
X10726346Y-4626347D01*
X10559105Y-4777925D01*
X10377812Y-4912381D01*
X10184212Y-5028420D01*
X9980172Y-5124924D01*
X9767655Y-5200964D01*
X9548708Y-5255807D01*
X9325439Y-5288926D01*
X9100000Y-5300001D01*
X5900000Y-5300001D01*
X5674561Y-5288926D01*
X5451292Y-5255807D01*
X5232345Y-5200964D01*
X5019828Y-5124924D01*
X4815788Y-5028420D01*
X4622188Y-4912381D01*
X4440895Y-4777925D01*
X4273654Y-4626347D01*
X4122076Y-4459106D01*
X3987620Y-4277813D01*
X3871581Y-4084213D01*
X3775077Y-3880173D01*
X3699037Y-3667656D01*
X3644194Y-3448709D01*
X3611075Y-3225440D01*
X3600000Y-3000001D01*
X3600000Y-2999999D01*
X3611075Y-2774560D01*
X3644194Y-2551291D01*
X3699037Y-2332344D01*
X3775077Y-2119827D01*
X3871581Y-1915787D01*
X3987620Y-1722187D01*
X4122076Y-1540894D01*
X4273654Y-1373653D01*
X4440895Y-1222075D01*
X4622188Y-1087619D01*
X4815788Y-971580D01*
X5019828Y-875076D01*
X5232345Y-799036D01*
X5451292Y-744193D01*
X5674561Y-711074D01*
X5900000Y-699999D01*
X9100000Y-699999D01*
X9325439Y-711074D01*
X9325439Y-711074D01*
G37*
D12*
X7500000Y-3000000D03*
G04 #@! TD*
D13*
G04 #@! TO.C,MH3*
X7500000Y-13300000D03*
G04 #@! TD*
G04 #@! TO.C,MH4*
X7500000Y-26300000D03*
G04 #@! TD*
D14*
G04 #@! TO.C,MH5*
X22500000Y-19800000D03*
G04 #@! TD*
M02*
