M48
INCH,TZ
T1C0.0157
T2C0.0217
T3C0.0236
T4C0.0295
T5C0.0315
T6C0.0354
T7C0.0393
T8C0.0394
T9C0.0433
T10C0.0433
T11C0.0826
%
G90
G05
T1
X1.2504Y-3.5793
X2.157Y-3.0756
X2.2536Y-2.2672
X2.6952Y-2.1602
T2
X2.3031Y-3.7598
X2.3283Y-3.1693
X2.478Y-3.1693
X2.5031Y-3.7598
X0.5732Y-3.1496
X0.5984Y-3.7402
X0.748Y-3.7402
X0.7732Y-3.1496
T3
X1.2008Y-2.7559
X1.2008Y-2.8346
X0.8268Y-0.9646
X0.9055Y-0.9646
X0.6102Y-1.3189
X0.689Y-1.3189
X0.8268Y-0.6988
X0.9055Y-0.6988
X0.3543Y-1.3189
X0.4331Y-1.3189
T4
X2.0457Y-2.185
X2.0957Y-2.185
X2.1457Y-2.185
X2.0457Y-1.9094
X2.0957Y-1.9094
X2.1457Y-1.9094
X1.811Y-3.6598
X1.811Y-3.7098
X1.811Y-3.7598
X1.4173Y-1.9193
X1.4173Y-1.9693
X1.4173Y-2.0193
T5
X0.1575Y-0.128
X0.3543Y-0.128
X0.6299Y-2.185
X0.6299Y-2.485
X2.9626Y-2.1213
X2.9626Y-2.4213
X1.2795Y-3.8878
X1.2795Y-4.1878
X0.1575Y-1.2354
X0.1575Y-1.5354
X2.3181Y-2.2244
X2.6181Y-2.2244
X2.9626Y-2.5591
X2.9626Y-2.8591
X1.8307Y-3.8878
X1.8307Y-4.1878
X0.6299Y-2.5984
X0.6299Y-2.8984
X1.5701Y-2.1063
X1.8701Y-2.1063
X2.4409Y-3.8732
X2.4409Y-4.1732
X0.6693Y-3.8878
X0.6693Y-4.1878
X0.1575Y-2.2441
X0.1575Y-2.3441
X0.1575Y-2.4441
X0.1575Y-2.5441
X0.1575Y-2.6441
X0.1575Y-2.7441
X0.1575Y-2.8441
X0.4575Y-2.2441
X0.4575Y-2.3441
X0.4575Y-2.4441
X0.4575Y-2.5441
X0.4575Y-2.6441
X0.4575Y-2.7441
X0.4575Y-2.8441
X0.6449Y-3.0315
X0.9449Y-3.0315
X1.9244Y-2.4315
X1.9244Y-2.5315
X1.9244Y-2.6315
X1.9244Y-2.7315
X1.9244Y-2.8315
X1.9244Y-2.9315
X1.9244Y-3.0315
X2.2244Y-2.4315
X2.2244Y-2.5315
X2.2244Y-2.6315
X2.2244Y-2.7315
X2.2244Y-2.8315
X2.2244Y-2.9315
X2.2244Y-3.0315
X0.9449Y-2.5984
X0.9449Y-2.8984
X2.4803Y-1.1417
X2.7803Y-1.1417
X0.7874Y-2.5984
X0.7874Y-2.8984
X0.9252Y-0.0937
X0.9252Y-0.3937
X2.9724Y-1.3484
X2.9724Y-1.6484
X0.5709Y-0.128
X0.5709Y-0.3248
X2.0524Y-0.9843
X2.3524Y-0.9843
X0.1575Y-3.0315
X0.4575Y-3.0315
X0.6693Y-3.2433
X0.6693Y-3.5433
X2.4803Y-0.315
X2.7803Y-0.315
X2.4803Y-0.8268
X2.7803Y-0.8268
X1.4126Y-3.0315
X1.7126Y-3.0315
X0.0937Y-0.6496
X0.3937Y-0.6496
X2.874Y-1.3484
X2.874Y-1.6484
X0.1575Y-1.6831
X0.1575Y-1.8799
X1.811Y-1.378
X1.811Y-1.478
X1.811Y-1.578
X1.811Y-1.678
X2.111Y-1.378
X2.111Y-1.478
X2.111Y-1.578
X2.111Y-1.678
X1.1173Y-3.7598
X1.4173Y-3.7598
X2.0524Y-0.8268
X2.3524Y-0.8268
X2.9528Y-0.8417
X2.9528Y-1.1417
X1.2598Y-2.9874
X1.2598Y-3.2874
X2.4803Y-0.9843
X2.7803Y-0.9843
X0.7677Y-0.0984
X0.7677Y-0.3984
X2.7756Y-1.3484
X2.7756Y-1.6484
X2.9528Y-0.1575
X2.9528Y-0.3543
X2.4803Y-2.6575
X2.4803Y-2.9575
X1.4126Y-2.874
X1.7126Y-2.874
X2.0622Y-0.1575
X2.3622Y-0.1575
X2.815Y-2.1213
X2.815Y-2.4213
X2.4803Y-0.1575
X2.7803Y-0.1575
X0.0937Y-0.4921
X0.3937Y-0.4921
X0.1575Y-0.2953
X0.3543Y-0.2953
X2.9528Y-0.5118
X2.9528Y-0.7087
X0.9449Y-2.1803
X0.9449Y-2.4803
X2.0622Y-0.315
X2.3622Y-0.315
X0.7874Y-2.185
X0.7874Y-2.485
X1.5701Y-1.9291
X1.8701Y-1.9291
X2.0524Y-1.1417
X2.3524Y-1.1417
T6
X2.4295Y-2.4409
X2.5295Y-2.4409
X2.6657Y-2.9528
X2.7657Y-2.9528
T7
X1.5354Y-1.4945
X1.5354Y-1.5945
X1.5354Y-1.6945
T8
X0.2756Y-0.9843
X0.2756Y-1.0843
X0.3756Y-0.9843
X0.3756Y-1.0843
X0.4756Y-0.9843
X0.4756Y-1.0843
X0.5756Y-0.9843
X0.5756Y-1.0843
X0.6756Y-0.9843
X0.6756Y-1.0843
X1.0433Y-1.2303
X1.2433Y-1.2307
X1.1024Y-1.8993
X1.1024Y-1.9993
X1.1024Y-2.0993
X1.1024Y-2.1993
X1.1024Y-2.2993
X1.2024Y-1.8993
X1.2024Y-1.9993
X1.2024Y-2.0993
X1.2024Y-2.1993
X1.2024Y-2.2993
X1.4469Y-1.2303
X1.6469Y-1.2307
T9
X2.6181Y-3.6613
X2.7165Y-3.6613
X2.8149Y-3.6613
X0.8859Y-3.6613
X0.9843Y-3.6613
X1.0827Y-3.6613
X0.3543Y-3.7599
X0.3543Y-3.8781
X0.3543Y-4.2126
X0.4922Y-2.0472
X0.5906Y-2.0472
X0.689Y-2.0472
X1.9882Y-3.6613
X2.0866Y-3.6613
X2.185Y-3.6613
X0.9843Y-3.7598
X0.9843Y-3.878
X0.9843Y-4.2125
X1.437Y-3.6613
X1.5354Y-3.6613
X1.6338Y-3.6613
X2.3819Y-2.0472
X2.4803Y-2.0472
X2.5787Y-2.0472
X1.437Y-2.7164
X1.5354Y-2.7164
X1.6338Y-2.7164
X2.7165Y-3.7598
X2.7165Y-3.878
X2.7165Y-4.2125
X2.0866Y-3.7598
X2.0866Y-3.878
X2.0866Y-4.2125
X1.5354Y-3.7598
X1.5354Y-3.878
X1.5354Y-4.2125
X0.2559Y-3.6613
X0.3543Y-3.6613
X0.4527Y-3.6613
T10
X0.8697Y-1.4272
X1.2697Y-1.4272
X0.8661Y-1.5945
X1.2661Y-1.5945
T11
X0.8072Y-3.3858
X1.1614Y-3.3858
X0.4135Y-1.7717
X0.7677Y-1.7717
X1.9095Y-3.3858
X2.2637Y-3.3858
X1.3583Y-3.3858
X1.7125Y-3.3858
X2.3032Y-1.7717
X2.6574Y-1.7717
X1.3583Y-2.4409
X1.7125Y-2.4409
X0.1772Y-3.3858
X0.5314Y-3.3858
X2.5394Y-3.3858
X2.8936Y-3.3858
T0
M30
