G04 #@! TF.GenerationSoftware,KiCad,Pcbnew,(5.0.0)*
G04 #@! TF.CreationDate,2018-11-19T16:02:45+01:00*
G04 #@! TF.ProjectId,Corona_mainBoard,436F726F6E615F6D61696E426F617264,1*
G04 #@! TF.SameCoordinates,Original*
G04 #@! TF.FileFunction,Legend,Top*
G04 #@! TF.FilePolarity,Positive*
%FSLAX46Y46*%
G04 Gerber Fmt 4.6, Leading zero omitted, Abs format (unit mm)*
G04 Created by KiCad (PCBNEW (5.0.0)) date 11/19/18 16:02:45*
%MOMM*%
%LPD*%
G01*
G04 APERTURE LIST*
%ADD10C,0.150000*%
%ADD11C,0.100000*%
%ADD12C,0.120000*%
%ADD13C,0.127000*%
%ADD14C,0.203200*%
%ADD15C,0.050800*%
%ADD16C,0.076200*%
%ADD17C,0.101600*%
G04 APERTURE END LIST*
D10*
X67119047Y-77321428D02*
X67880952Y-77321428D01*
X67500000Y-77702380D02*
X67500000Y-76940476D01*
X60619047Y-64071428D02*
X61380952Y-64071428D01*
X61000000Y-64452380D02*
X61000000Y-63690476D01*
D11*
X35285714Y-2271428D02*
X35285714Y-1671428D01*
X35485714Y-2100000D01*
X35685714Y-1671428D01*
X35685714Y-2271428D01*
X36228571Y-2271428D02*
X36228571Y-1957142D01*
X36200000Y-1900000D01*
X36142857Y-1871428D01*
X36028571Y-1871428D01*
X35971428Y-1900000D01*
X36228571Y-2242857D02*
X36171428Y-2271428D01*
X36028571Y-2271428D01*
X35971428Y-2242857D01*
X35942857Y-2185714D01*
X35942857Y-2128571D01*
X35971428Y-2071428D01*
X36028571Y-2042857D01*
X36171428Y-2042857D01*
X36228571Y-2014285D01*
X36514285Y-2271428D02*
X36514285Y-1871428D01*
X36514285Y-1671428D02*
X36485714Y-1700000D01*
X36514285Y-1728571D01*
X36542857Y-1700000D01*
X36514285Y-1671428D01*
X36514285Y-1728571D01*
X36800000Y-1871428D02*
X36800000Y-2271428D01*
X36800000Y-1928571D02*
X36828571Y-1900000D01*
X36885714Y-1871428D01*
X36971428Y-1871428D01*
X37028571Y-1900000D01*
X37057142Y-1957142D01*
X37057142Y-2271428D01*
X37800000Y-2271428D02*
X37800000Y-1671428D01*
X37800000Y-1900000D02*
X37857142Y-1871428D01*
X37971428Y-1871428D01*
X38028571Y-1900000D01*
X38057142Y-1928571D01*
X38085714Y-1985714D01*
X38085714Y-2157142D01*
X38057142Y-2214285D01*
X38028571Y-2242857D01*
X37971428Y-2271428D01*
X37857142Y-2271428D01*
X37800000Y-2242857D01*
X38428571Y-2271428D02*
X38371428Y-2242857D01*
X38342857Y-2214285D01*
X38314285Y-2157142D01*
X38314285Y-1985714D01*
X38342857Y-1928571D01*
X38371428Y-1900000D01*
X38428571Y-1871428D01*
X38514285Y-1871428D01*
X38571428Y-1900000D01*
X38600000Y-1928571D01*
X38628571Y-1985714D01*
X38628571Y-2157142D01*
X38600000Y-2214285D01*
X38571428Y-2242857D01*
X38514285Y-2271428D01*
X38428571Y-2271428D01*
X39142857Y-2271428D02*
X39142857Y-1957142D01*
X39114285Y-1900000D01*
X39057142Y-1871428D01*
X38942857Y-1871428D01*
X38885714Y-1900000D01*
X39142857Y-2242857D02*
X39085714Y-2271428D01*
X38942857Y-2271428D01*
X38885714Y-2242857D01*
X38857142Y-2185714D01*
X38857142Y-2128571D01*
X38885714Y-2071428D01*
X38942857Y-2042857D01*
X39085714Y-2042857D01*
X39142857Y-2014285D01*
X39428571Y-2271428D02*
X39428571Y-1871428D01*
X39428571Y-1985714D02*
X39457142Y-1928571D01*
X39485714Y-1900000D01*
X39542857Y-1871428D01*
X39600000Y-1871428D01*
X40057142Y-2271428D02*
X40057142Y-1671428D01*
X40057142Y-2242857D02*
X40000000Y-2271428D01*
X39885714Y-2271428D01*
X39828571Y-2242857D01*
X39800000Y-2214285D01*
X39771428Y-2157142D01*
X39771428Y-1985714D01*
X39800000Y-1928571D01*
X39828571Y-1900000D01*
X39885714Y-1871428D01*
X40000000Y-1871428D01*
X40057142Y-1900000D01*
X40800000Y-2271428D02*
X40800000Y-1871428D01*
X40800000Y-1985714D02*
X40828571Y-1928571D01*
X40857142Y-1900000D01*
X40914285Y-1871428D01*
X40971428Y-1871428D01*
X41400000Y-2242857D02*
X41342857Y-2271428D01*
X41228571Y-2271428D01*
X41171428Y-2242857D01*
X41142857Y-2185714D01*
X41142857Y-1957142D01*
X41171428Y-1900000D01*
X41228571Y-1871428D01*
X41342857Y-1871428D01*
X41400000Y-1900000D01*
X41428571Y-1957142D01*
X41428571Y-2014285D01*
X41142857Y-2071428D01*
X41628571Y-1871428D02*
X41771428Y-2271428D01*
X41914285Y-1871428D01*
X42142857Y-2214285D02*
X42171428Y-2242857D01*
X42142857Y-2271428D01*
X42114285Y-2242857D01*
X42142857Y-2214285D01*
X42142857Y-2271428D01*
X42742857Y-2271428D02*
X42400000Y-2271428D01*
X42571428Y-2271428D02*
X42571428Y-1671428D01*
X42514285Y-1757142D01*
X42457142Y-1814285D01*
X42400000Y-1842857D01*
D12*
G04 #@! TO.C,F1*
X24670000Y-29140000D02*
X33410000Y-29140000D01*
X24670000Y-29140000D02*
X24670000Y-33380000D01*
X33410000Y-33380000D02*
X33410000Y-29140000D01*
X33410000Y-33380000D02*
X24670000Y-33380000D01*
G04 #@! TO.C,F2*
X43660000Y-33380000D02*
X34920000Y-33380000D01*
X43660000Y-33380000D02*
X43660000Y-29140000D01*
X34920000Y-29140000D02*
X34920000Y-33380000D01*
X34920000Y-29140000D02*
X43660000Y-29140000D01*
D13*
G04 #@! TO.C,J_IN1*
X11689860Y-102001000D02*
G75*
G03X11689860Y-102001000I-2689860J0D01*
G01*
X13498340Y-97502660D02*
X12997960Y-97502660D01*
X13498340Y-98003040D02*
X13498340Y-97502660D01*
X4501660Y-97502660D02*
X5002040Y-97502660D01*
X4501660Y-98003040D02*
X4501660Y-97502660D01*
X4501660Y-108000480D02*
X4501660Y-107500100D01*
X5002040Y-108000480D02*
X4501660Y-108000480D01*
X13498340Y-108000480D02*
X12997960Y-108000480D01*
X13498340Y-107500100D02*
X13498340Y-108000480D01*
G04 #@! TO.C,J_OUT1*
X73498340Y-107499100D02*
X73498340Y-107999480D01*
X73498340Y-107999480D02*
X72997960Y-107999480D01*
X65002040Y-107999480D02*
X64501660Y-107999480D01*
X64501660Y-107999480D02*
X64501660Y-107499100D01*
X64501660Y-98002040D02*
X64501660Y-97501660D01*
X64501660Y-97501660D02*
X65002040Y-97501660D01*
X73498340Y-98002040D02*
X73498340Y-97501660D01*
X73498340Y-97501660D02*
X72997960Y-97501660D01*
X71689860Y-102000000D02*
G75*
G03X71689860Y-102000000I-2689860J0D01*
G01*
D14*
G04 #@! TO.C,RV_FB1*
X58900440Y-39602500D02*
X67099560Y-39602500D01*
X67099560Y-50897880D02*
X58900440Y-50897880D01*
X58900440Y-40151140D02*
X58351800Y-40151140D01*
X58900440Y-39602500D02*
X58900440Y-40151140D01*
X58900440Y-50349240D02*
X58900440Y-50897880D01*
X58351800Y-50349240D02*
X58900440Y-50349240D01*
X67099560Y-50349240D02*
X67648200Y-50349240D01*
X67099560Y-50897880D02*
X67099560Y-50349240D01*
X67099560Y-40151140D02*
X67099560Y-39602500D01*
X67648200Y-40151140D02*
X67099560Y-40151140D01*
X58351800Y-42350780D02*
X58351800Y-40151140D01*
X58351800Y-50349240D02*
X58351800Y-47148840D01*
X67648200Y-40151140D02*
X67648200Y-42350780D01*
X67648200Y-47148840D02*
X67648200Y-50349240D01*
D15*
X64397000Y-45000000D02*
G75*
G03X64397000Y-45000000I-1397000J0D01*
G01*
X64016000Y-45000000D02*
G75*
G03X64016000Y-45000000I-1016000J0D01*
G01*
D13*
G04 #@! TO.C,SW1*
X36460000Y-44599560D02*
X36460000Y-36400440D01*
X36460000Y-36400440D02*
X41540000Y-36400440D01*
X41540000Y-36400440D02*
X41540000Y-44599560D01*
X41540000Y-44599560D02*
X36460000Y-44599560D01*
D15*
G04 #@! TO.C,RV_GAIN1*
X70016000Y-86000000D02*
G75*
G03X70016000Y-86000000I-1016000J0D01*
G01*
X70397000Y-86000000D02*
G75*
G03X70397000Y-86000000I-1397000J0D01*
G01*
D14*
X73648200Y-88148840D02*
X73648200Y-91349240D01*
X73648200Y-81151140D02*
X73648200Y-83350780D01*
X64351800Y-91349240D02*
X64351800Y-88148840D01*
X64351800Y-83350780D02*
X64351800Y-81151140D01*
X73648200Y-81151140D02*
X73099560Y-81151140D01*
X73099560Y-81151140D02*
X73099560Y-80602500D01*
X73099560Y-91897880D02*
X73099560Y-91349240D01*
X73099560Y-91349240D02*
X73648200Y-91349240D01*
X64351800Y-91349240D02*
X64900440Y-91349240D01*
X64900440Y-91349240D02*
X64900440Y-91897880D01*
X64900440Y-80602500D02*
X64900440Y-81151140D01*
X64900440Y-81151140D02*
X64351800Y-81151140D01*
X73099560Y-91897880D02*
X64900440Y-91897880D01*
X64900440Y-80602500D02*
X73099560Y-80602500D01*
D13*
G04 #@! TO.C,J_IN_DRV1*
X29498340Y-107499100D02*
X29498340Y-107999480D01*
X29498340Y-107999480D02*
X28997960Y-107999480D01*
X21002040Y-107999480D02*
X20501660Y-107999480D01*
X20501660Y-107999480D02*
X20501660Y-107499100D01*
X20501660Y-98002040D02*
X20501660Y-97501660D01*
X20501660Y-97501660D02*
X21002040Y-97501660D01*
X29498340Y-98002040D02*
X29498340Y-97501660D01*
X29498340Y-97501660D02*
X28997960Y-97501660D01*
X27689860Y-102000000D02*
G75*
G03X27689860Y-102000000I-2689860J0D01*
G01*
G04 #@! TO.C,J_IN_FB1*
X55689860Y-102000000D02*
G75*
G03X55689860Y-102000000I-2689860J0D01*
G01*
X57498340Y-97501660D02*
X56997960Y-97501660D01*
X57498340Y-98002040D02*
X57498340Y-97501660D01*
X48501660Y-97501660D02*
X49002040Y-97501660D01*
X48501660Y-98002040D02*
X48501660Y-97501660D01*
X48501660Y-107999480D02*
X48501660Y-107499100D01*
X49002040Y-107999480D02*
X48501660Y-107999480D01*
X57498340Y-107999480D02*
X56997960Y-107999480D01*
X57498340Y-107499100D02*
X57498340Y-107999480D01*
D14*
G04 #@! TO.C,RV_DRV1*
X10900440Y-39602500D02*
X19099560Y-39602500D01*
X19099560Y-50897880D02*
X10900440Y-50897880D01*
X10900440Y-40151140D02*
X10351800Y-40151140D01*
X10900440Y-39602500D02*
X10900440Y-40151140D01*
X10900440Y-50349240D02*
X10900440Y-50897880D01*
X10351800Y-50349240D02*
X10900440Y-50349240D01*
X19099560Y-50349240D02*
X19648200Y-50349240D01*
X19099560Y-50897880D02*
X19099560Y-50349240D01*
X19099560Y-40151140D02*
X19099560Y-39602500D01*
X19648200Y-40151140D02*
X19099560Y-40151140D01*
X10351800Y-42350780D02*
X10351800Y-40151140D01*
X10351800Y-50349240D02*
X10351800Y-47148840D01*
X19648200Y-40151140D02*
X19648200Y-42350780D01*
X19648200Y-47148840D02*
X19648200Y-50349240D01*
D15*
X16397000Y-45000000D02*
G75*
G03X16397000Y-45000000I-1397000J0D01*
G01*
X16016000Y-45000000D02*
G75*
G03X16016000Y-45000000I-1016000J0D01*
G01*
G04 #@! TO.C,RV_DRV_CV1*
X26016000Y-86000000D02*
G75*
G03X26016000Y-86000000I-1016000J0D01*
G01*
X26397000Y-86000000D02*
G75*
G03X26397000Y-86000000I-1397000J0D01*
G01*
D14*
X29648200Y-88148840D02*
X29648200Y-91349240D01*
X29648200Y-81151140D02*
X29648200Y-83350780D01*
X20351800Y-91349240D02*
X20351800Y-88148840D01*
X20351800Y-83350780D02*
X20351800Y-81151140D01*
X29648200Y-81151140D02*
X29099560Y-81151140D01*
X29099560Y-81151140D02*
X29099560Y-80602500D01*
X29099560Y-91897880D02*
X29099560Y-91349240D01*
X29099560Y-91349240D02*
X29648200Y-91349240D01*
X20351800Y-91349240D02*
X20900440Y-91349240D01*
X20900440Y-91349240D02*
X20900440Y-91897880D01*
X20900440Y-80602500D02*
X20900440Y-81151140D01*
X20900440Y-81151140D02*
X20351800Y-81151140D01*
X29099560Y-91897880D02*
X20900440Y-91897880D01*
X20900440Y-80602500D02*
X29099560Y-80602500D01*
D15*
G04 #@! TO.C,RV_FB_CV1*
X54016000Y-86000000D02*
G75*
G03X54016000Y-86000000I-1016000J0D01*
G01*
X54397000Y-86000000D02*
G75*
G03X54397000Y-86000000I-1397000J0D01*
G01*
D14*
X57648200Y-88148840D02*
X57648200Y-91349240D01*
X57648200Y-81151140D02*
X57648200Y-83350780D01*
X48351800Y-91349240D02*
X48351800Y-88148840D01*
X48351800Y-83350780D02*
X48351800Y-81151140D01*
X57648200Y-81151140D02*
X57099560Y-81151140D01*
X57099560Y-81151140D02*
X57099560Y-80602500D01*
X57099560Y-91897880D02*
X57099560Y-91349240D01*
X57099560Y-91349240D02*
X57648200Y-91349240D01*
X48351800Y-91349240D02*
X48900440Y-91349240D01*
X48900440Y-91349240D02*
X48900440Y-91897880D01*
X48900440Y-80602500D02*
X48900440Y-81151140D01*
X48900440Y-81151140D02*
X48351800Y-81151140D01*
X57099560Y-91897880D02*
X48900440Y-91897880D01*
X48900440Y-80602500D02*
X57099560Y-80602500D01*
D13*
G04 #@! TO.C,J_IN_TONE1*
X41689860Y-102000000D02*
G75*
G03X41689860Y-102000000I-2689860J0D01*
G01*
X43498340Y-97501660D02*
X42997960Y-97501660D01*
X43498340Y-98002040D02*
X43498340Y-97501660D01*
X34501660Y-97501660D02*
X35002040Y-97501660D01*
X34501660Y-98002040D02*
X34501660Y-97501660D01*
X34501660Y-107999480D02*
X34501660Y-107499100D01*
X35002040Y-107999480D02*
X34501660Y-107999480D01*
X43498340Y-107999480D02*
X42997960Y-107999480D01*
X43498340Y-107499100D02*
X43498340Y-107999480D01*
D15*
G04 #@! TO.C,RV_IN1*
X10016000Y-86000000D02*
G75*
G03X10016000Y-86000000I-1016000J0D01*
G01*
X10397000Y-86000000D02*
G75*
G03X10397000Y-86000000I-1397000J0D01*
G01*
D14*
X13648200Y-88148840D02*
X13648200Y-91349240D01*
X13648200Y-81151140D02*
X13648200Y-83350780D01*
X4351800Y-91349240D02*
X4351800Y-88148840D01*
X4351800Y-83350780D02*
X4351800Y-81151140D01*
X13648200Y-81151140D02*
X13099560Y-81151140D01*
X13099560Y-81151140D02*
X13099560Y-80602500D01*
X13099560Y-91897880D02*
X13099560Y-91349240D01*
X13099560Y-91349240D02*
X13648200Y-91349240D01*
X4351800Y-91349240D02*
X4900440Y-91349240D01*
X4900440Y-91349240D02*
X4900440Y-91897880D01*
X4900440Y-80602500D02*
X4900440Y-81151140D01*
X4900440Y-81151140D02*
X4351800Y-81151140D01*
X13099560Y-91897880D02*
X4900440Y-91897880D01*
X4900440Y-80602500D02*
X13099560Y-80602500D01*
G04 #@! TO.C,RV_TONE1*
X34900440Y-56602500D02*
X43099560Y-56602500D01*
X43099560Y-67897880D02*
X34900440Y-67897880D01*
X34900440Y-57151140D02*
X34351800Y-57151140D01*
X34900440Y-56602500D02*
X34900440Y-57151140D01*
X34900440Y-67349240D02*
X34900440Y-67897880D01*
X34351800Y-67349240D02*
X34900440Y-67349240D01*
X43099560Y-67349240D02*
X43648200Y-67349240D01*
X43099560Y-67897880D02*
X43099560Y-67349240D01*
X43099560Y-57151140D02*
X43099560Y-56602500D01*
X43648200Y-57151140D02*
X43099560Y-57151140D01*
X34351800Y-59350780D02*
X34351800Y-57151140D01*
X34351800Y-67349240D02*
X34351800Y-64148840D01*
X43648200Y-57151140D02*
X43648200Y-59350780D01*
X43648200Y-64148840D02*
X43648200Y-67349240D01*
D15*
X40397000Y-62000000D02*
G75*
G03X40397000Y-62000000I-1397000J0D01*
G01*
X40016000Y-62000000D02*
G75*
G03X40016000Y-62000000I-1016000J0D01*
G01*
G04 #@! TO.C,RV_TONE_CV1*
X40016000Y-86000000D02*
G75*
G03X40016000Y-86000000I-1016000J0D01*
G01*
X40397000Y-86000000D02*
G75*
G03X40397000Y-86000000I-1397000J0D01*
G01*
D14*
X43648200Y-88148840D02*
X43648200Y-91349240D01*
X43648200Y-81151140D02*
X43648200Y-83350780D01*
X34351800Y-91349240D02*
X34351800Y-88148840D01*
X34351800Y-83350780D02*
X34351800Y-81151140D01*
X43648200Y-81151140D02*
X43099560Y-81151140D01*
X43099560Y-81151140D02*
X43099560Y-80602500D01*
X43099560Y-91897880D02*
X43099560Y-91349240D01*
X43099560Y-91349240D02*
X43648200Y-91349240D01*
X34351800Y-91349240D02*
X34900440Y-91349240D01*
X34900440Y-91349240D02*
X34900440Y-91897880D01*
X34900440Y-80602500D02*
X34900440Y-81151140D01*
X34900440Y-81151140D02*
X34351800Y-81151140D01*
X43099560Y-91897880D02*
X34900440Y-91897880D01*
X34900440Y-80602500D02*
X43099560Y-80602500D01*
D12*
G04 #@! TO.C,C1*
X10120000Y-1880000D02*
X10120000Y-4620000D01*
X2880000Y-1880000D02*
X2880000Y-4620000D01*
X2880000Y-4620000D02*
X10120000Y-4620000D01*
X2880000Y-1880000D02*
X10120000Y-1880000D01*
G04 #@! TO.C,C2*
X10120000Y-8870000D02*
X2880000Y-8870000D01*
X10120000Y-6130000D02*
X2880000Y-6130000D01*
X10120000Y-8870000D02*
X10120000Y-6130000D01*
X2880000Y-8870000D02*
X2880000Y-6130000D01*
G04 #@! TO.C,C5*
X73630000Y-19120000D02*
X73630000Y-11880000D01*
X76370000Y-19120000D02*
X76370000Y-11880000D01*
X73630000Y-19120000D02*
X76370000Y-19120000D01*
X73630000Y-11880000D02*
X76370000Y-11880000D01*
G04 #@! TO.C,C6*
X76370000Y-10120000D02*
X73630000Y-10120000D01*
X76370000Y-2880000D02*
X73630000Y-2880000D01*
X73630000Y-2880000D02*
X73630000Y-10120000D01*
X76370000Y-2880000D02*
X76370000Y-10120000D01*
G04 #@! TO.C,C8*
X5370000Y-48870000D02*
X2630000Y-48870000D01*
X5370000Y-41630000D02*
X2630000Y-41630000D01*
X2630000Y-41630000D02*
X2630000Y-48870000D01*
X5370000Y-41630000D02*
X5370000Y-48870000D01*
G04 #@! TO.C,C9*
X13130000Y-9370000D02*
X13130000Y-2130000D01*
X15870000Y-9370000D02*
X15870000Y-2130000D01*
X13130000Y-9370000D02*
X15870000Y-9370000D01*
X13130000Y-2130000D02*
X15870000Y-2130000D01*
G04 #@! TO.C,C3*
X12120000Y-33500000D02*
G75*
G03X12120000Y-33500000I-2120000J0D01*
G01*
X10000000Y-31420000D02*
X10000000Y-35580000D01*
X10040000Y-31420000D02*
X10040000Y-35580000D01*
X10080000Y-31421000D02*
X10080000Y-35579000D01*
X10120000Y-31423000D02*
X10120000Y-35577000D01*
X10160000Y-31426000D02*
X10160000Y-35574000D01*
X10200000Y-31429000D02*
X10200000Y-32660000D01*
X10200000Y-34340000D02*
X10200000Y-35571000D01*
X10240000Y-31433000D02*
X10240000Y-32660000D01*
X10240000Y-34340000D02*
X10240000Y-35567000D01*
X10280000Y-31438000D02*
X10280000Y-32660000D01*
X10280000Y-34340000D02*
X10280000Y-35562000D01*
X10320000Y-31444000D02*
X10320000Y-32660000D01*
X10320000Y-34340000D02*
X10320000Y-35556000D01*
X10360000Y-31450000D02*
X10360000Y-32660000D01*
X10360000Y-34340000D02*
X10360000Y-35550000D01*
X10400000Y-31458000D02*
X10400000Y-32660000D01*
X10400000Y-34340000D02*
X10400000Y-35542000D01*
X10440000Y-31466000D02*
X10440000Y-32660000D01*
X10440000Y-34340000D02*
X10440000Y-35534000D01*
X10480000Y-31475000D02*
X10480000Y-32660000D01*
X10480000Y-34340000D02*
X10480000Y-35525000D01*
X10520000Y-31484000D02*
X10520000Y-32660000D01*
X10520000Y-34340000D02*
X10520000Y-35516000D01*
X10560000Y-31495000D02*
X10560000Y-32660000D01*
X10560000Y-34340000D02*
X10560000Y-35505000D01*
X10600000Y-31506000D02*
X10600000Y-32660000D01*
X10600000Y-34340000D02*
X10600000Y-35494000D01*
X10640000Y-31518000D02*
X10640000Y-32660000D01*
X10640000Y-34340000D02*
X10640000Y-35482000D01*
X10680000Y-31532000D02*
X10680000Y-32660000D01*
X10680000Y-34340000D02*
X10680000Y-35468000D01*
X10721000Y-31546000D02*
X10721000Y-32660000D01*
X10721000Y-34340000D02*
X10721000Y-35454000D01*
X10761000Y-31560000D02*
X10761000Y-32660000D01*
X10761000Y-34340000D02*
X10761000Y-35440000D01*
X10801000Y-31576000D02*
X10801000Y-32660000D01*
X10801000Y-34340000D02*
X10801000Y-35424000D01*
X10841000Y-31593000D02*
X10841000Y-32660000D01*
X10841000Y-34340000D02*
X10841000Y-35407000D01*
X10881000Y-31611000D02*
X10881000Y-32660000D01*
X10881000Y-34340000D02*
X10881000Y-35389000D01*
X10921000Y-31630000D02*
X10921000Y-32660000D01*
X10921000Y-34340000D02*
X10921000Y-35370000D01*
X10961000Y-31649000D02*
X10961000Y-32660000D01*
X10961000Y-34340000D02*
X10961000Y-35351000D01*
X11001000Y-31670000D02*
X11001000Y-32660000D01*
X11001000Y-34340000D02*
X11001000Y-35330000D01*
X11041000Y-31692000D02*
X11041000Y-32660000D01*
X11041000Y-34340000D02*
X11041000Y-35308000D01*
X11081000Y-31715000D02*
X11081000Y-32660000D01*
X11081000Y-34340000D02*
X11081000Y-35285000D01*
X11121000Y-31740000D02*
X11121000Y-32660000D01*
X11121000Y-34340000D02*
X11121000Y-35260000D01*
X11161000Y-31765000D02*
X11161000Y-32660000D01*
X11161000Y-34340000D02*
X11161000Y-35235000D01*
X11201000Y-31792000D02*
X11201000Y-32660000D01*
X11201000Y-34340000D02*
X11201000Y-35208000D01*
X11241000Y-31820000D02*
X11241000Y-32660000D01*
X11241000Y-34340000D02*
X11241000Y-35180000D01*
X11281000Y-31850000D02*
X11281000Y-32660000D01*
X11281000Y-34340000D02*
X11281000Y-35150000D01*
X11321000Y-31881000D02*
X11321000Y-32660000D01*
X11321000Y-34340000D02*
X11321000Y-35119000D01*
X11361000Y-31913000D02*
X11361000Y-32660000D01*
X11361000Y-34340000D02*
X11361000Y-35087000D01*
X11401000Y-31948000D02*
X11401000Y-32660000D01*
X11401000Y-34340000D02*
X11401000Y-35052000D01*
X11441000Y-31984000D02*
X11441000Y-32660000D01*
X11441000Y-34340000D02*
X11441000Y-35016000D01*
X11481000Y-32022000D02*
X11481000Y-32660000D01*
X11481000Y-34340000D02*
X11481000Y-34978000D01*
X11521000Y-32062000D02*
X11521000Y-32660000D01*
X11521000Y-34340000D02*
X11521000Y-34938000D01*
X11561000Y-32104000D02*
X11561000Y-32660000D01*
X11561000Y-34340000D02*
X11561000Y-34896000D01*
X11601000Y-32149000D02*
X11601000Y-32660000D01*
X11601000Y-34340000D02*
X11601000Y-34851000D01*
X11641000Y-32196000D02*
X11641000Y-32660000D01*
X11641000Y-34340000D02*
X11641000Y-34804000D01*
X11681000Y-32246000D02*
X11681000Y-32660000D01*
X11681000Y-34340000D02*
X11681000Y-34754000D01*
X11721000Y-32300000D02*
X11721000Y-32660000D01*
X11721000Y-34340000D02*
X11721000Y-34700000D01*
X11761000Y-32358000D02*
X11761000Y-32660000D01*
X11761000Y-34340000D02*
X11761000Y-34642000D01*
X11801000Y-32420000D02*
X11801000Y-32660000D01*
X11801000Y-34340000D02*
X11801000Y-34580000D01*
X11841000Y-32487000D02*
X11841000Y-34513000D01*
X11881000Y-32560000D02*
X11881000Y-34440000D01*
X11921000Y-32641000D02*
X11921000Y-34359000D01*
X11961000Y-32732000D02*
X11961000Y-34268000D01*
X12001000Y-32836000D02*
X12001000Y-34164000D01*
X12041000Y-32963000D02*
X12041000Y-34037000D01*
X12081000Y-33130000D02*
X12081000Y-33870000D01*
X7730199Y-32305000D02*
X8130199Y-32305000D01*
X7930199Y-32105000D02*
X7930199Y-32505000D01*
G04 #@! TO.C,C4*
X14430199Y-32105000D02*
X14430199Y-32505000D01*
X14230199Y-32305000D02*
X14630199Y-32305000D01*
X18581000Y-33130000D02*
X18581000Y-33870000D01*
X18541000Y-32963000D02*
X18541000Y-34037000D01*
X18501000Y-32836000D02*
X18501000Y-34164000D01*
X18461000Y-32732000D02*
X18461000Y-34268000D01*
X18421000Y-32641000D02*
X18421000Y-34359000D01*
X18381000Y-32560000D02*
X18381000Y-34440000D01*
X18341000Y-32487000D02*
X18341000Y-34513000D01*
X18301000Y-34340000D02*
X18301000Y-34580000D01*
X18301000Y-32420000D02*
X18301000Y-32660000D01*
X18261000Y-34340000D02*
X18261000Y-34642000D01*
X18261000Y-32358000D02*
X18261000Y-32660000D01*
X18221000Y-34340000D02*
X18221000Y-34700000D01*
X18221000Y-32300000D02*
X18221000Y-32660000D01*
X18181000Y-34340000D02*
X18181000Y-34754000D01*
X18181000Y-32246000D02*
X18181000Y-32660000D01*
X18141000Y-34340000D02*
X18141000Y-34804000D01*
X18141000Y-32196000D02*
X18141000Y-32660000D01*
X18101000Y-34340000D02*
X18101000Y-34851000D01*
X18101000Y-32149000D02*
X18101000Y-32660000D01*
X18061000Y-34340000D02*
X18061000Y-34896000D01*
X18061000Y-32104000D02*
X18061000Y-32660000D01*
X18021000Y-34340000D02*
X18021000Y-34938000D01*
X18021000Y-32062000D02*
X18021000Y-32660000D01*
X17981000Y-34340000D02*
X17981000Y-34978000D01*
X17981000Y-32022000D02*
X17981000Y-32660000D01*
X17941000Y-34340000D02*
X17941000Y-35016000D01*
X17941000Y-31984000D02*
X17941000Y-32660000D01*
X17901000Y-34340000D02*
X17901000Y-35052000D01*
X17901000Y-31948000D02*
X17901000Y-32660000D01*
X17861000Y-34340000D02*
X17861000Y-35087000D01*
X17861000Y-31913000D02*
X17861000Y-32660000D01*
X17821000Y-34340000D02*
X17821000Y-35119000D01*
X17821000Y-31881000D02*
X17821000Y-32660000D01*
X17781000Y-34340000D02*
X17781000Y-35150000D01*
X17781000Y-31850000D02*
X17781000Y-32660000D01*
X17741000Y-34340000D02*
X17741000Y-35180000D01*
X17741000Y-31820000D02*
X17741000Y-32660000D01*
X17701000Y-34340000D02*
X17701000Y-35208000D01*
X17701000Y-31792000D02*
X17701000Y-32660000D01*
X17661000Y-34340000D02*
X17661000Y-35235000D01*
X17661000Y-31765000D02*
X17661000Y-32660000D01*
X17621000Y-34340000D02*
X17621000Y-35260000D01*
X17621000Y-31740000D02*
X17621000Y-32660000D01*
X17581000Y-34340000D02*
X17581000Y-35285000D01*
X17581000Y-31715000D02*
X17581000Y-32660000D01*
X17541000Y-34340000D02*
X17541000Y-35308000D01*
X17541000Y-31692000D02*
X17541000Y-32660000D01*
X17501000Y-34340000D02*
X17501000Y-35330000D01*
X17501000Y-31670000D02*
X17501000Y-32660000D01*
X17461000Y-34340000D02*
X17461000Y-35351000D01*
X17461000Y-31649000D02*
X17461000Y-32660000D01*
X17421000Y-34340000D02*
X17421000Y-35370000D01*
X17421000Y-31630000D02*
X17421000Y-32660000D01*
X17381000Y-34340000D02*
X17381000Y-35389000D01*
X17381000Y-31611000D02*
X17381000Y-32660000D01*
X17341000Y-34340000D02*
X17341000Y-35407000D01*
X17341000Y-31593000D02*
X17341000Y-32660000D01*
X17301000Y-34340000D02*
X17301000Y-35424000D01*
X17301000Y-31576000D02*
X17301000Y-32660000D01*
X17261000Y-34340000D02*
X17261000Y-35440000D01*
X17261000Y-31560000D02*
X17261000Y-32660000D01*
X17221000Y-34340000D02*
X17221000Y-35454000D01*
X17221000Y-31546000D02*
X17221000Y-32660000D01*
X17180000Y-34340000D02*
X17180000Y-35468000D01*
X17180000Y-31532000D02*
X17180000Y-32660000D01*
X17140000Y-34340000D02*
X17140000Y-35482000D01*
X17140000Y-31518000D02*
X17140000Y-32660000D01*
X17100000Y-34340000D02*
X17100000Y-35494000D01*
X17100000Y-31506000D02*
X17100000Y-32660000D01*
X17060000Y-34340000D02*
X17060000Y-35505000D01*
X17060000Y-31495000D02*
X17060000Y-32660000D01*
X17020000Y-34340000D02*
X17020000Y-35516000D01*
X17020000Y-31484000D02*
X17020000Y-32660000D01*
X16980000Y-34340000D02*
X16980000Y-35525000D01*
X16980000Y-31475000D02*
X16980000Y-32660000D01*
X16940000Y-34340000D02*
X16940000Y-35534000D01*
X16940000Y-31466000D02*
X16940000Y-32660000D01*
X16900000Y-34340000D02*
X16900000Y-35542000D01*
X16900000Y-31458000D02*
X16900000Y-32660000D01*
X16860000Y-34340000D02*
X16860000Y-35550000D01*
X16860000Y-31450000D02*
X16860000Y-32660000D01*
X16820000Y-34340000D02*
X16820000Y-35556000D01*
X16820000Y-31444000D02*
X16820000Y-32660000D01*
X16780000Y-34340000D02*
X16780000Y-35562000D01*
X16780000Y-31438000D02*
X16780000Y-32660000D01*
X16740000Y-34340000D02*
X16740000Y-35567000D01*
X16740000Y-31433000D02*
X16740000Y-32660000D01*
X16700000Y-34340000D02*
X16700000Y-35571000D01*
X16700000Y-31429000D02*
X16700000Y-32660000D01*
X16660000Y-31426000D02*
X16660000Y-35574000D01*
X16620000Y-31423000D02*
X16620000Y-35577000D01*
X16580000Y-31421000D02*
X16580000Y-35579000D01*
X16540000Y-31420000D02*
X16540000Y-35580000D01*
X16500000Y-31420000D02*
X16500000Y-35580000D01*
X18620000Y-33500000D02*
G75*
G03X18620000Y-33500000I-2120000J0D01*
G01*
G04 #@! TO.C,C7*
X19930199Y-16355000D02*
X19930199Y-16755000D01*
X19730199Y-16555000D02*
X20130199Y-16555000D01*
X24081000Y-17380000D02*
X24081000Y-18120000D01*
X24041000Y-17213000D02*
X24041000Y-18287000D01*
X24001000Y-17086000D02*
X24001000Y-18414000D01*
X23961000Y-16982000D02*
X23961000Y-18518000D01*
X23921000Y-16891000D02*
X23921000Y-18609000D01*
X23881000Y-16810000D02*
X23881000Y-18690000D01*
X23841000Y-16737000D02*
X23841000Y-18763000D01*
X23801000Y-18590000D02*
X23801000Y-18830000D01*
X23801000Y-16670000D02*
X23801000Y-16910000D01*
X23761000Y-18590000D02*
X23761000Y-18892000D01*
X23761000Y-16608000D02*
X23761000Y-16910000D01*
X23721000Y-18590000D02*
X23721000Y-18950000D01*
X23721000Y-16550000D02*
X23721000Y-16910000D01*
X23681000Y-18590000D02*
X23681000Y-19004000D01*
X23681000Y-16496000D02*
X23681000Y-16910000D01*
X23641000Y-18590000D02*
X23641000Y-19054000D01*
X23641000Y-16446000D02*
X23641000Y-16910000D01*
X23601000Y-18590000D02*
X23601000Y-19101000D01*
X23601000Y-16399000D02*
X23601000Y-16910000D01*
X23561000Y-18590000D02*
X23561000Y-19146000D01*
X23561000Y-16354000D02*
X23561000Y-16910000D01*
X23521000Y-18590000D02*
X23521000Y-19188000D01*
X23521000Y-16312000D02*
X23521000Y-16910000D01*
X23481000Y-18590000D02*
X23481000Y-19228000D01*
X23481000Y-16272000D02*
X23481000Y-16910000D01*
X23441000Y-18590000D02*
X23441000Y-19266000D01*
X23441000Y-16234000D02*
X23441000Y-16910000D01*
X23401000Y-18590000D02*
X23401000Y-19302000D01*
X23401000Y-16198000D02*
X23401000Y-16910000D01*
X23361000Y-18590000D02*
X23361000Y-19337000D01*
X23361000Y-16163000D02*
X23361000Y-16910000D01*
X23321000Y-18590000D02*
X23321000Y-19369000D01*
X23321000Y-16131000D02*
X23321000Y-16910000D01*
X23281000Y-18590000D02*
X23281000Y-19400000D01*
X23281000Y-16100000D02*
X23281000Y-16910000D01*
X23241000Y-18590000D02*
X23241000Y-19430000D01*
X23241000Y-16070000D02*
X23241000Y-16910000D01*
X23201000Y-18590000D02*
X23201000Y-19458000D01*
X23201000Y-16042000D02*
X23201000Y-16910000D01*
X23161000Y-18590000D02*
X23161000Y-19485000D01*
X23161000Y-16015000D02*
X23161000Y-16910000D01*
X23121000Y-18590000D02*
X23121000Y-19510000D01*
X23121000Y-15990000D02*
X23121000Y-16910000D01*
X23081000Y-18590000D02*
X23081000Y-19535000D01*
X23081000Y-15965000D02*
X23081000Y-16910000D01*
X23041000Y-18590000D02*
X23041000Y-19558000D01*
X23041000Y-15942000D02*
X23041000Y-16910000D01*
X23001000Y-18590000D02*
X23001000Y-19580000D01*
X23001000Y-15920000D02*
X23001000Y-16910000D01*
X22961000Y-18590000D02*
X22961000Y-19601000D01*
X22961000Y-15899000D02*
X22961000Y-16910000D01*
X22921000Y-18590000D02*
X22921000Y-19620000D01*
X22921000Y-15880000D02*
X22921000Y-16910000D01*
X22881000Y-18590000D02*
X22881000Y-19639000D01*
X22881000Y-15861000D02*
X22881000Y-16910000D01*
X22841000Y-18590000D02*
X22841000Y-19657000D01*
X22841000Y-15843000D02*
X22841000Y-16910000D01*
X22801000Y-18590000D02*
X22801000Y-19674000D01*
X22801000Y-15826000D02*
X22801000Y-16910000D01*
X22761000Y-18590000D02*
X22761000Y-19690000D01*
X22761000Y-15810000D02*
X22761000Y-16910000D01*
X22721000Y-18590000D02*
X22721000Y-19704000D01*
X22721000Y-15796000D02*
X22721000Y-16910000D01*
X22680000Y-18590000D02*
X22680000Y-19718000D01*
X22680000Y-15782000D02*
X22680000Y-16910000D01*
X22640000Y-18590000D02*
X22640000Y-19732000D01*
X22640000Y-15768000D02*
X22640000Y-16910000D01*
X22600000Y-18590000D02*
X22600000Y-19744000D01*
X22600000Y-15756000D02*
X22600000Y-16910000D01*
X22560000Y-18590000D02*
X22560000Y-19755000D01*
X22560000Y-15745000D02*
X22560000Y-16910000D01*
X22520000Y-18590000D02*
X22520000Y-19766000D01*
X22520000Y-15734000D02*
X22520000Y-16910000D01*
X22480000Y-18590000D02*
X22480000Y-19775000D01*
X22480000Y-15725000D02*
X22480000Y-16910000D01*
X22440000Y-18590000D02*
X22440000Y-19784000D01*
X22440000Y-15716000D02*
X22440000Y-16910000D01*
X22400000Y-18590000D02*
X22400000Y-19792000D01*
X22400000Y-15708000D02*
X22400000Y-16910000D01*
X22360000Y-18590000D02*
X22360000Y-19800000D01*
X22360000Y-15700000D02*
X22360000Y-16910000D01*
X22320000Y-18590000D02*
X22320000Y-19806000D01*
X22320000Y-15694000D02*
X22320000Y-16910000D01*
X22280000Y-18590000D02*
X22280000Y-19812000D01*
X22280000Y-15688000D02*
X22280000Y-16910000D01*
X22240000Y-18590000D02*
X22240000Y-19817000D01*
X22240000Y-15683000D02*
X22240000Y-16910000D01*
X22200000Y-18590000D02*
X22200000Y-19821000D01*
X22200000Y-15679000D02*
X22200000Y-16910000D01*
X22160000Y-15676000D02*
X22160000Y-19824000D01*
X22120000Y-15673000D02*
X22120000Y-19827000D01*
X22080000Y-15671000D02*
X22080000Y-19829000D01*
X22040000Y-15670000D02*
X22040000Y-19830000D01*
X22000000Y-15670000D02*
X22000000Y-19830000D01*
X24120000Y-17750000D02*
G75*
G03X24120000Y-17750000I-2120000J0D01*
G01*
G04 #@! TO.C,C10*
X24120000Y-24500000D02*
G75*
G03X24120000Y-24500000I-2120000J0D01*
G01*
X22000000Y-22420000D02*
X22000000Y-26580000D01*
X22040000Y-22420000D02*
X22040000Y-26580000D01*
X22080000Y-22421000D02*
X22080000Y-26579000D01*
X22120000Y-22423000D02*
X22120000Y-26577000D01*
X22160000Y-22426000D02*
X22160000Y-26574000D01*
X22200000Y-22429000D02*
X22200000Y-23660000D01*
X22200000Y-25340000D02*
X22200000Y-26571000D01*
X22240000Y-22433000D02*
X22240000Y-23660000D01*
X22240000Y-25340000D02*
X22240000Y-26567000D01*
X22280000Y-22438000D02*
X22280000Y-23660000D01*
X22280000Y-25340000D02*
X22280000Y-26562000D01*
X22320000Y-22444000D02*
X22320000Y-23660000D01*
X22320000Y-25340000D02*
X22320000Y-26556000D01*
X22360000Y-22450000D02*
X22360000Y-23660000D01*
X22360000Y-25340000D02*
X22360000Y-26550000D01*
X22400000Y-22458000D02*
X22400000Y-23660000D01*
X22400000Y-25340000D02*
X22400000Y-26542000D01*
X22440000Y-22466000D02*
X22440000Y-23660000D01*
X22440000Y-25340000D02*
X22440000Y-26534000D01*
X22480000Y-22475000D02*
X22480000Y-23660000D01*
X22480000Y-25340000D02*
X22480000Y-26525000D01*
X22520000Y-22484000D02*
X22520000Y-23660000D01*
X22520000Y-25340000D02*
X22520000Y-26516000D01*
X22560000Y-22495000D02*
X22560000Y-23660000D01*
X22560000Y-25340000D02*
X22560000Y-26505000D01*
X22600000Y-22506000D02*
X22600000Y-23660000D01*
X22600000Y-25340000D02*
X22600000Y-26494000D01*
X22640000Y-22518000D02*
X22640000Y-23660000D01*
X22640000Y-25340000D02*
X22640000Y-26482000D01*
X22680000Y-22532000D02*
X22680000Y-23660000D01*
X22680000Y-25340000D02*
X22680000Y-26468000D01*
X22721000Y-22546000D02*
X22721000Y-23660000D01*
X22721000Y-25340000D02*
X22721000Y-26454000D01*
X22761000Y-22560000D02*
X22761000Y-23660000D01*
X22761000Y-25340000D02*
X22761000Y-26440000D01*
X22801000Y-22576000D02*
X22801000Y-23660000D01*
X22801000Y-25340000D02*
X22801000Y-26424000D01*
X22841000Y-22593000D02*
X22841000Y-23660000D01*
X22841000Y-25340000D02*
X22841000Y-26407000D01*
X22881000Y-22611000D02*
X22881000Y-23660000D01*
X22881000Y-25340000D02*
X22881000Y-26389000D01*
X22921000Y-22630000D02*
X22921000Y-23660000D01*
X22921000Y-25340000D02*
X22921000Y-26370000D01*
X22961000Y-22649000D02*
X22961000Y-23660000D01*
X22961000Y-25340000D02*
X22961000Y-26351000D01*
X23001000Y-22670000D02*
X23001000Y-23660000D01*
X23001000Y-25340000D02*
X23001000Y-26330000D01*
X23041000Y-22692000D02*
X23041000Y-23660000D01*
X23041000Y-25340000D02*
X23041000Y-26308000D01*
X23081000Y-22715000D02*
X23081000Y-23660000D01*
X23081000Y-25340000D02*
X23081000Y-26285000D01*
X23121000Y-22740000D02*
X23121000Y-23660000D01*
X23121000Y-25340000D02*
X23121000Y-26260000D01*
X23161000Y-22765000D02*
X23161000Y-23660000D01*
X23161000Y-25340000D02*
X23161000Y-26235000D01*
X23201000Y-22792000D02*
X23201000Y-23660000D01*
X23201000Y-25340000D02*
X23201000Y-26208000D01*
X23241000Y-22820000D02*
X23241000Y-23660000D01*
X23241000Y-25340000D02*
X23241000Y-26180000D01*
X23281000Y-22850000D02*
X23281000Y-23660000D01*
X23281000Y-25340000D02*
X23281000Y-26150000D01*
X23321000Y-22881000D02*
X23321000Y-23660000D01*
X23321000Y-25340000D02*
X23321000Y-26119000D01*
X23361000Y-22913000D02*
X23361000Y-23660000D01*
X23361000Y-25340000D02*
X23361000Y-26087000D01*
X23401000Y-22948000D02*
X23401000Y-23660000D01*
X23401000Y-25340000D02*
X23401000Y-26052000D01*
X23441000Y-22984000D02*
X23441000Y-23660000D01*
X23441000Y-25340000D02*
X23441000Y-26016000D01*
X23481000Y-23022000D02*
X23481000Y-23660000D01*
X23481000Y-25340000D02*
X23481000Y-25978000D01*
X23521000Y-23062000D02*
X23521000Y-23660000D01*
X23521000Y-25340000D02*
X23521000Y-25938000D01*
X23561000Y-23104000D02*
X23561000Y-23660000D01*
X23561000Y-25340000D02*
X23561000Y-25896000D01*
X23601000Y-23149000D02*
X23601000Y-23660000D01*
X23601000Y-25340000D02*
X23601000Y-25851000D01*
X23641000Y-23196000D02*
X23641000Y-23660000D01*
X23641000Y-25340000D02*
X23641000Y-25804000D01*
X23681000Y-23246000D02*
X23681000Y-23660000D01*
X23681000Y-25340000D02*
X23681000Y-25754000D01*
X23721000Y-23300000D02*
X23721000Y-23660000D01*
X23721000Y-25340000D02*
X23721000Y-25700000D01*
X23761000Y-23358000D02*
X23761000Y-23660000D01*
X23761000Y-25340000D02*
X23761000Y-25642000D01*
X23801000Y-23420000D02*
X23801000Y-23660000D01*
X23801000Y-25340000D02*
X23801000Y-25580000D01*
X23841000Y-23487000D02*
X23841000Y-25513000D01*
X23881000Y-23560000D02*
X23881000Y-25440000D01*
X23921000Y-23641000D02*
X23921000Y-25359000D01*
X23961000Y-23732000D02*
X23961000Y-25268000D01*
X24001000Y-23836000D02*
X24001000Y-25164000D01*
X24041000Y-23963000D02*
X24041000Y-25037000D01*
X24081000Y-24130000D02*
X24081000Y-24870000D01*
X19730199Y-23305000D02*
X20130199Y-23305000D01*
X19930199Y-23105000D02*
X19930199Y-23505000D01*
G04 #@! TO.C,C12*
X32620000Y-71000000D02*
G75*
G03X32620000Y-71000000I-2120000J0D01*
G01*
X28420000Y-71000000D02*
X32580000Y-71000000D01*
X28420000Y-70960000D02*
X32580000Y-70960000D01*
X28421000Y-70920000D02*
X32579000Y-70920000D01*
X28423000Y-70880000D02*
X32577000Y-70880000D01*
X28426000Y-70840000D02*
X32574000Y-70840000D01*
X28429000Y-70800000D02*
X29660000Y-70800000D01*
X31340000Y-70800000D02*
X32571000Y-70800000D01*
X28433000Y-70760000D02*
X29660000Y-70760000D01*
X31340000Y-70760000D02*
X32567000Y-70760000D01*
X28438000Y-70720000D02*
X29660000Y-70720000D01*
X31340000Y-70720000D02*
X32562000Y-70720000D01*
X28444000Y-70680000D02*
X29660000Y-70680000D01*
X31340000Y-70680000D02*
X32556000Y-70680000D01*
X28450000Y-70640000D02*
X29660000Y-70640000D01*
X31340000Y-70640000D02*
X32550000Y-70640000D01*
X28458000Y-70600000D02*
X29660000Y-70600000D01*
X31340000Y-70600000D02*
X32542000Y-70600000D01*
X28466000Y-70560000D02*
X29660000Y-70560000D01*
X31340000Y-70560000D02*
X32534000Y-70560000D01*
X28475000Y-70520000D02*
X29660000Y-70520000D01*
X31340000Y-70520000D02*
X32525000Y-70520000D01*
X28484000Y-70480000D02*
X29660000Y-70480000D01*
X31340000Y-70480000D02*
X32516000Y-70480000D01*
X28495000Y-70440000D02*
X29660000Y-70440000D01*
X31340000Y-70440000D02*
X32505000Y-70440000D01*
X28506000Y-70400000D02*
X29660000Y-70400000D01*
X31340000Y-70400000D02*
X32494000Y-70400000D01*
X28518000Y-70360000D02*
X29660000Y-70360000D01*
X31340000Y-70360000D02*
X32482000Y-70360000D01*
X28532000Y-70320000D02*
X29660000Y-70320000D01*
X31340000Y-70320000D02*
X32468000Y-70320000D01*
X28546000Y-70279000D02*
X29660000Y-70279000D01*
X31340000Y-70279000D02*
X32454000Y-70279000D01*
X28560000Y-70239000D02*
X29660000Y-70239000D01*
X31340000Y-70239000D02*
X32440000Y-70239000D01*
X28576000Y-70199000D02*
X29660000Y-70199000D01*
X31340000Y-70199000D02*
X32424000Y-70199000D01*
X28593000Y-70159000D02*
X29660000Y-70159000D01*
X31340000Y-70159000D02*
X32407000Y-70159000D01*
X28611000Y-70119000D02*
X29660000Y-70119000D01*
X31340000Y-70119000D02*
X32389000Y-70119000D01*
X28630000Y-70079000D02*
X29660000Y-70079000D01*
X31340000Y-70079000D02*
X32370000Y-70079000D01*
X28649000Y-70039000D02*
X29660000Y-70039000D01*
X31340000Y-70039000D02*
X32351000Y-70039000D01*
X28670000Y-69999000D02*
X29660000Y-69999000D01*
X31340000Y-69999000D02*
X32330000Y-69999000D01*
X28692000Y-69959000D02*
X29660000Y-69959000D01*
X31340000Y-69959000D02*
X32308000Y-69959000D01*
X28715000Y-69919000D02*
X29660000Y-69919000D01*
X31340000Y-69919000D02*
X32285000Y-69919000D01*
X28740000Y-69879000D02*
X29660000Y-69879000D01*
X31340000Y-69879000D02*
X32260000Y-69879000D01*
X28765000Y-69839000D02*
X29660000Y-69839000D01*
X31340000Y-69839000D02*
X32235000Y-69839000D01*
X28792000Y-69799000D02*
X29660000Y-69799000D01*
X31340000Y-69799000D02*
X32208000Y-69799000D01*
X28820000Y-69759000D02*
X29660000Y-69759000D01*
X31340000Y-69759000D02*
X32180000Y-69759000D01*
X28850000Y-69719000D02*
X29660000Y-69719000D01*
X31340000Y-69719000D02*
X32150000Y-69719000D01*
X28881000Y-69679000D02*
X29660000Y-69679000D01*
X31340000Y-69679000D02*
X32119000Y-69679000D01*
X28913000Y-69639000D02*
X29660000Y-69639000D01*
X31340000Y-69639000D02*
X32087000Y-69639000D01*
X28948000Y-69599000D02*
X29660000Y-69599000D01*
X31340000Y-69599000D02*
X32052000Y-69599000D01*
X28984000Y-69559000D02*
X29660000Y-69559000D01*
X31340000Y-69559000D02*
X32016000Y-69559000D01*
X29022000Y-69519000D02*
X29660000Y-69519000D01*
X31340000Y-69519000D02*
X31978000Y-69519000D01*
X29062000Y-69479000D02*
X29660000Y-69479000D01*
X31340000Y-69479000D02*
X31938000Y-69479000D01*
X29104000Y-69439000D02*
X29660000Y-69439000D01*
X31340000Y-69439000D02*
X31896000Y-69439000D01*
X29149000Y-69399000D02*
X29660000Y-69399000D01*
X31340000Y-69399000D02*
X31851000Y-69399000D01*
X29196000Y-69359000D02*
X29660000Y-69359000D01*
X31340000Y-69359000D02*
X31804000Y-69359000D01*
X29246000Y-69319000D02*
X29660000Y-69319000D01*
X31340000Y-69319000D02*
X31754000Y-69319000D01*
X29300000Y-69279000D02*
X29660000Y-69279000D01*
X31340000Y-69279000D02*
X31700000Y-69279000D01*
X29358000Y-69239000D02*
X29660000Y-69239000D01*
X31340000Y-69239000D02*
X31642000Y-69239000D01*
X29420000Y-69199000D02*
X29660000Y-69199000D01*
X31340000Y-69199000D02*
X31580000Y-69199000D01*
X29487000Y-69159000D02*
X31513000Y-69159000D01*
X29560000Y-69119000D02*
X31440000Y-69119000D01*
X29641000Y-69079000D02*
X31359000Y-69079000D01*
X29732000Y-69039000D02*
X31268000Y-69039000D01*
X29836000Y-68999000D02*
X31164000Y-68999000D01*
X29963000Y-68959000D02*
X31037000Y-68959000D01*
X30130000Y-68919000D02*
X30870000Y-68919000D01*
X29305000Y-73269801D02*
X29305000Y-72869801D01*
X29105000Y-73069801D02*
X29505000Y-73069801D01*
G04 #@! TO.C,D1*
X25140000Y-39030000D02*
X25140000Y-41970000D01*
X25380000Y-39030000D02*
X25380000Y-41970000D01*
X25260000Y-39030000D02*
X25260000Y-41970000D01*
X30820000Y-40500000D02*
X29800000Y-40500000D01*
X23340000Y-40500000D02*
X24360000Y-40500000D01*
X29800000Y-39030000D02*
X24360000Y-39030000D01*
X29800000Y-41970000D02*
X29800000Y-39030000D01*
X24360000Y-41970000D02*
X29800000Y-41970000D01*
X24360000Y-39030000D02*
X24360000Y-41970000D01*
G04 #@! TO.C,D2*
X24450000Y-34780000D02*
X24450000Y-37720000D01*
X24450000Y-37720000D02*
X29890000Y-37720000D01*
X29890000Y-37720000D02*
X29890000Y-34780000D01*
X29890000Y-34780000D02*
X24450000Y-34780000D01*
X23430000Y-36250000D02*
X24450000Y-36250000D01*
X30910000Y-36250000D02*
X29890000Y-36250000D01*
X25350000Y-34780000D02*
X25350000Y-37720000D01*
X25470000Y-34780000D02*
X25470000Y-37720000D01*
X25230000Y-34780000D02*
X25230000Y-37720000D01*
G04 #@! TO.C,D3*
X69380000Y-40180000D02*
X71620000Y-40180000D01*
X71620000Y-40180000D02*
X71620000Y-35940000D01*
X71620000Y-35940000D02*
X69380000Y-35940000D01*
X69380000Y-35940000D02*
X69380000Y-40180000D01*
X70500000Y-40830000D02*
X70500000Y-40180000D01*
X70500000Y-35290000D02*
X70500000Y-35940000D01*
X69380000Y-39460000D02*
X71620000Y-39460000D01*
X69380000Y-39340000D02*
X71620000Y-39340000D01*
X69380000Y-39580000D02*
X71620000Y-39580000D01*
G04 #@! TO.C,D4*
X71880000Y-39580000D02*
X74120000Y-39580000D01*
X71880000Y-39340000D02*
X74120000Y-39340000D01*
X71880000Y-39460000D02*
X74120000Y-39460000D01*
X73000000Y-35290000D02*
X73000000Y-35940000D01*
X73000000Y-40830000D02*
X73000000Y-40180000D01*
X71880000Y-35940000D02*
X71880000Y-40180000D01*
X74120000Y-35940000D02*
X71880000Y-35940000D01*
X74120000Y-40180000D02*
X74120000Y-35940000D01*
X71880000Y-40180000D02*
X74120000Y-40180000D01*
G04 #@! TO.C,D5*
X74380000Y-40180000D02*
X76620000Y-40180000D01*
X76620000Y-40180000D02*
X76620000Y-35940000D01*
X76620000Y-35940000D02*
X74380000Y-35940000D01*
X74380000Y-35940000D02*
X74380000Y-40180000D01*
X75500000Y-40830000D02*
X75500000Y-40180000D01*
X75500000Y-35290000D02*
X75500000Y-35940000D01*
X74380000Y-39460000D02*
X76620000Y-39460000D01*
X74380000Y-39340000D02*
X76620000Y-39340000D01*
X74380000Y-39580000D02*
X76620000Y-39580000D01*
G04 #@! TO.C,D6*
X67307665Y-76078608D02*
G75*
G03X70540000Y-76235516I1672335J1078608D01*
G01*
X67307665Y-73921392D02*
G75*
G02X70540000Y-73764484I1672335J-1078608D01*
G01*
X67938870Y-76079837D02*
G75*
G03X70020961Y-76080000I1041130J1079837D01*
G01*
X67938870Y-73920163D02*
G75*
G02X70020961Y-73920000I1041130J-1079837D01*
G01*
X70540000Y-76236000D02*
X70540000Y-76080000D01*
X70540000Y-73920000D02*
X70540000Y-73764000D01*
G04 #@! TO.C,D7*
X61307665Y-63078608D02*
G75*
G03X64540000Y-63235516I1672335J1078608D01*
G01*
X61307665Y-60921392D02*
G75*
G02X64540000Y-60764484I1672335J-1078608D01*
G01*
X61938870Y-63079837D02*
G75*
G03X64020961Y-63080000I1041130J1079837D01*
G01*
X61938870Y-60920163D02*
G75*
G02X64020961Y-60920000I1041130J-1079837D01*
G01*
X64540000Y-63236000D02*
X64540000Y-63080000D01*
X64540000Y-60920000D02*
X64540000Y-60764000D01*
G04 #@! TO.C,Q1*
X37838478Y-48181522D02*
G75*
G03X33400000Y-50020000I-1838478J-1838478D01*
G01*
X37838478Y-51858478D02*
G75*
G02X33400000Y-50020000I-1838478J1838478D01*
G01*
X37850000Y-51820000D02*
X37850000Y-48220000D01*
G04 #@! TO.C,Q2*
X47850000Y-96030000D02*
X47850000Y-92430000D01*
X47838478Y-96068478D02*
G75*
G02X43400000Y-94230000I-1838478J1838478D01*
G01*
X47838478Y-92391522D02*
G75*
G03X43400000Y-94230000I-1838478J-1838478D01*
G01*
G04 #@! TO.C,Q3*
X55030000Y-46650000D02*
X51430000Y-46650000D01*
X55068478Y-46661522D02*
G75*
G02X53230000Y-51100000I-1838478J-1838478D01*
G01*
X51391522Y-46661522D02*
G75*
G03X53230000Y-51100000I1838478J-1838478D01*
G01*
G04 #@! TO.C,Q4*
X55068478Y-57338478D02*
G75*
G03X53230000Y-52900000I-1838478J1838478D01*
G01*
X51391522Y-57338478D02*
G75*
G02X53230000Y-52900000I1838478J1838478D01*
G01*
X51430000Y-57350000D02*
X55030000Y-57350000D01*
G04 #@! TO.C,R1*
X9460000Y-13540000D02*
X9460000Y-13870000D01*
X9460000Y-13870000D02*
X2920000Y-13870000D01*
X2920000Y-13870000D02*
X2920000Y-13540000D01*
X9460000Y-11460000D02*
X9460000Y-11130000D01*
X9460000Y-11130000D02*
X2920000Y-11130000D01*
X2920000Y-11130000D02*
X2920000Y-11460000D01*
G04 #@! TO.C,R2*
X18130000Y-9580000D02*
X18460000Y-9580000D01*
X18130000Y-3040000D02*
X18130000Y-9580000D01*
X18460000Y-3040000D02*
X18130000Y-3040000D01*
X20870000Y-9580000D02*
X20540000Y-9580000D01*
X20870000Y-3040000D02*
X20870000Y-9580000D01*
X20540000Y-3040000D02*
X20870000Y-3040000D01*
G04 #@! TO.C,R3*
X9460000Y-17870000D02*
X9460000Y-17540000D01*
X2920000Y-17870000D02*
X9460000Y-17870000D01*
X2920000Y-17540000D02*
X2920000Y-17870000D01*
X9460000Y-15130000D02*
X9460000Y-15460000D01*
X2920000Y-15130000D02*
X9460000Y-15130000D01*
X2920000Y-15460000D02*
X2920000Y-15130000D01*
G04 #@! TO.C,R4*
X24870000Y-2920000D02*
X24540000Y-2920000D01*
X24870000Y-9460000D02*
X24870000Y-2920000D01*
X24540000Y-9460000D02*
X24870000Y-9460000D01*
X22130000Y-2920000D02*
X22460000Y-2920000D01*
X22130000Y-9460000D02*
X22130000Y-2920000D01*
X22460000Y-9460000D02*
X22130000Y-9460000D01*
G04 #@! TO.C,R5*
X18040000Y-99290000D02*
X18370000Y-99290000D01*
X18370000Y-99290000D02*
X18370000Y-105830000D01*
X18370000Y-105830000D02*
X18040000Y-105830000D01*
X15960000Y-99290000D02*
X15630000Y-99290000D01*
X15630000Y-99290000D02*
X15630000Y-105830000D01*
X15630000Y-105830000D02*
X15960000Y-105830000D01*
G04 #@! TO.C,R6*
X65960000Y-57870000D02*
X65960000Y-57540000D01*
X59420000Y-57870000D02*
X65960000Y-57870000D01*
X59420000Y-57540000D02*
X59420000Y-57870000D01*
X65960000Y-55130000D02*
X65960000Y-55460000D01*
X59420000Y-55130000D02*
X65960000Y-55130000D01*
X59420000Y-55460000D02*
X59420000Y-55130000D01*
G04 #@! TO.C,R7*
X11080000Y-78370000D02*
X11080000Y-78040000D01*
X4540000Y-78370000D02*
X11080000Y-78370000D01*
X4540000Y-78040000D02*
X4540000Y-78370000D01*
X11080000Y-75630000D02*
X11080000Y-75960000D01*
X4540000Y-75630000D02*
X11080000Y-75630000D01*
X4540000Y-75960000D02*
X4540000Y-75630000D01*
G04 #@! TO.C,R8*
X59460000Y-9040000D02*
X59460000Y-9370000D01*
X59460000Y-9370000D02*
X52920000Y-9370000D01*
X52920000Y-9370000D02*
X52920000Y-9040000D01*
X59460000Y-6960000D02*
X59460000Y-6630000D01*
X59460000Y-6630000D02*
X52920000Y-6630000D01*
X52920000Y-6630000D02*
X52920000Y-6960000D01*
G04 #@! TO.C,R9*
X21370000Y-56040000D02*
X21040000Y-56040000D01*
X21370000Y-62580000D02*
X21370000Y-56040000D01*
X21040000Y-62580000D02*
X21370000Y-62580000D01*
X18630000Y-56040000D02*
X18960000Y-56040000D01*
X18630000Y-62580000D02*
X18630000Y-56040000D01*
X18960000Y-62580000D02*
X18630000Y-62580000D01*
G04 #@! TO.C,R10*
X21040000Y-66540000D02*
X21370000Y-66540000D01*
X21370000Y-66540000D02*
X21370000Y-73080000D01*
X21370000Y-73080000D02*
X21040000Y-73080000D01*
X18960000Y-66540000D02*
X18630000Y-66540000D01*
X18630000Y-66540000D02*
X18630000Y-73080000D01*
X18630000Y-73080000D02*
X18960000Y-73080000D01*
G04 #@! TO.C,R11*
X17370000Y-56040000D02*
X17040000Y-56040000D01*
X17370000Y-62580000D02*
X17370000Y-56040000D01*
X17040000Y-62580000D02*
X17370000Y-62580000D01*
X14630000Y-56040000D02*
X14960000Y-56040000D01*
X14630000Y-62580000D02*
X14630000Y-56040000D01*
X14960000Y-62580000D02*
X14630000Y-62580000D01*
G04 #@! TO.C,R12*
X45130000Y-105830000D02*
X45460000Y-105830000D01*
X45130000Y-99290000D02*
X45130000Y-105830000D01*
X45460000Y-99290000D02*
X45130000Y-99290000D01*
X47870000Y-105830000D02*
X47540000Y-105830000D01*
X47870000Y-99290000D02*
X47870000Y-105830000D01*
X47540000Y-99290000D02*
X47870000Y-99290000D01*
G04 #@! TO.C,R13*
X52670000Y-27630000D02*
X52670000Y-27960000D01*
X59210000Y-27630000D02*
X52670000Y-27630000D01*
X59210000Y-27960000D02*
X59210000Y-27630000D01*
X52670000Y-30370000D02*
X52670000Y-30040000D01*
X59210000Y-30370000D02*
X52670000Y-30370000D01*
X59210000Y-30040000D02*
X59210000Y-30370000D01*
G04 #@! TO.C,R14*
X25040000Y-55920000D02*
X25370000Y-55920000D01*
X25370000Y-55920000D02*
X25370000Y-62460000D01*
X25370000Y-62460000D02*
X25040000Y-62460000D01*
X22960000Y-55920000D02*
X22630000Y-55920000D01*
X22630000Y-55920000D02*
X22630000Y-62460000D01*
X22630000Y-62460000D02*
X22960000Y-62460000D01*
G04 #@! TO.C,R15*
X76290000Y-54420000D02*
X76620000Y-54420000D01*
X76620000Y-54420000D02*
X76620000Y-60960000D01*
X76620000Y-60960000D02*
X76290000Y-60960000D01*
X74210000Y-54420000D02*
X73880000Y-54420000D01*
X73880000Y-54420000D02*
X73880000Y-60960000D01*
X73880000Y-60960000D02*
X74210000Y-60960000D01*
G04 #@! TO.C,R16*
X33870000Y-99290000D02*
X33540000Y-99290000D01*
X33870000Y-105830000D02*
X33870000Y-99290000D01*
X33540000Y-105830000D02*
X33870000Y-105830000D01*
X31130000Y-99290000D02*
X31460000Y-99290000D01*
X31130000Y-105830000D02*
X31130000Y-99290000D01*
X31460000Y-105830000D02*
X31130000Y-105830000D01*
G04 #@! TO.C,R17*
X25040000Y-66540000D02*
X25370000Y-66540000D01*
X25370000Y-66540000D02*
X25370000Y-73080000D01*
X25370000Y-73080000D02*
X25040000Y-73080000D01*
X22960000Y-66540000D02*
X22630000Y-66540000D01*
X22630000Y-66540000D02*
X22630000Y-73080000D01*
X22630000Y-73080000D02*
X22960000Y-73080000D01*
G04 #@! TO.C,R18*
X35460000Y-96870000D02*
X35460000Y-96540000D01*
X28920000Y-96870000D02*
X35460000Y-96870000D01*
X28920000Y-96540000D02*
X28920000Y-96870000D01*
X35460000Y-94130000D02*
X35460000Y-94460000D01*
X28920000Y-94130000D02*
X35460000Y-94130000D01*
X28920000Y-94460000D02*
X28920000Y-94130000D01*
G04 #@! TO.C,R19*
X60960000Y-105460000D02*
X60630000Y-105460000D01*
X60630000Y-105460000D02*
X60630000Y-98920000D01*
X60630000Y-98920000D02*
X60960000Y-98920000D01*
X63040000Y-105460000D02*
X63370000Y-105460000D01*
X63370000Y-105460000D02*
X63370000Y-98920000D01*
X63370000Y-98920000D02*
X63040000Y-98920000D01*
G04 #@! TO.C,R20*
X42960000Y-74370000D02*
X42960000Y-74040000D01*
X36420000Y-74370000D02*
X42960000Y-74370000D01*
X36420000Y-74040000D02*
X36420000Y-74370000D01*
X42960000Y-71630000D02*
X42960000Y-71960000D01*
X36420000Y-71630000D02*
X42960000Y-71630000D01*
X36420000Y-71960000D02*
X36420000Y-71630000D01*
G04 #@! TO.C,R21*
X74210000Y-72080000D02*
X73880000Y-72080000D01*
X73880000Y-72080000D02*
X73880000Y-65540000D01*
X73880000Y-65540000D02*
X74210000Y-65540000D01*
X76290000Y-72080000D02*
X76620000Y-72080000D01*
X76620000Y-72080000D02*
X76620000Y-65540000D01*
X76620000Y-65540000D02*
X76290000Y-65540000D01*
G04 #@! TO.C,R22*
X42960000Y-78040000D02*
X42960000Y-78370000D01*
X42960000Y-78370000D02*
X36420000Y-78370000D01*
X36420000Y-78370000D02*
X36420000Y-78040000D01*
X42960000Y-75960000D02*
X42960000Y-75630000D01*
X42960000Y-75630000D02*
X36420000Y-75630000D01*
X36420000Y-75630000D02*
X36420000Y-75960000D01*
G04 #@! TO.C,R25*
X40420000Y-47630000D02*
X40420000Y-47960000D01*
X46960000Y-47630000D02*
X40420000Y-47630000D01*
X46960000Y-47960000D02*
X46960000Y-47630000D01*
X40420000Y-50370000D02*
X40420000Y-50040000D01*
X46960000Y-50370000D02*
X40420000Y-50370000D01*
X46960000Y-50040000D02*
X46960000Y-50370000D01*
G04 #@! TO.C,R26*
X70130000Y-60960000D02*
X70460000Y-60960000D01*
X70130000Y-54420000D02*
X70130000Y-60960000D01*
X70460000Y-54420000D02*
X70130000Y-54420000D01*
X72870000Y-60960000D02*
X72540000Y-60960000D01*
X72870000Y-54420000D02*
X72870000Y-60960000D01*
X72540000Y-54420000D02*
X72870000Y-54420000D01*
G04 #@! TO.C,R27*
X18040000Y-82920000D02*
X18370000Y-82920000D01*
X18370000Y-82920000D02*
X18370000Y-89460000D01*
X18370000Y-89460000D02*
X18040000Y-89460000D01*
X15960000Y-82920000D02*
X15630000Y-82920000D01*
X15630000Y-82920000D02*
X15630000Y-89460000D01*
X15630000Y-89460000D02*
X15960000Y-89460000D01*
G04 #@! TO.C,R30*
X33040000Y-76420000D02*
X33370000Y-76420000D01*
X33370000Y-76420000D02*
X33370000Y-82960000D01*
X33370000Y-82960000D02*
X33040000Y-82960000D01*
X30960000Y-76420000D02*
X30630000Y-76420000D01*
X30630000Y-76420000D02*
X30630000Y-82960000D01*
X30630000Y-82960000D02*
X30960000Y-82960000D01*
G04 #@! TO.C,R31*
X64370000Y-68040000D02*
X64040000Y-68040000D01*
X64370000Y-74580000D02*
X64370000Y-68040000D01*
X64040000Y-74580000D02*
X64370000Y-74580000D01*
X61630000Y-68040000D02*
X61960000Y-68040000D01*
X61630000Y-74580000D02*
X61630000Y-68040000D01*
X61960000Y-74580000D02*
X61630000Y-74580000D01*
G04 #@! TO.C,R32*
X70080000Y-30040000D02*
X70080000Y-30370000D01*
X70080000Y-30370000D02*
X63540000Y-30370000D01*
X63540000Y-30370000D02*
X63540000Y-30040000D01*
X70080000Y-27960000D02*
X70080000Y-27630000D01*
X70080000Y-27630000D02*
X63540000Y-27630000D01*
X63540000Y-27630000D02*
X63540000Y-27960000D01*
G04 #@! TO.C,R33*
X70080000Y-26370000D02*
X70080000Y-26040000D01*
X63540000Y-26370000D02*
X70080000Y-26370000D01*
X63540000Y-26040000D02*
X63540000Y-26370000D01*
X70080000Y-23630000D02*
X70080000Y-23960000D01*
X63540000Y-23630000D02*
X70080000Y-23630000D01*
X63540000Y-23960000D02*
X63540000Y-23630000D01*
G04 #@! TO.C,R34*
X70080000Y-22040000D02*
X70080000Y-22370000D01*
X70080000Y-22370000D02*
X63540000Y-22370000D01*
X63540000Y-22370000D02*
X63540000Y-22040000D01*
X70080000Y-19960000D02*
X70080000Y-19630000D01*
X70080000Y-19630000D02*
X63540000Y-19630000D01*
X63540000Y-19630000D02*
X63540000Y-19960000D01*
G04 #@! TO.C,R35*
X63540000Y-2960000D02*
X63540000Y-2630000D01*
X63540000Y-2630000D02*
X70080000Y-2630000D01*
X70080000Y-2630000D02*
X70080000Y-2960000D01*
X63540000Y-5040000D02*
X63540000Y-5370000D01*
X63540000Y-5370000D02*
X70080000Y-5370000D01*
X70080000Y-5370000D02*
X70080000Y-5040000D01*
G04 #@! TO.C,R36*
X46960000Y-54540000D02*
X46960000Y-54870000D01*
X46960000Y-54870000D02*
X40420000Y-54870000D01*
X40420000Y-54870000D02*
X40420000Y-54540000D01*
X46960000Y-52460000D02*
X46960000Y-52130000D01*
X46960000Y-52130000D02*
X40420000Y-52130000D01*
X40420000Y-52130000D02*
X40420000Y-52460000D01*
G04 #@! TO.C,R37*
X52920000Y-2960000D02*
X52920000Y-2630000D01*
X52920000Y-2630000D02*
X59460000Y-2630000D01*
X59460000Y-2630000D02*
X59460000Y-2960000D01*
X52920000Y-5040000D02*
X52920000Y-5370000D01*
X52920000Y-5370000D02*
X59460000Y-5370000D01*
X59460000Y-5370000D02*
X59460000Y-5040000D01*
G04 #@! TO.C,R38*
X73960000Y-28460000D02*
X73630000Y-28460000D01*
X73630000Y-28460000D02*
X73630000Y-21920000D01*
X73630000Y-21920000D02*
X73960000Y-21920000D01*
X76040000Y-28460000D02*
X76370000Y-28460000D01*
X76370000Y-28460000D02*
X76370000Y-21920000D01*
X76370000Y-21920000D02*
X76040000Y-21920000D01*
G04 #@! TO.C,R39*
X63540000Y-6960000D02*
X63540000Y-6630000D01*
X63540000Y-6630000D02*
X70080000Y-6630000D01*
X70080000Y-6630000D02*
X70080000Y-6960000D01*
X63540000Y-9040000D02*
X63540000Y-9370000D01*
X63540000Y-9370000D02*
X70080000Y-9370000D01*
X70080000Y-9370000D02*
X70080000Y-9040000D01*
G04 #@! TO.C,R40*
X17370000Y-66540000D02*
X17040000Y-66540000D01*
X17370000Y-73080000D02*
X17370000Y-66540000D01*
X17040000Y-73080000D02*
X17370000Y-73080000D01*
X14630000Y-66540000D02*
X14960000Y-66540000D01*
X14630000Y-73080000D02*
X14630000Y-66540000D01*
X14960000Y-73080000D02*
X14630000Y-73080000D01*
G04 #@! TO.C,R41*
X23460000Y-78040000D02*
X23460000Y-78370000D01*
X23460000Y-78370000D02*
X16920000Y-78370000D01*
X16920000Y-78370000D02*
X16920000Y-78040000D01*
X23460000Y-75960000D02*
X23460000Y-75630000D01*
X23460000Y-75630000D02*
X16920000Y-75630000D01*
X16920000Y-75630000D02*
X16920000Y-75960000D01*
G04 #@! TO.C,R42*
X5040000Y-31920000D02*
X5370000Y-31920000D01*
X5370000Y-31920000D02*
X5370000Y-38460000D01*
X5370000Y-38460000D02*
X5040000Y-38460000D01*
X2960000Y-31920000D02*
X2630000Y-31920000D01*
X2630000Y-31920000D02*
X2630000Y-38460000D01*
X2630000Y-38460000D02*
X2960000Y-38460000D01*
G04 #@! TO.C,U1*
X12950000Y-55610000D02*
X2670000Y-55610000D01*
X12950000Y-73630000D02*
X12950000Y-55610000D01*
X2670000Y-73630000D02*
X12950000Y-73630000D01*
X2670000Y-55610000D02*
X2670000Y-73630000D01*
X10460000Y-55670000D02*
X8810000Y-55670000D01*
X10460000Y-73570000D02*
X10460000Y-55670000D01*
X5160000Y-73570000D02*
X10460000Y-73570000D01*
X5160000Y-55670000D02*
X5160000Y-73570000D01*
X6810000Y-55670000D02*
X5160000Y-55670000D01*
X8810000Y-55670000D02*
G75*
G02X6810000Y-55670000I-1000000J0D01*
G01*
G04 #@! TO.C,U3*
X53690000Y-60430000D02*
G75*
G02X51690000Y-60430000I-1000000J0D01*
G01*
X51690000Y-60430000D02*
X50040000Y-60430000D01*
X50040000Y-60430000D02*
X50040000Y-78330000D01*
X50040000Y-78330000D02*
X55340000Y-78330000D01*
X55340000Y-78330000D02*
X55340000Y-60430000D01*
X55340000Y-60430000D02*
X53690000Y-60430000D01*
X47550000Y-60370000D02*
X47550000Y-78390000D01*
X47550000Y-78390000D02*
X57830000Y-78390000D01*
X57830000Y-78390000D02*
X57830000Y-60370000D01*
X57830000Y-60370000D02*
X47550000Y-60370000D01*
G04 #@! TO.C,U4*
X50810000Y-33670000D02*
G75*
G02X48810000Y-33670000I-1000000J0D01*
G01*
X48810000Y-33670000D02*
X47160000Y-33670000D01*
X47160000Y-33670000D02*
X47160000Y-43950000D01*
X47160000Y-43950000D02*
X52460000Y-43950000D01*
X52460000Y-43950000D02*
X52460000Y-33670000D01*
X52460000Y-33670000D02*
X50810000Y-33670000D01*
X44670000Y-33610000D02*
X44670000Y-44010000D01*
X44670000Y-44010000D02*
X54950000Y-44010000D01*
X54950000Y-44010000D02*
X54950000Y-33610000D01*
X54950000Y-33610000D02*
X44670000Y-33610000D01*
G04 #@! TO.C,R28*
X52670000Y-19960000D02*
X52670000Y-19630000D01*
X52670000Y-19630000D02*
X59210000Y-19630000D01*
X59210000Y-19630000D02*
X59210000Y-19960000D01*
X52670000Y-22040000D02*
X52670000Y-22370000D01*
X52670000Y-22370000D02*
X59210000Y-22370000D01*
X59210000Y-22370000D02*
X59210000Y-22040000D01*
G04 #@! TO.C,R29*
X52670000Y-23630000D02*
X52670000Y-23960000D01*
X59210000Y-23630000D02*
X52670000Y-23630000D01*
X59210000Y-23960000D02*
X59210000Y-23630000D01*
X52670000Y-26370000D02*
X52670000Y-26040000D01*
X59210000Y-26370000D02*
X52670000Y-26370000D01*
X59210000Y-26040000D02*
X59210000Y-26370000D01*
G04 #@! TO.C,F1*
D10*
X28706666Y-31188571D02*
X28373333Y-31188571D01*
X28373333Y-31712380D02*
X28373333Y-30712380D01*
X28849523Y-30712380D01*
X29754285Y-31712380D02*
X29182857Y-31712380D01*
X29468571Y-31712380D02*
X29468571Y-30712380D01*
X29373333Y-30855238D01*
X29278095Y-30950476D01*
X29182857Y-30998095D01*
G04 #@! TO.C,F2*
X38846666Y-31188571D02*
X38513333Y-31188571D01*
X38513333Y-31712380D02*
X38513333Y-30712380D01*
X38989523Y-30712380D01*
X39322857Y-30807619D02*
X39370476Y-30760000D01*
X39465714Y-30712380D01*
X39703809Y-30712380D01*
X39799047Y-30760000D01*
X39846666Y-30807619D01*
X39894285Y-30902857D01*
X39894285Y-30998095D01*
X39846666Y-31140952D01*
X39275238Y-31712380D01*
X39894285Y-31712380D01*
G04 #@! TO.C,J_IN1*
X13952380Y-103477190D02*
X14666666Y-103477190D01*
X14809523Y-103524809D01*
X14904761Y-103620047D01*
X14952380Y-103762904D01*
X14952380Y-103858142D01*
X15047619Y-103239095D02*
X15047619Y-102477190D01*
X14952380Y-102239095D02*
X13952380Y-102239095D01*
X14952380Y-101762904D02*
X13952380Y-101762904D01*
X14952380Y-101191476D01*
X13952380Y-101191476D01*
X14952380Y-100191476D02*
X14952380Y-100762904D01*
X14952380Y-100477190D02*
X13952380Y-100477190D01*
X14095238Y-100572428D01*
X14190476Y-100667666D01*
X14238095Y-100762904D01*
G04 #@! TO.C,J_OUT1*
X73702380Y-104142857D02*
X74416666Y-104142857D01*
X74559523Y-104190476D01*
X74654761Y-104285714D01*
X74702380Y-104428571D01*
X74702380Y-104523809D01*
X74797619Y-103904761D02*
X74797619Y-103142857D01*
X73702380Y-102714285D02*
X73702380Y-102523809D01*
X73750000Y-102428571D01*
X73845238Y-102333333D01*
X74035714Y-102285714D01*
X74369047Y-102285714D01*
X74559523Y-102333333D01*
X74654761Y-102428571D01*
X74702380Y-102523809D01*
X74702380Y-102714285D01*
X74654761Y-102809523D01*
X74559523Y-102904761D01*
X74369047Y-102952380D01*
X74035714Y-102952380D01*
X73845238Y-102904761D01*
X73750000Y-102809523D01*
X73702380Y-102714285D01*
X73702380Y-101857142D02*
X74511904Y-101857142D01*
X74607142Y-101809523D01*
X74654761Y-101761904D01*
X74702380Y-101666666D01*
X74702380Y-101476190D01*
X74654761Y-101380952D01*
X74607142Y-101333333D01*
X74511904Y-101285714D01*
X73702380Y-101285714D01*
X73702380Y-100952380D02*
X73702380Y-100380952D01*
X74702380Y-100666666D02*
X73702380Y-100666666D01*
X74702380Y-99523809D02*
X74702380Y-100095238D01*
X74702380Y-99809523D02*
X73702380Y-99809523D01*
X73845238Y-99904761D01*
X73940476Y-100000000D01*
X73988095Y-100095238D01*
G04 #@! TO.C,RV_FB1*
D16*
X59825000Y-42409200D02*
X59469400Y-41901200D01*
X59215400Y-42409200D02*
X59215400Y-41342400D01*
X59621800Y-41342400D01*
X59723400Y-41393200D01*
X59774200Y-41444000D01*
X59825000Y-41545600D01*
X59825000Y-41698000D01*
X59774200Y-41799600D01*
X59723400Y-41850400D01*
X59621800Y-41901200D01*
X59215400Y-41901200D01*
X60129800Y-41342400D02*
X60485400Y-42409200D01*
X60841000Y-41342400D01*
X60942600Y-42510800D02*
X61755400Y-42510800D01*
X62365000Y-41850400D02*
X62009400Y-41850400D01*
X62009400Y-42409200D02*
X62009400Y-41342400D01*
X62517400Y-41342400D01*
X63279400Y-41850400D02*
X63431800Y-41901200D01*
X63482600Y-41952000D01*
X63533400Y-42053600D01*
X63533400Y-42206000D01*
X63482600Y-42307600D01*
X63431800Y-42358400D01*
X63330200Y-42409200D01*
X62923800Y-42409200D01*
X62923800Y-41342400D01*
X63279400Y-41342400D01*
X63381000Y-41393200D01*
X63431800Y-41444000D01*
X63482600Y-41545600D01*
X63482600Y-41647200D01*
X63431800Y-41748800D01*
X63381000Y-41799600D01*
X63279400Y-41850400D01*
X62923800Y-41850400D01*
X64549400Y-42409200D02*
X63939800Y-42409200D01*
X64244600Y-42409200D02*
X64244600Y-41342400D01*
X64143000Y-41494800D01*
X64041400Y-41596400D01*
X63939800Y-41647200D01*
D17*
X61518333Y-48749523D02*
X60792619Y-48749523D01*
X61155476Y-48749523D02*
X61155476Y-47479523D01*
X61034523Y-47660952D01*
X60913571Y-47781904D01*
X60792619Y-47842380D01*
X62304523Y-47479523D02*
X62425476Y-47479523D01*
X62546428Y-47540000D01*
X62606904Y-47600476D01*
X62667380Y-47721428D01*
X62727857Y-47963333D01*
X62727857Y-48265714D01*
X62667380Y-48507619D01*
X62606904Y-48628571D01*
X62546428Y-48689047D01*
X62425476Y-48749523D01*
X62304523Y-48749523D01*
X62183571Y-48689047D01*
X62123095Y-48628571D01*
X62062619Y-48507619D01*
X62002142Y-48265714D01*
X62002142Y-47963333D01*
X62062619Y-47721428D01*
X62123095Y-47600476D01*
X62183571Y-47540000D01*
X62304523Y-47479523D01*
X63514047Y-47479523D02*
X63635000Y-47479523D01*
X63755952Y-47540000D01*
X63816428Y-47600476D01*
X63876904Y-47721428D01*
X63937380Y-47963333D01*
X63937380Y-48265714D01*
X63876904Y-48507619D01*
X63816428Y-48628571D01*
X63755952Y-48689047D01*
X63635000Y-48749523D01*
X63514047Y-48749523D01*
X63393095Y-48689047D01*
X63332619Y-48628571D01*
X63272142Y-48507619D01*
X63211666Y-48265714D01*
X63211666Y-47963333D01*
X63272142Y-47721428D01*
X63332619Y-47600476D01*
X63393095Y-47540000D01*
X63514047Y-47479523D01*
X64481666Y-48749523D02*
X64481666Y-47479523D01*
X65207380Y-48749523D02*
X64663095Y-48023809D01*
X65207380Y-47479523D02*
X64481666Y-48205238D01*
G04 #@! TO.C,SW1*
D10*
X36102761Y-41833333D02*
X36150380Y-41690476D01*
X36150380Y-41452380D01*
X36102761Y-41357142D01*
X36055142Y-41309523D01*
X35959904Y-41261904D01*
X35864666Y-41261904D01*
X35769428Y-41309523D01*
X35721809Y-41357142D01*
X35674190Y-41452380D01*
X35626571Y-41642857D01*
X35578952Y-41738095D01*
X35531333Y-41785714D01*
X35436095Y-41833333D01*
X35340857Y-41833333D01*
X35245619Y-41785714D01*
X35198000Y-41738095D01*
X35150380Y-41642857D01*
X35150380Y-41404761D01*
X35198000Y-41261904D01*
X35150380Y-40928571D02*
X36150380Y-40690476D01*
X35436095Y-40500000D01*
X36150380Y-40309523D01*
X35150380Y-40071428D01*
X36150380Y-39166666D02*
X36150380Y-39738095D01*
X36150380Y-39452380D02*
X35150380Y-39452380D01*
X35293238Y-39547619D01*
X35388476Y-39642857D01*
X35436095Y-39738095D01*
X39514047Y-44947952D02*
X39574523Y-44766523D01*
X39574523Y-44464142D01*
X39514047Y-44343190D01*
X39453571Y-44282714D01*
X39332619Y-44222238D01*
X39211666Y-44222238D01*
X39090714Y-44282714D01*
X39030238Y-44343190D01*
X38969761Y-44464142D01*
X38909285Y-44706047D01*
X38848809Y-44827000D01*
X38788333Y-44887476D01*
X38667380Y-44947952D01*
X38546428Y-44947952D01*
X38425476Y-44887476D01*
X38365000Y-44827000D01*
X38304523Y-44706047D01*
X38304523Y-44403666D01*
X38365000Y-44222238D01*
X38304523Y-43798904D02*
X39574523Y-43496523D01*
X38667380Y-43254619D01*
X39574523Y-43012714D01*
X38304523Y-42710333D01*
X39695476Y-42528904D02*
X39695476Y-41561285D01*
X39514047Y-41319380D02*
X39574523Y-41137952D01*
X39574523Y-40835571D01*
X39514047Y-40714619D01*
X39453571Y-40654142D01*
X39332619Y-40593666D01*
X39211666Y-40593666D01*
X39090714Y-40654142D01*
X39030238Y-40714619D01*
X38969761Y-40835571D01*
X38909285Y-41077476D01*
X38848809Y-41198428D01*
X38788333Y-41258904D01*
X38667380Y-41319380D01*
X38546428Y-41319380D01*
X38425476Y-41258904D01*
X38365000Y-41198428D01*
X38304523Y-41077476D01*
X38304523Y-40775095D01*
X38365000Y-40593666D01*
X39574523Y-40049380D02*
X38304523Y-40049380D01*
X38304523Y-39565571D01*
X38365000Y-39444619D01*
X38425476Y-39384142D01*
X38546428Y-39323666D01*
X38727857Y-39323666D01*
X38848809Y-39384142D01*
X38909285Y-39444619D01*
X38969761Y-39565571D01*
X38969761Y-40049380D01*
X39574523Y-38779380D02*
X38304523Y-38779380D01*
X38304523Y-38477000D01*
X38365000Y-38295571D01*
X38485952Y-38174619D01*
X38606904Y-38114142D01*
X38848809Y-38053666D01*
X39030238Y-38053666D01*
X39272142Y-38114142D01*
X39393095Y-38174619D01*
X39514047Y-38295571D01*
X39574523Y-38477000D01*
X39574523Y-38779380D01*
X38304523Y-37690809D02*
X38304523Y-36965095D01*
X39574523Y-37327952D02*
X38304523Y-37327952D01*
G04 #@! TO.C,RV_GAIN1*
D16*
X66180600Y-83358400D02*
X65825000Y-82850400D01*
X65571000Y-83358400D02*
X65571000Y-82291600D01*
X65977400Y-82291600D01*
X66079000Y-82342400D01*
X66129800Y-82393200D01*
X66180600Y-82494800D01*
X66180600Y-82647200D01*
X66129800Y-82748800D01*
X66079000Y-82799600D01*
X65977400Y-82850400D01*
X65571000Y-82850400D01*
X66485400Y-82291600D02*
X66841000Y-83358400D01*
X67196600Y-82291600D01*
X67298200Y-83460000D02*
X68111000Y-83460000D01*
X68923800Y-82342400D02*
X68822200Y-82291600D01*
X68669800Y-82291600D01*
X68517400Y-82342400D01*
X68415800Y-82444000D01*
X68365000Y-82545600D01*
X68314200Y-82748800D01*
X68314200Y-82901200D01*
X68365000Y-83104400D01*
X68415800Y-83206000D01*
X68517400Y-83307600D01*
X68669800Y-83358400D01*
X68771400Y-83358400D01*
X68923800Y-83307600D01*
X68974600Y-83256800D01*
X68974600Y-82901200D01*
X68771400Y-82901200D01*
X69381000Y-83053600D02*
X69889000Y-83053600D01*
X69279400Y-83358400D02*
X69635000Y-82291600D01*
X69990600Y-83358400D01*
X70346200Y-83358400D02*
X70346200Y-82291600D01*
X70854200Y-83358400D02*
X70854200Y-82291600D01*
X71463800Y-83358400D01*
X71463800Y-82291600D01*
X72530600Y-83358400D02*
X71921000Y-83358400D01*
X72225800Y-83358400D02*
X72225800Y-82291600D01*
X72124200Y-82444000D01*
X72022600Y-82545600D01*
X71921000Y-82596400D01*
D17*
X66248333Y-89386666D02*
X66853095Y-89386666D01*
X66127380Y-89749523D02*
X66550714Y-88479523D01*
X66974047Y-89749523D01*
X68002142Y-88479523D02*
X67397380Y-88479523D01*
X67336904Y-89084285D01*
X67397380Y-89023809D01*
X67518333Y-88963333D01*
X67820714Y-88963333D01*
X67941666Y-89023809D01*
X68002142Y-89084285D01*
X68062619Y-89205238D01*
X68062619Y-89507619D01*
X68002142Y-89628571D01*
X67941666Y-89689047D01*
X67820714Y-89749523D01*
X67518333Y-89749523D01*
X67397380Y-89689047D01*
X67336904Y-89628571D01*
X68848809Y-88479523D02*
X68969761Y-88479523D01*
X69090714Y-88540000D01*
X69151190Y-88600476D01*
X69211666Y-88721428D01*
X69272142Y-88963333D01*
X69272142Y-89265714D01*
X69211666Y-89507619D01*
X69151190Y-89628571D01*
X69090714Y-89689047D01*
X68969761Y-89749523D01*
X68848809Y-89749523D01*
X68727857Y-89689047D01*
X68667380Y-89628571D01*
X68606904Y-89507619D01*
X68546428Y-89265714D01*
X68546428Y-88963333D01*
X68606904Y-88721428D01*
X68667380Y-88600476D01*
X68727857Y-88540000D01*
X68848809Y-88479523D01*
X70058333Y-88479523D02*
X70179285Y-88479523D01*
X70300238Y-88540000D01*
X70360714Y-88600476D01*
X70421190Y-88721428D01*
X70481666Y-88963333D01*
X70481666Y-89265714D01*
X70421190Y-89507619D01*
X70360714Y-89628571D01*
X70300238Y-89689047D01*
X70179285Y-89749523D01*
X70058333Y-89749523D01*
X69937380Y-89689047D01*
X69876904Y-89628571D01*
X69816428Y-89507619D01*
X69755952Y-89265714D01*
X69755952Y-88963333D01*
X69816428Y-88721428D01*
X69876904Y-88600476D01*
X69937380Y-88540000D01*
X70058333Y-88479523D01*
X71025952Y-89749523D02*
X71025952Y-88479523D01*
X71751666Y-89749523D02*
X71207380Y-89023809D01*
X71751666Y-88479523D02*
X71025952Y-89205238D01*
G04 #@! TO.C,J_IN_DRV1*
D10*
X29702380Y-105539714D02*
X30416666Y-105539714D01*
X30559523Y-105587333D01*
X30654761Y-105682571D01*
X30702380Y-105825428D01*
X30702380Y-105920666D01*
X30797619Y-105301619D02*
X30797619Y-104539714D01*
X30702380Y-104301619D02*
X29702380Y-104301619D01*
X30702380Y-103825428D02*
X29702380Y-103825428D01*
X30702380Y-103254000D01*
X29702380Y-103254000D01*
X30797619Y-103015904D02*
X30797619Y-102254000D01*
X30702380Y-102015904D02*
X29702380Y-102015904D01*
X29702380Y-101777809D01*
X29750000Y-101634952D01*
X29845238Y-101539714D01*
X29940476Y-101492095D01*
X30130952Y-101444476D01*
X30273809Y-101444476D01*
X30464285Y-101492095D01*
X30559523Y-101539714D01*
X30654761Y-101634952D01*
X30702380Y-101777809D01*
X30702380Y-102015904D01*
X30702380Y-100444476D02*
X30226190Y-100777809D01*
X30702380Y-101015904D02*
X29702380Y-101015904D01*
X29702380Y-100634952D01*
X29750000Y-100539714D01*
X29797619Y-100492095D01*
X29892857Y-100444476D01*
X30035714Y-100444476D01*
X30130952Y-100492095D01*
X30178571Y-100539714D01*
X30226190Y-100634952D01*
X30226190Y-101015904D01*
X29702380Y-100158761D02*
X30702380Y-99825428D01*
X29702380Y-99492095D01*
X30702380Y-98634952D02*
X30702380Y-99206380D01*
X30702380Y-98920666D02*
X29702380Y-98920666D01*
X29845238Y-99015904D01*
X29940476Y-99111142D01*
X29988095Y-99206380D01*
G04 #@! TO.C,J_IN_FB1*
X57702380Y-104785714D02*
X58416666Y-104785714D01*
X58559523Y-104833333D01*
X58654761Y-104928571D01*
X58702380Y-105071428D01*
X58702380Y-105166666D01*
X58797619Y-104547619D02*
X58797619Y-103785714D01*
X58702380Y-103547619D02*
X57702380Y-103547619D01*
X58702380Y-103071428D02*
X57702380Y-103071428D01*
X58702380Y-102500000D01*
X57702380Y-102500000D01*
X58797619Y-102261904D02*
X58797619Y-101500000D01*
X58178571Y-100928571D02*
X58178571Y-101261904D01*
X58702380Y-101261904D02*
X57702380Y-101261904D01*
X57702380Y-100785714D01*
X58178571Y-100071428D02*
X58226190Y-99928571D01*
X58273809Y-99880952D01*
X58369047Y-99833333D01*
X58511904Y-99833333D01*
X58607142Y-99880952D01*
X58654761Y-99928571D01*
X58702380Y-100023809D01*
X58702380Y-100404761D01*
X57702380Y-100404761D01*
X57702380Y-100071428D01*
X57750000Y-99976190D01*
X57797619Y-99928571D01*
X57892857Y-99880952D01*
X57988095Y-99880952D01*
X58083333Y-99928571D01*
X58130952Y-99976190D01*
X58178571Y-100071428D01*
X58178571Y-100404761D01*
X58702380Y-98880952D02*
X58702380Y-99452380D01*
X58702380Y-99166666D02*
X57702380Y-99166666D01*
X57845238Y-99261904D01*
X57940476Y-99357142D01*
X57988095Y-99452380D01*
G04 #@! TO.C,RV_DRV1*
D16*
X12460000Y-42323499D02*
X12104400Y-41815499D01*
X11850400Y-42323499D02*
X11850400Y-41256699D01*
X12256800Y-41256699D01*
X12358400Y-41307499D01*
X12409200Y-41358299D01*
X12460000Y-41459899D01*
X12460000Y-41612299D01*
X12409200Y-41713899D01*
X12358400Y-41764699D01*
X12256800Y-41815499D01*
X11850400Y-41815499D01*
X12764800Y-41256699D02*
X13120400Y-42323499D01*
X13476000Y-41256699D01*
X13577600Y-42425099D02*
X14390400Y-42425099D01*
X14644400Y-42323499D02*
X14644400Y-41256699D01*
X14898400Y-41256699D01*
X15050800Y-41307499D01*
X15152400Y-41409099D01*
X15203200Y-41510699D01*
X15254000Y-41713899D01*
X15254000Y-41866299D01*
X15203200Y-42069499D01*
X15152400Y-42171099D01*
X15050800Y-42272699D01*
X14898400Y-42323499D01*
X14644400Y-42323499D01*
X16320800Y-42323499D02*
X15965200Y-41815499D01*
X15711200Y-42323499D02*
X15711200Y-41256699D01*
X16117600Y-41256699D01*
X16219200Y-41307499D01*
X16270000Y-41358299D01*
X16320800Y-41459899D01*
X16320800Y-41612299D01*
X16270000Y-41713899D01*
X16219200Y-41764699D01*
X16117600Y-41815499D01*
X15711200Y-41815499D01*
X16625600Y-41256699D02*
X16981200Y-42323499D01*
X17336800Y-41256699D01*
X18251200Y-42323499D02*
X17641600Y-42323499D01*
X17946400Y-42323499D02*
X17946400Y-41256699D01*
X17844800Y-41409099D01*
X17743200Y-41510699D01*
X17641600Y-41561499D01*
D17*
X13518333Y-48749523D02*
X12792619Y-48749523D01*
X13155476Y-48749523D02*
X13155476Y-47479523D01*
X13034523Y-47660952D01*
X12913571Y-47781904D01*
X12792619Y-47842380D01*
X14304523Y-47479523D02*
X14425476Y-47479523D01*
X14546428Y-47540000D01*
X14606904Y-47600476D01*
X14667380Y-47721428D01*
X14727857Y-47963333D01*
X14727857Y-48265714D01*
X14667380Y-48507619D01*
X14606904Y-48628571D01*
X14546428Y-48689047D01*
X14425476Y-48749523D01*
X14304523Y-48749523D01*
X14183571Y-48689047D01*
X14123095Y-48628571D01*
X14062619Y-48507619D01*
X14002142Y-48265714D01*
X14002142Y-47963333D01*
X14062619Y-47721428D01*
X14123095Y-47600476D01*
X14183571Y-47540000D01*
X14304523Y-47479523D01*
X15514047Y-47479523D02*
X15635000Y-47479523D01*
X15755952Y-47540000D01*
X15816428Y-47600476D01*
X15876904Y-47721428D01*
X15937380Y-47963333D01*
X15937380Y-48265714D01*
X15876904Y-48507619D01*
X15816428Y-48628571D01*
X15755952Y-48689047D01*
X15635000Y-48749523D01*
X15514047Y-48749523D01*
X15393095Y-48689047D01*
X15332619Y-48628571D01*
X15272142Y-48507619D01*
X15211666Y-48265714D01*
X15211666Y-47963333D01*
X15272142Y-47721428D01*
X15332619Y-47600476D01*
X15393095Y-47540000D01*
X15514047Y-47479523D01*
X16481666Y-48749523D02*
X16481666Y-47479523D01*
X17207380Y-48749523D02*
X16663095Y-48023809D01*
X17207380Y-47479523D02*
X16481666Y-48205238D01*
G04 #@! TO.C,RV_DRV_CV1*
D16*
X21063000Y-83358400D02*
X20707400Y-82850400D01*
X20453400Y-83358400D02*
X20453400Y-82291600D01*
X20859800Y-82291600D01*
X20961400Y-82342400D01*
X21012200Y-82393200D01*
X21063000Y-82494800D01*
X21063000Y-82647200D01*
X21012200Y-82748800D01*
X20961400Y-82799600D01*
X20859800Y-82850400D01*
X20453400Y-82850400D01*
X21367800Y-82291600D02*
X21723400Y-83358400D01*
X22079000Y-82291600D01*
X22180600Y-83460000D02*
X22993400Y-83460000D01*
X23247400Y-83358400D02*
X23247400Y-82291600D01*
X23501400Y-82291600D01*
X23653800Y-82342400D01*
X23755400Y-82444000D01*
X23806200Y-82545600D01*
X23857000Y-82748800D01*
X23857000Y-82901200D01*
X23806200Y-83104400D01*
X23755400Y-83206000D01*
X23653800Y-83307600D01*
X23501400Y-83358400D01*
X23247400Y-83358400D01*
X24923800Y-83358400D02*
X24568200Y-82850400D01*
X24314200Y-83358400D02*
X24314200Y-82291600D01*
X24720600Y-82291600D01*
X24822200Y-82342400D01*
X24873000Y-82393200D01*
X24923800Y-82494800D01*
X24923800Y-82647200D01*
X24873000Y-82748800D01*
X24822200Y-82799600D01*
X24720600Y-82850400D01*
X24314200Y-82850400D01*
X25228600Y-82291600D02*
X25584200Y-83358400D01*
X25939800Y-82291600D01*
X26041400Y-83460000D02*
X26854200Y-83460000D01*
X27717800Y-83256800D02*
X27667000Y-83307600D01*
X27514600Y-83358400D01*
X27413000Y-83358400D01*
X27260600Y-83307600D01*
X27159000Y-83206000D01*
X27108200Y-83104400D01*
X27057400Y-82901200D01*
X27057400Y-82748800D01*
X27108200Y-82545600D01*
X27159000Y-82444000D01*
X27260600Y-82342400D01*
X27413000Y-82291600D01*
X27514600Y-82291600D01*
X27667000Y-82342400D01*
X27717800Y-82393200D01*
X28022600Y-82291600D02*
X28378200Y-83358400D01*
X28733800Y-82291600D01*
X29648200Y-83358400D02*
X29038600Y-83358400D01*
X29343400Y-83358400D02*
X29343400Y-82291600D01*
X29241800Y-82444000D01*
X29140200Y-82545600D01*
X29038600Y-82596400D01*
D17*
X23518333Y-89749523D02*
X22792619Y-89749523D01*
X23155476Y-89749523D02*
X23155476Y-88479523D01*
X23034523Y-88660952D01*
X22913571Y-88781904D01*
X22792619Y-88842380D01*
X24304523Y-88479523D02*
X24425476Y-88479523D01*
X24546428Y-88540000D01*
X24606904Y-88600476D01*
X24667380Y-88721428D01*
X24727857Y-88963333D01*
X24727857Y-89265714D01*
X24667380Y-89507619D01*
X24606904Y-89628571D01*
X24546428Y-89689047D01*
X24425476Y-89749523D01*
X24304523Y-89749523D01*
X24183571Y-89689047D01*
X24123095Y-89628571D01*
X24062619Y-89507619D01*
X24002142Y-89265714D01*
X24002142Y-88963333D01*
X24062619Y-88721428D01*
X24123095Y-88600476D01*
X24183571Y-88540000D01*
X24304523Y-88479523D01*
X25514047Y-88479523D02*
X25635000Y-88479523D01*
X25755952Y-88540000D01*
X25816428Y-88600476D01*
X25876904Y-88721428D01*
X25937380Y-88963333D01*
X25937380Y-89265714D01*
X25876904Y-89507619D01*
X25816428Y-89628571D01*
X25755952Y-89689047D01*
X25635000Y-89749523D01*
X25514047Y-89749523D01*
X25393095Y-89689047D01*
X25332619Y-89628571D01*
X25272142Y-89507619D01*
X25211666Y-89265714D01*
X25211666Y-88963333D01*
X25272142Y-88721428D01*
X25332619Y-88600476D01*
X25393095Y-88540000D01*
X25514047Y-88479523D01*
X26481666Y-89749523D02*
X26481666Y-88479523D01*
X27207380Y-89749523D02*
X26663095Y-89023809D01*
X27207380Y-88479523D02*
X26481666Y-89205238D01*
G04 #@! TO.C,RV_FB_CV1*
D16*
X49596400Y-83358400D02*
X49240800Y-82850400D01*
X48986800Y-83358400D02*
X48986800Y-82291600D01*
X49393200Y-82291600D01*
X49494800Y-82342400D01*
X49545600Y-82393200D01*
X49596400Y-82494800D01*
X49596400Y-82647200D01*
X49545600Y-82748800D01*
X49494800Y-82799600D01*
X49393200Y-82850400D01*
X48986800Y-82850400D01*
X49901200Y-82291600D02*
X50256800Y-83358400D01*
X50612400Y-82291600D01*
X50714000Y-83460000D02*
X51526800Y-83460000D01*
X52136400Y-82799600D02*
X51780800Y-82799600D01*
X51780800Y-83358400D02*
X51780800Y-82291600D01*
X52288800Y-82291600D01*
X53050800Y-82799600D02*
X53203200Y-82850400D01*
X53254000Y-82901200D01*
X53304800Y-83002800D01*
X53304800Y-83155200D01*
X53254000Y-83256800D01*
X53203200Y-83307600D01*
X53101600Y-83358400D01*
X52695200Y-83358400D01*
X52695200Y-82291600D01*
X53050800Y-82291600D01*
X53152400Y-82342400D01*
X53203200Y-82393200D01*
X53254000Y-82494800D01*
X53254000Y-82596400D01*
X53203200Y-82698000D01*
X53152400Y-82748800D01*
X53050800Y-82799600D01*
X52695200Y-82799600D01*
X53508000Y-83460000D02*
X54320800Y-83460000D01*
X55184400Y-83256800D02*
X55133600Y-83307600D01*
X54981200Y-83358400D01*
X54879600Y-83358400D01*
X54727200Y-83307600D01*
X54625600Y-83206000D01*
X54574800Y-83104400D01*
X54524000Y-82901200D01*
X54524000Y-82748800D01*
X54574800Y-82545600D01*
X54625600Y-82444000D01*
X54727200Y-82342400D01*
X54879600Y-82291600D01*
X54981200Y-82291600D01*
X55133600Y-82342400D01*
X55184400Y-82393200D01*
X55489200Y-82291600D02*
X55844800Y-83358400D01*
X56200400Y-82291600D01*
X57114800Y-83358400D02*
X56505200Y-83358400D01*
X56810000Y-83358400D02*
X56810000Y-82291600D01*
X56708400Y-82444000D01*
X56606800Y-82545600D01*
X56505200Y-82596400D01*
D17*
X51518333Y-89749523D02*
X50792619Y-89749523D01*
X51155476Y-89749523D02*
X51155476Y-88479523D01*
X51034523Y-88660952D01*
X50913571Y-88781904D01*
X50792619Y-88842380D01*
X52304523Y-88479523D02*
X52425476Y-88479523D01*
X52546428Y-88540000D01*
X52606904Y-88600476D01*
X52667380Y-88721428D01*
X52727857Y-88963333D01*
X52727857Y-89265714D01*
X52667380Y-89507619D01*
X52606904Y-89628571D01*
X52546428Y-89689047D01*
X52425476Y-89749523D01*
X52304523Y-89749523D01*
X52183571Y-89689047D01*
X52123095Y-89628571D01*
X52062619Y-89507619D01*
X52002142Y-89265714D01*
X52002142Y-88963333D01*
X52062619Y-88721428D01*
X52123095Y-88600476D01*
X52183571Y-88540000D01*
X52304523Y-88479523D01*
X53514047Y-88479523D02*
X53635000Y-88479523D01*
X53755952Y-88540000D01*
X53816428Y-88600476D01*
X53876904Y-88721428D01*
X53937380Y-88963333D01*
X53937380Y-89265714D01*
X53876904Y-89507619D01*
X53816428Y-89628571D01*
X53755952Y-89689047D01*
X53635000Y-89749523D01*
X53514047Y-89749523D01*
X53393095Y-89689047D01*
X53332619Y-89628571D01*
X53272142Y-89507619D01*
X53211666Y-89265714D01*
X53211666Y-88963333D01*
X53272142Y-88721428D01*
X53332619Y-88600476D01*
X53393095Y-88540000D01*
X53514047Y-88479523D01*
X54481666Y-89749523D02*
X54481666Y-88479523D01*
X55207380Y-89749523D02*
X54663095Y-89023809D01*
X55207380Y-88479523D02*
X54481666Y-89205238D01*
G04 #@! TO.C,J_IN_TONE1*
D10*
X43702380Y-105738095D02*
X44416666Y-105738095D01*
X44559523Y-105785714D01*
X44654761Y-105880952D01*
X44702380Y-106023809D01*
X44702380Y-106119047D01*
X44797619Y-105500000D02*
X44797619Y-104738095D01*
X44702380Y-104500000D02*
X43702380Y-104500000D01*
X44702380Y-104023809D02*
X43702380Y-104023809D01*
X44702380Y-103452380D01*
X43702380Y-103452380D01*
X44797619Y-103214285D02*
X44797619Y-102452380D01*
X43702380Y-102357142D02*
X43702380Y-101785714D01*
X44702380Y-102071428D02*
X43702380Y-102071428D01*
X43702380Y-101261904D02*
X43702380Y-101071428D01*
X43750000Y-100976190D01*
X43845238Y-100880952D01*
X44035714Y-100833333D01*
X44369047Y-100833333D01*
X44559523Y-100880952D01*
X44654761Y-100976190D01*
X44702380Y-101071428D01*
X44702380Y-101261904D01*
X44654761Y-101357142D01*
X44559523Y-101452380D01*
X44369047Y-101500000D01*
X44035714Y-101500000D01*
X43845238Y-101452380D01*
X43750000Y-101357142D01*
X43702380Y-101261904D01*
X44702380Y-100404761D02*
X43702380Y-100404761D01*
X44702380Y-99833333D01*
X43702380Y-99833333D01*
X44178571Y-99357142D02*
X44178571Y-99023809D01*
X44702380Y-98880952D02*
X44702380Y-99357142D01*
X43702380Y-99357142D01*
X43702380Y-98880952D01*
X44702380Y-97928571D02*
X44702380Y-98500000D01*
X44702380Y-98214285D02*
X43702380Y-98214285D01*
X43845238Y-98309523D01*
X43940476Y-98404761D01*
X43988095Y-98500000D01*
G04 #@! TO.C,RV_IN1*
D16*
X7171200Y-83358400D02*
X6815600Y-82850400D01*
X6561600Y-83358400D02*
X6561600Y-82291600D01*
X6968000Y-82291600D01*
X7069600Y-82342400D01*
X7120400Y-82393200D01*
X7171200Y-82494800D01*
X7171200Y-82647200D01*
X7120400Y-82748800D01*
X7069600Y-82799600D01*
X6968000Y-82850400D01*
X6561600Y-82850400D01*
X7476000Y-82291600D02*
X7831600Y-83358400D01*
X8187200Y-82291600D01*
X8288800Y-83460000D02*
X9101600Y-83460000D01*
X9355600Y-83358400D02*
X9355600Y-82291600D01*
X9863600Y-83358400D02*
X9863600Y-82291600D01*
X10473200Y-83358400D01*
X10473200Y-82291600D01*
X11540000Y-83358400D02*
X10930400Y-83358400D01*
X11235200Y-83358400D02*
X11235200Y-82291600D01*
X11133600Y-82444000D01*
X11032000Y-82545600D01*
X10930400Y-82596400D01*
D17*
X7518333Y-89749523D02*
X6792619Y-89749523D01*
X7155476Y-89749523D02*
X7155476Y-88479523D01*
X7034523Y-88660952D01*
X6913571Y-88781904D01*
X6792619Y-88842380D01*
X8304523Y-88479523D02*
X8425476Y-88479523D01*
X8546428Y-88540000D01*
X8606904Y-88600476D01*
X8667380Y-88721428D01*
X8727857Y-88963333D01*
X8727857Y-89265714D01*
X8667380Y-89507619D01*
X8606904Y-89628571D01*
X8546428Y-89689047D01*
X8425476Y-89749523D01*
X8304523Y-89749523D01*
X8183571Y-89689047D01*
X8123095Y-89628571D01*
X8062619Y-89507619D01*
X8002142Y-89265714D01*
X8002142Y-88963333D01*
X8062619Y-88721428D01*
X8123095Y-88600476D01*
X8183571Y-88540000D01*
X8304523Y-88479523D01*
X9514047Y-88479523D02*
X9635000Y-88479523D01*
X9755952Y-88540000D01*
X9816428Y-88600476D01*
X9876904Y-88721428D01*
X9937380Y-88963333D01*
X9937380Y-89265714D01*
X9876904Y-89507619D01*
X9816428Y-89628571D01*
X9755952Y-89689047D01*
X9635000Y-89749523D01*
X9514047Y-89749523D01*
X9393095Y-89689047D01*
X9332619Y-89628571D01*
X9272142Y-89507619D01*
X9211666Y-89265714D01*
X9211666Y-88963333D01*
X9272142Y-88721428D01*
X9332619Y-88600476D01*
X9393095Y-88540000D01*
X9514047Y-88479523D01*
X10481666Y-89749523D02*
X10481666Y-88479523D01*
X11207380Y-89749523D02*
X10663095Y-89023809D01*
X11207380Y-88479523D02*
X10481666Y-89205238D01*
G04 #@! TO.C,RV_TONE1*
D16*
X35977400Y-59358400D02*
X35621800Y-58850400D01*
X35367800Y-59358400D02*
X35367800Y-58291600D01*
X35774200Y-58291600D01*
X35875800Y-58342400D01*
X35926600Y-58393200D01*
X35977400Y-58494800D01*
X35977400Y-58647200D01*
X35926600Y-58748800D01*
X35875800Y-58799600D01*
X35774200Y-58850400D01*
X35367800Y-58850400D01*
X36282200Y-58291600D02*
X36637800Y-59358400D01*
X36993400Y-58291600D01*
X37095000Y-59460000D02*
X37907800Y-59460000D01*
X38009400Y-58291600D02*
X38619000Y-58291600D01*
X38314200Y-59358400D02*
X38314200Y-58291600D01*
X39177800Y-58291600D02*
X39381000Y-58291600D01*
X39482600Y-58342400D01*
X39584200Y-58444000D01*
X39635000Y-58647200D01*
X39635000Y-59002800D01*
X39584200Y-59206000D01*
X39482600Y-59307600D01*
X39381000Y-59358400D01*
X39177800Y-59358400D01*
X39076200Y-59307600D01*
X38974600Y-59206000D01*
X38923800Y-59002800D01*
X38923800Y-58647200D01*
X38974600Y-58444000D01*
X39076200Y-58342400D01*
X39177800Y-58291600D01*
X40092200Y-59358400D02*
X40092200Y-58291600D01*
X40701800Y-59358400D01*
X40701800Y-58291600D01*
X41209800Y-58799600D02*
X41565400Y-58799600D01*
X41717800Y-59358400D02*
X41209800Y-59358400D01*
X41209800Y-58291600D01*
X41717800Y-58291600D01*
X42733800Y-59358400D02*
X42124200Y-59358400D01*
X42429000Y-59358400D02*
X42429000Y-58291600D01*
X42327400Y-58444000D01*
X42225800Y-58545600D01*
X42124200Y-58596400D01*
D17*
X37518333Y-65749523D02*
X36792619Y-65749523D01*
X37155476Y-65749523D02*
X37155476Y-64479523D01*
X37034523Y-64660952D01*
X36913571Y-64781904D01*
X36792619Y-64842380D01*
X38304523Y-64479523D02*
X38425476Y-64479523D01*
X38546428Y-64540000D01*
X38606904Y-64600476D01*
X38667380Y-64721428D01*
X38727857Y-64963333D01*
X38727857Y-65265714D01*
X38667380Y-65507619D01*
X38606904Y-65628571D01*
X38546428Y-65689047D01*
X38425476Y-65749523D01*
X38304523Y-65749523D01*
X38183571Y-65689047D01*
X38123095Y-65628571D01*
X38062619Y-65507619D01*
X38002142Y-65265714D01*
X38002142Y-64963333D01*
X38062619Y-64721428D01*
X38123095Y-64600476D01*
X38183571Y-64540000D01*
X38304523Y-64479523D01*
X39514047Y-64479523D02*
X39635000Y-64479523D01*
X39755952Y-64540000D01*
X39816428Y-64600476D01*
X39876904Y-64721428D01*
X39937380Y-64963333D01*
X39937380Y-65265714D01*
X39876904Y-65507619D01*
X39816428Y-65628571D01*
X39755952Y-65689047D01*
X39635000Y-65749523D01*
X39514047Y-65749523D01*
X39393095Y-65689047D01*
X39332619Y-65628571D01*
X39272142Y-65507619D01*
X39211666Y-65265714D01*
X39211666Y-64963333D01*
X39272142Y-64721428D01*
X39332619Y-64600476D01*
X39393095Y-64540000D01*
X39514047Y-64479523D01*
X40481666Y-65749523D02*
X40481666Y-64479523D01*
X41207380Y-65749523D02*
X40663095Y-65023809D01*
X41207380Y-64479523D02*
X40481666Y-65205238D01*
G04 #@! TO.C,RV_TONE_CV1*
D16*
X34580400Y-83358400D02*
X34224800Y-82850400D01*
X33970800Y-83358400D02*
X33970800Y-82291600D01*
X34377200Y-82291600D01*
X34478800Y-82342400D01*
X34529600Y-82393200D01*
X34580400Y-82494800D01*
X34580400Y-82647200D01*
X34529600Y-82748800D01*
X34478800Y-82799600D01*
X34377200Y-82850400D01*
X33970800Y-82850400D01*
X34885200Y-82291600D02*
X35240800Y-83358400D01*
X35596400Y-82291600D01*
X35698000Y-83460000D02*
X36510800Y-83460000D01*
X36612400Y-82291600D02*
X37222000Y-82291600D01*
X36917200Y-83358400D02*
X36917200Y-82291600D01*
X37780800Y-82291600D02*
X37984000Y-82291600D01*
X38085600Y-82342400D01*
X38187200Y-82444000D01*
X38238000Y-82647200D01*
X38238000Y-83002800D01*
X38187200Y-83206000D01*
X38085600Y-83307600D01*
X37984000Y-83358400D01*
X37780800Y-83358400D01*
X37679200Y-83307600D01*
X37577600Y-83206000D01*
X37526800Y-83002800D01*
X37526800Y-82647200D01*
X37577600Y-82444000D01*
X37679200Y-82342400D01*
X37780800Y-82291600D01*
X38695200Y-83358400D02*
X38695200Y-82291600D01*
X39304800Y-83358400D01*
X39304800Y-82291600D01*
X39812800Y-82799600D02*
X40168400Y-82799600D01*
X40320800Y-83358400D02*
X39812800Y-83358400D01*
X39812800Y-82291600D01*
X40320800Y-82291600D01*
X40524000Y-83460000D02*
X41336800Y-83460000D01*
X42200400Y-83256800D02*
X42149600Y-83307600D01*
X41997200Y-83358400D01*
X41895600Y-83358400D01*
X41743200Y-83307600D01*
X41641600Y-83206000D01*
X41590800Y-83104400D01*
X41540000Y-82901200D01*
X41540000Y-82748800D01*
X41590800Y-82545600D01*
X41641600Y-82444000D01*
X41743200Y-82342400D01*
X41895600Y-82291600D01*
X41997200Y-82291600D01*
X42149600Y-82342400D01*
X42200400Y-82393200D01*
X42505200Y-82291600D02*
X42860800Y-83358400D01*
X43216400Y-82291600D01*
X44130800Y-83358400D02*
X43521200Y-83358400D01*
X43826000Y-83358400D02*
X43826000Y-82291600D01*
X43724400Y-82444000D01*
X43622800Y-82545600D01*
X43521200Y-82596400D01*
D17*
X37518333Y-89749523D02*
X36792619Y-89749523D01*
X37155476Y-89749523D02*
X37155476Y-88479523D01*
X37034523Y-88660952D01*
X36913571Y-88781904D01*
X36792619Y-88842380D01*
X38304523Y-88479523D02*
X38425476Y-88479523D01*
X38546428Y-88540000D01*
X38606904Y-88600476D01*
X38667380Y-88721428D01*
X38727857Y-88963333D01*
X38727857Y-89265714D01*
X38667380Y-89507619D01*
X38606904Y-89628571D01*
X38546428Y-89689047D01*
X38425476Y-89749523D01*
X38304523Y-89749523D01*
X38183571Y-89689047D01*
X38123095Y-89628571D01*
X38062619Y-89507619D01*
X38002142Y-89265714D01*
X38002142Y-88963333D01*
X38062619Y-88721428D01*
X38123095Y-88600476D01*
X38183571Y-88540000D01*
X38304523Y-88479523D01*
X39514047Y-88479523D02*
X39635000Y-88479523D01*
X39755952Y-88540000D01*
X39816428Y-88600476D01*
X39876904Y-88721428D01*
X39937380Y-88963333D01*
X39937380Y-89265714D01*
X39876904Y-89507619D01*
X39816428Y-89628571D01*
X39755952Y-89689047D01*
X39635000Y-89749523D01*
X39514047Y-89749523D01*
X39393095Y-89689047D01*
X39332619Y-89628571D01*
X39272142Y-89507619D01*
X39211666Y-89265714D01*
X39211666Y-88963333D01*
X39272142Y-88721428D01*
X39332619Y-88600476D01*
X39393095Y-88540000D01*
X39514047Y-88479523D01*
X40481666Y-89749523D02*
X40481666Y-88479523D01*
X41207380Y-89749523D02*
X40663095Y-89023809D01*
X41207380Y-88479523D02*
X40481666Y-89205238D01*
G04 #@! TO.C,C1*
D10*
X6333333Y-3607142D02*
X6285714Y-3654761D01*
X6142857Y-3702380D01*
X6047619Y-3702380D01*
X5904761Y-3654761D01*
X5809523Y-3559523D01*
X5761904Y-3464285D01*
X5714285Y-3273809D01*
X5714285Y-3130952D01*
X5761904Y-2940476D01*
X5809523Y-2845238D01*
X5904761Y-2750000D01*
X6047619Y-2702380D01*
X6142857Y-2702380D01*
X6285714Y-2750000D01*
X6333333Y-2797619D01*
X7285714Y-3702380D02*
X6714285Y-3702380D01*
X7000000Y-3702380D02*
X7000000Y-2702380D01*
X6904761Y-2845238D01*
X6809523Y-2940476D01*
X6714285Y-2988095D01*
G04 #@! TO.C,C2*
X6333333Y-7857142D02*
X6285714Y-7904761D01*
X6142857Y-7952380D01*
X6047619Y-7952380D01*
X5904761Y-7904761D01*
X5809523Y-7809523D01*
X5761904Y-7714285D01*
X5714285Y-7523809D01*
X5714285Y-7380952D01*
X5761904Y-7190476D01*
X5809523Y-7095238D01*
X5904761Y-7000000D01*
X6047619Y-6952380D01*
X6142857Y-6952380D01*
X6285714Y-7000000D01*
X6333333Y-7047619D01*
X6714285Y-7047619D02*
X6761904Y-7000000D01*
X6857142Y-6952380D01*
X7095238Y-6952380D01*
X7190476Y-7000000D01*
X7238095Y-7047619D01*
X7285714Y-7142857D01*
X7285714Y-7238095D01*
X7238095Y-7380952D01*
X6666666Y-7952380D01*
X7285714Y-7952380D01*
G04 #@! TO.C,C5*
X75357142Y-15666666D02*
X75404761Y-15714285D01*
X75452380Y-15857142D01*
X75452380Y-15952380D01*
X75404761Y-16095238D01*
X75309523Y-16190476D01*
X75214285Y-16238095D01*
X75023809Y-16285714D01*
X74880952Y-16285714D01*
X74690476Y-16238095D01*
X74595238Y-16190476D01*
X74500000Y-16095238D01*
X74452380Y-15952380D01*
X74452380Y-15857142D01*
X74500000Y-15714285D01*
X74547619Y-15666666D01*
X74452380Y-14761904D02*
X74452380Y-15238095D01*
X74928571Y-15285714D01*
X74880952Y-15238095D01*
X74833333Y-15142857D01*
X74833333Y-14904761D01*
X74880952Y-14809523D01*
X74928571Y-14761904D01*
X75023809Y-14714285D01*
X75261904Y-14714285D01*
X75357142Y-14761904D01*
X75404761Y-14809523D01*
X75452380Y-14904761D01*
X75452380Y-15142857D01*
X75404761Y-15238095D01*
X75357142Y-15285714D01*
G04 #@! TO.C,C6*
X75357142Y-6666666D02*
X75404761Y-6714285D01*
X75452380Y-6857142D01*
X75452380Y-6952380D01*
X75404761Y-7095238D01*
X75309523Y-7190476D01*
X75214285Y-7238095D01*
X75023809Y-7285714D01*
X74880952Y-7285714D01*
X74690476Y-7238095D01*
X74595238Y-7190476D01*
X74500000Y-7095238D01*
X74452380Y-6952380D01*
X74452380Y-6857142D01*
X74500000Y-6714285D01*
X74547619Y-6666666D01*
X74452380Y-5809523D02*
X74452380Y-6000000D01*
X74500000Y-6095238D01*
X74547619Y-6142857D01*
X74690476Y-6238095D01*
X74880952Y-6285714D01*
X75261904Y-6285714D01*
X75357142Y-6238095D01*
X75404761Y-6190476D01*
X75452380Y-6095238D01*
X75452380Y-5904761D01*
X75404761Y-5809523D01*
X75357142Y-5761904D01*
X75261904Y-5714285D01*
X75023809Y-5714285D01*
X74928571Y-5761904D01*
X74880952Y-5809523D01*
X74833333Y-5904761D01*
X74833333Y-6095238D01*
X74880952Y-6190476D01*
X74928571Y-6238095D01*
X75023809Y-6285714D01*
G04 #@! TO.C,C8*
X4357142Y-45416666D02*
X4404761Y-45464285D01*
X4452380Y-45607142D01*
X4452380Y-45702380D01*
X4404761Y-45845238D01*
X4309523Y-45940476D01*
X4214285Y-45988095D01*
X4023809Y-46035714D01*
X3880952Y-46035714D01*
X3690476Y-45988095D01*
X3595238Y-45940476D01*
X3500000Y-45845238D01*
X3452380Y-45702380D01*
X3452380Y-45607142D01*
X3500000Y-45464285D01*
X3547619Y-45416666D01*
X3880952Y-44845238D02*
X3833333Y-44940476D01*
X3785714Y-44988095D01*
X3690476Y-45035714D01*
X3642857Y-45035714D01*
X3547619Y-44988095D01*
X3500000Y-44940476D01*
X3452380Y-44845238D01*
X3452380Y-44654761D01*
X3500000Y-44559523D01*
X3547619Y-44511904D01*
X3642857Y-44464285D01*
X3690476Y-44464285D01*
X3785714Y-44511904D01*
X3833333Y-44559523D01*
X3880952Y-44654761D01*
X3880952Y-44845238D01*
X3928571Y-44940476D01*
X3976190Y-44988095D01*
X4071428Y-45035714D01*
X4261904Y-45035714D01*
X4357142Y-44988095D01*
X4404761Y-44940476D01*
X4452380Y-44845238D01*
X4452380Y-44654761D01*
X4404761Y-44559523D01*
X4357142Y-44511904D01*
X4261904Y-44464285D01*
X4071428Y-44464285D01*
X3976190Y-44511904D01*
X3928571Y-44559523D01*
X3880952Y-44654761D01*
G04 #@! TO.C,C9*
X14857142Y-5916666D02*
X14904761Y-5964285D01*
X14952380Y-6107142D01*
X14952380Y-6202380D01*
X14904761Y-6345238D01*
X14809523Y-6440476D01*
X14714285Y-6488095D01*
X14523809Y-6535714D01*
X14380952Y-6535714D01*
X14190476Y-6488095D01*
X14095238Y-6440476D01*
X14000000Y-6345238D01*
X13952380Y-6202380D01*
X13952380Y-6107142D01*
X14000000Y-5964285D01*
X14047619Y-5916666D01*
X14952380Y-5440476D02*
X14952380Y-5250000D01*
X14904761Y-5154761D01*
X14857142Y-5107142D01*
X14714285Y-5011904D01*
X14523809Y-4964285D01*
X14142857Y-4964285D01*
X14047619Y-5011904D01*
X14000000Y-5059523D01*
X13952380Y-5154761D01*
X13952380Y-5345238D01*
X14000000Y-5440476D01*
X14047619Y-5488095D01*
X14142857Y-5535714D01*
X14380952Y-5535714D01*
X14476190Y-5488095D01*
X14523809Y-5440476D01*
X14571428Y-5345238D01*
X14571428Y-5154761D01*
X14523809Y-5059523D01*
X14476190Y-5011904D01*
X14380952Y-4964285D01*
G04 #@! TO.C,C3*
X12083333Y-36607142D02*
X12035714Y-36654761D01*
X11892857Y-36702380D01*
X11797619Y-36702380D01*
X11654761Y-36654761D01*
X11559523Y-36559523D01*
X11511904Y-36464285D01*
X11464285Y-36273809D01*
X11464285Y-36130952D01*
X11511904Y-35940476D01*
X11559523Y-35845238D01*
X11654761Y-35750000D01*
X11797619Y-35702380D01*
X11892857Y-35702380D01*
X12035714Y-35750000D01*
X12083333Y-35797619D01*
X12416666Y-35702380D02*
X13035714Y-35702380D01*
X12702380Y-36083333D01*
X12845238Y-36083333D01*
X12940476Y-36130952D01*
X12988095Y-36178571D01*
X13035714Y-36273809D01*
X13035714Y-36511904D01*
X12988095Y-36607142D01*
X12940476Y-36654761D01*
X12845238Y-36702380D01*
X12559523Y-36702380D01*
X12464285Y-36654761D01*
X12416666Y-36607142D01*
G04 #@! TO.C,C4*
X18333333Y-36607142D02*
X18285714Y-36654761D01*
X18142857Y-36702380D01*
X18047619Y-36702380D01*
X17904761Y-36654761D01*
X17809523Y-36559523D01*
X17761904Y-36464285D01*
X17714285Y-36273809D01*
X17714285Y-36130952D01*
X17761904Y-35940476D01*
X17809523Y-35845238D01*
X17904761Y-35750000D01*
X18047619Y-35702380D01*
X18142857Y-35702380D01*
X18285714Y-35750000D01*
X18333333Y-35797619D01*
X19190476Y-36035714D02*
X19190476Y-36702380D01*
X18952380Y-35654761D02*
X18714285Y-36369047D01*
X19333333Y-36369047D01*
G04 #@! TO.C,C7*
X24103333Y-20647142D02*
X24055714Y-20694761D01*
X23912857Y-20742380D01*
X23817619Y-20742380D01*
X23674761Y-20694761D01*
X23579523Y-20599523D01*
X23531904Y-20504285D01*
X23484285Y-20313809D01*
X23484285Y-20170952D01*
X23531904Y-19980476D01*
X23579523Y-19885238D01*
X23674761Y-19790000D01*
X23817619Y-19742380D01*
X23912857Y-19742380D01*
X24055714Y-19790000D01*
X24103333Y-19837619D01*
X24436666Y-19742380D02*
X25103333Y-19742380D01*
X24674761Y-20742380D01*
G04 #@! TO.C,C10*
X23913142Y-27397142D02*
X23865523Y-27444761D01*
X23722666Y-27492380D01*
X23627428Y-27492380D01*
X23484571Y-27444761D01*
X23389333Y-27349523D01*
X23341714Y-27254285D01*
X23294095Y-27063809D01*
X23294095Y-26920952D01*
X23341714Y-26730476D01*
X23389333Y-26635238D01*
X23484571Y-26540000D01*
X23627428Y-26492380D01*
X23722666Y-26492380D01*
X23865523Y-26540000D01*
X23913142Y-26587619D01*
X24865523Y-27492380D02*
X24294095Y-27492380D01*
X24579809Y-27492380D02*
X24579809Y-26492380D01*
X24484571Y-26635238D01*
X24389333Y-26730476D01*
X24294095Y-26778095D01*
X25484571Y-26492380D02*
X25579809Y-26492380D01*
X25675047Y-26540000D01*
X25722666Y-26587619D01*
X25770285Y-26682857D01*
X25817904Y-26873333D01*
X25817904Y-27111428D01*
X25770285Y-27301904D01*
X25722666Y-27397142D01*
X25675047Y-27444761D01*
X25579809Y-27492380D01*
X25484571Y-27492380D01*
X25389333Y-27444761D01*
X25341714Y-27397142D01*
X25294095Y-27301904D01*
X25246476Y-27111428D01*
X25246476Y-26873333D01*
X25294095Y-26682857D01*
X25341714Y-26587619D01*
X25389333Y-26540000D01*
X25484571Y-26492380D01*
G04 #@! TO.C,C12*
X27547142Y-72642857D02*
X27594761Y-72690476D01*
X27642380Y-72833333D01*
X27642380Y-72928571D01*
X27594761Y-73071428D01*
X27499523Y-73166666D01*
X27404285Y-73214285D01*
X27213809Y-73261904D01*
X27070952Y-73261904D01*
X26880476Y-73214285D01*
X26785238Y-73166666D01*
X26690000Y-73071428D01*
X26642380Y-72928571D01*
X26642380Y-72833333D01*
X26690000Y-72690476D01*
X26737619Y-72642857D01*
X27642380Y-71690476D02*
X27642380Y-72261904D01*
X27642380Y-71976190D02*
X26642380Y-71976190D01*
X26785238Y-72071428D01*
X26880476Y-72166666D01*
X26928095Y-72261904D01*
X26737619Y-71309523D02*
X26690000Y-71261904D01*
X26642380Y-71166666D01*
X26642380Y-70928571D01*
X26690000Y-70833333D01*
X26737619Y-70785714D01*
X26832857Y-70738095D01*
X26928095Y-70738095D01*
X27070952Y-70785714D01*
X27642380Y-71357142D01*
X27642380Y-70738095D01*
G04 #@! TO.C,D1*
X26341904Y-40952380D02*
X26341904Y-39952380D01*
X26580000Y-39952380D01*
X26722857Y-40000000D01*
X26818095Y-40095238D01*
X26865714Y-40190476D01*
X26913333Y-40380952D01*
X26913333Y-40523809D01*
X26865714Y-40714285D01*
X26818095Y-40809523D01*
X26722857Y-40904761D01*
X26580000Y-40952380D01*
X26341904Y-40952380D01*
X27865714Y-40952380D02*
X27294285Y-40952380D01*
X27580000Y-40952380D02*
X27580000Y-39952380D01*
X27484761Y-40095238D01*
X27389523Y-40190476D01*
X27294285Y-40238095D01*
X21738095Y-38952380D02*
X21738095Y-37952380D01*
X22309523Y-38952380D02*
X21880952Y-38380952D01*
X22309523Y-37952380D02*
X21738095Y-38523809D01*
G04 #@! TO.C,D2*
X26431904Y-36702380D02*
X26431904Y-35702380D01*
X26670000Y-35702380D01*
X26812857Y-35750000D01*
X26908095Y-35845238D01*
X26955714Y-35940476D01*
X27003333Y-36130952D01*
X27003333Y-36273809D01*
X26955714Y-36464285D01*
X26908095Y-36559523D01*
X26812857Y-36654761D01*
X26670000Y-36702380D01*
X26431904Y-36702380D01*
X27384285Y-35797619D02*
X27431904Y-35750000D01*
X27527142Y-35702380D01*
X27765238Y-35702380D01*
X27860476Y-35750000D01*
X27908095Y-35797619D01*
X27955714Y-35892857D01*
X27955714Y-35988095D01*
X27908095Y-36130952D01*
X27336666Y-36702380D01*
X27955714Y-36702380D01*
X21828095Y-34602380D02*
X21828095Y-33602380D01*
X22399523Y-34602380D02*
X21970952Y-34030952D01*
X22399523Y-33602380D02*
X21828095Y-34173809D01*
G04 #@! TO.C,D3*
X70952380Y-38798095D02*
X69952380Y-38798095D01*
X69952380Y-38560000D01*
X70000000Y-38417142D01*
X70095238Y-38321904D01*
X70190476Y-38274285D01*
X70380952Y-38226666D01*
X70523809Y-38226666D01*
X70714285Y-38274285D01*
X70809523Y-38321904D01*
X70904761Y-38417142D01*
X70952380Y-38560000D01*
X70952380Y-38798095D01*
X69952380Y-37893333D02*
X69952380Y-37274285D01*
X70333333Y-37607619D01*
X70333333Y-37464761D01*
X70380952Y-37369523D01*
X70428571Y-37321904D01*
X70523809Y-37274285D01*
X70761904Y-37274285D01*
X70857142Y-37321904D01*
X70904761Y-37369523D01*
X70952380Y-37464761D01*
X70952380Y-37750476D01*
X70904761Y-37845714D01*
X70857142Y-37893333D01*
X70952380Y-43761904D02*
X69952380Y-43761904D01*
X70952380Y-43190476D02*
X70380952Y-43619047D01*
X69952380Y-43190476D02*
X70523809Y-43761904D01*
G04 #@! TO.C,D4*
X73452380Y-38798095D02*
X72452380Y-38798095D01*
X72452380Y-38560000D01*
X72500000Y-38417142D01*
X72595238Y-38321904D01*
X72690476Y-38274285D01*
X72880952Y-38226666D01*
X73023809Y-38226666D01*
X73214285Y-38274285D01*
X73309523Y-38321904D01*
X73404761Y-38417142D01*
X73452380Y-38560000D01*
X73452380Y-38798095D01*
X72785714Y-37369523D02*
X73452380Y-37369523D01*
X72404761Y-37607619D02*
X73119047Y-37845714D01*
X73119047Y-37226666D01*
X73452380Y-43761904D02*
X72452380Y-43761904D01*
X73452380Y-43190476D02*
X72880952Y-43619047D01*
X72452380Y-43190476D02*
X73023809Y-43761904D01*
G04 #@! TO.C,D5*
X75953479Y-38798095D02*
X74953479Y-38798095D01*
X74953479Y-38560000D01*
X75001099Y-38417142D01*
X75096337Y-38321904D01*
X75191575Y-38274285D01*
X75382051Y-38226666D01*
X75524908Y-38226666D01*
X75715384Y-38274285D01*
X75810622Y-38321904D01*
X75905860Y-38417142D01*
X75953479Y-38560000D01*
X75953479Y-38798095D01*
X74953479Y-37321904D02*
X74953479Y-37798095D01*
X75429670Y-37845714D01*
X75382051Y-37798095D01*
X75334432Y-37702857D01*
X75334432Y-37464761D01*
X75382051Y-37369523D01*
X75429670Y-37321904D01*
X75524908Y-37274285D01*
X75763003Y-37274285D01*
X75858241Y-37321904D01*
X75905860Y-37369523D01*
X75953479Y-37464761D01*
X75953479Y-37702857D01*
X75905860Y-37798095D01*
X75858241Y-37845714D01*
X75952380Y-43761904D02*
X74952380Y-43761904D01*
X75952380Y-43190476D02*
X75380952Y-43619047D01*
X74952380Y-43190476D02*
X75523809Y-43761904D01*
G04 #@! TO.C,D6*
X66761904Y-72452380D02*
X66761904Y-71452380D01*
X67000000Y-71452380D01*
X67142857Y-71500000D01*
X67238095Y-71595238D01*
X67285714Y-71690476D01*
X67333333Y-71880952D01*
X67333333Y-72023809D01*
X67285714Y-72214285D01*
X67238095Y-72309523D01*
X67142857Y-72404761D01*
X67000000Y-72452380D01*
X66761904Y-72452380D01*
X68190476Y-71452380D02*
X68000000Y-71452380D01*
X67904761Y-71500000D01*
X67857142Y-71547619D01*
X67761904Y-71690476D01*
X67714285Y-71880952D01*
X67714285Y-72261904D01*
X67761904Y-72357142D01*
X67809523Y-72404761D01*
X67904761Y-72452380D01*
X68095238Y-72452380D01*
X68190476Y-72404761D01*
X68238095Y-72357142D01*
X68285714Y-72261904D01*
X68285714Y-72023809D01*
X68238095Y-71928571D01*
X68190476Y-71880952D01*
X68095238Y-71833333D01*
X67904761Y-71833333D01*
X67809523Y-71880952D01*
X67761904Y-71928571D01*
X67714285Y-72023809D01*
G04 #@! TO.C,D7*
X60971904Y-59912380D02*
X60971904Y-58912380D01*
X61210000Y-58912380D01*
X61352857Y-58960000D01*
X61448095Y-59055238D01*
X61495714Y-59150476D01*
X61543333Y-59340952D01*
X61543333Y-59483809D01*
X61495714Y-59674285D01*
X61448095Y-59769523D01*
X61352857Y-59864761D01*
X61210000Y-59912380D01*
X60971904Y-59912380D01*
X61876666Y-58912380D02*
X62543333Y-58912380D01*
X62114761Y-59912380D01*
G04 #@! TO.C,Q1*
X34047619Y-46595238D02*
X34000000Y-46690476D01*
X33904761Y-46785714D01*
X33761904Y-46928571D01*
X33714285Y-47023809D01*
X33714285Y-47119047D01*
X33952380Y-47071428D02*
X33904761Y-47166666D01*
X33809523Y-47261904D01*
X33619047Y-47309523D01*
X33285714Y-47309523D01*
X33095238Y-47261904D01*
X33000000Y-47166666D01*
X32952380Y-47071428D01*
X32952380Y-46880952D01*
X33000000Y-46785714D01*
X33095238Y-46690476D01*
X33285714Y-46642857D01*
X33619047Y-46642857D01*
X33809523Y-46690476D01*
X33904761Y-46785714D01*
X33952380Y-46880952D01*
X33952380Y-47071428D01*
X33952380Y-45690476D02*
X33952380Y-46261904D01*
X33952380Y-45976190D02*
X32952380Y-45976190D01*
X33095238Y-46071428D01*
X33190476Y-46166666D01*
X33238095Y-46261904D01*
G04 #@! TO.C,Q2*
X42987619Y-96095238D02*
X42940000Y-96190476D01*
X42844761Y-96285714D01*
X42701904Y-96428571D01*
X42654285Y-96523809D01*
X42654285Y-96619047D01*
X42892380Y-96571428D02*
X42844761Y-96666666D01*
X42749523Y-96761904D01*
X42559047Y-96809523D01*
X42225714Y-96809523D01*
X42035238Y-96761904D01*
X41940000Y-96666666D01*
X41892380Y-96571428D01*
X41892380Y-96380952D01*
X41940000Y-96285714D01*
X42035238Y-96190476D01*
X42225714Y-96142857D01*
X42559047Y-96142857D01*
X42749523Y-96190476D01*
X42844761Y-96285714D01*
X42892380Y-96380952D01*
X42892380Y-96571428D01*
X41987619Y-95761904D02*
X41940000Y-95714285D01*
X41892380Y-95619047D01*
X41892380Y-95380952D01*
X41940000Y-95285714D01*
X41987619Y-95238095D01*
X42082857Y-95190476D01*
X42178095Y-95190476D01*
X42320952Y-95238095D01*
X42892380Y-95809523D01*
X42892380Y-95190476D01*
G04 #@! TO.C,Q3*
X49404761Y-47547619D02*
X49309523Y-47500000D01*
X49214285Y-47404761D01*
X49071428Y-47261904D01*
X48976190Y-47214285D01*
X48880952Y-47214285D01*
X48928571Y-47452380D02*
X48833333Y-47404761D01*
X48738095Y-47309523D01*
X48690476Y-47119047D01*
X48690476Y-46785714D01*
X48738095Y-46595238D01*
X48833333Y-46500000D01*
X48928571Y-46452380D01*
X49119047Y-46452380D01*
X49214285Y-46500000D01*
X49309523Y-46595238D01*
X49357142Y-46785714D01*
X49357142Y-47119047D01*
X49309523Y-47309523D01*
X49214285Y-47404761D01*
X49119047Y-47452380D01*
X48928571Y-47452380D01*
X49690476Y-46452380D02*
X50309523Y-46452380D01*
X49976190Y-46833333D01*
X50119047Y-46833333D01*
X50214285Y-46880952D01*
X50261904Y-46928571D01*
X50309523Y-47023809D01*
X50309523Y-47261904D01*
X50261904Y-47357142D01*
X50214285Y-47404761D01*
X50119047Y-47452380D01*
X49833333Y-47452380D01*
X49738095Y-47404761D01*
X49690476Y-47357142D01*
G04 #@! TO.C,Q4*
X49404761Y-57547619D02*
X49309523Y-57500000D01*
X49214285Y-57404761D01*
X49071428Y-57261904D01*
X48976190Y-57214285D01*
X48880952Y-57214285D01*
X48928571Y-57452380D02*
X48833333Y-57404761D01*
X48738095Y-57309523D01*
X48690476Y-57119047D01*
X48690476Y-56785714D01*
X48738095Y-56595238D01*
X48833333Y-56500000D01*
X48928571Y-56452380D01*
X49119047Y-56452380D01*
X49214285Y-56500000D01*
X49309523Y-56595238D01*
X49357142Y-56785714D01*
X49357142Y-57119047D01*
X49309523Y-57309523D01*
X49214285Y-57404761D01*
X49119047Y-57452380D01*
X48928571Y-57452380D01*
X50214285Y-56785714D02*
X50214285Y-57452380D01*
X49976190Y-56404761D02*
X49738095Y-57119047D01*
X50357142Y-57119047D01*
G04 #@! TO.C,R1*
X6023333Y-12952380D02*
X5690000Y-12476190D01*
X5451904Y-12952380D02*
X5451904Y-11952380D01*
X5832857Y-11952380D01*
X5928095Y-12000000D01*
X5975714Y-12047619D01*
X6023333Y-12142857D01*
X6023333Y-12285714D01*
X5975714Y-12380952D01*
X5928095Y-12428571D01*
X5832857Y-12476190D01*
X5451904Y-12476190D01*
X6975714Y-12952380D02*
X6404285Y-12952380D01*
X6690000Y-12952380D02*
X6690000Y-11952380D01*
X6594761Y-12095238D01*
X6499523Y-12190476D01*
X6404285Y-12238095D01*
G04 #@! TO.C,R2*
X20021281Y-6414437D02*
X19545091Y-6747771D01*
X20021281Y-6985866D02*
X19021281Y-6985866D01*
X19021281Y-6604913D01*
X19068901Y-6509675D01*
X19116520Y-6462056D01*
X19211758Y-6414437D01*
X19354615Y-6414437D01*
X19449853Y-6462056D01*
X19497472Y-6509675D01*
X19545091Y-6604913D01*
X19545091Y-6985866D01*
X19116520Y-6033485D02*
X19068901Y-5985866D01*
X19021281Y-5890628D01*
X19021281Y-5652532D01*
X19068901Y-5557294D01*
X19116520Y-5509675D01*
X19211758Y-5462056D01*
X19306996Y-5462056D01*
X19449853Y-5509675D01*
X20021281Y-6081104D01*
X20021281Y-5462056D01*
G04 #@! TO.C,R3*
X6023333Y-16813479D02*
X5690000Y-16337289D01*
X5451904Y-16813479D02*
X5451904Y-15813479D01*
X5832857Y-15813479D01*
X5928095Y-15861099D01*
X5975714Y-15908718D01*
X6023333Y-16003956D01*
X6023333Y-16146813D01*
X5975714Y-16242051D01*
X5928095Y-16289670D01*
X5832857Y-16337289D01*
X5451904Y-16337289D01*
X6356666Y-15813479D02*
X6975714Y-15813479D01*
X6642380Y-16194432D01*
X6785238Y-16194432D01*
X6880476Y-16242051D01*
X6928095Y-16289670D01*
X6975714Y-16384908D01*
X6975714Y-16623003D01*
X6928095Y-16718241D01*
X6880476Y-16765860D01*
X6785238Y-16813479D01*
X6499523Y-16813479D01*
X6404285Y-16765860D01*
X6356666Y-16718241D01*
G04 #@! TO.C,R4*
X23801479Y-6356666D02*
X23325289Y-6690000D01*
X23801479Y-6928095D02*
X22801479Y-6928095D01*
X22801479Y-6547142D01*
X22849099Y-6451904D01*
X22896718Y-6404285D01*
X22991956Y-6356666D01*
X23134813Y-6356666D01*
X23230051Y-6404285D01*
X23277670Y-6451904D01*
X23325289Y-6547142D01*
X23325289Y-6928095D01*
X23134813Y-5499523D02*
X23801479Y-5499523D01*
X22753860Y-5737619D02*
X23468146Y-5975714D01*
X23468146Y-5356666D01*
G04 #@! TO.C,R5*
X17415281Y-102624437D02*
X16939091Y-102957771D01*
X17415281Y-103195866D02*
X16415281Y-103195866D01*
X16415281Y-102814913D01*
X16462901Y-102719675D01*
X16510520Y-102672056D01*
X16605758Y-102624437D01*
X16748615Y-102624437D01*
X16843853Y-102672056D01*
X16891472Y-102719675D01*
X16939091Y-102814913D01*
X16939091Y-103195866D01*
X16415281Y-101719675D02*
X16415281Y-102195866D01*
X16891472Y-102243485D01*
X16843853Y-102195866D01*
X16796234Y-102100628D01*
X16796234Y-101862532D01*
X16843853Y-101767294D01*
X16891472Y-101719675D01*
X16986710Y-101672056D01*
X17224805Y-101672056D01*
X17320043Y-101719675D01*
X17367662Y-101767294D01*
X17415281Y-101862532D01*
X17415281Y-102100628D01*
X17367662Y-102195866D01*
X17320043Y-102243485D01*
G04 #@! TO.C,R6*
X62523333Y-57028880D02*
X62190000Y-56552690D01*
X61951904Y-57028880D02*
X61951904Y-56028880D01*
X62332857Y-56028880D01*
X62428095Y-56076500D01*
X62475714Y-56124119D01*
X62523333Y-56219357D01*
X62523333Y-56362214D01*
X62475714Y-56457452D01*
X62428095Y-56505071D01*
X62332857Y-56552690D01*
X61951904Y-56552690D01*
X63380476Y-56028880D02*
X63190000Y-56028880D01*
X63094761Y-56076500D01*
X63047142Y-56124119D01*
X62951904Y-56266976D01*
X62904285Y-56457452D01*
X62904285Y-56838404D01*
X62951904Y-56933642D01*
X62999523Y-56981261D01*
X63094761Y-57028880D01*
X63285238Y-57028880D01*
X63380476Y-56981261D01*
X63428095Y-56933642D01*
X63475714Y-56838404D01*
X63475714Y-56600309D01*
X63428095Y-56505071D01*
X63380476Y-56457452D01*
X63285238Y-56409833D01*
X63094761Y-56409833D01*
X62999523Y-56457452D01*
X62951904Y-56505071D01*
X62904285Y-56600309D01*
G04 #@! TO.C,R7*
X7878332Y-77340880D02*
X7544999Y-76864690D01*
X7306903Y-77340880D02*
X7306903Y-76340880D01*
X7687856Y-76340880D01*
X7783094Y-76388500D01*
X7830713Y-76436119D01*
X7878332Y-76531357D01*
X7878332Y-76674214D01*
X7830713Y-76769452D01*
X7783094Y-76817071D01*
X7687856Y-76864690D01*
X7306903Y-76864690D01*
X8211665Y-76340880D02*
X8878332Y-76340880D01*
X8449760Y-77340880D01*
G04 #@! TO.C,R8*
X56023333Y-8563880D02*
X55690000Y-8087690D01*
X55451904Y-8563880D02*
X55451904Y-7563880D01*
X55832857Y-7563880D01*
X55928095Y-7611500D01*
X55975714Y-7659119D01*
X56023333Y-7754357D01*
X56023333Y-7897214D01*
X55975714Y-7992452D01*
X55928095Y-8040071D01*
X55832857Y-8087690D01*
X55451904Y-8087690D01*
X56594761Y-7992452D02*
X56499523Y-7944833D01*
X56451904Y-7897214D01*
X56404285Y-7801976D01*
X56404285Y-7754357D01*
X56451904Y-7659119D01*
X56499523Y-7611500D01*
X56594761Y-7563880D01*
X56785238Y-7563880D01*
X56880476Y-7611500D01*
X56928095Y-7659119D01*
X56975714Y-7754357D01*
X56975714Y-7801976D01*
X56928095Y-7897214D01*
X56880476Y-7944833D01*
X56785238Y-7992452D01*
X56594761Y-7992452D01*
X56499523Y-8040071D01*
X56451904Y-8087690D01*
X56404285Y-8182928D01*
X56404285Y-8373404D01*
X56451904Y-8468642D01*
X56499523Y-8516261D01*
X56594761Y-8563880D01*
X56785238Y-8563880D01*
X56880476Y-8516261D01*
X56928095Y-8468642D01*
X56975714Y-8373404D01*
X56975714Y-8182928D01*
X56928095Y-8087690D01*
X56880476Y-8040071D01*
X56785238Y-7992452D01*
G04 #@! TO.C,R9*
X20559479Y-59476666D02*
X20083289Y-59810000D01*
X20559479Y-60048095D02*
X19559479Y-60048095D01*
X19559479Y-59667142D01*
X19607099Y-59571904D01*
X19654718Y-59524285D01*
X19749956Y-59476666D01*
X19892813Y-59476666D01*
X19988051Y-59524285D01*
X20035670Y-59571904D01*
X20083289Y-59667142D01*
X20083289Y-60048095D01*
X20559479Y-59000476D02*
X20559479Y-58810000D01*
X20511860Y-58714761D01*
X20464241Y-58667142D01*
X20321384Y-58571904D01*
X20130908Y-58524285D01*
X19749956Y-58524285D01*
X19654718Y-58571904D01*
X19607099Y-58619523D01*
X19559479Y-58714761D01*
X19559479Y-58905238D01*
X19607099Y-59000476D01*
X19654718Y-59048095D01*
X19749956Y-59095714D01*
X19988051Y-59095714D01*
X20083289Y-59048095D01*
X20130908Y-59000476D01*
X20178527Y-58905238D01*
X20178527Y-58714761D01*
X20130908Y-58619523D01*
X20083289Y-58571904D01*
X19988051Y-58524285D01*
G04 #@! TO.C,R10*
X20545880Y-70193856D02*
X20069690Y-70527189D01*
X20545880Y-70765284D02*
X19545880Y-70765284D01*
X19545880Y-70384332D01*
X19593500Y-70289094D01*
X19641119Y-70241475D01*
X19736357Y-70193856D01*
X19879214Y-70193856D01*
X19974452Y-70241475D01*
X20022071Y-70289094D01*
X20069690Y-70384332D01*
X20069690Y-70765284D01*
X20545880Y-69241475D02*
X20545880Y-69812903D01*
X20545880Y-69527189D02*
X19545880Y-69527189D01*
X19688738Y-69622427D01*
X19783976Y-69717665D01*
X19831595Y-69812903D01*
X19545880Y-68622427D02*
X19545880Y-68527189D01*
X19593500Y-68431951D01*
X19641119Y-68384332D01*
X19736357Y-68336713D01*
X19926833Y-68289094D01*
X20164928Y-68289094D01*
X20355404Y-68336713D01*
X20450642Y-68384332D01*
X20498261Y-68431951D01*
X20545880Y-68527189D01*
X20545880Y-68622427D01*
X20498261Y-68717665D01*
X20450642Y-68765284D01*
X20355404Y-68812903D01*
X20164928Y-68860522D01*
X19926833Y-68860522D01*
X19736357Y-68812903D01*
X19641119Y-68765284D01*
X19593500Y-68717665D01*
X19545880Y-68622427D01*
G04 #@! TO.C,R11*
X16358880Y-59952857D02*
X15882690Y-60286190D01*
X16358880Y-60524285D02*
X15358880Y-60524285D01*
X15358880Y-60143333D01*
X15406500Y-60048095D01*
X15454119Y-60000476D01*
X15549357Y-59952857D01*
X15692214Y-59952857D01*
X15787452Y-60000476D01*
X15835071Y-60048095D01*
X15882690Y-60143333D01*
X15882690Y-60524285D01*
X16358880Y-59000476D02*
X16358880Y-59571904D01*
X16358880Y-59286190D02*
X15358880Y-59286190D01*
X15501738Y-59381428D01*
X15596976Y-59476666D01*
X15644595Y-59571904D01*
X16358880Y-58048095D02*
X16358880Y-58619523D01*
X16358880Y-58333809D02*
X15358880Y-58333809D01*
X15501738Y-58429047D01*
X15596976Y-58524285D01*
X15644595Y-58619523D01*
G04 #@! TO.C,R12*
X46925880Y-103334857D02*
X46449690Y-103668190D01*
X46925880Y-103906285D02*
X45925880Y-103906285D01*
X45925880Y-103525333D01*
X45973500Y-103430095D01*
X46021119Y-103382476D01*
X46116357Y-103334857D01*
X46259214Y-103334857D01*
X46354452Y-103382476D01*
X46402071Y-103430095D01*
X46449690Y-103525333D01*
X46449690Y-103906285D01*
X46925880Y-102382476D02*
X46925880Y-102953904D01*
X46925880Y-102668190D02*
X45925880Y-102668190D01*
X46068738Y-102763428D01*
X46163976Y-102858666D01*
X46211595Y-102953904D01*
X46021119Y-102001523D02*
X45973500Y-101953904D01*
X45925880Y-101858666D01*
X45925880Y-101620571D01*
X45973500Y-101525333D01*
X46021119Y-101477714D01*
X46116357Y-101430095D01*
X46211595Y-101430095D01*
X46354452Y-101477714D01*
X46925880Y-102049142D01*
X46925880Y-101430095D01*
G04 #@! TO.C,R13*
X55297142Y-29417880D02*
X54963809Y-28941690D01*
X54725714Y-29417880D02*
X54725714Y-28417880D01*
X55106666Y-28417880D01*
X55201904Y-28465500D01*
X55249523Y-28513119D01*
X55297142Y-28608357D01*
X55297142Y-28751214D01*
X55249523Y-28846452D01*
X55201904Y-28894071D01*
X55106666Y-28941690D01*
X54725714Y-28941690D01*
X56249523Y-29417880D02*
X55678095Y-29417880D01*
X55963809Y-29417880D02*
X55963809Y-28417880D01*
X55868571Y-28560738D01*
X55773333Y-28655976D01*
X55678095Y-28703595D01*
X56582857Y-28417880D02*
X57201904Y-28417880D01*
X56868571Y-28798833D01*
X57011428Y-28798833D01*
X57106666Y-28846452D01*
X57154285Y-28894071D01*
X57201904Y-28989309D01*
X57201904Y-29227404D01*
X57154285Y-29322642D01*
X57106666Y-29370261D01*
X57011428Y-29417880D01*
X56725714Y-29417880D01*
X56630476Y-29370261D01*
X56582857Y-29322642D01*
G04 #@! TO.C,R14*
X24411281Y-59832857D02*
X23935091Y-60166190D01*
X24411281Y-60404285D02*
X23411281Y-60404285D01*
X23411281Y-60023333D01*
X23458901Y-59928095D01*
X23506520Y-59880476D01*
X23601758Y-59832857D01*
X23744615Y-59832857D01*
X23839853Y-59880476D01*
X23887472Y-59928095D01*
X23935091Y-60023333D01*
X23935091Y-60404285D01*
X24411281Y-58880476D02*
X24411281Y-59451904D01*
X24411281Y-59166190D02*
X23411281Y-59166190D01*
X23554139Y-59261428D01*
X23649377Y-59356666D01*
X23696996Y-59451904D01*
X23744615Y-58023333D02*
X24411281Y-58023333D01*
X23363662Y-58261428D02*
X24077948Y-58499523D01*
X24077948Y-57880476D01*
G04 #@! TO.C,R15*
X75671880Y-58332857D02*
X75195690Y-58666190D01*
X75671880Y-58904285D02*
X74671880Y-58904285D01*
X74671880Y-58523333D01*
X74719500Y-58428095D01*
X74767119Y-58380476D01*
X74862357Y-58332857D01*
X75005214Y-58332857D01*
X75100452Y-58380476D01*
X75148071Y-58428095D01*
X75195690Y-58523333D01*
X75195690Y-58904285D01*
X75671880Y-57380476D02*
X75671880Y-57951904D01*
X75671880Y-57666190D02*
X74671880Y-57666190D01*
X74814738Y-57761428D01*
X74909976Y-57856666D01*
X74957595Y-57951904D01*
X74671880Y-56475714D02*
X74671880Y-56951904D01*
X75148071Y-56999523D01*
X75100452Y-56951904D01*
X75052833Y-56856666D01*
X75052833Y-56618571D01*
X75100452Y-56523333D01*
X75148071Y-56475714D01*
X75243309Y-56428095D01*
X75481404Y-56428095D01*
X75576642Y-56475714D01*
X75624261Y-56523333D01*
X75671880Y-56618571D01*
X75671880Y-56856666D01*
X75624261Y-56951904D01*
X75576642Y-56999523D01*
G04 #@! TO.C,R16*
X32927479Y-103357086D02*
X32451289Y-103690419D01*
X32927479Y-103928514D02*
X31927479Y-103928514D01*
X31927479Y-103547562D01*
X31975099Y-103452324D01*
X32022718Y-103404705D01*
X32117956Y-103357086D01*
X32260813Y-103357086D01*
X32356051Y-103404705D01*
X32403670Y-103452324D01*
X32451289Y-103547562D01*
X32451289Y-103928514D01*
X32927479Y-102404705D02*
X32927479Y-102976133D01*
X32927479Y-102690419D02*
X31927479Y-102690419D01*
X32070337Y-102785657D01*
X32165575Y-102880895D01*
X32213194Y-102976133D01*
X31927479Y-101547562D02*
X31927479Y-101738038D01*
X31975099Y-101833276D01*
X32022718Y-101880895D01*
X32165575Y-101976133D01*
X32356051Y-102023752D01*
X32737003Y-102023752D01*
X32832241Y-101976133D01*
X32879860Y-101928514D01*
X32927479Y-101833276D01*
X32927479Y-101642800D01*
X32879860Y-101547562D01*
X32832241Y-101499943D01*
X32737003Y-101452324D01*
X32498908Y-101452324D01*
X32403670Y-101499943D01*
X32356051Y-101547562D01*
X32308432Y-101642800D01*
X32308432Y-101833276D01*
X32356051Y-101928514D01*
X32403670Y-101976133D01*
X32498908Y-102023752D01*
G04 #@! TO.C,R17*
X24439380Y-70452857D02*
X23963190Y-70786190D01*
X24439380Y-71024285D02*
X23439380Y-71024285D01*
X23439380Y-70643333D01*
X23487000Y-70548095D01*
X23534619Y-70500476D01*
X23629857Y-70452857D01*
X23772714Y-70452857D01*
X23867952Y-70500476D01*
X23915571Y-70548095D01*
X23963190Y-70643333D01*
X23963190Y-71024285D01*
X24439380Y-69500476D02*
X24439380Y-70071904D01*
X24439380Y-69786190D02*
X23439380Y-69786190D01*
X23582238Y-69881428D01*
X23677476Y-69976666D01*
X23725095Y-70071904D01*
X23439380Y-69167142D02*
X23439380Y-68500476D01*
X24439380Y-68929047D01*
G04 #@! TO.C,R18*
X31547142Y-96071479D02*
X31213809Y-95595289D01*
X30975714Y-96071479D02*
X30975714Y-95071479D01*
X31356666Y-95071479D01*
X31451904Y-95119099D01*
X31499523Y-95166718D01*
X31547142Y-95261956D01*
X31547142Y-95404813D01*
X31499523Y-95500051D01*
X31451904Y-95547670D01*
X31356666Y-95595289D01*
X30975714Y-95595289D01*
X32499523Y-96071479D02*
X31928095Y-96071479D01*
X32213809Y-96071479D02*
X32213809Y-95071479D01*
X32118571Y-95214337D01*
X32023333Y-95309575D01*
X31928095Y-95357194D01*
X33070952Y-95500051D02*
X32975714Y-95452432D01*
X32928095Y-95404813D01*
X32880476Y-95309575D01*
X32880476Y-95261956D01*
X32928095Y-95166718D01*
X32975714Y-95119099D01*
X33070952Y-95071479D01*
X33261428Y-95071479D01*
X33356666Y-95119099D01*
X33404285Y-95166718D01*
X33451904Y-95261956D01*
X33451904Y-95309575D01*
X33404285Y-95404813D01*
X33356666Y-95452432D01*
X33261428Y-95500051D01*
X33070952Y-95500051D01*
X32975714Y-95547670D01*
X32928095Y-95595289D01*
X32880476Y-95690527D01*
X32880476Y-95881003D01*
X32928095Y-95976241D01*
X32975714Y-96023860D01*
X33070952Y-96071479D01*
X33261428Y-96071479D01*
X33356666Y-96023860D01*
X33404285Y-95976241D01*
X33451904Y-95881003D01*
X33451904Y-95690527D01*
X33404285Y-95595289D01*
X33356666Y-95547670D01*
X33261428Y-95500051D01*
G04 #@! TO.C,R19*
X62313479Y-102832857D02*
X61837289Y-103166190D01*
X62313479Y-103404285D02*
X61313479Y-103404285D01*
X61313479Y-103023333D01*
X61361099Y-102928095D01*
X61408718Y-102880476D01*
X61503956Y-102832857D01*
X61646813Y-102832857D01*
X61742051Y-102880476D01*
X61789670Y-102928095D01*
X61837289Y-103023333D01*
X61837289Y-103404285D01*
X62313479Y-101880476D02*
X62313479Y-102451904D01*
X62313479Y-102166190D02*
X61313479Y-102166190D01*
X61456337Y-102261428D01*
X61551575Y-102356666D01*
X61599194Y-102451904D01*
X62313479Y-101404285D02*
X62313479Y-101213809D01*
X62265860Y-101118571D01*
X62218241Y-101070952D01*
X62075384Y-100975714D01*
X61884908Y-100928095D01*
X61503956Y-100928095D01*
X61408718Y-100975714D01*
X61361099Y-101023333D01*
X61313479Y-101118571D01*
X61313479Y-101309047D01*
X61361099Y-101404285D01*
X61408718Y-101451904D01*
X61503956Y-101499523D01*
X61742051Y-101499523D01*
X61837289Y-101451904D01*
X61884908Y-101404285D01*
X61932527Y-101309047D01*
X61932527Y-101118571D01*
X61884908Y-101023333D01*
X61837289Y-100975714D01*
X61742051Y-100928095D01*
G04 #@! TO.C,R20*
X39047142Y-73416880D02*
X38713809Y-72940690D01*
X38475714Y-73416880D02*
X38475714Y-72416880D01*
X38856666Y-72416880D01*
X38951904Y-72464500D01*
X38999523Y-72512119D01*
X39047142Y-72607357D01*
X39047142Y-72750214D01*
X38999523Y-72845452D01*
X38951904Y-72893071D01*
X38856666Y-72940690D01*
X38475714Y-72940690D01*
X39428095Y-72512119D02*
X39475714Y-72464500D01*
X39570952Y-72416880D01*
X39809047Y-72416880D01*
X39904285Y-72464500D01*
X39951904Y-72512119D01*
X39999523Y-72607357D01*
X39999523Y-72702595D01*
X39951904Y-72845452D01*
X39380476Y-73416880D01*
X39999523Y-73416880D01*
X40618571Y-72416880D02*
X40713809Y-72416880D01*
X40809047Y-72464500D01*
X40856666Y-72512119D01*
X40904285Y-72607357D01*
X40951904Y-72797833D01*
X40951904Y-73035928D01*
X40904285Y-73226404D01*
X40856666Y-73321642D01*
X40809047Y-73369261D01*
X40713809Y-73416880D01*
X40618571Y-73416880D01*
X40523333Y-73369261D01*
X40475714Y-73321642D01*
X40428095Y-73226404D01*
X40380476Y-73035928D01*
X40380476Y-72797833D01*
X40428095Y-72607357D01*
X40475714Y-72512119D01*
X40523333Y-72464500D01*
X40618571Y-72416880D01*
G04 #@! TO.C,R21*
X75702380Y-69706857D02*
X75226190Y-70040190D01*
X75702380Y-70278285D02*
X74702380Y-70278285D01*
X74702380Y-69897333D01*
X74750000Y-69802095D01*
X74797619Y-69754476D01*
X74892857Y-69706857D01*
X75035714Y-69706857D01*
X75130952Y-69754476D01*
X75178571Y-69802095D01*
X75226190Y-69897333D01*
X75226190Y-70278285D01*
X74797619Y-69325904D02*
X74750000Y-69278285D01*
X74702380Y-69183047D01*
X74702380Y-68944952D01*
X74750000Y-68849714D01*
X74797619Y-68802095D01*
X74892857Y-68754476D01*
X74988095Y-68754476D01*
X75130952Y-68802095D01*
X75702380Y-69373523D01*
X75702380Y-68754476D01*
X75702380Y-67802095D02*
X75702380Y-68373523D01*
X75702380Y-68087809D02*
X74702380Y-68087809D01*
X74845238Y-68183047D01*
X74940476Y-68278285D01*
X74988095Y-68373523D01*
G04 #@! TO.C,R22*
X39047142Y-77425880D02*
X38713809Y-76949690D01*
X38475714Y-77425880D02*
X38475714Y-76425880D01*
X38856666Y-76425880D01*
X38951904Y-76473500D01*
X38999523Y-76521119D01*
X39047142Y-76616357D01*
X39047142Y-76759214D01*
X38999523Y-76854452D01*
X38951904Y-76902071D01*
X38856666Y-76949690D01*
X38475714Y-76949690D01*
X39428095Y-76521119D02*
X39475714Y-76473500D01*
X39570952Y-76425880D01*
X39809047Y-76425880D01*
X39904285Y-76473500D01*
X39951904Y-76521119D01*
X39999523Y-76616357D01*
X39999523Y-76711595D01*
X39951904Y-76854452D01*
X39380476Y-77425880D01*
X39999523Y-77425880D01*
X40380476Y-76521119D02*
X40428095Y-76473500D01*
X40523333Y-76425880D01*
X40761428Y-76425880D01*
X40856666Y-76473500D01*
X40904285Y-76521119D01*
X40951904Y-76616357D01*
X40951904Y-76711595D01*
X40904285Y-76854452D01*
X40332857Y-77425880D01*
X40951904Y-77425880D01*
G04 #@! TO.C,R25*
X43047142Y-49452380D02*
X42713809Y-48976190D01*
X42475714Y-49452380D02*
X42475714Y-48452380D01*
X42856666Y-48452380D01*
X42951904Y-48500000D01*
X42999523Y-48547619D01*
X43047142Y-48642857D01*
X43047142Y-48785714D01*
X42999523Y-48880952D01*
X42951904Y-48928571D01*
X42856666Y-48976190D01*
X42475714Y-48976190D01*
X43428095Y-48547619D02*
X43475714Y-48500000D01*
X43570952Y-48452380D01*
X43809047Y-48452380D01*
X43904285Y-48500000D01*
X43951904Y-48547619D01*
X43999523Y-48642857D01*
X43999523Y-48738095D01*
X43951904Y-48880952D01*
X43380476Y-49452380D01*
X43999523Y-49452380D01*
X44904285Y-48452380D02*
X44428095Y-48452380D01*
X44380476Y-48928571D01*
X44428095Y-48880952D01*
X44523333Y-48833333D01*
X44761428Y-48833333D01*
X44856666Y-48880952D01*
X44904285Y-48928571D01*
X44951904Y-49023809D01*
X44951904Y-49261904D01*
X44904285Y-49357142D01*
X44856666Y-49404761D01*
X44761428Y-49452380D01*
X44523333Y-49452380D01*
X44428095Y-49404761D01*
X44380476Y-49357142D01*
G04 #@! TO.C,R26*
X71983880Y-58327856D02*
X71507690Y-58661189D01*
X71983880Y-58899284D02*
X70983880Y-58899284D01*
X70983880Y-58518332D01*
X71031500Y-58423094D01*
X71079119Y-58375475D01*
X71174357Y-58327856D01*
X71317214Y-58327856D01*
X71412452Y-58375475D01*
X71460071Y-58423094D01*
X71507690Y-58518332D01*
X71507690Y-58899284D01*
X71079119Y-57946903D02*
X71031500Y-57899284D01*
X70983880Y-57804046D01*
X70983880Y-57565951D01*
X71031500Y-57470713D01*
X71079119Y-57423094D01*
X71174357Y-57375475D01*
X71269595Y-57375475D01*
X71412452Y-57423094D01*
X71983880Y-57994522D01*
X71983880Y-57375475D01*
X70983880Y-56518332D02*
X70983880Y-56708808D01*
X71031500Y-56804046D01*
X71079119Y-56851665D01*
X71221976Y-56946903D01*
X71412452Y-56994522D01*
X71793404Y-56994522D01*
X71888642Y-56946903D01*
X71936261Y-56899284D01*
X71983880Y-56804046D01*
X71983880Y-56613570D01*
X71936261Y-56518332D01*
X71888642Y-56470713D01*
X71793404Y-56423094D01*
X71555309Y-56423094D01*
X71460071Y-56470713D01*
X71412452Y-56518332D01*
X71364833Y-56613570D01*
X71364833Y-56804046D01*
X71412452Y-56899284D01*
X71460071Y-56946903D01*
X71555309Y-56994522D01*
G04 #@! TO.C,R27*
X17479880Y-86829856D02*
X17003690Y-87163189D01*
X17479880Y-87401284D02*
X16479880Y-87401284D01*
X16479880Y-87020332D01*
X16527500Y-86925094D01*
X16575119Y-86877475D01*
X16670357Y-86829856D01*
X16813214Y-86829856D01*
X16908452Y-86877475D01*
X16956071Y-86925094D01*
X17003690Y-87020332D01*
X17003690Y-87401284D01*
X16575119Y-86448903D02*
X16527500Y-86401284D01*
X16479880Y-86306046D01*
X16479880Y-86067951D01*
X16527500Y-85972713D01*
X16575119Y-85925094D01*
X16670357Y-85877475D01*
X16765595Y-85877475D01*
X16908452Y-85925094D01*
X17479880Y-86496522D01*
X17479880Y-85877475D01*
X16479880Y-85544141D02*
X16479880Y-84877475D01*
X17479880Y-85306046D01*
G04 #@! TO.C,R30*
X32487880Y-80315856D02*
X32011690Y-80649189D01*
X32487880Y-80887284D02*
X31487880Y-80887284D01*
X31487880Y-80506332D01*
X31535500Y-80411094D01*
X31583119Y-80363475D01*
X31678357Y-80315856D01*
X31821214Y-80315856D01*
X31916452Y-80363475D01*
X31964071Y-80411094D01*
X32011690Y-80506332D01*
X32011690Y-80887284D01*
X31487880Y-79982522D02*
X31487880Y-79363475D01*
X31868833Y-79696808D01*
X31868833Y-79553951D01*
X31916452Y-79458713D01*
X31964071Y-79411094D01*
X32059309Y-79363475D01*
X32297404Y-79363475D01*
X32392642Y-79411094D01*
X32440261Y-79458713D01*
X32487880Y-79553951D01*
X32487880Y-79839665D01*
X32440261Y-79934903D01*
X32392642Y-79982522D01*
X31487880Y-78744427D02*
X31487880Y-78649189D01*
X31535500Y-78553951D01*
X31583119Y-78506332D01*
X31678357Y-78458713D01*
X31868833Y-78411094D01*
X32106928Y-78411094D01*
X32297404Y-78458713D01*
X32392642Y-78506332D01*
X32440261Y-78553951D01*
X32487880Y-78649189D01*
X32487880Y-78744427D01*
X32440261Y-78839665D01*
X32392642Y-78887284D01*
X32297404Y-78934903D01*
X32106928Y-78982522D01*
X31868833Y-78982522D01*
X31678357Y-78934903D01*
X31583119Y-78887284D01*
X31535500Y-78839665D01*
X31487880Y-78744427D01*
G04 #@! TO.C,R31*
X63418880Y-71952857D02*
X62942690Y-72286190D01*
X63418880Y-72524285D02*
X62418880Y-72524285D01*
X62418880Y-72143333D01*
X62466500Y-72048095D01*
X62514119Y-72000476D01*
X62609357Y-71952857D01*
X62752214Y-71952857D01*
X62847452Y-72000476D01*
X62895071Y-72048095D01*
X62942690Y-72143333D01*
X62942690Y-72524285D01*
X62418880Y-71619523D02*
X62418880Y-71000476D01*
X62799833Y-71333809D01*
X62799833Y-71190952D01*
X62847452Y-71095714D01*
X62895071Y-71048095D01*
X62990309Y-71000476D01*
X63228404Y-71000476D01*
X63323642Y-71048095D01*
X63371261Y-71095714D01*
X63418880Y-71190952D01*
X63418880Y-71476666D01*
X63371261Y-71571904D01*
X63323642Y-71619523D01*
X63418880Y-70048095D02*
X63418880Y-70619523D01*
X63418880Y-70333809D02*
X62418880Y-70333809D01*
X62561738Y-70429047D01*
X62656976Y-70524285D01*
X62704595Y-70619523D01*
G04 #@! TO.C,R32*
X66167142Y-29417880D02*
X65833809Y-28941690D01*
X65595714Y-29417880D02*
X65595714Y-28417880D01*
X65976666Y-28417880D01*
X66071904Y-28465500D01*
X66119523Y-28513119D01*
X66167142Y-28608357D01*
X66167142Y-28751214D01*
X66119523Y-28846452D01*
X66071904Y-28894071D01*
X65976666Y-28941690D01*
X65595714Y-28941690D01*
X66500476Y-28417880D02*
X67119523Y-28417880D01*
X66786190Y-28798833D01*
X66929047Y-28798833D01*
X67024285Y-28846452D01*
X67071904Y-28894071D01*
X67119523Y-28989309D01*
X67119523Y-29227404D01*
X67071904Y-29322642D01*
X67024285Y-29370261D01*
X66929047Y-29417880D01*
X66643333Y-29417880D01*
X66548095Y-29370261D01*
X66500476Y-29322642D01*
X67500476Y-28513119D02*
X67548095Y-28465500D01*
X67643333Y-28417880D01*
X67881428Y-28417880D01*
X67976666Y-28465500D01*
X68024285Y-28513119D01*
X68071904Y-28608357D01*
X68071904Y-28703595D01*
X68024285Y-28846452D01*
X67452857Y-29417880D01*
X68071904Y-29417880D01*
G04 #@! TO.C,R33*
X66167142Y-25482880D02*
X65833809Y-25006690D01*
X65595714Y-25482880D02*
X65595714Y-24482880D01*
X65976666Y-24482880D01*
X66071904Y-24530500D01*
X66119523Y-24578119D01*
X66167142Y-24673357D01*
X66167142Y-24816214D01*
X66119523Y-24911452D01*
X66071904Y-24959071D01*
X65976666Y-25006690D01*
X65595714Y-25006690D01*
X66500476Y-24482880D02*
X67119523Y-24482880D01*
X66786190Y-24863833D01*
X66929047Y-24863833D01*
X67024285Y-24911452D01*
X67071904Y-24959071D01*
X67119523Y-25054309D01*
X67119523Y-25292404D01*
X67071904Y-25387642D01*
X67024285Y-25435261D01*
X66929047Y-25482880D01*
X66643333Y-25482880D01*
X66548095Y-25435261D01*
X66500476Y-25387642D01*
X67452857Y-24482880D02*
X68071904Y-24482880D01*
X67738571Y-24863833D01*
X67881428Y-24863833D01*
X67976666Y-24911452D01*
X68024285Y-24959071D01*
X68071904Y-25054309D01*
X68071904Y-25292404D01*
X68024285Y-25387642D01*
X67976666Y-25435261D01*
X67881428Y-25482880D01*
X67595714Y-25482880D01*
X67500476Y-25435261D01*
X67452857Y-25387642D01*
G04 #@! TO.C,R34*
X66167142Y-21333880D02*
X65833809Y-20857690D01*
X65595714Y-21333880D02*
X65595714Y-20333880D01*
X65976666Y-20333880D01*
X66071904Y-20381500D01*
X66119523Y-20429119D01*
X66167142Y-20524357D01*
X66167142Y-20667214D01*
X66119523Y-20762452D01*
X66071904Y-20810071D01*
X65976666Y-20857690D01*
X65595714Y-20857690D01*
X66500476Y-20333880D02*
X67119523Y-20333880D01*
X66786190Y-20714833D01*
X66929047Y-20714833D01*
X67024285Y-20762452D01*
X67071904Y-20810071D01*
X67119523Y-20905309D01*
X67119523Y-21143404D01*
X67071904Y-21238642D01*
X67024285Y-21286261D01*
X66929047Y-21333880D01*
X66643333Y-21333880D01*
X66548095Y-21286261D01*
X66500476Y-21238642D01*
X67976666Y-20667214D02*
X67976666Y-21333880D01*
X67738571Y-20286261D02*
X67500476Y-21000547D01*
X68119523Y-21000547D01*
G04 #@! TO.C,R35*
X66167142Y-4420880D02*
X65833809Y-3944690D01*
X65595714Y-4420880D02*
X65595714Y-3420880D01*
X65976666Y-3420880D01*
X66071904Y-3468500D01*
X66119523Y-3516119D01*
X66167142Y-3611357D01*
X66167142Y-3754214D01*
X66119523Y-3849452D01*
X66071904Y-3897071D01*
X65976666Y-3944690D01*
X65595714Y-3944690D01*
X66500476Y-3420880D02*
X67119523Y-3420880D01*
X66786190Y-3801833D01*
X66929047Y-3801833D01*
X67024285Y-3849452D01*
X67071904Y-3897071D01*
X67119523Y-3992309D01*
X67119523Y-4230404D01*
X67071904Y-4325642D01*
X67024285Y-4373261D01*
X66929047Y-4420880D01*
X66643333Y-4420880D01*
X66548095Y-4373261D01*
X66500476Y-4325642D01*
X68024285Y-3420880D02*
X67548095Y-3420880D01*
X67500476Y-3897071D01*
X67548095Y-3849452D01*
X67643333Y-3801833D01*
X67881428Y-3801833D01*
X67976666Y-3849452D01*
X68024285Y-3897071D01*
X68071904Y-3992309D01*
X68071904Y-4230404D01*
X68024285Y-4325642D01*
X67976666Y-4373261D01*
X67881428Y-4420880D01*
X67643333Y-4420880D01*
X67548095Y-4373261D01*
X67500476Y-4325642D01*
G04 #@! TO.C,R36*
X43047142Y-53987880D02*
X42713809Y-53511690D01*
X42475714Y-53987880D02*
X42475714Y-52987880D01*
X42856666Y-52987880D01*
X42951904Y-53035500D01*
X42999523Y-53083119D01*
X43047142Y-53178357D01*
X43047142Y-53321214D01*
X42999523Y-53416452D01*
X42951904Y-53464071D01*
X42856666Y-53511690D01*
X42475714Y-53511690D01*
X43380476Y-52987880D02*
X43999523Y-52987880D01*
X43666190Y-53368833D01*
X43809047Y-53368833D01*
X43904285Y-53416452D01*
X43951904Y-53464071D01*
X43999523Y-53559309D01*
X43999523Y-53797404D01*
X43951904Y-53892642D01*
X43904285Y-53940261D01*
X43809047Y-53987880D01*
X43523333Y-53987880D01*
X43428095Y-53940261D01*
X43380476Y-53892642D01*
X44856666Y-52987880D02*
X44666190Y-52987880D01*
X44570952Y-53035500D01*
X44523333Y-53083119D01*
X44428095Y-53225976D01*
X44380476Y-53416452D01*
X44380476Y-53797404D01*
X44428095Y-53892642D01*
X44475714Y-53940261D01*
X44570952Y-53987880D01*
X44761428Y-53987880D01*
X44856666Y-53940261D01*
X44904285Y-53892642D01*
X44951904Y-53797404D01*
X44951904Y-53559309D01*
X44904285Y-53464071D01*
X44856666Y-53416452D01*
X44761428Y-53368833D01*
X44570952Y-53368833D01*
X44475714Y-53416452D01*
X44428095Y-53464071D01*
X44380476Y-53559309D01*
G04 #@! TO.C,R37*
X55547142Y-4486880D02*
X55213809Y-4010690D01*
X54975714Y-4486880D02*
X54975714Y-3486880D01*
X55356666Y-3486880D01*
X55451904Y-3534500D01*
X55499523Y-3582119D01*
X55547142Y-3677357D01*
X55547142Y-3820214D01*
X55499523Y-3915452D01*
X55451904Y-3963071D01*
X55356666Y-4010690D01*
X54975714Y-4010690D01*
X55880476Y-3486880D02*
X56499523Y-3486880D01*
X56166190Y-3867833D01*
X56309047Y-3867833D01*
X56404285Y-3915452D01*
X56451904Y-3963071D01*
X56499523Y-4058309D01*
X56499523Y-4296404D01*
X56451904Y-4391642D01*
X56404285Y-4439261D01*
X56309047Y-4486880D01*
X56023333Y-4486880D01*
X55928095Y-4439261D01*
X55880476Y-4391642D01*
X56832857Y-3486880D02*
X57499523Y-3486880D01*
X57070952Y-4486880D01*
G04 #@! TO.C,R38*
X75452380Y-25832857D02*
X74976190Y-26166190D01*
X75452380Y-26404285D02*
X74452380Y-26404285D01*
X74452380Y-26023333D01*
X74500000Y-25928095D01*
X74547619Y-25880476D01*
X74642857Y-25832857D01*
X74785714Y-25832857D01*
X74880952Y-25880476D01*
X74928571Y-25928095D01*
X74976190Y-26023333D01*
X74976190Y-26404285D01*
X74452380Y-25499523D02*
X74452380Y-24880476D01*
X74833333Y-25213809D01*
X74833333Y-25070952D01*
X74880952Y-24975714D01*
X74928571Y-24928095D01*
X75023809Y-24880476D01*
X75261904Y-24880476D01*
X75357142Y-24928095D01*
X75404761Y-24975714D01*
X75452380Y-25070952D01*
X75452380Y-25356666D01*
X75404761Y-25451904D01*
X75357142Y-25499523D01*
X74880952Y-24309047D02*
X74833333Y-24404285D01*
X74785714Y-24451904D01*
X74690476Y-24499523D01*
X74642857Y-24499523D01*
X74547619Y-24451904D01*
X74500000Y-24404285D01*
X74452380Y-24309047D01*
X74452380Y-24118571D01*
X74500000Y-24023333D01*
X74547619Y-23975714D01*
X74642857Y-23928095D01*
X74690476Y-23928095D01*
X74785714Y-23975714D01*
X74833333Y-24023333D01*
X74880952Y-24118571D01*
X74880952Y-24309047D01*
X74928571Y-24404285D01*
X74976190Y-24451904D01*
X75071428Y-24499523D01*
X75261904Y-24499523D01*
X75357142Y-24451904D01*
X75404761Y-24404285D01*
X75452380Y-24309047D01*
X75452380Y-24118571D01*
X75404761Y-24023333D01*
X75357142Y-23975714D01*
X75261904Y-23928095D01*
X75071428Y-23928095D01*
X74976190Y-23975714D01*
X74928571Y-24023333D01*
X74880952Y-24118571D01*
G04 #@! TO.C,R39*
X66052141Y-8482880D02*
X65718808Y-8006690D01*
X65480713Y-8482880D02*
X65480713Y-7482880D01*
X65861665Y-7482880D01*
X65956903Y-7530500D01*
X66004522Y-7578119D01*
X66052141Y-7673357D01*
X66052141Y-7816214D01*
X66004522Y-7911452D01*
X65956903Y-7959071D01*
X65861665Y-8006690D01*
X65480713Y-8006690D01*
X66385475Y-7482880D02*
X67004522Y-7482880D01*
X66671189Y-7863833D01*
X66814046Y-7863833D01*
X66909284Y-7911452D01*
X66956903Y-7959071D01*
X67004522Y-8054309D01*
X67004522Y-8292404D01*
X66956903Y-8387642D01*
X66909284Y-8435261D01*
X66814046Y-8482880D01*
X66528332Y-8482880D01*
X66433094Y-8435261D01*
X66385475Y-8387642D01*
X67480713Y-8482880D02*
X67671189Y-8482880D01*
X67766427Y-8435261D01*
X67814046Y-8387642D01*
X67909284Y-8244785D01*
X67956903Y-8054309D01*
X67956903Y-7673357D01*
X67909284Y-7578119D01*
X67861665Y-7530500D01*
X67766427Y-7482880D01*
X67575951Y-7482880D01*
X67480713Y-7530500D01*
X67433094Y-7578119D01*
X67385475Y-7673357D01*
X67385475Y-7911452D01*
X67433094Y-8006690D01*
X67480713Y-8054309D01*
X67575951Y-8101928D01*
X67766427Y-8101928D01*
X67861665Y-8054309D01*
X67909284Y-8006690D01*
X67956903Y-7911452D01*
G04 #@! TO.C,R40*
X16546880Y-70537858D02*
X16070690Y-70871191D01*
X16546880Y-71109286D02*
X15546880Y-71109286D01*
X15546880Y-70728334D01*
X15594500Y-70633096D01*
X15642119Y-70585477D01*
X15737357Y-70537858D01*
X15880214Y-70537858D01*
X15975452Y-70585477D01*
X16023071Y-70633096D01*
X16070690Y-70728334D01*
X16070690Y-71109286D01*
X15880214Y-69680715D02*
X16546880Y-69680715D01*
X15499261Y-69918810D02*
X16213547Y-70156905D01*
X16213547Y-69537858D01*
X15546880Y-68966429D02*
X15546880Y-68871191D01*
X15594500Y-68775953D01*
X15642119Y-68728334D01*
X15737357Y-68680715D01*
X15927833Y-68633096D01*
X16165928Y-68633096D01*
X16356404Y-68680715D01*
X16451642Y-68728334D01*
X16499261Y-68775953D01*
X16546880Y-68871191D01*
X16546880Y-68966429D01*
X16499261Y-69061667D01*
X16451642Y-69109286D01*
X16356404Y-69156905D01*
X16165928Y-69204524D01*
X15927833Y-69204524D01*
X15737357Y-69156905D01*
X15642119Y-69109286D01*
X15594500Y-69061667D01*
X15546880Y-68966429D01*
G04 #@! TO.C,R41*
X19547142Y-77545880D02*
X19213809Y-77069690D01*
X18975714Y-77545880D02*
X18975714Y-76545880D01*
X19356666Y-76545880D01*
X19451904Y-76593500D01*
X19499523Y-76641119D01*
X19547142Y-76736357D01*
X19547142Y-76879214D01*
X19499523Y-76974452D01*
X19451904Y-77022071D01*
X19356666Y-77069690D01*
X18975714Y-77069690D01*
X20404285Y-76879214D02*
X20404285Y-77545880D01*
X20166190Y-76498261D02*
X19928095Y-77212547D01*
X20547142Y-77212547D01*
X21451904Y-77545880D02*
X20880476Y-77545880D01*
X21166190Y-77545880D02*
X21166190Y-76545880D01*
X21070952Y-76688738D01*
X20975714Y-76783976D01*
X20880476Y-76831595D01*
G04 #@! TO.C,R42*
X4479880Y-35832857D02*
X4003690Y-36166190D01*
X4479880Y-36404285D02*
X3479880Y-36404285D01*
X3479880Y-36023333D01*
X3527500Y-35928095D01*
X3575119Y-35880476D01*
X3670357Y-35832857D01*
X3813214Y-35832857D01*
X3908452Y-35880476D01*
X3956071Y-35928095D01*
X4003690Y-36023333D01*
X4003690Y-36404285D01*
X3813214Y-34975714D02*
X4479880Y-34975714D01*
X3432261Y-35213809D02*
X4146547Y-35451904D01*
X4146547Y-34832857D01*
X3575119Y-34499523D02*
X3527500Y-34451904D01*
X3479880Y-34356666D01*
X3479880Y-34118571D01*
X3527500Y-34023333D01*
X3575119Y-33975714D01*
X3670357Y-33928095D01*
X3765595Y-33928095D01*
X3908452Y-33975714D01*
X4479880Y-34547142D01*
X4479880Y-33928095D01*
G04 #@! TO.C,U1*
X3746095Y-54166380D02*
X3746095Y-54975904D01*
X3793714Y-55071142D01*
X3841333Y-55118761D01*
X3936571Y-55166380D01*
X4127047Y-55166380D01*
X4222285Y-55118761D01*
X4269904Y-55071142D01*
X4317523Y-54975904D01*
X4317523Y-54166380D01*
X5317523Y-55166380D02*
X4746095Y-55166380D01*
X5031809Y-55166380D02*
X5031809Y-54166380D01*
X4936571Y-54309238D01*
X4841333Y-54404476D01*
X4746095Y-54452095D01*
G04 #@! TO.C,U3*
X49896095Y-58926380D02*
X49896095Y-59735904D01*
X49943714Y-59831142D01*
X49991333Y-59878761D01*
X50086571Y-59926380D01*
X50277047Y-59926380D01*
X50372285Y-59878761D01*
X50419904Y-59831142D01*
X50467523Y-59735904D01*
X50467523Y-58926380D01*
X50848476Y-58926380D02*
X51467523Y-58926380D01*
X51134190Y-59307333D01*
X51277047Y-59307333D01*
X51372285Y-59354952D01*
X51419904Y-59402571D01*
X51467523Y-59497809D01*
X51467523Y-59735904D01*
X51419904Y-59831142D01*
X51372285Y-59878761D01*
X51277047Y-59926380D01*
X50991333Y-59926380D01*
X50896095Y-59878761D01*
X50848476Y-59831142D01*
G04 #@! TO.C,U4*
X55738095Y-33702380D02*
X55738095Y-34511904D01*
X55785714Y-34607142D01*
X55833333Y-34654761D01*
X55928571Y-34702380D01*
X56119047Y-34702380D01*
X56214285Y-34654761D01*
X56261904Y-34607142D01*
X56309523Y-34511904D01*
X56309523Y-33702380D01*
X57214285Y-34035714D02*
X57214285Y-34702380D01*
X56976190Y-33654761D02*
X56738095Y-34369047D01*
X57357142Y-34369047D01*
G04 #@! TO.C,R28*
X55297142Y-21452380D02*
X54963809Y-20976190D01*
X54725714Y-21452380D02*
X54725714Y-20452380D01*
X55106666Y-20452380D01*
X55201904Y-20500000D01*
X55249523Y-20547619D01*
X55297142Y-20642857D01*
X55297142Y-20785714D01*
X55249523Y-20880952D01*
X55201904Y-20928571D01*
X55106666Y-20976190D01*
X54725714Y-20976190D01*
X55678095Y-20547619D02*
X55725714Y-20500000D01*
X55820952Y-20452380D01*
X56059047Y-20452380D01*
X56154285Y-20500000D01*
X56201904Y-20547619D01*
X56249523Y-20642857D01*
X56249523Y-20738095D01*
X56201904Y-20880952D01*
X55630476Y-21452380D01*
X56249523Y-21452380D01*
X56820952Y-20880952D02*
X56725714Y-20833333D01*
X56678095Y-20785714D01*
X56630476Y-20690476D01*
X56630476Y-20642857D01*
X56678095Y-20547619D01*
X56725714Y-20500000D01*
X56820952Y-20452380D01*
X57011428Y-20452380D01*
X57106666Y-20500000D01*
X57154285Y-20547619D01*
X57201904Y-20642857D01*
X57201904Y-20690476D01*
X57154285Y-20785714D01*
X57106666Y-20833333D01*
X57011428Y-20880952D01*
X56820952Y-20880952D01*
X56725714Y-20928571D01*
X56678095Y-20976190D01*
X56630476Y-21071428D01*
X56630476Y-21261904D01*
X56678095Y-21357142D01*
X56725714Y-21404761D01*
X56820952Y-21452380D01*
X57011428Y-21452380D01*
X57106666Y-21404761D01*
X57154285Y-21357142D01*
X57201904Y-21261904D01*
X57201904Y-21071428D01*
X57154285Y-20976190D01*
X57106666Y-20928571D01*
X57011428Y-20880952D01*
G04 #@! TO.C,R29*
X55152143Y-25452380D02*
X54818810Y-24976190D01*
X54580715Y-25452380D02*
X54580715Y-24452380D01*
X54961667Y-24452380D01*
X55056905Y-24500000D01*
X55104524Y-24547619D01*
X55152143Y-24642857D01*
X55152143Y-24785714D01*
X55104524Y-24880952D01*
X55056905Y-24928571D01*
X54961667Y-24976190D01*
X54580715Y-24976190D01*
X55533096Y-24547619D02*
X55580715Y-24500000D01*
X55675953Y-24452380D01*
X55914048Y-24452380D01*
X56009286Y-24500000D01*
X56056905Y-24547619D01*
X56104524Y-24642857D01*
X56104524Y-24738095D01*
X56056905Y-24880952D01*
X55485477Y-25452380D01*
X56104524Y-25452380D01*
X56580715Y-25452380D02*
X56771191Y-25452380D01*
X56866429Y-25404761D01*
X56914048Y-25357142D01*
X57009286Y-25214285D01*
X57056905Y-25023809D01*
X57056905Y-24642857D01*
X57009286Y-24547619D01*
X56961667Y-24500000D01*
X56866429Y-24452380D01*
X56675953Y-24452380D01*
X56580715Y-24500000D01*
X56533096Y-24547619D01*
X56485477Y-24642857D01*
X56485477Y-24880952D01*
X56533096Y-24976190D01*
X56580715Y-25023809D01*
X56675953Y-25071428D01*
X56866429Y-25071428D01*
X56961667Y-25023809D01*
X57009286Y-24976190D01*
X57056905Y-24880952D01*
G04 #@! TD*
M02*
