G04 #@! TF.GenerationSoftware,KiCad,Pcbnew,(5.0.0)*
G04 #@! TF.CreationDate,2019-01-05T22:50:15+01:00*
G04 #@! TF.ProjectId,1u_bus,31755F6275732E6B696361645F706362,rev?*
G04 #@! TF.SameCoordinates,Original*
G04 #@! TF.FileFunction,Copper,L2,Bot,Signal*
G04 #@! TF.FilePolarity,Positive*
%FSLAX46Y46*%
G04 Gerber Fmt 4.6, Leading zero omitted, Abs format (unit mm)*
G04 Created by KiCad (PCBNEW (5.0.0)) date 01/05/19 22:50:15*
%MOMM*%
%LPD*%
G01*
G04 APERTURE LIST*
G04 #@! TA.AperFunction,ComponentPad*
%ADD10R,1.200000X1.200000*%
G04 #@! TD*
G04 #@! TA.AperFunction,ComponentPad*
%ADD11C,1.200000*%
G04 #@! TD*
G04 #@! TA.AperFunction,ComponentPad*
%ADD12C,1.600000*%
G04 #@! TD*
G04 #@! TA.AperFunction,ComponentPad*
%ADD13O,2.200000X2.200000*%
G04 #@! TD*
G04 #@! TA.AperFunction,ComponentPad*
%ADD14R,2.200000X2.200000*%
G04 #@! TD*
G04 #@! TA.AperFunction,ComponentPad*
%ADD15R,1.800000X1.800000*%
G04 #@! TD*
G04 #@! TA.AperFunction,ComponentPad*
%ADD16C,1.800000*%
G04 #@! TD*
G04 #@! TA.AperFunction,ComponentPad*
%ADD17R,1.700000X1.700000*%
G04 #@! TD*
G04 #@! TA.AperFunction,ComponentPad*
%ADD18O,1.700000X1.700000*%
G04 #@! TD*
G04 #@! TA.AperFunction,ComponentPad*
%ADD19O,1.600000X1.600000*%
G04 #@! TD*
G04 #@! TA.AperFunction,ComponentPad*
%ADD20R,1.600000X1.600000*%
G04 #@! TD*
G04 #@! TA.AperFunction,ComponentPad*
%ADD21C,1.648460*%
G04 #@! TD*
G04 #@! TA.AperFunction,ViaPad*
%ADD22C,0.800000*%
G04 #@! TD*
G04 #@! TA.AperFunction,Conductor*
%ADD23C,0.250000*%
G04 #@! TD*
G04 #@! TA.AperFunction,Conductor*
%ADD24C,0.254000*%
G04 #@! TD*
G04 APERTURE END LIST*
D10*
G04 #@! TO.P,C1,1*
G04 #@! TO.N,/+12V*
X12250000Y-16750000D03*
D11*
G04 #@! TO.P,C1,2*
G04 #@! TO.N,/GND*
X14250000Y-16750000D03*
G04 #@! TD*
G04 #@! TO.P,C2,2*
G04 #@! TO.N,/-12V*
X21500000Y-16750000D03*
D10*
G04 #@! TO.P,C2,1*
G04 #@! TO.N,/GND*
X19500000Y-16750000D03*
G04 #@! TD*
D12*
G04 #@! TO.P,C3,1*
G04 #@! TO.N,/+12V*
X13250000Y-7500000D03*
G04 #@! TO.P,C3,2*
G04 #@! TO.N,/GND*
X18250000Y-7500000D03*
G04 #@! TD*
G04 #@! TO.P,C4,2*
G04 #@! TO.N,/-12V*
X13250000Y-11500000D03*
G04 #@! TO.P,C4,1*
G04 #@! TO.N,/GND*
X18250000Y-11500000D03*
G04 #@! TD*
D13*
G04 #@! TO.P,D1,2*
G04 #@! TO.N,/GND*
X2750000Y-17410000D03*
D14*
G04 #@! TO.P,D1,1*
G04 #@! TO.N,Net-(D1-Pad1)*
X2750000Y-7250000D03*
G04 #@! TD*
G04 #@! TO.P,D2,1*
G04 #@! TO.N,/GND*
X7750000Y-7250000D03*
D13*
G04 #@! TO.P,D2,2*
G04 #@! TO.N,Net-(D2-Pad2)*
X7750000Y-17410000D03*
G04 #@! TD*
D15*
G04 #@! TO.P,D_NEG_1_1,1*
G04 #@! TO.N,Net-(D_NEG_1_1-Pad1)*
X36750000Y-17250000D03*
D16*
G04 #@! TO.P,D_NEG_1_1,2*
G04 #@! TO.N,Net-(D_NEG_1_1-Pad2)*
X39290000Y-17250000D03*
G04 #@! TD*
D15*
G04 #@! TO.P,D_NEG_1_2,1*
G04 #@! TO.N,Net-(D_NEG_1_1-Pad2)*
X156710000Y-17250000D03*
D16*
G04 #@! TO.P,D_NEG_1_2,2*
G04 #@! TO.N,Net-(D_NEG_1_2-Pad2)*
X159250000Y-17250000D03*
G04 #@! TD*
G04 #@! TO.P,D_NEG_1_3,2*
G04 #@! TO.N,Net-(D_NEG_1_3-Pad2)*
X279290000Y-17250000D03*
D15*
G04 #@! TO.P,D_NEG_1_3,1*
G04 #@! TO.N,Net-(D_NEG_1_2-Pad2)*
X276750000Y-17250000D03*
G04 #@! TD*
G04 #@! TO.P,D_NEG_1_4,1*
G04 #@! TO.N,Net-(D_NEG_1_3-Pad2)*
X396750000Y-17250000D03*
D16*
G04 #@! TO.P,D_NEG_1_4,2*
G04 #@! TO.N,Net-(D_NEG_1_4-Pad2)*
X399290000Y-17250000D03*
G04 #@! TD*
D15*
G04 #@! TO.P,D_NEG_2_1,1*
G04 #@! TO.N,Net-(D_NEG_2_1-Pad1)*
X66750000Y-17250000D03*
D16*
G04 #@! TO.P,D_NEG_2_1,2*
G04 #@! TO.N,Net-(D_NEG_2_1-Pad2)*
X69290000Y-17250000D03*
G04 #@! TD*
D15*
G04 #@! TO.P,D_NEG_2_2,1*
G04 #@! TO.N,Net-(D_NEG_2_1-Pad2)*
X186750000Y-17250000D03*
D16*
G04 #@! TO.P,D_NEG_2_2,2*
G04 #@! TO.N,Net-(D_NEG_2_2-Pad2)*
X189290000Y-17250000D03*
G04 #@! TD*
G04 #@! TO.P,D_NEG_2_3,2*
G04 #@! TO.N,Net-(D_NEG_2_3-Pad2)*
X309290000Y-17250000D03*
D15*
G04 #@! TO.P,D_NEG_2_3,1*
G04 #@! TO.N,Net-(D_NEG_2_2-Pad2)*
X306750000Y-17250000D03*
G04 #@! TD*
G04 #@! TO.P,D_NEG_2_4,1*
G04 #@! TO.N,Net-(D_NEG_2_3-Pad2)*
X426750000Y-17250000D03*
D16*
G04 #@! TO.P,D_NEG_2_4,2*
G04 #@! TO.N,Net-(D_NEG_2_4-Pad2)*
X429290000Y-17250000D03*
G04 #@! TD*
D15*
G04 #@! TO.P,D_NEG_3_1,1*
G04 #@! TO.N,Net-(D_NEG_3_1-Pad1)*
X96750000Y-17250000D03*
D16*
G04 #@! TO.P,D_NEG_3_1,2*
G04 #@! TO.N,Net-(D_NEG_3_1-Pad2)*
X99290000Y-17250000D03*
G04 #@! TD*
D15*
G04 #@! TO.P,D_NEG_3_2,1*
G04 #@! TO.N,Net-(D_NEG_3_1-Pad2)*
X216750000Y-17250000D03*
D16*
G04 #@! TO.P,D_NEG_3_2,2*
G04 #@! TO.N,Net-(D_NEG_3_2-Pad2)*
X219290000Y-17250000D03*
G04 #@! TD*
G04 #@! TO.P,D_NEG_3_3,2*
G04 #@! TO.N,Net-(D_NEG_3_3-Pad2)*
X339290000Y-17250000D03*
D15*
G04 #@! TO.P,D_NEG_3_3,1*
G04 #@! TO.N,Net-(D_NEG_3_2-Pad2)*
X336750000Y-17250000D03*
G04 #@! TD*
D16*
G04 #@! TO.P,D_NEG_3_4,2*
G04 #@! TO.N,Net-(D_NEG_3_4-Pad2)*
X459290000Y-17250000D03*
D15*
G04 #@! TO.P,D_NEG_3_4,1*
G04 #@! TO.N,Net-(D_NEG_3_3-Pad2)*
X456750000Y-17250000D03*
G04 #@! TD*
D16*
G04 #@! TO.P,D_NEG_4_1,2*
G04 #@! TO.N,Net-(D_NEG_4_1-Pad2)*
X129290000Y-17250000D03*
D15*
G04 #@! TO.P,D_NEG_4_1,1*
G04 #@! TO.N,Net-(D_NEG_4_1-Pad1)*
X126750000Y-17250000D03*
G04 #@! TD*
G04 #@! TO.P,D_NEG_4_2,1*
G04 #@! TO.N,Net-(D_NEG_4_1-Pad2)*
X246750000Y-17250000D03*
D16*
G04 #@! TO.P,D_NEG_4_2,2*
G04 #@! TO.N,Net-(D_NEG_4_2-Pad2)*
X249290000Y-17250000D03*
G04 #@! TD*
G04 #@! TO.P,D_NEG_4_3,2*
G04 #@! TO.N,Net-(D_NEG_4_3-Pad2)*
X369290000Y-17250000D03*
D15*
G04 #@! TO.P,D_NEG_4_3,1*
G04 #@! TO.N,Net-(D_NEG_4_2-Pad2)*
X366750000Y-17250000D03*
G04 #@! TD*
G04 #@! TO.P,D_NEG_4_4,1*
G04 #@! TO.N,Net-(D_NEG_4_3-Pad2)*
X486750000Y-17250000D03*
D16*
G04 #@! TO.P,D_NEG_4_4,2*
G04 #@! TO.N,Net-(D_NEG_4_4-Pad2)*
X489290000Y-17250000D03*
G04 #@! TD*
G04 #@! TO.P,D_POS_1_1,2*
G04 #@! TO.N,Net-(D_NEG_1_1-Pad1)*
X39290000Y-2750000D03*
D15*
G04 #@! TO.P,D_POS_1_1,1*
G04 #@! TO.N,Net-(D_POS_1_1-Pad1)*
X36750000Y-2750000D03*
G04 #@! TD*
D16*
G04 #@! TO.P,D_POS_1_2,2*
G04 #@! TO.N,Net-(D_POS_1_1-Pad1)*
X159250000Y-2750000D03*
D15*
G04 #@! TO.P,D_POS_1_2,1*
G04 #@! TO.N,Net-(D_POS_1_2-Pad1)*
X156710000Y-2750000D03*
G04 #@! TD*
G04 #@! TO.P,D_POS_1_3,1*
G04 #@! TO.N,Net-(D_POS_1_3-Pad1)*
X276750000Y-2750000D03*
D16*
G04 #@! TO.P,D_POS_1_3,2*
G04 #@! TO.N,Net-(D_POS_1_2-Pad1)*
X279290000Y-2750000D03*
G04 #@! TD*
G04 #@! TO.P,D_POS_1_4,2*
G04 #@! TO.N,Net-(D_POS_1_3-Pad1)*
X399290000Y-2750000D03*
D15*
G04 #@! TO.P,D_POS_1_4,1*
G04 #@! TO.N,Net-(D_NEG_1_4-Pad2)*
X396750000Y-2750000D03*
G04 #@! TD*
D16*
G04 #@! TO.P,D_POS_2_1,2*
G04 #@! TO.N,Net-(D_NEG_2_1-Pad1)*
X69290000Y-2750000D03*
D15*
G04 #@! TO.P,D_POS_2_1,1*
G04 #@! TO.N,Net-(D_POS_2_1-Pad1)*
X66750000Y-2750000D03*
G04 #@! TD*
G04 #@! TO.P,D_POS_2_2,1*
G04 #@! TO.N,Net-(D_POS_2_2-Pad1)*
X186750000Y-2750000D03*
D16*
G04 #@! TO.P,D_POS_2_2,2*
G04 #@! TO.N,Net-(D_POS_2_1-Pad1)*
X189290000Y-2750000D03*
G04 #@! TD*
D15*
G04 #@! TO.P,D_POS_2_3,1*
G04 #@! TO.N,Net-(D_POS_2_3-Pad1)*
X306710000Y-2750000D03*
D16*
G04 #@! TO.P,D_POS_2_3,2*
G04 #@! TO.N,Net-(D_POS_2_2-Pad1)*
X309250000Y-2750000D03*
G04 #@! TD*
G04 #@! TO.P,D_POS_2_4,2*
G04 #@! TO.N,Net-(D_POS_2_3-Pad1)*
X429290000Y-2750000D03*
D15*
G04 #@! TO.P,D_POS_2_4,1*
G04 #@! TO.N,Net-(D_NEG_2_4-Pad2)*
X426750000Y-2750000D03*
G04 #@! TD*
D16*
G04 #@! TO.P,D_POS_3_1,2*
G04 #@! TO.N,Net-(D_NEG_3_1-Pad1)*
X99290000Y-2750000D03*
D15*
G04 #@! TO.P,D_POS_3_1,1*
G04 #@! TO.N,Net-(D_POS_3_1-Pad1)*
X96750000Y-2750000D03*
G04 #@! TD*
G04 #@! TO.P,D_POS_3_2,1*
G04 #@! TO.N,Net-(D_POS_3_2-Pad1)*
X216750000Y-2750000D03*
D16*
G04 #@! TO.P,D_POS_3_2,2*
G04 #@! TO.N,Net-(D_POS_3_1-Pad1)*
X219290000Y-2750000D03*
G04 #@! TD*
G04 #@! TO.P,D_POS_3_3,2*
G04 #@! TO.N,Net-(D_POS_3_2-Pad1)*
X339290000Y-2750000D03*
D15*
G04 #@! TO.P,D_POS_3_3,1*
G04 #@! TO.N,Net-(D_POS_3_3-Pad1)*
X336750000Y-2750000D03*
G04 #@! TD*
D16*
G04 #@! TO.P,D_POS_3_4,2*
G04 #@! TO.N,Net-(D_POS_3_3-Pad1)*
X459290000Y-2750000D03*
D15*
G04 #@! TO.P,D_POS_3_4,1*
G04 #@! TO.N,Net-(D_NEG_3_4-Pad2)*
X456750000Y-2750000D03*
G04 #@! TD*
D16*
G04 #@! TO.P,D_POS_4_1,2*
G04 #@! TO.N,Net-(D_NEG_4_1-Pad1)*
X129290000Y-2750000D03*
D15*
G04 #@! TO.P,D_POS_4_1,1*
G04 #@! TO.N,Net-(D_POS_4_1-Pad1)*
X126750000Y-2750000D03*
G04 #@! TD*
G04 #@! TO.P,D_POS_4_2,1*
G04 #@! TO.N,Net-(D_POS_4_2-Pad1)*
X246750000Y-2750000D03*
D16*
G04 #@! TO.P,D_POS_4_2,2*
G04 #@! TO.N,Net-(D_POS_4_1-Pad1)*
X249290000Y-2750000D03*
G04 #@! TD*
G04 #@! TO.P,D_POS_4_3,2*
G04 #@! TO.N,Net-(D_POS_4_2-Pad1)*
X369290000Y-2750000D03*
D15*
G04 #@! TO.P,D_POS_4_3,1*
G04 #@! TO.N,Net-(D_POS_4_3-Pad1)*
X366750000Y-2750000D03*
G04 #@! TD*
G04 #@! TO.P,D_POS_4_4,1*
G04 #@! TO.N,Net-(D_NEG_4_4-Pad2)*
X486750000Y-2750000D03*
D16*
G04 #@! TO.P,D_POS_4_4,2*
G04 #@! TO.N,Net-(D_POS_4_3-Pad1)*
X489290000Y-2750000D03*
G04 #@! TD*
D17*
G04 #@! TO.P,J1,1*
G04 #@! TO.N,Net-(D2-Pad2)*
X26250000Y-15000000D03*
D18*
G04 #@! TO.P,J1,2*
X28790000Y-15000000D03*
G04 #@! TO.P,J1,3*
G04 #@! TO.N,/GND*
X26250000Y-12460000D03*
G04 #@! TO.P,J1,4*
X28790000Y-12460000D03*
G04 #@! TO.P,J1,5*
X26250000Y-9920000D03*
G04 #@! TO.P,J1,6*
X28790000Y-9920000D03*
G04 #@! TO.P,J1,7*
X26250000Y-7380000D03*
G04 #@! TO.P,J1,8*
X28790000Y-7380000D03*
G04 #@! TO.P,J1,9*
G04 #@! TO.N,Net-(D1-Pad1)*
X26250000Y-4840000D03*
G04 #@! TO.P,J1,10*
X28790000Y-4840000D03*
G04 #@! TD*
D12*
G04 #@! TO.P,R_LED_1_1,1*
G04 #@! TO.N,/cv_bus1/GND*
X78630000Y-3750000D03*
D19*
G04 #@! TO.P,R_LED_1_1,2*
G04 #@! TO.N,Net-(D_NEG_1_4-Pad2)*
X86250000Y-3750000D03*
G04 #@! TD*
D12*
G04 #@! TO.P,R_LED_2_1,1*
G04 #@! TO.N,/cv_bus2/GND*
X199250000Y-3750000D03*
D19*
G04 #@! TO.P,R_LED_2_1,2*
G04 #@! TO.N,Net-(D_NEG_2_4-Pad2)*
X206870000Y-3750000D03*
G04 #@! TD*
G04 #@! TO.P,R_LED_3_1,2*
G04 #@! TO.N,Net-(D_NEG_3_4-Pad2)*
X327370000Y-3750000D03*
D12*
G04 #@! TO.P,R_LED_3_1,1*
G04 #@! TO.N,/cv_bus3/GND*
X319750000Y-3750000D03*
G04 #@! TD*
D19*
G04 #@! TO.P,R_LED_4_1,2*
G04 #@! TO.N,Net-(D_NEG_4_4-Pad2)*
X446120000Y-3750000D03*
D12*
G04 #@! TO.P,R_LED_4_1,1*
G04 #@! TO.N,/cv_bus4/GND*
X438500000Y-3750000D03*
G04 #@! TD*
D19*
G04 #@! TO.P,R_Split_1_1,2*
G04 #@! TO.N,Net-(R_Split_1_1-Pad2)*
X86120000Y-10000000D03*
D12*
G04 #@! TO.P,R_Split_1_1,1*
G04 #@! TO.N,Net-(R_Split_1_1-Pad1)*
X78500000Y-10000000D03*
G04 #@! TD*
G04 #@! TO.P,R_Split_1_2,1*
G04 #@! TO.N,/cv_bus1/GND*
X78500000Y-16250000D03*
D19*
G04 #@! TO.P,R_Split_1_2,2*
G04 #@! TO.N,Net-(R_Split_1_1-Pad2)*
X86120000Y-16250000D03*
G04 #@! TD*
G04 #@! TO.P,R_Split_2_1,2*
G04 #@! TO.N,Net-(R_Split_2_1-Pad2)*
X206870000Y-10000000D03*
D12*
G04 #@! TO.P,R_Split_2_1,1*
G04 #@! TO.N,Net-(R_Split_2_1-Pad1)*
X199250000Y-10000000D03*
G04 #@! TD*
D19*
G04 #@! TO.P,R_Split_2_2,2*
G04 #@! TO.N,Net-(R_Split_2_1-Pad2)*
X206870000Y-16250000D03*
D12*
G04 #@! TO.P,R_Split_2_2,1*
G04 #@! TO.N,/cv_bus2/GND*
X199250000Y-16250000D03*
G04 #@! TD*
G04 #@! TO.P,R_Split_3_1,1*
G04 #@! TO.N,Net-(R_Split_3_1-Pad1)*
X319750000Y-10000000D03*
D19*
G04 #@! TO.P,R_Split_3_1,2*
G04 #@! TO.N,Net-(R_Split_3_1-Pad2)*
X327370000Y-10000000D03*
G04 #@! TD*
D12*
G04 #@! TO.P,R_Split_3_2,1*
G04 #@! TO.N,/cv_bus3/GND*
X319750000Y-16250000D03*
D19*
G04 #@! TO.P,R_Split_3_2,2*
G04 #@! TO.N,Net-(R_Split_3_1-Pad2)*
X327370000Y-16250000D03*
G04 #@! TD*
D12*
G04 #@! TO.P,R_Split_4_1,1*
G04 #@! TO.N,Net-(R_Split_4_1-Pad1)*
X438500000Y-10000000D03*
D19*
G04 #@! TO.P,R_Split_4_1,2*
G04 #@! TO.N,Net-(R_Split_4_1-Pad2)*
X446120000Y-10000000D03*
G04 #@! TD*
G04 #@! TO.P,R_Split_4_2,2*
G04 #@! TO.N,Net-(R_Split_4_1-Pad2)*
X446120000Y-16250000D03*
D12*
G04 #@! TO.P,R_Split_4_2,1*
G04 #@! TO.N,/cv_bus4/GND*
X438500000Y-16250000D03*
G04 #@! TD*
D20*
G04 #@! TO.P,U1,1*
G04 #@! TO.N,Net-(D_NEG_1_1-Pad1)*
X519370000Y-6250000D03*
D19*
G04 #@! TO.P,U1,8*
G04 #@! TO.N,Net-(D_NEG_3_1-Pad1)*
X504130000Y-13870000D03*
G04 #@! TO.P,U1,2*
G04 #@! TO.N,Net-(D_NEG_1_4-Pad2)*
X516830000Y-6250000D03*
G04 #@! TO.P,U1,9*
G04 #@! TO.N,Net-(D_NEG_3_4-Pad2)*
X506670000Y-13870000D03*
G04 #@! TO.P,U1,3*
G04 #@! TO.N,Net-(R_Split_1_1-Pad2)*
X514290000Y-6250000D03*
G04 #@! TO.P,U1,10*
G04 #@! TO.N,Net-(R_Split_3_1-Pad2)*
X509210000Y-13870000D03*
G04 #@! TO.P,U1,4*
G04 #@! TO.N,N/C*
X511750000Y-6250000D03*
G04 #@! TO.P,U1,11*
X511750000Y-13870000D03*
G04 #@! TO.P,U1,5*
G04 #@! TO.N,Net-(R_Split_2_1-Pad2)*
X509210000Y-6250000D03*
G04 #@! TO.P,U1,12*
G04 #@! TO.N,Net-(R_Split_4_1-Pad2)*
X514290000Y-13870000D03*
G04 #@! TO.P,U1,6*
G04 #@! TO.N,Net-(D_NEG_2_4-Pad2)*
X506670000Y-6250000D03*
G04 #@! TO.P,U1,13*
G04 #@! TO.N,Net-(D_NEG_4_4-Pad2)*
X516830000Y-13870000D03*
G04 #@! TO.P,U1,7*
G04 #@! TO.N,Net-(D_NEG_2_1-Pad1)*
X504130000Y-6250000D03*
G04 #@! TO.P,U1,14*
G04 #@! TO.N,Net-(D_NEG_4_1-Pad1)*
X519370000Y-13870000D03*
G04 #@! TD*
D21*
G04 #@! TO.P,U2,P$3_SLEEVE*
G04 #@! TO.N,/cv_bus1/GND*
X44499860Y-10000000D03*
G04 #@! TO.P,U2,P$2_SWITCH*
G04 #@! TO.N,N/C*
X41497580Y-10000000D03*
G04 #@! TO.P,U2,P$1_TIP*
G04 #@! TO.N,Net-(R_Split_1_1-Pad1)*
X33001280Y-10000000D03*
G04 #@! TD*
G04 #@! TO.P,U3,P$1_TIP*
G04 #@! TO.N,Net-(R_Split_1_1-Pad1)*
X153001280Y-10000000D03*
G04 #@! TO.P,U3,P$2_SWITCH*
G04 #@! TO.N,N/C*
X161497580Y-10000000D03*
G04 #@! TO.P,U3,P$3_SLEEVE*
G04 #@! TO.N,/cv_bus1/GND*
X164499860Y-10000000D03*
G04 #@! TD*
G04 #@! TO.P,U4,P$3_SLEEVE*
G04 #@! TO.N,/cv_bus1/GND*
X271500140Y-10000000D03*
G04 #@! TO.P,U4,P$2_SWITCH*
G04 #@! TO.N,N/C*
X274502420Y-10000000D03*
G04 #@! TO.P,U4,P$1_TIP*
G04 #@! TO.N,Net-(R_Split_1_1-Pad1)*
X282998720Y-10000000D03*
G04 #@! TD*
G04 #@! TO.P,U5,P$1_TIP*
G04 #@! TO.N,Net-(R_Split_1_1-Pad1)*
X402998720Y-10000000D03*
G04 #@! TO.P,U5,P$2_SWITCH*
G04 #@! TO.N,N/C*
X394502420Y-10000000D03*
G04 #@! TO.P,U5,P$3_SLEEVE*
G04 #@! TO.N,/cv_bus1/GND*
X391500140Y-10000000D03*
G04 #@! TD*
G04 #@! TO.P,U6,P$3_SLEEVE*
G04 #@! TO.N,/cv_bus2/GND*
X74499860Y-10000000D03*
G04 #@! TO.P,U6,P$2_SWITCH*
G04 #@! TO.N,N/C*
X71497580Y-10000000D03*
G04 #@! TO.P,U6,P$1_TIP*
G04 #@! TO.N,Net-(R_Split_2_1-Pad1)*
X63001280Y-10000000D03*
G04 #@! TD*
G04 #@! TO.P,U7,P$3_SLEEVE*
G04 #@! TO.N,/cv_bus2/GND*
X194499860Y-10000000D03*
G04 #@! TO.P,U7,P$2_SWITCH*
G04 #@! TO.N,N/C*
X191497580Y-10000000D03*
G04 #@! TO.P,U7,P$1_TIP*
G04 #@! TO.N,Net-(R_Split_2_1-Pad1)*
X183001280Y-10000000D03*
G04 #@! TD*
G04 #@! TO.P,U8,P$1_TIP*
G04 #@! TO.N,Net-(R_Split_2_1-Pad1)*
X312998720Y-10000000D03*
G04 #@! TO.P,U8,P$2_SWITCH*
G04 #@! TO.N,N/C*
X304502420Y-10000000D03*
G04 #@! TO.P,U8,P$3_SLEEVE*
G04 #@! TO.N,/cv_bus2/GND*
X301500140Y-10000000D03*
G04 #@! TD*
G04 #@! TO.P,U9,P$3_SLEEVE*
G04 #@! TO.N,/cv_bus2/GND*
X421500140Y-10000000D03*
G04 #@! TO.P,U9,P$2_SWITCH*
G04 #@! TO.N,N/C*
X424502420Y-10000000D03*
G04 #@! TO.P,U9,P$1_TIP*
G04 #@! TO.N,Net-(R_Split_2_1-Pad1)*
X432998720Y-10000000D03*
G04 #@! TD*
G04 #@! TO.P,U10,P$1_TIP*
G04 #@! TO.N,Net-(R_Split_3_1-Pad1)*
X93001280Y-10000000D03*
G04 #@! TO.P,U10,P$2_SWITCH*
G04 #@! TO.N,N/C*
X101497580Y-10000000D03*
G04 #@! TO.P,U10,P$3_SLEEVE*
G04 #@! TO.N,/cv_bus3/GND*
X104499860Y-10000000D03*
G04 #@! TD*
G04 #@! TO.P,U11,P$3_SLEEVE*
G04 #@! TO.N,/cv_bus3/GND*
X224499860Y-10000000D03*
G04 #@! TO.P,U11,P$2_SWITCH*
G04 #@! TO.N,N/C*
X221497580Y-10000000D03*
G04 #@! TO.P,U11,P$1_TIP*
G04 #@! TO.N,Net-(R_Split_3_1-Pad1)*
X213001280Y-10000000D03*
G04 #@! TD*
G04 #@! TO.P,U12,P$1_TIP*
G04 #@! TO.N,Net-(R_Split_3_1-Pad1)*
X342998720Y-10000000D03*
G04 #@! TO.P,U12,P$2_SWITCH*
G04 #@! TO.N,N/C*
X334502420Y-10000000D03*
G04 #@! TO.P,U12,P$3_SLEEVE*
G04 #@! TO.N,/cv_bus3/GND*
X331500140Y-10000000D03*
G04 #@! TD*
G04 #@! TO.P,U13,P$3_SLEEVE*
G04 #@! TO.N,/cv_bus3/GND*
X451500140Y-10000000D03*
G04 #@! TO.P,U13,P$2_SWITCH*
G04 #@! TO.N,N/C*
X454502420Y-10000000D03*
G04 #@! TO.P,U13,P$1_TIP*
G04 #@! TO.N,Net-(R_Split_3_1-Pad1)*
X462998720Y-10000000D03*
G04 #@! TD*
G04 #@! TO.P,U14,P$1_TIP*
G04 #@! TO.N,Net-(R_Split_4_1-Pad1)*
X123001280Y-10000000D03*
G04 #@! TO.P,U14,P$2_SWITCH*
G04 #@! TO.N,N/C*
X131497580Y-10000000D03*
G04 #@! TO.P,U14,P$3_SLEEVE*
G04 #@! TO.N,/cv_bus4/GND*
X134499860Y-10000000D03*
G04 #@! TD*
G04 #@! TO.P,U15,P$1_TIP*
G04 #@! TO.N,Net-(R_Split_4_1-Pad1)*
X243001280Y-10000000D03*
G04 #@! TO.P,U15,P$2_SWITCH*
G04 #@! TO.N,N/C*
X251497580Y-10000000D03*
G04 #@! TO.P,U15,P$3_SLEEVE*
G04 #@! TO.N,/cv_bus4/GND*
X254499860Y-10000000D03*
G04 #@! TD*
G04 #@! TO.P,U16,P$1_TIP*
G04 #@! TO.N,Net-(R_Split_4_1-Pad1)*
X372998720Y-10000000D03*
G04 #@! TO.P,U16,P$2_SWITCH*
G04 #@! TO.N,N/C*
X364502420Y-10000000D03*
G04 #@! TO.P,U16,P$3_SLEEVE*
G04 #@! TO.N,/cv_bus4/GND*
X361500140Y-10000000D03*
G04 #@! TD*
G04 #@! TO.P,U17,P$3_SLEEVE*
G04 #@! TO.N,/cv_bus4/GND*
X481500140Y-10000000D03*
G04 #@! TO.P,U17,P$2_SWITCH*
G04 #@! TO.N,N/C*
X484502420Y-10000000D03*
G04 #@! TO.P,U17,P$1_TIP*
G04 #@! TO.N,Net-(R_Split_4_1-Pad1)*
X492998720Y-10000000D03*
G04 #@! TD*
D12*
G04 #@! TO.P,R_FUSE_1,1*
G04 #@! TO.N,/+12V*
X9870000Y-2250000D03*
D19*
G04 #@! TO.P,R_FUSE_1,2*
G04 #@! TO.N,Net-(D1-Pad1)*
X2250000Y-2250000D03*
G04 #@! TD*
G04 #@! TO.P,R_FUSE_2,2*
G04 #@! TO.N,Net-(D2-Pad2)*
X13130000Y-2250000D03*
D12*
G04 #@! TO.P,R_FUSE_2,1*
G04 #@! TO.N,/-12V*
X20750000Y-2250000D03*
G04 #@! TD*
D22*
G04 #@! TO.N,Net-(D_NEG_4_1-Pad1)*
X124953300Y-7055500D03*
G04 #@! TO.N,Net-(R_Split_2_1-Pad1)*
X356682800Y-9487200D03*
G04 #@! TD*
D23*
G04 #@! TO.N,/+12V*
X12250000Y-15824700D02*
X12111100Y-15685800D01*
X12111100Y-15685800D02*
X12111100Y-8638900D01*
X12111100Y-8638900D02*
X13250000Y-7500000D01*
X12250000Y-16750000D02*
X12250000Y-15824700D01*
X9870000Y-2250000D02*
X11010800Y-1109200D01*
X11010800Y-1109200D02*
X13616900Y-1109200D01*
X13616900Y-1109200D02*
X14285700Y-1778000D01*
X14285700Y-1778000D02*
X14285700Y-6464300D01*
X14285700Y-6464300D02*
X13250000Y-7500000D01*
G04 #@! TO.N,/GND*
X7750000Y-7250000D02*
X7750000Y-8675300D01*
X7750000Y-8675300D02*
X2750000Y-13675300D01*
X2750000Y-13675300D02*
X2750000Y-17410000D01*
X19500000Y-16750000D02*
X14250000Y-16750000D01*
G04 #@! TO.N,/-12V*
X16250000Y-11500000D02*
X21500000Y-16750000D01*
X13250000Y-11500000D02*
X16250000Y-11500000D01*
X20750000Y-2250000D02*
X16250000Y-6750000D01*
X16250000Y-6750000D02*
X16250000Y-11500000D01*
G04 #@! TO.N,Net-(D1-Pad1)*
X2250000Y-2250000D02*
X2250000Y-3375300D01*
X2250000Y-3375300D02*
X2750000Y-3875300D01*
X2750000Y-3875300D02*
X2750000Y-7250000D01*
G04 #@! TO.N,Net-(D2-Pad2)*
X13130000Y-2250000D02*
X13130000Y-3375300D01*
X11324600Y-17410000D02*
X11324600Y-17492500D01*
X11324600Y-17492500D02*
X11510000Y-17677900D01*
X11510000Y-17677900D02*
X22396800Y-17677900D01*
X22396800Y-17677900D02*
X25074700Y-15000000D01*
X13130000Y-3375300D02*
X11324600Y-5180700D01*
X11324600Y-5180700D02*
X11324600Y-17410000D01*
X9175300Y-17410000D02*
X11324600Y-17410000D01*
X26250000Y-15000000D02*
X25074700Y-15000000D01*
X7750000Y-17410000D02*
X9175300Y-17410000D01*
G04 #@! TO.N,Net-(D_NEG_1_1-Pad1)*
X519370000Y-6250000D02*
X518244700Y-6250000D01*
X518244700Y-6250000D02*
X518244700Y-5968700D01*
X518244700Y-5968700D02*
X512834900Y-558900D01*
X512834900Y-558900D02*
X41481100Y-558900D01*
X41481100Y-558900D02*
X39290000Y-2750000D01*
G04 #@! TO.N,Net-(D_NEG_1_1-Pad2)*
X39290000Y-17250000D02*
X40981800Y-18941800D01*
X40981800Y-18941800D02*
X153792900Y-18941800D01*
X153792900Y-18941800D02*
X155484700Y-17250000D01*
X156710000Y-17250000D02*
X155484700Y-17250000D01*
G04 #@! TO.N,Net-(D_NEG_1_4-Pad2)*
X396750000Y-2750000D02*
X397975300Y-2750000D01*
X399290000Y-17250000D02*
X404150800Y-12389200D01*
X404150800Y-12389200D02*
X404150800Y-5826000D01*
X404150800Y-5826000D02*
X399849500Y-1524700D01*
X399849500Y-1524700D02*
X398741000Y-1524700D01*
X398741000Y-1524700D02*
X397975300Y-2290400D01*
X397975300Y-2290400D02*
X397975300Y-2750000D01*
G04 #@! TO.N,Net-(D_NEG_2_1-Pad1)*
X66750000Y-17250000D02*
X66750000Y-16024700D01*
X69290000Y-2750000D02*
X69966900Y-3426900D01*
X69966900Y-3426900D02*
X69966900Y-12807800D01*
X69966900Y-12807800D02*
X66750000Y-16024700D01*
G04 #@! TO.N,Net-(D_NEG_2_2-Pad2)*
X306750000Y-17250000D02*
X305524700Y-17250000D01*
X305524700Y-17250000D02*
X304299300Y-16024600D01*
X304299300Y-16024600D02*
X224566900Y-16024600D01*
X224566900Y-16024600D02*
X222116100Y-18475400D01*
X222116100Y-18475400D02*
X190515400Y-18475400D01*
X190515400Y-18475400D02*
X189290000Y-17250000D01*
G04 #@! TO.N,Net-(D_NEG_2_4-Pad2)*
X426750000Y-2750000D02*
X426750000Y-3975300D01*
X426750000Y-3975300D02*
X429950700Y-7176000D01*
X429950700Y-7176000D02*
X429950700Y-16589300D01*
X429950700Y-16589300D02*
X429290000Y-17250000D01*
G04 #@! TO.N,Net-(D_NEG_3_1-Pad1)*
X96750000Y-17250000D02*
X96750000Y-16024700D01*
X96750000Y-16024700D02*
X95524600Y-14799300D01*
X95524600Y-14799300D02*
X95524600Y-1663700D01*
X95524600Y-1663700D02*
X95663700Y-1524600D01*
X95663700Y-1524600D02*
X98064600Y-1524600D01*
X98064600Y-1524600D02*
X99290000Y-2750000D01*
G04 #@! TO.N,Net-(D_NEG_3_4-Pad2)*
X456750000Y-2750000D02*
X456750000Y-3975300D01*
X459290000Y-17250000D02*
X456043100Y-14003100D01*
X456043100Y-14003100D02*
X456043100Y-4682200D01*
X456043100Y-4682200D02*
X456750000Y-3975300D01*
G04 #@! TO.N,Net-(D_NEG_4_1-Pad2)*
X129290000Y-17250000D02*
X130520700Y-16019300D01*
X130520700Y-16019300D02*
X178796000Y-16019300D01*
X178796000Y-16019300D02*
X181703000Y-18926300D01*
X181703000Y-18926300D02*
X243848400Y-18926300D01*
X243848400Y-18926300D02*
X245524700Y-17250000D01*
X246750000Y-17250000D02*
X245524700Y-17250000D01*
G04 #@! TO.N,Net-(D_NEG_4_1-Pad1)*
X126750000Y-17250000D02*
X126750000Y-16024700D01*
X126750000Y-16024700D02*
X121839700Y-11114400D01*
X121839700Y-11114400D02*
X121839700Y-9528900D01*
X121839700Y-9528900D02*
X124313100Y-7055500D01*
X124313100Y-7055500D02*
X124953300Y-7055500D01*
G04 #@! TO.N,Net-(D_NEG_4_2-Pad2)*
X366750000Y-17250000D02*
X365524700Y-17250000D01*
X365524700Y-17250000D02*
X364299300Y-18475400D01*
X364299300Y-18475400D02*
X250515400Y-18475400D01*
X250515400Y-18475400D02*
X249290000Y-17250000D01*
G04 #@! TO.N,Net-(D_NEG_4_3-Pad2)*
X486750000Y-17250000D02*
X485524700Y-17250000D01*
X369290000Y-17250000D02*
X371426300Y-19386300D01*
X371426300Y-19386300D02*
X483388400Y-19386300D01*
X483388400Y-19386300D02*
X485524700Y-17250000D01*
G04 #@! TO.N,Net-(D_NEG_4_4-Pad2)*
X496700000Y-15022800D02*
X496700000Y-12011200D01*
X496700000Y-12011200D02*
X487975300Y-3286500D01*
X487975300Y-3286500D02*
X487975300Y-2750000D01*
X489290000Y-17250000D02*
X494472800Y-17250000D01*
X494472800Y-17250000D02*
X496700000Y-15022800D01*
X515704700Y-13870000D02*
X515704700Y-14151300D01*
X515704700Y-14151300D02*
X514833200Y-15022800D01*
X514833200Y-15022800D02*
X496700000Y-15022800D01*
X486750000Y-2750000D02*
X487975300Y-2750000D01*
X516830000Y-13870000D02*
X515704700Y-13870000D01*
G04 #@! TO.N,Net-(D_POS_1_3-Pad1)*
X276750000Y-2750000D02*
X277975300Y-2750000D01*
X399290000Y-2750000D02*
X397604300Y-4435700D01*
X397604300Y-4435700D02*
X331668400Y-4435700D01*
X331668400Y-4435700D02*
X328757400Y-1524700D01*
X328757400Y-1524700D02*
X278741000Y-1524700D01*
X278741000Y-1524700D02*
X277975300Y-2290400D01*
X277975300Y-2290400D02*
X277975300Y-2750000D01*
G04 #@! TO.N,Net-(D_POS_2_1-Pad1)*
X66750000Y-2750000D02*
X67975300Y-2750000D01*
X67975300Y-2750000D02*
X67975300Y-2290500D01*
X67975300Y-2290500D02*
X69192100Y-1073700D01*
X69192100Y-1073700D02*
X120490000Y-1073700D01*
X120490000Y-1073700D02*
X123391700Y-3975400D01*
X123391700Y-3975400D02*
X188064600Y-3975400D01*
X188064600Y-3975400D02*
X189290000Y-2750000D01*
G04 #@! TO.N,Net-(D_POS_2_2-Pad1)*
X187975300Y-2750000D02*
X187975300Y-2290400D01*
X187975300Y-2290400D02*
X188741000Y-1524700D01*
X188741000Y-1524700D02*
X242297600Y-1524700D01*
X242297600Y-1524700D02*
X245198600Y-4425700D01*
X245198600Y-4425700D02*
X307574300Y-4425700D01*
X307574300Y-4425700D02*
X309250000Y-2750000D01*
X186750000Y-2750000D02*
X187975300Y-2750000D01*
G04 #@! TO.N,Net-(D_POS_3_1-Pad1)*
X96750000Y-2750000D02*
X97975300Y-2750000D01*
X97975300Y-2750000D02*
X97975300Y-3209500D01*
X97975300Y-3209500D02*
X99651300Y-4885500D01*
X99651300Y-4885500D02*
X217154500Y-4885500D01*
X217154500Y-4885500D02*
X219290000Y-2750000D01*
G04 #@! TO.N,Net-(D_POS_4_1-Pad1)*
X126750000Y-2750000D02*
X127975300Y-2750000D01*
X127975300Y-2750000D02*
X127975300Y-2290500D01*
X127975300Y-2290500D02*
X129214700Y-1051100D01*
X129214700Y-1051100D02*
X242460900Y-1051100D01*
X242460900Y-1051100D02*
X245385200Y-3975400D01*
X245385200Y-3975400D02*
X248064600Y-3975400D01*
X248064600Y-3975400D02*
X249290000Y-2750000D01*
G04 #@! TO.N,Net-(D_POS_4_2-Pad1)*
X246750000Y-2750000D02*
X247975300Y-2750000D01*
X369290000Y-2750000D02*
X368064600Y-3975400D01*
X368064600Y-3975400D02*
X342248300Y-3975400D01*
X342248300Y-3975400D02*
X339346600Y-1073700D01*
X339346600Y-1073700D02*
X249192100Y-1073700D01*
X249192100Y-1073700D02*
X247975300Y-2290500D01*
X247975300Y-2290500D02*
X247975300Y-2750000D01*
G04 #@! TO.N,Net-(D_POS_4_3-Pad1)*
X366750000Y-2750000D02*
X367975300Y-2750000D01*
X367975300Y-2750000D02*
X367975300Y-2290500D01*
X367975300Y-2290500D02*
X369202100Y-1063700D01*
X369202100Y-1063700D02*
X487603700Y-1063700D01*
X487603700Y-1063700D02*
X489290000Y-2750000D01*
G04 #@! TO.N,/cv_bus1/GND*
X79638900Y-16250000D02*
X78500000Y-16250000D01*
X164499900Y-10000000D02*
X162546900Y-11953000D01*
X162546900Y-11953000D02*
X144669900Y-11953000D01*
X144669900Y-11953000D02*
X138984900Y-6268000D01*
X138984900Y-6268000D02*
X114269900Y-6268000D01*
X114269900Y-6268000D02*
X102058000Y-18479900D01*
X102058000Y-18479900D02*
X81868800Y-18479900D01*
X81868800Y-18479900D02*
X79638900Y-16250000D01*
X79638900Y-16250000D02*
X79638900Y-4758900D01*
X79638900Y-4758900D02*
X78630000Y-3750000D01*
X271500100Y-10000000D02*
X268613500Y-7113400D01*
X268613500Y-7113400D02*
X167386500Y-7113400D01*
X167386500Y-7113400D02*
X164499900Y-10000000D01*
X391500100Y-10000000D02*
X387438800Y-5938700D01*
X387438800Y-5938700D02*
X324305400Y-5938700D01*
X324305400Y-5938700D02*
X320977400Y-2610700D01*
X320977400Y-2610700D02*
X319241700Y-2610700D01*
X319241700Y-2610700D02*
X315151100Y-6701300D01*
X315151100Y-6701300D02*
X290192400Y-6701300D01*
X290192400Y-6701300D02*
X284960200Y-11933500D01*
X284960200Y-11933500D02*
X273433600Y-11933500D01*
X273433600Y-11933500D02*
X271500100Y-10000000D01*
G04 #@! TO.N,/cv_bus2/GND*
X301500100Y-12180700D02*
X302257000Y-12937600D01*
X302257000Y-12937600D02*
X354960800Y-12937600D01*
X354960800Y-12937600D02*
X359048900Y-8849500D01*
X359048900Y-8849500D02*
X362039000Y-8849500D01*
X362039000Y-8849500D02*
X363001300Y-9811800D01*
X363001300Y-9811800D02*
X363001300Y-10124600D01*
X363001300Y-10124600D02*
X364802100Y-11925400D01*
X364802100Y-11925400D02*
X388901700Y-11925400D01*
X388901700Y-11925400D02*
X395454800Y-18478500D01*
X395454800Y-18478500D02*
X413021600Y-18478500D01*
X413021600Y-18478500D02*
X421500100Y-10000000D01*
X199327000Y-14827100D02*
X206111200Y-8042900D01*
X206111200Y-8042900D02*
X228299400Y-8042900D01*
X228299400Y-8042900D02*
X231421000Y-11164500D01*
X231421000Y-11164500D02*
X244045000Y-11164500D01*
X244045000Y-11164500D02*
X247155600Y-8053900D01*
X247155600Y-8053900D02*
X255619300Y-8053900D01*
X255619300Y-8053900D02*
X260452000Y-12886600D01*
X260452000Y-12886600D02*
X300794200Y-12886600D01*
X300794200Y-12886600D02*
X301500100Y-12180700D01*
X301500100Y-10000000D02*
X301500100Y-12180700D01*
X199327000Y-14827100D02*
X194499900Y-10000000D01*
X199250000Y-16250000D02*
X199250000Y-14904100D01*
X199250000Y-14904100D02*
X199327000Y-14827100D01*
G04 #@! TO.N,/cv_bus3/GND*
X319750000Y-16250000D02*
X318384800Y-14884800D01*
X318384800Y-14884800D02*
X229384700Y-14884800D01*
X229384700Y-14884800D02*
X224499900Y-10000000D01*
X331500100Y-10000000D02*
X328792700Y-7292600D01*
X328792700Y-7292600D02*
X323292600Y-7292600D01*
X323292600Y-7292600D02*
X319750000Y-3750000D01*
G04 #@! TO.N,/cv_bus4/GND*
X438500000Y-16250000D02*
X440726900Y-18476900D01*
X440726900Y-18476900D02*
X473023200Y-18476900D01*
X473023200Y-18476900D02*
X481500100Y-10000000D01*
X437326800Y-16250000D02*
X438500000Y-16250000D01*
X361500100Y-10000000D02*
X358073600Y-13426500D01*
X358073600Y-13426500D02*
X255984300Y-13426500D01*
X255984300Y-13426500D02*
X254499900Y-11942100D01*
X361500100Y-10000000D02*
X365226700Y-13726600D01*
X365226700Y-13726600D02*
X390066000Y-13726600D01*
X390066000Y-13726600D02*
X395268300Y-18928900D01*
X395268300Y-18928900D02*
X434647900Y-18928900D01*
X434647900Y-18928900D02*
X437326800Y-16250000D01*
X134499900Y-10000000D02*
X138443200Y-13943300D01*
X138443200Y-13943300D02*
X194641600Y-13943300D01*
X194641600Y-13943300D02*
X198083300Y-17385000D01*
X198083300Y-17385000D02*
X208363100Y-17385000D01*
X208363100Y-17385000D02*
X213822700Y-11925400D01*
X213822700Y-11925400D02*
X221198000Y-11925400D01*
X221198000Y-11925400D02*
X223158100Y-9965300D01*
X223158100Y-9965300D02*
X223158100Y-9716100D01*
X223158100Y-9716100D02*
X224046600Y-8827600D01*
X224046600Y-8827600D02*
X225148800Y-8827600D01*
X225148800Y-8827600D02*
X228263300Y-11942100D01*
X228263300Y-11942100D02*
X254499900Y-11942100D01*
X437326800Y-16250000D02*
X437326800Y-4923200D01*
X437326800Y-4923200D02*
X438500000Y-3750000D01*
X254499900Y-11942100D02*
X254499900Y-10000000D01*
G04 #@! TO.N,Net-(R_Split_1_1-Pad2)*
X86120000Y-10000000D02*
X86120000Y-16250000D01*
G04 #@! TO.N,Net-(R_Split_1_1-Pad1)*
X402998700Y-10000000D02*
X397904400Y-4905700D01*
X397904400Y-4905700D02*
X324233800Y-4905700D01*
X324233800Y-4905700D02*
X321488400Y-2160300D01*
X321488400Y-2160300D02*
X316561800Y-2160300D01*
X316561800Y-2160300D02*
X312620300Y-6101800D01*
X312620300Y-6101800D02*
X286896900Y-6101800D01*
X286896900Y-6101800D02*
X282998700Y-10000000D01*
X78500000Y-10000000D02*
X70024600Y-18475400D01*
X70024600Y-18475400D02*
X43752500Y-18475400D01*
X43752500Y-18475400D02*
X35277100Y-10000000D01*
X35277100Y-10000000D02*
X33001300Y-10000000D01*
X282998700Y-10000000D02*
X279655400Y-6656700D01*
X279655400Y-6656700D02*
X156344600Y-6656700D01*
X156344600Y-6656700D02*
X153001300Y-10000000D01*
G04 #@! TO.N,Net-(R_Split_2_1-Pad2)*
X206870000Y-16250000D02*
X206870000Y-10000000D01*
G04 #@! TO.N,Net-(R_Split_2_1-Pad1)*
X312998700Y-10000000D02*
X315439200Y-12440500D01*
X315439200Y-12440500D02*
X353729500Y-12440500D01*
X353729500Y-12440500D02*
X356682800Y-9487200D01*
X199250000Y-10000000D02*
X197304900Y-8054900D01*
X197304900Y-8054900D02*
X184946400Y-8054900D01*
X184946400Y-8054900D02*
X183001300Y-10000000D01*
G04 #@! TO.N,Net-(R_Split_3_1-Pad1)*
X342998700Y-10000000D02*
X341032800Y-11965900D01*
X341032800Y-11965900D02*
X321715900Y-11965900D01*
X321715900Y-11965900D02*
X319750000Y-10000000D01*
G04 #@! TO.N,Net-(R_Split_4_1-Pad1)*
X123001300Y-10000000D02*
X124953300Y-8048000D01*
X124953300Y-8048000D02*
X135402200Y-8048000D01*
X135402200Y-8048000D02*
X139757600Y-12403400D01*
X139757600Y-12403400D02*
X165596600Y-12403400D01*
X165596600Y-12403400D02*
X170407500Y-7592500D01*
X170407500Y-7592500D02*
X240593800Y-7592500D01*
X240593800Y-7592500D02*
X243001300Y-10000000D01*
X438500000Y-10000000D02*
X443119800Y-10000000D01*
X443119800Y-10000000D02*
X451605700Y-1514100D01*
X451605700Y-1514100D02*
X468132900Y-1514100D01*
X468132900Y-1514100D02*
X473931400Y-7312600D01*
X473931400Y-7312600D02*
X490311300Y-7312600D01*
X490311300Y-7312600D02*
X492998700Y-10000000D01*
X243001300Y-10000000D02*
X245437500Y-7563800D01*
X245437500Y-7563800D02*
X265267300Y-7563800D01*
X265267300Y-7563800D02*
X270139700Y-12436200D01*
X270139700Y-12436200D02*
X295461700Y-12436200D01*
X295461700Y-12436200D02*
X299834300Y-8063600D01*
X299834300Y-8063600D02*
X323107300Y-8063600D01*
X323107300Y-8063600D02*
X326216400Y-11172700D01*
X326216400Y-11172700D02*
X335001900Y-11172700D01*
X335001900Y-11172700D02*
X336074700Y-10099900D01*
X336074700Y-10099900D02*
X336074700Y-9202500D01*
X336074700Y-9202500D02*
X337216200Y-8061000D01*
X337216200Y-8061000D02*
X371059700Y-8061000D01*
X371059700Y-8061000D02*
X372998700Y-10000000D01*
G04 #@! TO.N,Net-(R_Split_4_1-Pad2)*
X446120000Y-16250000D02*
X446120000Y-10000000D01*
G04 #@! TD*
D24*
G04 #@! TO.N,/GND*
G36*
X10208302Y-836896D02*
X10155439Y-815000D01*
X9584561Y-815000D01*
X9057138Y-1033466D01*
X8653466Y-1437138D01*
X8435000Y-1964561D01*
X8435000Y-2535439D01*
X8653466Y-3062862D01*
X9057138Y-3466534D01*
X9584561Y-3685000D01*
X10155439Y-3685000D01*
X10682862Y-3466534D01*
X11086534Y-3062862D01*
X11305000Y-2535439D01*
X11305000Y-1964561D01*
X11283104Y-1911698D01*
X11325602Y-1869200D01*
X11742633Y-1869200D01*
X11666887Y-2250000D01*
X11778260Y-2809909D01*
X12095423Y-3284577D01*
X12125695Y-3304804D01*
X10840130Y-4590369D01*
X10776671Y-4632771D01*
X10608696Y-4884164D01*
X10564600Y-5105849D01*
X10564600Y-5105853D01*
X10549712Y-5180700D01*
X10564600Y-5255547D01*
X10564601Y-16650000D01*
X9328850Y-16650000D01*
X9000865Y-16159135D01*
X8426963Y-15775666D01*
X7920880Y-15675000D01*
X7579120Y-15675000D01*
X7073037Y-15775666D01*
X6499135Y-16159135D01*
X6115666Y-16733037D01*
X5981010Y-17410000D01*
X6115666Y-18086963D01*
X6499135Y-18660865D01*
X7073037Y-19044334D01*
X7579120Y-19145000D01*
X7920880Y-19145000D01*
X8426963Y-19044334D01*
X9000865Y-18660865D01*
X9328850Y-18170000D01*
X10924767Y-18170000D01*
X10962071Y-18225829D01*
X11213463Y-18393804D01*
X11435148Y-18437900D01*
X11435152Y-18437900D01*
X11509999Y-18452788D01*
X11584846Y-18437900D01*
X22321953Y-18437900D01*
X22396800Y-18452788D01*
X22471647Y-18437900D01*
X22471652Y-18437900D01*
X22693337Y-18393804D01*
X22944729Y-18225829D01*
X22987131Y-18162370D01*
X24901937Y-16247565D01*
X24942191Y-16307809D01*
X25152235Y-16448157D01*
X25400000Y-16497440D01*
X27100000Y-16497440D01*
X27347765Y-16448157D01*
X27557809Y-16307809D01*
X27698157Y-16097765D01*
X27707184Y-16052381D01*
X27719375Y-16070625D01*
X28210582Y-16398839D01*
X28643744Y-16485000D01*
X28936256Y-16485000D01*
X29369418Y-16398839D01*
X29860625Y-16070625D01*
X30188839Y-15579418D01*
X30304092Y-15000000D01*
X30188839Y-14420582D01*
X29860625Y-13929375D01*
X29541522Y-13716157D01*
X29671358Y-13655183D01*
X30061645Y-13226924D01*
X30231476Y-12816890D01*
X30110155Y-12587000D01*
X28917000Y-12587000D01*
X28917000Y-12607000D01*
X28663000Y-12607000D01*
X28663000Y-12587000D01*
X26377000Y-12587000D01*
X26377000Y-12607000D01*
X26123000Y-12607000D01*
X26123000Y-12587000D01*
X24929845Y-12587000D01*
X24808524Y-12816890D01*
X24978355Y-13226924D01*
X25255708Y-13531261D01*
X25152235Y-13551843D01*
X24942191Y-13692191D01*
X24801843Y-13902235D01*
X24752560Y-14150000D01*
X24752560Y-14301203D01*
X24744039Y-14306897D01*
X24590226Y-14409671D01*
X24590224Y-14409673D01*
X24526771Y-14452071D01*
X24484373Y-14515524D01*
X22664868Y-16335030D01*
X22546982Y-16050429D01*
X22199571Y-15703018D01*
X21745657Y-15515000D01*
X21339802Y-15515000D01*
X18703245Y-12878443D01*
X19004005Y-12753864D01*
X19078139Y-12507745D01*
X18250000Y-11679605D01*
X18235858Y-11693748D01*
X18056253Y-11514143D01*
X18070395Y-11500000D01*
X18429605Y-11500000D01*
X19257745Y-12328139D01*
X19503864Y-12254005D01*
X19696965Y-11716777D01*
X19669778Y-11146546D01*
X19503864Y-10745995D01*
X19257745Y-10671861D01*
X18429605Y-11500000D01*
X18070395Y-11500000D01*
X17242255Y-10671861D01*
X17010000Y-10741819D01*
X17010000Y-10492255D01*
X17421861Y-10492255D01*
X18250000Y-11320395D01*
X19078139Y-10492255D01*
X19013269Y-10276890D01*
X24808524Y-10276890D01*
X24978355Y-10686924D01*
X25368642Y-11115183D01*
X25527954Y-11190000D01*
X25368642Y-11264817D01*
X24978355Y-11693076D01*
X24808524Y-12103110D01*
X24929845Y-12333000D01*
X26123000Y-12333000D01*
X26123000Y-10047000D01*
X26377000Y-10047000D01*
X26377000Y-12333000D01*
X28663000Y-12333000D01*
X28663000Y-10047000D01*
X28917000Y-10047000D01*
X28917000Y-12333000D01*
X30110155Y-12333000D01*
X30231476Y-12103110D01*
X30061645Y-11693076D01*
X29671358Y-11264817D01*
X29512046Y-11190000D01*
X29671358Y-11115183D01*
X30061645Y-10686924D01*
X30231476Y-10276890D01*
X30110155Y-10047000D01*
X28917000Y-10047000D01*
X28663000Y-10047000D01*
X26377000Y-10047000D01*
X26123000Y-10047000D01*
X24929845Y-10047000D01*
X24808524Y-10276890D01*
X19013269Y-10276890D01*
X19004005Y-10246136D01*
X18466777Y-10053035D01*
X17896546Y-10080222D01*
X17495995Y-10246136D01*
X17421861Y-10492255D01*
X17010000Y-10492255D01*
X17010000Y-8507745D01*
X17421861Y-8507745D01*
X17495995Y-8753864D01*
X18033223Y-8946965D01*
X18603454Y-8919778D01*
X19004005Y-8753864D01*
X19078139Y-8507745D01*
X18250000Y-7679605D01*
X17421861Y-8507745D01*
X17010000Y-8507745D01*
X17010000Y-8258181D01*
X17242255Y-8328139D01*
X18070395Y-7500000D01*
X18429605Y-7500000D01*
X19257745Y-8328139D01*
X19503864Y-8254005D01*
X19689735Y-7736890D01*
X24808524Y-7736890D01*
X24978355Y-8146924D01*
X25368642Y-8575183D01*
X25527954Y-8650000D01*
X25368642Y-8724817D01*
X24978355Y-9153076D01*
X24808524Y-9563110D01*
X24929845Y-9793000D01*
X26123000Y-9793000D01*
X26123000Y-7507000D01*
X26377000Y-7507000D01*
X26377000Y-9793000D01*
X28663000Y-9793000D01*
X28663000Y-7507000D01*
X28917000Y-7507000D01*
X28917000Y-9793000D01*
X30110155Y-9793000D01*
X30231476Y-9563110D01*
X30061645Y-9153076D01*
X29671358Y-8724817D01*
X29512046Y-8650000D01*
X29671358Y-8575183D01*
X30061645Y-8146924D01*
X30231476Y-7736890D01*
X30110155Y-7507000D01*
X28917000Y-7507000D01*
X28663000Y-7507000D01*
X26377000Y-7507000D01*
X26123000Y-7507000D01*
X24929845Y-7507000D01*
X24808524Y-7736890D01*
X19689735Y-7736890D01*
X19696965Y-7716777D01*
X19669778Y-7146546D01*
X19503864Y-6745995D01*
X19257745Y-6671861D01*
X18429605Y-7500000D01*
X18070395Y-7500000D01*
X18056252Y-7485858D01*
X18235858Y-7306252D01*
X18250000Y-7320395D01*
X19078139Y-6492255D01*
X19004005Y-6246136D01*
X18466777Y-6053035D01*
X17999487Y-6075314D01*
X19234801Y-4840000D01*
X24735908Y-4840000D01*
X24851161Y-5419418D01*
X25179375Y-5910625D01*
X25498478Y-6123843D01*
X25368642Y-6184817D01*
X24978355Y-6613076D01*
X24808524Y-7023110D01*
X24929845Y-7253000D01*
X26123000Y-7253000D01*
X26123000Y-7233000D01*
X26377000Y-7233000D01*
X26377000Y-7253000D01*
X28663000Y-7253000D01*
X28663000Y-7233000D01*
X28917000Y-7233000D01*
X28917000Y-7253000D01*
X30110155Y-7253000D01*
X30231476Y-7023110D01*
X30061645Y-6613076D01*
X29671358Y-6184817D01*
X29541522Y-6123843D01*
X29860625Y-5910625D01*
X30188839Y-5419418D01*
X30304092Y-4840000D01*
X30188839Y-4260582D01*
X29860625Y-3769375D01*
X29369418Y-3441161D01*
X28936256Y-3355000D01*
X28643744Y-3355000D01*
X28210582Y-3441161D01*
X27719375Y-3769375D01*
X27520000Y-4067761D01*
X27320625Y-3769375D01*
X26829418Y-3441161D01*
X26396256Y-3355000D01*
X26103744Y-3355000D01*
X25670582Y-3441161D01*
X25179375Y-3769375D01*
X24851161Y-4260582D01*
X24735908Y-4840000D01*
X19234801Y-4840000D01*
X20411698Y-3663104D01*
X20464561Y-3685000D01*
X21035439Y-3685000D01*
X21562862Y-3466534D01*
X21966534Y-3062862D01*
X22185000Y-2535439D01*
X22185000Y-1964561D01*
X21966534Y-1437138D01*
X21562862Y-1033466D01*
X21035439Y-815000D01*
X20464561Y-815000D01*
X19937138Y-1033466D01*
X19533466Y-1437138D01*
X19315000Y-1964561D01*
X19315000Y-2535439D01*
X19336896Y-2588302D01*
X15765530Y-6159669D01*
X15702071Y-6202071D01*
X15534096Y-6453464D01*
X15490000Y-6675149D01*
X15490000Y-6675153D01*
X15475112Y-6750000D01*
X15490000Y-6824847D01*
X15490001Y-10740000D01*
X14488430Y-10740000D01*
X14466534Y-10687138D01*
X14062862Y-10283466D01*
X13535439Y-10065000D01*
X12964561Y-10065000D01*
X12871100Y-10103713D01*
X12871100Y-8953701D01*
X12911698Y-8913103D01*
X12964561Y-8935000D01*
X13535439Y-8935000D01*
X14062862Y-8716534D01*
X14466534Y-8312862D01*
X14685000Y-7785439D01*
X14685000Y-7214561D01*
X14663104Y-7161698D01*
X14770173Y-7054629D01*
X14833629Y-7012229D01*
X15001604Y-6760837D01*
X15045700Y-6539152D01*
X15045700Y-6539147D01*
X15060588Y-6464300D01*
X15045700Y-6389453D01*
X15045700Y-1852846D01*
X15060588Y-1777999D01*
X15045700Y-1703152D01*
X15045700Y-1703148D01*
X15001604Y-1481463D01*
X14833629Y-1230071D01*
X14770173Y-1187671D01*
X14317501Y-735000D01*
X40230198Y-735000D01*
X39704838Y-1260360D01*
X39595330Y-1215000D01*
X38984670Y-1215000D01*
X38420493Y-1448690D01*
X38251275Y-1617908D01*
X38248157Y-1602235D01*
X38107809Y-1392191D01*
X37897765Y-1251843D01*
X37650000Y-1202560D01*
X35850000Y-1202560D01*
X35602235Y-1251843D01*
X35392191Y-1392191D01*
X35251843Y-1602235D01*
X35202560Y-1850000D01*
X35202560Y-3650000D01*
X35251843Y-3897765D01*
X35392191Y-4107809D01*
X35602235Y-4248157D01*
X35850000Y-4297440D01*
X37650000Y-4297440D01*
X37897765Y-4248157D01*
X38107809Y-4107809D01*
X38248157Y-3897765D01*
X38251275Y-3882092D01*
X38420493Y-4051310D01*
X38984670Y-4285000D01*
X39595330Y-4285000D01*
X40159507Y-4051310D01*
X40591310Y-3619507D01*
X40825000Y-3055330D01*
X40825000Y-2444670D01*
X40779640Y-2335162D01*
X41795903Y-1318900D01*
X65501878Y-1318900D01*
X65392191Y-1392191D01*
X65251843Y-1602235D01*
X65202560Y-1850000D01*
X65202560Y-3650000D01*
X65251843Y-3897765D01*
X65392191Y-4107809D01*
X65602235Y-4248157D01*
X65850000Y-4297440D01*
X67650000Y-4297440D01*
X67897765Y-4248157D01*
X68107809Y-4107809D01*
X68248157Y-3897765D01*
X68251275Y-3882092D01*
X68420493Y-4051310D01*
X68984670Y-4285000D01*
X69206900Y-4285000D01*
X69206900Y-8080768D01*
X68444569Y-7765000D01*
X67555431Y-7765000D01*
X66733974Y-8105259D01*
X66105259Y-8733974D01*
X65765000Y-9555431D01*
X65765000Y-10444569D01*
X66105259Y-11266026D01*
X66733974Y-11894741D01*
X67555431Y-12235000D01*
X68444569Y-12235000D01*
X69206901Y-11919231D01*
X69206901Y-12492997D01*
X66265528Y-15434371D01*
X66202072Y-15476771D01*
X66159673Y-15540226D01*
X66159671Y-15540228D01*
X66051204Y-15702560D01*
X65850000Y-15702560D01*
X65602235Y-15751843D01*
X65392191Y-15892191D01*
X65251843Y-16102235D01*
X65202560Y-16350000D01*
X65202560Y-17715400D01*
X44067302Y-17715400D01*
X38545213Y-12193312D01*
X39266026Y-11894741D01*
X39894741Y-11266026D01*
X40168634Y-10604791D01*
X40260505Y-10826587D01*
X40670993Y-11237075D01*
X41207321Y-11459230D01*
X41787839Y-11459230D01*
X42324167Y-11237075D01*
X42734655Y-10826587D01*
X42956810Y-10290259D01*
X42956810Y-9709741D01*
X43040630Y-9709741D01*
X43040630Y-10290259D01*
X43262785Y-10826587D01*
X43673273Y-11237075D01*
X44209601Y-11459230D01*
X44790119Y-11459230D01*
X45326447Y-11237075D01*
X45736935Y-10826587D01*
X45959090Y-10290259D01*
X45959090Y-9709741D01*
X61542050Y-9709741D01*
X61542050Y-10290259D01*
X61764205Y-10826587D01*
X62174693Y-11237075D01*
X62711021Y-11459230D01*
X63291539Y-11459230D01*
X63827867Y-11237075D01*
X64238355Y-10826587D01*
X64460510Y-10290259D01*
X64460510Y-9709741D01*
X64238355Y-9173413D01*
X63827867Y-8762925D01*
X63291539Y-8540770D01*
X62711021Y-8540770D01*
X62174693Y-8762925D01*
X61764205Y-9173413D01*
X61542050Y-9709741D01*
X45959090Y-9709741D01*
X45736935Y-9173413D01*
X45326447Y-8762925D01*
X44790119Y-8540770D01*
X44209601Y-8540770D01*
X43673273Y-8762925D01*
X43262785Y-9173413D01*
X43040630Y-9709741D01*
X42956810Y-9709741D01*
X42734655Y-9173413D01*
X42324167Y-8762925D01*
X41787839Y-8540770D01*
X41207321Y-8540770D01*
X40670993Y-8762925D01*
X40260505Y-9173413D01*
X40168634Y-9395209D01*
X39894741Y-8733974D01*
X39266026Y-8105259D01*
X38444569Y-7765000D01*
X37555431Y-7765000D01*
X36733974Y-8105259D01*
X36105259Y-8733974D01*
X35811545Y-9443061D01*
X35573637Y-9284096D01*
X35351952Y-9240000D01*
X35351947Y-9240000D01*
X35277100Y-9225112D01*
X35202253Y-9240000D01*
X34265936Y-9240000D01*
X34238355Y-9173413D01*
X33827867Y-8762925D01*
X33291539Y-8540770D01*
X32711021Y-8540770D01*
X32174693Y-8762925D01*
X31764205Y-9173413D01*
X31542050Y-9709741D01*
X31542050Y-10290259D01*
X31764205Y-10826587D01*
X32174693Y-11237075D01*
X32711021Y-11459230D01*
X33291539Y-11459230D01*
X33827867Y-11237075D01*
X34238355Y-10826587D01*
X34265936Y-10760000D01*
X34962299Y-10760000D01*
X40144965Y-15942666D01*
X39595330Y-15715000D01*
X38984670Y-15715000D01*
X38420493Y-15948690D01*
X38251275Y-16117908D01*
X38248157Y-16102235D01*
X38107809Y-15892191D01*
X37897765Y-15751843D01*
X37650000Y-15702560D01*
X35850000Y-15702560D01*
X35602235Y-15751843D01*
X35392191Y-15892191D01*
X35251843Y-16102235D01*
X35202560Y-16350000D01*
X35202560Y-18150000D01*
X35251843Y-18397765D01*
X35392191Y-18607809D01*
X35602235Y-18748157D01*
X35850000Y-18797440D01*
X37650000Y-18797440D01*
X37897765Y-18748157D01*
X38107809Y-18607809D01*
X38248157Y-18397765D01*
X38251275Y-18382092D01*
X38420493Y-18551310D01*
X38984670Y-18785000D01*
X39595330Y-18785000D01*
X39704838Y-18739640D01*
X40230198Y-19265000D01*
X735000Y-19265000D01*
X735000Y-17806123D01*
X1060817Y-17806123D01*
X1340988Y-18422392D01*
X1835668Y-18884534D01*
X2353878Y-19099175D01*
X2623000Y-18981125D01*
X2623000Y-17537000D01*
X2877000Y-17537000D01*
X2877000Y-18981125D01*
X3146122Y-19099175D01*
X3664332Y-18884534D01*
X4159012Y-18422392D01*
X4439183Y-17806123D01*
X4321604Y-17537000D01*
X2877000Y-17537000D01*
X2623000Y-17537000D01*
X1178396Y-17537000D01*
X1060817Y-17806123D01*
X735000Y-17806123D01*
X735000Y-17013877D01*
X1060817Y-17013877D01*
X1178396Y-17283000D01*
X2623000Y-17283000D01*
X2623000Y-15838875D01*
X2877000Y-15838875D01*
X2877000Y-17283000D01*
X4321604Y-17283000D01*
X4439183Y-17013877D01*
X4159012Y-16397608D01*
X3664332Y-15935466D01*
X3146122Y-15720825D01*
X2877000Y-15838875D01*
X2623000Y-15838875D01*
X2353878Y-15720825D01*
X1835668Y-15935466D01*
X1340988Y-16397608D01*
X1060817Y-17013877D01*
X735000Y-17013877D01*
X735000Y-2250000D01*
X786887Y-2250000D01*
X898260Y-2809909D01*
X1215423Y-3284577D01*
X1494106Y-3470787D01*
X1534097Y-3671837D01*
X1642738Y-3834429D01*
X1702072Y-3923229D01*
X1765527Y-3965629D01*
X1990000Y-4190102D01*
X1990000Y-5502560D01*
X1650000Y-5502560D01*
X1402235Y-5551843D01*
X1192191Y-5692191D01*
X1051843Y-5902235D01*
X1002560Y-6150000D01*
X1002560Y-8350000D01*
X1051843Y-8597765D01*
X1192191Y-8807809D01*
X1402235Y-8948157D01*
X1650000Y-8997440D01*
X3850000Y-8997440D01*
X4097765Y-8948157D01*
X4307809Y-8807809D01*
X4448157Y-8597765D01*
X4497440Y-8350000D01*
X4497440Y-7535750D01*
X6015000Y-7535750D01*
X6015000Y-8476309D01*
X6111673Y-8709698D01*
X6290301Y-8888327D01*
X6523690Y-8985000D01*
X7464250Y-8985000D01*
X7623000Y-8826250D01*
X7623000Y-7377000D01*
X7877000Y-7377000D01*
X7877000Y-8826250D01*
X8035750Y-8985000D01*
X8976310Y-8985000D01*
X9209699Y-8888327D01*
X9388327Y-8709698D01*
X9485000Y-8476309D01*
X9485000Y-7535750D01*
X9326250Y-7377000D01*
X7877000Y-7377000D01*
X7623000Y-7377000D01*
X6173750Y-7377000D01*
X6015000Y-7535750D01*
X4497440Y-7535750D01*
X4497440Y-6150000D01*
X4472316Y-6023691D01*
X6015000Y-6023691D01*
X6015000Y-6964250D01*
X6173750Y-7123000D01*
X7623000Y-7123000D01*
X7623000Y-5673750D01*
X7877000Y-5673750D01*
X7877000Y-7123000D01*
X9326250Y-7123000D01*
X9485000Y-6964250D01*
X9485000Y-6023691D01*
X9388327Y-5790302D01*
X9209699Y-5611673D01*
X8976310Y-5515000D01*
X8035750Y-5515000D01*
X7877000Y-5673750D01*
X7623000Y-5673750D01*
X7464250Y-5515000D01*
X6523690Y-5515000D01*
X6290301Y-5611673D01*
X6111673Y-5790302D01*
X6015000Y-6023691D01*
X4472316Y-6023691D01*
X4448157Y-5902235D01*
X4307809Y-5692191D01*
X4097765Y-5551843D01*
X3850000Y-5502560D01*
X3510000Y-5502560D01*
X3510000Y-3950148D01*
X3524888Y-3875300D01*
X3510000Y-3800452D01*
X3510000Y-3800448D01*
X3474009Y-3619507D01*
X3465904Y-3578762D01*
X3340329Y-3390827D01*
X3297929Y-3327371D01*
X3259230Y-3301513D01*
X3284577Y-3284577D01*
X3601740Y-2809909D01*
X3713113Y-2250000D01*
X3601740Y-1690091D01*
X3284577Y-1215423D01*
X2809909Y-898260D01*
X2391333Y-815000D01*
X2108667Y-815000D01*
X1690091Y-898260D01*
X1215423Y-1215423D01*
X898260Y-1690091D01*
X786887Y-2250000D01*
X735000Y-2250000D01*
X735000Y-735000D01*
X10310198Y-735000D01*
X10208302Y-836896D01*
X10208302Y-836896D01*
G37*
X10208302Y-836896D02*
X10155439Y-815000D01*
X9584561Y-815000D01*
X9057138Y-1033466D01*
X8653466Y-1437138D01*
X8435000Y-1964561D01*
X8435000Y-2535439D01*
X8653466Y-3062862D01*
X9057138Y-3466534D01*
X9584561Y-3685000D01*
X10155439Y-3685000D01*
X10682862Y-3466534D01*
X11086534Y-3062862D01*
X11305000Y-2535439D01*
X11305000Y-1964561D01*
X11283104Y-1911698D01*
X11325602Y-1869200D01*
X11742633Y-1869200D01*
X11666887Y-2250000D01*
X11778260Y-2809909D01*
X12095423Y-3284577D01*
X12125695Y-3304804D01*
X10840130Y-4590369D01*
X10776671Y-4632771D01*
X10608696Y-4884164D01*
X10564600Y-5105849D01*
X10564600Y-5105853D01*
X10549712Y-5180700D01*
X10564600Y-5255547D01*
X10564601Y-16650000D01*
X9328850Y-16650000D01*
X9000865Y-16159135D01*
X8426963Y-15775666D01*
X7920880Y-15675000D01*
X7579120Y-15675000D01*
X7073037Y-15775666D01*
X6499135Y-16159135D01*
X6115666Y-16733037D01*
X5981010Y-17410000D01*
X6115666Y-18086963D01*
X6499135Y-18660865D01*
X7073037Y-19044334D01*
X7579120Y-19145000D01*
X7920880Y-19145000D01*
X8426963Y-19044334D01*
X9000865Y-18660865D01*
X9328850Y-18170000D01*
X10924767Y-18170000D01*
X10962071Y-18225829D01*
X11213463Y-18393804D01*
X11435148Y-18437900D01*
X11435152Y-18437900D01*
X11509999Y-18452788D01*
X11584846Y-18437900D01*
X22321953Y-18437900D01*
X22396800Y-18452788D01*
X22471647Y-18437900D01*
X22471652Y-18437900D01*
X22693337Y-18393804D01*
X22944729Y-18225829D01*
X22987131Y-18162370D01*
X24901937Y-16247565D01*
X24942191Y-16307809D01*
X25152235Y-16448157D01*
X25400000Y-16497440D01*
X27100000Y-16497440D01*
X27347765Y-16448157D01*
X27557809Y-16307809D01*
X27698157Y-16097765D01*
X27707184Y-16052381D01*
X27719375Y-16070625D01*
X28210582Y-16398839D01*
X28643744Y-16485000D01*
X28936256Y-16485000D01*
X29369418Y-16398839D01*
X29860625Y-16070625D01*
X30188839Y-15579418D01*
X30304092Y-15000000D01*
X30188839Y-14420582D01*
X29860625Y-13929375D01*
X29541522Y-13716157D01*
X29671358Y-13655183D01*
X30061645Y-13226924D01*
X30231476Y-12816890D01*
X30110155Y-12587000D01*
X28917000Y-12587000D01*
X28917000Y-12607000D01*
X28663000Y-12607000D01*
X28663000Y-12587000D01*
X26377000Y-12587000D01*
X26377000Y-12607000D01*
X26123000Y-12607000D01*
X26123000Y-12587000D01*
X24929845Y-12587000D01*
X24808524Y-12816890D01*
X24978355Y-13226924D01*
X25255708Y-13531261D01*
X25152235Y-13551843D01*
X24942191Y-13692191D01*
X24801843Y-13902235D01*
X24752560Y-14150000D01*
X24752560Y-14301203D01*
X24744039Y-14306897D01*
X24590226Y-14409671D01*
X24590224Y-14409673D01*
X24526771Y-14452071D01*
X24484373Y-14515524D01*
X22664868Y-16335030D01*
X22546982Y-16050429D01*
X22199571Y-15703018D01*
X21745657Y-15515000D01*
X21339802Y-15515000D01*
X18703245Y-12878443D01*
X19004005Y-12753864D01*
X19078139Y-12507745D01*
X18250000Y-11679605D01*
X18235858Y-11693748D01*
X18056253Y-11514143D01*
X18070395Y-11500000D01*
X18429605Y-11500000D01*
X19257745Y-12328139D01*
X19503864Y-12254005D01*
X19696965Y-11716777D01*
X19669778Y-11146546D01*
X19503864Y-10745995D01*
X19257745Y-10671861D01*
X18429605Y-11500000D01*
X18070395Y-11500000D01*
X17242255Y-10671861D01*
X17010000Y-10741819D01*
X17010000Y-10492255D01*
X17421861Y-10492255D01*
X18250000Y-11320395D01*
X19078139Y-10492255D01*
X19013269Y-10276890D01*
X24808524Y-10276890D01*
X24978355Y-10686924D01*
X25368642Y-11115183D01*
X25527954Y-11190000D01*
X25368642Y-11264817D01*
X24978355Y-11693076D01*
X24808524Y-12103110D01*
X24929845Y-12333000D01*
X26123000Y-12333000D01*
X26123000Y-10047000D01*
X26377000Y-10047000D01*
X26377000Y-12333000D01*
X28663000Y-12333000D01*
X28663000Y-10047000D01*
X28917000Y-10047000D01*
X28917000Y-12333000D01*
X30110155Y-12333000D01*
X30231476Y-12103110D01*
X30061645Y-11693076D01*
X29671358Y-11264817D01*
X29512046Y-11190000D01*
X29671358Y-11115183D01*
X30061645Y-10686924D01*
X30231476Y-10276890D01*
X30110155Y-10047000D01*
X28917000Y-10047000D01*
X28663000Y-10047000D01*
X26377000Y-10047000D01*
X26123000Y-10047000D01*
X24929845Y-10047000D01*
X24808524Y-10276890D01*
X19013269Y-10276890D01*
X19004005Y-10246136D01*
X18466777Y-10053035D01*
X17896546Y-10080222D01*
X17495995Y-10246136D01*
X17421861Y-10492255D01*
X17010000Y-10492255D01*
X17010000Y-8507745D01*
X17421861Y-8507745D01*
X17495995Y-8753864D01*
X18033223Y-8946965D01*
X18603454Y-8919778D01*
X19004005Y-8753864D01*
X19078139Y-8507745D01*
X18250000Y-7679605D01*
X17421861Y-8507745D01*
X17010000Y-8507745D01*
X17010000Y-8258181D01*
X17242255Y-8328139D01*
X18070395Y-7500000D01*
X18429605Y-7500000D01*
X19257745Y-8328139D01*
X19503864Y-8254005D01*
X19689735Y-7736890D01*
X24808524Y-7736890D01*
X24978355Y-8146924D01*
X25368642Y-8575183D01*
X25527954Y-8650000D01*
X25368642Y-8724817D01*
X24978355Y-9153076D01*
X24808524Y-9563110D01*
X24929845Y-9793000D01*
X26123000Y-9793000D01*
X26123000Y-7507000D01*
X26377000Y-7507000D01*
X26377000Y-9793000D01*
X28663000Y-9793000D01*
X28663000Y-7507000D01*
X28917000Y-7507000D01*
X28917000Y-9793000D01*
X30110155Y-9793000D01*
X30231476Y-9563110D01*
X30061645Y-9153076D01*
X29671358Y-8724817D01*
X29512046Y-8650000D01*
X29671358Y-8575183D01*
X30061645Y-8146924D01*
X30231476Y-7736890D01*
X30110155Y-7507000D01*
X28917000Y-7507000D01*
X28663000Y-7507000D01*
X26377000Y-7507000D01*
X26123000Y-7507000D01*
X24929845Y-7507000D01*
X24808524Y-7736890D01*
X19689735Y-7736890D01*
X19696965Y-7716777D01*
X19669778Y-7146546D01*
X19503864Y-6745995D01*
X19257745Y-6671861D01*
X18429605Y-7500000D01*
X18070395Y-7500000D01*
X18056252Y-7485858D01*
X18235858Y-7306252D01*
X18250000Y-7320395D01*
X19078139Y-6492255D01*
X19004005Y-6246136D01*
X18466777Y-6053035D01*
X17999487Y-6075314D01*
X19234801Y-4840000D01*
X24735908Y-4840000D01*
X24851161Y-5419418D01*
X25179375Y-5910625D01*
X25498478Y-6123843D01*
X25368642Y-6184817D01*
X24978355Y-6613076D01*
X24808524Y-7023110D01*
X24929845Y-7253000D01*
X26123000Y-7253000D01*
X26123000Y-7233000D01*
X26377000Y-7233000D01*
X26377000Y-7253000D01*
X28663000Y-7253000D01*
X28663000Y-7233000D01*
X28917000Y-7233000D01*
X28917000Y-7253000D01*
X30110155Y-7253000D01*
X30231476Y-7023110D01*
X30061645Y-6613076D01*
X29671358Y-6184817D01*
X29541522Y-6123843D01*
X29860625Y-5910625D01*
X30188839Y-5419418D01*
X30304092Y-4840000D01*
X30188839Y-4260582D01*
X29860625Y-3769375D01*
X29369418Y-3441161D01*
X28936256Y-3355000D01*
X28643744Y-3355000D01*
X28210582Y-3441161D01*
X27719375Y-3769375D01*
X27520000Y-4067761D01*
X27320625Y-3769375D01*
X26829418Y-3441161D01*
X26396256Y-3355000D01*
X26103744Y-3355000D01*
X25670582Y-3441161D01*
X25179375Y-3769375D01*
X24851161Y-4260582D01*
X24735908Y-4840000D01*
X19234801Y-4840000D01*
X20411698Y-3663104D01*
X20464561Y-3685000D01*
X21035439Y-3685000D01*
X21562862Y-3466534D01*
X21966534Y-3062862D01*
X22185000Y-2535439D01*
X22185000Y-1964561D01*
X21966534Y-1437138D01*
X21562862Y-1033466D01*
X21035439Y-815000D01*
X20464561Y-815000D01*
X19937138Y-1033466D01*
X19533466Y-1437138D01*
X19315000Y-1964561D01*
X19315000Y-2535439D01*
X19336896Y-2588302D01*
X15765530Y-6159669D01*
X15702071Y-6202071D01*
X15534096Y-6453464D01*
X15490000Y-6675149D01*
X15490000Y-6675153D01*
X15475112Y-6750000D01*
X15490000Y-6824847D01*
X15490001Y-10740000D01*
X14488430Y-10740000D01*
X14466534Y-10687138D01*
X14062862Y-10283466D01*
X13535439Y-10065000D01*
X12964561Y-10065000D01*
X12871100Y-10103713D01*
X12871100Y-8953701D01*
X12911698Y-8913103D01*
X12964561Y-8935000D01*
X13535439Y-8935000D01*
X14062862Y-8716534D01*
X14466534Y-8312862D01*
X14685000Y-7785439D01*
X14685000Y-7214561D01*
X14663104Y-7161698D01*
X14770173Y-7054629D01*
X14833629Y-7012229D01*
X15001604Y-6760837D01*
X15045700Y-6539152D01*
X15045700Y-6539147D01*
X15060588Y-6464300D01*
X15045700Y-6389453D01*
X15045700Y-1852846D01*
X15060588Y-1777999D01*
X15045700Y-1703152D01*
X15045700Y-1703148D01*
X15001604Y-1481463D01*
X14833629Y-1230071D01*
X14770173Y-1187671D01*
X14317501Y-735000D01*
X40230198Y-735000D01*
X39704838Y-1260360D01*
X39595330Y-1215000D01*
X38984670Y-1215000D01*
X38420493Y-1448690D01*
X38251275Y-1617908D01*
X38248157Y-1602235D01*
X38107809Y-1392191D01*
X37897765Y-1251843D01*
X37650000Y-1202560D01*
X35850000Y-1202560D01*
X35602235Y-1251843D01*
X35392191Y-1392191D01*
X35251843Y-1602235D01*
X35202560Y-1850000D01*
X35202560Y-3650000D01*
X35251843Y-3897765D01*
X35392191Y-4107809D01*
X35602235Y-4248157D01*
X35850000Y-4297440D01*
X37650000Y-4297440D01*
X37897765Y-4248157D01*
X38107809Y-4107809D01*
X38248157Y-3897765D01*
X38251275Y-3882092D01*
X38420493Y-4051310D01*
X38984670Y-4285000D01*
X39595330Y-4285000D01*
X40159507Y-4051310D01*
X40591310Y-3619507D01*
X40825000Y-3055330D01*
X40825000Y-2444670D01*
X40779640Y-2335162D01*
X41795903Y-1318900D01*
X65501878Y-1318900D01*
X65392191Y-1392191D01*
X65251843Y-1602235D01*
X65202560Y-1850000D01*
X65202560Y-3650000D01*
X65251843Y-3897765D01*
X65392191Y-4107809D01*
X65602235Y-4248157D01*
X65850000Y-4297440D01*
X67650000Y-4297440D01*
X67897765Y-4248157D01*
X68107809Y-4107809D01*
X68248157Y-3897765D01*
X68251275Y-3882092D01*
X68420493Y-4051310D01*
X68984670Y-4285000D01*
X69206900Y-4285000D01*
X69206900Y-8080768D01*
X68444569Y-7765000D01*
X67555431Y-7765000D01*
X66733974Y-8105259D01*
X66105259Y-8733974D01*
X65765000Y-9555431D01*
X65765000Y-10444569D01*
X66105259Y-11266026D01*
X66733974Y-11894741D01*
X67555431Y-12235000D01*
X68444569Y-12235000D01*
X69206901Y-11919231D01*
X69206901Y-12492997D01*
X66265528Y-15434371D01*
X66202072Y-15476771D01*
X66159673Y-15540226D01*
X66159671Y-15540228D01*
X66051204Y-15702560D01*
X65850000Y-15702560D01*
X65602235Y-15751843D01*
X65392191Y-15892191D01*
X65251843Y-16102235D01*
X65202560Y-16350000D01*
X65202560Y-17715400D01*
X44067302Y-17715400D01*
X38545213Y-12193312D01*
X39266026Y-11894741D01*
X39894741Y-11266026D01*
X40168634Y-10604791D01*
X40260505Y-10826587D01*
X40670993Y-11237075D01*
X41207321Y-11459230D01*
X41787839Y-11459230D01*
X42324167Y-11237075D01*
X42734655Y-10826587D01*
X42956810Y-10290259D01*
X42956810Y-9709741D01*
X43040630Y-9709741D01*
X43040630Y-10290259D01*
X43262785Y-10826587D01*
X43673273Y-11237075D01*
X44209601Y-11459230D01*
X44790119Y-11459230D01*
X45326447Y-11237075D01*
X45736935Y-10826587D01*
X45959090Y-10290259D01*
X45959090Y-9709741D01*
X61542050Y-9709741D01*
X61542050Y-10290259D01*
X61764205Y-10826587D01*
X62174693Y-11237075D01*
X62711021Y-11459230D01*
X63291539Y-11459230D01*
X63827867Y-11237075D01*
X64238355Y-10826587D01*
X64460510Y-10290259D01*
X64460510Y-9709741D01*
X64238355Y-9173413D01*
X63827867Y-8762925D01*
X63291539Y-8540770D01*
X62711021Y-8540770D01*
X62174693Y-8762925D01*
X61764205Y-9173413D01*
X61542050Y-9709741D01*
X45959090Y-9709741D01*
X45736935Y-9173413D01*
X45326447Y-8762925D01*
X44790119Y-8540770D01*
X44209601Y-8540770D01*
X43673273Y-8762925D01*
X43262785Y-9173413D01*
X43040630Y-9709741D01*
X42956810Y-9709741D01*
X42734655Y-9173413D01*
X42324167Y-8762925D01*
X41787839Y-8540770D01*
X41207321Y-8540770D01*
X40670993Y-8762925D01*
X40260505Y-9173413D01*
X40168634Y-9395209D01*
X39894741Y-8733974D01*
X39266026Y-8105259D01*
X38444569Y-7765000D01*
X37555431Y-7765000D01*
X36733974Y-8105259D01*
X36105259Y-8733974D01*
X35811545Y-9443061D01*
X35573637Y-9284096D01*
X35351952Y-9240000D01*
X35351947Y-9240000D01*
X35277100Y-9225112D01*
X35202253Y-9240000D01*
X34265936Y-9240000D01*
X34238355Y-9173413D01*
X33827867Y-8762925D01*
X33291539Y-8540770D01*
X32711021Y-8540770D01*
X32174693Y-8762925D01*
X31764205Y-9173413D01*
X31542050Y-9709741D01*
X31542050Y-10290259D01*
X31764205Y-10826587D01*
X32174693Y-11237075D01*
X32711021Y-11459230D01*
X33291539Y-11459230D01*
X33827867Y-11237075D01*
X34238355Y-10826587D01*
X34265936Y-10760000D01*
X34962299Y-10760000D01*
X40144965Y-15942666D01*
X39595330Y-15715000D01*
X38984670Y-15715000D01*
X38420493Y-15948690D01*
X38251275Y-16117908D01*
X38248157Y-16102235D01*
X38107809Y-15892191D01*
X37897765Y-15751843D01*
X37650000Y-15702560D01*
X35850000Y-15702560D01*
X35602235Y-15751843D01*
X35392191Y-15892191D01*
X35251843Y-16102235D01*
X35202560Y-16350000D01*
X35202560Y-18150000D01*
X35251843Y-18397765D01*
X35392191Y-18607809D01*
X35602235Y-18748157D01*
X35850000Y-18797440D01*
X37650000Y-18797440D01*
X37897765Y-18748157D01*
X38107809Y-18607809D01*
X38248157Y-18397765D01*
X38251275Y-18382092D01*
X38420493Y-18551310D01*
X38984670Y-18785000D01*
X39595330Y-18785000D01*
X39704838Y-18739640D01*
X40230198Y-19265000D01*
X735000Y-19265000D01*
X735000Y-17806123D01*
X1060817Y-17806123D01*
X1340988Y-18422392D01*
X1835668Y-18884534D01*
X2353878Y-19099175D01*
X2623000Y-18981125D01*
X2623000Y-17537000D01*
X2877000Y-17537000D01*
X2877000Y-18981125D01*
X3146122Y-19099175D01*
X3664332Y-18884534D01*
X4159012Y-18422392D01*
X4439183Y-17806123D01*
X4321604Y-17537000D01*
X2877000Y-17537000D01*
X2623000Y-17537000D01*
X1178396Y-17537000D01*
X1060817Y-17806123D01*
X735000Y-17806123D01*
X735000Y-17013877D01*
X1060817Y-17013877D01*
X1178396Y-17283000D01*
X2623000Y-17283000D01*
X2623000Y-15838875D01*
X2877000Y-15838875D01*
X2877000Y-17283000D01*
X4321604Y-17283000D01*
X4439183Y-17013877D01*
X4159012Y-16397608D01*
X3664332Y-15935466D01*
X3146122Y-15720825D01*
X2877000Y-15838875D01*
X2623000Y-15838875D01*
X2353878Y-15720825D01*
X1835668Y-15935466D01*
X1340988Y-16397608D01*
X1060817Y-17013877D01*
X735000Y-17013877D01*
X735000Y-2250000D01*
X786887Y-2250000D01*
X898260Y-2809909D01*
X1215423Y-3284577D01*
X1494106Y-3470787D01*
X1534097Y-3671837D01*
X1642738Y-3834429D01*
X1702072Y-3923229D01*
X1765527Y-3965629D01*
X1990000Y-4190102D01*
X1990000Y-5502560D01*
X1650000Y-5502560D01*
X1402235Y-5551843D01*
X1192191Y-5692191D01*
X1051843Y-5902235D01*
X1002560Y-6150000D01*
X1002560Y-8350000D01*
X1051843Y-8597765D01*
X1192191Y-8807809D01*
X1402235Y-8948157D01*
X1650000Y-8997440D01*
X3850000Y-8997440D01*
X4097765Y-8948157D01*
X4307809Y-8807809D01*
X4448157Y-8597765D01*
X4497440Y-8350000D01*
X4497440Y-7535750D01*
X6015000Y-7535750D01*
X6015000Y-8476309D01*
X6111673Y-8709698D01*
X6290301Y-8888327D01*
X6523690Y-8985000D01*
X7464250Y-8985000D01*
X7623000Y-8826250D01*
X7623000Y-7377000D01*
X7877000Y-7377000D01*
X7877000Y-8826250D01*
X8035750Y-8985000D01*
X8976310Y-8985000D01*
X9209699Y-8888327D01*
X9388327Y-8709698D01*
X9485000Y-8476309D01*
X9485000Y-7535750D01*
X9326250Y-7377000D01*
X7877000Y-7377000D01*
X7623000Y-7377000D01*
X6173750Y-7377000D01*
X6015000Y-7535750D01*
X4497440Y-7535750D01*
X4497440Y-6150000D01*
X4472316Y-6023691D01*
X6015000Y-6023691D01*
X6015000Y-6964250D01*
X6173750Y-7123000D01*
X7623000Y-7123000D01*
X7623000Y-5673750D01*
X7877000Y-5673750D01*
X7877000Y-7123000D01*
X9326250Y-7123000D01*
X9485000Y-6964250D01*
X9485000Y-6023691D01*
X9388327Y-5790302D01*
X9209699Y-5611673D01*
X8976310Y-5515000D01*
X8035750Y-5515000D01*
X7877000Y-5673750D01*
X7623000Y-5673750D01*
X7464250Y-5515000D01*
X6523690Y-5515000D01*
X6290301Y-5611673D01*
X6111673Y-5790302D01*
X6015000Y-6023691D01*
X4472316Y-6023691D01*
X4448157Y-5902235D01*
X4307809Y-5692191D01*
X4097765Y-5551843D01*
X3850000Y-5502560D01*
X3510000Y-5502560D01*
X3510000Y-3950148D01*
X3524888Y-3875300D01*
X3510000Y-3800452D01*
X3510000Y-3800448D01*
X3474009Y-3619507D01*
X3465904Y-3578762D01*
X3340329Y-3390827D01*
X3297929Y-3327371D01*
X3259230Y-3301513D01*
X3284577Y-3284577D01*
X3601740Y-2809909D01*
X3713113Y-2250000D01*
X3601740Y-1690091D01*
X3284577Y-1215423D01*
X2809909Y-898260D01*
X2391333Y-815000D01*
X2108667Y-815000D01*
X1690091Y-898260D01*
X1215423Y-1215423D01*
X898260Y-1690091D01*
X786887Y-2250000D01*
X735000Y-2250000D01*
X735000Y-735000D01*
X10310198Y-735000D01*
X10208302Y-836896D01*
G36*
X19190198Y-15515000D02*
X18773691Y-15515000D01*
X18540302Y-15611673D01*
X18361673Y-15790301D01*
X18265000Y-16023690D01*
X18265000Y-16464250D01*
X18423750Y-16623000D01*
X19373000Y-16623000D01*
X19373000Y-16603000D01*
X19627000Y-16603000D01*
X19627000Y-16623000D01*
X19647000Y-16623000D01*
X19647000Y-16877000D01*
X19627000Y-16877000D01*
X19627000Y-16897000D01*
X19373000Y-16897000D01*
X19373000Y-16877000D01*
X18423750Y-16877000D01*
X18382850Y-16917900D01*
X15497741Y-16917900D01*
X15467482Y-16428587D01*
X15338164Y-16116383D01*
X15112735Y-16066870D01*
X14429605Y-16750000D01*
X14443748Y-16764143D01*
X14289990Y-16917900D01*
X14210010Y-16917900D01*
X14056253Y-16764143D01*
X14070395Y-16750000D01*
X14056253Y-16735858D01*
X14235858Y-16556253D01*
X14250000Y-16570395D01*
X14933130Y-15887265D01*
X14883617Y-15661836D01*
X14418964Y-15502193D01*
X13928587Y-15532518D01*
X13616383Y-15661836D01*
X13566871Y-15887263D01*
X13451178Y-15771570D01*
X13397030Y-15825718D01*
X13307809Y-15692191D01*
X13097765Y-15551843D01*
X12963940Y-15525224D01*
X12871100Y-15386279D01*
X12871100Y-12896287D01*
X12964561Y-12935000D01*
X13535439Y-12935000D01*
X14062862Y-12716534D01*
X14466534Y-12312862D01*
X14488430Y-12260000D01*
X15935199Y-12260000D01*
X19190198Y-15515000D01*
X19190198Y-15515000D01*
G37*
X19190198Y-15515000D02*
X18773691Y-15515000D01*
X18540302Y-15611673D01*
X18361673Y-15790301D01*
X18265000Y-16023690D01*
X18265000Y-16464250D01*
X18423750Y-16623000D01*
X19373000Y-16623000D01*
X19373000Y-16603000D01*
X19627000Y-16603000D01*
X19627000Y-16623000D01*
X19647000Y-16623000D01*
X19647000Y-16877000D01*
X19627000Y-16877000D01*
X19627000Y-16897000D01*
X19373000Y-16897000D01*
X19373000Y-16877000D01*
X18423750Y-16877000D01*
X18382850Y-16917900D01*
X15497741Y-16917900D01*
X15467482Y-16428587D01*
X15338164Y-16116383D01*
X15112735Y-16066870D01*
X14429605Y-16750000D01*
X14443748Y-16764143D01*
X14289990Y-16917900D01*
X14210010Y-16917900D01*
X14056253Y-16764143D01*
X14070395Y-16750000D01*
X14056253Y-16735858D01*
X14235858Y-16556253D01*
X14250000Y-16570395D01*
X14933130Y-15887265D01*
X14883617Y-15661836D01*
X14418964Y-15502193D01*
X13928587Y-15532518D01*
X13616383Y-15661836D01*
X13566871Y-15887263D01*
X13451178Y-15771570D01*
X13397030Y-15825718D01*
X13307809Y-15692191D01*
X13097765Y-15551843D01*
X12963940Y-15525224D01*
X12871100Y-15386279D01*
X12871100Y-12896287D01*
X12964561Y-12935000D01*
X13535439Y-12935000D01*
X14062862Y-12716534D01*
X14466534Y-12312862D01*
X14488430Y-12260000D01*
X15935199Y-12260000D01*
X19190198Y-15515000D01*
G04 #@! TD*
M02*
