G04 #@! TF.GenerationSoftware,KiCad,Pcbnew,(5.0.0)*
G04 #@! TF.CreationDate,2019-01-05T22:50:15+01:00*
G04 #@! TF.ProjectId,1u_bus,31755F6275732E6B696361645F706362,rev?*
G04 #@! TF.SameCoordinates,Original*
G04 #@! TF.FileFunction,Legend,Top*
G04 #@! TF.FilePolarity,Positive*
%FSLAX46Y46*%
G04 Gerber Fmt 4.6, Leading zero omitted, Abs format (unit mm)*
G04 Created by KiCad (PCBNEW (5.0.0)) date 01/05/19 22:50:15*
%MOMM*%
%LPD*%
G01*
G04 APERTURE LIST*
%ADD10C,0.300000*%
%ADD11C,0.200000*%
%ADD12C,0.120000*%
%ADD13C,0.127000*%
%ADD14C,0.066040*%
%ADD15C,0.150000*%
%ADD16C,0.076200*%
G04 APERTURE END LIST*
D10*
X47250000Y-6403571D02*
X47107142Y-6332142D01*
X47035714Y-6260714D01*
X46964285Y-6117857D01*
X46964285Y-5689285D01*
X47035714Y-5546428D01*
X47107142Y-5475000D01*
X47250000Y-5403571D01*
X47464285Y-5403571D01*
X47607142Y-5475000D01*
X47678571Y-5546428D01*
X47750000Y-5689285D01*
X47750000Y-6117857D01*
X47678571Y-6260714D01*
X47607142Y-6332142D01*
X47464285Y-6403571D01*
X47250000Y-6403571D01*
X48392857Y-6403571D02*
X48392857Y-5403571D01*
X48392857Y-5689285D02*
X48464285Y-5546428D01*
X48535714Y-5475000D01*
X48678571Y-5403571D01*
X48821428Y-5403571D01*
X49321428Y-6403571D02*
X49321428Y-5403571D01*
X49321428Y-4903571D02*
X49250000Y-4975000D01*
X49321428Y-5046428D01*
X49392857Y-4975000D01*
X49321428Y-4903571D01*
X49321428Y-5046428D01*
X50607142Y-6332142D02*
X50464285Y-6403571D01*
X50178571Y-6403571D01*
X50035714Y-6332142D01*
X49964285Y-6189285D01*
X49964285Y-5617857D01*
X50035714Y-5475000D01*
X50178571Y-5403571D01*
X50464285Y-5403571D01*
X50607142Y-5475000D01*
X50678571Y-5617857D01*
X50678571Y-5760714D01*
X49964285Y-5903571D01*
X51321428Y-5403571D02*
X51321428Y-6403571D01*
X51321428Y-5546428D02*
X51392857Y-5475000D01*
X51535714Y-5403571D01*
X51750000Y-5403571D01*
X51892857Y-5475000D01*
X51964285Y-5617857D01*
X51964285Y-6403571D01*
X52464285Y-5403571D02*
X53035714Y-5403571D01*
X52678571Y-4903571D02*
X52678571Y-6189285D01*
X52750000Y-6332142D01*
X52892857Y-6403571D01*
X53035714Y-6403571D01*
X54178571Y-6403571D02*
X54178571Y-5617857D01*
X54107142Y-5475000D01*
X53964285Y-5403571D01*
X53678571Y-5403571D01*
X53535714Y-5475000D01*
X54178571Y-6332142D02*
X54035714Y-6403571D01*
X53678571Y-6403571D01*
X53535714Y-6332142D01*
X53464285Y-6189285D01*
X53464285Y-6046428D01*
X53535714Y-5903571D01*
X53678571Y-5832142D01*
X54035714Y-5832142D01*
X54178571Y-5760714D01*
X54678571Y-5403571D02*
X55250000Y-5403571D01*
X54892857Y-4903571D02*
X54892857Y-6189285D01*
X54964285Y-6332142D01*
X55107142Y-6403571D01*
X55250000Y-6403571D01*
X55750000Y-6403571D02*
X55750000Y-5403571D01*
X55750000Y-4903571D02*
X55678571Y-4975000D01*
X55750000Y-5046428D01*
X55821428Y-4975000D01*
X55750000Y-4903571D01*
X55750000Y-5046428D01*
X56678571Y-6403571D02*
X56535714Y-6332142D01*
X56464285Y-6260714D01*
X56392857Y-6117857D01*
X56392857Y-5689285D01*
X56464285Y-5546428D01*
X56535714Y-5475000D01*
X56678571Y-5403571D01*
X56892857Y-5403571D01*
X57035714Y-5475000D01*
X57107142Y-5546428D01*
X57178571Y-5689285D01*
X57178571Y-6117857D01*
X57107142Y-6260714D01*
X57035714Y-6332142D01*
X56892857Y-6403571D01*
X56678571Y-6403571D01*
X57821428Y-5403571D02*
X57821428Y-6403571D01*
X57821428Y-5546428D02*
X57892857Y-5475000D01*
X58035714Y-5403571D01*
X58250000Y-5403571D01*
X58392857Y-5475000D01*
X58464285Y-5617857D01*
X58464285Y-6403571D01*
X47285714Y-8953571D02*
X47142857Y-8882142D01*
X47071428Y-8810714D01*
X47000000Y-8667857D01*
X47000000Y-8239285D01*
X47071428Y-8096428D01*
X47142857Y-8025000D01*
X47285714Y-7953571D01*
X47500000Y-7953571D01*
X47642857Y-8025000D01*
X47714285Y-8096428D01*
X47785714Y-8239285D01*
X47785714Y-8667857D01*
X47714285Y-8810714D01*
X47642857Y-8882142D01*
X47500000Y-8953571D01*
X47285714Y-8953571D01*
X48214285Y-7953571D02*
X48785714Y-7953571D01*
X48428571Y-8953571D02*
X48428571Y-7667857D01*
X48500000Y-7525000D01*
X48642857Y-7453571D01*
X48785714Y-7453571D01*
X51071428Y-8953571D02*
X51071428Y-8167857D01*
X51000000Y-8025000D01*
X50857142Y-7953571D01*
X50571428Y-7953571D01*
X50428571Y-8025000D01*
X51071428Y-8882142D02*
X50928571Y-8953571D01*
X50571428Y-8953571D01*
X50428571Y-8882142D01*
X50357142Y-8739285D01*
X50357142Y-8596428D01*
X50428571Y-8453571D01*
X50571428Y-8382142D01*
X50928571Y-8382142D01*
X51071428Y-8310714D01*
X52000000Y-8953571D02*
X51857142Y-8882142D01*
X51785714Y-8739285D01*
X51785714Y-7453571D01*
X52785714Y-8953571D02*
X52642857Y-8882142D01*
X52571428Y-8739285D01*
X52571428Y-7453571D01*
X54714285Y-8953571D02*
X54571428Y-8882142D01*
X54500000Y-8739285D01*
X54500000Y-7453571D01*
X55857142Y-8882142D02*
X55714285Y-8953571D01*
X55428571Y-8953571D01*
X55285714Y-8882142D01*
X55214285Y-8739285D01*
X55214285Y-8167857D01*
X55285714Y-8025000D01*
X55428571Y-7953571D01*
X55714285Y-7953571D01*
X55857142Y-8025000D01*
X55928571Y-8167857D01*
X55928571Y-8310714D01*
X55214285Y-8453571D01*
X57214285Y-8953571D02*
X57214285Y-7453571D01*
X57214285Y-8882142D02*
X57071428Y-8953571D01*
X56785714Y-8953571D01*
X56642857Y-8882142D01*
X56571428Y-8810714D01*
X56500000Y-8667857D01*
X56500000Y-8239285D01*
X56571428Y-8096428D01*
X56642857Y-8025000D01*
X56785714Y-7953571D01*
X57071428Y-7953571D01*
X57214285Y-8025000D01*
X57857142Y-8882142D02*
X58000000Y-8953571D01*
X58285714Y-8953571D01*
X58428571Y-8882142D01*
X58500000Y-8739285D01*
X58500000Y-8667857D01*
X58428571Y-8525000D01*
X58285714Y-8453571D01*
X58071428Y-8453571D01*
X57928571Y-8382142D01*
X57857142Y-8239285D01*
X57857142Y-8167857D01*
X57928571Y-8025000D01*
X58071428Y-7953571D01*
X58285714Y-7953571D01*
X58428571Y-8025000D01*
D11*
X51500000Y-12750000D02*
X50750000Y-12750000D01*
X54000000Y-12750000D02*
X55000000Y-12750000D01*
X54000000Y-14000000D02*
X54000000Y-11500000D01*
X51500000Y-12750000D02*
X54000000Y-14000000D01*
X54000000Y-11500000D02*
X51500000Y-12750000D01*
X51500000Y-11500000D02*
X51500000Y-14000000D01*
D12*
G04 #@! TO.C,C1*
X15370000Y-16750000D02*
G75*
G03X15370000Y-16750000I-2120000J0D01*
G01*
X13250000Y-14670000D02*
X13250000Y-18830000D01*
X13290000Y-14670000D02*
X13290000Y-18830000D01*
X13330000Y-14671000D02*
X13330000Y-18829000D01*
X13370000Y-14673000D02*
X13370000Y-18827000D01*
X13410000Y-14676000D02*
X13410000Y-18824000D01*
X13450000Y-14679000D02*
X13450000Y-15910000D01*
X13450000Y-17590000D02*
X13450000Y-18821000D01*
X13490000Y-14683000D02*
X13490000Y-15910000D01*
X13490000Y-17590000D02*
X13490000Y-18817000D01*
X13530000Y-14688000D02*
X13530000Y-15910000D01*
X13530000Y-17590000D02*
X13530000Y-18812000D01*
X13570000Y-14694000D02*
X13570000Y-15910000D01*
X13570000Y-17590000D02*
X13570000Y-18806000D01*
X13610000Y-14700000D02*
X13610000Y-15910000D01*
X13610000Y-17590000D02*
X13610000Y-18800000D01*
X13650000Y-14708000D02*
X13650000Y-15910000D01*
X13650000Y-17590000D02*
X13650000Y-18792000D01*
X13690000Y-14716000D02*
X13690000Y-15910000D01*
X13690000Y-17590000D02*
X13690000Y-18784000D01*
X13730000Y-14725000D02*
X13730000Y-15910000D01*
X13730000Y-17590000D02*
X13730000Y-18775000D01*
X13770000Y-14734000D02*
X13770000Y-15910000D01*
X13770000Y-17590000D02*
X13770000Y-18766000D01*
X13810000Y-14745000D02*
X13810000Y-15910000D01*
X13810000Y-17590000D02*
X13810000Y-18755000D01*
X13850000Y-14756000D02*
X13850000Y-15910000D01*
X13850000Y-17590000D02*
X13850000Y-18744000D01*
X13890000Y-14768000D02*
X13890000Y-15910000D01*
X13890000Y-17590000D02*
X13890000Y-18732000D01*
X13930000Y-14782000D02*
X13930000Y-15910000D01*
X13930000Y-17590000D02*
X13930000Y-18718000D01*
X13971000Y-14796000D02*
X13971000Y-15910000D01*
X13971000Y-17590000D02*
X13971000Y-18704000D01*
X14011000Y-14810000D02*
X14011000Y-15910000D01*
X14011000Y-17590000D02*
X14011000Y-18690000D01*
X14051000Y-14826000D02*
X14051000Y-15910000D01*
X14051000Y-17590000D02*
X14051000Y-18674000D01*
X14091000Y-14843000D02*
X14091000Y-15910000D01*
X14091000Y-17590000D02*
X14091000Y-18657000D01*
X14131000Y-14861000D02*
X14131000Y-15910000D01*
X14131000Y-17590000D02*
X14131000Y-18639000D01*
X14171000Y-14880000D02*
X14171000Y-15910000D01*
X14171000Y-17590000D02*
X14171000Y-18620000D01*
X14211000Y-14899000D02*
X14211000Y-15910000D01*
X14211000Y-17590000D02*
X14211000Y-18601000D01*
X14251000Y-14920000D02*
X14251000Y-15910000D01*
X14251000Y-17590000D02*
X14251000Y-18580000D01*
X14291000Y-14942000D02*
X14291000Y-15910000D01*
X14291000Y-17590000D02*
X14291000Y-18558000D01*
X14331000Y-14965000D02*
X14331000Y-15910000D01*
X14331000Y-17590000D02*
X14331000Y-18535000D01*
X14371000Y-14990000D02*
X14371000Y-15910000D01*
X14371000Y-17590000D02*
X14371000Y-18510000D01*
X14411000Y-15015000D02*
X14411000Y-15910000D01*
X14411000Y-17590000D02*
X14411000Y-18485000D01*
X14451000Y-15042000D02*
X14451000Y-15910000D01*
X14451000Y-17590000D02*
X14451000Y-18458000D01*
X14491000Y-15070000D02*
X14491000Y-15910000D01*
X14491000Y-17590000D02*
X14491000Y-18430000D01*
X14531000Y-15100000D02*
X14531000Y-15910000D01*
X14531000Y-17590000D02*
X14531000Y-18400000D01*
X14571000Y-15131000D02*
X14571000Y-15910000D01*
X14571000Y-17590000D02*
X14571000Y-18369000D01*
X14611000Y-15163000D02*
X14611000Y-15910000D01*
X14611000Y-17590000D02*
X14611000Y-18337000D01*
X14651000Y-15198000D02*
X14651000Y-15910000D01*
X14651000Y-17590000D02*
X14651000Y-18302000D01*
X14691000Y-15234000D02*
X14691000Y-15910000D01*
X14691000Y-17590000D02*
X14691000Y-18266000D01*
X14731000Y-15272000D02*
X14731000Y-15910000D01*
X14731000Y-17590000D02*
X14731000Y-18228000D01*
X14771000Y-15312000D02*
X14771000Y-15910000D01*
X14771000Y-17590000D02*
X14771000Y-18188000D01*
X14811000Y-15354000D02*
X14811000Y-15910000D01*
X14811000Y-17590000D02*
X14811000Y-18146000D01*
X14851000Y-15399000D02*
X14851000Y-15910000D01*
X14851000Y-17590000D02*
X14851000Y-18101000D01*
X14891000Y-15446000D02*
X14891000Y-15910000D01*
X14891000Y-17590000D02*
X14891000Y-18054000D01*
X14931000Y-15496000D02*
X14931000Y-15910000D01*
X14931000Y-17590000D02*
X14931000Y-18004000D01*
X14971000Y-15550000D02*
X14971000Y-15910000D01*
X14971000Y-17590000D02*
X14971000Y-17950000D01*
X15011000Y-15608000D02*
X15011000Y-15910000D01*
X15011000Y-17590000D02*
X15011000Y-17892000D01*
X15051000Y-15670000D02*
X15051000Y-15910000D01*
X15051000Y-17590000D02*
X15051000Y-17830000D01*
X15091000Y-15737000D02*
X15091000Y-17763000D01*
X15131000Y-15810000D02*
X15131000Y-17690000D01*
X15171000Y-15891000D02*
X15171000Y-17609000D01*
X15211000Y-15982000D02*
X15211000Y-17518000D01*
X15251000Y-16086000D02*
X15251000Y-17414000D01*
X15291000Y-16213000D02*
X15291000Y-17287000D01*
X15331000Y-16380000D02*
X15331000Y-17120000D01*
X10980199Y-15555000D02*
X11380199Y-15555000D01*
X11180199Y-15355000D02*
X11180199Y-15755000D01*
G04 #@! TO.C,C2*
X18430199Y-15355000D02*
X18430199Y-15755000D01*
X18230199Y-15555000D02*
X18630199Y-15555000D01*
X22581000Y-16380000D02*
X22581000Y-17120000D01*
X22541000Y-16213000D02*
X22541000Y-17287000D01*
X22501000Y-16086000D02*
X22501000Y-17414000D01*
X22461000Y-15982000D02*
X22461000Y-17518000D01*
X22421000Y-15891000D02*
X22421000Y-17609000D01*
X22381000Y-15810000D02*
X22381000Y-17690000D01*
X22341000Y-15737000D02*
X22341000Y-17763000D01*
X22301000Y-17590000D02*
X22301000Y-17830000D01*
X22301000Y-15670000D02*
X22301000Y-15910000D01*
X22261000Y-17590000D02*
X22261000Y-17892000D01*
X22261000Y-15608000D02*
X22261000Y-15910000D01*
X22221000Y-17590000D02*
X22221000Y-17950000D01*
X22221000Y-15550000D02*
X22221000Y-15910000D01*
X22181000Y-17590000D02*
X22181000Y-18004000D01*
X22181000Y-15496000D02*
X22181000Y-15910000D01*
X22141000Y-17590000D02*
X22141000Y-18054000D01*
X22141000Y-15446000D02*
X22141000Y-15910000D01*
X22101000Y-17590000D02*
X22101000Y-18101000D01*
X22101000Y-15399000D02*
X22101000Y-15910000D01*
X22061000Y-17590000D02*
X22061000Y-18146000D01*
X22061000Y-15354000D02*
X22061000Y-15910000D01*
X22021000Y-17590000D02*
X22021000Y-18188000D01*
X22021000Y-15312000D02*
X22021000Y-15910000D01*
X21981000Y-17590000D02*
X21981000Y-18228000D01*
X21981000Y-15272000D02*
X21981000Y-15910000D01*
X21941000Y-17590000D02*
X21941000Y-18266000D01*
X21941000Y-15234000D02*
X21941000Y-15910000D01*
X21901000Y-17590000D02*
X21901000Y-18302000D01*
X21901000Y-15198000D02*
X21901000Y-15910000D01*
X21861000Y-17590000D02*
X21861000Y-18337000D01*
X21861000Y-15163000D02*
X21861000Y-15910000D01*
X21821000Y-17590000D02*
X21821000Y-18369000D01*
X21821000Y-15131000D02*
X21821000Y-15910000D01*
X21781000Y-17590000D02*
X21781000Y-18400000D01*
X21781000Y-15100000D02*
X21781000Y-15910000D01*
X21741000Y-17590000D02*
X21741000Y-18430000D01*
X21741000Y-15070000D02*
X21741000Y-15910000D01*
X21701000Y-17590000D02*
X21701000Y-18458000D01*
X21701000Y-15042000D02*
X21701000Y-15910000D01*
X21661000Y-17590000D02*
X21661000Y-18485000D01*
X21661000Y-15015000D02*
X21661000Y-15910000D01*
X21621000Y-17590000D02*
X21621000Y-18510000D01*
X21621000Y-14990000D02*
X21621000Y-15910000D01*
X21581000Y-17590000D02*
X21581000Y-18535000D01*
X21581000Y-14965000D02*
X21581000Y-15910000D01*
X21541000Y-17590000D02*
X21541000Y-18558000D01*
X21541000Y-14942000D02*
X21541000Y-15910000D01*
X21501000Y-17590000D02*
X21501000Y-18580000D01*
X21501000Y-14920000D02*
X21501000Y-15910000D01*
X21461000Y-17590000D02*
X21461000Y-18601000D01*
X21461000Y-14899000D02*
X21461000Y-15910000D01*
X21421000Y-17590000D02*
X21421000Y-18620000D01*
X21421000Y-14880000D02*
X21421000Y-15910000D01*
X21381000Y-17590000D02*
X21381000Y-18639000D01*
X21381000Y-14861000D02*
X21381000Y-15910000D01*
X21341000Y-17590000D02*
X21341000Y-18657000D01*
X21341000Y-14843000D02*
X21341000Y-15910000D01*
X21301000Y-17590000D02*
X21301000Y-18674000D01*
X21301000Y-14826000D02*
X21301000Y-15910000D01*
X21261000Y-17590000D02*
X21261000Y-18690000D01*
X21261000Y-14810000D02*
X21261000Y-15910000D01*
X21221000Y-17590000D02*
X21221000Y-18704000D01*
X21221000Y-14796000D02*
X21221000Y-15910000D01*
X21180000Y-17590000D02*
X21180000Y-18718000D01*
X21180000Y-14782000D02*
X21180000Y-15910000D01*
X21140000Y-17590000D02*
X21140000Y-18732000D01*
X21140000Y-14768000D02*
X21140000Y-15910000D01*
X21100000Y-17590000D02*
X21100000Y-18744000D01*
X21100000Y-14756000D02*
X21100000Y-15910000D01*
X21060000Y-17590000D02*
X21060000Y-18755000D01*
X21060000Y-14745000D02*
X21060000Y-15910000D01*
X21020000Y-17590000D02*
X21020000Y-18766000D01*
X21020000Y-14734000D02*
X21020000Y-15910000D01*
X20980000Y-17590000D02*
X20980000Y-18775000D01*
X20980000Y-14725000D02*
X20980000Y-15910000D01*
X20940000Y-17590000D02*
X20940000Y-18784000D01*
X20940000Y-14716000D02*
X20940000Y-15910000D01*
X20900000Y-17590000D02*
X20900000Y-18792000D01*
X20900000Y-14708000D02*
X20900000Y-15910000D01*
X20860000Y-17590000D02*
X20860000Y-18800000D01*
X20860000Y-14700000D02*
X20860000Y-15910000D01*
X20820000Y-17590000D02*
X20820000Y-18806000D01*
X20820000Y-14694000D02*
X20820000Y-15910000D01*
X20780000Y-17590000D02*
X20780000Y-18812000D01*
X20780000Y-14688000D02*
X20780000Y-15910000D01*
X20740000Y-17590000D02*
X20740000Y-18817000D01*
X20740000Y-14683000D02*
X20740000Y-15910000D01*
X20700000Y-17590000D02*
X20700000Y-18821000D01*
X20700000Y-14679000D02*
X20700000Y-15910000D01*
X20660000Y-14676000D02*
X20660000Y-18824000D01*
X20620000Y-14673000D02*
X20620000Y-18827000D01*
X20580000Y-14671000D02*
X20580000Y-18829000D01*
X20540000Y-14670000D02*
X20540000Y-18830000D01*
X20500000Y-14670000D02*
X20500000Y-18830000D01*
X22620000Y-16750000D02*
G75*
G03X22620000Y-16750000I-2120000J0D01*
G01*
G04 #@! TO.C,C3*
X12130000Y-6130000D02*
X19370000Y-6130000D01*
X12130000Y-8870000D02*
X19370000Y-8870000D01*
X12130000Y-6130000D02*
X12130000Y-8870000D01*
X19370000Y-6130000D02*
X19370000Y-8870000D01*
G04 #@! TO.C,C4*
X12130000Y-12870000D02*
X12130000Y-10130000D01*
X19370000Y-12870000D02*
X19370000Y-10130000D01*
X19370000Y-10130000D02*
X12130000Y-10130000D01*
X19370000Y-12870000D02*
X12130000Y-12870000D01*
G04 #@! TO.C,D1*
X4220000Y-10390000D02*
X1280000Y-10390000D01*
X4220000Y-10630000D02*
X1280000Y-10630000D01*
X4220000Y-10510000D02*
X1280000Y-10510000D01*
X2750000Y-16070000D02*
X2750000Y-15050000D01*
X2750000Y-8590000D02*
X2750000Y-9610000D01*
X4220000Y-15050000D02*
X4220000Y-9610000D01*
X1280000Y-15050000D02*
X4220000Y-15050000D01*
X1280000Y-9610000D02*
X1280000Y-15050000D01*
X4220000Y-9610000D02*
X1280000Y-9610000D01*
G04 #@! TO.C,D2*
X9220000Y-9610000D02*
X6280000Y-9610000D01*
X6280000Y-9610000D02*
X6280000Y-15050000D01*
X6280000Y-15050000D02*
X9220000Y-15050000D01*
X9220000Y-15050000D02*
X9220000Y-9610000D01*
X7750000Y-8590000D02*
X7750000Y-9610000D01*
X7750000Y-16070000D02*
X7750000Y-15050000D01*
X9220000Y-10510000D02*
X6280000Y-10510000D01*
X9220000Y-10630000D02*
X6280000Y-10630000D01*
X9220000Y-10390000D02*
X6280000Y-10390000D01*
G04 #@! TO.C,D_NEG_1_1*
X39692335Y-16171392D02*
G75*
G03X36460000Y-16014484I-1672335J-1078608D01*
G01*
X39692335Y-18328608D02*
G75*
G02X36460000Y-18485516I-1672335J1078608D01*
G01*
X39061130Y-16170163D02*
G75*
G03X36979039Y-16170000I-1041130J-1079837D01*
G01*
X39061130Y-18329837D02*
G75*
G02X36979039Y-18330000I-1041130J1079837D01*
G01*
X36460000Y-16014000D02*
X36460000Y-16170000D01*
X36460000Y-18330000D02*
X36460000Y-18486000D01*
G04 #@! TO.C,D_NEG_1_2*
X159652335Y-16171392D02*
G75*
G03X156420000Y-16014484I-1672335J-1078608D01*
G01*
X159652335Y-18328608D02*
G75*
G02X156420000Y-18485516I-1672335J1078608D01*
G01*
X159021130Y-16170163D02*
G75*
G03X156939039Y-16170000I-1041130J-1079837D01*
G01*
X159021130Y-18329837D02*
G75*
G02X156939039Y-18330000I-1041130J1079837D01*
G01*
X156420000Y-16014000D02*
X156420000Y-16170000D01*
X156420000Y-18330000D02*
X156420000Y-18486000D01*
G04 #@! TO.C,D_NEG_1_3*
X276460000Y-18330000D02*
X276460000Y-18486000D01*
X276460000Y-16014000D02*
X276460000Y-16170000D01*
X279061130Y-18329837D02*
G75*
G02X276979039Y-18330000I-1041130J1079837D01*
G01*
X279061130Y-16170163D02*
G75*
G03X276979039Y-16170000I-1041130J-1079837D01*
G01*
X279692335Y-18328608D02*
G75*
G02X276460000Y-18485516I-1672335J1078608D01*
G01*
X279692335Y-16171392D02*
G75*
G03X276460000Y-16014484I-1672335J-1078608D01*
G01*
G04 #@! TO.C,D_NEG_1_4*
X399692335Y-16171392D02*
G75*
G03X396460000Y-16014484I-1672335J-1078608D01*
G01*
X399692335Y-18328608D02*
G75*
G02X396460000Y-18485516I-1672335J1078608D01*
G01*
X399061130Y-16170163D02*
G75*
G03X396979039Y-16170000I-1041130J-1079837D01*
G01*
X399061130Y-18329837D02*
G75*
G02X396979039Y-18330000I-1041130J1079837D01*
G01*
X396460000Y-16014000D02*
X396460000Y-16170000D01*
X396460000Y-18330000D02*
X396460000Y-18486000D01*
G04 #@! TO.C,D_NEG_2_1*
X69692335Y-16171392D02*
G75*
G03X66460000Y-16014484I-1672335J-1078608D01*
G01*
X69692335Y-18328608D02*
G75*
G02X66460000Y-18485516I-1672335J1078608D01*
G01*
X69061130Y-16170163D02*
G75*
G03X66979039Y-16170000I-1041130J-1079837D01*
G01*
X69061130Y-18329837D02*
G75*
G02X66979039Y-18330000I-1041130J1079837D01*
G01*
X66460000Y-16014000D02*
X66460000Y-16170000D01*
X66460000Y-18330000D02*
X66460000Y-18486000D01*
G04 #@! TO.C,D_NEG_2_2*
X189692335Y-16171392D02*
G75*
G03X186460000Y-16014484I-1672335J-1078608D01*
G01*
X189692335Y-18328608D02*
G75*
G02X186460000Y-18485516I-1672335J1078608D01*
G01*
X189061130Y-16170163D02*
G75*
G03X186979039Y-16170000I-1041130J-1079837D01*
G01*
X189061130Y-18329837D02*
G75*
G02X186979039Y-18330000I-1041130J1079837D01*
G01*
X186460000Y-16014000D02*
X186460000Y-16170000D01*
X186460000Y-18330000D02*
X186460000Y-18486000D01*
G04 #@! TO.C,D_NEG_2_3*
X306460000Y-18330000D02*
X306460000Y-18486000D01*
X306460000Y-16014000D02*
X306460000Y-16170000D01*
X309061130Y-18329837D02*
G75*
G02X306979039Y-18330000I-1041130J1079837D01*
G01*
X309061130Y-16170163D02*
G75*
G03X306979039Y-16170000I-1041130J-1079837D01*
G01*
X309692335Y-18328608D02*
G75*
G02X306460000Y-18485516I-1672335J1078608D01*
G01*
X309692335Y-16171392D02*
G75*
G03X306460000Y-16014484I-1672335J-1078608D01*
G01*
G04 #@! TO.C,D_NEG_2_4*
X429692335Y-16171392D02*
G75*
G03X426460000Y-16014484I-1672335J-1078608D01*
G01*
X429692335Y-18328608D02*
G75*
G02X426460000Y-18485516I-1672335J1078608D01*
G01*
X429061130Y-16170163D02*
G75*
G03X426979039Y-16170000I-1041130J-1079837D01*
G01*
X429061130Y-18329837D02*
G75*
G02X426979039Y-18330000I-1041130J1079837D01*
G01*
X426460000Y-16014000D02*
X426460000Y-16170000D01*
X426460000Y-18330000D02*
X426460000Y-18486000D01*
G04 #@! TO.C,D_NEG_3_1*
X99692335Y-16171392D02*
G75*
G03X96460000Y-16014484I-1672335J-1078608D01*
G01*
X99692335Y-18328608D02*
G75*
G02X96460000Y-18485516I-1672335J1078608D01*
G01*
X99061130Y-16170163D02*
G75*
G03X96979039Y-16170000I-1041130J-1079837D01*
G01*
X99061130Y-18329837D02*
G75*
G02X96979039Y-18330000I-1041130J1079837D01*
G01*
X96460000Y-16014000D02*
X96460000Y-16170000D01*
X96460000Y-18330000D02*
X96460000Y-18486000D01*
G04 #@! TO.C,D_NEG_3_2*
X219692335Y-16171392D02*
G75*
G03X216460000Y-16014484I-1672335J-1078608D01*
G01*
X219692335Y-18328608D02*
G75*
G02X216460000Y-18485516I-1672335J1078608D01*
G01*
X219061130Y-16170163D02*
G75*
G03X216979039Y-16170000I-1041130J-1079837D01*
G01*
X219061130Y-18329837D02*
G75*
G02X216979039Y-18330000I-1041130J1079837D01*
G01*
X216460000Y-16014000D02*
X216460000Y-16170000D01*
X216460000Y-18330000D02*
X216460000Y-18486000D01*
G04 #@! TO.C,D_NEG_3_3*
X336460000Y-18330000D02*
X336460000Y-18486000D01*
X336460000Y-16014000D02*
X336460000Y-16170000D01*
X339061130Y-18329837D02*
G75*
G02X336979039Y-18330000I-1041130J1079837D01*
G01*
X339061130Y-16170163D02*
G75*
G03X336979039Y-16170000I-1041130J-1079837D01*
G01*
X339692335Y-18328608D02*
G75*
G02X336460000Y-18485516I-1672335J1078608D01*
G01*
X339692335Y-16171392D02*
G75*
G03X336460000Y-16014484I-1672335J-1078608D01*
G01*
G04 #@! TO.C,D_NEG_3_4*
X456460000Y-18330000D02*
X456460000Y-18486000D01*
X456460000Y-16014000D02*
X456460000Y-16170000D01*
X459061130Y-18329837D02*
G75*
G02X456979039Y-18330000I-1041130J1079837D01*
G01*
X459061130Y-16170163D02*
G75*
G03X456979039Y-16170000I-1041130J-1079837D01*
G01*
X459692335Y-18328608D02*
G75*
G02X456460000Y-18485516I-1672335J1078608D01*
G01*
X459692335Y-16171392D02*
G75*
G03X456460000Y-16014484I-1672335J-1078608D01*
G01*
G04 #@! TO.C,D_NEG_4_1*
X126460000Y-18330000D02*
X126460000Y-18486000D01*
X126460000Y-16014000D02*
X126460000Y-16170000D01*
X129061130Y-18329837D02*
G75*
G02X126979039Y-18330000I-1041130J1079837D01*
G01*
X129061130Y-16170163D02*
G75*
G03X126979039Y-16170000I-1041130J-1079837D01*
G01*
X129692335Y-18328608D02*
G75*
G02X126460000Y-18485516I-1672335J1078608D01*
G01*
X129692335Y-16171392D02*
G75*
G03X126460000Y-16014484I-1672335J-1078608D01*
G01*
G04 #@! TO.C,D_NEG_4_2*
X249692335Y-16171392D02*
G75*
G03X246460000Y-16014484I-1672335J-1078608D01*
G01*
X249692335Y-18328608D02*
G75*
G02X246460000Y-18485516I-1672335J1078608D01*
G01*
X249061130Y-16170163D02*
G75*
G03X246979039Y-16170000I-1041130J-1079837D01*
G01*
X249061130Y-18329837D02*
G75*
G02X246979039Y-18330000I-1041130J1079837D01*
G01*
X246460000Y-16014000D02*
X246460000Y-16170000D01*
X246460000Y-18330000D02*
X246460000Y-18486000D01*
G04 #@! TO.C,D_NEG_4_3*
X366460000Y-18330000D02*
X366460000Y-18486000D01*
X366460000Y-16014000D02*
X366460000Y-16170000D01*
X369061130Y-18329837D02*
G75*
G02X366979039Y-18330000I-1041130J1079837D01*
G01*
X369061130Y-16170163D02*
G75*
G03X366979039Y-16170000I-1041130J-1079837D01*
G01*
X369692335Y-18328608D02*
G75*
G02X366460000Y-18485516I-1672335J1078608D01*
G01*
X369692335Y-16171392D02*
G75*
G03X366460000Y-16014484I-1672335J-1078608D01*
G01*
G04 #@! TO.C,D_NEG_4_4*
X489692335Y-16171392D02*
G75*
G03X486460000Y-16014484I-1672335J-1078608D01*
G01*
X489692335Y-18328608D02*
G75*
G02X486460000Y-18485516I-1672335J1078608D01*
G01*
X489061130Y-16170163D02*
G75*
G03X486979039Y-16170000I-1041130J-1079837D01*
G01*
X489061130Y-18329837D02*
G75*
G02X486979039Y-18330000I-1041130J1079837D01*
G01*
X486460000Y-16014000D02*
X486460000Y-16170000D01*
X486460000Y-18330000D02*
X486460000Y-18486000D01*
G04 #@! TO.C,D_POS_1_1*
X36460000Y-3830000D02*
X36460000Y-3986000D01*
X36460000Y-1514000D02*
X36460000Y-1670000D01*
X39061130Y-3829837D02*
G75*
G02X36979039Y-3830000I-1041130J1079837D01*
G01*
X39061130Y-1670163D02*
G75*
G03X36979039Y-1670000I-1041130J-1079837D01*
G01*
X39692335Y-3828608D02*
G75*
G02X36460000Y-3985516I-1672335J1078608D01*
G01*
X39692335Y-1671392D02*
G75*
G03X36460000Y-1514484I-1672335J-1078608D01*
G01*
G04 #@! TO.C,D_POS_1_2*
X156420000Y-3830000D02*
X156420000Y-3986000D01*
X156420000Y-1514000D02*
X156420000Y-1670000D01*
X159021130Y-3829837D02*
G75*
G02X156939039Y-3830000I-1041130J1079837D01*
G01*
X159021130Y-1670163D02*
G75*
G03X156939039Y-1670000I-1041130J-1079837D01*
G01*
X159652335Y-3828608D02*
G75*
G02X156420000Y-3985516I-1672335J1078608D01*
G01*
X159652335Y-1671392D02*
G75*
G03X156420000Y-1514484I-1672335J-1078608D01*
G01*
G04 #@! TO.C,D_POS_1_3*
X279692335Y-1671392D02*
G75*
G03X276460000Y-1514484I-1672335J-1078608D01*
G01*
X279692335Y-3828608D02*
G75*
G02X276460000Y-3985516I-1672335J1078608D01*
G01*
X279061130Y-1670163D02*
G75*
G03X276979039Y-1670000I-1041130J-1079837D01*
G01*
X279061130Y-3829837D02*
G75*
G02X276979039Y-3830000I-1041130J1079837D01*
G01*
X276460000Y-1514000D02*
X276460000Y-1670000D01*
X276460000Y-3830000D02*
X276460000Y-3986000D01*
G04 #@! TO.C,D_POS_1_4*
X396460000Y-3830000D02*
X396460000Y-3986000D01*
X396460000Y-1514000D02*
X396460000Y-1670000D01*
X399061130Y-3829837D02*
G75*
G02X396979039Y-3830000I-1041130J1079837D01*
G01*
X399061130Y-1670163D02*
G75*
G03X396979039Y-1670000I-1041130J-1079837D01*
G01*
X399692335Y-3828608D02*
G75*
G02X396460000Y-3985516I-1672335J1078608D01*
G01*
X399692335Y-1671392D02*
G75*
G03X396460000Y-1514484I-1672335J-1078608D01*
G01*
G04 #@! TO.C,D_POS_2_1*
X66460000Y-3830000D02*
X66460000Y-3986000D01*
X66460000Y-1514000D02*
X66460000Y-1670000D01*
X69061130Y-3829837D02*
G75*
G02X66979039Y-3830000I-1041130J1079837D01*
G01*
X69061130Y-1670163D02*
G75*
G03X66979039Y-1670000I-1041130J-1079837D01*
G01*
X69692335Y-3828608D02*
G75*
G02X66460000Y-3985516I-1672335J1078608D01*
G01*
X69692335Y-1671392D02*
G75*
G03X66460000Y-1514484I-1672335J-1078608D01*
G01*
G04 #@! TO.C,D_POS_2_2*
X189692335Y-1671392D02*
G75*
G03X186460000Y-1514484I-1672335J-1078608D01*
G01*
X189692335Y-3828608D02*
G75*
G02X186460000Y-3985516I-1672335J1078608D01*
G01*
X189061130Y-1670163D02*
G75*
G03X186979039Y-1670000I-1041130J-1079837D01*
G01*
X189061130Y-3829837D02*
G75*
G02X186979039Y-3830000I-1041130J1079837D01*
G01*
X186460000Y-1514000D02*
X186460000Y-1670000D01*
X186460000Y-3830000D02*
X186460000Y-3986000D01*
G04 #@! TO.C,D_POS_2_3*
X309652335Y-1671392D02*
G75*
G03X306420000Y-1514484I-1672335J-1078608D01*
G01*
X309652335Y-3828608D02*
G75*
G02X306420000Y-3985516I-1672335J1078608D01*
G01*
X309021130Y-1670163D02*
G75*
G03X306939039Y-1670000I-1041130J-1079837D01*
G01*
X309021130Y-3829837D02*
G75*
G02X306939039Y-3830000I-1041130J1079837D01*
G01*
X306420000Y-1514000D02*
X306420000Y-1670000D01*
X306420000Y-3830000D02*
X306420000Y-3986000D01*
G04 #@! TO.C,D_POS_2_4*
X426460000Y-3830000D02*
X426460000Y-3986000D01*
X426460000Y-1514000D02*
X426460000Y-1670000D01*
X429061130Y-3829837D02*
G75*
G02X426979039Y-3830000I-1041130J1079837D01*
G01*
X429061130Y-1670163D02*
G75*
G03X426979039Y-1670000I-1041130J-1079837D01*
G01*
X429692335Y-3828608D02*
G75*
G02X426460000Y-3985516I-1672335J1078608D01*
G01*
X429692335Y-1671392D02*
G75*
G03X426460000Y-1514484I-1672335J-1078608D01*
G01*
G04 #@! TO.C,D_POS_3_1*
X96460000Y-3830000D02*
X96460000Y-3986000D01*
X96460000Y-1514000D02*
X96460000Y-1670000D01*
X99061130Y-3829837D02*
G75*
G02X96979039Y-3830000I-1041130J1079837D01*
G01*
X99061130Y-1670163D02*
G75*
G03X96979039Y-1670000I-1041130J-1079837D01*
G01*
X99692335Y-3828608D02*
G75*
G02X96460000Y-3985516I-1672335J1078608D01*
G01*
X99692335Y-1671392D02*
G75*
G03X96460000Y-1514484I-1672335J-1078608D01*
G01*
G04 #@! TO.C,D_POS_3_2*
X219692335Y-1671392D02*
G75*
G03X216460000Y-1514484I-1672335J-1078608D01*
G01*
X219692335Y-3828608D02*
G75*
G02X216460000Y-3985516I-1672335J1078608D01*
G01*
X219061130Y-1670163D02*
G75*
G03X216979039Y-1670000I-1041130J-1079837D01*
G01*
X219061130Y-3829837D02*
G75*
G02X216979039Y-3830000I-1041130J1079837D01*
G01*
X216460000Y-1514000D02*
X216460000Y-1670000D01*
X216460000Y-3830000D02*
X216460000Y-3986000D01*
G04 #@! TO.C,D_POS_3_3*
X336460000Y-3830000D02*
X336460000Y-3986000D01*
X336460000Y-1514000D02*
X336460000Y-1670000D01*
X339061130Y-3829837D02*
G75*
G02X336979039Y-3830000I-1041130J1079837D01*
G01*
X339061130Y-1670163D02*
G75*
G03X336979039Y-1670000I-1041130J-1079837D01*
G01*
X339692335Y-3828608D02*
G75*
G02X336460000Y-3985516I-1672335J1078608D01*
G01*
X339692335Y-1671392D02*
G75*
G03X336460000Y-1514484I-1672335J-1078608D01*
G01*
G04 #@! TO.C,D_POS_3_4*
X456460000Y-3830000D02*
X456460000Y-3986000D01*
X456460000Y-1514000D02*
X456460000Y-1670000D01*
X459061130Y-3829837D02*
G75*
G02X456979039Y-3830000I-1041130J1079837D01*
G01*
X459061130Y-1670163D02*
G75*
G03X456979039Y-1670000I-1041130J-1079837D01*
G01*
X459692335Y-3828608D02*
G75*
G02X456460000Y-3985516I-1672335J1078608D01*
G01*
X459692335Y-1671392D02*
G75*
G03X456460000Y-1514484I-1672335J-1078608D01*
G01*
G04 #@! TO.C,D_POS_4_1*
X126460000Y-3830000D02*
X126460000Y-3986000D01*
X126460000Y-1514000D02*
X126460000Y-1670000D01*
X129061130Y-3829837D02*
G75*
G02X126979039Y-3830000I-1041130J1079837D01*
G01*
X129061130Y-1670163D02*
G75*
G03X126979039Y-1670000I-1041130J-1079837D01*
G01*
X129692335Y-3828608D02*
G75*
G02X126460000Y-3985516I-1672335J1078608D01*
G01*
X129692335Y-1671392D02*
G75*
G03X126460000Y-1514484I-1672335J-1078608D01*
G01*
G04 #@! TO.C,D_POS_4_2*
X249692335Y-1671392D02*
G75*
G03X246460000Y-1514484I-1672335J-1078608D01*
G01*
X249692335Y-3828608D02*
G75*
G02X246460000Y-3985516I-1672335J1078608D01*
G01*
X249061130Y-1670163D02*
G75*
G03X246979039Y-1670000I-1041130J-1079837D01*
G01*
X249061130Y-3829837D02*
G75*
G02X246979039Y-3830000I-1041130J1079837D01*
G01*
X246460000Y-1514000D02*
X246460000Y-1670000D01*
X246460000Y-3830000D02*
X246460000Y-3986000D01*
G04 #@! TO.C,D_POS_4_3*
X366460000Y-3830000D02*
X366460000Y-3986000D01*
X366460000Y-1514000D02*
X366460000Y-1670000D01*
X369061130Y-3829837D02*
G75*
G02X366979039Y-3830000I-1041130J1079837D01*
G01*
X369061130Y-1670163D02*
G75*
G03X366979039Y-1670000I-1041130J-1079837D01*
G01*
X369692335Y-3828608D02*
G75*
G02X366460000Y-3985516I-1672335J1078608D01*
G01*
X369692335Y-1671392D02*
G75*
G03X366460000Y-1514484I-1672335J-1078608D01*
G01*
G04 #@! TO.C,D_POS_4_4*
X489692335Y-1671392D02*
G75*
G03X486460000Y-1514484I-1672335J-1078608D01*
G01*
X489692335Y-3828608D02*
G75*
G02X486460000Y-3985516I-1672335J1078608D01*
G01*
X489061130Y-1670163D02*
G75*
G03X486979039Y-1670000I-1041130J-1079837D01*
G01*
X489061130Y-3829837D02*
G75*
G02X486979039Y-3830000I-1041130J1079837D01*
G01*
X486460000Y-1514000D02*
X486460000Y-1670000D01*
X486460000Y-3830000D02*
X486460000Y-3986000D01*
G04 #@! TO.C,R_LED_1_1*
X79170000Y-2710000D02*
X79170000Y-2380000D01*
X79170000Y-2380000D02*
X85710000Y-2380000D01*
X85710000Y-2380000D02*
X85710000Y-2710000D01*
X79170000Y-4790000D02*
X79170000Y-5120000D01*
X79170000Y-5120000D02*
X85710000Y-5120000D01*
X85710000Y-5120000D02*
X85710000Y-4790000D01*
G04 #@! TO.C,R_LED_2_1*
X199790000Y-2710000D02*
X199790000Y-2380000D01*
X199790000Y-2380000D02*
X206330000Y-2380000D01*
X206330000Y-2380000D02*
X206330000Y-2710000D01*
X199790000Y-4790000D02*
X199790000Y-5120000D01*
X199790000Y-5120000D02*
X206330000Y-5120000D01*
X206330000Y-5120000D02*
X206330000Y-4790000D01*
G04 #@! TO.C,R_LED_3_1*
X326830000Y-5120000D02*
X326830000Y-4790000D01*
X320290000Y-5120000D02*
X326830000Y-5120000D01*
X320290000Y-4790000D02*
X320290000Y-5120000D01*
X326830000Y-2380000D02*
X326830000Y-2710000D01*
X320290000Y-2380000D02*
X326830000Y-2380000D01*
X320290000Y-2710000D02*
X320290000Y-2380000D01*
G04 #@! TO.C,R_LED_4_1*
X445580000Y-5120000D02*
X445580000Y-4790000D01*
X439040000Y-5120000D02*
X445580000Y-5120000D01*
X439040000Y-4790000D02*
X439040000Y-5120000D01*
X445580000Y-2380000D02*
X445580000Y-2710000D01*
X439040000Y-2380000D02*
X445580000Y-2380000D01*
X439040000Y-2710000D02*
X439040000Y-2380000D01*
G04 #@! TO.C,R_Split_1_1*
X85580000Y-11370000D02*
X85580000Y-11040000D01*
X79040000Y-11370000D02*
X85580000Y-11370000D01*
X79040000Y-11040000D02*
X79040000Y-11370000D01*
X85580000Y-8630000D02*
X85580000Y-8960000D01*
X79040000Y-8630000D02*
X85580000Y-8630000D01*
X79040000Y-8960000D02*
X79040000Y-8630000D01*
G04 #@! TO.C,R_Split_1_2*
X79040000Y-15210000D02*
X79040000Y-14880000D01*
X79040000Y-14880000D02*
X85580000Y-14880000D01*
X85580000Y-14880000D02*
X85580000Y-15210000D01*
X79040000Y-17290000D02*
X79040000Y-17620000D01*
X79040000Y-17620000D02*
X85580000Y-17620000D01*
X85580000Y-17620000D02*
X85580000Y-17290000D01*
G04 #@! TO.C,R_Split_2_1*
X206330000Y-11370000D02*
X206330000Y-11040000D01*
X199790000Y-11370000D02*
X206330000Y-11370000D01*
X199790000Y-11040000D02*
X199790000Y-11370000D01*
X206330000Y-8630000D02*
X206330000Y-8960000D01*
X199790000Y-8630000D02*
X206330000Y-8630000D01*
X199790000Y-8960000D02*
X199790000Y-8630000D01*
G04 #@! TO.C,R_Split_2_2*
X206330000Y-17620000D02*
X206330000Y-17290000D01*
X199790000Y-17620000D02*
X206330000Y-17620000D01*
X199790000Y-17290000D02*
X199790000Y-17620000D01*
X206330000Y-14880000D02*
X206330000Y-15210000D01*
X199790000Y-14880000D02*
X206330000Y-14880000D01*
X199790000Y-15210000D02*
X199790000Y-14880000D01*
G04 #@! TO.C,R_Split_3_1*
X320290000Y-8960000D02*
X320290000Y-8630000D01*
X320290000Y-8630000D02*
X326830000Y-8630000D01*
X326830000Y-8630000D02*
X326830000Y-8960000D01*
X320290000Y-11040000D02*
X320290000Y-11370000D01*
X320290000Y-11370000D02*
X326830000Y-11370000D01*
X326830000Y-11370000D02*
X326830000Y-11040000D01*
G04 #@! TO.C,R_Split_3_2*
X320290000Y-15210000D02*
X320290000Y-14880000D01*
X320290000Y-14880000D02*
X326830000Y-14880000D01*
X326830000Y-14880000D02*
X326830000Y-15210000D01*
X320290000Y-17290000D02*
X320290000Y-17620000D01*
X320290000Y-17620000D02*
X326830000Y-17620000D01*
X326830000Y-17620000D02*
X326830000Y-17290000D01*
G04 #@! TO.C,R_Split_4_1*
X439040000Y-8960000D02*
X439040000Y-8630000D01*
X439040000Y-8630000D02*
X445580000Y-8630000D01*
X445580000Y-8630000D02*
X445580000Y-8960000D01*
X439040000Y-11040000D02*
X439040000Y-11370000D01*
X439040000Y-11370000D02*
X445580000Y-11370000D01*
X445580000Y-11370000D02*
X445580000Y-11040000D01*
G04 #@! TO.C,R_Split_4_2*
X445580000Y-17620000D02*
X445580000Y-17290000D01*
X439040000Y-17620000D02*
X445580000Y-17620000D01*
X439040000Y-17290000D02*
X439040000Y-17620000D01*
X445580000Y-14880000D02*
X445580000Y-15210000D01*
X439040000Y-14880000D02*
X445580000Y-14880000D01*
X439040000Y-15210000D02*
X439040000Y-14880000D01*
G04 #@! TO.C,U1*
X520700000Y-11060000D02*
G75*
G02X520700000Y-9060000I0J1000000D01*
G01*
X520700000Y-9060000D02*
X520700000Y-7410000D01*
X520700000Y-7410000D02*
X502800000Y-7410000D01*
X502800000Y-7410000D02*
X502800000Y-12710000D01*
X502800000Y-12710000D02*
X520700000Y-12710000D01*
X520700000Y-12710000D02*
X520700000Y-11060000D01*
X520760000Y-4920000D02*
X502740000Y-4920000D01*
X502740000Y-4920000D02*
X502740000Y-15200000D01*
X502740000Y-15200000D02*
X520760000Y-15200000D01*
X520760000Y-15200000D02*
X520760000Y-4920000D01*
D13*
G04 #@! TO.C,U2*
X40689860Y-10000000D02*
G75*
G03X40689860Y-10000000I-2689860J0D01*
G01*
X42498340Y-14498340D02*
X42498340Y-13997960D01*
X41997960Y-14498340D02*
X42498340Y-14498340D01*
X42498340Y-5501660D02*
X42498340Y-6002040D01*
X41997960Y-5501660D02*
X42498340Y-5501660D01*
X32000520Y-5501660D02*
X32500900Y-5501660D01*
X32000520Y-6002040D02*
X32000520Y-5501660D01*
X32000520Y-14498340D02*
X32000520Y-13997960D01*
X32500900Y-14498340D02*
X32000520Y-14498340D01*
D14*
X40799080Y-12799080D02*
X35200920Y-12799080D01*
X35200920Y-12799080D02*
X35200920Y-7200920D01*
X40799080Y-7200920D02*
X35200920Y-7200920D01*
X40799080Y-12799080D02*
X40799080Y-7200920D01*
G04 #@! TO.C,U3*
X160799080Y-12799080D02*
X160799080Y-7200920D01*
X160799080Y-7200920D02*
X155200920Y-7200920D01*
X155200920Y-12799080D02*
X155200920Y-7200920D01*
X160799080Y-12799080D02*
X155200920Y-12799080D01*
D13*
X152500900Y-14498340D02*
X152000520Y-14498340D01*
X152000520Y-14498340D02*
X152000520Y-13997960D01*
X152000520Y-6002040D02*
X152000520Y-5501660D01*
X152000520Y-5501660D02*
X152500900Y-5501660D01*
X161997960Y-5501660D02*
X162498340Y-5501660D01*
X162498340Y-5501660D02*
X162498340Y-6002040D01*
X161997960Y-14498340D02*
X162498340Y-14498340D01*
X162498340Y-14498340D02*
X162498340Y-13997960D01*
X160689860Y-10000000D02*
G75*
G03X160689860Y-10000000I-2689860J0D01*
G01*
G04 #@! TO.C,U4*
X280689860Y-10000000D02*
G75*
G03X280689860Y-10000000I-2689860J0D01*
G01*
X273501660Y-5501660D02*
X273501660Y-6002040D01*
X274002040Y-5501660D02*
X273501660Y-5501660D01*
X273501660Y-14498340D02*
X273501660Y-13997960D01*
X274002040Y-14498340D02*
X273501660Y-14498340D01*
X283999480Y-14498340D02*
X283499100Y-14498340D01*
X283999480Y-13997960D02*
X283999480Y-14498340D01*
X283999480Y-5501660D02*
X283999480Y-6002040D01*
X283499100Y-5501660D02*
X283999480Y-5501660D01*
D14*
X275200920Y-7200920D02*
X280799080Y-7200920D01*
X280799080Y-7200920D02*
X280799080Y-12799080D01*
X275200920Y-12799080D02*
X280799080Y-12799080D01*
X275200920Y-7200920D02*
X275200920Y-12799080D01*
G04 #@! TO.C,U5*
X395200920Y-7200920D02*
X395200920Y-12799080D01*
X395200920Y-12799080D02*
X400799080Y-12799080D01*
X400799080Y-7200920D02*
X400799080Y-12799080D01*
X395200920Y-7200920D02*
X400799080Y-7200920D01*
D13*
X403499100Y-5501660D02*
X403999480Y-5501660D01*
X403999480Y-5501660D02*
X403999480Y-6002040D01*
X403999480Y-13997960D02*
X403999480Y-14498340D01*
X403999480Y-14498340D02*
X403499100Y-14498340D01*
X394002040Y-14498340D02*
X393501660Y-14498340D01*
X393501660Y-14498340D02*
X393501660Y-13997960D01*
X394002040Y-5501660D02*
X393501660Y-5501660D01*
X393501660Y-5501660D02*
X393501660Y-6002040D01*
X400689860Y-10000000D02*
G75*
G03X400689860Y-10000000I-2689860J0D01*
G01*
G04 #@! TO.C,U6*
X70689860Y-10000000D02*
G75*
G03X70689860Y-10000000I-2689860J0D01*
G01*
X72498340Y-14498340D02*
X72498340Y-13997960D01*
X71997960Y-14498340D02*
X72498340Y-14498340D01*
X72498340Y-5501660D02*
X72498340Y-6002040D01*
X71997960Y-5501660D02*
X72498340Y-5501660D01*
X62000520Y-5501660D02*
X62500900Y-5501660D01*
X62000520Y-6002040D02*
X62000520Y-5501660D01*
X62000520Y-14498340D02*
X62000520Y-13997960D01*
X62500900Y-14498340D02*
X62000520Y-14498340D01*
D14*
X70799080Y-12799080D02*
X65200920Y-12799080D01*
X65200920Y-12799080D02*
X65200920Y-7200920D01*
X70799080Y-7200920D02*
X65200920Y-7200920D01*
X70799080Y-12799080D02*
X70799080Y-7200920D01*
D13*
G04 #@! TO.C,U7*
X190689860Y-10000000D02*
G75*
G03X190689860Y-10000000I-2689860J0D01*
G01*
X192498340Y-14498340D02*
X192498340Y-13997960D01*
X191997960Y-14498340D02*
X192498340Y-14498340D01*
X192498340Y-5501660D02*
X192498340Y-6002040D01*
X191997960Y-5501660D02*
X192498340Y-5501660D01*
X182000520Y-5501660D02*
X182500900Y-5501660D01*
X182000520Y-6002040D02*
X182000520Y-5501660D01*
X182000520Y-14498340D02*
X182000520Y-13997960D01*
X182500900Y-14498340D02*
X182000520Y-14498340D01*
D14*
X190799080Y-12799080D02*
X185200920Y-12799080D01*
X185200920Y-12799080D02*
X185200920Y-7200920D01*
X190799080Y-7200920D02*
X185200920Y-7200920D01*
X190799080Y-12799080D02*
X190799080Y-7200920D01*
G04 #@! TO.C,U8*
X305200920Y-7200920D02*
X305200920Y-12799080D01*
X305200920Y-12799080D02*
X310799080Y-12799080D01*
X310799080Y-7200920D02*
X310799080Y-12799080D01*
X305200920Y-7200920D02*
X310799080Y-7200920D01*
D13*
X313499100Y-5501660D02*
X313999480Y-5501660D01*
X313999480Y-5501660D02*
X313999480Y-6002040D01*
X313999480Y-13997960D02*
X313999480Y-14498340D01*
X313999480Y-14498340D02*
X313499100Y-14498340D01*
X304002040Y-14498340D02*
X303501660Y-14498340D01*
X303501660Y-14498340D02*
X303501660Y-13997960D01*
X304002040Y-5501660D02*
X303501660Y-5501660D01*
X303501660Y-5501660D02*
X303501660Y-6002040D01*
X310689860Y-10000000D02*
G75*
G03X310689860Y-10000000I-2689860J0D01*
G01*
G04 #@! TO.C,U9*
X430689860Y-10000000D02*
G75*
G03X430689860Y-10000000I-2689860J0D01*
G01*
X423501660Y-5501660D02*
X423501660Y-6002040D01*
X424002040Y-5501660D02*
X423501660Y-5501660D01*
X423501660Y-14498340D02*
X423501660Y-13997960D01*
X424002040Y-14498340D02*
X423501660Y-14498340D01*
X433999480Y-14498340D02*
X433499100Y-14498340D01*
X433999480Y-13997960D02*
X433999480Y-14498340D01*
X433999480Y-5501660D02*
X433999480Y-6002040D01*
X433499100Y-5501660D02*
X433999480Y-5501660D01*
D14*
X425200920Y-7200920D02*
X430799080Y-7200920D01*
X430799080Y-7200920D02*
X430799080Y-12799080D01*
X425200920Y-12799080D02*
X430799080Y-12799080D01*
X425200920Y-7200920D02*
X425200920Y-12799080D01*
G04 #@! TO.C,U10*
X100799080Y-12799080D02*
X100799080Y-7200920D01*
X100799080Y-7200920D02*
X95200920Y-7200920D01*
X95200920Y-12799080D02*
X95200920Y-7200920D01*
X100799080Y-12799080D02*
X95200920Y-12799080D01*
D13*
X92500900Y-14498340D02*
X92000520Y-14498340D01*
X92000520Y-14498340D02*
X92000520Y-13997960D01*
X92000520Y-6002040D02*
X92000520Y-5501660D01*
X92000520Y-5501660D02*
X92500900Y-5501660D01*
X101997960Y-5501660D02*
X102498340Y-5501660D01*
X102498340Y-5501660D02*
X102498340Y-6002040D01*
X101997960Y-14498340D02*
X102498340Y-14498340D01*
X102498340Y-14498340D02*
X102498340Y-13997960D01*
X100689860Y-10000000D02*
G75*
G03X100689860Y-10000000I-2689860J0D01*
G01*
G04 #@! TO.C,U11*
X220689860Y-10000000D02*
G75*
G03X220689860Y-10000000I-2689860J0D01*
G01*
X222498340Y-14498340D02*
X222498340Y-13997960D01*
X221997960Y-14498340D02*
X222498340Y-14498340D01*
X222498340Y-5501660D02*
X222498340Y-6002040D01*
X221997960Y-5501660D02*
X222498340Y-5501660D01*
X212000520Y-5501660D02*
X212500900Y-5501660D01*
X212000520Y-6002040D02*
X212000520Y-5501660D01*
X212000520Y-14498340D02*
X212000520Y-13997960D01*
X212500900Y-14498340D02*
X212000520Y-14498340D01*
D14*
X220799080Y-12799080D02*
X215200920Y-12799080D01*
X215200920Y-12799080D02*
X215200920Y-7200920D01*
X220799080Y-7200920D02*
X215200920Y-7200920D01*
X220799080Y-12799080D02*
X220799080Y-7200920D01*
G04 #@! TO.C,U12*
X335200920Y-7200920D02*
X335200920Y-12799080D01*
X335200920Y-12799080D02*
X340799080Y-12799080D01*
X340799080Y-7200920D02*
X340799080Y-12799080D01*
X335200920Y-7200920D02*
X340799080Y-7200920D01*
D13*
X343499100Y-5501660D02*
X343999480Y-5501660D01*
X343999480Y-5501660D02*
X343999480Y-6002040D01*
X343999480Y-13997960D02*
X343999480Y-14498340D01*
X343999480Y-14498340D02*
X343499100Y-14498340D01*
X334002040Y-14498340D02*
X333501660Y-14498340D01*
X333501660Y-14498340D02*
X333501660Y-13997960D01*
X334002040Y-5501660D02*
X333501660Y-5501660D01*
X333501660Y-5501660D02*
X333501660Y-6002040D01*
X340689860Y-10000000D02*
G75*
G03X340689860Y-10000000I-2689860J0D01*
G01*
G04 #@! TO.C,U13*
X460689860Y-10000000D02*
G75*
G03X460689860Y-10000000I-2689860J0D01*
G01*
X453501660Y-5501660D02*
X453501660Y-6002040D01*
X454002040Y-5501660D02*
X453501660Y-5501660D01*
X453501660Y-14498340D02*
X453501660Y-13997960D01*
X454002040Y-14498340D02*
X453501660Y-14498340D01*
X463999480Y-14498340D02*
X463499100Y-14498340D01*
X463999480Y-13997960D02*
X463999480Y-14498340D01*
X463999480Y-5501660D02*
X463999480Y-6002040D01*
X463499100Y-5501660D02*
X463999480Y-5501660D01*
D14*
X455200920Y-7200920D02*
X460799080Y-7200920D01*
X460799080Y-7200920D02*
X460799080Y-12799080D01*
X455200920Y-12799080D02*
X460799080Y-12799080D01*
X455200920Y-7200920D02*
X455200920Y-12799080D01*
G04 #@! TO.C,U14*
X130799080Y-12799080D02*
X130799080Y-7200920D01*
X130799080Y-7200920D02*
X125200920Y-7200920D01*
X125200920Y-12799080D02*
X125200920Y-7200920D01*
X130799080Y-12799080D02*
X125200920Y-12799080D01*
D13*
X122500900Y-14498340D02*
X122000520Y-14498340D01*
X122000520Y-14498340D02*
X122000520Y-13997960D01*
X122000520Y-6002040D02*
X122000520Y-5501660D01*
X122000520Y-5501660D02*
X122500900Y-5501660D01*
X131997960Y-5501660D02*
X132498340Y-5501660D01*
X132498340Y-5501660D02*
X132498340Y-6002040D01*
X131997960Y-14498340D02*
X132498340Y-14498340D01*
X132498340Y-14498340D02*
X132498340Y-13997960D01*
X130689860Y-10000000D02*
G75*
G03X130689860Y-10000000I-2689860J0D01*
G01*
D14*
G04 #@! TO.C,U15*
X250799080Y-12799080D02*
X250799080Y-7200920D01*
X250799080Y-7200920D02*
X245200920Y-7200920D01*
X245200920Y-12799080D02*
X245200920Y-7200920D01*
X250799080Y-12799080D02*
X245200920Y-12799080D01*
D13*
X242500900Y-14498340D02*
X242000520Y-14498340D01*
X242000520Y-14498340D02*
X242000520Y-13997960D01*
X242000520Y-6002040D02*
X242000520Y-5501660D01*
X242000520Y-5501660D02*
X242500900Y-5501660D01*
X251997960Y-5501660D02*
X252498340Y-5501660D01*
X252498340Y-5501660D02*
X252498340Y-6002040D01*
X251997960Y-14498340D02*
X252498340Y-14498340D01*
X252498340Y-14498340D02*
X252498340Y-13997960D01*
X250689860Y-10000000D02*
G75*
G03X250689860Y-10000000I-2689860J0D01*
G01*
D14*
G04 #@! TO.C,U16*
X365200920Y-7200920D02*
X365200920Y-12799080D01*
X365200920Y-12799080D02*
X370799080Y-12799080D01*
X370799080Y-7200920D02*
X370799080Y-12799080D01*
X365200920Y-7200920D02*
X370799080Y-7200920D01*
D13*
X373499100Y-5501660D02*
X373999480Y-5501660D01*
X373999480Y-5501660D02*
X373999480Y-6002040D01*
X373999480Y-13997960D02*
X373999480Y-14498340D01*
X373999480Y-14498340D02*
X373499100Y-14498340D01*
X364002040Y-14498340D02*
X363501660Y-14498340D01*
X363501660Y-14498340D02*
X363501660Y-13997960D01*
X364002040Y-5501660D02*
X363501660Y-5501660D01*
X363501660Y-5501660D02*
X363501660Y-6002040D01*
X370689860Y-10000000D02*
G75*
G03X370689860Y-10000000I-2689860J0D01*
G01*
G04 #@! TO.C,U17*
X490689860Y-10000000D02*
G75*
G03X490689860Y-10000000I-2689860J0D01*
G01*
X483501660Y-5501660D02*
X483501660Y-6002040D01*
X484002040Y-5501660D02*
X483501660Y-5501660D01*
X483501660Y-14498340D02*
X483501660Y-13997960D01*
X484002040Y-14498340D02*
X483501660Y-14498340D01*
X493999480Y-14498340D02*
X493499100Y-14498340D01*
X493999480Y-13997960D02*
X493999480Y-14498340D01*
X493999480Y-5501660D02*
X493999480Y-6002040D01*
X493499100Y-5501660D02*
X493999480Y-5501660D01*
D14*
X485200920Y-7200920D02*
X490799080Y-7200920D01*
X490799080Y-7200920D02*
X490799080Y-12799080D01*
X485200920Y-12799080D02*
X490799080Y-12799080D01*
X485200920Y-7200920D02*
X485200920Y-12799080D01*
D12*
G04 #@! TO.C,R_FUSE_1*
X9330000Y-3290000D02*
X9330000Y-3620000D01*
X9330000Y-3620000D02*
X2790000Y-3620000D01*
X2790000Y-3620000D02*
X2790000Y-3290000D01*
X9330000Y-1210000D02*
X9330000Y-880000D01*
X9330000Y-880000D02*
X2790000Y-880000D01*
X2790000Y-880000D02*
X2790000Y-1210000D01*
G04 #@! TO.C,R_FUSE_2*
X13670000Y-880000D02*
X13670000Y-1210000D01*
X20210000Y-880000D02*
X13670000Y-880000D01*
X20210000Y-1210000D02*
X20210000Y-880000D01*
X13670000Y-3620000D02*
X13670000Y-3290000D01*
X20210000Y-3620000D02*
X13670000Y-3620000D01*
X20210000Y-3290000D02*
X20210000Y-3620000D01*
G04 #@! TO.C,C1*
D15*
X16583333Y-18357142D02*
X16535714Y-18404761D01*
X16392857Y-18452380D01*
X16297619Y-18452380D01*
X16154761Y-18404761D01*
X16059523Y-18309523D01*
X16011904Y-18214285D01*
X15964285Y-18023809D01*
X15964285Y-17880952D01*
X16011904Y-17690476D01*
X16059523Y-17595238D01*
X16154761Y-17500000D01*
X16297619Y-17452380D01*
X16392857Y-17452380D01*
X16535714Y-17500000D01*
X16583333Y-17547619D01*
X17535714Y-18452380D02*
X16964285Y-18452380D01*
X17250000Y-18452380D02*
X17250000Y-17452380D01*
X17154761Y-17595238D01*
X17059523Y-17690476D01*
X16964285Y-17738095D01*
G04 #@! TO.C,C2*
X24083333Y-18357142D02*
X24035714Y-18404761D01*
X23892857Y-18452380D01*
X23797619Y-18452380D01*
X23654761Y-18404761D01*
X23559523Y-18309523D01*
X23511904Y-18214285D01*
X23464285Y-18023809D01*
X23464285Y-17880952D01*
X23511904Y-17690476D01*
X23559523Y-17595238D01*
X23654761Y-17500000D01*
X23797619Y-17452380D01*
X23892857Y-17452380D01*
X24035714Y-17500000D01*
X24083333Y-17547619D01*
X24464285Y-17547619D02*
X24511904Y-17500000D01*
X24607142Y-17452380D01*
X24845238Y-17452380D01*
X24940476Y-17500000D01*
X24988095Y-17547619D01*
X25035714Y-17642857D01*
X25035714Y-17738095D01*
X24988095Y-17880952D01*
X24416666Y-18452380D01*
X25035714Y-18452380D01*
G04 #@! TO.C,C3*
X20833333Y-7857142D02*
X20785714Y-7904761D01*
X20642857Y-7952380D01*
X20547619Y-7952380D01*
X20404761Y-7904761D01*
X20309523Y-7809523D01*
X20261904Y-7714285D01*
X20214285Y-7523809D01*
X20214285Y-7380952D01*
X20261904Y-7190476D01*
X20309523Y-7095238D01*
X20404761Y-7000000D01*
X20547619Y-6952380D01*
X20642857Y-6952380D01*
X20785714Y-7000000D01*
X20833333Y-7047619D01*
X21166666Y-6952380D02*
X21785714Y-6952380D01*
X21452380Y-7333333D01*
X21595238Y-7333333D01*
X21690476Y-7380952D01*
X21738095Y-7428571D01*
X21785714Y-7523809D01*
X21785714Y-7761904D01*
X21738095Y-7857142D01*
X21690476Y-7904761D01*
X21595238Y-7952380D01*
X21309523Y-7952380D01*
X21214285Y-7904761D01*
X21166666Y-7857142D01*
G04 #@! TO.C,C4*
X20833333Y-11857142D02*
X20785714Y-11904761D01*
X20642857Y-11952380D01*
X20547619Y-11952380D01*
X20404761Y-11904761D01*
X20309523Y-11809523D01*
X20261904Y-11714285D01*
X20214285Y-11523809D01*
X20214285Y-11380952D01*
X20261904Y-11190476D01*
X20309523Y-11095238D01*
X20404761Y-11000000D01*
X20547619Y-10952380D01*
X20642857Y-10952380D01*
X20785714Y-11000000D01*
X20833333Y-11047619D01*
X21690476Y-11285714D02*
X21690476Y-11952380D01*
X21452380Y-10904761D02*
X21214285Y-11619047D01*
X21833333Y-11619047D01*
G04 #@! TO.C,D1*
X5672380Y-13068095D02*
X4672380Y-13068095D01*
X4672380Y-12830000D01*
X4720000Y-12687142D01*
X4815238Y-12591904D01*
X4910476Y-12544285D01*
X5100952Y-12496666D01*
X5243809Y-12496666D01*
X5434285Y-12544285D01*
X5529523Y-12591904D01*
X5624761Y-12687142D01*
X5672380Y-12830000D01*
X5672380Y-13068095D01*
X5672380Y-11544285D02*
X5672380Y-12115714D01*
X5672380Y-11830000D02*
X4672380Y-11830000D01*
X4815238Y-11925238D01*
X4910476Y-12020476D01*
X4958095Y-12115714D01*
X5302380Y-7511904D02*
X4302380Y-7511904D01*
X5302380Y-6940476D02*
X4730952Y-7369047D01*
X4302380Y-6940476D02*
X4873809Y-7511904D01*
G04 #@! TO.C,D2*
X10672380Y-13068095D02*
X9672380Y-13068095D01*
X9672380Y-12830000D01*
X9720000Y-12687142D01*
X9815238Y-12591904D01*
X9910476Y-12544285D01*
X10100952Y-12496666D01*
X10243809Y-12496666D01*
X10434285Y-12544285D01*
X10529523Y-12591904D01*
X10624761Y-12687142D01*
X10672380Y-12830000D01*
X10672380Y-13068095D01*
X9767619Y-12115714D02*
X9720000Y-12068095D01*
X9672380Y-11972857D01*
X9672380Y-11734761D01*
X9720000Y-11639523D01*
X9767619Y-11591904D01*
X9862857Y-11544285D01*
X9958095Y-11544285D01*
X10100952Y-11591904D01*
X10672380Y-12163333D01*
X10672380Y-11544285D01*
X10302380Y-7511904D02*
X9302380Y-7511904D01*
X10302380Y-6940476D02*
X9730952Y-7369047D01*
X9302380Y-6940476D02*
X9873809Y-7511904D01*
G04 #@! TO.C,D_NEG_1_1*
X40916666Y-16202380D02*
X40916666Y-15202380D01*
X41154761Y-15202380D01*
X41297619Y-15250000D01*
X41392857Y-15345238D01*
X41440476Y-15440476D01*
X41488095Y-15630952D01*
X41488095Y-15773809D01*
X41440476Y-15964285D01*
X41392857Y-16059523D01*
X41297619Y-16154761D01*
X41154761Y-16202380D01*
X40916666Y-16202380D01*
X41678571Y-16297619D02*
X42440476Y-16297619D01*
X42678571Y-16202380D02*
X42678571Y-15202380D01*
X43250000Y-16202380D01*
X43250000Y-15202380D01*
X43726190Y-15678571D02*
X44059523Y-15678571D01*
X44202380Y-16202380D02*
X43726190Y-16202380D01*
X43726190Y-15202380D01*
X44202380Y-15202380D01*
X45154761Y-15250000D02*
X45059523Y-15202380D01*
X44916666Y-15202380D01*
X44773809Y-15250000D01*
X44678571Y-15345238D01*
X44630952Y-15440476D01*
X44583333Y-15630952D01*
X44583333Y-15773809D01*
X44630952Y-15964285D01*
X44678571Y-16059523D01*
X44773809Y-16154761D01*
X44916666Y-16202380D01*
X45011904Y-16202380D01*
X45154761Y-16154761D01*
X45202380Y-16107142D01*
X45202380Y-15773809D01*
X45011904Y-15773809D01*
X45392857Y-16297619D02*
X46154761Y-16297619D01*
X46916666Y-16202380D02*
X46345238Y-16202380D01*
X46630952Y-16202380D02*
X46630952Y-15202380D01*
X46535714Y-15345238D01*
X46440476Y-15440476D01*
X46345238Y-15488095D01*
X47107142Y-16297619D02*
X47869047Y-16297619D01*
X48630952Y-16202380D02*
X48059523Y-16202380D01*
X48345238Y-16202380D02*
X48345238Y-15202380D01*
X48250000Y-15345238D01*
X48154761Y-15440476D01*
X48059523Y-15488095D01*
G04 #@! TO.C,D_NEG_1_2*
X160916666Y-16202380D02*
X160916666Y-15202380D01*
X161154761Y-15202380D01*
X161297619Y-15250000D01*
X161392857Y-15345238D01*
X161440476Y-15440476D01*
X161488095Y-15630952D01*
X161488095Y-15773809D01*
X161440476Y-15964285D01*
X161392857Y-16059523D01*
X161297619Y-16154761D01*
X161154761Y-16202380D01*
X160916666Y-16202380D01*
X161678571Y-16297619D02*
X162440476Y-16297619D01*
X162678571Y-16202380D02*
X162678571Y-15202380D01*
X163250000Y-16202380D01*
X163250000Y-15202380D01*
X163726190Y-15678571D02*
X164059523Y-15678571D01*
X164202380Y-16202380D02*
X163726190Y-16202380D01*
X163726190Y-15202380D01*
X164202380Y-15202380D01*
X165154761Y-15250000D02*
X165059523Y-15202380D01*
X164916666Y-15202380D01*
X164773809Y-15250000D01*
X164678571Y-15345238D01*
X164630952Y-15440476D01*
X164583333Y-15630952D01*
X164583333Y-15773809D01*
X164630952Y-15964285D01*
X164678571Y-16059523D01*
X164773809Y-16154761D01*
X164916666Y-16202380D01*
X165011904Y-16202380D01*
X165154761Y-16154761D01*
X165202380Y-16107142D01*
X165202380Y-15773809D01*
X165011904Y-15773809D01*
X165392857Y-16297619D02*
X166154761Y-16297619D01*
X166916666Y-16202380D02*
X166345238Y-16202380D01*
X166630952Y-16202380D02*
X166630952Y-15202380D01*
X166535714Y-15345238D01*
X166440476Y-15440476D01*
X166345238Y-15488095D01*
X167107142Y-16297619D02*
X167869047Y-16297619D01*
X168059523Y-15297619D02*
X168107142Y-15250000D01*
X168202380Y-15202380D01*
X168440476Y-15202380D01*
X168535714Y-15250000D01*
X168583333Y-15297619D01*
X168630952Y-15392857D01*
X168630952Y-15488095D01*
X168583333Y-15630952D01*
X168011904Y-16202380D01*
X168630952Y-16202380D01*
G04 #@! TO.C,D_NEG_1_3*
X280916666Y-16202380D02*
X280916666Y-15202380D01*
X281154761Y-15202380D01*
X281297619Y-15250000D01*
X281392857Y-15345238D01*
X281440476Y-15440476D01*
X281488095Y-15630952D01*
X281488095Y-15773809D01*
X281440476Y-15964285D01*
X281392857Y-16059523D01*
X281297619Y-16154761D01*
X281154761Y-16202380D01*
X280916666Y-16202380D01*
X281678571Y-16297619D02*
X282440476Y-16297619D01*
X282678571Y-16202380D02*
X282678571Y-15202380D01*
X283250000Y-16202380D01*
X283250000Y-15202380D01*
X283726190Y-15678571D02*
X284059523Y-15678571D01*
X284202380Y-16202380D02*
X283726190Y-16202380D01*
X283726190Y-15202380D01*
X284202380Y-15202380D01*
X285154761Y-15250000D02*
X285059523Y-15202380D01*
X284916666Y-15202380D01*
X284773809Y-15250000D01*
X284678571Y-15345238D01*
X284630952Y-15440476D01*
X284583333Y-15630952D01*
X284583333Y-15773809D01*
X284630952Y-15964285D01*
X284678571Y-16059523D01*
X284773809Y-16154761D01*
X284916666Y-16202380D01*
X285011904Y-16202380D01*
X285154761Y-16154761D01*
X285202380Y-16107142D01*
X285202380Y-15773809D01*
X285011904Y-15773809D01*
X285392857Y-16297619D02*
X286154761Y-16297619D01*
X286916666Y-16202380D02*
X286345238Y-16202380D01*
X286630952Y-16202380D02*
X286630952Y-15202380D01*
X286535714Y-15345238D01*
X286440476Y-15440476D01*
X286345238Y-15488095D01*
X287107142Y-16297619D02*
X287869047Y-16297619D01*
X288011904Y-15202380D02*
X288630952Y-15202380D01*
X288297619Y-15583333D01*
X288440476Y-15583333D01*
X288535714Y-15630952D01*
X288583333Y-15678571D01*
X288630952Y-15773809D01*
X288630952Y-16011904D01*
X288583333Y-16107142D01*
X288535714Y-16154761D01*
X288440476Y-16202380D01*
X288154761Y-16202380D01*
X288059523Y-16154761D01*
X288011904Y-16107142D01*
G04 #@! TO.C,D_NEG_1_4*
X400916666Y-16202380D02*
X400916666Y-15202380D01*
X401154761Y-15202380D01*
X401297619Y-15250000D01*
X401392857Y-15345238D01*
X401440476Y-15440476D01*
X401488095Y-15630952D01*
X401488095Y-15773809D01*
X401440476Y-15964285D01*
X401392857Y-16059523D01*
X401297619Y-16154761D01*
X401154761Y-16202380D01*
X400916666Y-16202380D01*
X401678571Y-16297619D02*
X402440476Y-16297619D01*
X402678571Y-16202380D02*
X402678571Y-15202380D01*
X403250000Y-16202380D01*
X403250000Y-15202380D01*
X403726190Y-15678571D02*
X404059523Y-15678571D01*
X404202380Y-16202380D02*
X403726190Y-16202380D01*
X403726190Y-15202380D01*
X404202380Y-15202380D01*
X405154761Y-15250000D02*
X405059523Y-15202380D01*
X404916666Y-15202380D01*
X404773809Y-15250000D01*
X404678571Y-15345238D01*
X404630952Y-15440476D01*
X404583333Y-15630952D01*
X404583333Y-15773809D01*
X404630952Y-15964285D01*
X404678571Y-16059523D01*
X404773809Y-16154761D01*
X404916666Y-16202380D01*
X405011904Y-16202380D01*
X405154761Y-16154761D01*
X405202380Y-16107142D01*
X405202380Y-15773809D01*
X405011904Y-15773809D01*
X405392857Y-16297619D02*
X406154761Y-16297619D01*
X406916666Y-16202380D02*
X406345238Y-16202380D01*
X406630952Y-16202380D02*
X406630952Y-15202380D01*
X406535714Y-15345238D01*
X406440476Y-15440476D01*
X406345238Y-15488095D01*
X407107142Y-16297619D02*
X407869047Y-16297619D01*
X408535714Y-15535714D02*
X408535714Y-16202380D01*
X408297619Y-15154761D02*
X408059523Y-15869047D01*
X408678571Y-15869047D01*
G04 #@! TO.C,D_NEG_2_1*
X57416666Y-16202380D02*
X57416666Y-15202380D01*
X57654761Y-15202380D01*
X57797619Y-15250000D01*
X57892857Y-15345238D01*
X57940476Y-15440476D01*
X57988095Y-15630952D01*
X57988095Y-15773809D01*
X57940476Y-15964285D01*
X57892857Y-16059523D01*
X57797619Y-16154761D01*
X57654761Y-16202380D01*
X57416666Y-16202380D01*
X58178571Y-16297619D02*
X58940476Y-16297619D01*
X59178571Y-16202380D02*
X59178571Y-15202380D01*
X59750000Y-16202380D01*
X59750000Y-15202380D01*
X60226190Y-15678571D02*
X60559523Y-15678571D01*
X60702380Y-16202380D02*
X60226190Y-16202380D01*
X60226190Y-15202380D01*
X60702380Y-15202380D01*
X61654761Y-15250000D02*
X61559523Y-15202380D01*
X61416666Y-15202380D01*
X61273809Y-15250000D01*
X61178571Y-15345238D01*
X61130952Y-15440476D01*
X61083333Y-15630952D01*
X61083333Y-15773809D01*
X61130952Y-15964285D01*
X61178571Y-16059523D01*
X61273809Y-16154761D01*
X61416666Y-16202380D01*
X61511904Y-16202380D01*
X61654761Y-16154761D01*
X61702380Y-16107142D01*
X61702380Y-15773809D01*
X61511904Y-15773809D01*
X61892857Y-16297619D02*
X62654761Y-16297619D01*
X62845238Y-15297619D02*
X62892857Y-15250000D01*
X62988095Y-15202380D01*
X63226190Y-15202380D01*
X63321428Y-15250000D01*
X63369047Y-15297619D01*
X63416666Y-15392857D01*
X63416666Y-15488095D01*
X63369047Y-15630952D01*
X62797619Y-16202380D01*
X63416666Y-16202380D01*
X63607142Y-16297619D02*
X64369047Y-16297619D01*
X65130952Y-16202380D02*
X64559523Y-16202380D01*
X64845238Y-16202380D02*
X64845238Y-15202380D01*
X64750000Y-15345238D01*
X64654761Y-15440476D01*
X64559523Y-15488095D01*
G04 #@! TO.C,D_NEG_2_2*
X177416666Y-16202380D02*
X177416666Y-15202380D01*
X177654761Y-15202380D01*
X177797619Y-15250000D01*
X177892857Y-15345238D01*
X177940476Y-15440476D01*
X177988095Y-15630952D01*
X177988095Y-15773809D01*
X177940476Y-15964285D01*
X177892857Y-16059523D01*
X177797619Y-16154761D01*
X177654761Y-16202380D01*
X177416666Y-16202380D01*
X178178571Y-16297619D02*
X178940476Y-16297619D01*
X179178571Y-16202380D02*
X179178571Y-15202380D01*
X179750000Y-16202380D01*
X179750000Y-15202380D01*
X180226190Y-15678571D02*
X180559523Y-15678571D01*
X180702380Y-16202380D02*
X180226190Y-16202380D01*
X180226190Y-15202380D01*
X180702380Y-15202380D01*
X181654761Y-15250000D02*
X181559523Y-15202380D01*
X181416666Y-15202380D01*
X181273809Y-15250000D01*
X181178571Y-15345238D01*
X181130952Y-15440476D01*
X181083333Y-15630952D01*
X181083333Y-15773809D01*
X181130952Y-15964285D01*
X181178571Y-16059523D01*
X181273809Y-16154761D01*
X181416666Y-16202380D01*
X181511904Y-16202380D01*
X181654761Y-16154761D01*
X181702380Y-16107142D01*
X181702380Y-15773809D01*
X181511904Y-15773809D01*
X181892857Y-16297619D02*
X182654761Y-16297619D01*
X182845238Y-15297619D02*
X182892857Y-15250000D01*
X182988095Y-15202380D01*
X183226190Y-15202380D01*
X183321428Y-15250000D01*
X183369047Y-15297619D01*
X183416666Y-15392857D01*
X183416666Y-15488095D01*
X183369047Y-15630952D01*
X182797619Y-16202380D01*
X183416666Y-16202380D01*
X183607142Y-16297619D02*
X184369047Y-16297619D01*
X184559523Y-15297619D02*
X184607142Y-15250000D01*
X184702380Y-15202380D01*
X184940476Y-15202380D01*
X185035714Y-15250000D01*
X185083333Y-15297619D01*
X185130952Y-15392857D01*
X185130952Y-15488095D01*
X185083333Y-15630952D01*
X184511904Y-16202380D01*
X185130952Y-16202380D01*
G04 #@! TO.C,D_NEG_2_3*
X297416666Y-16202380D02*
X297416666Y-15202380D01*
X297654761Y-15202380D01*
X297797619Y-15250000D01*
X297892857Y-15345238D01*
X297940476Y-15440476D01*
X297988095Y-15630952D01*
X297988095Y-15773809D01*
X297940476Y-15964285D01*
X297892857Y-16059523D01*
X297797619Y-16154761D01*
X297654761Y-16202380D01*
X297416666Y-16202380D01*
X298178571Y-16297619D02*
X298940476Y-16297619D01*
X299178571Y-16202380D02*
X299178571Y-15202380D01*
X299750000Y-16202380D01*
X299750000Y-15202380D01*
X300226190Y-15678571D02*
X300559523Y-15678571D01*
X300702380Y-16202380D02*
X300226190Y-16202380D01*
X300226190Y-15202380D01*
X300702380Y-15202380D01*
X301654761Y-15250000D02*
X301559523Y-15202380D01*
X301416666Y-15202380D01*
X301273809Y-15250000D01*
X301178571Y-15345238D01*
X301130952Y-15440476D01*
X301083333Y-15630952D01*
X301083333Y-15773809D01*
X301130952Y-15964285D01*
X301178571Y-16059523D01*
X301273809Y-16154761D01*
X301416666Y-16202380D01*
X301511904Y-16202380D01*
X301654761Y-16154761D01*
X301702380Y-16107142D01*
X301702380Y-15773809D01*
X301511904Y-15773809D01*
X301892857Y-16297619D02*
X302654761Y-16297619D01*
X302845238Y-15297619D02*
X302892857Y-15250000D01*
X302988095Y-15202380D01*
X303226190Y-15202380D01*
X303321428Y-15250000D01*
X303369047Y-15297619D01*
X303416666Y-15392857D01*
X303416666Y-15488095D01*
X303369047Y-15630952D01*
X302797619Y-16202380D01*
X303416666Y-16202380D01*
X303607142Y-16297619D02*
X304369047Y-16297619D01*
X304511904Y-15202380D02*
X305130952Y-15202380D01*
X304797619Y-15583333D01*
X304940476Y-15583333D01*
X305035714Y-15630952D01*
X305083333Y-15678571D01*
X305130952Y-15773809D01*
X305130952Y-16011904D01*
X305083333Y-16107142D01*
X305035714Y-16154761D01*
X304940476Y-16202380D01*
X304654761Y-16202380D01*
X304559523Y-16154761D01*
X304511904Y-16107142D01*
G04 #@! TO.C,D_NEG_2_4*
X417416666Y-16202380D02*
X417416666Y-15202380D01*
X417654761Y-15202380D01*
X417797619Y-15250000D01*
X417892857Y-15345238D01*
X417940476Y-15440476D01*
X417988095Y-15630952D01*
X417988095Y-15773809D01*
X417940476Y-15964285D01*
X417892857Y-16059523D01*
X417797619Y-16154761D01*
X417654761Y-16202380D01*
X417416666Y-16202380D01*
X418178571Y-16297619D02*
X418940476Y-16297619D01*
X419178571Y-16202380D02*
X419178571Y-15202380D01*
X419750000Y-16202380D01*
X419750000Y-15202380D01*
X420226190Y-15678571D02*
X420559523Y-15678571D01*
X420702380Y-16202380D02*
X420226190Y-16202380D01*
X420226190Y-15202380D01*
X420702380Y-15202380D01*
X421654761Y-15250000D02*
X421559523Y-15202380D01*
X421416666Y-15202380D01*
X421273809Y-15250000D01*
X421178571Y-15345238D01*
X421130952Y-15440476D01*
X421083333Y-15630952D01*
X421083333Y-15773809D01*
X421130952Y-15964285D01*
X421178571Y-16059523D01*
X421273809Y-16154761D01*
X421416666Y-16202380D01*
X421511904Y-16202380D01*
X421654761Y-16154761D01*
X421702380Y-16107142D01*
X421702380Y-15773809D01*
X421511904Y-15773809D01*
X421892857Y-16297619D02*
X422654761Y-16297619D01*
X422845238Y-15297619D02*
X422892857Y-15250000D01*
X422988095Y-15202380D01*
X423226190Y-15202380D01*
X423321428Y-15250000D01*
X423369047Y-15297619D01*
X423416666Y-15392857D01*
X423416666Y-15488095D01*
X423369047Y-15630952D01*
X422797619Y-16202380D01*
X423416666Y-16202380D01*
X423607142Y-16297619D02*
X424369047Y-16297619D01*
X425035714Y-15535714D02*
X425035714Y-16202380D01*
X424797619Y-15154761D02*
X424559523Y-15869047D01*
X425178571Y-15869047D01*
G04 #@! TO.C,D_NEG_3_1*
X100916666Y-16202380D02*
X100916666Y-15202380D01*
X101154761Y-15202380D01*
X101297619Y-15250000D01*
X101392857Y-15345238D01*
X101440476Y-15440476D01*
X101488095Y-15630952D01*
X101488095Y-15773809D01*
X101440476Y-15964285D01*
X101392857Y-16059523D01*
X101297619Y-16154761D01*
X101154761Y-16202380D01*
X100916666Y-16202380D01*
X101678571Y-16297619D02*
X102440476Y-16297619D01*
X102678571Y-16202380D02*
X102678571Y-15202380D01*
X103250000Y-16202380D01*
X103250000Y-15202380D01*
X103726190Y-15678571D02*
X104059523Y-15678571D01*
X104202380Y-16202380D02*
X103726190Y-16202380D01*
X103726190Y-15202380D01*
X104202380Y-15202380D01*
X105154761Y-15250000D02*
X105059523Y-15202380D01*
X104916666Y-15202380D01*
X104773809Y-15250000D01*
X104678571Y-15345238D01*
X104630952Y-15440476D01*
X104583333Y-15630952D01*
X104583333Y-15773809D01*
X104630952Y-15964285D01*
X104678571Y-16059523D01*
X104773809Y-16154761D01*
X104916666Y-16202380D01*
X105011904Y-16202380D01*
X105154761Y-16154761D01*
X105202380Y-16107142D01*
X105202380Y-15773809D01*
X105011904Y-15773809D01*
X105392857Y-16297619D02*
X106154761Y-16297619D01*
X106297619Y-15202380D02*
X106916666Y-15202380D01*
X106583333Y-15583333D01*
X106726190Y-15583333D01*
X106821428Y-15630952D01*
X106869047Y-15678571D01*
X106916666Y-15773809D01*
X106916666Y-16011904D01*
X106869047Y-16107142D01*
X106821428Y-16154761D01*
X106726190Y-16202380D01*
X106440476Y-16202380D01*
X106345238Y-16154761D01*
X106297619Y-16107142D01*
X107107142Y-16297619D02*
X107869047Y-16297619D01*
X108630952Y-16202380D02*
X108059523Y-16202380D01*
X108345238Y-16202380D02*
X108345238Y-15202380D01*
X108250000Y-15345238D01*
X108154761Y-15440476D01*
X108059523Y-15488095D01*
G04 #@! TO.C,D_NEG_3_2*
X220916666Y-16202380D02*
X220916666Y-15202380D01*
X221154761Y-15202380D01*
X221297619Y-15250000D01*
X221392857Y-15345238D01*
X221440476Y-15440476D01*
X221488095Y-15630952D01*
X221488095Y-15773809D01*
X221440476Y-15964285D01*
X221392857Y-16059523D01*
X221297619Y-16154761D01*
X221154761Y-16202380D01*
X220916666Y-16202380D01*
X221678571Y-16297619D02*
X222440476Y-16297619D01*
X222678571Y-16202380D02*
X222678571Y-15202380D01*
X223250000Y-16202380D01*
X223250000Y-15202380D01*
X223726190Y-15678571D02*
X224059523Y-15678571D01*
X224202380Y-16202380D02*
X223726190Y-16202380D01*
X223726190Y-15202380D01*
X224202380Y-15202380D01*
X225154761Y-15250000D02*
X225059523Y-15202380D01*
X224916666Y-15202380D01*
X224773809Y-15250000D01*
X224678571Y-15345238D01*
X224630952Y-15440476D01*
X224583333Y-15630952D01*
X224583333Y-15773809D01*
X224630952Y-15964285D01*
X224678571Y-16059523D01*
X224773809Y-16154761D01*
X224916666Y-16202380D01*
X225011904Y-16202380D01*
X225154761Y-16154761D01*
X225202380Y-16107142D01*
X225202380Y-15773809D01*
X225011904Y-15773809D01*
X225392857Y-16297619D02*
X226154761Y-16297619D01*
X226297619Y-15202380D02*
X226916666Y-15202380D01*
X226583333Y-15583333D01*
X226726190Y-15583333D01*
X226821428Y-15630952D01*
X226869047Y-15678571D01*
X226916666Y-15773809D01*
X226916666Y-16011904D01*
X226869047Y-16107142D01*
X226821428Y-16154761D01*
X226726190Y-16202380D01*
X226440476Y-16202380D01*
X226345238Y-16154761D01*
X226297619Y-16107142D01*
X227107142Y-16297619D02*
X227869047Y-16297619D01*
X228059523Y-15297619D02*
X228107142Y-15250000D01*
X228202380Y-15202380D01*
X228440476Y-15202380D01*
X228535714Y-15250000D01*
X228583333Y-15297619D01*
X228630952Y-15392857D01*
X228630952Y-15488095D01*
X228583333Y-15630952D01*
X228011904Y-16202380D01*
X228630952Y-16202380D01*
G04 #@! TO.C,D_NEG_3_3*
X340916666Y-16202380D02*
X340916666Y-15202380D01*
X341154761Y-15202380D01*
X341297619Y-15250000D01*
X341392857Y-15345238D01*
X341440476Y-15440476D01*
X341488095Y-15630952D01*
X341488095Y-15773809D01*
X341440476Y-15964285D01*
X341392857Y-16059523D01*
X341297619Y-16154761D01*
X341154761Y-16202380D01*
X340916666Y-16202380D01*
X341678571Y-16297619D02*
X342440476Y-16297619D01*
X342678571Y-16202380D02*
X342678571Y-15202380D01*
X343250000Y-16202380D01*
X343250000Y-15202380D01*
X343726190Y-15678571D02*
X344059523Y-15678571D01*
X344202380Y-16202380D02*
X343726190Y-16202380D01*
X343726190Y-15202380D01*
X344202380Y-15202380D01*
X345154761Y-15250000D02*
X345059523Y-15202380D01*
X344916666Y-15202380D01*
X344773809Y-15250000D01*
X344678571Y-15345238D01*
X344630952Y-15440476D01*
X344583333Y-15630952D01*
X344583333Y-15773809D01*
X344630952Y-15964285D01*
X344678571Y-16059523D01*
X344773809Y-16154761D01*
X344916666Y-16202380D01*
X345011904Y-16202380D01*
X345154761Y-16154761D01*
X345202380Y-16107142D01*
X345202380Y-15773809D01*
X345011904Y-15773809D01*
X345392857Y-16297619D02*
X346154761Y-16297619D01*
X346297619Y-15202380D02*
X346916666Y-15202380D01*
X346583333Y-15583333D01*
X346726190Y-15583333D01*
X346821428Y-15630952D01*
X346869047Y-15678571D01*
X346916666Y-15773809D01*
X346916666Y-16011904D01*
X346869047Y-16107142D01*
X346821428Y-16154761D01*
X346726190Y-16202380D01*
X346440476Y-16202380D01*
X346345238Y-16154761D01*
X346297619Y-16107142D01*
X347107142Y-16297619D02*
X347869047Y-16297619D01*
X348011904Y-15202380D02*
X348630952Y-15202380D01*
X348297619Y-15583333D01*
X348440476Y-15583333D01*
X348535714Y-15630952D01*
X348583333Y-15678571D01*
X348630952Y-15773809D01*
X348630952Y-16011904D01*
X348583333Y-16107142D01*
X348535714Y-16154761D01*
X348440476Y-16202380D01*
X348154761Y-16202380D01*
X348059523Y-16154761D01*
X348011904Y-16107142D01*
G04 #@! TO.C,D_NEG_3_4*
X460916666Y-16202380D02*
X460916666Y-15202380D01*
X461154761Y-15202380D01*
X461297619Y-15250000D01*
X461392857Y-15345238D01*
X461440476Y-15440476D01*
X461488095Y-15630952D01*
X461488095Y-15773809D01*
X461440476Y-15964285D01*
X461392857Y-16059523D01*
X461297619Y-16154761D01*
X461154761Y-16202380D01*
X460916666Y-16202380D01*
X461678571Y-16297619D02*
X462440476Y-16297619D01*
X462678571Y-16202380D02*
X462678571Y-15202380D01*
X463250000Y-16202380D01*
X463250000Y-15202380D01*
X463726190Y-15678571D02*
X464059523Y-15678571D01*
X464202380Y-16202380D02*
X463726190Y-16202380D01*
X463726190Y-15202380D01*
X464202380Y-15202380D01*
X465154761Y-15250000D02*
X465059523Y-15202380D01*
X464916666Y-15202380D01*
X464773809Y-15250000D01*
X464678571Y-15345238D01*
X464630952Y-15440476D01*
X464583333Y-15630952D01*
X464583333Y-15773809D01*
X464630952Y-15964285D01*
X464678571Y-16059523D01*
X464773809Y-16154761D01*
X464916666Y-16202380D01*
X465011904Y-16202380D01*
X465154761Y-16154761D01*
X465202380Y-16107142D01*
X465202380Y-15773809D01*
X465011904Y-15773809D01*
X465392857Y-16297619D02*
X466154761Y-16297619D01*
X466297619Y-15202380D02*
X466916666Y-15202380D01*
X466583333Y-15583333D01*
X466726190Y-15583333D01*
X466821428Y-15630952D01*
X466869047Y-15678571D01*
X466916666Y-15773809D01*
X466916666Y-16011904D01*
X466869047Y-16107142D01*
X466821428Y-16154761D01*
X466726190Y-16202380D01*
X466440476Y-16202380D01*
X466345238Y-16154761D01*
X466297619Y-16107142D01*
X467107142Y-16297619D02*
X467869047Y-16297619D01*
X468535714Y-15535714D02*
X468535714Y-16202380D01*
X468297619Y-15154761D02*
X468059523Y-15869047D01*
X468678571Y-15869047D01*
G04 #@! TO.C,D_NEG_4_1*
X130916666Y-16202380D02*
X130916666Y-15202380D01*
X131154761Y-15202380D01*
X131297619Y-15250000D01*
X131392857Y-15345238D01*
X131440476Y-15440476D01*
X131488095Y-15630952D01*
X131488095Y-15773809D01*
X131440476Y-15964285D01*
X131392857Y-16059523D01*
X131297619Y-16154761D01*
X131154761Y-16202380D01*
X130916666Y-16202380D01*
X131678571Y-16297619D02*
X132440476Y-16297619D01*
X132678571Y-16202380D02*
X132678571Y-15202380D01*
X133250000Y-16202380D01*
X133250000Y-15202380D01*
X133726190Y-15678571D02*
X134059523Y-15678571D01*
X134202380Y-16202380D02*
X133726190Y-16202380D01*
X133726190Y-15202380D01*
X134202380Y-15202380D01*
X135154761Y-15250000D02*
X135059523Y-15202380D01*
X134916666Y-15202380D01*
X134773809Y-15250000D01*
X134678571Y-15345238D01*
X134630952Y-15440476D01*
X134583333Y-15630952D01*
X134583333Y-15773809D01*
X134630952Y-15964285D01*
X134678571Y-16059523D01*
X134773809Y-16154761D01*
X134916666Y-16202380D01*
X135011904Y-16202380D01*
X135154761Y-16154761D01*
X135202380Y-16107142D01*
X135202380Y-15773809D01*
X135011904Y-15773809D01*
X135392857Y-16297619D02*
X136154761Y-16297619D01*
X136821428Y-15535714D02*
X136821428Y-16202380D01*
X136583333Y-15154761D02*
X136345238Y-15869047D01*
X136964285Y-15869047D01*
X137107142Y-16297619D02*
X137869047Y-16297619D01*
X138630952Y-16202380D02*
X138059523Y-16202380D01*
X138345238Y-16202380D02*
X138345238Y-15202380D01*
X138250000Y-15345238D01*
X138154761Y-15440476D01*
X138059523Y-15488095D01*
G04 #@! TO.C,D_NEG_4_2*
X250916666Y-16202380D02*
X250916666Y-15202380D01*
X251154761Y-15202380D01*
X251297619Y-15250000D01*
X251392857Y-15345238D01*
X251440476Y-15440476D01*
X251488095Y-15630952D01*
X251488095Y-15773809D01*
X251440476Y-15964285D01*
X251392857Y-16059523D01*
X251297619Y-16154761D01*
X251154761Y-16202380D01*
X250916666Y-16202380D01*
X251678571Y-16297619D02*
X252440476Y-16297619D01*
X252678571Y-16202380D02*
X252678571Y-15202380D01*
X253250000Y-16202380D01*
X253250000Y-15202380D01*
X253726190Y-15678571D02*
X254059523Y-15678571D01*
X254202380Y-16202380D02*
X253726190Y-16202380D01*
X253726190Y-15202380D01*
X254202380Y-15202380D01*
X255154761Y-15250000D02*
X255059523Y-15202380D01*
X254916666Y-15202380D01*
X254773809Y-15250000D01*
X254678571Y-15345238D01*
X254630952Y-15440476D01*
X254583333Y-15630952D01*
X254583333Y-15773809D01*
X254630952Y-15964285D01*
X254678571Y-16059523D01*
X254773809Y-16154761D01*
X254916666Y-16202380D01*
X255011904Y-16202380D01*
X255154761Y-16154761D01*
X255202380Y-16107142D01*
X255202380Y-15773809D01*
X255011904Y-15773809D01*
X255392857Y-16297619D02*
X256154761Y-16297619D01*
X256821428Y-15535714D02*
X256821428Y-16202380D01*
X256583333Y-15154761D02*
X256345238Y-15869047D01*
X256964285Y-15869047D01*
X257107142Y-16297619D02*
X257869047Y-16297619D01*
X258059523Y-15297619D02*
X258107142Y-15250000D01*
X258202380Y-15202380D01*
X258440476Y-15202380D01*
X258535714Y-15250000D01*
X258583333Y-15297619D01*
X258630952Y-15392857D01*
X258630952Y-15488095D01*
X258583333Y-15630952D01*
X258011904Y-16202380D01*
X258630952Y-16202380D01*
G04 #@! TO.C,D_NEG_4_3*
X370916666Y-16202380D02*
X370916666Y-15202380D01*
X371154761Y-15202380D01*
X371297619Y-15250000D01*
X371392857Y-15345238D01*
X371440476Y-15440476D01*
X371488095Y-15630952D01*
X371488095Y-15773809D01*
X371440476Y-15964285D01*
X371392857Y-16059523D01*
X371297619Y-16154761D01*
X371154761Y-16202380D01*
X370916666Y-16202380D01*
X371678571Y-16297619D02*
X372440476Y-16297619D01*
X372678571Y-16202380D02*
X372678571Y-15202380D01*
X373250000Y-16202380D01*
X373250000Y-15202380D01*
X373726190Y-15678571D02*
X374059523Y-15678571D01*
X374202380Y-16202380D02*
X373726190Y-16202380D01*
X373726190Y-15202380D01*
X374202380Y-15202380D01*
X375154761Y-15250000D02*
X375059523Y-15202380D01*
X374916666Y-15202380D01*
X374773809Y-15250000D01*
X374678571Y-15345238D01*
X374630952Y-15440476D01*
X374583333Y-15630952D01*
X374583333Y-15773809D01*
X374630952Y-15964285D01*
X374678571Y-16059523D01*
X374773809Y-16154761D01*
X374916666Y-16202380D01*
X375011904Y-16202380D01*
X375154761Y-16154761D01*
X375202380Y-16107142D01*
X375202380Y-15773809D01*
X375011904Y-15773809D01*
X375392857Y-16297619D02*
X376154761Y-16297619D01*
X376821428Y-15535714D02*
X376821428Y-16202380D01*
X376583333Y-15154761D02*
X376345238Y-15869047D01*
X376964285Y-15869047D01*
X377107142Y-16297619D02*
X377869047Y-16297619D01*
X378011904Y-15202380D02*
X378630952Y-15202380D01*
X378297619Y-15583333D01*
X378440476Y-15583333D01*
X378535714Y-15630952D01*
X378583333Y-15678571D01*
X378630952Y-15773809D01*
X378630952Y-16011904D01*
X378583333Y-16107142D01*
X378535714Y-16154761D01*
X378440476Y-16202380D01*
X378154761Y-16202380D01*
X378059523Y-16154761D01*
X378011904Y-16107142D01*
G04 #@! TO.C,D_NEG_4_4*
X490916666Y-16202380D02*
X490916666Y-15202380D01*
X491154761Y-15202380D01*
X491297619Y-15250000D01*
X491392857Y-15345238D01*
X491440476Y-15440476D01*
X491488095Y-15630952D01*
X491488095Y-15773809D01*
X491440476Y-15964285D01*
X491392857Y-16059523D01*
X491297619Y-16154761D01*
X491154761Y-16202380D01*
X490916666Y-16202380D01*
X491678571Y-16297619D02*
X492440476Y-16297619D01*
X492678571Y-16202380D02*
X492678571Y-15202380D01*
X493250000Y-16202380D01*
X493250000Y-15202380D01*
X493726190Y-15678571D02*
X494059523Y-15678571D01*
X494202380Y-16202380D02*
X493726190Y-16202380D01*
X493726190Y-15202380D01*
X494202380Y-15202380D01*
X495154761Y-15250000D02*
X495059523Y-15202380D01*
X494916666Y-15202380D01*
X494773809Y-15250000D01*
X494678571Y-15345238D01*
X494630952Y-15440476D01*
X494583333Y-15630952D01*
X494583333Y-15773809D01*
X494630952Y-15964285D01*
X494678571Y-16059523D01*
X494773809Y-16154761D01*
X494916666Y-16202380D01*
X495011904Y-16202380D01*
X495154761Y-16154761D01*
X495202380Y-16107142D01*
X495202380Y-15773809D01*
X495011904Y-15773809D01*
X495392857Y-16297619D02*
X496154761Y-16297619D01*
X496821428Y-15535714D02*
X496821428Y-16202380D01*
X496583333Y-15154761D02*
X496345238Y-15869047D01*
X496964285Y-15869047D01*
X497107142Y-16297619D02*
X497869047Y-16297619D01*
X498535714Y-15535714D02*
X498535714Y-16202380D01*
X498297619Y-15154761D02*
X498059523Y-15869047D01*
X498678571Y-15869047D01*
G04 #@! TO.C,D_POS_1_1*
X40892857Y-1702380D02*
X40892857Y-702380D01*
X41130952Y-702380D01*
X41273809Y-750000D01*
X41369047Y-845238D01*
X41416666Y-940476D01*
X41464285Y-1130952D01*
X41464285Y-1273809D01*
X41416666Y-1464285D01*
X41369047Y-1559523D01*
X41273809Y-1654761D01*
X41130952Y-1702380D01*
X40892857Y-1702380D01*
X41654761Y-1797619D02*
X42416666Y-1797619D01*
X42654761Y-1702380D02*
X42654761Y-702380D01*
X43035714Y-702380D01*
X43130952Y-750000D01*
X43178571Y-797619D01*
X43226190Y-892857D01*
X43226190Y-1035714D01*
X43178571Y-1130952D01*
X43130952Y-1178571D01*
X43035714Y-1226190D01*
X42654761Y-1226190D01*
X43845238Y-702380D02*
X44035714Y-702380D01*
X44130952Y-750000D01*
X44226190Y-845238D01*
X44273809Y-1035714D01*
X44273809Y-1369047D01*
X44226190Y-1559523D01*
X44130952Y-1654761D01*
X44035714Y-1702380D01*
X43845238Y-1702380D01*
X43750000Y-1654761D01*
X43654761Y-1559523D01*
X43607142Y-1369047D01*
X43607142Y-1035714D01*
X43654761Y-845238D01*
X43750000Y-750000D01*
X43845238Y-702380D01*
X44654761Y-1654761D02*
X44797619Y-1702380D01*
X45035714Y-1702380D01*
X45130952Y-1654761D01*
X45178571Y-1607142D01*
X45226190Y-1511904D01*
X45226190Y-1416666D01*
X45178571Y-1321428D01*
X45130952Y-1273809D01*
X45035714Y-1226190D01*
X44845238Y-1178571D01*
X44750000Y-1130952D01*
X44702380Y-1083333D01*
X44654761Y-988095D01*
X44654761Y-892857D01*
X44702380Y-797619D01*
X44750000Y-750000D01*
X44845238Y-702380D01*
X45083333Y-702380D01*
X45226190Y-750000D01*
X45416666Y-1797619D02*
X46178571Y-1797619D01*
X46940476Y-1702380D02*
X46369047Y-1702380D01*
X46654761Y-1702380D02*
X46654761Y-702380D01*
X46559523Y-845238D01*
X46464285Y-940476D01*
X46369047Y-988095D01*
X47130952Y-1797619D02*
X47892857Y-1797619D01*
X48654761Y-1702380D02*
X48083333Y-1702380D01*
X48369047Y-1702380D02*
X48369047Y-702380D01*
X48273809Y-845238D01*
X48178571Y-940476D01*
X48083333Y-988095D01*
G04 #@! TO.C,D_POS_1_2*
X160892857Y-1702380D02*
X160892857Y-702380D01*
X161130952Y-702380D01*
X161273809Y-750000D01*
X161369047Y-845238D01*
X161416666Y-940476D01*
X161464285Y-1130952D01*
X161464285Y-1273809D01*
X161416666Y-1464285D01*
X161369047Y-1559523D01*
X161273809Y-1654761D01*
X161130952Y-1702380D01*
X160892857Y-1702380D01*
X161654761Y-1797619D02*
X162416666Y-1797619D01*
X162654761Y-1702380D02*
X162654761Y-702380D01*
X163035714Y-702380D01*
X163130952Y-750000D01*
X163178571Y-797619D01*
X163226190Y-892857D01*
X163226190Y-1035714D01*
X163178571Y-1130952D01*
X163130952Y-1178571D01*
X163035714Y-1226190D01*
X162654761Y-1226190D01*
X163845238Y-702380D02*
X164035714Y-702380D01*
X164130952Y-750000D01*
X164226190Y-845238D01*
X164273809Y-1035714D01*
X164273809Y-1369047D01*
X164226190Y-1559523D01*
X164130952Y-1654761D01*
X164035714Y-1702380D01*
X163845238Y-1702380D01*
X163750000Y-1654761D01*
X163654761Y-1559523D01*
X163607142Y-1369047D01*
X163607142Y-1035714D01*
X163654761Y-845238D01*
X163750000Y-750000D01*
X163845238Y-702380D01*
X164654761Y-1654761D02*
X164797619Y-1702380D01*
X165035714Y-1702380D01*
X165130952Y-1654761D01*
X165178571Y-1607142D01*
X165226190Y-1511904D01*
X165226190Y-1416666D01*
X165178571Y-1321428D01*
X165130952Y-1273809D01*
X165035714Y-1226190D01*
X164845238Y-1178571D01*
X164750000Y-1130952D01*
X164702380Y-1083333D01*
X164654761Y-988095D01*
X164654761Y-892857D01*
X164702380Y-797619D01*
X164750000Y-750000D01*
X164845238Y-702380D01*
X165083333Y-702380D01*
X165226190Y-750000D01*
X165416666Y-1797619D02*
X166178571Y-1797619D01*
X166940476Y-1702380D02*
X166369047Y-1702380D01*
X166654761Y-1702380D02*
X166654761Y-702380D01*
X166559523Y-845238D01*
X166464285Y-940476D01*
X166369047Y-988095D01*
X167130952Y-1797619D02*
X167892857Y-1797619D01*
X168083333Y-797619D02*
X168130952Y-750000D01*
X168226190Y-702380D01*
X168464285Y-702380D01*
X168559523Y-750000D01*
X168607142Y-797619D01*
X168654761Y-892857D01*
X168654761Y-988095D01*
X168607142Y-1130952D01*
X168035714Y-1702380D01*
X168654761Y-1702380D01*
G04 #@! TO.C,D_POS_1_3*
X280892857Y-1702380D02*
X280892857Y-702380D01*
X281130952Y-702380D01*
X281273809Y-750000D01*
X281369047Y-845238D01*
X281416666Y-940476D01*
X281464285Y-1130952D01*
X281464285Y-1273809D01*
X281416666Y-1464285D01*
X281369047Y-1559523D01*
X281273809Y-1654761D01*
X281130952Y-1702380D01*
X280892857Y-1702380D01*
X281654761Y-1797619D02*
X282416666Y-1797619D01*
X282654761Y-1702380D02*
X282654761Y-702380D01*
X283035714Y-702380D01*
X283130952Y-750000D01*
X283178571Y-797619D01*
X283226190Y-892857D01*
X283226190Y-1035714D01*
X283178571Y-1130952D01*
X283130952Y-1178571D01*
X283035714Y-1226190D01*
X282654761Y-1226190D01*
X283845238Y-702380D02*
X284035714Y-702380D01*
X284130952Y-750000D01*
X284226190Y-845238D01*
X284273809Y-1035714D01*
X284273809Y-1369047D01*
X284226190Y-1559523D01*
X284130952Y-1654761D01*
X284035714Y-1702380D01*
X283845238Y-1702380D01*
X283750000Y-1654761D01*
X283654761Y-1559523D01*
X283607142Y-1369047D01*
X283607142Y-1035714D01*
X283654761Y-845238D01*
X283750000Y-750000D01*
X283845238Y-702380D01*
X284654761Y-1654761D02*
X284797619Y-1702380D01*
X285035714Y-1702380D01*
X285130952Y-1654761D01*
X285178571Y-1607142D01*
X285226190Y-1511904D01*
X285226190Y-1416666D01*
X285178571Y-1321428D01*
X285130952Y-1273809D01*
X285035714Y-1226190D01*
X284845238Y-1178571D01*
X284750000Y-1130952D01*
X284702380Y-1083333D01*
X284654761Y-988095D01*
X284654761Y-892857D01*
X284702380Y-797619D01*
X284750000Y-750000D01*
X284845238Y-702380D01*
X285083333Y-702380D01*
X285226190Y-750000D01*
X285416666Y-1797619D02*
X286178571Y-1797619D01*
X286940476Y-1702380D02*
X286369047Y-1702380D01*
X286654761Y-1702380D02*
X286654761Y-702380D01*
X286559523Y-845238D01*
X286464285Y-940476D01*
X286369047Y-988095D01*
X287130952Y-1797619D02*
X287892857Y-1797619D01*
X288035714Y-702380D02*
X288654761Y-702380D01*
X288321428Y-1083333D01*
X288464285Y-1083333D01*
X288559523Y-1130952D01*
X288607142Y-1178571D01*
X288654761Y-1273809D01*
X288654761Y-1511904D01*
X288607142Y-1607142D01*
X288559523Y-1654761D01*
X288464285Y-1702380D01*
X288178571Y-1702380D01*
X288083333Y-1654761D01*
X288035714Y-1607142D01*
G04 #@! TO.C,D_POS_1_4*
X400892857Y-1702380D02*
X400892857Y-702380D01*
X401130952Y-702380D01*
X401273809Y-750000D01*
X401369047Y-845238D01*
X401416666Y-940476D01*
X401464285Y-1130952D01*
X401464285Y-1273809D01*
X401416666Y-1464285D01*
X401369047Y-1559523D01*
X401273809Y-1654761D01*
X401130952Y-1702380D01*
X400892857Y-1702380D01*
X401654761Y-1797619D02*
X402416666Y-1797619D01*
X402654761Y-1702380D02*
X402654761Y-702380D01*
X403035714Y-702380D01*
X403130952Y-750000D01*
X403178571Y-797619D01*
X403226190Y-892857D01*
X403226190Y-1035714D01*
X403178571Y-1130952D01*
X403130952Y-1178571D01*
X403035714Y-1226190D01*
X402654761Y-1226190D01*
X403845238Y-702380D02*
X404035714Y-702380D01*
X404130952Y-750000D01*
X404226190Y-845238D01*
X404273809Y-1035714D01*
X404273809Y-1369047D01*
X404226190Y-1559523D01*
X404130952Y-1654761D01*
X404035714Y-1702380D01*
X403845238Y-1702380D01*
X403750000Y-1654761D01*
X403654761Y-1559523D01*
X403607142Y-1369047D01*
X403607142Y-1035714D01*
X403654761Y-845238D01*
X403750000Y-750000D01*
X403845238Y-702380D01*
X404654761Y-1654761D02*
X404797619Y-1702380D01*
X405035714Y-1702380D01*
X405130952Y-1654761D01*
X405178571Y-1607142D01*
X405226190Y-1511904D01*
X405226190Y-1416666D01*
X405178571Y-1321428D01*
X405130952Y-1273809D01*
X405035714Y-1226190D01*
X404845238Y-1178571D01*
X404750000Y-1130952D01*
X404702380Y-1083333D01*
X404654761Y-988095D01*
X404654761Y-892857D01*
X404702380Y-797619D01*
X404750000Y-750000D01*
X404845238Y-702380D01*
X405083333Y-702380D01*
X405226190Y-750000D01*
X405416666Y-1797619D02*
X406178571Y-1797619D01*
X406940476Y-1702380D02*
X406369047Y-1702380D01*
X406654761Y-1702380D02*
X406654761Y-702380D01*
X406559523Y-845238D01*
X406464285Y-940476D01*
X406369047Y-988095D01*
X407130952Y-1797619D02*
X407892857Y-1797619D01*
X408559523Y-1035714D02*
X408559523Y-1702380D01*
X408321428Y-654761D02*
X408083333Y-1369047D01*
X408702380Y-1369047D01*
G04 #@! TO.C,D_POS_2_1*
X57392857Y-1702380D02*
X57392857Y-702380D01*
X57630952Y-702380D01*
X57773809Y-750000D01*
X57869047Y-845238D01*
X57916666Y-940476D01*
X57964285Y-1130952D01*
X57964285Y-1273809D01*
X57916666Y-1464285D01*
X57869047Y-1559523D01*
X57773809Y-1654761D01*
X57630952Y-1702380D01*
X57392857Y-1702380D01*
X58154761Y-1797619D02*
X58916666Y-1797619D01*
X59154761Y-1702380D02*
X59154761Y-702380D01*
X59535714Y-702380D01*
X59630952Y-750000D01*
X59678571Y-797619D01*
X59726190Y-892857D01*
X59726190Y-1035714D01*
X59678571Y-1130952D01*
X59630952Y-1178571D01*
X59535714Y-1226190D01*
X59154761Y-1226190D01*
X60345238Y-702380D02*
X60535714Y-702380D01*
X60630952Y-750000D01*
X60726190Y-845238D01*
X60773809Y-1035714D01*
X60773809Y-1369047D01*
X60726190Y-1559523D01*
X60630952Y-1654761D01*
X60535714Y-1702380D01*
X60345238Y-1702380D01*
X60250000Y-1654761D01*
X60154761Y-1559523D01*
X60107142Y-1369047D01*
X60107142Y-1035714D01*
X60154761Y-845238D01*
X60250000Y-750000D01*
X60345238Y-702380D01*
X61154761Y-1654761D02*
X61297619Y-1702380D01*
X61535714Y-1702380D01*
X61630952Y-1654761D01*
X61678571Y-1607142D01*
X61726190Y-1511904D01*
X61726190Y-1416666D01*
X61678571Y-1321428D01*
X61630952Y-1273809D01*
X61535714Y-1226190D01*
X61345238Y-1178571D01*
X61250000Y-1130952D01*
X61202380Y-1083333D01*
X61154761Y-988095D01*
X61154761Y-892857D01*
X61202380Y-797619D01*
X61250000Y-750000D01*
X61345238Y-702380D01*
X61583333Y-702380D01*
X61726190Y-750000D01*
X61916666Y-1797619D02*
X62678571Y-1797619D01*
X62869047Y-797619D02*
X62916666Y-750000D01*
X63011904Y-702380D01*
X63250000Y-702380D01*
X63345238Y-750000D01*
X63392857Y-797619D01*
X63440476Y-892857D01*
X63440476Y-988095D01*
X63392857Y-1130952D01*
X62821428Y-1702380D01*
X63440476Y-1702380D01*
X63630952Y-1797619D02*
X64392857Y-1797619D01*
X65154761Y-1702380D02*
X64583333Y-1702380D01*
X64869047Y-1702380D02*
X64869047Y-702380D01*
X64773809Y-845238D01*
X64678571Y-940476D01*
X64583333Y-988095D01*
G04 #@! TO.C,D_POS_2_2*
X177392857Y-1702380D02*
X177392857Y-702380D01*
X177630952Y-702380D01*
X177773809Y-750000D01*
X177869047Y-845238D01*
X177916666Y-940476D01*
X177964285Y-1130952D01*
X177964285Y-1273809D01*
X177916666Y-1464285D01*
X177869047Y-1559523D01*
X177773809Y-1654761D01*
X177630952Y-1702380D01*
X177392857Y-1702380D01*
X178154761Y-1797619D02*
X178916666Y-1797619D01*
X179154761Y-1702380D02*
X179154761Y-702380D01*
X179535714Y-702380D01*
X179630952Y-750000D01*
X179678571Y-797619D01*
X179726190Y-892857D01*
X179726190Y-1035714D01*
X179678571Y-1130952D01*
X179630952Y-1178571D01*
X179535714Y-1226190D01*
X179154761Y-1226190D01*
X180345238Y-702380D02*
X180535714Y-702380D01*
X180630952Y-750000D01*
X180726190Y-845238D01*
X180773809Y-1035714D01*
X180773809Y-1369047D01*
X180726190Y-1559523D01*
X180630952Y-1654761D01*
X180535714Y-1702380D01*
X180345238Y-1702380D01*
X180250000Y-1654761D01*
X180154761Y-1559523D01*
X180107142Y-1369047D01*
X180107142Y-1035714D01*
X180154761Y-845238D01*
X180250000Y-750000D01*
X180345238Y-702380D01*
X181154761Y-1654761D02*
X181297619Y-1702380D01*
X181535714Y-1702380D01*
X181630952Y-1654761D01*
X181678571Y-1607142D01*
X181726190Y-1511904D01*
X181726190Y-1416666D01*
X181678571Y-1321428D01*
X181630952Y-1273809D01*
X181535714Y-1226190D01*
X181345238Y-1178571D01*
X181250000Y-1130952D01*
X181202380Y-1083333D01*
X181154761Y-988095D01*
X181154761Y-892857D01*
X181202380Y-797619D01*
X181250000Y-750000D01*
X181345238Y-702380D01*
X181583333Y-702380D01*
X181726190Y-750000D01*
X181916666Y-1797619D02*
X182678571Y-1797619D01*
X182869047Y-797619D02*
X182916666Y-750000D01*
X183011904Y-702380D01*
X183250000Y-702380D01*
X183345238Y-750000D01*
X183392857Y-797619D01*
X183440476Y-892857D01*
X183440476Y-988095D01*
X183392857Y-1130952D01*
X182821428Y-1702380D01*
X183440476Y-1702380D01*
X183630952Y-1797619D02*
X184392857Y-1797619D01*
X184583333Y-797619D02*
X184630952Y-750000D01*
X184726190Y-702380D01*
X184964285Y-702380D01*
X185059523Y-750000D01*
X185107142Y-797619D01*
X185154761Y-892857D01*
X185154761Y-988095D01*
X185107142Y-1130952D01*
X184535714Y-1702380D01*
X185154761Y-1702380D01*
G04 #@! TO.C,D_POS_2_3*
X297142857Y-1702380D02*
X297142857Y-702380D01*
X297380952Y-702380D01*
X297523809Y-750000D01*
X297619047Y-845238D01*
X297666666Y-940476D01*
X297714285Y-1130952D01*
X297714285Y-1273809D01*
X297666666Y-1464285D01*
X297619047Y-1559523D01*
X297523809Y-1654761D01*
X297380952Y-1702380D01*
X297142857Y-1702380D01*
X297904761Y-1797619D02*
X298666666Y-1797619D01*
X298904761Y-1702380D02*
X298904761Y-702380D01*
X299285714Y-702380D01*
X299380952Y-750000D01*
X299428571Y-797619D01*
X299476190Y-892857D01*
X299476190Y-1035714D01*
X299428571Y-1130952D01*
X299380952Y-1178571D01*
X299285714Y-1226190D01*
X298904761Y-1226190D01*
X300095238Y-702380D02*
X300285714Y-702380D01*
X300380952Y-750000D01*
X300476190Y-845238D01*
X300523809Y-1035714D01*
X300523809Y-1369047D01*
X300476190Y-1559523D01*
X300380952Y-1654761D01*
X300285714Y-1702380D01*
X300095238Y-1702380D01*
X300000000Y-1654761D01*
X299904761Y-1559523D01*
X299857142Y-1369047D01*
X299857142Y-1035714D01*
X299904761Y-845238D01*
X300000000Y-750000D01*
X300095238Y-702380D01*
X300904761Y-1654761D02*
X301047619Y-1702380D01*
X301285714Y-1702380D01*
X301380952Y-1654761D01*
X301428571Y-1607142D01*
X301476190Y-1511904D01*
X301476190Y-1416666D01*
X301428571Y-1321428D01*
X301380952Y-1273809D01*
X301285714Y-1226190D01*
X301095238Y-1178571D01*
X301000000Y-1130952D01*
X300952380Y-1083333D01*
X300904761Y-988095D01*
X300904761Y-892857D01*
X300952380Y-797619D01*
X301000000Y-750000D01*
X301095238Y-702380D01*
X301333333Y-702380D01*
X301476190Y-750000D01*
X301666666Y-1797619D02*
X302428571Y-1797619D01*
X302619047Y-797619D02*
X302666666Y-750000D01*
X302761904Y-702380D01*
X303000000Y-702380D01*
X303095238Y-750000D01*
X303142857Y-797619D01*
X303190476Y-892857D01*
X303190476Y-988095D01*
X303142857Y-1130952D01*
X302571428Y-1702380D01*
X303190476Y-1702380D01*
X303380952Y-1797619D02*
X304142857Y-1797619D01*
X304285714Y-702380D02*
X304904761Y-702380D01*
X304571428Y-1083333D01*
X304714285Y-1083333D01*
X304809523Y-1130952D01*
X304857142Y-1178571D01*
X304904761Y-1273809D01*
X304904761Y-1511904D01*
X304857142Y-1607142D01*
X304809523Y-1654761D01*
X304714285Y-1702380D01*
X304428571Y-1702380D01*
X304333333Y-1654761D01*
X304285714Y-1607142D01*
G04 #@! TO.C,D_POS_2_4*
X417392857Y-1702380D02*
X417392857Y-702380D01*
X417630952Y-702380D01*
X417773809Y-750000D01*
X417869047Y-845238D01*
X417916666Y-940476D01*
X417964285Y-1130952D01*
X417964285Y-1273809D01*
X417916666Y-1464285D01*
X417869047Y-1559523D01*
X417773809Y-1654761D01*
X417630952Y-1702380D01*
X417392857Y-1702380D01*
X418154761Y-1797619D02*
X418916666Y-1797619D01*
X419154761Y-1702380D02*
X419154761Y-702380D01*
X419535714Y-702380D01*
X419630952Y-750000D01*
X419678571Y-797619D01*
X419726190Y-892857D01*
X419726190Y-1035714D01*
X419678571Y-1130952D01*
X419630952Y-1178571D01*
X419535714Y-1226190D01*
X419154761Y-1226190D01*
X420345238Y-702380D02*
X420535714Y-702380D01*
X420630952Y-750000D01*
X420726190Y-845238D01*
X420773809Y-1035714D01*
X420773809Y-1369047D01*
X420726190Y-1559523D01*
X420630952Y-1654761D01*
X420535714Y-1702380D01*
X420345238Y-1702380D01*
X420250000Y-1654761D01*
X420154761Y-1559523D01*
X420107142Y-1369047D01*
X420107142Y-1035714D01*
X420154761Y-845238D01*
X420250000Y-750000D01*
X420345238Y-702380D01*
X421154761Y-1654761D02*
X421297619Y-1702380D01*
X421535714Y-1702380D01*
X421630952Y-1654761D01*
X421678571Y-1607142D01*
X421726190Y-1511904D01*
X421726190Y-1416666D01*
X421678571Y-1321428D01*
X421630952Y-1273809D01*
X421535714Y-1226190D01*
X421345238Y-1178571D01*
X421250000Y-1130952D01*
X421202380Y-1083333D01*
X421154761Y-988095D01*
X421154761Y-892857D01*
X421202380Y-797619D01*
X421250000Y-750000D01*
X421345238Y-702380D01*
X421583333Y-702380D01*
X421726190Y-750000D01*
X421916666Y-1797619D02*
X422678571Y-1797619D01*
X422869047Y-797619D02*
X422916666Y-750000D01*
X423011904Y-702380D01*
X423250000Y-702380D01*
X423345238Y-750000D01*
X423392857Y-797619D01*
X423440476Y-892857D01*
X423440476Y-988095D01*
X423392857Y-1130952D01*
X422821428Y-1702380D01*
X423440476Y-1702380D01*
X423630952Y-1797619D02*
X424392857Y-1797619D01*
X425059523Y-1035714D02*
X425059523Y-1702380D01*
X424821428Y-654761D02*
X424583333Y-1369047D01*
X425202380Y-1369047D01*
G04 #@! TO.C,D_POS_3_1*
X100892857Y-1702380D02*
X100892857Y-702380D01*
X101130952Y-702380D01*
X101273809Y-750000D01*
X101369047Y-845238D01*
X101416666Y-940476D01*
X101464285Y-1130952D01*
X101464285Y-1273809D01*
X101416666Y-1464285D01*
X101369047Y-1559523D01*
X101273809Y-1654761D01*
X101130952Y-1702380D01*
X100892857Y-1702380D01*
X101654761Y-1797619D02*
X102416666Y-1797619D01*
X102654761Y-1702380D02*
X102654761Y-702380D01*
X103035714Y-702380D01*
X103130952Y-750000D01*
X103178571Y-797619D01*
X103226190Y-892857D01*
X103226190Y-1035714D01*
X103178571Y-1130952D01*
X103130952Y-1178571D01*
X103035714Y-1226190D01*
X102654761Y-1226190D01*
X103845238Y-702380D02*
X104035714Y-702380D01*
X104130952Y-750000D01*
X104226190Y-845238D01*
X104273809Y-1035714D01*
X104273809Y-1369047D01*
X104226190Y-1559523D01*
X104130952Y-1654761D01*
X104035714Y-1702380D01*
X103845238Y-1702380D01*
X103750000Y-1654761D01*
X103654761Y-1559523D01*
X103607142Y-1369047D01*
X103607142Y-1035714D01*
X103654761Y-845238D01*
X103750000Y-750000D01*
X103845238Y-702380D01*
X104654761Y-1654761D02*
X104797619Y-1702380D01*
X105035714Y-1702380D01*
X105130952Y-1654761D01*
X105178571Y-1607142D01*
X105226190Y-1511904D01*
X105226190Y-1416666D01*
X105178571Y-1321428D01*
X105130952Y-1273809D01*
X105035714Y-1226190D01*
X104845238Y-1178571D01*
X104750000Y-1130952D01*
X104702380Y-1083333D01*
X104654761Y-988095D01*
X104654761Y-892857D01*
X104702380Y-797619D01*
X104750000Y-750000D01*
X104845238Y-702380D01*
X105083333Y-702380D01*
X105226190Y-750000D01*
X105416666Y-1797619D02*
X106178571Y-1797619D01*
X106321428Y-702380D02*
X106940476Y-702380D01*
X106607142Y-1083333D01*
X106750000Y-1083333D01*
X106845238Y-1130952D01*
X106892857Y-1178571D01*
X106940476Y-1273809D01*
X106940476Y-1511904D01*
X106892857Y-1607142D01*
X106845238Y-1654761D01*
X106750000Y-1702380D01*
X106464285Y-1702380D01*
X106369047Y-1654761D01*
X106321428Y-1607142D01*
X107130952Y-1797619D02*
X107892857Y-1797619D01*
X108654761Y-1702380D02*
X108083333Y-1702380D01*
X108369047Y-1702380D02*
X108369047Y-702380D01*
X108273809Y-845238D01*
X108178571Y-940476D01*
X108083333Y-988095D01*
G04 #@! TO.C,D_POS_3_2*
X220892857Y-1702380D02*
X220892857Y-702380D01*
X221130952Y-702380D01*
X221273809Y-750000D01*
X221369047Y-845238D01*
X221416666Y-940476D01*
X221464285Y-1130952D01*
X221464285Y-1273809D01*
X221416666Y-1464285D01*
X221369047Y-1559523D01*
X221273809Y-1654761D01*
X221130952Y-1702380D01*
X220892857Y-1702380D01*
X221654761Y-1797619D02*
X222416666Y-1797619D01*
X222654761Y-1702380D02*
X222654761Y-702380D01*
X223035714Y-702380D01*
X223130952Y-750000D01*
X223178571Y-797619D01*
X223226190Y-892857D01*
X223226190Y-1035714D01*
X223178571Y-1130952D01*
X223130952Y-1178571D01*
X223035714Y-1226190D01*
X222654761Y-1226190D01*
X223845238Y-702380D02*
X224035714Y-702380D01*
X224130952Y-750000D01*
X224226190Y-845238D01*
X224273809Y-1035714D01*
X224273809Y-1369047D01*
X224226190Y-1559523D01*
X224130952Y-1654761D01*
X224035714Y-1702380D01*
X223845238Y-1702380D01*
X223750000Y-1654761D01*
X223654761Y-1559523D01*
X223607142Y-1369047D01*
X223607142Y-1035714D01*
X223654761Y-845238D01*
X223750000Y-750000D01*
X223845238Y-702380D01*
X224654761Y-1654761D02*
X224797619Y-1702380D01*
X225035714Y-1702380D01*
X225130952Y-1654761D01*
X225178571Y-1607142D01*
X225226190Y-1511904D01*
X225226190Y-1416666D01*
X225178571Y-1321428D01*
X225130952Y-1273809D01*
X225035714Y-1226190D01*
X224845238Y-1178571D01*
X224750000Y-1130952D01*
X224702380Y-1083333D01*
X224654761Y-988095D01*
X224654761Y-892857D01*
X224702380Y-797619D01*
X224750000Y-750000D01*
X224845238Y-702380D01*
X225083333Y-702380D01*
X225226190Y-750000D01*
X225416666Y-1797619D02*
X226178571Y-1797619D01*
X226321428Y-702380D02*
X226940476Y-702380D01*
X226607142Y-1083333D01*
X226750000Y-1083333D01*
X226845238Y-1130952D01*
X226892857Y-1178571D01*
X226940476Y-1273809D01*
X226940476Y-1511904D01*
X226892857Y-1607142D01*
X226845238Y-1654761D01*
X226750000Y-1702380D01*
X226464285Y-1702380D01*
X226369047Y-1654761D01*
X226321428Y-1607142D01*
X227130952Y-1797619D02*
X227892857Y-1797619D01*
X228083333Y-797619D02*
X228130952Y-750000D01*
X228226190Y-702380D01*
X228464285Y-702380D01*
X228559523Y-750000D01*
X228607142Y-797619D01*
X228654761Y-892857D01*
X228654761Y-988095D01*
X228607142Y-1130952D01*
X228035714Y-1702380D01*
X228654761Y-1702380D01*
G04 #@! TO.C,D_POS_3_3*
X340892857Y-1702380D02*
X340892857Y-702380D01*
X341130952Y-702380D01*
X341273809Y-750000D01*
X341369047Y-845238D01*
X341416666Y-940476D01*
X341464285Y-1130952D01*
X341464285Y-1273809D01*
X341416666Y-1464285D01*
X341369047Y-1559523D01*
X341273809Y-1654761D01*
X341130952Y-1702380D01*
X340892857Y-1702380D01*
X341654761Y-1797619D02*
X342416666Y-1797619D01*
X342654761Y-1702380D02*
X342654761Y-702380D01*
X343035714Y-702380D01*
X343130952Y-750000D01*
X343178571Y-797619D01*
X343226190Y-892857D01*
X343226190Y-1035714D01*
X343178571Y-1130952D01*
X343130952Y-1178571D01*
X343035714Y-1226190D01*
X342654761Y-1226190D01*
X343845238Y-702380D02*
X344035714Y-702380D01*
X344130952Y-750000D01*
X344226190Y-845238D01*
X344273809Y-1035714D01*
X344273809Y-1369047D01*
X344226190Y-1559523D01*
X344130952Y-1654761D01*
X344035714Y-1702380D01*
X343845238Y-1702380D01*
X343750000Y-1654761D01*
X343654761Y-1559523D01*
X343607142Y-1369047D01*
X343607142Y-1035714D01*
X343654761Y-845238D01*
X343750000Y-750000D01*
X343845238Y-702380D01*
X344654761Y-1654761D02*
X344797619Y-1702380D01*
X345035714Y-1702380D01*
X345130952Y-1654761D01*
X345178571Y-1607142D01*
X345226190Y-1511904D01*
X345226190Y-1416666D01*
X345178571Y-1321428D01*
X345130952Y-1273809D01*
X345035714Y-1226190D01*
X344845238Y-1178571D01*
X344750000Y-1130952D01*
X344702380Y-1083333D01*
X344654761Y-988095D01*
X344654761Y-892857D01*
X344702380Y-797619D01*
X344750000Y-750000D01*
X344845238Y-702380D01*
X345083333Y-702380D01*
X345226190Y-750000D01*
X345416666Y-1797619D02*
X346178571Y-1797619D01*
X346321428Y-702380D02*
X346940476Y-702380D01*
X346607142Y-1083333D01*
X346750000Y-1083333D01*
X346845238Y-1130952D01*
X346892857Y-1178571D01*
X346940476Y-1273809D01*
X346940476Y-1511904D01*
X346892857Y-1607142D01*
X346845238Y-1654761D01*
X346750000Y-1702380D01*
X346464285Y-1702380D01*
X346369047Y-1654761D01*
X346321428Y-1607142D01*
X347130952Y-1797619D02*
X347892857Y-1797619D01*
X348035714Y-702380D02*
X348654761Y-702380D01*
X348321428Y-1083333D01*
X348464285Y-1083333D01*
X348559523Y-1130952D01*
X348607142Y-1178571D01*
X348654761Y-1273809D01*
X348654761Y-1511904D01*
X348607142Y-1607142D01*
X348559523Y-1654761D01*
X348464285Y-1702380D01*
X348178571Y-1702380D01*
X348083333Y-1654761D01*
X348035714Y-1607142D01*
G04 #@! TO.C,D_POS_3_4*
X460892857Y-1702380D02*
X460892857Y-702380D01*
X461130952Y-702380D01*
X461273809Y-750000D01*
X461369047Y-845238D01*
X461416666Y-940476D01*
X461464285Y-1130952D01*
X461464285Y-1273809D01*
X461416666Y-1464285D01*
X461369047Y-1559523D01*
X461273809Y-1654761D01*
X461130952Y-1702380D01*
X460892857Y-1702380D01*
X461654761Y-1797619D02*
X462416666Y-1797619D01*
X462654761Y-1702380D02*
X462654761Y-702380D01*
X463035714Y-702380D01*
X463130952Y-750000D01*
X463178571Y-797619D01*
X463226190Y-892857D01*
X463226190Y-1035714D01*
X463178571Y-1130952D01*
X463130952Y-1178571D01*
X463035714Y-1226190D01*
X462654761Y-1226190D01*
X463845238Y-702380D02*
X464035714Y-702380D01*
X464130952Y-750000D01*
X464226190Y-845238D01*
X464273809Y-1035714D01*
X464273809Y-1369047D01*
X464226190Y-1559523D01*
X464130952Y-1654761D01*
X464035714Y-1702380D01*
X463845238Y-1702380D01*
X463750000Y-1654761D01*
X463654761Y-1559523D01*
X463607142Y-1369047D01*
X463607142Y-1035714D01*
X463654761Y-845238D01*
X463750000Y-750000D01*
X463845238Y-702380D01*
X464654761Y-1654761D02*
X464797619Y-1702380D01*
X465035714Y-1702380D01*
X465130952Y-1654761D01*
X465178571Y-1607142D01*
X465226190Y-1511904D01*
X465226190Y-1416666D01*
X465178571Y-1321428D01*
X465130952Y-1273809D01*
X465035714Y-1226190D01*
X464845238Y-1178571D01*
X464750000Y-1130952D01*
X464702380Y-1083333D01*
X464654761Y-988095D01*
X464654761Y-892857D01*
X464702380Y-797619D01*
X464750000Y-750000D01*
X464845238Y-702380D01*
X465083333Y-702380D01*
X465226190Y-750000D01*
X465416666Y-1797619D02*
X466178571Y-1797619D01*
X466321428Y-702380D02*
X466940476Y-702380D01*
X466607142Y-1083333D01*
X466750000Y-1083333D01*
X466845238Y-1130952D01*
X466892857Y-1178571D01*
X466940476Y-1273809D01*
X466940476Y-1511904D01*
X466892857Y-1607142D01*
X466845238Y-1654761D01*
X466750000Y-1702380D01*
X466464285Y-1702380D01*
X466369047Y-1654761D01*
X466321428Y-1607142D01*
X467130952Y-1797619D02*
X467892857Y-1797619D01*
X468559523Y-1035714D02*
X468559523Y-1702380D01*
X468321428Y-654761D02*
X468083333Y-1369047D01*
X468702380Y-1369047D01*
G04 #@! TO.C,D_POS_4_1*
X130892857Y-1702380D02*
X130892857Y-702380D01*
X131130952Y-702380D01*
X131273809Y-750000D01*
X131369047Y-845238D01*
X131416666Y-940476D01*
X131464285Y-1130952D01*
X131464285Y-1273809D01*
X131416666Y-1464285D01*
X131369047Y-1559523D01*
X131273809Y-1654761D01*
X131130952Y-1702380D01*
X130892857Y-1702380D01*
X131654761Y-1797619D02*
X132416666Y-1797619D01*
X132654761Y-1702380D02*
X132654761Y-702380D01*
X133035714Y-702380D01*
X133130952Y-750000D01*
X133178571Y-797619D01*
X133226190Y-892857D01*
X133226190Y-1035714D01*
X133178571Y-1130952D01*
X133130952Y-1178571D01*
X133035714Y-1226190D01*
X132654761Y-1226190D01*
X133845238Y-702380D02*
X134035714Y-702380D01*
X134130952Y-750000D01*
X134226190Y-845238D01*
X134273809Y-1035714D01*
X134273809Y-1369047D01*
X134226190Y-1559523D01*
X134130952Y-1654761D01*
X134035714Y-1702380D01*
X133845238Y-1702380D01*
X133750000Y-1654761D01*
X133654761Y-1559523D01*
X133607142Y-1369047D01*
X133607142Y-1035714D01*
X133654761Y-845238D01*
X133750000Y-750000D01*
X133845238Y-702380D01*
X134654761Y-1654761D02*
X134797619Y-1702380D01*
X135035714Y-1702380D01*
X135130952Y-1654761D01*
X135178571Y-1607142D01*
X135226190Y-1511904D01*
X135226190Y-1416666D01*
X135178571Y-1321428D01*
X135130952Y-1273809D01*
X135035714Y-1226190D01*
X134845238Y-1178571D01*
X134750000Y-1130952D01*
X134702380Y-1083333D01*
X134654761Y-988095D01*
X134654761Y-892857D01*
X134702380Y-797619D01*
X134750000Y-750000D01*
X134845238Y-702380D01*
X135083333Y-702380D01*
X135226190Y-750000D01*
X135416666Y-1797619D02*
X136178571Y-1797619D01*
X136845238Y-1035714D02*
X136845238Y-1702380D01*
X136607142Y-654761D02*
X136369047Y-1369047D01*
X136988095Y-1369047D01*
X137130952Y-1797619D02*
X137892857Y-1797619D01*
X138654761Y-1702380D02*
X138083333Y-1702380D01*
X138369047Y-1702380D02*
X138369047Y-702380D01*
X138273809Y-845238D01*
X138178571Y-940476D01*
X138083333Y-988095D01*
G04 #@! TO.C,D_POS_4_2*
X250892857Y-1702380D02*
X250892857Y-702380D01*
X251130952Y-702380D01*
X251273809Y-750000D01*
X251369047Y-845238D01*
X251416666Y-940476D01*
X251464285Y-1130952D01*
X251464285Y-1273809D01*
X251416666Y-1464285D01*
X251369047Y-1559523D01*
X251273809Y-1654761D01*
X251130952Y-1702380D01*
X250892857Y-1702380D01*
X251654761Y-1797619D02*
X252416666Y-1797619D01*
X252654761Y-1702380D02*
X252654761Y-702380D01*
X253035714Y-702380D01*
X253130952Y-750000D01*
X253178571Y-797619D01*
X253226190Y-892857D01*
X253226190Y-1035714D01*
X253178571Y-1130952D01*
X253130952Y-1178571D01*
X253035714Y-1226190D01*
X252654761Y-1226190D01*
X253845238Y-702380D02*
X254035714Y-702380D01*
X254130952Y-750000D01*
X254226190Y-845238D01*
X254273809Y-1035714D01*
X254273809Y-1369047D01*
X254226190Y-1559523D01*
X254130952Y-1654761D01*
X254035714Y-1702380D01*
X253845238Y-1702380D01*
X253750000Y-1654761D01*
X253654761Y-1559523D01*
X253607142Y-1369047D01*
X253607142Y-1035714D01*
X253654761Y-845238D01*
X253750000Y-750000D01*
X253845238Y-702380D01*
X254654761Y-1654761D02*
X254797619Y-1702380D01*
X255035714Y-1702380D01*
X255130952Y-1654761D01*
X255178571Y-1607142D01*
X255226190Y-1511904D01*
X255226190Y-1416666D01*
X255178571Y-1321428D01*
X255130952Y-1273809D01*
X255035714Y-1226190D01*
X254845238Y-1178571D01*
X254750000Y-1130952D01*
X254702380Y-1083333D01*
X254654761Y-988095D01*
X254654761Y-892857D01*
X254702380Y-797619D01*
X254750000Y-750000D01*
X254845238Y-702380D01*
X255083333Y-702380D01*
X255226190Y-750000D01*
X255416666Y-1797619D02*
X256178571Y-1797619D01*
X256845238Y-1035714D02*
X256845238Y-1702380D01*
X256607142Y-654761D02*
X256369047Y-1369047D01*
X256988095Y-1369047D01*
X257130952Y-1797619D02*
X257892857Y-1797619D01*
X258083333Y-797619D02*
X258130952Y-750000D01*
X258226190Y-702380D01*
X258464285Y-702380D01*
X258559523Y-750000D01*
X258607142Y-797619D01*
X258654761Y-892857D01*
X258654761Y-988095D01*
X258607142Y-1130952D01*
X258035714Y-1702380D01*
X258654761Y-1702380D01*
G04 #@! TO.C,D_POS_4_3*
X370892857Y-1702380D02*
X370892857Y-702380D01*
X371130952Y-702380D01*
X371273809Y-750000D01*
X371369047Y-845238D01*
X371416666Y-940476D01*
X371464285Y-1130952D01*
X371464285Y-1273809D01*
X371416666Y-1464285D01*
X371369047Y-1559523D01*
X371273809Y-1654761D01*
X371130952Y-1702380D01*
X370892857Y-1702380D01*
X371654761Y-1797619D02*
X372416666Y-1797619D01*
X372654761Y-1702380D02*
X372654761Y-702380D01*
X373035714Y-702380D01*
X373130952Y-750000D01*
X373178571Y-797619D01*
X373226190Y-892857D01*
X373226190Y-1035714D01*
X373178571Y-1130952D01*
X373130952Y-1178571D01*
X373035714Y-1226190D01*
X372654761Y-1226190D01*
X373845238Y-702380D02*
X374035714Y-702380D01*
X374130952Y-750000D01*
X374226190Y-845238D01*
X374273809Y-1035714D01*
X374273809Y-1369047D01*
X374226190Y-1559523D01*
X374130952Y-1654761D01*
X374035714Y-1702380D01*
X373845238Y-1702380D01*
X373750000Y-1654761D01*
X373654761Y-1559523D01*
X373607142Y-1369047D01*
X373607142Y-1035714D01*
X373654761Y-845238D01*
X373750000Y-750000D01*
X373845238Y-702380D01*
X374654761Y-1654761D02*
X374797619Y-1702380D01*
X375035714Y-1702380D01*
X375130952Y-1654761D01*
X375178571Y-1607142D01*
X375226190Y-1511904D01*
X375226190Y-1416666D01*
X375178571Y-1321428D01*
X375130952Y-1273809D01*
X375035714Y-1226190D01*
X374845238Y-1178571D01*
X374750000Y-1130952D01*
X374702380Y-1083333D01*
X374654761Y-988095D01*
X374654761Y-892857D01*
X374702380Y-797619D01*
X374750000Y-750000D01*
X374845238Y-702380D01*
X375083333Y-702380D01*
X375226190Y-750000D01*
X375416666Y-1797619D02*
X376178571Y-1797619D01*
X376845238Y-1035714D02*
X376845238Y-1702380D01*
X376607142Y-654761D02*
X376369047Y-1369047D01*
X376988095Y-1369047D01*
X377130952Y-1797619D02*
X377892857Y-1797619D01*
X378035714Y-702380D02*
X378654761Y-702380D01*
X378321428Y-1083333D01*
X378464285Y-1083333D01*
X378559523Y-1130952D01*
X378607142Y-1178571D01*
X378654761Y-1273809D01*
X378654761Y-1511904D01*
X378607142Y-1607142D01*
X378559523Y-1654761D01*
X378464285Y-1702380D01*
X378178571Y-1702380D01*
X378083333Y-1654761D01*
X378035714Y-1607142D01*
G04 #@! TO.C,D_POS_4_4*
X490892857Y-1702380D02*
X490892857Y-702380D01*
X491130952Y-702380D01*
X491273809Y-750000D01*
X491369047Y-845238D01*
X491416666Y-940476D01*
X491464285Y-1130952D01*
X491464285Y-1273809D01*
X491416666Y-1464285D01*
X491369047Y-1559523D01*
X491273809Y-1654761D01*
X491130952Y-1702380D01*
X490892857Y-1702380D01*
X491654761Y-1797619D02*
X492416666Y-1797619D01*
X492654761Y-1702380D02*
X492654761Y-702380D01*
X493035714Y-702380D01*
X493130952Y-750000D01*
X493178571Y-797619D01*
X493226190Y-892857D01*
X493226190Y-1035714D01*
X493178571Y-1130952D01*
X493130952Y-1178571D01*
X493035714Y-1226190D01*
X492654761Y-1226190D01*
X493845238Y-702380D02*
X494035714Y-702380D01*
X494130952Y-750000D01*
X494226190Y-845238D01*
X494273809Y-1035714D01*
X494273809Y-1369047D01*
X494226190Y-1559523D01*
X494130952Y-1654761D01*
X494035714Y-1702380D01*
X493845238Y-1702380D01*
X493750000Y-1654761D01*
X493654761Y-1559523D01*
X493607142Y-1369047D01*
X493607142Y-1035714D01*
X493654761Y-845238D01*
X493750000Y-750000D01*
X493845238Y-702380D01*
X494654761Y-1654761D02*
X494797619Y-1702380D01*
X495035714Y-1702380D01*
X495130952Y-1654761D01*
X495178571Y-1607142D01*
X495226190Y-1511904D01*
X495226190Y-1416666D01*
X495178571Y-1321428D01*
X495130952Y-1273809D01*
X495035714Y-1226190D01*
X494845238Y-1178571D01*
X494750000Y-1130952D01*
X494702380Y-1083333D01*
X494654761Y-988095D01*
X494654761Y-892857D01*
X494702380Y-797619D01*
X494750000Y-750000D01*
X494845238Y-702380D01*
X495083333Y-702380D01*
X495226190Y-750000D01*
X495416666Y-1797619D02*
X496178571Y-1797619D01*
X496845238Y-1035714D02*
X496845238Y-1702380D01*
X496607142Y-654761D02*
X496369047Y-1369047D01*
X496988095Y-1369047D01*
X497130952Y-1797619D02*
X497892857Y-1797619D01*
X498559523Y-1035714D02*
X498559523Y-1702380D01*
X498321428Y-654761D02*
X498083333Y-1369047D01*
X498702380Y-1369047D01*
G04 #@! TO.C,R_LED_1_1*
X79297142Y-1832380D02*
X78963809Y-1356190D01*
X78725714Y-1832380D02*
X78725714Y-832380D01*
X79106666Y-832380D01*
X79201904Y-880000D01*
X79249523Y-927619D01*
X79297142Y-1022857D01*
X79297142Y-1165714D01*
X79249523Y-1260952D01*
X79201904Y-1308571D01*
X79106666Y-1356190D01*
X78725714Y-1356190D01*
X79487619Y-1927619D02*
X80249523Y-1927619D01*
X80963809Y-1832380D02*
X80487619Y-1832380D01*
X80487619Y-832380D01*
X81297142Y-1308571D02*
X81630476Y-1308571D01*
X81773333Y-1832380D02*
X81297142Y-1832380D01*
X81297142Y-832380D01*
X81773333Y-832380D01*
X82201904Y-1832380D02*
X82201904Y-832380D01*
X82440000Y-832380D01*
X82582857Y-880000D01*
X82678095Y-975238D01*
X82725714Y-1070476D01*
X82773333Y-1260952D01*
X82773333Y-1403809D01*
X82725714Y-1594285D01*
X82678095Y-1689523D01*
X82582857Y-1784761D01*
X82440000Y-1832380D01*
X82201904Y-1832380D01*
X82963809Y-1927619D02*
X83725714Y-1927619D01*
X84487619Y-1832380D02*
X83916190Y-1832380D01*
X84201904Y-1832380D02*
X84201904Y-832380D01*
X84106666Y-975238D01*
X84011428Y-1070476D01*
X83916190Y-1118095D01*
X84678095Y-1927619D02*
X85440000Y-1927619D01*
X86201904Y-1832380D02*
X85630476Y-1832380D01*
X85916190Y-1832380D02*
X85916190Y-832380D01*
X85820952Y-975238D01*
X85725714Y-1070476D01*
X85630476Y-1118095D01*
G04 #@! TO.C,R_LED_2_1*
X199917142Y-1832380D02*
X199583809Y-1356190D01*
X199345714Y-1832380D02*
X199345714Y-832380D01*
X199726666Y-832380D01*
X199821904Y-880000D01*
X199869523Y-927619D01*
X199917142Y-1022857D01*
X199917142Y-1165714D01*
X199869523Y-1260952D01*
X199821904Y-1308571D01*
X199726666Y-1356190D01*
X199345714Y-1356190D01*
X200107619Y-1927619D02*
X200869523Y-1927619D01*
X201583809Y-1832380D02*
X201107619Y-1832380D01*
X201107619Y-832380D01*
X201917142Y-1308571D02*
X202250476Y-1308571D01*
X202393333Y-1832380D02*
X201917142Y-1832380D01*
X201917142Y-832380D01*
X202393333Y-832380D01*
X202821904Y-1832380D02*
X202821904Y-832380D01*
X203060000Y-832380D01*
X203202857Y-880000D01*
X203298095Y-975238D01*
X203345714Y-1070476D01*
X203393333Y-1260952D01*
X203393333Y-1403809D01*
X203345714Y-1594285D01*
X203298095Y-1689523D01*
X203202857Y-1784761D01*
X203060000Y-1832380D01*
X202821904Y-1832380D01*
X203583809Y-1927619D02*
X204345714Y-1927619D01*
X204536190Y-927619D02*
X204583809Y-880000D01*
X204679047Y-832380D01*
X204917142Y-832380D01*
X205012380Y-880000D01*
X205060000Y-927619D01*
X205107619Y-1022857D01*
X205107619Y-1118095D01*
X205060000Y-1260952D01*
X204488571Y-1832380D01*
X205107619Y-1832380D01*
X205298095Y-1927619D02*
X206060000Y-1927619D01*
X206821904Y-1832380D02*
X206250476Y-1832380D01*
X206536190Y-1832380D02*
X206536190Y-832380D01*
X206440952Y-975238D01*
X206345714Y-1070476D01*
X206250476Y-1118095D01*
G04 #@! TO.C,R_LED_3_1*
X320417142Y-1832380D02*
X320083809Y-1356190D01*
X319845714Y-1832380D02*
X319845714Y-832380D01*
X320226666Y-832380D01*
X320321904Y-880000D01*
X320369523Y-927619D01*
X320417142Y-1022857D01*
X320417142Y-1165714D01*
X320369523Y-1260952D01*
X320321904Y-1308571D01*
X320226666Y-1356190D01*
X319845714Y-1356190D01*
X320607619Y-1927619D02*
X321369523Y-1927619D01*
X322083809Y-1832380D02*
X321607619Y-1832380D01*
X321607619Y-832380D01*
X322417142Y-1308571D02*
X322750476Y-1308571D01*
X322893333Y-1832380D02*
X322417142Y-1832380D01*
X322417142Y-832380D01*
X322893333Y-832380D01*
X323321904Y-1832380D02*
X323321904Y-832380D01*
X323560000Y-832380D01*
X323702857Y-880000D01*
X323798095Y-975238D01*
X323845714Y-1070476D01*
X323893333Y-1260952D01*
X323893333Y-1403809D01*
X323845714Y-1594285D01*
X323798095Y-1689523D01*
X323702857Y-1784761D01*
X323560000Y-1832380D01*
X323321904Y-1832380D01*
X324083809Y-1927619D02*
X324845714Y-1927619D01*
X324988571Y-832380D02*
X325607619Y-832380D01*
X325274285Y-1213333D01*
X325417142Y-1213333D01*
X325512380Y-1260952D01*
X325560000Y-1308571D01*
X325607619Y-1403809D01*
X325607619Y-1641904D01*
X325560000Y-1737142D01*
X325512380Y-1784761D01*
X325417142Y-1832380D01*
X325131428Y-1832380D01*
X325036190Y-1784761D01*
X324988571Y-1737142D01*
X325798095Y-1927619D02*
X326560000Y-1927619D01*
X327321904Y-1832380D02*
X326750476Y-1832380D01*
X327036190Y-1832380D02*
X327036190Y-832380D01*
X326940952Y-975238D01*
X326845714Y-1070476D01*
X326750476Y-1118095D01*
G04 #@! TO.C,R_LED_4_1*
X439167142Y-1832380D02*
X438833809Y-1356190D01*
X438595714Y-1832380D02*
X438595714Y-832380D01*
X438976666Y-832380D01*
X439071904Y-880000D01*
X439119523Y-927619D01*
X439167142Y-1022857D01*
X439167142Y-1165714D01*
X439119523Y-1260952D01*
X439071904Y-1308571D01*
X438976666Y-1356190D01*
X438595714Y-1356190D01*
X439357619Y-1927619D02*
X440119523Y-1927619D01*
X440833809Y-1832380D02*
X440357619Y-1832380D01*
X440357619Y-832380D01*
X441167142Y-1308571D02*
X441500476Y-1308571D01*
X441643333Y-1832380D02*
X441167142Y-1832380D01*
X441167142Y-832380D01*
X441643333Y-832380D01*
X442071904Y-1832380D02*
X442071904Y-832380D01*
X442310000Y-832380D01*
X442452857Y-880000D01*
X442548095Y-975238D01*
X442595714Y-1070476D01*
X442643333Y-1260952D01*
X442643333Y-1403809D01*
X442595714Y-1594285D01*
X442548095Y-1689523D01*
X442452857Y-1784761D01*
X442310000Y-1832380D01*
X442071904Y-1832380D01*
X442833809Y-1927619D02*
X443595714Y-1927619D01*
X444262380Y-1165714D02*
X444262380Y-1832380D01*
X444024285Y-784761D02*
X443786190Y-1499047D01*
X444405238Y-1499047D01*
X444548095Y-1927619D02*
X445310000Y-1927619D01*
X446071904Y-1832380D02*
X445500476Y-1832380D01*
X445786190Y-1832380D02*
X445786190Y-832380D01*
X445690952Y-975238D01*
X445595714Y-1070476D01*
X445500476Y-1118095D01*
G04 #@! TO.C,R_Split_1_1*
X78810000Y-8082380D02*
X78476666Y-7606190D01*
X78238571Y-8082380D02*
X78238571Y-7082380D01*
X78619523Y-7082380D01*
X78714761Y-7130000D01*
X78762380Y-7177619D01*
X78810000Y-7272857D01*
X78810000Y-7415714D01*
X78762380Y-7510952D01*
X78714761Y-7558571D01*
X78619523Y-7606190D01*
X78238571Y-7606190D01*
X79000476Y-8177619D02*
X79762380Y-8177619D01*
X79952857Y-8034761D02*
X80095714Y-8082380D01*
X80333809Y-8082380D01*
X80429047Y-8034761D01*
X80476666Y-7987142D01*
X80524285Y-7891904D01*
X80524285Y-7796666D01*
X80476666Y-7701428D01*
X80429047Y-7653809D01*
X80333809Y-7606190D01*
X80143333Y-7558571D01*
X80048095Y-7510952D01*
X80000476Y-7463333D01*
X79952857Y-7368095D01*
X79952857Y-7272857D01*
X80000476Y-7177619D01*
X80048095Y-7130000D01*
X80143333Y-7082380D01*
X80381428Y-7082380D01*
X80524285Y-7130000D01*
X80952857Y-7415714D02*
X80952857Y-8415714D01*
X80952857Y-7463333D02*
X81048095Y-7415714D01*
X81238571Y-7415714D01*
X81333809Y-7463333D01*
X81381428Y-7510952D01*
X81429047Y-7606190D01*
X81429047Y-7891904D01*
X81381428Y-7987142D01*
X81333809Y-8034761D01*
X81238571Y-8082380D01*
X81048095Y-8082380D01*
X80952857Y-8034761D01*
X82000476Y-8082380D02*
X81905238Y-8034761D01*
X81857619Y-7939523D01*
X81857619Y-7082380D01*
X82381428Y-8082380D02*
X82381428Y-7415714D01*
X82381428Y-7082380D02*
X82333809Y-7130000D01*
X82381428Y-7177619D01*
X82429047Y-7130000D01*
X82381428Y-7082380D01*
X82381428Y-7177619D01*
X82714761Y-7415714D02*
X83095714Y-7415714D01*
X82857619Y-7082380D02*
X82857619Y-7939523D01*
X82905238Y-8034761D01*
X83000476Y-8082380D01*
X83095714Y-8082380D01*
X83190952Y-8177619D02*
X83952857Y-8177619D01*
X84714761Y-8082380D02*
X84143333Y-8082380D01*
X84429047Y-8082380D02*
X84429047Y-7082380D01*
X84333809Y-7225238D01*
X84238571Y-7320476D01*
X84143333Y-7368095D01*
X84905238Y-8177619D02*
X85667142Y-8177619D01*
X86429047Y-8082380D02*
X85857619Y-8082380D01*
X86143333Y-8082380D02*
X86143333Y-7082380D01*
X86048095Y-7225238D01*
X85952857Y-7320476D01*
X85857619Y-7368095D01*
G04 #@! TO.C,R_Split_1_2*
X78810000Y-14332380D02*
X78476666Y-13856190D01*
X78238571Y-14332380D02*
X78238571Y-13332380D01*
X78619523Y-13332380D01*
X78714761Y-13380000D01*
X78762380Y-13427619D01*
X78810000Y-13522857D01*
X78810000Y-13665714D01*
X78762380Y-13760952D01*
X78714761Y-13808571D01*
X78619523Y-13856190D01*
X78238571Y-13856190D01*
X79000476Y-14427619D02*
X79762380Y-14427619D01*
X79952857Y-14284761D02*
X80095714Y-14332380D01*
X80333809Y-14332380D01*
X80429047Y-14284761D01*
X80476666Y-14237142D01*
X80524285Y-14141904D01*
X80524285Y-14046666D01*
X80476666Y-13951428D01*
X80429047Y-13903809D01*
X80333809Y-13856190D01*
X80143333Y-13808571D01*
X80048095Y-13760952D01*
X80000476Y-13713333D01*
X79952857Y-13618095D01*
X79952857Y-13522857D01*
X80000476Y-13427619D01*
X80048095Y-13380000D01*
X80143333Y-13332380D01*
X80381428Y-13332380D01*
X80524285Y-13380000D01*
X80952857Y-13665714D02*
X80952857Y-14665714D01*
X80952857Y-13713333D02*
X81048095Y-13665714D01*
X81238571Y-13665714D01*
X81333809Y-13713333D01*
X81381428Y-13760952D01*
X81429047Y-13856190D01*
X81429047Y-14141904D01*
X81381428Y-14237142D01*
X81333809Y-14284761D01*
X81238571Y-14332380D01*
X81048095Y-14332380D01*
X80952857Y-14284761D01*
X82000476Y-14332380D02*
X81905238Y-14284761D01*
X81857619Y-14189523D01*
X81857619Y-13332380D01*
X82381428Y-14332380D02*
X82381428Y-13665714D01*
X82381428Y-13332380D02*
X82333809Y-13380000D01*
X82381428Y-13427619D01*
X82429047Y-13380000D01*
X82381428Y-13332380D01*
X82381428Y-13427619D01*
X82714761Y-13665714D02*
X83095714Y-13665714D01*
X82857619Y-13332380D02*
X82857619Y-14189523D01*
X82905238Y-14284761D01*
X83000476Y-14332380D01*
X83095714Y-14332380D01*
X83190952Y-14427619D02*
X83952857Y-14427619D01*
X84714761Y-14332380D02*
X84143333Y-14332380D01*
X84429047Y-14332380D02*
X84429047Y-13332380D01*
X84333809Y-13475238D01*
X84238571Y-13570476D01*
X84143333Y-13618095D01*
X84905238Y-14427619D02*
X85667142Y-14427619D01*
X85857619Y-13427619D02*
X85905238Y-13380000D01*
X86000476Y-13332380D01*
X86238571Y-13332380D01*
X86333809Y-13380000D01*
X86381428Y-13427619D01*
X86429047Y-13522857D01*
X86429047Y-13618095D01*
X86381428Y-13760952D01*
X85810000Y-14332380D01*
X86429047Y-14332380D01*
G04 #@! TO.C,R_Split_2_1*
X199560000Y-8082380D02*
X199226666Y-7606190D01*
X198988571Y-8082380D02*
X198988571Y-7082380D01*
X199369523Y-7082380D01*
X199464761Y-7130000D01*
X199512380Y-7177619D01*
X199560000Y-7272857D01*
X199560000Y-7415714D01*
X199512380Y-7510952D01*
X199464761Y-7558571D01*
X199369523Y-7606190D01*
X198988571Y-7606190D01*
X199750476Y-8177619D02*
X200512380Y-8177619D01*
X200702857Y-8034761D02*
X200845714Y-8082380D01*
X201083809Y-8082380D01*
X201179047Y-8034761D01*
X201226666Y-7987142D01*
X201274285Y-7891904D01*
X201274285Y-7796666D01*
X201226666Y-7701428D01*
X201179047Y-7653809D01*
X201083809Y-7606190D01*
X200893333Y-7558571D01*
X200798095Y-7510952D01*
X200750476Y-7463333D01*
X200702857Y-7368095D01*
X200702857Y-7272857D01*
X200750476Y-7177619D01*
X200798095Y-7130000D01*
X200893333Y-7082380D01*
X201131428Y-7082380D01*
X201274285Y-7130000D01*
X201702857Y-7415714D02*
X201702857Y-8415714D01*
X201702857Y-7463333D02*
X201798095Y-7415714D01*
X201988571Y-7415714D01*
X202083809Y-7463333D01*
X202131428Y-7510952D01*
X202179047Y-7606190D01*
X202179047Y-7891904D01*
X202131428Y-7987142D01*
X202083809Y-8034761D01*
X201988571Y-8082380D01*
X201798095Y-8082380D01*
X201702857Y-8034761D01*
X202750476Y-8082380D02*
X202655238Y-8034761D01*
X202607619Y-7939523D01*
X202607619Y-7082380D01*
X203131428Y-8082380D02*
X203131428Y-7415714D01*
X203131428Y-7082380D02*
X203083809Y-7130000D01*
X203131428Y-7177619D01*
X203179047Y-7130000D01*
X203131428Y-7082380D01*
X203131428Y-7177619D01*
X203464761Y-7415714D02*
X203845714Y-7415714D01*
X203607619Y-7082380D02*
X203607619Y-7939523D01*
X203655238Y-8034761D01*
X203750476Y-8082380D01*
X203845714Y-8082380D01*
X203940952Y-8177619D02*
X204702857Y-8177619D01*
X204893333Y-7177619D02*
X204940952Y-7130000D01*
X205036190Y-7082380D01*
X205274285Y-7082380D01*
X205369523Y-7130000D01*
X205417142Y-7177619D01*
X205464761Y-7272857D01*
X205464761Y-7368095D01*
X205417142Y-7510952D01*
X204845714Y-8082380D01*
X205464761Y-8082380D01*
X205655238Y-8177619D02*
X206417142Y-8177619D01*
X207179047Y-8082380D02*
X206607619Y-8082380D01*
X206893333Y-8082380D02*
X206893333Y-7082380D01*
X206798095Y-7225238D01*
X206702857Y-7320476D01*
X206607619Y-7368095D01*
G04 #@! TO.C,R_Split_2_2*
X199560000Y-14332380D02*
X199226666Y-13856190D01*
X198988571Y-14332380D02*
X198988571Y-13332380D01*
X199369523Y-13332380D01*
X199464761Y-13380000D01*
X199512380Y-13427619D01*
X199560000Y-13522857D01*
X199560000Y-13665714D01*
X199512380Y-13760952D01*
X199464761Y-13808571D01*
X199369523Y-13856190D01*
X198988571Y-13856190D01*
X199750476Y-14427619D02*
X200512380Y-14427619D01*
X200702857Y-14284761D02*
X200845714Y-14332380D01*
X201083809Y-14332380D01*
X201179047Y-14284761D01*
X201226666Y-14237142D01*
X201274285Y-14141904D01*
X201274285Y-14046666D01*
X201226666Y-13951428D01*
X201179047Y-13903809D01*
X201083809Y-13856190D01*
X200893333Y-13808571D01*
X200798095Y-13760952D01*
X200750476Y-13713333D01*
X200702857Y-13618095D01*
X200702857Y-13522857D01*
X200750476Y-13427619D01*
X200798095Y-13380000D01*
X200893333Y-13332380D01*
X201131428Y-13332380D01*
X201274285Y-13380000D01*
X201702857Y-13665714D02*
X201702857Y-14665714D01*
X201702857Y-13713333D02*
X201798095Y-13665714D01*
X201988571Y-13665714D01*
X202083809Y-13713333D01*
X202131428Y-13760952D01*
X202179047Y-13856190D01*
X202179047Y-14141904D01*
X202131428Y-14237142D01*
X202083809Y-14284761D01*
X201988571Y-14332380D01*
X201798095Y-14332380D01*
X201702857Y-14284761D01*
X202750476Y-14332380D02*
X202655238Y-14284761D01*
X202607619Y-14189523D01*
X202607619Y-13332380D01*
X203131428Y-14332380D02*
X203131428Y-13665714D01*
X203131428Y-13332380D02*
X203083809Y-13380000D01*
X203131428Y-13427619D01*
X203179047Y-13380000D01*
X203131428Y-13332380D01*
X203131428Y-13427619D01*
X203464761Y-13665714D02*
X203845714Y-13665714D01*
X203607619Y-13332380D02*
X203607619Y-14189523D01*
X203655238Y-14284761D01*
X203750476Y-14332380D01*
X203845714Y-14332380D01*
X203940952Y-14427619D02*
X204702857Y-14427619D01*
X204893333Y-13427619D02*
X204940952Y-13380000D01*
X205036190Y-13332380D01*
X205274285Y-13332380D01*
X205369523Y-13380000D01*
X205417142Y-13427619D01*
X205464761Y-13522857D01*
X205464761Y-13618095D01*
X205417142Y-13760952D01*
X204845714Y-14332380D01*
X205464761Y-14332380D01*
X205655238Y-14427619D02*
X206417142Y-14427619D01*
X206607619Y-13427619D02*
X206655238Y-13380000D01*
X206750476Y-13332380D01*
X206988571Y-13332380D01*
X207083809Y-13380000D01*
X207131428Y-13427619D01*
X207179047Y-13522857D01*
X207179047Y-13618095D01*
X207131428Y-13760952D01*
X206560000Y-14332380D01*
X207179047Y-14332380D01*
G04 #@! TO.C,R_Split_3_1*
X320060000Y-8082380D02*
X319726666Y-7606190D01*
X319488571Y-8082380D02*
X319488571Y-7082380D01*
X319869523Y-7082380D01*
X319964761Y-7130000D01*
X320012380Y-7177619D01*
X320060000Y-7272857D01*
X320060000Y-7415714D01*
X320012380Y-7510952D01*
X319964761Y-7558571D01*
X319869523Y-7606190D01*
X319488571Y-7606190D01*
X320250476Y-8177619D02*
X321012380Y-8177619D01*
X321202857Y-8034761D02*
X321345714Y-8082380D01*
X321583809Y-8082380D01*
X321679047Y-8034761D01*
X321726666Y-7987142D01*
X321774285Y-7891904D01*
X321774285Y-7796666D01*
X321726666Y-7701428D01*
X321679047Y-7653809D01*
X321583809Y-7606190D01*
X321393333Y-7558571D01*
X321298095Y-7510952D01*
X321250476Y-7463333D01*
X321202857Y-7368095D01*
X321202857Y-7272857D01*
X321250476Y-7177619D01*
X321298095Y-7130000D01*
X321393333Y-7082380D01*
X321631428Y-7082380D01*
X321774285Y-7130000D01*
X322202857Y-7415714D02*
X322202857Y-8415714D01*
X322202857Y-7463333D02*
X322298095Y-7415714D01*
X322488571Y-7415714D01*
X322583809Y-7463333D01*
X322631428Y-7510952D01*
X322679047Y-7606190D01*
X322679047Y-7891904D01*
X322631428Y-7987142D01*
X322583809Y-8034761D01*
X322488571Y-8082380D01*
X322298095Y-8082380D01*
X322202857Y-8034761D01*
X323250476Y-8082380D02*
X323155238Y-8034761D01*
X323107619Y-7939523D01*
X323107619Y-7082380D01*
X323631428Y-8082380D02*
X323631428Y-7415714D01*
X323631428Y-7082380D02*
X323583809Y-7130000D01*
X323631428Y-7177619D01*
X323679047Y-7130000D01*
X323631428Y-7082380D01*
X323631428Y-7177619D01*
X323964761Y-7415714D02*
X324345714Y-7415714D01*
X324107619Y-7082380D02*
X324107619Y-7939523D01*
X324155238Y-8034761D01*
X324250476Y-8082380D01*
X324345714Y-8082380D01*
X324440952Y-8177619D02*
X325202857Y-8177619D01*
X325345714Y-7082380D02*
X325964761Y-7082380D01*
X325631428Y-7463333D01*
X325774285Y-7463333D01*
X325869523Y-7510952D01*
X325917142Y-7558571D01*
X325964761Y-7653809D01*
X325964761Y-7891904D01*
X325917142Y-7987142D01*
X325869523Y-8034761D01*
X325774285Y-8082380D01*
X325488571Y-8082380D01*
X325393333Y-8034761D01*
X325345714Y-7987142D01*
X326155238Y-8177619D02*
X326917142Y-8177619D01*
X327679047Y-8082380D02*
X327107619Y-8082380D01*
X327393333Y-8082380D02*
X327393333Y-7082380D01*
X327298095Y-7225238D01*
X327202857Y-7320476D01*
X327107619Y-7368095D01*
G04 #@! TO.C,R_Split_3_2*
X320060000Y-14332380D02*
X319726666Y-13856190D01*
X319488571Y-14332380D02*
X319488571Y-13332380D01*
X319869523Y-13332380D01*
X319964761Y-13380000D01*
X320012380Y-13427619D01*
X320060000Y-13522857D01*
X320060000Y-13665714D01*
X320012380Y-13760952D01*
X319964761Y-13808571D01*
X319869523Y-13856190D01*
X319488571Y-13856190D01*
X320250476Y-14427619D02*
X321012380Y-14427619D01*
X321202857Y-14284761D02*
X321345714Y-14332380D01*
X321583809Y-14332380D01*
X321679047Y-14284761D01*
X321726666Y-14237142D01*
X321774285Y-14141904D01*
X321774285Y-14046666D01*
X321726666Y-13951428D01*
X321679047Y-13903809D01*
X321583809Y-13856190D01*
X321393333Y-13808571D01*
X321298095Y-13760952D01*
X321250476Y-13713333D01*
X321202857Y-13618095D01*
X321202857Y-13522857D01*
X321250476Y-13427619D01*
X321298095Y-13380000D01*
X321393333Y-13332380D01*
X321631428Y-13332380D01*
X321774285Y-13380000D01*
X322202857Y-13665714D02*
X322202857Y-14665714D01*
X322202857Y-13713333D02*
X322298095Y-13665714D01*
X322488571Y-13665714D01*
X322583809Y-13713333D01*
X322631428Y-13760952D01*
X322679047Y-13856190D01*
X322679047Y-14141904D01*
X322631428Y-14237142D01*
X322583809Y-14284761D01*
X322488571Y-14332380D01*
X322298095Y-14332380D01*
X322202857Y-14284761D01*
X323250476Y-14332380D02*
X323155238Y-14284761D01*
X323107619Y-14189523D01*
X323107619Y-13332380D01*
X323631428Y-14332380D02*
X323631428Y-13665714D01*
X323631428Y-13332380D02*
X323583809Y-13380000D01*
X323631428Y-13427619D01*
X323679047Y-13380000D01*
X323631428Y-13332380D01*
X323631428Y-13427619D01*
X323964761Y-13665714D02*
X324345714Y-13665714D01*
X324107619Y-13332380D02*
X324107619Y-14189523D01*
X324155238Y-14284761D01*
X324250476Y-14332380D01*
X324345714Y-14332380D01*
X324440952Y-14427619D02*
X325202857Y-14427619D01*
X325345714Y-13332380D02*
X325964761Y-13332380D01*
X325631428Y-13713333D01*
X325774285Y-13713333D01*
X325869523Y-13760952D01*
X325917142Y-13808571D01*
X325964761Y-13903809D01*
X325964761Y-14141904D01*
X325917142Y-14237142D01*
X325869523Y-14284761D01*
X325774285Y-14332380D01*
X325488571Y-14332380D01*
X325393333Y-14284761D01*
X325345714Y-14237142D01*
X326155238Y-14427619D02*
X326917142Y-14427619D01*
X327107619Y-13427619D02*
X327155238Y-13380000D01*
X327250476Y-13332380D01*
X327488571Y-13332380D01*
X327583809Y-13380000D01*
X327631428Y-13427619D01*
X327679047Y-13522857D01*
X327679047Y-13618095D01*
X327631428Y-13760952D01*
X327060000Y-14332380D01*
X327679047Y-14332380D01*
G04 #@! TO.C,R_Split_4_1*
X438810000Y-8082380D02*
X438476666Y-7606190D01*
X438238571Y-8082380D02*
X438238571Y-7082380D01*
X438619523Y-7082380D01*
X438714761Y-7130000D01*
X438762380Y-7177619D01*
X438810000Y-7272857D01*
X438810000Y-7415714D01*
X438762380Y-7510952D01*
X438714761Y-7558571D01*
X438619523Y-7606190D01*
X438238571Y-7606190D01*
X439000476Y-8177619D02*
X439762380Y-8177619D01*
X439952857Y-8034761D02*
X440095714Y-8082380D01*
X440333809Y-8082380D01*
X440429047Y-8034761D01*
X440476666Y-7987142D01*
X440524285Y-7891904D01*
X440524285Y-7796666D01*
X440476666Y-7701428D01*
X440429047Y-7653809D01*
X440333809Y-7606190D01*
X440143333Y-7558571D01*
X440048095Y-7510952D01*
X440000476Y-7463333D01*
X439952857Y-7368095D01*
X439952857Y-7272857D01*
X440000476Y-7177619D01*
X440048095Y-7130000D01*
X440143333Y-7082380D01*
X440381428Y-7082380D01*
X440524285Y-7130000D01*
X440952857Y-7415714D02*
X440952857Y-8415714D01*
X440952857Y-7463333D02*
X441048095Y-7415714D01*
X441238571Y-7415714D01*
X441333809Y-7463333D01*
X441381428Y-7510952D01*
X441429047Y-7606190D01*
X441429047Y-7891904D01*
X441381428Y-7987142D01*
X441333809Y-8034761D01*
X441238571Y-8082380D01*
X441048095Y-8082380D01*
X440952857Y-8034761D01*
X442000476Y-8082380D02*
X441905238Y-8034761D01*
X441857619Y-7939523D01*
X441857619Y-7082380D01*
X442381428Y-8082380D02*
X442381428Y-7415714D01*
X442381428Y-7082380D02*
X442333809Y-7130000D01*
X442381428Y-7177619D01*
X442429047Y-7130000D01*
X442381428Y-7082380D01*
X442381428Y-7177619D01*
X442714761Y-7415714D02*
X443095714Y-7415714D01*
X442857619Y-7082380D02*
X442857619Y-7939523D01*
X442905238Y-8034761D01*
X443000476Y-8082380D01*
X443095714Y-8082380D01*
X443190952Y-8177619D02*
X443952857Y-8177619D01*
X444619523Y-7415714D02*
X444619523Y-8082380D01*
X444381428Y-7034761D02*
X444143333Y-7749047D01*
X444762380Y-7749047D01*
X444905238Y-8177619D02*
X445667142Y-8177619D01*
X446429047Y-8082380D02*
X445857619Y-8082380D01*
X446143333Y-8082380D02*
X446143333Y-7082380D01*
X446048095Y-7225238D01*
X445952857Y-7320476D01*
X445857619Y-7368095D01*
G04 #@! TO.C,R_Split_4_2*
X438810000Y-14332380D02*
X438476666Y-13856190D01*
X438238571Y-14332380D02*
X438238571Y-13332380D01*
X438619523Y-13332380D01*
X438714761Y-13380000D01*
X438762380Y-13427619D01*
X438810000Y-13522857D01*
X438810000Y-13665714D01*
X438762380Y-13760952D01*
X438714761Y-13808571D01*
X438619523Y-13856190D01*
X438238571Y-13856190D01*
X439000476Y-14427619D02*
X439762380Y-14427619D01*
X439952857Y-14284761D02*
X440095714Y-14332380D01*
X440333809Y-14332380D01*
X440429047Y-14284761D01*
X440476666Y-14237142D01*
X440524285Y-14141904D01*
X440524285Y-14046666D01*
X440476666Y-13951428D01*
X440429047Y-13903809D01*
X440333809Y-13856190D01*
X440143333Y-13808571D01*
X440048095Y-13760952D01*
X440000476Y-13713333D01*
X439952857Y-13618095D01*
X439952857Y-13522857D01*
X440000476Y-13427619D01*
X440048095Y-13380000D01*
X440143333Y-13332380D01*
X440381428Y-13332380D01*
X440524285Y-13380000D01*
X440952857Y-13665714D02*
X440952857Y-14665714D01*
X440952857Y-13713333D02*
X441048095Y-13665714D01*
X441238571Y-13665714D01*
X441333809Y-13713333D01*
X441381428Y-13760952D01*
X441429047Y-13856190D01*
X441429047Y-14141904D01*
X441381428Y-14237142D01*
X441333809Y-14284761D01*
X441238571Y-14332380D01*
X441048095Y-14332380D01*
X440952857Y-14284761D01*
X442000476Y-14332380D02*
X441905238Y-14284761D01*
X441857619Y-14189523D01*
X441857619Y-13332380D01*
X442381428Y-14332380D02*
X442381428Y-13665714D01*
X442381428Y-13332380D02*
X442333809Y-13380000D01*
X442381428Y-13427619D01*
X442429047Y-13380000D01*
X442381428Y-13332380D01*
X442381428Y-13427619D01*
X442714761Y-13665714D02*
X443095714Y-13665714D01*
X442857619Y-13332380D02*
X442857619Y-14189523D01*
X442905238Y-14284761D01*
X443000476Y-14332380D01*
X443095714Y-14332380D01*
X443190952Y-14427619D02*
X443952857Y-14427619D01*
X444619523Y-13665714D02*
X444619523Y-14332380D01*
X444381428Y-13284761D02*
X444143333Y-13999047D01*
X444762380Y-13999047D01*
X444905238Y-14427619D02*
X445667142Y-14427619D01*
X445857619Y-13427619D02*
X445905238Y-13380000D01*
X446000476Y-13332380D01*
X446238571Y-13332380D01*
X446333809Y-13380000D01*
X446381428Y-13427619D01*
X446429047Y-13522857D01*
X446429047Y-13618095D01*
X446381428Y-13760952D01*
X445810000Y-14332380D01*
X446429047Y-14332380D01*
G04 #@! TO.C,U1*
X521152380Y-10821904D02*
X521961904Y-10821904D01*
X522057142Y-10774285D01*
X522104761Y-10726666D01*
X522152380Y-10631428D01*
X522152380Y-10440952D01*
X522104761Y-10345714D01*
X522057142Y-10298095D01*
X521961904Y-10250476D01*
X521152380Y-10250476D01*
X522152380Y-9250476D02*
X522152380Y-9821904D01*
X522152380Y-9536190D02*
X521152380Y-9536190D01*
X521295238Y-9631428D01*
X521390476Y-9726666D01*
X521438095Y-9821904D01*
G04 #@! TO.C,U2*
D16*
X42676019Y-8792895D02*
X43498495Y-8792895D01*
X43595257Y-8744514D01*
X43643638Y-8696133D01*
X43692019Y-8599371D01*
X43692019Y-8405847D01*
X43643638Y-8309085D01*
X43595257Y-8260704D01*
X43498495Y-8212323D01*
X42676019Y-8212323D01*
X42772780Y-7776895D02*
X42724400Y-7728514D01*
X42676019Y-7631752D01*
X42676019Y-7389847D01*
X42724400Y-7293085D01*
X42772780Y-7244704D01*
X42869542Y-7196323D01*
X42966304Y-7196323D01*
X43111447Y-7244704D01*
X43692019Y-7825276D01*
X43692019Y-7196323D01*
G04 #@! TO.C,U3*
X162676019Y-8792895D02*
X163498495Y-8792895D01*
X163595257Y-8744514D01*
X163643638Y-8696133D01*
X163692019Y-8599371D01*
X163692019Y-8405847D01*
X163643638Y-8309085D01*
X163595257Y-8260704D01*
X163498495Y-8212323D01*
X162676019Y-8212323D01*
X162676019Y-7825276D02*
X162676019Y-7196323D01*
X163063066Y-7534990D01*
X163063066Y-7389847D01*
X163111447Y-7293085D01*
X163159828Y-7244704D01*
X163256590Y-7196323D01*
X163498495Y-7196323D01*
X163595257Y-7244704D01*
X163643638Y-7293085D01*
X163692019Y-7389847D01*
X163692019Y-7680133D01*
X163643638Y-7776895D01*
X163595257Y-7825276D01*
G04 #@! TO.C,U4*
X272211219Y-12755295D02*
X273033695Y-12755295D01*
X273130457Y-12706914D01*
X273178838Y-12658533D01*
X273227219Y-12561771D01*
X273227219Y-12368247D01*
X273178838Y-12271485D01*
X273130457Y-12223104D01*
X273033695Y-12174723D01*
X272211219Y-12174723D01*
X272549885Y-11255485D02*
X273227219Y-11255485D01*
X272162838Y-11497390D02*
X272888552Y-11739295D01*
X272888552Y-11110342D01*
G04 #@! TO.C,U5*
X392211219Y-12755295D02*
X393033695Y-12755295D01*
X393130457Y-12706914D01*
X393178838Y-12658533D01*
X393227219Y-12561771D01*
X393227219Y-12368247D01*
X393178838Y-12271485D01*
X393130457Y-12223104D01*
X393033695Y-12174723D01*
X392211219Y-12174723D01*
X392211219Y-11207104D02*
X392211219Y-11690914D01*
X392695028Y-11739295D01*
X392646647Y-11690914D01*
X392598266Y-11594152D01*
X392598266Y-11352247D01*
X392646647Y-11255485D01*
X392695028Y-11207104D01*
X392791790Y-11158723D01*
X393033695Y-11158723D01*
X393130457Y-11207104D01*
X393178838Y-11255485D01*
X393227219Y-11352247D01*
X393227219Y-11594152D01*
X393178838Y-11690914D01*
X393130457Y-11739295D01*
G04 #@! TO.C,U6*
X72676019Y-8792895D02*
X73498495Y-8792895D01*
X73595257Y-8744514D01*
X73643638Y-8696133D01*
X73692019Y-8599371D01*
X73692019Y-8405847D01*
X73643638Y-8309085D01*
X73595257Y-8260704D01*
X73498495Y-8212323D01*
X72676019Y-8212323D01*
X72676019Y-7293085D02*
X72676019Y-7486609D01*
X72724400Y-7583371D01*
X72772780Y-7631752D01*
X72917923Y-7728514D01*
X73111447Y-7776895D01*
X73498495Y-7776895D01*
X73595257Y-7728514D01*
X73643638Y-7680133D01*
X73692019Y-7583371D01*
X73692019Y-7389847D01*
X73643638Y-7293085D01*
X73595257Y-7244704D01*
X73498495Y-7196323D01*
X73256590Y-7196323D01*
X73159828Y-7244704D01*
X73111447Y-7293085D01*
X73063066Y-7389847D01*
X73063066Y-7583371D01*
X73111447Y-7680133D01*
X73159828Y-7728514D01*
X73256590Y-7776895D01*
G04 #@! TO.C,U7*
X192676019Y-8792895D02*
X193498495Y-8792895D01*
X193595257Y-8744514D01*
X193643638Y-8696133D01*
X193692019Y-8599371D01*
X193692019Y-8405847D01*
X193643638Y-8309085D01*
X193595257Y-8260704D01*
X193498495Y-8212323D01*
X192676019Y-8212323D01*
X192676019Y-7825276D02*
X192676019Y-7147942D01*
X193692019Y-7583371D01*
G04 #@! TO.C,U8*
X302211219Y-12755295D02*
X303033695Y-12755295D01*
X303130457Y-12706914D01*
X303178838Y-12658533D01*
X303227219Y-12561771D01*
X303227219Y-12368247D01*
X303178838Y-12271485D01*
X303130457Y-12223104D01*
X303033695Y-12174723D01*
X302211219Y-12174723D01*
X302646647Y-11545771D02*
X302598266Y-11642533D01*
X302549885Y-11690914D01*
X302453123Y-11739295D01*
X302404742Y-11739295D01*
X302307980Y-11690914D01*
X302259600Y-11642533D01*
X302211219Y-11545771D01*
X302211219Y-11352247D01*
X302259600Y-11255485D01*
X302307980Y-11207104D01*
X302404742Y-11158723D01*
X302453123Y-11158723D01*
X302549885Y-11207104D01*
X302598266Y-11255485D01*
X302646647Y-11352247D01*
X302646647Y-11545771D01*
X302695028Y-11642533D01*
X302743409Y-11690914D01*
X302840171Y-11739295D01*
X303033695Y-11739295D01*
X303130457Y-11690914D01*
X303178838Y-11642533D01*
X303227219Y-11545771D01*
X303227219Y-11352247D01*
X303178838Y-11255485D01*
X303130457Y-11207104D01*
X303033695Y-11158723D01*
X302840171Y-11158723D01*
X302743409Y-11207104D01*
X302695028Y-11255485D01*
X302646647Y-11352247D01*
G04 #@! TO.C,U9*
X422211219Y-12755295D02*
X423033695Y-12755295D01*
X423130457Y-12706914D01*
X423178838Y-12658533D01*
X423227219Y-12561771D01*
X423227219Y-12368247D01*
X423178838Y-12271485D01*
X423130457Y-12223104D01*
X423033695Y-12174723D01*
X422211219Y-12174723D01*
X423227219Y-11642533D02*
X423227219Y-11449009D01*
X423178838Y-11352247D01*
X423130457Y-11303866D01*
X422985314Y-11207104D01*
X422791790Y-11158723D01*
X422404742Y-11158723D01*
X422307980Y-11207104D01*
X422259600Y-11255485D01*
X422211219Y-11352247D01*
X422211219Y-11545771D01*
X422259600Y-11642533D01*
X422307980Y-11690914D01*
X422404742Y-11739295D01*
X422646647Y-11739295D01*
X422743409Y-11690914D01*
X422791790Y-11642533D01*
X422840171Y-11545771D01*
X422840171Y-11352247D01*
X422791790Y-11255485D01*
X422743409Y-11207104D01*
X422646647Y-11158723D01*
G04 #@! TO.C,U10*
X102676019Y-9276704D02*
X103498495Y-9276704D01*
X103595257Y-9228323D01*
X103643638Y-9179942D01*
X103692019Y-9083180D01*
X103692019Y-8889657D01*
X103643638Y-8792895D01*
X103595257Y-8744514D01*
X103498495Y-8696133D01*
X102676019Y-8696133D01*
X103692019Y-7680133D02*
X103692019Y-8260704D01*
X103692019Y-7970419D02*
X102676019Y-7970419D01*
X102821161Y-8067180D01*
X102917923Y-8163942D01*
X102966304Y-8260704D01*
X102676019Y-7051180D02*
X102676019Y-6954419D01*
X102724400Y-6857657D01*
X102772780Y-6809276D01*
X102869542Y-6760895D01*
X103063066Y-6712514D01*
X103304971Y-6712514D01*
X103498495Y-6760895D01*
X103595257Y-6809276D01*
X103643638Y-6857657D01*
X103692019Y-6954419D01*
X103692019Y-7051180D01*
X103643638Y-7147942D01*
X103595257Y-7196323D01*
X103498495Y-7244704D01*
X103304971Y-7293085D01*
X103063066Y-7293085D01*
X102869542Y-7244704D01*
X102772780Y-7196323D01*
X102724400Y-7147942D01*
X102676019Y-7051180D01*
G04 #@! TO.C,U11*
X222676019Y-9276704D02*
X223498495Y-9276704D01*
X223595257Y-9228323D01*
X223643638Y-9179942D01*
X223692019Y-9083180D01*
X223692019Y-8889657D01*
X223643638Y-8792895D01*
X223595257Y-8744514D01*
X223498495Y-8696133D01*
X222676019Y-8696133D01*
X223692019Y-7680133D02*
X223692019Y-8260704D01*
X223692019Y-7970419D02*
X222676019Y-7970419D01*
X222821161Y-8067180D01*
X222917923Y-8163942D01*
X222966304Y-8260704D01*
X223692019Y-6712514D02*
X223692019Y-7293085D01*
X223692019Y-7002800D02*
X222676019Y-7002800D01*
X222821161Y-7099561D01*
X222917923Y-7196323D01*
X222966304Y-7293085D01*
G04 #@! TO.C,U12*
X332211219Y-13239104D02*
X333033695Y-13239104D01*
X333130457Y-13190723D01*
X333178838Y-13142342D01*
X333227219Y-13045580D01*
X333227219Y-12852057D01*
X333178838Y-12755295D01*
X333130457Y-12706914D01*
X333033695Y-12658533D01*
X332211219Y-12658533D01*
X333227219Y-11642533D02*
X333227219Y-12223104D01*
X333227219Y-11932819D02*
X332211219Y-11932819D01*
X332356361Y-12029580D01*
X332453123Y-12126342D01*
X332501504Y-12223104D01*
X332307980Y-11255485D02*
X332259600Y-11207104D01*
X332211219Y-11110342D01*
X332211219Y-10868438D01*
X332259600Y-10771676D01*
X332307980Y-10723295D01*
X332404742Y-10674914D01*
X332501504Y-10674914D01*
X332646647Y-10723295D01*
X333227219Y-11303866D01*
X333227219Y-10674914D01*
G04 #@! TO.C,U13*
X452211219Y-13239104D02*
X453033695Y-13239104D01*
X453130457Y-13190723D01*
X453178838Y-13142342D01*
X453227219Y-13045580D01*
X453227219Y-12852057D01*
X453178838Y-12755295D01*
X453130457Y-12706914D01*
X453033695Y-12658533D01*
X452211219Y-12658533D01*
X453227219Y-11642533D02*
X453227219Y-12223104D01*
X453227219Y-11932819D02*
X452211219Y-11932819D01*
X452356361Y-12029580D01*
X452453123Y-12126342D01*
X452501504Y-12223104D01*
X452211219Y-11303866D02*
X452211219Y-10674914D01*
X452598266Y-11013580D01*
X452598266Y-10868438D01*
X452646647Y-10771676D01*
X452695028Y-10723295D01*
X452791790Y-10674914D01*
X453033695Y-10674914D01*
X453130457Y-10723295D01*
X453178838Y-10771676D01*
X453227219Y-10868438D01*
X453227219Y-11158723D01*
X453178838Y-11255485D01*
X453130457Y-11303866D01*
G04 #@! TO.C,U14*
X132676019Y-9276704D02*
X133498495Y-9276704D01*
X133595257Y-9228323D01*
X133643638Y-9179942D01*
X133692019Y-9083180D01*
X133692019Y-8889657D01*
X133643638Y-8792895D01*
X133595257Y-8744514D01*
X133498495Y-8696133D01*
X132676019Y-8696133D01*
X133692019Y-7680133D02*
X133692019Y-8260704D01*
X133692019Y-7970419D02*
X132676019Y-7970419D01*
X132821161Y-8067180D01*
X132917923Y-8163942D01*
X132966304Y-8260704D01*
X133014685Y-6809276D02*
X133692019Y-6809276D01*
X132627638Y-7051180D02*
X133353352Y-7293085D01*
X133353352Y-6664133D01*
G04 #@! TO.C,U15*
X252676019Y-9276704D02*
X253498495Y-9276704D01*
X253595257Y-9228323D01*
X253643638Y-9179942D01*
X253692019Y-9083180D01*
X253692019Y-8889657D01*
X253643638Y-8792895D01*
X253595257Y-8744514D01*
X253498495Y-8696133D01*
X252676019Y-8696133D01*
X253692019Y-7680133D02*
X253692019Y-8260704D01*
X253692019Y-7970419D02*
X252676019Y-7970419D01*
X252821161Y-8067180D01*
X252917923Y-8163942D01*
X252966304Y-8260704D01*
X252676019Y-6760895D02*
X252676019Y-7244704D01*
X253159828Y-7293085D01*
X253111447Y-7244704D01*
X253063066Y-7147942D01*
X253063066Y-6906038D01*
X253111447Y-6809276D01*
X253159828Y-6760895D01*
X253256590Y-6712514D01*
X253498495Y-6712514D01*
X253595257Y-6760895D01*
X253643638Y-6809276D01*
X253692019Y-6906038D01*
X253692019Y-7147942D01*
X253643638Y-7244704D01*
X253595257Y-7293085D01*
G04 #@! TO.C,U16*
X362211219Y-13239104D02*
X363033695Y-13239104D01*
X363130457Y-13190723D01*
X363178838Y-13142342D01*
X363227219Y-13045580D01*
X363227219Y-12852057D01*
X363178838Y-12755295D01*
X363130457Y-12706914D01*
X363033695Y-12658533D01*
X362211219Y-12658533D01*
X363227219Y-11642533D02*
X363227219Y-12223104D01*
X363227219Y-11932819D02*
X362211219Y-11932819D01*
X362356361Y-12029580D01*
X362453123Y-12126342D01*
X362501504Y-12223104D01*
X362211219Y-10771676D02*
X362211219Y-10965200D01*
X362259600Y-11061961D01*
X362307980Y-11110342D01*
X362453123Y-11207104D01*
X362646647Y-11255485D01*
X363033695Y-11255485D01*
X363130457Y-11207104D01*
X363178838Y-11158723D01*
X363227219Y-11061961D01*
X363227219Y-10868438D01*
X363178838Y-10771676D01*
X363130457Y-10723295D01*
X363033695Y-10674914D01*
X362791790Y-10674914D01*
X362695028Y-10723295D01*
X362646647Y-10771676D01*
X362598266Y-10868438D01*
X362598266Y-11061961D01*
X362646647Y-11158723D01*
X362695028Y-11207104D01*
X362791790Y-11255485D01*
G04 #@! TO.C,U17*
X482211219Y-13239104D02*
X483033695Y-13239104D01*
X483130457Y-13190723D01*
X483178838Y-13142342D01*
X483227219Y-13045580D01*
X483227219Y-12852057D01*
X483178838Y-12755295D01*
X483130457Y-12706914D01*
X483033695Y-12658533D01*
X482211219Y-12658533D01*
X483227219Y-11642533D02*
X483227219Y-12223104D01*
X483227219Y-11932819D02*
X482211219Y-11932819D01*
X482356361Y-12029580D01*
X482453123Y-12126342D01*
X482501504Y-12223104D01*
X482211219Y-11303866D02*
X482211219Y-10626533D01*
X483227219Y-11061961D01*
G04 #@! TO.C,R_FUSE_1*
D15*
X3250476Y-5072380D02*
X2917142Y-4596190D01*
X2679047Y-5072380D02*
X2679047Y-4072380D01*
X3060000Y-4072380D01*
X3155238Y-4120000D01*
X3202857Y-4167619D01*
X3250476Y-4262857D01*
X3250476Y-4405714D01*
X3202857Y-4500952D01*
X3155238Y-4548571D01*
X3060000Y-4596190D01*
X2679047Y-4596190D01*
X3440952Y-5167619D02*
X4202857Y-5167619D01*
X4774285Y-4548571D02*
X4440952Y-4548571D01*
X4440952Y-5072380D02*
X4440952Y-4072380D01*
X4917142Y-4072380D01*
X5298095Y-4072380D02*
X5298095Y-4881904D01*
X5345714Y-4977142D01*
X5393333Y-5024761D01*
X5488571Y-5072380D01*
X5679047Y-5072380D01*
X5774285Y-5024761D01*
X5821904Y-4977142D01*
X5869523Y-4881904D01*
X5869523Y-4072380D01*
X6298095Y-5024761D02*
X6440952Y-5072380D01*
X6679047Y-5072380D01*
X6774285Y-5024761D01*
X6821904Y-4977142D01*
X6869523Y-4881904D01*
X6869523Y-4786666D01*
X6821904Y-4691428D01*
X6774285Y-4643809D01*
X6679047Y-4596190D01*
X6488571Y-4548571D01*
X6393333Y-4500952D01*
X6345714Y-4453333D01*
X6298095Y-4358095D01*
X6298095Y-4262857D01*
X6345714Y-4167619D01*
X6393333Y-4120000D01*
X6488571Y-4072380D01*
X6726666Y-4072380D01*
X6869523Y-4120000D01*
X7298095Y-4548571D02*
X7631428Y-4548571D01*
X7774285Y-5072380D02*
X7298095Y-5072380D01*
X7298095Y-4072380D01*
X7774285Y-4072380D01*
X7964761Y-5167619D02*
X8726666Y-5167619D01*
X9488571Y-5072380D02*
X8917142Y-5072380D01*
X9202857Y-5072380D02*
X9202857Y-4072380D01*
X9107619Y-4215238D01*
X9012380Y-4310476D01*
X8917142Y-4358095D01*
G04 #@! TO.C,R_FUSE_2*
X14130476Y-5072380D02*
X13797142Y-4596190D01*
X13559047Y-5072380D02*
X13559047Y-4072380D01*
X13940000Y-4072380D01*
X14035238Y-4120000D01*
X14082857Y-4167619D01*
X14130476Y-4262857D01*
X14130476Y-4405714D01*
X14082857Y-4500952D01*
X14035238Y-4548571D01*
X13940000Y-4596190D01*
X13559047Y-4596190D01*
X14320952Y-5167619D02*
X15082857Y-5167619D01*
X15654285Y-4548571D02*
X15320952Y-4548571D01*
X15320952Y-5072380D02*
X15320952Y-4072380D01*
X15797142Y-4072380D01*
X16178095Y-4072380D02*
X16178095Y-4881904D01*
X16225714Y-4977142D01*
X16273333Y-5024761D01*
X16368571Y-5072380D01*
X16559047Y-5072380D01*
X16654285Y-5024761D01*
X16701904Y-4977142D01*
X16749523Y-4881904D01*
X16749523Y-4072380D01*
X17178095Y-5024761D02*
X17320952Y-5072380D01*
X17559047Y-5072380D01*
X17654285Y-5024761D01*
X17701904Y-4977142D01*
X17749523Y-4881904D01*
X17749523Y-4786666D01*
X17701904Y-4691428D01*
X17654285Y-4643809D01*
X17559047Y-4596190D01*
X17368571Y-4548571D01*
X17273333Y-4500952D01*
X17225714Y-4453333D01*
X17178095Y-4358095D01*
X17178095Y-4262857D01*
X17225714Y-4167619D01*
X17273333Y-4120000D01*
X17368571Y-4072380D01*
X17606666Y-4072380D01*
X17749523Y-4120000D01*
X18178095Y-4548571D02*
X18511428Y-4548571D01*
X18654285Y-5072380D02*
X18178095Y-5072380D01*
X18178095Y-4072380D01*
X18654285Y-4072380D01*
X18844761Y-5167619D02*
X19606666Y-5167619D01*
X19797142Y-4167619D02*
X19844761Y-4120000D01*
X19940000Y-4072380D01*
X20178095Y-4072380D01*
X20273333Y-4120000D01*
X20320952Y-4167619D01*
X20368571Y-4262857D01*
X20368571Y-4358095D01*
X20320952Y-4500952D01*
X19749523Y-5072380D01*
X20368571Y-5072380D01*
G04 #@! TD*
M02*
