G04 #@! TF.GenerationSoftware,KiCad,Pcbnew,(5.0.0)*
G04 #@! TF.CreationDate,2019-01-05T22:50:15+01:00*
G04 #@! TF.ProjectId,1u_bus,31755F6275732E6B696361645F706362,rev?*
G04 #@! TF.SameCoordinates,Original*
G04 #@! TF.FileFunction,Copper,L1,Top,Signal*
G04 #@! TF.FilePolarity,Positive*
%FSLAX46Y46*%
G04 Gerber Fmt 4.6, Leading zero omitted, Abs format (unit mm)*
G04 Created by KiCad (PCBNEW (5.0.0)) date 01/05/19 22:50:15*
%MOMM*%
%LPD*%
G01*
G04 APERTURE LIST*
G04 #@! TA.AperFunction,ComponentPad*
%ADD10R,1.200000X1.200000*%
G04 #@! TD*
G04 #@! TA.AperFunction,ComponentPad*
%ADD11C,1.200000*%
G04 #@! TD*
G04 #@! TA.AperFunction,ComponentPad*
%ADD12C,1.600000*%
G04 #@! TD*
G04 #@! TA.AperFunction,ComponentPad*
%ADD13O,2.200000X2.200000*%
G04 #@! TD*
G04 #@! TA.AperFunction,ComponentPad*
%ADD14R,2.200000X2.200000*%
G04 #@! TD*
G04 #@! TA.AperFunction,ComponentPad*
%ADD15R,1.800000X1.800000*%
G04 #@! TD*
G04 #@! TA.AperFunction,ComponentPad*
%ADD16C,1.800000*%
G04 #@! TD*
G04 #@! TA.AperFunction,ComponentPad*
%ADD17R,1.700000X1.700000*%
G04 #@! TD*
G04 #@! TA.AperFunction,ComponentPad*
%ADD18O,1.700000X1.700000*%
G04 #@! TD*
G04 #@! TA.AperFunction,ComponentPad*
%ADD19O,1.600000X1.600000*%
G04 #@! TD*
G04 #@! TA.AperFunction,ComponentPad*
%ADD20R,1.600000X1.600000*%
G04 #@! TD*
G04 #@! TA.AperFunction,ComponentPad*
%ADD21C,1.648460*%
G04 #@! TD*
G04 #@! TA.AperFunction,ViaPad*
%ADD22C,0.800000*%
G04 #@! TD*
G04 #@! TA.AperFunction,Conductor*
%ADD23C,0.250000*%
G04 #@! TD*
G04 #@! TA.AperFunction,Conductor*
%ADD24C,0.254000*%
G04 #@! TD*
G04 APERTURE END LIST*
D10*
G04 #@! TO.P,C1,1*
G04 #@! TO.N,/+12V*
X12250000Y-16750000D03*
D11*
G04 #@! TO.P,C1,2*
G04 #@! TO.N,/GND*
X14250000Y-16750000D03*
G04 #@! TD*
G04 #@! TO.P,C2,2*
G04 #@! TO.N,/-12V*
X21500000Y-16750000D03*
D10*
G04 #@! TO.P,C2,1*
G04 #@! TO.N,/GND*
X19500000Y-16750000D03*
G04 #@! TD*
D12*
G04 #@! TO.P,C3,1*
G04 #@! TO.N,/+12V*
X13250000Y-7500000D03*
G04 #@! TO.P,C3,2*
G04 #@! TO.N,/GND*
X18250000Y-7500000D03*
G04 #@! TD*
G04 #@! TO.P,C4,2*
G04 #@! TO.N,/-12V*
X13250000Y-11500000D03*
G04 #@! TO.P,C4,1*
G04 #@! TO.N,/GND*
X18250000Y-11500000D03*
G04 #@! TD*
D13*
G04 #@! TO.P,D1,2*
G04 #@! TO.N,/GND*
X2750000Y-17410000D03*
D14*
G04 #@! TO.P,D1,1*
G04 #@! TO.N,Net-(D1-Pad1)*
X2750000Y-7250000D03*
G04 #@! TD*
G04 #@! TO.P,D2,1*
G04 #@! TO.N,/GND*
X7750000Y-7250000D03*
D13*
G04 #@! TO.P,D2,2*
G04 #@! TO.N,Net-(D2-Pad2)*
X7750000Y-17410000D03*
G04 #@! TD*
D15*
G04 #@! TO.P,D_NEG_1_1,1*
G04 #@! TO.N,Net-(D_NEG_1_1-Pad1)*
X36750000Y-17250000D03*
D16*
G04 #@! TO.P,D_NEG_1_1,2*
G04 #@! TO.N,Net-(D_NEG_1_1-Pad2)*
X39290000Y-17250000D03*
G04 #@! TD*
D15*
G04 #@! TO.P,D_NEG_1_2,1*
G04 #@! TO.N,Net-(D_NEG_1_1-Pad2)*
X156710000Y-17250000D03*
D16*
G04 #@! TO.P,D_NEG_1_2,2*
G04 #@! TO.N,Net-(D_NEG_1_2-Pad2)*
X159250000Y-17250000D03*
G04 #@! TD*
G04 #@! TO.P,D_NEG_1_3,2*
G04 #@! TO.N,Net-(D_NEG_1_3-Pad2)*
X279290000Y-17250000D03*
D15*
G04 #@! TO.P,D_NEG_1_3,1*
G04 #@! TO.N,Net-(D_NEG_1_2-Pad2)*
X276750000Y-17250000D03*
G04 #@! TD*
G04 #@! TO.P,D_NEG_1_4,1*
G04 #@! TO.N,Net-(D_NEG_1_3-Pad2)*
X396750000Y-17250000D03*
D16*
G04 #@! TO.P,D_NEG_1_4,2*
G04 #@! TO.N,Net-(D_NEG_1_4-Pad2)*
X399290000Y-17250000D03*
G04 #@! TD*
D15*
G04 #@! TO.P,D_NEG_2_1,1*
G04 #@! TO.N,Net-(D_NEG_2_1-Pad1)*
X66750000Y-17250000D03*
D16*
G04 #@! TO.P,D_NEG_2_1,2*
G04 #@! TO.N,Net-(D_NEG_2_1-Pad2)*
X69290000Y-17250000D03*
G04 #@! TD*
D15*
G04 #@! TO.P,D_NEG_2_2,1*
G04 #@! TO.N,Net-(D_NEG_2_1-Pad2)*
X186750000Y-17250000D03*
D16*
G04 #@! TO.P,D_NEG_2_2,2*
G04 #@! TO.N,Net-(D_NEG_2_2-Pad2)*
X189290000Y-17250000D03*
G04 #@! TD*
G04 #@! TO.P,D_NEG_2_3,2*
G04 #@! TO.N,Net-(D_NEG_2_3-Pad2)*
X309290000Y-17250000D03*
D15*
G04 #@! TO.P,D_NEG_2_3,1*
G04 #@! TO.N,Net-(D_NEG_2_2-Pad2)*
X306750000Y-17250000D03*
G04 #@! TD*
G04 #@! TO.P,D_NEG_2_4,1*
G04 #@! TO.N,Net-(D_NEG_2_3-Pad2)*
X426750000Y-17250000D03*
D16*
G04 #@! TO.P,D_NEG_2_4,2*
G04 #@! TO.N,Net-(D_NEG_2_4-Pad2)*
X429290000Y-17250000D03*
G04 #@! TD*
D15*
G04 #@! TO.P,D_NEG_3_1,1*
G04 #@! TO.N,Net-(D_NEG_3_1-Pad1)*
X96750000Y-17250000D03*
D16*
G04 #@! TO.P,D_NEG_3_1,2*
G04 #@! TO.N,Net-(D_NEG_3_1-Pad2)*
X99290000Y-17250000D03*
G04 #@! TD*
D15*
G04 #@! TO.P,D_NEG_3_2,1*
G04 #@! TO.N,Net-(D_NEG_3_1-Pad2)*
X216750000Y-17250000D03*
D16*
G04 #@! TO.P,D_NEG_3_2,2*
G04 #@! TO.N,Net-(D_NEG_3_2-Pad2)*
X219290000Y-17250000D03*
G04 #@! TD*
G04 #@! TO.P,D_NEG_3_3,2*
G04 #@! TO.N,Net-(D_NEG_3_3-Pad2)*
X339290000Y-17250000D03*
D15*
G04 #@! TO.P,D_NEG_3_3,1*
G04 #@! TO.N,Net-(D_NEG_3_2-Pad2)*
X336750000Y-17250000D03*
G04 #@! TD*
D16*
G04 #@! TO.P,D_NEG_3_4,2*
G04 #@! TO.N,Net-(D_NEG_3_4-Pad2)*
X459290000Y-17250000D03*
D15*
G04 #@! TO.P,D_NEG_3_4,1*
G04 #@! TO.N,Net-(D_NEG_3_3-Pad2)*
X456750000Y-17250000D03*
G04 #@! TD*
D16*
G04 #@! TO.P,D_NEG_4_1,2*
G04 #@! TO.N,Net-(D_NEG_4_1-Pad2)*
X129290000Y-17250000D03*
D15*
G04 #@! TO.P,D_NEG_4_1,1*
G04 #@! TO.N,Net-(D_NEG_4_1-Pad1)*
X126750000Y-17250000D03*
G04 #@! TD*
G04 #@! TO.P,D_NEG_4_2,1*
G04 #@! TO.N,Net-(D_NEG_4_1-Pad2)*
X246750000Y-17250000D03*
D16*
G04 #@! TO.P,D_NEG_4_2,2*
G04 #@! TO.N,Net-(D_NEG_4_2-Pad2)*
X249290000Y-17250000D03*
G04 #@! TD*
G04 #@! TO.P,D_NEG_4_3,2*
G04 #@! TO.N,Net-(D_NEG_4_3-Pad2)*
X369290000Y-17250000D03*
D15*
G04 #@! TO.P,D_NEG_4_3,1*
G04 #@! TO.N,Net-(D_NEG_4_2-Pad2)*
X366750000Y-17250000D03*
G04 #@! TD*
G04 #@! TO.P,D_NEG_4_4,1*
G04 #@! TO.N,Net-(D_NEG_4_3-Pad2)*
X486750000Y-17250000D03*
D16*
G04 #@! TO.P,D_NEG_4_4,2*
G04 #@! TO.N,Net-(D_NEG_4_4-Pad2)*
X489290000Y-17250000D03*
G04 #@! TD*
G04 #@! TO.P,D_POS_1_1,2*
G04 #@! TO.N,Net-(D_NEG_1_1-Pad1)*
X39290000Y-2750000D03*
D15*
G04 #@! TO.P,D_POS_1_1,1*
G04 #@! TO.N,Net-(D_POS_1_1-Pad1)*
X36750000Y-2750000D03*
G04 #@! TD*
D16*
G04 #@! TO.P,D_POS_1_2,2*
G04 #@! TO.N,Net-(D_POS_1_1-Pad1)*
X159250000Y-2750000D03*
D15*
G04 #@! TO.P,D_POS_1_2,1*
G04 #@! TO.N,Net-(D_POS_1_2-Pad1)*
X156710000Y-2750000D03*
G04 #@! TD*
G04 #@! TO.P,D_POS_1_3,1*
G04 #@! TO.N,Net-(D_POS_1_3-Pad1)*
X276750000Y-2750000D03*
D16*
G04 #@! TO.P,D_POS_1_3,2*
G04 #@! TO.N,Net-(D_POS_1_2-Pad1)*
X279290000Y-2750000D03*
G04 #@! TD*
G04 #@! TO.P,D_POS_1_4,2*
G04 #@! TO.N,Net-(D_POS_1_3-Pad1)*
X399290000Y-2750000D03*
D15*
G04 #@! TO.P,D_POS_1_4,1*
G04 #@! TO.N,Net-(D_NEG_1_4-Pad2)*
X396750000Y-2750000D03*
G04 #@! TD*
D16*
G04 #@! TO.P,D_POS_2_1,2*
G04 #@! TO.N,Net-(D_NEG_2_1-Pad1)*
X69290000Y-2750000D03*
D15*
G04 #@! TO.P,D_POS_2_1,1*
G04 #@! TO.N,Net-(D_POS_2_1-Pad1)*
X66750000Y-2750000D03*
G04 #@! TD*
G04 #@! TO.P,D_POS_2_2,1*
G04 #@! TO.N,Net-(D_POS_2_2-Pad1)*
X186750000Y-2750000D03*
D16*
G04 #@! TO.P,D_POS_2_2,2*
G04 #@! TO.N,Net-(D_POS_2_1-Pad1)*
X189290000Y-2750000D03*
G04 #@! TD*
D15*
G04 #@! TO.P,D_POS_2_3,1*
G04 #@! TO.N,Net-(D_POS_2_3-Pad1)*
X306710000Y-2750000D03*
D16*
G04 #@! TO.P,D_POS_2_3,2*
G04 #@! TO.N,Net-(D_POS_2_2-Pad1)*
X309250000Y-2750000D03*
G04 #@! TD*
G04 #@! TO.P,D_POS_2_4,2*
G04 #@! TO.N,Net-(D_POS_2_3-Pad1)*
X429290000Y-2750000D03*
D15*
G04 #@! TO.P,D_POS_2_4,1*
G04 #@! TO.N,Net-(D_NEG_2_4-Pad2)*
X426750000Y-2750000D03*
G04 #@! TD*
D16*
G04 #@! TO.P,D_POS_3_1,2*
G04 #@! TO.N,Net-(D_NEG_3_1-Pad1)*
X99290000Y-2750000D03*
D15*
G04 #@! TO.P,D_POS_3_1,1*
G04 #@! TO.N,Net-(D_POS_3_1-Pad1)*
X96750000Y-2750000D03*
G04 #@! TD*
G04 #@! TO.P,D_POS_3_2,1*
G04 #@! TO.N,Net-(D_POS_3_2-Pad1)*
X216750000Y-2750000D03*
D16*
G04 #@! TO.P,D_POS_3_2,2*
G04 #@! TO.N,Net-(D_POS_3_1-Pad1)*
X219290000Y-2750000D03*
G04 #@! TD*
G04 #@! TO.P,D_POS_3_3,2*
G04 #@! TO.N,Net-(D_POS_3_2-Pad1)*
X339290000Y-2750000D03*
D15*
G04 #@! TO.P,D_POS_3_3,1*
G04 #@! TO.N,Net-(D_POS_3_3-Pad1)*
X336750000Y-2750000D03*
G04 #@! TD*
D16*
G04 #@! TO.P,D_POS_3_4,2*
G04 #@! TO.N,Net-(D_POS_3_3-Pad1)*
X459290000Y-2750000D03*
D15*
G04 #@! TO.P,D_POS_3_4,1*
G04 #@! TO.N,Net-(D_NEG_3_4-Pad2)*
X456750000Y-2750000D03*
G04 #@! TD*
D16*
G04 #@! TO.P,D_POS_4_1,2*
G04 #@! TO.N,Net-(D_NEG_4_1-Pad1)*
X129290000Y-2750000D03*
D15*
G04 #@! TO.P,D_POS_4_1,1*
G04 #@! TO.N,Net-(D_POS_4_1-Pad1)*
X126750000Y-2750000D03*
G04 #@! TD*
G04 #@! TO.P,D_POS_4_2,1*
G04 #@! TO.N,Net-(D_POS_4_2-Pad1)*
X246750000Y-2750000D03*
D16*
G04 #@! TO.P,D_POS_4_2,2*
G04 #@! TO.N,Net-(D_POS_4_1-Pad1)*
X249290000Y-2750000D03*
G04 #@! TD*
G04 #@! TO.P,D_POS_4_3,2*
G04 #@! TO.N,Net-(D_POS_4_2-Pad1)*
X369290000Y-2750000D03*
D15*
G04 #@! TO.P,D_POS_4_3,1*
G04 #@! TO.N,Net-(D_POS_4_3-Pad1)*
X366750000Y-2750000D03*
G04 #@! TD*
G04 #@! TO.P,D_POS_4_4,1*
G04 #@! TO.N,Net-(D_NEG_4_4-Pad2)*
X486750000Y-2750000D03*
D16*
G04 #@! TO.P,D_POS_4_4,2*
G04 #@! TO.N,Net-(D_POS_4_3-Pad1)*
X489290000Y-2750000D03*
G04 #@! TD*
D17*
G04 #@! TO.P,J1,1*
G04 #@! TO.N,Net-(D2-Pad2)*
X26250000Y-15000000D03*
D18*
G04 #@! TO.P,J1,2*
X28790000Y-15000000D03*
G04 #@! TO.P,J1,3*
G04 #@! TO.N,/GND*
X26250000Y-12460000D03*
G04 #@! TO.P,J1,4*
X28790000Y-12460000D03*
G04 #@! TO.P,J1,5*
X26250000Y-9920000D03*
G04 #@! TO.P,J1,6*
X28790000Y-9920000D03*
G04 #@! TO.P,J1,7*
X26250000Y-7380000D03*
G04 #@! TO.P,J1,8*
X28790000Y-7380000D03*
G04 #@! TO.P,J1,9*
G04 #@! TO.N,Net-(D1-Pad1)*
X26250000Y-4840000D03*
G04 #@! TO.P,J1,10*
X28790000Y-4840000D03*
G04 #@! TD*
D12*
G04 #@! TO.P,R_LED_1_1,1*
G04 #@! TO.N,/cv_bus1/GND*
X78630000Y-3750000D03*
D19*
G04 #@! TO.P,R_LED_1_1,2*
G04 #@! TO.N,Net-(D_NEG_1_4-Pad2)*
X86250000Y-3750000D03*
G04 #@! TD*
D12*
G04 #@! TO.P,R_LED_2_1,1*
G04 #@! TO.N,/cv_bus2/GND*
X199250000Y-3750000D03*
D19*
G04 #@! TO.P,R_LED_2_1,2*
G04 #@! TO.N,Net-(D_NEG_2_4-Pad2)*
X206870000Y-3750000D03*
G04 #@! TD*
G04 #@! TO.P,R_LED_3_1,2*
G04 #@! TO.N,Net-(D_NEG_3_4-Pad2)*
X327370000Y-3750000D03*
D12*
G04 #@! TO.P,R_LED_3_1,1*
G04 #@! TO.N,/cv_bus3/GND*
X319750000Y-3750000D03*
G04 #@! TD*
D19*
G04 #@! TO.P,R_LED_4_1,2*
G04 #@! TO.N,Net-(D_NEG_4_4-Pad2)*
X446120000Y-3750000D03*
D12*
G04 #@! TO.P,R_LED_4_1,1*
G04 #@! TO.N,/cv_bus4/GND*
X438500000Y-3750000D03*
G04 #@! TD*
D19*
G04 #@! TO.P,R_Split_1_1,2*
G04 #@! TO.N,Net-(R_Split_1_1-Pad2)*
X86120000Y-10000000D03*
D12*
G04 #@! TO.P,R_Split_1_1,1*
G04 #@! TO.N,Net-(R_Split_1_1-Pad1)*
X78500000Y-10000000D03*
G04 #@! TD*
G04 #@! TO.P,R_Split_1_2,1*
G04 #@! TO.N,/cv_bus1/GND*
X78500000Y-16250000D03*
D19*
G04 #@! TO.P,R_Split_1_2,2*
G04 #@! TO.N,Net-(R_Split_1_1-Pad2)*
X86120000Y-16250000D03*
G04 #@! TD*
G04 #@! TO.P,R_Split_2_1,2*
G04 #@! TO.N,Net-(R_Split_2_1-Pad2)*
X206870000Y-10000000D03*
D12*
G04 #@! TO.P,R_Split_2_1,1*
G04 #@! TO.N,Net-(R_Split_2_1-Pad1)*
X199250000Y-10000000D03*
G04 #@! TD*
D19*
G04 #@! TO.P,R_Split_2_2,2*
G04 #@! TO.N,Net-(R_Split_2_1-Pad2)*
X206870000Y-16250000D03*
D12*
G04 #@! TO.P,R_Split_2_2,1*
G04 #@! TO.N,/cv_bus2/GND*
X199250000Y-16250000D03*
G04 #@! TD*
G04 #@! TO.P,R_Split_3_1,1*
G04 #@! TO.N,Net-(R_Split_3_1-Pad1)*
X319750000Y-10000000D03*
D19*
G04 #@! TO.P,R_Split_3_1,2*
G04 #@! TO.N,Net-(R_Split_3_1-Pad2)*
X327370000Y-10000000D03*
G04 #@! TD*
D12*
G04 #@! TO.P,R_Split_3_2,1*
G04 #@! TO.N,/cv_bus3/GND*
X319750000Y-16250000D03*
D19*
G04 #@! TO.P,R_Split_3_2,2*
G04 #@! TO.N,Net-(R_Split_3_1-Pad2)*
X327370000Y-16250000D03*
G04 #@! TD*
D12*
G04 #@! TO.P,R_Split_4_1,1*
G04 #@! TO.N,Net-(R_Split_4_1-Pad1)*
X438500000Y-10000000D03*
D19*
G04 #@! TO.P,R_Split_4_1,2*
G04 #@! TO.N,Net-(R_Split_4_1-Pad2)*
X446120000Y-10000000D03*
G04 #@! TD*
G04 #@! TO.P,R_Split_4_2,2*
G04 #@! TO.N,Net-(R_Split_4_1-Pad2)*
X446120000Y-16250000D03*
D12*
G04 #@! TO.P,R_Split_4_2,1*
G04 #@! TO.N,/cv_bus4/GND*
X438500000Y-16250000D03*
G04 #@! TD*
D20*
G04 #@! TO.P,U1,1*
G04 #@! TO.N,Net-(D_NEG_1_1-Pad1)*
X519370000Y-6250000D03*
D19*
G04 #@! TO.P,U1,8*
G04 #@! TO.N,Net-(D_NEG_3_1-Pad1)*
X504130000Y-13870000D03*
G04 #@! TO.P,U1,2*
G04 #@! TO.N,Net-(D_NEG_1_4-Pad2)*
X516830000Y-6250000D03*
G04 #@! TO.P,U1,9*
G04 #@! TO.N,Net-(D_NEG_3_4-Pad2)*
X506670000Y-13870000D03*
G04 #@! TO.P,U1,3*
G04 #@! TO.N,Net-(R_Split_1_1-Pad2)*
X514290000Y-6250000D03*
G04 #@! TO.P,U1,10*
G04 #@! TO.N,Net-(R_Split_3_1-Pad2)*
X509210000Y-13870000D03*
G04 #@! TO.P,U1,4*
G04 #@! TO.N,N/C*
X511750000Y-6250000D03*
G04 #@! TO.P,U1,11*
X511750000Y-13870000D03*
G04 #@! TO.P,U1,5*
G04 #@! TO.N,Net-(R_Split_2_1-Pad2)*
X509210000Y-6250000D03*
G04 #@! TO.P,U1,12*
G04 #@! TO.N,Net-(R_Split_4_1-Pad2)*
X514290000Y-13870000D03*
G04 #@! TO.P,U1,6*
G04 #@! TO.N,Net-(D_NEG_2_4-Pad2)*
X506670000Y-6250000D03*
G04 #@! TO.P,U1,13*
G04 #@! TO.N,Net-(D_NEG_4_4-Pad2)*
X516830000Y-13870000D03*
G04 #@! TO.P,U1,7*
G04 #@! TO.N,Net-(D_NEG_2_1-Pad1)*
X504130000Y-6250000D03*
G04 #@! TO.P,U1,14*
G04 #@! TO.N,Net-(D_NEG_4_1-Pad1)*
X519370000Y-13870000D03*
G04 #@! TD*
D21*
G04 #@! TO.P,U2,P$3_SLEEVE*
G04 #@! TO.N,/cv_bus1/GND*
X44499860Y-10000000D03*
G04 #@! TO.P,U2,P$2_SWITCH*
G04 #@! TO.N,N/C*
X41497580Y-10000000D03*
G04 #@! TO.P,U2,P$1_TIP*
G04 #@! TO.N,Net-(R_Split_1_1-Pad1)*
X33001280Y-10000000D03*
G04 #@! TD*
G04 #@! TO.P,U3,P$1_TIP*
G04 #@! TO.N,Net-(R_Split_1_1-Pad1)*
X153001280Y-10000000D03*
G04 #@! TO.P,U3,P$2_SWITCH*
G04 #@! TO.N,N/C*
X161497580Y-10000000D03*
G04 #@! TO.P,U3,P$3_SLEEVE*
G04 #@! TO.N,/cv_bus1/GND*
X164499860Y-10000000D03*
G04 #@! TD*
G04 #@! TO.P,U4,P$3_SLEEVE*
G04 #@! TO.N,/cv_bus1/GND*
X271500140Y-10000000D03*
G04 #@! TO.P,U4,P$2_SWITCH*
G04 #@! TO.N,N/C*
X274502420Y-10000000D03*
G04 #@! TO.P,U4,P$1_TIP*
G04 #@! TO.N,Net-(R_Split_1_1-Pad1)*
X282998720Y-10000000D03*
G04 #@! TD*
G04 #@! TO.P,U5,P$1_TIP*
G04 #@! TO.N,Net-(R_Split_1_1-Pad1)*
X402998720Y-10000000D03*
G04 #@! TO.P,U5,P$2_SWITCH*
G04 #@! TO.N,N/C*
X394502420Y-10000000D03*
G04 #@! TO.P,U5,P$3_SLEEVE*
G04 #@! TO.N,/cv_bus1/GND*
X391500140Y-10000000D03*
G04 #@! TD*
G04 #@! TO.P,U6,P$3_SLEEVE*
G04 #@! TO.N,/cv_bus2/GND*
X74499860Y-10000000D03*
G04 #@! TO.P,U6,P$2_SWITCH*
G04 #@! TO.N,N/C*
X71497580Y-10000000D03*
G04 #@! TO.P,U6,P$1_TIP*
G04 #@! TO.N,Net-(R_Split_2_1-Pad1)*
X63001280Y-10000000D03*
G04 #@! TD*
G04 #@! TO.P,U7,P$3_SLEEVE*
G04 #@! TO.N,/cv_bus2/GND*
X194499860Y-10000000D03*
G04 #@! TO.P,U7,P$2_SWITCH*
G04 #@! TO.N,N/C*
X191497580Y-10000000D03*
G04 #@! TO.P,U7,P$1_TIP*
G04 #@! TO.N,Net-(R_Split_2_1-Pad1)*
X183001280Y-10000000D03*
G04 #@! TD*
G04 #@! TO.P,U8,P$1_TIP*
G04 #@! TO.N,Net-(R_Split_2_1-Pad1)*
X312998720Y-10000000D03*
G04 #@! TO.P,U8,P$2_SWITCH*
G04 #@! TO.N,N/C*
X304502420Y-10000000D03*
G04 #@! TO.P,U8,P$3_SLEEVE*
G04 #@! TO.N,/cv_bus2/GND*
X301500140Y-10000000D03*
G04 #@! TD*
G04 #@! TO.P,U9,P$3_SLEEVE*
G04 #@! TO.N,/cv_bus2/GND*
X421500140Y-10000000D03*
G04 #@! TO.P,U9,P$2_SWITCH*
G04 #@! TO.N,N/C*
X424502420Y-10000000D03*
G04 #@! TO.P,U9,P$1_TIP*
G04 #@! TO.N,Net-(R_Split_2_1-Pad1)*
X432998720Y-10000000D03*
G04 #@! TD*
G04 #@! TO.P,U10,P$1_TIP*
G04 #@! TO.N,Net-(R_Split_3_1-Pad1)*
X93001280Y-10000000D03*
G04 #@! TO.P,U10,P$2_SWITCH*
G04 #@! TO.N,N/C*
X101497580Y-10000000D03*
G04 #@! TO.P,U10,P$3_SLEEVE*
G04 #@! TO.N,/cv_bus3/GND*
X104499860Y-10000000D03*
G04 #@! TD*
G04 #@! TO.P,U11,P$3_SLEEVE*
G04 #@! TO.N,/cv_bus3/GND*
X224499860Y-10000000D03*
G04 #@! TO.P,U11,P$2_SWITCH*
G04 #@! TO.N,N/C*
X221497580Y-10000000D03*
G04 #@! TO.P,U11,P$1_TIP*
G04 #@! TO.N,Net-(R_Split_3_1-Pad1)*
X213001280Y-10000000D03*
G04 #@! TD*
G04 #@! TO.P,U12,P$1_TIP*
G04 #@! TO.N,Net-(R_Split_3_1-Pad1)*
X342998720Y-10000000D03*
G04 #@! TO.P,U12,P$2_SWITCH*
G04 #@! TO.N,N/C*
X334502420Y-10000000D03*
G04 #@! TO.P,U12,P$3_SLEEVE*
G04 #@! TO.N,/cv_bus3/GND*
X331500140Y-10000000D03*
G04 #@! TD*
G04 #@! TO.P,U13,P$3_SLEEVE*
G04 #@! TO.N,/cv_bus3/GND*
X451500140Y-10000000D03*
G04 #@! TO.P,U13,P$2_SWITCH*
G04 #@! TO.N,N/C*
X454502420Y-10000000D03*
G04 #@! TO.P,U13,P$1_TIP*
G04 #@! TO.N,Net-(R_Split_3_1-Pad1)*
X462998720Y-10000000D03*
G04 #@! TD*
G04 #@! TO.P,U14,P$1_TIP*
G04 #@! TO.N,Net-(R_Split_4_1-Pad1)*
X123001280Y-10000000D03*
G04 #@! TO.P,U14,P$2_SWITCH*
G04 #@! TO.N,N/C*
X131497580Y-10000000D03*
G04 #@! TO.P,U14,P$3_SLEEVE*
G04 #@! TO.N,/cv_bus4/GND*
X134499860Y-10000000D03*
G04 #@! TD*
G04 #@! TO.P,U15,P$1_TIP*
G04 #@! TO.N,Net-(R_Split_4_1-Pad1)*
X243001280Y-10000000D03*
G04 #@! TO.P,U15,P$2_SWITCH*
G04 #@! TO.N,N/C*
X251497580Y-10000000D03*
G04 #@! TO.P,U15,P$3_SLEEVE*
G04 #@! TO.N,/cv_bus4/GND*
X254499860Y-10000000D03*
G04 #@! TD*
G04 #@! TO.P,U16,P$1_TIP*
G04 #@! TO.N,Net-(R_Split_4_1-Pad1)*
X372998720Y-10000000D03*
G04 #@! TO.P,U16,P$2_SWITCH*
G04 #@! TO.N,N/C*
X364502420Y-10000000D03*
G04 #@! TO.P,U16,P$3_SLEEVE*
G04 #@! TO.N,/cv_bus4/GND*
X361500140Y-10000000D03*
G04 #@! TD*
G04 #@! TO.P,U17,P$3_SLEEVE*
G04 #@! TO.N,/cv_bus4/GND*
X481500140Y-10000000D03*
G04 #@! TO.P,U17,P$2_SWITCH*
G04 #@! TO.N,N/C*
X484502420Y-10000000D03*
G04 #@! TO.P,U17,P$1_TIP*
G04 #@! TO.N,Net-(R_Split_4_1-Pad1)*
X492998720Y-10000000D03*
G04 #@! TD*
D12*
G04 #@! TO.P,R_FUSE_1,1*
G04 #@! TO.N,/+12V*
X9870000Y-2250000D03*
D19*
G04 #@! TO.P,R_FUSE_1,2*
G04 #@! TO.N,Net-(D1-Pad1)*
X2250000Y-2250000D03*
G04 #@! TD*
G04 #@! TO.P,R_FUSE_2,2*
G04 #@! TO.N,Net-(D2-Pad2)*
X13130000Y-2250000D03*
D12*
G04 #@! TO.P,R_FUSE_2,1*
G04 #@! TO.N,/-12V*
X20750000Y-2250000D03*
G04 #@! TD*
D22*
G04 #@! TO.N,Net-(D_NEG_4_1-Pad1)*
X124953300Y-7055500D03*
G04 #@! TO.N,Net-(R_Split_2_1-Pad1)*
X356682800Y-9487200D03*
G04 #@! TD*
D23*
G04 #@! TO.N,/GND*
X18250000Y-11500000D02*
X18250000Y-7500000D01*
X19500000Y-12750000D02*
X18250000Y-11500000D01*
X26250000Y-7380000D02*
X26250000Y-8744700D01*
X28790000Y-7380000D02*
X26250000Y-7380000D01*
X26250000Y-9920000D02*
X26250000Y-8744700D01*
X28790000Y-7380000D02*
X28790000Y-8744700D01*
X28790000Y-9920000D02*
X28790000Y-8744700D01*
X7750000Y-7250000D02*
X9175300Y-7250000D01*
X18250000Y-7500000D02*
X17113000Y-6363000D01*
X17113000Y-6363000D02*
X10062300Y-6363000D01*
X10062300Y-6363000D02*
X9175300Y-7250000D01*
X28790000Y-12460000D02*
X27614700Y-12460000D01*
X26250000Y-11872300D02*
X27027000Y-11872300D01*
X27027000Y-11872300D02*
X27614700Y-12460000D01*
X26250000Y-11872300D02*
X26250000Y-11284700D01*
X26250000Y-12460000D02*
X26250000Y-11872300D01*
X26250000Y-9920000D02*
X26250000Y-11284700D01*
X19500000Y-12750000D02*
X19500000Y-16750000D01*
X26250000Y-12460000D02*
X19790000Y-12460000D01*
X19790000Y-12460000D02*
X19500000Y-12750000D01*
G04 #@! TO.N,Net-(D1-Pad1)*
X2750000Y-7250000D02*
X4175300Y-7250000D01*
X4175300Y-7250000D02*
X6585300Y-4840000D01*
X6585300Y-4840000D02*
X26250000Y-4840000D01*
X28790000Y-4840000D02*
X26250000Y-4840000D01*
G04 #@! TO.N,Net-(D2-Pad2)*
X28790000Y-15000000D02*
X26250000Y-15000000D01*
G04 #@! TO.N,Net-(D_NEG_1_1-Pad1)*
X36750000Y-17250000D02*
X36750000Y-16024700D01*
X39290000Y-2750000D02*
X39966900Y-3426900D01*
X39966900Y-3426900D02*
X39966900Y-12807800D01*
X39966900Y-12807800D02*
X36750000Y-16024700D01*
G04 #@! TO.N,Net-(D_NEG_1_2-Pad2)*
X276750000Y-17250000D02*
X275524700Y-17250000D01*
X275524700Y-17250000D02*
X274299300Y-18475400D01*
X274299300Y-18475400D02*
X160475400Y-18475400D01*
X160475400Y-18475400D02*
X159250000Y-17250000D01*
G04 #@! TO.N,Net-(D_NEG_1_3-Pad2)*
X279290000Y-17250000D02*
X280965600Y-18925600D01*
X280965600Y-18925600D02*
X393849100Y-18925600D01*
X393849100Y-18925600D02*
X395524700Y-17250000D01*
X396750000Y-17250000D02*
X395524700Y-17250000D01*
G04 #@! TO.N,Net-(D_NEG_1_4-Pad2)*
X516830000Y-6250000D02*
X516830000Y-7375300D01*
X516830000Y-7375300D02*
X515704700Y-8500600D01*
X515704700Y-8500600D02*
X515704700Y-14094900D01*
X515704700Y-14094900D02*
X510851800Y-18947800D01*
X510851800Y-18947800D02*
X400987800Y-18947800D01*
X400987800Y-18947800D02*
X399290000Y-17250000D01*
X87375300Y-3750000D02*
X89600700Y-1524600D01*
X89600700Y-1524600D02*
X131334400Y-1524600D01*
X131334400Y-1524600D02*
X134235600Y-4425800D01*
X134235600Y-4425800D02*
X189347100Y-4425800D01*
X189347100Y-4425800D02*
X191188200Y-2584700D01*
X191188200Y-2584700D02*
X209442400Y-2584700D01*
X209442400Y-2584700D02*
X212198600Y-5340900D01*
X212198600Y-5340900D02*
X362056100Y-5340900D01*
X362056100Y-5340900D02*
X362926500Y-4470500D01*
X362926500Y-4470500D02*
X393804200Y-4470500D01*
X393804200Y-4470500D02*
X395524700Y-2750000D01*
X396750000Y-2750000D02*
X395524700Y-2750000D01*
X86250000Y-3750000D02*
X87375300Y-3750000D01*
G04 #@! TO.N,Net-(D_NEG_2_1-Pad1)*
X67975300Y-17250000D02*
X67975300Y-16790400D01*
X67975300Y-16790400D02*
X68741000Y-16024700D01*
X68741000Y-16024700D02*
X70444800Y-16024700D01*
X70444800Y-16024700D02*
X71838300Y-17418200D01*
X71838300Y-17418200D02*
X78991000Y-17418200D01*
X78991000Y-17418200D02*
X83105300Y-13303900D01*
X83105300Y-13303900D02*
X319574500Y-13303900D01*
X319574500Y-13303900D02*
X326161800Y-6716600D01*
X326161800Y-6716600D02*
X363228000Y-6716600D01*
X363228000Y-6716600D02*
X363672900Y-6271700D01*
X363672900Y-6271700D02*
X502983000Y-6271700D01*
X502983000Y-6271700D02*
X503004700Y-6250000D01*
X66750000Y-17250000D02*
X67975300Y-17250000D01*
X504130000Y-6250000D02*
X503004700Y-6250000D01*
G04 #@! TO.N,Net-(D_NEG_2_1-Pad2)*
X186750000Y-17250000D02*
X185524700Y-17250000D01*
X185524700Y-17250000D02*
X184299300Y-16024600D01*
X184299300Y-16024600D02*
X106646200Y-16024600D01*
X106646200Y-16024600D02*
X104163900Y-18506900D01*
X104163900Y-18506900D02*
X70546900Y-18506900D01*
X70546900Y-18506900D02*
X69290000Y-17250000D01*
G04 #@! TO.N,Net-(D_NEG_2_3-Pad2)*
X426750000Y-17250000D02*
X425524700Y-17250000D01*
X309290000Y-17250000D02*
X310515300Y-18475300D01*
X310515300Y-18475300D02*
X370065000Y-18475300D01*
X370065000Y-18475300D02*
X372515600Y-16024700D01*
X372515600Y-16024700D02*
X424299400Y-16024700D01*
X424299400Y-16024700D02*
X425524700Y-17250000D01*
G04 #@! TO.N,Net-(D_NEG_2_4-Pad2)*
X207995300Y-3750000D02*
X210036600Y-5791300D01*
X210036600Y-5791300D02*
X362242700Y-5791300D01*
X362242700Y-5791300D02*
X363113200Y-4920800D01*
X363113200Y-4920800D02*
X423353900Y-4920800D01*
X423353900Y-4920800D02*
X425524700Y-2750000D01*
X427975300Y-2750000D02*
X427975300Y-3209500D01*
X427975300Y-3209500D02*
X429690800Y-4925000D01*
X429690800Y-4925000D02*
X483031200Y-4925000D01*
X483031200Y-4925000D02*
X483300100Y-4656100D01*
X483300100Y-4656100D02*
X509221600Y-4656100D01*
X509221600Y-4656100D02*
X510381700Y-5816200D01*
X510381700Y-5816200D02*
X510381700Y-6709400D01*
X510381700Y-6709400D02*
X509693800Y-7397300D01*
X509693800Y-7397300D02*
X507817300Y-7397300D01*
X507817300Y-7397300D02*
X506670000Y-6250000D01*
X426750000Y-2750000D02*
X427975300Y-2750000D01*
X426750000Y-2750000D02*
X425524700Y-2750000D01*
X206870000Y-3750000D02*
X207995300Y-3750000D01*
G04 #@! TO.N,Net-(D_NEG_3_1-Pad1)*
X97975300Y-17250000D02*
X97975300Y-16790500D01*
X97975300Y-16790500D02*
X99828800Y-14937000D01*
X99828800Y-14937000D02*
X319438200Y-14937000D01*
X319438200Y-14937000D02*
X326758000Y-7617200D01*
X326758000Y-7617200D02*
X363602600Y-7617200D01*
X363602600Y-7617200D02*
X364047500Y-7172300D01*
X364047500Y-7172300D02*
X462815300Y-7172300D01*
X462815300Y-7172300D02*
X469513000Y-13870000D01*
X469513000Y-13870000D02*
X504130000Y-13870000D01*
X96750000Y-17250000D02*
X97975300Y-17250000D01*
G04 #@! TO.N,Net-(D_NEG_3_1-Pad2)*
X99290000Y-17250000D02*
X100995200Y-15544800D01*
X100995200Y-15544800D02*
X192412600Y-15544800D01*
X192412600Y-15544800D02*
X194274500Y-17406700D01*
X194274500Y-17406700D02*
X215368000Y-17406700D01*
X215368000Y-17406700D02*
X215524700Y-17250000D01*
X216750000Y-17250000D02*
X215524700Y-17250000D01*
G04 #@! TO.N,Net-(D_NEG_3_2-Pad2)*
X336750000Y-17250000D02*
X335524700Y-17250000D01*
X335524700Y-17250000D02*
X335372400Y-17402300D01*
X335372400Y-17402300D02*
X313046300Y-17402300D01*
X313046300Y-17402300D02*
X311668600Y-16024600D01*
X311668600Y-16024600D02*
X220515400Y-16024600D01*
X220515400Y-16024600D02*
X219290000Y-17250000D01*
G04 #@! TO.N,Net-(D_NEG_3_3-Pad2)*
X455524700Y-17250000D02*
X453399300Y-15124600D01*
X453399300Y-15124600D02*
X341415400Y-15124600D01*
X341415400Y-15124600D02*
X339290000Y-17250000D01*
X456750000Y-17250000D02*
X455524700Y-17250000D01*
G04 #@! TO.N,Net-(D_NEG_3_4-Pad2)*
X506670000Y-13870000D02*
X507834900Y-12705100D01*
X507834900Y-12705100D02*
X509693700Y-12705100D01*
X509693700Y-12705100D02*
X510392600Y-13404000D01*
X510392600Y-13404000D02*
X510392600Y-14307500D01*
X510392600Y-14307500D02*
X509237900Y-15462200D01*
X509237900Y-15462200D02*
X461077800Y-15462200D01*
X461077800Y-15462200D02*
X459290000Y-17250000D01*
X328495300Y-3750000D02*
X329171000Y-4425700D01*
X329171000Y-4425700D02*
X342249000Y-4425700D01*
X342249000Y-4425700D02*
X345652100Y-1022600D01*
X345652100Y-1022600D02*
X453797300Y-1022600D01*
X453797300Y-1022600D02*
X455524700Y-2750000D01*
X327370000Y-3750000D02*
X328495300Y-3750000D01*
X456750000Y-2750000D02*
X455524700Y-2750000D01*
G04 #@! TO.N,Net-(D_NEG_4_1-Pad1)*
X124953300Y-7055500D02*
X129258800Y-2750000D01*
X129258800Y-2750000D02*
X129290000Y-2750000D01*
X519370000Y-13870000D02*
X518244700Y-13870000D01*
X126750000Y-17250000D02*
X127975300Y-17250000D01*
X127975300Y-17250000D02*
X127975300Y-17709500D01*
X127975300Y-17709500D02*
X129664000Y-19398200D01*
X129664000Y-19398200D02*
X512997800Y-19398200D01*
X512997800Y-19398200D02*
X518244700Y-14151300D01*
X518244700Y-14151300D02*
X518244700Y-13870000D01*
G04 #@! TO.N,Net-(D_NEG_4_4-Pad2)*
X446120000Y-3750000D02*
X447245300Y-3750000D01*
X486750000Y-2750000D02*
X485524700Y-2750000D01*
X485524700Y-2750000D02*
X484299300Y-3975400D01*
X484299300Y-3975400D02*
X447470700Y-3975400D01*
X447470700Y-3975400D02*
X447245300Y-3750000D01*
G04 #@! TO.N,Net-(D_POS_1_1-Pad1)*
X36750000Y-2750000D02*
X37975300Y-2750000D01*
X159250000Y-2750000D02*
X158024600Y-3975400D01*
X158024600Y-3975400D02*
X155484600Y-3975400D01*
X155484600Y-3975400D02*
X152580500Y-1071300D01*
X152580500Y-1071300D02*
X39194500Y-1071300D01*
X39194500Y-1071300D02*
X37975300Y-2290500D01*
X37975300Y-2290500D02*
X37975300Y-2750000D01*
G04 #@! TO.N,Net-(D_POS_1_2-Pad1)*
X156710000Y-2750000D02*
X157935300Y-2750000D01*
X157935300Y-2750000D02*
X157935300Y-2290500D01*
X157935300Y-2290500D02*
X158701200Y-1524600D01*
X158701200Y-1524600D02*
X240940900Y-1524600D01*
X240940900Y-1524600D02*
X243391700Y-3975400D01*
X243391700Y-3975400D02*
X278064600Y-3975400D01*
X278064600Y-3975400D02*
X279290000Y-2750000D01*
G04 #@! TO.N,Net-(D_POS_2_3-Pad1)*
X306710000Y-2750000D02*
X307935300Y-2750000D01*
X429290000Y-2750000D02*
X428064600Y-1524600D01*
X428064600Y-1524600D02*
X352464000Y-1524600D01*
X352464000Y-1524600D02*
X349098100Y-4890500D01*
X349098100Y-4890500D02*
X309616300Y-4890500D01*
X309616300Y-4890500D02*
X307935300Y-3209500D01*
X307935300Y-3209500D02*
X307935300Y-2750000D01*
G04 #@! TO.N,Net-(D_POS_3_2-Pad1)*
X216750000Y-2750000D02*
X217975300Y-2750000D01*
X339290000Y-2750000D02*
X338064600Y-1524600D01*
X338064600Y-1524600D02*
X284670300Y-1524600D01*
X284670300Y-1524600D02*
X281767000Y-4427900D01*
X281767000Y-4427900D02*
X219193700Y-4427900D01*
X219193700Y-4427900D02*
X217975300Y-3209500D01*
X217975300Y-3209500D02*
X217975300Y-2750000D01*
G04 #@! TO.N,Net-(D_POS_3_3-Pad1)*
X336750000Y-2750000D02*
X337975300Y-2750000D01*
X459290000Y-2750000D02*
X457112200Y-572200D01*
X457112200Y-572200D02*
X343561500Y-572200D01*
X343561500Y-572200D02*
X340158300Y-3975400D01*
X340158300Y-3975400D02*
X338772100Y-3975400D01*
X338772100Y-3975400D02*
X337975300Y-3178600D01*
X337975300Y-3178600D02*
X337975300Y-2750000D01*
G04 #@! TO.N,/cv_bus1/GND*
X78500000Y-16250000D02*
X76480700Y-14230700D01*
X76480700Y-14230700D02*
X48730600Y-14230700D01*
X48730600Y-14230700D02*
X44499900Y-10000000D01*
G04 #@! TO.N,/cv_bus2/GND*
X74499900Y-10000000D02*
X76897000Y-7602900D01*
X76897000Y-7602900D02*
X124475000Y-7602900D01*
X124475000Y-7602900D02*
X124652900Y-7780800D01*
X124652900Y-7780800D02*
X125253800Y-7780800D01*
X125253800Y-7780800D02*
X125431700Y-7602900D01*
X125431700Y-7602900D02*
X194499900Y-7602900D01*
X194499900Y-7602900D02*
X194499900Y-10000000D01*
X199250000Y-3750000D02*
X195397100Y-7602900D01*
X195397100Y-7602900D02*
X194499900Y-7602900D01*
G04 #@! TO.N,/cv_bus3/GND*
X331500100Y-10000000D02*
X333881500Y-12381400D01*
X333881500Y-12381400D02*
X449118700Y-12381400D01*
X449118700Y-12381400D02*
X451500100Y-10000000D01*
X319750000Y-16250000D02*
X319750000Y-16028400D01*
X319750000Y-16028400D02*
X326911800Y-8866600D01*
X326911800Y-8866600D02*
X330366700Y-8866600D01*
X330366700Y-8866600D02*
X331500100Y-10000000D01*
X224499900Y-10000000D02*
X222525300Y-8025400D01*
X222525300Y-8025400D02*
X198116800Y-8025400D01*
X198116800Y-8025400D02*
X194989000Y-11153200D01*
X194989000Y-11153200D02*
X193981200Y-11153200D01*
X193981200Y-11153200D02*
X192998800Y-10170800D01*
X192998800Y-10170800D02*
X192998800Y-9840600D01*
X192998800Y-9840600D02*
X191211500Y-8053300D01*
X191211500Y-8053300D02*
X169071900Y-8053300D01*
X169071900Y-8053300D02*
X165186500Y-11938700D01*
X165186500Y-11938700D02*
X106438600Y-11938700D01*
X106438600Y-11938700D02*
X104499900Y-10000000D01*
G04 #@! TO.N,Net-(R_Split_1_1-Pad2)*
X87245300Y-16250000D02*
X89059500Y-14435800D01*
X89059500Y-14435800D02*
X319266100Y-14435800D01*
X319266100Y-14435800D02*
X326535000Y-7166900D01*
X326535000Y-7166900D02*
X363414600Y-7166900D01*
X363414600Y-7166900D02*
X363859500Y-6722000D01*
X363859500Y-6722000D02*
X483109900Y-6722000D01*
X483109900Y-6722000D02*
X484251100Y-7863200D01*
X484251100Y-7863200D02*
X511832800Y-7863200D01*
X511832800Y-7863200D02*
X513164700Y-6531300D01*
X513164700Y-6531300D02*
X513164700Y-6250000D01*
X86120000Y-16250000D02*
X87245300Y-16250000D01*
X514290000Y-6250000D02*
X513164700Y-6250000D01*
G04 #@! TO.N,Net-(R_Split_1_1-Pad1)*
X78500000Y-10000000D02*
X80446700Y-8053300D01*
X80446700Y-8053300D02*
X124288500Y-8053300D01*
X124288500Y-8053300D02*
X124466300Y-8231100D01*
X124466300Y-8231100D02*
X125440400Y-8231100D01*
X125440400Y-8231100D02*
X125618200Y-8053300D01*
X125618200Y-8053300D02*
X151054600Y-8053300D01*
X151054600Y-8053300D02*
X153001300Y-10000000D01*
G04 #@! TO.N,Net-(R_Split_2_1-Pad2)*
X207995300Y-10000000D02*
X210398600Y-12403300D01*
X210398600Y-12403300D02*
X294323700Y-12403300D01*
X294323700Y-12403300D02*
X298685100Y-8041900D01*
X298685100Y-8041900D02*
X314356800Y-8041900D01*
X314356800Y-8041900D02*
X317446800Y-11131900D01*
X317446800Y-11131900D02*
X320659300Y-11131900D01*
X320659300Y-11131900D02*
X325549500Y-6241700D01*
X325549500Y-6241700D02*
X362972900Y-6241700D01*
X362972900Y-6241700D02*
X363393200Y-5821400D01*
X363393200Y-5821400D02*
X502558600Y-5821400D01*
X502558600Y-5821400D02*
X503273500Y-5106500D01*
X503273500Y-5106500D02*
X507222500Y-5106500D01*
X507222500Y-5106500D02*
X508084700Y-5968700D01*
X508084700Y-5968700D02*
X508084700Y-6250000D01*
X206870000Y-10000000D02*
X207995300Y-10000000D01*
X509210000Y-6250000D02*
X508084700Y-6250000D01*
G04 #@! TO.N,Net-(R_Split_2_1-Pad1)*
X356682800Y-9487200D02*
X357319600Y-8850400D01*
X357319600Y-8850400D02*
X365077900Y-8850400D01*
X365077900Y-8850400D02*
X365855300Y-8073000D01*
X365855300Y-8073000D02*
X431071700Y-8073000D01*
X431071700Y-8073000D02*
X432998700Y-10000000D01*
X199250000Y-10000000D02*
X202103600Y-12853600D01*
X202103600Y-12853600D02*
X310145100Y-12853600D01*
X310145100Y-12853600D02*
X312998700Y-10000000D01*
X63001300Y-10000000D02*
X65840600Y-12839300D01*
X65840600Y-12839300D02*
X180162000Y-12839300D01*
X180162000Y-12839300D02*
X183001300Y-10000000D01*
G04 #@! TO.N,Net-(R_Split_3_1-Pad1)*
X319750000Y-10000000D02*
X317341600Y-7591600D01*
X317341600Y-7591600D02*
X270285200Y-7591600D01*
X270285200Y-7591600D02*
X265923900Y-11952900D01*
X265923900Y-11952900D02*
X214954200Y-11952900D01*
X214954200Y-11952900D02*
X213001300Y-10000000D01*
X93001300Y-10000000D02*
X95390300Y-12389000D01*
X95390300Y-12389000D02*
X166558700Y-12389000D01*
X166558700Y-12389000D02*
X170121700Y-8826000D01*
X170121700Y-8826000D02*
X183667400Y-8826000D01*
X183667400Y-8826000D02*
X186772600Y-11931200D01*
X186772600Y-11931200D02*
X195365500Y-11931200D01*
X195365500Y-11931200D02*
X198482700Y-8814000D01*
X198482700Y-8814000D02*
X211815300Y-8814000D01*
X211815300Y-8814000D02*
X213001300Y-10000000D01*
X462998700Y-10000000D02*
X460621300Y-7622600D01*
X460621300Y-7622600D02*
X364770700Y-7622600D01*
X364770700Y-7622600D02*
X364320400Y-8072900D01*
X364320400Y-8072900D02*
X344925800Y-8072900D01*
X344925800Y-8072900D02*
X342998700Y-10000000D01*
G04 #@! TO.N,Net-(R_Split_3_1-Pad2)*
X327370000Y-10000000D02*
X327370000Y-11125300D01*
X330090800Y-14654500D02*
X328495300Y-16250000D01*
X508084700Y-13870000D02*
X508084700Y-14151300D01*
X508084700Y-14151300D02*
X507224200Y-15011800D01*
X507224200Y-15011800D02*
X470017900Y-15011800D01*
X470017900Y-15011800D02*
X469660600Y-14654500D01*
X469660600Y-14654500D02*
X330090800Y-14654500D01*
X330090800Y-14654500D02*
X330090800Y-13846100D01*
X330090800Y-13846100D02*
X327370000Y-11125300D01*
X327370000Y-16250000D02*
X328495300Y-16250000D01*
X509210000Y-13870000D02*
X508084700Y-13870000D01*
G04 #@! TO.N,Net-(R_Split_4_1-Pad1)*
X372998700Y-10000000D02*
X374929000Y-11930300D01*
X374929000Y-11930300D02*
X436569700Y-11930300D01*
X436569700Y-11930300D02*
X438500000Y-10000000D01*
G04 #@! TO.N,Net-(R_Split_4_1-Pad2)*
X513164700Y-13870000D02*
X513164700Y-14151300D01*
X513164700Y-14151300D02*
X508840600Y-18475400D01*
X508840600Y-18475400D02*
X449470700Y-18475400D01*
X449470700Y-18475400D02*
X447245300Y-16250000D01*
X446120000Y-16250000D02*
X447245300Y-16250000D01*
X514290000Y-13870000D02*
X513164700Y-13870000D01*
G04 #@! TD*
D24*
G04 #@! TO.N,/GND*
G36*
X37922577Y-1268422D02*
X37897765Y-1251843D01*
X37650000Y-1202560D01*
X35850000Y-1202560D01*
X35602235Y-1251843D01*
X35392191Y-1392191D01*
X35251843Y-1602235D01*
X35202560Y-1850000D01*
X35202560Y-3650000D01*
X35251843Y-3897765D01*
X35392191Y-4107809D01*
X35602235Y-4248157D01*
X35850000Y-4297440D01*
X37650000Y-4297440D01*
X37897765Y-4248157D01*
X38107809Y-4107809D01*
X38248157Y-3897765D01*
X38251275Y-3882092D01*
X38420493Y-4051310D01*
X38984670Y-4285000D01*
X39206900Y-4285000D01*
X39206900Y-8080768D01*
X38444569Y-7765000D01*
X37555431Y-7765000D01*
X36733974Y-8105259D01*
X36105259Y-8733974D01*
X35765000Y-9555431D01*
X35765000Y-10444569D01*
X36105259Y-11266026D01*
X36733974Y-11894741D01*
X37555431Y-12235000D01*
X38444569Y-12235000D01*
X39206901Y-11919231D01*
X39206901Y-12492997D01*
X36265528Y-15434371D01*
X36202072Y-15476771D01*
X36159672Y-15540227D01*
X36159671Y-15540228D01*
X36051204Y-15702560D01*
X35850000Y-15702560D01*
X35602235Y-15751843D01*
X35392191Y-15892191D01*
X35251843Y-16102235D01*
X35202560Y-16350000D01*
X35202560Y-18150000D01*
X35251843Y-18397765D01*
X35392191Y-18607809D01*
X35602235Y-18748157D01*
X35850000Y-18797440D01*
X37650000Y-18797440D01*
X37897765Y-18748157D01*
X38107809Y-18607809D01*
X38248157Y-18397765D01*
X38251275Y-18382092D01*
X38420493Y-18551310D01*
X38984670Y-18785000D01*
X39595330Y-18785000D01*
X40159507Y-18551310D01*
X40591310Y-18119507D01*
X40825000Y-17555330D01*
X40825000Y-16944670D01*
X40591310Y-16380493D01*
X40159507Y-15948690D01*
X39595330Y-15715000D01*
X38984670Y-15715000D01*
X38420493Y-15948690D01*
X38251275Y-16117908D01*
X38248157Y-16102235D01*
X38107809Y-15892191D01*
X38017592Y-15831909D01*
X40451373Y-13398129D01*
X40514829Y-13355729D01*
X40682804Y-13104337D01*
X40726900Y-12882652D01*
X40726900Y-12882648D01*
X40741788Y-12807800D01*
X40726900Y-12732952D01*
X40726900Y-11260233D01*
X41207321Y-11459230D01*
X41787839Y-11459230D01*
X42324167Y-11237075D01*
X42734655Y-10826587D01*
X42956810Y-10290259D01*
X42956810Y-9709741D01*
X42734655Y-9173413D01*
X42324167Y-8762925D01*
X41787839Y-8540770D01*
X41207321Y-8540770D01*
X40726900Y-8739767D01*
X40726900Y-3501746D01*
X40741788Y-3426899D01*
X40726900Y-3352052D01*
X40726900Y-3352048D01*
X40718853Y-3311592D01*
X40825000Y-3055330D01*
X40825000Y-2444670D01*
X40591310Y-1880493D01*
X40542117Y-1831300D01*
X65206280Y-1831300D01*
X65202560Y-1850000D01*
X65202560Y-3650000D01*
X65251843Y-3897765D01*
X65392191Y-4107809D01*
X65602235Y-4248157D01*
X65850000Y-4297440D01*
X67650000Y-4297440D01*
X67897765Y-4248157D01*
X68107809Y-4107809D01*
X68248157Y-3897765D01*
X68251275Y-3882092D01*
X68420493Y-4051310D01*
X68984670Y-4285000D01*
X69595330Y-4285000D01*
X70159507Y-4051310D01*
X70591310Y-3619507D01*
X70655490Y-3464561D01*
X77195000Y-3464561D01*
X77195000Y-4035439D01*
X77413466Y-4562862D01*
X77817138Y-4966534D01*
X78344561Y-5185000D01*
X78915439Y-5185000D01*
X79442862Y-4966534D01*
X79846534Y-4562862D01*
X80065000Y-4035439D01*
X80065000Y-3464561D01*
X79846534Y-2937138D01*
X79442862Y-2533466D01*
X78915439Y-2315000D01*
X78344561Y-2315000D01*
X77817138Y-2533466D01*
X77413466Y-2937138D01*
X77195000Y-3464561D01*
X70655490Y-3464561D01*
X70825000Y-3055330D01*
X70825000Y-2444670D01*
X70591310Y-1880493D01*
X70542117Y-1831300D01*
X88219198Y-1831300D01*
X87304804Y-2745695D01*
X87284577Y-2715423D01*
X86809909Y-2398260D01*
X86391333Y-2315000D01*
X86108667Y-2315000D01*
X85690091Y-2398260D01*
X85215423Y-2715423D01*
X84898260Y-3190091D01*
X84786887Y-3750000D01*
X84898260Y-4309909D01*
X85215423Y-4784577D01*
X85690091Y-5101740D01*
X86108667Y-5185000D01*
X86391333Y-5185000D01*
X86809909Y-5101740D01*
X87284577Y-4784577D01*
X87470786Y-4505896D01*
X87671837Y-4465904D01*
X87923229Y-4297929D01*
X87965631Y-4234470D01*
X89915502Y-2284600D01*
X95202560Y-2284600D01*
X95202560Y-3650000D01*
X95251843Y-3897765D01*
X95392191Y-4107809D01*
X95602235Y-4248157D01*
X95850000Y-4297440D01*
X97650000Y-4297440D01*
X97897765Y-4248157D01*
X98107809Y-4107809D01*
X98248157Y-3897765D01*
X98251275Y-3882092D01*
X98420493Y-4051310D01*
X98984670Y-4285000D01*
X99595330Y-4285000D01*
X100159507Y-4051310D01*
X100591310Y-3619507D01*
X100825000Y-3055330D01*
X100825000Y-2444670D01*
X100758697Y-2284600D01*
X125202560Y-2284600D01*
X125202560Y-3650000D01*
X125251843Y-3897765D01*
X125392191Y-4107809D01*
X125602235Y-4248157D01*
X125850000Y-4297440D01*
X126636558Y-4297440D01*
X124913499Y-6020500D01*
X124747426Y-6020500D01*
X124367020Y-6178069D01*
X124075869Y-6469220D01*
X123921086Y-6842900D01*
X76971846Y-6842900D01*
X76896999Y-6828012D01*
X76822152Y-6842900D01*
X76822148Y-6842900D01*
X76600463Y-6886996D01*
X76561804Y-6912827D01*
X76412526Y-7012571D01*
X76412524Y-7012573D01*
X76349071Y-7054971D01*
X76306673Y-7118424D01*
X74856735Y-8568363D01*
X74790119Y-8540770D01*
X74209601Y-8540770D01*
X73673273Y-8762925D01*
X73262785Y-9173413D01*
X73040630Y-9709741D01*
X73040630Y-10290259D01*
X73262785Y-10826587D01*
X73673273Y-11237075D01*
X74209601Y-11459230D01*
X74790119Y-11459230D01*
X75326447Y-11237075D01*
X75736935Y-10826587D01*
X75959090Y-10290259D01*
X75959090Y-9709741D01*
X75931520Y-9643182D01*
X77211803Y-8362900D01*
X79062298Y-8362900D01*
X78838302Y-8586897D01*
X78785439Y-8565000D01*
X78214561Y-8565000D01*
X77687138Y-8783466D01*
X77283466Y-9187138D01*
X77065000Y-9714561D01*
X77065000Y-10285439D01*
X77283466Y-10812862D01*
X77687138Y-11216534D01*
X78214561Y-11435000D01*
X78785439Y-11435000D01*
X79312862Y-11216534D01*
X79716534Y-10812862D01*
X79935000Y-10285439D01*
X79935000Y-9714561D01*
X79913103Y-9661698D01*
X80761502Y-8813300D01*
X85313091Y-8813300D01*
X85085423Y-8965423D01*
X84768260Y-9440091D01*
X84656887Y-10000000D01*
X84768260Y-10559909D01*
X85085423Y-11034577D01*
X85560091Y-11351740D01*
X85978667Y-11435000D01*
X86261333Y-11435000D01*
X86679909Y-11351740D01*
X87154577Y-11034577D01*
X87471740Y-10559909D01*
X87583113Y-10000000D01*
X87471740Y-9440091D01*
X87154577Y-8965423D01*
X86926909Y-8813300D01*
X92124318Y-8813300D01*
X91764205Y-9173413D01*
X91542050Y-9709741D01*
X91542050Y-10290259D01*
X91764205Y-10826587D01*
X92174693Y-11237075D01*
X92711021Y-11459230D01*
X93291539Y-11459230D01*
X93358141Y-11431642D01*
X94005798Y-12079300D01*
X68820462Y-12079300D01*
X69266026Y-11894741D01*
X69894741Y-11266026D01*
X70168634Y-10604791D01*
X70260505Y-10826587D01*
X70670993Y-11237075D01*
X71207321Y-11459230D01*
X71787839Y-11459230D01*
X72324167Y-11237075D01*
X72734655Y-10826587D01*
X72956810Y-10290259D01*
X72956810Y-9709741D01*
X72734655Y-9173413D01*
X72324167Y-8762925D01*
X71787839Y-8540770D01*
X71207321Y-8540770D01*
X70670993Y-8762925D01*
X70260505Y-9173413D01*
X70168634Y-9395209D01*
X69894741Y-8733974D01*
X69266026Y-8105259D01*
X68444569Y-7765000D01*
X67555431Y-7765000D01*
X66733974Y-8105259D01*
X66105259Y-8733974D01*
X65765000Y-9555431D01*
X65765000Y-10444569D01*
X66105259Y-11266026D01*
X66733974Y-11894741D01*
X67179538Y-12079300D01*
X66155402Y-12079300D01*
X64432934Y-10356833D01*
X64460510Y-10290259D01*
X64460510Y-9709741D01*
X64238355Y-9173413D01*
X63827867Y-8762925D01*
X63291539Y-8540770D01*
X62711021Y-8540770D01*
X62174693Y-8762925D01*
X61764205Y-9173413D01*
X61542050Y-9709741D01*
X61542050Y-10290259D01*
X61764205Y-10826587D01*
X62174693Y-11237075D01*
X62711021Y-11459230D01*
X63291539Y-11459230D01*
X63358141Y-11431642D01*
X65250271Y-13323773D01*
X65292671Y-13387229D01*
X65417594Y-13470700D01*
X49045403Y-13470700D01*
X45931520Y-10356819D01*
X45959090Y-10290259D01*
X45959090Y-9709741D01*
X45736935Y-9173413D01*
X45326447Y-8762925D01*
X44790119Y-8540770D01*
X44209601Y-8540770D01*
X43673273Y-8762925D01*
X43262785Y-9173413D01*
X43040630Y-9709741D01*
X43040630Y-10290259D01*
X43262785Y-10826587D01*
X43673273Y-11237075D01*
X44209601Y-11459230D01*
X44790119Y-11459230D01*
X44856735Y-11431637D01*
X48140273Y-14715176D01*
X48182671Y-14778629D01*
X48246124Y-14821027D01*
X48246126Y-14821029D01*
X48319101Y-14869789D01*
X48434063Y-14946604D01*
X48655748Y-14990700D01*
X48655752Y-14990700D01*
X48730599Y-15005588D01*
X48805446Y-14990700D01*
X76165899Y-14990700D01*
X77086896Y-15911699D01*
X77065000Y-15964561D01*
X77065000Y-16535439D01*
X77115849Y-16658200D01*
X72153102Y-16658200D01*
X71035131Y-15540230D01*
X70992729Y-15476771D01*
X70741337Y-15308796D01*
X70519652Y-15264700D01*
X70519647Y-15264700D01*
X70444800Y-15249812D01*
X70369953Y-15264700D01*
X68815846Y-15264700D01*
X68740999Y-15249812D01*
X68666152Y-15264700D01*
X68666148Y-15264700D01*
X68444463Y-15308796D01*
X68444461Y-15308797D01*
X68444462Y-15308797D01*
X68256526Y-15434371D01*
X68256524Y-15434373D01*
X68193071Y-15476771D01*
X68150673Y-15540225D01*
X67922516Y-15768381D01*
X67897765Y-15751843D01*
X67650000Y-15702560D01*
X65850000Y-15702560D01*
X65602235Y-15751843D01*
X65392191Y-15892191D01*
X65251843Y-16102235D01*
X65202560Y-16350000D01*
X65202560Y-18150000D01*
X65251843Y-18397765D01*
X65392191Y-18607809D01*
X65602235Y-18748157D01*
X65850000Y-18797440D01*
X67650000Y-18797440D01*
X67897765Y-18748157D01*
X68107809Y-18607809D01*
X68248157Y-18397765D01*
X68251275Y-18382092D01*
X68420493Y-18551310D01*
X68984670Y-18785000D01*
X69595330Y-18785000D01*
X69704838Y-18739640D01*
X69956571Y-18991373D01*
X69998971Y-19054829D01*
X70250363Y-19222804D01*
X70462496Y-19265000D01*
X735000Y-19265000D01*
X735000Y-17806123D01*
X1060817Y-17806123D01*
X1340988Y-18422392D01*
X1835668Y-18884534D01*
X2353878Y-19099175D01*
X2623000Y-18981125D01*
X2623000Y-17537000D01*
X2877000Y-17537000D01*
X2877000Y-18981125D01*
X3146122Y-19099175D01*
X3664332Y-18884534D01*
X4159012Y-18422392D01*
X4439183Y-17806123D01*
X4321604Y-17537000D01*
X2877000Y-17537000D01*
X2623000Y-17537000D01*
X1178396Y-17537000D01*
X1060817Y-17806123D01*
X735000Y-17806123D01*
X735000Y-17410000D01*
X5981010Y-17410000D01*
X6115666Y-18086963D01*
X6499135Y-18660865D01*
X7073037Y-19044334D01*
X7579120Y-19145000D01*
X7920880Y-19145000D01*
X8426963Y-19044334D01*
X9000865Y-18660865D01*
X9384334Y-18086963D01*
X9518990Y-17410000D01*
X9384334Y-16733037D01*
X9000865Y-16159135D01*
X8987194Y-16150000D01*
X11002560Y-16150000D01*
X11002560Y-17350000D01*
X11051843Y-17597765D01*
X11192191Y-17807809D01*
X11402235Y-17948157D01*
X11650000Y-17997440D01*
X12850000Y-17997440D01*
X13097765Y-17948157D01*
X13307809Y-17807809D01*
X13397030Y-17674282D01*
X13451178Y-17728430D01*
X13566871Y-17612737D01*
X13616383Y-17838164D01*
X14081036Y-17997807D01*
X14571413Y-17967482D01*
X14883617Y-17838164D01*
X14933130Y-17612735D01*
X14250000Y-16929605D01*
X14235858Y-16943748D01*
X14056253Y-16764143D01*
X14070395Y-16750000D01*
X14429605Y-16750000D01*
X15112735Y-17433130D01*
X15338164Y-17383617D01*
X15457682Y-17035750D01*
X18265000Y-17035750D01*
X18265000Y-17476310D01*
X18361673Y-17709699D01*
X18540302Y-17888327D01*
X18773691Y-17985000D01*
X19214250Y-17985000D01*
X19373000Y-17826250D01*
X19373000Y-16877000D01*
X18423750Y-16877000D01*
X18265000Y-17035750D01*
X15457682Y-17035750D01*
X15497807Y-16918964D01*
X15467482Y-16428587D01*
X15338164Y-16116383D01*
X15112735Y-16066870D01*
X14429605Y-16750000D01*
X14070395Y-16750000D01*
X14056253Y-16735858D01*
X14235858Y-16556253D01*
X14250000Y-16570395D01*
X14796705Y-16023690D01*
X18265000Y-16023690D01*
X18265000Y-16464250D01*
X18423750Y-16623000D01*
X19373000Y-16623000D01*
X19373000Y-15673750D01*
X19627000Y-15673750D01*
X19627000Y-16623000D01*
X19647000Y-16623000D01*
X19647000Y-16877000D01*
X19627000Y-16877000D01*
X19627000Y-17826250D01*
X19785750Y-17985000D01*
X20226309Y-17985000D01*
X20459698Y-17888327D01*
X20638327Y-17709699D01*
X20660241Y-17656794D01*
X20800429Y-17796982D01*
X21254343Y-17985000D01*
X21745657Y-17985000D01*
X22199571Y-17796982D01*
X22546982Y-17449571D01*
X22735000Y-16995657D01*
X22735000Y-16504343D01*
X22546982Y-16050429D01*
X22199571Y-15703018D01*
X21745657Y-15515000D01*
X21254343Y-15515000D01*
X20800429Y-15703018D01*
X20660241Y-15843206D01*
X20638327Y-15790301D01*
X20459698Y-15611673D01*
X20226309Y-15515000D01*
X19785750Y-15515000D01*
X19627000Y-15673750D01*
X19373000Y-15673750D01*
X19214250Y-15515000D01*
X18773691Y-15515000D01*
X18540302Y-15611673D01*
X18361673Y-15790301D01*
X18265000Y-16023690D01*
X14796705Y-16023690D01*
X14933130Y-15887265D01*
X14883617Y-15661836D01*
X14418964Y-15502193D01*
X13928587Y-15532518D01*
X13616383Y-15661836D01*
X13566871Y-15887263D01*
X13451178Y-15771570D01*
X13397030Y-15825718D01*
X13307809Y-15692191D01*
X13097765Y-15551843D01*
X12850000Y-15502560D01*
X11650000Y-15502560D01*
X11402235Y-15551843D01*
X11192191Y-15692191D01*
X11051843Y-15902235D01*
X11002560Y-16150000D01*
X8987194Y-16150000D01*
X8426963Y-15775666D01*
X7920880Y-15675000D01*
X7579120Y-15675000D01*
X7073037Y-15775666D01*
X6499135Y-16159135D01*
X6115666Y-16733037D01*
X5981010Y-17410000D01*
X735000Y-17410000D01*
X735000Y-17013877D01*
X1060817Y-17013877D01*
X1178396Y-17283000D01*
X2623000Y-17283000D01*
X2623000Y-15838875D01*
X2877000Y-15838875D01*
X2877000Y-17283000D01*
X4321604Y-17283000D01*
X4439183Y-17013877D01*
X4159012Y-16397608D01*
X3664332Y-15935466D01*
X3146122Y-15720825D01*
X2877000Y-15838875D01*
X2623000Y-15838875D01*
X2353878Y-15720825D01*
X1835668Y-15935466D01*
X1340988Y-16397608D01*
X1060817Y-17013877D01*
X735000Y-17013877D01*
X735000Y-14150000D01*
X24752560Y-14150000D01*
X24752560Y-15850000D01*
X24801843Y-16097765D01*
X24942191Y-16307809D01*
X25152235Y-16448157D01*
X25400000Y-16497440D01*
X27100000Y-16497440D01*
X27347765Y-16448157D01*
X27557809Y-16307809D01*
X27698157Y-16097765D01*
X27707184Y-16052381D01*
X27719375Y-16070625D01*
X28210582Y-16398839D01*
X28643744Y-16485000D01*
X28936256Y-16485000D01*
X29369418Y-16398839D01*
X29860625Y-16070625D01*
X30188839Y-15579418D01*
X30304092Y-15000000D01*
X30188839Y-14420582D01*
X29860625Y-13929375D01*
X29541522Y-13716157D01*
X29671358Y-13655183D01*
X30061645Y-13226924D01*
X30231476Y-12816890D01*
X30110155Y-12587000D01*
X28917000Y-12587000D01*
X28917000Y-12607000D01*
X28663000Y-12607000D01*
X28663000Y-12587000D01*
X26377000Y-12587000D01*
X26377000Y-12607000D01*
X26123000Y-12607000D01*
X26123000Y-12587000D01*
X24929845Y-12587000D01*
X24808524Y-12816890D01*
X24978355Y-13226924D01*
X25255708Y-13531261D01*
X25152235Y-13551843D01*
X24942191Y-13692191D01*
X24801843Y-13902235D01*
X24752560Y-14150000D01*
X735000Y-14150000D01*
X735000Y-11214561D01*
X11815000Y-11214561D01*
X11815000Y-11785439D01*
X12033466Y-12312862D01*
X12437138Y-12716534D01*
X12964561Y-12935000D01*
X13535439Y-12935000D01*
X14062862Y-12716534D01*
X14271651Y-12507745D01*
X17421861Y-12507745D01*
X17495995Y-12753864D01*
X18033223Y-12946965D01*
X18603454Y-12919778D01*
X19004005Y-12753864D01*
X19078139Y-12507745D01*
X18250000Y-11679605D01*
X17421861Y-12507745D01*
X14271651Y-12507745D01*
X14466534Y-12312862D01*
X14685000Y-11785439D01*
X14685000Y-11283223D01*
X16803035Y-11283223D01*
X16830222Y-11853454D01*
X16996136Y-12254005D01*
X17242255Y-12328139D01*
X18070395Y-11500000D01*
X18429605Y-11500000D01*
X19257745Y-12328139D01*
X19503864Y-12254005D01*
X19696965Y-11716777D01*
X19669778Y-11146546D01*
X19503864Y-10745995D01*
X19257745Y-10671861D01*
X18429605Y-11500000D01*
X18070395Y-11500000D01*
X17242255Y-10671861D01*
X16996136Y-10745995D01*
X16803035Y-11283223D01*
X14685000Y-11283223D01*
X14685000Y-11214561D01*
X14466534Y-10687138D01*
X14271651Y-10492255D01*
X17421861Y-10492255D01*
X18250000Y-11320395D01*
X19078139Y-10492255D01*
X19013269Y-10276890D01*
X24808524Y-10276890D01*
X24978355Y-10686924D01*
X25368642Y-11115183D01*
X25527954Y-11190000D01*
X25368642Y-11264817D01*
X24978355Y-11693076D01*
X24808524Y-12103110D01*
X24929845Y-12333000D01*
X26123000Y-12333000D01*
X26123000Y-10047000D01*
X26377000Y-10047000D01*
X26377000Y-12333000D01*
X28663000Y-12333000D01*
X28663000Y-10047000D01*
X28917000Y-10047000D01*
X28917000Y-12333000D01*
X30110155Y-12333000D01*
X30231476Y-12103110D01*
X30061645Y-11693076D01*
X29671358Y-11264817D01*
X29512046Y-11190000D01*
X29671358Y-11115183D01*
X30061645Y-10686924D01*
X30231476Y-10276890D01*
X30110155Y-10047000D01*
X28917000Y-10047000D01*
X28663000Y-10047000D01*
X26377000Y-10047000D01*
X26123000Y-10047000D01*
X24929845Y-10047000D01*
X24808524Y-10276890D01*
X19013269Y-10276890D01*
X19004005Y-10246136D01*
X18466777Y-10053035D01*
X17896546Y-10080222D01*
X17495995Y-10246136D01*
X17421861Y-10492255D01*
X14271651Y-10492255D01*
X14062862Y-10283466D01*
X13535439Y-10065000D01*
X12964561Y-10065000D01*
X12437138Y-10283466D01*
X12033466Y-10687138D01*
X11815000Y-11214561D01*
X735000Y-11214561D01*
X735000Y-6150000D01*
X1002560Y-6150000D01*
X1002560Y-8350000D01*
X1051843Y-8597765D01*
X1192191Y-8807809D01*
X1402235Y-8948157D01*
X1650000Y-8997440D01*
X3850000Y-8997440D01*
X4097765Y-8948157D01*
X4307809Y-8807809D01*
X4448157Y-8597765D01*
X4497440Y-8350000D01*
X4497440Y-7948797D01*
X4723229Y-7797929D01*
X4765631Y-7734470D01*
X4964351Y-7535750D01*
X6015000Y-7535750D01*
X6015000Y-8476309D01*
X6111673Y-8709698D01*
X6290301Y-8888327D01*
X6523690Y-8985000D01*
X7464250Y-8985000D01*
X7623000Y-8826250D01*
X7623000Y-7377000D01*
X7877000Y-7377000D01*
X7877000Y-8826250D01*
X8035750Y-8985000D01*
X8976310Y-8985000D01*
X9209699Y-8888327D01*
X9388327Y-8709698D01*
X9485000Y-8476309D01*
X9485000Y-7535750D01*
X9326250Y-7377000D01*
X7877000Y-7377000D01*
X7623000Y-7377000D01*
X6173750Y-7377000D01*
X6015000Y-7535750D01*
X4964351Y-7535750D01*
X5285540Y-7214561D01*
X11815000Y-7214561D01*
X11815000Y-7785439D01*
X12033466Y-8312862D01*
X12437138Y-8716534D01*
X12964561Y-8935000D01*
X13535439Y-8935000D01*
X14062862Y-8716534D01*
X14271651Y-8507745D01*
X17421861Y-8507745D01*
X17495995Y-8753864D01*
X18033223Y-8946965D01*
X18603454Y-8919778D01*
X19004005Y-8753864D01*
X19078139Y-8507745D01*
X18250000Y-7679605D01*
X17421861Y-8507745D01*
X14271651Y-8507745D01*
X14466534Y-8312862D01*
X14685000Y-7785439D01*
X14685000Y-7283223D01*
X16803035Y-7283223D01*
X16830222Y-7853454D01*
X16996136Y-8254005D01*
X17242255Y-8328139D01*
X18070395Y-7500000D01*
X18429605Y-7500000D01*
X19257745Y-8328139D01*
X19503864Y-8254005D01*
X19689735Y-7736890D01*
X24808524Y-7736890D01*
X24978355Y-8146924D01*
X25368642Y-8575183D01*
X25527954Y-8650000D01*
X25368642Y-8724817D01*
X24978355Y-9153076D01*
X24808524Y-9563110D01*
X24929845Y-9793000D01*
X26123000Y-9793000D01*
X26123000Y-7507000D01*
X26377000Y-7507000D01*
X26377000Y-9793000D01*
X28663000Y-9793000D01*
X28663000Y-7507000D01*
X28917000Y-7507000D01*
X28917000Y-9793000D01*
X30110155Y-9793000D01*
X30154093Y-9709741D01*
X31542050Y-9709741D01*
X31542050Y-10290259D01*
X31764205Y-10826587D01*
X32174693Y-11237075D01*
X32711021Y-11459230D01*
X33291539Y-11459230D01*
X33827867Y-11237075D01*
X34238355Y-10826587D01*
X34460510Y-10290259D01*
X34460510Y-9709741D01*
X34238355Y-9173413D01*
X33827867Y-8762925D01*
X33291539Y-8540770D01*
X32711021Y-8540770D01*
X32174693Y-8762925D01*
X31764205Y-9173413D01*
X31542050Y-9709741D01*
X30154093Y-9709741D01*
X30231476Y-9563110D01*
X30061645Y-9153076D01*
X29671358Y-8724817D01*
X29512046Y-8650000D01*
X29671358Y-8575183D01*
X30061645Y-8146924D01*
X30231476Y-7736890D01*
X30110155Y-7507000D01*
X28917000Y-7507000D01*
X28663000Y-7507000D01*
X26377000Y-7507000D01*
X26123000Y-7507000D01*
X24929845Y-7507000D01*
X24808524Y-7736890D01*
X19689735Y-7736890D01*
X19696965Y-7716777D01*
X19669778Y-7146546D01*
X19503864Y-6745995D01*
X19257745Y-6671861D01*
X18429605Y-7500000D01*
X18070395Y-7500000D01*
X17242255Y-6671861D01*
X16996136Y-6745995D01*
X16803035Y-7283223D01*
X14685000Y-7283223D01*
X14685000Y-7214561D01*
X14466534Y-6687138D01*
X14271651Y-6492255D01*
X17421861Y-6492255D01*
X18250000Y-7320395D01*
X19078139Y-6492255D01*
X19004005Y-6246136D01*
X18466777Y-6053035D01*
X17896546Y-6080222D01*
X17495995Y-6246136D01*
X17421861Y-6492255D01*
X14271651Y-6492255D01*
X14062862Y-6283466D01*
X13535439Y-6065000D01*
X12964561Y-6065000D01*
X12437138Y-6283466D01*
X12033466Y-6687138D01*
X11815000Y-7214561D01*
X5285540Y-7214561D01*
X6015000Y-6485102D01*
X6015000Y-6964250D01*
X6173750Y-7123000D01*
X7623000Y-7123000D01*
X7623000Y-7103000D01*
X7877000Y-7103000D01*
X7877000Y-7123000D01*
X9326250Y-7123000D01*
X9485000Y-6964250D01*
X9485000Y-6023691D01*
X9388327Y-5790302D01*
X9209699Y-5611673D01*
X9181518Y-5600000D01*
X24971822Y-5600000D01*
X25179375Y-5910625D01*
X25498478Y-6123843D01*
X25368642Y-6184817D01*
X24978355Y-6613076D01*
X24808524Y-7023110D01*
X24929845Y-7253000D01*
X26123000Y-7253000D01*
X26123000Y-7233000D01*
X26377000Y-7233000D01*
X26377000Y-7253000D01*
X28663000Y-7253000D01*
X28663000Y-7233000D01*
X28917000Y-7233000D01*
X28917000Y-7253000D01*
X30110155Y-7253000D01*
X30231476Y-7023110D01*
X30061645Y-6613076D01*
X29671358Y-6184817D01*
X29541522Y-6123843D01*
X29860625Y-5910625D01*
X30188839Y-5419418D01*
X30304092Y-4840000D01*
X30188839Y-4260582D01*
X29860625Y-3769375D01*
X29369418Y-3441161D01*
X28936256Y-3355000D01*
X28643744Y-3355000D01*
X28210582Y-3441161D01*
X27719375Y-3769375D01*
X27520000Y-4067761D01*
X27320625Y-3769375D01*
X26829418Y-3441161D01*
X26396256Y-3355000D01*
X26103744Y-3355000D01*
X25670582Y-3441161D01*
X25179375Y-3769375D01*
X24971822Y-4080000D01*
X6660148Y-4080000D01*
X6585300Y-4065112D01*
X6510452Y-4080000D01*
X6510448Y-4080000D01*
X6336905Y-4114520D01*
X6288762Y-4124096D01*
X6123574Y-4234472D01*
X6037371Y-4292071D01*
X5994971Y-4355527D01*
X4448175Y-5902324D01*
X4448157Y-5902235D01*
X4307809Y-5692191D01*
X4097765Y-5551843D01*
X3850000Y-5502560D01*
X1650000Y-5502560D01*
X1402235Y-5551843D01*
X1192191Y-5692191D01*
X1051843Y-5902235D01*
X1002560Y-6150000D01*
X735000Y-6150000D01*
X735000Y-2250000D01*
X786887Y-2250000D01*
X898260Y-2809909D01*
X1215423Y-3284577D01*
X1690091Y-3601740D01*
X2108667Y-3685000D01*
X2391333Y-3685000D01*
X2809909Y-3601740D01*
X3284577Y-3284577D01*
X3601740Y-2809909D01*
X3713113Y-2250000D01*
X3656336Y-1964561D01*
X8435000Y-1964561D01*
X8435000Y-2535439D01*
X8653466Y-3062862D01*
X9057138Y-3466534D01*
X9584561Y-3685000D01*
X10155439Y-3685000D01*
X10682862Y-3466534D01*
X11086534Y-3062862D01*
X11305000Y-2535439D01*
X11305000Y-2250000D01*
X11666887Y-2250000D01*
X11778260Y-2809909D01*
X12095423Y-3284577D01*
X12570091Y-3601740D01*
X12988667Y-3685000D01*
X13271333Y-3685000D01*
X13689909Y-3601740D01*
X14164577Y-3284577D01*
X14481740Y-2809909D01*
X14593113Y-2250000D01*
X14536336Y-1964561D01*
X19315000Y-1964561D01*
X19315000Y-2535439D01*
X19533466Y-3062862D01*
X19937138Y-3466534D01*
X20464561Y-3685000D01*
X21035439Y-3685000D01*
X21562862Y-3466534D01*
X21966534Y-3062862D01*
X22185000Y-2535439D01*
X22185000Y-1964561D01*
X21966534Y-1437138D01*
X21562862Y-1033466D01*
X21035439Y-815000D01*
X20464561Y-815000D01*
X19937138Y-1033466D01*
X19533466Y-1437138D01*
X19315000Y-1964561D01*
X14536336Y-1964561D01*
X14481740Y-1690091D01*
X14164577Y-1215423D01*
X13689909Y-898260D01*
X13271333Y-815000D01*
X12988667Y-815000D01*
X12570091Y-898260D01*
X12095423Y-1215423D01*
X11778260Y-1690091D01*
X11666887Y-2250000D01*
X11305000Y-2250000D01*
X11305000Y-1964561D01*
X11086534Y-1437138D01*
X10682862Y-1033466D01*
X10155439Y-815000D01*
X9584561Y-815000D01*
X9057138Y-1033466D01*
X8653466Y-1437138D01*
X8435000Y-1964561D01*
X3656336Y-1964561D01*
X3601740Y-1690091D01*
X3284577Y-1215423D01*
X2809909Y-898260D01*
X2391333Y-815000D01*
X2108667Y-815000D01*
X1690091Y-898260D01*
X1215423Y-1215423D01*
X898260Y-1690091D01*
X786887Y-2250000D01*
X735000Y-2250000D01*
X735000Y-735000D01*
X38455998Y-735000D01*
X37922577Y-1268422D01*
X37922577Y-1268422D01*
G37*
X37922577Y-1268422D02*
X37897765Y-1251843D01*
X37650000Y-1202560D01*
X35850000Y-1202560D01*
X35602235Y-1251843D01*
X35392191Y-1392191D01*
X35251843Y-1602235D01*
X35202560Y-1850000D01*
X35202560Y-3650000D01*
X35251843Y-3897765D01*
X35392191Y-4107809D01*
X35602235Y-4248157D01*
X35850000Y-4297440D01*
X37650000Y-4297440D01*
X37897765Y-4248157D01*
X38107809Y-4107809D01*
X38248157Y-3897765D01*
X38251275Y-3882092D01*
X38420493Y-4051310D01*
X38984670Y-4285000D01*
X39206900Y-4285000D01*
X39206900Y-8080768D01*
X38444569Y-7765000D01*
X37555431Y-7765000D01*
X36733974Y-8105259D01*
X36105259Y-8733974D01*
X35765000Y-9555431D01*
X35765000Y-10444569D01*
X36105259Y-11266026D01*
X36733974Y-11894741D01*
X37555431Y-12235000D01*
X38444569Y-12235000D01*
X39206901Y-11919231D01*
X39206901Y-12492997D01*
X36265528Y-15434371D01*
X36202072Y-15476771D01*
X36159672Y-15540227D01*
X36159671Y-15540228D01*
X36051204Y-15702560D01*
X35850000Y-15702560D01*
X35602235Y-15751843D01*
X35392191Y-15892191D01*
X35251843Y-16102235D01*
X35202560Y-16350000D01*
X35202560Y-18150000D01*
X35251843Y-18397765D01*
X35392191Y-18607809D01*
X35602235Y-18748157D01*
X35850000Y-18797440D01*
X37650000Y-18797440D01*
X37897765Y-18748157D01*
X38107809Y-18607809D01*
X38248157Y-18397765D01*
X38251275Y-18382092D01*
X38420493Y-18551310D01*
X38984670Y-18785000D01*
X39595330Y-18785000D01*
X40159507Y-18551310D01*
X40591310Y-18119507D01*
X40825000Y-17555330D01*
X40825000Y-16944670D01*
X40591310Y-16380493D01*
X40159507Y-15948690D01*
X39595330Y-15715000D01*
X38984670Y-15715000D01*
X38420493Y-15948690D01*
X38251275Y-16117908D01*
X38248157Y-16102235D01*
X38107809Y-15892191D01*
X38017592Y-15831909D01*
X40451373Y-13398129D01*
X40514829Y-13355729D01*
X40682804Y-13104337D01*
X40726900Y-12882652D01*
X40726900Y-12882648D01*
X40741788Y-12807800D01*
X40726900Y-12732952D01*
X40726900Y-11260233D01*
X41207321Y-11459230D01*
X41787839Y-11459230D01*
X42324167Y-11237075D01*
X42734655Y-10826587D01*
X42956810Y-10290259D01*
X42956810Y-9709741D01*
X42734655Y-9173413D01*
X42324167Y-8762925D01*
X41787839Y-8540770D01*
X41207321Y-8540770D01*
X40726900Y-8739767D01*
X40726900Y-3501746D01*
X40741788Y-3426899D01*
X40726900Y-3352052D01*
X40726900Y-3352048D01*
X40718853Y-3311592D01*
X40825000Y-3055330D01*
X40825000Y-2444670D01*
X40591310Y-1880493D01*
X40542117Y-1831300D01*
X65206280Y-1831300D01*
X65202560Y-1850000D01*
X65202560Y-3650000D01*
X65251843Y-3897765D01*
X65392191Y-4107809D01*
X65602235Y-4248157D01*
X65850000Y-4297440D01*
X67650000Y-4297440D01*
X67897765Y-4248157D01*
X68107809Y-4107809D01*
X68248157Y-3897765D01*
X68251275Y-3882092D01*
X68420493Y-4051310D01*
X68984670Y-4285000D01*
X69595330Y-4285000D01*
X70159507Y-4051310D01*
X70591310Y-3619507D01*
X70655490Y-3464561D01*
X77195000Y-3464561D01*
X77195000Y-4035439D01*
X77413466Y-4562862D01*
X77817138Y-4966534D01*
X78344561Y-5185000D01*
X78915439Y-5185000D01*
X79442862Y-4966534D01*
X79846534Y-4562862D01*
X80065000Y-4035439D01*
X80065000Y-3464561D01*
X79846534Y-2937138D01*
X79442862Y-2533466D01*
X78915439Y-2315000D01*
X78344561Y-2315000D01*
X77817138Y-2533466D01*
X77413466Y-2937138D01*
X77195000Y-3464561D01*
X70655490Y-3464561D01*
X70825000Y-3055330D01*
X70825000Y-2444670D01*
X70591310Y-1880493D01*
X70542117Y-1831300D01*
X88219198Y-1831300D01*
X87304804Y-2745695D01*
X87284577Y-2715423D01*
X86809909Y-2398260D01*
X86391333Y-2315000D01*
X86108667Y-2315000D01*
X85690091Y-2398260D01*
X85215423Y-2715423D01*
X84898260Y-3190091D01*
X84786887Y-3750000D01*
X84898260Y-4309909D01*
X85215423Y-4784577D01*
X85690091Y-5101740D01*
X86108667Y-5185000D01*
X86391333Y-5185000D01*
X86809909Y-5101740D01*
X87284577Y-4784577D01*
X87470786Y-4505896D01*
X87671837Y-4465904D01*
X87923229Y-4297929D01*
X87965631Y-4234470D01*
X89915502Y-2284600D01*
X95202560Y-2284600D01*
X95202560Y-3650000D01*
X95251843Y-3897765D01*
X95392191Y-4107809D01*
X95602235Y-4248157D01*
X95850000Y-4297440D01*
X97650000Y-4297440D01*
X97897765Y-4248157D01*
X98107809Y-4107809D01*
X98248157Y-3897765D01*
X98251275Y-3882092D01*
X98420493Y-4051310D01*
X98984670Y-4285000D01*
X99595330Y-4285000D01*
X100159507Y-4051310D01*
X100591310Y-3619507D01*
X100825000Y-3055330D01*
X100825000Y-2444670D01*
X100758697Y-2284600D01*
X125202560Y-2284600D01*
X125202560Y-3650000D01*
X125251843Y-3897765D01*
X125392191Y-4107809D01*
X125602235Y-4248157D01*
X125850000Y-4297440D01*
X126636558Y-4297440D01*
X124913499Y-6020500D01*
X124747426Y-6020500D01*
X124367020Y-6178069D01*
X124075869Y-6469220D01*
X123921086Y-6842900D01*
X76971846Y-6842900D01*
X76896999Y-6828012D01*
X76822152Y-6842900D01*
X76822148Y-6842900D01*
X76600463Y-6886996D01*
X76561804Y-6912827D01*
X76412526Y-7012571D01*
X76412524Y-7012573D01*
X76349071Y-7054971D01*
X76306673Y-7118424D01*
X74856735Y-8568363D01*
X74790119Y-8540770D01*
X74209601Y-8540770D01*
X73673273Y-8762925D01*
X73262785Y-9173413D01*
X73040630Y-9709741D01*
X73040630Y-10290259D01*
X73262785Y-10826587D01*
X73673273Y-11237075D01*
X74209601Y-11459230D01*
X74790119Y-11459230D01*
X75326447Y-11237075D01*
X75736935Y-10826587D01*
X75959090Y-10290259D01*
X75959090Y-9709741D01*
X75931520Y-9643182D01*
X77211803Y-8362900D01*
X79062298Y-8362900D01*
X78838302Y-8586897D01*
X78785439Y-8565000D01*
X78214561Y-8565000D01*
X77687138Y-8783466D01*
X77283466Y-9187138D01*
X77065000Y-9714561D01*
X77065000Y-10285439D01*
X77283466Y-10812862D01*
X77687138Y-11216534D01*
X78214561Y-11435000D01*
X78785439Y-11435000D01*
X79312862Y-11216534D01*
X79716534Y-10812862D01*
X79935000Y-10285439D01*
X79935000Y-9714561D01*
X79913103Y-9661698D01*
X80761502Y-8813300D01*
X85313091Y-8813300D01*
X85085423Y-8965423D01*
X84768260Y-9440091D01*
X84656887Y-10000000D01*
X84768260Y-10559909D01*
X85085423Y-11034577D01*
X85560091Y-11351740D01*
X85978667Y-11435000D01*
X86261333Y-11435000D01*
X86679909Y-11351740D01*
X87154577Y-11034577D01*
X87471740Y-10559909D01*
X87583113Y-10000000D01*
X87471740Y-9440091D01*
X87154577Y-8965423D01*
X86926909Y-8813300D01*
X92124318Y-8813300D01*
X91764205Y-9173413D01*
X91542050Y-9709741D01*
X91542050Y-10290259D01*
X91764205Y-10826587D01*
X92174693Y-11237075D01*
X92711021Y-11459230D01*
X93291539Y-11459230D01*
X93358141Y-11431642D01*
X94005798Y-12079300D01*
X68820462Y-12079300D01*
X69266026Y-11894741D01*
X69894741Y-11266026D01*
X70168634Y-10604791D01*
X70260505Y-10826587D01*
X70670993Y-11237075D01*
X71207321Y-11459230D01*
X71787839Y-11459230D01*
X72324167Y-11237075D01*
X72734655Y-10826587D01*
X72956810Y-10290259D01*
X72956810Y-9709741D01*
X72734655Y-9173413D01*
X72324167Y-8762925D01*
X71787839Y-8540770D01*
X71207321Y-8540770D01*
X70670993Y-8762925D01*
X70260505Y-9173413D01*
X70168634Y-9395209D01*
X69894741Y-8733974D01*
X69266026Y-8105259D01*
X68444569Y-7765000D01*
X67555431Y-7765000D01*
X66733974Y-8105259D01*
X66105259Y-8733974D01*
X65765000Y-9555431D01*
X65765000Y-10444569D01*
X66105259Y-11266026D01*
X66733974Y-11894741D01*
X67179538Y-12079300D01*
X66155402Y-12079300D01*
X64432934Y-10356833D01*
X64460510Y-10290259D01*
X64460510Y-9709741D01*
X64238355Y-9173413D01*
X63827867Y-8762925D01*
X63291539Y-8540770D01*
X62711021Y-8540770D01*
X62174693Y-8762925D01*
X61764205Y-9173413D01*
X61542050Y-9709741D01*
X61542050Y-10290259D01*
X61764205Y-10826587D01*
X62174693Y-11237075D01*
X62711021Y-11459230D01*
X63291539Y-11459230D01*
X63358141Y-11431642D01*
X65250271Y-13323773D01*
X65292671Y-13387229D01*
X65417594Y-13470700D01*
X49045403Y-13470700D01*
X45931520Y-10356819D01*
X45959090Y-10290259D01*
X45959090Y-9709741D01*
X45736935Y-9173413D01*
X45326447Y-8762925D01*
X44790119Y-8540770D01*
X44209601Y-8540770D01*
X43673273Y-8762925D01*
X43262785Y-9173413D01*
X43040630Y-9709741D01*
X43040630Y-10290259D01*
X43262785Y-10826587D01*
X43673273Y-11237075D01*
X44209601Y-11459230D01*
X44790119Y-11459230D01*
X44856735Y-11431637D01*
X48140273Y-14715176D01*
X48182671Y-14778629D01*
X48246124Y-14821027D01*
X48246126Y-14821029D01*
X48319101Y-14869789D01*
X48434063Y-14946604D01*
X48655748Y-14990700D01*
X48655752Y-14990700D01*
X48730599Y-15005588D01*
X48805446Y-14990700D01*
X76165899Y-14990700D01*
X77086896Y-15911699D01*
X77065000Y-15964561D01*
X77065000Y-16535439D01*
X77115849Y-16658200D01*
X72153102Y-16658200D01*
X71035131Y-15540230D01*
X70992729Y-15476771D01*
X70741337Y-15308796D01*
X70519652Y-15264700D01*
X70519647Y-15264700D01*
X70444800Y-15249812D01*
X70369953Y-15264700D01*
X68815846Y-15264700D01*
X68740999Y-15249812D01*
X68666152Y-15264700D01*
X68666148Y-15264700D01*
X68444463Y-15308796D01*
X68444461Y-15308797D01*
X68444462Y-15308797D01*
X68256526Y-15434371D01*
X68256524Y-15434373D01*
X68193071Y-15476771D01*
X68150673Y-15540225D01*
X67922516Y-15768381D01*
X67897765Y-15751843D01*
X67650000Y-15702560D01*
X65850000Y-15702560D01*
X65602235Y-15751843D01*
X65392191Y-15892191D01*
X65251843Y-16102235D01*
X65202560Y-16350000D01*
X65202560Y-18150000D01*
X65251843Y-18397765D01*
X65392191Y-18607809D01*
X65602235Y-18748157D01*
X65850000Y-18797440D01*
X67650000Y-18797440D01*
X67897765Y-18748157D01*
X68107809Y-18607809D01*
X68248157Y-18397765D01*
X68251275Y-18382092D01*
X68420493Y-18551310D01*
X68984670Y-18785000D01*
X69595330Y-18785000D01*
X69704838Y-18739640D01*
X69956571Y-18991373D01*
X69998971Y-19054829D01*
X70250363Y-19222804D01*
X70462496Y-19265000D01*
X735000Y-19265000D01*
X735000Y-17806123D01*
X1060817Y-17806123D01*
X1340988Y-18422392D01*
X1835668Y-18884534D01*
X2353878Y-19099175D01*
X2623000Y-18981125D01*
X2623000Y-17537000D01*
X2877000Y-17537000D01*
X2877000Y-18981125D01*
X3146122Y-19099175D01*
X3664332Y-18884534D01*
X4159012Y-18422392D01*
X4439183Y-17806123D01*
X4321604Y-17537000D01*
X2877000Y-17537000D01*
X2623000Y-17537000D01*
X1178396Y-17537000D01*
X1060817Y-17806123D01*
X735000Y-17806123D01*
X735000Y-17410000D01*
X5981010Y-17410000D01*
X6115666Y-18086963D01*
X6499135Y-18660865D01*
X7073037Y-19044334D01*
X7579120Y-19145000D01*
X7920880Y-19145000D01*
X8426963Y-19044334D01*
X9000865Y-18660865D01*
X9384334Y-18086963D01*
X9518990Y-17410000D01*
X9384334Y-16733037D01*
X9000865Y-16159135D01*
X8987194Y-16150000D01*
X11002560Y-16150000D01*
X11002560Y-17350000D01*
X11051843Y-17597765D01*
X11192191Y-17807809D01*
X11402235Y-17948157D01*
X11650000Y-17997440D01*
X12850000Y-17997440D01*
X13097765Y-17948157D01*
X13307809Y-17807809D01*
X13397030Y-17674282D01*
X13451178Y-17728430D01*
X13566871Y-17612737D01*
X13616383Y-17838164D01*
X14081036Y-17997807D01*
X14571413Y-17967482D01*
X14883617Y-17838164D01*
X14933130Y-17612735D01*
X14250000Y-16929605D01*
X14235858Y-16943748D01*
X14056253Y-16764143D01*
X14070395Y-16750000D01*
X14429605Y-16750000D01*
X15112735Y-17433130D01*
X15338164Y-17383617D01*
X15457682Y-17035750D01*
X18265000Y-17035750D01*
X18265000Y-17476310D01*
X18361673Y-17709699D01*
X18540302Y-17888327D01*
X18773691Y-17985000D01*
X19214250Y-17985000D01*
X19373000Y-17826250D01*
X19373000Y-16877000D01*
X18423750Y-16877000D01*
X18265000Y-17035750D01*
X15457682Y-17035750D01*
X15497807Y-16918964D01*
X15467482Y-16428587D01*
X15338164Y-16116383D01*
X15112735Y-16066870D01*
X14429605Y-16750000D01*
X14070395Y-16750000D01*
X14056253Y-16735858D01*
X14235858Y-16556253D01*
X14250000Y-16570395D01*
X14796705Y-16023690D01*
X18265000Y-16023690D01*
X18265000Y-16464250D01*
X18423750Y-16623000D01*
X19373000Y-16623000D01*
X19373000Y-15673750D01*
X19627000Y-15673750D01*
X19627000Y-16623000D01*
X19647000Y-16623000D01*
X19647000Y-16877000D01*
X19627000Y-16877000D01*
X19627000Y-17826250D01*
X19785750Y-17985000D01*
X20226309Y-17985000D01*
X20459698Y-17888327D01*
X20638327Y-17709699D01*
X20660241Y-17656794D01*
X20800429Y-17796982D01*
X21254343Y-17985000D01*
X21745657Y-17985000D01*
X22199571Y-17796982D01*
X22546982Y-17449571D01*
X22735000Y-16995657D01*
X22735000Y-16504343D01*
X22546982Y-16050429D01*
X22199571Y-15703018D01*
X21745657Y-15515000D01*
X21254343Y-15515000D01*
X20800429Y-15703018D01*
X20660241Y-15843206D01*
X20638327Y-15790301D01*
X20459698Y-15611673D01*
X20226309Y-15515000D01*
X19785750Y-15515000D01*
X19627000Y-15673750D01*
X19373000Y-15673750D01*
X19214250Y-15515000D01*
X18773691Y-15515000D01*
X18540302Y-15611673D01*
X18361673Y-15790301D01*
X18265000Y-16023690D01*
X14796705Y-16023690D01*
X14933130Y-15887265D01*
X14883617Y-15661836D01*
X14418964Y-15502193D01*
X13928587Y-15532518D01*
X13616383Y-15661836D01*
X13566871Y-15887263D01*
X13451178Y-15771570D01*
X13397030Y-15825718D01*
X13307809Y-15692191D01*
X13097765Y-15551843D01*
X12850000Y-15502560D01*
X11650000Y-15502560D01*
X11402235Y-15551843D01*
X11192191Y-15692191D01*
X11051843Y-15902235D01*
X11002560Y-16150000D01*
X8987194Y-16150000D01*
X8426963Y-15775666D01*
X7920880Y-15675000D01*
X7579120Y-15675000D01*
X7073037Y-15775666D01*
X6499135Y-16159135D01*
X6115666Y-16733037D01*
X5981010Y-17410000D01*
X735000Y-17410000D01*
X735000Y-17013877D01*
X1060817Y-17013877D01*
X1178396Y-17283000D01*
X2623000Y-17283000D01*
X2623000Y-15838875D01*
X2877000Y-15838875D01*
X2877000Y-17283000D01*
X4321604Y-17283000D01*
X4439183Y-17013877D01*
X4159012Y-16397608D01*
X3664332Y-15935466D01*
X3146122Y-15720825D01*
X2877000Y-15838875D01*
X2623000Y-15838875D01*
X2353878Y-15720825D01*
X1835668Y-15935466D01*
X1340988Y-16397608D01*
X1060817Y-17013877D01*
X735000Y-17013877D01*
X735000Y-14150000D01*
X24752560Y-14150000D01*
X24752560Y-15850000D01*
X24801843Y-16097765D01*
X24942191Y-16307809D01*
X25152235Y-16448157D01*
X25400000Y-16497440D01*
X27100000Y-16497440D01*
X27347765Y-16448157D01*
X27557809Y-16307809D01*
X27698157Y-16097765D01*
X27707184Y-16052381D01*
X27719375Y-16070625D01*
X28210582Y-16398839D01*
X28643744Y-16485000D01*
X28936256Y-16485000D01*
X29369418Y-16398839D01*
X29860625Y-16070625D01*
X30188839Y-15579418D01*
X30304092Y-15000000D01*
X30188839Y-14420582D01*
X29860625Y-13929375D01*
X29541522Y-13716157D01*
X29671358Y-13655183D01*
X30061645Y-13226924D01*
X30231476Y-12816890D01*
X30110155Y-12587000D01*
X28917000Y-12587000D01*
X28917000Y-12607000D01*
X28663000Y-12607000D01*
X28663000Y-12587000D01*
X26377000Y-12587000D01*
X26377000Y-12607000D01*
X26123000Y-12607000D01*
X26123000Y-12587000D01*
X24929845Y-12587000D01*
X24808524Y-12816890D01*
X24978355Y-13226924D01*
X25255708Y-13531261D01*
X25152235Y-13551843D01*
X24942191Y-13692191D01*
X24801843Y-13902235D01*
X24752560Y-14150000D01*
X735000Y-14150000D01*
X735000Y-11214561D01*
X11815000Y-11214561D01*
X11815000Y-11785439D01*
X12033466Y-12312862D01*
X12437138Y-12716534D01*
X12964561Y-12935000D01*
X13535439Y-12935000D01*
X14062862Y-12716534D01*
X14271651Y-12507745D01*
X17421861Y-12507745D01*
X17495995Y-12753864D01*
X18033223Y-12946965D01*
X18603454Y-12919778D01*
X19004005Y-12753864D01*
X19078139Y-12507745D01*
X18250000Y-11679605D01*
X17421861Y-12507745D01*
X14271651Y-12507745D01*
X14466534Y-12312862D01*
X14685000Y-11785439D01*
X14685000Y-11283223D01*
X16803035Y-11283223D01*
X16830222Y-11853454D01*
X16996136Y-12254005D01*
X17242255Y-12328139D01*
X18070395Y-11500000D01*
X18429605Y-11500000D01*
X19257745Y-12328139D01*
X19503864Y-12254005D01*
X19696965Y-11716777D01*
X19669778Y-11146546D01*
X19503864Y-10745995D01*
X19257745Y-10671861D01*
X18429605Y-11500000D01*
X18070395Y-11500000D01*
X17242255Y-10671861D01*
X16996136Y-10745995D01*
X16803035Y-11283223D01*
X14685000Y-11283223D01*
X14685000Y-11214561D01*
X14466534Y-10687138D01*
X14271651Y-10492255D01*
X17421861Y-10492255D01*
X18250000Y-11320395D01*
X19078139Y-10492255D01*
X19013269Y-10276890D01*
X24808524Y-10276890D01*
X24978355Y-10686924D01*
X25368642Y-11115183D01*
X25527954Y-11190000D01*
X25368642Y-11264817D01*
X24978355Y-11693076D01*
X24808524Y-12103110D01*
X24929845Y-12333000D01*
X26123000Y-12333000D01*
X26123000Y-10047000D01*
X26377000Y-10047000D01*
X26377000Y-12333000D01*
X28663000Y-12333000D01*
X28663000Y-10047000D01*
X28917000Y-10047000D01*
X28917000Y-12333000D01*
X30110155Y-12333000D01*
X30231476Y-12103110D01*
X30061645Y-11693076D01*
X29671358Y-11264817D01*
X29512046Y-11190000D01*
X29671358Y-11115183D01*
X30061645Y-10686924D01*
X30231476Y-10276890D01*
X30110155Y-10047000D01*
X28917000Y-10047000D01*
X28663000Y-10047000D01*
X26377000Y-10047000D01*
X26123000Y-10047000D01*
X24929845Y-10047000D01*
X24808524Y-10276890D01*
X19013269Y-10276890D01*
X19004005Y-10246136D01*
X18466777Y-10053035D01*
X17896546Y-10080222D01*
X17495995Y-10246136D01*
X17421861Y-10492255D01*
X14271651Y-10492255D01*
X14062862Y-10283466D01*
X13535439Y-10065000D01*
X12964561Y-10065000D01*
X12437138Y-10283466D01*
X12033466Y-10687138D01*
X11815000Y-11214561D01*
X735000Y-11214561D01*
X735000Y-6150000D01*
X1002560Y-6150000D01*
X1002560Y-8350000D01*
X1051843Y-8597765D01*
X1192191Y-8807809D01*
X1402235Y-8948157D01*
X1650000Y-8997440D01*
X3850000Y-8997440D01*
X4097765Y-8948157D01*
X4307809Y-8807809D01*
X4448157Y-8597765D01*
X4497440Y-8350000D01*
X4497440Y-7948797D01*
X4723229Y-7797929D01*
X4765631Y-7734470D01*
X4964351Y-7535750D01*
X6015000Y-7535750D01*
X6015000Y-8476309D01*
X6111673Y-8709698D01*
X6290301Y-8888327D01*
X6523690Y-8985000D01*
X7464250Y-8985000D01*
X7623000Y-8826250D01*
X7623000Y-7377000D01*
X7877000Y-7377000D01*
X7877000Y-8826250D01*
X8035750Y-8985000D01*
X8976310Y-8985000D01*
X9209699Y-8888327D01*
X9388327Y-8709698D01*
X9485000Y-8476309D01*
X9485000Y-7535750D01*
X9326250Y-7377000D01*
X7877000Y-7377000D01*
X7623000Y-7377000D01*
X6173750Y-7377000D01*
X6015000Y-7535750D01*
X4964351Y-7535750D01*
X5285540Y-7214561D01*
X11815000Y-7214561D01*
X11815000Y-7785439D01*
X12033466Y-8312862D01*
X12437138Y-8716534D01*
X12964561Y-8935000D01*
X13535439Y-8935000D01*
X14062862Y-8716534D01*
X14271651Y-8507745D01*
X17421861Y-8507745D01*
X17495995Y-8753864D01*
X18033223Y-8946965D01*
X18603454Y-8919778D01*
X19004005Y-8753864D01*
X19078139Y-8507745D01*
X18250000Y-7679605D01*
X17421861Y-8507745D01*
X14271651Y-8507745D01*
X14466534Y-8312862D01*
X14685000Y-7785439D01*
X14685000Y-7283223D01*
X16803035Y-7283223D01*
X16830222Y-7853454D01*
X16996136Y-8254005D01*
X17242255Y-8328139D01*
X18070395Y-7500000D01*
X18429605Y-7500000D01*
X19257745Y-8328139D01*
X19503864Y-8254005D01*
X19689735Y-7736890D01*
X24808524Y-7736890D01*
X24978355Y-8146924D01*
X25368642Y-8575183D01*
X25527954Y-8650000D01*
X25368642Y-8724817D01*
X24978355Y-9153076D01*
X24808524Y-9563110D01*
X24929845Y-9793000D01*
X26123000Y-9793000D01*
X26123000Y-7507000D01*
X26377000Y-7507000D01*
X26377000Y-9793000D01*
X28663000Y-9793000D01*
X28663000Y-7507000D01*
X28917000Y-7507000D01*
X28917000Y-9793000D01*
X30110155Y-9793000D01*
X30154093Y-9709741D01*
X31542050Y-9709741D01*
X31542050Y-10290259D01*
X31764205Y-10826587D01*
X32174693Y-11237075D01*
X32711021Y-11459230D01*
X33291539Y-11459230D01*
X33827867Y-11237075D01*
X34238355Y-10826587D01*
X34460510Y-10290259D01*
X34460510Y-9709741D01*
X34238355Y-9173413D01*
X33827867Y-8762925D01*
X33291539Y-8540770D01*
X32711021Y-8540770D01*
X32174693Y-8762925D01*
X31764205Y-9173413D01*
X31542050Y-9709741D01*
X30154093Y-9709741D01*
X30231476Y-9563110D01*
X30061645Y-9153076D01*
X29671358Y-8724817D01*
X29512046Y-8650000D01*
X29671358Y-8575183D01*
X30061645Y-8146924D01*
X30231476Y-7736890D01*
X30110155Y-7507000D01*
X28917000Y-7507000D01*
X28663000Y-7507000D01*
X26377000Y-7507000D01*
X26123000Y-7507000D01*
X24929845Y-7507000D01*
X24808524Y-7736890D01*
X19689735Y-7736890D01*
X19696965Y-7716777D01*
X19669778Y-7146546D01*
X19503864Y-6745995D01*
X19257745Y-6671861D01*
X18429605Y-7500000D01*
X18070395Y-7500000D01*
X17242255Y-6671861D01*
X16996136Y-6745995D01*
X16803035Y-7283223D01*
X14685000Y-7283223D01*
X14685000Y-7214561D01*
X14466534Y-6687138D01*
X14271651Y-6492255D01*
X17421861Y-6492255D01*
X18250000Y-7320395D01*
X19078139Y-6492255D01*
X19004005Y-6246136D01*
X18466777Y-6053035D01*
X17896546Y-6080222D01*
X17495995Y-6246136D01*
X17421861Y-6492255D01*
X14271651Y-6492255D01*
X14062862Y-6283466D01*
X13535439Y-6065000D01*
X12964561Y-6065000D01*
X12437138Y-6283466D01*
X12033466Y-6687138D01*
X11815000Y-7214561D01*
X5285540Y-7214561D01*
X6015000Y-6485102D01*
X6015000Y-6964250D01*
X6173750Y-7123000D01*
X7623000Y-7123000D01*
X7623000Y-7103000D01*
X7877000Y-7103000D01*
X7877000Y-7123000D01*
X9326250Y-7123000D01*
X9485000Y-6964250D01*
X9485000Y-6023691D01*
X9388327Y-5790302D01*
X9209699Y-5611673D01*
X9181518Y-5600000D01*
X24971822Y-5600000D01*
X25179375Y-5910625D01*
X25498478Y-6123843D01*
X25368642Y-6184817D01*
X24978355Y-6613076D01*
X24808524Y-7023110D01*
X24929845Y-7253000D01*
X26123000Y-7253000D01*
X26123000Y-7233000D01*
X26377000Y-7233000D01*
X26377000Y-7253000D01*
X28663000Y-7253000D01*
X28663000Y-7233000D01*
X28917000Y-7233000D01*
X28917000Y-7253000D01*
X30110155Y-7253000D01*
X30231476Y-7023110D01*
X30061645Y-6613076D01*
X29671358Y-6184817D01*
X29541522Y-6123843D01*
X29860625Y-5910625D01*
X30188839Y-5419418D01*
X30304092Y-4840000D01*
X30188839Y-4260582D01*
X29860625Y-3769375D01*
X29369418Y-3441161D01*
X28936256Y-3355000D01*
X28643744Y-3355000D01*
X28210582Y-3441161D01*
X27719375Y-3769375D01*
X27520000Y-4067761D01*
X27320625Y-3769375D01*
X26829418Y-3441161D01*
X26396256Y-3355000D01*
X26103744Y-3355000D01*
X25670582Y-3441161D01*
X25179375Y-3769375D01*
X24971822Y-4080000D01*
X6660148Y-4080000D01*
X6585300Y-4065112D01*
X6510452Y-4080000D01*
X6510448Y-4080000D01*
X6336905Y-4114520D01*
X6288762Y-4124096D01*
X6123574Y-4234472D01*
X6037371Y-4292071D01*
X5994971Y-4355527D01*
X4448175Y-5902324D01*
X4448157Y-5902235D01*
X4307809Y-5692191D01*
X4097765Y-5551843D01*
X3850000Y-5502560D01*
X1650000Y-5502560D01*
X1402235Y-5551843D01*
X1192191Y-5692191D01*
X1051843Y-5902235D01*
X1002560Y-6150000D01*
X735000Y-6150000D01*
X735000Y-2250000D01*
X786887Y-2250000D01*
X898260Y-2809909D01*
X1215423Y-3284577D01*
X1690091Y-3601740D01*
X2108667Y-3685000D01*
X2391333Y-3685000D01*
X2809909Y-3601740D01*
X3284577Y-3284577D01*
X3601740Y-2809909D01*
X3713113Y-2250000D01*
X3656336Y-1964561D01*
X8435000Y-1964561D01*
X8435000Y-2535439D01*
X8653466Y-3062862D01*
X9057138Y-3466534D01*
X9584561Y-3685000D01*
X10155439Y-3685000D01*
X10682862Y-3466534D01*
X11086534Y-3062862D01*
X11305000Y-2535439D01*
X11305000Y-2250000D01*
X11666887Y-2250000D01*
X11778260Y-2809909D01*
X12095423Y-3284577D01*
X12570091Y-3601740D01*
X12988667Y-3685000D01*
X13271333Y-3685000D01*
X13689909Y-3601740D01*
X14164577Y-3284577D01*
X14481740Y-2809909D01*
X14593113Y-2250000D01*
X14536336Y-1964561D01*
X19315000Y-1964561D01*
X19315000Y-2535439D01*
X19533466Y-3062862D01*
X19937138Y-3466534D01*
X20464561Y-3685000D01*
X21035439Y-3685000D01*
X21562862Y-3466534D01*
X21966534Y-3062862D01*
X22185000Y-2535439D01*
X22185000Y-1964561D01*
X21966534Y-1437138D01*
X21562862Y-1033466D01*
X21035439Y-815000D01*
X20464561Y-815000D01*
X19937138Y-1033466D01*
X19533466Y-1437138D01*
X19315000Y-1964561D01*
X14536336Y-1964561D01*
X14481740Y-1690091D01*
X14164577Y-1215423D01*
X13689909Y-898260D01*
X13271333Y-815000D01*
X12988667Y-815000D01*
X12570091Y-898260D01*
X12095423Y-1215423D01*
X11778260Y-1690091D01*
X11666887Y-2250000D01*
X11305000Y-2250000D01*
X11305000Y-1964561D01*
X11086534Y-1437138D01*
X10682862Y-1033466D01*
X10155439Y-815000D01*
X9584561Y-815000D01*
X9057138Y-1033466D01*
X8653466Y-1437138D01*
X8435000Y-1964561D01*
X3656336Y-1964561D01*
X3601740Y-1690091D01*
X3284577Y-1215423D01*
X2809909Y-898260D01*
X2391333Y-815000D01*
X2108667Y-815000D01*
X1690091Y-898260D01*
X1215423Y-1215423D01*
X898260Y-1690091D01*
X786887Y-2250000D01*
X735000Y-2250000D01*
X735000Y-735000D01*
X38455998Y-735000D01*
X37922577Y-1268422D01*
G04 #@! TD*
M02*
