M48
;DRILL file {KiCad (5.0.0)} date 01/05/19 22:50:18
;FORMAT={-:-/ absolute / inch / decimal}
FMAT,2
INCH,TZ
T1C0.0157
T2C0.0236
T3C0.0315
T4C0.0354
T5C0.0394
T6C0.0433
T7C0.0433
%
G90
G05
M72
T1
X4.9194Y-0.2778
X14.0426Y-0.3735
T2
X0.7677Y-0.6594
X0.8465Y-0.6594
X0.4823Y-0.6594
X0.561Y-0.6594
T3
X19.8476Y-0.2461
X19.8476Y-0.5461
X19.9476Y-0.2461
X19.9476Y-0.5461
X20.0476Y-0.2461
X20.0476Y-0.5461
X20.1476Y-0.2461
X20.1476Y-0.5461
X20.2476Y-0.2461
X20.2476Y-0.5461
X20.3476Y-0.2461
X20.3476Y-0.5461
X20.4476Y-0.2461
X20.4476Y-0.5461
X3.0906Y-0.3937
X3.3906Y-0.3937
X0.5217Y-0.2953
X0.7185Y-0.2953
X7.8445Y-0.3937
X8.1445Y-0.3937
X7.8445Y-0.6398
X8.1445Y-0.6398
X12.5886Y-0.3937
X12.8886Y-0.3937
X17.2638Y-0.6398
X17.5638Y-0.6398
X12.5886Y-0.1476
X12.8886Y-0.1476
X3.0957Y-0.1476
X3.3957Y-0.1476
X3.0906Y-0.6398
X3.3906Y-0.6398
X0.0886Y-0.0886
X0.3886Y-0.0886
X0.5169Y-0.0886
X0.8169Y-0.0886
X17.2638Y-0.1476
X17.5638Y-0.1476
X17.2638Y-0.3937
X17.5638Y-0.3937
X7.8445Y-0.1476
X8.1445Y-0.1476
X12.5886Y-0.6398
X12.8886Y-0.6398
X0.5217Y-0.4528
X0.7185Y-0.4528
T4
X6.1697Y-0.1083
X6.2697Y-0.1083
X16.8012Y-0.1083
X16.9012Y-0.1083
X2.628Y-0.1083
X2.728Y-0.1083
X14.439Y-0.6791
X14.539Y-0.6791
X13.2579Y-0.6791
X13.3579Y-0.6791
X10.8957Y-0.6791
X10.9957Y-0.6791
X1.4469Y-0.1083
X1.5469Y-0.1083
X13.2579Y-0.1083
X13.3579Y-0.1083
X8.5335Y-0.6791
X8.6335Y-0.6791
X1.4469Y-0.6791
X1.5469Y-0.6791
X6.1697Y-0.6791
X6.2697Y-0.6791
X9.7146Y-0.1083
X9.8146Y-0.1083
X15.6201Y-0.1083
X15.7201Y-0.1083
X7.3524Y-0.6791
X7.4524Y-0.6791
X4.9902Y-0.1083
X5.0902Y-0.1083
X14.439Y-0.1083
X14.539Y-0.1083
X19.1634Y-0.1083
X19.2634Y-0.1083
X10.8957Y-0.1083
X10.9957Y-0.1083
X9.7146Y-0.6791
X9.8146Y-0.6791
X3.8091Y-0.6791
X3.9091Y-0.6791
X7.3524Y-0.1083
X7.4524Y-0.1083
X12.0752Y-0.1083
X12.1752Y-0.1083
X3.8091Y-0.1083
X3.9091Y-0.1083
X4.9902Y-0.6791
X5.0902Y-0.6791
X16.8012Y-0.6791
X16.9012Y-0.6791
X19.1634Y-0.6791
X19.2634Y-0.6791
X8.5335Y-0.1083
X8.6335Y-0.1083
X2.628Y-0.6791
X2.728Y-0.6791
X12.0768Y-0.6791
X12.1768Y-0.6791
X17.9823Y-0.1083
X18.0823Y-0.1083
X17.9823Y-0.6791
X18.0823Y-0.6791
X15.6201Y-0.6791
X15.7201Y-0.6791
T5
X1.0335Y-0.1906
X1.0335Y-0.2906
X1.0335Y-0.3906
X1.0335Y-0.4906
X1.0335Y-0.5906
X1.1335Y-0.1906
X1.1335Y-0.2906
X1.1335Y-0.3906
X1.1335Y-0.4906
X1.1335Y-0.5906
T6
X14.2323Y-0.3937
X14.3505Y-0.3937
X14.685Y-0.3937
X3.6615Y-0.3937
X3.996Y-0.3937
X4.1142Y-0.3937
X16.5945Y-0.3937
X16.7127Y-0.3937
X17.0472Y-0.3937
X11.8701Y-0.3937
X11.9883Y-0.3937
X12.3228Y-0.3937
X7.2048Y-0.3937
X7.5393Y-0.3937
X7.6575Y-0.3937
X6.0237Y-0.3937
X6.3582Y-0.3937
X6.4764Y-0.3937
X9.567Y-0.3937
X9.9015Y-0.3937
X10.0197Y-0.3937
X2.4804Y-0.3937
X2.8149Y-0.3937
X2.9331Y-0.3937
X15.4134Y-0.3937
X15.5316Y-0.3937
X15.8661Y-0.3937
X4.8426Y-0.3937
X5.1771Y-0.3937
X5.2953Y-0.3937
X1.2993Y-0.3937
X1.6338Y-0.3937
X1.752Y-0.3937
X10.689Y-0.3937
X10.8072Y-0.3937
X11.1417Y-0.3937
X17.7756Y-0.3937
X17.8938Y-0.3937
X18.2283Y-0.3937
X13.0512Y-0.3937
X13.1694Y-0.3937
X13.5039Y-0.3937
X18.9567Y-0.3937
X19.0749Y-0.3937
X19.4094Y-0.3937
X8.3859Y-0.3937
X8.7204Y-0.3937
X8.8386Y-0.3937
T7
X0.3051Y-0.2854
X0.3051Y-0.6854
X0.1083Y-0.2854
X0.1083Y-0.6854
T0
M30
