G04 #@! TF.GenerationSoftware,KiCad,Pcbnew,(5.0.0)*
G04 #@! TF.CreationDate,2019-01-05T22:50:15+01:00*
G04 #@! TF.ProjectId,1u_bus,31755F6275732E6B696361645F706362,rev?*
G04 #@! TF.SameCoordinates,Original*
G04 #@! TF.FileFunction,Paste,Top*
G04 #@! TF.FilePolarity,Positive*
%FSLAX46Y46*%
G04 Gerber Fmt 4.6, Leading zero omitted, Abs format (unit mm)*
G04 Created by KiCad (PCBNEW (5.0.0)) date 01/05/19 22:50:15*
%MOMM*%
%LPD*%
G01*
G04 APERTURE LIST*
%ADD10C,1.648460*%
G04 APERTURE END LIST*
D10*
G04 #@! TO.C,U2*
X44499860Y-10000000D03*
X41497580Y-10000000D03*
X33001280Y-10000000D03*
G04 #@! TD*
G04 #@! TO.C,U3*
X153001280Y-10000000D03*
X161497580Y-10000000D03*
X164499860Y-10000000D03*
G04 #@! TD*
G04 #@! TO.C,U4*
X271500140Y-10000000D03*
X274502420Y-10000000D03*
X282998720Y-10000000D03*
G04 #@! TD*
G04 #@! TO.C,U5*
X402998720Y-10000000D03*
X394502420Y-10000000D03*
X391500140Y-10000000D03*
G04 #@! TD*
G04 #@! TO.C,U6*
X74499860Y-10000000D03*
X71497580Y-10000000D03*
X63001280Y-10000000D03*
G04 #@! TD*
G04 #@! TO.C,U7*
X194499860Y-10000000D03*
X191497580Y-10000000D03*
X183001280Y-10000000D03*
G04 #@! TD*
G04 #@! TO.C,U8*
X312998720Y-10000000D03*
X304502420Y-10000000D03*
X301500140Y-10000000D03*
G04 #@! TD*
G04 #@! TO.C,U9*
X421500140Y-10000000D03*
X424502420Y-10000000D03*
X432998720Y-10000000D03*
G04 #@! TD*
G04 #@! TO.C,U10*
X93001280Y-10000000D03*
X101497580Y-10000000D03*
X104499860Y-10000000D03*
G04 #@! TD*
G04 #@! TO.C,U11*
X224499860Y-10000000D03*
X221497580Y-10000000D03*
X213001280Y-10000000D03*
G04 #@! TD*
G04 #@! TO.C,U12*
X342998720Y-10000000D03*
X334502420Y-10000000D03*
X331500140Y-10000000D03*
G04 #@! TD*
G04 #@! TO.C,U13*
X451500140Y-10000000D03*
X454502420Y-10000000D03*
X462998720Y-10000000D03*
G04 #@! TD*
G04 #@! TO.C,U14*
X123001280Y-10000000D03*
X131497580Y-10000000D03*
X134499860Y-10000000D03*
G04 #@! TD*
G04 #@! TO.C,U15*
X243001280Y-10000000D03*
X251497580Y-10000000D03*
X254499860Y-10000000D03*
G04 #@! TD*
G04 #@! TO.C,U16*
X372998720Y-10000000D03*
X364502420Y-10000000D03*
X361500140Y-10000000D03*
G04 #@! TD*
G04 #@! TO.C,U17*
X481500140Y-10000000D03*
X484502420Y-10000000D03*
X492998720Y-10000000D03*
G04 #@! TD*
M02*
